# Exported from SharpOpenGl procedural mesh
o bomber_heavy
# vertices 117
v -0.6711255 0.21704103 -2.7588952
v 0.6711255 0.21704103 -2.7588952
v 0 0.44648445 -2.2434833
v -0.6711255 0.21704103 -2.7588952
v 0 0.44648445 -2.2434833
v -0.94567674 0.21704103 -1.6135356
v 0.6711255 0.21704103 -2.7588952
v 0.94567674 0.21704103 -1.6135356
v 0 0.44648445 -2.2434833
v -0.6711255 0 -2.7588952
v -0.94567674 0 -1.6135356
v 0.6711255 0 -2.7588952
v 0.6711255 0 -2.7588952
v -0.94567674 0 -1.6135356
v 0.94567674 0 -1.6135356
v -0.94567674 0.21704103 -1.6135356
v 0.94567674 0.21704103 -1.6135356
v 0 0.44648445 -1.0981238
v -0.94567674 0.21704103 -1.6135356
v 0 0.44648445 -1.0981238
v -1.1466624 0.21704103 -0.46817613
v 0.94567674 0.21704103 -1.6135356
v 1.1466624 0.21704103 -0.46817613
v 0 0.44648445 -1.0981238
v -0.94567674 0 -1.6135356
v -1.1466624 0 -0.46817613
v 0.94567674 0 -1.6135356
v 0.94567674 0 -1.6135356
v -1.1466624 0 -0.46817613
v 1.1466624 0 -0.46817613
v -1.1466624 0.21704103 -0.46817613
v 1.1466624 0.21704103 -0.46817613
v 0 0.44648445 0.047235668
v -1.1466624 0.21704103 -0.46817613
v 0 0.44648445 0.047235668
v -1.2202281 0.21704103 0.6771834
v 1.1466624 0.21704103 -0.46817613
v 1.2202281 0.21704103 0.6771834
v 0 0.44648445 0.047235668
v -1.1466624 0 -0.46817613
v -1.2202281 0 0.6771834
v 1.1466624 0 -0.46817613
v 1.1466624 0 -0.46817613
v -1.2202281 0 0.6771834
v 1.2202281 0 0.6771834
v -1.2202281 0.21704103 0.6771834
v 1.2202281 0.21704103 0.6771834
v 0 0.44648445 1.1925952
v -1.2202281 0.21704103 0.6771834
v 0 0.44648445 1.1925952
v -1.1466624 0.21704103 1.8225429
v 1.2202281 0.21704103 0.6771834
v 1.1466624 0.21704103 1.8225429
v 0 0.44648445 1.1925952
v -1.2202281 0 0.6771834
v -1.1466624 0 1.8225429
v 1.2202281 0 0.6771834
v 1.2202281 0 0.6771834
v -1.1466624 0 1.8225429
v 1.1466624 0 1.8225429
v -1.1466624 0.21704103 1.8225429
v 1.1466624 0.21704103 1.8225429
v 0 0.44648445 2.3379548
v -1.1466624 0.21704103 1.8225429
v 0 0.44648445 2.3379548
v -0.8756267 0.21704103 2.9679024
v 1.1466624 0.21704103 1.8225429
v 0.8756267 0.21704103 2.9679024
v 0 0.44648445 2.3379548
v -1.1466624 0 1.8225429
v -0.8756267 0 2.9679024
v 1.1466624 0 1.8225429
v 1.1466624 0 1.8225429
v -0.8756267 0 2.9679024
v 0.8756267 0 2.9679024
v -0.8756267 0.21704103 2.9679024
v 0.8756267 0.21704103 2.9679024
v 0 0.44648445 3.4833143
v -0.8756267 0.21704103 2.9679024
v 0 0.44648445 3.4833143
v -0 0.21704103 4.113262
v 0.8756267 0.21704103 2.9679024
v 0 0.21704103 4.113262
v 0 0.44648445 3.4833143
v -0.8756267 0 2.9679024
v -0 0 4.113262
v 0.8756267 0 2.9679024
v 0.8756267 0 2.9679024
v -0 0 4.113262
v 0 0 4.113262
v 0 0.48369142 -2.1862154
v -0.097618245 0.3844727 -2.3326428
v 0.097618245 0.3844727 -2.3326428
v 0 0.48369142 -1.0408559
v -0.097618245 0.3844727 -1.1872833
v 0.097618245 0.3844727 -1.1872833
v 0 0.48369142 0.10450363
v -0.097618245 0.3844727 -0.04192373
v 0.097618245 0.3844727 -0.04192373
v 0 0.48369142 1.2498629
v -0.097618245 0.3844727 1.1034355
v 0.097618245 0.3844727 1.1034355
v 0 0.48369142 2.3952224
v -0.097618245 0.3844727 2.248795
v 0.097618245 0.3844727 2.248795
v -0.51249576 0.17363283 -0.75242597
v 0.51249576 0.17363283 -0.75242597
v 0 0.26044923 -1.4045284
v -0.7363445 0.06890191 -2.7043715
v -1.0392977 0 -3.3708684
v -0.43339133 0 -3.3708684
v 0 0.06890191 -2.7043715
v -0.30295318 0 -3.3708684
v 0.30295318 0 -3.3708684
v 0.7363445 0.06890191 -2.7043715
v 0.43339133 0 -3.3708684
v 1.0392977 0 -3.3708684
vn 0 -0.913567 0.40668824
vn 0 -0.913567 0.40668824
vn 0 -0.913567 0.40668824
vn 0.27678457 -0.9586388 0.06634733
vn 0.27678457 -0.9586388 0.06634733
vn 0.27678457 -0.9586388 0.06634733
vn -0.27678457 -0.9586388 0.06634733
vn -0.27678457 -0.9586388 0.06634733
vn -0.27678457 -0.9586388 0.06634733
vn 0 1 -0
vn 0 1 -0
vn 0 1 -0
vn 0 1 -0
vn 0 1 -0
vn 0 1 -0
vn 0 -0.913567 0.40668824
vn 0 -0.913567 0.40668824
vn 0 -0.913567 0.40668824
vn 0.21605162 -0.97564566 0.037912346
vn 0.21605162 -0.97564566 0.037912346
vn 0.21605162 -0.97564566 0.037912346
vn -0.21605162 -0.97564566 0.037912346
vn -0.21605162 -0.97564566 0.037912346
vn -0.21605162 -0.97564566 0.037912346
vn 0 1 -0
vn 0 1 -0
vn 0 1 -0
vn 0 1 -0
vn 0 1 -0
vn 0 1 -0
vn 0 -0.91356695 0.40668827
vn 0 -0.91356695 0.40668827
vn 0 -0.91356695 0.40668827
vn 0.1908908 -0.98153466 0.0122607965
vn 0.1908908 -0.98153466 0.0122607965
vn 0.1908908 -0.98153466 0.0122607965
vn -0.1908908 -0.98153466 0.0122607965
vn -0.1908908 -0.98153466 0.0122607965
vn -0.1908908 -0.98153466 0.0122607965
vn 0 1 -0
vn 0 1 -0
vn 0 1 -0
vn 0 1 -0
vn 0 1 -0
vn 0 1 -0
vn 0 -0.91356695 0.4066882
vn 0 -0.91356695 0.4066882
vn 0 -0.91356695 0.4066882
vn 0.18975078 -0.9817566 -0.012187573
vn 0.18975078 -0.9817566 -0.012187573
vn 0.18975078 -0.9817566 -0.012187573
vn -0.18975078 -0.9817566 -0.012187573
vn -0.18975078 -0.9817566 -0.012187573
vn -0.18975078 -0.9817566 -0.012187573
vn 0 1 0
vn 0 1 0
vn 0 1 0
vn 0 1 0
vn 0 1 0
vn 0 1 0
vn 0 -0.913567 0.4066882
vn 0 -0.913567 0.4066882
vn 0 -0.913567 0.4066882
vn 0.21821152 -0.97453445 -0.05163715
vn 0.21821152 -0.97453445 -0.05163715
vn 0.21821152 -0.97453445 -0.05163715
vn -0.21821152 -0.97453445 -0.05163715
vn -0.21821152 -0.97453445 -0.05163715
vn -0.21821152 -0.97453445 -0.05163715
vn 0 1 0
vn 0 1 0
vn 0 1 0
vn 0 1 0
vn 0 1 0
vn 0 1 0
vn 0 -0.913567 0.40668824
vn 0 -0.913567 0.40668824
vn 0 -0.913567 0.40668824
vn 0.40858448 -0.8576062 -0.31236252
vn 0.40858448 -0.8576062 -0.31236252
vn 0.40858448 -0.8576062 -0.31236252
vn -0.40858448 -0.8576062 -0.31236252
vn -0.40858448 -0.8576062 -0.31236252
vn -0.40858448 -0.8576062 -0.31236252
vn 0 1 0
vn 0 1 0
vn 0 1 0
vn 0 1 0
vn 0 1 0
vn 0 1 0
vn 0 -0.82785046 0.5609488
vn 0 -0.82785046 0.5609488
vn 0 -0.82785046 0.5609488
vn 0 -0.82785046 0.5609488
vn 0 -0.82785046 0.5609488
vn 0 -0.82785046 0.5609488
vn 0 -0.82785046 0.56094897
vn 0 -0.82785046 0.56094897
vn 0 -0.82785046 0.56094897
vn 0 -0.82785046 0.5609488
vn 0 -0.82785046 0.5609488
vn 0 -0.82785046 0.5609488
vn 0 -0.82785046 0.5609488
vn 0 -0.82785046 0.5609488
vn 0 -0.82785046 0.5609488
vn -0 0.991254 0.13196869
vn -0 0.991254 0.13196869
vn -0 0.991254 0.13196869
vn 0 -0.9946989 0.102831155
vn 0 -0.9946989 0.102831155
vn 0 -0.9946989 0.102831155
vn 0 -0.9946989 0.102831155
vn 0 -0.9946989 0.102831155
vn 0 -0.9946989 0.102831155
vn 0 -0.9946989 0.102831155
vn 0 -0.9946989 0.102831155
vn 0 -0.9946989 0.102831155
f 1//1 2//2 3//3
f 4//4 5//5 6//6
f 7//7 8//8 9//9
f 10//10 11//11 12//12
f 13//13 14//14 15//15
f 16//16 17//17 18//18
f 19//19 20//20 21//21
f 22//22 23//23 24//24
f 25//25 26//26 27//27
f 28//28 29//29 30//30
f 31//31 32//32 33//33
f 34//34 35//35 36//36
f 37//37 38//38 39//39
f 40//40 41//41 42//42
f 43//43 44//44 45//45
f 46//46 47//47 48//48
f 49//49 50//50 51//51
f 52//52 53//53 54//54
f 55//55 56//56 57//57
f 58//58 59//59 60//60
f 61//61 62//62 63//63
f 64//64 65//65 66//66
f 67//67 68//68 69//69
f 70//70 71//71 72//72
f 73//73 74//74 75//75
f 76//76 77//77 78//78
f 79//79 80//80 81//81
f 82//82 83//83 84//84
f 85//85 86//86 87//87
f 88//88 89//89 90//90
f 91//91 92//92 93//93
f 94//94 95//95 96//96
f 97//97 98//98 99//99
f 100//100 101//101 102//102
f 103//103 104//104 105//105
f 106//106 107//107 108//108
f 109//109 110//110 111//111
f 112//112 113//113 114//114
f 115//115 116//116 117//117
