# Exported from SharpOpenGl procedural mesh
o cruiser_heavy
# vertices 411
v -0.49062237 0 -2.582731
v 0.49062237 0 -2.582731
v 0.49062237 0.45345736 -2.582731
v -0.49062237 0 -2.582731
v 0.49062237 0.45345736 -2.582731
v -0.49062237 0.45345736 -2.582731
v -0.49062237 0 3.7126758
v 0.49062237 0.45345736 3.7126758
v 0.49062237 0 3.7126758
v -0.49062237 0 3.7126758
v -0.49062237 0.45345736 3.7126758
v 0.49062237 0.45345736 3.7126758
v -0.23088111 0.45345736 0.16142069
v 0.23088111 0.45345736 0.16142069
v 0.23088111 0.5951628 0.16142069
v -0.23088111 0.45345736 0.16142069
v 0.23088111 0.5951628 0.16142069
v -0.23088111 0.5951628 0.16142069
v -0.23088111 0.45345736 1.4527862
v 0.23088111 0.5951628 1.4527862
v 0.23088111 0.45345736 1.4527862
v -0.23088111 0.45345736 1.4527862
v -0.23088111 0.5951628 1.4527862
v 0.23088111 0.5951628 1.4527862
v -0.23088111 0.45345736 0.16142069
v -0.23088111 0.45345736 1.4527862
v 0.23088111 0.45345736 1.4527862
v -0.23088111 0.45345736 0.16142069
v 0.23088111 0.45345736 1.4527862
v 0.23088111 0.45345736 0.16142069
v -0.23088111 0.5951628 0.16142069
v 0.23088111 0.5951628 1.4527862
v -0.23088111 0.5951628 1.4527862
v -0.23088111 0.5951628 0.16142069
v 0.23088111 0.5951628 0.16142069
v 0.23088111 0.5951628 1.4527862
v -0.40404195 0.05668217 -0.48426205
v 0.40404195 0.05668217 -0.48426205
v 0.40404195 0.22672868 -0.48426205
v -0.40404195 0.05668217 -0.48426205
v 0.40404195 0.22672868 -0.48426205
v -0.40404195 0.22672868 -0.48426205
v -0.40404195 0.05668217 2.0984688
v 0.40404195 0.22672868 2.0984688
v 0.40404195 0.05668217 2.0984688
v -0.40404195 0.05668217 2.0984688
v -0.40404195 0.22672868 2.0984688
v 0.40404195 0.22672868 2.0984688
v -0.40404195 0.05668217 -0.48426205
v -0.40404195 0.05668217 2.0984688
v 0.40404195 0.05668217 2.0984688
v -0.40404195 0.05668217 -0.48426205
v 0.40404195 0.05668217 2.0984688
v 0.40404195 0.05668217 -0.48426205
v -0.40404195 0.22672868 -0.48426205
v 0.40404195 0.22672868 2.0984688
v -0.40404195 0.22672868 2.0984688
v -0.40404195 0.22672868 -0.48426205
v 0.40404195 0.22672868 -0.48426205
v 0.40404195 0.22672868 2.0984688
v -0.2886014 0.40811166 0.16142069
v -0.2886014 0.40811166 1.1299448
v 0.2886014 0.40811166 1.1299448
v -0.2886014 0.40811166 0.16142069
v 0.2886014 0.40811166 1.1299448
v 0.2886014 0.40811166 0.16142069
v -0.2886014 0.47613028 0.16142069
v 0.2886014 0.47613028 1.1299448
v -0.2886014 0.47613028 1.1299448
v -0.2886014 0.47613028 0.16142069
v 0.2886014 0.47613028 0.16142069
v 0.2886014 0.47613028 1.1299448
v -0.25396922 0.5101396 -0.080710344
v -0.25396922 0.5101396 0.96852416
v 0.25396922 0.5101396 0.96852416
v -0.25396922 0.5101396 -0.080710344
v 0.25396922 0.5101396 0.96852416
v 0.25396922 0.5101396 -0.080710344
v -0.25396922 0.5781582 -0.080710344
v 0.25396922 0.5781582 0.96852416
v -0.25396922 0.5781582 0.96852416
v -0.25396922 0.5781582 -0.080710344
v 0.25396922 0.5781582 -0.080710344
v 0.25396922 0.5781582 0.96852416
v -0.08658042 0.5781582 0.96852416
v 0.08658042 0.5781582 0.96852416
v 0 0.6490109 1.0492345
v -0.31746155 0.19838761 6.7796693
v 0.31746155 0.19838761 6.7796693
v 0 0.651845 7.5932293
v -0.20202097 0 6.7796693
v 0 0.19838761 7.276845
v 0.20202097 0 6.7796693
v -0.08658042 0.4988031 7.276845
v 0.08658042 0.4988031 7.276845
v 0 0.648444 7.909614
v -1.9624895 0.22672868 2.9055724
v -1.645028 0.34009302 -0.24213102
v -0.40404195 0.22672868 0.16142069
v -0.40404195 0 0.16142069
v -1.645028 0.34009302 -0.24213102
v -1.645028 0 -0.24213102
v -0.40404195 0 0.16142069
v -1.645028 0 -0.24213102
v -0.40404195 0 2.9055724
v 1.9624895 0.22672868 2.9055724
v 1.645028 0.34009302 -0.24213102
v 0.40404195 0.22672868 0.16142069
v 0.40404195 0 0.16142069
v 1.645028 0.34009302 -0.24213102
v 1.645028 0 -0.24213102
v 0.40404195 0 0.16142069
v 1.645028 0 -0.24213102
v 0.40404195 0 2.9055724
v -0.1443007 0.11336434 4.6812
v 0.1443007 0.11336434 4.6812
v 0.1443007 0.22672868 4.6812
v -0.1443007 0.11336434 4.6812
v 0.1443007 0.22672868 4.6812
v -0.1443007 0.22672868 4.6812
v -0.1443007 0.11336434 5.649724
v 0.1443007 0.22672868 5.649724
v 0.1443007 0.11336434 5.649724
v -0.1443007 0.11336434 5.649724
v -0.1443007 0.22672868 5.649724
v 0.1443007 0.22672868 5.649724
v -0.1443007 0.11336434 4.6812
v -0.1443007 0.11336434 5.649724
v 0.1443007 0.11336434 5.649724
v -0.1443007 0.11336434 4.6812
v 0.1443007 0.11336434 5.649724
v 0.1443007 0.11336434 4.6812
v -0.1443007 0.22672868 4.6812
v 0.1443007 0.22672868 5.649724
v -0.1443007 0.22672868 5.649724
v -0.1443007 0.22672868 4.6812
v 0.1443007 0.22672868 4.6812
v 0.1443007 0.22672868 5.649724
v 0 0.53621334 -0.9147172
v -0.115440555 0.3990425 -1.1972034
v 0.115440555 0.3990425 -1.1972034
v 0 0.56115353 1.7756276
v -0.115440555 0.41151255 1.4931414
v 0.115440555 0.41151255 1.4931414
v 0 0.58609366 4.4659724
v -0.115440555 0.42398265 4.183486
v 0.115440555 0.42398265 4.183486
v -0.46176225 0 -2.4213104
v -0.17316085 0 -2.4213104
v -0.17316085 0.28341088 -2.4213104
v -0.46176225 0 -2.4213104
v -0.17316085 0.28341088 -2.4213104
v -0.46176225 0.28341088 -2.4213104
v -0.46176225 0 -1.2913655
v -0.17316085 0.28341088 -1.2913655
v -0.17316085 0 -1.2913655
v -0.46176225 0 -1.2913655
v -0.46176225 0.28341088 -1.2913655
v -0.17316085 0.28341088 -1.2913655
v -0.46176225 0 -2.4213104
v -0.46176225 0 -1.2913655
v -0.17316085 0 -1.2913655
v -0.46176225 0 -2.4213104
v -0.17316085 0 -1.2913655
v -0.17316085 0 -2.4213104
v -0.46176225 0.28341088 -2.4213104
v -0.17316085 0.28341088 -1.2913655
v -0.46176225 0.28341088 -1.2913655
v -0.46176225 0.28341088 -2.4213104
v -0.17316085 0.28341088 -2.4213104
v -0.17316085 0.28341088 -1.2913655
v -0.46176225 0 -2.4213104
v -0.46176225 0.28341088 -2.4213104
v -0.46176225 0.28341088 -1.2913655
v -0.46176225 0 -2.4213104
v -0.46176225 0.28341088 -1.2913655
v -0.46176225 0 -1.2913655
v -0.17316085 0 -2.4213104
v -0.17316085 0 -1.2913655
v -0.17316085 0.28341088 -1.2913655
v -0.17316085 0 -2.4213104
v -0.17316085 0.28341088 -1.2913655
v -0.17316085 0.28341088 -2.4213104
v -0.37806785 0.028341085 -2.582731
v -0.25685525 0.028341085 -2.582731
v -0.25685525 0.22672868 -2.582731
v -0.37806785 0.028341085 -2.582731
v -0.25685525 0.22672868 -2.582731
v -0.37806785 0.22672868 -2.582731
v -0.37806785 0.028341085 -1.6142069
v -0.25685525 0.22672868 -1.6142069
v -0.25685525 0.028341085 -1.6142069
v -0.37806785 0.028341085 -1.6142069
v -0.37806785 0.22672868 -1.6142069
v -0.25685525 0.22672868 -1.6142069
v -0.37806785 0.028341085 -2.582731
v -0.37806785 0.22672868 -2.582731
v -0.37806785 0.22672868 -1.6142069
v -0.37806785 0.028341085 -2.582731
v -0.37806785 0.22672868 -1.6142069
v -0.37806785 0.028341085 -1.6142069
v -0.25685525 0.028341085 -2.582731
v -0.25685525 0.028341085 -1.6142069
v -0.25685525 0.22672868 -1.6142069
v -0.25685525 0.028341085 -2.582731
v -0.25685525 0.22672868 -1.6142069
v -0.25685525 0.22672868 -2.582731
v -0.31746155 0.19838761 -1.6142069
v -0.38239688 0.07085272 -2.0984688
v -0.25252622 0.07085272 -2.0984688
v -0.1443007 0 -2.4213104
v 0.1443007 0 -2.4213104
v 0.1443007 0.28341088 -2.4213104
v -0.1443007 0 -2.4213104
v 0.1443007 0.28341088 -2.4213104
v -0.1443007 0.28341088 -2.4213104
v -0.1443007 0 -1.2913655
v 0.1443007 0.28341088 -1.2913655
v 0.1443007 0 -1.2913655
v -0.1443007 0 -1.2913655
v -0.1443007 0.28341088 -1.2913655
v 0.1443007 0.28341088 -1.2913655
v -0.1443007 0 -2.4213104
v -0.1443007 0 -1.2913655
v 0.1443007 0 -1.2913655
v -0.1443007 0 -2.4213104
v 0.1443007 0 -1.2913655
v 0.1443007 0 -2.4213104
v -0.1443007 0.28341088 -2.4213104
v 0.1443007 0.28341088 -1.2913655
v -0.1443007 0.28341088 -1.2913655
v -0.1443007 0.28341088 -2.4213104
v 0.1443007 0.28341088 -2.4213104
v 0.1443007 0.28341088 -1.2913655
v -0.1443007 0 -2.4213104
v -0.1443007 0.28341088 -2.4213104
v -0.1443007 0.28341088 -1.2913655
v -0.1443007 0 -2.4213104
v -0.1443007 0.28341088 -1.2913655
v -0.1443007 0 -1.2913655
v 0.1443007 0 -2.4213104
v 0.1443007 0 -1.2913655
v 0.1443007 0.28341088 -1.2913655
v 0.1443007 0 -2.4213104
v 0.1443007 0.28341088 -1.2913655
v 0.1443007 0.28341088 -2.4213104
v -0.060606293 0.028341085 -2.582731
v 0.060606293 0.028341085 -2.582731
v 0.060606293 0.22672868 -2.582731
v -0.060606293 0.028341085 -2.582731
v 0.060606293 0.22672868 -2.582731
v -0.060606293 0.22672868 -2.582731
v -0.060606293 0.028341085 -1.6142069
v 0.060606293 0.22672868 -1.6142069
v 0.060606293 0.028341085 -1.6142069
v -0.060606293 0.028341085 -1.6142069
v -0.060606293 0.22672868 -1.6142069
v 0.060606293 0.22672868 -1.6142069
v -0.060606293 0.028341085 -2.582731
v -0.060606293 0.22672868 -2.582731
v -0.060606293 0.22672868 -1.6142069
v -0.060606293 0.028341085 -2.582731
v -0.060606293 0.22672868 -1.6142069
v -0.060606293 0.028341085 -1.6142069
v 0.060606293 0.028341085 -2.582731
v 0.060606293 0.028341085 -1.6142069
v 0.060606293 0.22672868 -1.6142069
v 0.060606293 0.028341085 -2.582731
v 0.060606293 0.22672868 -1.6142069
v 0.060606293 0.22672868 -2.582731
v 0 0.19838761 -1.6142069
v -0.06493531 0.07085272 -2.0984688
v 0.06493531 0.07085272 -2.0984688
v 0.17316085 0 -2.4213104
v 0.46176225 0 -2.4213104
v 0.46176225 0.28341088 -2.4213104
v 0.17316085 0 -2.4213104
v 0.46176225 0.28341088 -2.4213104
v 0.17316085 0.28341088 -2.4213104
v 0.17316085 0 -1.2913655
v 0.46176225 0.28341088 -1.2913655
v 0.46176225 0 -1.2913655
v 0.17316085 0 -1.2913655
v 0.17316085 0.28341088 -1.2913655
v 0.46176225 0.28341088 -1.2913655
v 0.17316085 0 -2.4213104
v 0.17316085 0 -1.2913655
v 0.46176225 0 -1.2913655
v 0.17316085 0 -2.4213104
v 0.46176225 0 -1.2913655
v 0.46176225 0 -2.4213104
v 0.17316085 0.28341088 -2.4213104
v 0.46176225 0.28341088 -1.2913655
v 0.17316085 0.28341088 -1.2913655
v 0.17316085 0.28341088 -2.4213104
v 0.46176225 0.28341088 -2.4213104
v 0.46176225 0.28341088 -1.2913655
v 0.17316085 0 -2.4213104
v 0.17316085 0.28341088 -2.4213104
v 0.17316085 0.28341088 -1.2913655
v 0.17316085 0 -2.4213104
v 0.17316085 0.28341088 -1.2913655
v 0.17316085 0 -1.2913655
v 0.46176225 0 -2.4213104
v 0.46176225 0 -1.2913655
v 0.46176225 0.28341088 -1.2913655
v 0.46176225 0 -2.4213104
v 0.46176225 0.28341088 -1.2913655
v 0.46176225 0.28341088 -2.4213104
v 0.25685525 0.028341085 -2.582731
v 0.37806785 0.028341085 -2.582731
v 0.37806785 0.22672868 -2.582731
v 0.25685525 0.028341085 -2.582731
v 0.37806785 0.22672868 -2.582731
v 0.25685525 0.22672868 -2.582731
v 0.25685525 0.028341085 -1.6142069
v 0.37806785 0.22672868 -1.6142069
v 0.37806785 0.028341085 -1.6142069
v 0.25685525 0.028341085 -1.6142069
v 0.25685525 0.22672868 -1.6142069
v 0.37806785 0.22672868 -1.6142069
v 0.25685525 0.028341085 -2.582731
v 0.25685525 0.22672868 -2.582731
v 0.25685525 0.22672868 -1.6142069
v 0.25685525 0.028341085 -2.582731
v 0.25685525 0.22672868 -1.6142069
v 0.25685525 0.028341085 -1.6142069
v 0.37806785 0.028341085 -2.582731
v 0.37806785 0.028341085 -1.6142069
v 0.37806785 0.22672868 -1.6142069
v 0.37806785 0.028341085 -2.582731
v 0.37806785 0.22672868 -1.6142069
v 0.37806785 0.22672868 -2.582731
v 0.31746155 0.19838761 -1.6142069
v 0.25252622 0.07085272 -2.0984688
v 0.38239688 0.07085272 -2.0984688
v -0.115440555 0.70852715 0.48426205
v 0.115440555 0.70852715 0.48426205
v 0.115440555 0.8502326 0.48426205
v -0.115440555 0.70852715 0.48426205
v 0.115440555 0.8502326 0.48426205
v -0.115440555 0.8502326 0.48426205
v -0.115440555 0.70852715 0.9685241
v 0.115440555 0.8502326 0.9685241
v 0.115440555 0.70852715 0.9685241
v -0.115440555 0.70852715 0.9685241
v -0.115440555 0.8502326 0.9685241
v 0.115440555 0.8502326 0.9685241
v -0.115440555 0.70852715 0.48426205
v -0.115440555 0.70852715 0.9685241
v 0.115440555 0.70852715 0.9685241
v -0.115440555 0.70852715 0.48426205
v 0.115440555 0.70852715 0.9685241
v 0.115440555 0.70852715 0.48426205
v -0.115440555 0.8502326 0.48426205
v 0.115440555 0.8502326 0.9685241
v -0.115440555 0.8502326 0.9685241
v -0.115440555 0.8502326 0.48426205
v 0.115440555 0.8502326 0.48426205
v 0.115440555 0.8502326 0.9685241
v -0.115440555 0.70852715 0.48426205
v -0.115440555 0.8502326 0.48426205
v -0.115440555 0.8502326 0.9685241
v -0.115440555 0.70852715 0.48426205
v -0.115440555 0.8502326 0.9685241
v -0.115440555 0.70852715 0.9685241
v 0.115440555 0.70852715 0.48426205
v 0.115440555 0.70852715 0.9685241
v 0.115440555 0.8502326 0.9685241
v 0.115440555 0.70852715 0.48426205
v 0.115440555 0.8502326 0.9685241
v 0.115440555 0.8502326 0.48426205
v 0 0.70852715 0.64568275
v -0.1443007 0.56682175 0.48426205
v 0.1443007 0.56682175 0.48426205
v 0 0.7793799 5.811145
v -0.1443007 0.62350386 5.649724
v 0.1443007 0.62350386 5.649724
v -0.33189163 0.07085272 0.48426205
v 0.33189163 0.07085272 0.48426205
v 0 0.19838761 0.5649724
v -0.6349231 0.17004651 -0.48426205
v -0.5772028 0.2550698 -0.41969377
v -0.6349231 0.11336434 -0.38740963
v 0.6349231 0.17004651 -0.48426205
v 0.5772028 0.2550698 -0.41969377
v 0.6349231 0.11336434 -0.38740963
v -0.31746155 0.28341088 0.80710346
v -0.25974128 0.34009302 1.1299448
v -0.31746155 0.21255815 0.9685241
v -1.1832657 0.28341088 3.066993
v -1.1399754 0.34009302 3.3898344
v -1.1832657 0.22672868 3.2284138
v 0.31746155 0.28341088 0.80710346
v 0.25974128 0.34009302 1.1299448
v 0.31746155 0.21255815 0.9685241
v 1.1832657 0.28341088 3.066993
v 1.1399754 0.34009302 3.3898344
v 1.1832657 0.22672868 3.2284138
v -0.115440555 0.05668217 -1.9370482
v 0.115440555 0.05668217 -1.9370482
v 0 0.14170544 -1.6142069
v -0.08658042 0.651845 0.48426205
v 0.08658042 0.651845 0.48426205
v 0 0.7368682 0.5246172
v -0.08658042 0.7226977 1.4527862
v 0.08658042 0.7226977 1.4527862
v 0 0.80772096 1.4931414
v -0.07215035 0.085023254 -1.7756276
v 0.07215035 0.085023254 -1.7756276
v 0 0.17004651 -1.4527862
vn 0 0 1
vn 0 0 1
vn 0 0 1
vn 0 0 1
vn 0 0 1
vn 0 0 1
vn 0 0 -1
vn 0 0 -1
vn 0 0 -1
vn 0 0 -1
vn 0 0 -1
vn 0 0 -1
vn 0 0 1
vn 0 0 1
vn 0 0 1
vn 0 0 1
vn 0 0 1
vn 0 0 1
vn 0 0 -1
vn 0 0 -1
vn 0 0 -1
vn 0 0 -1
vn 0 0 -1
vn 0 0 -1
vn 0 1 0
vn 0 1 0
vn 0 1 0
vn 0 1 0
vn 0 1 0
vn 0 1 0
vn 0 -1 0
vn 0 -1 0
vn 0 -1 0
vn 0 -1 0
vn 0 -1 0
vn 0 -1 0
vn 0 0 1
vn 0 0 1
vn 0 0 1
vn 0 0 1
vn 0 0 1
vn 0 0 1
vn 0 0 -1
vn 0 0 -1
vn 0 0 -1
vn 0 0 -1
vn 0 0 -1
vn 0 0 -1
vn 0 0.99999994 0
vn 0 0.99999994 0
vn 0 0.99999994 0
vn 0 0.99999994 0
vn 0 0.99999994 0
vn 0 0.99999994 0
vn 0 -0.99999994 0
vn 0 -0.99999994 0
vn 0 -0.99999994 0
vn 0 -0.99999994 0
vn 0 -0.99999994 0
vn 0 -0.99999994 0
vn 0 1 0
vn 0 1 0
vn 0 1 0
vn 0 1 0
vn 0 1 0
vn 0 1 0
vn 0 -1 0
vn 0 -1 0
vn 0 -1 0
vn 0 -1 0
vn 0 -1 0
vn 0 -1 0
vn 0 1 0
vn 0 1 0
vn 0 1 0
vn 0 1 0
vn 0 1 0
vn 0 1 0
vn 0 -1 0
vn 0 -1 0
vn 0 -1 0
vn 0 -1 0
vn 0 -1 0
vn 0 -1 0
vn 0 -0.7515092 0.6597227
vn 0 -0.7515092 0.6597227
vn 0 -0.7515092 0.6597227
vn 0 -0.87348205 0.48685637
vn 0 -0.87348205 0.48685637
vn 0 -0.87348205 0.48685637
vn 0 0.9287873 -0.37061322
vn 0 0.9287873 -0.37061322
vn 0 0.9287873 -0.37061322
vn 0 -0.97315794 0.230138
vn 0 -0.97315794 0.230138
vn 0 -0.97315794 0.230138
vn -0.076808296 -0.9960912 -0.043620657
vn -0.076808296 -0.9960912 -0.043620657
vn -0.076808296 -0.9960912 -0.043620657
vn -0.3092463 0 0.9509819
vn -0.3092463 0 0.9509819
vn -0.3092463 0 0.9509819
vn 0 1 -0
vn 0 1 -0
vn 0 1 -0
vn -0.076808296 0.9960912 0.043620657
vn -0.076808296 0.9960912 0.043620657
vn -0.076808296 0.9960912 0.043620657
vn -0.3092463 0 -0.9509819
vn -0.3092463 0 -0.9509819
vn -0.3092463 0 -0.9509819
vn 0 -1 0
vn 0 -1 0
vn 0 -1 0
vn 0 0 1
vn 0 0 1
vn 0 0 1
vn 0 0 1
vn 0 0 1
vn 0 0 1
vn 0 0 -1
vn 0 0 -1
vn 0 0 -1
vn 0 0 -1
vn 0 0 -1
vn 0 0 -1
vn 0 1 0
vn 0 1 0
vn 0 1 0
vn 0 1 0
vn 0 1 0
vn 0 1 0
vn 0 -1 0
vn 0 -1 0
vn 0 -1 0
vn 0 -1 0
vn 0 -1 0
vn 0 -1 0
vn 0 -0.89955413 0.4368093
vn 0 -0.89955413 0.4368093
vn 0 -0.89955413 0.4368093
vn 0 -0.88367224 0.4681063
vn 0 -0.88367224 0.4681063
vn 0 -0.88367224 0.4681063
vn 0 -0.86732876 0.4977356
vn 0 -0.86732876 0.4977356
vn 0 -0.86732876 0.4977356
vn 0 0 1
vn 0 0 1
vn 0 0 1
vn 0 0 1
vn 0 0 1
vn 0 0 1
vn 0 0 -1
vn 0 0 -1
vn 0 0 -1
vn 0 0 -1
vn 0 0 -1
vn 0 0 -1
vn 0 1 0
vn 0 1 0
vn 0 1 0
vn 0 1 0
vn 0 1 0
vn 0 1 0
vn 0 -1 0
vn 0 -1 0
vn 0 -1 0
vn 0 -1 0
vn 0 -1 0
vn 0 -1 0
vn 1 0 0
vn 1 0 0
vn 1 0 0
vn 1 0 0
vn 1 0 0
vn 1 0 0
vn -1 0 0
vn -1 0 0
vn -1 0 0
vn -1 0 0
vn -1 0 0
vn -1 0 0
vn 0 0 0.99999994
vn 0 0 0.99999994
vn 0 0 0.99999994
vn 0 0 0.99999994
vn 0 0 0.99999994
vn 0 0 0.99999994
vn 0 0 -0.99999994
vn 0 0 -0.99999994
vn 0 0 -0.99999994
vn 0 0 -0.99999994
vn 0 0 -0.99999994
vn 0 0 -0.99999994
vn 1 0 0
vn 1 0 0
vn 1 0 0
vn 1 0 0
vn 1 0 0
vn 1 0 0
vn -1 0 0
vn -1 0 0
vn -1 0 0
vn -1 0 0
vn -1 0 0
vn -1 0 0
vn 0 -0.96702653 0.25467548
vn 0 -0.96702653 0.25467548
vn 0 -0.96702653 0.25467548
vn 0 0 1
vn 0 0 1
vn 0 0 1
vn 0 0 1
vn 0 0 1
vn 0 0 1
vn 0 0 -1
vn 0 0 -1
vn 0 0 -1
vn 0 0 -1
vn 0 0 -1
vn 0 0 -1
vn 0 1 0
vn 0 1 0
vn 0 1 0
vn 0 1 0
vn 0 1 0
vn 0 1 0
vn 0 -1 0
vn 0 -1 0
vn 0 -1 0
vn 0 -1 0
vn 0 -1 0
vn 0 -1 0
vn 1 0 0
vn 1 0 0
vn 1 0 0
vn 1 0 0
vn 1 0 0
vn 1 0 0
vn -1 0 0
vn -1 0 0
vn -1 0 0
vn -1 0 0
vn -1 0 0
vn -1 0 0
vn 0 0 1
vn 0 0 1
vn 0 0 1
vn 0 0 1
vn 0 0 1
vn 0 0 1
vn 0 0 -1
vn 0 0 -1
vn 0 0 -1
vn 0 0 -1
vn 0 0 -1
vn 0 0 -1
vn 1 0 0
vn 1 0 0
vn 1 0 0
vn 1 0 0
vn 1 0 0
vn 1 0 0
vn -1 0 0
vn -1 0 0
vn -1 0 0
vn -1 0 0
vn -1 0 0
vn -1 0 0
vn 0 -0.96702653 0.25467548
vn 0 -0.96702653 0.25467548
vn 0 -0.96702653 0.25467548
vn 0 0 1
vn 0 0 1
vn 0 0 1
vn 0 0 1
vn 0 0 1
vn 0 0 1
vn 0 0 -1
vn 0 0 -1
vn 0 0 -1
vn 0 0 -1
vn 0 0 -1
vn 0 0 -1
vn 0 1 0
vn 0 1 0
vn 0 1 0
vn 0 1 0
vn 0 1 0
vn 0 1 0
vn 0 -1 0
vn 0 -1 0
vn 0 -1 0
vn 0 -1 0
vn 0 -1 0
vn 0 -1 0
vn 1 0 0
vn 1 0 0
vn 1 0 0
vn 1 0 0
vn 1 0 0
vn 1 0 0
vn -1 0 0
vn -1 0 0
vn -1 0 0
vn -1 0 0
vn -1 0 0
vn -1 0 0
vn 0 0 0.99999994
vn 0 0 0.99999994
vn 0 0 0.99999994
vn 0 0 0.99999994
vn 0 0 0.99999994
vn 0 0 0.99999994
vn 0 0 -0.99999994
vn 0 0 -0.99999994
vn 0 0 -0.99999994
vn 0 0 -0.99999994
vn 0 0 -0.99999994
vn 0 0 -0.99999994
vn 1 0 0
vn 1 0 0
vn 1 0 0
vn 1 0 0
vn 1 0 0
vn 1 0 0
vn -1 0 0
vn -1 0 0
vn -1 0 0
vn -1 0 0
vn -1 0 0
vn -1 0 0
vn 0 -0.96702653 0.25467548
vn 0 -0.96702653 0.25467548
vn 0 -0.96702653 0.25467548
vn 0 0 1
vn 0 0 1
vn 0 0 1
vn 0 0 1
vn 0 0 1
vn 0 0 1
vn 0 0 -1
vn 0 0 -1
vn 0 0 -1
vn 0 0 -1
vn 0 0 -1
vn 0 0 -1
vn 0 1 0
vn 0 1 0
vn 0 1 0
vn 0 1 0
vn 0 1 0
vn 0 1 0
vn 0 -1 0
vn 0 -1 0
vn 0 -1 0
vn 0 -1 0
vn 0 -1 0
vn 0 -1 0
vn 1 0 0
vn 1 0 0
vn 1 0 0
vn 1 0 0
vn 1 0 0
vn 1 0 0
vn -1 0 0
vn -1 0 0
vn -1 0 0
vn -1 0 0
vn -1 0 0
vn -1 0 0
vn 0 -0.7515092 0.6597227
vn 0 -0.7515092 0.6597227
vn 0 -0.7515092 0.6597227
vn 0 -0.71935374 0.69464403
vn 0 -0.71935374 0.69464403
vn 0 -0.71935374 0.69464403
vn 0 -0.53476 0.8450039
vn 0 -0.53476 0.8450039
vn 0 -0.53476 0.8450039
vn 0.8782244 -0.4127579 -0.24156353
vn 0.8782244 -0.4127579 -0.24156353
vn 0.8782244 -0.4127579 -0.24156353
vn 0.8782244 0.4127579 0.24156353
vn 0.8782244 0.4127579 0.24156353
vn 0.8782244 0.4127579 0.24156353
vn 0.95304734 -0.2772862 -0.12170985
vn 0.95304734 -0.2772862 -0.12170985
vn 0.95304734 -0.2772862 -0.12170985
vn 0.9654733 -0.24578923 -0.086307794
vn 0.9654733 -0.24578923 -0.086307794
vn 0.9654733 -0.24578923 -0.086307794
vn 0.95304734 0.2772862 0.12170985
vn 0.95304734 0.2772862 0.12170985
vn 0.95304734 0.2772862 0.12170985
vn 0.9654733 0.24578923 0.086307794
vn 0.9654733 0.24578923 0.086307794
vn 0.9654733 0.24578923 0.086307794
vn 0 -0.9670266 0.25467548
vn 0 -0.9670266 0.25467548
vn 0 -0.9670266 0.25467548
vn 0 -0.42878902 0.90340465
vn 0 -0.42878902 0.90340465
vn 0 -0.42878902 0.90340465
vn 0 -0.42878932 0.90340453
vn 0 -0.42878932 0.90340453
vn 0 -0.42878932 0.90340453
vn 0 -0.9670266 0.25467533
vn 0 -0.9670266 0.25467533
vn 0 -0.9670266 0.25467533
f 1//1 2//2 3//3
f 4//4 5//5 6//6
f 7//7 8//8 9//9
f 10//10 11//11 12//12
f 13//13 14//14 15//15
f 16//16 17//17 18//18
f 19//19 20//20 21//21
f 22//22 23//23 24//24
f 25//25 26//26 27//27
f 28//28 29//29 30//30
f 31//31 32//32 33//33
f 34//34 35//35 36//36
f 37//37 38//38 39//39
f 40//40 41//41 42//42
f 43//43 44//44 45//45
f 46//46 47//47 48//48
f 49//49 50//50 51//51
f 52//52 53//53 54//54
f 55//55 56//56 57//57
f 58//58 59//59 60//60
f 61//61 62//62 63//63
f 64//64 65//65 66//66
f 67//67 68//68 69//69
f 70//70 71//71 72//72
f 73//73 74//74 75//75
f 76//76 77//77 78//78
f 79//79 80//80 81//81
f 82//82 83//83 84//84
f 85//85 86//86 87//87
f 88//88 89//89 90//90
f 91//91 92//92 93//93
f 94//94 95//95 96//96
f 97//97 98//98 99//99
f 100//100 101//101 102//102
f 103//103 104//104 105//105
f 106//106 107//107 108//108
f 109//109 110//110 111//111
f 112//112 113//113 114//114
f 115//115 116//116 117//117
f 118//118 119//119 120//120
f 121//121 122//122 123//123
f 124//124 125//125 126//126
f 127//127 128//128 129//129
f 130//130 131//131 132//132
f 133//133 134//134 135//135
f 136//136 137//137 138//138
f 139//139 140//140 141//141
f 142//142 143//143 144//144
f 145//145 146//146 147//147
f 148//148 149//149 150//150
f 151//151 152//152 153//153
f 154//154 155//155 156//156
f 157//157 158//158 159//159
f 160//160 161//161 162//162
f 163//163 164//164 165//165
f 166//166 167//167 168//168
f 169//169 170//170 171//171
f 172//172 173//173 174//174
f 175//175 176//176 177//177
f 178//178 179//179 180//180
f 181//181 182//182 183//183
f 184//184 185//185 186//186
f 187//187 188//188 189//189
f 190//190 191//191 192//192
f 193//193 194//194 195//195
f 196//196 197//197 198//198
f 199//199 200//200 201//201
f 202//202 203//203 204//204
f 205//205 206//206 207//207
f 208//208 209//209 210//210
f 211//211 212//212 213//213
f 214//214 215//215 216//216
f 217//217 218//218 219//219
f 220//220 221//221 222//222
f 223//223 224//224 225//225
f 226//226 227//227 228//228
f 229//229 230//230 231//231
f 232//232 233//233 234//234
f 235//235 236//236 237//237
f 238//238 239//239 240//240
f 241//241 242//242 243//243
f 244//244 245//245 246//246
f 247//247 248//248 249//249
f 250//250 251//251 252//252
f 253//253 254//254 255//255
f 256//256 257//257 258//258
f 259//259 260//260 261//261
f 262//262 263//263 264//264
f 265//265 266//266 267//267
f 268//268 269//269 270//270
f 271//271 272//272 273//273
f 274//274 275//275 276//276
f 277//277 278//278 279//279
f 280//280 281//281 282//282
f 283//283 284//284 285//285
f 286//286 287//287 288//288
f 289//289 290//290 291//291
f 292//292 293//293 294//294
f 295//295 296//296 297//297
f 298//298 299//299 300//300
f 301//301 302//302 303//303
f 304//304 305//305 306//306
f 307//307 308//308 309//309
f 310//310 311//311 312//312
f 313//313 314//314 315//315
f 316//316 317//317 318//318
f 319//319 320//320 321//321
f 322//322 323//323 324//324
f 325//325 326//326 327//327
f 328//328 329//329 330//330
f 331//331 332//332 333//333
f 334//334 335//335 336//336
f 337//337 338//338 339//339
f 340//340 341//341 342//342
f 343//343 344//344 345//345
f 346//346 347//347 348//348
f 349//349 350//350 351//351
f 352//352 353//353 354//354
f 355//355 356//356 357//357
f 358//358 359//359 360//360
f 361//361 362//362 363//363
f 364//364 365//365 366//366
f 367//367 368//368 369//369
f 370//370 371//371 372//372
f 373//373 374//374 375//375
f 376//376 377//377 378//378
f 379//379 380//380 381//381
f 382//382 383//383 384//384
f 385//385 386//386 387//387
f 388//388 389//389 390//390
f 391//391 392//392 393//393
f 394//394 395//395 396//396
f 397//397 398//398 399//399
f 400//400 401//401 402//402
f 403//403 404//404 405//405
f 406//406 407//407 408//408
f 409//409 410//410 411//411
