# Exported from SharpOpenGl procedural mesh
o dreadnought
# vertices 153
v -0.9139303 0.55572456 -5.1754365
v 0.9139303 0.55572456 -5.1754365
v 0 1.1432048 -4.4502873
v -0.9139303 0.55572456 -5.1754365
v 0 1.1432048 -4.4502873
v -1.2000861 0.55572456 -3.563994
v 0.9139303 0.55572456 -5.1754365
v 1.2000861 0.55572456 -3.563994
v 0 1.1432048 -4.4502873
v -0.9139303 0 -5.1754365
v -1.2000861 0 -3.563994
v 0.9139303 0 -5.1754365
v 0.9139303 0 -5.1754365
v -1.2000861 0 -3.563994
v 1.2000861 0 -3.563994
v -1.2000861 0.55572456 -3.563994
v 1.2000861 0.55572456 -3.563994
v 0 1.1432048 -2.8388448
v -1.2000861 0.55572456 -3.563994
v 0 1.1432048 -2.8388448
v -1.4426773 0.55572456 -1.9525511
v 1.2000861 0.55572456 -3.563994
v 1.4426773 0.55572456 -1.9525511
v 0 1.1432048 -2.8388448
v -1.2000861 0 -3.563994
v -1.4426773 0 -1.9525511
v 1.2000861 0 -3.563994
v 1.2000861 0 -3.563994
v -1.4426773 0 -1.9525511
v 1.4426773 0 -1.9525511
v -1.4426773 0.55572456 -1.9525511
v 1.4426773 0.55572456 -1.9525511
v 0 1.1432048 -1.227402
v -1.4426773 0.55572456 -1.9525511
v 0 1.1432048 -1.227402
v -1.6047715 0.55572456 -0.34110832
v 1.4426773 0.55572456 -1.9525511
v 1.6047715 0.55572456 -0.34110832
v 0 1.1432048 -1.227402
v -1.4426773 0 -1.9525511
v -1.6047715 0 -0.34110832
v 1.4426773 0 -1.9525511
v 1.4426773 0 -1.9525511
v -1.6047715 0 -0.34110832
v 1.6047715 0 -0.34110832
v -1.6047715 0.55572456 -0.34110832
v 1.6047715 0.55572456 -0.34110832
v 0 1.1432048 0.38404083
v -1.6047715 0.55572456 -0.34110832
v 0 1.1432048 0.38404083
v -1.6616914 0.55572456 1.2703342
v 1.6047715 0.55572456 -0.34110832
v 1.6616914 0.55572456 1.2703342
v 0 1.1432048 0.38404083
v -1.6047715 0 -0.34110832
v -1.6616914 0 1.2703342
v 1.6047715 0 -0.34110832
v 1.6047715 0 -0.34110832
v -1.6616914 0 1.2703342
v 1.6616914 0 1.2703342
v -1.6616914 0.55572456 1.2703342
v 1.6616914 0.55572456 1.2703342
v 0 1.1432048 1.9954836
v -1.6616914 0.55572456 1.2703342
v 0 1.1432048 1.9954836
v -1.6047715 0.55572456 2.8817773
v 1.6616914 0.55572456 1.2703342
v 1.6047715 0.55572456 2.8817773
v 0 1.1432048 1.9954836
v -1.6616914 0 1.2703342
v -1.6047715 0 2.8817773
v 1.6616914 0 1.2703342
v 1.6616914 0 1.2703342
v -1.6047715 0 2.8817773
v 1.6047715 0 2.8817773
v -1.6047715 0.55572456 2.8817773
v 1.6047715 0.55572456 2.8817773
v 0 1.1432048 3.6069264
v -1.6047715 0.55572456 2.8817773
v 0 1.1432048 3.6069264
v -1.4426773 0.55572456 4.49322
v 1.6047715 0.55572456 2.8817773
v 1.4426773 0.55572456 4.49322
v 0 1.1432048 3.6069264
v -1.6047715 0 2.8817773
v -1.4426773 0 4.49322
v 1.6047715 0 2.8817773
v 1.6047715 0 2.8817773
v -1.4426773 0 4.49322
v 1.4426773 0 4.49322
v -1.4426773 0.55572456 4.49322
v 1.4426773 0.55572456 4.49322
v 0 1.1432048 5.218369
v -1.4426773 0.55572456 4.49322
v 0 1.1432048 5.218369
v -0.83339304 0.55572456 6.1046624
v 1.4426773 0.55572456 4.49322
v 0.83339304 0.55572456 6.1046624
v 0 1.1432048 5.218369
v -1.4426773 0 4.49322
v -0.83339304 0 6.1046624
v 1.4426773 0 4.49322
v 1.4426773 0 4.49322
v -0.83339304 0 6.1046624
v 0.83339304 0 6.1046624
v -0.83339304 0.55572456 6.1046624
v 0.83339304 0.55572456 6.1046624
v 0 1.1432048 6.8298116
v -0.83339304 0.55572456 6.1046624
v 0 1.1432048 6.8298116
v -0 0.55572456 7.716105
v 0.83339304 0.55572456 6.1046624
v 0 0.55572456 7.716105
v 0 1.1432048 6.8298116
v -0.83339304 0 6.1046624
v -0 0 7.716105
v 0.83339304 0 6.1046624
v 0.83339304 0 6.1046624
v -0 0 7.716105
v 0 0 7.716105
v 0 1.2384717 -4.369715
v -0.13293532 0.9844263 -4.569118
v 0.13293532 0.9844263 -4.569118
v 0 1.2384717 -2.7582724
v -0.13293532 0.9844263 -2.9576755
v 0.13293532 0.9844263 -2.9576755
v 0 1.2384717 -1.1468296
v -0.13293532 0.9844263 -1.3462325
v 0.13293532 0.9844263 -1.3462325
v 0 1.2384717 0.46461296
v -0.13293532 0.9844263 0.26520997
v 0.13293532 0.9844263 0.26520997
v 0 1.2384717 2.0760555
v -0.13293532 0.9844263 1.8766526
v 0.13293532 0.9844263 1.8766526
v 0 1.2384717 3.6874986
v -0.13293532 0.9844263 3.4880955
v 0.13293532 0.9844263 3.4880955
v 0 1.2384717 5.298941
v -0.13293532 0.9844263 5.0995383
v 0.13293532 0.9844263 5.0995383
v -0.69791037 0.44457963 -1.4114827
v 0.69791037 0.44457963 -1.4114827
v 0 0.6668694 -2.6347678
v -1.0027448 0.17642048 -5.0731554
v -1.5184422 0 -6.20769
v -0.48704743 0 -6.20769
v 0 0.17642048 -5.0731554
v -0.51569736 0 -6.20769
v 0.51569736 0 -6.20769
v 1.0027448 0.17642048 -5.0731554
v 0.48704743 0 -6.20769
v 1.5184422 0 -6.20769
vn 0 -0.7770065 0.6294926
vn 0 -0.7770065 0.6294926
vn 0 -0.7770065 0.6294926
vn 0.48901698 -0.867941 0.08683837
vn 0.48901698 -0.867941 0.08683837
vn 0.48901698 -0.867941 0.08683837
vn -0.48901698 -0.867941 0.08683837
vn -0.48901698 -0.867941 0.08683837
vn -0.48901698 -0.867941 0.08683837
vn 0 1 -0
vn 0 1 -0
vn 0 1 -0
vn 0 0.99999994 -0
vn 0 0.99999994 -0
vn 0 0.99999994 -0
vn 0 -0.7770065 0.6294926
vn 0 -0.7770065 0.6294926
vn 0 -0.7770065 0.6294926
vn 0.4086137 -0.9106322 0.06151386
vn 0.4086137 -0.9106322 0.06151386
vn 0.4086137 -0.9106322 0.06151386
vn -0.4086137 -0.9106322 0.06151386
vn -0.4086137 -0.9106322 0.06151386
vn -0.4086137 -0.9106322 0.06151386
vn 0 0.99999994 -0
vn 0 0.99999994 -0
vn 0 0.99999994 -0
vn 0 1 -0
vn 0 1 -0
vn 0 1 -0
vn 0 -0.77700657 0.6294926
vn 0 -0.77700657 0.6294926
vn 0 -0.77700657 0.6294926
vn 0.36117747 -0.9317891 0.036330663
vn 0.36117747 -0.9317891 0.036330663
vn 0.36117747 -0.9317891 0.036330663
vn -0.36117747 -0.9317891 0.036330663
vn -0.36117747 -0.9317891 0.036330663
vn -0.36117747 -0.9317891 0.036330663
vn 0 1 -0
vn 0 1 -0
vn 0 1 -0
vn 0 1 -0
vn 0 1 -0
vn 0 1 -0
vn 0 -0.7770065 0.6294925
vn 0 -0.7770065 0.6294925
vn 0 -0.7770065 0.6294925
vn 0.33897176 -0.9407204 0.011973278
vn 0.33897176 -0.9407204 0.011973278
vn 0.33897176 -0.9407204 0.011973278
vn -0.33897176 -0.9407204 0.011973278
vn -0.33897176 -0.9407204 0.011973278
vn -0.33897176 -0.9407204 0.011973278
vn 0 1 -0
vn 0 1 -0
vn 0 1 -0
vn 0 1 -0
vn 0 1 -0
vn 0 1 -0
vn 0 -0.7770067 0.62949246
vn 0 -0.7770067 0.62949246
vn 0 -0.7770067 0.62949246
vn 0.33792752 -0.9410964 -0.011936388
vn 0.33792752 -0.9410964 -0.011936388
vn 0.33792752 -0.9410964 -0.011936388
vn -0.33792752 -0.9410964 -0.011936388
vn -0.33792752 -0.9410964 -0.011936388
vn -0.33792752 -0.9410964 -0.011936388
vn 0 1 0
vn 0 1 0
vn 0 1 0
vn 0 1 0
vn 0 1 0
vn 0 1 0
vn 0 -0.7770065 0.6294925
vn 0 -0.7770065 0.6294925
vn 0 -0.7770065 0.6294925
vn 0.35785228 -0.9330842 -0.035996187
vn 0.35785228 -0.9330842 -0.035996187
vn 0.35785228 -0.9330842 -0.035996187
vn -0.35785228 -0.9330842 -0.035996187
vn -0.35785228 -0.9330842 -0.035996187
vn -0.35785228 -0.9330842 -0.035996187
vn 0 1 0
vn 0 1 0
vn 0 1 0
vn 0 1 0
vn 0 1 0
vn 0 1 0
vn 0 -0.77700657 0.6294926
vn 0 -0.77700657 0.6294926
vn 0 -0.77700657 0.6294926
vn 0.4428471 -0.88082373 -0.16743988
vn 0.4428471 -0.88082373 -0.16743988
vn 0.4428471 -0.88082373 -0.16743988
vn -0.4428471 -0.88082373 -0.16743988
vn -0.4428471 -0.88082373 -0.16743988
vn -0.4428471 -0.88082373 -0.16743988
vn 0 1 0
vn 0 1 0
vn 0 1 0
vn 0 1 0
vn 0 1 0
vn 0 1 0
vn 0 -0.7770065 0.6294925
vn 0 -0.7770065 0.6294925
vn 0 -0.7770065 0.6294925
vn 0.73006 -0.5696103 -0.3775666
vn 0.73006 -0.5696103 -0.3775666
vn 0.73006 -0.5696103 -0.3775666
vn -0.73006 -0.5696103 -0.3775666
vn -0.73006 -0.5696103 -0.3775666
vn -0.73006 -0.5696103 -0.3775666
vn 0 1 0
vn 0 1 0
vn 0 1 0
vn 0 1 0
vn 0 1 0
vn 0 1 0
vn 0 -0.6174303 0.78662556
vn 0 -0.6174303 0.78662556
vn 0 -0.6174303 0.78662556
vn 0 -0.6174308 0.7866252
vn 0 -0.6174308 0.7866252
vn 0 -0.6174308 0.7866252
vn 0 -0.61743057 0.78662544
vn 0 -0.61743057 0.78662544
vn 0 -0.61743057 0.78662544
vn 0 -0.6174307 0.78662527
vn 0 -0.6174307 0.78662527
vn 0 -0.6174307 0.78662527
vn 0 -0.61743057 0.78662544
vn 0 -0.61743057 0.78662544
vn 0 -0.61743057 0.78662544
vn 0 -0.6174308 0.7866252
vn 0 -0.6174308 0.7866252
vn 0 -0.6174308 0.7866252
vn 0 -0.6174303 0.78662556
vn 0 -0.6174303 0.78662556
vn 0 -0.6174303 0.78662556
vn -0 0.9838877 0.17878757
vn -0 0.9838877 0.17878757
vn -0 0.9838877 0.17878757
vn 0 -0.9881247 0.15365373
vn 0 -0.9881247 0.15365373
vn 0 -0.9881247 0.15365373
vn 0 -0.9881247 0.15365373
vn 0 -0.9881247 0.15365373
vn 0 -0.9881247 0.15365373
vn 0 -0.9881247 0.15365373
vn 0 -0.9881247 0.15365373
vn 0 -0.9881247 0.15365373
f 1//1 2//2 3//3
f 4//4 5//5 6//6
f 7//7 8//8 9//9
f 10//10 11//11 12//12
f 13//13 14//14 15//15
f 16//16 17//17 18//18
f 19//19 20//20 21//21
f 22//22 23//23 24//24
f 25//25 26//26 27//27
f 28//28 29//29 30//30
f 31//31 32//32 33//33
f 34//34 35//35 36//36
f 37//37 38//38 39//39
f 40//40 41//41 42//42
f 43//43 44//44 45//45
f 46//46 47//47 48//48
f 49//49 50//50 51//51
f 52//52 53//53 54//54
f 55//55 56//56 57//57
f 58//58 59//59 60//60
f 61//61 62//62 63//63
f 64//64 65//65 66//66
f 67//67 68//68 69//69
f 70//70 71//71 72//72
f 73//73 74//74 75//75
f 76//76 77//77 78//78
f 79//79 80//80 81//81
f 82//82 83//83 84//84
f 85//85 86//86 87//87
f 88//88 89//89 90//90
f 91//91 92//92 93//93
f 94//94 95//95 96//96
f 97//97 98//98 99//99
f 100//100 101//101 102//102
f 103//103 104//104 105//105
f 106//106 107//107 108//108
f 109//109 110//110 111//111
f 112//112 113//113 114//114
f 115//115 116//116 117//117
f 118//118 119//119 120//120
f 121//121 122//122 123//123
f 124//124 125//125 126//126
f 127//127 128//128 129//129
f 130//130 131//131 132//132
f 133//133 134//134 135//135
f 136//136 137//137 138//138
f 139//139 140//140 141//141
f 142//142 143//143 144//144
f 145//145 146//146 147//147
f 148//148 149//149 150//150
f 151//151 152//152 153//153
