# Exported from SharpOpenGl procedural mesh
o dreadnought
# vertices 294
v -0.86379385 0.6542394 -4.401319
v 0.86379385 0.6542394 -4.401319
v 0 1.3458639 -3.6923566
v -0.86379385 0.6542394 -4.401319
v 0 1.3458639 -3.6923566
v -1.1943535 0.6542394 -2.825847
v 0.86379385 0.6542394 -4.401319
v 1.1943535 0.6542394 -2.825847
v 0 1.3458639 -3.6923566
v -0.86379385 0 -4.401319
v -1.1943535 0 -2.825847
v 0.86379385 0 -4.401319
v 0.86379385 0 -4.401319
v -1.1943535 0 -2.825847
v 1.1943535 0 -2.825847
v -0.86379385 0 -4.401319
v -0.86379385 0.6542394 -4.401319
v -1.1943535 0.6542394 -2.825847
v -0.86379385 0 -4.401319
v -1.1943535 0.6542394 -2.825847
v -1.1943535 0 -2.825847
v 0.86379385 0 -4.401319
v 1.1943535 0.6542394 -2.825847
v 0.86379385 0.6542394 -4.401319
v 0.86379385 0 -4.401319
v 1.1943535 0 -2.825847
v 1.1943535 0.6542394 -2.825847
v -1.1943535 0.6542394 -2.825847
v 1.1943535 0.6542394 -2.825847
v 0 1.3458639 -2.1168845
v -1.1943535 0.6542394 -2.825847
v 0 1.3458639 -2.1168845
v -1.4745883 0.6542394 -1.2503748
v 1.1943535 0.6542394 -2.825847
v 1.4745883 0.6542394 -1.2503748
v 0 1.3458639 -2.1168845
v -1.1943535 0 -2.825847
v -1.4745883 0 -1.2503748
v 1.1943535 0 -2.825847
v 1.1943535 0 -2.825847
v -1.4745883 0 -1.2503748
v 1.4745883 0 -1.2503748
v -1.1943535 0 -2.825847
v -1.1943535 0.6542394 -2.825847
v -1.4745883 0.6542394 -1.2503748
v -1.1943535 0 -2.825847
v -1.4745883 0.6542394 -1.2503748
v -1.4745883 0 -1.2503748
v 1.1943535 0 -2.825847
v 1.4745883 0.6542394 -1.2503748
v 1.1943535 0.6542394 -2.825847
v 1.1943535 0 -2.825847
v 1.4745883 0 -1.2503748
v 1.4745883 0.6542394 -1.2503748
v -1.4745883 0.6542394 -1.2503748
v 1.4745883 0.6542394 -1.2503748
v 0 1.3458639 -0.54141223
v -1.4745883 0.6542394 -1.2503748
v 0 1.3458639 -0.54141223
v -1.6618353 0.6542394 0.32509756
v 1.4745883 0.6542394 -1.2503748
v 1.6618353 0.6542394 0.32509756
v 0 1.3458639 -0.54141223
v -1.4745883 0 -1.2503748
v -1.6618353 0 0.32509756
v 1.4745883 0 -1.2503748
v 1.4745883 0 -1.2503748
v -1.6618353 0 0.32509756
v 1.6618353 0 0.32509756
v -1.4745883 0 -1.2503748
v -1.4745883 0.6542394 -1.2503748
v -1.6618353 0.6542394 0.32509756
v -1.4745883 0 -1.2503748
v -1.6618353 0.6542394 0.32509756
v -1.6618353 0 0.32509756
v 1.4745883 0 -1.2503748
v 1.6618353 0.6542394 0.32509756
v 1.4745883 0.6542394 -1.2503748
v 1.4745883 0 -1.2503748
v 1.6618353 0 0.32509756
v 1.6618353 0.6542394 0.32509756
v -1.6618353 0.6542394 0.32509756
v 1.6618353 0.6542394 0.32509756
v 0 1.3458639 1.0340599
v -1.6618353 0.6542394 0.32509756
v 0 1.3458639 1.0340599
v -1.7275877 0.6542394 1.9005694
v 1.6618353 0.6542394 0.32509756
v 1.7275877 0.6542394 1.9005694
v 0 1.3458639 1.0340599
v -1.6618353 0 0.32509756
v -1.7275877 0 1.9005694
v 1.6618353 0 0.32509756
v 1.6618353 0 0.32509756
v -1.7275877 0 1.9005694
v 1.7275877 0 1.9005694
v -1.6618353 0 0.32509756
v -1.6618353 0.6542394 0.32509756
v -1.7275877 0.6542394 1.9005694
v -1.6618353 0 0.32509756
v -1.7275877 0.6542394 1.9005694
v -1.7275877 0 1.9005694
v 1.6618353 0 0.32509756
v 1.7275877 0.6542394 1.9005694
v 1.6618353 0.6542394 0.32509756
v 1.6618353 0 0.32509756
v 1.7275877 0 1.9005694
v 1.7275877 0.6542394 1.9005694
v -1.7275877 0.6542394 1.9005694
v 1.7275877 0.6542394 1.9005694
v 0 1.3458639 2.6095319
v -1.7275877 0.6542394 1.9005694
v 0 1.3458639 2.6095319
v -1.6618353 0.6542394 3.4760413
v 1.7275877 0.6542394 1.9005694
v 1.6618353 0.6542394 3.4760413
v 0 1.3458639 2.6095319
v -1.7275877 0 1.9005694
v -1.6618353 0 3.4760413
v 1.7275877 0 1.9005694
v 1.7275877 0 1.9005694
v -1.6618353 0 3.4760413
v 1.6618353 0 3.4760413
v -1.7275877 0 1.9005694
v -1.7275877 0.6542394 1.9005694
v -1.6618353 0.6542394 3.4760413
v -1.7275877 0 1.9005694
v -1.6618353 0.6542394 3.4760413
v -1.6618353 0 3.4760413
v 1.7275877 0 1.9005694
v 1.6618353 0.6542394 3.4760413
v 1.7275877 0.6542394 1.9005694
v 1.7275877 0 1.9005694
v 1.6618353 0 3.4760413
v 1.6618353 0.6542394 3.4760413
v -1.6618353 0.6542394 3.4760413
v 1.6618353 0.6542394 3.4760413
v 0 1.3458639 4.185004
v -1.6618353 0.6542394 3.4760413
v 0 1.3458639 4.185004
v -1.4745883 0.6542394 5.051514
v 1.6618353 0.6542394 3.4760413
v 1.4745883 0.6542394 5.051514
v 0 1.3458639 4.185004
v -1.6618353 0 3.4760413
v -1.4745883 0 5.051514
v 1.6618353 0 3.4760413
v 1.6618353 0 3.4760413
v -1.4745883 0 5.051514
v 1.4745883 0 5.051514
v -1.6618353 0 3.4760413
v -1.6618353 0.6542394 3.4760413
v -1.4745883 0.6542394 5.051514
v -1.6618353 0 3.4760413
v -1.4745883 0.6542394 5.051514
v -1.4745883 0 5.051514
v 1.6618353 0 3.4760413
v 1.4745883 0.6542394 5.051514
v 1.6618353 0.6542394 3.4760413
v 1.6618353 0 3.4760413
v 1.4745883 0 5.051514
v 1.4745883 0.6542394 5.051514
v -1.4745883 0.6542394 5.051514
v 1.4745883 0.6542394 5.051514
v 0 1.3458639 5.7604766
v -1.4745883 0.6542394 5.051514
v 0 1.3458639 5.7604766
v -0.93308854 0.6542394 6.626986
v 1.4745883 0.6542394 5.051514
v 0.93308854 0.6542394 6.626986
v 0 1.3458639 5.7604766
v -1.4745883 0 5.051514
v -0.93308854 0 6.626986
v 1.4745883 0 5.051514
v 1.4745883 0 5.051514
v -0.93308854 0 6.626986
v 0.93308854 0 6.626986
v -1.4745883 0 5.051514
v -1.4745883 0.6542394 5.051514
v -0.93308854 0.6542394 6.626986
v -1.4745883 0 5.051514
v -0.93308854 0.6542394 6.626986
v -0.93308854 0 6.626986
v 1.4745883 0 5.051514
v 0.93308854 0.6542394 6.626986
v 1.4745883 0.6542394 5.051514
v 1.4745883 0 5.051514
v 0.93308854 0 6.626986
v 0.93308854 0.6542394 6.626986
v -0.93308854 0.6542394 6.626986
v 0.93308854 0.6542394 6.626986
v 0 1.3458639 7.335948
v -0.93308854 0.6542394 6.626986
v 0 1.3458639 7.335948
v -0 0.6542394 8.202457
v 0.93308854 0.6542394 6.626986
v 0 0.6542394 8.202457
v 0 1.3458639 7.335948
v -0.93308854 0 6.626986
v -0 0 8.202457
v 0.93308854 0 6.626986
v 0.93308854 0 6.626986
v -0 0 8.202457
v 0 0 8.202457
v -0.93308854 0 6.626986
v -0.93308854 0.6542394 6.626986
v -0 0.6542394 8.202457
v -0.93308854 0 6.626986
v -0 0.6542394 8.202457
v -0 0 8.202457
v 0.93308854 0 6.626986
v 0 0.6542394 8.202457
v 0.93308854 0.6542394 6.626986
v 0.93308854 0 6.626986
v 0 0 8.202457
v 0 0.6542394 8.202457
v -0.6298497 0 8.202457
v 0.6298497 0 8.202457
v 0 1.1439844 8.602577
v -0.6298497 0 -4.401319
v 0 0.39254367 -4.701409
v 0.6298497 0 -4.401319
v 0 1.4580191 -3.613583
v -0.17995706 1.1589384 -3.8655229
v 0.17995706 1.1589384 -3.8655229
v 0 1.4580191 -2.0381107
v -0.17995706 1.1589384 -2.2900505
v 0.17995706 1.1589384 -2.2900505
v 0 1.4580191 -0.46263885
v -0.17995706 1.1589384 -0.71457875
v 0.17995706 1.1589384 -0.71457875
v 0 1.4580191 1.1128335
v -0.17995706 1.1589384 0.8608936
v 0.17995706 1.1589384 0.8608936
v 0 1.4580191 2.6883054
v -0.17995706 1.1589384 2.4363656
v 0.17995706 1.1589384 2.4363656
v 0 1.4580191 4.2637773
v -0.17995706 1.1589384 4.0118375
v 0.17995706 1.1589384 4.0118375
v 0 1.4580191 5.83925
v -0.17995706 1.1589384 5.5873103
v 0.17995706 1.1589384 5.5873103
v -0.7558196 0.52339154 -2.1326392
v 0.7558196 0.52339154 -2.1326392
v 0 0.8972426 -3.3930168
v -1.0859478 0.20208165 -1.2731087
v -1.6444352 0 -1.5802768
v -0.52746034 0 -1.5802768
v 0 0.20208165 -1.2731087
v -0.5584874 0 -1.5802768
v 0.5584874 0 -1.5802768
v 1.0859478 0.20208165 -1.2731087
v 0.52746034 0 -1.5802768
v 1.6444352 0 -1.5802768
v -0.57645494 0.12630104 -1.4549813
v 0.57645494 0.12630104 -1.4549813
v 0 0.55572456 -1.1821723
v -0.6311949 0.12630104 -0.36374533
v 0.6311949 0.12630104 -0.36374533
v 0 0.55572456 -0.09093633
v -0.6690761 0.12630104 0.7274909
v 0.6690761 0.12630104 0.7274909
v 0 0.55572456 1.0002999
v -0.68259573 0.12630104 1.8187268
v 0.68259573 0.12630104 1.8187268
v 0 0.55572456 2.0915358
v -0.6690761 0.12630104 2.9099627
v 0.6690761 0.12630104 2.9099627
v 0 0.55572456 3.1827717
v -0.6311949 0.12630104 4.001199
v 0.6311949 0.12630104 4.001199
v 0 0.55572456 4.274008
v -0.57645494 0.12630104 5.092435
v 0.57645494 0.12630104 5.092435
v 0 0.55572456 5.365244
v 0 1.3893114 -0.121248364
v -0.21718955 1.0609287 -0.5304619
v 0.21718955 1.0609287 -0.5304619
v 0 1.3893114 1.2124846
v -0.21718955 1.0609287 0.80327106
v 0.21718955 1.0609287 0.80327106
v 0 1.3893114 2.5462174
v -0.21718955 1.0609287 2.137004
v 0.21718955 1.0609287 2.137004
v 0 1.3893114 3.8799505
v -0.21718955 1.0609287 3.470737
v 0.21718955 1.0609287 3.470737
v 0 1.3893114 5.213683
v -0.21718955 1.0609287 4.8044696
v 0.21718955 1.0609287 4.8044696
v -0.4343791 0 -3.8647943
v 0.4343791 0 -3.8647943
v 0 0.12630104 -4.274008
vn 0 -0.71580523 0.6983
vn 0 -0.71580523 0.6983
vn 0 -0.71580523 0.6983
vn 0.5601252 -0.82002926 0.11752336
vn 0.5601252 -0.82002926 0.11752336
vn 0.5601252 -0.82002926 0.11752336
vn -0.5601252 -0.82002926 0.11752336
vn -0.5601252 -0.82002926 0.11752336
vn -0.5601252 -0.82002926 0.11752336
vn 0 1 -0
vn 0 1 -0
vn 0 1 -0
vn 0 1 -0
vn 0 1 -0
vn 0 1 -0
vn 0.9786896 -0 0.20534496
vn 0.9786896 -0 0.20534496
vn 0.9786896 -0 0.20534496
vn 0.9786896 0 0.20534496
vn 0.9786896 0 0.20534496
vn 0.9786896 0 0.20534496
vn -0.9786896 0 0.20534496
vn -0.9786896 0 0.20534496
vn -0.9786896 0 0.20534496
vn -0.9786896 0 0.20534496
vn -0.9786896 0 0.20534496
vn -0.9786896 0 0.20534496
vn 0 -0.71580523 0.6983
vn 0 -0.71580523 0.6983
vn 0 -0.71580523 0.6983
vn 0.46241137 -0.88284224 0.08225075
vn 0.46241137 -0.88284224 0.08225075
vn 0.46241137 -0.88284224 0.08225075
vn -0.46241137 -0.88284224 0.08225075
vn -0.46241137 -0.88284224 0.08225075
vn -0.46241137 -0.88284224 0.08225075
vn 0 1 -0
vn 0 1 -0
vn 0 1 -0
vn 0 1 -0
vn 0 1 -0
vn 0 1 -0
vn 0.9845463 -0 0.17512473
vn 0.9845463 -0 0.17512473
vn 0.9845463 -0 0.17512473
vn 0.9845463 0 0.17512473
vn 0.9845463 0 0.17512473
vn 0.9845463 0 0.17512473
vn -0.9845463 0 0.17512473
vn -0.9845463 0 0.17512473
vn -0.9845463 0 0.17512473
vn -0.9845463 0 0.17512473
vn -0.9845463 0 0.17512473
vn -0.9845463 0 0.17512473
vn 0 -0.7158053 0.69829994
vn 0 -0.7158053 0.69829994
vn 0 -0.7158053 0.69829994
vn 0.40508175 -0.91301197 0.048144512
vn 0.40508175 -0.91301197 0.048144512
vn 0.40508175 -0.91301197 0.048144512
vn -0.40508175 -0.91301197 0.048144512
vn -0.40508175 -0.91301197 0.048144512
vn -0.40508175 -0.91301197 0.048144512
vn 0 1 -0
vn 0 1 -0
vn 0 1 -0
vn 0 1 -0
vn 0 1 -0
vn 0 1 -0
vn 0.9930112 -0 0.11802073
vn 0.9930112 -0 0.11802073
vn 0.9930112 -0 0.11802073
vn 0.9930112 0 0.11802073
vn 0.9930112 0 0.11802073
vn 0.9930112 0 0.11802073
vn -0.9930112 0 0.11802073
vn -0.9930112 0 0.11802073
vn -0.9930112 0 0.11802073
vn -0.9930112 0 0.11802073
vn -0.9930112 0 0.11802073
vn -0.9930112 0 0.11802073
vn 0 -0.71580523 0.6983
vn 0 -0.71580523 0.6983
vn 0 -0.71580523 0.6983
vn 0.37843484 -0.9254931 0.015793994
vn 0.37843484 -0.9254931 0.015793994
vn 0.37843484 -0.9254931 0.015793994
vn -0.37843484 -0.9254931 0.015793994
vn -0.37843484 -0.9254931 0.015793994
vn -0.37843484 -0.9254931 0.015793994
vn 0 1 -0
vn 0 1 -0
vn 0 1 -0
vn 0 1 -0
vn 0 1 -0
vn 0 1 -0
vn 0.9991302 -0 0.041698743
vn 0.9991302 -0 0.041698743
vn 0.9991302 -0 0.041698743
vn 0.9991302 0 0.041698743
vn 0.9991302 0 0.041698743
vn 0.9991302 0 0.041698743
vn -0.9991302 0 0.041698743
vn -0.9991302 0 0.041698743
vn -0.9991302 0 0.041698743
vn -0.9991302 0 0.041698743
vn -0.9991302 0 0.041698743
vn -0.9991302 0 0.041698743
vn 0 -0.71580523 0.6983
vn 0 -0.71580523 0.6983
vn 0 -0.71580523 0.6983
vn 0.37717864 -0.9260067 -0.015741566
vn 0.37717864 -0.9260067 -0.015741566
vn 0.37717864 -0.9260067 -0.015741566
vn -0.37717864 -0.9260067 -0.015741566
vn -0.37717864 -0.9260067 -0.015741566
vn -0.37717864 -0.9260067 -0.015741566
vn 0 1 0
vn 0 1 0
vn 0 1 0
vn 0 1 0
vn 0 1 0
vn 0 1 0
vn 0.9991302 0 -0.041698743
vn 0.9991302 0 -0.041698743
vn 0.9991302 0 -0.041698743
vn 0.9991302 0 -0.041698743
vn 0.9991302 0 -0.041698743
vn 0.9991302 0 -0.041698743
vn -0.9991302 0 -0.041698743
vn -0.9991302 0 -0.041698743
vn -0.9991302 0 -0.041698743
vn -0.9991302 0 -0.041698743
vn -0.9991302 0 -0.041698743
vn -0.9991302 0 -0.041698743
vn 0 -0.71580553 0.69829977
vn 0 -0.71580553 0.69829977
vn 0 -0.71580553 0.69829977
vn 0.40106195 -0.91480994 -0.047666743
vn 0.40106195 -0.91480994 -0.047666743
vn 0.40106195 -0.91480994 -0.047666743
vn -0.40106195 -0.91480994 -0.047666743
vn -0.40106195 -0.91480994 -0.047666743
vn -0.40106195 -0.91480994 -0.047666743
vn 0 1 0
vn 0 1 0
vn 0 1 0
vn 0 1 0
vn 0 1 0
vn 0 1 0
vn 0.9930111 0 -0.11802068
vn 0.9930111 0 -0.11802068
vn 0.9930111 0 -0.11802068
vn 0.9930111 0 -0.11802068
vn 0.9930111 0 -0.11802068
vn 0.9930111 0 -0.11802068
vn -0.9930111 0 -0.11802068
vn -0.9930111 0 -0.11802068
vn -0.9930111 0 -0.11802068
vn -0.9930111 0 -0.11802068
vn -0.9930111 0 -0.11802068
vn -0.9930111 0 -0.11802068
vn 0 -0.7158053 0.69830006
vn 0 -0.7158053 0.69830006
vn 0 -0.7158053 0.69830006
vn 0.48305142 -0.85970694 -0.16602784
vn 0.48305142 -0.85970694 -0.16602784
vn 0.48305142 -0.85970694 -0.16602784
vn -0.48305142 -0.85970694 -0.16602784
vn -0.48305142 -0.85970694 -0.16602784
vn -0.48305142 -0.85970694 -0.16602784
vn 0 1 0
vn 0 1 0
vn 0 1 0
vn 0 1 0
vn 0 1 0
vn 0 1 0
vn 0.9456992 0 -0.32504284
vn 0.9456992 0 -0.32504284
vn 0.9456992 0 -0.32504284
vn 0.9456992 0 -0.32504284
vn 0.9456992 0 -0.32504284
vn 0.9456992 0 -0.32504284
vn -0.9456992 0 -0.32504284
vn -0.9456992 0 -0.32504284
vn -0.9456992 0 -0.32504284
vn -0.9456992 0 -0.32504284
vn -0.9456992 0 -0.32504284
vn -0.9456992 0 -0.32504284
vn 0 -0.715805 0.69830024
vn 0 -0.715805 0.69830024
vn 0 -0.715805 0.69830024
vn 0.7252159 -0.5381242 -0.42951632
vn 0.7252159 -0.5381242 -0.42951632
vn 0.7252159 -0.5381242 -0.42951632
vn -0.7252159 -0.5381242 -0.42951632
vn -0.7252159 -0.5381242 -0.42951632
vn -0.7252159 -0.5381242 -0.42951632
vn 0 1 0
vn 0 1 0
vn 0 1 0
vn 0 1 0
vn 0 1 0
vn 0 1 0
vn 0.86041707 0 -0.50959057
vn 0.86041707 0 -0.50959057
vn 0.86041707 0 -0.50959057
vn 0.86041707 0 -0.50959057
vn 0.86041707 0 -0.50959057
vn 0.86041707 0 -0.50959057
vn -0.86041707 0 -0.50959057
vn -0.86041707 0 -0.50959057
vn -0.86041707 0 -0.50959057
vn -0.86041707 0 -0.50959057
vn -0.86041707 0 -0.50959057
vn -0.86041707 0 -0.50959057
vn 0 -0.33014843 0.94392896
vn 0 -0.33014843 0.94392896
vn 0 -0.33014843 0.94392896
vn 0 -0.6073344 -0.79444635
vn 0 -0.6073344 -0.79444635
vn 0 -0.6073344 -0.79444635
vn 0 -0.6442589 0.7648075
vn 0 -0.6442589 0.7648075
vn 0 -0.6442589 0.7648075
vn 0 -0.6442589 0.7648075
vn 0 -0.6442589 0.7648075
vn 0 -0.6442589 0.7648075
vn 0 -0.6442591 0.76480734
vn 0 -0.6442591 0.76480734
vn 0 -0.6442591 0.76480734
vn 0 -0.6442591 0.76480734
vn 0 -0.6442591 0.76480734
vn 0 -0.6442591 0.76480734
vn 0 -0.6442589 0.7648075
vn 0 -0.6442589 0.7648075
vn 0 -0.6442589 0.7648075
vn 0 -0.6442589 0.7648075
vn 0 -0.6442589 0.7648075
vn 0 -0.6442589 0.7648075
vn 0 -0.6442589 0.7648075
vn 0 -0.6442589 0.7648075
vn 0 -0.6442589 0.7648075
vn -0 0.95871395 0.2843721
vn -0 0.95871395 0.2843721
vn -0 0.95871395 0.2843721
vn 0 -0.8354203 0.5496115
vn 0 -0.8354203 0.5496115
vn 0 -0.8354203 0.5496115
vn 0 -0.8354203 0.5496115
vn 0 -0.8354203 0.5496115
vn 0 -0.8354203 0.5496115
vn 0 -0.8354203 0.5496115
vn 0 -0.8354203 0.5496115
vn 0 -0.8354203 0.5496115
vn 0 -0.5362311 0.84407115
vn 0 -0.5362311 0.84407115
vn 0 -0.5362311 0.84407115
vn 0 -0.53623104 0.84407115
vn 0 -0.53623104 0.84407115
vn 0 -0.53623104 0.84407115
vn 0 -0.5362311 0.8440712
vn 0 -0.5362311 0.8440712
vn 0 -0.5362311 0.8440712
vn 0 -0.5362311 0.84407115
vn 0 -0.5362311 0.84407115
vn 0 -0.5362311 0.84407115
vn 0 -0.5362311 0.8440712
vn 0 -0.5362311 0.8440712
vn 0 -0.5362311 0.8440712
vn 0 -0.5362311 0.84407115
vn 0 -0.5362311 0.84407115
vn 0 -0.5362311 0.84407115
vn 0 -0.5362311 0.84407115
vn 0 -0.5362311 0.84407115
vn 0 -0.5362311 0.84407115
vn 0 -0.7799272 0.62587035
vn 0 -0.7799272 0.62587035
vn 0 -0.7799272 0.62587035
vn 0 -0.7799272 0.62587035
vn 0 -0.7799272 0.62587035
vn 0 -0.7799272 0.62587035
vn 0 -0.7799272 0.62587035
vn 0 -0.7799272 0.62587035
vn 0 -0.7799272 0.62587035
vn 0 -0.7799272 0.62587035
vn 0 -0.7799272 0.62587035
vn 0 -0.7799272 0.62587035
vn 0 -0.7799272 0.62587035
vn 0 -0.7799272 0.62587035
vn 0 -0.7799272 0.62587035
vn -0 0.95552325 0.29491588
vn -0 0.95552325 0.29491588
vn -0 0.95552325 0.29491588
f 1//1 2//2 3//3
f 4//4 5//5 6//6
f 7//7 8//8 9//9
f 10//10 11//11 12//12
f 13//13 14//14 15//15
f 16//16 17//17 18//18
f 19//19 20//20 21//21
f 22//22 23//23 24//24
f 25//25 26//26 27//27
f 28//28 29//29 30//30
f 31//31 32//32 33//33
f 34//34 35//35 36//36
f 37//37 38//38 39//39
f 40//40 41//41 42//42
f 43//43 44//44 45//45
f 46//46 47//47 48//48
f 49//49 50//50 51//51
f 52//52 53//53 54//54
f 55//55 56//56 57//57
f 58//58 59//59 60//60
f 61//61 62//62 63//63
f 64//64 65//65 66//66
f 67//67 68//68 69//69
f 70//70 71//71 72//72
f 73//73 74//74 75//75
f 76//76 77//77 78//78
f 79//79 80//80 81//81
f 82//82 83//83 84//84
f 85//85 86//86 87//87
f 88//88 89//89 90//90
f 91//91 92//92 93//93
f 94//94 95//95 96//96
f 97//97 98//98 99//99
f 100//100 101//101 102//102
f 103//103 104//104 105//105
f 106//106 107//107 108//108
f 109//109 110//110 111//111
f 112//112 113//113 114//114
f 115//115 116//116 117//117
f 118//118 119//119 120//120
f 121//121 122//122 123//123
f 124//124 125//125 126//126
f 127//127 128//128 129//129
f 130//130 131//131 132//132
f 133//133 134//134 135//135
f 136//136 137//137 138//138
f 139//139 140//140 141//141
f 142//142 143//143 144//144
f 145//145 146//146 147//147
f 148//148 149//149 150//150
f 151//151 152//152 153//153
f 154//154 155//155 156//156
f 157//157 158//158 159//159
f 160//160 161//161 162//162
f 163//163 164//164 165//165
f 166//166 167//167 168//168
f 169//169 170//170 171//171
f 172//172 173//173 174//174
f 175//175 176//176 177//177
f 178//178 179//179 180//180
f 181//181 182//182 183//183
f 184//184 185//185 186//186
f 187//187 188//188 189//189
f 190//190 191//191 192//192
f 193//193 194//194 195//195
f 196//196 197//197 198//198
f 199//199 200//200 201//201
f 202//202 203//203 204//204
f 205//205 206//206 207//207
f 208//208 209//209 210//210
f 211//211 212//212 213//213
f 214//214 215//215 216//216
f 217//217 218//218 219//219
f 220//220 221//221 222//222
f 223//223 224//224 225//225
f 226//226 227//227 228//228
f 229//229 230//230 231//231
f 232//232 233//233 234//234
f 235//235 236//236 237//237
f 238//238 239//239 240//240
f 241//241 242//242 243//243
f 244//244 245//245 246//246
f 247//247 248//248 249//249
f 250//250 251//251 252//252
f 253//253 254//254 255//255
f 256//256 257//257 258//258
f 259//259 260//260 261//261
f 262//262 263//263 264//264
f 265//265 266//266 267//267
f 268//268 269//269 270//270
f 271//271 272//272 273//273
f 274//274 275//275 276//276
f 277//277 278//278 279//279
f 280//280 281//281 282//282
f 283//283 284//284 285//285
f 286//286 287//287 288//288
f 289//289 290//290 291//291
f 292//292 293//293 294//294
