# Exported from SharpOpenGl procedural mesh
o drone_swarm
# vertices 111
v -0.13332447 0.05741644 -0.6533777
v 0.13332447 0.05741644 -0.6533777
v 0 0.11811382 -0.5313149
v -0.13332447 0.05741644 -0.6533777
v 0 0.11811382 -0.5313149
v -0.1878663 0.05741644 -0.382127
v 0.13332447 0.05741644 -0.6533777
v 0.1878663 0.05741644 -0.382127
v 0 0.11811382 -0.5313149
v -0.13332447 0 -0.6533777
v -0.1878663 0 -0.382127
v 0.13332447 0 -0.6533777
v 0.13332447 0 -0.6533777
v -0.1878663 0 -0.382127
v 0.1878663 0 -0.382127
v -0.1878663 0.05741644 -0.382127
v 0.1878663 0.05741644 -0.382127
v 0 0.11811382 -0.26006415
v -0.1878663 0.05741644 -0.382127
v 0 0.11811382 -0.26006415
v -0.22779371 0.05741644 -0.11087626
v 0.1878663 0.05741644 -0.382127
v 0.22779371 0.05741644 -0.11087626
v 0 0.11811382 -0.26006415
v -0.1878663 0 -0.382127
v -0.22779371 0 -0.11087626
v 0.1878663 0 -0.382127
v 0.1878663 0 -0.382127
v -0.22779371 0 -0.11087626
v 0.22779371 0 -0.11087626
v -0.22779371 0.05741644 -0.11087626
v 0.22779371 0.05741644 -0.11087626
v 0 0.11811382 0.0111865625
v -0.22779371 0.05741644 -0.11087626
v 0 0.11811382 0.0111865625
v -0.24240814 0.05741644 0.16037446
v 0.22779371 0.05741644 -0.11087626
v 0.24240814 0.05741644 0.16037446
v 0 0.11811382 0.0111865625
v -0.22779371 0 -0.11087626
v -0.24240814 0 0.16037446
v 0.22779371 0 -0.11087626
v 0.22779371 0 -0.11087626
v -0.24240814 0 0.16037446
v 0.24240814 0 0.16037446
v -0.24240814 0.05741644 0.16037446
v 0.24240814 0.05741644 0.16037446
v 0 0.11811382 0.2824373
v -0.24240814 0.05741644 0.16037446
v 0 0.11811382 0.2824373
v -0.22779371 0.05741644 0.4316252
v 0.24240814 0.05741644 0.16037446
v 0.22779371 0.05741644 0.4316252
v 0 0.11811382 0.2824373
v -0.24240814 0 0.16037446
v -0.22779371 0 0.4316252
v 0.24240814 0 0.16037446
v 0.24240814 0 0.16037446
v -0.22779371 0 0.4316252
v 0.22779371 0 0.4316252
v -0.22779371 0.05741644 0.4316252
v 0.22779371 0.05741644 0.4316252
v 0 0.11811382 0.553688
v -0.22779371 0.05741644 0.4316252
v 0 0.11811382 0.553688
v -0.1739503 0.05741644 0.7028759
v 0.22779371 0.05741644 0.4316252
v 0.1739503 0.05741644 0.7028759
v 0 0.11811382 0.553688
v -0.22779371 0 0.4316252
v -0.1739503 0 0.7028759
v 0.22779371 0 0.4316252
v 0.22779371 0 0.4316252
v -0.1739503 0 0.7028759
v 0.1739503 0 0.7028759
v -0.1739503 0.05741644 0.7028759
v 0.1739503 0.05741644 0.7028759
v 0 0.11811382 0.8249387
v -0.1739503 0.05741644 0.7028759
v 0 0.11811382 0.8249387
v -0 0.05741644 0.97412664
v 0.1739503 0.05741644 0.7028759
v 0 0.05741644 0.97412664
v 0 0.11811382 0.8249387
v -0.1739503 0 0.7028759
v -0 0 0.97412664
v 0.1739503 0 0.7028759
v 0.1739503 0 0.7028759
v -0 0 0.97412664
v 0 0 0.97412664
v 0 0.12795663 -0.51775235
v -0.01939265 0.10170913 -0.5468413
v 0.01939265 0.10170913 -0.5468413
v 0 0.12795663 -0.24650162
v -0.01939265 0.10170913 -0.2755906
v 0.01939265 0.10170913 -0.2755906
v 0 0.12795663 0.0247491
v -0.01939265 0.10170913 -0.0043398757
v 0.01939265 0.10170913 -0.0043398757
v 0 0.12795663 0.29599977
v -0.01939265 0.10170913 0.2669108
v 0.01939265 0.10170913 0.2669108
v 0 0.12795663 0.56725055
v -0.01939265 0.10170913 0.5381616
v 0.01939265 0.10170913 0.5381616
v -0.11702462 0.01822744 -0.6404651
v -0.14210133 0 -0.6956338
v -0.09194792 0 -0.6956338
v 0.11702462 0.01822744 -0.6404651
v 0.09194792 0 -0.6956338
v 0.14210133 0 -0.6956338
vn 0 -0.8954051 0.4452524
vn 0 -0.8954051 0.4452524
vn 0 -0.8954051 0.4452524
vn 0.3579392 -0.930967 0.07197275
vn 0.3579392 -0.930967 0.07197275
vn 0.3579392 -0.930967 0.07197275
vn -0.3579392 -0.930967 0.07197275
vn -0.3579392 -0.930967 0.07197275
vn -0.3579392 -0.930967 0.07197275
vn 0 1 -0
vn 0 1 -0
vn 0 1 -0
vn 0 1 -0
vn 0 1 -0
vn 0 1 -0
vn 0 -0.8954051 0.44525227
vn 0 -0.8954051 0.44525227
vn 0 -0.8954051 0.44525227
vn 0.2825994 -0.95833564 0.041597907
vn 0.2825994 -0.95833564 0.041597907
vn 0.2825994 -0.95833564 0.041597907
vn -0.2825994 -0.95833564 0.041597907
vn -0.2825994 -0.95833564 0.041597907
vn -0.2825994 -0.95833564 0.041597907
vn 0 1 -0
vn 0 1 -0
vn 0 1 -0
vn 0 0.99999994 -0
vn 0 0.99999994 -0
vn 0 0.99999994 -0
vn 0 -0.8954051 0.44525224
vn 0 -0.8954051 0.44525224
vn 0 -0.8954051 0.44525224
vn 0.2506867 -0.967974 0.013506486
vn 0.2506867 -0.967974 0.013506486
vn 0.2506867 -0.967974 0.013506486
vn -0.2506867 -0.967974 0.013506486
vn -0.2506867 -0.967974 0.013506486
vn -0.2506867 -0.967974 0.013506486
vn 0 0.99999994 -0
vn 0 0.99999994 -0
vn 0 0.99999994 -0
vn 0 1 -0
vn 0 1 -0
vn 0 1 -0
vn 0 -0.89540523 0.4452523
vn 0 -0.89540523 0.4452523
vn 0 -0.89540523 0.4452523
vn 0.24923025 -0.9683512 -0.013428015
vn 0.24923025 -0.9683512 -0.013428015
vn 0.24923025 -0.9683512 -0.013428015
vn -0.24923025 -0.9683512 -0.013428015
vn -0.24923025 -0.9683512 -0.013428015
vn -0.24923025 -0.9683512 -0.013428015
vn 0 1 0
vn 0 1 0
vn 0 1 0
vn 0 1 0
vn 0 1 0
vn 0 1 0
vn 0 -0.8954051 0.44525233
vn 0 -0.8954051 0.44525233
vn 0 -0.8954051 0.44525233
vn 0.28528288 -0.956769 -0.0566288
vn 0.28528288 -0.956769 -0.0566288
vn 0.28528288 -0.956769 -0.0566288
vn -0.28528288 -0.956769 -0.0566288
vn -0.28528288 -0.956769 -0.0566288
vn -0.28528288 -0.956769 -0.0566288
vn 0 0.99999994 0
vn 0 0.99999994 0
vn 0 0.99999994 0
vn 0 1 0
vn 0 1 0
vn 0 1 0
vn 0 -0.8954052 0.4452524
vn 0 -0.8954052 0.4452524
vn 0 -0.8954052 0.4452524
vn 0.5066468 -0.79858893 -0.3249074
vn 0.5066468 -0.79858893 -0.3249074
vn 0.5066468 -0.79858893 -0.3249074
vn -0.5066468 -0.79858893 -0.3249074
vn -0.5066468 -0.79858893 -0.3249074
vn -0.5066468 -0.79858893 -0.3249074
vn 0 1 0
vn 0 1 0
vn 0 1 0
vn 0 1 0
vn 0 1 0
vn 0 1 0
vn 0 -0.74243784 0.66991496
vn 0 -0.74243784 0.66991496
vn 0 -0.74243784 0.66991496
vn 0 -0.74243784 0.66991496
vn 0 -0.74243784 0.66991496
vn 0 -0.74243784 0.66991496
vn 0 -0.74243784 0.66991496
vn 0 -0.74243784 0.66991496
vn 0 -0.74243784 0.66991496
vn 0 -0.74243784 0.66991496
vn 0 -0.74243784 0.66991496
vn 0 -0.74243784 0.66991496
vn 0 -0.74243784 0.66991496
vn 0 -0.74243784 0.66991496
vn 0 -0.74243784 0.66991496
vn 0 -0.9495172 0.31371507
vn 0 -0.9495172 0.31371507
vn 0 -0.9495172 0.31371507
vn 0 -0.9495172 0.31371507
vn 0 -0.9495172 0.31371507
vn 0 -0.9495172 0.31371507
f 1//1 2//2 3//3
f 4//4 5//5 6//6
f 7//7 8//8 9//9
f 10//10 11//11 12//12
f 13//13 14//14 15//15
f 16//16 17//17 18//18
f 19//19 20//20 21//21
f 22//22 23//23 24//24
f 25//25 26//26 27//27
f 28//28 29//29 30//30
f 31//31 32//32 33//33
f 34//34 35//35 36//36
f 37//37 38//38 39//39
f 40//40 41//41 42//42
f 43//43 44//44 45//45
f 46//46 47//47 48//48
f 49//49 50//50 51//51
f 52//52 53//53 54//54
f 55//55 56//56 57//57
f 58//58 59//59 60//60
f 61//61 62//62 63//63
f 64//64 65//65 66//66
f 67//67 68//68 69//69
f 70//70 71//71 72//72
f 73//73 74//74 75//75
f 76//76 77//77 78//78
f 79//79 80//80 81//81
f 82//82 83//83 84//84
f 85//85 86//86 87//87
f 88//88 89//89 90//90
f 91//91 92//92 93//93
f 94//94 95//95 96//96
f 97//97 98//98 99//99
f 100//100 101//101 102//102
f 103//103 104//104 105//105
f 106//106 107//107 108//108
f 109//109 110//110 111//111
