# Exported from SharpOpenGl procedural mesh
o freighter_bulk
# vertices 234
v -0.8778283 0.33852455 -3.4695776
v 0.8778283 0.33852455 -3.4695776
v 0 0.69639343 -2.724407
v -0.8778283 0.33852455 -3.4695776
v 0 0.69639343 -2.724407
v -1.3167424 0.33852455 -1.8136427
v 0.8778283 0.33852455 -3.4695776
v 1.3167424 0.33852455 -1.8136427
v 0 0.69639343 -2.724407
v -0.8778283 0 -3.4695776
v -1.3167424 0 -1.8136427
v 0.8778283 0 -3.4695776
v 0.8778283 0 -3.4695776
v -1.3167424 0 -1.8136427
v 1.3167424 0 -1.8136427
v -0.8778283 0 -3.4695776
v -0.8778283 0.33852455 -3.4695776
v -1.3167424 0.33852455 -1.8136427
v -0.8778283 0 -3.4695776
v -1.3167424 0.33852455 -1.8136427
v -1.3167424 0 -1.8136427
v 0.8778283 0 -3.4695776
v 1.3167424 0.33852455 -1.8136427
v 0.8778283 0.33852455 -3.4695776
v 0.8778283 0 -3.4695776
v 1.3167424 0 -1.8136427
v 1.3167424 0.33852455 -1.8136427
v -1.3167424 0.33852455 -1.8136427
v 1.3167424 0.33852455 -1.8136427
v 0 0.69639343 -1.0684721
v -1.3167424 0.33852455 -1.8136427
v 0 0.69639343 -1.0684721
v -1.6380501 0.33852455 -0.15770793
v 1.3167424 0.33852455 -1.8136427
v 1.6380501 0.33852455 -0.15770793
v 0 0.69639343 -1.0684721
v -1.3167424 0 -1.8136427
v -1.6380501 0 -0.15770793
v 1.3167424 0 -1.8136427
v 1.3167424 0 -1.8136427
v -1.6380501 0 -0.15770793
v 1.6380501 0 -0.15770793
v -1.3167424 0 -1.8136427
v -1.3167424 0.33852455 -1.8136427
v -1.6380501 0.33852455 -0.15770793
v -1.3167424 0 -1.8136427
v -1.6380501 0.33852455 -0.15770793
v -1.6380501 0 -0.15770793
v 1.3167424 0 -1.8136427
v 1.6380501 0.33852455 -0.15770793
v 1.3167424 0.33852455 -1.8136427
v 1.3167424 0 -1.8136427
v 1.6380501 0 -0.15770793
v 1.6380501 0.33852455 -0.15770793
v -1.6380501 0.33852455 -0.15770793
v 1.6380501 0.33852455 -0.15770793
v 0 0.69639343 0.5874627
v -1.6380501 0.33852455 -0.15770793
v 0 0.69639343 0.5874627
v -1.7556566 0.33852455 1.4982269
v 1.6380501 0.33852455 -0.15770793
v 1.7556566 0.33852455 1.4982269
v 0 0.69639343 0.5874627
v -1.6380501 0 -0.15770793
v -1.7556566 0 1.4982269
v 1.6380501 0 -0.15770793
v 1.6380501 0 -0.15770793
v -1.7556566 0 1.4982269
v 1.7556566 0 1.4982269
v -1.6380501 0 -0.15770793
v -1.6380501 0.33852455 -0.15770793
v -1.7556566 0.33852455 1.4982269
v -1.6380501 0 -0.15770793
v -1.7556566 0.33852455 1.4982269
v -1.7556566 0 1.4982269
v 1.6380501 0 -0.15770793
v 1.7556566 0.33852455 1.4982269
v 1.6380501 0.33852455 -0.15770793
v 1.6380501 0 -0.15770793
v 1.7556566 0 1.4982269
v 1.7556566 0.33852455 1.4982269
v -1.7556566 0.33852455 1.4982269
v 1.7556566 0.33852455 1.4982269
v 0 0.69639343 2.2433975
v -1.7556566 0.33852455 1.4982269
v 0 0.69639343 2.2433975
v -1.63805 0.33852455 3.1541617
v 1.7556566 0.33852455 1.4982269
v 1.63805 0.33852455 3.1541617
v 0 0.69639343 2.2433975
v -1.7556566 0 1.4982269
v -1.63805 0 3.1541617
v 1.7556566 0 1.4982269
v 1.7556566 0 1.4982269
v -1.63805 0 3.1541617
v 1.63805 0 3.1541617
v -1.7556566 0 1.4982269
v -1.7556566 0.33852455 1.4982269
v -1.63805 0.33852455 3.1541617
v -1.7556566 0 1.4982269
v -1.63805 0.33852455 3.1541617
v -1.63805 0 3.1541617
v 1.7556566 0 1.4982269
v 1.63805 0.33852455 3.1541617
v 1.7556566 0.33852455 1.4982269
v 1.7556566 0 1.4982269
v 1.63805 0 3.1541617
v 1.63805 0.33852455 3.1541617
v -1.63805 0.33852455 3.1541617
v 1.63805 0.33852455 3.1541617
v 0 0.69639343 3.899332
v -1.63805 0.33852455 3.1541617
v 0 0.69639343 3.899332
v -1.3167425 0.33852455 4.810096
v 1.63805 0.33852455 3.1541617
v 1.3167425 0.33852455 4.810096
v 0 0.69639343 3.899332
v -1.63805 0 3.1541617
v -1.3167425 0 4.810096
v 1.63805 0 3.1541617
v 1.63805 0 3.1541617
v -1.3167425 0 4.810096
v 1.3167425 0 4.810096
v -1.63805 0 3.1541617
v -1.63805 0.33852455 3.1541617
v -1.3167425 0.33852455 4.810096
v -1.63805 0 3.1541617
v -1.3167425 0.33852455 4.810096
v -1.3167425 0 4.810096
v 1.63805 0 3.1541617
v 1.3167425 0.33852455 4.810096
v 1.63805 0.33852455 3.1541617
v 1.63805 0 3.1541617
v 1.3167425 0 4.810096
v 1.3167425 0.33852455 4.810096
v -1.3167425 0.33852455 4.810096
v 1.3167425 0.33852455 4.810096
v 0 0.69639343 5.5552664
v -1.3167425 0.33852455 4.810096
v 0 0.69639343 5.5552664
v -0 0.33852455 6.466031
v 1.3167425 0.33852455 4.810096
v 0 0.33852455 6.466031
v 0 0.69639343 5.5552664
v -1.3167425 0 4.810096
v -0 0 6.466031
v 1.3167425 0 4.810096
v 1.3167425 0 4.810096
v -0 0 6.466031
v 0 0 6.466031
v -1.3167425 0 4.810096
v -1.3167425 0.33852455 4.810096
v -0 0.33852455 6.466031
v -1.3167425 0 4.810096
v -0 0.33852455 6.466031
v -0 0 6.466031
v 1.3167425 0 4.810096
v 0 0.33852455 6.466031
v 1.3167425 0.33852455 4.810096
v 1.3167425 0 4.810096
v 0 0 6.466031
v 0 0.33852455 6.466031
v -0.64008313 0 6.466031
v 0.64008313 0 6.466031
v 0 0.59193444 6.7814474
v -0.64008313 0 -3.4695776
v 0 0.20311473 -3.7061396
v 0.64008313 0 -3.4695776
v 0 0.7544261 -2.6416101
v -0.18288091 0.5996721 -2.8976433
v 0.18288091 0.5996721 -2.8976433
v 0 0.7544261 -0.98567533
v -0.18288091 0.5996721 -1.2417086
v 0.18288091 0.5996721 -1.2417086
v 0 0.7544261 0.67025924
v -0.18288091 0.5996721 0.41422597
v 0.18288091 0.5996721 0.41422597
v 0 0.7544261 2.326194
v -0.18288091 0.5996721 2.0701609
v 0.18288091 0.5996721 2.0701609
v 0 0.7544261 3.9821293
v -0.18288091 0.5996721 3.7260962
v 0.18288091 0.5996721 3.7260962
v -0.7680998 0.27081966 -1.6811678
v 0.7680998 0.27081966 -1.6811678
v 0 0.46426225 -2.6747289
v -0.88287336 0.104563564 -1.0035968
v -1.3747599 0 -1.2741344
v -0.3909868 0 -1.2741344
v 0.88287336 0.104563564 -1.0035968
v 0.3909868 0 -1.2741344
v 1.3747599 0 -1.2741344
v -0.6936862 0.49667695 -0.35842744
v -0.9144045 0.18298624 -0.5476146
v -0.47296786 0.18298624 -0.5476146
v 0 0.49667695 -0.5791458
v -0.22071834 0.18298624 -0.76833296
v 0.22071834 0.18298624 -0.76833296
v 0.6936862 0.49667695 -0.7998641
v 0.47296786 0.18298624 -0.9890512
v 0.9144045 0.18298624 -0.9890512
v -0.5978211 0.06535223 -0.97492266
v 0.5978211 0.06535223 -0.97492266
v 0 0.28754982 -0.75986624
v -0.6671898 0.06535223 0.2293936
v 0.6671898 0.06535223 0.2293936
v 0 0.28754982 0.44445005
v -0.6936862 0.06535223 1.4337096
v 0.6936862 0.06535223 1.4337096
v 0 0.28754982 1.648766
v -0.6671898 0.06535223 2.6380258
v 0.6671898 0.06535223 2.6380258
v 0 0.28754982 2.8530822
v -0.5978211 0.06535223 3.842342
v 0.5978211 0.06535223 3.842342
v 0 0.28754982 4.0573983
v 0 0.7188746 -0.09558058
v -0.22071834 0.5489587 -0.41816527
v 0.22071834 0.5489587 -0.41816527
v 0 0.7188746 0.9558066
v -0.22071834 0.5489587 0.6332219
v 0.22071834 0.5489587 0.6332219
v 0 0.7188746 2.0071936
v -0.22071834 0.5489587 1.6846089
v 0.22071834 0.5489587 1.6846089
v 0 0.7188746 3.0585809
v -0.22071834 0.5489587 2.7359962
v 0.22071834 0.5489587 2.7359962
v 0 0.7188746 4.1099677
v -0.22071834 0.5489587 3.787383
v 0.22071834 0.5489587 3.787383
v -0.44143668 0 -3.046633
v 0.44143668 0 -3.046633
v 0 0.06535223 -3.3692179
vn 0 -0.90143484 0.43291494
vn 0 -0.90143484 0.43291494
vn 0 -0.90143484 0.43291494
vn 0.3146688 -0.9455302 0.08340459
vn 0.3146688 -0.9455302 0.08340459
vn 0.3146688 -0.9455302 0.08340459
vn -0.3146688 -0.9455302 0.08340459
vn -0.3146688 -0.9455302 0.08340459
vn -0.3146688 -0.9455302 0.08340459
vn 0 1 -0
vn 0 1 -0
vn 0 1 -0
vn 0 1 -0
vn 0 1 -0
vn 0 1 -0
vn 0.9666217 -0 0.2562081
vn 0.9666217 -0 0.2562081
vn 0.9666217 -0 0.2562081
vn 0.9666217 0 0.2562081
vn 0.9666217 0 0.2562081
vn 0.9666217 0 0.2562081
vn -0.9666217 0 0.2562081
vn -0.9666217 0 0.2562081
vn -0.9666217 0 0.2562081
vn -0.9666217 0 0.2562081
vn -0.9666217 0 0.2562081
vn -0.9666217 0 0.2562081
vn 0 -0.9014348 0.43291494
vn 0 -0.9014348 0.43291494
vn 0 -0.9014348 0.43291494
vn 0.23761073 -0.9702656 0.046104558
vn 0.23761073 -0.9702656 0.046104558
vn 0.23761073 -0.9702656 0.046104558
vn -0.23761073 -0.9702656 0.046104558
vn -0.23761073 -0.9702656 0.046104558
vn -0.23761073 -0.9702656 0.046104558
vn 0 1 -0
vn 0 1 -0
vn 0 1 -0
vn 0 1 -0
vn 0 1 -0
vn 0 1 -0
vn 0.9816908 -0 0.19048141
vn 0.9816908 -0 0.19048141
vn 0.9816908 -0 0.19048141
vn 0.9816908 0 0.19048141
vn 0.9816908 0 0.19048141
vn 0.9816908 0 0.19048141
vn -0.9816908 0 0.19048141
vn -0.9816908 0 0.19048141
vn -0.9816908 0 0.19048141
vn -0.9816908 0 0.19048141
vn -0.9816908 0 0.19048141
vn -0.9816908 0 0.19048141
vn 0 -0.9014348 0.43291488
vn 0 -0.9014348 0.43291488
vn 0 -0.9014348 0.43291488
vn 0.20702651 -0.9782249 0.014703277
vn 0.20702651 -0.9782249 0.014703277
vn 0.20702651 -0.9782249 0.014703277
vn -0.20702651 -0.9782249 0.014703277
vn -0.20702651 -0.9782249 0.014703277
vn -0.20702651 -0.9782249 0.014703277
vn 0 1 -0
vn 0 1 -0
vn 0 1 -0
vn 0 1 -0
vn 0 1 -0
vn 0 1 -0
vn 0.99748755 -0 0.07084279
vn 0.99748755 -0 0.07084279
vn 0.99748755 -0 0.07084279
vn 0.99748755 0 0.07084279
vn 0.99748755 0 0.07084279
vn 0.99748755 0 0.07084279
vn -0.99748755 0 0.07084279
vn -0.99748755 0 0.07084279
vn -0.99748755 0 0.07084279
vn -0.99748755 0 0.07084279
vn -0.99748755 0 0.07084279
vn -0.99748755 0 0.07084279
vn 0 -0.90143484 0.43291494
vn 0 -0.90143484 0.43291494
vn 0 -0.90143484 0.43291494
vn 0.20565759 -0.978515 -0.014606068
vn 0.20565759 -0.978515 -0.014606068
vn 0.20565759 -0.978515 -0.014606068
vn -0.20565759 -0.978515 -0.014606068
vn -0.20565759 -0.978515 -0.014606068
vn -0.20565759 -0.978515 -0.014606068
vn 0 1 0
vn 0 1 0
vn 0 1 0
vn 0 1 0
vn 0 1 0
vn 0 1 0
vn 0.9974874 0 -0.070842855
vn 0.9974874 0 -0.070842855
vn 0.9974874 0 -0.070842855
vn 0.9974874 0 -0.070842855
vn 0.9974874 0 -0.070842855
vn 0.9974874 0 -0.070842855
vn -0.9974874 0 -0.070842855
vn -0.9974874 0 -0.070842855
vn -0.9974874 0 -0.070842855
vn -0.9974874 0 -0.070842855
vn -0.9974874 0 -0.070842855
vn -0.9974874 0 -0.070842855
vn 0 -0.9014347 0.43291503
vn 0 -0.9014347 0.43291503
vn 0 -0.9014347 0.43291503
vn 0.23278913 -0.9714777 -0.045168996
vn 0.23278913 -0.9714777 -0.045168996
vn 0.23278913 -0.9714777 -0.045168996
vn -0.23278913 -0.9714777 -0.045168996
vn -0.23278913 -0.9714777 -0.045168996
vn -0.23278913 -0.9714777 -0.045168996
vn 0 1 0
vn 0 1 0
vn 0 1 0
vn 0 1 0
vn 0 1 0
vn 0 1 0
vn 0.9816908 0 -0.19048133
vn 0.9816908 0 -0.19048133
vn 0.9816908 0 -0.19048133
vn 0.9816908 0 -0.19048133
vn 0.9816908 0 -0.19048133
vn 0.9816908 0 -0.19048133
vn -0.9816908 0 -0.19048133
vn -0.9816908 0 -0.19048133
vn -0.9816908 0 -0.19048133
vn -0.9816908 0 -0.19048133
vn -0.9816908 0 -0.19048133
vn -0.9816908 0 -0.19048133
vn 0 -0.9014348 0.4329149
vn 0 -0.9014348 0.4329149
vn 0 -0.9014348 0.4329149
vn 0.41784605 -0.84558266 -0.33225676
vn 0.41784605 -0.84558266 -0.33225676
vn 0.41784605 -0.84558266 -0.33225676
vn -0.41784605 -0.84558266 -0.33225676
vn -0.41784605 -0.84558266 -0.33225676
vn -0.41784605 -0.84558266 -0.33225676
vn 0 1 0
vn 0 1 0
vn 0 1 0
vn 0 1 0
vn 0 1 0
vn 0 1 0
vn 0.7827113 0 -0.622385
vn 0.7827113 0 -0.622385
vn 0.7827113 0 -0.622385
vn 0.7827113 0 -0.622385
vn 0.7827113 0 -0.622385
vn 0.7827113 0 -0.622385
vn -0.7827113 0 -0.622385
vn -0.7827113 0 -0.622385
vn -0.7827113 0 -0.622385
vn -0.7827113 0 -0.622385
vn -0.7827113 0 -0.622385
vn -0.7827113 0 -0.622385
vn 0 -0.47026083 0.88252753
vn 0 -0.47026083 0.88252753
vn 0 -0.47026083 0.88252753
vn 0 -0.758706 -0.6514333
vn 0 -0.758706 -0.6514333
vn 0 -0.758706 -0.6514333
vn 0 -0.85581595 0.5172805
vn 0 -0.85581595 0.5172805
vn 0 -0.85581595 0.5172805
vn 0 -0.85581607 0.51728034
vn 0 -0.85581607 0.51728034
vn 0 -0.85581607 0.51728034
vn 0 -0.855816 0.51728034
vn 0 -0.855816 0.51728034
vn 0 -0.855816 0.51728034
vn 0 -0.85581595 0.5172805
vn 0 -0.85581595 0.5172805
vn 0 -0.85581595 0.5172805
vn 0 -0.85581595 0.5172805
vn 0 -0.85581595 0.5172805
vn 0 -0.85581595 0.5172805
vn -0 0.9815691 0.1911078
vn -0 0.9815691 0.1911078
vn -0 0.9815691 0.1911078
vn 0 -0.9327545 0.36051226
vn 0 -0.9327545 0.36051226
vn 0 -0.9327545 0.36051226
vn 0 -0.9327545 0.36051226
vn 0 -0.9327545 0.36051226
vn 0 -0.9327545 0.36051226
vn 0 -0.5164468 0.85631925
vn 0 -0.5164468 0.85631925
vn 0 -0.5164468 0.85631925
vn 0 -0.51644695 0.85631925
vn 0 -0.51644695 0.85631925
vn 0 -0.51644695 0.85631925
vn 0 -0.5164468 0.8563193
vn 0 -0.5164468 0.8563193
vn 0 -0.5164468 0.8563193
vn 0 -0.6954657 0.7185594
vn 0 -0.6954657 0.7185594
vn 0 -0.6954657 0.7185594
vn 0 -0.69546574 0.71855927
vn 0 -0.69546574 0.71855927
vn 0 -0.69546574 0.71855927
vn 0 -0.6954656 0.7185593
vn 0 -0.6954656 0.7185593
vn 0 -0.6954656 0.7185593
vn 0 -0.6954657 0.7185593
vn 0 -0.6954657 0.7185593
vn 0 -0.6954657 0.7185593
vn 0 -0.6954657 0.7185594
vn 0 -0.6954657 0.7185594
vn 0 -0.6954657 0.7185594
vn 0 -0.8847662 0.46603516
vn 0 -0.8847662 0.46603516
vn 0 -0.8847662 0.46603516
vn 0 -0.8847662 0.46603516
vn 0 -0.8847662 0.46603516
vn 0 -0.8847662 0.46603516
vn 0 -0.88476616 0.46603522
vn 0 -0.88476616 0.46603522
vn 0 -0.88476616 0.46603522
vn 0 -0.88476616 0.46603522
vn 0 -0.88476616 0.46603522
vn 0 -0.88476616 0.46603522
vn 0 -0.88476616 0.46603522
vn 0 -0.88476616 0.46603522
vn 0 -0.88476616 0.46603522
vn -0 0.9800896 0.19855563
vn -0 0.9800896 0.19855563
vn -0 0.9800896 0.19855563
f 1//1 2//2 3//3
f 4//4 5//5 6//6
f 7//7 8//8 9//9
f 10//10 11//11 12//12
f 13//13 14//14 15//15
f 16//16 17//17 18//18
f 19//19 20//20 21//21
f 22//22 23//23 24//24
f 25//25 26//26 27//27
f 28//28 29//29 30//30
f 31//31 32//32 33//33
f 34//34 35//35 36//36
f 37//37 38//38 39//39
f 40//40 41//41 42//42
f 43//43 44//44 45//45
f 46//46 47//47 48//48
f 49//49 50//50 51//51
f 52//52 53//53 54//54
f 55//55 56//56 57//57
f 58//58 59//59 60//60
f 61//61 62//62 63//63
f 64//64 65//65 66//66
f 67//67 68//68 69//69
f 70//70 71//71 72//72
f 73//73 74//74 75//75
f 76//76 77//77 78//78
f 79//79 80//80 81//81
f 82//82 83//83 84//84
f 85//85 86//86 87//87
f 88//88 89//89 90//90
f 91//91 92//92 93//93
f 94//94 95//95 96//96
f 97//97 98//98 99//99
f 100//100 101//101 102//102
f 103//103 104//104 105//105
f 106//106 107//107 108//108
f 109//109 110//110 111//111
f 112//112 113//113 114//114
f 115//115 116//116 117//117
f 118//118 119//119 120//120
f 121//121 122//122 123//123
f 124//124 125//125 126//126
f 127//127 128//128 129//129
f 130//130 131//131 132//132
f 133//133 134//134 135//135
f 136//136 137//137 138//138
f 139//139 140//140 141//141
f 142//142 143//143 144//144
f 145//145 146//146 147//147
f 148//148 149//149 150//150
f 151//151 152//152 153//153
f 154//154 155//155 156//156
f 157//157 158//158 159//159
f 160//160 161//161 162//162
f 163//163 164//164 165//165
f 166//166 167//167 168//168
f 169//169 170//170 171//171
f 172//172 173//173 174//174
f 175//175 176//176 177//177
f 178//178 179//179 180//180
f 181//181 182//182 183//183
f 184//184 185//185 186//186
f 187//187 188//188 189//189
f 190//190 191//191 192//192
f 193//193 194//194 195//195
f 196//196 197//197 198//198
f 199//199 200//200 201//201
f 202//202 203//203 204//204
f 205//205 206//206 207//207
f 208//208 209//209 210//210
f 211//211 212//212 213//213
f 214//214 215//215 216//216
f 217//217 218//218 219//219
f 220//220 221//221 222//222
f 223//223 224//224 225//225
f 226//226 227//227 228//228
f 229//229 230//230 231//231
f 232//232 233//233 234//234
