# Exported from SharpOpenGl procedural mesh
o frigate_strike
# vertices 321
v -0.30582502 0.22623412 -2.1247685
v 0.30582502 0.22623412 -2.1247685
v 0 0.46539593 -1.6684262
v -0.30582502 0.22623412 -2.1247685
v 0 0.46539593 -1.6684262
v -0.45873755 0.22623412 -1.1106744
v 0.30582502 0.22623412 -2.1247685
v 0.45873755 0.22623412 -1.1106744
v 0 0.46539593 -1.6684262
v -0.30582502 0 -2.1247685
v -0.45873755 0 -1.1106744
v 0.30582502 0 -2.1247685
v 0.30582502 0 -2.1247685
v -0.45873755 0 -1.1106744
v 0.45873755 0 -1.1106744
v -0.30582502 0 -2.1247685
v -0.30582502 0.22623412 -2.1247685
v -0.45873755 0.22623412 -1.1106744
v -0.30582502 0 -2.1247685
v -0.45873755 0.22623412 -1.1106744
v -0.45873755 0 -1.1106744
v 0.30582502 0 -2.1247685
v 0.45873755 0.22623412 -1.1106744
v 0.30582502 0.22623412 -2.1247685
v 0.30582502 0 -2.1247685
v 0.45873755 0 -1.1106744
v 0.45873755 0.22623412 -1.1106744
v -0.45873755 0.22623412 -1.1106744
v 0.45873755 0.22623412 -1.1106744
v 0 0.46539593 -0.65433204
v -0.45873755 0.22623412 -1.1106744
v 0 0.46539593 -0.65433204
v -0.57067734 0.22623412 -0.09658027
v 0.45873755 0.22623412 -1.1106744
v 0.57067734 0.22623412 -0.09658027
v 0 0.46539593 -0.65433204
v -0.45873755 0 -1.1106744
v -0.57067734 0 -0.09658027
v 0.45873755 0 -1.1106744
v 0.45873755 0 -1.1106744
v -0.57067734 0 -0.09658027
v 0.57067734 0 -0.09658027
v -0.45873755 0 -1.1106744
v -0.45873755 0.22623412 -1.1106744
v -0.57067734 0.22623412 -0.09658027
v -0.45873755 0 -1.1106744
v -0.57067734 0.22623412 -0.09658027
v -0.57067734 0 -0.09658027
v 0.45873755 0 -1.1106744
v 0.57067734 0.22623412 -0.09658027
v 0.45873755 0.22623412 -1.1106744
v 0.45873755 0 -1.1106744
v 0.57067734 0 -0.09658027
v 0.57067734 0.22623412 -0.09658027
v -0.57067734 0.22623412 -0.09658027
v 0.57067734 0.22623412 -0.09658027
v 0 0.46539593 0.35976195
v -0.57067734 0.22623412 -0.09658027
v 0 0.46539593 0.35976195
v -0.61165005 0.22623412 0.9175136
v 0.57067734 0.22623412 -0.09658027
v 0.61165005 0.22623412 0.9175136
v 0 0.46539593 0.35976195
v -0.57067734 0 -0.09658027
v -0.61165005 0 0.9175136
v 0.57067734 0 -0.09658027
v 0.57067734 0 -0.09658027
v -0.61165005 0 0.9175136
v 0.61165005 0 0.9175136
v -0.57067734 0 -0.09658027
v -0.57067734 0.22623412 -0.09658027
v -0.61165005 0.22623412 0.9175136
v -0.57067734 0 -0.09658027
v -0.61165005 0.22623412 0.9175136
v -0.61165005 0 0.9175136
v 0.57067734 0 -0.09658027
v 0.61165005 0.22623412 0.9175136
v 0.57067734 0.22623412 -0.09658027
v 0.57067734 0 -0.09658027
v 0.61165005 0 0.9175136
v 0.61165005 0.22623412 0.9175136
v -0.61165005 0.22623412 0.9175136
v 0.61165005 0.22623412 0.9175136
v 0 0.46539593 1.3738561
v -0.61165005 0.22623412 0.9175136
v 0 0.46539593 1.3738561
v -0.5706773 0.22623412 1.931608
v 0.61165005 0.22623412 0.9175136
v 0.5706773 0.22623412 1.931608
v 0 0.46539593 1.3738561
v -0.61165005 0 0.9175136
v -0.5706773 0 1.931608
v 0.61165005 0 0.9175136
v 0.61165005 0 0.9175136
v -0.5706773 0 1.931608
v 0.5706773 0 1.931608
v -0.61165005 0 0.9175136
v -0.61165005 0.22623412 0.9175136
v -0.5706773 0.22623412 1.931608
v -0.61165005 0 0.9175136
v -0.5706773 0.22623412 1.931608
v -0.5706773 0 1.931608
v 0.61165005 0 0.9175136
v 0.5706773 0.22623412 1.931608
v 0.61165005 0.22623412 0.9175136
v 0.61165005 0 0.9175136
v 0.5706773 0 1.931608
v 0.5706773 0.22623412 1.931608
v -0.5706773 0.22623412 1.931608
v 0.5706773 0.22623412 1.931608
v 0 0.46539593 2.38795
v -0.5706773 0.22623412 1.931608
v 0 0.46539593 2.38795
v -0.45873758 0.22623412 2.9457014
v 0.5706773 0.22623412 1.931608
v 0.45873758 0.22623412 2.9457014
v 0 0.46539593 2.38795
v -0.5706773 0 1.931608
v -0.45873758 0 2.9457014
v 0.5706773 0 1.931608
v 0.5706773 0 1.931608
v -0.45873758 0 2.9457014
v 0.45873758 0 2.9457014
v -0.5706773 0 1.931608
v -0.5706773 0.22623412 1.931608
v -0.45873758 0.22623412 2.9457014
v -0.5706773 0 1.931608
v -0.45873758 0.22623412 2.9457014
v -0.45873758 0 2.9457014
v 0.5706773 0 1.931608
v 0.45873758 0.22623412 2.9457014
v 0.5706773 0.22623412 1.931608
v 0.5706773 0 1.931608
v 0.45873758 0 2.9457014
v 0.45873758 0.22623412 2.9457014
v -0.45873758 0.22623412 2.9457014
v 0.45873758 0.22623412 2.9457014
v 0 0.46539593 3.4020438
v -0.45873758 0.22623412 2.9457014
v 0 0.46539593 3.4020438
v -0 0.22623412 3.9597957
v 0.45873758 0.22623412 2.9457014
v 0 0.22623412 3.9597957
v 0 0.46539593 3.4020438
v -0.45873758 0 2.9457014
v -0 0 3.9597957
v 0.45873758 0 2.9457014
v -0.45873758 0 2.9457014
v -0.45873758 0.22623412 2.9457014
v -0 0.22623412 3.9597957
v -0.45873758 0 2.9457014
v -0 0.22623412 3.9597957
v -0 0 3.9597957
v 0.45873758 0 2.9457014
v 0 0.22623412 3.9597957
v 0.45873758 0.22623412 2.9457014
v 0.45873758 0 2.9457014
v 0 0 3.9597957
v 0 0.22623412 3.9597957
v -0.22299743 0 3.9597957
v 0.22299743 0 3.9597957
v 0 0.39558655 4.1529565
v -0.22299743 0 -2.1247685
v 0 0.13574047 -2.269639
v 0.22299743 0 -2.1247685
v 0 0.5041789 -1.6177214
v -0.06371355 0.4007576 -1.7069204
v 0.06371355 0.4007576 -1.7069204
v 0 0.5041789 -0.60362744
v -0.06371355 0.4007576 -0.6928264
v 0.06371355 0.4007576 -0.6928264
v 0 0.5041789 0.41046643
v -0.06371355 0.4007576 0.32126746
v 0.06371355 0.4007576 0.32126746
v 0 0.5041789 1.4245605
v -0.06371355 0.4007576 1.3353616
v 0.06371355 0.4007576 1.3353616
v 0 0.5041789 2.4386547
v -0.06371355 0.4007576 2.3494556
v 0.06371355 0.4007576 2.3494556
v -0.2675969 0.1809873 -1.0295469
v 0.2675969 0.1809873 -1.0295469
v 0 0.31026393 -1.6380033
v -0.18674663 0.13975853 0.263401
v -0.21970192 0.12228871 0.4390017
v -0.18674663 0.104818895 0.48290187
v 0.18674663 0.13975853 0.263401
v 0.21970192 0.12228871 0.4390017
v 0.18674663 0.104818895 0.48290187
v -0.48883674 0.14849344 0.21950085
v -0.19223917 0.13661397 0.254621
v -0.48883674 0.12621942 0.27218106
v -0.4091948 0.15722835 0.43900174
v -0.21146308 0.14465009 0.47412187
v -0.4091948 0.1336441 0.49168193
v -0.3295529 0.16596325 0.6585026
v -0.23068699 0.1526862 0.6936227
v -0.3295529 0.14106877 0.7111828
v 0.48883674 0.14849344 0.21950085
v 0.19223917 0.13661397 0.254621
v 0.48883674 0.12621942 0.27218106
v 0.4091948 0.15722835 0.43900174
v 0.21146308 0.14465009 0.47412187
v 0.4091948 0.1336441 0.49168193
v 0.3295529 0.16596325 0.6585026
v 0.23068699 0.1526862 0.6936227
v 0.3295529 0.14106877 0.7111828
v -0.6261504 0.17469816 0.263401
v -0.6096728 0.15722835 0.29852113
v -0.6261504 0.13975853 0.3160812
v -0.6261504 0.18780053 0.1317005
v -0.6096728 0.17033072 0.16682065
v -0.6261504 0.1528609 0.18438071
v -0.6261504 0.2009029 0
v -0.6096728 0.18343307 0.035120137
v -0.6261504 0.16596325 0.052680206
v -0.6261504 0.21400525 -0.13170049
v -0.6096728 0.19653544 -0.09658035
v -0.6261504 0.17906561 -0.07902028
v 0.6261504 0.17469816 0.263401
v 0.6096728 0.15722835 0.29852113
v 0.6261504 0.13975853 0.3160812
v 0.6261504 0.18780053 0.1317005
v 0.6096728 0.17033072 0.16682065
v 0.6261504 0.1528609 0.18438071
v 0.6261504 0.2009029 0
v 0.6096728 0.18343307 0.035120137
v 0.6261504 0.16596325 0.052680206
v 0.6261504 0.21400525 -0.13170049
v 0.6096728 0.19653544 -0.09658035
v 0.6261504 0.17906561 -0.07902028
v -0.20871681 0.29698688 -0.263401
v 0.20871681 0.29698688 -0.263401
v 0 0.3319265 -0.2370609
v -0.16477644 0.30863342 0.08780038
v 0.16477644 0.30863342 0.08780038
v 0 0.3464847 0.11414049
v -0.12083605 0.32027996 0.43900177
v 0.12083605 0.32027996 0.43900177
v 0 0.36104286 0.46534187
v -0.07689567 0.3319265 0.7902031
v 0.07689567 0.3319265 0.7902031
v 0 0.37560105 0.8165432
v -0.12083605 0.3144567 -0.263401
v 0.12083605 0.3144567 -0.263401
v 0 0.34939632 -0.22828087
v -0.12083605 0.3144567 0.3073012
v 0.12083605 0.3144567 0.3073012
v 0 0.34939632 0.34242132
v -0.12083605 0.3144567 0.87800336
v 0.12083605 0.3144567 0.87800336
v 0 0.34939632 0.9131235
v -0.010985095 0.6463832 1.053604
v 0.010985095 0.6463832 1.053604
v 0 0.6813228 1.1414044
v -0.16477644 0.03493963 -0.263401
v 0.16477644 0.03493963 -0.263401
v 0 0.104818895 -0.22828087
v -0.13594055 0.03493963 0.26340106
v 0.13594055 0.03493963 0.26340106
v 0 0.1135538 0.2985212
v -0.10710469 0.03493963 0.7902031
v 0.10710469 0.03493963 0.7902031
v 0 0.12228871 0.8253232
v -0.13511668 0.017469816 -0.17560068
v 0.13511668 0.017469816 -0.17560068
v 0 0.06987926 -0.14926058
v -0.08568375 0.017469816 0.56894624
v 0.08568375 0.017469816 0.56894624
v 0 0.08734908 0.59528637
v -0.18674663 0.19216798 0.08780034
v -0.17026898 0.2271076 0.13170052
v -0.18674663 0.15722835 0.14048055
v -0.18674663 0.19216798 0.39510155
v -0.17026898 0.2271076 0.4390017
v -0.18674663 0.15722835 0.44778174
v -0.18674663 0.19216798 0.7024027
v -0.17026898 0.2271076 0.7463029
v -0.18674663 0.15722835 0.7550829
v 0.18674663 0.19216798 0.08780034
v 0.17026898 0.2271076 0.13170052
v 0.18674663 0.15722835 0.14048055
v 0.18674663 0.19216798 0.39510155
v 0.17026898 0.2271076 0.4390017
v 0.18674663 0.15722835 0.44778174
v 0.18674663 0.19216798 0.7024027
v 0.17026898 0.2271076 0.7463029
v 0.18674663 0.15722835 0.7550829
v -0.21970192 0.24457742 0.35120136
v -0.19773173 0.27951705 0.38632149
v -0.21970192 0.20963779 0.39510152
v -0.21970192 0.24457742 0.7024027
v -0.19773173 0.27951705 0.73752284
v -0.21970192 0.20963779 0.7463029
v 0.21970192 0.24457742 0.35120136
v 0.19773173 0.27951705 0.38632149
v 0.21970192 0.20963779 0.39510152
v 0.21970192 0.24457742 0.7024027
v 0.19773173 0.27951705 0.73752284
v 0.21970192 0.20963779 0.7463029
v -0.10985096 0.38433596 -0.08780034
v 0.10985096 0.38433596 -0.08780034
v 0 0.41927558 -0.061460234
v -0.07689567 0.4018058 0.43900174
v 0.07689567 0.4018058 0.43900174
v 0 0.4367454 0.46534184
v -0.04394038 0.41927558 0.9658038
v 0.04394038 0.41927558 0.9658038
v 0 0.4542152 0.9921439
v -0.02746274 0.45421523 -0.17560068
v 0.02746274 0.45421523 -0.17560068
v 0 0.50662464 -0.1536506
v -0.032955285 0.46586174 0.20486745
v 0.032955285 0.46586174 0.20486745
v 0 0.5182712 0.23120755
v -0.032955285 0.5124479 0.5853356
v 0.032955285 0.5124479 0.5853356
v 0 0.56485736 0.61167574
v -0.02746274 0.59397376 0.96580374
v 0.02746274 0.59397376 0.96580374
v 0 0.64638317 0.9877538
vn 0 -0.8857315 0.4641979
vn 0 -0.8857315 0.4641979
vn 0 -0.8857315 0.4641979
vn 0.5363252 -0.8401281 0.08087104
vn 0.5363252 -0.8401281 0.08087104
vn 0.5363252 -0.8401281 0.08087104
vn -0.5363252 -0.8401281 0.08087104
vn -0.5363252 -0.8401281 0.08087104
vn -0.5363252 -0.8401281 0.08087104
vn 0 0.99999994 -0
vn 0 0.99999994 -0
vn 0 0.99999994 -0
vn 0 1 -0
vn 0 1 -0
vn 0 1 -0
vn 0.98882186 -0 0.1491018
vn 0.98882186 -0 0.1491018
vn 0.98882186 -0 0.1491018
vn 0.98882186 0 0.1491018
vn 0.98882186 0 0.1491018
vn 0.98882186 0 0.1491018
vn -0.98882186 0 0.1491018
vn -0.98882186 0 0.1491018
vn -0.98882186 0 0.1491018
vn -0.98882186 0 0.1491018
vn -0.98882186 0 0.1491018
vn -0.98882186 0 0.1491018
vn 0 -0.88573146 0.46419787
vn 0 -0.88573146 0.46419787
vn 0 -0.88573146 0.46419787
vn 0.4247187 -0.9041106 0.04688216
vn 0.4247187 -0.9041106 0.04688216
vn 0.4247187 -0.9041106 0.04688216
vn -0.4247187 -0.9041106 0.04688216
vn -0.4247187 -0.9041106 0.04688216
vn -0.4247187 -0.9041106 0.04688216
vn 0 1 -0
vn 0 1 -0
vn 0 1 -0
vn 0 1 -0
vn 0 1 -0
vn 0 1 -0
vn 0.9939628 -0 0.10971762
vn 0.9939628 -0 0.10971762
vn 0.9939628 -0 0.10971762
vn 0.9939628 0 0.10971762
vn 0.9939628 0 0.10971762
vn 0.9939628 0 0.10971762
vn -0.9939628 0 0.10971762
vn -0.9939628 0 0.10971762
vn -0.9939628 0 0.10971762
vn -0.9939628 0 0.10971762
vn -0.9939628 0 0.10971762
vn -0.9939628 0 0.10971762
vn 0 -0.88573146 0.46419796
vn 0 -0.88573146 0.46419796
vn 0 -0.88573146 0.46419796
vn 0.37610927 -0.9264507 0.015196045
vn 0.37610927 -0.9264507 0.015196045
vn 0.37610927 -0.9264507 0.015196045
vn -0.37610927 -0.9264507 0.015196045
vn -0.37610927 -0.9264507 0.015196045
vn -0.37610927 -0.9264507 0.015196045
vn 0 1 -0
vn 0 1 -0
vn 0 1 -0
vn 0 1 -0
vn 0 1 -0
vn 0 1 -0
vn 0.9991847 -0 0.04037033
vn 0.9991847 -0 0.04037033
vn 0.9991847 -0 0.04037033
vn 0.9991847 0 0.04037033
vn 0.9991847 0 0.04037033
vn 0.9991847 0 0.04037033
vn -0.9991847 0 0.04037033
vn -0.9991847 0 0.04037033
vn -0.9991847 0 0.04037033
vn -0.9991847 0 0.04037033
vn -0.9991847 0 0.04037033
vn -0.9991847 0 0.04037033
vn 0 -0.8857315 0.46419778
vn 0 -0.8857315 0.46419778
vn 0 -0.8857315 0.46419778
vn 0.37387633 -0.9273556 -0.015105843
vn 0.37387633 -0.9273556 -0.015105843
vn 0.37387633 -0.9273556 -0.015105843
vn -0.37387633 -0.9273556 -0.015105843
vn -0.37387633 -0.9273556 -0.015105843
vn -0.37387633 -0.9273556 -0.015105843
vn 0 1 0
vn 0 1 0
vn 0 1 0
vn 0 1 0
vn 0 1 0
vn 0 1 0
vn 0.9991847 0 -0.04037037
vn 0.9991847 0 -0.04037037
vn 0.9991847 0 -0.04037037
vn 0.9991847 0 -0.04037037
vn 0.9991847 0 -0.04037037
vn 0.9991847 0 -0.04037037
vn -0.9991847 0 -0.04037037
vn -0.9991847 0 -0.04037037
vn -0.9991847 0 -0.04037037
vn -0.9991847 0 -0.04037037
vn -0.9991847 0 -0.04037037
vn -0.9991847 0 -0.04037037
vn 0 -0.8857313 0.46419814
vn 0 -0.8857313 0.46419814
vn 0 -0.8857313 0.46419814
vn 0.4172055 -0.9076445 -0.04605282
vn 0.4172055 -0.9076445 -0.04605282
vn 0.4172055 -0.9076445 -0.04605282
vn -0.4172055 -0.9076445 -0.04605282
vn -0.4172055 -0.9076445 -0.04605282
vn -0.4172055 -0.9076445 -0.04605282
vn 0 1 0
vn 0 1 0
vn 0 1 0
vn 0 1 0
vn 0 1 0
vn 0 1 0
vn 0.9939628 0 -0.10971761
vn 0.9939628 0 -0.10971761
vn 0.9939628 0 -0.10971761
vn 0.9939628 0 -0.10971761
vn 0.9939628 0 -0.10971761
vn 0.9939628 0 -0.10971761
vn -0.9939628 0 -0.10971761
vn -0.9939628 0 -0.10971761
vn -0.9939628 0 -0.10971761
vn -0.9939628 0 -0.10971761
vn -0.9939628 0 -0.10971761
vn -0.9939628 0 -0.10971761
vn 0 -0.8857316 0.4641978
vn 0 -0.8857316 0.4641978
vn 0 -0.8857316 0.4641978
vn 0.6568766 -0.69297725 -0.2971459
vn 0.6568766 -0.69297725 -0.2971459
vn 0.6568766 -0.69297725 -0.2971459
vn -0.6568766 -0.69297725 -0.2971459
vn -0.6568766 -0.69297725 -0.2971459
vn -0.6568766 -0.69297725 -0.2971459
vn 0 1 0
vn 0 1 0
vn 0 1 0
vn 0.91111445 0 -0.41215342
vn 0.91111445 0 -0.41215342
vn 0.91111445 0 -0.41215342
vn 0.91111445 0 -0.41215342
vn 0.91111445 0 -0.41215342
vn 0.91111445 0 -0.41215342
vn -0.91111445 0 -0.41215342
vn -0.91111445 0 -0.41215342
vn -0.91111445 0 -0.41215342
vn -0.91111445 0 -0.41215342
vn -0.91111445 0 -0.41215342
vn -0.91111445 0 -0.41215342
vn 0 -0.43877536 0.89859676
vn 0 -0.43877536 0.89859676
vn 0 -0.43877536 0.89859676
vn 0 -0.72972727 -0.6837383
vn 0 -0.72972727 -0.6837383
vn 0 -0.72972727 -0.6837383
vn 0 -0.65311885 0.7572554
vn 0 -0.65311885 0.7572554
vn 0 -0.65311885 0.7572554
vn 0 -0.65311885 0.7572554
vn 0 -0.65311885 0.7572554
vn 0 -0.65311885 0.7572554
vn 0 -0.653119 0.7572553
vn 0 -0.653119 0.7572553
vn 0 -0.653119 0.7572553
vn 0 -0.65311885 0.7572554
vn 0 -0.65311885 0.7572554
vn 0 -0.65311885 0.7572554
vn 0 -0.6531194 0.75725496
vn 0 -0.6531194 0.75725496
vn 0 -0.6531194 0.75725496
vn -0 0.9781655 0.20782742
vn -0 0.9781655 0.20782742
vn -0 0.9781655 0.20782742
vn 0.29967362 0.9421802 0.14997402
vn 0.29967362 0.9421802 0.14997402
vn 0.29967362 0.9421802 0.14997402
vn 0.29967362 -0.9421802 -0.14997402
vn 0.29967362 -0.9421802 -0.14997402
vn 0.29967362 -0.9421802 -0.14997402
vn 0.009222249 -0.92101437 -0.38941932
vn 0.009222249 -0.92101437 -0.38941932
vn 0.009222249 -0.92101437 -0.38941932
vn 0.014513482 -0.9126137 -0.40856546
vn 0.014513482 -0.9126137 -0.40856546
vn 0.014513482 -0.9126137 -0.40856546
vn 0.03034077 -0.9037149 -0.42705822
vn 0.03034077 -0.9037149 -0.42705822
vn 0.03034077 -0.9037149 -0.42705822
vn 0.009222249 0.92101437 0.38941932
vn 0.009222249 0.92101437 0.38941932
vn 0.009222249 0.92101437 0.38941932
vn 0.014513482 0.9126137 0.40856546
vn 0.014513482 0.9126137 0.40856546
vn 0.014513482 0.9126137 0.40856546
vn 0.03034077 0.9037149 0.42705822
vn 0.03034077 0.9037149 0.42705822
vn 0.03034077 0.9037149 0.42705822
vn 0.2825176 -0.79941624 -0.53020513
vn 0.2825176 -0.79941624 -0.53020513
vn 0.2825176 -0.79941624 -0.53020513
vn 0.2825177 -0.7994163 -0.530205
vn 0.2825177 -0.7994163 -0.530205
vn 0.2825177 -0.7994163 -0.530205
vn 0.28251728 -0.79941624 -0.5302052
vn 0.28251728 -0.79941624 -0.5302052
vn 0.28251728 -0.79941624 -0.5302052
vn 0.2825175 -0.7994163 -0.530205
vn 0.2825175 -0.7994163 -0.530205
vn 0.2825175 -0.7994163 -0.530205
vn 0.2825176 0.79941624 0.53020513
vn 0.2825176 0.79941624 0.53020513
vn 0.2825176 0.79941624 0.53020513
vn 0.2825177 0.7994163 0.530205
vn 0.2825177 0.7994163 0.530205
vn 0.2825177 0.7994163 0.530205
vn 0.28251728 0.79941624 0.5302052
vn 0.28251728 0.79941624 0.5302052
vn 0.28251728 0.79941624 0.5302052
vn 0.2825175 0.7994163 0.530205
vn 0.2825175 0.7994163 0.530205
vn 0.2825175 0.7994163 0.530205
vn 0 -0.60197836 0.79851234
vn 0 -0.60197836 0.79851234
vn 0 -0.60197836 0.79851234
vn 0 -0.57119286 0.820816
vn 0 -0.57119286 0.820816
vn 0 -0.57119286 0.820816
vn 0 -0.54272985 0.8399074
vn 0 -0.54272985 0.8399074
vn 0 -0.54272985 0.8399074
vn 0 -0.51644635 0.85631955
vn 0 -0.51644635 0.85631955
vn 0 -0.51644635 0.85631955
vn 0 -0.7089264 0.70528257
vn 0 -0.7089264 0.70528257
vn 0 -0.7089264 0.70528257
vn 0 -0.7089264 0.70528257
vn 0 -0.7089264 0.70528257
vn 0 -0.7089264 0.70528257
vn 0 -0.7089264 0.70528257
vn 0 -0.7089264 0.70528257
vn 0 -0.7089264 0.70528257
vn 0 -0.9291341 0.3697428
vn 0 -0.9291341 0.3697428
vn 0 -0.9291341 0.3697428
vn 0 -0.44905895 0.89350206
vn 0 -0.44905895 0.89350206
vn 0 -0.44905895 0.89350206
vn 0 -0.40788826 0.9130318
vn 0 -0.40788826 0.9130318
vn 0 -0.40788826 0.9130318
vn 0 -0.37304288 0.9278141
vn 0 -0.37304288 0.9278141
vn 0 -0.37304288 0.9278141
vn 0 -0.44905895 0.89350206
vn 0 -0.44905895 0.89350206
vn 0 -0.44905895 0.89350206
vn 0 -0.35271254 0.9357317
vn 0 -0.35271254 0.9357317
vn 0 -0.35271254 0.9357317
vn 0.95551497 -0.24579495 -0.16302109
vn 0.95551497 -0.24579495 -0.16302109
vn 0.95551497 -0.24579495 -0.16302109
vn 0.95551497 -0.24579497 -0.16302115
vn 0.95551497 -0.24579497 -0.16302115
vn 0.95551497 -0.24579497 -0.16302115
vn 0.955515 -0.24579489 -0.1630211
vn 0.955515 -0.24579489 -0.1630211
vn 0.955515 -0.24579489 -0.1630211
vn 0.95551497 0.24579495 0.16302109
vn 0.95551497 0.24579495 0.16302109
vn 0.95551497 0.24579495 0.16302109
vn 0.95551497 0.24579497 0.16302115
vn 0.95551497 0.24579497 0.16302115
vn 0.95551497 0.24579497 0.16302115
vn 0.955515 0.24579489 0.1630211
vn 0.955515 0.24579489 0.1630211
vn 0.955515 0.24579489 0.1630211
vn 0.91312313 -0.31898642 -0.2538776
vn 0.91312313 -0.31898642 -0.2538776
vn 0.91312313 -0.31898642 -0.2538776
vn 0.9131231 -0.31898648 -0.2538775
vn 0.9131231 -0.31898648 -0.2538775
vn 0.9131231 -0.31898648 -0.2538775
vn 0.91312313 0.31898642 0.2538776
vn 0.91312313 0.31898642 0.2538776
vn 0.91312313 0.31898642 0.2538776
vn 0.9131231 0.31898648 0.2538775
vn 0.9131231 0.31898648 0.2538775
vn 0.9131231 0.31898648 0.2538775
vn 0 -0.6019785 0.7985122
vn 0 -0.6019785 0.7985122
vn 0 -0.6019785 0.7985122
vn 0 -0.60197836 0.79851234
vn 0 -0.60197836 0.79851234
vn 0 -0.60197836 0.79851234
vn 0 -0.6019789 0.7985121
vn 0 -0.6019789 0.7985121
vn 0 -0.6019789 0.7985121
vn 0 -0.38630667 0.9223704
vn 0 -0.38630667 0.9223704
vn 0 -0.38630667 0.9223704
vn 0 -0.4490588 0.8935022
vn 0 -0.4490588 0.8935022
vn 0 -0.4490588 0.8935022
vn 0 -0.44905922 0.89350194
vn 0 -0.44905922 0.89350194
vn 0 -0.44905922 0.89350194
vn 0 -0.38630646 0.9223705
vn 0 -0.38630646 0.9223705
vn 0 -0.38630646 0.9223705
f 1//1 2//2 3//3
f 4//4 5//5 6//6
f 7//7 8//8 9//9
f 10//10 11//11 12//12
f 13//13 14//14 15//15
f 16//16 17//17 18//18
f 19//19 20//20 21//21
f 22//22 23//23 24//24
f 25//25 26//26 27//27
f 28//28 29//29 30//30
f 31//31 32//32 33//33
f 34//34 35//35 36//36
f 37//37 38//38 39//39
f 40//40 41//41 42//42
f 43//43 44//44 45//45
f 46//46 47//47 48//48
f 49//49 50//50 51//51
f 52//52 53//53 54//54
f 55//55 56//56 57//57
f 58//58 59//59 60//60
f 61//61 62//62 63//63
f 64//64 65//65 66//66
f 67//67 68//68 69//69
f 70//70 71//71 72//72
f 73//73 74//74 75//75
f 76//76 77//77 78//78
f 79//79 80//80 81//81
f 82//82 83//83 84//84
f 85//85 86//86 87//87
f 88//88 89//89 90//90
f 91//91 92//92 93//93
f 94//94 95//95 96//96
f 97//97 98//98 99//99
f 100//100 101//101 102//102
f 103//103 104//104 105//105
f 106//106 107//107 108//108
f 109//109 110//110 111//111
f 112//112 113//113 114//114
f 115//115 116//116 117//117
f 118//118 119//119 120//120
f 121//121 122//122 123//123
f 124//124 125//125 126//126
f 127//127 128//128 129//129
f 130//130 131//131 132//132
f 133//133 134//134 135//135
f 136//136 137//137 138//138
f 139//139 140//140 141//141
f 142//142 143//143 144//144
f 145//145 146//146 147//147
f 148//148 149//149 150//150
f 151//151 152//152 153//153
f 154//154 155//155 156//156
f 157//157 158//158 159//159
f 160//160 161//161 162//162
f 163//163 164//164 165//165
f 166//166 167//167 168//168
f 169//169 170//170 171//171
f 172//172 173//173 174//174
f 175//175 176//176 177//177
f 178//178 179//179 180//180
f 181//181 182//182 183//183
f 184//184 185//185 186//186
f 187//187 188//188 189//189
f 190//190 191//191 192//192
f 193//193 194//194 195//195
f 196//196 197//197 198//198
f 199//199 200//200 201//201
f 202//202 203//203 204//204
f 205//205 206//206 207//207
f 208//208 209//209 210//210
f 211//211 212//212 213//213
f 214//214 215//215 216//216
f 217//217 218//218 219//219
f 220//220 221//221 222//222
f 223//223 224//224 225//225
f 226//226 227//227 228//228
f 229//229 230//230 231//231
f 232//232 233//233 234//234
f 235//235 236//236 237//237
f 238//238 239//239 240//240
f 241//241 242//242 243//243
f 244//244 245//245 246//246
f 247//247 248//248 249//249
f 250//250 251//251 252//252
f 253//253 254//254 255//255
f 256//256 257//257 258//258
f 259//259 260//260 261//261
f 262//262 263//263 264//264
f 265//265 266//266 267//267
f 268//268 269//269 270//270
f 271//271 272//272 273//273
f 274//274 275//275 276//276
f 277//277 278//278 279//279
f 280//280 281//281 282//282
f 283//283 284//284 285//285
f 286//286 287//287 288//288
f 289//289 290//290 291//291
f 292//292 293//293 294//294
f 295//295 296//296 297//297
f 298//298 299//299 300//300
f 301//301 302//302 303//303
f 304//304 305//305 306//306
f 307//307 308//308 309//309
f 310//310 311//311 312//312
f 313//313 314//314 315//315
f 316//316 317//317 318//318
f 319//319 320//320 321//321
