# Exported from SharpOpenGl procedural mesh
o frigate_strike
# vertices 114
v -0.3706414 0.22011968 -2.8618152
v 0.3706414 0.22011968 -2.8618152
v 0 0.45281768 -2.327176
v -0.3706414 0.22011968 -2.8618152
v 0 0.45281768 -2.327176
v -0.5222674 0.22011968 -1.6737282
v 0.3706414 0.22011968 -2.8618152
v 0.5222674 0.22011968 -1.6737282
v 0 0.45281768 -2.327176
v -0.3706414 0 -2.8618152
v -0.5222674 0 -1.6737282
v 0.3706414 0 -2.8618152
v 0.3706414 0 -2.8618152
v -0.5222674 0 -1.6737282
v 0.5222674 0 -1.6737282
v -0.5222674 0.22011968 -1.6737282
v 0.5222674 0.22011968 -1.6737282
v 0 0.45281768 -1.1390891
v -0.5222674 0.22011968 -1.6737282
v 0 0.45281768 -1.1390891
v -0.6332654 0.22011968 -0.48564124
v 0.5222674 0.22011968 -1.6737282
v 0.6332654 0.22011968 -0.48564124
v 0 0.45281768 -1.1390891
v -0.5222674 0 -1.6737282
v -0.6332654 0 -0.48564124
v 0.5222674 0 -1.6737282
v 0.5222674 0 -1.6737282
v -0.6332654 0 -0.48564124
v 0.6332654 0 -0.48564124
v -0.6332654 0.22011968 -0.48564124
v 0.6332654 0.22011968 -0.48564124
v 0 0.45281768 0.04899788
v -0.6332654 0.22011968 -0.48564124
v 0 0.45281768 0.04899788
v -0.67389345 0.22011968 0.70244575
v 0.6332654 0.22011968 -0.48564124
v 0.67389345 0.22011968 0.70244575
v 0 0.45281768 0.04899788
v -0.6332654 0 -0.48564124
v -0.67389345 0 0.70244575
v 0.6332654 0 -0.48564124
v 0.6332654 0 -0.48564124
v -0.67389345 0 0.70244575
v 0.67389345 0 0.70244575
v -0.67389345 0.22011968 0.70244575
v 0.67389345 0.22011968 0.70244575
v 0 0.45281768 1.2370849
v -0.67389345 0.22011968 0.70244575
v 0 0.45281768 1.2370849
v -0.6332654 0.22011968 1.8905327
v 0.67389345 0.22011968 0.70244575
v 0.6332654 0.22011968 1.8905327
v 0 0.45281768 1.2370849
v -0.67389345 0 0.70244575
v -0.6332654 0 1.8905327
v 0.67389345 0 0.70244575
v 0.67389345 0 0.70244575
v -0.6332654 0 1.8905327
v 0.6332654 0 1.8905327
v -0.6332654 0.22011968 1.8905327
v 0.6332654 0.22011968 1.8905327
v 0 0.45281768 2.4251719
v -0.6332654 0.22011968 1.8905327
v 0 0.45281768 2.4251719
v -0.483581 0.22011968 3.0786197
v 0.6332654 0.22011968 1.8905327
v 0.483581 0.22011968 3.0786197
v 0 0.45281768 2.4251719
v -0.6332654 0 1.8905327
v -0.483581 0 3.0786197
v 0.6332654 0 1.8905327
v 0.6332654 0 1.8905327
v -0.483581 0 3.0786197
v 0.483581 0 3.0786197
v -0.483581 0.22011968 3.0786197
v 0.483581 0.22011968 3.0786197
v 0 0.45281768 3.6132588
v -0.483581 0.22011968 3.0786197
v 0 0.45281768 3.6132588
v -0 0.22011968 4.2667065
v 0.483581 0.22011968 3.0786197
v 0 0.22011968 4.2667065
v 0 0.45281768 3.6132588
v -0.483581 0 3.0786197
v -0 0 4.2667065
v 0.483581 0 3.0786197
v 0.483581 0 3.0786197
v -0 0 4.2667065
v 0 0 4.2667065
v 0 0.49055243 -2.2677717
v -0.053911474 0.3899263 -2.348639
v 0.053911474 0.3899263 -2.348639
v 0 0.49055243 -1.0796847
v -0.053911474 0.3899263 -1.1605519
v 0.053911474 0.3899263 -1.1605519
v 0 0.49055243 0.10840225
v -0.053911474 0.3899263 0.027535036
v 0.053911474 0.3899263 0.027535036
v 0 0.49055243 1.296489
v -0.053911474 0.3899263 1.2156218
v 0.053911474 0.3899263 1.2156218
v 0 0.49055243 2.4845765
v -0.053911474 0.3899263 2.4037092
v 0.053911474 0.3899263 2.4037092
v -0.28303525 0.17609575 -0.7804951
v 0.28303525 0.17609575 -0.7804951
v 0 0.26414362 -1.4569241
v -0.32532787 0.06987926 -2.8052576
v -0.47869673 0 -3.142669
v -0.17195901 0 -3.142669
v 0.32532787 0.06987926 -2.8052576
v 0.17195901 0 -3.142669
v 0.47869673 0 -3.142669
vn 0 -0.91691566 0.3990812
vn 0 -0.91691566 0.3990812
vn 0 -0.91691566 0.3990812
vn 0.4676084 -0.88191885 0.0596771
vn 0.4676084 -0.88191885 0.0596771
vn 0.4676084 -0.88191885 0.0596771
vn -0.4676084 -0.88191885 0.0596771
vn -0.4676084 -0.88191885 0.0596771
vn -0.4676084 -0.88191885 0.0596771
vn 0 1 -0
vn 0 1 -0
vn 0 1 -0
vn 0 1 -0
vn 0 1 -0
vn 0 1 -0
vn 0 -0.91691554 0.3990812
vn 0 -0.91691554 0.3990812
vn 0 -0.91691554 0.3990812
vn 0.37647054 -0.9257607 0.03517206
vn 0.37647054 -0.9257607 0.03517206
vn 0.37647054 -0.9257607 0.03517206
vn -0.37647054 -0.9257607 0.03517206
vn -0.37647054 -0.9257607 0.03517206
vn -0.37647054 -0.9257607 0.03517206
vn 0 1 -0
vn 0 1 -0
vn 0 1 -0
vn 0 1 -0
vn 0 1 -0
vn 0 1 -0
vn 0 -0.9169156 0.39908117
vn 0 -0.9169156 0.39908117
vn 0 -0.9169156 0.39908117
vn 0.33631706 -0.9416786 0.01150077
vn 0.33631706 -0.9416786 0.01150077
vn 0.33631706 -0.9416786 0.01150077
vn -0.33631706 -0.9416786 0.01150077
vn -0.33631706 -0.9416786 0.01150077
vn -0.33631706 -0.9416786 0.01150077
vn 0 1 -0
vn 0 1 -0
vn 0 1 -0
vn 0 1 -0
vn 0 1 -0
vn 0 1 -0
vn 0 -0.9169156 0.39908117
vn 0 -0.9169156 0.39908117
vn 0 -0.9169156 0.39908117
vn 0.33446696 -0.94233805 -0.011437505
vn 0.33446696 -0.94233805 -0.011437505
vn 0.33446696 -0.94233805 -0.011437505
vn -0.33446696 -0.94233805 -0.011437505
vn -0.33446696 -0.94233805 -0.011437505
vn -0.33446696 -0.94233805 -0.011437505
vn 0 1 0
vn 0 1 0
vn 0 1 0
vn 0 1 0
vn 0 1 0
vn 0 1 0
vn 0 -0.9169156 0.39908117
vn 0 -0.9169156 0.39908117
vn 0 -0.9169156 0.39908117
vn 0.37986302 -0.92380387 -0.047858078
vn 0.37986302 -0.92380387 -0.047858078
vn 0.37986302 -0.92380387 -0.047858078
vn -0.37986302 -0.92380387 -0.047858078
vn -0.37986302 -0.92380387 -0.047858078
vn -0.37986302 -0.92380387 -0.047858078
vn 0 1 0
vn 0 1 0
vn 0 1 0
vn 0 1 0
vn 0 1 0
vn 0 1 0
vn 0 -0.9169156 0.3990812
vn 0 -0.9169156 0.3990812
vn 0 -0.9169156 0.3990812
vn 0.6360175 -0.7269563 -0.258875
vn 0.6360175 -0.7269563 -0.258875
vn 0.6360175 -0.7269563 -0.258875
vn -0.6360175 -0.7269563 -0.258875
vn -0.6360175 -0.7269563 -0.258875
vn -0.6360175 -0.7269563 -0.258875
vn 0 1 0
vn 0 1 0
vn 0 1 0
vn 0 1 0
vn 0 1 0
vn 0 1 0
vn 0 -0.6264242 0.77948236
vn 0 -0.6264242 0.77948236
vn 0 -0.6264242 0.77948236
vn 0 -0.6264236 0.7794828
vn 0 -0.6264236 0.7794828
vn 0 -0.6264236 0.7794828
vn 0 -0.62642384 0.77948266
vn 0 -0.62642384 0.77948266
vn 0 -0.62642384 0.77948266
vn 0 -0.6264236 0.7794828
vn 0 -0.6264236 0.7794828
vn 0 -0.6264236 0.7794828
vn 0 -0.6264242 0.77948236
vn 0 -0.6264242 0.77948236
vn 0 -0.6264242 0.77948236
vn -0 0.9916346 0.12907682
vn -0 0.9916346 0.12907682
vn -0 0.9916346 0.12907682
vn 0 -0.97922003 0.20280044
vn 0 -0.97922003 0.20280044
vn 0 -0.97922003 0.20280044
vn 0 -0.97922003 0.20280044
vn 0 -0.97922003 0.20280044
vn 0 -0.97922003 0.20280044
f 1//1 2//2 3//3
f 4//4 5//5 6//6
f 7//7 8//8 9//9
f 10//10 11//11 12//12
f 13//13 14//14 15//15
f 16//16 17//17 18//18
f 19//19 20//20 21//21
f 22//22 23//23 24//24
f 25//25 26//26 27//27
f 28//28 29//29 30//30
f 31//31 32//32 33//33
f 34//34 35//35 36//36
f 37//37 38//38 39//39
f 40//40 41//41 42//42
f 43//43 44//44 45//45
f 46//46 47//47 48//48
f 49//49 50//50 51//51
f 52//52 53//53 54//54
f 55//55 56//56 57//57
f 58//58 59//59 60//60
f 61//61 62//62 63//63
f 64//64 65//65 66//66
f 67//67 68//68 69//69
f 70//70 71//71 72//72
f 73//73 74//74 75//75
f 76//76 77//77 78//78
f 79//79 80//80 81//81
f 82//82 83//83 84//84
f 85//85 86//86 87//87
f 88//88 89//89 90//90
f 91//91 92//92 93//93
f 94//94 95//95 96//96
f 97//97 98//98 99//99
f 100//100 101//101 102//102
f 103//103 104//104 105//105
f 106//106 107//107 108//108
f 109//109 110//110 111//111
f 112//112 113//113 114//114
