# Exported from SharpOpenGl procedural mesh
o frigate_strike
# vertices 225
v -0.30582502 0.22623412 -2.1247685
v 0.30582502 0.22623412 -2.1247685
v 0 0.46539593 -1.6684262
v -0.30582502 0.22623412 -2.1247685
v 0 0.46539593 -1.6684262
v -0.45873755 0.22623412 -1.1106744
v 0.30582502 0.22623412 -2.1247685
v 0.45873755 0.22623412 -1.1106744
v 0 0.46539593 -1.6684262
v -0.30582502 0 -2.1247685
v -0.45873755 0 -1.1106744
v 0.30582502 0 -2.1247685
v 0.30582502 0 -2.1247685
v -0.45873755 0 -1.1106744
v 0.45873755 0 -1.1106744
v -0.30582502 0 -2.1247685
v -0.30582502 0.22623412 -2.1247685
v -0.45873755 0.22623412 -1.1106744
v -0.30582502 0 -2.1247685
v -0.45873755 0.22623412 -1.1106744
v -0.45873755 0 -1.1106744
v 0.30582502 0 -2.1247685
v 0.45873755 0.22623412 -1.1106744
v 0.30582502 0.22623412 -2.1247685
v 0.30582502 0 -2.1247685
v 0.45873755 0 -1.1106744
v 0.45873755 0.22623412 -1.1106744
v -0.45873755 0.22623412 -1.1106744
v 0.45873755 0.22623412 -1.1106744
v 0 0.46539593 -0.65433204
v -0.45873755 0.22623412 -1.1106744
v 0 0.46539593 -0.65433204
v -0.57067734 0.22623412 -0.09658027
v 0.45873755 0.22623412 -1.1106744
v 0.57067734 0.22623412 -0.09658027
v 0 0.46539593 -0.65433204
v -0.45873755 0 -1.1106744
v -0.57067734 0 -0.09658027
v 0.45873755 0 -1.1106744
v 0.45873755 0 -1.1106744
v -0.57067734 0 -0.09658027
v 0.57067734 0 -0.09658027
v -0.45873755 0 -1.1106744
v -0.45873755 0.22623412 -1.1106744
v -0.57067734 0.22623412 -0.09658027
v -0.45873755 0 -1.1106744
v -0.57067734 0.22623412 -0.09658027
v -0.57067734 0 -0.09658027
v 0.45873755 0 -1.1106744
v 0.57067734 0.22623412 -0.09658027
v 0.45873755 0.22623412 -1.1106744
v 0.45873755 0 -1.1106744
v 0.57067734 0 -0.09658027
v 0.57067734 0.22623412 -0.09658027
v -0.57067734 0.22623412 -0.09658027
v 0.57067734 0.22623412 -0.09658027
v 0 0.46539593 0.35976195
v -0.57067734 0.22623412 -0.09658027
v 0 0.46539593 0.35976195
v -0.61165005 0.22623412 0.9175136
v 0.57067734 0.22623412 -0.09658027
v 0.61165005 0.22623412 0.9175136
v 0 0.46539593 0.35976195
v -0.57067734 0 -0.09658027
v -0.61165005 0 0.9175136
v 0.57067734 0 -0.09658027
v 0.57067734 0 -0.09658027
v -0.61165005 0 0.9175136
v 0.61165005 0 0.9175136
v -0.57067734 0 -0.09658027
v -0.57067734 0.22623412 -0.09658027
v -0.61165005 0.22623412 0.9175136
v -0.57067734 0 -0.09658027
v -0.61165005 0.22623412 0.9175136
v -0.61165005 0 0.9175136
v 0.57067734 0 -0.09658027
v 0.61165005 0.22623412 0.9175136
v 0.57067734 0.22623412 -0.09658027
v 0.57067734 0 -0.09658027
v 0.61165005 0 0.9175136
v 0.61165005 0.22623412 0.9175136
v -0.61165005 0.22623412 0.9175136
v 0.61165005 0.22623412 0.9175136
v 0 0.46539593 1.3738561
v -0.61165005 0.22623412 0.9175136
v 0 0.46539593 1.3738561
v -0.5706773 0.22623412 1.931608
v 0.61165005 0.22623412 0.9175136
v 0.5706773 0.22623412 1.931608
v 0 0.46539593 1.3738561
v -0.61165005 0 0.9175136
v -0.5706773 0 1.931608
v 0.61165005 0 0.9175136
v 0.61165005 0 0.9175136
v -0.5706773 0 1.931608
v 0.5706773 0 1.931608
v -0.61165005 0 0.9175136
v -0.61165005 0.22623412 0.9175136
v -0.5706773 0.22623412 1.931608
v -0.61165005 0 0.9175136
v -0.5706773 0.22623412 1.931608
v -0.5706773 0 1.931608
v 0.61165005 0 0.9175136
v 0.5706773 0.22623412 1.931608
v 0.61165005 0.22623412 0.9175136
v 0.61165005 0 0.9175136
v 0.5706773 0 1.931608
v 0.5706773 0.22623412 1.931608
v -0.5706773 0.22623412 1.931608
v 0.5706773 0.22623412 1.931608
v 0 0.46539593 2.38795
v -0.5706773 0.22623412 1.931608
v 0 0.46539593 2.38795
v -0.45873758 0.22623412 2.9457014
v 0.5706773 0.22623412 1.931608
v 0.45873758 0.22623412 2.9457014
v 0 0.46539593 2.38795
v -0.5706773 0 1.931608
v -0.45873758 0 2.9457014
v 0.5706773 0 1.931608
v 0.5706773 0 1.931608
v -0.45873758 0 2.9457014
v 0.45873758 0 2.9457014
v -0.5706773 0 1.931608
v -0.5706773 0.22623412 1.931608
v -0.45873758 0.22623412 2.9457014
v -0.5706773 0 1.931608
v -0.45873758 0.22623412 2.9457014
v -0.45873758 0 2.9457014
v 0.5706773 0 1.931608
v 0.45873758 0.22623412 2.9457014
v 0.5706773 0.22623412 1.931608
v 0.5706773 0 1.931608
v 0.45873758 0 2.9457014
v 0.45873758 0.22623412 2.9457014
v -0.45873758 0.22623412 2.9457014
v 0.45873758 0.22623412 2.9457014
v 0 0.46539593 3.4020438
v -0.45873758 0.22623412 2.9457014
v 0 0.46539593 3.4020438
v -0 0.22623412 3.9597957
v 0.45873758 0.22623412 2.9457014
v 0 0.22623412 3.9597957
v 0 0.46539593 3.4020438
v -0.45873758 0 2.9457014
v -0 0 3.9597957
v 0.45873758 0 2.9457014
v 0.45873758 0 2.9457014
v -0 0 3.9597957
v 0 0 3.9597957
v -0.45873758 0 2.9457014
v -0.45873758 0.22623412 2.9457014
v -0 0.22623412 3.9597957
v -0.45873758 0 2.9457014
v -0 0.22623412 3.9597957
v -0 0 3.9597957
v 0.45873758 0 2.9457014
v 0 0.22623412 3.9597957
v 0.45873758 0.22623412 2.9457014
v 0.45873758 0 2.9457014
v 0 0 3.9597957
v 0 0.22623412 3.9597957
v -0.22299743 0 3.9597957
v 0.22299743 0 3.9597957
v 0 0.39558655 4.1529565
v -0.22299743 0 -2.1247685
v 0 0.13574047 -2.269639
v 0.22299743 0 -2.1247685
v 0 0.5041789 -1.6177214
v -0.06371355 0.4007576 -1.7069204
v 0.06371355 0.4007576 -1.7069204
v 0 0.5041789 -0.60362744
v -0.06371355 0.4007576 -0.6928264
v 0.06371355 0.4007576 -0.6928264
v 0 0.5041789 0.41046643
v -0.06371355 0.4007576 0.32126746
v 0.06371355 0.4007576 0.32126746
v 0 0.5041789 1.4245605
v -0.06371355 0.4007576 1.3353616
v 0.06371355 0.4007576 1.3353616
v 0 0.5041789 2.4386547
v -0.06371355 0.4007576 2.3494556
v 0.06371355 0.4007576 2.3494556
v -0.2675969 0.1809873 -1.0295469
v 0.2675969 0.1809873 -1.0295469
v 0 0.31026393 -1.6380033
v -0.30758268 0.06987926 -0.6146024
v -0.45258594 0 -0.6943542
v -0.16257942 0 -0.6943542
v 0.30758268 0.06987926 -0.6146024
v 0.16257942 0 -0.6943542
v 0.45258594 0 -0.6943542
v -0.20827384 0.04367454 -0.5970423
v 0.20827384 0.04367454 -0.5970423
v 0 0.19216798 -0.4653418
v -0.23244105 0.04367454 0.14048064
v 0.23244105 0.04367454 0.14048064
v 0 0.19216798 0.27218115
v -0.2416721 0.04367454 0.8780035
v 0.2416721 0.04367454 0.8780035
v 0 0.19216798 1.009704
v -0.23244105 0.04367454 1.6155263
v 0.23244105 0.04367454 1.6155263
v 0 0.19216798 1.7472268
v -0.20827384 0.04367454 2.3530493
v 0.20827384 0.04367454 2.3530493
v 0 0.19216798 2.4847498
v 0 0.48041996 -0.05853355
v -0.07689567 0.36686614 -0.25608432
v 0.07689567 0.36686614 -0.25608432
v 0 0.48041996 0.5853356
v -0.07689567 0.36686614 0.38778484
v 0.07689567 0.36686614 0.38778484
v 0 0.48041996 1.2292048
v -0.07689567 0.36686614 1.031654
v 0.07689567 0.36686614 1.031654
v 0 0.48041996 1.8730739
v -0.07689567 0.36686614 1.6755232
v 0.07689567 0.36686614 1.6755232
v 0 0.48041996 2.516943
v -0.07689567 0.36686614 2.3193922
v 0.07689567 0.36686614 2.3193922
v -0.15379134 0 -1.8657572
v 0.15379134 0 -1.8657572
v 0 0.04367454 -2.063308
vn 0 -0.8857315 0.4641979
vn 0 -0.8857315 0.4641979
vn 0 -0.8857315 0.4641979
vn 0.5363252 -0.8401281 0.08087104
vn 0.5363252 -0.8401281 0.08087104
vn 0.5363252 -0.8401281 0.08087104
vn -0.5363252 -0.8401281 0.08087104
vn -0.5363252 -0.8401281 0.08087104
vn -0.5363252 -0.8401281 0.08087104
vn 0 0.99999994 -0
vn 0 0.99999994 -0
vn 0 0.99999994 -0
vn 0 1 -0
vn 0 1 -0
vn 0 1 -0
vn 0.98882186 -0 0.1491018
vn 0.98882186 -0 0.1491018
vn 0.98882186 -0 0.1491018
vn 0.98882186 0 0.1491018
vn 0.98882186 0 0.1491018
vn 0.98882186 0 0.1491018
vn -0.98882186 0 0.1491018
vn -0.98882186 0 0.1491018
vn -0.98882186 0 0.1491018
vn -0.98882186 0 0.1491018
vn -0.98882186 0 0.1491018
vn -0.98882186 0 0.1491018
vn 0 -0.88573146 0.46419787
vn 0 -0.88573146 0.46419787
vn 0 -0.88573146 0.46419787
vn 0.4247187 -0.9041106 0.04688216
vn 0.4247187 -0.9041106 0.04688216
vn 0.4247187 -0.9041106 0.04688216
vn -0.4247187 -0.9041106 0.04688216
vn -0.4247187 -0.9041106 0.04688216
vn -0.4247187 -0.9041106 0.04688216
vn 0 1 -0
vn 0 1 -0
vn 0 1 -0
vn 0 1 -0
vn 0 1 -0
vn 0 1 -0
vn 0.9939628 -0 0.10971762
vn 0.9939628 -0 0.10971762
vn 0.9939628 -0 0.10971762
vn 0.9939628 0 0.10971762
vn 0.9939628 0 0.10971762
vn 0.9939628 0 0.10971762
vn -0.9939628 0 0.10971762
vn -0.9939628 0 0.10971762
vn -0.9939628 0 0.10971762
vn -0.9939628 0 0.10971762
vn -0.9939628 0 0.10971762
vn -0.9939628 0 0.10971762
vn 0 -0.88573146 0.46419796
vn 0 -0.88573146 0.46419796
vn 0 -0.88573146 0.46419796
vn 0.37610927 -0.9264507 0.015196045
vn 0.37610927 -0.9264507 0.015196045
vn 0.37610927 -0.9264507 0.015196045
vn -0.37610927 -0.9264507 0.015196045
vn -0.37610927 -0.9264507 0.015196045
vn -0.37610927 -0.9264507 0.015196045
vn 0 1 -0
vn 0 1 -0
vn 0 1 -0
vn 0 1 -0
vn 0 1 -0
vn 0 1 -0
vn 0.9991847 -0 0.04037033
vn 0.9991847 -0 0.04037033
vn 0.9991847 -0 0.04037033
vn 0.9991847 0 0.04037033
vn 0.9991847 0 0.04037033
vn 0.9991847 0 0.04037033
vn -0.9991847 0 0.04037033
vn -0.9991847 0 0.04037033
vn -0.9991847 0 0.04037033
vn -0.9991847 0 0.04037033
vn -0.9991847 0 0.04037033
vn -0.9991847 0 0.04037033
vn 0 -0.8857315 0.46419778
vn 0 -0.8857315 0.46419778
vn 0 -0.8857315 0.46419778
vn 0.37387633 -0.9273556 -0.015105843
vn 0.37387633 -0.9273556 -0.015105843
vn 0.37387633 -0.9273556 -0.015105843
vn -0.37387633 -0.9273556 -0.015105843
vn -0.37387633 -0.9273556 -0.015105843
vn -0.37387633 -0.9273556 -0.015105843
vn 0 1 0
vn 0 1 0
vn 0 1 0
vn 0 1 0
vn 0 1 0
vn 0 1 0
vn 0.9991847 0 -0.04037037
vn 0.9991847 0 -0.04037037
vn 0.9991847 0 -0.04037037
vn 0.9991847 0 -0.04037037
vn 0.9991847 0 -0.04037037
vn 0.9991847 0 -0.04037037
vn -0.9991847 0 -0.04037037
vn -0.9991847 0 -0.04037037
vn -0.9991847 0 -0.04037037
vn -0.9991847 0 -0.04037037
vn -0.9991847 0 -0.04037037
vn -0.9991847 0 -0.04037037
vn 0 -0.8857313 0.46419814
vn 0 -0.8857313 0.46419814
vn 0 -0.8857313 0.46419814
vn 0.4172055 -0.9076445 -0.04605282
vn 0.4172055 -0.9076445 -0.04605282
vn 0.4172055 -0.9076445 -0.04605282
vn -0.4172055 -0.9076445 -0.04605282
vn -0.4172055 -0.9076445 -0.04605282
vn -0.4172055 -0.9076445 -0.04605282
vn 0 1 0
vn 0 1 0
vn 0 1 0
vn 0 1 0
vn 0 1 0
vn 0 1 0
vn 0.9939628 0 -0.10971761
vn 0.9939628 0 -0.10971761
vn 0.9939628 0 -0.10971761
vn 0.9939628 0 -0.10971761
vn 0.9939628 0 -0.10971761
vn 0.9939628 0 -0.10971761
vn -0.9939628 0 -0.10971761
vn -0.9939628 0 -0.10971761
vn -0.9939628 0 -0.10971761
vn -0.9939628 0 -0.10971761
vn -0.9939628 0 -0.10971761
vn -0.9939628 0 -0.10971761
vn 0 -0.8857316 0.4641978
vn 0 -0.8857316 0.4641978
vn 0 -0.8857316 0.4641978
vn 0.6568766 -0.69297725 -0.2971459
vn 0.6568766 -0.69297725 -0.2971459
vn 0.6568766 -0.69297725 -0.2971459
vn -0.6568766 -0.69297725 -0.2971459
vn -0.6568766 -0.69297725 -0.2971459
vn -0.6568766 -0.69297725 -0.2971459
vn 0 1 0
vn 0 1 0
vn 0 1 0
vn 0 1 0
vn 0 1 0
vn 0 1 0
vn 0.91111445 0 -0.41215342
vn 0.91111445 0 -0.41215342
vn 0.91111445 0 -0.41215342
vn 0.91111445 0 -0.41215342
vn 0.91111445 0 -0.41215342
vn 0.91111445 0 -0.41215342
vn -0.91111445 0 -0.41215342
vn -0.91111445 0 -0.41215342
vn -0.91111445 0 -0.41215342
vn -0.91111445 0 -0.41215342
vn -0.91111445 0 -0.41215342
vn -0.91111445 0 -0.41215342
vn 0 -0.43877536 0.89859676
vn 0 -0.43877536 0.89859676
vn 0 -0.43877536 0.89859676
vn 0 -0.72972727 -0.6837383
vn 0 -0.72972727 -0.6837383
vn 0 -0.72972727 -0.6837383
vn 0 -0.65311885 0.7572554
vn 0 -0.65311885 0.7572554
vn 0 -0.65311885 0.7572554
vn 0 -0.65311885 0.7572554
vn 0 -0.65311885 0.7572554
vn 0 -0.65311885 0.7572554
vn 0 -0.653119 0.7572553
vn 0 -0.653119 0.7572553
vn 0 -0.653119 0.7572553
vn 0 -0.65311885 0.7572554
vn 0 -0.65311885 0.7572554
vn 0 -0.65311885 0.7572554
vn 0 -0.6531194 0.75725496
vn 0 -0.6531194 0.75725496
vn 0 -0.6531194 0.75725496
vn -0 0.9781655 0.20782742
vn -0 0.9781655 0.20782742
vn -0 0.9781655 0.20782742
vn 0 -0.7521258 0.65901965
vn 0 -0.7521258 0.65901965
vn 0 -0.7521258 0.65901965
vn 0 -0.7521258 0.65901965
vn 0 -0.7521258 0.65901965
vn 0 -0.7521258 0.65901965
vn 0 -0.66353697 0.74814343
vn 0 -0.66353697 0.74814343
vn 0 -0.66353697 0.74814343
vn 0 -0.66353697 0.7481435
vn 0 -0.66353697 0.7481435
vn 0 -0.66353697 0.7481435
vn 0 -0.66353697 0.74814343
vn 0 -0.66353697 0.74814343
vn 0 -0.66353697 0.74814343
vn 0 -0.66353697 0.7481435
vn 0 -0.66353697 0.7481435
vn 0 -0.66353697 0.7481435
vn 0 -0.66353697 0.74814343
vn 0 -0.66353697 0.74814343
vn 0 -0.66353697 0.74814343
vn 0 -0.86697805 0.49834618
vn 0 -0.86697805 0.49834618
vn 0 -0.86697805 0.49834618
vn 0 -0.86697805 0.49834618
vn 0 -0.86697805 0.49834618
vn 0 -0.86697805 0.49834618
vn 0 -0.86697805 0.49834618
vn 0 -0.86697805 0.49834618
vn 0 -0.86697805 0.49834618
vn 0 -0.86697805 0.49834618
vn 0 -0.86697805 0.49834618
vn 0 -0.86697805 0.49834618
vn 0 -0.86697805 0.49834618
vn 0 -0.86697805 0.49834618
vn 0 -0.86697805 0.49834618
vn -0 0.97642267 0.21586761
vn -0 0.97642267 0.21586761
vn -0 0.97642267 0.21586761
f 1//1 2//2 3//3
f 4//4 5//5 6//6
f 7//7 8//8 9//9
f 10//10 11//11 12//12
f 13//13 14//14 15//15
f 16//16 17//17 18//18
f 19//19 20//20 21//21
f 22//22 23//23 24//24
f 25//25 26//26 27//27
f 28//28 29//29 30//30
f 31//31 32//32 33//33
f 34//34 35//35 36//36
f 37//37 38//38 39//39
f 40//40 41//41 42//42
f 43//43 44//44 45//45
f 46//46 47//47 48//48
f 49//49 50//50 51//51
f 52//52 53//53 54//54
f 55//55 56//56 57//57
f 58//58 59//59 60//60
f 61//61 62//62 63//63
f 64//64 65//65 66//66
f 67//67 68//68 69//69
f 70//70 71//71 72//72
f 73//73 74//74 75//75
f 76//76 77//77 78//78
f 79//79 80//80 81//81
f 82//82 83//83 84//84
f 85//85 86//86 87//87
f 88//88 89//89 90//90
f 91//91 92//92 93//93
f 94//94 95//95 96//96
f 97//97 98//98 99//99
f 100//100 101//101 102//102
f 103//103 104//104 105//105
f 106//106 107//107 108//108
f 109//109 110//110 111//111
f 112//112 113//113 114//114
f 115//115 116//116 117//117
f 118//118 119//119 120//120
f 121//121 122//122 123//123
f 124//124 125//125 126//126
f 127//127 128//128 129//129
f 130//130 131//131 132//132
f 133//133 134//134 135//135
f 136//136 137//137 138//138
f 139//139 140//140 141//141
f 142//142 143//143 144//144
f 145//145 146//146 147//147
f 148//148 149//149 150//150
f 151//151 152//152 153//153
f 154//154 155//155 156//156
f 157//157 158//158 159//159
f 160//160 161//161 162//162
f 163//163 164//164 165//165
f 166//166 167//167 168//168
f 169//169 170//170 171//171
f 172//172 173//173 174//174
f 175//175 176//176 177//177
f 178//178 179//179 180//180
f 181//181 182//182 183//183
f 184//184 185//185 186//186
f 187//187 188//188 189//189
f 190//190 191//191 192//192
f 193//193 194//194 195//195
f 196//196 197//197 198//198
f 199//199 200//200 201//201
f 202//202 203//203 204//204
f 205//205 206//206 207//207
f 208//208 209//209 210//210
f 211//211 212//212 213//213
f 214//214 215//215 216//216
f 217//217 218//218 219//219
f 220//220 221//221 222//222
f 223//223 224//224 225//225
