# Exported from SharpOpenGl procedural mesh
o gunship_heavy
# vertices 363
v -0.5510134 0.27958083 -1.7644796
v 0.5510134 0.27958083 -1.7644796
v 0 0.57513773 -1.3855176
v -0.5510134 0.27958083 -1.7644796
v 0 0.57513773 -1.3855176
v -0.82652014 0.27958083 -0.92234164
v 0.5510134 0.27958083 -1.7644796
v 0.82652014 0.27958083 -0.92234164
v 0 0.57513773 -1.3855176
v -0.5510134 0 -1.7644796
v -0.82652014 0 -0.92234164
v 0.5510134 0 -1.7644796
v 0.5510134 0 -1.7644796
v -0.82652014 0 -0.92234164
v 0.82652014 0 -0.92234164
v -0.5510134 0 -1.7644796
v -0.5510134 0.27958083 -1.7644796
v -0.82652014 0.27958083 -0.92234164
v -0.5510134 0 -1.7644796
v -0.82652014 0.27958083 -0.92234164
v -0.82652014 0 -0.92234164
v 0.5510134 0 -1.7644796
v 0.82652014 0.27958083 -0.92234164
v 0.5510134 0.27958083 -1.7644796
v 0.5510134 0 -1.7644796
v 0.82652014 0 -0.92234164
v 0.82652014 0.27958083 -0.92234164
v -0.82652014 0.27958083 -0.92234164
v 0.82652014 0.27958083 -0.92234164
v 0 0.57513773 -0.54337955
v -0.82652014 0.27958083 -0.92234164
v 0 0.57513773 -0.54337955
v -1.0282052 0.27958083 -0.08020365
v 0.82652014 0.27958083 -0.92234164
v 1.0282052 0.27958083 -0.08020365
v 0 0.57513773 -0.54337955
v -0.82652014 0 -0.92234164
v -1.0282052 0 -0.08020365
v 0.82652014 0 -0.92234164
v 0.82652014 0 -0.92234164
v -1.0282052 0 -0.08020365
v 1.0282052 0 -0.08020365
v -0.82652014 0 -0.92234164
v -0.82652014 0.27958083 -0.92234164
v -1.0282052 0.27958083 -0.08020365
v -0.82652014 0 -0.92234164
v -1.0282052 0.27958083 -0.08020365
v -1.0282052 0 -0.08020365
v 0.82652014 0 -0.92234164
v 1.0282052 0.27958083 -0.08020365
v 0.82652014 0.27958083 -0.92234164
v 0.82652014 0 -0.92234164
v 1.0282052 0 -0.08020365
v 1.0282052 0.27958083 -0.08020365
v -1.0282052 0.27958083 -0.08020365
v 1.0282052 0.27958083 -0.08020365
v 0 0.57513773 0.29875842
v -1.0282052 0.27958083 -0.08020365
v 0 0.57513773 0.29875842
v -1.1020268 0.27958083 0.7619343
v 1.0282052 0.27958083 -0.08020365
v 1.1020268 0.27958083 0.7619343
v 0 0.57513773 0.29875842
v -1.0282052 0 -0.08020365
v -1.1020268 0 0.7619343
v 1.0282052 0 -0.08020365
v 1.0282052 0 -0.08020365
v -1.1020268 0 0.7619343
v 1.1020268 0 0.7619343
v -1.0282052 0 -0.08020365
v -1.0282052 0.27958083 -0.08020365
v -1.1020268 0.27958083 0.7619343
v -1.0282052 0 -0.08020365
v -1.1020268 0.27958083 0.7619343
v -1.1020268 0 0.7619343
v 1.0282052 0 -0.08020365
v 1.1020268 0.27958083 0.7619343
v 1.0282052 0.27958083 -0.08020365
v 1.0282052 0 -0.08020365
v 1.1020268 0 0.7619343
v 1.1020268 0.27958083 0.7619343
v -1.1020268 0.27958083 0.7619343
v 1.1020268 0.27958083 0.7619343
v 0 0.57513773 1.1408963
v -1.1020268 0.27958083 0.7619343
v 0 0.57513773 1.1408963
v -1.028205 0.27958083 1.6040723
v 1.1020268 0.27958083 0.7619343
v 1.028205 0.27958083 1.6040723
v 0 0.57513773 1.1408963
v -1.1020268 0 0.7619343
v -1.028205 0 1.6040723
v 1.1020268 0 0.7619343
v 1.1020268 0 0.7619343
v -1.028205 0 1.6040723
v 1.028205 0 1.6040723
v -1.1020268 0 0.7619343
v -1.1020268 0.27958083 0.7619343
v -1.028205 0.27958083 1.6040723
v -1.1020268 0 0.7619343
v -1.028205 0.27958083 1.6040723
v -1.028205 0 1.6040723
v 1.1020268 0 0.7619343
v 1.028205 0.27958083 1.6040723
v 1.1020268 0.27958083 0.7619343
v 1.1020268 0 0.7619343
v 1.028205 0 1.6040723
v 1.028205 0.27958083 1.6040723
v -1.028205 0.27958083 1.6040723
v 1.028205 0.27958083 1.6040723
v 0 0.57513773 1.9830343
v -1.028205 0.27958083 1.6040723
v 0 0.57513773 1.9830343
v -0.8265202 0.27958083 2.44621
v 1.028205 0.27958083 1.6040723
v 0.8265202 0.27958083 2.44621
v 0 0.57513773 1.9830343
v -1.028205 0 1.6040723
v -0.8265202 0 2.44621
v 1.028205 0 1.6040723
v 1.028205 0 1.6040723
v -0.8265202 0 2.44621
v 0.8265202 0 2.44621
v -1.028205 0 1.6040723
v -1.028205 0.27958083 1.6040723
v -0.8265202 0.27958083 2.44621
v -1.028205 0 1.6040723
v -0.8265202 0.27958083 2.44621
v -0.8265202 0 2.44621
v 1.028205 0 1.6040723
v 0.8265202 0.27958083 2.44621
v 1.028205 0.27958083 1.6040723
v 1.028205 0 1.6040723
v 0.8265202 0 2.44621
v 0.8265202 0.27958083 2.44621
v -0.8265202 0.27958083 2.44621
v 0.8265202 0.27958083 2.44621
v 0 0.57513773 2.8251722
v -0.8265202 0.27958083 2.44621
v 0 0.57513773 2.8251722
v -0 0.27958083 3.2883482
v 0.8265202 0.27958083 2.44621
v 0 0.27958083 3.2883482
v 0 0.57513773 2.8251722
v -0.8265202 0 2.44621
v -0 0 3.2883482
v 0.8265202 0 2.44621
v -0.8265202 0 2.44621
v -0.8265202 0.27958083 2.44621
v -0 0.27958083 3.2883482
v -0.8265202 0 2.44621
v -0 0.27958083 3.2883482
v -0 0 3.2883482
v 0.8265202 0 2.44621
v 0 0.27958083 3.2883482
v 0.8265202 0.27958083 2.44621
v 0.8265202 0 2.44621
v 0 0 3.2883482
v 0 0.27958083 3.2883482
v -0.40178064 0 3.2883484
v 0.40178064 0 3.2883484
v 0 0.48886707 3.4487557
v -0.40178064 0 -1.7644796
v 0 0.16774851 -1.884785
v 0.40178064 0 -1.7644796
v 0 0.6230658 -1.3434106
v -0.11479447 0.49525747 -1.5041229
v 0.11479447 0.49525747 -1.5041229
v 0 0.6230658 -0.5012727
v -0.11479447 0.49525747 -0.6619849
v 0.11479447 0.49525747 -0.6619849
v 0 0.6230658 0.34086514
v -0.11479447 0.49525747 0.18015288
v 0.11479447 0.49525747 0.18015288
v 0 0.6230658 1.1830032
v -0.11479447 0.49525747 1.022291
v 0.11479447 0.49525747 1.022291
v 0 0.6230658 2.0251412
v -0.11479447 0.49525747 1.864429
v 0.11479447 0.49525747 1.864429
v -0.48213676 0.22366467 -0.8549706
v 0.48213676 0.22366467 -0.8549706
v 0 0.38342515 -1.3602535
v -0.33646655 0.17271402 0.21873713
v -0.395843 0.15112478 0.3645619
v -0.33646655 0.12953551 0.40101808
v 0.33646655 0.17271402 0.21873713
v 0.395843 0.15112478 0.3645619
v 0.33646655 0.12953551 0.40101808
v -0.59376454 0.2050979 0.5468429
v -0.41563514 0.18869007 0.57600784
v -0.59376454 0.17433321 0.5905903
v 0.59376454 0.2050979 0.5468429
v 0.41563514 0.18869007 0.57600784
v 0.59376454 0.17433321 0.5905903
v -0.6135567 0.21589254 0.21873713
v -0.58386844 0.19430329 0.24790208
v -0.6135567 0.17271402 0.26248455
v -0.6135567 0.23208447 0.10936856
v -0.58386844 0.21049522 0.13853352
v -0.6135567 0.18890595 0.15311599
v -0.6135567 0.24827641 0
v -0.58386844 0.22668716 0.029164953
v -0.6135567 0.2050979 0.04374743
v -0.6135567 0.26446834 -0.10936856
v -0.58386844 0.24287911 -0.08020361
v -0.6135567 0.22128984 -0.06562114
v 0.6135567 0.21589254 0.21873713
v 0.58386844 0.19430329 0.24790208
v 0.6135567 0.17271402 0.26248455
v 0.6135567 0.23208447 0.10936856
v 0.58386844 0.21049522 0.13853352
v 0.6135567 0.18890595 0.15311599
v 0.6135567 0.24827641 0
v 0.58386844 0.22668716 0.029164953
v 0.6135567 0.2050979 0.04374743
v 0.6135567 0.26446834 -0.10936856
v 0.58386844 0.24287911 -0.08020361
v 0.6135567 0.22128984 -0.06562114
v -0.37605086 0.3670173 -0.21873713
v 0.37605086 0.3670173 -0.21873713
v 0 0.4101958 -0.19686341
v -0.29688227 0.38141012 0.072912395
v 0.29688227 0.38141012 0.072912395
v 0 0.42818686 0.09478611
v -0.21771365 0.39580297 0.36456192
v 0.21771365 0.39580297 0.36456192
v 0 0.4461779 0.38643563
v -0.13854505 0.4101958 0.65621144
v 0.13854505 0.4101958 0.65621144
v 0 0.46416894 0.67808515
v -0.21771365 0.38860658 -0.21873713
v 0.21771365 0.38860658 -0.21873713
v 0 0.43178508 -0.18957217
v -0.21771365 0.38860658 0.7291238
v 0.21771365 0.38860658 0.7291238
v 0 0.43178508 0.75828874
v -0.01979215 0.7988024 0.8749485
v 0.01979215 0.7988024 0.8749485
v 0 0.8419808 0.9478609
v -0.29688227 0.043178506 -0.21873713
v 0.29688227 0.043178506 -0.21873713
v 0 0.12953551 -0.18957217
v -0.24492787 0.043178506 0.18228096
v 0.24492787 0.043178506 0.18228096
v 0 0.14033014 0.21144591
v -0.19297348 0.043178506 0.58329904
v 0.19297348 0.043178506 0.58329904
v 0 0.15112478 0.612464
v -0.24344346 0.021589253 -0.14582476
v 0.24344346 0.021589253 -0.14582476
v 0 0.08635701 -0.12395105
v -0.15437877 0.021589253 0.4199753
v 0.15437877 0.021589253 0.4199753
v 0 0.10794626 0.44184902
v -0.35625872 0.23748179 0.07291238
v -0.3265705 0.28066027 0.10936857
v -0.35625872 0.19430329 0.116659805
v -0.35625872 0.23748179 0.32810572
v -0.3265705 0.28066027 0.36456192
v -0.35625872 0.19430329 0.37185314
v -0.35625872 0.23748179 0.58329904
v -0.3265705 0.28066027 0.6197552
v -0.35625872 0.19430329 0.62704647
v 0.35625872 0.23748179 0.07291238
v 0.3265705 0.28066027 0.10936857
v 0.35625872 0.19430329 0.116659805
v 0.35625872 0.23748179 0.32810572
v 0.3265705 0.28066027 0.36456192
v 0.35625872 0.19430329 0.37185314
v 0.35625872 0.23748179 0.58329904
v 0.3265705 0.28066027 0.6197552
v 0.35625872 0.19430329 0.62704647
v -0.17812936 0.021589253 0.29164952
v 0.17812936 0.021589253 0.29164952
v 0 0.08635701 0.32810572
v -0.1979215 0.47496358 -0.07291238
v 0.1979215 0.47496358 -0.07291238
v 0 0.51814204 -0.051038668
v -0.0791686 0.51814204 0.65621144
v 0.0791686 0.51814204 0.65621144
v 0 0.56132054 0.67808515
v -0.049480375 0.56132054 -0.14582476
v 0.049480375 0.56132054 -0.14582476
v 0 0.6260883 -0.12759666
v -0.05937645 0.6260883 0.25519332
v 0.05937645 0.6260883 0.25519332
v 0 0.6908561 0.27706704
v -0.05937645 0.7340346 0.6562114
v 0.05937645 0.7340346 0.6562114
v 0 0.7988024 0.6780851
v -0.1979215 0.51814204 0.07291238
v 0.1979215 0.51814204 0.07291238
v 0.1979215 0.6692668 0.07291238
v -0.1979215 0.51814204 0.07291238
v 0.1979215 0.6692668 0.07291238
v -0.1979215 0.6692668 0.07291238
v -0.1979215 0.51814204 0.58329904
v 0.1979215 0.6692668 0.58329904
v 0.1979215 0.51814204 0.58329904
v -0.1979215 0.51814204 0.58329904
v -0.1979215 0.6692668 0.58329904
v 0.1979215 0.6692668 0.58329904
v -0.1979215 0.51814204 0.07291238
v -0.1979215 0.51814204 0.58329904
v 0.1979215 0.51814204 0.58329904
v -0.1979215 0.51814204 0.07291238
v 0.1979215 0.51814204 0.58329904
v 0.1979215 0.51814204 0.07291238
v -0.1979215 0.6692668 0.07291238
v 0.1979215 0.6692668 0.58329904
v -0.1979215 0.6692668 0.58329904
v -0.1979215 0.6692668 0.07291238
v 0.1979215 0.6692668 0.07291238
v 0.1979215 0.6692668 0.58329904
v -0.1979215 0.51814204 0.07291238
v -0.1979215 0.6692668 0.07291238
v -0.1979215 0.6692668 0.58329904
v -0.1979215 0.51814204 0.07291238
v -0.1979215 0.6692668 0.58329904
v -0.1979215 0.51814204 0.58329904
v 0.1979215 0.51814204 0.07291238
v 0.1979215 0.51814204 0.58329904
v 0.1979215 0.6692668 0.58329904
v 0.1979215 0.51814204 0.07291238
v 0.1979215 0.6692668 0.58329904
v 0.1979215 0.6692668 0.07291238
v -0.25729793 0.4101958 0.14582476
v 0.25729793 0.4101958 0.14582476
v 0.25729793 0.5397313 0.14582476
v -0.25729793 0.4101958 0.14582476
v 0.25729793 0.5397313 0.14582476
v -0.25729793 0.5397313 0.14582476
v -0.25729793 0.4101958 0.65621144
v 0.25729793 0.5397313 0.65621144
v 0.25729793 0.4101958 0.65621144
v -0.25729793 0.4101958 0.65621144
v -0.25729793 0.5397313 0.65621144
v 0.25729793 0.5397313 0.65621144
v -0.25729793 0.4101958 0.14582476
v -0.25729793 0.4101958 0.65621144
v 0.25729793 0.4101958 0.65621144
v -0.25729793 0.4101958 0.14582476
v 0.25729793 0.4101958 0.65621144
v 0.25729793 0.4101958 0.14582476
v -0.25729793 0.5397313 0.14582476
v 0.25729793 0.5397313 0.65621144
v -0.25729793 0.5397313 0.65621144
v -0.25729793 0.5397313 0.14582476
v 0.25729793 0.5397313 0.14582476
v 0.25729793 0.5397313 0.65621144
v -0.25729793 0.4101958 0.14582476
v -0.25729793 0.5397313 0.14582476
v -0.25729793 0.5397313 0.65621144
v -0.25729793 0.4101958 0.14582476
v -0.25729793 0.5397313 0.65621144
v -0.25729793 0.4101958 0.65621144
v 0.25729793 0.4101958 0.14582476
v 0.25729793 0.4101958 0.65621144
v 0.25729793 0.5397313 0.65621144
v 0.25729793 0.4101958 0.14582476
v 0.25729793 0.5397313 0.65621144
v 0.25729793 0.5397313 0.14582476
vn 0 -0.7885361 0.6149885
vn 0 -0.7885361 0.6149885
vn 0 -0.7885361 0.6149885
vn 0.3976922 -0.90824753 0.13010561
vn 0.3976922 -0.90824753 0.13010561
vn 0.3976922 -0.90824753 0.13010561
vn -0.3976922 -0.90824753 0.13010561
vn -0.3976922 -0.90824753 0.13010561
vn -0.3976922 -0.90824753 0.13010561
vn 0 1 -0
vn 0 1 -0
vn 0 1 -0
vn 0 1 -0
vn 0 1 -0
vn 0 1 -0
vn 0.95043117 -0 0.31093505
vn 0.95043117 -0 0.31093505
vn 0.95043117 -0 0.31093505
vn 0.95043117 0 0.31093505
vn 0.95043117 0 0.31093505
vn 0.95043117 0 0.31093505
vn -0.95043117 0 0.31093505
vn -0.95043117 0 0.31093505
vn -0.95043117 0 0.31093505
vn -0.95043117 0 0.31093505
vn -0.95043117 0 0.31093505
vn -0.95043117 0 0.31093505
vn 0 -0.7885361 0.6149884
vn 0 -0.7885361 0.6149884
vn 0 -0.7885361 0.6149884
vn 0.30585992 -0.94925445 0.0732509
vn 0.30585992 -0.94925445 0.0732509
vn 0.30585992 -0.94925445 0.0732509
vn -0.30585992 -0.94925445 0.0732509
vn -0.30585992 -0.94925445 0.0732509
vn -0.30585992 -0.94925445 0.0732509
vn 0 1 -0
vn 0 1 -0
vn 0 1 -0
vn 0 1 -0
vn 0 1 -0
vn 0 1 -0
vn 0.9724994 -0 0.23290549
vn 0.9724994 -0 0.23290549
vn 0.9724994 -0 0.23290549
vn 0.9724994 0 0.23290549
vn 0.9724994 0 0.23290549
vn 0.9724994 0 0.23290549
vn -0.9724994 0 0.23290549
vn -0.9724994 0 0.23290549
vn -0.9724994 0 0.23290549
vn -0.9724994 0 0.23290549
vn -0.9724994 0 0.23290549
vn -0.9724994 0 0.23290549
vn 0 -0.78853613 0.61498845
vn 0 -0.78853613 0.61498845
vn 0 -0.78853613 0.61498845
vn 0.26817355 -0.9630838 0.023508044
vn 0.26817355 -0.9630838 0.023508044
vn 0.26817355 -0.9630838 0.023508044
vn -0.26817355 -0.9630838 0.023508044
vn -0.26817355 -0.9630838 0.023508044
vn -0.26817355 -0.9630838 0.023508044
vn 0 1 -0
vn 0 1 -0
vn 0 1 -0
vn 0 0.99999994 -0
vn 0 0.99999994 -0
vn 0 0.99999994 -0
vn 0.99617994 -0 0.08732496
vn 0.99617994 -0 0.08732496
vn 0.99617994 -0 0.08732496
vn 0.99617994 0 0.08732496
vn 0.99617994 0 0.08732496
vn 0.99617994 0 0.08732496
vn -0.99617994 0 0.08732496
vn -0.99617994 0 0.08732496
vn -0.99617994 0 0.08732496
vn -0.99617994 0 0.08732496
vn -0.99617994 0 0.08732496
vn -0.99617994 0 0.08732496
vn 0 -0.7885361 0.6149885
vn 0 -0.7885361 0.6149885
vn 0 -0.7885361 0.6149885
vn 0.26645425 -0.9635646 -0.023357365
vn 0.26645425 -0.9635646 -0.023357365
vn 0.26645425 -0.9635646 -0.023357365
vn -0.26645425 -0.9635646 -0.023357365
vn -0.26645425 -0.9635646 -0.023357365
vn -0.26645425 -0.9635646 -0.023357365
vn 0 1 0
vn 0 1 0
vn 0 1 0
vn 0 1 0
vn 0 1 0
vn 0 1 0
vn 0.9961799 0 -0.08732508
vn 0.9961799 0 -0.08732508
vn 0.9961799 0 -0.08732508
vn 0.9961799 0 -0.08732508
vn 0.9961799 0 -0.08732508
vn 0.9961799 0 -0.08732508
vn -0.9961799 0 -0.08732508
vn -0.9961799 0 -0.08732508
vn -0.9961799 0 -0.08732508
vn -0.9961799 0 -0.08732508
vn -0.9961799 0 -0.08732508
vn -0.9961799 0 -0.08732508
vn 0 -0.788536 0.61498857
vn 0 -0.788536 0.61498857
vn 0 -0.788536 0.61498857
vn 0.29991162 -0.95125914 -0.0718263
vn 0.29991162 -0.95125914 -0.0718263
vn 0.29991162 -0.95125914 -0.0718263
vn -0.29991162 -0.95125914 -0.0718263
vn -0.29991162 -0.95125914 -0.0718263
vn -0.29991162 -0.95125914 -0.0718263
vn 0 1 0
vn 0 1 0
vn 0 1 0
vn 0 0.99999994 0
vn 0 0.99999994 0
vn 0 0.99999994 0
vn 0.97249943 0 -0.23290539
vn 0.97249943 0 -0.23290539
vn 0.97249943 0 -0.23290539
vn 0.97249943 0 -0.23290539
vn 0.97249943 0 -0.23290539
vn 0.97249943 0 -0.23290539
vn -0.97249943 0 -0.23290539
vn -0.97249943 0 -0.23290539
vn -0.97249943 0 -0.23290539
vn -0.97249943 0 -0.23290539
vn -0.97249943 0 -0.23290539
vn -0.97249943 0 -0.23290539
vn 0 -0.78853625 0.61498815
vn 0 -0.78853625 0.61498815
vn 0 -0.78853625 0.61498815
vn 0.4806304 -0.7392413 -0.47171673
vn 0.4806304 -0.7392413 -0.47171673
vn 0.4806304 -0.7392413 -0.47171673
vn -0.4806304 -0.7392413 -0.47171673
vn -0.4806304 -0.7392413 -0.47171673
vn -0.4806304 -0.7392413 -0.47171673
vn 0 1 0
vn 0 1 0
vn 0 1 0
vn 0.71369386 0 -0.7004579
vn 0.71369386 0 -0.7004579
vn 0.71369386 0 -0.7004579
vn 0.71369386 0 -0.7004579
vn 0.71369386 0 -0.7004579
vn 0.71369386 0 -0.7004579
vn -0.71369386 0 -0.7004579
vn -0.71369386 0 -0.7004579
vn -0.71369386 0 -0.7004579
vn -0.71369386 0 -0.7004579
vn -0.71369386 0 -0.7004579
vn -0.71369386 0 -0.7004579
vn 0 -0.3117666 0.9501588
vn 0 -0.3117666 0.9501588
vn 0 -0.3117666 0.9501588
vn 0 -0.582793 -0.8126206
vn 0 -0.582793 -0.8126206
vn 0 -0.582793 -0.8126206
vn 0 -0.78267443 0.62243134
vn 0 -0.78267443 0.62243134
vn 0 -0.78267443 0.62243134
vn 0 -0.78267443 0.62243134
vn 0 -0.78267443 0.62243134
vn 0 -0.78267443 0.62243134
vn 0 -0.78267443 0.62243134
vn 0 -0.78267443 0.62243134
vn 0 -0.78267443 0.62243134
vn 0 -0.78267443 0.62243134
vn 0 -0.78267443 0.62243134
vn 0 -0.78267443 0.62243134
vn 0 -0.78267443 0.62243134
vn 0 -0.78267443 0.62243134
vn 0 -0.78267443 0.62243134
vn -0 0.9534756 0.30147016
vn -0 0.9534756 0.30147016
vn -0 0.9534756 0.30147016
vn 0.20765786 0.9518608 0.22547574
vn 0.20765786 0.9518608 0.22547574
vn 0.20765786 0.9518608 0.22547574
vn 0.20765786 -0.9518608 -0.22547574
vn 0.20765786 -0.9518608 -0.22547574
vn 0.20765786 -0.9518608 -0.22547574
vn 0.018833298 -0.81784207 -0.57513446
vn 0.018833298 -0.81784207 -0.57513446
vn 0.018833298 -0.81784207 -0.57513446
vn 0.018833298 0.81784207 0.57513446
vn 0.018833298 0.81784207 0.57513446
vn 0.018833298 0.81784207 0.57513446
vn 0.17000937 -0.7013585 -0.69223773
vn 0.17000937 -0.7013585 -0.69223773
vn 0.17000937 -0.7013585 -0.69223773
vn 0.17000937 -0.7013585 -0.69223773
vn 0.17000937 -0.7013585 -0.69223773
vn 0.17000937 -0.7013585 -0.69223773
vn 0.17000929 -0.7013586 -0.69223773
vn 0.17000929 -0.7013586 -0.69223773
vn 0.17000929 -0.7013586 -0.69223773
vn 0.1700095 -0.7013586 -0.69223756
vn 0.1700095 -0.7013586 -0.69223756
vn 0.1700095 -0.7013586 -0.69223756
vn 0.17000937 0.7013585 0.69223773
vn 0.17000937 0.7013585 0.69223773
vn 0.17000937 0.7013585 0.69223773
vn 0.17000937 0.7013585 0.69223773
vn 0.17000937 0.7013585 0.69223773
vn 0.17000937 0.7013585 0.69223773
vn 0.17000929 0.7013586 0.69223773
vn 0.17000929 0.7013586 0.69223773
vn 0.17000929 0.7013586 0.69223773
vn 0.1700095 0.7013586 0.69223756
vn 0.1700095 0.7013586 0.69223756
vn 0.1700095 0.7013586 0.69223756
vn 0 -0.451909 0.89206403
vn 0 -0.451909 0.89206403
vn 0 -0.451909 0.89206403
vn 0 -0.42359406 0.90585214
vn 0 -0.42359406 0.90585214
vn 0 -0.42359406 0.90585214
vn 0 -0.39829072 0.9172593
vn 0 -0.39829072 0.9172593
vn 0 -0.39829072 0.9172593
vn 0 -0.3755976 0.9267829
vn 0 -0.3755976 0.9267829
vn 0 -0.3755976 0.9267829
vn 0 -0.5597296 0.82867545
vn 0 -0.5597296 0.82867545
vn 0 -0.5597296 0.82867545
vn 0 -0.55972975 0.82867527
vn 0 -0.55972975 0.82867527
vn 0 -0.55972975 0.82867527
vn 0 -0.8604411 0.5095499
vn 0 -0.8604411 0.5095499
vn 0 -0.8604411 0.5095499
vn 0 -0.31997037 0.9474275
vn 0 -0.31997037 0.9474275
vn 0 -0.31997037 0.9474275
vn 0 -0.28752393 0.9577734
vn 0 -0.28752393 0.9577734
vn 0 -0.28752393 0.9577734
vn 0 -0.2608282 0.96538526
vn 0 -0.2608282 0.96538526
vn 0 -0.2608282 0.96538526
vn 0 -0.31997028 0.9474276
vn 0 -0.31997028 0.9474276
vn 0 -0.31997028 0.9474276
vn 0 -0.24553978 0.9693865
vn 0 -0.24553978 0.9693865
vn 0 -0.24553978 0.9693865
vn 0.8846882 -0.33179158 -0.32747668
vn 0.8846882 -0.33179158 -0.32747668
vn 0.8846882 -0.33179158 -0.32747668
vn 0.8846883 -0.33179158 -0.32747668
vn 0.8846883 -0.33179158 -0.32747668
vn 0.8846883 -0.33179158 -0.32747668
vn 0.8846882 -0.33179167 -0.32747677
vn 0.8846882 -0.33179167 -0.32747677
vn 0.8846882 -0.33179167 -0.32747677
vn 0.8846882 0.33179158 0.32747668
vn 0.8846882 0.33179158 0.32747668
vn 0.8846882 0.33179158 0.32747668
vn 0.8846883 0.33179158 0.32747668
vn 0.8846883 0.33179158 0.32747668
vn 0.8846883 0.33179158 0.32747668
vn 0.8846882 0.33179167 0.32747677
vn 0.8846882 0.33179167 0.32747677
vn 0.8846882 0.33179167 0.32747677
vn 0 -0.49050987 0.87143564
vn 0 -0.49050987 0.87143564
vn 0 -0.49050987 0.87143564
vn 0 -0.45190927 0.8920639
vn 0 -0.45190927 0.8920639
vn 0 -0.45190927 0.8920639
vn 0 -0.45190904 0.8920641
vn 0 -0.45190904 0.8920641
vn 0 -0.45190904 0.8920641
vn 0 -0.27091306 0.96260375
vn 0 -0.27091306 0.96260375
vn 0 -0.27091306 0.96260375
vn 0 -0.31997016 0.9474276
vn 0 -0.31997016 0.9474276
vn 0 -0.31997016 0.9474276
vn 0 -0.31997016 0.9474276
vn 0 -0.31997016 0.9474276
vn 0 -0.31997016 0.9474276
vn 0 0 1
vn 0 0 1
vn 0 0 1
vn 0 0 1
vn 0 0 1
vn 0 0 1
vn 0 0 -1
vn 0 0 -1
vn 0 0 -1
vn 0 0 -1
vn 0 0 -1
vn 0 0 -1
vn 0 1 0
vn 0 1 0
vn 0 1 0
vn 0 1 0
vn 0 1 0
vn 0 1 0
vn 0 -1 0
vn 0 -1 0
vn 0 -1 0
vn 0 -1 0
vn 0 -1 0
vn 0 -1 0
vn 1 0 0
vn 1 0 0
vn 1 0 0
vn 1 0 0
vn 1 0 0
vn 1 0 0
vn -1 0 0
vn -1 0 0
vn -1 0 0
vn -1 0 0
vn -1 0 0
vn -1 0 0
vn 0 0 1
vn 0 0 1
vn 0 0 1
vn 0 0 1
vn 0 0 1
vn 0 0 1
vn 0 0 -1
vn 0 0 -1
vn 0 0 -1
vn 0 0 -1
vn 0 0 -1
vn 0 0 -1
vn 0 1 0
vn 0 1 0
vn 0 1 0
vn 0 1 0
vn 0 1 0
vn 0 1 0
vn 0 -1 0
vn 0 -1 0
vn 0 -1 0
vn 0 -1 0
vn 0 -1 0
vn 0 -1 0
vn 1 0 0
vn 1 0 0
vn 1 0 0
vn 1 0 0
vn 1 0 0
vn 1 0 0
vn -1 0 0
vn -1 0 0
vn -1 0 0
vn -1 0 0
vn -1 0 0
vn -1 0 0
f 1//1 2//2 3//3
f 4//4 5//5 6//6
f 7//7 8//8 9//9
f 10//10 11//11 12//12
f 13//13 14//14 15//15
f 16//16 17//17 18//18
f 19//19 20//20 21//21
f 22//22 23//23 24//24
f 25//25 26//26 27//27
f 28//28 29//29 30//30
f 31//31 32//32 33//33
f 34//34 35//35 36//36
f 37//37 38//38 39//39
f 40//40 41//41 42//42
f 43//43 44//44 45//45
f 46//46 47//47 48//48
f 49//49 50//50 51//51
f 52//52 53//53 54//54
f 55//55 56//56 57//57
f 58//58 59//59 60//60
f 61//61 62//62 63//63
f 64//64 65//65 66//66
f 67//67 68//68 69//69
f 70//70 71//71 72//72
f 73//73 74//74 75//75
f 76//76 77//77 78//78
f 79//79 80//80 81//81
f 82//82 83//83 84//84
f 85//85 86//86 87//87
f 88//88 89//89 90//90
f 91//91 92//92 93//93
f 94//94 95//95 96//96
f 97//97 98//98 99//99
f 100//100 101//101 102//102
f 103//103 104//104 105//105
f 106//106 107//107 108//108
f 109//109 110//110 111//111
f 112//112 113//113 114//114
f 115//115 116//116 117//117
f 118//118 119//119 120//120
f 121//121 122//122 123//123
f 124//124 125//125 126//126
f 127//127 128//128 129//129
f 130//130 131//131 132//132
f 133//133 134//134 135//135
f 136//136 137//137 138//138
f 139//139 140//140 141//141
f 142//142 143//143 144//144
f 145//145 146//146 147//147
f 148//148 149//149 150//150
f 151//151 152//152 153//153
f 154//154 155//155 156//156
f 157//157 158//158 159//159
f 160//160 161//161 162//162
f 163//163 164//164 165//165
f 166//166 167//167 168//168
f 169//169 170//170 171//171
f 172//172 173//173 174//174
f 175//175 176//176 177//177
f 178//178 179//179 180//180
f 181//181 182//182 183//183
f 184//184 185//185 186//186
f 187//187 188//188 189//189
f 190//190 191//191 192//192
f 193//193 194//194 195//195
f 196//196 197//197 198//198
f 199//199 200//200 201//201
f 202//202 203//203 204//204
f 205//205 206//206 207//207
f 208//208 209//209 210//210
f 211//211 212//212 213//213
f 214//214 215//215 216//216
f 217//217 218//218 219//219
f 220//220 221//221 222//222
f 223//223 224//224 225//225
f 226//226 227//227 228//228
f 229//229 230//230 231//231
f 232//232 233//233 234//234
f 235//235 236//236 237//237
f 238//238 239//239 240//240
f 241//241 242//242 243//243
f 244//244 245//245 246//246
f 247//247 248//248 249//249
f 250//250 251//251 252//252
f 253//253 254//254 255//255
f 256//256 257//257 258//258
f 259//259 260//260 261//261
f 262//262 263//263 264//264
f 265//265 266//266 267//267
f 268//268 269//269 270//270
f 271//271 272//272 273//273
f 274//274 275//275 276//276
f 277//277 278//278 279//279
f 280//280 281//281 282//282
f 283//283 284//284 285//285
f 286//286 287//287 288//288
f 289//289 290//290 291//291
f 292//292 293//293 294//294
f 295//295 296//296 297//297
f 298//298 299//299 300//300
f 301//301 302//302 303//303
f 304//304 305//305 306//306
f 307//307 308//308 309//309
f 310//310 311//311 312//312
f 313//313 314//314 315//315
f 316//316 317//317 318//318
f 319//319 320//320 321//321
f 322//322 323//323 324//324
f 325//325 326//326 327//327
f 328//328 329//329 330//330
f 331//331 332//332 333//333
f 334//334 335//335 336//336
f 337//337 338//338 339//339
f 340//340 341//341 342//342
f 343//343 344//344 345//345
f 346//346 347//347 348//348
f 349//349 350//350 351//351
f 352//352 353//353 354//354
f 355//355 356//356 357//357
f 358//358 359//359 360//360
f 361//361 362//362 363//363
