# Exported from SharpOpenGl procedural mesh
o miner_eva
# vertices 117
v -0.30497944 0.12790458 -1.6398976
v 0.30497944 0.12790458 -1.6398976
v 0 0.263118 -1.3335348
v -0.30497944 0.12790458 -1.6398976
v 0 0.263118 -1.3335348
v -0.42974377 0.12790458 -0.95909154
v 0.30497944 0.12790458 -1.6398976
v 0.42974377 0.12790458 -0.95909154
v 0 0.263118 -1.3335348
v -0.30497944 0 -1.6398976
v -0.42974377 0 -0.95909154
v 0.30497944 0 -1.6398976
v 0.30497944 0 -1.6398976
v -0.42974377 0 -0.95909154
v 0.42974377 0 -0.95909154
v -0.42974377 0.12790458 -0.95909154
v 0.42974377 0.12790458 -0.95909154
v 0 0.263118 -0.6527288
v -0.42974377 0.12790458 -0.95909154
v 0 0.263118 -0.6527288
v -0.5210776 0.12790458 -0.2782855
v 0.42974377 0.12790458 -0.95909154
v 0.5210776 0.12790458 -0.2782855
v 0 0.263118 -0.6527288
v -0.42974377 0 -0.95909154
v -0.5210776 0 -0.2782855
v 0.42974377 0 -0.95909154
v 0.42974377 0 -0.95909154
v -0.5210776 0 -0.2782855
v 0.5210776 0 -0.2782855
v -0.5210776 0.12790458 -0.2782855
v 0.5210776 0.12790458 -0.2782855
v 0 0.263118 0.028077155
v -0.5210776 0.12790458 -0.2782855
v 0 0.263118 0.028077155
v -0.5545081 0.12790458 0.40252042
v 0.5210776 0.12790458 -0.2782855
v 0.5545081 0.12790458 0.40252042
v 0 0.263118 0.028077155
v -0.5210776 0 -0.2782855
v -0.5545081 0 0.40252042
v 0.5210776 0 -0.2782855
v 0.5210776 0 -0.2782855
v -0.5545081 0 0.40252042
v 0.5545081 0 0.40252042
v -0.5545081 0.12790458 0.40252042
v 0.5545081 0.12790458 0.40252042
v 0 0.263118 0.70888317
v -0.5545081 0.12790458 0.40252042
v 0 0.263118 0.70888317
v -0.5210776 0.12790458 1.0833266
v 0.5545081 0.12790458 0.40252042
v 0.5210776 0.12790458 1.0833266
v 0 0.263118 0.70888317
v -0.5545081 0 0.40252042
v -0.5210776 0 1.0833266
v 0.5545081 0 0.40252042
v 0.5545081 0 0.40252042
v -0.5210776 0 1.0833266
v 0.5210776 0 1.0833266
v -0.5210776 0.12790458 1.0833266
v 0.5210776 0.12790458 1.0833266
v 0 0.263118 1.3896891
v -0.5210776 0.12790458 1.0833266
v 0 0.263118 1.3896891
v -0.39791095 0.12790458 1.7641323
v 0.5210776 0.12790458 1.0833266
v 0.39791095 0.12790458 1.7641323
v 0 0.263118 1.3896891
v -0.5210776 0 1.0833266
v -0.39791095 0 1.7641323
v 0.5210776 0 1.0833266
v 0.5210776 0 1.0833266
v -0.39791095 0 1.7641323
v 0.39791095 0 1.7641323
v -0.39791095 0.12790458 1.7641323
v 0.39791095 0.12790458 1.7641323
v 0 0.263118 2.0704951
v -0.39791095 0.12790458 1.7641323
v 0 0.263118 2.0704951
v -0 0.12790458 2.4449384
v 0.39791095 0.12790458 1.7641323
v 0 0.12790458 2.4449384
v 0 0.263118 2.0704951
v -0.39791095 0 1.7641323
v -0 0 2.4449384
v 0.39791095 0 1.7641323
v 0.39791095 0 1.7641323
v -0 0 2.4449384
v 0 0 2.4449384
v 0 0.2850445 -1.2994945
v -0.044360645 0.22657382 -1.3660355
v 0.044360645 0.22657382 -1.3660355
v 0 0.2850445 -0.6186886
v -0.044360645 0.22657382 -0.68522954
v 0.044360645 0.22657382 -0.68522954
v 0 0.2850445 0.06211734
v -0.044360645 0.22657382 -0.004423633
v 0.044360645 0.22657382 -0.004423633
v 0 0.2850445 0.74292326
v -0.044360645 0.22657382 0.6763823
v 0.044360645 0.22657382 0.6763823
v 0 0.2850445 1.4237294
v -0.044360645 0.22657382 1.3571885
v 0.044360645 0.22657382 1.3571885
v -0.23289339 0.10232366 -0.44724482
v 0.23289339 0.10232366 -0.44724482
v 0 0.15348549 -0.834857
v -0.26769355 0.040604625 -1.6074886
v -0.37094676 0 -1.8346457
v -0.16444033 0 -1.8346457
v 0.26769355 0.040604625 -1.6074886
v 0.16444033 0 -1.8346457
v 0.37094676 0 -1.8346457
v 0 0.19287196 0.20741789
v -0.06692339 0.071058095 0.15005499
v 0.06692339 0.071058095 0.15005499
vn 0 -0.914859 0.40377367
vn 0 -0.914859 0.40377367
vn 0 -0.914859 0.40377367
vn 0.3499291 -0.93457866 0.06412791
vn 0.3499291 -0.93457866 0.06412791
vn 0.3499291 -0.93457866 0.06412791
vn -0.3499291 -0.93457866 0.06412791
vn -0.3499291 -0.93457866 0.06412791
vn -0.3499291 -0.93457866 0.06412791
vn 0 1 -0
vn 0 1 -0
vn 0 1 -0
vn 0 1 -0
vn 0 1 -0
vn 0 1 -0
vn 0 -0.91485894 0.40377364
vn 0 -0.91485894 0.40377364
vn 0 -0.91485894 0.40377364
vn 0.2758276 -0.9604945 0.03700376
vn 0.2758276 -0.9604945 0.03700376
vn 0.2758276 -0.9604945 0.03700376
vn -0.2758276 -0.9604945 0.03700376
vn -0.2758276 -0.9604945 0.03700376
vn -0.2758276 -0.9604945 0.03700376
vn 0 1 -0
vn 0 1 -0
vn 0 1 -0
vn 0 0.99999994 -0
vn 0 0.99999994 -0
vn 0 0.99999994 -0
vn 0 -0.9148589 0.40377375
vn 0 -0.9148589 0.40377375
vn 0 -0.9148589 0.40377375
vn 0.24453136 -0.969567 0.0120075485
vn 0.24453136 -0.969567 0.0120075485
vn 0.24453136 -0.969567 0.0120075485
vn -0.24453136 -0.969567 0.0120075485
vn -0.24453136 -0.969567 0.0120075485
vn -0.24453136 -0.969567 0.0120075485
vn 0 0.99999994 -0
vn 0 0.99999994 -0
vn 0 0.99999994 -0
vn 0 1 -0
vn 0 1 -0
vn 0 1 -0
vn 0 -0.914859 0.40377367
vn 0 -0.914859 0.40377367
vn 0 -0.914859 0.40377367
vn 0.24310605 -0.96992624 -0.011937555
vn 0.24310605 -0.96992624 -0.011937555
vn 0.24310605 -0.96992624 -0.011937555
vn -0.24310605 -0.96992624 -0.011937555
vn -0.24310605 -0.96992624 -0.011937555
vn -0.24310605 -0.96992624 -0.011937555
vn 0 1 0
vn 0 1 0
vn 0 1 0
vn 0 0.99999994 0
vn 0 0.99999994 0
vn 0 0.99999994 0
vn 0 -0.9148588 0.40377393
vn 0 -0.9148588 0.40377393
vn 0 -0.9148588 0.40377393
vn 0.27850157 -0.95911324 -0.050384566
vn 0.27850157 -0.95911324 -0.050384566
vn 0.27850157 -0.95911324 -0.050384566
vn -0.27850157 -0.95911324 -0.050384566
vn -0.27850157 -0.95911324 -0.050384566
vn -0.27850157 -0.95911324 -0.050384566
vn 0 0.99999994 0
vn 0 0.99999994 0
vn 0 0.99999994 0
vn 0 1 0
vn 0 1 0
vn 0 1 0
vn 0 -0.91485906 0.40377352
vn 0 -0.91485906 0.40377352
vn 0 -0.91485906 0.40377352
vn 0.5024339 -0.81321913 -0.29365766
vn 0.5024339 -0.81321913 -0.29365766
vn 0.5024339 -0.81321913 -0.29365766
vn -0.5024339 -0.81321913 -0.29365766
vn -0.5024339 -0.81321913 -0.29365766
vn -0.5024339 -0.81321913 -0.29365766
vn 0 1 0
vn 0 1 0
vn 0 1 0
vn 0 1 0
vn 0 1 0
vn 0 1 0
vn 0 -0.7511913 0.66008455
vn 0 -0.7511913 0.66008455
vn 0 -0.7511913 0.66008455
vn 0 -0.7511913 0.66008455
vn 0 -0.7511913 0.66008455
vn 0 -0.7511913 0.66008455
vn 0 -0.7511913 0.66008437
vn 0 -0.7511913 0.66008437
vn 0 -0.7511913 0.66008437
vn 0 -0.7511913 0.66008455
vn 0 -0.7511913 0.66008455
vn 0 -0.7511913 0.66008455
vn 0 -0.7511913 0.66008455
vn 0 -0.7511913 0.66008455
vn 0 -0.7511913 0.66008455
vn -0 0.99140114 0.13085735
vn -0 0.99140114 0.13085735
vn -0 0.99140114 0.13085735
vn 0 -0.984397 0.17596221
vn 0 -0.984397 0.17596221
vn 0 -0.984397 0.17596221
vn 0 -0.984397 0.17596221
vn 0 -0.984397 0.17596221
vn 0 -0.984397 0.17596221
vn 0 -0.4260325 0.9047078
vn 0 -0.4260325 0.9047078
vn 0 -0.4260325 0.9047078
f 1//1 2//2 3//3
f 4//4 5//5 6//6
f 7//7 8//8 9//9
f 10//10 11//11 12//12
f 13//13 14//14 15//15
f 16//16 17//17 18//18
f 19//19 20//20 21//21
f 22//22 23//23 24//24
f 25//25 26//26 27//27
f 28//28 29//29 30//30
f 31//31 32//32 33//33
f 34//34 35//35 36//36
f 37//37 38//38 39//39
f 40//40 41//41 42//42
f 43//43 44//44 45//45
f 46//46 47//47 48//48
f 49//49 50//50 51//51
f 52//52 53//53 54//54
f 55//55 56//56 57//57
f 58//58 59//59 60//60
f 61//61 62//62 63//63
f 64//64 65//65 66//66
f 67//67 68//68 69//69
f 70//70 71//71 72//72
f 73//73 74//74 75//75
f 76//76 77//77 78//78
f 79//79 80//80 81//81
f 82//82 83//83 84//84
f 85//85 86//86 87//87
f 88//88 89//89 90//90
f 91//91 92//92 93//93
f 94//94 95//95 96//96
f 97//97 98//98 99//99
f 100//100 101//101 102//102
f 103//103 104//104 105//105
f 106//106 107//107 108//108
f 109//109 110//110 111//111
f 112//112 113//113 114//114
f 115//115 116//116 117//117
