# Exported from SharpOpenGl procedural mesh
o scout_light
# vertices 396
v -0.052962694 0 -0.04035026
v 0.052962694 0 -0.04035026
v 0.052962694 0.08896651 -0.04035026
v -0.052962694 0 -0.04035026
v 0.052962694 0.08896651 -0.04035026
v -0.052962694 0.08896651 -0.04035026
v -0.052962694 0 0.4035026
v 0.052962694 0.08896651 0.4035026
v 0.052962694 0 0.4035026
v -0.052962694 0 0.4035026
v -0.052962694 0.08896651 0.4035026
v 0.052962694 0.08896651 0.4035026
v -0.052962694 0 -0.04035026
v -0.052962694 0 0.4035026
v 0.052962694 0 0.4035026
v -0.052962694 0 -0.04035026
v 0.052962694 0 0.4035026
v 0.052962694 0 -0.04035026
v -0.052962694 0.08896651 -0.04035026
v 0.052962694 0.08896651 0.4035026
v -0.052962694 0.08896651 0.4035026
v -0.052962694 0.08896651 -0.04035026
v 0.052962694 0.08896651 -0.04035026
v 0.052962694 0.08896651 0.4035026
v -0.052962694 0 -0.04035026
v -0.052962694 0.08896651 -0.04035026
v -0.052962694 0.08896651 0.4035026
v -0.052962694 0 -0.04035026
v -0.052962694 0.08896651 0.4035026
v -0.052962694 0 0.4035026
v 0.052962694 0 -0.04035026
v 0.052962694 0 0.4035026
v 0.052962694 0.08896651 0.4035026
v 0.052962694 0 -0.04035026
v 0.052962694 0.08896651 0.4035026
v 0.052962694 0.08896651 -0.04035026
v -0.021185078 0.07849987 0.08070052
v 0.021185078 0.07849987 0.08070052
v 0.021185078 0.12036646 0.08070052
v -0.021185078 0.07849987 0.08070052
v 0.021185078 0.12036646 0.08070052
v -0.021185078 0.12036646 0.08070052
v -0.021185078 0.07849987 0.28245184
v 0.021185078 0.12036646 0.28245184
v 0.021185078 0.07849987 0.28245184
v -0.021185078 0.07849987 0.28245184
v -0.021185078 0.12036646 0.28245184
v 0.021185078 0.12036646 0.28245184
v -0.021185078 0.07849987 0.08070052
v -0.021185078 0.07849987 0.28245184
v 0.021185078 0.07849987 0.28245184
v -0.021185078 0.07849987 0.08070052
v 0.021185078 0.07849987 0.28245184
v 0.021185078 0.07849987 0.08070052
v -0.021185078 0.12036646 0.08070052
v 0.021185078 0.12036646 0.28245184
v -0.021185078 0.12036646 0.28245184
v -0.021185078 0.12036646 0.08070052
v 0.021185078 0.12036646 0.08070052
v 0.021185078 0.12036646 0.28245184
v -0.021185078 0.07849987 0.08070052
v -0.021185078 0.12036646 0.08070052
v -0.021185078 0.12036646 0.28245184
v -0.021185078 0.07849987 0.08070052
v -0.021185078 0.12036646 0.28245184
v -0.021185078 0.07849987 0.28245184
v 0.021185078 0.07849987 0.08070052
v 0.021185078 0.07849987 0.28245184
v 0.021185078 0.12036646 0.28245184
v 0.021185078 0.07849987 0.08070052
v 0.021185078 0.12036646 0.28245184
v 0.021185078 0.12036646 0.08070052
v -0.01765423 0.09943316 0.16140103
v 0.01765423 0.09943316 0.16140103
v 0.01765423 0.16223305 0.16140103
v -0.01765423 0.09943316 0.16140103
v 0.01765423 0.16223305 0.16140103
v -0.01765423 0.16223305 0.16140103
v -0.01765423 0.09943316 0.4035026
v 0.01765423 0.16223305 0.4035026
v 0.01765423 0.09943316 0.4035026
v -0.01765423 0.09943316 0.4035026
v -0.01765423 0.16223305 0.4035026
v 0.01765423 0.16223305 0.4035026
v -0.01765423 0.09943316 0.16140103
v -0.01765423 0.16223305 0.16140103
v -0.01765423 0.16223305 0.4035026
v -0.01765423 0.09943316 0.16140103
v -0.01765423 0.16223305 0.4035026
v -0.01765423 0.09943316 0.4035026
v 0.01765423 0.09943316 0.16140103
v 0.01765423 0.09943316 0.4035026
v 0.01765423 0.16223305 0.4035026
v 0.01765423 0.09943316 0.16140103
v 0.01765423 0.16223305 0.4035026
v 0.01765423 0.16223305 0.16140103
v -0.3266033 0.041866593 0.28245184
v -0.28776395 0.062799886 -0.06052539
v -0.04943185 0.041866593 0.04035026
v -0.04943185 0 0.04035026
v -0.28776395 0.062799886 -0.06052539
v -0.28776395 0 -0.06052539
v -0.04943185 0 0.04035026
v -0.28776395 0 -0.06052539
v -0.04943185 0 0.28245184
v 0.3266033 0.041866593 0.28245184
v 0.28776395 0.062799886 -0.06052539
v 0.04943185 0.041866593 0.04035026
v 0.04943185 0 0.04035026
v 0.28776395 0.062799886 -0.06052539
v 0.28776395 0 -0.06052539
v 0.04943185 0 0.04035026
v 0.28776395 0 -0.06052539
v 0.04943185 0 0.28245184
v -0.0070616924 0.18839967 0.08070052
v 0.0070616924 0.18839967 0.08070052
v 0.0070616924 0.25119954 0.08070052
v -0.0070616924 0.18839967 0.08070052
v 0.0070616924 0.25119954 0.08070052
v -0.0070616924 0.25119954 0.08070052
v -0.0070616924 0.18839967 0.28245184
v 0.0070616924 0.25119954 0.28245184
v 0.0070616924 0.18839967 0.28245184
v -0.0070616924 0.18839967 0.28245184
v -0.0070616924 0.25119954 0.28245184
v 0.0070616924 0.25119954 0.28245184
v -0.0070616924 0.18839967 0.08070052
v -0.0070616924 0.25119954 0.08070052
v -0.0070616924 0.25119954 0.28245184
v -0.0070616924 0.18839967 0.08070052
v -0.0070616924 0.25119954 0.28245184
v -0.0070616924 0.18839967 0.28245184
v 0.0070616924 0.18839967 0.08070052
v 0.0070616924 0.18839967 0.28245184
v 0.0070616924 0.25119954 0.28245184
v 0.0070616924 0.18839967 0.08070052
v 0.0070616924 0.25119954 0.28245184
v 0.0070616924 0.25119954 0.08070052
v -0.010592539 0.12559977 -0.08070052
v 0.010592539 0.12559977 -0.08070052
v 0.010592539 0.16746637 -0.08070052
v -0.010592539 0.12559977 -0.08070052
v 0.010592539 0.16746637 -0.08070052
v -0.010592539 0.16746637 -0.08070052
v -0.010592539 0.12559977 -0.016140105
v 0.010592539 0.16746637 -0.016140105
v 0.010592539 0.12559977 -0.016140105
v -0.010592539 0.12559977 -0.016140105
v -0.010592539 0.16746637 -0.016140105
v 0.010592539 0.16746637 -0.016140105
v -0.010592539 0.12559977 -0.08070052
v -0.010592539 0.12559977 -0.016140105
v 0.010592539 0.12559977 -0.016140105
v -0.010592539 0.12559977 -0.08070052
v 0.010592539 0.12559977 -0.016140105
v 0.010592539 0.12559977 -0.08070052
v -0.010592539 0.16746637 -0.08070052
v 0.010592539 0.16746637 -0.016140105
v -0.010592539 0.16746637 -0.016140105
v -0.010592539 0.16746637 -0.08070052
v 0.010592539 0.16746637 -0.08070052
v 0.010592539 0.16746637 -0.016140105
v -0.010592539 0.12559977 -0.08070052
v -0.010592539 0.16746637 -0.08070052
v -0.010592539 0.16746637 -0.016140105
v -0.010592539 0.12559977 -0.08070052
v -0.010592539 0.16746637 -0.016140105
v -0.010592539 0.12559977 -0.016140105
v 0.010592539 0.12559977 -0.08070052
v 0.010592539 0.12559977 -0.016140105
v 0.010592539 0.16746637 -0.016140105
v 0.010592539 0.12559977 -0.08070052
v 0.010592539 0.16746637 -0.016140105
v 0.010592539 0.16746637 -0.08070052
v -0.03530846 0.09943316 -0.100875646
v 0.03530846 0.09943316 -0.100875646
v 0.03530846 0.11513313 -0.100875646
v -0.03530846 0.09943316 -0.100875646
v 0.03530846 0.11513313 -0.100875646
v -0.03530846 0.11513313 -0.100875646
v -0.03530846 0.09943316 -0.060525388
v 0.03530846 0.11513313 -0.060525388
v 0.03530846 0.09943316 -0.060525388
v -0.03530846 0.09943316 -0.060525388
v -0.03530846 0.11513313 -0.060525388
v 0.03530846 0.11513313 -0.060525388
v -0.03530846 0.09943316 -0.100875646
v -0.03530846 0.09943316 -0.060525388
v 0.03530846 0.09943316 -0.060525388
v -0.03530846 0.09943316 -0.100875646
v 0.03530846 0.09943316 -0.060525388
v 0.03530846 0.09943316 -0.100875646
v -0.03530846 0.11513313 -0.100875646
v 0.03530846 0.11513313 -0.060525388
v -0.03530846 0.11513313 -0.060525388
v -0.03530846 0.11513313 -0.100875646
v 0.03530846 0.11513313 -0.100875646
v 0.03530846 0.11513313 -0.060525388
v -0.03530846 0.09943316 -0.100875646
v -0.03530846 0.11513313 -0.100875646
v -0.03530846 0.11513313 -0.060525388
v -0.03530846 0.09943316 -0.100875646
v -0.03530846 0.11513313 -0.060525388
v -0.03530846 0.09943316 -0.060525388
v 0.03530846 0.09943316 -0.100875646
v 0.03530846 0.09943316 -0.060525388
v 0.03530846 0.11513313 -0.060525388
v 0.03530846 0.09943316 -0.100875646
v 0.03530846 0.11513313 -0.060525388
v 0.03530846 0.11513313 -0.100875646
v -0.01765423 0 -0.2017513
v 0.01765423 0 -0.2017513
v 0.01765423 0.037418265 -0.2017513
v -0.01765423 0 -0.2017513
v 0.01765423 0.037418265 -0.2017513
v -0.01765423 0.037418265 -0.2017513
v -0.01765423 0 -0.06052539
v 0.01765423 0.037418265 -0.06052539
v 0.01765423 0 -0.06052539
v -0.01765423 0 -0.06052539
v -0.01765423 0.037418265 -0.06052539
v 0.01765423 0.037418265 -0.06052539
v -0.01765423 0 -0.2017513
v -0.01765423 0 -0.06052539
v 0.01765423 0 -0.06052539
v -0.01765423 0 -0.2017513
v 0.01765423 0 -0.06052539
v 0.01765423 0 -0.2017513
v -0.01765423 0.037418265 -0.2017513
v 0.01765423 0.037418265 -0.06052539
v -0.01765423 0.037418265 -0.06052539
v -0.01765423 0.037418265 -0.2017513
v 0.01765423 0.037418265 -0.2017513
v 0.01765423 0.037418265 -0.06052539
v -0.01765423 0 -0.2017513
v -0.01765423 0.037418265 -0.2017513
v -0.01765423 0.037418265 -0.06052539
v -0.01765423 0 -0.2017513
v -0.01765423 0.037418265 -0.06052539
v -0.01765423 0 -0.06052539
v 0.01765423 0 -0.2017513
v 0.01765423 0 -0.06052539
v 0.01765423 0.037418265 -0.06052539
v 0.01765423 0 -0.2017513
v 0.01765423 0.037418265 -0.06052539
v 0.01765423 0.037418265 -0.2017513
v -0.0091802 0.0011513312 -0.18157618
v 0.0091802 0.0011513312 -0.18157618
v 0.0091802 0.023026627 -0.18157618
v -0.0091802 0.0011513312 -0.18157618
v 0.0091802 0.023026627 -0.18157618
v -0.0091802 0.023026627 -0.18157618
v -0.0091802 0.0011513312 -0.08070052
v 0.0091802 0.023026627 -0.08070052
v 0.0091802 0.0011513312 -0.08070052
v -0.0091802 0.0011513312 -0.08070052
v -0.0091802 0.023026627 -0.08070052
v 0.0091802 0.023026627 -0.08070052
v -0.0091802 0.0011513312 -0.18157618
v -0.0091802 0.023026627 -0.18157618
v -0.0091802 0.023026627 -0.08070052
v -0.0091802 0.0011513312 -0.18157618
v -0.0091802 0.023026627 -0.08070052
v -0.0091802 0.0011513312 -0.08070052
v 0.0091802 0.0011513312 -0.18157618
v 0.0091802 0.0011513312 -0.08070052
v 0.0091802 0.023026627 -0.08070052
v 0.0091802 0.0011513312 -0.18157618
v 0.0091802 0.023026627 -0.08070052
v 0.0091802 0.023026627 -0.18157618
v -0.014123385 0.16223305 0.06052539
v 0.014123385 0.16223305 0.06052539
v 0.014123385 0.19363299 0.06052539
v -0.014123385 0.16223305 0.06052539
v 0.014123385 0.19363299 0.06052539
v -0.014123385 0.19363299 0.06052539
v -0.014123385 0.16223305 0.24210157
v 0.014123385 0.19363299 0.24210157
v 0.014123385 0.16223305 0.24210157
v -0.014123385 0.16223305 0.24210157
v -0.014123385 0.19363299 0.24210157
v 0.014123385 0.19363299 0.24210157
v -0.0988637 0.020933297 0.06052539
v -0.081209466 0.020933297 0.06052539
v -0.081209466 0.041866593 0.06052539
v -0.0988637 0.020933297 0.06052539
v -0.081209466 0.041866593 0.06052539
v -0.0988637 0.041866593 0.06052539
v -0.0988637 0.020933297 0.24210157
v -0.081209466 0.041866593 0.24210157
v -0.081209466 0.020933297 0.24210157
v -0.0988637 0.020933297 0.24210157
v -0.0988637 0.041866593 0.24210157
v -0.081209466 0.041866593 0.24210157
v 0.081209466 0.020933297 0.06052539
v 0.0988637 0.020933297 0.06052539
v 0.0988637 0.041866593 0.06052539
v 0.081209466 0.020933297 0.06052539
v 0.0988637 0.041866593 0.06052539
v 0.081209466 0.041866593 0.06052539
v 0.081209466 0.020933297 0.24210157
v 0.0988637 0.041866593 0.24210157
v 0.0988637 0.020933297 0.24210157
v 0.081209466 0.020933297 0.24210157
v 0.081209466 0.041866593 0.24210157
v 0.0988637 0.041866593 0.24210157
v -0.060024388 0.041866593 0.12105078
v -0.07061692 0.036633268 0.2017513
v -0.060024388 0.031399943 0.22192644
v 0.060024388 0.041866593 0.12105078
v 0.07061692 0.036633268 0.2017513
v 0.060024388 0.031399943 0.22192644
v -0.1812501 0.0462277 0.1681261
v -0.06590913 0.042529486 0.18426621
v -0.1812501 0.039293546 0.19233626
v -0.10592539 0.04971658 0.30262697
v -0.07414777 0.045739256 0.31876707
v -0.10592539 0.042259093 0.32683712
v 0.1812501 0.0462277 0.1681261
v 0.06590913 0.042529486 0.18426621
v 0.1812501 0.039293546 0.19233626
v 0.10592539 0.04971658 0.30262697
v 0.07414777 0.045739256 0.31876707
v 0.10592539 0.042259093 0.32683712
v -0.06708608 0.08896651 -0.12105078
v 0.06708608 0.08896651 -0.12105078
v 0 0.09943316 -0.108945705
v -0.045901 0.094199836 0.12105078
v 0.045901 0.094199836 0.12105078
v 0 0.105974816 0.13315587
v -0.024715925 0.09943316 0.36315235
v 0.024715925 0.09943316 0.36315235
v 0 0.11251647 0.37525743
v -0.038839307 0.094199836 -0.12105078
v 0.038839307 0.094199836 -0.12105078
v 0 0.10466649 -0.10491068
v -0.038839307 0.094199836 0.40350264
v 0.038839307 0.094199836 0.40350264
v 0 0.10466649 0.41964275
v -0.010592539 0.12559977 -0.08070052
v 0.010592539 0.12559977 -0.08070052
v 0 0.14653307 -0.06859544
v -0.010592539 0.15438306 0.121050775
v 0.010592539 0.15438306 0.121050775
v 0 0.17531636 0.13315585
v -0.010592539 0.18316634 0.32280207
v 0.010592539 0.18316634 0.32280207
v 0 0.20409964 0.33490714
v -0.038839307 0.007849986 -0.08070052
v 0.038839307 0.007849986 -0.08070052
v 0 0.044483256 -0.06456041
v -0.027964301 0.007849986 0.24210155
v 0.027964301 0.007849986 0.24210155
v 0 0.044483256 0.25824165
v -0.045901 0.062799886 0.04035026
v -0.040604733 0.073266536 0.060525388
v -0.045901 0.052333243 0.06456041
v -0.045901 0.062799886 0.20175129
v -0.040604733 0.073266536 0.22192642
v -0.045901 0.052333243 0.22596145
v 0.045901 0.062799886 0.04035026
v 0.040604733 0.073266536 0.060525388
v 0.045901 0.052333243 0.06456041
v 0.045901 0.062799886 0.20175129
v 0.040604733 0.073266536 0.22192642
v 0.045901 0.052333243 0.22596145
v -0.008827115 0.11513313 0.08070052
v 0.008827115 0.11513313 0.08070052
v 0 0.13344976 0.09078808
v -0.008827115 0.14129975 0.22192644
v 0.008827115 0.14129975 0.22192644
v 0 0.15961638 0.232014
v -0.008827115 0.16746637 0.36315235
v 0.008827115 0.16746637 0.36315235
v 0 0.19363299 0.37323993
v -0.014123385 0.020933297 -0.14122592
v -0.010592539 0.013083311 -0.16140105
v -0.014123385 0.007849986 -0.13113835
v 0.014123385 0.020933297 -0.14122592
v 0.010592539 0.013083311 -0.16140105
v 0.014123385 0.007849986 -0.13113835
v -0.28599855 0.047099918 0.08070052
v -0.28211462 0.039249934 0.12105078
v -0.28599855 0.031399943 0.10087565
v 0.28599855 0.047099918 0.08070052
v 0.28211462 0.039249934 0.12105078
v 0.28599855 0.031399943 0.10087565
v -0.0052962694 0.12036646 0.08070052
v 0.0052962694 0.12036646 0.08070052
v 0 0.14129975 0.09078808
v -0.0052962694 0.1308331 0.2622767
v 0.0052962694 0.1308331 0.2622767
v 0 0.15176642 0.27236426
v -0.0052962694 0.14129975 0.44385287
v 0.0052962694 0.14129975 0.44385287
v 0 0.16223305 0.45394045
vn 0 0 1
vn 0 0 1
vn 0 0 1
vn 0 0 1
vn 0 0 1
vn 0 0 1
vn 0 0 -1
vn 0 0 -1
vn 0 0 -1
vn 0 0 -1
vn 0 0 -1
vn 0 0 -1
vn 0 1 0
vn 0 1 0
vn 0 1 0
vn 0 1 0
vn 0 1 0
vn 0 1 0
vn 0 -1 0
vn 0 -1 0
vn 0 -1 0
vn 0 -1 0
vn 0 -1 0
vn 0 -1 0
vn 1 0 0
vn 1 0 0
vn 1 0 0
vn 1 0 0
vn 1 0 0
vn 1 0 0
vn -1 0 0
vn -1 0 0
vn -1 0 0
vn -1 0 0
vn -1 0 0
vn -1 0 0
vn 0 0 1
vn 0 0 1
vn 0 0 1
vn 0 0 1
vn 0 0 1
vn 0 0 1
vn 0 0 -1
vn 0 0 -1
vn 0 0 -1
vn 0 0 -1
vn 0 0 -1
vn 0 0 -1
vn 0 0.99999994 0
vn 0 0.99999994 0
vn 0 0.99999994 0
vn 0 0.99999994 0
vn 0 0.99999994 0
vn 0 0.99999994 0
vn 0 -0.99999994 0
vn 0 -0.99999994 0
vn 0 -0.99999994 0
vn 0 -0.99999994 0
vn 0 -0.99999994 0
vn 0 -0.99999994 0
vn 1 0 0
vn 1 0 0
vn 1 0 0
vn 1 0 0
vn 1 0 0
vn 1 0 0
vn -1 0 0
vn -1 0 0
vn -1 0 0
vn -1 0 0
vn -1 0 0
vn -1 0 0
vn 0 0 1
vn 0 0 1
vn 0 0 1
vn 0 0 1
vn 0 0 1
vn 0 0 1
vn 0 0 -1
vn 0 0 -1
vn 0 0 -1
vn 0 0 -1
vn 0 0 -1
vn 0 0 -1
vn 0.99999994 0 0
vn 0.99999994 0 0
vn 0.99999994 0 0
vn 0.99999994 0 0
vn 0.99999994 0 0
vn 0.99999994 0 0
vn -0.99999994 0 0
vn -0.99999994 0 0
vn -0.99999994 0 0
vn -0.99999994 0 0
vn -0.99999994 0 0
vn -0.99999994 0 0
vn -0.058925822 -0.99598026 -0.06746158
vn -0.058925822 -0.99598026 -0.06746158
vn -0.058925822 -0.99598026 -0.06746158
vn -0.38978034 0 0.92090786
vn -0.38978034 0 0.92090786
vn -0.38978034 0 0.92090786
vn 0 1 -0
vn 0 1 -0
vn 0 1 -0
vn -0.058925822 0.99598026 0.06746158
vn -0.058925822 0.99598026 0.06746158
vn -0.058925822 0.99598026 0.06746158
vn -0.38978034 0 -0.92090786
vn -0.38978034 0 -0.92090786
vn -0.38978034 0 -0.92090786
vn 0 -1 0
vn 0 -1 0
vn 0 -1 0
vn 0 0 1
vn 0 0 1
vn 0 0 1
vn 0 0 1
vn 0 0 1
vn 0 0 1
vn 0 0 -1
vn 0 0 -1
vn 0 0 -1
vn 0 0 -1
vn 0 0 -1
vn 0 0 -1
vn 1 0 0
vn 1 0 0
vn 1 0 0
vn 1 0 0
vn 1 0 0
vn 1 0 0
vn -1 0 0
vn -1 0 0
vn -1 0 0
vn -1 0 0
vn -1 0 0
vn -1 0 0
vn 0 0 0.99999994
vn 0 0 0.99999994
vn 0 0 0.99999994
vn 0 0 0.99999994
vn 0 0 0.99999994
vn 0 0 0.99999994
vn 0 0 -0.99999994
vn 0 0 -0.99999994
vn 0 0 -0.99999994
vn 0 0 -0.99999994
vn 0 0 -0.99999994
vn 0 0 -0.99999994
vn 0 1 0
vn 0 1 0
vn 0 1 0
vn 0 1 0
vn 0 1 0
vn 0 1 0
vn 0 -1 0
vn 0 -1 0
vn 0 -1 0
vn 0 -1 0
vn 0 -1 0
vn 0 -1 0
vn 1 0 0
vn 1 0 0
vn 1 0 0
vn 1 0 0
vn 1 0 0
vn 1 0 0
vn -1 0 0
vn -1 0 0
vn -1 0 0
vn -1 0 0
vn -1 0 0
vn -1 0 0
vn 0 0 1
vn 0 0 1
vn 0 0 1
vn 0 0 1
vn 0 0 1
vn 0 0 1
vn 0 0 -1
vn 0 0 -1
vn 0 0 -1
vn 0 0 -1
vn 0 0 -1
vn 0 0 -1
vn 0 1 0
vn 0 1 0
vn 0 1 0
vn 0 1 0
vn 0 1 0
vn 0 1 0
vn 0 -1 0
vn 0 -1 0
vn 0 -1 0
vn 0 -1 0
vn 0 -1 0
vn 0 -1 0
vn 1 0 0
vn 1 0 0
vn 1 0 0
vn 1 0 0
vn 1 0 0
vn 1 0 0
vn -1 0 0
vn -1 0 0
vn -1 0 0
vn -1 0 0
vn -1 0 0
vn -1 0 0
vn 0 0 1
vn 0 0 1
vn 0 0 1
vn 0 0 1
vn 0 0 1
vn 0 0 1
vn 0 0 -1
vn 0 0 -1
vn 0 0 -1
vn 0 0 -1
vn 0 0 -1
vn 0 0 -1
vn 0 1 0
vn 0 1 0
vn 0 1 0
vn 0 1 0
vn 0 1 0
vn 0 1 0
vn 0 -1 0
vn 0 -1 0
vn 0 -1 0
vn 0 -1 0
vn 0 -1 0
vn 0 -1 0
vn 1 0 0
vn 1 0 0
vn 1 0 0
vn 1 0 0
vn 1 0 0
vn 1 0 0
vn -1 0 0
vn -1 0 0
vn -1 0 0
vn -1 0 0
vn -1 0 0
vn -1 0 0
vn 0 0 1
vn 0 0 1
vn 0 0 1
vn 0 0 1
vn 0 0 1
vn 0 0 1
vn 0 0 -1
vn 0 0 -1
vn 0 0 -1
vn 0 0 -1
vn 0 0 -1
vn 0 0 -1
vn 1 0 0
vn 1 0 0
vn 1 0 0
vn 1 0 0
vn 1 0 0
vn 1 0 0
vn -1 0 0
vn -1 0 0
vn -1 0 0
vn -1 0 0
vn -1 0 0
vn -1 0 0
vn 0 0 1
vn 0 0 1
vn 0 0 1
vn 0 0 1
vn 0 0 1
vn 0 0 1
vn 0 0 -1
vn 0 0 -1
vn 0 0 -1
vn 0 0 -1
vn 0 0 -1
vn 0 0 -1
vn 0 0 1
vn 0 0 1
vn 0 0 1
vn 0 0 1
vn 0 0 1
vn 0 0 1
vn 0 0 -1
vn 0 0 -1
vn 0 0 -1
vn 0 0 -1
vn 0 0 -1
vn 0 0 -1
vn 0 0 1
vn 0 0 1
vn 0 0 1
vn 0 0 1
vn 0 0 1
vn 0 0 1
vn 0 0 -1
vn 0 0 -1
vn 0 0 -1
vn 0 0 -1
vn 0 0 -1
vn 0 0 -1
vn 0.2828144 0.9540528 0.09899056
vn 0.2828144 0.9540528 0.09899056
vn 0.2828144 0.9540528 0.09899056
vn 0.2828144 -0.9540528 -0.09899056
vn 0.2828144 -0.9540528 -0.09899056
vn 0.2828144 -0.9540528 -0.09899056
vn 0.0077057662 -0.9613171 -0.27533576
vn 0.0077057662 -0.9613171 -0.27533576
vn 0.0077057662 -0.9613171 -0.27533576
vn 0.029890457 -0.9552608 -0.29425028
vn 0.029890457 -0.9552608 -0.29425028
vn 0.029890457 -0.9552608 -0.29425028
vn 0.0077057662 0.9613171 0.27533576
vn 0.0077057662 0.9613171 0.27533576
vn 0.0077057662 0.9613171 0.27533576
vn 0.029890457 0.9552608 0.29425028
vn 0.029890457 0.9552608 0.29425028
vn 0.029890457 0.9552608 0.29425028
vn 0 -0.75644374 0.65405875
vn 0 -0.75644374 0.65405875
vn 0 -0.75644374 0.65405875
vn 0 -0.7168129 0.69726545
vn 0 -0.7168129 0.69726545
vn 0 -0.7168129 0.69726545
vn 0 -0.6791332 0.73401505
vn 0 -0.6791332 0.73401505
vn 0 -0.6791332 0.73401505
vn 0 -0.8390231 0.54409575
vn 0 -0.8390231 0.54409575
vn 0 -0.8390231 0.54409575
vn 0 -0.8390231 0.54409575
vn 0 -0.8390231 0.54409575
vn 0 -0.8390231 0.54409575
vn 0 -0.50059634 0.8656809
vn 0 -0.50059634 0.8656809
vn 0 -0.50059634 0.8656809
vn 0 -0.50059634 0.8656809
vn 0 -0.50059634 0.8656809
vn 0 -0.50059634 0.8656809
vn 0 -0.50059634 0.8656809
vn 0 -0.50059634 0.8656809
vn 0 -0.50059634 0.8656809
vn 0 -0.4031878 0.9151172
vn 0 -0.4031878 0.9151172
vn 0 -0.4031878 0.9151172
vn 0 -0.4031878 0.91511726
vn 0 -0.4031878 0.91511726
vn 0 -0.4031878 0.91511726
vn 0.95764244 -0.2643165 -0.11427049
vn 0.95764244 -0.2643165 -0.11427049
vn 0.95764244 -0.2643165 -0.11427049
vn 0.95764244 -0.2643165 -0.11427049
vn 0.95764244 -0.2643165 -0.11427049
vn 0.95764244 -0.2643165 -0.11427049
vn 0.95764244 0.2643165 0.11427049
vn 0.95764244 0.2643165 0.11427049
vn 0.95764244 0.2643165 0.11427049
vn 0.95764244 0.2643165 0.11427049
vn 0.95764244 0.2643165 0.11427049
vn 0.95764244 0.2643165 0.11427049
vn 0 -0.48241124 0.87594485
vn 0 -0.48241124 0.87594485
vn 0 -0.48241124 0.87594485
vn 0 -0.48241138 0.8759448
vn 0 -0.48241138 0.8759448
vn 0 -0.48241138 0.8759448
vn 0 -0.35970882 0.9330646
vn 0 -0.35970882 0.9330646
vn 0 -0.35970882 0.9330646
vn -0.98585725 -0.102329716 -0.13271901
vn -0.98585725 -0.102329716 -0.13271901
vn -0.98585725 -0.102329716 -0.13271901
vn -0.98585725 0.102329716 0.13271901
vn -0.98585725 0.102329716 0.13271901
vn -0.98585725 0.102329716 0.13271901
vn 0.9788547 -0.16143556 -0.12562662
vn 0.9788547 -0.16143556 -0.12562662
vn 0.9788547 -0.16143556 -0.12562662
vn 0.9788547 0.16143556 0.12562662
vn 0.9788547 0.16143556 0.12562662
vn 0.9788547 0.16143556 0.12562662
vn 0 -0.43411508 0.9008575
vn 0 -0.43411508 0.9008575
vn 0 -0.43411508 0.9008575
vn 0 -0.4341142 0.90085787
vn 0 -0.4341142 0.90085787
vn 0 -0.4341142 0.90085787
vn 0 -0.43411547 0.90085727
vn 0 -0.43411547 0.90085727
vn 0 -0.43411547 0.90085727
f 1//1 2//2 3//3
f 4//4 5//5 6//6
f 7//7 8//8 9//9
f 10//10 11//11 12//12
f 13//13 14//14 15//15
f 16//16 17//17 18//18
f 19//19 20//20 21//21
f 22//22 23//23 24//24
f 25//25 26//26 27//27
f 28//28 29//29 30//30
f 31//31 32//32 33//33
f 34//34 35//35 36//36
f 37//37 38//38 39//39
f 40//40 41//41 42//42
f 43//43 44//44 45//45
f 46//46 47//47 48//48
f 49//49 50//50 51//51
f 52//52 53//53 54//54
f 55//55 56//56 57//57
f 58//58 59//59 60//60
f 61//61 62//62 63//63
f 64//64 65//65 66//66
f 67//67 68//68 69//69
f 70//70 71//71 72//72
f 73//73 74//74 75//75
f 76//76 77//77 78//78
f 79//79 80//80 81//81
f 82//82 83//83 84//84
f 85//85 86//86 87//87
f 88//88 89//89 90//90
f 91//91 92//92 93//93
f 94//94 95//95 96//96
f 97//97 98//98 99//99
f 100//100 101//101 102//102
f 103//103 104//104 105//105
f 106//106 107//107 108//108
f 109//109 110//110 111//111
f 112//112 113//113 114//114
f 115//115 116//116 117//117
f 118//118 119//119 120//120
f 121//121 122//122 123//123
f 124//124 125//125 126//126
f 127//127 128//128 129//129
f 130//130 131//131 132//132
f 133//133 134//134 135//135
f 136//136 137//137 138//138
f 139//139 140//140 141//141
f 142//142 143//143 144//144
f 145//145 146//146 147//147
f 148//148 149//149 150//150
f 151//151 152//152 153//153
f 154//154 155//155 156//156
f 157//157 158//158 159//159
f 160//160 161//161 162//162
f 163//163 164//164 165//165
f 166//166 167//167 168//168
f 169//169 170//170 171//171
f 172//172 173//173 174//174
f 175//175 176//176 177//177
f 178//178 179//179 180//180
f 181//181 182//182 183//183
f 184//184 185//185 186//186
f 187//187 188//188 189//189
f 190//190 191//191 192//192
f 193//193 194//194 195//195
f 196//196 197//197 198//198
f 199//199 200//200 201//201
f 202//202 203//203 204//204
f 205//205 206//206 207//207
f 208//208 209//209 210//210
f 211//211 212//212 213//213
f 214//214 215//215 216//216
f 217//217 218//218 219//219
f 220//220 221//221 222//222
f 223//223 224//224 225//225
f 226//226 227//227 228//228
f 229//229 230//230 231//231
f 232//232 233//233 234//234
f 235//235 236//236 237//237
f 238//238 239//239 240//240
f 241//241 242//242 243//243
f 244//244 245//245 246//246
f 247//247 248//248 249//249
f 250//250 251//251 252//252
f 253//253 254//254 255//255
f 256//256 257//257 258//258
f 259//259 260//260 261//261
f 262//262 263//263 264//264
f 265//265 266//266 267//267
f 268//268 269//269 270//270
f 271//271 272//272 273//273
f 274//274 275//275 276//276
f 277//277 278//278 279//279
f 280//280 281//281 282//282
f 283//283 284//284 285//285
f 286//286 287//287 288//288
f 289//289 290//290 291//291
f 292//292 293//293 294//294
f 295//295 296//296 297//297
f 298//298 299//299 300//300
f 301//301 302//302 303//303
f 304//304 305//305 306//306
f 307//307 308//308 309//309
f 310//310 311//311 312//312
f 313//313 314//314 315//315
f 316//316 317//317 318//318
f 319//319 320//320 321//321
f 322//322 323//323 324//324
f 325//325 326//326 327//327
f 328//328 329//329 330//330
f 331//331 332//332 333//333
f 334//334 335//335 336//336
f 337//337 338//338 339//339
f 340//340 341//341 342//342
f 343//343 344//344 345//345
f 346//346 347//347 348//348
f 349//349 350//350 351//351
f 352//352 353//353 354//354
f 355//355 356//356 357//357
f 358//358 359//359 360//360
f 361//361 362//362 363//363
f 364//364 365//365 366//366
f 367//367 368//368 369//369
f 370//370 371//371 372//372
f 373//373 374//374 375//375
f 376//376 377//377 378//378
f 379//379 380//380 381//381
f 382//382 383//383 384//384
f 385//385 386//386 387//387
f 388//388 389//389 390//390
f 391//391 392//392 393//393
f 394//394 395//395 396//396
