# Exported from SharpOpenGl procedural mesh
o voidborn_interceptor_mk1_02
# vertices 24
v 0 0.15035926 1.469406
v -0.23502246 0 0
v 0.23502246 0 0
v -0.23502246 0 0
v 0.23502246 0 0
v 0 0 -1.3224654
v -0.073444515 0.066826336 -1.234301
v -0.29377806 0.18377243 -1.2007264
v -0.094008975 0.040095802 -1.2762693
v 0.098625496 0.066826336 -0.05877626
v 0.39450198 0.21050297 -0.025201622
v 0.12624063 0.040095802 -0.10074456
v -0.12380646 0.066826336 1.1167485
v -0.49522585 0.2372335 1.150323
v -0.15847227 0.040095802 1.0747801
v -0.29377806 0.026730534 -1.8220634
v -0.38442957 0 -2.0214968
v -0.20312655 0 -2.0214968
v 0 0.026730534 -1.8220634
v -0.09065151 0 -2.0214968
v 0.09065151 0 -2.0214968
v 0.29377806 0.026730534 -1.8220634
v 0.20312655 0 -2.0214968
v 0.38442957 0 -2.0214968
vn 0 -0.99480546 0.10179502
vn 0 -0.99480546 0.10179502
vn 0 -0.99480546 0.10179502
vn -0 1 0
vn -0 1 0
vn -0 1 0
vn -0.2959543 -0.73332244 0.61208606
vn -0.2959543 -0.73332244 0.61208606
vn -0.2959543 -0.73332244 0.61208606
vn -0.27612963 0.717957 -0.6389758
vn -0.27612963 0.717957 -0.6389758
vn -0.27612963 0.717957 -0.6389758
vn -0.26184627 -0.7013453 0.6629866
vn -0.26184627 -0.7013453 0.6629866
vn -0.26184627 -0.7013453 0.6629866
vn 0 -0.99113685 0.13284448
vn 0 -0.99113685 0.13284448
vn 0 -0.99113685 0.13284448
vn 0 -0.99113685 0.13284448
vn 0 -0.99113685 0.13284448
vn 0 -0.99113685 0.13284448
vn 0 -0.99113685 0.13284448
vn 0 -0.99113685 0.13284448
vn 0 -0.99113685 0.13284448
f 1//1 2//2 3//3
f 4//4 5//5 6//6
f 7//7 8//8 9//9
f 10//10 11//11 12//12
f 13//13 14//14 15//15
f 16//16 17//17 18//18
f 19//19 20//20 21//21
f 22//22 23//23 24//24
