# Exported from SharpOpenGl procedural mesh
o voidborn_cruiser_veteran_54
# vertices 27
v 0 0.71297884 3.8209777
v -1.0760286 0 0
v 1.0760286 0 0
v -1.0760286 0 0
v 1.0760286 0 0
v 0 0 -3.4388797
v -0.33625892 0.31687948 -3.2096212
v -1.3450357 0.8714186 -3.0559027
v -0.4304114 0.19012769 -3.4017692
v 0.4515477 0.31687948 -0.15283895
v 1.8061908 0.9981704 0.00087942183
v 0.57798105 0.19012769 -0.34498692
v -0.5668365 0.31687948 2.9039433
v -2.267346 1.1249223 3.0576618
v -0.72555065 0.19012769 2.7117953
v -1.6140428 0.1267518 -4.7380123
v -2.236602 0 -6.107643
v -0.9914834 0 -6.107643
v -0.5380143 0.1267518 -4.7380123
v -1.1605737 0 -6.107643
v 0.084545076 0 -6.107643
v 0.5380143 0.1267518 -4.7380123
v -0.084545076 0 -6.107643
v 1.1605737 0 -6.107643
v 1.6140428 0.1267518 -4.7380123
v 0.9914834 0 -6.107643
v 2.236602 0 -6.107643
vn 0 -0.9830328 0.18342991
vn 0 -0.9830328 0.18342991
vn 0 -0.9830328 0.18342991
vn -0 1 0
vn -0 1 0
vn -0 1 0
vn -0.30149648 -0.72130847 0.6235495
vn -0.30149648 -0.72130847 0.6235495
vn -0.30149648 -0.72130847 0.6235495
vn -0.28108063 0.70564204 -0.6504328
vn -0.28108063 0.70564204 -0.6504328
vn -0.28108063 0.70564204 -0.6504328
vn -0.26632065 -0.6887454 0.67431664
vn -0.26632065 -0.6887454 0.67431664
vn -0.26632065 -0.6887454 0.67431664
vn 0 -0.99574506 0.092150725
vn 0 -0.99574506 0.092150725
vn 0 -0.99574506 0.092150725
vn 0 -0.9957451 0.092150725
vn 0 -0.9957451 0.092150725
vn 0 -0.9957451 0.092150725
vn 0 -0.9957451 0.092150725
vn 0 -0.9957451 0.092150725
vn 0 -0.9957451 0.092150725
vn 0 -0.99574506 0.092150725
vn 0 -0.99574506 0.092150725
vn 0 -0.99574506 0.092150725
f 1//1 2//2 3//3
f 4//4 5//5 6//6
f 7//7 8//8 9//9
f 10//10 11//11 12//12
f 13//13 14//14 15//15
f 16//16 17//17 18//18
f 19//19 20//20 21//21
f 22//22 23//23 24//24
f 25//25 26//26 27//27
