# Exported from SharpOpenGl procedural mesh
o voidborn_gunship_strike_51
# vertices 27
v 0 0.55812615 2.2778757
v -1.0516976 0 0
v 1.0516976 0 0
v -1.0516976 0 0
v 1.0516976 0 0
v 0 0 -2.050088
v -0.3286555 0.24805608 -1.9134156
v -1.314622 0.68215424 -1.763173
v -0.42067903 0.14883365 -2.1012187
v 0.4413374 0.24805608 -0.09111512
v 1.7653496 0.78137666 0.059127405
v 0.56491184 0.14883365 -0.27891827
v -0.5540193 0.24805608 1.7311853
v -2.216077 0.88059914 1.8814279
v -0.70914465 0.14883365 1.5433822
v -1.5775464 0.09922243 -2.824566
v -2.095883 0 -3.9649067
v -1.0592097 0 -3.9649067
v -0.5258488 0.09922243 -2.824566
v -1.0441854 0 -3.9649067
v -0.007512152 0 -3.9649067
v 0.5258488 0.09922243 -2.824566
v 0.007512152 0 -3.9649067
v 1.0441854 0 -3.9649067
v 1.5775464 0.09922243 -2.824566
v 1.0592097 0 -3.9649067
v 2.095883 0 -3.9649067
vn 0 -0.9712698 0.23798098
vn 0 -0.9712698 0.23798098
vn 0 -0.9712698 0.23798098
vn -0 1 0
vn -0 1 0
vn -0 1 0
vn -0.265371 -0.7926903 0.54883546
vn -0.265371 -0.7926903 0.54883546
vn -0.265371 -0.7926903 0.54883546
vn -0.24860759 0.7792543 -0.5752888
vn -0.24860759 0.7792543 -0.5752888
vn -0.24860759 0.7792543 -0.5752888
vn -0.23677552 -0.764543 0.5995092
vn -0.23677552 -0.764543 0.5995092
vn -0.23677552 -0.764543 0.5995092
vn 0 -0.99623597 0.08668369
vn 0 -0.99623597 0.08668369
vn 0 -0.99623597 0.08668369
vn 0 -0.99623585 0.08668368
vn 0 -0.99623585 0.08668368
vn 0 -0.99623585 0.08668368
vn 0 -0.99623585 0.08668368
vn 0 -0.99623585 0.08668368
vn 0 -0.99623585 0.08668368
vn 0 -0.99623597 0.08668369
vn 0 -0.99623597 0.08668369
vn 0 -0.99623597 0.08668369
f 1//1 2//2 3//3
f 4//4 5//5 6//6
f 7//7 8//8 9//9
f 10//10 11//11 12//12
f 13//13 14//14 15//15
f 16//16 17//17 18//18
f 19//19 20//20 21//21
f 22//22 23//23 24//24
f 25//25 26//26 27//27
