# Exported from SharpOpenGl procedural mesh
o voidborn_destroyer_mk1_08
# vertices 21
v 0 0.404546 2.9607441
v -0.585005 0 0
v 0.585005 0 0
v -0.585005 0 0
v 0.585005 0 0
v 0 0 -2.6646698
v -0.18281405 0.17979823 -2.487025
v -0.7312562 0.49444512 -2.4034529
v -0.23400198 0.10787893 -2.5914903
v 0.24549316 0.17979823 -0.1184299
v 0.98197263 0.5663644 -0.034857765
v 0.31423125 0.10787893 -0.22289509
v -0.30817226 0.17979823 2.2501652
v -1.232689 0.6382837 2.3337374
v -0.39446047 0.10787893 2.1457
v -0.585005 0.071919285 -3.6713228
v -0.89840055 0 -4.360793
v -0.27160946 0 -4.360793
v 0.585005 0.071919285 -3.6713228
v 0.27160946 0 -4.360793
v 0.89840055 0 -4.360793
vn 0 -0.9907939 0.1353787
vn 0 -0.9907939 0.1353787
vn 0 -0.9907939 0.1353787
vn -0 1 0
vn -0 1 0
vn -0 1 0
vn -0.30813327 -0.7063528 0.6372751
vn -0.30813327 -0.7063528 0.6372751
vn -0.30813327 -0.7063528 0.6372751
vn -0.2869936 0.6903513 -0.6641157
vn -0.2869936 0.6903513 -0.6641157
vn -0.2869936 0.6903513 -0.6641157
vn -0.27165014 -0.6731443 0.6878103
vn -0.27165014 -0.6731443 0.6878103
vn -0.27165014 -0.6731443 0.6878103
vn 0 -0.9946036 0.10374802
vn 0 -0.9946036 0.10374802
vn 0 -0.9946036 0.10374802
vn 0 -0.9946036 0.10374802
vn 0 -0.9946036 0.10374802
vn 0 -0.9946036 0.10374802
f 1//1 2//2 3//3
f 4//4 5//5 6//6
f 7//7 8//8 9//9
f 10//10 11//11 12//12
f 13//13 14//14 15//15
f 16//16 17//17 18//18
f 19//19 20//20 21//21
