# Exported from SharpOpenGl procedural mesh
o voidborn_cruiser_veteran_54
# vertices 27
v 0 0.6238565 3.3433552
v -0.941525 0 0
v 0.941525 0 0
v -0.941525 0 0
v 0.941525 0 0
v 0 0 -3.0090196
v -0.29422656 0.27726957 -2.8084183
v -1.1769062 0.7624913 -2.6739147
v -0.37660998 0.16636173 -2.9765477
v 0.39510423 0.27726957 -0.13373423
v 1.5804169 0.8733991 0.00076933205
v 0.50573343 0.16636173 -0.30186367
v -0.49598187 0.27726957 2.5409498
v -1.9839275 0.984307 2.6754534
v -0.63485676 0.16636173 2.3728204
v -1.4122874 0.11090782 -4.1457605
v -1.9570267 0 -5.3441873
v -0.8675479 0 -5.3441873
v -0.4707625 0.11090782 -4.1457605
v -1.015502 0 -5.3441873
v 0.073976934 0 -5.3441873
v 0.4707625 0.11090782 -4.1457605
v -0.073976934 0 -5.3441873
v 1.015502 0 -5.3441873
v 1.4122874 0.11090782 -4.1457605
v 0.8675479 0 -5.3441873
v 1.9570267 0 -5.3441873
vn 0 -0.9830328 0.18342993
vn 0 -0.9830328 0.18342993
vn 0 -0.9830328 0.18342993
vn -0 1 0
vn -0 1 0
vn -0 1 0
vn -0.30149645 -0.72130835 0.6235497
vn -0.30149645 -0.72130835 0.6235497
vn -0.30149645 -0.72130835 0.6235497
vn -0.28108066 0.705642 -0.6504331
vn -0.28108066 0.705642 -0.6504331
vn -0.28108066 0.705642 -0.6504331
vn -0.2663207 -0.6887453 0.6743168
vn -0.2663207 -0.6887453 0.6743168
vn -0.2663207 -0.6887453 0.6743168
vn 0 -0.9957451 0.09215075
vn 0 -0.9957451 0.09215075
vn 0 -0.9957451 0.09215075
vn 0 -0.99574506 0.09215074
vn 0 -0.99574506 0.09215074
vn 0 -0.99574506 0.09215074
vn 0 -0.99574506 0.09215074
vn 0 -0.99574506 0.09215074
vn 0 -0.99574506 0.09215074
vn 0 -0.9957451 0.09215075
vn 0 -0.9957451 0.09215075
vn 0 -0.9957451 0.09215075
f 1//1 2//2 3//3
f 4//4 5//5 6//6
f 7//7 8//8 9//9
f 10//10 11//11 12//12
f 13//13 14//14 15//15
f 16//16 17//17 18//18
f 19//19 20//20 21//21
f 22//22 23//23 24//24
f 25//25 26//26 27//27
