# Exported from SharpOpenGl procedural mesh
o voidborn_carrier_mk1_10
# vertices 27
v 0 0.7573523 3.3203704
v -1.3682398 0 0
v 1.3682398 0 0
v -1.3682398 0 0
v 1.3682398 0 0
v 0 0 -2.9883332
v -0.4275749 0.33660102 -2.7891111
v -1.7102996 0.9256528 -2.5936484
v -0.54729587 0.20196061 -3.0334396
v 0.574172 0.33660102 -1.0182469
v 2.296688 1.0602932 -0.82278407
v 0.7349402 0.20196061 -1.2625754
v -0.7207691 0.33660102 0.75261736
v -2.8830764 1.1949337 0.9480802
v -0.9225844 0.20196061 0.50828886
v 0.4275749 0.33660102 2.5234814
v 1.7102996 0.9256528 2.718944
v 0.54729587 0.20196061 2.2791529
v -1.7102996 0.13464041 -4.1172595
v -2.5312433 0 -5.923336
v -0.8893558 0 -5.923336
v 0 0.13464041 -4.1172595
v -0.82094383 0 -5.923336
v 0.82094383 0 -5.923336
v 1.7102996 0.13464041 -4.1172595
v 0.8893558 0 -5.923336
v 2.5312433 0 -5.923336
vn 0 -0.97495985 0.22238123
vn 0 -0.97495985 0.22238123
vn 0 -0.97495985 0.22238123
vn -0 1 0
vn -0 1 0
vn -0 1 0
vn -0.27237523 -0.78005165 0.56332153
vn -0.27237523 -0.78005165 0.56332153
vn -0.27237523 -0.78005165 0.56332153
vn -0.25494027 0.76614153 -0.589943
vn -0.25494027 0.76614153 -0.589943
vn -0.25494027 0.76614153 -0.589943
vn -0.2425729 -0.7509537 0.614188
vn -0.2425729 -0.7509537 0.614188
vn -0.2425729 -0.7509537 0.614188
vn -0.27237523 0.78005165 -0.56332153
vn -0.27237523 0.78005165 -0.56332153
vn -0.27237523 0.78005165 -0.56332153
vn 0 -0.9972328 0.07434227
vn 0 -0.9972328 0.07434227
vn 0 -0.9972328 0.07434227
vn 0 -0.99723285 0.07434228
vn 0 -0.99723285 0.07434228
vn 0 -0.99723285 0.07434228
vn 0 -0.9972328 0.07434227
vn 0 -0.9972328 0.07434227
vn 0 -0.9972328 0.07434227
f 1//1 2//2 3//3
f 4//4 5//5 6//6
f 7//7 8//8 9//9
f 10//10 11//11 12//12
f 13//13 14//14 15//15
f 16//16 17//17 18//18
f 19//19 20//20 21//21
f 22//22 23//23 24//24
f 25//25 26//26 27//27
