# Exported from SharpOpenGl procedural mesh
o voidborn_destroyer_mk3_42
# vertices 21
v 0 0.45835748 3.718703
v -0.76376814 0 0
v 0.76376814 0 0
v -0.76376814 0 0
v 0.76376814 0 0
v 0 0 -3.3468328
v -0.23867755 0.20371445 -3.1237104
v -0.9547102 0.56021476 -3.0146008
v -0.30550724 0.12222866 -3.2600975
v 0.32050985 0.20371445 -0.14874816
v 1.2820394 0.6417005 -0.03963843
v 0.4102526 0.12222866 -0.28513533
v -0.40234214 0.20371445 2.826214
v -1.6093686 0.7231863 2.9353237
v -0.5149979 0.12222866 2.689827
v -0.76376814 0.08148578 -4.6111917
v -1.1729296 0 -5.511347
v -0.35460666 0 -5.511347
v 0.76376814 0.08148578 -4.6111917
v 0.35460666 0 -5.511347
v 1.1729296 0 -5.511347
vn 0 -0.99248934 0.12233161
vn 0 -0.99248934 0.12233161
vn 0 -0.99248934 0.12233161
vn -0 1 0
vn -0 1 0
vn -0 1 0
vn -0.2856579 -0.7545619 0.59079266
vn -0.2856579 -0.7545619 0.59079266
vn -0.2856579 -0.7545619 0.59079266
vn -0.26690182 0.73980117 -0.6176225
vn -0.26690182 0.73980117 -0.6176225
vn -0.26690182 0.73980117 -0.6176225
vn -0.2534768 -0.72377247 0.6417966
vn -0.2534768 -0.72377247 0.6417966
vn -0.2534768 -0.72377247 0.6417966
vn 0 -0.9959277 0.09015551
vn 0 -0.9959277 0.09015551
vn 0 -0.9959277 0.09015551
vn 0 -0.9959277 0.09015551
vn 0 -0.9959277 0.09015551
vn 0 -0.9959277 0.09015551
f 1//1 2//2 3//3
f 4//4 5//5 6//6
f 7//7 8//8 9//9
f 10//10 11//11 12//12
f 13//13 14//14 15//15
f 16//16 17//17 18//18
f 19//19 20//20 21//21
