# Exported from SharpOpenGl procedural mesh
o voidborn_frigate_mk1_05
# vertices 24
v 0 0.33603615 1.8692203
v -0.4579554 0 0
v 0.4579554 0 0
v -0.4579554 0 0
v 0.4579554 0 0
v 0 0 -1.6822982
v -0.14311105 0.1493494 -1.570145
v -0.5724442 0.41071087 -1.5047228
v -0.18318214 0.08960964 -1.6519227
v 0.1921777 0.1493494 -0.0747689
v 0.7687108 0.4704506 -0.009346709
v 0.24598745 0.08960964 -0.15654665
v -0.24124435 0.1493494 1.4206072
v -0.9649774 0.5301904 1.4860294
v -0.30879277 0.08960964 1.3388295
v -0.5724442 0.05973976 -2.3178332
v -0.78833747 0 -2.7927983
v -0.35655093 0 -2.7927983
v 0 0.05973976 -2.3178332
v -0.21589325 0 -2.7927983
v 0.21589325 0 -2.7927983
v 0.5724442 0.05973976 -2.3178332
v 0.35655093 0 -2.7927983
v 0.78833747 0 -2.7927983
vn 0 -0.9842222 0.176937
vn 0 -0.9842222 0.176937
vn 0 -0.9842222 0.176937
vn -0 1 0
vn -0 1 0
vn -0 1 0
vn -0.31710747 -0.6850704 0.6558364
vn -0.31710747 -0.6850704 0.6558364
vn -0.31710747 -0.6850704 0.6558364
vn -0.2949622 0.6686669 -0.68255544
vn -0.2949622 0.6686669 -0.68255544
vn -0.2949622 0.6686669 -0.68255544
vn -0.27880636 -0.6510982 0.7059307
vn -0.27880636 -0.6510982 0.7059307
vn -0.27880636 -0.6510982 0.7059307
vn 0 -0.9921827 0.12479392
vn 0 -0.9921827 0.12479392
vn 0 -0.9921827 0.12479392
vn 0 -0.9921827 0.124793924
vn 0 -0.9921827 0.124793924
vn 0 -0.9921827 0.124793924
vn 0 -0.9921827 0.12479392
vn 0 -0.9921827 0.12479392
vn 0 -0.9921827 0.12479392
f 1//1 2//2 3//3
f 4//4 5//5 6//6
f 7//7 8//8 9//9
f 10//10 11//11 12//12
f 13//13 14//14 15//15
f 16//16 17//17 18//18
f 19//19 20//20 21//21
f 22//22 23//23 24//24
