# Exported from SharpOpenGl procedural mesh
o voidborn_freighter_mk1_14
# vertices 33
v 0 0.64709526 3.128542
v -1.3395994 0 0
v 1.3395994 0 0
v -1.3395994 0 0
v 1.3395994 0 0
v 0 0 -2.8156877
v -0.41862482 0.2875979 -2.6279752
v -1.6744993 0.7908942 -2.4366038
v -0.53583974 0.17255874 -2.8671894
v 0.56215334 0.2875979 -0.12514186
v 2.2486134 0.9059334 0.06622948
v 0.7195563 0.17255874 -0.36435604
v -0.7056818 0.2875979 2.3776915
v -2.8227272 1.0209726 2.569063
v -0.9032727 0.17255874 2.1384773
v -1.6744993 0.115039155 -3.8793921
v -2.4208474 0 -5.5213585
v -0.9281511 0 -5.5213585
v 0 0.115039155 -3.8793921
v -0.7463482 0 -5.5213585
v 0.7463482 0 -5.5213585
v 1.6744993 0.115039155 -3.8793921
v 0.9281511 0 -5.5213585
v 2.4208474 0 -5.5213585
v -1.0525424 0.546436 -0.3128542
v -1.3874424 0.20131853 -0.5999112
v -0.7176426 0.20131853 -0.5999112
v 0 0.546436 -0.6477541
v -0.33489984 0.20131853 -0.9348111
v 0.33489984 0.20131853 -0.9348111
v 1.0525424 0.546436 -0.98265386
v 0.7176426 0.20131853 -1.2697109
v 1.3874424 0.20131853 -1.2697109
vn 0 -0.9792722 0.20254879
vn 0 -0.9792722 0.20254879
vn 0 -0.9792722 0.20254879
vn -0 1 0
vn -0 1 0
vn -0 1 0
vn -0.24963439 -0.81922406 0.5162893
vn -0.24963439 -0.81922406 0.5162893
vn -0.24963439 -0.81922406 0.5162893
vn -0.23431867 0.8069004 -0.54222363
vn -0.23431867 0.8069004 -0.54222363
vn -0.23431867 0.8069004 -0.54222363
vn -0.22363406 -0.79332536 0.56623536
vn -0.22363406 -0.79332536 0.56623536
vn -0.22363406 -0.79332536 0.56623536
vn 0 -0.99755466 0.0698905
vn 0 -0.99755466 0.0698905
vn 0 -0.99755466 0.0698905
vn 0 -0.99755466 0.0698905
vn 0 -0.99755466 0.0698905
vn 0 -0.99755466 0.0698905
vn 0 -0.99755466 0.0698905
vn 0 -0.99755466 0.0698905
vn 0 -0.99755466 0.0698905
vn 0 -0.63947296 0.7688135
vn 0 -0.63947296 0.7688135
vn 0 -0.63947296 0.7688135
vn 0 -0.63947296 0.76881343
vn 0 -0.63947296 0.76881343
vn 0 -0.63947296 0.76881343
vn 0 -0.639473 0.7688135
vn 0 -0.639473 0.7688135
vn 0 -0.639473 0.7688135
f 1//1 2//2 3//3
f 4//4 5//5 6//6
f 7//7 8//8 9//9
f 10//10 11//11 12//12
f 13//13 14//14 15//15
f 16//16 17//17 18//18
f 19//19 20//20 21//21
f 22//22 23//23 24//24
f 25//25 26//26 27//27
f 28//28 29//29 30//30
f 31//31 32//32 33//33
