# Exported from SharpOpenGl procedural mesh
o voidborn_corvette_mk2_21
# vertices 24
v 0 0.2644026 1.6514344
v -0.41457912 0 0
v 0.41457912 0 0
v -0.41457912 0 0
v 0.41457912 0 0
v 0 0 -1.4862909
v -0.12955597 0.11751228 -1.3872049
v -0.5182239 0.32315877 -1.3279793
v -0.16583164 0.07050736 -1.4612368
v 0.17397517 0.11751228 -0.06605744
v 0.6959007 0.37016365 -0.0068318583
v 0.22268821 0.07050736 -0.14008942
v -0.21839434 0.11751228 1.25509
v -0.87357736 0.4171686 1.3143156
v -0.27954474 0.07050736 1.181058
v -0.5182239 0.04700491 -2.0477786
v -0.6959006 0 -2.4386675
v -0.34054714 0 -2.4386675
v 0 0.04700491 -2.0477786
v -0.17767675 0 -2.4386675
v 0.17767675 0 -2.4386675
v 0.5182239 0.04700491 -2.0477786
v 0.34054714 0 -2.4386675
v 0.6959006 0 -2.4386675
vn 0 -0.9874245 0.15809141
vn 0 -0.9874245 0.15809141
vn 0 -0.9874245 0.15809141
vn -0 0.99999994 0
vn -0 0.99999994 0
vn -0 0.99999994 0
vn -0.29545423 -0.7343844 0.61105347
vn -0.29545423 -0.7343844 0.61105347
vn -0.29545423 -0.7343844 0.61105347
vn -0.27568266 0.71904737 -0.63794196
vn -0.27568266 0.71904737 -0.63794196
vn -0.27568266 0.71904737 -0.63794196
vn -0.26144156 -0.70246214 0.6619632
vn -0.26144156 -0.70246214 0.6619632
vn -0.26144156 -0.70246214 0.6619632
vn 0 -0.99284726 0.119391195
vn 0 -0.99284726 0.119391195
vn 0 -0.99284726 0.119391195
vn 0 -0.9928472 0.11939119
vn 0 -0.9928472 0.11939119
vn 0 -0.9928472 0.11939119
vn 0 -0.99284726 0.119391195
vn 0 -0.99284726 0.119391195
vn 0 -0.99284726 0.119391195
f 1//1 2//2 3//3
f 4//4 5//5 6//6
f 7//7 8//8 9//9
f 10//10 11//11 12//12
f 13//13 14//14 15//15
f 16//16 17//17 18//18
f 19//19 20//20 21//21
f 22//22 23//23 24//24
