# Exported from SharpOpenGl procedural mesh
o voidborn_bomber_patrol_52
# vertices 381
v -0.70713025 0.13049781 -1.8188325
v 0.70713025 0.13049781 -1.8188325
v 0 0.40780568 -1.5801108
v -0.70713025 0.13049781 -1.8188325
v 0 0.40780568 -1.5801108
v -0.50871193 0.19292201 -1.2883397
v 0.70713025 0.13049781 -1.8188325
v 1.2964253 0.19292201 -1.2883397
v 0.39385673 0.6028813 -1.5801108
v -0.70713025 0 -1.8188325
v -0.50871193 0 -1.2883397
v 0.70713025 0 -1.8188325
v 0.70713025 0 -1.8188325
v -0.50871193 0 -1.2883397
v 1.2964253 0 -1.2883397
v -0.50871193 0.19292201 -1.2883397
v 1.2964253 0.19292201 -1.2883397
v 0.39385673 0.6028813 -1.049618
v -0.50871193 0.19292201 -1.2883397
v 0.39385673 0.6028813 -1.049618
v -0.36639553 0.24584268 -0.75784695
v 1.2964253 0.19292201 -1.2883397
v 1.7701113 0.24584268 -0.75784695
v 0.70185786 0.7682584 -1.049618
v -0.50871193 0 -1.2883397
v -0.36639553 0 -0.75784695
v 1.2964253 0 -1.2883397
v 1.2964253 0 -1.2883397
v -0.36639553 0 -0.75784695
v 1.7701113 0 -0.75784695
v -0.36639553 0.24584268 -0.75784695
v 1.7701113 0.24584268 -0.75784695
v 0.70185786 0.7682584 -0.5191252
v -0.36639553 0.24584268 -0.75784695
v 0.70185786 0.7682584 -0.5191252
v -0.32209718 0.28120315 -0.22735417
v 1.7701113 0.24584268 -0.75784695
v 2.0358233 0.28120315 -0.22735417
v 0.856863 0.87875986 -0.5191252
v -0.36639553 0 -0.75784695
v -0.32209718 0 -0.22735417
v 1.7701113 0 -0.75784695
v 1.7701113 0 -0.75784695
v -0.32209718 0 -0.22735417
v 2.0358233 0 -0.22735417
v -0.32209718 0.28120315 -0.22735417
v 2.0358233 0.28120315 -0.22735417
v 0.856863 0.87875986 0.011367574
v -0.32209718 0.28120315 -0.22735417
v 0.856863 0.87875986 0.011367574
v -0.39275205 0.29362008 0.3031386
v 2.0358233 0.28120315 -0.22735417
v 2.0429187 0.29362008 0.3031386
v 0.82508326 0.9175628 0.011367574
v -0.32209718 0 -0.22735417
v -0.39275205 0 0.3031386
v 2.0358233 0 -0.22735417
v 2.0358233 0 -0.22735417
v -0.39275205 0 0.3031386
v 2.0429187 0 0.3031386
v -0.39275205 0.29362008 0.3031386
v 2.0429187 0.29362008 0.3031386
v 0.82508326 0.9175628 0.54186034
v -0.39275205 0.29362008 0.3031386
v 0.82508326 0.9175628 0.54186034
v -0.56551415 0.28120315 0.8336314
v 2.0429187 0.29362008 0.3031386
v 1.7924063 0.28120315 0.8336314
v 0.61344606 0.87875986 0.54186034
v -0.39275205 0 0.3031386
v -0.56551415 0 0.8336314
v 2.0429187 0 0.3031386
v 2.0429187 0 0.3031386
v -0.56551415 0 0.8336314
v 1.7924063 0 0.8336314
v -0.56551415 0.28120315 0.8336314
v 1.7924063 0.28120315 0.8336314
v 0.61344606 0.87875986 1.0723531
v -0.56551415 0.28120315 0.8336314
v 0.61344606 0.87875986 1.0723531
v -0.80016774 0.24584268 1.3641242
v 1.7924063 0.28120315 0.8336314
v 1.336339 0.24584268 1.3641242
v 0.26808566 0.7682584 1.0723531
v -0.56551415 0 0.8336314
v -0.80016774 0 1.3641242
v 1.7924063 0 0.8336314
v 1.7924063 0 0.8336314
v -0.80016774 0 1.3641242
v 1.336339 0 1.3641242
v -0.80016774 0.24584268 1.3641242
v 1.336339 0.24584268 1.3641242
v 0.26808566 0.7682584 1.6028459
v -0.80016774 0.24584268 1.3641242
v 0.26808566 0.7682584 1.6028459
v -1.1275667 0.19292198 1.894617
v 1.336339 0.24584268 1.3641242
v 0.8561385 0.19292198 1.894617
v -0.1357141 0.6028812 1.6028459
v -0.80016774 0 1.3641242
v -1.1275667 0 1.894617
v 1.336339 0 1.3641242
v 1.336339 0 1.3641242
v -1.1275667 0 1.894617
v 0.8561385 0 1.894617
v -1.1275667 0.19292198 1.894617
v 0.8561385 0.19292198 1.894617
v -0.1357141 0.6028812 2.1333387
v -1.1275667 0.19292198 1.894617
v -0.1357141 0.6028812 2.1333387
v -1.21706 0.1304978 2.4251099
v 0.8561385 0.19292198 1.894617
v 0.19720042 0.1304978 2.4251099
v -0.5099298 0.40780565 2.1333387
v -1.1275667 0 1.894617
v -1.21706 0 2.4251099
v 0.8561385 0 1.894617
v 0.8561385 0 1.894617
v -1.21706 0 2.4251099
v 0.19720042 0 2.4251099
v -0.18187505 0.15659738 0.105088085
v 0.18187505 0.15659738 0.105088085
v 0 0.4893668 0.2311938
v -0.18187505 0.15659738 0.105088085
v 0 0.4893668 0.2311938
v -0.1667188 0.19357176 0.38532302
v 0.18187505 0.15659738 0.105088085
v 0.1667188 0.19357176 0.38532302
v 0 0.60491174 0.2311938
v -0.18187505 0 0.105088085
v -0.1667188 0 0.38532302
v 0.18187505 0 0.105088085
v 0.18187505 0 0.105088085
v -0.1667188 0 0.38532302
v 0.1667188 0 0.38532302
v -0.1667188 0.19357176 0.38532302
v 0.1667188 0.19357176 0.38532302
v 0 0.60491174 0.5114287
v -0.1667188 0.19357176 0.38532302
v 0 0.60491174 0.5114287
v -0.15156254 0.23054613 0.665558
v 0.1667188 0.19357176 0.38532302
v 0.15156254 0.23054613 0.665558
v 0 0.72045666 0.5114287
v -0.1667188 0 0.38532302
v -0.15156254 0 0.665558
v 0.1667188 0 0.38532302
v 0.1667188 0 0.38532302
v -0.15156254 0 0.665558
v 0.15156254 0 0.665558
v -0.15156254 0.23054613 0.665558
v 0.15156254 0.23054613 0.665558
v 0 0.72045666 0.7916637
v -0.15156254 0.23054613 0.665558
v 0 0.72045666 0.7916637
v -0.13640629 0.26752052 0.9457929
v 0.15156254 0.23054613 0.665558
v 0.13640629 0.26752052 0.9457929
v 0 0.83600163 0.7916637
v -0.15156254 0 0.665558
v -0.13640629 0 0.9457929
v 0.15156254 0 0.665558
v 0.15156254 0 0.665558
v -0.13640629 0 0.9457929
v 0.13640629 0 0.9457929
v -0.7456878 0.18149258 -1.6167399
v -0.7456878 0.7259703 -1.6167399
v 1.4913754 0.27832735 -1.6167399
v 0.07939547 0.18149258 0.0673641
v 0.07939547 0.7259703 0.0673641
v 2.3164587 0.27832735 0.0673641
v -1.2556176 0.18149258 1.7514681
v -1.2556176 0.7259703 1.7514681
v 0.98144567 0.27832735 1.7514681
v -0.47287512 0 -0.06736416
v 0.47287512 0 -0.06736416
v 0 0.10195142 0.20209248
v -0.058200013 0.2650737 -0.20209248
v -0.072750024 0.19085306 -0.256655
v 0 0.22531264 -0.20209248
v 0.07857002 0.2650737 0.7410058
v 0.09821253 0.19085306 0.68644327
v 0 0.22531264 0.7410058
v -0.11712754 0.16312227 0.018861966
v 0.06474751 0.16312227 0.018861966
v -0.026190009 0.5097571 0.024520554
v -0.11712754 0.18704687 0.031436607
v 0.06474751 0.18704687 0.031436607
v -0.026190009 0.5845215 0.037095197
v -0.11712754 0.21097146 0.04401125
v 0.06474751 0.21097146 0.04401125
v -0.026190009 0.65928584 0.04966984
v -0.06474751 0.16312227 0.018861966
v 0.11712754 0.16312227 0.018861966
v 0.026190009 0.5097571 0.024520554
v -0.06474751 0.18704687 0.031436607
v 0.11712754 0.18704687 0.031436607
v 0.026190009 0.5845215 0.037095197
v -0.06474751 0.21097146 0.04401125
v 0.11712754 0.21097146 0.04401125
v 0.026190009 0.65928584 0.04966984
v -0.18187505 0.22429313 2.1556532
v 0.18187505 0.22429313 2.1556532
v 0 0.36702514 2.3577456
v -0.29100007 0 -1.6167399
v 0.29100007 0 -1.6167399
v 0.29100007 0.142732 -1.6167399
v -0.29100007 0 -1.6167399
v 0.29100007 0.142732 -1.6167399
v -0.29100007 0.142732 -1.6167399
v -0.29100007 0 -1.2799191
v 0.29100007 0.142732 -1.2799191
v 0.29100007 0 -1.2799191
v -0.29100007 0 -1.2799191
v -0.29100007 0.142732 -1.2799191
v 0.29100007 0.142732 -1.2799191
v -0.29100007 0 -1.6167399
v -0.29100007 0 -1.2799191
v 0.29100007 0 -1.2799191
v -0.29100007 0 -1.6167399
v 0.29100007 0 -1.2799191
v 0.29100007 0 -1.6167399
v -0.29100007 0.142732 -1.6167399
v 0.29100007 0.142732 -1.2799191
v -0.29100007 0.142732 -1.2799191
v -0.29100007 0.142732 -1.6167399
v 0.29100007 0.142732 -1.6167399
v 0.29100007 0.142732 -1.2799191
v -0.29100007 0 -1.6167399
v -0.29100007 0.142732 -1.6167399
v -0.29100007 0.142732 -1.2799191
v -0.29100007 0 -1.6167399
v -0.29100007 0.142732 -1.2799191
v -0.29100007 0 -1.2799191
v 0.29100007 0 -1.6167399
v 0.29100007 0 -1.2799191
v 0.29100007 0.142732 -1.2799191
v 0.29100007 0 -1.6167399
v 0.29100007 0.142732 -1.2799191
v 0.29100007 0.142732 -1.6167399
v -0.109125026 0.44858626 0.26945665
v 0.109125026 0.44858626 0.26945665
v 0 0.5097571 0.40418497
v -0.62256956 0.42186797 -0.1320866
v 0.62256956 0.42186797 -0.1320866
v 0.05 0.4921793 -0.11227362
v -0.2184028 0.45702362 0.9246062
v 0.2184028 0.45702362 0.9246062
v 0.05 0.527335 0.9444192
v -0.45520848 0.04394458 0.1320866
v 0.5552085 0.04394458 0.1320866
v 0.05 0.09667807 0.15850392
v -0.37942716 0.04394458 0.3302165
v 0.4794272 0.04394458 0.3302165
v 0.05 0.09667807 0.3566338
v -0.7583335 0.03515566 -0.19812989
v 0.8583335 0.03515566 -0.19812989
v 0.05 0.10546699 -0.17171258
v -0.48350012 0.03515566 0.85856295
v 0.58350015 0.03515566 0.85856295
v 0.05 0.123044826 0.88498026
v -0.6562502 0.17577831 0.0660433
v -0.60572934 0.21093398 0.09906495
v -0.6562502 0.14062265 0.10566928
v -0.6225696 0.15820049 0.07925196
v -0.6562502 0.19335614 0.092460625
v -0.6394099 0.123044826 0.09906495
v -0.6562502 0.17577831 0.2641732
v -0.60572934 0.21093398 0.29719487
v -0.6562502 0.14062265 0.30379918
v 0.6562502 0.17577831 0.0660433
v 0.60572934 0.21093398 0.09906495
v 0.6562502 0.14062265 0.10566928
v 0.6225696 0.15820049 0.07925196
v 0.6562502 0.19335614 0.092460625
v 0.6394099 0.123044826 0.09906495
v 0.6562502 0.17577831 0.2641732
v 0.60572934 0.21093398 0.29719487
v 0.6562502 0.14062265 0.30379918
v -0.48784733 0.40429014 -0.0660433
v 0.48784733 0.40429014 -0.0660433
v 0.05 0.4394458 -0.046230312
v -0.35125008 0.42186797 -0.05613681
v 0.35125008 0.42186797 -0.05613681
v 0.05 0.45702362 -0.042928144
v -0.41206604 0.41307905 0.16510825
v 0.41206604 0.41307905 0.16510825
v 0.05 0.4482347 0.18492123
v -0.3362848 0.42186797 0.39625978
v 0.3362848 0.42186797 0.39625978
v 0.05 0.45702362 0.4160728
v -0.24212505 0.4394458 0.4061663
v 0.24212505 0.4394458 0.4061663
v 0.05 0.47460142 0.41937494
v -0.26050353 0.43065688 0.6274113
v 0.26050353 0.43065688 0.6274113
v 0.05 0.4658125 0.6472243
v -0.18472224 0.4394458 0.8585629
v 0.18472224 0.4394458 0.8585629
v 0.05 0.47460148 0.8783759
v -0.13300002 0.45702362 0.86846936
v 0.13300002 0.45702362 0.86846936
v 0.05 0.4921793 0.88167804
v -0.118402824 0.03515566 -0.3302165
v 0.21840282 0.03515566 -0.3302165
v 0.05 0.08788916 -0.2641732
v -0.40416676 0.03515566 -0.39625978
v -0.2020834 0.03515566 -0.39625978
v -0.30312508 0.08788916 -0.2641732
v -0.10104169 0.03515566 -0.39625978
v 0.10104169 0.03515566 -0.39625978
v 0 0.08788916 -0.2641732
v 0.2020834 0.03515566 -0.39625978
v 0.40416676 0.03515566 -0.39625978
v 0.30312508 0.08788916 -0.2641732
v -0.33680564 0.03515566 0.19812989
v 0.33680564 0.03515566 0.19812989
v 0 0.08788916 0.3302165
v -0.2294445 0.03515566 0.0660433
v 0.3094445 0.03515566 0.0660433
v 0.04 0.07910024 0.08585629
v -0.19239587 0.042186797 0.22454722
v 0.27239588 0.042186797 0.22454722
v 0.04 0.08613138 0.24436021
v -0.15534726 0.049217932 0.38305116
v 0.23534727 0.049217932 0.38305116
v 0.04 0.09316251 0.40286416
v -0.11829864 0.056249056 0.54155505
v 0.19829863 0.056249056 0.54155505
v 0.04 0.100193635 0.56136805
v -0.08125002 0.063280195 0.700059
v 0.16125003 0.063280195 0.700059
v 0.04 0.10722478 0.719872
v -0.044201404 0.07031132 0.8585629
v 0.1242014 0.07031132 0.8585629
v 0.04 0.114255905 0.8783759
v -0.16208339 0.07031132 0.2641732
v 0.24208337 0.07031132 0.2641732
v 0.04 0.123044826 0.2839862
v -0.11998267 0.07031132 0.4623031
v 0.19998267 0.07031132 0.4623031
v 0.04 0.123044826 0.4821161
v -0.07788197 0.07031132 0.660433
v 0.15788198 0.07031132 0.660433
v 0.04 0.123044826 0.680246
v -0.12840283 0.38671228 -0.0660433
v 0.20840281 0.38671228 -0.0660433
v 0.04 0.4394458 -0.049532477
v -0.10314239 0.39989567 0.1320866
v 0.1831424 0.39989567 0.1320866
v 0.04 0.45262915 0.14859743
v -0.07788197 0.41307905 0.33021653
v 0.15788198 0.41307905 0.33021653
v 0.04 0.46581256 0.34672734
v -0.05262155 0.4262624 0.5283464
v 0.13262156 0.4262624 0.5283464
v 0.04 0.47899592 0.54485726
v -0.027361125 0.4394458 0.7264763
v 0.10736112 0.4394458 0.7264763
v 0.04 0.49217927 0.74298716
v -0.12840283 0.052733496 -0.2641732
v 0.20840281 0.052733496 -0.2641732
v 0.04 0.10546699 -0.24766238
v -0.12840283 0.052733496 -0.36323816
v 0.20840281 0.052733496 -0.36323816
v 0.04 0.10546699 -0.34672734
v -0.12840283 0.052733496 -0.4623031
v 0.20840281 0.052733496 -0.4623031
v 0.04 0.10546699 -0.4457923
v -0.10104169 0.19335614 2.9772322
v 0.10104169 0.19335614 2.9772322
v 0 0.38671228 3.236122
v -0.050520845 0.35155663 3.1390383
v 0.050520845 0.35155663 3.1390383
v 0 0.42186797 3.236122
v -0.13472225 0.7762371 0.39625978
v 0.13472225 0.7762371 0.39625978
v 0 0.84373593 0.5283464
v -0.20208338 0.052733496 -0.5283464
v 0.20208338 0.052733496 -0.5283464
v 0 0.123044826 -0.3962598
vn 0 -0.65241146 0.75786495
vn 0 -0.65241146 0.75786495
vn 0 -0.65241146 0.75786495
vn 0.3739037 -0.9269569 -0.0307729
vn 0.3739037 -0.9269569 -0.0307729
vn 0.3739037 -0.9269569 -0.0307729
vn -0.48263848 -0.6283815 0.6100793
vn -0.48263848 -0.6283815 0.6100793
vn -0.48263848 -0.6283815 0.6100793
vn 0 1 0
vn 0 1 0
vn 0 1 0
vn 0 1 -0
vn 0 1 -0
vn 0 1 -0
vn 0 -0.5032084 0.86416507
vn 0 -0.5032084 0.86416507
vn 0 -0.5032084 0.86416507
vn 0.41818616 -0.9081046 -0.021597356
vn 0.41818616 -0.9081046 -0.021597356
vn 0.41818616 -0.9081046 -0.021597356
vn -0.48653704 -0.7125529 0.5055197
vn -0.48653704 -0.7125529 0.5055197
vn -0.48653704 -0.7125529 0.5055197
vn 0 1 0
vn 0 1 0
vn 0 1 0
vn 0 1 -0
vn 0 1 -0
vn 0 1 -0
vn 0 -0.4156202 0.9095382
vn 0 -0.4156202 0.9095382
vn 0 -0.4156202 0.9095382
vn 0.43491846 -0.9001583 0.023683364
vn 0.43491846 -0.9001583 0.023683364
vn 0.43491846 -0.9001583 0.023683364
vn -0.4892847 -0.81902474 0.29966462
vn -0.4892847 -0.81902474 0.29966462
vn -0.4892847 -0.81902474 0.29966462
vn 0 1 0
vn 0 1 0
vn 0 1 0
vn 0 1 -0
vn 0 1 -0
vn 0 1 -0
vn 0 -0.37098747 0.92863786
vn 0 -0.37098747 0.92863786
vn 0 -0.37098747 0.92863786
vn 0.43785426 -0.8955437 0.07927806
vn 0.43785426 -0.8955437 0.07927806
vn 0.43785426 -0.8955437 0.07927806
vn -0.46091333 -0.8870366 0.026927052
vn -0.46091333 -0.8870366 0.026927052
vn -0.46091333 -0.8870366 0.026927052
vn 0 1 -0
vn 0 1 -0
vn 0 1 -0
vn 0 1 -0
vn 0 1 -0
vn 0 1 -0
vn 0 -0.3573404 0.93397427
vn 0 -0.3573404 0.93397427
vn 0 -0.3573404 0.93397427
vn 0.4338651 -0.89289767 0.12039447
vn 0.4338651 -0.89289767 0.12039447
vn 0.4338651 -0.89289767 0.12039447
vn -0.40020764 -0.8920701 -0.20986852
vn -0.40020764 -0.8920701 -0.20986852
vn -0.40020764 -0.8920701 -0.20986852
vn 0 1 -0
vn 0 1 -0
vn 0 1 -0
vn 0 1 0
vn 0 1 0
vn 0 1 0
vn 0 -0.37098745 0.92863786
vn 0 -0.37098745 0.92863786
vn 0 -0.37098745 0.92863786
vn 0.42732853 -0.8947914 0.1293777
vn 0.42732853 -0.8947914 0.1293777
vn 0.42732853 -0.8947914 0.1293777
vn -0.33429414 -0.8767251 -0.3458333
vn -0.33429414 -0.8767251 -0.3458333
vn -0.33429414 -0.8767251 -0.3458333
vn 0 1 -0
vn 0 1 -0
vn 0 1 -0
vn 0 1 0
vn 0 1 0
vn 0 1 0
vn 0 -0.4156202 0.9095382
vn 0 -0.4156202 0.9095382
vn 0 -0.4156202 0.9095382
vn 0.4046038 -0.90040725 0.15988283
vn 0.4046038 -0.90040725 0.15988283
vn 0.4046038 -0.90040725 0.15988283
vn -0.27319515 -0.9009332 -0.33717036
vn -0.27319515 -0.9009332 -0.33717036
vn -0.27319515 -0.9009332 -0.33717036
vn 0 1 -0
vn 0 1 -0
vn 0 1 -0
vn 0 1 0
vn 0 1 0
vn 0 1 0
vn 0 -0.5032085 0.86416495
vn 0 -0.5032085 0.86416495
vn 0 -0.5032085 0.86416495
vn 0.39033428 -0.9196975 -0.042373944
vn 0.39033428 -0.9196975 -0.042373944
vn 0.39033428 -0.9196975 -0.042373944
vn -0.20639597 -0.90853155 -0.36327824
vn -0.20639597 -0.90853155 -0.36327824
vn -0.20639597 -0.90853155 -0.36327824
vn 0 1 -0
vn 0 1 -0
vn 0 1 -0
vn 0 1 0
vn 0 1 0
vn 0 1 0
vn 0 -0.35436636 0.9351067
vn 0 -0.35436636 0.9351067
vn 0 -0.35436636 0.9351067
vn 0.87470967 -0.4843628 0.016599268
vn 0.87470967 -0.4843628 0.016599268
vn 0.87470967 -0.4843628 0.016599268
vn -0.92670107 -0.3757991 -0.00053660956
vn -0.92670107 -0.3757991 -0.00053660956
vn -0.92670107 -0.3757991 -0.00053660956
vn 0 0.99999994 0
vn 0 0.99999994 0
vn 0 0.99999994 0
vn 0 0.99999994 0
vn 0 0.99999994 0
vn 0 0.99999994 0
vn 0 -0.29310805 0.9560794
vn 0 -0.29310805 0.9560794
vn 0 -0.29310805 0.9560794
vn 0.9268337 -0.3754718 -0.00058698084
vn 0.9268337 -0.3754718 -0.00058698084
vn 0.9268337 -0.3754718 -0.00058698084
vn -0.9541715 -0.2990135 -0.012153482
vn -0.9541715 -0.2990135 -0.012153482
vn -0.9541715 -0.2990135 -0.012153482
vn 0 1 0
vn 0 1 0
vn 0 1 0
vn 0 1 0
vn 0 1 0
vn 0 1 0
vn 0 -0.24927972 0.9684316
vn 0 -0.24927972 0.9684316
vn 0 -0.24927972 0.9684316
vn 0.95619494 -0.292436 -0.013130741
vn 0.95619494 -0.292436 -0.013130741
vn 0.95619494 -0.292436 -0.013130741
vn -0.97087586 -0.23865941 -0.021020062
vn -0.97087586 -0.23865941 -0.021020062
vn -0.97087586 -0.23865941 -0.021020062
vn 0 1 0
vn 0 1 0
vn 0 1 0
vn 0 1 0
vn 0 1 0
vn 0 1 0
vn 0 0 -1
vn 0 0 -1
vn 0 0 -1
vn 0 0 -1
vn 0 0 -1
vn 0 0 -1
vn 0 0 -1
vn 0 0 -1
vn 0 0 -1
vn 0 -0.9352922 0.35387644
vn 0 -0.9352922 0.35387644
vn 0 -0.9352922 0.35387644
vn -0.3483643 -0.50991625 0.78652894
vn -0.3483643 -0.50991625 0.78652894
vn -0.3483643 -0.50991625 0.78652894
vn -0.26541826 0.52448106 -0.80899495
vn -0.26541826 0.52448106 -0.80899495
vn -0.26541826 0.52448106 -0.80899495
vn 0 -0.016322171 0.9998667
vn 0 -0.016322171 0.9998667
vn 0 -0.016322171 0.9998667
vn 0 -0.014234913 0.9998986
vn 0 -0.014234913 0.9998986
vn 0 -0.014234913 0.9998986
vn 0 -0.012620918 0.99992037
vn 0 -0.012620918 0.99992037
vn 0 -0.012620918 0.99992037
vn 0 -0.016322171 0.9998667
vn 0 -0.016322171 0.9998667
vn 0 -0.016322171 0.9998667
vn 0 -0.014234913 0.9998986
vn 0 -0.014234913 0.9998986
vn 0 -0.014234913 0.9998986
vn 0 -0.012620918 0.99992037
vn 0 -0.012620918 0.99992037
vn 0 -0.012620918 0.99992037
vn 0 -0.8168183 0.5768951
vn 0 -0.8168183 0.5768951
vn 0 -0.8168183 0.5768951
vn 0 0 1
vn 0 0 1
vn 0 0 1
vn 0 0 1
vn 0 0 1
vn 0 0 1
vn 0 0 -1
vn 0 0 -1
vn 0 0 -1
vn 0 0 -1
vn 0 0 -1
vn 0 0 -1
vn 0 1 0
vn 0 1 0
vn 0 1 0
vn 0 1 0
vn 0 1 0
vn 0 1 0
vn 0 -1 0
vn 0 -1 0
vn 0 -1 0
vn 0 -1 0
vn 0 -1 0
vn 0 -1 0
vn 1 0 0
vn 1 0 0
vn 1 0 0
vn 1 0 0
vn 1 0 0
vn 1 0 0
vn -1 0 0
vn -1 0 0
vn -1 0 0
vn -1 0 0
vn -1 0 0
vn -1 0 0
vn 0 -0.91054285 0.4134148
vn 0 -0.91054285 0.4134148
vn 0 -0.91054285 0.4134148
vn 0 -0.2712266 0.96251553
vn 0 -0.2712266 0.96251553
vn 0 -0.2712266 0.96251553
vn 0 -0.2712267 0.96251553
vn 0 -0.2712267 0.96251553
vn 0 -0.2712267 0.96251553
vn 0 -0.44789937 0.894084
vn 0 -0.44789937 0.894084
vn 0 -0.44789937 0.894084
vn 0 -0.44789934 0.8940839
vn 0 -0.44789934 0.8940839
vn 0 -0.44789934 0.8940839
vn 0 -0.35171363 0.9361077
vn 0 -0.35171363 0.9361077
vn 0 -0.35171363 0.9361077
vn 0 -0.28785336 0.95767456
vn 0 -0.28785336 0.95767456
vn 0 -0.28785336 0.95767456
vn 0.69038844 -0.5411619 -0.48011202
vn 0.69038844 -0.5411619 -0.48011202
vn 0.69038844 -0.5411619 -0.48011202
vn 0.5354763 0.20520326 0.8192416
vn 0.5354763 0.20520326 0.8192416
vn 0.5354763 0.20520326 0.8192416
vn 0.6903885 -0.54116184 -0.48011208
vn 0.6903885 -0.54116184 -0.48011208
vn 0.6903885 -0.54116184 -0.48011208
vn 0.69038844 0.5411619 0.48011202
vn 0.69038844 0.5411619 0.48011202
vn 0.69038844 0.5411619 0.48011202
vn 0.5354763 -0.20520326 -0.8192416
vn 0.5354763 -0.20520326 -0.8192416
vn 0.5354763 -0.20520326 -0.8192416
vn 0.6903885 0.54116184 0.48011208
vn 0.6903885 0.54116184 0.48011208
vn 0.6903885 0.54116184 0.48011208
vn 0 -0.4909752 0.87117356
vn 0 -0.4909752 0.87117356
vn 0 -0.4909752 0.87117356
vn 0 -0.35171387 0.93610764
vn 0 -0.35171387 0.93610764
vn 0 -0.35171387 0.93610764
vn 0 -0.49097508 0.8711736
vn 0 -0.49097508 0.8711736
vn 0 -0.49097508 0.8711736
vn 0 -0.4909754 0.8711735
vn 0 -0.4909754 0.8711735
vn 0 -0.4909754 0.8711735
vn 0 -0.35171396 0.9361075
vn 0 -0.35171396 0.9361075
vn 0 -0.35171396 0.9361075
vn 0 -0.49097568 0.87117326
vn 0 -0.49097568 0.87117326
vn 0 -0.49097568 0.87117326
vn 0 -0.49097508 0.8711736
vn 0 -0.49097508 0.8711736
vn 0 -0.49097508 0.8711736
vn 0 -0.35171413 0.93610746
vn 0 -0.35171413 0.93610746
vn 0 -0.35171413 0.93610746
vn 0 -0.7814522 0.6239651
vn 0 -0.7814522 0.6239651
vn 0 -0.7814522 0.6239651
vn 0 -0.9287217 0.3707776
vn 0 -0.9287217 0.3707776
vn 0 -0.9287217 0.3707776
vn 0 -0.9287218 0.3707776
vn 0 -0.9287218 0.3707776
vn 0 -0.9287218 0.3707776
vn 0 -0.9287217 0.3707776
vn 0 -0.9287217 0.3707776
vn 0 -0.9287217 0.3707776
vn 0 -0.9287217 0.3707775
vn 0 -0.9287217 0.3707775
vn 0 -0.9287217 0.3707775
vn 0 -0.4110189 0.9116269
vn 0 -0.4110189 0.9116269
vn 0 -0.4110189 0.9116269
vn 0 -0.4110188 0.9116269
vn 0 -0.4110188 0.9116269
vn 0 -0.4110188 0.9116269
vn 0 -0.41101912 0.91162676
vn 0 -0.41101912 0.91162676
vn 0 -0.41101912 0.91162676
vn 0 -0.41101912 0.91162676
vn 0 -0.41101912 0.91162676
vn 0 -0.41101912 0.91162676
vn 0 -0.41101912 0.91162676
vn 0 -0.41101912 0.91162676
vn 0 -0.41101912 0.91162676
vn 0 -0.41101906 0.9116267
vn 0 -0.41101906 0.9116267
vn 0 -0.41101906 0.9116267
vn 0 -0.3517138 0.93610764
vn 0 -0.3517138 0.93610764
vn 0 -0.3517138 0.93610764
vn 0 -0.3517138 0.9361075
vn 0 -0.3517138 0.9361075
vn 0 -0.3517138 0.9361075
vn 0 -0.3517138 0.9361076
vn 0 -0.3517138 0.9361076
vn 0 -0.3517138 0.9361076
vn 0 -0.298796 0.954317
vn 0 -0.298796 0.954317
vn 0 -0.298796 0.954317
vn 0 -0.2987962 0.9543169
vn 0 -0.2987962 0.9543169
vn 0 -0.2987962 0.9543169
vn 0 -0.29879582 0.95431703
vn 0 -0.29879582 0.95431703
vn 0 -0.29879582 0.95431703
vn 0 -0.2987963 0.95431685
vn 0 -0.2987963 0.95431685
vn 0 -0.2987963 0.95431685
vn 0 -0.29879647 0.9543169
vn 0 -0.29879647 0.9543169
vn 0 -0.29879647 0.9543169
vn 0 -0.29879618 0.95431703
vn 0 -0.29879618 0.95431703
vn 0 -0.29879618 0.95431703
vn 0 -0.2987959 0.9543171
vn 0 -0.2987959 0.9543171
vn 0 -0.2987959 0.9543171
vn 0 -0.2987959 0.9543171
vn 0 -0.2987959 0.9543171
vn 0 -0.2987959 0.9543171
vn 0 -0.8012033 0.5983923
vn 0 -0.8012033 0.5983923
vn 0 -0.8012033 0.5983923
vn 0 -0.8099047 0.5865615
vn 0 -0.8099047 0.5865615
vn 0 -0.8099047 0.5865615
vn 0 -0.8904677 0.45504647
vn 0 -0.8904677 0.45504647
vn 0 -0.8904677 0.45504647
vn 0 -0.8827269 0.46988642
vn 0 -0.8827269 0.46988642
vn 0 -0.8827269 0.46988642
f 1//1 2//2 3//3
f 4//4 5//5 6//6
f 7//7 8//8 9//9
f 10//10 11//11 12//12
f 13//13 14//14 15//15
f 16//16 17//17 18//18
f 19//19 20//20 21//21
f 22//22 23//23 24//24
f 25//25 26//26 27//27
f 28//28 29//29 30//30
f 31//31 32//32 33//33
f 34//34 35//35 36//36
f 37//37 38//38 39//39
f 40//40 41//41 42//42
f 43//43 44//44 45//45
f 46//46 47//47 48//48
f 49//49 50//50 51//51
f 52//52 53//53 54//54
f 55//55 56//56 57//57
f 58//58 59//59 60//60
f 61//61 62//62 63//63
f 64//64 65//65 66//66
f 67//67 68//68 69//69
f 70//70 71//71 72//72
f 73//73 74//74 75//75
f 76//76 77//77 78//78
f 79//79 80//80 81//81
f 82//82 83//83 84//84
f 85//85 86//86 87//87
f 88//88 89//89 90//90
f 91//91 92//92 93//93
f 94//94 95//95 96//96
f 97//97 98//98 99//99
f 100//100 101//101 102//102
f 103//103 104//104 105//105
f 106//106 107//107 108//108
f 109//109 110//110 111//111
f 112//112 113//113 114//114
f 115//115 116//116 117//117
f 118//118 119//119 120//120
f 121//121 122//122 123//123
f 124//124 125//125 126//126
f 127//127 128//128 129//129
f 130//130 131//131 132//132
f 133//133 134//134 135//135
f 136//136 137//137 138//138
f 139//139 140//140 141//141
f 142//142 143//143 144//144
f 145//145 146//146 147//147
f 148//148 149//149 150//150
f 151//151 152//152 153//153
f 154//154 155//155 156//156
f 157//157 158//158 159//159
f 160//160 161//161 162//162
f 163//163 164//164 165//165
f 166//166 167//167 168//168
f 169//169 170//170 171//171
f 172//172 173//173 174//174
f 175//175 176//176 177//177
f 178//178 179//179 180//180
f 181//181 182//182 183//183
f 184//184 185//185 186//186
f 187//187 188//188 189//189
f 190//190 191//191 192//192
f 193//193 194//194 195//195
f 196//196 197//197 198//198
f 199//199 200//200 201//201
f 202//202 203//203 204//204
f 205//205 206//206 207//207
f 208//208 209//209 210//210
f 211//211 212//212 213//213
f 214//214 215//215 216//216
f 217//217 218//218 219//219
f 220//220 221//221 222//222
f 223//223 224//224 225//225
f 226//226 227//227 228//228
f 229//229 230//230 231//231
f 232//232 233//233 234//234
f 235//235 236//236 237//237
f 238//238 239//239 240//240
f 241//241 242//242 243//243
f 244//244 245//245 246//246
f 247//247 248//248 249//249
f 250//250 251//251 252//252
f 253//253 254//254 255//255
f 256//256 257//257 258//258
f 259//259 260//260 261//261
f 262//262 263//263 264//264
f 265//265 266//266 267//267
f 268//268 269//269 270//270
f 271//271 272//272 273//273
f 274//274 275//275 276//276
f 277//277 278//278 279//279
f 280//280 281//281 282//282
f 283//283 284//284 285//285
f 286//286 287//287 288//288
f 289//289 290//290 291//291
f 292//292 293//293 294//294
f 295//295 296//296 297//297
f 298//298 299//299 300//300
f 301//301 302//302 303//303
f 304//304 305//305 306//306
f 307//307 308//308 309//309
f 310//310 311//311 312//312
f 313//313 314//314 315//315
f 316//316 317//317 318//318
f 319//319 320//320 321//321
f 322//322 323//323 324//324
f 325//325 326//326 327//327
f 328//328 329//329 330//330
f 331//331 332//332 333//333
f 334//334 335//335 336//336
f 337//337 338//338 339//339
f 340//340 341//341 342//342
f 343//343 344//344 345//345
f 346//346 347//347 348//348
f 349//349 350//350 351//351
f 352//352 353//353 354//354
f 355//355 356//356 357//357
f 358//358 359//359 360//360
f 361//361 362//362 363//363
f 364//364 365//365 366//366
f 367//367 368//368 369//369
f 370//370 371//371 372//372
f 373//373 374//374 375//375
f 376//376 377//377 378//378
f 379//379 380//380 381//381
