# Exported from SharpOpenGl procedural mesh
o voidborn_miner_mk2_29
# vertices 27
v 0 0.30474243 1.3797647
v -0.47377476 0 0
v 0.47377476 0 0
v -0.47377476 0 0
v 0.47377476 0 0
v 0 0 -1.2417881
v -0.14805461 0.13544108 -1.1590023
v -0.59221846 0.37246296 -1.0913202
v -0.1895099 0.081264645 -1.2436049
v 0.1988162 0.13544108 -0.055190563
v 0.7952648 0.42663938 0.012491547
v 0.2544847 0.081264645 -0.1397932
v -0.24957776 0.13544108 1.0486212
v -0.99831104 0.48081586 1.1163033
v -0.31945953 0.081264645 0.9640185
v -0.47377476 0.05417643 -1.7109082
v -0.65651643 0 -2.1129398
v -0.2910331 0 -2.1129398
v 0.47377476 0.05417643 -1.7109082
v 0.2910331 0 -2.1129398
v 0.65651643 0 -2.1129398
v -0.1861258 0.25733805 0.22076234
v -0.30456948 0.09480876 0.11923918
v -0.06768211 0.09480876 0.11923918
v 0.1861258 0.25733805 0.10231865
v 0.06768211 0.09480876 0.00079549104
v 0.30456948 0.09480876 0.00079549104
vn 0 -0.9764668 0.21566784
vn 0 -0.9764668 0.21566784
vn 0 -0.9764668 0.21566784
vn -0 1 0
vn -0 1 0
vn -0 1 0
vn -0.29681042 -0.73149246 0.61385846
vn -0.29681042 -0.73149246 0.61385846
vn -0.29681042 -0.73149246 0.61385846
vn -0.2768956 0.7160797 -0.6407485
vn -0.2768956 0.7160797 -0.6407485
vn -0.2768956 0.7160797 -0.6407485
vn -0.26253906 -0.6994224 0.66474164
vn -0.26253906 -0.6994224 0.66474164
vn -0.26253906 -0.6994224 0.66474164
vn 0 -0.99104214 0.1335495
vn 0 -0.99104214 0.1335495
vn 0 -0.99104214 0.1335495
vn 0 -0.99104214 0.1335495
vn 0 -0.99104214 0.1335495
vn 0 -0.99104214 0.1335495
vn 0 -0.5297826 0.84813344
vn 0 -0.5297826 0.84813344
vn 0 -0.5297826 0.84813344
vn 0 -0.5297826 0.84813344
vn 0 -0.5297826 0.84813344
vn 0 -0.5297826 0.84813344
f 1//1 2//2 3//3
f 4//4 5//5 6//6
f 7//7 8//8 9//9
f 10//10 11//11 12//12
f 13//13 14//14 15//15
f 16//16 17//17 18//18
f 19//19 20//20 21//21
f 22//22 23//23 24//24
f 25//25 26//26 27//27
