# Exported from SharpOpenGl procedural mesh
o voidborn_scout_mk1_00
# vertices 222
v -0.109329335 0.027856164 -1.1130097
v 0.109329335 0.027856164 -1.1130097
v 0 0.08705051 -0.94789284
v -0.109329335 0.027856164 -1.1130097
v 0 0.08705051 -0.94789284
v -0.14622417 0.041214745 -0.7460834
v 0.109329335 0.027856164 -1.1130097
v 0.14622417 0.041214745 -0.7460834
v 0 0.12879609 -0.94789284
v -0.109329335 0 -1.1130097
v -0.14622417 0 -0.7460834
v 0.109329335 0 -1.1130097
v 0.109329335 0 -1.1130097
v -0.14622417 0 -0.7460834
v 0.14622417 0 -0.7460834
v -0.14622417 0.041214745 -0.7460834
v 0.14622417 0.041214745 -0.7460834
v 0 0.12879609 -0.5809666
v -0.14622417 0.041214745 -0.7460834
v 0 0.12879609 -0.5809666
v -0.17581154 0.051927503 -0.37915713
v 0.14622417 0.041214745 -0.7460834
v 0.17581154 0.051927503 -0.37915713
v 0 0.16227345 -0.5809666
v -0.14622417 0 -0.7460834
v -0.17581154 0 -0.37915713
v 0.14622417 0 -0.7460834
v 0.14622417 0 -0.7460834
v -0.17581154 0 -0.37915713
v 0.17581154 0 -0.37915713
v -0.17581154 0.051927503 -0.37915713
v 0.17581154 0.051927503 -0.37915713
v 0 0.16227345 -0.21404031
v -0.17581154 0.051927503 -0.37915713
v 0 0.16227345 -0.21404031
v -0.19223128 0.057872627 -0.012230873
v 0.17581154 0.051927503 -0.37915713
v 0.19223128 0.057872627 -0.012230873
v 0 0.18085197 -0.21404031
v -0.17581154 0 -0.37915713
v -0.19223128 0 -0.012230873
v 0.17581154 0 -0.37915713
v 0.17581154 0 -0.37915713
v -0.19223128 0 -0.012230873
v 0.19223128 0 -0.012230873
v -0.19223128 0.057872627 -0.012230873
v 0.19223128 0.057872627 -0.012230873
v 0 0.18085197 0.15288596
v -0.19223128 0.057872627 -0.012230873
v 0 0.18085197 0.15288596
v -0.19223128 0.057872627 0.35469544
v 0.19223128 0.057872627 -0.012230873
v 0.19223128 0.057872627 0.35469544
v 0 0.18085197 0.15288596
v -0.19223128 0 -0.012230873
v -0.19223128 0 0.35469544
v 0.19223128 0 -0.012230873
v 0.19223128 0 -0.012230873
v -0.19223128 0 0.35469544
v 0.19223128 0 0.35469544
v -0.19223128 0.057872627 0.35469544
v 0.19223128 0.057872627 0.35469544
v 0 0.18085197 0.5198122
v -0.19223128 0.057872627 0.35469544
v 0 0.18085197 0.5198122
v -0.17581151 0.051927492 0.72162163
v 0.19223128 0.057872627 0.35469544
v 0.17581151 0.051927492 0.72162163
v 0 0.16227342 0.5198122
v -0.19223128 0 0.35469544
v -0.17581151 0 0.72162163
v 0.19223128 0 0.35469544
v 0.19223128 0 0.35469544
v -0.17581151 0 0.72162163
v 0.17581151 0 0.72162163
v -0.17581151 0.051927492 0.72162163
v 0.17581151 0.051927492 0.72162163
v 0 0.16227342 0.8867385
v -0.17581151 0.051927492 0.72162163
v 0 0.16227342 0.8867385
v -0.17225496 0.04121474 1.088548
v 0.17581151 0.051927492 0.72162163
v 0.17225496 0.04121474 1.088548
v 0 0.12879607 0.8867385
v -0.17581151 0 0.72162163
v -0.17225496 0 1.088548
v 0.17581151 0 0.72162163
v 0.17581151 0 0.72162163
v -0.17225496 0 1.088548
v 0.17225496 0 1.088548
v -0.17225496 0.04121474 1.088548
v 0.17225496 0.04121474 1.088548
v 0 0.12879607 1.2536647
v -0.17225496 0.04121474 1.088548
v 0 0.12879607 1.2536647
v -0.10932932 0.027856162 1.4554741
v 0.17225496 0.04121474 1.088548
v 0.10932932 0.027856162 1.4554741
v 0 0.087050505 1.2536647
v -0.17225496 0 1.088548
v -0.10932932 0 1.4554741
v 0.17225496 0 1.088548
v 0.17225496 0 1.088548
v -0.10932932 0 1.4554741
v 0.10932932 0 1.4554741
v -0.03644311 0.036652848 -0.41202763
v 0.03644311 0.036652848 -0.41202763
v 0 0.11454015 -0.33044615
v -0.03644311 0.036652848 -0.41202763
v 0 0.11454015 -0.33044615
v -0.05072359 0.05173365 -0.23073547
v 0.03644311 0.036652848 -0.41202763
v 0.05072359 0.05173365 -0.23073547
v 0 0.16166766 -0.33044615
v -0.03644311 0 -0.41202763
v -0.05072359 0 -0.23073547
v 0.03644311 0 -0.41202763
v 0.03644311 0 -0.41202763
v -0.05072359 0 -0.23073547
v 0.05072359 0 -0.23073547
v -0.05072359 0.05173365 -0.23073547
v 0.05072359 0.05173365 -0.23073547
v 0 0.16166766 -0.14915399
v -0.05072359 0.05173365 -0.23073547
v 0 0.16166766 -0.14915399
v -0.059549414 0.0610541 -0.049443305
v 0.05072359 0.05173365 -0.23073547
v 0.059549414 0.0610541 -0.049443305
v 0 0.19079407 -0.14915399
v -0.05072359 0 -0.23073547
v -0.059549414 0 -0.049443305
v 0.05072359 0 -0.23073547
v 0.05072359 0 -0.23073547
v -0.059549414 0 -0.049443305
v 0.059549414 0 -0.049443305
v -0.059549414 0.0610541 -0.049443305
v 0.059549414 0.0610541 -0.049443305
v 0 0.19079407 0.03213816
v -0.059549414 0.0610541 -0.049443305
v 0 0.19079407 0.03213816
v -0.059549414 0.0610541 0.13184884
v 0.059549414 0.0610541 -0.049443305
v 0.059549414 0.0610541 0.13184884
v 0 0.19079407 0.03213816
v -0.059549414 0 -0.049443305
v -0.059549414 0 0.13184884
v 0.059549414 0 -0.049443305
v 0.059549414 0 -0.049443305
v -0.059549414 0 0.13184884
v 0.059549414 0 0.13184884
v -0.059549414 0.0610541 0.13184884
v 0.059549414 0.0610541 0.13184884
v 0 0.19079407 0.21343032
v -0.059549414 0.0610541 0.13184884
v 0 0.19079407 0.21343032
v -0.05072359 0.05173365 0.31314102
v 0.059549414 0.0610541 0.13184884
v 0.05072359 0.05173365 0.31314102
v 0 0.16166766 0.21343032
v -0.059549414 0 0.13184884
v -0.05072359 0 0.31314102
v 0.059549414 0 0.13184884
v 0.059549414 0 0.13184884
v -0.05072359 0 0.31314102
v 0.05072359 0 0.31314102
v -0.05072359 0.05173365 0.31314102
v 0.05072359 0.05173365 0.31314102
v 0 0.16166766 0.39472246
v -0.05072359 0.05173365 0.31314102
v 0 0.16166766 0.39472246
v -0.036443107 0.036652844 0.49443313
v 0.05072359 0.05173365 0.31314102
v 0.036443107 0.036652844 0.49443313
v 0 0.114540145 0.39472246
v -0.05072359 0 0.31314102
v -0.036443107 0 0.49443313
v 0.05072359 0 0.31314102
v 0.05072359 0 0.31314102
v -0.036443107 0 0.49443313
v 0.036443107 0 0.49443313
v -0.024052452 0.06414249 -0.8561613
v -0.13362473 0.16493782 -0.825792
v -0.029397441 0.04489974 -0.8804567
v -0.024052452 0.06414249 -0.8561613
v -0.029397441 0.04489974 -0.8804567
v 0 0.054521117 -0.8561613
v -0.13362473 0.16493782 -0.825792
v -0.024052452 0.06414249 -0.8561613
v 0 0.054521117 -0.8561613
v 0.0327988 0.08794921 -0.27111775
v 0.18221556 0.18784586 -0.2407485
v 0.04008742 0.061564445 -0.29541317
v 0.0327988 0.08794921 -0.27111775
v 0.04008742 0.061564445 -0.29541317
v 0 0.07475683 -0.27111775
v 0.18221556 0.18784586 -0.2407485
v 0.0327988 0.08794921 -0.27111775
v 0 0.07475683 -0.27111775
v -0.041545145 0.08794921 0.3139258
v -0.23080635 0.21075389 0.34429505
v -0.050777398 0.061564445 0.28963038
v -0.041545145 0.08794921 0.3139258
v -0.050777398 0.061564445 0.28963038
v 0 0.07475683 0.3139258
v -0.23080635 0.21075389 0.34429505
v -0.041545145 0.08794921 0.3139258
v 0 0.07475683 0.3139258
v 0.024052452 0.06414249 0.89896935
v 0.13362473 0.16493782 0.92933863
v 0.029397441 0.04489974 0.87467396
v 0.024052452 0.06414249 0.89896935
v 0.029397441 0.04489974 0.87467396
v 0 0.054521117 0.89896935
v 0.13362473 0.16493782 0.92933863
v 0.024052452 0.06414249 0.89896935
v 0 0.054521117 0.89896935
v -0.17006785 0.018326424 -1.3270501
v -0.2210882 0 -1.4392948
v -0.11904749 0 -1.4392948
v 0.17006785 0.018326424 -1.3270501
v 0.11904749 0 -1.4392948
v 0.2210882 0 -1.4392948
vn 0 -0.94133663 0.33746898
vn 0 -0.94133663 0.33746898
vn 0 -0.94133663 0.33746898
vn 0.38802177 -0.91879696 0.07246639
vn 0.38802177 -0.91879696 0.07246639
vn 0.38802177 -0.91879696 0.07246639
vn -0.5995427 -0.7953519 0.08924081
vn -0.5995427 -0.7953519 0.08924081
vn -0.5995427 -0.7953519 0.08924081
vn 0 1 -0
vn 0 1 -0
vn 0 1 -0
vn 0 1 -0
vn 0 1 -0
vn 0 1 -0
vn 0 -0.8834191 0.46858364
vn 0 -0.8834191 0.46858364
vn 0 -0.8834191 0.46858364
vn 0.45956665 -0.88591146 0.06292252
vn 0.45956665 -0.88591146 0.06292252
vn 0.45956665 -0.88591146 0.06292252
vn -0.5873852 -0.8061957 0.070901886
vn -0.5873852 -0.8061957 0.070901886
vn -0.5873852 -0.8061957 0.070901886
vn 0 1 -0
vn 0 1 -0
vn 0 1 -0
vn 0 1 -0
vn 0 1 -0
vn 0 1 -0
vn 0 -0.83142674 0.5556343
vn 0 -0.83142674 0.5556343
vn 0 -0.83142674 0.5556343
vn 0.5063505 -0.8615499 0.03661816
vn 0.5063505 -0.8615499 0.03661816
vn 0.5063505 -0.8615499 0.03661816
vn -0.5670154 -0.82279724 0.038704988
vn -0.5670154 -0.82279724 0.038704988
vn -0.5670154 -0.82279724 0.038704988
vn 0 1 -0
vn 0 1 -0
vn 0 1 -0
vn 0 1 -0
vn 0 1 -0
vn 0 1 -0
vn 0 -0.8019966 0.5973286
vn 0 -0.8019966 0.5973286
vn 0 -0.8019966 0.5973286
vn 0.5389024 -0.8423683 0
vn 0.5389024 -0.8423683 0
vn 0.5389024 -0.8423683 0
vn -0.5389024 -0.8423683 0
vn -0.5389024 -0.8423683 0
vn -0.5389024 -0.8423683 0
vn 0 1 0
vn 0 1 0
vn 0 1 0
vn 0 1 -0
vn 0 1 -0
vn 0 1 -0
vn 0 -0.8019965 0.5973287
vn 0 -0.8019965 0.5973287
vn 0 -0.8019965 0.5973287
vn 0.56177574 -0.8263918 -0.038528834
vn 0.56177574 -0.8263918 -0.038528834
vn 0.56177574 -0.8263918 -0.038528834
vn -0.50092125 -0.86472595 -0.036426738
vn -0.50092125 -0.86472595 -0.036426738
vn -0.50092125 -0.86472595 -0.036426738
vn 0 1 0
vn 0 1 0
vn 0 1 0
vn 0 1 0
vn 0 1 0
vn 0 1 0
vn 0 -0.83142686 0.5556342
vn 0 -0.83142686 0.5556342
vn 0 -0.83142686 0.5556342
vn 0.551224 -0.8338291 -0.029687319
vn 0.551224 -0.8338291 -0.029687319
vn 0.551224 -0.8338291 -0.029687319
vn -0.4243547 -0.9049811 -0.030534945
vn -0.4243547 -0.9049811 -0.030534945
vn -0.4243547 -0.9049811 -0.030534945
vn 0 1 0
vn 0 1 0
vn 0 1 0
vn 0 1 0
vn 0 1 0
vn 0 1 0
vn 0 -0.88341916 0.4685836
vn 0 -0.88341916 0.4685836
vn 0 -0.88341916 0.4685836
vn 0.5409786 -0.8319839 -0.1230644
vn 0.5409786 -0.8319839 -0.1230644
vn 0.5409786 -0.8319839 -0.1230644
vn -0.33745238 -0.9368382 -0.09197827
vn -0.33745238 -0.9368382 -0.09197827
vn -0.33745238 -0.9368382 -0.09197827
vn 0 1 0
vn 0 1 0
vn 0 1 0
vn 0 1 0
vn 0 1 0
vn 0 1 0
vn 0 -0.7232932 0.690541
vn 0 -0.7232932 0.690541
vn 0 -0.7232932 0.690541
vn 0.85120904 -0.51322466 0.10974282
vn 0.85120904 -0.51322466 0.10974282
vn 0.85120904 -0.51322466 0.10974282
vn -0.9352154 -0.33910665 0.10187602
vn -0.9352154 -0.33910665 0.10187602
vn -0.9352154 -0.33910665 0.10187602
vn 0 0.99999994 -0
vn 0 0.99999994 -0
vn 0 0.99999994 -0
vn 0 1 -0
vn 0 1 -0
vn 0 1 -0
vn 0 -0.5959295 0.80303675
vn 0 -0.5959295 0.80303675
vn 0 -0.5959295 0.80303675
vn 0.8862313 -0.45841405 0.06671191
vn 0.8862313 -0.45841405 0.06671191
vn 0.8862313 -0.45841405 0.06671191
vn -0.9247742 -0.37504375 0.064302124
vn -0.9247742 -0.37504375 0.064302124
vn -0.9247742 -0.37504375 0.064302124
vn 0 1 -0
vn 0 1 -0
vn 0 1 -0
vn 0 1 -0
vn 0 1 -0
vn 0 1 -0
vn 0 -0.5323148 0.84654653
vn 0 -0.5323148 0.84654653
vn 0 -0.5323148 0.84654653
vn 0.90883857 -0.41714823 0
vn 0.90883857 -0.41714823 0
vn 0.90883857 -0.41714823 0
vn -0.90883857 -0.41714823 0
vn -0.90883857 -0.41714823 0
vn -0.90883857 -0.41714823 0
vn 0 1 0
vn 0 1 0
vn 0 1 0
vn 0 1 -0
vn 0 1 -0
vn 0 1 -0
vn 0 -0.5323148 0.8465464
vn 0 -0.5323148 0.8465464
vn 0 -0.5323148 0.8465464
vn 0.9217091 -0.3824756 -0.06453498
vn 0.9217091 -0.3824756 -0.06453498
vn 0.9217091 -0.3824756 -0.06453498
vn -0.8814875 -0.46743795 -0.06694489
vn -0.8814875 -0.46743795 -0.06694489
vn -0.8814875 -0.46743795 -0.06694489
vn 0 1 0
vn 0 1 0
vn 0 1 0
vn 0 1 0
vn 0 1 0
vn 0 1 0
vn 0 -0.5959294 0.80303687
vn 0 -0.5959294 0.80303687
vn 0 -0.5959294 0.80303687
vn 0.92999786 -0.35295007 -0.10261665
vn 0.92999786 -0.35295007 -0.10261665
vn 0.92999786 -0.35295007 -0.10261665
vn -0.8384406 -0.53368574 -0.11043915
vn -0.8384406 -0.53368574 -0.11043915
vn -0.8384406 -0.53368574 -0.11043915
vn 0 1 0
vn 0 1 0
vn 0 1 0
vn 0 1 0
vn 0 1 0
vn 0 1 0
vn -0.43393406 -0.65735126 0.6161094
vn -0.43393406 -0.65735126 0.6161094
vn -0.43393406 -0.65735126 0.6161094
vn -0.28760454 -0.7189822 0.63273066
vn -0.28760454 -0.7189822 0.63273066
vn -0.28760454 -0.7189822 0.63273066
vn -0.18493958 -0.46233 0.86720717
vn -0.18493958 -0.46233 0.86720717
vn -0.18493958 -0.46233 0.86720717
vn -0.2593651 0.6144522 -0.74510294
vn -0.2593651 0.6144522 -0.74510294
vn -0.2593651 0.6144522 -0.74510294
vn -0.24859662 0.6180593 -0.7457897
vn -0.24859662 0.6180593 -0.7457897
vn -0.24859662 0.6180593 -0.7457897
vn -0.23704742 0.58934575 -0.77232116
vn -0.23704742 0.58934575 -0.77232116
vn -0.23704742 0.58934575 -0.77232116
vn -0.26840478 -0.6000204 0.7536143
vn -0.26840478 -0.6000204 0.7536143
vn -0.26840478 -0.6000204 0.7536143
vn -0.19858588 -0.6253823 0.7546262
vn -0.19858588 -0.6253823 0.7546262
vn -0.19858588 -0.6253823 0.7546262
vn -0.13710418 -0.4317656 0.8915048
vn -0.13710418 -0.4317656 0.8915048
vn -0.13710418 -0.4317656 0.8915048
vn -0.43393406 0.65735126 -0.6161094
vn -0.43393406 0.65735126 -0.6161094
vn -0.43393406 0.65735126 -0.6161094
vn -0.28760454 0.7189822 -0.63273066
vn -0.28760454 0.7189822 -0.63273066
vn -0.28760454 0.7189822 -0.63273066
vn -0.18493958 0.46233 -0.86720717
vn -0.18493958 0.46233 -0.86720717
vn -0.18493958 0.46233 -0.86720717
vn 0 -0.98693174 0.16113834
vn 0 -0.98693174 0.16113834
vn 0 -0.98693174 0.16113834
vn 0 -0.98693174 0.16113834
vn 0 -0.98693174 0.16113834
vn 0 -0.98693174 0.16113834
f 1//1 2//2 3//3
f 4//4 5//5 6//6
f 7//7 8//8 9//9
f 10//10 11//11 12//12
f 13//13 14//14 15//15
f 16//16 17//17 18//18
f 19//19 20//20 21//21
f 22//22 23//23 24//24
f 25//25 26//26 27//27
f 28//28 29//29 30//30
f 31//31 32//32 33//33
f 34//34 35//35 36//36
f 37//37 38//38 39//39
f 40//40 41//41 42//42
f 43//43 44//44 45//45
f 46//46 47//47 48//48
f 49//49 50//50 51//51
f 52//52 53//53 54//54
f 55//55 56//56 57//57
f 58//58 59//59 60//60
f 61//61 62//62 63//63
f 64//64 65//65 66//66
f 67//67 68//68 69//69
f 70//70 71//71 72//72
f 73//73 74//74 75//75
f 76//76 77//77 78//78
f 79//79 80//80 81//81
f 82//82 83//83 84//84
f 85//85 86//86 87//87
f 88//88 89//89 90//90
f 91//91 92//92 93//93
f 94//94 95//95 96//96
f 97//97 98//98 99//99
f 100//100 101//101 102//102
f 103//103 104//104 105//105
f 106//106 107//107 108//108
f 109//109 110//110 111//111
f 112//112 113//113 114//114
f 115//115 116//116 117//117
f 118//118 119//119 120//120
f 121//121 122//122 123//123
f 124//124 125//125 126//126
f 127//127 128//128 129//129
f 130//130 131//131 132//132
f 133//133 134//134 135//135
f 136//136 137//137 138//138
f 139//139 140//140 141//141
f 142//142 143//143 144//144
f 145//145 146//146 147//147
f 148//148 149//149 150//150
f 151//151 152//152 153//153
f 154//154 155//155 156//156
f 157//157 158//158 159//159
f 160//160 161//161 162//162
f 163//163 164//164 165//165
f 166//166 167//167 168//168
f 169//169 170//170 171//171
f 172//172 173//173 174//174
f 175//175 176//176 177//177
f 178//178 179//179 180//180
f 181//181 182//182 183//183
f 184//184 185//185 186//186
f 187//187 188//188 189//189
f 190//190 191//191 192//192
f 193//193 194//194 195//195
f 196//196 197//197 198//198
f 199//199 200//200 201//201
f 202//202 203//203 204//204
f 205//205 206//206 207//207
f 208//208 209//209 210//210
f 211//211 212//212 213//213
f 214//214 215//215 216//216
f 217//217 218//218 219//219
f 220//220 221//221 222//222
