# Exported from SharpOpenGl procedural mesh
o voidborn_carrier_prototype_55
# vertices 30
v 0 0.7253873 3.4825006
v -1.4817727 0 0
v 1.4817727 0 0
v -1.4817727 0 0
v 1.4817727 0 0
v 0 0 -3.1342504
v -0.46305394 0.32239434 -2.9253004
v -1.8522158 0.88658446 -2.7136185
v -0.592709 0.19343661 -3.1899025
v 0.6218153 0.32239434 -1.0679668
v 2.4872613 1.0155421 -0.85628504
v 0.7959236 0.19343661 -1.3325691
v -0.78057665 0.32239434 0.7893667
v -3.1223066 1.1445 1.0010486
v -0.99913806 0.19343661 0.5247644
v 0.46305394 0.32239434 2.6467001
v 1.8522158 0.88658446 2.858382
v 0.592709 0.19343661 2.382098
v -2.2226589 0.12895773 -4.3183007
v -3.1117225 0 -6.2742405
v -1.3335953 0 -6.2742405
v -0.74088633 0.12895773 -4.3183007
v -1.6299498 0 -6.2742405
v 0.1481772 0 -6.2742405
v 0.74088633 0.12895773 -4.3183007
v -0.1481772 0 -6.2742405
v 1.6299498 0 -6.2742405
v 2.2226589 0.12895773 -4.3183007
v 1.3335953 0 -6.2742405
v 3.1117225 0 -6.2742405
vn 0 -0.978988 0.20391825
vn 0 -0.978988 0.20391825
vn 0 -0.978988 0.20391825
vn -0 1 0
vn -0 1 0
vn -0 1 0
vn -0.25187004 -0.8156046 0.5209131
vn -0.25187004 -0.8156046 0.5209131
vn -0.25187004 -0.8156046 0.5209131
vn -0.2363537 0.80311984 -0.5469327
vn -0.2363537 0.80311984 -0.5469327
vn -0.2363537 0.80311984 -0.5469327
vn -0.2255107 -0.78937876 0.5709869
vn -0.2255107 -0.78937876 0.5709869
vn -0.2255107 -0.78937876 0.5709869
vn -0.25187004 0.8156046 -0.5209131
vn -0.25187004 0.8156046 -0.5209131
vn -0.25187004 0.8156046 -0.5209131
vn 0 -0.9978336 0.06578851
vn 0 -0.9978336 0.06578851
vn 0 -0.9978336 0.06578851
vn 0 -0.99783355 0.06578851
vn 0 -0.99783355 0.06578851
vn 0 -0.99783355 0.06578851
vn 0 -0.99783355 0.06578851
vn 0 -0.99783355 0.06578851
vn 0 -0.99783355 0.06578851
vn 0 -0.9978336 0.06578851
vn 0 -0.9978336 0.06578851
vn 0 -0.9978336 0.06578851
f 1//1 2//2 3//3
f 4//4 5//5 6//6
f 7//7 8//8 9//9
f 10//10 11//11 12//12
f 13//13 14//14 15//15
f 16//16 17//17 18//18
f 19//19 20//20 21//21
f 22//22 23//23 24//24
f 25//25 26//26 27//27
f 28//28 29//29 30//30
