# Exported from SharpOpenGl procedural mesh
o voidborn_bomber_mk3_41
# vertices 24
v 0 0.35643047 1.650828
v -0.7675481 0 0
v 0.7675481 0 0
v -0.7675481 0 0
v 0.7675481 0 0
v 0 0 -1.4857452
v -0.23985878 0.15841354 -1.3866955
v -0.9594351 0.43563724 -1.2770457
v -0.30701923 0.09504812 -1.5237577
v 0.32209608 0.15841354 -0.066033125
v 1.2883843 0.49900267 0.0436166
v 0.41228297 0.09504812 -0.20309529
v -0.40433335 0.15841354 1.2546293
v -1.6173334 0.5623681 1.364279
v -0.51754665 0.09504812 1.1175671
v -0.9594351 0.063365415 -2.0470266
v -1.3541741 0 -2.9154525
v -0.5646961 0 -2.9154525
v 0 0.063365415 -2.0470266
v -0.394739 0 -2.9154525
v 0.394739 0 -2.9154525
v 0.9594351 0.063365415 -2.0470266
v 0.5646961 0 -2.9154525
v 1.3541741 0 -2.9154525
vn 0 -0.9774759 0.21104693
vn 0 -0.9774759 0.21104693
vn 0 -0.9774759 0.21104693
vn -0 1 0
vn -0 1 0
vn -0 1 0
vn -0.24303247 -0.82963425 0.5026353
vn -0.24303247 -0.82963425 0.5026353
vn -0.24303247 -0.82963425 0.5026353
vn -0.2282998 0.81779146 -0.5282957
vn -0.2282998 0.81779146 -0.5282957
vn -0.2282998 0.81779146 -0.5282957
vn -0.21807425 -0.80471444 0.55215794
vn -0.21807425 -0.80471444 0.55215794
vn -0.21807425 -0.80471444 0.55215794
vn 0 -0.9973486 0.07277237
vn 0 -0.9973486 0.07277237
vn 0 -0.9973486 0.07277237
vn 0 -0.9973486 0.072772376
vn 0 -0.9973486 0.072772376
vn 0 -0.9973486 0.072772376
vn 0 -0.9973486 0.07277237
vn 0 -0.9973486 0.07277237
vn 0 -0.9973486 0.07277237
f 1//1 2//2 3//3
f 4//4 5//5 6//6
f 7//7 8//8 9//9
f 10//10 11//11 12//12
f 13//13 14//14 15//15
f 16//16 17//17 18//18
f 19//19 20//20 21//21
f 22//22 23//23 24//24
