# Exported from SharpOpenGl procedural mesh
o voidborn_support_mk1_15
# vertices 24
v 0 0.56645447 2.2441869
v -0.8011172 0 0
v 0.8011172 0 0
v -0.8011172 0 0
v 0.8011172 0 0
v 0 0 -2.0197682
v -0.25034913 0.25175756 -1.8851169
v -1.0013965 0.6923333 -1.7706716
v -0.32044688 0.15105453 -2.0281737
v 0.3361831 0.25175756 -0.089767456
v 1.3447324 0.7930363 0.024677858
v 0.43031436 0.15105453 -0.2328241
v -0.42201707 0.25175756 1.705582
v -1.6880683 0.89373934 1.8200274
v -0.5401818 0.15105453 1.5625254
v -1.0013965 0.100703016 -2.7827919
v -1.3447325 0 -3.5381308
v -0.6580606 0 -3.5381308
v 0 0.100703016 -2.7827919
v -0.34333593 0 -3.5381308
v 0.34333593 0 -3.5381308
v 1.0013965 0.100703016 -2.7827919
v 0.6580606 0 -3.5381308
v 1.3447325 0 -3.5381308
vn 0 -0.96959025 0.24473396
vn 0 -0.96959025 0.24473396
vn 0 -0.96959025 0.24473396
vn -0 1 0
vn -0 1 0
vn -0 1 0
vn -0.3115336 -0.6984373 0.6443076
vn -0.3115336 -0.6984373 0.6443076
vn -0.3115336 -0.6984373 0.6443076
vn -0.2900165 0.682276 -0.671111
vn -0.2900165 0.682276 -0.671111
vn -0.2900165 0.682276 -0.671111
vn -0.27436835 -0.6649235 0.69469327
vn -0.27436835 -0.6649235 0.69469327
vn -0.27436835 -0.6649235 0.69469327
vn 0 -0.99122936 0.13215232
vn 0 -0.99122936 0.13215232
vn 0 -0.99122936 0.13215232
vn 0 -0.99122936 0.13215232
vn 0 -0.99122936 0.13215232
vn 0 -0.99122936 0.13215232
vn 0 -0.99122936 0.13215232
vn 0 -0.99122936 0.13215232
vn 0 -0.99122936 0.13215232
f 1//1 2//2 3//3
f 4//4 5//5 6//6
f 7//7 8//8 9//9
f 10//10 11//11 12//12
f 13//13 14//14 15//15
f 16//16 17//17 18//18
f 19//19 20//20 21//21
f 22//22 23//23 24//24
