# Exported from SharpOpenGl procedural mesh
o voidborn_cruiser_mk3_43
# vertices 21
v 0 0.70479786 4.051481
v -1.0433125 0 0
v 1.0433125 0 0
v -1.0433125 0 0
v 1.0433125 0 0
v 0 0 -3.6463325
v -0.32603517 0.3132435 -3.4032438
v -1.3041407 0.8614197 -3.254199
v -0.41732502 0.1879461 -3.5895495
v 0.43781865 0.3132435 -0.16205907
v 1.7512746 0.98671705 -0.013014421
v 0.5604079 0.1879461 -0.3483649
v -0.5496021 0.3132435 3.0791256
v -2.1984084 1.1120145 3.2281704
v -0.7034907 0.1879461 2.89282
v -1.0433125 0.1252974 -5.023836
v -1.6469433 0 -6.351824
v -0.4396817 0 -6.351824
v 1.0433125 0.1252974 -5.023836
v 0.4396817 0 -6.351824
v 1.6469433 0 -6.351824
vn 0 -0.9852038 0.1713866
vn 0 -0.9852038 0.1713866
vn 0 -0.9852038 0.1713866
vn -0 1 0
vn -0 1 0
vn -0 1 0
vn -0.30451638 -0.714582 0.62979555
vn -0.30451638 -0.714582 0.62979555
vn -0.30451638 -0.714582 0.62979555
vn -0.2837734 0.6987596 -0.6566641
vn -0.2837734 0.6987596 -0.6566641
vn -0.2837734 0.6987596 -0.6566641
vn -0.26874956 -0.6817173 0.6804669
vn -0.26874956 -0.6817173 0.6804669
vn -0.26874956 -0.6817173 0.6804669
vn 0 -0.99557835 0.09393415
vn 0 -0.99557835 0.09393415
vn 0 -0.99557835 0.09393415
vn 0 -0.99557835 0.09393415
vn 0 -0.99557835 0.09393415
vn 0 -0.99557835 0.09393415
f 1//1 2//2 3//3
f 4//4 5//5 6//6
f 7//7 8//8 9//9
f 10//10 11//11 12//12
f 13//13 14//14 15//15
f 16//16 17//17 18//18
f 19//19 20//20 21//21
