# Exported from SharpOpenGl procedural mesh
o voidborn_carrier_mk1_10
# vertices 27
v 0 0.6585672 2.8872788
v -1.1897737 0 0
v 1.1897737 0 0
v -1.1897737 0 0
v 1.1897737 0 0
v 0 0 -2.5985508
v -0.37180427 0.29269654 -2.4253142
v -1.4872171 0.8049154 -2.2553465
v -0.47590944 0.1756179 -2.6377738
v 0.49928004 0.29269654 -0.8854321
v 1.9971201 0.92199403 -0.7154645
v 0.63907844 0.1756179 -1.0978917
v -0.6267558 0.29269654 0.65444994
v -2.507023 1.0390728 0.8244176
v -0.80224735 0.1756179 0.44199035
v 0.37180427 0.29269654 2.194332
v 1.4872171 0.8049154 2.3642995
v 0.47590944 0.1756179 1.9818723
v -1.4872171 0.11707861 -3.5802257
v -2.2010813 0 -5.1507273
v -0.77335286 0 -5.1507273
v 0 0.11707861 -3.5802257
v -0.7138642 0 -5.1507273
v 0.7138642 0 -5.1507273
v 1.4872171 0.11707861 -3.5802257
v 0.77335286 0 -5.1507273
v 2.2010813 0 -5.1507273
vn 0 -0.97495985 0.22238122
vn 0 -0.97495985 0.22238122
vn 0 -0.97495985 0.22238122
vn -0 1 0
vn -0 1 0
vn -0 1 0
vn -0.27237517 -0.78005165 0.56332153
vn -0.27237517 -0.78005165 0.56332153
vn -0.27237517 -0.78005165 0.56332153
vn -0.25494018 0.7661415 -0.589943
vn -0.25494018 0.7661415 -0.589943
vn -0.25494018 0.7661415 -0.589943
vn -0.24257289 -0.7509537 0.61418796
vn -0.24257289 -0.7509537 0.61418796
vn -0.24257289 -0.7509537 0.61418796
vn -0.27237517 0.78005165 -0.56332153
vn -0.27237517 0.78005165 -0.56332153
vn -0.27237517 0.78005165 -0.56332153
vn 0 -0.9972328 0.07434225
vn 0 -0.9972328 0.07434225
vn 0 -0.9972328 0.07434225
vn 0 -0.9972328 0.07434225
vn 0 -0.9972328 0.07434225
vn 0 -0.9972328 0.07434225
vn 0 -0.9972328 0.07434225
vn 0 -0.9972328 0.07434225
vn 0 -0.9972328 0.07434225
f 1//1 2//2 3//3
f 4//4 5//5 6//6
f 7//7 8//8 9//9
f 10//10 11//11 12//12
f 13//13 14//14 15//15
f 16//16 17//17 18//18
f 19//19 20//20 21//21
f 22//22 23//23 24//24
f 25//25 26//26 27//27
