# Exported from SharpOpenGl procedural mesh
o voidborn_drone_mk2_20
# vertices 225
v -0.11628889 0.025728265 -0.4813452
v 0.11628889 0.025728265 -0.4813452
v 0 0.08040083 -0.40993685
v -0.11628889 0.025728265 -0.4813452
v 0 0.08040083 -0.40993685
v -0.15553233 0.038066402 -0.32265997
v 0.11628889 0.025728265 -0.4813452
v 0.15553233 0.038066402 -0.32265997
v 0 0.11895751 -0.40993685
v -0.11628889 0 -0.4813452
v -0.15553233 0 -0.32265997
v 0.11628889 0 -0.4813452
v 0.11628889 0 -0.4813452
v -0.15553233 0 -0.32265997
v 0.15553233 0 -0.32265997
v -0.15553233 0.038066402 -0.32265997
v 0.15553233 0.038066402 -0.32265997
v 0 0.11895751 -0.2512516
v -0.15553233 0.038066402 -0.32265997
v 0 0.11895751 -0.2512516
v -0.18700315 0.047960825 -0.1639747
v 0.15553233 0.038066402 -0.32265997
v 0.18700315 0.047960825 -0.1639747
v 0 0.14987758 -0.2512516
v -0.15553233 0 -0.32265997
v -0.18700315 0 -0.1639747
v 0.15553233 0 -0.32265997
v 0.15553233 0 -0.32265997
v -0.18700315 0 -0.1639747
v 0.18700315 0 -0.1639747
v -0.18700315 0.047960825 -0.1639747
v 0.18700315 0.047960825 -0.1639747
v 0 0.14987758 -0.09256635
v -0.18700315 0.047960825 -0.1639747
v 0 0.14987758 -0.09256635
v -0.20446813 0.05345181 -0.005289465
v 0.18700315 0.047960825 -0.1639747
v 0.20446813 0.05345181 -0.005289465
v 0 0.1670369 -0.09256635
v -0.18700315 0 -0.1639747
v -0.20446813 0 -0.005289465
v 0.18700315 0 -0.1639747
v 0.18700315 0 -0.1639747
v -0.20446813 0 -0.005289465
v 0.20446813 0 -0.005289465
v -0.20446813 0.05345181 -0.005289465
v 0.20446813 0.05345181 -0.005289465
v 0 0.1670369 0.0661189
v -0.20446813 0.05345181 -0.005289465
v 0 0.1670369 0.0661189
v -0.20446813 0.05345181 0.1533958
v 0.20446813 0.05345181 -0.005289465
v 0.20446813 0.05345181 0.1533958
v 0 0.1670369 0.0661189
v -0.20446813 0 -0.005289465
v -0.20446813 0 0.1533958
v 0.20446813 0 -0.005289465
v 0.20446813 0 -0.005289465
v -0.20446813 0 0.1533958
v 0.20446813 0 0.1533958
v -0.20446813 0.05345181 0.1533958
v 0.20446813 0.05345181 0.1533958
v 0 0.1670369 0.22480413
v -0.20446813 0.05345181 0.1533958
v 0 0.1670369 0.22480413
v -0.18700312 0.047960814 0.312081
v 0.20446813 0.05345181 0.1533958
v 0.18700312 0.047960814 0.312081
v 0 0.14987755 0.22480413
v -0.20446813 0 0.1533958
v -0.18700312 0 0.312081
v 0.20446813 0 0.1533958
v 0.20446813 0 0.1533958
v -0.18700312 0 0.312081
v 0.18700312 0 0.312081
v -0.18700312 0.047960814 0.312081
v 0.18700312 0.047960814 0.312081
v 0 0.14987755 0.38348937
v -0.18700312 0.047960814 0.312081
v 0 0.14987755 0.38348937
v -0.18322016 0.038066402 0.47076628
v 0.18700312 0.047960814 0.312081
v 0.18322016 0.038066402 0.47076628
v 0 0.118957505 0.38348937
v -0.18700312 0 0.312081
v -0.18322016 0 0.47076628
v 0.18700312 0 0.312081
v 0.18700312 0 0.312081
v -0.18322016 0 0.47076628
v 0.18322016 0 0.47076628
v -0.18322016 0.038066402 0.47076628
v 0.18322016 0.038066402 0.47076628
v 0 0.118957505 0.54217464
v -0.18322016 0.038066402 0.47076628
v 0 0.118957505 0.54217464
v -0.116288885 0.025728263 0.6294515
v 0.18322016 0.038066402 0.47076628
v 0.116288885 0.025728263 0.6294515
v 0 0.080400825 0.54217464
v -0.18322016 0 0.47076628
v -0.116288885 0 0.6294515
v 0.18322016 0 0.47076628
v 0.18322016 0 0.47076628
v -0.116288885 0 0.6294515
v 0.116288885 0 0.6294515
v -0.038762964 0.033852983 -0.1781903
v 0.038762964 0.033852983 -0.1781903
v 0 0.10579057 -0.14290863
v -0.038762964 0.033852983 -0.1781903
v 0 0.10579057 -0.14290863
v -0.053952496 0.04778178 -0.09978657
v 0.038762964 0.033852983 -0.1781903
v 0.053952496 0.04778178 -0.09978657
v 0 0.14931807 -0.14290863
v -0.038762964 0 -0.1781903
v -0.053952496 0 -0.09978657
v 0.038762964 0 -0.1781903
v 0.038762964 0 -0.1781903
v -0.053952496 0 -0.09978657
v 0.053952496 0 -0.09978657
v -0.053952496 0.04778178 -0.09978657
v 0.053952496 0.04778178 -0.09978657
v 0 0.14931807 -0.06450489
v -0.053952496 0.04778178 -0.09978657
v 0 0.14931807 -0.06450489
v -0.06334014 0.056390252 -0.021382838
v 0.053952496 0.04778178 -0.09978657
v 0.06334014 0.056390252 -0.021382838
v 0 0.17621954 -0.06450489
v -0.053952496 0 -0.09978657
v -0.06334014 0 -0.021382838
v 0.053952496 0 -0.09978657
v 0.053952496 0 -0.09978657
v -0.06334014 0 -0.021382838
v 0.06334014 0 -0.021382838
v -0.06334014 0.056390252 -0.021382838
v 0.06334014 0.056390252 -0.021382838
v 0 0.17621954 0.013898846
v -0.06334014 0.056390252 -0.021382838
v 0 0.17621954 0.013898846
v -0.06334014 0.056390252 0.057020903
v 0.06334014 0.056390252 -0.021382838
v 0.06334014 0.056390252 0.057020903
v 0 0.17621954 0.013898846
v -0.06334014 0 -0.021382838
v -0.06334014 0 0.057020903
v 0.06334014 0 -0.021382838
v 0.06334014 0 -0.021382838
v -0.06334014 0 0.057020903
v 0.06334014 0 0.057020903
v -0.06334014 0.056390252 0.057020903
v 0.06334014 0.056390252 0.057020903
v 0 0.17621954 0.092302576
v -0.06334014 0.056390252 0.057020903
v 0 0.17621954 0.092302576
v -0.053952496 0.04778178 0.13542463
v 0.06334014 0.056390252 0.057020903
v 0.053952496 0.04778178 0.13542463
v 0 0.14931807 0.092302576
v -0.06334014 0 0.057020903
v -0.053952496 0 0.13542463
v 0.06334014 0 0.057020903
v 0.06334014 0 0.057020903
v -0.053952496 0 0.13542463
v 0.053952496 0 0.13542463
v -0.053952496 0.04778178 0.13542463
v 0.053952496 0.04778178 0.13542463
v 0 0.14931807 0.17070632
v -0.053952496 0.04778178 0.13542463
v 0 0.14931807 0.17070632
v -0.03876296 0.03385298 0.21382837
v 0.053952496 0.04778178 0.13542463
v 0.03876296 0.03385298 0.21382837
v 0 0.10579056 0.17070632
v -0.053952496 0 0.13542463
v -0.03876296 0 0.21382837
v 0.053952496 0 0.13542463
v 0.053952496 0 0.13542463
v -0.03876296 0 0.21382837
v 0.03876296 0 0.21382837
v -0.025583558 0.059242718 -0.37026557
v -0.14213087 0.15233843 -0.3379631
v -0.03126879 0.0414699 -0.39610755
v -0.025583558 0.059242718 -0.37026557
v -0.03126879 0.0414699 -0.39610755
v 0 0.05035631 -0.37026557
v -0.14213087 0.15233843 -0.3379631
v -0.025583558 0.059242718 -0.37026557
v 0 0.05035631 -0.37026557
v 0.03488667 0.08123088 -0.11725077
v 0.19381483 0.17349654 -0.0849483
v 0.042639263 0.056861613 -0.14309275
v 0.03488667 0.08123088 -0.11725077
v 0.042639263 0.056861613 -0.14309275
v 0 0.06904625 -0.11725077
v 0.19381483 0.17349654 -0.0849483
v 0.03488667 0.08123088 -0.11725077
v 0 0.06904625 -0.11725077
v -0.044189777 0.08123088 0.13576403
v -0.24549876 0.19465466 0.1680665
v -0.054009728 0.056861613 0.10992206
v -0.044189777 0.08123088 0.13576403
v -0.054009728 0.056861613 0.10992206
v 0 0.06904625 0.13576403
v -0.24549876 0.19465466 0.1680665
v -0.044189777 0.08123088 0.13576403
v 0 0.06904625 0.13576403
v 0.025583558 0.059242718 0.38877884
v 0.14213087 0.15233843 0.4210813
v 0.03126879 0.0414699 0.36293685
v 0.025583558 0.059242718 0.38877884
v 0.03126879 0.0414699 0.36293685
v 0 0.05035631 0.38877884
v 0.14213087 0.15233843 0.4210813
v 0.025583558 0.059242718 0.38877884
v 0 0.05035631 0.38877884
v -0.22611728 0.016926492 -0.5739116
v -0.26488024 0 -0.6591901
v -0.18735433 0 -0.6591901
v 0 0.016926492 -0.5739116
v -0.03876296 0 -0.6591901
v 0.03876296 0 -0.6591901
v 0.22611728 0.016926492 -0.5739116
v 0.18735433 0 -0.6591901
v 0.26488024 0 -0.6591901
vn 0 -0.7940026 0.60791427
vn 0 -0.7940026 0.60791427
vn 0 -0.7940026 0.60791427
vn 0.3400655 -0.92733836 0.15620211
vn 0.3400655 -0.92733836 0.15620211
vn 0.3400655 -0.92733836 0.15620211
vn -0.53698033 -0.82037026 0.19658284
vn -0.53698033 -0.82037026 0.19658284
vn -0.53698033 -0.82037026 0.19658284
vn 0 1 -0
vn 0 1 -0
vn 0 1 -0
vn 0 1 -0
vn 0 1 -0
vn 0 1 -0
vn 0 -0.661798 0.7496822
vn 0 -0.661798 0.7496822
vn 0 -0.661798 0.7496822
vn 0.4068328 -0.9031713 0.136999
vn 0.4068328 -0.9031713 0.136999
vn 0.4068328 -0.9031713 0.136999
vn -0.5280356 -0.83462805 0.15676235
vn -0.5280356 -0.83462805 0.15676235
vn -0.5280356 -0.83462805 0.15676235
vn 0 0.99999994 -0
vn 0 0.99999994 -0
vn 0 0.99999994 -0
vn 0 1 -0
vn 0 1 -0
vn 0 1 -0
vn 0 -0.5738216 0.8189803
vn 0 -0.5738216 0.8189803
vn 0 -0.5738216 0.8189803
vn 0.45308697 -0.88781625 0.08058809
vn 0.45308697 -0.88781625 0.08058809
vn 0.45308697 -0.88781625 0.08058809
vn -0.5115867 -0.85492814 0.08588858
vn -0.5115867 -0.85492814 0.08588858
vn -0.5115867 -0.85492814 0.08588858
vn 0 0.99999994 -0
vn 0 0.99999994 -0
vn 0 0.99999994 -0
vn 0 1 -0
vn 0 1 -0
vn 0 1 -0
vn 0 -0.5322358 0.8465962
vn 0 -0.5322358 0.8465962
vn 0 -0.5322358 0.8465962
vn 0.48561582 -0.87417233 0
vn 0.48561582 -0.87417233 0
vn 0.48561582 -0.87417233 0
vn -0.48561582 -0.87417233 0
vn -0.48561582 -0.87417233 0
vn -0.48561582 -0.87417233 0
vn 0 1 0
vn 0 1 0
vn 0 1 0
vn 0 1 -0
vn 0 1 -0
vn 0 1 -0
vn 0 -0.53223556 0.84659636
vn 0 -0.53223556 0.84659636
vn 0 -0.53223556 0.84659636
vn 0.5064749 -0.85801184 -0.08543285
vn 0.5064749 -0.85801184 -0.08543285
vn 0.5064749 -0.85801184 -0.08543285
vn -0.44792083 -0.8904768 -0.08011173
vn -0.44792083 -0.8904768 -0.08011173
vn -0.44792083 -0.8904768 -0.08011173
vn 0 1 0
vn 0 1 0
vn 0 1 0
vn 0 1 0
vn 0 1 0
vn 0 1 0
vn 0 -0.5738217 0.8189803
vn 0 -0.5738217 0.8189803
vn 0 -0.5738217 0.8189803
vn 0.49676335 -0.865388 -0.065801576
vn 0.49676335 -0.865388 -0.065801576
vn 0.49676335 -0.865388 -0.065801576
vn -0.37627238 -0.92411304 -0.06659079
vn -0.37627238 -0.92411304 -0.06659079
vn -0.37627238 -0.92411304 -0.06659079
vn 0 0.99999994 0
vn 0 0.99999994 0
vn 0 0.99999994 0
vn 0 1 0
vn 0 1 0
vn 0 1 0
vn 0 -0.661798 0.7496821
vn 0 -0.661798 0.7496821
vn 0 -0.661798 0.7496821
vn 0.47405142 -0.8396003 -0.26522928
vn 0.47405142 -0.8396003 -0.26522928
vn 0.47405142 -0.8396003 -0.26522928
vn -0.29271272 -0.93584955 -0.19622669
vn -0.29271272 -0.93584955 -0.19622669
vn -0.29271272 -0.93584955 -0.19622669
vn 0 1 0
vn 0 1 0
vn 0 1 0
vn 0 1 0
vn 0 1 0
vn 0 1 0
vn 0 -0.44033983 0.89783114
vn 0 -0.44033983 0.89783114
vn 0 -0.44033983 0.89783114
vn 0.79488343 -0.5519339 0.25205028
vn 0.79488343 -0.5519339 0.25205028
vn 0.79488343 -0.5519339 0.25205028
vn -0.89580715 -0.3740688 0.24000414
vn -0.89580715 -0.3740688 0.24000414
vn -0.89580715 -0.3740688 0.24000414
vn 0 1 -0
vn 0 1 -0
vn 0 1 -0
vn 0 1 -0
vn 0 1 -0
vn 0 1 -0
vn 0 -0.32822776 0.9445987
vn 0 -0.32822776 0.9445987
vn 0 -0.32822776 0.9445987
vn 0.8484551 -0.5054195 0.15708289
vn 0.8484551 -0.5054195 0.15708289
vn 0.8484551 -0.5054195 0.15708289
vn -0.89536715 -0.41817653 0.15312089
vn -0.89536715 -0.41817653 0.15312089
vn -0.89536715 -0.41817653 0.15312089
vn 0 1 -0
vn 0 1 -0
vn 0 1 -0
vn 0 1 -0
vn 0 1 -0
vn 0 1 -0
vn 0 -0.2824447 0.95928365
vn 0 -0.2824447 0.95928365
vn 0 -0.2824447 0.95928365
vn 0.8840894 -0.46731773 0
vn 0.8840894 -0.46731773 0
vn 0.8840894 -0.46731773 0
vn -0.8840894 -0.46731773 0
vn -0.8840894 -0.46731773 0
vn -0.8840894 -0.46731773 0
vn 0 1 0
vn 0 1 0
vn 0 1 0
vn 0 1 -0
vn 0 1 -0
vn 0 1 -0
vn 0 -0.2824446 0.95928365
vn 0 -0.2824446 0.95928365
vn 0 -0.2824446 0.95928365
vn 0.89156896 -0.42606634 -0.15353242
vn 0.89156896 -0.42606634 -0.15353242
vn 0.89156896 -0.42606634 -0.15353242
vn -0.8428006 -0.51468915 -0.15742365
vn -0.8428006 -0.51468915 -0.15742365
vn -0.8428006 -0.51468915 -0.15742365
vn 0 0.99999994 0
vn 0 0.99999994 0
vn 0 0.99999994 0
vn 0 1 0
vn 0 1 0
vn 0 1 0
vn 0 -0.3282278 0.9445986
vn 0 -0.3282278 0.9445986
vn 0 -0.3282278 0.9445986
vn 0.88922393 -0.38864648 -0.24131855
vn 0.88922393 -0.38864648 -0.24131855
vn 0.88922393 -0.38864648 -0.24131855
vn -0.78032327 -0.5720055 -0.25279534
vn -0.78032327 -0.5720055 -0.25279534
vn -0.78032327 -0.5720055 -0.25279534
vn 0 1 0
vn 0 1 0
vn 0 1 0
vn 0 1 0
vn 0 1 0
vn 0 1 0
vn -0.40624306 -0.70871526 0.5767922
vn -0.40624306 -0.70871526 0.5767922
vn -0.40624306 -0.70871526 0.5767922
vn -0.26604426 -0.76592916 0.5852973
vn -0.26604426 -0.76592916 0.5852973
vn -0.26604426 -0.76592916 0.5852973
vn -0.17880975 -0.5147849 0.838465
vn -0.17880975 -0.5147849 0.838465
vn -0.17880975 -0.5147849 0.838465
vn -0.24473016 0.66769254 -0.7030603
vn -0.24473016 0.66769254 -0.7030603
vn -0.24473016 0.66769254 -0.7030603
vn -0.2344181 0.671179 -0.70325446
vn -0.2344181 0.671179 -0.70325446
vn -0.2344181 0.671179 -0.70325446
vn -0.22466044 0.64324117 -0.7319621
vn -0.22466044 0.64324117 -0.7319621
vn -0.22466044 0.64324117 -0.7319621
vn -0.25390688 -0.6536763 0.7129086
vn -0.25390688 -0.6536763 0.7129086
vn -0.25390688 -0.6536763 0.7129086
vn -0.18701279 -0.67823607 0.71064895
vn -0.18701279 -0.67823607 0.71064895
vn -0.18701279 -0.67823607 0.71064895
vn -0.1331161 -0.48276976 0.8655712
vn -0.1331161 -0.48276976 0.8655712
vn -0.1331161 -0.48276976 0.8655712
vn -0.40624306 0.70871526 -0.5767922
vn -0.40624306 0.70871526 -0.5767922
vn -0.40624306 0.70871526 -0.5767922
vn -0.26604426 0.76592916 -0.5852973
vn -0.26604426 0.76592916 -0.5852973
vn -0.26604426 0.76592916 -0.5852973
vn -0.17880975 0.5147849 -0.838465
vn -0.17880975 0.5147849 -0.838465
vn -0.17880975 0.5147849 -0.838465
vn 0 -0.98086536 0.19468692
vn 0 -0.98086536 0.19468692
vn 0 -0.98086536 0.19468692
vn 0 -0.98086536 0.1946869
vn 0 -0.98086536 0.1946869
vn 0 -0.98086536 0.1946869
vn 0 -0.98086536 0.19468692
vn 0 -0.98086536 0.19468692
vn 0 -0.98086536 0.19468692
f 1//1 2//2 3//3
f 4//4 5//5 6//6
f 7//7 8//8 9//9
f 10//10 11//11 12//12
f 13//13 14//14 15//15
f 16//16 17//17 18//18
f 19//19 20//20 21//21
f 22//22 23//23 24//24
f 25//25 26//26 27//27
f 28//28 29//29 30//30
f 31//31 32//32 33//33
f 34//34 35//35 36//36
f 37//37 38//38 39//39
f 40//40 41//41 42//42
f 43//43 44//44 45//45
f 46//46 47//47 48//48
f 49//49 50//50 51//51
f 52//52 53//53 54//54
f 55//55 56//56 57//57
f 58//58 59//59 60//60
f 61//61 62//62 63//63
f 64//64 65//65 66//66
f 67//67 68//68 69//69
f 70//70 71//71 72//72
f 73//73 74//74 75//75
f 76//76 77//77 78//78
f 79//79 80//80 81//81
f 82//82 83//83 84//84
f 85//85 86//86 87//87
f 88//88 89//89 90//90
f 91//91 92//92 93//93
f 94//94 95//95 96//96
f 97//97 98//98 99//99
f 100//100 101//101 102//102
f 103//103 104//104 105//105
f 106//106 107//107 108//108
f 109//109 110//110 111//111
f 112//112 113//113 114//114
f 115//115 116//116 117//117
f 118//118 119//119 120//120
f 121//121 122//122 123//123
f 124//124 125//125 126//126
f 127//127 128//128 129//129
f 130//130 131//131 132//132
f 133//133 134//134 135//135
f 136//136 137//137 138//138
f 139//139 140//140 141//141
f 142//142 143//143 144//144
f 145//145 146//146 147//147
f 148//148 149//149 150//150
f 151//151 152//152 153//153
f 154//154 155//155 156//156
f 157//157 158//158 159//159
f 160//160 161//161 162//162
f 163//163 164//164 165//165
f 166//166 167//167 168//168
f 169//169 170//170 171//171
f 172//172 173//173 174//174
f 175//175 176//176 177//177
f 178//178 179//179 180//180
f 181//181 182//182 183//183
f 184//184 185//185 186//186
f 187//187 188//188 189//189
f 190//190 191//191 192//192
f 193//193 194//194 195//195
f 196//196 197//197 198//198
f 199//199 200//200 201//201
f 202//202 203//203 204//204
f 205//205 206//206 207//207
f 208//208 209//209 210//210
f 211//211 212//212 213//213
f 214//214 215//215 216//216
f 217//217 218//218 219//219
f 220//220 221//221 222//222
f 223//223 224//224 225//225
