# Exported from SharpOpenGl procedural mesh
o voidborn_bomber_mk2_24
# vertices 381
v -0.59739864 0.121217966 -1.569777
v 0.59739864 0.121217966 -1.569777
v 0 0.37880614 -1.3637438
v -0.59739864 0.121217966 -1.569777
v 0 0.37880614 -1.3637438
v -0.4297706 0.17920311 -1.1119254
v 0.59739864 0.121217966 -1.569777
v 1.0952476 0.17920311 -1.1119254
v 0.33273852 0.5600097 -1.3637438
v -0.59739864 0 -1.569777
v -0.4297706 0 -1.1119254
v 0.59739864 0 -1.569777
v 0.59739864 0 -1.569777
v -0.4297706 0 -1.1119254
v 1.0952476 0 -1.1119254
v -0.4297706 0.17920311 -1.1119254
v 1.0952476 0.17920311 -1.1119254
v 0.33273852 0.5600097 -0.90589213
v -0.4297706 0.17920311 -1.1119254
v 0.33273852 0.5600097 -0.90589213
v -0.30953872 0.22836052 -0.6540738
v 1.0952476 0.17920311 -1.1119254
v 1.4954274 0.22836052 -0.6540738
v 0.5929443 0.7136266 -0.90589213
v -0.4297706 0 -1.1119254
v -0.30953872 0 -0.6540738
v 1.0952476 0 -1.1119254
v 1.0952476 0 -1.1119254
v -0.30953872 0 -0.6540738
v 1.4954274 0 -0.6540738
v -0.30953872 0.22836052 -0.6540738
v 1.4954274 0.22836052 -0.6540738
v 0.5929443 0.7136266 -0.44804054
v -0.30953872 0.22836052 -0.6540738
v 0.5929443 0.7136266 -0.44804054
v -0.27211452 0.26120648 -0.19622219
v 1.4954274 0.22836052 -0.6540738
v 1.7199066 0.26120648 -0.19622219
v 0.723896 0.81627023 -0.44804054
v -0.30953872 0 -0.6540738
v -0.27211452 0 -0.19622219
v 1.4954274 0 -0.6540738
v 1.4954274 0 -0.6540738
v -0.27211452 0 -0.19622219
v 1.7199066 0 -0.19622219
v -0.27211452 0.26120648 -0.19622219
v 1.7199066 0.26120648 -0.19622219
v 0.723896 0.81627023 0.009811044
v -0.27211452 0.26120648 -0.19622219
v 0.723896 0.81627023 0.009811044
v -0.3318054 0.27274042 0.26162946
v 1.7199066 0.26120648 -0.19622219
v 1.7259009 0.27274042 0.26162946
v 0.69704777 0.8523138 0.009811044
v -0.27211452 0 -0.19622219
v -0.3318054 0 0.26162946
v 1.7199066 0 -0.19622219
v 1.7199066 0 -0.19622219
v -0.3318054 0 0.26162946
v 1.7259009 0 0.26162946
v -0.3318054 0.27274042 0.26162946
v 1.7259009 0.27274042 0.26162946
v 0.69704777 0.8523138 0.46766263
v -0.3318054 0.27274042 0.26162946
v 0.69704777 0.8523138 0.46766263
v -0.47775835 0.26120648 0.719481
v 1.7259009 0.27274042 0.26162946
v 1.5142627 0.26120648 0.719481
v 0.5182522 0.81627023 0.46766263
v -0.3318054 0 0.26162946
v -0.47775835 0 0.719481
v 1.7259009 0 0.26162946
v 1.7259009 0 0.26162946
v -0.47775835 0 0.719481
v 1.5142627 0 0.719481
v -0.47775835 0.26120648 0.719481
v 1.5142627 0.26120648 0.719481
v 0.5182522 0.81627023 0.9255142
v -0.47775835 0.26120648 0.719481
v 0.5182522 0.81627023 0.9255142
v -0.6759986 0.22836052 1.1773326
v 1.5142627 0.26120648 0.719481
v 1.1289675 0.22836052 1.1773326
v 0.22648442 0.7136266 0.9255142
v -0.47775835 0 0.719481
v -0.6759986 0 1.1773326
v 1.5142627 0 0.719481
v 1.5142627 0 0.719481
v -0.6759986 0 1.1773326
v 1.1289675 0 1.1773326
v -0.6759986 0.22836052 1.1773326
v 1.1289675 0.22836052 1.1773326
v 0.22648442 0.7136266 1.3833659
v -0.6759986 0.22836052 1.1773326
v 0.22648442 0.7136266 1.3833659
v -0.95259225 0.17920306 1.6351843
v 1.1289675 0.22836052 1.1773326
v 0.723284 0.17920306 1.6351843
v -0.114654146 0.5600096 1.3833659
v -0.6759986 0 1.1773326
v -0.95259225 0 1.6351843
v 1.1289675 0 1.1773326
v 1.1289675 0 1.1773326
v -0.95259225 0 1.6351843
v 0.723284 0 1.6351843
v -0.95259225 0.17920306 1.6351843
v 0.723284 0.17920306 1.6351843
v -0.114654146 0.5600096 1.8412175
v -0.95259225 0.17920306 1.6351843
v -0.114654146 0.5600096 1.8412175
v -1.028198 0.12121795 2.093036
v 0.723284 0.17920306 1.6351843
v 0.16659912 0.12121795 2.093036
v -0.43079945 0.3788061 1.8412175
v -0.95259225 0 1.6351843
v -1.028198 0 2.093036
v 0.723284 0 1.6351843
v 0.723284 0 1.6351843
v -1.028198 0 2.093036
v 0.16659912 0 2.093036
v -0.1536519 0.14546154 0.09069822
v 0.1536519 0.14546154 0.09069822
v 0 0.45456734 0.19953609
v -0.1536519 0.14546154 0.09069822
v 0 0.45456734 0.19953609
v -0.14084758 0.17980663 0.33256015
v 0.1536519 0.14546154 0.09069822
v 0.14084758 0.17980663 0.33256015
v 0 0.5618957 0.19953609
v -0.1536519 0 0.09069822
v -0.14084758 0 0.33256015
v 0.1536519 0 0.09069822
v 0.1536519 0 0.09069822
v -0.14084758 0 0.33256015
v 0.14084758 0 0.33256015
v -0.14084758 0.17980663 0.33256015
v 0.14084758 0.17980663 0.33256015
v 0 0.5618957 0.44139802
v -0.14084758 0.17980663 0.33256015
v 0 0.5618957 0.44139802
v -0.12804323 0.21415173 0.57442206
v 0.14084758 0.17980663 0.33256015
v 0.12804323 0.21415173 0.57442206
v 0 0.66922414 0.44139802
v -0.14084758 0 0.33256015
v -0.12804323 0 0.57442206
v 0.14084758 0 0.33256015
v 0.14084758 0 0.33256015
v -0.12804323 0 0.57442206
v 0.12804323 0 0.57442206
v -0.12804323 0.21415173 0.57442206
v 0.12804323 0.21415173 0.57442206
v 0 0.66922414 0.68325996
v -0.12804323 0.21415173 0.57442206
v 0 0.66922414 0.68325996
v -0.11523892 0.24849682 0.816284
v 0.12804323 0.21415173 0.57442206
v 0.11523892 0.24849682 0.816284
v 0 0.77655256 0.68325996
v -0.12804323 0 0.57442206
v -0.11523892 0 0.816284
v 0.12804323 0 0.57442206
v 0.12804323 0 0.57442206
v -0.11523892 0 0.816284
v 0.11523892 0 0.816284
v -0.6299728 0.16858643 -1.3953573
v -0.6299728 0.67434573 -1.3953573
v 1.2599455 0.25853518 -1.3953573
v 0.067074955 0.16858643 0.05813992
v 0.067074955 0.67434573 0.05813992
v 1.9569933 0.25853518 0.05813992
v -1.0607723 0.16858643 1.5116371
v -1.0607723 0.67434573 1.5116371
v 0.829146 0.25853518 1.5116371
v -0.39949492 0 -0.058139887
v 0.39949492 0 -0.058139887
v 0 0.094701536 0.17441966
v -0.049168605 0.24622399 -0.17441966
v -0.06146076 0.17728128 -0.22051522
v 0 0.2092904 -0.17441966
v 0.06637762 0.24622399 0.63953876
v 0.08297203 0.17728128 0.5934432
v 0 0.2092904 0.63953876
v -0.09895182 0.15152246 0.016279168
v 0.054700073 0.15152246 0.016279168
v -0.022125874 0.47350767 0.02116292
v -0.09895182 0.17374574 0.027131947
v 0.054700073 0.17374574 0.027131947
v -0.022125874 0.54295546 0.032015696
v -0.09895182 0.19596903 0.037984725
v 0.054700073 0.19596903 0.037984725
v -0.022125874 0.6124032 0.042868473
v -0.054700073 0.15152246 0.016279168
v 0.09895182 0.15152246 0.016279168
v 0.022125874 0.47350767 0.02116292
v -0.054700073 0.17374574 0.027131947
v 0.09895182 0.17374574 0.027131947
v 0.022125874 0.54295546 0.032015696
v -0.054700073 0.19596903 0.037984725
v 0.09895182 0.19596903 0.037984725
v 0.022125874 0.6124032 0.042868473
v -0.1536519 0.20834337 1.8604764
v 0.1536519 0.20834337 1.8604764
v 0 0.34092554 2.034896
v -0.24584302 0 -1.3953573
v 0.24584302 0 -1.3953573
v 0.24584302 0.13258214 -1.3953573
v -0.24584302 0 -1.3953573
v 0.24584302 0.13258214 -1.3953573
v -0.24584302 0.13258214 -1.3953573
v -0.24584302 0 -1.1046579
v 0.24584302 0.13258214 -1.1046579
v 0.24584302 0 -1.1046579
v -0.24584302 0 -1.1046579
v -0.24584302 0.13258214 -1.1046579
v 0.24584302 0.13258214 -1.1046579
v -0.24584302 0 -1.3953573
v -0.24584302 0 -1.1046579
v 0.24584302 0 -1.1046579
v -0.24584302 0 -1.3953573
v 0.24584302 0 -1.1046579
v 0.24584302 0 -1.3953573
v -0.24584302 0.13258214 -1.3953573
v 0.24584302 0.13258214 -1.1046579
v -0.24584302 0.13258214 -1.1046579
v -0.24584302 0.13258214 -1.3953573
v 0.24584302 0.13258214 -1.3953573
v 0.24584302 0.13258214 -1.1046579
v -0.24584302 0 -1.3953573
v -0.24584302 0.13258214 -1.3953573
v -0.24584302 0.13258214 -1.1046579
v -0.24584302 0 -1.3953573
v -0.24584302 0.13258214 -1.1046579
v -0.24584302 0 -1.1046579
v 0.24584302 0 -1.3953573
v 0.24584302 0 -1.1046579
v 0.24584302 0.13258214 -1.1046579
v 0.24584302 0 -1.3953573
v 0.24584302 0.13258214 -1.1046579
v 0.24584302 0.13258214 -1.3953573
v -0.09219114 0.41668674 0.23255955
v 0.09219114 0.41668674 0.23255955
v 0 0.47350767 0.3488393
v -0.5337189 0.3918684 -0.11399978
v 0.5337189 0.3918684 -0.11399978
v 0.05 0.4571798 -0.09689981
v -0.19227025 0.4245241 0.7979984
v 0.19227025 0.4245241 0.7979984
v 0.05 0.48983553 0.8150984
v -0.37681082 0.040819626 0.11399978
v 0.47681084 0.040819626 0.11399978
v 0.05 0.08980318 0.13679974
v -0.31278917 0.040819626 0.28499943
v 0.4127892 0.040819626 0.28499943
v 0.05 0.08980318 0.3077994
v -0.63289726 0.0326557 -0.17099966
v 0.7328973 0.0326557 -0.17099966
v 0.05 0.0979671 -0.1481997
v -0.4007122 0.0326557 0.7409985
v 0.5007122 0.0326557 0.7409985
v 0.05 0.11429495 0.7637985
v -0.562173 0.1632785 0.05699989
v -0.5194919 0.1959342 0.08549983
v -0.562173 0.1306228 0.09119982
v -0.53371894 0.14695066 0.06839987
v -0.562173 0.17960636 0.079799846
v -0.547946 0.11429495 0.08549983
v -0.562173 0.1632785 0.22799955
v -0.5194919 0.1959342 0.2564995
v -0.562173 0.1306228 0.2621995
v 0.562173 0.1632785 0.05699989
v 0.5194919 0.1959342 0.08549983
v 0.562173 0.1306228 0.09119982
v 0.53371894 0.14695066 0.06839987
v 0.562173 0.17960636 0.079799846
v 0.547946 0.11429495 0.08549983
v 0.562173 0.1632785 0.22799955
v 0.5194919 0.1959342 0.2564995
v 0.562173 0.1306228 0.2621995
v -0.41990268 0.37554058 -0.05699989
v 0.41990268 0.37554058 -0.05699989
v 0.05 0.40819627 -0.039899923
v -0.30232996 0.3918684 -0.048449904
v 0.30232996 0.3918684 -0.048449904
v 0.05 0.4245241 -0.037049927
v -0.35588107 0.38370448 0.1424997
v 0.35588107 0.38370448 0.1424997
v 0.05 0.4163602 0.15959966
v -0.29185945 0.39186844 0.3419993
v 0.29185945 0.39186844 0.3419993
v 0.05 0.4245241 0.35909927
v -0.21013881 0.40819627 0.35054928
v 0.21013881 0.40819627 0.35054928
v 0.05 0.44085193 0.36194927
v -0.22783783 0.40003234 0.5414989
v 0.22783783 0.40003234 0.5414989
v 0.05 0.43268803 0.5585989
v -0.16381621 0.40819627 0.7409985
v 0.16381621 0.40819627 0.7409985
v 0.05 0.440852 0.7580985
v -0.117947675 0.4245241 0.7495485
v 0.117947675 0.4245241 0.7495485
v 0.05 0.4571798 0.7609485
v -0.09227027 0.0326557 -0.28499946
v 0.19227026 0.0326557 -0.28499946
v 0.05 0.08163925 -0.22799955
v -0.34144866 0.0326557 -0.34199932
v -0.17072433 0.0326557 -0.34199932
v -0.2560865 0.08163925 -0.22799955
v -0.08536216 0.0326557 -0.34199932
v 0.08536216 0.0326557 -0.34199932
v 0 0.08163925 -0.22799955
v 0.17072433 0.0326557 -0.34199932
v 0.34144866 0.0326557 -0.34199932
v 0.2560865 0.08163925 -0.22799955
v -0.28454053 0.0326557 0.17099966
v 0.28454053 0.0326557 0.17099966
v 0 0.08163925 0.28499946
v -0.18763241 0.0326557 0.05699989
v 0.26763242 0.0326557 0.05699989
v 0.04 0.07347533 0.07409985
v -0.15633297 0.039186843 0.19379963
v 0.23633295 0.039186843 0.19379963
v 0.04 0.080006465 0.21089959
v -0.1250335 0.045717984 0.33059937
v 0.20503351 0.045717984 0.33059937
v 0.04 0.086537614 0.34769934
v -0.09373405 0.05224912 0.4673991
v 0.17373404 0.05224912 0.4673991
v 0.04 0.09306875 0.48449907
v -0.06243459 0.05878026 0.6041988
v 0.1424346 0.05878026 0.6041988
v 0.04 0.09959988 0.6212988
v -0.031135127 0.0653114 0.7409985
v 0.111135125 0.0653114 0.7409985
v 0.04 0.10613103 0.7580985
v -0.13072431 0.0653114 0.22799955
v 0.21072432 0.0653114 0.22799955
v 0.04 0.11429495 0.24509951
v -0.09515675 0.0653114 0.3989992
v 0.17515674 0.0653114 0.3989992
v 0.04 0.11429495 0.4160992
v -0.059589185 0.0653114 0.56999886
v 0.13958919 0.0653114 0.56999886
v 0.04 0.11429495 0.58709884
v -0.10227027 0.35921273 -0.05699989
v 0.18227026 0.35921273 -0.05699989
v 0.04 0.40819627 -0.042749915
v -0.08092973 0.3714586 0.11399977
v 0.16092972 0.3714586 0.11399977
v 0.04 0.42044213 0.12824973
v -0.059589185 0.38370448 0.28499943
v 0.13958919 0.38370448 0.28499943
v 0.04 0.43268803 0.2992494
v -0.03824865 0.39595038 0.4559991
v 0.11824865 0.39595038 0.4559991
v 0.04 0.44493392 0.4702491
v -0.016908105 0.40819627 0.6269988
v 0.09690811 0.40819627 0.6269988
v 0.04 0.4571798 0.64124876
v -0.10227027 0.04898355 -0.22799955
v 0.18227026 0.04898355 -0.22799955
v 0.04 0.0979671 -0.21374959
v -0.10227027 0.04898355 -0.3134994
v 0.18227026 0.04898355 -0.3134994
v 0.04 0.0979671 -0.2992494
v -0.10227027 0.04898355 -0.3989992
v 0.18227026 0.04898355 -0.3989992
v 0.04 0.0979671 -0.38474923
v -0.08536216 0.17960636 2.569555
v 0.08536216 0.17960636 2.569555
v 0 0.35921273 2.7929945
v -0.04268108 0.326557 2.7092047
v 0.04268108 0.326557 2.7092047
v 0 0.3918684 2.7929945
v -0.11381621 0.72103786 0.34199932
v 0.11381621 0.72103786 0.34199932
v 0 0.7837368 0.4559991
v -0.17072432 0.04898355 -0.4559991
v 0.17072432 0.04898355 -0.4559991
v 0 0.11429495 -0.34199932
vn 0 -0.6246261 0.780924
vn 0 -0.6246261 0.780924
vn 0 -0.6246261 0.780924
vn 0.40520564 -0.91364264 -0.03264406
vn 0.40520564 -0.91364264 -0.03264406
vn 0.40520564 -0.91364264 -0.03264406
vn -0.5042307 -0.59707904 0.62389743
vn -0.5042307 -0.59707904 0.62389743
vn -0.5042307 -0.59707904 0.62389743
vn 0 1 0
vn 0 1 0
vn 0 1 0
vn 0 1 -0
vn 0 1 -0
vn 0 1 -0
vn 0 -0.4758598 0.8795211
vn 0 -0.4758598 0.8795211
vn 0 -0.4758598 0.8795211
vn 0.45160723 -0.89192474 -0.022830265
vn 0.45160723 -0.89192474 -0.022830265
vn 0.45160723 -0.89192474 -0.022830265
vn -0.51241 -0.68252707 0.52114564
vn -0.51241 -0.68252707 0.52114564
vn -0.51241 -0.68252707 0.52114564
vn 0 1 0
vn 0 1 0
vn 0 1 0
vn 0 1 -0
vn 0 1 -0
vn 0 1 -0
vn 0 -0.3908115 0.9204707
vn 0 -0.3908115 0.9204707
vn 0 -0.3908115 0.9204707
vn 0.46899927 -0.8828446 0.024999265
vn 0.46899927 -0.8828446 0.024999265
vn 0.46899927 -0.8828446 0.024999265
vn -0.52148515 -0.79392296 0.31263348
vn -0.52148515 -0.79392296 0.31263348
vn -0.52148515 -0.79392296 0.31263348
vn 0 1 0
vn 0 1 0
vn 0 1 0
vn 0 1 -0
vn 0 1 -0
vn 0 1 -0
vn 0 -0.3479887 0.93749875
vn 0 -0.3479887 0.93749875
vn 0 -0.3479887 0.93749875
vn 0.471838 -0.8777104 0.08362511
vn 0.471838 -0.8777104 0.08362511
vn 0.471838 -0.8777104 0.08362511
vn -0.49586597 -0.8679359 0.028356574
vn -0.49586597 -0.8679359 0.028356574
vn -0.49586597 -0.8679359 0.028356574
vn 0 1 -0
vn 0 1 -0
vn 0 1 -0
vn 0 1 -0
vn 0 1 -0
vn 0 1 -0
vn 0 -0.33495572 0.94223386
vn 0 -0.33495572 0.94223386
vn 0 -0.33495572 0.94223386
vn 0.46741053 -0.8748761 0.12696072
vn 0.46741053 -0.8748761 0.12696072
vn 0.46741053 -0.8748761 0.12696072
vn -0.43139645 -0.8745633 -0.22144108
vn -0.43139645 -0.8745633 -0.22144108
vn -0.43139645 -0.8745633 -0.22144108
vn 0 1 -0
vn 0 1 -0
vn 0 1 -0
vn 0 0.99999994 0
vn 0 0.99999994 0
vn 0 0.99999994 0
vn 0 -0.3479887 0.93749875
vn 0 -0.3479887 0.93749875
vn 0 -0.3479887 0.93749875
vn 0.4605501 -0.8770773 0.13648775
vn 0.4605501 -0.8770773 0.13648775
vn 0.4605501 -0.8770773 0.13648775
vn -0.36002642 -0.8587566 -0.36457905
vn -0.36002642 -0.8587566 -0.36457905
vn -0.36002642 -0.8587566 -0.36457905
vn 0 1 -0
vn 0 1 -0
vn 0 1 -0
vn 0 1 0
vn 0 1 0
vn 0 1 0
vn 0 -0.3908115 0.9204708
vn 0 -0.3908115 0.9204708
vn 0 -0.3908115 0.9204708
vn 0.43659443 -0.8836663 0.16887666
vn 0.43659443 -0.8836663 0.16887666
vn 0.43659443 -0.8836663 0.16887666
vn -0.29545873 -0.8861711 -0.35693803
vn -0.29545873 -0.8861711 -0.35693803
vn -0.29545873 -0.8861711 -0.35693803
vn 0 1 -0
vn 0 1 -0
vn 0 1 -0
vn 0 1 0
vn 0 1 0
vn 0 1 0
vn 0 -0.47585994 0.87952113
vn 0 -0.47585994 0.87952113
vn 0 -0.47585994 0.87952113
vn 0.42244622 -0.90527564 -0.04489041
vn 0.42244622 -0.90527564 -0.04489041
vn 0.42244622 -0.90527564 -0.04489041
vn -0.2236271 -0.8952912 -0.38528502
vn -0.2236271 -0.8952912 -0.38528502
vn -0.2236271 -0.8952912 -0.38528502
vn 0 1 -0
vn 0 1 -0
vn 0 1 -0
vn 0 1 0
vn 0 1 0
vn 0 1 0
vn 0 -0.33211914 0.9432375
vn 0 -0.33211914 0.9432375
vn 0 -0.33211914 0.9432375
vn 0.89300525 -0.44974044 0.0165882
vn 0.89300525 -0.44974044 0.0165882
vn 0.89300525 -0.44974044 0.0165882
vn -0.93822086 -0.3460368 -0.00053175515
vn -0.93822086 -0.3460368 -0.00053175515
vn -0.93822086 -0.3460368 -0.00053175515
vn 0 1 0
vn 0 1 0
vn 0 1 0
vn 0 1 0
vn 0 1 0
vn 0 1 0
vn 0 -0.2739521 0.9617434
vn 0 -0.2739521 0.9617434
vn 0 -0.2739521 0.9617434
vn 0.93833464 -0.3457279 -0.00058175717
vn 0.93833464 -0.3457279 -0.00058175717
vn 0.93833464 -0.3457279 -0.00058175717
vn -0.9616326 -0.27407828 -0.011989622
vn -0.9616326 -0.27407828 -0.011989622
vn -0.9616326 -0.27407828 -0.011989622
vn 0 1 0
vn 0 1 0
vn 0 1 0
vn 0 1 0
vn 0 1 0
vn 0 1 0
vn 0 -0.23260604 0.972571
vn 0 -0.23260604 0.972571
vn 0 -0.23260604 0.972571
vn 0.9633436 -0.26795796 -0.012949183
vn 0.9633436 -0.26795796 -0.012949183
vn 0.9633436 -0.26795796 -0.012949183
vn -0.9756987 -0.21813817 -0.020677822
vn -0.9756987 -0.21813817 -0.020677822
vn -0.9756987 -0.21813817 -0.020677822
vn 0 0.99999994 0
vn 0 0.99999994 0
vn 0 0.99999994 0
vn 0 1 0
vn 0 1 0
vn 0 1 0
vn 0 0 -1
vn 0 0 -1
vn 0 0 -1
vn 0 0 -1
vn 0 0 -1
vn 0 0 -1
vn 0 0 -1
vn 0 0 -1
vn 0 0 -1
vn 0 -0.9261549 0.37714338
vn 0 -0.9261549 0.37714338
vn 0 -0.9261549 0.37714338
vn -0.356465 -0.47455147 0.80481905
vn -0.356465 -0.47455147 0.80481905
vn -0.356465 -0.47455147 0.80481905
vn -0.27196112 0.48877275 -0.82893807
vn -0.27196112 0.48877275 -0.82893807
vn -0.27196112 0.48877275 -0.82893807
vn 0 -0.015165881 0.999885
vn 0 -0.015165881 0.999885
vn 0 -0.015165881 0.999885
vn 0 -0.013226419 0.99991256
vn 0 -0.013226419 0.99991256
vn 0 -0.013226419 0.99991256
vn 0 -0.011726732 0.99993134
vn 0 -0.011726732 0.99993134
vn 0 -0.011726732 0.99993134
vn 0 -0.015165881 0.999885
vn 0 -0.015165881 0.999885
vn 0 -0.015165881 0.999885
vn 0 -0.013226419 0.99991256
vn 0 -0.013226419 0.99991256
vn 0 -0.013226419 0.99991256
vn 0 -0.011726732 0.99993134
vn 0 -0.011726732 0.99993134
vn 0 -0.011726732 0.99993134
vn 0 -0.79611087 0.60515076
vn 0 -0.79611087 0.60515076
vn 0 -0.79611087 0.60515076
vn 0 0 1
vn 0 0 1
vn 0 0 1
vn 0 0 1
vn 0 0 1
vn 0 0 1
vn 0 0 -1
vn 0 0 -1
vn 0 0 -1
vn 0 0 -1
vn 0 0 -1
vn 0 0 -1
vn 0 1 0
vn 0 1 0
vn 0 1 0
vn 0 1 0
vn 0 1 0
vn 0 1 0
vn 0 -1 0
vn 0 -1 0
vn 0 -1 0
vn 0 -1 0
vn 0 -1 0
vn 0 -1 0
vn 1 0 0
vn 1 0 0
vn 1 0 0
vn 1 0 0
vn 1 0 0
vn 1 0 0
vn -1 0 0
vn -1 0 0
vn -1 0 0
vn -1 0 0
vn -1 0 0
vn -1 0 0
vn 0 -0.8984665 0.43904197
vn 0 -0.8984665 0.43904197
vn 0 -0.8984665 0.43904197
vn 0 -0.2532846 0.9673919
vn 0 -0.2532846 0.9673919
vn 0 -0.2532846 0.9673919
vn 0 -0.25328457 0.96739185
vn 0 -0.25328457 0.96739185
vn 0 -0.25328457 0.96739185
vn 0 -0.42198807 0.90660137
vn 0 -0.42198807 0.90660137
vn 0 -0.42198807 0.90660137
vn 0 -0.4219882 0.90660125
vn 0 -0.4219882 0.90660125
vn 0 -0.4219882 0.90660125
vn 0 -0.32959005 0.9441242
vn 0 -0.32959005 0.9441242
vn 0 -0.32959005 0.9441242
vn 0 -0.2689842 0.9631446
vn 0 -0.2689842 0.9631446
vn 0 -0.2689842 0.9631446
vn 0.71217734 -0.50771886 -0.48479378
vn 0.71217734 -0.50771886 -0.48479378
vn 0.71217734 -0.50771886 -0.48479378
vn 0.54520094 0.19002107 0.8164851
vn 0.54520094 0.19002107 0.8164851
vn 0.54520094 0.19002107 0.8164851
vn 0.7121774 -0.50771886 -0.48479372
vn 0.7121774 -0.50771886 -0.48479372
vn 0.7121774 -0.50771886 -0.48479372
vn 0.71217734 0.50771886 0.48479378
vn 0.71217734 0.50771886 0.48479378
vn 0.71217734 0.50771886 0.48479378
vn 0.54520094 -0.19002107 -0.8164851
vn 0.54520094 -0.19002107 -0.8164851
vn 0.54520094 -0.19002107 -0.8164851
vn 0.7121774 0.50771886 0.48479372
vn 0.7121774 0.50771886 0.48479372
vn 0.7121774 0.50771886 0.48479372
vn 0 -0.4638922 0.88589174
vn 0 -0.4638922 0.88589174
vn 0 -0.4638922 0.88589174
vn 0 -0.3295902 0.94412416
vn 0 -0.3295902 0.94412416
vn 0 -0.3295902 0.94412416
vn 0 -0.46389177 0.88589185
vn 0 -0.46389177 0.88589185
vn 0 -0.46389177 0.88589185
vn 0 -0.4638927 0.8858913
vn 0 -0.4638927 0.8858913
vn 0 -0.4638927 0.8858913
vn 0 -0.32959062 0.9441239
vn 0 -0.32959062 0.9441239
vn 0 -0.32959062 0.9441239
vn 0 -0.46389237 0.8858915
vn 0 -0.46389237 0.8858915
vn 0 -0.46389237 0.8858915
vn 0 -0.46389207 0.88589174
vn 0 -0.46389207 0.88589174
vn 0 -0.46389207 0.88589174
vn 0 -0.32959008 0.94412416
vn 0 -0.32959008 0.94412416
vn 0 -0.32959008 0.94412416
vn 0 -0.7584243 0.651761
vn 0 -0.7584243 0.651761
vn 0 -0.7584243 0.651761
vn 0 -0.91877544 0.39478046
vn 0 -0.91877544 0.39478046
vn 0 -0.91877544 0.39478046
vn 0 -0.9187755 0.3947805
vn 0 -0.9187755 0.3947805
vn 0 -0.9187755 0.3947805
vn 0 -0.91877544 0.39478046
vn 0 -0.91877544 0.39478046
vn 0 -0.91877544 0.39478046
vn 0 -0.91877556 0.39478043
vn 0 -0.91877556 0.39478043
vn 0 -0.91877556 0.39478043
vn 0 -0.3863818 0.9223389
vn 0 -0.3863818 0.9223389
vn 0 -0.3863818 0.9223389
vn 0 -0.38638183 0.92233896
vn 0 -0.38638183 0.92233896
vn 0 -0.38638183 0.92233896
vn 0 -0.38638204 0.92233884
vn 0 -0.38638204 0.92233884
vn 0 -0.38638204 0.92233884
vn 0 -0.38638204 0.92233884
vn 0 -0.38638204 0.92233884
vn 0 -0.38638204 0.92233884
vn 0 -0.3863821 0.9223388
vn 0 -0.3863821 0.9223388
vn 0 -0.3863821 0.9223388
vn 0 -0.38638207 0.92233884
vn 0 -0.38638207 0.92233884
vn 0 -0.38638207 0.92233884
vn 0 -0.32959 0.9441242
vn 0 -0.32959 0.9441242
vn 0 -0.32959 0.9441242
vn 0 -0.3295902 0.944124
vn 0 -0.3295902 0.944124
vn 0 -0.3295902 0.944124
vn 0 -0.3295902 0.94412404
vn 0 -0.3295902 0.94412404
vn 0 -0.3295902 0.94412404
vn 0 -0.27933344 0.96019423
vn 0 -0.27933344 0.96019423
vn 0 -0.27933344 0.96019423
vn 0 -0.2793333 0.9601942
vn 0 -0.2793333 0.9601942
vn 0 -0.2793333 0.9601942
vn 0 -0.27933353 0.9601941
vn 0 -0.27933353 0.9601941
vn 0 -0.27933353 0.9601941
vn 0 -0.27933356 0.9601941
vn 0 -0.27933356 0.9601941
vn 0 -0.27933356 0.9601941
vn 0 -0.27933353 0.9601941
vn 0 -0.27933353 0.9601941
vn 0 -0.27933353 0.9601941
vn 0 -0.27933323 0.9601942
vn 0 -0.27933323 0.9601942
vn 0 -0.27933323 0.9601942
vn 0 -0.27933353 0.9601942
vn 0 -0.27933353 0.9601942
vn 0 -0.27933353 0.9601942
vn 0 -0.27933353 0.9601942
vn 0 -0.27933353 0.9601942
vn 0 -0.27933353 0.9601942
vn 0 -0.7794122 0.6265115
vn 0 -0.7794122 0.6265115
vn 0 -0.7794122 0.6265115
vn 0 -0.7887062 0.6147704
vn 0 -0.7887062 0.6147704
vn 0 -0.7887062 0.6147704
vn 0 -0.87621886 0.4819133
vn 0 -0.87621886 0.4819133
vn 0 -0.87621886 0.4819133
vn 0 -0.86768955 0.49710637
vn 0 -0.86768955 0.49710637
vn 0 -0.86768955 0.49710637
f 1//1 2//2 3//3
f 4//4 5//5 6//6
f 7//7 8//8 9//9
f 10//10 11//11 12//12
f 13//13 14//14 15//15
f 16//16 17//17 18//18
f 19//19 20//20 21//21
f 22//22 23//23 24//24
f 25//25 26//26 27//27
f 28//28 29//29 30//30
f 31//31 32//32 33//33
f 34//34 35//35 36//36
f 37//37 38//38 39//39
f 40//40 41//41 42//42
f 43//43 44//44 45//45
f 46//46 47//47 48//48
f 49//49 50//50 51//51
f 52//52 53//53 54//54
f 55//55 56//56 57//57
f 58//58 59//59 60//60
f 61//61 62//62 63//63
f 64//64 65//65 66//66
f 67//67 68//68 69//69
f 70//70 71//71 72//72
f 73//73 74//74 75//75
f 76//76 77//77 78//78
f 79//79 80//80 81//81
f 82//82 83//83 84//84
f 85//85 86//86 87//87
f 88//88 89//89 90//90
f 91//91 92//92 93//93
f 94//94 95//95 96//96
f 97//97 98//98 99//99
f 100//100 101//101 102//102
f 103//103 104//104 105//105
f 106//106 107//107 108//108
f 109//109 110//110 111//111
f 112//112 113//113 114//114
f 115//115 116//116 117//117
f 118//118 119//119 120//120
f 121//121 122//122 123//123
f 124//124 125//125 126//126
f 127//127 128//128 129//129
f 130//130 131//131 132//132
f 133//133 134//134 135//135
f 136//136 137//137 138//138
f 139//139 140//140 141//141
f 142//142 143//143 144//144
f 145//145 146//146 147//147
f 148//148 149//149 150//150
f 151//151 152//152 153//153
f 154//154 155//155 156//156
f 157//157 158//158 159//159
f 160//160 161//161 162//162
f 163//163 164//164 165//165
f 166//166 167//167 168//168
f 169//169 170//170 171//171
f 172//172 173//173 174//174
f 175//175 176//176 177//177
f 178//178 179//179 180//180
f 181//181 182//182 183//183
f 184//184 185//185 186//186
f 187//187 188//188 189//189
f 190//190 191//191 192//192
f 193//193 194//194 195//195
f 196//196 197//197 198//198
f 199//199 200//200 201//201
f 202//202 203//203 204//204
f 205//205 206//206 207//207
f 208//208 209//209 210//210
f 211//211 212//212 213//213
f 214//214 215//215 216//216
f 217//217 218//218 219//219
f 220//220 221//221 222//222
f 223//223 224//224 225//225
f 226//226 227//227 228//228
f 229//229 230//230 231//231
f 232//232 233//233 234//234
f 235//235 236//236 237//237
f 238//238 239//239 240//240
f 241//241 242//242 243//243
f 244//244 245//245 246//246
f 247//247 248//248 249//249
f 250//250 251//251 252//252
f 253//253 254//254 255//255
f 256//256 257//257 258//258
f 259//259 260//260 261//261
f 262//262 263//263 264//264
f 265//265 266//266 267//267
f 268//268 269//269 270//270
f 271//271 272//272 273//273
f 274//274 275//275 276//276
f 277//277 278//278 279//279
f 280//280 281//281 282//282
f 283//283 284//284 285//285
f 286//286 287//287 288//288
f 289//289 290//290 291//291
f 292//292 293//293 294//294
f 295//295 296//296 297//297
f 298//298 299//299 300//300
f 301//301 302//302 303//303
f 304//304 305//305 306//306
f 307//307 308//308 309//309
f 310//310 311//311 312//312
f 313//313 314//314 315//315
f 316//316 317//317 318//318
f 319//319 320//320 321//321
f 322//322 323//323 324//324
f 325//325 326//326 327//327
f 328//328 329//329 330//330
f 331//331 332//332 333//333
f 334//334 335//335 336//336
f 337//337 338//338 339//339
f 340//340 341//341 342//342
f 343//343 344//344 345//345
f 346//346 347//347 348//348
f 349//349 350//350 351//351
f 352//352 353//353 354//354
f 355//355 356//356 357//357
f 358//358 359//359 360//360
f 361//361 362//362 363//363
f 364//364 365//365 366//366
f 367//367 368//368 369//369
f 370//370 371//371 372//372
f 373//373 374//374 375//375
f 376//376 377//377 378//378
f 379//379 380//380 381//381
