# Exported from SharpOpenGl procedural mesh
o voidborn_carrier_mk2_27
# vertices 24
v 0 0.7846611 2.9112997
v -1.3385974 0 0
v 1.3385974 0 0
v -1.3385974 0 0
v 1.3385974 0 0
v 0 0 -2.6201696
v -0.4183117 0.34873828 -2.4454918
v -1.6732467 0.95903033 -2.2542636
v -0.53543895 0.20924297 -2.684527
v 0.5617328 0.34873828 -0.89279854
v 2.2469313 1.0985256 -0.70157033
v 0.719018 0.20924297 -1.1318338
v -0.70515394 0.34873828 0.6598947
v -2.8206158 1.238021 0.8511229
v -0.902597 0.20924297 0.42085946
v 0.4183117 0.34873828 2.2125878
v 1.6732467 0.95903033 2.403816
v 0.53543895 0.20924297 1.9735526
v -1.3385974 0.13949531 -3.6100116
v -2.1417558 0 -5.3769603
v -0.535439 0 -5.3769603
v 1.3385974 0.13949531 -3.6100116
v 0.535439 0 -5.3769603
v 2.1417558 0 -5.3769603
vn 0 -0.965545 0.2602362
vn 0 -0.965545 0.2602362
vn 0 -0.965545 0.2602362
vn -0 1 0
vn -0 1 0
vn -0 1 0
vn -0.28182134 -0.76213723 0.582858
vn -0.28182134 -0.76213723 0.582858
vn -0.28182134 -0.76213723 0.582858
vn -0.26345342 0.7476149 -0.6096427
vn -0.26345342 0.7476149 -0.6096427
vn -0.26345342 0.7476149 -0.6096427
vn -0.25033966 -0.73181975 0.6338532
vn -0.25033966 -0.73181975 0.6338532
vn -0.25033966 -0.73181975 0.6338532
vn -0.28182143 0.76213735 -0.58285785
vn -0.28182143 0.76213735 -0.58285785
vn -0.28182143 0.76213735 -0.58285785
vn 0 -0.9968982 0.07870213
vn 0 -0.9968982 0.07870213
vn 0 -0.9968982 0.07870213
vn 0 -0.9968982 0.07870213
vn 0 -0.9968982 0.07870213
vn 0 -0.9968982 0.07870213
f 1//1 2//2 3//3
f 4//4 5//5 6//6
f 7//7 8//8 9//9
f 10//10 11//11 12//12
f 13//13 14//14 15//15
f 16//16 17//17 18//18
f 19//19 20//20 21//21
f 22//22 23//23 24//24
