# Exported from SharpOpenGl procedural mesh
o voidborn_transport_mk2_30
# vertices 27
v 0 0.51273257 2.2489145
v -1.0106918 0 0
v 1.0106918 0 0
v -1.0106918 0 0
v 1.0106918 0 0
v 0 0 -2.024023
v -0.31584117 0.22788115 -1.8890882
v -1.2633647 0.62667316 -1.7447037
v -0.4042767 0.13672869 -2.0695689
v 0.42412958 0.22788115 -0.08995652
v 1.6965183 0.7178256 0.05442801
v 0.54288584 0.13672869 -0.27043718
v -0.53241795 0.22788115 1.7091751
v -2.1296718 0.8089781 1.8535596
v -0.68149495 0.13672869 1.5286944
v -1.2633647 0.09115246 -2.788654
v -1.7398336 0 -3.836886
v -0.7868957 0 -3.836886
v 0 0.09115246 -2.788654
v -0.47646898 0 -3.836886
v 0.47646898 0 -3.836886
v 1.2633647 0.09115246 -2.788654
v 0.7868957 0 -3.836886
v 1.7398336 0 -3.836886
v 0 0.43297416 -0.22489145
v -0.25267294 0.1595168 -0.44146824
v 0.25267294 0.1595168 -0.44146824
vn 0 -0.9749813 0.2222871
vn 0 -0.9749813 0.2222871
vn 0 -0.9749813 0.2222871
vn -0 0.99999994 0
vn -0 0.99999994 0
vn -0 0.99999994 0
vn -0.25784147 -0.8056975 0.53326285
vn -0.25784147 -0.8056975 0.53326285
vn -0.25784147 -0.8056975 0.53326285
vn -0.24178106 0.7927867 -0.5594919
vn -0.24178106 0.7927867 -0.5594919
vn -0.24178106 0.7927867 -0.5594919
vn -0.23050754 -0.77860916 0.5836386
vn -0.23050754 -0.77860916 0.5836386
vn -0.23050754 -0.77860916 0.5836386
vn 0 -0.9962404 0.08663138
vn 0 -0.9962404 0.08663138
vn 0 -0.9962404 0.08663138
vn 0 -0.9962404 0.086631365
vn 0 -0.9962404 0.086631365
vn 0 -0.9962404 0.086631365
vn 0 -0.9962404 0.08663138
vn 0 -0.9962404 0.08663138
vn 0 -0.9962404 0.08663138
vn 0 -0.62086105 0.78392065
vn 0 -0.62086105 0.78392065
vn 0 -0.62086105 0.78392065
f 1//1 2//2 3//3
f 4//4 5//5 6//6
f 7//7 8//8 9//9
f 10//10 11//11 12//12
f 13//13 14//14 15//15
f 16//16 17//17 18//18
f 19//19 20//20 21//21
f 22//22 23//23 24//24
f 25//25 26//26 27//27
