# Exported from SharpOpenGl procedural mesh
o voidborn_cruiser_mk3_43
# vertices 21
v 0 0.61669815 3.5450454
v -0.9128985 0 0
v 0.9128985 0 0
v -0.9128985 0 0
v 0.9128985 0 0
v 0 0 -3.1905408
v -0.28528076 0.27408808 -2.977838
v -1.141123 0.7537422 -2.847424
v -0.36515936 0.16445284 -3.1408556
v 0.38309133 0.27408808 -0.14180183
v 1.5323653 0.86337745 -0.011387765
v 0.4903569 0.16445284 -0.3048194
v -0.48090184 0.27408808 2.6942344
v -1.9236073 0.9730127 2.8246484
v -0.61555433 0.16445284 2.5312169
v -0.9128985 0.10963523 -4.3958564
v -1.4410754 0 -5.5578456
v -0.38472152 0 -5.5578456
v 0.9128985 0.10963523 -4.3958564
v 0.38472152 0 -5.5578456
v 1.4410754 0 -5.5578456
vn 0 -0.98520386 0.17138663
vn 0 -0.98520386 0.17138663
vn 0 -0.98520386 0.17138663
vn -0 1 0
vn -0 1 0
vn -0 1 0
vn -0.3045164 -0.71458185 0.6297956
vn -0.3045164 -0.71458185 0.6297956
vn -0.3045164 -0.71458185 0.6297956
vn -0.28377336 0.69875956 -0.65666413
vn -0.28377336 0.69875956 -0.65666413
vn -0.28377336 0.69875956 -0.65666413
vn -0.26874956 -0.6817171 0.6804669
vn -0.26874956 -0.6817171 0.6804669
vn -0.26874956 -0.6817171 0.6804669
vn 0 -0.9955784 0.09393415
vn 0 -0.9955784 0.09393415
vn 0 -0.9955784 0.09393415
vn 0 -0.9955784 0.09393415
vn 0 -0.9955784 0.09393415
vn 0 -0.9955784 0.09393415
f 1//1 2//2 3//3
f 4//4 5//5 6//6
f 7//7 8//8 9//9
f 10//10 11//11 12//12
f 13//13 14//14 15//15
f 16//16 17//17 18//18
f 19//19 20//20 21//21
