# Exported from SharpOpenGl procedural mesh
o voidborn_cruiser_mk2_26
# vertices 24
v 0 0.69606334 3.025395
v -0.9295166 0 0
v 0.9295166 0 0
v -0.9295166 0 0
v 0.9295166 0 0
v 0 0 -2.7228553
v -0.29047394 0.30936152 -2.5413318
v -1.1618958 0.8507442 -2.4085436
v -0.37180662 0.1856169 -2.7073169
v 0.390065 0.30936152 -0.12101579
v 1.56026 0.97448874 0.01177229
v 0.4992832 0.1856169 -0.2870009
v -0.48965603 0.30936152 2.2993002
v -1.9586241 1.0982335 2.4320884
v -0.6267597 0.1856169 2.133315
v -1.1618958 0.1237446 -3.7514896
v -1.6996875 0 -4.9346313
v -0.624104 0 -4.9346313
v 0 0.1237446 -3.7514896
v -0.5377917 0 -4.9346313
v 0.5377917 0 -4.9346313
v 1.1618958 0.1237446 -3.7514896
v 0.624104 0 -4.9346313
v 1.6996875 0 -4.9346313
vn 0 -0.9745395 0.22421578
vn 0 -0.9745395 0.22421578
vn 0 -0.9745395 0.22421578
vn -0 1 0
vn -0 1 0
vn -0 1 0
vn -0.32011458 -0.6776499 0.66205525
vn -0.32011458 -0.6776499 0.66205525
vn -0.32011458 -0.6776499 0.66205525
vn -0.29762506 0.66112596 -0.6887175
vn -0.29762506 0.66112596 -0.6887175
vn -0.29762506 0.66112596 -0.6887175
vn -0.2811913 -0.64345306 0.71196884
vn -0.2811913 -0.64345306 0.71196884
vn -0.2811913 -0.64345306 0.71196884
vn 0 -0.9945749 0.104022436
vn 0 -0.9945749 0.104022436
vn 0 -0.9945749 0.104022436
vn 0 -0.9945749 0.104022436
vn 0 -0.9945749 0.104022436
vn 0 -0.9945749 0.104022436
vn 0 -0.9945749 0.104022436
vn 0 -0.9945749 0.104022436
vn 0 -0.9945749 0.104022436
f 1//1 2//2 3//3
f 4//4 5//5 6//6
f 7//7 8//8 9//9
f 10//10 11//11 12//12
f 13//13 14//14 15//15
f 16//16 17//17 18//18
f 19//19 20//20 21//21
f 22//22 23//23 24//24
