# Exported from SharpOpenGl procedural mesh
o voidborn_interceptor_mk2_19
# vertices 21
v 0 0.13651404 1.3289257
v -0.22874494 0 0
v 0.22874494 0 0
v -0.22874494 0 0
v 0.22874494 0 0
v 0 0 -1.1960331
v -0.07148279 0.06067291 -1.1162976
v -0.28593117 0.1668505 -1.0836197
v -0.09149797 0.036403745 -1.1571449
v 0.09599118 0.06067291 -0.053156972
v 0.38396472 0.19111966 -0.020479124
v 0.12286871 0.036403745 -0.09400429
v -0.12049956 0.06067291 1.0099837
v -0.48199823 0.21538883 1.0426615
v -0.15423943 0.036403745 0.96913636
v -0.22874494 0.024269164 -1.6478679
v -0.31697512 0 -1.8419744
v -0.14051476 0 -1.8419744
v 0.22874494 0.024269164 -1.6478679
v 0.14051476 0 -1.8419744
v 0.31697512 0 -1.8419744
vn 0 -0.9947652 0.102187365
vn 0 -0.9947652 0.102187365
vn 0 -0.9947652 0.102187365
vn -0 1 0
vn -0 1 0
vn -0 1 0
vn -0.2847519 -0.7563668 0.588919
vn -0.2847519 -0.7563668 0.588919
vn -0.2847519 -0.7563668 0.588919
vn -0.2660881 0.7416617 -0.61573935
vn -0.2660881 0.7416617 -0.61573935
vn -0.2660881 0.7416617 -0.61573935
vn -0.25273693 -0.72568744 0.6399233
vn -0.25273693 -0.72568744 0.6399233
vn -0.25273693 -0.72568744 0.6399233
vn 0 -0.99227417 0.12406421
vn 0 -0.99227417 0.12406421
vn 0 -0.99227417 0.12406421
vn 0 -0.99227417 0.12406421
vn 0 -0.99227417 0.12406421
vn 0 -0.99227417 0.12406421
f 1//1 2//2 3//3
f 4//4 5//5 6//6
f 7//7 8//8 9//9
f 10//10 11//11 12//12
f 13//13 14//14 15//15
f 16//16 17//17 18//18
f 19//19 20//20 21//21
