# Exported from SharpOpenGl procedural mesh
o voidborn_corvette_mk1_04
# vertices 21
v 0 0.23711671 1.4891529
v -0.37897792 0 0
v 0.37897792 0 0
v -0.37897792 0 0
v 0.37897792 0 0
v 0 0 -1.3402376
v -0.1184306 0.10538521 -1.2508883
v -0.4737224 0.28980932 -1.1967486
v -0.15159117 0.063231125 -1.318563
v 0.15903538 0.10538521 -0.05956602
v 0.63614154 0.3319634 -0.0054263175
v 0.20356528 0.063231125 -0.12724066
v -0.19964015 0.10538521 1.1317563
v -0.7985606 0.37411752 1.185896
v -0.2555394 0.063231125 1.0640817
v -0.37897792 0.04215408 -1.8465496
v -0.54139704 0 -2.2038717
v -0.21655881 0 -2.2038717
v 0.37897792 0.04215408 -1.8465496
v 0.21655881 0 -2.2038717
v 0.54139704 0 -2.2038717
vn 0 -0.987559 0.15724829
vn 0 -0.987559 0.15724829
vn 0 -0.987559 0.15724829
vn -0 1 0
vn -0 1 0
vn -0 1 0
vn -0.2923944 -0.74081945 0.60472476
vn -0.2923944 -0.74081945 0.60472476
vn -0.2923944 -0.74081945 0.60472476
vn -0.27294382 0.725657 -0.63160396
vn -0.27294382 0.725657 -0.63160396
vn -0.27294382 0.725657 -0.63160396
vn -0.258961 -0.70923924 0.6556821
vn -0.258961 -0.70923924 0.6556821
vn -0.258961 -0.70923924 0.6556821
vn 0 -0.99311304 0.11715975
vn 0 -0.99311304 0.11715975
vn 0 -0.99311304 0.11715975
vn 0 -0.99311304 0.11715975
vn 0 -0.99311304 0.11715975
vn 0 -0.99311304 0.11715975
f 1//1 2//2 3//3
f 4//4 5//5 6//6
f 7//7 8//8 9//9
f 10//10 11//11 12//12
f 13//13 14//14 15//15
f 16//16 17//17 18//18
f 19//19 20//20 21//21
