# Exported from SharpOpenGl procedural mesh
o voidborn_carrier_prototype_55
# vertices 30
v 0 0.8341953 4.0048757
v -1.7040384 0 0
v 1.7040384 0 0
v -1.7040384 0 0
v 1.7040384 0 0
v 0 0 -3.604388
v -0.53251195 0.3707535 -3.3640954
v -2.1300478 1.0195721 -3.1206615
v -0.6816153 0.22245209 -3.668388
v 0.71508753 0.3707535 -1.2281618
v 2.8603501 1.1678735 -0.98472774
v 0.915312 0.22245209 -1.5324544
v -0.897663 0.3707535 0.9077718
v -3.590652 1.3161749 1.1512059
v -1.1490086 0.22245209 0.60347927
v 0.53251195 0.3707535 3.0437052
v 2.1300478 1.0195721 3.2871392
v 0.6816153 0.22245209 2.7394128
v -2.5560575 0.1483014 -4.966046
v -3.5784805 0 -7.215377
v -1.5336344 0 -7.215377
v -0.8520192 0.1483014 -4.966046
v -1.8744422 0 -7.215377
v 0.17040384 0 -7.215377
v 0.8520192 0.1483014 -4.966046
v -0.17040384 0 -7.215377
v 1.8744422 0 -7.215377
v 2.5560575 0.1483014 -4.966046
v 1.5336344 0 -7.215377
v 3.5784805 0 -7.215377
vn 0 -0.97898793 0.20391822
vn 0 -0.97898793 0.20391822
vn 0 -0.97898793 0.20391822
vn -0 1 0
vn -0 1 0
vn -0 1 0
vn -0.25187007 -0.81560457 0.52091324
vn -0.25187007 -0.81560457 0.52091324
vn -0.25187007 -0.81560457 0.52091324
vn -0.2363537 0.80311984 -0.5469328
vn -0.2363537 0.80311984 -0.5469328
vn -0.2363537 0.80311984 -0.5469328
vn -0.2255107 -0.7893787 0.57098705
vn -0.2255107 -0.7893787 0.57098705
vn -0.2255107 -0.7893787 0.57098705
vn -0.25187007 0.81560457 -0.52091324
vn -0.25187007 0.81560457 -0.52091324
vn -0.25187007 0.81560457 -0.52091324
vn 0 -0.9978335 0.0657885
vn 0 -0.9978335 0.0657885
vn 0 -0.9978335 0.0657885
vn 0 -0.9978335 0.0657885
vn 0 -0.9978335 0.0657885
vn 0 -0.9978335 0.0657885
vn 0 -0.9978335 0.0657885
vn 0 -0.9978335 0.0657885
vn 0 -0.9978335 0.0657885
vn 0 -0.9978335 0.0657885
vn 0 -0.9978335 0.0657885
vn 0 -0.9978335 0.0657885
f 1//1 2//2 3//3
f 4//4 5//5 6//6
f 7//7 8//8 9//9
f 10//10 11//11 12//12
f 13//13 14//14 15//15
f 16//16 17//17 18//18
f 19//19 20//20 21//21
f 22//22 23//23 24//24
f 25//25 26//26 27//27
f 28//28 29//29 30//30
