# Exported from SharpOpenGl procedural mesh
o voidborn_hero_mk2_33
# vertices 21
v 0 0.44946766 2.5730727
v -0.5276002 0 0
v 0.5276002 0 0
v -0.5276002 0 0
v 0.5276002 0 0
v 0 0 -2.3157654
v -0.16487508 0.1997634 -2.161381
v -0.6595003 0.54934937 -2.0860095
v -0.2110401 0.11985804 -2.2555954
v 0.22140367 0.1997634 -0.10292292
v 0.8856147 0.6292547 -0.027551457
v 0.2833967 0.11985804 -0.19713724
v -0.27793226 0.1997634 1.9555352
v -1.111729 0.70916015 2.0309067
v -0.35575327 0.11985804 1.8613209
v -0.5276002 0.07990536 -3.1906102
v -0.7989375 0 -3.787552
v -0.25626296 0 -3.787552
v 0.5276002 0.07990536 -3.1906102
v 0.25626296 0 -3.787552
v 0.7989375 0 -3.787552
vn 0 -0.9850837 0.1720757
vn 0 -0.9850837 0.1720757
vn 0 -0.9850837 0.1720757
vn -0 1 0
vn -0 1 0
vn -0 1 0
vn -0.33825672 -0.6294256 0.6995755
vn -0.33825672 -0.6294256 0.6995755
vn -0.33825672 -0.6294256 0.6995755
vn -0.31361312 0.6123604 -0.7257145
vn -0.31361312 0.6123604 -0.7257145
vn -0.31361312 0.6123604 -0.7257145
vn -0.29543817 -0.59426445 0.74804145
vn -0.29543817 -0.59426445 0.74804145
vn -0.29543817 -0.59426445 0.74804145
vn 0 -0.9911597 0.1326745
vn 0 -0.9911597 0.1326745
vn 0 -0.9911597 0.1326745
vn 0 -0.9911597 0.1326745
vn 0 -0.9911597 0.1326745
vn 0 -0.9911597 0.1326745
f 1//1 2//2 3//3
f 4//4 5//5 6//6
f 7//7 8//8 9//9
f 10//10 11//11 12//12
f 13//13 14//14 15//15
f 16//16 17//17 18//18
f 19//19 20//20 21//21
