# Exported from SharpOpenGl procedural mesh
o voidborn_destroyer_mk1_08
# vertices 21
v 0 0.46233827 3.3837073
v -0.6685771 0 0
v 0.6685771 0 0
v -0.6685771 0 0
v 0.6685771 0 0
v 0 0 -3.0453365
v -0.20893033 0.20548368 -2.842314
v -0.8357213 0.5650801 -2.746803
v -0.2674308 0.1232902 -2.9617028
v 0.2805636 0.20548368 -0.13534808
v 1.1222544 0.6472736 -0.039837077
v 0.35912138 0.1232902 -0.25473684
v -0.3521968 0.20548368 2.5716178
v -1.4087873 0.7294671 2.6671288
v -0.45081192 0.1232902 2.452229
v -0.6685771 0.08219347 -4.195797
v -1.0267434 0 -4.9837627
v -0.3104108 0 -4.9837627
v 0.6685771 0.08219347 -4.195797
v 0.3104108 0 -4.9837627
v 1.0267434 0 -4.9837627
vn 0 -0.99079394 0.13537872
vn 0 -0.99079394 0.13537872
vn 0 -0.99079394 0.13537872
vn -0 1 0
vn -0 1 0
vn -0 1 0
vn -0.3081333 -0.7063528 0.6372752
vn -0.3081333 -0.7063528 0.6372752
vn -0.3081333 -0.7063528 0.6372752
vn -0.28699362 0.6903513 -0.6641158
vn -0.28699362 0.6903513 -0.6641158
vn -0.28699362 0.6903513 -0.6641158
vn -0.27165017 -0.6731442 0.6878104
vn -0.27165017 -0.6731442 0.6878104
vn -0.27165017 -0.6731442 0.6878104
vn 0 -0.99460363 0.10374805
vn 0 -0.99460363 0.10374805
vn 0 -0.99460363 0.10374805
vn 0 -0.99460363 0.10374805
vn 0 -0.99460363 0.10374805
vn 0 -0.99460363 0.10374805
f 1//1 2//2 3//3
f 4//4 5//5 6//6
f 7//7 8//8 9//9
f 10//10 11//11 12//12
f 13//13 14//14 15//15
f 16//16 17//17 18//18
f 19//19 20//20 21//21
