# Exported from SharpOpenGl procedural mesh
o voidborn_carrier_mk3_44
# vertices 27
v 0 0.78290147 3.2266412
v -1.3886476 0 0
v 1.3886476 0 0
v -1.3886476 0 0
v 1.3886476 0 0
v 0 0 -2.903977
v -0.43395236 0.3479562 -2.7103784
v -1.7358094 0.95687956 -2.512
v -0.555459 0.20877372 -2.9583511
v 0.582736 0.3479562 -0.98950315
v 2.330944 1.0960621 -0.79112494
v 0.74590206 0.20877372 -1.2374759
v -0.73151964 0.3479562 0.7313721
v -2.9260786 1.2352446 0.9297503
v -0.9363451 0.20877372 0.48339933
v 0.43395236 0.3479562 2.4522474
v 1.7358094 0.95687956 2.6506257
v 0.555459 0.20877372 2.2042747
v -1.7358094 0.13918248 -4.001035
v -2.5689979 0 -5.83405
v -0.902621 0 -5.83405
v 0 0.13918248 -4.001035
v -0.8331885 0 -5.83405
v 0.8331885 0 -5.83405
v 1.7358094 0.13918248 -4.001035
v 0.902621 0 -5.83405
v 2.5689979 0 -5.83405
vn 0 -0.97180283 0.23579498
vn 0 -0.97180283 0.23579498
vn 0 -0.97180283 0.23579498
vn -0 1 0
vn -0 1 0
vn -0 1 0
vn -0.27541503 -0.7743981 0.56960875
vn -0.27541503 -0.7743981 0.56960875
vn -0.27541503 -0.7743981 0.56960875
vn -0.2576834 0.7602872 -0.59629077
vn -0.2576834 0.7602872 -0.59629077
vn -0.2576834 0.7602872 -0.59629077
vn -0.24507895 -0.7448992 0.62053317
vn -0.24507895 -0.7448992 0.62053317
vn -0.24507895 -0.7448992 0.62053317
vn -0.27541503 0.7743981 -0.56960875
vn -0.27541503 0.7743981 -0.56960875
vn -0.27541503 0.7743981 -0.56960875
vn 0 -0.9971297 0.07571295
vn 0 -0.9971297 0.07571295
vn 0 -0.9971297 0.07571295
vn 0 -0.9971297 0.07571296
vn 0 -0.9971297 0.07571296
vn 0 -0.9971297 0.07571296
vn 0 -0.9971297 0.07571295
vn 0 -0.9971297 0.07571295
vn 0 -0.9971297 0.07571295
f 1//1 2//2 3//3
f 4//4 5//5 6//6
f 7//7 8//8 9//9
f 10//10 11//11 12//12
f 13//13 14//14 15//15
f 16//16 17//17 18//18
f 19//19 20//20 21//21
f 22//22 23//23 24//24
f 25//25 26//26 27//27
