# Exported from SharpOpenGl procedural mesh
o voidborn_miner_mk3_46
# vertices 27
v 0 0.32880828 1.8209144
v -0.56043905 0 0
v 0.56043905 0 0
v -0.56043905 0 0
v 0.56043905 0 0
v 0 0 -1.6388229
v -0.1751372 0.14613701 -1.5295681
v -0.7005488 0.40187678 -1.4495053
v -0.22417562 0.0876822 -1.6296465
v 0.23518425 0.14613701 -0.07283652
v 0.940737 0.4603316 0.0072262064
v 0.30103582 0.0876822 -0.17291492
v -0.29523128 0.14613701 1.383895
v -1.1809251 0.51878643 1.4639578
v -0.37789604 0.0876822 1.2838166
v -0.56043905 0.058454804 -2.2579339
v -0.7766084 0 -2.7335064
v -0.3442697 0 -2.7335064
v 0.56043905 0.058454804 -2.2579339
v 0.3442697 0 -2.7335064
v 0.7766084 0 -2.7335064
v -0.2201725 0.2776603 0.29134628
v -0.36028224 0.102295905 0.17125219
v -0.08006273 0.102295905 0.17125219
v 0.2201725 0.2776603 0.15123652
v 0.08006273 0.102295905 0.031142436
v 0.36028224 0.102295905 0.031142436
vn 0 -0.98408484 0.17769931
vn 0 -0.98408484 0.17769931
vn 0 -0.98408484 0.17769931
vn -0 1 0
vn -0 1 0
vn -0 1 0
vn -0.28196546 -0.7618564 0.5831555
vn -0.28196546 -0.7618564 0.5831555
vn -0.28196546 -0.7618564 0.5831555
vn -0.26358297 0.74732465 -0.60994256
vn -0.26358297 0.74732465 -0.60994256
vn -0.26358297 0.74732465 -0.60994256
vn -0.2504577 -0.73152065 0.6341517
vn -0.2504577 -0.73152065 0.6341517
vn -0.2504577 -0.73152065 0.6341517
vn 0 -0.9925306 0.12199648
vn 0 -0.9925306 0.12199648
vn 0 -0.9925306 0.12199648
vn 0 -0.9925306 0.12199648
vn 0 -0.9925306 0.12199648
vn 0 -0.9925306 0.12199648
vn 0 -0.5650297 0.82507056
vn 0 -0.5650297 0.82507056
vn 0 -0.5650297 0.82507056
vn 0 -0.5650297 0.82507056
vn 0 -0.5650297 0.82507056
vn 0 -0.5650297 0.82507056
f 1//1 2//2 3//3
f 4//4 5//5 6//6
f 7//7 8//8 9//9
f 10//10 11//11 12//12
f 13//13 14//14 15//15
f 16//16 17//17 18//18
f 19//19 20//20 21//21
f 22//22 23//23 24//24
f 25//25 26//26 27//27
