# Exported from SharpOpenGl procedural mesh
o voidborn_bomber_mk1_07
# vertices 21
v 0 0.35248065 1.5104883
v -0.71844167 0 0
v 0.71844167 0 0
v -0.71844167 0 0
v 0.71844167 0 0
v 0 0 -1.3594394
v -0.22451302 0.15665808 -1.2688102
v -0.8980521 0.43080974 -1.1661756
v -0.28737667 0.09399484 -1.3971033
v 0.3014889 0.15665808 -0.06041956
v 1.2059556 0.49347293 0.04221496
v 0.3859058 0.09399484 -0.18871272
v -0.3784648 0.15665808 1.147971
v -1.5138592 0.5561362 1.2506056
v -0.48443493 0.09399484 1.0196779
v -0.71844167 0.06266323 -1.8730055
v -1.0879259 0 -2.685871
v -0.3489574 0 -2.685871
v 0.71844167 0.06266323 -1.8730055
v 0.3489574 0 -2.685871
v 1.0879259 0 -2.685871
vn 0 -0.97383636 0.22725001
vn 0 -0.97383636 0.22725001
vn 0 -0.97383636 0.22725001
vn -0 1 0
vn -0 1 0
vn -0 1 0
vn -0.25223863 -0.8150033 0.5216754
vn -0.25223863 -0.8150033 0.5216754
vn -0.25223863 -0.8150033 0.5216754
vn -0.23668903 0.80249196 -0.54770887
vn -0.23668903 0.80249196 -0.54770887
vn -0.23668903 0.80249196 -0.54770887
vn -0.2258198 -0.78872365 0.57176965
vn -0.2258198 -0.78872365 0.57176965
vn -0.2258198 -0.78872365 0.57176965
vn 0 -0.9970419 0.07686127
vn 0 -0.9970419 0.07686127
vn 0 -0.9970419 0.07686127
vn 0 -0.9970419 0.07686127
vn 0 -0.9970419 0.07686127
vn 0 -0.9970419 0.07686127
f 1//1 2//2 3//3
f 4//4 5//5 6//6
f 7//7 8//8 9//9
f 10//10 11//11 12//12
f 13//13 14//14 15//15
f 16//16 17//17 18//18
f 19//19 20//20 21//21
