# Exported from SharpOpenGl procedural mesh
o voidborn_freighter_mk2_31
# vertices 30
v 0 0.5993483 2.9979272
v -1.340993 0 0
v 1.340993 0 0
v -1.340993 0 0
v 1.340993 0 0
v 0 0 -2.6981344
v -0.41906032 0.26637703 -2.5182588
v -1.6762413 0.7325368 -2.3266883
v -0.5363972 0.1598262 -2.757722
v 0.5627381 0.26637703 -0.119917154
v 2.2509525 0.8390876 0.07165328
v 0.7203048 0.1598262 -0.3593802
v -0.70641595 0.26637703 2.2784245
v -2.8256638 0.9456385 2.469995
v -0.9042124 0.1598262 2.0389614
v -1.6762413 0.106550805 -3.7174296
v -2.4233658 0 -5.361104
v -0.92911667 0 -5.361104
v 0 0.106550805 -3.7174296
v -0.7471246 0 -5.361104
v 0.7471246 0 -5.361104
v 1.6762413 0.106550805 -3.7174296
v 0.92911667 0 -5.361104
v 2.4233658 0 -5.361104
v -0.5268187 0.50611633 -0.29979274
v -0.862067 0.1864639 -0.58714837
v -0.19157043 0.1864639 -0.58714837
v 0.5268187 0.50611633 -0.635041
v 0.19157043 0.1864639 -0.92239666
v 0.862067 0.1864639 -0.92239666
vn 0 -0.9805955 0.19604154
vn 0 -0.9805955 0.19604154
vn 0 -0.9805955 0.19604154
vn -0 1 0
vn -0 1 0
vn -0 1 0
vn -0.2366422 -0.8393267 0.48941913
vn -0.2366422 -0.8393267 0.48941913
vn -0.2366422 -0.8393267 0.48941913
vn -0.2224606 0.8279548 -0.5147836
vn -0.2224606 0.8279548 -0.5147836
vn -0.2224606 0.8279548 -0.5147836
vn -0.21266699 -0.8153686 0.53846705
vn -0.21266699 -0.8153686 0.53846705
vn -0.21266699 -0.8153686 0.53846705
vn 0 -0.9979055 0.064688995
vn 0 -0.9979055 0.064688995
vn 0 -0.9979055 0.064688995
vn 0 -0.99790543 0.06468898
vn 0 -0.99790543 0.06468898
vn 0 -0.99790543 0.06468898
vn 0 -0.9979055 0.064688995
vn 0 -0.9979055 0.064688995
vn 0 -0.9979055 0.064688995
vn 0 -0.66853845 0.7436775
vn 0 -0.66853845 0.7436775
vn 0 -0.66853845 0.7436775
vn 0 -0.66853845 0.7436775
vn 0 -0.66853845 0.7436775
vn 0 -0.66853845 0.7436775
f 1//1 2//2 3//3
f 4//4 5//5 6//6
f 7//7 8//8 9//9
f 10//10 11//11 12//12
f 13//13 14//14 15//15
f 16//16 17//17 18//18
f 19//19 20//20 21//21
f 22//22 23//23 24//24
f 25//25 26//26 27//27
f 28//28 29//29 30//30
