# Exported from SharpOpenGl procedural mesh
o voidborn_dreadnought_mk2_28
# vertices 24
v 0 1.1622872 4.5278554
v -1.5082502 0 0
v 1.5082502 0 0
v -1.5082502 0 0
v 1.5082502 0 0
v 0 0 -4.07507
v -0.4713282 0.5165722 -3.8033984
v -1.8853128 1.4205735 -3.587934
v -0.6033001 0.3099433 -4.0727286
v 0.63292646 0.5165722 -1.3885422
v 2.5317059 1.6272023 -1.1730778
v 0.81014585 0.3099433 -1.6578726
v -0.79452467 0.5165722 1.026314
v -3.1780987 1.8338312 1.2417784
v -1.0169915 0.3099433 0.75698364
v 0.4713282 0.5165722 3.44117
v 1.8853128 1.4205735 3.6566343
v 0.6033001 0.3099433 3.1718395
v -1.5082502 0.20662886 -5.6145406
v -2.4778397 0 -7.7476373
v -0.5386608 0 -7.7476373
v 1.5082502 0.20662886 -5.6145406
v 0.5386608 0 -7.7476373
v 2.4778397 0 -7.7476373
vn 0 -0.968597 0.24863602
vn 0 -0.968597 0.24863602
vn 0 -0.968597 0.24863602
vn -0 1 0
vn -0 1 0
vn -0 1 0
vn -0.32428983 -0.6670906 0.6706908
vn -0.32428983 -0.6670906 0.6706908
vn -0.32428983 -0.6670906 0.6706908
vn -0.30131656 0.6504131 -0.69725984
vn -0.30131656 0.6504131 -0.69725984
vn -0.30131656 0.6504131 -0.69725984
vn -0.28449178 -0.6326103 0.72032547
vn -0.28449178 -0.6326103 0.72032547
vn -0.28449178 -0.6326103 0.72032547
vn -0.32429007 0.6670909 -0.67069054
vn -0.32429007 0.6670909 -0.67069054
vn -0.32429007 0.6670909 -0.67069054
vn 0 -0.9953411 0.09641673
vn 0 -0.9953411 0.09641673
vn 0 -0.9953411 0.09641673
vn 0 -0.9953411 0.09641673
vn 0 -0.9953411 0.09641673
vn 0 -0.9953411 0.09641673
f 1//1 2//2 3//3
f 4//4 5//5 6//6
f 7//7 8//8 9//9
f 10//10 11//11 12//12
f 13//13 14//14 15//15
f 16//16 17//17 18//18
f 19//19 20//20 21//21
f 22//22 23//23 24//24
