# Exported from SharpOpenGl procedural mesh
o voidborn_destroyer_mk2_25
# vertices 21
v 0 0.48057818 3.8601575
v -0.74538755 0 0
v 0.74538755 0 0
v -0.74538755 0 0
v 0.74538755 0 0
v 0 0 -3.4741416
v -0.23293361 0.21359031 -3.2425323
v -0.93173444 0.5873734 -3.1360483
v -0.298155 0.12815419 -3.375637
v 0.31279656 0.21359031 -0.15440631
v 1.2511863 0.6728095 -0.047922373
v 0.4003796 0.12815419 -0.28751123
v -0.3926595 0.21359031 2.9337196
v -1.570638 0.75824565 3.0402036
v -0.5026041 0.12815419 2.8006148
v -0.74538755 0.08543612 -4.7865953
v -1.1447023 0 -5.6650877
v -0.3460728 0 -5.6650877
v 0.74538755 0.08543612 -4.7865953
v 0.3460728 0 -5.6650877
v 1.1447023 0 -5.6650877
vn 0 -0.9923392 0.12354329
vn 0 -0.9923392 0.12354329
vn 0 -0.9923392 0.12354329
vn -0 1 0
vn -0 1 0
vn -0 1 0
vn -0.2971836 -0.7306923 0.61463034
vn -0.2971836 -0.7306923 0.61463034
vn -0.2971836 -0.7306923 0.61463034
vn -0.2772292 0.71525896 -0.64152044
vn -0.2772292 0.71525896 -0.64152044
vn -0.2772292 0.71525896 -0.64152044
vn -0.26284063 -0.6985818 0.665506
vn -0.26284063 -0.6985818 0.665506
vn -0.26284063 -0.6985818 0.665506
vn 0 -0.99530417 0.09679643
vn 0 -0.99530417 0.09679643
vn 0 -0.99530417 0.09679643
vn 0 -0.99530417 0.09679643
vn 0 -0.99530417 0.09679643
vn 0 -0.99530417 0.09679643
f 1//1 2//2 3//3
f 4//4 5//5 6//6
f 7//7 8//8 9//9
f 10//10 11//11 12//12
f 13//13 14//14 15//15
f 16//16 17//17 18//18
f 19//19 20//20 21//21
