# Exported from SharpOpenGl procedural mesh
o voidborn_interceptor_mk3_36
# vertices 24
v 0 0.15369654 1.589486
v -0.24645464 0 0
v 0.24645464 0 0
v -0.24645464 0 0
v 0.24645464 0 0
v 0 0 -1.4305373
v -0.07701708 0.068309575 -1.3351682
v -0.3080683 0.18785134 -1.2999605
v -0.09858186 0.040985744 -1.379178
v 0.10342293 0.068309575 -0.06357944
v 0.41369173 0.21517517 -0.028371636
v 0.13238135 0.040985744 -0.1075892
v -0.12982878 0.068309575 1.2080094
v -0.5193151 0.24249901 1.2432171
v -0.16618083 0.040985744 1.1639996
v -0.3080683 0.027323829 -1.9709626
v -0.40312937 0 -2.180097
v -0.21300724 0 -2.180097
v 0 0.027323829 -1.9709626
v -0.09506107 0 -2.180097
v 0.09506107 0 -2.180097
v 0.3080683 0.027323829 -1.9709626
v 0.21300724 0 -2.180097
v 0.40312937 0 -2.180097
vn 0 -0.9953575 0.09624683
vn 0 -0.9953575 0.09624683
vn 0 -0.9953575 0.09624683
vn -0 1 0
vn -0 1 0
vn -0 1 0
vn -0.2918693 -0.74191225 0.60363775
vn -0.2918693 -0.74191225 0.60363775
vn -0.2918693 -0.74191225 0.60363775
vn -0.27247325 0.7267801 -0.6305149
vn -0.27247325 0.7267801 -0.6305149
vn -0.27247325 0.7267801 -0.6305149
vn -0.2585346 -0.71039176 0.65460163
vn -0.2585346 -0.71039176 0.65460163
vn -0.2585346 -0.71039176 0.65460163
vn 0 -0.99157274 0.12955093
vn 0 -0.99157274 0.12955093
vn 0 -0.99157274 0.12955093
vn 0 -0.99157274 0.12955092
vn 0 -0.99157274 0.12955092
vn 0 -0.99157274 0.12955092
vn 0 -0.99157274 0.12955093
vn 0 -0.99157274 0.12955093
vn 0 -0.99157274 0.12955093
f 1//1 2//2 3//3
f 4//4 5//5 6//6
f 7//7 8//8 9//9
f 10//10 11//11 12//12
f 13//13 14//14 15//15
f 16//16 17//17 18//18
f 19//19 20//20 21//21
f 22//22 23//23 24//24
