# Exported from SharpOpenGl procedural mesh
o voidborn_cruiser_mk1_09
# vertices 21
v 0 0.6230466 3.0624795
v -0.889232 0 0
v 0.889232 0 0
v -0.889232 0 0
v 0.889232 0 0
v 0 0 -2.7562315
v -0.277885 0.2769096 -2.5724826
v -1.11154 0.7615014 -2.4454494
v -0.35569277 0.16614576 -2.7312741
v 0.37315986 0.2769096 -0.12249899
v 1.4926394 0.8722652 0.00453414
v 0.4776446 0.16614576 -0.2812904
v -0.4684347 0.2769096 2.3274846
v -1.8737388 0.98302907 2.4545178
v -0.5995964 0.16614576 2.168693
v -0.889232 0.11076383 -3.7974746
v -1.4037162 0 -4.92934
v -0.37474775 0 -4.92934
v 0.889232 0.11076383 -3.7974746
v 0.37474775 0 -4.92934
v 1.4037162 0 -4.92934
vn 0 -0.979926 0.19936118
vn 0 -0.979926 0.19936118
vn 0 -0.979926 0.19936118
vn -0 1 0
vn -0 1 0
vn -0 1 0
vn -0.31014326 -0.7016951 0.64143217
vn -0.31014326 -0.7016951 0.64143217
vn -0.31014326 -0.7016951 0.64143217
vn -0.2887811 0.6855981 -0.668252
vn -0.2887811 0.6855981 -0.668252
vn -0.2887811 0.6855981 -0.668252
vn -0.27325797 -0.668304 0.6918813
vn -0.27325797 -0.668304 0.6918813
vn -0.27325797 -0.668304 0.6918813
vn 0 -0.9952458 0.09739432
vn 0 -0.9952458 0.09739432
vn 0 -0.9952458 0.09739432
vn 0 -0.9952458 0.09739432
vn 0 -0.9952458 0.09739432
vn 0 -0.9952458 0.09739432
f 1//1 2//2 3//3
f 4//4 5//5 6//6
f 7//7 8//8 9//9
f 10//10 11//11 12//12
f 13//13 14//14 15//15
f 16//16 17//17 18//18
f 19//19 20//20 21//21
