# Exported from SharpOpenGl procedural mesh
o voidborn_drone_mk2_20
# vertices 24
v 0 0.09521151 0.46283194
v -0.18089382 0 0
v 0.18089382 0 0
v -0.18089382 0 0
v 0.18089382 0 0
v 0 0 -0.41654873
v -0.05652932 0.04231623 -0.38877884
v -0.22611728 0.11636963 -0.36293685
v -0.07235753 0.025389737 -0.4210813
v 0.0759108 0.04231623 -0.018513292
v 0.3036432 0.13329612 0.0073286816
v 0.09716582 0.025389737 -0.05081576
v -0.09529228 0.04231623 0.35175225
v -0.3811691 0.15022261 0.37759423
v -0.12197411 0.025389737 0.31944978
v -0.22611728 0.016926492 -0.5739116
v -0.26488024 0 -0.6591901
v -0.18735433 0 -0.6591901
v 0 0.016926492 -0.5739116
v -0.03876296 0 -0.6591901
v 0.03876296 0 -0.6591901
v 0.22611728 0.016926492 -0.5739116
v 0.18735433 0 -0.6591901
v 0.26488024 0 -0.6591901
vn 0 -0.9794893 0.20149575
vn 0 -0.9794893 0.20149575
vn 0 -0.9794893 0.20149575
vn -0 1 0
vn -0 1 0
vn -0 1 0
vn -0.26399744 -0.795107 0.54599476
vn -0.26399744 -0.795107 0.54599476
vn -0.26399744 -0.795107 0.54599476
vn -0.24736369 0.7817655 -0.5724104
vn -0.24736369 0.7817655 -0.5724104
vn -0.24736369 0.7817655 -0.5724104
vn -0.23563485 -0.7671503 0.59662104
vn -0.23563485 -0.7671503 0.59662104
vn -0.23563485 -0.7671503 0.59662104
vn 0 -0.98086536 0.19468692
vn 0 -0.98086536 0.19468692
vn 0 -0.98086536 0.19468692
vn 0 -0.98086536 0.1946869
vn 0 -0.98086536 0.1946869
vn 0 -0.98086536 0.1946869
vn 0 -0.98086536 0.19468692
vn 0 -0.98086536 0.19468692
vn 0 -0.98086536 0.19468692
f 1//1 2//2 3//3
f 4//4 5//5 6//6
f 7//7 8//8 9//9
f 10//10 11//11 12//12
f 13//13 14//14 15//15
f 16//16 17//17 18//18
f 19//19 20//20 21//21
f 22//22 23//23 24//24
