# Exported from SharpOpenGl procedural mesh
o voidborn_dreadnought_mk3_45
# vertices 24
v 0 1.3382946 5.7223234
v -1.8537924 0 0
v 1.8537924 0 0
v -1.8537924 0 0
v 1.8537924 0 0
v 0 0 -5.150091
v -0.5793101 0.5947976 -4.8067517
v -2.3172405 1.6356934 -4.5419245
v -0.74151695 0.35687855 -5.137786
v 0.77793074 0.5947976 -1.7548456
v 3.111723 1.8736124 -1.4900181
v 0.9957513 0.35687855 -2.08588
v -0.9765513 0.5947976 1.2970605
v -3.9062052 2.1115317 1.561888
v -1.2499856 0.35687855 0.9660261
v 0.5793101 0.5947976 4.348966
v 2.3172405 1.6356934 4.6137934
v 0.74151695 0.35687855 4.017932
v -1.8537924 0.23791903 -7.095681
v -3.045516 0 -9.717473
v -0.66206884 0 -9.717473
v 1.8537924 0.23791903 -7.095681
v 0.66206884 0 -9.717473
v 3.045516 0 -9.717473
vn 0 -0.9737248 0.22772756
vn 0 -0.9737248 0.22772756
vn 0 -0.9737248 0.22772756
vn -0 1 0
vn -0 1 0
vn -0 1 0
vn -0.31467247 -0.69097066 0.65080017
vn -0.31467247 -0.69097066 0.65080017
vn -0.31467247 -0.69097066 0.65080017
vn -0.2928032 0.67467016 -0.67755926
vn -0.2928032 0.67467016 -0.67755926
vn -0.2928032 0.67467016 -0.67755926
vn -0.27687046 -0.65719247 0.7010284
vn -0.27687046 -0.65719247 0.7010284
vn -0.27687046 -0.65719247 0.7010284
vn -0.31467247 0.69097066 -0.65080017
vn -0.31467247 0.69097066 -0.65080017
vn -0.31467247 0.69097066 -0.65080017
vn 0 -0.9959078 0.09037538
vn 0 -0.9959078 0.09037538
vn 0 -0.9959078 0.09037538
vn 0 -0.9959078 0.09037538
vn 0 -0.9959078 0.09037538
vn 0 -0.9959078 0.09037538
f 1//1 2//2 3//3
f 4//4 5//5 6//6
f 7//7 8//8 9//9
f 10//10 11//11 12//12
f 13//13 14//14 15//15
f 16//16 17//17 18//18
f 19//19 20//20 21//21
f 22//22 23//23 24//24
