# Exported from SharpOpenGl procedural mesh
o resource_refinery
# vertices 78
v -3.045 0 -2.436
v 3.045 0 -2.436
v 3.045 0 2.436
v -3.045 0 -2.436
v 3.045 0 2.436
v -3.045 0 2.436
v -2.1315 0 -0.9135001
v -1.4007001 3.3495002 -0.9135001
v -2.1315 3.3495002 0.9135001
v -1.4007001 3.3495002 -0.9135001
v -1.4007001 3.3495002 0.9135001
v -2.1315 3.3495002 0.9135001
v 0 0 -0.9135001
v 0.7308 3.3495002 -0.9135001
v 0 3.3495002 0.9135001
v 0.7308 3.3495002 -0.9135001
v 0.7308 3.3495002 0.9135001
v 0 3.3495002 0.9135001
v 2.1315 0 -0.9135001
v 2.8623 3.3495002 -0.9135001
v 2.1315 3.3495002 0.9135001
v 2.8623 3.3495002 -0.9135001
v 2.8623 3.3495002 0.9135001
v 2.1315 3.3495002 0.9135001
v 4.61825 0.36946 0
v 3.7362428 0.36946 2.714539
v 4.0640597 0 0
v 3.7362428 0.36946 2.714539
v 1.4271176 0.36946 4.3922167
v 3.2878935 0 2.3887944
v 1.4271176 0.36946 4.3922167
v -1.4271178 0.36946 4.3922167
v 1.2558634 0 3.8651507
v -1.4271178 0.36946 4.3922167
v -3.736243 0.36946 2.7145388
v -1.2558637 0 3.8651507
v -3.736243 0.36946 2.7145388
v -4.61825 0.36946 -4.0374022E-07
v -3.2878938 0 2.3887942
v -4.61825 0.36946 -4.0374022E-07
v -3.7362423 0.36946 -2.7145398
v -4.0640597 0 -3.5529138E-07
v -3.7362423 0.36946 -2.7145398
v -1.427116 0.36946 -4.392217
v -3.2878933 0 -2.388795
v -1.427116 0.36946 -4.392217
v 1.4271183 0.36946 -4.3922167
v -1.2558621 0 -3.8651512
v 1.4271183 0.36946 -4.3922167
v 3.7362423 0.36946 -2.7145395
v 1.2558641 0 -3.8651507
v 3.7362423 0.36946 -2.7145395
v 4.61825 0.36946 8.0748043E-07
v 3.2878933 0 -2.3887947
v 5.1156 0.8526 0
v 5.32875 1.1367999 0
v 5.1156 1.1367999 0.21315
v 2.5578 0.8526 4.43024
v 2.77095 1.1367999 4.43024
v 2.5578 1.1367999 4.64339
v -2.5578005 0.8526 4.4302397
v -2.3446505 1.1367999 4.4302397
v -2.5578005 1.1367999 4.6433897
v -5.1156 0.8526 -4.4721997E-07
v -4.90245 1.1367999 -4.4721997E-07
v -5.1156 1.1367999 0.21314955
v -2.5577996 0.8526 -4.43024
v -2.3446496 1.1367999 -4.43024
v -2.5577996 1.1367999 -4.21709
v 2.557802 0.8526 -4.4302387
v 2.770952 1.1367999 -4.4302387
v 2.557802 1.1367999 -4.2170887
v -0.9947 0 -0.7105
v -0.49735 2.6999 -0.7105
v -0.9947 2.6999 0.56839997
v 0.9947 0 -0.7105
v 1.49205 2.6999 -0.7105
v 0.9947 2.6999 0.56839997
vn 0 -0.99999994 0
vn 0 -0.99999994 0
vn 0 -0.99999994 0
vn 0 -0.99999994 0
vn 0 -0.99999994 0
vn 0 -0.99999994 0
vn 0.90999264 -0.19854382 0.36399698
vn 0.90999264 -0.19854382 0.36399698
vn 0.90999264 -0.19854382 0.36399698
vn 0 -1 0
vn 0 -1 0
vn 0 -1 0
vn 0.90999264 -0.19854383 0.363997
vn 0.90999264 -0.19854383 0.363997
vn 0.90999264 -0.19854383 0.363997
vn 0 -1 0
vn 0 -1 0
vn 0 -1 0
vn 0.90999264 -0.19854382 0.36399698
vn 0.90999264 -0.19854382 0.36399698
vn 0.90999264 -0.19854382 0.36399698
vn 0 -1 0
vn 0 -1 0
vn 0 -1 0
vn 0.5459044 -0.81885684 0.17737508
vn 0.5459044 -0.81885684 0.17737508
vn 0.5459044 -0.81885684 0.17737508
vn 0.33738753 -0.8188567 0.4643741
vn 0.33738753 -0.8188567 0.4643741
vn 0.33738753 -0.8188567 0.4643741
vn 0 -0.8188568 0.5739979
vn 0 -0.8188568 0.5739979
vn 0 -0.8188568 0.5739979
vn -0.33738756 -0.8188568 0.4643741
vn -0.33738756 -0.8188568 0.4643741
vn -0.33738756 -0.8188568 0.4643741
vn -0.5459044 -0.8188568 0.17737503
vn -0.5459044 -0.8188568 0.17737503
vn -0.5459044 -0.8188568 0.17737503
vn -0.5459043 -0.8188567 -0.17737514
vn -0.5459043 -0.8188567 -0.17737514
vn -0.5459043 -0.8188567 -0.17737514
vn -0.33738735 -0.8188567 -0.46437418
vn -0.33738735 -0.8188567 -0.46437418
vn -0.33738735 -0.8188567 -0.46437418
vn 9.5893874E-08 -0.8188568 -0.57399803
vn 9.5893874E-08 -0.8188568 -0.57399803
vn 9.5893874E-08 -0.8188568 -0.57399803
vn 0.3373876 -0.8188567 -0.46437404
vn 0.3373876 -0.8188567 -0.46437404
vn 0.3373876 -0.8188567 -0.46437404
vn 0.5459045 -0.81885666 -0.17737514
vn 0.5459045 -0.81885666 -0.17737514
vn 0.5459045 -0.81885666 -0.17737514
vn 0.62469494 -0.46852133 0.62469506
vn 0.62469494 -0.46852133 0.62469506
vn 0.62469494 -0.46852133 0.62469506
vn 0.624695 -0.46852136 0.624695
vn 0.624695 -0.46852136 0.624695
vn 0.624695 -0.46852136 0.624695
vn 0.624695 -0.46852136 0.624695
vn 0.624695 -0.46852136 0.624695
vn 0.624695 -0.46852136 0.624695
vn 0.62469494 -0.46852133 0.62469506
vn 0.62469494 -0.46852133 0.62469506
vn 0.62469494 -0.46852133 0.62469506
vn 0.624695 -0.46852136 0.624695
vn 0.624695 -0.46852136 0.624695
vn 0.624695 -0.46852136 0.624695
vn 0.624695 -0.46852136 0.624695
vn 0.624695 -0.46852136 0.624695
vn 0.624695 -0.46852136 0.624695
vn 0.9185652 -0.16920939 0.35721985
vn 0.9185652 -0.16920939 0.35721985
vn 0.9185652 -0.16920939 0.35721985
vn 0.9185652 -0.16920939 0.35721987
vn 0.9185652 -0.16920939 0.35721987
vn 0.9185652 -0.16920939 0.35721987
f 1//1 2//2 3//3
f 4//4 5//5 6//6
f 7//7 8//8 9//9
f 10//10 11//11 12//12
f 13//13 14//14 15//15
f 16//16 17//17 18//18
f 19//19 20//20 21//21
f 22//22 23//23 24//24
f 25//25 26//26 27//27
f 28//28 29//29 30//30
f 31//31 32//32 33//33
f 34//34 35//35 36//36
f 37//37 38//38 39//39
f 40//40 41//41 42//42
f 43//43 44//44 45//45
f 46//46 47//47 48//48
f 49//49 50//50 51//51
f 52//52 53//53 54//54
f 55//55 56//56 57//57
f 58//58 59//59 60//60
f 61//61 62//62 63//63
f 64//64 65//65 66//66
f 67//67 68//68 69//69
f 70//70 71//71 72//72
f 73//73 74//74 75//75
f 76//76 77//77 78//78
