# Exported from SharpOpenGl procedural mesh
o shipyard_large
# vertices 102
v -9.135 0 -5.4810004
v 9.135 0 -5.4810004
v 9.135 0 5.4810004
v -9.135 0 -5.4810004
v 9.135 0 5.4810004
v -9.135 0 5.4810004
v -8.2215 1.3702501 -4.5675
v 8.2215 1.3702501 -4.5675
v 8.2215 1.3702501 4.5675
v -8.2215 1.3702501 -4.5675
v 8.2215 1.3702501 4.5675
v -8.2215 1.3702501 4.5675
v -5.02425 0 -5.02425
v -4.29345 6.3945003 -5.02425
v -5.02425 6.3945003 5.02425
v -4.29345 6.3945003 -5.02425
v -4.29345 6.3945003 5.02425
v -5.02425 6.3945003 5.02425
v 0 0 -5.02425
v 0.7308 6.3945003 -5.02425
v 0 6.3945003 5.02425
v 0.7308 6.3945003 -5.02425
v 0.7308 6.3945003 5.02425
v 0 6.3945003 5.02425
v 5.02425 0 -5.02425
v 5.75505 6.3945003 -5.02425
v 5.02425 6.3945003 5.02425
v 5.75505 6.3945003 -5.02425
v 5.75505 6.3945003 5.02425
v 5.02425 6.3945003 5.02425
v -3.1972501 1.4616 -3.1972501
v 3.1972501 1.4616 -3.1972501
v 0 3.1972501 -2.1010501
v -3.1972501 1.4616 -0.6394501
v 3.1972501 1.4616 -0.6394501
v 0 3.1972501 0.45674992
v -3.1972501 1.4616 1.91835
v 3.1972501 1.4616 1.91835
v 0 3.1972501 3.01455
v -3.1972501 1.4616 4.4761505
v 3.1972501 1.4616 4.4761505
v 0 3.1972501 5.5723505
v -3.1972501 1.4616 7.03395
v 3.1972501 1.4616 7.03395
v 0 3.1972501 8.13015
v 0 1.6077601 4.3848004
v -0.73080003 0.60291004 3.654
v 0.73080003 0.60291004 3.654
v 4.61825 0.36946 0
v 3.7362428 0.36946 2.714539
v 4.0640597 0 0
v 3.7362428 0.36946 2.714539
v 1.4271176 0.36946 4.3922167
v 3.2878935 0 2.3887944
v 1.4271176 0.36946 4.3922167
v -1.4271178 0.36946 4.3922167
v 1.2558634 0 3.8651507
v -1.4271178 0.36946 4.3922167
v -3.736243 0.36946 2.7145388
v -1.2558637 0 3.8651507
v -3.736243 0.36946 2.7145388
v -4.61825 0.36946 -4.0374022E-07
v -3.2878938 0 2.3887942
v -4.61825 0.36946 -4.0374022E-07
v -3.7362423 0.36946 -2.7145398
v -4.0640597 0 -3.5529138E-07
v -3.7362423 0.36946 -2.7145398
v -1.427116 0.36946 -4.392217
v -3.2878933 0 -2.388795
v -1.427116 0.36946 -4.392217
v 1.4271183 0.36946 -4.3922167
v -1.2558621 0 -3.8651512
v 1.4271183 0.36946 -4.3922167
v 3.7362423 0.36946 -2.7145395
v 1.2558641 0 -3.8651507
v 3.7362423 0.36946 -2.7145395
v 4.61825 0.36946 8.0748043E-07
v 3.2878933 0 -2.3887947
v 5.1156 0.8526 0
v 5.32875 1.1367999 0
v 5.1156 1.1367999 0.21315
v 2.5578 0.8526 4.43024
v 2.77095 1.1367999 4.43024
v 2.5578 1.1367999 4.64339
v -2.5578005 0.8526 4.4302397
v -2.3446505 1.1367999 4.4302397
v -2.5578005 1.1367999 4.6433897
v -5.1156 0.8526 -4.4721997E-07
v -4.90245 1.1367999 -4.4721997E-07
v -5.1156 1.1367999 0.21314955
v -2.5577996 0.8526 -4.43024
v -2.3446496 1.1367999 -4.43024
v -2.5577996 1.1367999 -4.21709
v 2.557802 0.8526 -4.4302387
v 2.770952 1.1367999 -4.4302387
v 2.557802 1.1367999 -4.2170887
v -1.598625 1.06575 -2.842
v -1.243375 3.9077501 -3.19725
v -1.598625 3.5525 2.1315
v 1.598625 1.06575 -2.842
v 1.953875 3.9077501 -3.19725
v 1.598625 3.5525 2.1315
vn 0 -1 0
vn 0 -1 0
vn 0 -1 0
vn 0 -1 0
vn 0 -1 0
vn 0 -1 0
vn 0 -1 0
vn 0 -1 0
vn 0 -1 0
vn 0 -1 0
vn 0 -1 0
vn 0 -1 0
vn 0.9909491 -0.11325135 0.07206905
vn 0.9909491 -0.11325135 0.07206905
vn 0.9909491 -0.11325135 0.07206905
vn 0 -0.99999994 0
vn 0 -0.99999994 0
vn 0 -0.99999994 0
vn 0.9909491 -0.11325132 0.07206903
vn 0.9909491 -0.11325132 0.07206903
vn 0.9909491 -0.11325132 0.07206903
vn 0 -1 0
vn 0 -1 0
vn 0 -1 0
vn 0.9909491 -0.11325135 0.07206905
vn 0.9909491 -0.11325135 0.07206905
vn 0.9909491 -0.11325135 0.07206905
vn 0 -0.99999994 0
vn 0 -0.99999994 0
vn 0 -0.99999994 0
vn 0 -0.5339929 0.84548885
vn 0 -0.5339929 0.84548885
vn 0 -0.5339929 0.84548885
vn 0 -0.5339929 0.84548885
vn 0 -0.5339929 0.84548885
vn 0 -0.5339929 0.84548885
vn 0 -0.5339929 0.84548885
vn 0 -0.5339929 0.84548885
vn 0 -0.5339929 0.84548885
vn 0 -0.5339929 0.84548885
vn 0 -0.5339929 0.84548885
vn 0 -0.5339929 0.84548885
vn 0 -0.5339929 0.84548885
vn 0 -0.5339929 0.84548885
vn 0 -0.5339929 0.84548885
vn 0 -0.5881719 0.80873597
vn 0 -0.5881719 0.80873597
vn 0 -0.5881719 0.80873597
vn 0.5459044 -0.81885684 0.17737508
vn 0.5459044 -0.81885684 0.17737508
vn 0.5459044 -0.81885684 0.17737508
vn 0.33738753 -0.8188567 0.4643741
vn 0.33738753 -0.8188567 0.4643741
vn 0.33738753 -0.8188567 0.4643741
vn 0 -0.8188568 0.5739979
vn 0 -0.8188568 0.5739979
vn 0 -0.8188568 0.5739979
vn -0.33738756 -0.8188568 0.4643741
vn -0.33738756 -0.8188568 0.4643741
vn -0.33738756 -0.8188568 0.4643741
vn -0.5459044 -0.8188568 0.17737503
vn -0.5459044 -0.8188568 0.17737503
vn -0.5459044 -0.8188568 0.17737503
vn -0.5459043 -0.8188567 -0.17737514
vn -0.5459043 -0.8188567 -0.17737514
vn -0.5459043 -0.8188567 -0.17737514
vn -0.33738735 -0.8188567 -0.46437418
vn -0.33738735 -0.8188567 -0.46437418
vn -0.33738735 -0.8188567 -0.46437418
vn 9.5893874E-08 -0.8188568 -0.57399803
vn 9.5893874E-08 -0.8188568 -0.57399803
vn 9.5893874E-08 -0.8188568 -0.57399803
vn 0.3373876 -0.8188567 -0.46437404
vn 0.3373876 -0.8188567 -0.46437404
vn 0.3373876 -0.8188567 -0.46437404
vn 0.5459045 -0.81885666 -0.17737514
vn 0.5459045 -0.81885666 -0.17737514
vn 0.5459045 -0.81885666 -0.17737514
vn 0.62469494 -0.46852133 0.62469506
vn 0.62469494 -0.46852133 0.62469506
vn 0.62469494 -0.46852133 0.62469506
vn 0.624695 -0.46852136 0.624695
vn 0.624695 -0.46852136 0.624695
vn 0.624695 -0.46852136 0.624695
vn 0.624695 -0.46852136 0.624695
vn 0.624695 -0.46852136 0.624695
vn 0.624695 -0.46852136 0.624695
vn 0.62469494 -0.46852133 0.62469506
vn 0.62469494 -0.46852133 0.62469506
vn 0.62469494 -0.46852133 0.62469506
vn 0.624695 -0.46852136 0.624695
vn 0.624695 -0.46852136 0.624695
vn 0.624695 -0.46852136 0.624695
vn 0.624695 -0.46852136 0.624695
vn 0.624695 -0.46852136 0.624695
vn 0.624695 -0.46852136 0.624695
vn 0.99146014 -0.11664237 0.058321185
vn 0.99146014 -0.11664237 0.058321185
vn 0.99146014 -0.11664237 0.058321185
vn 0.99146014 -0.11664237 0.058321185
vn 0.99146014 -0.11664237 0.058321185
vn 0.99146014 -0.11664237 0.058321185
f 1//1 2//2 3//3
f 4//4 5//5 6//6
f 7//7 8//8 9//9
f 10//10 11//11 12//12
f 13//13 14//14 15//15
f 16//16 17//17 18//18
f 19//19 20//20 21//21
f 22//22 23//23 24//24
f 25//25 26//26 27//27
f 28//28 29//29 30//30
f 31//31 32//32 33//33
f 34//34 35//35 36//36
f 37//37 38//38 39//39
f 40//40 41//41 42//42
f 43//43 44//44 45//45
f 46//46 47//47 48//48
f 49//49 50//50 51//51
f 52//52 53//53 54//54
f 55//55 56//56 57//57
f 58//58 59//59 60//60
f 61//61 62//62 63//63
f 64//64 65//65 66//66
f 67//67 68//68 69//69
f 70//70 71//71 72//72
f 73//73 74//74 75//75
f 76//76 77//77 78//78
f 79//79 80//80 81//81
f 82//82 83//83 84//84
f 85//85 86//86 87//87
f 88//88 89//89 90//90
f 91//91 92//92 93//93
f 94//94 95//95 96//96
f 97//97 98//98 99//99
f 100//100 101//101 102//102
