# Exported from SharpOpenGl procedural mesh
o command_center
# vertices 159
v 7.3150005 0 0
v 5.1724863 0 5.1724863
v 4.0232506 1.4630002 0
v 5.1724863 0 5.1724863
v 2.8448675 1.4630002 2.8448675
v 4.0232506 1.4630002 0
v 0 0 0
v 7.3150005 0 0
v 5.1724863 0 5.1724863
v 5.1724863 0 5.1724863
v -3.1974884E-07 0 7.3150005
v 2.8448675 1.4630002 2.8448675
v -3.1974884E-07 0 7.3150005
v -1.7586186E-07 1.4630002 4.0232506
v 2.8448675 1.4630002 2.8448675
v 0 0 0
v 5.1724863 0 5.1724863
v -3.1974884E-07 0 7.3150005
v -3.1974884E-07 0 7.3150005
v -5.1724863 0 5.1724863
v -1.7586186E-07 1.4630002 4.0232506
v -5.1724863 0 5.1724863
v -2.8448675 1.4630002 2.8448675
v -1.7586186E-07 1.4630002 4.0232506
v 0 0 0
v -3.1974884E-07 0 7.3150005
v -5.1724863 0 5.1724863
v -5.1724863 0 5.1724863
v -7.3150005 0 -6.3949767E-07
v -2.8448675 1.4630002 2.8448675
v -7.3150005 0 -6.3949767E-07
v -4.0232506 1.4630002 -3.517237E-07
v -2.8448675 1.4630002 2.8448675
v 0 0 0
v -5.1724863 0 5.1724863
v -7.3150005 0 -6.3949767E-07
v -7.3150005 0 -6.3949767E-07
v -5.1724854 0 -5.1724873
v -4.0232506 1.4630002 -3.517237E-07
v -5.1724854 0 -5.1724873
v -2.844867 1.4630002 -2.844868
v -4.0232506 1.4630002 -3.517237E-07
v 0 0 0
v -7.3150005 0 -6.3949767E-07
v -5.1724854 0 -5.1724873
v -5.1724854 0 -5.1724873
v 8.723051E-08 0 -7.3150005
v -2.844867 1.4630002 -2.844868
v 8.723051E-08 0 -7.3150005
v 4.7976783E-08 1.4630002 -4.0232506
v -2.844867 1.4630002 -2.844868
v 0 0 0
v -5.1724854 0 -5.1724873
v 8.723051E-08 0 -7.3150005
v 8.723051E-08 0 -7.3150005
v 5.172488 0 -5.172485
v 4.7976783E-08 1.4630002 -4.0232506
v 5.172488 0 -5.172485
v 2.8448687 1.4630002 -2.8448668
v 4.7976783E-08 1.4630002 -4.0232506
v 0 0 0
v 8.723051E-08 0 -7.3150005
v 5.172488 0 -5.172485
v 5.172488 0 -5.172485
v 7.3150005 0 1.2789953E-06
v 2.8448687 1.4630002 -2.8448668
v 7.3150005 0 1.2789953E-06
v 4.0232506 1.4630002 7.034474E-07
v 2.8448687 1.4630002 -2.8448668
v 0 0 0
v 5.172488 0 -5.172485
v 7.3150005 0 1.2789953E-06
v 0 1.4630002 0
v -1.4630002 8.046501 0
v 1.4630002 8.046501 0
v -1.4630002 8.046501 0
v 0 10.972501 1.0972501
v 1.4630002 8.046501 0
v -3.6575003 0.38403752 3.6575003
v 3.6575003 0.38403752 3.6575003
v 0 1.1521125 5.2668004
v 4.7547503 0.38038 0
v 3.8466737 0.38038 2.7947721
v 4.1841803 0 0
v 3.8466737 0.38038 2.7947721
v 1.4692985 0.38038 4.5220366
v 3.385073 0 2.4593995
v 1.4692985 0.38038 4.5220366
v -1.4692988 0.38038 4.522036
v 1.2929827 0 3.979392
v -1.4692988 0.38038 4.522036
v -3.846674 0.38038 2.7947717
v -1.2929829 0 3.9793918
v -3.846674 0.38038 2.7947717
v -4.7547503 0.38038 -4.1567347E-07
v -3.3850732 0 2.459399
v -4.7547503 0.38038 -4.1567347E-07
v -3.8466735 0.38038 -2.7947726
v -4.1841803 0 -3.6579266E-07
v -3.8466735 0.38038 -2.7947726
v -1.4692969 0.38038 -4.5220366
v -3.3850727 0 -2.4594
v -1.4692969 0.38038 -4.5220366
v 1.4692992 0.38038 -4.522036
v -1.2929813 0 -3.979392
v 1.4692992 0.38038 -4.522036
v 3.8466735 0.38038 -2.7947724
v 1.2929833 0 -3.9793918
v 3.8466735 0.38038 -2.7947724
v 4.7547503 0.38038 8.3134694E-07
v 3.3850727 0 -2.4593997
v 5.2668004 0.87780005 0
v 5.4862504 1.1704 0
v 5.2668004 1.1704 0.21945001
v 2.6334002 0.87780005 4.5611835
v 2.8528502 1.1704 4.5611835
v 2.6334002 1.1704 4.7806334
v -2.6334007 0.87780005 4.561183
v -2.4139507 1.1704 4.561183
v -2.6334007 1.1704 4.780633
v -5.2668004 0.87780005 -4.6043834E-07
v -5.0473504 1.1704 -4.6043834E-07
v -5.2668004 1.1704 0.21944955
v -2.6333997 0.87780005 -4.5611835
v -2.4139497 1.1704 -4.5611835
v -2.6333997 1.1704 -4.3417335
v 2.633402 0.87780005 -4.561182
v 2.852852 1.1704 -4.561182
v 2.633402 1.1704 -4.341732
v 2.56025 4.0232506 0
v 3.2917502 3.5112002 0
v 2.56025 3.5112002 0.7315001
v -2.56025 4.0232506 -2.2382419E-07
v -1.8287499 3.5112002 -2.2382419E-07
v -2.56025 3.5112002 0.73149985
v 2.6114552 4.0232506 0
v 1.8465776 4.0232506 1.8465776
v 2.3627453 4.3963156 0
v 1.8465776 4.0232506 1.8465776
v -1.1415033E-07 4.0232506 2.6114552
v 1.6707132 4.3963156 1.6707132
v -1.1415033E-07 4.0232506 2.6114552
v -1.8465776 4.0232506 1.8465776
v -1.0327888E-07 4.3963156 2.3627453
v -1.8465776 4.0232506 1.8465776
v -2.6114552 4.0232506 -2.2830066E-07
v -1.6707132 4.3963156 1.6707132
v -2.6114552 4.0232506 -2.2830066E-07
v -1.8465773 4.0232506 -1.8465779
v -2.3627453 4.3963156 -2.0655776E-07
v -1.8465773 4.0232506 -1.8465779
v 3.114129E-08 4.0232506 -2.6114552
v -1.6707128 4.3963156 -1.6707133
v 3.114129E-08 4.0232506 -2.6114552
v 1.8465782 4.0232506 -1.846577
v 2.8175453E-08 4.3963156 -2.3627453
v 1.8465782 4.0232506 -1.846577
v 2.6114552 4.0232506 4.5660133E-07
v 1.6707137 4.3963156 -1.6707126
vn -0.40051067 -0.90114886 -0.16589697
vn -0.40051067 -0.90114886 -0.16589697
vn -0.40051067 -0.90114886 -0.16589697
vn -0.40051064 -0.9011489 -0.165897
vn -0.40051064 -0.9011489 -0.165897
vn -0.40051064 -0.9011489 -0.165897
vn 0 -0.99999994 0
vn 0 -0.99999994 0
vn 0 -0.99999994 0
vn -0.16589695 -0.901149 -0.40051067
vn -0.16589695 -0.901149 -0.40051067
vn -0.16589695 -0.901149 -0.40051067
vn -0.16589697 -0.90114886 -0.4005107
vn -0.16589697 -0.90114886 -0.4005107
vn -0.16589697 -0.90114886 -0.4005107
vn 0 -0.99999994 0
vn 0 -0.99999994 0
vn 0 -0.99999994 0
vn 0.165897 -0.901149 -0.4005107
vn 0.165897 -0.901149 -0.4005107
vn 0.165897 -0.901149 -0.4005107
vn 0.165897 -0.9011489 -0.40051064
vn 0.165897 -0.9011489 -0.40051064
vn 0.165897 -0.9011489 -0.40051064
vn 0 -0.99999994 0
vn 0 -0.99999994 0
vn 0 -0.99999994 0
vn 0.40051067 -0.901149 -0.16589695
vn 0.40051067 -0.901149 -0.16589695
vn 0.40051067 -0.901149 -0.16589695
vn 0.4005107 -0.901149 -0.16589697
vn 0.4005107 -0.901149 -0.16589697
vn 0.4005107 -0.901149 -0.16589697
vn -0 -1 0
vn -0 -1 0
vn -0 -1 0
vn 0.40051067 -0.9011489 0.16589703
vn 0.40051067 -0.9011489 0.16589703
vn 0.40051067 -0.9011489 0.16589703
vn 0.4005106 -0.9011489 0.16589706
vn 0.4005106 -0.9011489 0.16589706
vn 0.4005106 -0.9011489 0.16589706
vn 0 -1 0
vn 0 -1 0
vn 0 -1 0
vn 0.16589694 -0.901149 0.40051067
vn 0.16589694 -0.901149 0.40051067
vn 0.16589694 -0.901149 0.40051067
vn 0.16589701 -0.901149 0.4005107
vn 0.16589701 -0.901149 0.4005107
vn 0.16589701 -0.901149 0.4005107
vn 0 -1 -0
vn 0 -1 -0
vn 0 -1 -0
vn -0.16589703 -0.9011489 0.4005107
vn -0.16589703 -0.9011489 0.4005107
vn -0.16589703 -0.9011489 0.4005107
vn -0.16589703 -0.9011489 0.40051067
vn -0.16589703 -0.9011489 0.40051067
vn -0.16589703 -0.9011489 0.40051067
vn 0 -1 0
vn 0 -1 0
vn 0 -1 0
vn -0.40051067 -0.90114886 0.16589682
vn -0.40051067 -0.90114886 0.16589682
vn -0.40051067 -0.90114886 0.16589682
vn -0.40051076 -0.901149 0.16589688
vn -0.40051076 -0.901149 0.16589688
vn -0.40051076 -0.901149 0.16589688
vn 0 -0.99999994 0
vn 0 -0.99999994 0
vn 0 -0.99999994 0
vn 0 0 -1
vn 0 0 -1
vn 0 0 -1
vn 0 0.3511235 -0.9363291
vn 0 0.3511235 -0.9363291
vn 0 0.3511235 -0.9363291
vn 0 -0.9024811 0.4307295
vn 0 -0.9024811 0.4307295
vn 0 -0.9024811 0.4307295
vn 0.5459045 -0.8188568 0.17737515
vn 0.5459045 -0.8188568 0.17737515
vn 0.5459045 -0.8188568 0.17737515
vn 0.3373875 -0.8188567 0.464374
vn 0.3373875 -0.8188567 0.464374
vn 0.3373875 -0.8188567 0.464374
vn -9.314087E-08 -0.8188568 0.57399786
vn -9.314087E-08 -0.8188568 0.57399786
vn -9.314087E-08 -0.8188568 0.57399786
vn -0.33738756 -0.8188567 0.46437407
vn -0.33738756 -0.8188567 0.46437407
vn -0.33738756 -0.8188567 0.46437407
vn -0.5459045 -0.8188567 0.1773751
vn -0.5459045 -0.8188567 0.1773751
vn -0.5459045 -0.8188567 0.1773751
vn -0.54590446 -0.81885666 -0.17737517
vn -0.54590446 -0.81885666 -0.17737517
vn -0.54590446 -0.81885666 -0.17737517
vn -0.33738738 -0.8188567 -0.46437427
vn -0.33738738 -0.8188567 -0.46437427
vn -0.33738738 -0.8188567 -0.46437427
vn 9.3140905E-08 -0.81885684 -0.5739979
vn 9.3140905E-08 -0.81885684 -0.5739979
vn 9.3140905E-08 -0.81885684 -0.5739979
vn 0.33738756 -0.8188567 -0.46437404
vn 0.33738756 -0.8188567 -0.46437404
vn 0.33738756 -0.8188567 -0.46437404
vn 0.54590446 -0.81885666 -0.17737511
vn 0.54590446 -0.81885666 -0.17737511
vn 0.54590446 -0.81885666 -0.17737511
vn 0.62469506 -0.4685213 0.624695
vn 0.62469506 -0.4685213 0.624695
vn 0.62469506 -0.4685213 0.624695
vn 0.62469506 -0.46852133 0.62469506
vn 0.62469506 -0.46852133 0.62469506
vn 0.62469506 -0.46852133 0.62469506
vn 0.62469506 -0.46852133 0.62469506
vn 0.62469506 -0.46852133 0.62469506
vn 0.62469506 -0.46852133 0.62469506
vn 0.62469506 -0.4685213 0.624695
vn 0.62469506 -0.4685213 0.624695
vn 0.62469506 -0.4685213 0.624695
vn 0.62469506 -0.46852133 0.62469506
vn 0.62469506 -0.46852133 0.62469506
vn 0.62469506 -0.46852133 0.62469506
vn 0.62469506 -0.46852133 0.62469506
vn 0.62469506 -0.46852133 0.62469506
vn 0.62469506 -0.46852133 0.62469506
vn -0.49746844 -0.7106688 -0.4974685
vn -0.49746844 -0.7106688 -0.4974685
vn -0.49746844 -0.7106688 -0.4974685
vn -0.49746844 -0.7106688 -0.4974685
vn -0.49746844 -0.7106688 -0.4974685
vn -0.49746844 -0.7106688 -0.4974685
vn -0.78664184 -0.5244277 -0.32583773
vn -0.78664184 -0.5244277 -0.32583773
vn -0.78664184 -0.5244277 -0.32583773
vn -0.3258377 -0.52442765 -0.7866418
vn -0.3258377 -0.52442765 -0.7866418
vn -0.3258377 -0.52442765 -0.7866418
vn 0.32583773 -0.52442765 -0.7866418
vn 0.32583773 -0.52442765 -0.7866418
vn 0.32583773 -0.52442765 -0.7866418
vn 0.78664184 -0.5244277 -0.3258377
vn 0.78664184 -0.5244277 -0.3258377
vn 0.78664184 -0.5244277 -0.3258377
vn 0.7866418 -0.5244277 0.32583788
vn 0.7866418 -0.5244277 0.32583788
vn 0.7866418 -0.5244277 0.32583788
vn 0.32583767 -0.5244279 0.7866417
vn 0.32583767 -0.5244279 0.7866417
vn 0.32583767 -0.5244279 0.7866417
vn -0.32583788 -0.5244277 0.78664184
vn -0.32583788 -0.5244277 0.78664184
vn -0.32583788 -0.5244277 0.78664184
vn -0.7866419 -0.5244279 0.32583752
vn -0.7866419 -0.5244279 0.32583752
vn -0.7866419 -0.5244279 0.32583752
f 1//1 2//2 3//3
f 4//4 5//5 6//6
f 7//7 8//8 9//9
f 10//10 11//11 12//12
f 13//13 14//14 15//15
f 16//16 17//17 18//18
f 19//19 20//20 21//21
f 22//22 23//23 24//24
f 25//25 26//26 27//27
f 28//28 29//29 30//30
f 31//31 32//32 33//33
f 34//34 35//35 36//36
f 37//37 38//38 39//39
f 40//40 41//41 42//42
f 43//43 44//44 45//45
f 46//46 47//47 48//48
f 49//49 50//50 51//51
f 52//52 53//53 54//54
f 55//55 56//56 57//57
f 58//58 59//59 60//60
f 61//61 62//62 63//63
f 64//64 65//65 66//66
f 67//67 68//68 69//69
f 70//70 71//71 72//72
f 73//73 74//74 75//75
f 76//76 77//77 78//78
f 79//79 80//80 81//81
f 82//82 83//83 84//84
f 85//85 86//86 87//87
f 88//88 89//89 90//90
f 91//91 92//92 93//93
f 94//94 95//95 96//96
f 97//97 98//98 99//99
f 100//100 101//101 102//102
f 103//103 104//104 105//105
f 106//106 107//107 108//108
f 109//109 110//110 111//111
f 112//112 113//113 114//114
f 115//115 116//116 117//117
f 118//118 119//119 120//120
f 121//121 122//122 123//123
f 124//124 125//125 126//126
f 127//127 128//128 129//129
f 130//130 131//131 132//132
f 133//133 134//134 135//135
f 136//136 137//137 138//138
f 139//139 140//140 141//141
f 142//142 143//143 144//144
f 145//145 146//146 147//147
f 148//148 149//149 150//150
f 151//151 152//152 153//153
f 154//154 155//155 156//156
f 157//157 158//158 159//159
