# Exported from SharpOpenGl procedural mesh
o supply_depot
# vertices 84
v -1.3167001 0 -1.0345501
v -0.28215003 0 -1.0345501
v -1.3167001 1.3167001 -0.18809998
v -0.28215003 0 -1.0345501
v -0.28215003 1.3167001 -0.18809998
v -1.3167001 1.3167001 -0.18809998
v 1.3167001 0 -1.0345501
v 2.3512502 0 -1.0345501
v 1.3167001 1.3167001 -0.18809998
v 2.3512502 0 -1.0345501
v 2.3512502 1.3167001 -0.18809998
v 1.3167001 1.3167001 -0.18809998
v -1.3167001 0 1.0345501
v -0.28215003 0 1.0345501
v -1.3167001 1.3167001 1.8810002
v -0.28215003 0 1.0345501
v -0.28215003 1.3167001 1.8810002
v -1.3167001 1.3167001 1.8810002
v 1.3167001 0 1.0345501
v 2.3512502 0 1.0345501
v 1.3167001 1.3167001 1.8810002
v 2.3512502 0 1.0345501
v 2.3512502 1.3167001 1.8810002
v 1.3167001 1.3167001 1.8810002
v 4.7547503 0.38038 0
v 3.8466737 0.38038 2.7947721
v 4.1841803 0 0
v 3.8466737 0.38038 2.7947721
v 1.4692985 0.38038 4.5220366
v 3.385073 0 2.4593995
v 1.4692985 0.38038 4.5220366
v -1.4692988 0.38038 4.522036
v 1.2929827 0 3.979392
v -1.4692988 0.38038 4.522036
v -3.846674 0.38038 2.7947717
v -1.2929829 0 3.9793918
v -3.846674 0.38038 2.7947717
v -4.7547503 0.38038 -4.1567347E-07
v -3.3850732 0 2.459399
v -4.7547503 0.38038 -4.1567347E-07
v -3.8466735 0.38038 -2.7947726
v -4.1841803 0 -3.6579266E-07
v -3.8466735 0.38038 -2.7947726
v -1.4692969 0.38038 -4.5220366
v -3.3850727 0 -2.4594
v -1.4692969 0.38038 -4.5220366
v 1.4692992 0.38038 -4.522036
v -1.2929813 0 -3.979392
v 1.4692992 0.38038 -4.522036
v 3.8466735 0.38038 -2.7947724
v 1.2929833 0 -3.9793918
v 3.8466735 0.38038 -2.7947724
v 4.7547503 0.38038 8.3134694E-07
v 3.3850727 0 -2.4593997
v 5.2668004 0.87780005 0
v 5.4862504 1.1704 0
v 5.2668004 1.1704 0.21945001
v 2.6334002 0.87780005 4.5611835
v 2.8528502 1.1704 4.5611835
v 2.6334002 1.1704 4.7806334
v -2.6334007 0.87780005 4.561183
v -2.4139507 1.1704 4.561183
v -2.6334007 1.1704 4.780633
v -5.2668004 0.87780005 -4.6043834E-07
v -5.0473504 1.1704 -4.6043834E-07
v -5.2668004 1.1704 0.21944955
v -2.6333997 0.87780005 -4.5611835
v -2.4139497 1.1704 -4.5611835
v -2.6333997 1.1704 -4.3417335
v 2.633402 0.87780005 -4.561182
v 2.852852 1.1704 -4.561182
v 2.633402 1.1704 -4.341732
v -1.0241001 0 -0.87780005
v -0.29259998 0 -0.87780005
v -1.0241001 0.87780005 -0.29260004
v 1.0241001 0 -0.87780005
v 1.7556002 0 -0.87780005
v 1.0241001 0.87780005 -0.29260004
v -1.0241001 0 0.87780005
v -0.29259998 0 0.87780005
v -1.0241001 0.87780005 1.463
v 1.0241001 0 0.87780005
v 1.7556002 0 0.87780005
v 1.0241001 0.87780005 1.463
vn 0 -0.54075766 0.84117854
vn 0 -0.54075766 0.84117854
vn 0 -0.54075766 0.84117854
vn 0 -0.54075766 0.84117854
vn 0 -0.54075766 0.84117854
vn 0 -0.54075766 0.84117854
vn 0 -0.54075766 0.84117854
vn 0 -0.54075766 0.84117854
vn 0 -0.54075766 0.84117854
vn 0 -0.54075766 0.84117854
vn 0 -0.54075766 0.84117854
vn 0 -0.54075766 0.84117854
vn 0 -0.54075766 0.84117854
vn 0 -0.54075766 0.84117854
vn 0 -0.54075766 0.84117854
vn 0 -0.54075766 0.84117854
vn 0 -0.54075766 0.84117854
vn 0 -0.54075766 0.84117854
vn 0 -0.54075766 0.84117854
vn 0 -0.54075766 0.84117854
vn 0 -0.54075766 0.84117854
vn 0 -0.54075766 0.84117854
vn 0 -0.54075766 0.84117854
vn 0 -0.54075766 0.84117854
vn 0.5459045 -0.8188568 0.17737515
vn 0.5459045 -0.8188568 0.17737515
vn 0.5459045 -0.8188568 0.17737515
vn 0.3373875 -0.8188567 0.464374
vn 0.3373875 -0.8188567 0.464374
vn 0.3373875 -0.8188567 0.464374
vn -9.314087E-08 -0.8188568 0.57399786
vn -9.314087E-08 -0.8188568 0.57399786
vn -9.314087E-08 -0.8188568 0.57399786
vn -0.33738756 -0.8188567 0.46437407
vn -0.33738756 -0.8188567 0.46437407
vn -0.33738756 -0.8188567 0.46437407
vn -0.5459045 -0.8188567 0.1773751
vn -0.5459045 -0.8188567 0.1773751
vn -0.5459045 -0.8188567 0.1773751
vn -0.54590446 -0.81885666 -0.17737517
vn -0.54590446 -0.81885666 -0.17737517
vn -0.54590446 -0.81885666 -0.17737517
vn -0.33738738 -0.8188567 -0.46437427
vn -0.33738738 -0.8188567 -0.46437427
vn -0.33738738 -0.8188567 -0.46437427
vn 9.3140905E-08 -0.81885684 -0.5739979
vn 9.3140905E-08 -0.81885684 -0.5739979
vn 9.3140905E-08 -0.81885684 -0.5739979
vn 0.33738756 -0.8188567 -0.46437404
vn 0.33738756 -0.8188567 -0.46437404
vn 0.33738756 -0.8188567 -0.46437404
vn 0.54590446 -0.81885666 -0.17737511
vn 0.54590446 -0.81885666 -0.17737511
vn 0.54590446 -0.81885666 -0.17737511
vn 0.62469506 -0.4685213 0.624695
vn 0.62469506 -0.4685213 0.624695
vn 0.62469506 -0.4685213 0.624695
vn 0.62469506 -0.46852133 0.62469506
vn 0.62469506 -0.46852133 0.62469506
vn 0.62469506 -0.46852133 0.62469506
vn 0.62469506 -0.46852133 0.62469506
vn 0.62469506 -0.46852133 0.62469506
vn 0.62469506 -0.46852133 0.62469506
vn 0.62469506 -0.4685213 0.624695
vn 0.62469506 -0.4685213 0.624695
vn 0.62469506 -0.4685213 0.624695
vn 0.62469506 -0.46852133 0.62469506
vn 0.62469506 -0.46852133 0.62469506
vn 0.62469506 -0.46852133 0.62469506
vn 0.62469506 -0.46852133 0.62469506
vn 0.62469506 -0.46852133 0.62469506
vn 0.62469506 -0.46852133 0.62469506
vn 0 -0.5547002 0.8320503
vn 0 -0.5547002 0.8320503
vn 0 -0.5547002 0.8320503
vn 0 -0.5547002 0.8320503
vn 0 -0.5547002 0.8320503
vn 0 -0.5547002 0.8320503
vn 0 -0.5547002 0.8320503
vn 0 -0.5547002 0.8320503
vn 0 -0.5547002 0.8320503
vn 0 -0.5547002 0.8320503
vn 0 -0.5547002 0.8320503
vn 0 -0.5547002 0.8320503
f 1//1 2//2 3//3
f 4//4 5//5 6//6
f 7//7 8//8 9//9
f 10//10 11//11 12//12
f 13//13 14//14 15//15
f 16//16 17//17 18//18
f 19//19 20//20 21//21
f 22//22 23//23 24//24
f 25//25 26//26 27//27
f 28//28 29//29 30//30
f 31//31 32//32 33//33
f 34//34 35//35 36//36
f 37//37 38//38 39//39
f 40//40 41//41 42//42
f 43//43 44//44 45//45
f 46//46 47//47 48//48
f 49//49 50//50 51//51
f 52//52 53//53 54//54
f 55//55 56//56 57//57
f 58//58 59//59 60//60
f 61//61 62//62 63//63
f 64//64 65//65 66//66
f 67//67 68//68 69//69
f 70//70 71//71 72//72
f 73//73 74//74 75//75
f 76//76 77//77 78//78
f 79//79 80//80 81//81
f 82//82 83//83 84//84
