# Exported from SharpOpenGl procedural mesh
o bomber_heavy
# vertices 84
v -2.799909 0.21424736 1.1488224
v 2.799909 0.21424736 1.1488224
v 0 0.3427958 -0.4923525
v -2.799909 0.21424736 1.1488224
v 0 0.3427958 -0.4923525
v -2.799909 0.21424736 -1.1488224
v 2.799909 0.21424736 1.1488224
v 2.799909 0.21424736 -1.1488224
v 0 0.3427958 -0.4923525
v -2.799909 0 1.1488224
v 2.799909 0 1.1488224
v 2.799909 0 -1.1488224
v -2.799909 0 1.1488224
v 2.799909 0 -1.1488224
v -2.799909 0 -1.1488224
v -2.1279309 0.21424736 1.31294
v -1.4559526 0.38564524 0.4923525
v -2.4639199 0.21424736 -0.65647
v 0 0.21424736 1.31294
v 0.6719782 0.38564524 0.4923525
v -0.3359891 0.21424736 -0.65647
v 2.1279309 0.21424736 1.31294
v 2.799909 0.38564524 0.4923525
v 1.7919418 0.21424736 -0.65647
v -0.62220204 0.21424736 0.328235
v 0.62220204 0.21424736 0.328235
v 0.62220204 0.90289956 0.328235
v -0.62220204 0.21424736 0.328235
v 0.62220204 0.90289956 0.328235
v -0.62220204 0.90289956 0.328235
v -0.62220204 0.21424736 1.4770573
v 0.62220204 0.90289956 1.4770573
v 0.62220204 0.21424736 1.4770573
v -0.62220204 0.21424736 1.4770573
v -0.62220204 0.90289956 1.4770573
v 0.62220204 0.90289956 1.4770573
v -0.62220204 0.21424736 0.328235
v -0.62220204 0.21424736 1.4770573
v 0.62220204 0.21424736 1.4770573
v -0.62220204 0.21424736 0.328235
v 0.62220204 0.21424736 1.4770573
v 0.62220204 0.21424736 0.328235
v -0.62220204 0.90289956 0.328235
v 0.62220204 0.90289956 1.4770573
v -0.62220204 0.90289956 1.4770573
v -0.62220204 0.90289956 0.328235
v 0.62220204 0.90289956 0.328235
v 0.62220204 0.90289956 1.4770573
v -0.62220204 0.21424736 0.328235
v -0.62220204 0.90289956 0.328235
v -0.62220204 0.90289956 1.4770573
v -0.62220204 0.21424736 0.328235
v -0.62220204 0.90289956 1.4770573
v -0.62220204 0.21424736 1.4770573
v 0.62220204 0.21424736 0.328235
v 0.62220204 0.21424736 1.4770573
v 0.62220204 0.90289956 1.4770573
v 0.62220204 0.21424736 0.328235
v 0.62220204 0.90289956 1.4770573
v 0.62220204 0.90289956 0.328235
v -1.7421657 0.06121353 -2.2611744
v -2.3394797 0 -3.5752652
v -1.1448517 0 -3.5752652
v -1.7421657 0.2525058 -1.9625175
v -2.100554 0.06121353 -2.2611744
v -1.3837774 0.06121353 -2.2611744
v -0.5807219 0.06121353 -2.2611744
v -1.1780359 0 -3.5752652
v 0.016592026 0 -3.5752652
v -0.5807219 0.2525058 -1.9625175
v -0.9391103 0.06121353 -2.2611744
v -0.22233355 0.06121353 -2.2611744
v 0.5807219 0.06121353 -2.2611744
v -0.016592026 0 -3.5752652
v 1.1780359 0 -3.5752652
v 0.5807219 0.2525058 -1.9625175
v 0.22233355 0.06121353 -2.2611744
v 0.9391103 0.06121353 -2.2611744
v 1.7421657 0.06121353 -2.2611744
v 1.1448517 0 -3.5752652
v 2.3394797 0 -3.5752652
v 1.7421657 0.2525058 -1.9625175
v 1.3837774 0.06121353 -2.2611744
v 2.100554 0.06121353 -2.2611744
vn -0 0.99694645 0.0780879
vn -0 0.99694645 0.0780879
vn -0 0.99694645 0.0780879
vn -0.04586333 0.9989477 0
vn -0.04586333 0.9989477 0
vn -0.04586333 0.9989477 0
vn 0.04586333 0.9989477 0
vn 0.04586333 0.9989477 0
vn 0.04586333 0.9989477 0
vn -0 0.99999994 0
vn -0 0.99999994 0
vn -0 0.99999994 0
vn 0 0.99999994 0
vn 0 0.99999994 0
vn 0 0.99999994 0
vn -0.20640859 0.977832 0.035214107
vn -0.20640859 0.977832 0.035214107
vn -0.20640859 0.977832 0.035214107
vn -0.20640859 0.977832 0.03521412
vn -0.20640859 0.977832 0.03521412
vn -0.20640859 0.977832 0.03521412
vn -0.20640859 0.9778321 0.03521412
vn -0.20640859 0.9778321 0.03521412
vn -0.20640859 0.9778321 0.03521412
vn 0 0 1
vn 0 0 1
vn 0 0 1
vn 0 0 1
vn 0 0 1
vn 0 0 1
vn 0 0 -1
vn 0 0 -1
vn 0 0 -1
vn 0 0 -1
vn 0 0 -1
vn 0 0 -1
vn 0 0.99999994 0
vn 0 0.99999994 0
vn 0 0.99999994 0
vn 0 0.99999994 0
vn 0 0.99999994 0
vn 0 0.99999994 0
vn 0 -0.99999994 0
vn 0 -0.99999994 0
vn 0 -0.99999994 0
vn 0 -0.99999994 0
vn 0 -0.99999994 0
vn 0 -0.99999994 0
vn 1 0 0
vn 1 0 0
vn 1 0 0
vn 1 0 0
vn 1 0 0
vn 1 0 0
vn -1 0 0
vn -1 0 0
vn -1 0 0
vn -1 0 0
vn -1 0 0
vn -1 0 0
vn 0 -0.9989168 0.046531964
vn 0 -0.9989168 0.046531964
vn 0 -0.9989168 0.046531964
vn 0 -0.84207696 0.5393574
vn 0 -0.84207696 0.5393574
vn 0 -0.84207696 0.5393574
vn 0 -0.9989168 0.046531968
vn 0 -0.9989168 0.046531968
vn 0 -0.9989168 0.046531968
vn 0 -0.84207696 0.53935736
vn 0 -0.84207696 0.53935736
vn 0 -0.84207696 0.53935736
vn 0 -0.9989168 0.046531968
vn 0 -0.9989168 0.046531968
vn 0 -0.9989168 0.046531968
vn 0 -0.84207696 0.53935736
vn 0 -0.84207696 0.53935736
vn 0 -0.84207696 0.53935736
vn 0 -0.9989168 0.046531964
vn 0 -0.9989168 0.046531964
vn 0 -0.9989168 0.046531964
vn 0 -0.84207696 0.5393574
vn 0 -0.84207696 0.5393574
vn 0 -0.84207696 0.5393574
f 1//1 2//2 3//3
f 4//4 5//5 6//6
f 7//7 8//8 9//9
f 10//10 11//11 12//12
f 13//13 14//14 15//15
f 16//16 17//17 18//18
f 19//19 20//20 21//21
f 22//22 23//23 24//24
f 25//25 26//26 27//27
f 28//28 29//29 30//30
f 31//31 32//32 33//33
f 34//34 35//35 36//36
f 37//37 38//38 39//39
f 40//40 41//41 42//42
f 43//43 44//44 45//45
f 46//46 47//47 48//48
f 49//49 50//50 51//51
f 52//52 53//53 54//54
f 55//55 56//56 57//57
f 58//58 59//59 60//60
f 61//61 62//62 63//63
f 64//64 65//65 66//66
f 67//67 68//68 69//69
f 70//70 71//71 72//72
f 73//73 74//74 75//75
f 76//76 77//77 78//78
f 79//79 80//80 81//81
f 82//82 83//83 84//84
