# Exported from SharpOpenGl procedural mesh
o destroyer_assault
# vertices 345
v -0.8026135 0.045818344 -3.0516965
v 0.8026135 0.045818344 -3.0516965
v 0 0.14318232 -2.7520754
v -0.8026135 0.045818344 -3.0516965
v 0 0.14318232 -2.7520754
v -1.0055399 0.05482839 -2.385872
v 0.8026135 0.045818344 -3.0516965
v 1.0055399 0.05482839 -2.385872
v 0 0.17133872 -2.7520754
v -0.8026135 0 -3.0516965
v -1.0055399 0 -2.385872
v 0.8026135 0 -3.0516965
v 0.8026135 0 -3.0516965
v -1.0055399 0 -2.385872
v 1.0055399 0 -2.385872
v -1.0055399 0.05482839 -2.385872
v 1.0055399 0.05482839 -2.385872
v 0 0.17133872 -2.0862508
v -1.0055399 0.05482839 -2.385872
v 0 0.17133872 -2.0862508
v -1.1886026 0.06295647 -1.7200471
v 1.0055399 0.05482839 -2.385872
v 1.1886026 0.06295647 -1.7200471
v 0 0.19673897 -2.0862508
v -1.0055399 0 -2.385872
v -1.1886026 0 -1.7200471
v 1.0055399 0 -2.385872
v 1.0055399 0 -2.385872
v -1.1886026 0 -1.7200471
v 1.1886026 0 -1.7200471
v -1.1886026 0.06295647 -1.7200471
v 1.1886026 0.06295647 -1.7200471
v 0 0.19673897 -1.420426
v -1.1886026 0.06295647 -1.7200471
v 0 0.19673897 -1.420426
v -1.3338819 0.06940695 -1.0542223
v 1.1886026 0.06295647 -1.7200471
v 1.3338819 0.06940695 -1.0542223
v 0 0.21689673 -1.420426
v -1.1886026 0 -1.7200471
v -1.3338819 0 -1.0542223
v 1.1886026 0 -1.7200471
v 1.1886026 0 -1.7200471
v -1.3338819 0 -1.0542223
v 1.3338819 0 -1.0542223
v -1.3338819 0.06940695 -1.0542223
v 1.3338819 0.06940695 -1.0542223
v 0 0.21689673 -0.75460124
v -1.3338819 0.06940695 -1.0542223
v 0 0.21689673 -0.75460124
v -1.4271569 0.07354842 -0.3883977
v 1.3338819 0.06940695 -1.0542223
v 1.4271569 0.07354842 -0.3883977
v 0 0.22983882 -0.75460124
v -1.3338819 0 -1.0542223
v -1.4271569 0 -0.3883977
v 1.3338819 0 -1.0542223
v 1.3338819 0 -1.0542223
v -1.4271569 0 -0.3883977
v 1.4271569 0 -0.3883977
v -1.4271569 0.07354842 -0.3883977
v 1.4271569 0.07354842 -0.3883977
v 0 0.22983882 -0.08877662
v -1.4271569 0.07354842 -0.3883977
v 0 0.22983882 -0.08877662
v -1.4592973 0.07497547 0.27742696
v 1.4271569 0.07354842 -0.3883977
v 1.4592973 0.07497547 0.27742696
v 0 0.23429833 -0.08877662
v -1.4271569 0 -0.3883977
v -1.4592973 0 0.27742696
v 1.4271569 0 -0.3883977
v 1.4271569 0 -0.3883977
v -1.4592973 0 0.27742696
v 1.4592973 0 0.27742696
v -1.4592973 0.07497547 0.27742696
v 1.4592973 0.07497547 0.27742696
v 0 0.23429833 0.5770482
v -1.4592973 0.07497547 0.27742696
v 0 0.23429833 0.5770482
v -1.4271569 0.073548414 0.94325185
v 1.4592973 0.07497547 0.27742696
v 1.4271569 0.073548414 0.94325185
v 0 0.2298388 0.5770482
v -1.4592973 0 0.27742696
v -1.4271569 0 0.94325185
v 1.4592973 0 0.27742696
v 1.4592973 0 0.27742696
v -1.4271569 0 0.94325185
v 1.4271569 0 0.94325185
v -1.4271569 0.073548414 0.94325185
v 1.4271569 0.073548414 0.94325185
v 0 0.2298388 1.2428728
v -1.4271569 0.073548414 0.94325185
v 0 0.2298388 1.2428728
v -1.3338819 0.06940695 1.6090763
v 1.4271569 0.073548414 0.94325185
v 1.3338819 0.06940695 1.6090763
v 0 0.21689673 1.2428728
v -1.4271569 0 0.94325185
v -1.3338819 0 1.6090763
v 1.4271569 0 0.94325185
v 1.4271569 0 0.94325185
v -1.3338819 0 1.6090763
v 1.3338819 0 1.6090763
v -1.3338819 0.06940695 1.6090763
v 1.3338819 0.06940695 1.6090763
v 0 0.21689673 1.9086975
v -1.3338819 0.06940695 1.6090763
v 0 0.21689673 1.9086975
v -1.4539293 0.06295647 2.2749012
v 1.3338819 0.06940695 1.6090763
v 1.4539293 0.06295647 2.2749012
v 0 0.19673896 1.9086975
v -1.3338819 0 1.6090763
v -1.4539293 0 2.2749012
v 1.3338819 0 1.6090763
v 1.3338819 0 1.6090763
v -1.4539293 0 2.2749012
v 1.4539293 0 2.2749012
v -1.4539293 0.06295647 2.2749012
v 1.4539293 0.06295647 2.2749012
v 0 0.19673896 2.574522
v -1.4539293 0.06295647 2.2749012
v 0 0.19673896 2.574522
v -1.1382034 0.05482839 2.9407256
v 1.4539293 0.06295647 2.2749012
v 1.1382034 0.05482839 2.9407256
v 0 0.17133872 2.574522
v -1.4539293 0 2.2749012
v -1.1382034 0 2.9407256
v 1.4539293 0 2.2749012
v 1.4539293 0 2.2749012
v -1.1382034 0 2.9407256
v 1.1382034 0 2.9407256
v -1.1382034 0.05482839 2.9407256
v 1.1382034 0.05482839 2.9407256
v 0 0.17133872 3.2403467
v -1.1382034 0.05482839 2.9407256
v 0 0.17133872 3.2403467
v -0.80261344 0.045818336 3.6065505
v 1.1382034 0.05482839 2.9407256
v 0.80261344 0.045818336 3.6065505
v 0 0.14318231 3.2403467
v -1.1382034 0 2.9407256
v -0.80261344 0 3.6065505
v 1.1382034 0 2.9407256
v 1.1382034 0 2.9407256
v -0.80261344 0 3.6065505
v 0.80261344 0 3.6065505
v -2.4625642 0.26033148 2.108445
v 2.4625642 0.26033148 2.108445
v 0 0.4035138 -1.6645617
v -2.4625642 0.26033148 2.108445
v 0 0.4035138 -1.6645617
v -2.4625642 0.26033148 -2.108445
v 2.4625642 0.26033148 2.108445
v 2.4625642 0.26033148 -2.108445
v 0 0.4035138 -1.6645617
v -2.4625642 0.23950496 2.108445
v 2.4625642 0.23950496 2.108445
v 2.4625642 0.23950496 -2.108445
v -2.4625642 0.23950496 2.108445
v 2.4625642 0.23950496 -2.108445
v -2.4625642 0.23950496 -2.108445
v -2.4625642 0.23950496 2.108445
v -2.4625642 0.26033148 2.108445
v 2.4625642 0.26033148 2.108445
v -2.4625642 0.23950496 -2.108445
v 2.4625642 0.26033148 -2.108445
v -2.4625642 0.26033148 -2.108445
v 2.4625642 0.23950496 -2.108445
v 2.4625642 0.26033148 -2.108445
v 2.4625642 0.26033148 2.108445
v 2.4625642 0.23950496 2.108445
v 2.4625642 0.26033148 2.108445
v 2.4625642 0.26033148 -2.108445
v -2.3148103 0.26033148 -2.108445
v -1.8222975 0.26033148 -2.108445
v -2.068554 0.3514475 -1.553591
v -2.3148103 0.26033148 -2.108445
v -2.068554 0.3514475 -1.553591
v -2.265559 0.26033148 -1.553591
v -1.8222975 0.26033148 -2.108445
v -1.8715488 0.26033148 -1.553591
v -2.068554 0.3514475 -1.553591
v -0.24625643 0.26033148 -2.108445
v 0.24625643 0.26033148 -2.108445
v 0 0.3514475 -1.553591
v -0.24625643 0.26033148 -2.108445
v 0 0.3514475 -1.553591
v -0.19700514 0.26033148 -1.553591
v 0.24625643 0.26033148 -2.108445
v 0.19700514 0.26033148 -1.553591
v 0 0.3514475 -1.553591
v 1.8222975 0.26033148 -2.108445
v 2.3148103 0.26033148 -2.108445
v 2.068554 0.3514475 -1.553591
v 1.8222975 0.26033148 -2.108445
v 2.068554 0.3514475 -1.553591
v 1.8715488 0.26033148 -1.553591
v 2.3148103 0.26033148 -2.108445
v 2.265559 0.26033148 -1.553591
v 2.068554 0.3514475 -1.553591
v -2.3148103 0.26033148 1.6645617
v -1.8222975 0.26033148 1.6645617
v -2.068554 0.46859667 2.2194157
v -2.3148103 0.26033148 1.6645617
v -2.068554 0.46859667 2.2194157
v -2.265559 0.26033148 2.2194157
v -1.8222975 0.26033148 1.6645617
v -1.8715488 0.26033148 2.2194157
v -2.068554 0.46859667 2.2194157
v -0.24625643 0.26033148 1.6645617
v 0.24625643 0.26033148 1.6645617
v 0 0.46859667 2.2194157
v -0.24625643 0.26033148 1.6645617
v 0 0.46859667 2.2194157
v -0.19700514 0.26033148 2.2194157
v 0.24625643 0.26033148 1.6645617
v 0.19700514 0.26033148 2.2194157
v 0 0.46859667 2.2194157
v 1.8222975 0.26033148 1.6645617
v 2.3148103 0.26033148 1.6645617
v 2.068554 0.46859667 2.2194157
v 1.8222975 0.26033148 1.6645617
v 2.068554 0.46859667 2.2194157
v 1.8715488 0.26033148 2.2194157
v 2.3148103 0.26033148 1.6645617
v 2.265559 0.26033148 2.2194157
v 2.068554 0.46859667 2.2194157
v -0.36482432 0.21719083 0.18643092
v 0.36482432 0.21719083 0.18643092
v 0 0.67872137 0.22837786
v -0.36482432 0.21719083 0.18643092
v 0 0.67872137 0.22837786
v -0.3405027 0.24446365 0.27964637
v 0.36482432 0.21719083 0.18643092
v 0.3405027 0.24446365 0.27964637
v 0 0.7639489 0.22837786
v -0.36482432 0 0.18643092
v -0.3405027 0 0.27964637
v 0.36482432 0 0.18643092
v 0.36482432 0 0.18643092
v -0.3405027 0 0.27964637
v 0.3405027 0 0.27964637
v -0.3405027 0.24446365 0.27964637
v 0.3405027 0.24446365 0.27964637
v 0 0.7639489 0.3215933
v -0.3405027 0.24446365 0.27964637
v 0 0.7639489 0.3215933
v -0.3161811 0.27173647 0.37286183
v 0.3405027 0.24446365 0.27964637
v 0.3161811 0.27173647 0.37286183
v 0 0.8491765 0.3215933
v -0.3405027 0 0.27964637
v -0.3161811 0 0.37286183
v 0.3405027 0 0.27964637
v 0.3405027 0 0.27964637
v -0.3161811 0 0.37286183
v 0.3161811 0 0.37286183
v -0.3161811 0.27173647 0.37286183
v 0.3161811 0.27173647 0.37286183
v 0 0.8491765 0.41480878
v -0.3161811 0.27173647 0.37286183
v 0 0.8491765 0.41480878
v -0.29185948 0.29900932 0.46607727
v 0.3161811 0.27173647 0.37286183
v 0.29185948 0.29900932 0.46607727
v 0 0.93440413 0.41480878
v -0.3161811 0 0.37286183
v -0.29185948 0 0.46607727
v 0.3161811 0 0.37286183
v 0.3161811 0 0.37286183
v -0.29185948 0 0.46607727
v 0.29185948 0 0.46607727
v -0.29185948 0.29900932 0.46607727
v 0.29185948 0.29900932 0.46607727
v 0 0.93440413 0.5080242
v -0.29185948 0.29900932 0.46607727
v 0 0.93440413 0.5080242
v -0.26753783 0.3262821 0.55929273
v 0.29185948 0.29900932 0.46607727
v 0.26753783 0.3262821 0.55929273
v 0 1.0196316 0.5080242
v -0.29185948 0 0.46607727
v -0.26753783 0 0.55929273
v 0.29185948 0 0.46607727
v 0.29185948 0 0.46607727
v -0.26753783 0 0.55929273
v 0.26753783 0 0.55929273
v -0.26753783 0.3262821 0.55929273
v 0.26753783 0.3262821 0.55929273
v 0 1.0196316 0.6012397
v -0.26753783 0.3262821 0.55929273
v 0 1.0196316 0.6012397
v -0.2432162 0.35355493 0.6525082
v 0.26753783 0.3262821 0.55929273
v 0.2432162 0.35355493 0.6525082
v 0 1.1048592 0.6012397
v -0.26753783 0 0.55929273
v -0.2432162 0 0.6525082
v 0.26753783 0 0.55929273
v 0.26753783 0 0.55929273
v -0.2432162 0 0.6525082
v 0.2432162 0 0.6525082
v -0.2432162 0.35355493 0.6525082
v 0.2432162 0.35355493 0.6525082
v 0 1.1048592 0.69445515
v -0.2432162 0.35355493 0.6525082
v 0 1.1048592 0.69445515
v -0.2188946 0.38082778 0.74572366
v 0.2432162 0.35355493 0.6525082
v 0.2188946 0.38082778 0.74572366
v 0 1.1900868 0.69445515
v -0.2432162 0 0.6525082
v -0.2188946 0 0.74572366
v 0.2432162 0 0.6525082
v 0.2432162 0 0.6525082
v -0.2188946 0 0.74572366
v 0.2188946 0 0.74572366
v -1.5322621 0.07438043 -3.8223271
v -2.0794985 0 -5.0262475
v -0.98502564 0 -5.0262475
v -1.5322621 0.30681926 -3.548709
v -1.8606039 0.07438043 -3.8223271
v -1.2039202 0.07438043 -3.8223271
v -0.51075405 0.07438043 -3.8223271
v -1.0579906 0 -5.0262475
v 0.036482394 0 -5.0262475
v -0.51075405 0.30681926 -3.548709
v -0.83909595 0.07438043 -3.8223271
v -0.18241218 0.07438043 -3.8223271
v 0.51075405 0.07438043 -3.8223271
v -0.036482394 0 -5.0262475
v 1.0579906 0 -5.0262475
v 0.51075405 0.30681926 -3.548709
v 0.18241218 0.07438043 -3.8223271
v 0.83909595 0.07438043 -3.8223271
v 1.5322621 0.07438043 -3.8223271
v 0.98502564 0 -5.0262475
v 2.0794985 0 -5.0262475
v 1.5322621 0.30681926 -3.548709
v 1.2039202 0.07438043 -3.8223271
v 1.8606039 0.07438043 -3.8223271
vn 0 -0.951046 0.30904907
vn 0 -0.951046 0.30904907
vn 0 -0.951046 0.30904907
vn 0.10371167 -0.9935864 0.04505405
vn 0.10371167 -0.9935864 0.04505405
vn 0.10371167 -0.9935864 0.04505405
vn -0.13444206 -0.98942906 0.05436363
vn -0.13444206 -0.98942906 0.05436363
vn -0.13444206 -0.98942906 0.05436363
vn 0 1 -0
vn 0 1 -0
vn 0 1 -0
vn 0 0.99999994 -0
vn 0 0.99999994 -0
vn 0 0.99999994 -0
vn 0 -0.9320141 0.36242196
vn 0 -0.9320141 0.36242196
vn 0 -0.9320141 0.36242196
vn 0.10309452 -0.9938476 0.040477358
vn 0.10309452 -0.9938476 0.040477358
vn 0.10309452 -0.9938476 0.040477358
vn -0.12592874 -0.9909384 0.046719916
vn -0.12592874 -0.9909384 0.046719916
vn -0.12592874 -0.9909384 0.046719916
vn 0 1 -0
vn 0 1 -0
vn 0 1 -0
vn 0 1 -0
vn 0 1 -0
vn 0 1 -0
vn 0 -0.91311175 0.4077095
vn 0 -0.91311175 0.4077095
vn 0 -0.91311175 0.4077095
vn 0.10375371 -0.99407935 0.032269083
vn 0.10375371 -0.99407935 0.032269083
vn 0.10375371 -0.99407935 0.032269083
vn -0.11950623 -0.99219185 0.035687912
vn -0.11950623 -0.99219185 0.035687912
vn -0.11950623 -0.99219185 0.035687912
vn 0 1 -0
vn 0 1 -0
vn 0 1 -0
vn 0 0.99999994 -0
vn 0 0.99999994 -0
vn 0 0.99999994 -0
vn 0 -0.8971897 0.4416455
vn 0 -0.8971897 0.4416455
vn 0 -0.8971897 0.4416455
vn 0.10523304 -0.9942274 0.020926207
vn 0.10523304 -0.9942274 0.020926207
vn 0.10523304 -0.9942274 0.020926207
vn -0.11446448 -0.99317896 0.022212911
vn -0.11446448 -0.99317896 0.022212911
vn -0.11446448 -0.99317896 0.022212911
vn 0 1 -0
vn 0 1 -0
vn 0 1 -0
vn 0 1 -0
vn 0 1 -0
vn 0 1 -0
vn 0 -0.8866257 0.4624878
vn 0 -0.8866257 0.4624878
vn 0 -0.8866257 0.4624878
vn 0.107340865 -0.99419534 0.0073123444
vn 0.107340865 -0.99419534 0.0073123444
vn 0.107340865 -0.99419534 0.0073123444
vn -0.11037925 -0.9938616 0.007458296
vn -0.11037925 -0.9938616 0.007458296
vn -0.11037925 -0.9938616 0.007458296
vn 0 1 -0
vn 0 1 -0
vn 0 1 -0
vn 0 1 -0
vn 0 1 -0
vn 0 1 -0
vn 0 -0.8829337 0.46949783
vn 0 -0.8829337 0.46949783
vn 0 -0.8829337 0.46949783
vn 0.1100397 -0.9938993 -0.007441996
vn 0.1100397 -0.9938993 -0.007441996
vn 0.1100397 -0.9938993 -0.007441996
vn -0.10700775 -0.9942314 -0.0072963503
vn -0.10700775 -0.9942314 -0.0072963503
vn -0.10700775 -0.9942314 -0.0072963503
vn 0 1 0
vn 0 1 0
vn 0 1 0
vn 0 0.99999994 0
vn 0 0.99999994 0
vn 0 0.99999994 0
vn 0 -0.8866255 0.4624878
vn 0 -0.8866255 0.4624878
vn 0 -0.8866255 0.4624878
vn 0.113410935 -0.9933031 -0.02206609
vn 0.113410935 -0.9933031 -0.02206609
vn 0.113410935 -0.9933031 -0.02206609
vn -0.10423846 -0.99433506 -0.02078754
vn -0.10423846 -0.99433506 -0.02078754
vn -0.10423846 -0.99433506 -0.02078754
vn 0 1 0
vn 0 1 0
vn 0 1 0
vn 0 0.99999994 0
vn 0 0.99999994 0
vn 0 0.99999994 0
vn 0 -0.89718974 0.44164538
vn 0 -0.89718974 0.44164538
vn 0 -0.89718974 0.44164538
vn 0.10772372 -0.99413264 0.009791348
vn 0.10772372 -0.99413264 0.009791348
vn 0.10772372 -0.99413264 0.009791348
vn -0.093422756 -0.9956004 0.0071986816
vn -0.093422756 -0.9956004 0.0071986816
vn -0.093422756 -0.9956004 0.0071986816
vn 0 0.99999994 -0
vn 0 0.99999994 -0
vn 0 0.99999994 -0
vn 0 0.99999994 -0
vn 0 0.99999994 -0
vn 0 0.99999994 -0
vn 0 -0.91311157 0.40770972
vn 0 -0.91311157 0.40770972
vn 0 -0.91311157 0.40770972
vn 0.104000844 -0.99267805 -0.0614341
vn 0.104000844 -0.99267805 -0.0614341
vn 0.104000844 -0.99267805 -0.0614341
vn -0.08497897 -0.9950018 -0.052442525
vn -0.08497897 -0.9950018 -0.052442525
vn -0.08497897 -0.9950018 -0.052442525
vn 0 1 0
vn 0 1 0
vn 0 1 0
vn 0 1 0
vn 0 1 0
vn 0 1 0
vn 0 -0.9320141 0.36242196
vn 0 -0.9320141 0.36242196
vn 0 -0.9320141 0.36242196
vn 0.1208935 -0.9898789 -0.0743281
vn 0.1208935 -0.9898789 -0.0743281
vn 0.1208935 -0.9898789 -0.0743281
vn -0.093030505 -0.9938334 -0.06033808
vn -0.093030505 -0.9938334 -0.06033808
vn -0.093030505 -0.9938334 -0.06033808
vn 0 1 0
vn 0 1 0
vn 0 1 0
vn 0 1 0
vn 0 1 0
vn 0 1 0
vn -0 0.9992807 0.037921827
vn -0 0.9992807 0.037921827
vn -0 0.9992807 0.037921827
vn -0.05804555 0.99831396 0
vn -0.05804555 0.99831396 0
vn -0.05804555 0.99831396 0
vn 0.05804555 0.99831396 0
vn 0.05804555 0.99831396 0
vn 0.05804555 0.99831396 0
vn -0 1 0
vn -0 1 0
vn -0 1 0
vn 0 1 0
vn 0 1 0
vn 0 1 0
vn 0 0 -1
vn 0 0 -1
vn 0 0 -1
vn 0 0 1
vn 0 0 1
vn 0 0 1
vn 1 0 0
vn 1 0 0
vn 1 0 0
vn -1 0 0
vn -1 0 0
vn -1 0 0
vn 0 -0.98678315 0.1620458
vn 0 -0.98678315 0.1620458
vn 0 -0.98678315 0.1620458
vn 0.41949084 -0.9069955 -0.037235886
vn 0.41949084 -0.9069955 -0.037235886
vn 0.41949084 -0.9069955 -0.037235886
vn -0.4194907 -0.90699565 -0.03723587
vn -0.4194907 -0.90699565 -0.03723587
vn -0.4194907 -0.90699565 -0.03723587
vn 0 -0.98678315 0.16204579
vn 0 -0.98678315 0.16204579
vn 0 -0.98678315 0.16204579
vn 0.4194907 -0.90699565 -0.037235852
vn 0.4194907 -0.90699565 -0.037235852
vn 0.4194907 -0.90699565 -0.037235852
vn -0.4194907 -0.90699565 -0.037235852
vn -0.4194907 -0.90699565 -0.037235852
vn -0.4194907 -0.90699565 -0.037235852
vn 0 -0.98678315 0.1620458
vn 0 -0.98678315 0.1620458
vn 0 -0.98678315 0.1620458
vn 0.4194907 -0.90699565 -0.03723587
vn 0.4194907 -0.90699565 -0.03723587
vn 0.4194907 -0.90699565 -0.03723587
vn -0.41949084 -0.9069955 -0.037235886
vn -0.41949084 -0.9069955 -0.037235886
vn -0.41949084 -0.9069955 -0.037235886
vn 0 -0.93622094 0.35141185
vn 0 -0.93622094 0.35141185
vn 0 -0.93622094 0.35141185
vn 0.7249671 -0.68577075 -0.06435133
vn 0.7249671 -0.68577075 -0.06435133
vn 0.7249671 -0.68577075 -0.06435133
vn -0.7249669 -0.6857709 -0.064351305
vn -0.7249669 -0.6857709 -0.064351305
vn -0.7249669 -0.6857709 -0.064351305
vn 0 -0.93622094 0.35141182
vn 0 -0.93622094 0.35141182
vn 0 -0.93622094 0.35141182
vn 0.7249669 -0.6857709 -0.06435127
vn 0.7249669 -0.6857709 -0.06435127
vn 0.7249669 -0.6857709 -0.06435127
vn -0.7249669 -0.6857709 -0.06435127
vn -0.7249669 -0.6857709 -0.06435127
vn -0.7249669 -0.6857709 -0.06435127
vn 0 -0.93622094 0.35141185
vn 0 -0.93622094 0.35141185
vn 0 -0.93622094 0.35141185
vn 0.7249669 -0.6857709 -0.064351305
vn 0.7249669 -0.6857709 -0.064351305
vn 0.7249669 -0.6857709 -0.064351305
vn -0.7249671 -0.68577075 -0.06435133
vn -0.7249671 -0.68577075 -0.06435133
vn -0.7249671 -0.68577075 -0.06435133
vn 0 -0.09051354 0.99589515
vn 0 -0.09051354 0.99589515
vn 0 -0.09051354 0.99589515
vn 0.7853359 -0.6186077 -0.023917269
vn 0.7853359 -0.6186077 -0.023917269
vn 0.7853359 -0.6186077 -0.023917269
vn -0.8324998 -0.5511932 -0.055947214
vn -0.8324998 -0.5511932 -0.055947214
vn -0.8324998 -0.5511932 -0.055947214
vn 0 1 0
vn 0 1 0
vn 0 1 0
vn 0 1 0
vn 0 1 0
vn 0 1 0
vn 0 -0.08048518 0.99675584
vn 0 -0.08048518 0.99675584
vn 0 -0.08048518 0.99675584
vn 0.83706725 -0.543879 -0.059278958
vn 0.83706725 -0.543879 -0.059278958
vn 0.83706725 -0.543879 -0.059278958
vn -0.8706933 -0.48434255 -0.08547167
vn -0.8706933 -0.48434255 -0.08547167
vn -0.8706933 -0.48434255 -0.08547167
vn 0 1 0
vn 0 1 0
vn 0 1 0
vn 0 1 0
vn 0 1 0
vn 0 1 0
vn 0 -0.07245204 0.9973719
vn 0 -0.07245204 0.9973719
vn 0 -0.07245204 0.9973719
vn 0.876291 -0.47326854 -0.09017209
vn 0.876291 -0.47326854 -0.09017209
vn 0.876291 -0.47326854 -0.09017209
vn -0.8996494 -0.42221385 -0.11120425
vn -0.8996494 -0.42221385 -0.11120425
vn -0.8996494 -0.42221385 -0.11120425
vn 0 0.99999994 0
vn 0 0.99999994 0
vn 0 0.99999994 0
vn 0 1 0
vn 0 1 0
vn 0 1 0
vn 0 -0.06587374 0.9978279
vn 0 -0.06587374 0.9978279
vn 0 -0.06587374 0.9978279
vn 0.90540093 -0.4081712 -0.116814025
vn 0.90540093 -0.4081712 -0.116814025
vn 0.90540093 -0.4081712 -0.116814025
vn -0.92125183 -0.36534673 -0.13347928
vn -0.92125183 -0.36534673 -0.13347928
vn -0.92125183 -0.36534673 -0.13347928
vn 0 1 0
vn 0 1 0
vn 0 1 0
vn 0 1 0
vn 0 1 0
vn 0 1 0
vn 0 -0.060388576 0.9981749
vn 0 -0.060388576 0.9981749
vn 0 -0.060388576 0.9981749
vn 0.92662317 -0.3491018 -0.13963343
vn 0.92662317 -0.3491018 -0.13963343
vn 0.92662317 -0.3491018 -0.13963343
vn -0.9371311 -0.3137936 -0.15270557
vn -0.9371311 -0.3137936 -0.15270557
vn -0.9371311 -0.3137936 -0.15270557
vn 0 1 0
vn 0 1 0
vn 0 1 0
vn 0 1 0
vn 0 1 0
vn 0 1 0
vn 0 -0.055745352 0.99844503
vn 0 -0.055745352 0.99844503
vn 0 -0.055745352 0.99844503
vn 0.9418351 -0.29601097 -0.15913534
vn 0.9418351 -0.29601097 -0.15913534
vn 0.9418351 -0.29601097 -0.15913534
vn -0.9486197 -0.2673156 -0.16930121
vn -0.9486197 -0.2673156 -0.16930121
vn -0.9486197 -0.2673156 -0.16930121
vn 0 1 0
vn 0 1 0
vn 0 1 0
vn 0 1 0
vn 0 1 0
vn 0 1 0
vn 0 -0.99809694 0.061664276
vn 0 -0.99809694 0.061664276
vn 0 -0.99809694 0.061664276
vn 0 -0.76212716 0.6474275
vn 0 -0.76212716 0.6474275
vn 0 -0.76212716 0.6474275
vn 0 -0.99809694 0.06166428
vn 0 -0.99809694 0.06166428
vn 0 -0.99809694 0.06166428
vn 0 -0.7621271 0.64742744
vn 0 -0.7621271 0.64742744
vn 0 -0.7621271 0.64742744
vn 0 -0.99809694 0.06166428
vn 0 -0.99809694 0.06166428
vn 0 -0.99809694 0.06166428
vn 0 -0.7621271 0.64742744
vn 0 -0.7621271 0.64742744
vn 0 -0.7621271 0.64742744
vn 0 -0.99809694 0.061664276
vn 0 -0.99809694 0.061664276
vn 0 -0.99809694 0.061664276
vn 0 -0.76212716 0.6474275
vn 0 -0.76212716 0.6474275
vn 0 -0.76212716 0.6474275
f 1//1 2//2 3//3
f 4//4 5//5 6//6
f 7//7 8//8 9//9
f 10//10 11//11 12//12
f 13//13 14//14 15//15
f 16//16 17//17 18//18
f 19//19 20//20 21//21
f 22//22 23//23 24//24
f 25//25 26//26 27//27
f 28//28 29//29 30//30
f 31//31 32//32 33//33
f 34//34 35//35 36//36
f 37//37 38//38 39//39
f 40//40 41//41 42//42
f 43//43 44//44 45//45
f 46//46 47//47 48//48
f 49//49 50//50 51//51
f 52//52 53//53 54//54
f 55//55 56//56 57//57
f 58//58 59//59 60//60
f 61//61 62//62 63//63
f 64//64 65//65 66//66
f 67//67 68//68 69//69
f 70//70 71//71 72//72
f 73//73 74//74 75//75
f 76//76 77//77 78//78
f 79//79 80//80 81//81
f 82//82 83//83 84//84
f 85//85 86//86 87//87
f 88//88 89//89 90//90
f 91//91 92//92 93//93
f 94//94 95//95 96//96
f 97//97 98//98 99//99
f 100//100 101//101 102//102
f 103//103 104//104 105//105
f 106//106 107//107 108//108
f 109//109 110//110 111//111
f 112//112 113//113 114//114
f 115//115 116//116 117//117
f 118//118 119//119 120//120
f 121//121 122//122 123//123
f 124//124 125//125 126//126
f 127//127 128//128 129//129
f 130//130 131//131 132//132
f 133//133 134//134 135//135
f 136//136 137//137 138//138
f 139//139 140//140 141//141
f 142//142 143//143 144//144
f 145//145 146//146 147//147
f 148//148 149//149 150//150
f 151//151 152//152 153//153
f 154//154 155//155 156//156
f 157//157 158//158 159//159
f 160//160 161//161 162//162
f 163//163 164//164 165//165
f 166//166 167//167 168//168
f 169//169 170//170 171//171
f 172//172 173//173 174//174
f 175//175 176//176 177//177
f 178//178 179//179 180//180
f 181//181 182//182 183//183
f 184//184 185//185 186//186
f 187//187 188//188 189//189
f 190//190 191//191 192//192
f 193//193 194//194 195//195
f 196//196 197//197 198//198
f 199//199 200//200 201//201
f 202//202 203//203 204//204
f 205//205 206//206 207//207
f 208//208 209//209 210//210
f 211//211 212//212 213//213
f 214//214 215//215 216//216
f 217//217 218//218 219//219
f 220//220 221//221 222//222
f 223//223 224//224 225//225
f 226//226 227//227 228//228
f 229//229 230//230 231//231
f 232//232 233//233 234//234
f 235//235 236//236 237//237
f 238//238 239//239 240//240
f 241//241 242//242 243//243
f 244//244 245//245 246//246
f 247//247 248//248 249//249
f 250//250 251//251 252//252
f 253//253 254//254 255//255
f 256//256 257//257 258//258
f 259//259 260//260 261//261
f 262//262 263//263 264//264
f 265//265 266//266 267//267
f 268//268 269//269 270//270
f 271//271 272//272 273//273
f 274//274 275//275 276//276
f 277//277 278//278 279//279
f 280//280 281//281 282//282
f 283//283 284//284 285//285
f 286//286 287//287 288//288
f 289//289 290//290 291//291
f 292//292 293//293 294//294
f 295//295 296//296 297//297
f 298//298 299//299 300//300
f 301//301 302//302 303//303
f 304//304 305//305 306//306
f 307//307 308//308 309//309
f 310//310 311//311 312//312
f 313//313 314//314 315//315
f 316//316 317//317 318//318
f 319//319 320//320 321//321
f 322//322 323//323 324//324
f 325//325 326//326 327//327
f 328//328 329//329 330//330
f 331//331 332//332 333//333
f 334//334 335//335 336//336
f 337//337 338//338 339//339
f 340//340 341//341 342//342
f 343//343 344//344 345//345
