# Exported from SharpOpenGl procedural mesh
o drone_swarm
# vertices 84
v -0.67373055 0.061881028 0.33702388
v 0.67373055 0.061881028 0.33702388
v 0 0.09900965 -0.14443882
v -0.67373055 0.061881028 0.33702388
v 0 0.09900965 -0.14443882
v -0.67373055 0.061881028 -0.33702388
v 0.67373055 0.061881028 0.33702388
v 0.67373055 0.061881028 -0.33702388
v 0 0.09900965 -0.14443882
v -0.67373055 0 0.33702388
v 0.67373055 0 0.33702388
v 0.67373055 0 -0.33702388
v -0.67373055 0 0.33702388
v 0.67373055 0 -0.33702388
v -0.67373055 0 -0.33702388
v -0.5120352 0.061881028 0.38517016
v -0.35033986 0.111385845 0.14443882
v -0.5928829 0.061881028 -0.19258508
v 0 0.061881028 0.38517016
v 0.16169533 0.111385845 0.14443882
v -0.080847666 0.061881028 -0.19258508
v 0.5120352 0.061881028 0.38517016
v 0.6737305 0.111385845 0.14443882
v 0.4311875 0.061881028 -0.19258508
v -0.14971791 0.061881028 0.09629254
v 0.14971791 0.061881028 0.09629254
v 0.14971791 0.26078433 0.09629254
v -0.14971791 0.061881028 0.09629254
v 0.14971791 0.26078433 0.09629254
v -0.14971791 0.26078433 0.09629254
v -0.14971791 0.061881028 0.4333164
v 0.14971791 0.26078433 0.4333164
v 0.14971791 0.061881028 0.4333164
v -0.14971791 0.061881028 0.4333164
v -0.14971791 0.26078433 0.4333164
v 0.14971791 0.26078433 0.4333164
v -0.14971791 0.061881028 0.09629254
v -0.14971791 0.061881028 0.4333164
v 0.14971791 0.061881028 0.4333164
v -0.14971791 0.061881028 0.09629254
v 0.14971791 0.061881028 0.4333164
v 0.14971791 0.061881028 0.09629254
v -0.14971791 0.26078433 0.09629254
v 0.14971791 0.26078433 0.4333164
v -0.14971791 0.26078433 0.4333164
v -0.14971791 0.26078433 0.09629254
v 0.14971791 0.26078433 0.09629254
v 0.14971791 0.26078433 0.4333164
v -0.14971791 0.061881028 0.09629254
v -0.14971791 0.26078433 0.09629254
v -0.14971791 0.26078433 0.4333164
v -0.14971791 0.061881028 0.09629254
v -0.14971791 0.26078433 0.4333164
v -0.14971791 0.061881028 0.4333164
v 0.14971791 0.061881028 0.09629254
v 0.14971791 0.061881028 0.4333164
v 0.14971791 0.26078433 0.4333164
v 0.14971791 0.061881028 0.09629254
v 0.14971791 0.26078433 0.4333164
v 0.14971791 0.26078433 0.09629254
v -0.4192101 0.017680293 -0.6633486
v -0.47909728 0 -0.7951004
v -0.35932294 0 -0.7951004
v -0.4192101 0.07293121 -0.633405
v -0.4551424 0.017680293 -0.6633486
v -0.3832778 0.017680293 -0.6633486
v -0.13973671 0.017680293 -0.6633486
v -0.19962387 0 -0.7951004
v -0.079849556 0 -0.7951004
v -0.13973671 0.07293121 -0.633405
v -0.17566901 0.017680293 -0.6633486
v -0.10380441 0.017680293 -0.6633486
v 0.13973671 0.017680293 -0.6633486
v 0.079849556 0 -0.7951004
v 0.19962387 0 -0.7951004
v 0.13973671 0.07293121 -0.633405
v 0.10380441 0.017680293 -0.6633486
v 0.17566901 0.017680293 -0.6633486
v 0.4192101 0.017680293 -0.6633486
v 0.35932294 0 -0.7951004
v 0.47909728 0 -0.7951004
v 0.4192101 0.07293121 -0.633405
v 0.3832778 0.017680293 -0.6633486
v 0.4551424 0.017680293 -0.6633486
vn -0 0.99703974 0.07688801
vn -0 0.99703974 0.07688801
vn -0 0.99703974 0.07688801
vn -0.05502551 0.9984849 0
vn -0.05502551 0.9984849 0
vn -0.05502551 0.9984849 0
vn 0.05502551 0.9984849 0
vn 0.05502551 0.9984849 0
vn 0.05502551 0.9984849 0
vn -0 1 0
vn -0 1 0
vn -0 1 0
vn 0 1 0
vn 0 1 0
vn 0 1 0
vn -0.24546832 0.96879584 0.0343494
vn -0.24546832 0.96879584 0.0343494
vn -0.24546832 0.96879584 0.0343494
vn -0.24546835 0.96879584 0.034349397
vn -0.24546835 0.96879584 0.034349397
vn -0.24546835 0.96879584 0.034349397
vn -0.24546838 0.9687959 0.034349408
vn -0.24546838 0.9687959 0.034349408
vn -0.24546838 0.9687959 0.034349408
vn 0 0 1
vn 0 0 1
vn 0 0 1
vn 0 0 1
vn 0 0 1
vn 0 0 1
vn 0 0 -1
vn 0 0 -1
vn 0 0 -1
vn 0 0 -1
vn 0 0 -1
vn 0 0 -1
vn 0 0.99999994 0
vn 0 0.99999994 0
vn 0 0.99999994 0
vn 0 0.99999994 0
vn 0 0.99999994 0
vn 0 0.99999994 0
vn 0 -0.99999994 0
vn 0 -0.99999994 0
vn 0 -0.99999994 0
vn 0 -0.99999994 0
vn 0 -0.99999994 0
vn 0 -0.99999994 0
vn 1 0 0
vn 1 0 0
vn 1 0 0
vn 1 0 0
vn 1 0 0
vn 1 0 0
vn -1 0 0
vn -1 0 0
vn -1 0 0
vn -1 0 0
vn -1 0 0
vn -1 0 0
vn 0 -0.9911157 0.13300174
vn 0 -0.9911157 0.13300174
vn 0 -0.9911157 0.13300174
vn 0 -0.47648007 0.87918526
vn 0 -0.47648007 0.87918526
vn 0 -0.47648007 0.87918526
vn 0 -0.99111575 0.13300174
vn 0 -0.99111575 0.13300174
vn 0 -0.99111575 0.13300174
vn 0 -0.47648007 0.87918526
vn 0 -0.47648007 0.87918526
vn 0 -0.47648007 0.87918526
vn 0 -0.99111575 0.13300174
vn 0 -0.99111575 0.13300174
vn 0 -0.99111575 0.13300174
vn 0 -0.47648007 0.87918526
vn 0 -0.47648007 0.87918526
vn 0 -0.47648007 0.87918526
vn 0 -0.9911157 0.13300174
vn 0 -0.9911157 0.13300174
vn 0 -0.9911157 0.13300174
vn 0 -0.47648007 0.87918526
vn 0 -0.47648007 0.87918526
vn 0 -0.47648007 0.87918526
f 1//1 2//2 3//3
f 4//4 5//5 6//6
f 7//7 8//8 9//9
f 10//10 11//11 12//12
f 13//13 14//14 15//15
f 16//16 17//17 18//18
f 19//19 20//20 21//21
f 22//22 23//23 24//24
f 25//25 26//26 27//27
f 28//28 29//29 30//30
f 31//31 32//32 33//33
f 34//34 35//35 36//36
f 37//37 38//38 39//39
f 40//40 41//41 42//42
f 43//43 44//44 45//45
f 46//46 47//47 48//48
f 49//49 50//50 51//51
f 52//52 53//53 54//54
f 55//55 56//56 57//57
f 58//58 59//59 60//60
f 61//61 62//62 63//63
f 64//64 65//65 66//66
f 67//67 68//68 69//69
f 70//70 71//71 72//72
f 73//73 74//74 75//75
f 76//76 77//77 78//78
f 79//79 80//80 81//81
f 82//82 83//83 84//84
