# Exported from SharpOpenGl procedural mesh
o fighter_basic
# vertices 339
v -0.30434024 0.020009883 -1.1610134
v 0.30434024 0.020009883 -1.1610134
v 0 0.06253088 -1.0470229
v -0.30434024 0.020009883 -1.1610134
v 0 0.06253088 -1.0470229
v -0.38128722 0.023944769 -0.9077014
v 0.30434024 0.020009883 -1.1610134
v 0.38128722 0.023944769 -0.9077014
v 0 0.0748274 -1.0470229
v -0.30434024 0 -1.1610134
v -0.38128722 0 -0.9077014
v 0.30434024 0 -1.1610134
v 0.30434024 0 -1.1610134
v -0.38128722 0 -0.9077014
v 0.38128722 0 -0.9077014
v -0.38128722 0.023944769 -0.9077014
v 0.38128722 0.023944769 -0.9077014
v 0 0.0748274 -0.79371095
v -0.38128722 0.023944769 -0.9077014
v 0 0.0748274 -0.79371095
v -0.4507021 0.02749448 -0.6543894
v 0.38128722 0.023944769 -0.9077014
v 0.4507021 0.02749448 -0.6543894
v 0 0.08592025 -0.79371095
v -0.38128722 0 -0.9077014
v -0.4507021 0 -0.6543894
v 0.38128722 0 -0.9077014
v 0.38128722 0 -0.9077014
v -0.4507021 0 -0.6543894
v 0.4507021 0 -0.6543894
v -0.4507021 0.02749448 -0.6543894
v 0.4507021 0.02749448 -0.6543894
v 0 0.08592025 -0.54039896
v -0.4507021 0.02749448 -0.6543894
v 0 0.08592025 -0.54039896
v -0.50579005 0.030311547 -0.40107733
v 0.4507021 0.02749448 -0.6543894
v 0.50579005 0.030311547 -0.40107733
v 0 0.09472359 -0.54039896
v -0.4507021 0 -0.6543894
v -0.50579005 0 -0.40107733
v 0.4507021 0 -0.6543894
v 0.4507021 0 -0.6543894
v -0.50579005 0 -0.40107733
v 0.50579005 0 -0.40107733
v -0.50579005 0.030311547 -0.40107733
v 0.50579005 0.030311547 -0.40107733
v 0 0.09472359 -0.28708696
v -0.50579005 0.030311547 -0.40107733
v 0 0.09472359 -0.28708696
v -0.54115874 0.032120217 -0.1477654
v 0.50579005 0.030311547 -0.40107733
v 0.54115874 0.032120217 -0.1477654
v 0 0.10037568 -0.28708696
v -0.50579005 0 -0.40107733
v -0.54115874 0 -0.1477654
v 0.50579005 0 -0.40107733
v 0.50579005 0 -0.40107733
v -0.54115874 0 -0.1477654
v 0.54115874 0 -0.1477654
v -0.54115874 0.032120217 -0.1477654
v 0.54115874 0.032120217 -0.1477654
v 0 0.10037568 -0.033775
v -0.54115874 0.032120217 -0.1477654
v 0 0.10037568 -0.033775
v -0.5533459 0.032743443 0.10554659
v 0.54115874 0.032120217 -0.1477654
v 0.5533459 0.032743443 0.10554659
v 0 0.10232326 -0.033775
v -0.54115874 0 -0.1477654
v -0.5533459 0 0.10554659
v 0.54115874 0 -0.1477654
v 0.54115874 0 -0.1477654
v -0.5533459 0 0.10554659
v 0.5533459 0 0.10554659
v -0.5533459 0.032743443 0.10554659
v 0.5533459 0.032743443 0.10554659
v 0 0.10232326 0.21953705
v -0.5533459 0.032743443 0.10554659
v 0 0.10232326 0.21953705
v -0.54115874 0.032120217 0.3588587
v 0.5533459 0.032743443 0.10554659
v 0.54115874 0.032120217 0.3588587
v 0 0.10037568 0.21953705
v -0.5533459 0 0.10554659
v -0.54115874 0 0.3588587
v 0.5533459 0 0.10554659
v 0.5533459 0 0.10554659
v -0.54115874 0 0.3588587
v 0.54115874 0 0.3588587
v -0.54115874 0.032120217 0.3588587
v 0.54115874 0.032120217 0.3588587
v 0 0.10037568 0.47284904
v -0.54115874 0.032120217 0.3588587
v 0 0.10037568 0.47284904
v -0.50579005 0.030311547 0.6121706
v 0.54115874 0.032120217 0.3588587
v 0.50579005 0.030311547 0.6121706
v 0 0.09472359 0.47284904
v -0.54115874 0 0.3588587
v -0.50579005 0 0.6121706
v 0.54115874 0 0.3588587
v 0.54115874 0 0.3588587
v -0.50579005 0 0.6121706
v 0.50579005 0 0.6121706
v -0.50579005 0.030311547 0.6121706
v 0.50579005 0.030311547 0.6121706
v 0 0.09472359 0.726161
v -0.50579005 0.030311547 0.6121706
v 0 0.09472359 0.726161
v -0.5513104 0.027494477 0.86548257
v 0.50579005 0.030311547 0.6121706
v 0.5513104 0.027494477 0.86548257
v 0 0.085920244 0.726161
v -0.50579005 0 0.6121706
v -0.5513104 0 0.86548257
v 0.50579005 0 0.6121706
v 0.50579005 0 0.6121706
v -0.5513104 0 0.86548257
v 0.5513104 0 0.86548257
v -0.5513104 0.027494477 0.86548257
v 0.5513104 0.027494477 0.86548257
v 0 0.085920244 0.9794729
v -0.5513104 0.027494477 0.86548257
v 0 0.085920244 0.9794729
v -0.43159145 0.023944769 1.1187944
v 0.5513104 0.027494477 0.86548257
v 0.43159145 0.023944769 1.1187944
v 0 0.0748274 0.9794729
v -0.5513104 0 0.86548257
v -0.43159145 0 1.1187944
v 0.5513104 0 0.86548257
v 0.5513104 0 0.86548257
v -0.43159145 0 1.1187944
v 0.43159145 0 1.1187944
v -0.43159145 0.023944769 1.1187944
v 0.43159145 0.023944769 1.1187944
v 0 0.0748274 1.2327849
v -0.43159145 0.023944769 1.1187944
v 0 0.0748274 1.2327849
v -0.30434024 0.020009879 1.3721066
v 0.43159145 0.023944769 1.1187944
v 0.30434024 0.020009879 1.3721066
v 0 0.062530875 1.2327849
v -0.43159145 0 1.1187944
v -0.30434024 0 1.3721066
v 0.43159145 0 1.1187944
v 0.43159145 0 1.1187944
v -0.30434024 0 1.3721066
v 0.30434024 0 1.3721066
v -0.93377125 0.11369251 0.80215466
v 0.93377125 0.11369251 0.80215466
v 0 0.17622338 -0.63328
v -0.93377125 0.11369251 0.80215466
v 0 0.17622338 -0.63328
v -0.93377125 0.11369251 -0.80215466
v 0.93377125 0.11369251 0.80215466
v 0.93377125 0.11369251 -0.80215466
v 0 0.17622338 -0.63328
v -0.93377125 0.10459711 0.80215466
v 0.93377125 0.10459711 0.80215466
v 0.93377125 0.10459711 -0.80215466
v -0.93377125 0.10459711 0.80215466
v 0.93377125 0.10459711 -0.80215466
v -0.93377125 0.10459711 -0.80215466
v -0.93377125 0.10459711 0.80215466
v -0.93377125 0.11369251 0.80215466
v 0.93377125 0.11369251 0.80215466
v -0.93377125 0.10459711 -0.80215466
v 0.93377125 0.11369251 -0.80215466
v -0.93377125 0.11369251 -0.80215466
v 0.93377125 0.10459711 -0.80215466
v 0.93377125 0.11369251 -0.80215466
v 0.93377125 0.11369251 0.80215466
v 0.93377125 0.10459711 0.80215466
v 0.93377125 0.11369251 0.80215466
v 0.93377125 0.11369251 -0.80215466
v -0.8777449 0.11369251 -0.80215466
v -0.6909907 0.11369251 -0.80215466
v -0.7843678 0.15348488 -0.59106135
v -0.8777449 0.11369251 -0.80215466
v -0.7843678 0.15348488 -0.59106135
v -0.85906947 0.11369251 -0.59106135
v -0.6909907 0.11369251 -0.80215466
v -0.70966613 0.11369251 -0.59106135
v -0.7843678 0.15348488 -0.59106135
v -0.09337713 0.11369251 -0.80215466
v 0.09337713 0.11369251 -0.80215466
v 0 0.15348488 -0.59106135
v -0.09337713 0.11369251 -0.80215466
v 0 0.15348488 -0.59106135
v -0.0747017 0.11369251 -0.59106135
v 0.09337713 0.11369251 -0.80215466
v 0.0747017 0.11369251 -0.59106135
v 0 0.15348488 -0.59106135
v 0.6909907 0.11369251 -0.80215466
v 0.8777449 0.11369251 -0.80215466
v 0.7843678 0.15348488 -0.59106135
v 0.6909907 0.11369251 -0.80215466
v 0.7843678 0.15348488 -0.59106135
v 0.70966613 0.11369251 -0.59106135
v 0.8777449 0.11369251 -0.80215466
v 0.85906947 0.11369251 -0.59106135
v 0.7843678 0.15348488 -0.59106135
v -0.8777449 0.11369251 0.6332799
v -0.6909907 0.11369251 0.6332799
v -0.7843678 0.20464651 0.8443732
v -0.8777449 0.11369251 0.6332799
v -0.7843678 0.20464651 0.8443732
v -0.85906947 0.11369251 0.8443732
v -0.6909907 0.11369251 0.6332799
v -0.70966613 0.11369251 0.8443732
v -0.7843678 0.20464651 0.8443732
v -0.09337713 0.11369251 0.6332799
v 0.09337713 0.11369251 0.6332799
v 0 0.20464651 0.8443732
v -0.09337713 0.11369251 0.6332799
v 0 0.20464651 0.8443732
v -0.0747017 0.11369251 0.8443732
v 0.09337713 0.11369251 0.6332799
v 0.0747017 0.11369251 0.8443732
v 0 0.20464651 0.8443732
v 0.6909907 0.11369251 0.6332799
v 0.8777449 0.11369251 0.6332799
v 0.7843678 0.20464651 0.8443732
v 0.6909907 0.11369251 0.6332799
v 0.7843678 0.20464651 0.8443732
v 0.70966613 0.11369251 0.8443732
v 0.8777449 0.11369251 0.6332799
v 0.85906947 0.11369251 0.8443732
v 0.7843678 0.20464651 0.8443732
v -0.13833648 0.09485202 0.07092736
v 0.13833648 0.09485202 0.07092736
v 0 0.2964126 0.08688602
v -0.13833648 0.09485202 0.07092736
v 0 0.2964126 0.08688602
v -0.12911405 0.10676268 0.10639104
v 0.13833648 0.09485202 0.07092736
v 0.12911405 0.10676268 0.10639104
v 0 0.33363336 0.08688602
v -0.13833648 0 0.07092736
v -0.12911405 0 0.10639104
v 0.13833648 0 0.07092736
v 0.13833648 0 0.07092736
v -0.12911405 0 0.10639104
v 0.12911405 0 0.10639104
v -0.12911405 0.10676268 0.10639104
v 0.12911405 0.10676268 0.10639104
v 0 0.33363336 0.1223497
v -0.12911405 0.10676268 0.10639104
v 0 0.33363336 0.1223497
v -0.11989161 0.118673325 0.14185473
v 0.12911405 0.10676268 0.10639104
v 0.11989161 0.118673325 0.14185473
v 0 0.37085414 0.1223497
v -0.12911405 0 0.10639104
v -0.11989161 0 0.14185473
v 0.12911405 0 0.10639104
v 0.12911405 0 0.10639104
v -0.11989161 0 0.14185473
v 0.11989161 0 0.14185473
v -0.11989161 0.118673325 0.14185473
v 0.11989161 0.118673325 0.14185473
v 0 0.37085414 0.15781339
v -0.11989161 0.118673325 0.14185473
v 0 0.37085414 0.15781339
v -0.11066919 0.13058397 0.1773184
v 0.11989161 0.118673325 0.14185473
v 0.11066919 0.13058397 0.1773184
v 0 0.40807492 0.15781339
v -0.11989161 0 0.14185473
v -0.11066919 0 0.1773184
v 0.11989161 0 0.14185473
v 0.11989161 0 0.14185473
v -0.11066919 0 0.1773184
v 0.11066919 0 0.1773184
v -0.11066919 0.13058397 0.1773184
v 0.11066919 0.13058397 0.1773184
v 0 0.40807492 0.19327706
v -0.11066919 0.13058397 0.1773184
v 0 0.40807492 0.19327706
v -0.101446755 0.1424946 0.21278208
v 0.11066919 0.13058397 0.1773184
v 0.101446755 0.1424946 0.21278208
v 0 0.44529563 0.19327706
v -0.11066919 0 0.1773184
v -0.101446755 0 0.21278208
v 0.11066919 0 0.1773184
v 0.11066919 0 0.1773184
v -0.101446755 0 0.21278208
v 0.101446755 0 0.21278208
v -0.101446755 0.1424946 0.21278208
v 0.101446755 0.1424946 0.21278208
v 0 0.44529563 0.22874074
v -0.101446755 0.1424946 0.21278208
v 0 0.44529563 0.22874074
v -0.092224315 0.15440525 0.24824575
v 0.101446755 0.1424946 0.21278208
v 0.092224315 0.15440525 0.24824575
v 0 0.4825164 0.22874074
v -0.101446755 0 0.21278208
v -0.092224315 0 0.24824575
v 0.101446755 0 0.21278208
v 0.101446755 0 0.21278208
v -0.092224315 0 0.24824575
v 0.092224315 0 0.24824575
v -0.092224315 0.15440525 0.24824575
v 0.092224315 0.15440525 0.24824575
v 0 0.4825164 0.2642044
v -0.092224315 0.15440525 0.24824575
v 0 0.4825164 0.2642044
v -0.08300189 0.1663159 0.28370944
v 0.092224315 0.15440525 0.24824575
v 0.08300189 0.1663159 0.28370944
v 0 0.5197372 0.2642044
v -0.092224315 0 0.24824575
v -0.08300189 0 0.28370944
v 0.092224315 0 0.24824575
v 0.092224315 0 0.24824575
v -0.08300189 0 0.28370944
v 0.08300189 0 0.28370944
v -0.48417768 0.032483574 -1.4541985
v -0.6252809 0 -1.7646255
v -0.34307444 0 -1.7646255
v -0.48417768 0.13399474 -1.3836468
v -0.5688396 0.032483574 -1.4541985
v -0.39951575 0.032483574 -1.4541985
v 0 0.032483574 -1.4541985
v -0.14110322 0 -1.7646255
v 0.14110322 0 -1.7646255
v 0 0.13399474 -1.3836468
v -0.08466194 0.032483574 -1.4541985
v 0.08466194 0.032483574 -1.4541985
v 0.48417768 0.032483574 -1.4541985
v 0.34307444 0 -1.7646255
v 0.6252809 0 -1.7646255
v 0.48417768 0.13399474 -1.3836468
v 0.39951575 0.032483574 -1.4541985
v 0.5688396 0.032483574 -1.4541985
vn 0 -0.9369368 0.34949854
vn 0 -0.9369368 0.34949854
vn 0 -0.9369368 0.34949854
vn 0.11920079 -0.9915279 0.051611014
vn 0.11920079 -0.9915279 0.051611014
vn 0.11920079 -0.9915279 0.051611014
vn -0.15431464 -0.9860624 0.06219243
vn -0.15431464 -0.9860624 0.06219243
vn -0.15431464 -0.9860624 0.06219243
vn 0 1 -0
vn 0 1 -0
vn 0 1 -0
vn 0 1 -0
vn 0 1 -0
vn 0 1 -0
vn 0 -0.9131556 0.4076111
vn 0 -0.9131556 0.4076111
vn 0 -0.9131556 0.4076111
vn 0.11850124 -0.99187046 0.046372082
vn 0.11850124 -0.99187046 0.046372082
vn 0.11850124 -0.99187046 0.046372082
vn -0.14461254 -0.98804235 0.0534737
vn -0.14461254 -0.98804235 0.0534737
vn -0.14461254 -0.98804235 0.0534737
vn 0 1 -0
vn 0 1 -0
vn 0 1 -0
vn 0 1 -0
vn 0 1 -0
vn 0 1 -0
vn 0 -0.8899152 0.45612586
vn 0 -0.8899152 0.45612586
vn 0 -0.8899152 0.45612586
vn 0.1192676 -0.9921736 0.036971107
vn 0.1192676 -0.9921736 0.036971107
vn 0.1192676 -0.9921736 0.036971107
vn -0.13729198 -0.9896874 0.040863235
vn -0.13729198 -0.9896874 0.040863235
vn -0.13729198 -0.9896874 0.040863235
vn 0 1 -0
vn 0 1 -0
vn 0 1 -0
vn 0 1 -0
vn 0 1 -0
vn 0 1 -0
vn 0 -0.8706194 0.49195716
vn 0 -0.8706194 0.49195716
vn 0 -0.8706194 0.49195716
vn 0.12097358 -0.9923661 0.023976516
vn 0.12097358 -0.9923661 0.023976516
vn 0.12097358 -0.9923661 0.023976516
vn -0.13154131 -0.9909841 0.02544217
vn -0.13154131 -0.9909841 0.02544217
vn -0.13154131 -0.9909841 0.02544217
vn 0 1 -0
vn 0 1 -0
vn 0 1 -0
vn 0 1 -0
vn 0 1 -0
vn 0 1 -0
vn 0 -0.85795337 0.51372755
vn 0 -0.85795337 0.51372755
vn 0 -0.85795337 0.51372755
vn 0.12339521 -0.9923222 0.008378131
vn 0.12339521 -0.9923222 0.008378131
vn 0.12339521 -0.9923222 0.008378131
vn -0.12687433 -0.991882 0.008544434
vn -0.12687433 -0.991882 0.008544434
vn -0.12687433 -0.991882 0.008544434
vn 0 1 -0
vn 0 1 -0
vn 0 1 -0
vn 0 1 -0
vn 0 1 -0
vn 0 1 -0
vn 0 -0.8535517 0.5210082
vn 0 -0.8535517 0.5210082
vn 0 -0.8535517 0.5210082
vn 0.12648559 -0.9919317 -0.008525849
vn 0.12648559 -0.9919317 -0.008525849
vn 0.12648559 -0.9919317 -0.008525849
vn -0.12301371 -0.9923697 -0.00835989
vn -0.12301371 -0.9923697 -0.00835989
vn -0.12301371 -0.9923697 -0.00835989
vn 0 1 0
vn 0 1 0
vn 0 1 0
vn 0 1 0
vn 0 1 0
vn 0 1 0
vn 0 -0.85795325 0.5137278
vn 0 -0.85795325 0.5137278
vn 0 -0.85795325 0.5137278
vn 0.13033581 -0.9911477 -0.025275024
vn 0.13033581 -0.9911477 -0.025275024
vn 0.13033581 -0.9911477 -0.025275024
vn -0.119834386 -0.9925081 -0.02381848
vn -0.119834386 -0.9925081 -0.02381848
vn -0.119834386 -0.9925081 -0.02381848
vn 0 1 0
vn 0 1 0
vn 0 1 0
vn 0 1 0
vn 0 1 0
vn 0 1 0
vn 0 -0.87061954 0.49195698
vn 0 -0.87061954 0.49195698
vn 0 -0.87061954 0.49195698
vn 0.12383283 -0.99223965 0.011218211
vn 0.12383283 -0.99223965 0.011218211
vn 0.12383283 -0.99223965 0.011218211
vn -0.10744433 -0.99417686 0.00825164
vn -0.10744433 -0.99417686 0.00825164
vn -0.10744433 -0.99417686 0.00825164
vn 0 1 -0
vn 0 1 -0
vn 0 1 -0
vn 0 1 -0
vn 0 1 -0
vn 0 1 -0
vn 0 -0.88991505 0.4561262
vn 0 -0.88991505 0.4561262
vn 0 -0.88991505 0.4561262
vn 0.11949901 -0.99033844 -0.07035482
vn 0.11949901 -0.99033844 -0.07035482
vn 0.11949901 -0.99033844 -0.07035482
vn -0.0977154 -0.99339783 -0.060102433
vn -0.0977154 -0.99339783 -0.060102433
vn -0.0977154 -0.99339783 -0.060102433
vn 0 1 0
vn 0 1 0
vn 0 1 0
vn 0 1 0
vn 0 1 0
vn 0 1 0
vn 0 -0.9131556 0.4076111
vn 0 -0.9131556 0.4076111
vn 0 -0.9131556 0.4076111
vn 0.13878496 -0.9866641 -0.08504516
vn 0.13878496 -0.9866641 -0.08504516
vn 0.13878496 -0.9866641 -0.08504516
vn -0.106933676 -0.9918603 -0.0691254
vn -0.106933676 -0.9918603 -0.0691254
vn -0.106933676 -0.9918603 -0.0691254
vn 0 1 0
vn 0 1 0
vn 0 1 0
vn 0 1 0
vn 0 1 0
vn 0 1 0
vn -0 0.99905246 0.043521054
vn -0 0.99905246 0.043521054
vn -0 0.99905246 0.043521054
vn -0.0668163 0.99776536 0
vn -0.0668163 0.99776536 0
vn -0.0668163 0.99776536 0
vn 0.0668163 0.99776536 0
vn 0.0668163 0.99776536 0
vn 0.0668163 0.99776536 0
vn -0 1 0
vn -0 1 0
vn -0 1 0
vn 0 1 0
vn 0 1 0
vn 0 1 0
vn 0 0 -1
vn 0 0 -1
vn 0 0 -1
vn 0 0 1
vn 0 0 1
vn 0 0 1
vn 1 0 0
vn 1 0 0
vn 1 0 0
vn -1 0 0
vn -1 0 0
vn -1 0 0
vn 0 -0.98269266 0.18524355
vn 0 -0.98269266 0.18524355
vn 0 -0.98269266 0.18524355
vn 0.46973577 -0.88182837 -0.041557573
vn 0.46973577 -0.88182837 -0.041557573
vn 0.46973577 -0.88182837 -0.041557573
vn -0.46973577 -0.88182837 -0.041557573
vn -0.46973577 -0.88182837 -0.041557573
vn -0.46973577 -0.88182837 -0.041557573
vn 0 -0.9826926 0.18524356
vn 0 -0.9826926 0.18524356
vn 0 -0.9826926 0.18524356
vn 0.46973568 -0.8818285 -0.04155753
vn 0.46973568 -0.8818285 -0.04155753
vn 0.46973568 -0.8818285 -0.04155753
vn -0.46973568 -0.8818285 -0.04155753
vn -0.46973568 -0.8818285 -0.04155753
vn -0.46973568 -0.8818285 -0.04155753
vn 0 -0.98269266 0.18524355
vn 0 -0.98269266 0.18524355
vn 0 -0.98269266 0.18524355
vn 0.46973577 -0.88182837 -0.041557573
vn 0.46973577 -0.88182837 -0.041557573
vn 0.46973577 -0.88182837 -0.041557573
vn -0.46973577 -0.88182837 -0.041557573
vn -0.46973577 -0.88182837 -0.041557573
vn -0.46973577 -0.88182837 -0.041557573
vn 0 -0.9183786 0.39570275
vn 0 -0.9183786 0.39570275
vn 0 -0.9183786 0.39570275
vn 0.7709706 -0.6332078 -0.068207845
vn 0.7709706 -0.6332078 -0.068207845
vn 0.7709706 -0.6332078 -0.068207845
vn -0.7709706 -0.6332078 -0.068207845
vn -0.7709706 -0.6332078 -0.068207845
vn -0.7709706 -0.6332078 -0.068207845
vn 0 -0.9183786 0.3957028
vn 0 -0.9183786 0.3957028
vn 0 -0.9183786 0.3957028
vn 0.77097046 -0.633208 -0.068207785
vn 0.77097046 -0.633208 -0.068207785
vn 0.77097046 -0.633208 -0.068207785
vn -0.77097046 -0.633208 -0.068207785
vn -0.77097046 -0.633208 -0.068207785
vn -0.77097046 -0.633208 -0.068207785
vn 0 -0.9183786 0.39570275
vn 0 -0.9183786 0.39570275
vn 0 -0.9183786 0.39570275
vn 0.7709706 -0.6332078 -0.068207845
vn 0.7709706 -0.6332078 -0.068207845
vn 0.7709706 -0.6332078 -0.068207845
vn -0.7709706 -0.6332078 -0.068207845
vn -0.7709706 -0.6332078 -0.068207845
vn -0.7709706 -0.6332078 -0.068207845
vn 0 -0.07892851 0.9968803
vn 0 -0.07892851 0.9968803
vn 0 -0.07892851 0.9968803
vn 0.8251586 -0.56434566 -0.025046581
vn 0.8251586 -0.56434566 -0.025046581
vn 0.8251586 -0.56434566 -0.025046581
vn -0.86549807 -0.49754643 -0.05797182
vn -0.86549807 -0.49754643 -0.05797182
vn -0.86549807 -0.49754643 -0.05797182
vn 0 1 0
vn 0 1 0
vn 0 1 0
vn 0 1 0
vn 0 1 0
vn 0 1 0
vn 0 -0.07016915 0.9975351
vn 0 -0.07016915 0.9975351
vn 0 -0.07016915 0.9975351
vn 0.86932206 -0.4904225 -0.06135898
vn 0.86932206 -0.4904225 -0.06135898
vn 0.86932206 -0.4904225 -0.06135898
vn -0.89699674 -0.43323746 -0.087761685
vn -0.89699674 -0.43323746 -0.087761685
vn -0.89699674 -0.43323746 -0.087761685
vn 0 1 0
vn 0 1 0
vn 0 1 0
vn 0 0.99999994 0
vn 0 0.99999994 0
vn 0 0.99999994 0
vn 0 -0.06315625 0.99800366
vn 0 -0.06315625 0.99800366
vn 0 -0.06315625 0.99800366
vn 0.9015183 -0.42274803 -0.092460364
vn 0.9015183 -0.42274803 -0.092460364
vn 0.9015183 -0.42274803 -0.092460364
vn -0.9200998 -0.3749228 -0.11335488
vn -0.9200998 -0.3749228 -0.11335488
vn -0.9200998 -0.3749228 -0.11335488
vn 0 1 0
vn 0 1 0
vn 0 1 0
vn 0 1 0
vn 0 1 0
vn 0 1 0
vn 0 -0.05741571 0.99835026
vn 0 -0.05741571 0.99835026
vn 0 -0.05741571 0.99835026
vn 0.9245993 -0.3619118 -0.118895054
vn 0.9245993 -0.3619118 -0.118895054
vn 0.9245993 -0.3619118 -0.118895054
vn -0.9368255 -0.32257703 -0.13528527
vn -0.9368255 -0.32257703 -0.13528527
vn -0.9368255 -0.32257703 -0.13528527
vn 0 1 0
vn 0 1 0
vn 0 1 0
vn 0 1 0
vn 0 1 0
vn 0 1 0
vn 0 -0.052630387 0.9986141
vn 0 -0.052630387 0.9986141
vn 0 -0.052630387 0.9986141
vn 0.94090414 -0.30778125 -0.14131533
vn 0.94090414 -0.30778125 -0.14131533
vn 0.94090414 -0.30778125 -0.14131533
vn -0.9487728 -0.27583778 -0.15408996
vn -0.9487728 -0.27583778 -0.15408996
vn -0.9487728 -0.27583778 -0.15408996
vn 0 1 0
vn 0 1 0
vn 0 1 0
vn 0 1 0
vn 0 1 0
vn 0 1 0
vn 0 -0.048580557 0.99881923
vn 0 -0.048580557 0.99881923
vn 0 -0.048580557 0.99881923
vn 0.95224017 -0.2598527 -0.16035981
vn 0.95224017 -0.2598527 -0.16035981
vn 0.95224017 -0.2598527 -0.16035981
vn -0.9571661 -0.23418939 -0.17025994
vn -0.9571661 -0.23418939 -0.17025994
vn -0.9571661 -0.23418939 -0.17025994
vn 0 1 0
vn 0 1 0
vn 0 1 0
vn 0 1 0
vn 0 1 0
vn 0 1 0
vn 0 -0.9945697 0.10407333
vn 0 -0.9945697 0.10407333
vn 0 -0.9945697 0.10407333
vn 0 -0.570711 0.82115096
vn 0 -0.570711 0.82115096
vn 0 -0.570711 0.82115096
vn 0 -0.9945697 0.10407333
vn 0 -0.9945697 0.10407333
vn 0 -0.9945697 0.10407333
vn 0 -0.5707111 0.82115096
vn 0 -0.5707111 0.82115096
vn 0 -0.5707111 0.82115096
vn 0 -0.9945697 0.10407333
vn 0 -0.9945697 0.10407333
vn 0 -0.9945697 0.10407333
vn 0 -0.570711 0.82115096
vn 0 -0.570711 0.82115096
vn 0 -0.570711 0.82115096
f 1//1 2//2 3//3
f 4//4 5//5 6//6
f 7//7 8//8 9//9
f 10//10 11//11 12//12
f 13//13 14//14 15//15
f 16//16 17//17 18//18
f 19//19 20//20 21//21
f 22//22 23//23 24//24
f 25//25 26//26 27//27
f 28//28 29//29 30//30
f 31//31 32//32 33//33
f 34//34 35//35 36//36
f 37//37 38//38 39//39
f 40//40 41//41 42//42
f 43//43 44//44 45//45
f 46//46 47//47 48//48
f 49//49 50//50 51//51
f 52//52 53//53 54//54
f 55//55 56//56 57//57
f 58//58 59//59 60//60
f 61//61 62//62 63//63
f 64//64 65//65 66//66
f 67//67 68//68 69//69
f 70//70 71//71 72//72
f 73//73 74//74 75//75
f 76//76 77//77 78//78
f 79//79 80//80 81//81
f 82//82 83//83 84//84
f 85//85 86//86 87//87
f 88//88 89//89 90//90
f 91//91 92//92 93//93
f 94//94 95//95 96//96
f 97//97 98//98 99//99
f 100//100 101//101 102//102
f 103//103 104//104 105//105
f 106//106 107//107 108//108
f 109//109 110//110 111//111
f 112//112 113//113 114//114
f 115//115 116//116 117//117
f 118//118 119//119 120//120
f 121//121 122//122 123//123
f 124//124 125//125 126//126
f 127//127 128//128 129//129
f 130//130 131//131 132//132
f 133//133 134//134 135//135
f 136//136 137//137 138//138
f 139//139 140//140 141//141
f 142//142 143//143 144//144
f 145//145 146//146 147//147
f 148//148 149//149 150//150
f 151//151 152//152 153//153
f 154//154 155//155 156//156
f 157//157 158//158 159//159
f 160//160 161//161 162//162
f 163//163 164//164 165//165
f 166//166 167//167 168//168
f 169//169 170//170 171//171
f 172//172 173//173 174//174
f 175//175 176//176 177//177
f 178//178 179//179 180//180
f 181//181 182//182 183//183
f 184//184 185//185 186//186
f 187//187 188//188 189//189
f 190//190 191//191 192//192
f 193//193 194//194 195//195
f 196//196 197//197 198//198
f 199//199 200//200 201//201
f 202//202 203//203 204//204
f 205//205 206//206 207//207
f 208//208 209//209 210//210
f 211//211 212//212 213//213
f 214//214 215//215 216//216
f 217//217 218//218 219//219
f 220//220 221//221 222//222
f 223//223 224//224 225//225
f 226//226 227//227 228//228
f 229//229 230//230 231//231
f 232//232 233//233 234//234
f 235//235 236//236 237//237
f 238//238 239//239 240//240
f 241//241 242//242 243//243
f 244//244 245//245 246//246
f 247//247 248//248 249//249
f 250//250 251//251 252//252
f 253//253 254//254 255//255
f 256//256 257//257 258//258
f 259//259 260//260 261//261
f 262//262 263//263 264//264
f 265//265 266//266 267//267
f 268//268 269//269 270//270
f 271//271 272//272 273//273
f 274//274 275//275 276//276
f 277//277 278//278 279//279
f 280//280 281//281 282//282
f 283//283 284//284 285//285
f 286//286 287//287 288//288
f 289//289 290//290 291//291
f 292//292 293//293 294//294
f 295//295 296//296 297//297
f 298//298 299//299 300//300
f 301//301 302//302 303//303
f 304//304 305//305 306//306
f 307//307 308//308 309//309
f 310//310 311//311 312//312
f 313//313 314//314 315//315
f 316//316 317//317 318//318
f 319//319 320//320 321//321
f 322//322 323//323 324//324
f 325//325 326//326 327//327
f 328//328 329//329 330//330
f 331//331 332//332 333//333
f 334//334 335//335 336//336
f 337//337 338//338 339//339
