# Exported from SharpOpenGl procedural mesh
o freighter_bulk
# vertices 84
v -4.4838853 0.3961247 2.0405214
v 4.4838853 0.3961247 2.0405214
v 0 0.6337995 -0.8745093
v -4.4838853 0.3961247 2.0405214
v 0 0.6337995 -0.8745093
v -4.4838853 0.3961247 -2.0405214
v 4.4838853 0.3961247 2.0405214
v 4.4838853 0.3961247 -2.0405214
v 0 0.6337995 -0.8745093
v -4.4838853 0 2.0405214
v 4.4838853 0 2.0405214
v 4.4838853 0 -2.0405214
v -4.4838853 0 2.0405214
v 4.4838853 0 -2.0405214
v -4.4838853 0 -2.0405214
v -3.4077528 0.3961247 2.3320246
v -2.3316202 0.71302444 0.8745093
v -3.945819 0.3961247 -1.1660123
v 0 0.3961247 2.3320246
v 1.0761324 0.71302444 0.8745093
v -0.5380662 0.3961247 -1.1660123
v 3.4077528 0.3961247 2.3320246
v 4.4838853 0.71302444 0.8745093
v 2.8696866 0.3961247 -1.1660123
v -0.996419 0.3961247 0.58300614
v 0.996419 0.3961247 0.58300614
v 0.996419 1.6693826 0.58300614
v -0.996419 0.3961247 0.58300614
v 0.996419 1.6693826 0.58300614
v -0.996419 1.6693826 0.58300614
v -0.996419 0.3961247 2.6235275
v 0.996419 1.6693826 2.6235275
v 0.996419 0.3961247 2.6235275
v -0.996419 0.3961247 2.6235275
v -0.996419 1.6693826 2.6235275
v 0.996419 1.6693826 2.6235275
v -0.996419 0.3961247 0.58300614
v -0.996419 0.3961247 2.6235275
v 0.996419 0.3961247 2.6235275
v -0.996419 0.3961247 0.58300614
v 0.996419 0.3961247 2.6235275
v 0.996419 0.3961247 0.58300614
v -0.996419 1.6693826 0.58300614
v 0.996419 1.6693826 2.6235275
v -0.996419 1.6693826 2.6235275
v -0.996419 1.6693826 0.58300614
v 0.996419 1.6693826 0.58300614
v 0.996419 1.6693826 2.6235275
v -0.996419 0.3961247 0.58300614
v -0.996419 1.6693826 0.58300614
v -0.996419 1.6693826 2.6235275
v -0.996419 0.3961247 0.58300614
v -0.996419 1.6693826 2.6235275
v -0.996419 0.3961247 2.6235275
v 0.996419 0.3961247 0.58300614
v 0.996419 0.3961247 2.6235275
v 0.996419 1.6693826 2.6235275
v 0.996419 0.3961247 0.58300614
v 0.996419 1.6693826 2.6235275
v 0.996419 1.6693826 0.58300614
v -2.3249776 0.11317848 -4.0162644
v -3.3612533 0 -6.296071
v -1.2887019 0 -6.296071
v -2.3249776 0.46686125 -3.4981265
v -2.946743 0.11317848 -4.0162644
v -1.7032121 0.11317848 -4.0162644
v 0 0.11317848 -4.0162644
v -1.0362757 0 -6.296071
v 1.0362757 0 -6.296071
v 0 0.46686125 -3.4981265
v -0.6217655 0.11317848 -4.0162644
v 0.6217655 0.11317848 -4.0162644
v 2.3249776 0.11317848 -4.0162644
v 1.2887019 0 -6.296071
v 3.3612533 0 -6.296071
v 2.3249776 0.46686125 -3.4981265
v 1.7032121 0.11317848 -4.0162644
v 2.946743 0.11317848 -4.0162644
v -0.7307072 0.5375978 -0.32389233
v -1.1957028 0.19806235 -0.7224599
v -0.2657117 0.19806235 -0.7224599
v 0.7307072 0.5375978 -0.78888786
v 0.2657117 0.19806235 -1.1874554
v 1.1957028 0.19806235 -1.1874554
vn -0 0.99669266 0.08126457
vn -0 0.99669266 0.08126457
vn -0 0.99669266 0.08126457
vn -0.052932136 0.99859816 0
vn -0.052932136 0.99859816 0
vn -0.052932136 0.99859816 0
vn 0.052932136 0.99859816 0
vn 0.052932136 0.99859816 0
vn 0.052932136 0.99859816 0
vn -0 1 0
vn -0 1 0
vn -0 1 0
vn 0 1 0
vn 0 1 0
vn 0 1 0
vn -0.23662075 0.9709201 0.03639688
vn -0.23662075 0.9709201 0.03639688
vn -0.23662075 0.9709201 0.03639688
vn -0.23662077 0.9709201 0.036396887
vn -0.23662077 0.9709201 0.036396887
vn -0.23662077 0.9709201 0.036396887
vn -0.23662075 0.9709201 0.03639688
vn -0.23662075 0.9709201 0.03639688
vn -0.23662075 0.9709201 0.03639688
vn 0 0 1
vn 0 0 1
vn 0 0 1
vn 0 0 1
vn 0 0 1
vn 0 0 1
vn 0 0 -1
vn 0 0 -1
vn 0 0 -1
vn 0 0 -1
vn 0 0 -1
vn 0 0 -1
vn 0 1 0
vn 0 1 0
vn 0 1 0
vn 0 1 0
vn 0 1 0
vn 0 1 0
vn 0 -1 0
vn 0 -1 0
vn 0 -1 0
vn 0 -1 0
vn 0 -1 0
vn 0 -1 0
vn 1 0 0
vn 1 0 0
vn 1 0 0
vn 1 0 0
vn 1 0 0
vn 1 0 0
vn -1 0 0
vn -1 0 0
vn -1 0 0
vn -1 0 0
vn -1 0 0
vn -1 0 0
vn 0 -0.99877 0.04958283
vn 0 -0.99877 0.04958283
vn 0 -0.99877 0.04958283
vn 0 -0.82592535 0.56377953
vn 0 -0.82592535 0.56377953
vn 0 -0.82592535 0.56377953
vn 0 -0.99877 0.04958283
vn 0 -0.99877 0.04958283
vn 0 -0.99877 0.04958283
vn 0 -0.82592535 0.56377953
vn 0 -0.82592535 0.56377953
vn 0 -0.82592535 0.56377953
vn 0 -0.99877 0.04958283
vn 0 -0.99877 0.04958283
vn 0 -0.99877 0.04958283
vn 0 -0.82592535 0.56377953
vn 0 -0.82592535 0.56377953
vn 0 -0.82592535 0.56377953
vn 0 -0.7612292 0.6484829
vn 0 -0.7612292 0.6484829
vn 0 -0.7612292 0.6484829
vn 0 -0.7612292 0.6484829
vn 0 -0.7612292 0.6484829
vn 0 -0.7612292 0.6484829
f 1//1 2//2 3//3
f 4//4 5//5 6//6
f 7//7 8//8 9//9
f 10//10 11//11 12//12
f 13//13 14//14 15//15
f 16//16 17//17 18//18
f 19//19 20//20 21//21
f 22//22 23//23 24//24
f 25//25 26//26 27//27
f 28//28 29//29 30//30
f 31//31 32//32 33//33
f 34//34 35//35 36//36
f 37//37 38//38 39//39
f 40//40 41//41 42//42
f 43//43 44//44 45//45
f 46//46 47//47 48//48
f 49//49 50//50 51//51
f 52//52 53//53 54//54
f 55//55 56//56 57//57
f 58//58 59//59 60//60
f 61//61 62//62 63//63
f 64//64 65//65 66//66
f 67//67 68//68 69//69
f 70//70 71//71 72//72
f 73//73 74//74 75//75
f 76//76 77//77 78//78
f 79//79 80//80 81//81
f 82//82 83//83 84//84
