# Exported from SharpOpenGl procedural mesh
o hero_default
# vertices 78
v -1.5046148 0.2474514 1.2758318
v 1.5046148 0.2474514 1.2758318
v 0 0.39592224 -0.5467851
v -1.5046148 0.2474514 1.2758318
v 0 0.39592224 -0.5467851
v -1.5046148 0.2474514 -1.2758318
v 1.5046148 0.2474514 1.2758318
v 1.5046148 0.2474514 -1.2758318
v 0 0.39592224 -0.5467851
v -1.5046148 0 1.2758318
v 1.5046148 0 1.2758318
v 1.5046148 0 -1.2758318
v -1.5046148 0 1.2758318
v 1.5046148 0 -1.2758318
v -1.5046148 0 -1.2758318
v -1.1435072 0.2474514 1.4580935
v -0.78239965 0.4454125 0.5467851
v -1.324061 0.2474514 -0.72904676
v 0 0.2474514 1.4580935
v 0.36110756 0.4454125 0.5467851
v -0.18055378 0.2474514 -0.72904676
v 1.1435072 0.2474514 1.4580935
v 1.5046148 0.4454125 0.5467851
v 0.96295345 0.2474514 -0.72904676
v -0.33435887 0.2474514 0.36452338
v 0.33435887 0.2474514 0.36452338
v 0.33435887 1.0428308 0.36452338
v -0.33435887 0.2474514 0.36452338
v 0.33435887 1.0428308 0.36452338
v -0.33435887 1.0428308 0.36452338
v -0.33435887 0.2474514 1.6403552
v 0.33435887 1.0428308 1.6403552
v 0.33435887 0.2474514 1.6403552
v -0.33435887 0.2474514 1.6403552
v -0.33435887 1.0428308 1.6403552
v 0.33435887 1.0428308 1.6403552
v -0.33435887 0.2474514 0.36452338
v -0.33435887 0.2474514 1.6403552
v 0.33435887 0.2474514 1.6403552
v -0.33435887 0.2474514 0.36452338
v 0.33435887 0.2474514 1.6403552
v 0.33435887 0.2474514 0.36452338
v -0.33435887 1.0428308 0.36452338
v 0.33435887 1.0428308 1.6403552
v -0.33435887 1.0428308 1.6403552
v -0.33435887 1.0428308 0.36452338
v 0.33435887 1.0428308 0.36452338
v 0.33435887 1.0428308 1.6403552
v -0.33435887 0.2474514 0.36452338
v -0.33435887 1.0428308 0.36452338
v -0.33435887 1.0428308 1.6403552
v -0.33435887 0.2474514 0.36452338
v -0.33435887 1.0428308 1.6403552
v -0.33435887 0.2474514 1.6403552
v 0.33435887 0.2474514 0.36452338
v 0.33435887 0.2474514 1.6403552
v 0.33435887 1.0428308 1.6403552
v 0.33435887 0.2474514 0.36452338
v 0.33435887 1.0428308 1.6403552
v 0.33435887 1.0428308 0.36452338
v -0.7801706 0.0707004 -2.5111613
v -1.1011552 0 -3.2173274
v -0.4591861 0 -3.2173274
v -0.7801706 0.29163915 -2.3506691
v -0.97276133 0.0707004 -2.5111613
v -0.5875799 0.0707004 -2.5111613
v 0 0.0707004 -2.5111613
v -0.3209845 0 -3.2173274
v 0.3209845 0 -3.2173274
v 0 0.29163915 -2.3506691
v -0.19259071 0.0707004 -2.5111613
v 0.19259071 0.0707004 -2.5111613
v 0.7801706 0.0707004 -2.5111613
v 0.4591861 0 -3.2173274
v 1.1011552 0 -3.2173274
v 0.7801706 0.29163915 -2.3506691
v 0.5875799 0.0707004 -2.5111613
v 0.97276133 0.0707004 -2.5111613
vn -0 0.9966985 0.081191316
vn -0 0.9966985 0.081191316
vn -0 0.9966985 0.081191316
vn -0.09820004 0.99516666 0
vn -0.09820004 0.99516666 0
vn -0.09820004 0.99516666 0
vn 0.09820004 0.99516666 0
vn 0.09820004 0.99516666 0
vn 0.09820004 0.99516666 0
vn -0 0.99999994 0
vn -0 0.99999994 0
vn -0 0.99999994 0
vn 0 0.99999994 0
vn 0 0.99999994 0
vn 0 0.99999994 0
vn -0.41291496 0.91013145 0.03408714
vn -0.41291496 0.91013145 0.03408714
vn -0.41291496 0.91013145 0.03408714
vn -0.41291496 0.9101314 0.034087136
vn -0.41291496 0.9101314 0.034087136
vn -0.41291496 0.9101314 0.034087136
vn -0.41291496 0.91013145 0.03408714
vn -0.41291496 0.91013145 0.03408714
vn -0.41291496 0.91013145 0.03408714
vn 0 0 1
vn 0 0 1
vn 0 0 1
vn 0 0 1
vn 0 0 1
vn 0 0 1
vn 0 0 -1
vn 0 0 -1
vn 0 0 -1
vn 0 0 -1
vn 0 0 -1
vn 0 0 -1
vn 0 0.99999994 0
vn 0 0.99999994 0
vn 0 0.99999994 0
vn 0 0.99999994 0
vn 0 0.99999994 0
vn 0 0.99999994 0
vn 0 -0.99999994 0
vn 0 -0.99999994 0
vn 0 -0.99999994 0
vn 0 -0.99999994 0
vn 0 -0.99999994 0
vn 0 -0.99999994 0
vn 1 0 0
vn 1 0 0
vn 1 0 0
vn 1 0 0
vn 1 0 0
vn 1 0 0
vn -1 0 0
vn -1 0 0
vn -1 0 0
vn -1 0 0
vn -1 0 0
vn -1 0 0
vn 0 -0.9950255 0.09962063
vn 0 -0.9950255 0.09962063
vn 0 -0.9950255 0.09962063
vn 0 -0.58771527 0.8090679
vn 0 -0.58771527 0.8090679
vn 0 -0.58771527 0.8090679
vn 0 -0.9950255 0.099620625
vn 0 -0.9950255 0.099620625
vn 0 -0.9950255 0.099620625
vn 0 -0.58771527 0.8090679
vn 0 -0.58771527 0.8090679
vn 0 -0.58771527 0.8090679
vn 0 -0.9950255 0.09962063
vn 0 -0.9950255 0.09962063
vn 0 -0.9950255 0.09962063
vn 0 -0.58771527 0.8090679
vn 0 -0.58771527 0.8090679
vn 0 -0.58771527 0.8090679
f 1//1 2//2 3//3
f 4//4 5//5 6//6
f 7//7 8//8 9//9
f 10//10 11//11 12//12
f 13//13 14//14 15//15
f 16//16 17//17 18//18
f 19//19 20//20 21//21
f 22//22 23//23 24//24
f 25//25 26//26 27//27
f 28//28 29//29 30//30
f 31//31 32//32 33//33
f 34//34 35//35 36//36
f 37//37 38//38 39//39
f 40//40 41//41 42//42
f 43//43 44//44 45//45
f 46//46 47//47 48//48
f 49//49 50//50 51//51
f 52//52 53//53 54//54
f 55//55 56//56 57//57
f 58//58 59//59 60//60
f 61//61 62//62 63//63
f 64//64 65//65 66//66
f 67//67 68//68 69//69
f 70//70 71//71 72//72
f 73//73 74//74 75//75
f 76//76 77//77 78//78
