# Exported from SharpOpenGl procedural mesh
o miner_eva
# vertices 348
v -0.5906207 0.03334277 -1.52992
v 0.5906207 0.03334277 -1.52992
v 0 0.10419616 -1.3797097
v -0.5906207 0.03334277 -1.52992
v 0 0.10419616 -1.3797097
v -0.7399485 0.039899535 -1.1961193
v 0.5906207 0.03334277 -1.52992
v 0.7399485 0.039899535 -1.1961193
v 0 0.12468605 -1.3797097
v -0.5906207 0 -1.52992
v -0.7399485 0 -1.1961193
v 0.5906207 0 -1.52992
v 0.5906207 0 -1.52992
v -0.7399485 0 -1.1961193
v 0.7399485 0 -1.1961193
v -0.7399485 0.039899535 -1.1961193
v 0.7399485 0.039899535 -1.1961193
v 0 0.12468605 -1.0459089
v -0.7399485 0.039899535 -1.1961193
v 0 0.12468605 -1.0459089
v -0.8746591 0.045814473 -0.8623185
v 0.7399485 0.039899535 -1.1961193
v 0.8746591 0.045814473 -0.8623185
v 0 0.14317024 -1.0459089
v -0.7399485 0 -1.1961193
v -0.8746591 0 -0.8623185
v 0.7399485 0 -1.1961193
v 0.7399485 0 -1.1961193
v -0.8746591 0 -0.8623185
v 0.8746591 0 -0.8623185
v -0.8746591 0.045814473 -0.8623185
v 0.8746591 0.045814473 -0.8623185
v 0 0.14317024 -0.71210814
v -0.8746591 0.045814473 -0.8623185
v 0 0.14317024 -0.71210814
v -0.9815661 0.0505086 -0.5285177
v 0.8746591 0.045814473 -0.8623185
v 0.9815661 0.0505086 -0.5285177
v 0 0.15783937 -0.71210814
v -0.8746591 0 -0.8623185
v -0.9815661 0 -0.5285177
v 0.8746591 0 -0.8623185
v 0.8746591 0 -0.8623185
v -0.9815661 0 -0.5285177
v 0.9815661 0 -0.5285177
v -0.9815661 0.0505086 -0.5285177
v 0.9815661 0.0505086 -0.5285177
v 0 0.15783937 -0.3783074
v -0.9815661 0.0505086 -0.5285177
v 0 0.15783937 -0.3783074
v -1.0502045 0.053522415 -0.19471705
v 0.9815661 0.0505086 -0.5285177
v 1.0502045 0.053522415 -0.19471705
v 0 0.16725755 -0.3783074
v -0.9815661 0 -0.5285177
v -1.0502045 0 -0.19471705
v 0.9815661 0 -0.5285177
v 0.9815661 0 -0.5285177
v -1.0502045 0 -0.19471705
v 1.0502045 0 -0.19471705
v -1.0502045 0.053522415 -0.19471705
v 1.0502045 0.053522415 -0.19471705
v 0 0.16725755 -0.044506744
v -1.0502045 0.053522415 -0.19471705
v 0 0.16725755 -0.044506744
v -1.0738558 0.0545609 0.13908362
v 1.0502045 0.053522415 -0.19471705
v 1.0738558 0.0545609 0.13908362
v 0 0.17050281 -0.044506744
v -1.0502045 0 -0.19471705
v -1.0738558 0 0.13908362
v 1.0502045 0 -0.19471705
v 1.0502045 0 -0.19471705
v -1.0738558 0 0.13908362
v 1.0738558 0 0.13908362
v -1.0738558 0.0545609 0.13908362
v 1.0738558 0.0545609 0.13908362
v 0 0.17050281 0.28929403
v -1.0738558 0.0545609 0.13908362
v 0 0.17050281 0.28929403
v -1.0502045 0.053522408 0.47288454
v 1.0738558 0.0545609 0.13908362
v 1.0502045 0.053522408 0.47288454
v 0 0.16725753 0.28929403
v -1.0738558 0 0.13908362
v -1.0502045 0 0.47288454
v 1.0738558 0 0.13908362
v 1.0738558 0 0.13908362
v -1.0502045 0 0.47288454
v 1.0502045 0 0.47288454
v -1.0502045 0.053522408 0.47288454
v 1.0502045 0.053522408 0.47288454
v 0 0.16725753 0.6230948
v -1.0502045 0.053522408 0.47288454
v 0 0.16725753 0.6230948
v -0.9815661 0.0505086 0.8066851
v 1.0502045 0.053522408 0.47288454
v 0.9815661 0.0505086 0.8066851
v 0 0.15783937 0.6230948
v -1.0502045 0 0.47288454
v -0.9815661 0 0.8066851
v 1.0502045 0 0.47288454
v 1.0502045 0 0.47288454
v -0.9815661 0 0.8066851
v 0.9815661 0 0.8066851
v -0.9815661 0.0505086 0.8066851
v 0.9815661 0.0505086 0.8066851
v 0 0.15783937 0.9568955
v -0.9815661 0.0505086 0.8066851
v 0 0.15783937 0.9568955
v -1.0699056 0.04581447 1.1404859
v 0.9815661 0.0505086 0.8066851
v 1.0699056 0.04581447 1.1404859
v 0 0.14317022 0.9568955
v -0.9815661 0 0.8066851
v -1.0699056 0 1.1404859
v 0.9815661 0 0.8066851
v 0.9815661 0 0.8066851
v -1.0699056 0 1.1404859
v 1.0699056 0 1.1404859
v -1.0699056 0.04581447 1.1404859
v 1.0699056 0.04581447 1.1404859
v 0 0.14317022 1.2906961
v -1.0699056 0.04581447 1.1404859
v 0 0.14317022 1.2906961
v -0.83757186 0.039899535 1.4742864
v 1.0699056 0.04581447 1.1404859
v 0.83757186 0.039899535 1.4742864
v 0 0.12468605 1.2906961
v -1.0699056 0 1.1404859
v -0.83757186 0 1.4742864
v 1.0699056 0 1.1404859
v 1.0699056 0 1.1404859
v -0.83757186 0 1.4742864
v 0.83757186 0 1.4742864
v -0.83757186 0.039899535 1.4742864
v 0.83757186 0.039899535 1.4742864
v 0 0.12468605 1.6244968
v -0.83757186 0.039899535 1.4742864
v 0 0.12468605 1.6244968
v -0.59062064 0.033342768 1.8080872
v 0.83757186 0.039899535 1.4742864
v 0.59062064 0.033342768 1.8080872
v 0 0.10419615 1.6244968
v -0.83757186 0 1.4742864
v -0.59062064 0 1.8080872
v 0.83757186 0 1.4742864
v 0.83757186 0 1.4742864
v -0.59062064 0 1.8080872
v 0.59062064 0 1.8080872
v -1.8121316 0.18944757 1.0570356
v 1.8121316 0.18944757 1.0570356
v 0 0.2936437 -0.83450174
v -1.8121316 0.18944757 1.0570356
v 0 0.2936437 -0.83450174
v -1.8121316 0.18944757 -1.0570356
v 1.8121316 0.18944757 1.0570356
v 1.8121316 0.18944757 -1.0570356
v 0 0.2936437 -0.83450174
v -1.8121316 0.17429176 1.0570356
v 1.8121316 0.17429176 1.0570356
v 1.8121316 0.17429176 -1.0570356
v -1.8121316 0.17429176 1.0570356
v 1.8121316 0.17429176 -1.0570356
v -1.8121316 0.17429176 -1.0570356
v -1.8121316 0.17429176 1.0570356
v -1.8121316 0.18944757 1.0570356
v 1.8121316 0.18944757 1.0570356
v -1.8121316 0.17429176 -1.0570356
v 1.8121316 0.18944757 -1.0570356
v -1.8121316 0.18944757 -1.0570356
v 1.8121316 0.17429176 -1.0570356
v 1.8121316 0.18944757 -1.0570356
v 1.8121316 0.18944757 1.0570356
v 1.8121316 0.17429176 1.0570356
v 1.8121316 0.18944757 1.0570356
v 1.8121316 0.18944757 -1.0570356
v -1.7034037 0.18944757 -1.0570356
v -1.3409774 0.18944757 -1.0570356
v -1.5221906 0.25575423 -0.7788683
v -1.7034037 0.18944757 -1.0570356
v -1.5221906 0.25575423 -0.7788683
v -1.6671611 0.18944757 -0.7788683
v -1.3409774 0.18944757 -1.0570356
v -1.37722 0.18944757 -0.7788683
v -1.5221906 0.25575423 -0.7788683
v -0.18121317 0.18944757 -1.0570356
v 0.18121317 0.18944757 -1.0570356
v 0 0.25575423 -0.7788683
v -0.18121317 0.18944757 -1.0570356
v 0 0.25575423 -0.7788683
v -0.14497052 0.18944757 -0.7788683
v 0.18121317 0.18944757 -1.0570356
v 0.14497052 0.18944757 -0.7788683
v 0 0.25575423 -0.7788683
v 1.3409774 0.18944757 -1.0570356
v 1.7034037 0.18944757 -1.0570356
v 1.5221906 0.25575423 -0.7788683
v 1.3409774 0.18944757 -1.0570356
v 1.5221906 0.25575423 -0.7788683
v 1.37722 0.18944757 -0.7788683
v 1.7034037 0.18944757 -1.0570356
v 1.6671611 0.18944757 -0.7788683
v 1.5221906 0.25575423 -0.7788683
v -1.7034037 0.18944757 0.83450174
v -1.3409774 0.18944757 0.83450174
v -1.5221906 0.34100562 1.112669
v -1.7034037 0.18944757 0.83450174
v -1.5221906 0.34100562 1.112669
v -1.6671611 0.18944757 1.112669
v -1.3409774 0.18944757 0.83450174
v -1.37722 0.18944757 1.112669
v -1.5221906 0.34100562 1.112669
v -0.18121317 0.18944757 0.83450174
v 0.18121317 0.18944757 0.83450174
v 0 0.34100562 1.112669
v -0.18121317 0.18944757 0.83450174
v 0 0.34100562 1.112669
v -0.14497052 0.18944757 1.112669
v 0.18121317 0.18944757 0.83450174
v 0.14497052 0.18944757 1.112669
v 0 0.34100562 1.112669
v 1.3409774 0.18944757 0.83450174
v 1.7034037 0.18944757 0.83450174
v 1.5221906 0.34100562 1.112669
v 1.3409774 0.18944757 0.83450174
v 1.5221906 0.34100562 1.112669
v 1.37722 0.18944757 1.112669
v 1.7034037 0.18944757 0.83450174
v 1.6671611 0.18944757 1.112669
v 1.5221906 0.34100562 1.112669
v -0.26846394 0.1580534 0.0934642
v 0.26846394 0.1580534 0.0934642
v 0 0.49391687 0.11449365
v -0.26846394 0.1580534 0.0934642
v 0 0.49391687 0.11449365
v -0.25056633 0.17790027 0.14019631
v 0.26846394 0.1580534 0.0934642
v 0.25056633 0.17790027 0.14019631
v 0 0.55593836 0.11449365
v -0.26846394 0 0.0934642
v -0.25056633 0 0.14019631
v 0.26846394 0 0.0934642
v 0.26846394 0 0.0934642
v -0.25056633 0 0.14019631
v 0.25056633 0 0.14019631
v -0.25056633 0.17790027 0.14019631
v 0.25056633 0.17790027 0.14019631
v 0 0.55593836 0.16122577
v -0.25056633 0.17790027 0.14019631
v 0 0.55593836 0.16122577
v -0.23266874 0.19774717 0.18692842
v 0.25056633 0.17790027 0.14019631
v 0.23266874 0.19774717 0.18692842
v 0 0.6179599 0.16122577
v -0.25056633 0 0.14019631
v -0.23266874 0 0.18692842
v 0.25056633 0 0.14019631
v 0.25056633 0 0.14019631
v -0.23266874 0 0.18692842
v 0.23266874 0 0.18692842
v -0.23266874 0.19774717 0.18692842
v 0.23266874 0.19774717 0.18692842
v 0 0.6179599 0.20795786
v -0.23266874 0.19774717 0.18692842
v 0 0.6179599 0.20795786
v -0.21477115 0.21759407 0.23366052
v 0.23266874 0.19774717 0.18692842
v 0.21477115 0.21759407 0.23366052
v 0 0.67998147 0.20795786
v -0.23266874 0 0.18692842
v -0.21477115 0 0.23366052
v 0.23266874 0 0.18692842
v 0.23266874 0 0.18692842
v -0.21477115 0 0.23366052
v 0.21477115 0 0.23366052
v -0.21477115 0.21759407 0.23366052
v 0.21477115 0.21759407 0.23366052
v 0 0.67998147 0.25468996
v -0.21477115 0.21759407 0.23366052
v 0 0.67998147 0.25468996
v -0.19687356 0.23744094 0.28039262
v 0.21477115 0.21759407 0.23366052
v 0.19687356 0.23744094 0.28039262
v 0 0.74200296 0.25468996
v -0.21477115 0 0.23366052
v -0.19687356 0 0.28039262
v 0.21477115 0 0.23366052
v 0.21477115 0 0.23366052
v -0.19687356 0 0.28039262
v 0.19687356 0 0.28039262
v -0.19687356 0.23744094 0.28039262
v 0.19687356 0.23744094 0.28039262
v 0 0.74200296 0.30142206
v -0.19687356 0.23744094 0.28039262
v 0 0.74200296 0.30142206
v -0.17897595 0.25728783 0.3271247
v 0.19687356 0.23744094 0.28039262
v 0.17897595 0.25728783 0.3271247
v 0 0.80402446 0.30142206
v -0.19687356 0 0.28039262
v -0.17897595 0 0.3271247
v 0.19687356 0 0.28039262
v 0.19687356 0 0.28039262
v -0.17897595 0 0.3271247
v 0.17897595 0 0.3271247
v -0.17897595 0.25728783 0.3271247
v 0.17897595 0.25728783 0.3271247
v 0 0.80402446 0.34815416
v -0.17897595 0.25728783 0.3271247
v 0 0.80402446 0.34815416
v -0.16107836 0.27713472 0.3738568
v 0.17897595 0.25728783 0.3271247
v 0.16107836 0.27713472 0.3738568
v 0 0.866046 0.34815416
v -0.17897595 0 0.3271247
v -0.16107836 0 0.3738568
v 0.17897595 0 0.3271247
v 0.17897595 0 0.3271247
v -0.16107836 0 0.3738568
v 0.16107836 0 0.3738568
v -1.1275486 0.054127872 -1.9162636
v -1.4174896 0 -2.554134
v -0.8376075 0 -2.554134
v -1.1275486 0.22327748 -1.771293
v -1.3015132 0.054127872 -1.9162636
v -0.95358396 0.054127872 -1.9162636
v -0.37584952 0.054127872 -1.9162636
v -0.66579056 0 -2.554134
v -0.08590847 0 -2.554134
v -0.37584952 0.22327748 -1.771293
v -0.54981416 0.054127872 -1.9162636
v -0.20188488 0.054127872 -1.9162636
v 0.37584952 0.054127872 -1.9162636
v 0.08590847 0 -2.554134
v 0.66579056 0 -2.554134
v 0.37584952 0.22327748 -1.771293
v 0.20188488 0.054127872 -1.9162636
v 0.54981416 0.054127872 -1.9162636
v 1.1275486 0.054127872 -1.9162636
v 0.8376075 0 -2.554134
v 1.4174896 0 -2.554134
v 1.1275486 0.22327748 -1.771293
v 0.95358396 0.054127872 -1.9162636
v 1.3015132 0.054127872 -1.9162636
v 0 0.2571074 0.2472598
v -0.18792476 0.09472378 0.08618143
v 0.18792476 0.09472378 0.08618143
vn 0 -0.9044328 0.4266162
vn 0 -0.9044328 0.4266162
vn 0 -0.9044328 0.4266162
vn 0.10245938 -0.9925894 0.06533303
vn 0.10245938 -0.9925894 0.06533303
vn 0.10245938 -0.9925894 0.06533303
vn -0.13276154 -0.98801064 0.07879896
vn -0.13276154 -0.98801064 0.07879896
vn -0.13276154 -0.98801064 0.07879896
vn 0 1 -0
vn 0 1 -0
vn 0 1 -0
vn 0 1 -0
vn 0 1 -0
vn 0 1 -0
vn 0 -0.8708483 0.49155185
vn 0 -0.8708483 0.49155185
vn 0 -0.8708483 0.49155185
vn 0.101871565 -0.9930637 0.058708943
vn 0.101871565 -0.9930637 0.058708943
vn 0.101871565 -0.9930637 0.058708943
vn -0.12440469 -0.9899161 0.06774676
vn -0.12440469 -0.9899161 0.06774676
vn -0.12440469 -0.9899161 0.06774676
vn 0 1 -0
vn 0 1 -0
vn 0 1 -0
vn 0 1 -0
vn 0 1 -0
vn 0 1 -0
vn 0 -0.83916014 0.5438844
vn 0 -0.83916014 0.5438844
vn 0 -0.83916014 0.5438844
vn 0.102556944 -0.9936246 0.046819095
vn 0.102556944 -0.9936246 0.046819095
vn 0.102556944 -0.9936246 0.046819095
vn -0.11811717 -0.9916489 0.05177481
vn -0.11811717 -0.9916489 0.05177481
vn -0.11811717 -0.9916489 0.05177481
vn 0 1 -0
vn 0 1 -0
vn 0 1 -0
vn 0 1 -0
vn 0 1 -0
vn 0 1 -0
vn 0 -0.8136369 0.58137333
vn 0 -0.8136369 0.58137333
vn 0 -0.8136369 0.58137333
vn 0.104054295 -0.9941077 0.030371964
vn 0.104054295 -0.9941077 0.030371964
vn 0.104054295 -0.9941077 0.030371964
vn -0.11318139 -0.9930511 0.032239202
vn -0.11318139 -0.9930511 0.032239202
vn -0.11318139 -0.9930511 0.032239202
vn 0 1 -0
vn 0 1 -0
vn 0 1 -0
vn 0 1 -0
vn 0 1 -0
vn 0 1 -0
vn 0 -0.7972468 0.6036535
vn 0 -0.7972468 0.6036535
vn 0 -0.7972468 0.6036535
vn 0.10616163 -0.99429226 0.010615352
vn 0.10616163 -0.99429226 0.010615352
vn 0.10616163 -0.99429226 0.010615352
vn -0.109167285 -0.9939643 0.010827295
vn -0.109167285 -0.9939643 0.010827295
vn -0.109167285 -0.9939643 0.010827295
vn 0 1 -0
vn 0 1 -0
vn 0 1 -0
vn 0 1 -0
vn 0 1 -0
vn 0 1 -0
vn 0 -0.7916158 0.6110192
vn 0 -0.7916158 0.6110192
vn 0 -0.7916158 0.6110192
vn 0.10883143 -0.99400145 -0.010803628
vn 0.10883143 -0.99400145 -0.010803628
vn 0.10883143 -0.99400145 -0.010803628
vn -0.10583212 -0.99432766 -0.010592129
vn -0.10583212 -0.99432766 -0.010592129
vn -0.10583212 -0.99432766 -0.010592129
vn 0 1 0
vn 0 1 0
vn 0 1 0
vn 0 1 0
vn 0 1 0
vn 0 1 0
vn 0 -0.7972468 0.60365355
vn 0 -0.7972468 0.60365355
vn 0 -0.7972468 0.60365355
vn 0.11213976 -0.9931763 -0.03202614
vn 0.11213976 -0.9931763 -0.03202614
vn 0.11213976 -0.9931763 -0.03202614
vn -0.10307095 -0.9942163 -0.030170735
vn -0.10307095 -0.9942163 -0.030170735
vn -0.10307095 -0.9942163 -0.030170735
vn 0 1 0
vn 0 1 0
vn 0 1 0
vn 0 1 0
vn 0 1 0
vn 0 1 0
vn 0 -0.813637 0.5813732
vn 0 -0.813637 0.5813732
vn 0 -0.813637 0.5813732
vn 0.10653787 -0.9942071 0.014213781
vn 0.10653787 -0.9942071 0.014213781
vn 0.10653787 -0.9942071 0.014213781
vn -0.09239367 -0.9956677 0.010450011
vn -0.09239367 -0.9956677 0.010450011
vn -0.09239367 -0.9956677 0.010450011
vn 0 1 -0
vn 0 1 -0
vn 0 1 -0
vn 0 1 -0
vn 0 1 -0
vn 0 1 -0
vn 0 -0.83916 0.54388463
vn 0 -0.83916 0.54388463
vn 0 -0.83916 0.54388463
vn 0.1026463 -0.9907284 -0.08900013
vn 0.1026463 -0.9907284 -0.08900013
vn 0.1026463 -0.9907284 -0.08900013
vn -0.08391623 -0.9935694 -0.07601387
vn -0.08391623 -0.9935694 -0.07601387
vn -0.08391623 -0.9935694 -0.07601387
vn 0 1 0
vn 0 1 0
vn 0 1 0
vn 0 1 0
vn 0 1 0
vn 0 1 0
vn 0 -0.8708483 0.49155185
vn 0 -0.8708483 0.49155185
vn 0 -0.8708483 0.49155185
vn 0.11920888 -0.98702365 -0.10758052
vn 0.11920888 -0.98702365 -0.10758052
vn 0.11920888 -0.98702365 -0.10758052
vn -0.0918234 -0.99193084 -0.08741669
vn -0.0918234 -0.99193084 -0.08741669
vn -0.0918234 -0.99193084 -0.08741669
vn 0 1 0
vn 0 1 0
vn 0 1 0
vn 0 1 0
vn 0 1 0
vn 0 1 0
vn -0 0.9984862 0.05500204
vn -0 0.9984862 0.05500204
vn -0 0.9984862 0.05500204
vn -0.0574044 0.99835104 0
vn -0.0574044 0.99835104 0
vn -0.0574044 0.99835104 0
vn 0.0574044 0.99835104 0
vn 0.0574044 0.99835104 0
vn 0.0574044 0.99835104 0
vn -0 1 0
vn -0 1 0
vn -0 1 0
vn 0 1 0
vn 0 1 0
vn 0 1 0
vn 0 0 -1
vn 0 0 -1
vn 0 0 -1
vn 0 0 1
vn 0 0 1
vn 0 0 1
vn 1 0 0
vn 1 0 0
vn 1 0 0
vn -1 0 0
vn -1 0 0
vn -1 0 0
vn 0 -0.972746 0.23187324
vn 0 -0.972746 0.23187324
vn 0 -0.972746 0.23187324
vn 0.41532883 -0.90806025 -0.054113485
vn 0.41532883 -0.90806025 -0.054113485
vn 0.41532883 -0.90806025 -0.054113485
vn -0.41532883 -0.90806025 -0.054113485
vn -0.41532883 -0.90806025 -0.054113485
vn -0.41532883 -0.90806025 -0.054113485
vn 0 -0.97274595 0.23187323
vn 0 -0.97274595 0.23187323
vn 0 -0.97274595 0.23187323
vn 0.41532892 -0.9080603 -0.05411356
vn 0.41532892 -0.9080603 -0.05411356
vn 0.41532892 -0.9080603 -0.05411356
vn -0.41532892 -0.9080603 -0.05411356
vn -0.41532892 -0.9080603 -0.05411356
vn -0.41532892 -0.9080603 -0.05411356
vn 0 -0.972746 0.23187324
vn 0 -0.972746 0.23187324
vn 0 -0.972746 0.23187324
vn 0.41532883 -0.90806025 -0.054113485
vn 0.41532883 -0.90806025 -0.054113485
vn 0.41532883 -0.90806025 -0.054113485
vn -0.41532883 -0.90806025 -0.054113485
vn -0.41532883 -0.90806025 -0.054113485
vn -0.41532883 -0.90806025 -0.054113485
vn 0 -0.8781205 0.47843963
vn 0 -0.8781205 0.47843963
vn 0 -0.8781205 0.47843963
vn 0.7194553 -0.68818396 -0.093738325
vn 0.7194553 -0.68818396 -0.093738325
vn 0.7194553 -0.68818396 -0.093738325
vn -0.7194553 -0.68818396 -0.093738325
vn -0.7194553 -0.68818396 -0.093738325
vn -0.7194553 -0.68818396 -0.093738325
vn 0 -0.8781204 0.4784396
vn 0 -0.8781204 0.4784396
vn 0 -0.8781204 0.4784396
vn 0.7194553 -0.68818384 -0.093738444
vn 0.7194553 -0.68818384 -0.093738444
vn 0.7194553 -0.68818384 -0.093738444
vn -0.7194553 -0.68818384 -0.093738444
vn -0.7194553 -0.68818384 -0.093738444
vn -0.7194553 -0.68818384 -0.093738444
vn 0 -0.8781205 0.47843963
vn 0 -0.8781205 0.47843963
vn 0 -0.8781205 0.47843963
vn 0.7194553 -0.68818396 -0.093738325
vn 0.7194553 -0.68818396 -0.093738325
vn 0.7194553 -0.68818396 -0.093738325
vn -0.7194553 -0.68818396 -0.093738325
vn -0.7194553 -0.68818396 -0.093738325
vn -0.7194553 -0.68818396 -0.093738325
vn 0 -0.062490717 0.99804556
vn 0 -0.062490717 0.99804556
vn 0 -0.062490717 0.99804556
vn 0.781715 -0.622656 -0.034945004
vn 0.781715 -0.622656 -0.034945004
vn 0.781715 -0.622656 -0.034945004
vn -0.8281791 -0.5544774 -0.08169504
vn -0.8281791 -0.5544774 -0.08169504
vn -0.8281791 -0.5544774 -0.08169504
vn 0 1 0
vn 0 1 0
vn 0 1 0
vn 0 1 0
vn 0 1 0
vn 0 1 0
vn 0 -0.055542007 0.9984563
vn 0 -0.055542007 0.9984563
vn 0 -0.055542007 0.9984563
vn 0.8326148 -0.54704857 -0.08654823
vn 0.8326148 -0.54704857 -0.08654823
vn 0.8326148 -0.54704857 -0.08654823
vn -0.86478055 -0.48644435 -0.12460547
vn -0.86478055 -0.48644435 -0.12460547
vn -0.86478055 -0.48644435 -0.12460547
vn 0 0.99999994 0
vn 0 0.99999994 0
vn 0 0.99999994 0
vn 0 1 0
vn 0 1 0
vn 0 1 0
vn 0 -0.0499822 0.9987501
vn 0 -0.0499822 0.9987501
vn 0 -0.0499822 0.9987501
vn 0.87003374 -0.47515488 -0.13141194
vn 0.87003374 -0.47515488 -0.13141194
vn 0.87003374 -0.47515488 -0.13141194
vn -0.8915311 -0.42309266 -0.16175567
vn -0.8915311 -0.42309266 -0.16175567
vn -0.8915311 -0.42309266 -0.16175567
vn 0 1 0
vn 0 1 0
vn 0 1 0
vn 0 1 0
vn 0 1 0
vn 0 1 0
vn 0 -0.04543318 0.99896735
vn 0 -0.04543318 0.99896735
vn 0 -0.04543318 0.99896735
vn 0.8966964 -0.40877724 -0.16981386
vn 0.8966964 -0.40877724 -0.16981386
vn 0.8966964 -0.40877724 -0.16981386
vn -0.9105797 -0.36516127 -0.19365436
vn -0.9105797 -0.36516127 -0.19365436
vn -0.9105797 -0.36516127 -0.19365436
vn 0 0.99999994 0
vn 0 0.99999994 0
vn 0 0.99999994 0
vn 0 1 0
vn 0 1 0
vn 0 1 0
vn 0 -0.041642457 0.9991326
vn 0 -0.041642457 0.9991326
vn 0 -0.041642457 0.9991326
vn 0.91513836 -0.34863865 -0.2024175
vn 0.91513836 -0.34863865 -0.2024175
vn 0.91513836 -0.34863865 -0.2024175
vn -0.92376775 -0.3127853 -0.22094914
vn -0.92376775 -0.3127853 -0.22094914
vn -0.92376775 -0.3127853 -0.22094914
vn 0 1 0
vn 0 1 0
vn 0 1 0
vn 0 1 0
vn 0 1 0
vn 0 1 0
vn 0 -0.03843515 0.9992611
vn 0 -0.03843515 0.9992611
vn 0 -0.03843515 0.9992611
vn 0.9274722 -0.2947635 -0.23002136
vn 0.9274722 -0.2947635 -0.23002136
vn 0.9274722 -0.2947635 -0.23002136
vn -0.9325764 -0.26573968 -0.24430244
vn -0.9325764 -0.26573968 -0.24430244
vn -0.9325764 -0.26573968 -0.24430244
vn 0 1 0
vn 0 1 0
vn 0 1 0
vn 0 1 0
vn 0 1 0
vn 0 1 0
vn 0 -0.99641895 0.084553294
vn 0 -0.99641895 0.084553294
vn 0 -0.99641895 0.084553294
vn 0 -0.65075296 0.75928956
vn 0 -0.65075296 0.75928956
vn 0 -0.65075296 0.75928956
vn 0 -0.9964189 0.084553294
vn 0 -0.9964189 0.084553294
vn 0 -0.9964189 0.084553294
vn 0 -0.65075296 0.7592895
vn 0 -0.65075296 0.7592895
vn 0 -0.65075296 0.7592895
vn 0 -0.9964189 0.084553294
vn 0 -0.9964189 0.084553294
vn 0 -0.9964189 0.084553294
vn 0 -0.65075296 0.7592895
vn 0 -0.65075296 0.7592895
vn 0 -0.65075296 0.7592895
vn 0 -0.99641895 0.084553294
vn 0 -0.99641895 0.084553294
vn 0 -0.99641895 0.084553294
vn 0 -0.65075296 0.75928956
vn 0 -0.65075296 0.75928956
vn 0 -0.65075296 0.75928956
vn 0 -0.70424765 0.7099544
vn 0 -0.70424765 0.7099544
vn 0 -0.70424765 0.7099544
f 1//1 2//2 3//3
f 4//4 5//5 6//6
f 7//7 8//8 9//9
f 10//10 11//11 12//12
f 13//13 14//14 15//15
f 16//16 17//17 18//18
f 19//19 20//20 21//21
f 22//22 23//23 24//24
f 25//25 26//26 27//27
f 28//28 29//29 30//30
f 31//31 32//32 33//33
f 34//34 35//35 36//36
f 37//37 38//38 39//39
f 40//40 41//41 42//42
f 43//43 44//44 45//45
f 46//46 47//47 48//48
f 49//49 50//50 51//51
f 52//52 53//53 54//54
f 55//55 56//56 57//57
f 58//58 59//59 60//60
f 61//61 62//62 63//63
f 64//64 65//65 66//66
f 67//67 68//68 69//69
f 70//70 71//71 72//72
f 73//73 74//74 75//75
f 76//76 77//77 78//78
f 79//79 80//80 81//81
f 82//82 83//83 84//84
f 85//85 86//86 87//87
f 88//88 89//89 90//90
f 91//91 92//92 93//93
f 94//94 95//95 96//96
f 97//97 98//98 99//99
f 100//100 101//101 102//102
f 103//103 104//104 105//105
f 106//106 107//107 108//108
f 109//109 110//110 111//111
f 112//112 113//113 114//114
f 115//115 116//116 117//117
f 118//118 119//119 120//120
f 121//121 122//122 123//123
f 124//124 125//125 126//126
f 127//127 128//128 129//129
f 130//130 131//131 132//132
f 133//133 134//134 135//135
f 136//136 137//137 138//138
f 139//139 140//140 141//141
f 142//142 143//143 144//144
f 145//145 146//146 147//147
f 148//148 149//149 150//150
f 151//151 152//152 153//153
f 154//154 155//155 156//156
f 157//157 158//158 159//159
f 160//160 161//161 162//162
f 163//163 164//164 165//165
f 166//166 167//167 168//168
f 169//169 170//170 171//171
f 172//172 173//173 174//174
f 175//175 176//176 177//177
f 178//178 179//179 180//180
f 181//181 182//182 183//183
f 184//184 185//185 186//186
f 187//187 188//188 189//189
f 190//190 191//191 192//192
f 193//193 194//194 195//195
f 196//196 197//197 198//198
f 199//199 200//200 201//201
f 202//202 203//203 204//204
f 205//205 206//206 207//207
f 208//208 209//209 210//210
f 211//211 212//212 213//213
f 214//214 215//215 216//216
f 217//217 218//218 219//219
f 220//220 221//221 222//222
f 223//223 224//224 225//225
f 226//226 227//227 228//228
f 229//229 230//230 231//231
f 232//232 233//233 234//234
f 235//235 236//236 237//237
f 238//238 239//239 240//240
f 241//241 242//242 243//243
f 244//244 245//245 246//246
f 247//247 248//248 249//249
f 250//250 251//251 252//252
f 253//253 254//254 255//255
f 256//256 257//257 258//258
f 259//259 260//260 261//261
f 262//262 263//263 264//264
f 265//265 266//266 267//267
f 268//268 269//269 270//270
f 271//271 272//272 273//273
f 274//274 275//275 276//276
f 277//277 278//278 279//279
f 280//280 281//281 282//282
f 283//283 284//284 285//285
f 286//286 287//287 288//288
f 289//289 290//290 291//291
f 292//292 293//293 294//294
f 295//295 296//296 297//297
f 298//298 299//299 300//300
f 301//301 302//302 303//303
f 304//304 305//305 306//306
f 307//307 308//308 309//309
f 310//310 311//311 312//312
f 313//313 314//314 315//315
f 316//316 317//317 318//318
f 319//319 320//320 321//321
f 322//322 323//323 324//324
f 325//325 326//326 327//327
f 328//328 329//329 330//330
f 331//331 332//332 333//333
f 334//334 335//335 336//336
f 337//337 338//338 339//339
f 340//340 341//341 342//342
f 343//343 344//344 345//345
f 346//346 347//347 348//348
