# Exported from SharpOpenGl procedural mesh
o miner_tractor
# vertices 348
v -0.55552757 0.030563239 -1.343547
v 0.55552757 0.030563239 -1.343547
v 0 0.095510125 -1.2116351
v -0.55552757 0.030563239 -1.343547
v 0 0.095510125 -1.2116351
v -0.69598275 0.036573414 -1.0504094
v 0.55552757 0.030563239 -1.343547
v 0.69598275 0.036573414 -1.0504094
v 0 0.11429192 -1.2116351
v -0.55552757 0 -1.343547
v -0.69598275 0 -1.0504094
v 0.55552757 0 -1.343547
v 0.55552757 0 -1.343547
v -0.69598275 0 -1.0504094
v 0.69598275 0 -1.0504094
v -0.69598275 0.036573414 -1.0504094
v 0.69598275 0.036573414 -1.0504094
v 0 0.11429192 -0.91849756
v -0.69598275 0.036573414 -1.0504094
v 0 0.11429192 -0.91849756
v -0.8226892 0.041995272 -0.75727195
v 0.69598275 0.036573414 -1.0504094
v 0.8226892 0.041995272 -0.75727195
v 0 0.13123523 -0.91849756
v -0.69598275 0 -1.0504094
v -0.8226892 0 -0.75727195
v 0.69598275 0 -1.0504094
v 0.69598275 0 -1.0504094
v -0.8226892 0 -0.75727195
v 0.8226892 0 -0.75727195
v -0.8226892 0.041995272 -0.75727195
v 0.8226892 0.041995272 -0.75727195
v 0 0.13123523 -0.6253601
v -0.8226892 0.041995272 -0.75727195
v 0 0.13123523 -0.6253601
v -0.923244 0.046298083 -0.46413445
v 0.8226892 0.041995272 -0.75727195
v 0.923244 0.046298083 -0.46413445
v 0 0.14468151 -0.6253601
v -0.8226892 0 -0.75727195
v -0.923244 0 -0.46413445
v 0.8226892 0 -0.75727195
v 0.8226892 0 -0.75727195
v -0.923244 0 -0.46413445
v 0.923244 0 -0.46413445
v -0.923244 0.046298083 -0.46413445
v 0.923244 0.046298083 -0.46413445
v 0 0.14468151 -0.33222258
v -0.923244 0.046298083 -0.46413445
v 0 0.14468151 -0.33222258
v -0.9878042 0.049060658 -0.1709969
v 0.923244 0.046298083 -0.46413445
v 0.9878042 0.049060658 -0.1709969
v 0 0.15331456 -0.33222258
v -0.923244 0 -0.46413445
v -0.9878042 0 -0.1709969
v 0.923244 0 -0.46413445
v 0.923244 0 -0.46413445
v -0.9878042 0 -0.1709969
v 0.9878042 0 -0.1709969
v -0.9878042 0.049060658 -0.1709969
v 0.9878042 0.049060658 -0.1709969
v 0 0.15331456 -0.03908506
v -0.9878042 0.049060658 -0.1709969
v 0 0.15331456 -0.03908506
v -1.0100502 0.05001257 0.12214053
v 0.9878042 0.049060658 -0.1709969
v 1.0100502 0.05001257 0.12214053
v 0 0.15628928 -0.03908506
v -0.9878042 0 -0.1709969
v -1.0100502 0 0.12214053
v 0.9878042 0 -0.1709969
v 0.9878042 0 -0.1709969
v -1.0100502 0 0.12214053
v 1.0100502 0 0.12214053
v -1.0100502 0.05001257 0.12214053
v 1.0100502 0.05001257 0.12214053
v 0 0.15628928 0.2540524
v -1.0100502 0.05001257 0.12214053
v 0 0.15628928 0.2540524
v -0.9878042 0.049060654 0.41527808
v 1.0100502 0.05001257 0.12214053
v 0.9878042 0.049060654 0.41527808
v 0 0.15331455 0.2540524
v -1.0100502 0 0.12214053
v -0.9878042 0 0.41527808
v 1.0100502 0 0.12214053
v 1.0100502 0 0.12214053
v -0.9878042 0 0.41527808
v 0.9878042 0 0.41527808
v -0.9878042 0.049060654 0.41527808
v 0.9878042 0.049060654 0.41527808
v 0 0.15331455 0.54718983
v -0.9878042 0.049060654 0.41527808
v 0 0.15331455 0.54718983
v -0.923244 0.046298083 0.7084154
v 0.9878042 0.049060654 0.41527808
v 0.923244 0.046298083 0.7084154
v 0 0.14468151 0.54718983
v -0.9878042 0 0.41527808
v -0.923244 0 0.7084154
v 0.9878042 0 0.41527808
v 0.9878042 0 0.41527808
v -0.923244 0 0.7084154
v 0.923244 0 0.7084154
v -0.923244 0.046298083 0.7084154
v 0.923244 0.046298083 0.7084154
v 0 0.14468151 0.8403274
v -0.923244 0.046298083 0.7084154
v 0 0.14468151 0.8403274
v -1.0063347 0.04199527 1.0015532
v 0.923244 0.046298083 0.7084154
v 1.0063347 0.04199527 1.0015532
v 0 0.13123521 0.8403274
v -0.923244 0 0.7084154
v -1.0063347 0 1.0015532
v 0.923244 0 0.7084154
v 0.923244 0 0.7084154
v -1.0063347 0 1.0015532
v 1.0063347 0 1.0015532
v -1.0063347 0.04199527 1.0015532
v 1.0063347 0.04199527 1.0015532
v 0 0.13123521 1.1334649
v -1.0063347 0.04199527 1.0015532
v 0 0.13123521 1.1334649
v -0.78780556 0.036573414 1.2946905
v 1.0063347 0.04199527 1.0015532
v 0.78780556 0.036573414 1.2946905
v 0 0.11429192 1.1334649
v -1.0063347 0 1.0015532
v -0.78780556 0 1.2946905
v 1.0063347 0 1.0015532
v 1.0063347 0 1.0015532
v -0.78780556 0 1.2946905
v 0.78780556 0 1.2946905
v -0.78780556 0.036573414 1.2946905
v 0.78780556 0.036573414 1.2946905
v 0 0.11429192 1.4266024
v -0.78780556 0.036573414 1.2946905
v 0 0.11429192 1.4266024
v -0.5555275 0.030563235 1.587828
v 0.78780556 0.036573414 1.2946905
v 0.5555275 0.030563235 1.587828
v 0 0.09551011 1.4266024
v -0.78780556 0 1.2946905
v -0.5555275 0 1.587828
v 0.78780556 0 1.2946905
v 0.78780556 0 1.2946905
v -0.5555275 0 1.587828
v 0.5555275 0 1.587828
v -1.7044595 0.17365476 0.9282688
v 1.7044595 0.17365476 0.9282688
v 0 0.2691649 -0.73284376
v -1.7044595 0.17365476 0.9282688
v 0 0.2691649 -0.73284376
v -1.7044595 0.17365476 -0.9282688
v 1.7044595 0.17365476 0.9282688
v 1.7044595 0.17365476 -0.9282688
v 0 0.2691649 -0.73284376
v -1.7044595 0.15976238 0.9282688
v 1.7044595 0.15976238 0.9282688
v 1.7044595 0.15976238 -0.9282688
v -1.7044595 0.15976238 0.9282688
v 1.7044595 0.15976238 -0.9282688
v -1.7044595 0.15976238 -0.9282688
v -1.7044595 0.15976238 0.9282688
v -1.7044595 0.17365476 0.9282688
v 1.7044595 0.17365476 0.9282688
v -1.7044595 0.15976238 -0.9282688
v 1.7044595 0.17365476 -0.9282688
v -1.7044595 0.17365476 -0.9282688
v 1.7044595 0.15976238 -0.9282688
v 1.7044595 0.17365476 -0.9282688
v 1.7044595 0.17365476 0.9282688
v 1.7044595 0.15976238 0.9282688
v 1.7044595 0.17365476 0.9282688
v 1.7044595 0.17365476 -0.9282688
v -1.6021919 0.17365476 -0.9282688
v -1.2613001 0.17365476 -0.9282688
v -1.431746 0.23443393 -0.6839875
v -1.6021919 0.17365476 -0.9282688
v -1.431746 0.23443393 -0.6839875
v -1.5681027 0.17365476 -0.6839875
v -1.2613001 0.17365476 -0.9282688
v -1.2953893 0.17365476 -0.6839875
v -1.431746 0.23443393 -0.6839875
v -0.17044596 0.17365476 -0.9282688
v 0.17044596 0.17365476 -0.9282688
v 0 0.23443393 -0.6839875
v -0.17044596 0.17365476 -0.9282688
v 0 0.23443393 -0.6839875
v -0.13635676 0.17365476 -0.6839875
v 0.17044596 0.17365476 -0.9282688
v 0.13635676 0.17365476 -0.6839875
v 0 0.23443393 -0.6839875
v 1.2613001 0.17365476 -0.9282688
v 1.6021919 0.17365476 -0.9282688
v 1.431746 0.23443393 -0.6839875
v 1.2613001 0.17365476 -0.9282688
v 1.431746 0.23443393 -0.6839875
v 1.2953893 0.17365476 -0.6839875
v 1.6021919 0.17365476 -0.9282688
v 1.5681027 0.17365476 -0.6839875
v 1.431746 0.23443393 -0.6839875
v -1.6021919 0.17365476 0.73284376
v -1.2613001 0.17365476 0.73284376
v -1.431746 0.31257856 0.97712505
v -1.6021919 0.17365476 0.73284376
v -1.431746 0.31257856 0.97712505
v -1.5681027 0.17365476 0.97712505
v -1.2613001 0.17365476 0.73284376
v -1.2953893 0.17365476 0.97712505
v -1.431746 0.31257856 0.97712505
v -0.17044596 0.17365476 0.73284376
v 0.17044596 0.17365476 0.73284376
v 0 0.31257856 0.97712505
v -0.17044596 0.17365476 0.73284376
v 0 0.31257856 0.97712505
v -0.13635676 0.17365476 0.97712505
v 0.17044596 0.17365476 0.73284376
v 0.13635676 0.17365476 0.97712505
v 0 0.31257856 0.97712505
v 1.2613001 0.17365476 0.73284376
v 1.6021919 0.17365476 0.73284376
v 1.431746 0.31257856 0.97712505
v 1.2613001 0.17365476 0.73284376
v 1.431746 0.31257856 0.97712505
v 1.2953893 0.17365476 0.97712505
v 1.6021919 0.17365476 0.73284376
v 1.5681027 0.17365476 0.97712505
v 1.431746 0.31257856 0.97712505
v -0.25251254 0.14487767 0.0820785
v 0.25251254 0.14487767 0.0820785
v 0 0.45274276 0.10054617
v -0.25251254 0.14487767 0.0820785
v 0 0.45274276 0.10054617
v -0.23567837 0.16307007 0.12311775
v 0.25251254 0.14487767 0.0820785
v 0.23567837 0.16307007 0.12311775
v 0 0.50959396 0.10054617
v -0.25251254 0 0.0820785
v -0.23567837 0 0.12311775
v 0.25251254 0 0.0820785
v 0.25251254 0 0.0820785
v -0.23567837 0 0.12311775
v 0.23567837 0 0.12311775
v -0.23567837 0.16307007 0.12311775
v 0.23567837 0.16307007 0.12311775
v 0 0.50959396 0.14158541
v -0.23567837 0.16307007 0.12311775
v 0 0.50959396 0.14158541
v -0.2188442 0.1812625 0.164157
v 0.23567837 0.16307007 0.12311775
v 0.2188442 0.1812625 0.164157
v 0 0.5664453 0.14158541
v -0.23567837 0 0.12311775
v -0.2188442 0 0.164157
v 0.23567837 0 0.12311775
v 0.23567837 0 0.12311775
v -0.2188442 0 0.164157
v 0.2188442 0 0.164157
v -0.2188442 0.1812625 0.164157
v 0.2188442 0.1812625 0.164157
v 0 0.5664453 0.18262467
v -0.2188442 0.1812625 0.164157
v 0 0.5664453 0.18262467
v -0.20201004 0.19945489 0.20519626
v 0.2188442 0.1812625 0.164157
v 0.20201004 0.19945489 0.20519626
v 0 0.62329656 0.18262467
v -0.2188442 0 0.164157
v -0.20201004 0 0.20519626
v 0.2188442 0 0.164157
v 0.2188442 0 0.164157
v -0.20201004 0 0.20519626
v 0.20201004 0 0.20519626
v -0.20201004 0.19945489 0.20519626
v 0.20201004 0.19945489 0.20519626
v 0 0.62329656 0.22366393
v -0.20201004 0.19945489 0.20519626
v 0 0.62329656 0.22366393
v -0.18517587 0.21764728 0.2462355
v 0.20201004 0.19945489 0.20519626
v 0.18517587 0.21764728 0.2462355
v 0 0.68014777 0.22366393
v -0.20201004 0 0.20519626
v -0.18517587 0 0.2462355
v 0.20201004 0 0.20519626
v 0.20201004 0 0.20519626
v -0.18517587 0 0.2462355
v 0.18517587 0 0.2462355
v -0.18517587 0.21764728 0.2462355
v 0.18517587 0.21764728 0.2462355
v 0 0.68014777 0.26470315
v -0.18517587 0.21764728 0.2462355
v 0 0.68014777 0.26470315
v -0.16834168 0.23583968 0.28727475
v 0.18517587 0.21764728 0.2462355
v 0.16834168 0.23583968 0.28727475
v 0 0.73699903 0.26470315
v -0.18517587 0 0.2462355
v -0.16834168 0 0.28727475
v 0.18517587 0 0.2462355
v 0.18517587 0 0.2462355
v -0.16834168 0 0.28727475
v 0.16834168 0 0.28727475
v -0.16834168 0.23583968 0.28727475
v 0.16834168 0.23583968 0.28727475
v 0 0.73699903 0.3057424
v -0.16834168 0.23583968 0.28727475
v 0 0.73699903 0.3057424
v -0.15150753 0.2540321 0.328314
v 0.16834168 0.23583968 0.28727475
v 0.15150753 0.2540321 0.328314
v 0 0.7938503 0.3057424
v -0.16834168 0 0.28727475
v -0.15150753 0 0.328314
v 0.16834168 0 0.28727475
v 0.16834168 0 0.28727475
v -0.15150753 0 0.328314
v 0.15150753 0 0.328314
v -0.88379383 0.049615644 -1.6828266
v -1.1565074 0 -2.2827964
v -0.6110803 0 -2.2827964
v -0.88379383 0.20466453 -1.5464699
v -1.0474219 0.049615644 -1.6828266
v -0.7201657 0.049615644 -1.6828266
v 0 0.049615644 -1.6828266
v -0.2727135 0 -2.2827964
v 0.2727135 0 -2.2827964
v 0 0.20466453 -1.5464699
v -0.16362812 0.049615644 -1.6828266
v 0.16362812 0.049615644 -1.6828266
v 0.88379383 0.049615644 -1.6828266
v 0.6110803 0 -2.2827964
v 1.1565074 0 -2.2827964
v 0.88379383 0.20466453 -1.5464699
v 0.7201657 0.049615644 -1.6828266
v 1.0474219 0.049615644 -1.6828266
v -0.55552757 0.2356743 0.21713892
v -0.73228633 0.08682738 0.065631405
v -0.3787688 0.08682738 0.065631405
v 0 0.2356743 0.04038015
v -0.17675877 0.08682738 -0.11112736
v 0.17675877 0.08682738 -0.11112736
v 0.55552757 0.2356743 -0.13637862
v 0.3787688 0.08682738 -0.28788614
v 0.73228633 0.08682738 -0.28788614
vn 0 -0.89715546 0.441715
vn 0 -0.89715546 0.441715
vn 0 -0.89715546 0.441715
vn 0.09985831 -0.9926617 0.068198994
vn 0.09985831 -0.9926617 0.068198994
vn 0.09985831 -0.9926617 0.068198994
vn -0.12940313 -0.98817384 0.08226322
vn -0.12940313 -0.98817384 0.08226322
vn -0.12940313 -0.98817384 0.08226322
vn 0 1 -0
vn 0 1 -0
vn 0 1 -0
vn 0 0.99999994 -0
vn 0 0.99999994 -0
vn 0 0.99999994 -0
vn 0 -0.86158216 0.5076183
vn 0 -0.86158216 0.5076183
vn 0 -0.86158216 0.5076183
vn 0.09928875 -0.99316955 0.061286416
vn 0.09928875 -0.99316955 0.061286416
vn 0.09928875 -0.99316955 0.061286416
vn -0.121259905 -0.9900978 0.07072646
vn -0.121259905 -0.9900978 0.07072646
vn -0.121259905 -0.9900978 0.07072646
vn 0 1 -0
vn 0 1 -0
vn 0 1 -0
vn 0 0.99999994 -0
vn 0 0.99999994 -0
vn 0 0.99999994 -0
vn 0 -0.8282675 0.5603329
vn 0 -0.8282675 0.5603329
vn 0 -0.8282675 0.5603329
vn 0.099962726 -0.99379 0.048877493
vn 0.099962726 -0.99379 0.048877493
vn 0.099962726 -0.99379 0.048877493
vn -0.11513676 -0.9918778 0.054054566
vn -0.11513676 -0.9918778 0.054054566
vn -0.11513676 -0.9918778 0.054054566
vn 0 1 -0
vn 0 1 -0
vn 0 1 -0
vn 0 0.99999994 -0
vn 0 0.99999994 -0
vn 0 0.99999994 -0
vn 0 -0.8016028 0.59785694
vn 0 -0.8016028 0.59785694
vn 0 -0.8016028 0.59785694
vn 0.10142874 -0.9943373 0.031709306
vn 0.10142874 -0.9943373 0.031709306
vn 0.10142874 -0.9943373 0.031709306
vn -0.110330455 -0.9933249 0.033660267
vn -0.110330455 -0.9933249 0.033660267
vn -0.110330455 -0.9933249 0.033660267
vn 0 1 -0
vn 0 1 -0
vn 0 1 -0
vn 0 1 -0
vn 0 1 -0
vn 0 1 -0
vn 0 -0.7845559 0.6200581
vn 0 -0.7845559 0.6200581
vn 0 -0.7845559 0.6200581
vn 0.1034878 -0.994569 0.011083308
vn 0.1034878 -0.994569 0.011083308
vn 0.1034878 -0.994569 0.011083308
vn -0.10641945 -0.9942571 0.011304776
vn -0.10641945 -0.9942571 0.011304776
vn -0.10641945 -0.9942571 0.011304776
vn 0 1 -0
vn 0 1 -0
vn 0 1 -0
vn 0 1 -0
vn 0 1 -0
vn 0 1 -0
vn 0 -0.77871245 0.6273809
vn 0 -0.77871245 0.6273809
vn 0 -0.77871245 0.6273809
vn 0.10609185 -0.9942924 -0.011280037
vn 0.10609185 -0.9942924 -0.011280037
vn 0.10609185 -0.9942924 -0.011280037
vn -0.103166394 -0.9946026 -0.011059034
vn -0.103166394 -0.9946026 -0.011059034
vn -0.103166394 -0.9946026 -0.011059034
vn 0 1 0
vn 0 1 0
vn 0 1 0
vn 0 1 0
vn 0 1 0
vn 0 1 0
vn 0 -0.7845557 0.6200583
vn 0 -0.7845557 0.6200583
vn 0 -0.7845557 0.6200583
vn 0.109314464 -0.9934446 -0.03343765
vn 0.109314464 -0.9934446 -0.03343765
vn 0.109314464 -0.9934446 -0.03343765
vn -0.100469746 -0.9944414 -0.03149909
vn -0.100469746 -0.9944414 -0.03149909
vn -0.100469746 -0.9944414 -0.03149909
vn 0 1 0
vn 0 1 0
vn 0 1 0
vn 0 1 0
vn 0 1 0
vn 0 1 0
vn 0 -0.8016031 0.5978566
vn 0 -0.8016031 0.5978566
vn 0 -0.8016031 0.5978566
vn 0.10385434 -0.9944817 0.014840313
vn 0.10385434 -0.9944817 0.014840313
vn 0.10385434 -0.9944817 0.014840313
vn -0.09006041 -0.9958765 0.010909913
vn -0.09006041 -0.9958765 0.010909913
vn -0.09006041 -0.9958765 0.010909913
vn 0 1 -0
vn 0 1 -0
vn 0 1 -0
vn 0 1 -0
vn 0 1 -0
vn 0 1 -0
vn 0 -0.82826734 0.56033313
vn 0 -0.82826734 0.56033313
vn 0 -0.82826734 0.56033313
vn 0.10002418 -0.99063957 -0.09288923
vn 0.10002418 -0.99063957 -0.09288923
vn 0.10002418 -0.99063957 -0.09288923
vn -0.08177323 -0.9934882 -0.07933613
vn -0.08177323 -0.9934882 -0.07933613
vn -0.08177323 -0.9934882 -0.07933613
vn 0 1 0
vn 0 1 0
vn 0 1 0
vn 0 1 0
vn 0 1 0
vn 0 1 0
vn 0 -0.8615821 0.5076183
vn 0 -0.8615821 0.5076183
vn 0 -0.8615821 0.5076183
vn 0.11615542 -0.986865 -0.11227354
vn 0.11615542 -0.986865 -0.11227354
vn 0.11615542 -0.986865 -0.11227354
vn -0.089474134 -0.9918018 -0.09123287
vn -0.089474134 -0.9918018 -0.09123287
vn -0.089474134 -0.9918018 -0.09123287
vn 0 1 0
vn 0 1 0
vn 0 1 0
vn 0 1 0
vn 0 1 0
vn 0 1 0
vn -0 0.9983511 0.05740288
vn -0 0.9983511 0.05740288
vn -0 0.9983511 0.05740288
vn -0.055947665 0.9984337 0
vn -0.055947665 0.9984337 0
vn -0.055947665 0.9984337 0
vn 0.055947665 0.9984337 0
vn 0.055947665 0.9984337 0
vn 0.055947665 0.9984337 0
vn -0 1 0
vn -0 1 0
vn -0 1 0
vn 0 1 0
vn 0 1 0
vn 0 1 0
vn 0 0 -1
vn 0 0 -1
vn 0 0 -1
vn 0 0 1
vn 0 0 1
vn 0 0 1
vn 1 0 0
vn 1 0 0
vn 1 0 0
vn -1 0 0
vn -1 0 0
vn -1 0 0
vn 0 -0.97041404 0.24144688
vn 0 -0.97041404 0.24144688
vn 0 -0.97041404 0.24144688
vn 0.4064683 -0.9119025 -0.05672224
vn 0.4064683 -0.9119025 -0.05672224
vn 0.4064683 -0.9119025 -0.05672224
vn -0.4064683 -0.9119025 -0.05672224
vn -0.4064683 -0.9119025 -0.05672224
vn -0.4064683 -0.9119025 -0.05672224
vn 0 -0.97041404 0.24144688
vn 0 -0.97041404 0.24144688
vn 0 -0.97041404 0.24144688
vn 0.40646812 -0.91190255 -0.056722216
vn 0.40646812 -0.91190255 -0.056722216
vn 0.40646812 -0.91190255 -0.056722216
vn -0.40646812 -0.91190255 -0.056722216
vn -0.40646812 -0.91190255 -0.056722216
vn -0.40646812 -0.91190255 -0.056722216
vn 0 -0.97041404 0.24144688
vn 0 -0.97041404 0.24144688
vn 0 -0.97041404 0.24144688
vn 0.4064683 -0.9119025 -0.05672224
vn 0.4064683 -0.9119025 -0.05672224
vn 0.4064683 -0.9119025 -0.05672224
vn -0.4064683 -0.9119025 -0.05672224
vn -0.4064683 -0.9119025 -0.05672224
vn -0.4064683 -0.9119025 -0.05672224
vn 0 -0.8692615 0.49435264
vn 0 -0.8692615 0.49435264
vn 0 -0.8692615 0.49435264
vn 0.7101566 -0.697034 -0.099101625
vn 0.7101566 -0.697034 -0.099101625
vn 0.7101566 -0.697034 -0.099101625
vn -0.7101566 -0.697034 -0.099101625
vn -0.7101566 -0.697034 -0.099101625
vn -0.7101566 -0.697034 -0.099101625
vn 0 -0.86926144 0.49435258
vn 0 -0.86926144 0.49435258
vn 0 -0.86926144 0.49435258
vn 0.7101565 -0.6970342 -0.09910161
vn 0.7101565 -0.6970342 -0.09910161
vn 0.7101565 -0.6970342 -0.09910161
vn -0.7101565 -0.6970342 -0.09910161
vn -0.7101565 -0.6970342 -0.09910161
vn -0.7101565 -0.6970342 -0.09910161
vn 0 -0.8692615 0.49435264
vn 0 -0.8692615 0.49435264
vn 0 -0.8692615 0.49435264
vn 0.7101566 -0.697034 -0.099101625
vn 0.7101566 -0.697034 -0.099101625
vn 0.7101566 -0.697034 -0.099101625
vn -0.7101566 -0.697034 -0.099101625
vn -0.7101566 -0.697034 -0.099101625
vn -0.7101566 -0.697034 -0.099101625
vn 0 -0.059878588 0.9982056
vn 0 -0.059878588 0.9982056
vn 0 -0.059878588 0.9982056
vn 0.7737477 -0.63240963 -0.037046343
vn 0.7737477 -0.63240963 -0.037046343
vn 0.7737477 -0.63240963 -0.037046343
vn -0.8211253 -0.564116 -0.08675455
vn -0.8211253 -0.564116 -0.08675455
vn -0.8211253 -0.564116 -0.08675455
vn 0 1 0
vn 0 1 0
vn 0 1 0
vn 0 1 0
vn 0 1 0
vn 0 1 0
vn 0 -0.053218517 0.9985829
vn 0 -0.053218517 0.9985829
vn 0 -0.053218517 0.9985829
vn 0.82565016 -0.5566436 -0.09192268
vn 0.82565016 -0.5566436 -0.09192268
vn 0.82565016 -0.5566436 -0.09192268
vn -0.8584474 -0.49549612 -0.13248225
vn -0.8584474 -0.49549612 -0.13248225
vn -0.8584474 -0.49549612 -0.13248225
vn 0 0.99999994 0
vn 0 0.99999994 0
vn 0 0.99999994 0
vn 0 1 0
vn 0 1 0
vn 0 1 0
vn 0 -0.04789018 0.99885255
vn 0 -0.04789018 0.99885255
vn 0 -0.04789018 0.99885255
vn 0.8637976 -0.48407254 -0.13974124
vn 0.8637976 -0.48407254 -0.13974124
vn 0.8637976 -0.48407254 -0.13974124
vn -0.88565 -0.43128112 -0.17210703
vn -0.88565 -0.43128112 -0.17210703
vn -0.88565 -0.43128112 -0.17210703
vn 0 1 0
vn 0 1 0
vn 0 1 0
vn 0 1 0
vn 0 1 0
vn 0 1 0
vn 0 -0.043530777 0.99905205
vn 0 -0.043530777 0.99905205
vn 0 -0.043530777 0.99905205
vn 0.8908855 -0.4167374 -0.18070182
vn 0.8908855 -0.4167374 -0.18070182
vn 0.8908855 -0.4167374 -0.18070182
vn -0.9049071 -0.37236607 -0.20612293
vn -0.9049071 -0.37236607 -0.20612293
vn -0.9049071 -0.37236607 -0.20612293
vn 0 1 0
vn 0 1 0
vn 0 1 0
vn 0 1 0
vn 0 1 0
vn 0 1 0
vn 0 -0.039898217 0.99920374
vn 0 -0.039898217 0.99920374
vn 0 -0.039898217 0.99920374
vn 0.9094884 -0.35553735 -0.2154625
vn 0.9094884 -0.35553735 -0.2154625
vn 0.9094884 -0.35553735 -0.2154625
vn -0.91811 -0.3189904 -0.23520008
vn -0.91811 -0.3189904 -0.23520008
vn -0.91811 -0.3189904 -0.23520008
vn 0 1 0
vn 0 1 0
vn 0 1 0
vn 0 1 0
vn 0 1 0
vn 0 1 0
vn 0 -0.03682489 0.9993217
vn 0 -0.03682489 0.9993217
vn 0 -0.03682489 0.9993217
vn 0.92178166 -0.30060774 -0.2448541
vn 0.92178166 -0.30060774 -0.2448541
vn 0.92178166 -0.30060774 -0.2448541
vn -0.92679244 -0.2709903 -0.26003867
vn -0.92679244 -0.2709903 -0.26003867
vn -0.92679244 -0.2709903 -0.26003867
vn 0 1 0
vn 0 1 0
vn 0 1 0
vn 0 1 0
vn 0 1 0
vn 0 1 0
vn 0 -0.99659806 0.08241558
vn 0 -0.99659806 0.08241558
vn 0 -0.99659806 0.08241558
vn 0 -0.6603923 0.7509208
vn 0 -0.6603923 0.7509208
vn 0 -0.6603923 0.7509208
vn 0 -0.99659806 0.08241558
vn 0 -0.99659806 0.08241558
vn 0 -0.99659806 0.08241558
vn 0 -0.6603923 0.7509207
vn 0 -0.6603923 0.7509207
vn 0 -0.6603923 0.7509207
vn 0 -0.99659806 0.08241558
vn 0 -0.99659806 0.08241558
vn 0 -0.99659806 0.08241558
vn 0 -0.6603923 0.7509208
vn 0 -0.6603923 0.7509208
vn 0 -0.6603923 0.7509208
vn 0 -0.7133424 0.7008156
vn 0 -0.7133424 0.7008156
vn 0 -0.7133424 0.7008156
vn 0 -0.7133424 0.7008156
vn 0 -0.7133424 0.7008156
vn 0 -0.7133424 0.7008156
vn 0 -0.7133425 0.7008156
vn 0 -0.7133425 0.7008156
vn 0 -0.7133425 0.7008156
f 1//1 2//2 3//3
f 4//4 5//5 6//6
f 7//7 8//8 9//9
f 10//10 11//11 12//12
f 13//13 14//14 15//15
f 16//16 17//17 18//18
f 19//19 20//20 21//21
f 22//22 23//23 24//24
f 25//25 26//26 27//27
f 28//28 29//29 30//30
f 31//31 32//32 33//33
f 34//34 35//35 36//36
f 37//37 38//38 39//39
f 40//40 41//41 42//42
f 43//43 44//44 45//45
f 46//46 47//47 48//48
f 49//49 50//50 51//51
f 52//52 53//53 54//54
f 55//55 56//56 57//57
f 58//58 59//59 60//60
f 61//61 62//62 63//63
f 64//64 65//65 66//66
f 67//67 68//68 69//69
f 70//70 71//71 72//72
f 73//73 74//74 75//75
f 76//76 77//77 78//78
f 79//79 80//80 81//81
f 82//82 83//83 84//84
f 85//85 86//86 87//87
f 88//88 89//89 90//90
f 91//91 92//92 93//93
f 94//94 95//95 96//96
f 97//97 98//98 99//99
f 100//100 101//101 102//102
f 103//103 104//104 105//105
f 106//106 107//107 108//108
f 109//109 110//110 111//111
f 112//112 113//113 114//114
f 115//115 116//116 117//117
f 118//118 119//119 120//120
f 121//121 122//122 123//123
f 124//124 125//125 126//126
f 127//127 128//128 129//129
f 130//130 131//131 132//132
f 133//133 134//134 135//135
f 136//136 137//137 138//138
f 139//139 140//140 141//141
f 142//142 143//143 144//144
f 145//145 146//146 147//147
f 148//148 149//149 150//150
f 151//151 152//152 153//153
f 154//154 155//155 156//156
f 157//157 158//158 159//159
f 160//160 161//161 162//162
f 163//163 164//164 165//165
f 166//166 167//167 168//168
f 169//169 170//170 171//171
f 172//172 173//173 174//174
f 175//175 176//176 177//177
f 178//178 179//179 180//180
f 181//181 182//182 183//183
f 184//184 185//185 186//186
f 187//187 188//188 189//189
f 190//190 191//191 192//192
f 193//193 194//194 195//195
f 196//196 197//197 198//198
f 199//199 200//200 201//201
f 202//202 203//203 204//204
f 205//205 206//206 207//207
f 208//208 209//209 210//210
f 211//211 212//212 213//213
f 214//214 215//215 216//216
f 217//217 218//218 219//219
f 220//220 221//221 222//222
f 223//223 224//224 225//225
f 226//226 227//227 228//228
f 229//229 230//230 231//231
f 232//232 233//233 234//234
f 235//235 236//236 237//237
f 238//238 239//239 240//240
f 241//241 242//242 243//243
f 244//244 245//245 246//246
f 247//247 248//248 249//249
f 250//250 251//251 252//252
f 253//253 254//254 255//255
f 256//256 257//257 258//258
f 259//259 260//260 261//261
f 262//262 263//263 264//264
f 265//265 266//266 267//267
f 268//268 269//269 270//270
f 271//271 272//272 273//273
f 274//274 275//275 276//276
f 277//277 278//278 279//279
f 280//280 281//281 282//282
f 283//283 284//284 285//285
f 286//286 287//287 288//288
f 289//289 290//290 291//291
f 292//292 293//293 294//294
f 295//295 296//296 297//297
f 298//298 299//299 300//300
f 301//301 302//302 303//303
f 304//304 305//305 306//306
f 307//307 308//308 309//309
f 310//310 311//311 312//312
f 313//313 314//314 315//315
f 316//316 317//317 318//318
f 319//319 320//320 321//321
f 322//322 323//323 324//324
f 325//325 326//326 327//327
f 328//328 329//329 330//330
f 331//331 332//332 333//333
f 334//334 335//335 336//336
f 337//337 338//338 339//339
f 340//340 341//341 342//342
f 343//343 344//344 345//345
f 346//346 347//347 348//348
