# Exported from SharpOpenGl procedural mesh
o miner_basic
# vertices 87
v -2.05145 0.1691053 0.9638122
v 2.05145 0.1691053 0.9638122
v 0 0.2705685 -0.4130624
v -2.05145 0.1691053 0.9638122
v 0 0.2705685 -0.4130624
v -2.05145 0.1691053 -0.9638122
v 2.05145 0.1691053 0.9638122
v 2.05145 0.1691053 -0.9638122
v 0 0.2705685 -0.4130624
v -2.05145 0 0.9638122
v 2.05145 0 0.9638122
v 2.05145 0 -0.9638122
v -2.05145 0 0.9638122
v 2.05145 0 -0.9638122
v -2.05145 0 -0.9638122
v -1.5591019 0.1691053 1.1014997
v -1.066754 0.30438954 0.4130624
v -1.8052759 0.1691053 -0.55074984
v 0 0.1691053 1.1014997
v 0.492348 0.30438954 0.4130624
v -0.246174 0.1691053 -0.55074984
v 1.5591019 0.1691053 1.1014997
v 2.05145 0.30438954 0.4130624
v 1.312928 0.1691053 -0.55074984
v -0.4558778 0.1691053 0.27537492
v 0.4558778 0.1691053 0.27537492
v 0.4558778 0.71265805 0.27537492
v -0.4558778 0.1691053 0.27537492
v 0.4558778 0.71265805 0.27537492
v -0.4558778 0.71265805 0.27537492
v -0.4558778 0.1691053 1.2391871
v 0.4558778 0.71265805 1.2391871
v 0.4558778 0.1691053 1.2391871
v -0.4558778 0.1691053 1.2391871
v -0.4558778 0.71265805 1.2391871
v 0.4558778 0.71265805 1.2391871
v -0.4558778 0.1691053 0.27537492
v -0.4558778 0.1691053 1.2391871
v 0.4558778 0.1691053 1.2391871
v -0.4558778 0.1691053 0.27537492
v 0.4558778 0.1691053 1.2391871
v 0.4558778 0.1691053 0.27537492
v -0.4558778 0.71265805 0.27537492
v 0.4558778 0.71265805 1.2391871
v -0.4558778 0.71265805 1.2391871
v -0.4558778 0.71265805 0.27537492
v 0.4558778 0.71265805 0.27537492
v 0.4558778 0.71265805 1.2391871
v -0.4558778 0.1691053 0.27537492
v -0.4558778 0.71265805 0.27537492
v -0.4558778 0.71265805 1.2391871
v -0.4558778 0.1691053 0.27537492
v -0.4558778 0.71265805 1.2391871
v -0.4558778 0.1691053 1.2391871
v 0.4558778 0.1691053 0.27537492
v 0.4558778 0.1691053 1.2391871
v 0.4558778 0.71265805 1.2391871
v 0.4558778 0.1691053 0.27537492
v 0.4558778 0.71265805 1.2391871
v 0.4558778 0.71265805 0.27537492
v -1.0637149 0.0483158 -1.8970271
v -1.3919468 0 -2.6191375
v -0.7354829 0 -2.6191375
v -1.0637149 0.19930267 -1.7329111
v -1.2606541 0.0483158 -1.8970271
v -0.86677563 0.0483158 -1.8970271
v 0 0.0483158 -1.8970271
v -0.328232 0 -2.6191375
v 0.328232 0 -2.6191375
v 0 0.19930267 -1.7329111
v -0.1969392 0.0483158 -1.8970271
v 0.1969392 0.0483158 -1.8970271
v 1.0637149 0.0483158 -1.8970271
v 0.7354829 0 -2.6191375
v 1.3919468 0 -2.6191375
v 1.0637149 0.19930267 -1.7329111
v 0.86677563 0.0483158 -1.8970271
v 1.2606541 0.0483158 -1.8970271
v -0.66862077 0.22950006 0.2447777
v -0.88136375 0.08455265 0.062426582
v -0.45587778 0.08455265 0.062426582
v 0 0.22950006 0.032034725
v -0.21274297 0.08455265 -0.15031639
v 0.21274297 0.08455265 -0.15031639
v 0.66862077 0.22950006 -0.18070824
v 0.45587778 0.08455265 -0.36305934
v 0.88136375 0.08455265 -0.36305934
vn -0 0.9972958 0.07349167
vn -0 0.9972958 0.07349167
vn -0 0.9972958 0.07349167
vn -0.04939887 0.9987792 0
vn -0.04939887 0.9987792 0
vn -0.04939887 0.9987792 0
vn 0.04939887 0.9987792 0
vn 0.04939887 0.9987792 0
vn 0.04939887 0.9987792 0
vn -0 1 0
vn -0 1 0
vn -0 1 0
vn 0 1 0
vn 0 1 0
vn 0 1 0
vn -0.22161715 0.9745745 0.033019453
vn -0.22161715 0.9745745 0.033019453
vn -0.22161715 0.9745745 0.033019453
vn -0.22161713 0.9745745 0.03301945
vn -0.22161713 0.9745745 0.03301945
vn -0.22161713 0.9745745 0.03301945
vn -0.2216171 0.9745745 0.033019446
vn -0.2216171 0.9745745 0.033019446
vn -0.2216171 0.9745745 0.033019446
vn 0 0 1
vn 0 0 1
vn 0 0 1
vn 0 0 1
vn 0 0 1
vn 0 0 1
vn 0 0 -1
vn 0 0 -1
vn 0 0 -1
vn 0 0 -1
vn 0 0 -1
vn 0 0 -1
vn 0 1 0
vn 0 1 0
vn 0 1 0
vn 0 1 0
vn 0 1 0
vn 0 1 0
vn 0 -1 0
vn 0 -1 0
vn 0 -1 0
vn 0 -1 0
vn 0 -1 0
vn 0 -1 0
vn 1 0 0
vn 1 0 0
vn 1 0 0
vn 1 0 0
vn 1 0 0
vn 1 0 0
vn -1 0 0
vn -1 0 0
vn -1 0 0
vn -1 0 0
vn -1 0 0
vn -1 0 0
vn 0 -0.99776906 0.066759884
vn 0 -0.99776906 0.066759884
vn 0 -0.99776906 0.066759884
vn 0 -0.7359307 0.67705685
vn 0 -0.7359307 0.67705685
vn 0 -0.7359307 0.67705685
vn 0 -0.9977691 0.06675989
vn 0 -0.9977691 0.06675989
vn 0 -0.9977691 0.06675989
vn 0 -0.7359307 0.6770568
vn 0 -0.7359307 0.6770568
vn 0 -0.7359307 0.6770568
vn 0 -0.99776906 0.066759884
vn 0 -0.99776906 0.066759884
vn 0 -0.99776906 0.066759884
vn 0 -0.7359307 0.67705685
vn 0 -0.7359307 0.67705685
vn 0 -0.7359307 0.67705685
vn 0 -0.7828198 0.6222485
vn 0 -0.7828198 0.6222485
vn 0 -0.7828198 0.6222485
vn 0 -0.78281975 0.6222485
vn 0 -0.78281975 0.6222485
vn 0 -0.78281975 0.6222485
vn 0 -0.78281975 0.6222485
vn 0 -0.78281975 0.6222485
vn 0 -0.78281975 0.6222485
f 1//1 2//2 3//3
f 4//4 5//5 6//6
f 7//7 8//8 9//9
f 10//10 11//11 12//12
f 13//13 14//14 15//15
f 16//16 17//17 18//18
f 19//19 20//20 21//21
f 22//22 23//23 24//24
f 25//25 26//26 27//27
f 28//28 29//29 30//30
f 31//31 32//32 33//33
f 34//34 35//35 36//36
f 37//37 38//38 39//39
f 40//40 41//41 42//42
f 43//43 44//44 45//45
f 46//46 47//47 48//48
f 49//49 50//50 51//51
f 52//52 53//53 54//54
f 55//55 56//56 57//57
f 58//58 59//59 60//60
f 61//61 62//62 63//63
f 64//64 65//65 66//66
f 67//67 68//68 69//69
f 70//70 71//71 72//72
f 73//73 74//74 75//75
f 76//76 77//77 78//78
f 79//79 80//80 81//81
f 82//82 83//83 84//84
f 85//85 86//86 87//87
