# Exported from SharpOpenGl procedural mesh
o miner_basic
# vertices 348
v -0.66862077 0.029762534 -1.514562
v 0.66862077 0.029762534 -1.514562
v 0 0.09300792 -1.3658595
v -0.66862077 0.029762534 -1.514562
v 0 0.09300792 -1.3658595
v -0.83766955 0.035615254 -1.1841121
v 0.66862077 0.029762534 -1.514562
v 0.83766955 0.035615254 -1.1841121
v 0 0.11129767 -1.3658595
v -0.66862077 0 -1.514562
v -0.83766955 0 -1.1841121
v 0.66862077 0 -1.514562
v 0.66862077 0 -1.514562
v -0.83766955 0 -1.1841121
v 0.83766955 0 -1.1841121
v -0.83766955 0.035615254 -1.1841121
v 0.83766955 0.035615254 -1.1841121
v 0 0.11129767 -1.0354097
v -0.83766955 0.035615254 -1.1841121
v 0 0.11129767 -1.0354097
v -0.99017066 0.040895067 -0.8536622
v 0.83766955 0.035615254 -1.1841121
v 0.99017066 0.040895067 -0.8536622
v 0 0.12779708 -1.0354097
v -0.83766955 0 -1.1841121
v -0.99017066 0 -0.8536622
v 0.83766955 0 -1.1841121
v 0.83766955 0 -1.1841121
v -0.99017066 0 -0.8536622
v 0.99017066 0 -0.8536622
v -0.99017066 0.040895067 -0.8536622
v 0.99017066 0.040895067 -0.8536622
v 0 0.12779708 -0.70495975
v -0.99017066 0.040895067 -0.8536622
v 0 0.12779708 -0.70495975
v -1.1111962 0.04508515 -0.5232123
v 0.99017066 0.040895067 -0.8536622
v 1.1111962 0.04508515 -0.5232123
v 0 0.1408911 -0.70495975
v -0.99017066 0 -0.8536622
v -1.1111962 0 -0.5232123
v 0.99017066 0 -0.8536622
v 0.99017066 0 -0.8536622
v -1.1111962 0 -0.5232123
v 1.1111962 0 -0.5232123
v -1.1111962 0.04508515 -0.5232123
v 1.1111962 0.04508515 -0.5232123
v 0 0.1408911 -0.37450984
v -1.1111962 0.04508515 -0.5232123
v 0 0.1408911 -0.37450984
v -1.1888994 0.047775347 -0.19276237
v 1.1111962 0.04508515 -0.5232123
v 1.1888994 0.047775347 -0.19276237
v 0 0.14929797 -0.37450984
v -1.1111962 0 -0.5232123
v -1.1888994 0 -0.19276237
v 1.1111962 0 -0.5232123
v 1.1111962 0 -0.5232123
v -1.1888994 0 -0.19276237
v 1.1888994 0 -0.19276237
v -1.1888994 0.047775347 -0.19276237
v 1.1888994 0.047775347 -0.19276237
v 0 0.14929797 -0.044059962
v -1.1888994 0.047775347 -0.19276237
v 0 0.14929797 -0.044059962
v -1.2156742 0.048702326 0.13768744
v 1.1888994 0.047775347 -0.19276237
v 1.2156742 0.048702326 0.13768744
v 0 0.15219477 -0.044059962
v -1.1888994 0 -0.19276237
v -1.2156742 0 0.13768744
v 1.1888994 0 -0.19276237
v 1.1888994 0 -0.19276237
v -1.2156742 0 0.13768744
v 1.2156742 0 0.13768744
v -1.2156742 0.048702326 0.13768744
v 1.2156742 0.048702326 0.13768744
v 0 0.15219477 0.28638992
v -1.2156742 0.048702326 0.13768744
v 0 0.15219477 0.28638992
v -1.1888994 0.047775347 0.46813738
v 1.2156742 0.048702326 0.13768744
v 1.1888994 0.047775347 0.46813738
v 0 0.14929797 0.28638992
v -1.2156742 0 0.13768744
v -1.1888994 0 0.46813738
v 1.2156742 0 0.13768744
v 1.2156742 0 0.13768744
v -1.1888994 0 0.46813738
v 1.1888994 0 0.46813738
v -1.1888994 0.047775347 0.46813738
v 1.1888994 0.047775347 0.46813738
v 0 0.14929797 0.61683977
v -1.1888994 0.047775347 0.46813738
v 0 0.14929797 0.61683977
v -1.1111962 0.04508515 0.7985872
v 1.1888994 0.047775347 0.46813738
v 1.1111962 0.04508515 0.7985872
v 0 0.1408911 0.61683977
v -1.1888994 0 0.46813738
v -1.1111962 0 0.7985872
v 1.1888994 0 0.46813738
v 1.1888994 0 0.46813738
v -1.1111962 0 0.7985872
v 1.1111962 0 0.7985872
v -1.1111962 0.04508515 0.7985872
v 1.1111962 0.04508515 0.7985872
v 0 0.1408911 0.9472897
v -1.1111962 0.04508515 0.7985872
v 0 0.1408911 0.9472897
v -1.2112023 0.04089506 1.1290373
v 1.1111962 0.04508515 0.7985872
v 1.2112023 0.04089506 1.1290373
v 0 0.12779707 0.9472897
v -1.1111962 0 0.7985872
v -1.2112023 0 1.1290373
v 1.1111962 0 0.7985872
v 1.1111962 0 0.7985872
v -1.2112023 0 1.1290373
v 1.2112023 0 1.1290373
v -1.2112023 0.04089506 1.1290373
v 1.2112023 0.04089506 1.1290373
v 0 0.12779707 1.2777395
v -1.2112023 0.04089506 1.1290373
v 0 0.12779707 1.2777395
v -0.94818544 0.035615254 1.4594868
v 1.2112023 0.04089506 1.1290373
v 0.94818544 0.035615254 1.4594868
v 0 0.11129767 1.2777395
v -1.2112023 0 1.1290373
v -0.94818544 0 1.4594868
v 1.2112023 0 1.1290373
v 1.2112023 0 1.1290373
v -0.94818544 0 1.4594868
v 0.94818544 0 1.4594868
v -0.94818544 0.035615254 1.4594868
v 0.94818544 0.035615254 1.4594868
v 0 0.11129767 1.6081893
v -0.94818544 0.035615254 1.4594868
v 0 0.11129767 1.6081893
v -0.6686207 0.029762529 1.7899369
v 0.94818544 0.035615254 1.4594868
v 0.6686207 0.029762529 1.7899369
v 0 0.09300791 1.6081893
v -0.94818544 0 1.4594868
v -0.6686207 0 1.7899369
v 0.94818544 0 1.4594868
v 0.94818544 0 1.4594868
v -0.6686207 0 1.7899369
v 0.6686207 0 1.7899369
v -2.05145 0.1691053 1.0464246
v 2.05145 0.1691053 1.0464246
v 0 0.2621132 -0.82612467
v -2.05145 0.1691053 1.0464246
v 0 0.2621132 -0.82612467
v -2.05145 0.1691053 -1.0464246
v 2.05145 0.1691053 1.0464246
v 2.05145 0.1691053 -1.0464246
v 0 0.2621132 -0.82612467
v -2.05145 0.15557688 1.0464246
v 2.05145 0.15557688 1.0464246
v 2.05145 0.15557688 -1.0464246
v -2.05145 0.15557688 1.0464246
v 2.05145 0.15557688 -1.0464246
v -2.05145 0.15557688 -1.0464246
v -2.05145 0.15557688 1.0464246
v -2.05145 0.1691053 1.0464246
v 2.05145 0.1691053 1.0464246
v -2.05145 0.15557688 -1.0464246
v 2.05145 0.1691053 -1.0464246
v -2.05145 0.1691053 -1.0464246
v 2.05145 0.15557688 -1.0464246
v 2.05145 0.1691053 -1.0464246
v 2.05145 0.1691053 1.0464246
v 2.05145 0.15557688 1.0464246
v 2.05145 0.1691053 1.0464246
v 2.05145 0.1691053 -1.0464246
v -1.928363 0.1691053 -1.0464246
v -1.518073 0.1691053 -1.0464246
v -1.723218 0.22829217 -0.77104974
v -1.928363 0.1691053 -1.0464246
v -1.723218 0.22829217 -0.77104974
v -1.887334 0.1691053 -0.77104974
v -1.518073 0.1691053 -1.0464246
v -1.5591019 0.1691053 -0.77104974
v -1.723218 0.22829217 -0.77104974
v -0.205145 0.1691053 -1.0464246
v 0.205145 0.1691053 -1.0464246
v 0 0.22829217 -0.77104974
v -0.205145 0.1691053 -1.0464246
v 0 0.22829217 -0.77104974
v -0.164116 0.1691053 -0.77104974
v 0.205145 0.1691053 -1.0464246
v 0.164116 0.1691053 -0.77104974
v 0 0.22829217 -0.77104974
v 1.518073 0.1691053 -1.0464246
v 1.928363 0.1691053 -1.0464246
v 1.723218 0.22829217 -0.77104974
v 1.518073 0.1691053 -1.0464246
v 1.723218 0.22829217 -0.77104974
v 1.5591019 0.1691053 -0.77104974
v 1.928363 0.1691053 -1.0464246
v 1.887334 0.1691053 -0.77104974
v 1.723218 0.22829217 -0.77104974
v -1.928363 0.1691053 0.82612467
v -1.518073 0.1691053 0.82612467
v -1.723218 0.30438954 1.1014996
v -1.928363 0.1691053 0.82612467
v -1.723218 0.30438954 1.1014996
v -1.887334 0.1691053 1.1014996
v -1.518073 0.1691053 0.82612467
v -1.5591019 0.1691053 1.1014996
v -1.723218 0.30438954 1.1014996
v -0.205145 0.1691053 0.82612467
v 0.205145 0.1691053 0.82612467
v 0 0.30438954 1.1014996
v -0.205145 0.1691053 0.82612467
v 0 0.30438954 1.1014996
v -0.164116 0.1691053 1.1014996
v 0.205145 0.1691053 0.82612467
v 0.164116 0.1691053 1.1014996
v 0 0.30438954 1.1014996
v 1.518073 0.1691053 0.82612467
v 1.928363 0.1691053 0.82612467
v 1.723218 0.30438954 1.1014996
v 1.518073 0.1691053 0.82612467
v 1.723218 0.30438954 1.1014996
v 1.5591019 0.1691053 1.1014996
v 1.928363 0.1691053 0.82612467
v 1.887334 0.1691053 1.1014996
v 1.723218 0.30438954 1.1014996
v -0.30391854 0.14108214 0.09252597
v 0.30391854 0.14108214 0.09252597
v 0 0.44088167 0.11334431
v -0.30391854 0.14108214 0.09252597
v 0 0.44088167 0.11334431
v -0.2836573 0.15879793 0.13878895
v 0.30391854 0.14108214 0.09252597
v 0.2836573 0.15879793 0.13878895
v 0 0.49624354 0.11334431
v -0.30391854 0 0.09252597
v -0.2836573 0 0.13878895
v 0.30391854 0 0.09252597
v 0.30391854 0 0.09252597
v -0.2836573 0 0.13878895
v 0.2836573 0 0.13878895
v -0.2836573 0.15879793 0.13878895
v 0.2836573 0.15879793 0.13878895
v 0 0.49624354 0.1596073
v -0.2836573 0.15879793 0.13878895
v 0 0.49624354 0.1596073
v -0.26339608 0.17651373 0.18505195
v 0.2836573 0.15879793 0.13878895
v 0.26339608 0.17651373 0.18505195
v 0 0.5516054 0.1596073
v -0.2836573 0 0.13878895
v -0.26339608 0 0.18505195
v 0.2836573 0 0.13878895
v 0.2836573 0 0.13878895
v -0.26339608 0 0.18505195
v 0.26339608 0 0.18505195
v -0.26339608 0.17651373 0.18505195
v 0.26339608 0.17651373 0.18505195
v 0 0.5516054 0.20587029
v -0.26339608 0.17651373 0.18505195
v 0 0.5516054 0.20587029
v -0.24313484 0.19422953 0.23131493
v 0.26339608 0.17651373 0.18505195
v 0.24313484 0.19422953 0.23131493
v 0 0.6069673 0.20587029
v -0.26339608 0 0.18505195
v -0.24313484 0 0.23131493
v 0.26339608 0 0.18505195
v 0.26339608 0 0.18505195
v -0.24313484 0 0.23131493
v 0.24313484 0 0.23131493
v -0.24313484 0.19422953 0.23131493
v 0.24313484 0.19422953 0.23131493
v 0 0.6069673 0.25213328
v -0.24313484 0.19422953 0.23131493
v 0 0.6069673 0.25213328
v -0.2228736 0.21194533 0.2775779
v 0.24313484 0.19422953 0.23131493
v 0.2228736 0.21194533 0.2775779
v 0 0.66232914 0.25213328
v -0.24313484 0 0.23131493
v -0.2228736 0 0.2775779
v 0.24313484 0 0.23131493
v 0.24313484 0 0.23131493
v -0.2228736 0 0.2775779
v 0.2228736 0 0.2775779
v -0.2228736 0.21194533 0.2775779
v 0.2228736 0.21194533 0.2775779
v 0 0.66232914 0.29839626
v -0.2228736 0.21194533 0.2775779
v 0 0.66232914 0.29839626
v -0.20261236 0.22966109 0.3238409
v 0.2228736 0.21194533 0.2775779
v 0.20261236 0.22966109 0.3238409
v 0 0.71769094 0.29839626
v -0.2228736 0 0.2775779
v -0.20261236 0 0.3238409
v 0.2228736 0 0.2775779
v 0.2228736 0 0.2775779
v -0.20261236 0 0.3238409
v 0.20261236 0 0.3238409
v -0.20261236 0.22966109 0.3238409
v 0.20261236 0.22966109 0.3238409
v 0 0.71769094 0.34465924
v -0.20261236 0.22966109 0.3238409
v 0 0.71769094 0.34465924
v -0.18235113 0.24737689 0.37010387
v 0.20261236 0.22966109 0.3238409
v 0.18235113 0.24737689 0.37010387
v 0 0.7730528 0.34465924
v -0.20261236 0 0.3238409
v -0.18235113 0 0.37010387
v 0.20261236 0 0.3238409
v 0.20261236 0 0.3238409
v -0.18235113 0 0.37010387
v 0.18235113 0 0.37010387
v -1.0637149 0.0483158 -1.8970271
v -1.3919468 0 -2.6191375
v -0.7354829 0 -2.6191375
v -1.0637149 0.19930267 -1.7329111
v -1.2606541 0.0483158 -1.8970271
v -0.86677563 0.0483158 -1.8970271
v 0 0.0483158 -1.8970271
v -0.328232 0 -2.6191375
v 0.328232 0 -2.6191375
v 0 0.19930267 -1.7329111
v -0.1969392 0.0483158 -1.8970271
v 0.1969392 0.0483158 -1.8970271
v 1.0637149 0.0483158 -1.8970271
v 0.7354829 0 -2.6191375
v 1.3919468 0 -2.6191375
v 1.0637149 0.19930267 -1.7329111
v 0.86677563 0.0483158 -1.8970271
v 1.2606541 0.0483158 -1.8970271
v -0.66862077 0.22950006 0.2447777
v -0.88136375 0.08455265 0.062426582
v -0.45587778 0.08455265 0.062426582
v 0 0.22950006 0.032034725
v -0.21274297 0.08455265 -0.15031639
v 0.21274297 0.08455265 -0.15031639
v 0.66862077 0.22950006 -0.18070824
v 0.45587778 0.08455265 -0.36305934
v 0.88136375 0.08455265 -0.36305934
vn 0 -0.9202266 0.39138603
vn 0 -0.9202266 0.39138603
vn 0 -0.9202266 0.39138603
vn 0.080981694 -0.9949649 0.059050117
vn 0.080981694 -0.9949649 0.059050117
vn 0.080981694 -0.9949649 0.059050117
vn -0.10509352 -0.99190086 0.07133076
vn -0.10509352 -0.99190086 0.07133076
vn -0.10509352 -0.99190086 0.07133076
vn 0 0.99999994 -0
vn 0 0.99999994 -0
vn 0 0.99999994 -0
vn 0 1 -0
vn 0 1 -0
vn 0 1 -0
vn 0 -0.89121306 0.45358494
vn 0 -0.89121306 0.45358494
vn 0 -0.89121306 0.45358494
vn 0.08050905 -0.9953408 0.053057764
vn 0.08050905 -0.9953408 0.053057764
vn 0.08050905 -0.9953408 0.053057764
vn -0.09842293 -0.9932553 0.061291613
vn -0.09842293 -0.9932553 0.061291613
vn -0.09842293 -0.9932553 0.061291613
vn 0 1 -0
vn 0 1 -0
vn 0 1 -0
vn 0 1 -0
vn 0 1 -0
vn 0 1 -0
vn 0 -0.8633771 0.50455934
vn 0 -0.8633771 0.50455934
vn 0 -0.8633771 0.50455934
vn 0.0810433 -0.9958122 0.042308513
vn 0.0810433 -0.9958122 0.042308513
vn 0.0810433 -0.9958122 0.042308513
vn -0.09340466 -0.99452674 0.046819493
vn -0.09340466 -0.99452674 0.046819493
vn -0.09340466 -0.99452674 0.046819493
vn 0 1 -0
vn 0 1 -0
vn 0 1 -0
vn 0 1 -0
vn 0 1 -0
vn 0 1 -0
vn 0 -0.8406342 0.5416034
vn 0 -0.8406342 0.5416034
vn 0 -0.8406342 0.5416034
vn 0.0822216 -0.99623615 0.027444264
vn 0.0822216 -0.99623615 0.027444264
vn 0.0822216 -0.99623615 0.027444264
vn -0.08946831 -0.9955632 0.029142804
vn -0.08946831 -0.9955632 0.029142804
vn -0.08946831 -0.9955632 0.029142804
vn 0 1 -0
vn 0 1 -0
vn 0 1 -0
vn 0 1 -0
vn 0 1 -0
vn 0 1 -0
vn 0 -0.82587916 0.5638471
vn 0 -0.82587916 0.5638471
vn 0 -0.82587916 0.5638471
vn 0.083887435 -0.99642915 0.009592183
vn 0.083887435 -0.99642915 0.009592183
vn 0.083887435 -0.99642915 0.009592183
vn -0.0862731 -0.99622345 0.009784904
vn -0.0862731 -0.99622345 0.009784904
vn -0.0862731 -0.99622345 0.009784904
vn 0 1 -0
vn 0 1 -0
vn 0 1 -0
vn 0 1 -0
vn 0 1 -0
vn 0 1 -0
vn 0 -0.82078296 0.57124025
vn 0 -0.82078296 0.57124025
vn 0 -0.82078296 0.57124025
vn 0.08600646 -0.99624676 -0.009763363
vn 0.08600646 -0.99624676 -0.009763363
vn 0.08600646 -0.99624676 -0.009763363
vn -0.083625935 -0.99645126 -0.009571053
vn -0.083625935 -0.99645126 -0.009571053
vn -0.083625935 -0.99645126 -0.009571053
vn 0 1 0
vn 0 1 0
vn 0 1 0
vn 0 0.99999994 0
vn 0 0.99999994 0
vn 0 0.99999994 0
vn 0 -0.8258792 0.5638472
vn 0 -0.8258792 0.5638472
vn 0 -0.8258792 0.5638472
vn 0.08864085 -0.9956429 -0.028948888
vn 0.08864085 -0.9956429 -0.028948888
vn 0.08864085 -0.9956429 -0.028948888
vn -0.081441335 -0.9963053 -0.027261363
vn -0.081441335 -0.9963053 -0.027261363
vn -0.081441335 -0.9963053 -0.027261363
vn 0 1 0
vn 0 1 0
vn 0 1 0
vn 0 1 0
vn 0 1 0
vn 0 1 0
vn 0 -0.84063417 0.5416033
vn 0 -0.84063417 0.5416033
vn 0 -0.84063417 0.5416033
vn 0.08418674 -0.9963673 0.012844052
vn 0.08418674 -0.9963673 0.012844052
vn 0.08418674 -0.9963673 0.012844052
vn -0.072970286 -0.99728954 0.009437856
vn -0.072970286 -0.99728954 0.009437856
vn -0.072970286 -0.99728954 0.009437856
vn 0 1 -0
vn 0 1 -0
vn 0 1 -0
vn 0 1 -0
vn 0 1 -0
vn 0 1 -0
vn 0 -0.8633767 0.5045597
vn 0 -0.8633767 0.5045597
vn 0 -0.8633767 0.5045597
vn 0.081157856 -0.9934476 -0.08046943
vn 0.081157856 -0.9934476 -0.08046943
vn 0.081157856 -0.9934476 -0.08046943
vn -0.066291444 -0.9954346 -0.06866846
vn -0.066291444 -0.9954346 -0.06866846
vn -0.066291444 -0.9954346 -0.06866846
vn 0 1 0
vn 0 1 0
vn 0 1 0
vn 0 1 0
vn 0 1 0
vn 0 1 0
vn 0 -0.8912132 0.4535846
vn 0 -0.8912132 0.4535846
vn 0 -0.8912132 0.4535846
vn 0.09435155 -0.9907658 -0.09737038
vn 0.09435155 -0.9907658 -0.09737038
vn 0.09435155 -0.9907658 -0.09737038
vn -0.07256973 -0.9942294 -0.079004034
vn -0.07256973 -0.9942294 -0.079004034
vn -0.07256973 -0.9942294 -0.079004034
vn 0 1 0
vn 0 1 0
vn 0 1 0
vn 0 1 0
vn 0 1 0
vn 0 1 0
vn -0 0.99876875 0.04960798
vn -0 0.99876875 0.04960798
vn -0 0.99876875 0.04960798
vn -0.04529112 0.9989738 0
vn -0.04529112 0.9989738 0
vn -0.04529112 0.9989738 0
vn 0.04529112 0.9989738 0
vn 0.04529112 0.9989738 0
vn 0.04529112 0.9989738 0
vn -0 1 0
vn -0 1 0
vn -0 1 0
vn 0 1 0
vn 0 1 0
vn 0 1 0
vn 0 0 -0.99999994
vn 0 0 -0.99999994
vn 0 0 -0.99999994
vn 0 0 0.99999994
vn 0 0 0.99999994
vn 0 0 0.99999994
vn 1 0 0
vn 1 0 0
vn 1 0 0
vn -1 0 0
vn -1 0 0
vn -1 0 0
vn 0 -0.9776728 0.21013314
vn 0 -0.9776728 0.21013314
vn 0 -0.9776728 0.21013314
vn 0.33882016 -0.9394959 -0.05048189
vn 0.33882016 -0.9394959 -0.05048189
vn 0.33882016 -0.9394959 -0.05048189
vn -0.33882016 -0.9394959 -0.05048189
vn -0.33882016 -0.9394959 -0.05048189
vn -0.33882016 -0.9394959 -0.05048189
vn 0 -0.9776728 0.21013314
vn 0 -0.9776728 0.21013314
vn 0 -0.9776728 0.21013314
vn 0.3388202 -0.93949586 -0.050481927
vn 0.3388202 -0.93949586 -0.050481927
vn 0.3388202 -0.93949586 -0.050481927
vn -0.3388202 -0.93949586 -0.050481927
vn -0.3388202 -0.93949586 -0.050481927
vn -0.3388202 -0.93949586 -0.050481927
vn 0 -0.9776728 0.21013314
vn 0 -0.9776728 0.21013314
vn 0 -0.9776728 0.21013314
vn 0.33882016 -0.9394959 -0.05048189
vn 0.33882016 -0.9394959 -0.05048189
vn 0.33882016 -0.9394959 -0.05048189
vn -0.33882016 -0.9394959 -0.05048189
vn -0.33882016 -0.9394959 -0.05048189
vn -0.33882016 -0.9394959 -0.05048189
vn 0 -0.89753836 0.44093633
vn 0 -0.89753836 0.44093633
vn 0 -0.89753836 0.44093633
vn 0.63323367 -0.7681885 -0.09434749
vn 0.63323367 -0.7681885 -0.09434749
vn 0.63323367 -0.7681885 -0.09434749
vn -0.63323367 -0.7681885 -0.09434749
vn -0.63323367 -0.7681885 -0.09434749
vn -0.63323367 -0.7681885 -0.09434749
vn 0 -0.89753836 0.44093633
vn 0 -0.89753836 0.44093633
vn 0 -0.89753836 0.44093633
vn 0.6332338 -0.76818854 -0.094347574
vn 0.6332338 -0.76818854 -0.094347574
vn 0.6332338 -0.76818854 -0.094347574
vn -0.6332338 -0.76818854 -0.094347574
vn -0.6332338 -0.76818854 -0.094347574
vn -0.6332338 -0.76818854 -0.094347574
vn 0 -0.89753836 0.44093633
vn 0 -0.89753836 0.44093633
vn 0 -0.89753836 0.44093633
vn 0.63323367 -0.7681885 -0.09434749
vn 0.63323367 -0.7681885 -0.09434749
vn 0.63323367 -0.7681885 -0.09434749
vn -0.63323367 -0.7681885 -0.09434749
vn -0.63323367 -0.7681885 -0.09434749
vn -0.63323367 -0.7681885 -0.09434749
vn 0 -0.06927407 0.99759763
vn 0 -0.06927407 0.99759763
vn 0 -0.06927407 0.99759763
vn 0.70305896 -0.7102228 -0.035939645
vn 0.70305896 -0.7102228 -0.035939645
vn 0.70305896 -0.7102228 -0.035939645
vn -0.7594725 -0.6448737 -0.085670926
vn -0.7594725 -0.6448737 -0.085670926
vn -0.7594725 -0.6448737 -0.085670926
vn 0 1 0
vn 0 1 0
vn 0 1 0
vn 0 1 0
vn 0 1 0
vn 0 1 0
vn 0 -0.061576873 0.99810237
vn 0 -0.061576873 0.99810237
vn 0 -0.061576873 0.99810237
vn 0.76506245 -0.6375022 -0.090941936
vn 0.76506245 -0.6375022 -0.090941936
vn 0.76506245 -0.6375022 -0.090941936
vn -0.8068498 -0.5756028 -0.13294652
vn -0.8068498 -0.5756028 -0.13294652
vn -0.8068498 -0.5756028 -0.13294652
vn 0 1 0
vn 0 1 0
vn 0 1 0
vn 0 1 0
vn 0 1 0
vn 0 1 0
vn 0 -0.055416707 0.9984633
vn 0 -0.055416707 0.9984633
vn 0 -0.055416707 0.9984633
vn 0.81390387 -0.56373537 -0.14058071
vn 0.81390387 -0.56373537 -0.14058071
vn 0.81390387 -0.56373537 -0.14058071
vn -0.8435607 -0.50771314 -0.17502214
vn -0.8435607 -0.50771314 -0.17502214
vn -0.8435607 -0.50771314 -0.17502214
vn 0 0.99999994 0
vn 0 0.99999994 0
vn 0 0.99999994 0
vn 0 0.99999994 0
vn 0 0.99999994 0
vn 0 0.99999994 0
vn 0 -0.050375625 0.99873036
vn 0 -0.050375625 0.99873036
vn 0 -0.050375625 0.99873036
vn 0.8508984 -0.49195123 -0.18427156
vn 0.8508984 -0.49195123 -0.18427156
vn 0.8508984 -0.49195123 -0.18427156
vn -0.87111056 -0.44304007 -0.2118535
vn -0.87111056 -0.44304007 -0.2118535
vn -0.87111056 -0.44304007 -0.2118535
vn 0 0.99999994 0
vn 0 0.99999994 0
vn 0 0.99999994 0
vn 0 1 0
vn 0 1 0
vn 0 1 0
vn 0 -0.046174277 0.9989334
vn 0 -0.046174277 0.9989334
vn 0 -0.046174277 0.9989334
vn 0.8779288 -0.42418092 -0.22206181
vn 0.8779288 -0.42418092 -0.22206181
vn 0.8779288 -0.42418092 -0.22206181
vn -0.89114803 -0.3826806 -0.24374323
vn -0.89114803 -0.3826806 -0.24374323
vn -0.89114803 -0.3826806 -0.24374323
vn 0 1 0
vn 0 1 0
vn 0 1 0
vn 0 1 0
vn 0 1 0
vn 0 1 0
vn 0 -0.04261919 0.9990914
vn 0 -0.04261919 0.9990914
vn 0 -0.04261919 0.9990914
vn 0.89697963 -0.36154172 -0.2543915
vn 0.89697963 -0.36154172 -0.2543915
vn 0.89697963 -0.36154172 -0.2543915
vn -0.90523005 -0.32714024 -0.27117842
vn -0.90523005 -0.32714024 -0.27117842
vn -0.90523005 -0.32714024 -0.27117842
vn 0 1 0
vn 0 1 0
vn 0 1 0
vn 0 1 0
vn 0 1 0
vn 0 1 0
vn 0 -0.99776906 0.066759884
vn 0 -0.99776906 0.066759884
vn 0 -0.99776906 0.066759884
vn 0 -0.7359307 0.67705685
vn 0 -0.7359307 0.67705685
vn 0 -0.7359307 0.67705685
vn 0 -0.9977691 0.06675989
vn 0 -0.9977691 0.06675989
vn 0 -0.9977691 0.06675989
vn 0 -0.7359307 0.6770568
vn 0 -0.7359307 0.6770568
vn 0 -0.7359307 0.6770568
vn 0 -0.99776906 0.066759884
vn 0 -0.99776906 0.066759884
vn 0 -0.99776906 0.066759884
vn 0 -0.7359307 0.67705685
vn 0 -0.7359307 0.67705685
vn 0 -0.7359307 0.67705685
vn 0 -0.7828198 0.6222485
vn 0 -0.7828198 0.6222485
vn 0 -0.7828198 0.6222485
vn 0 -0.78281975 0.6222485
vn 0 -0.78281975 0.6222485
vn 0 -0.78281975 0.6222485
vn 0 -0.78281975 0.6222485
vn 0 -0.78281975 0.6222485
vn 0 -0.78281975 0.6222485
f 1//1 2//2 3//3
f 4//4 5//5 6//6
f 7//7 8//8 9//9
f 10//10 11//11 12//12
f 13//13 14//14 15//15
f 16//16 17//17 18//18
f 19//19 20//20 21//21
f 22//22 23//23 24//24
f 25//25 26//26 27//27
f 28//28 29//29 30//30
f 31//31 32//32 33//33
f 34//34 35//35 36//36
f 37//37 38//38 39//39
f 40//40 41//41 42//42
f 43//43 44//44 45//45
f 46//46 47//47 48//48
f 49//49 50//50 51//51
f 52//52 53//53 54//54
f 55//55 56//56 57//57
f 58//58 59//59 60//60
f 61//61 62//62 63//63
f 64//64 65//65 66//66
f 67//67 68//68 69//69
f 70//70 71//71 72//72
f 73//73 74//74 75//75
f 76//76 77//77 78//78
f 79//79 80//80 81//81
f 82//82 83//83 84//84
f 85//85 86//86 87//87
f 88//88 89//89 90//90
f 91//91 92//92 93//93
f 94//94 95//95 96//96
f 97//97 98//98 99//99
f 100//100 101//101 102//102
f 103//103 104//104 105//105
f 106//106 107//107 108//108
f 109//109 110//110 111//111
f 112//112 113//113 114//114
f 115//115 116//116 117//117
f 118//118 119//119 120//120
f 121//121 122//122 123//123
f 124//124 125//125 126//126
f 127//127 128//128 129//129
f 130//130 131//131 132//132
f 133//133 134//134 135//135
f 136//136 137//137 138//138
f 139//139 140//140 141//141
f 142//142 143//143 144//144
f 145//145 146//146 147//147
f 148//148 149//149 150//150
f 151//151 152//152 153//153
f 154//154 155//155 156//156
f 157//157 158//158 159//159
f 160//160 161//161 162//162
f 163//163 164//164 165//165
f 166//166 167//167 168//168
f 169//169 170//170 171//171
f 172//172 173//173 174//174
f 175//175 176//176 177//177
f 178//178 179//179 180//180
f 181//181 182//182 183//183
f 184//184 185//185 186//186
f 187//187 188//188 189//189
f 190//190 191//191 192//192
f 193//193 194//194 195//195
f 196//196 197//197 198//198
f 199//199 200//200 201//201
f 202//202 203//203 204//204
f 205//205 206//206 207//207
f 208//208 209//209 210//210
f 211//211 212//212 213//213
f 214//214 215//215 216//216
f 217//217 218//218 219//219
f 220//220 221//221 222//222
f 223//223 224//224 225//225
f 226//226 227//227 228//228
f 229//229 230//230 231//231
f 232//232 233//233 234//234
f 235//235 236//236 237//237
f 238//238 239//239 240//240
f 241//241 242//242 243//243
f 244//244 245//245 246//246
f 247//247 248//248 249//249
f 250//250 251//251 252//252
f 253//253 254//254 255//255
f 256//256 257//257 258//258
f 259//259 260//260 261//261
f 262//262 263//263 264//264
f 265//265 266//266 267//267
f 268//268 269//269 270//270
f 271//271 272//272 273//273
f 274//274 275//275 276//276
f 277//277 278//278 279//279
f 280//280 281//281 282//282
f 283//283 284//284 285//285
f 286//286 287//287 288//288
f 289//289 290//290 291//291
f 292//292 293//293 294//294
f 295//295 296//296 297//297
f 298//298 299//299 300//300
f 301//301 302//302 303//303
f 304//304 305//305 306//306
f 307//307 308//308 309//309
f 310//310 311//311 312//312
f 313//313 314//314 315//315
f 316//316 317//317 318//318
f 319//319 320//320 321//321
f 322//322 323//323 324//324
f 325//325 326//326 327//327
f 328//328 329//329 330//330
f 331//331 332//332 333//333
f 334//334 335//335 336//336
f 337//337 338//338 339//339
f 340//340 341//341 342//342
f 343//343 344//344 345//345
f 346//346 347//347 348//348
