# Exported from SharpOpenGl procedural mesh
o freighter_bulk
# vertices 345
v -2.0079935 0.15075262 -2.8686023
v 2.0079935 0.15075262 -2.8686023
v 0 0.47110194 -2.2583723
v -2.0079935 0.15075262 -2.8686023
v 0 0.47110194 -2.2583723
v -1.6826664 0.25905392 -1.5125357
v 2.0079935 0.15075262 -2.8686023
v 4.0726643 0.25905392 -1.5125357
v 1.1949989 0.80954355 -2.2583723
v -2.0079935 0 -2.8686023
v -1.6826664 0 -1.5125357
v 2.0079935 0 -2.8686023
v 2.0079935 0 -2.8686023
v -1.6826664 0 -1.5125357
v 4.0726643 0 -1.5125357
v -1.6826664 0.25905392 -1.5125357
v 4.0726643 0.25905392 -1.5125357
v 1.1949989 0.80954355 -0.9023057
v -1.6826664 0.25905392 -1.5125357
v 1.1949989 0.80954355 -0.9023057
v -1.779086 0.32598785 -0.1564691
v 4.0726643 0.25905392 -1.5125357
v 5.051218 0.32598785 -0.1564691
v 1.6360661 1.018712 -0.9023057
v -1.6826664 0 -1.5125357
v -1.779086 0 -0.1564691
v 4.0726643 0 -1.5125357
v 4.0726643 0 -1.5125357
v -1.779086 0 -0.1564691
v 5.051218 0 -0.1564691
v -1.779086 0.32598785 -0.1564691
v 5.051218 0.32598785 -0.1564691
v 1.6360661 1.018712 0.4537608
v -1.779086 0.32598785 -0.1564691
v 1.6360661 1.018712 0.4537608
v -2.3702226 0.32598782 1.1995974
v 5.051218 0.32598785 -0.1564691
v 4.4600816 0.32598782 1.1995974
v 1.0449296 1.0187119 0.4537608
v -1.779086 0 -0.1564691
v -2.3702226 0 1.1995974
v 5.051218 0 -0.1564691
v 5.051218 0 -0.1564691
v -2.3702226 0 1.1995974
v 4.4600816 0 1.1995974
v -2.3702226 0.32598782 1.1995974
v 4.4600816 0.32598782 1.1995974
v 1.0449296 1.0187119 1.8098273
v -2.3702226 0.32598782 1.1995974
v 1.0449296 1.0187119 1.8098273
v -3.5058594 0.25905392 2.555664
v 4.4600816 0.32598782 1.1995974
v 3.094942 0.25905392 2.555664
v -0.2054587 0.8095435 1.8098273
v -2.3702226 0 1.1995974
v -3.5058594 0 2.555664
v 4.4600816 0 1.1995974
v 4.4600816 0 1.1995974
v -3.5058594 0 2.555664
v 3.094942 0 2.555664
v -3.5058594 0.25905392 2.555664
v 3.094942 0.25905392 2.555664
v -0.2054587 0.8095435 3.1658938
v -3.5058594 0.25905392 2.555664
v -0.2054587 0.8095435 3.1658938
v -3.3342154 0.1507526 3.9117303
v 3.094942 0.25905392 2.555664
v 0.6817715 0.1507526 3.9117303
v -1.326222 0.47110188 3.1658938
v -3.5058594 0 2.555664
v -3.3342154 0 3.9117303
v 3.094942 0 2.555664
v 3.094942 0 2.555664
v -3.3342154 0 3.9117303
v 0.6817715 0 3.9117303
v 2.6420965 0.19592386 -2.6078203
v 2.6420965 0.78369546 -2.6078203
v 5.2841935 0.30045834 -2.6078203
v -2.642097 0.19592384 -2.6078203
v -5.2841935 0.07511458 -2.6078203
v -2.642097 0.78369534 -2.6078203
v 1.3158746 0.19592386 2.868602
v 1.3158746 0.78369546 2.868602
v 3.9579716 0.30045834 2.868602
v -3.968319 0.19592384 2.868602
v -6.6104155 0.07511458 2.868602
v -3.968319 0.78369534 2.868602
v -0.96076244 0.1608028 0.08136398
v 0.96076244 0.1608028 0.08136398
v 0 0.50250876 0.2331892
v -0.96076244 0.1608028 0.08136398
v 0 0.50250876 0.2331892
v 0.39523208 0.22445388 0.41875333
v 0.96076244 0.1608028 0.08136398
v 1.9804901 0.22445388 0.41875333
v 1.1878611 0.7014184 0.2331892
v -0.96076244 0 0.08136398
v 0.39523208 0 0.41875333
v 0.96076244 0 0.08136398
v 0.96076244 0 0.08136398
v 0.39523208 0 0.41875333
v 1.9804901 0 0.41875333
v 0.39523208 0.22445388 0.41875333
v 1.9804901 0.22445388 0.41875333
v 1.1878611 0.7014184 0.5705785
v 0.39523208 0.22445388 0.41875333
v 1.1878611 0.7014184 0.5705785
v -1.3586345 0.288105 0.7561427
v 1.9804901 0.22445388 0.41875333
v -0.10964334 0.288105 0.7561427
v -0.7341389 0.9003282 0.5705785
v 0.39523208 0 0.41875333
v -1.3586345 0 0.7561427
v 1.9804901 0 0.41875333
v 1.9804901 0 0.41875333
v -1.3586345 0 0.7561427
v -0.10964334 0 0.7561427
v 0 0.25125438 0.41725123
v 1.4411436 0.14656505 0.41725123
v 0.44533783 0.14656505 1.0340253
v 0 0.14656505 0.41725123
v 1.4411436 0.10992379 0.41725123
v 0.44533783 0.10992379 1.0340253
v 0 0.25125438 0.41725123
v 0.44533783 0.14656505 1.0340253
v -1.1659098 0.14656505 0.7984385
v 0 0.14656505 0.41725123
v 0.44533783 0.10992379 1.0340253
v -1.1659098 0.10992379 0.7984385
v 0 0.25125438 0.41725123
v -1.1659098 0.14656505 0.7984385
v -1.1659096 0.14656505 0.03606382
v 0 0.14656505 0.41725123
v -1.1659098 0.10992379 0.7984385
v -1.1659096 0.10992379 0.03606382
v 0 0.25125438 0.41725123
v -1.1659096 0.14656505 0.03606382
v 0.44533807 0.14656505 -0.19952285
v 0 0.14656505 0.41725123
v -1.1659096 0.10992379 0.03606382
v 0.44533807 0.10992379 -0.19952285
v 0 0.25125438 0.41725123
v 0.44533807 0.14656505 -0.19952285
v 1.4411436 0.14656505 0.41725135
v 0 0.14656505 0.41725123
v 0.44533807 0.10992379 -0.19952285
v 1.4411436 0.10992379 0.41725135
v 0 0.25125438 1.043128
v 1.4411436 0.14656505 1.043128
v 0.44533783 0.14656505 1.6599021
v 0 0.14656505 1.043128
v 1.4411436 0.10992379 1.043128
v 0.44533783 0.10992379 1.6599021
v 0 0.25125438 1.043128
v 0.44533783 0.14656505 1.6599021
v -1.1659098 0.14656505 1.4243152
v 0 0.14656505 1.043128
v 0.44533783 0.10992379 1.6599021
v -1.1659098 0.10992379 1.4243152
v 0 0.25125438 1.043128
v -1.1659098 0.14656505 1.4243152
v -1.1659096 0.14656505 0.6619406
v 0 0.14656505 1.043128
v -1.1659098 0.10992379 1.4243152
v -1.1659096 0.10992379 0.6619406
v 0 0.25125438 1.043128
v -1.1659096 0.14656505 0.6619406
v 0.44533807 0.14656505 0.42635393
v 0 0.14656505 1.043128
v -1.1659096 0.10992379 0.6619406
v 0.44533807 0.10992379 0.42635393
v 0 0.25125438 1.043128
v 0.44533807 0.14656505 0.42635393
v 1.4411436 0.14656505 1.0431281
v 0 0.14656505 1.043128
v 0.44533807 0.10992379 0.42635393
v 1.4411436 0.10992379 1.0431281
v -0.3602859 0.37688157 1.7733178
v 0.3602859 0.37688157 1.7733178
v 0 0.460633 2.190569
v -2.0416203 0.3873505 1.6690049
v -1.3810961 0.27219224 1.6690049
v -2.0416203 0.27219224 1.9662408
v -2.0416203 0.27219224 1.6690049
v -1.3810961 0.23188685 1.6690049
v -2.0416203 0.23188685 1.9662408
v -2.0416203 0.3873505 1.6690049
v -2.0416203 0.27219224 1.9662408
v -2.7021444 0.27219224 1.6690049
v -2.0416203 0.27219224 1.6690049
v -2.0416203 0.23188685 1.9662408
v -2.7021444 0.23188685 1.6690049
v -2.0416203 0.3873505 1.6690049
v -2.7021444 0.27219224 1.6690049
v -2.0416203 0.27219224 1.3717691
v -2.0416203 0.27219224 1.6690049
v -2.7021444 0.23188685 1.6690049
v -2.0416203 0.23188685 1.3717691
v -2.0416203 0.3873505 1.6690049
v -2.0416203 0.27219224 1.3717691
v -1.3810961 0.27219224 1.6690049
v -2.0416203 0.27219224 1.6690049
v -2.0416203 0.23188685 1.3717691
v -1.3810961 0.23188685 1.6690049
v 2.0416203 0.3873505 1.6690049
v 2.7021444 0.27219224 1.6690049
v 2.0416203 0.27219224 1.9662408
v 2.0416203 0.27219224 1.6690049
v 2.7021444 0.23188685 1.6690049
v 2.0416203 0.23188685 1.9662408
v 2.0416203 0.3873505 1.6690049
v 2.0416203 0.27219224 1.9662408
v 1.3810961 0.27219224 1.6690049
v 2.0416203 0.27219224 1.6690049
v 2.0416203 0.23188685 1.9662408
v 1.3810961 0.23188685 1.6690049
v 2.0416203 0.3873505 1.6690049
v 1.3810961 0.27219224 1.6690049
v 2.0416203 0.27219224 1.3717691
v 2.0416203 0.27219224 1.6690049
v 1.3810961 0.23188685 1.6690049
v 2.0416203 0.23188685 1.3717691
v 2.0416203 0.3873505 1.6690049
v 2.0416203 0.27219224 1.3717691
v 2.7021444 0.27219224 1.6690049
v 2.0416203 0.27219224 1.6690049
v 2.0416203 0.23188685 1.3717691
v 2.7021444 0.23188685 1.6690049
v -4.264748 0.11964493 -3.0506577
v -6.1656075 0 -7.2325478
v -2.363889 0 -7.2325478
v 0 0.11964493 -3.0506577
v -1.9008591 0 -7.2325478
v 1.9008591 0 -7.2325478
v 4.264748 0.11964493 -3.0506577
v 2.363889 0 -7.2325478
v 6.1656075 0 -7.2325478
v -2.5822937 0.23928986 -0.19681664
v -2.3903801 0.19442302 -0.14761248
v -2.5822937 0.16451178 -0.12793082
v -2.5822937 0.31406796 1.5745331
v -2.3903801 0.2692011 1.6237372
v -2.5822937 0.22433427 1.6434189
v 2.5822937 0.23928986 -0.19681664
v 2.3903801 0.19442302 -0.14761248
v 2.5822937 0.16451178 -0.12793082
v 2.5822937 0.31406796 1.5745331
v 2.3903801 0.2692011 1.6237372
v 2.5822937 0.22433427 1.6434189
v -2.4726286 0.23928986 1.3777164
v -1.814639 0.23928986 1.3777164
v -2.1436338 0.32902357 1.6729414
v 1.814639 0.23928986 1.3777164
v 2.4726286 0.23928986 1.3777164
v 2.1436338 0.32902357 1.6729414
v -0.37865978 0.508491 1.7713498
v 0.4986598 0.508491 1.7713498
v 0.06 0.5982247 2.0665746
v -1.3756443 0.029911233 -0.29522493
v 1.4756442 0.029911233 -0.29522493
v 0.05 0.23928986 -0.23617995
v -0.60798967 0.029911233 1.1808997
v 0.7079897 0.029911233 1.1808997
v 0.05 0.2841567 1.2399447
v -1.2563144 0.20937864 -0.09840832
v -1.091817 0.38884604 -0.03936333
v -1.2563144 0.14955617 -0.029522493
v -1.2563144 0.20937864 0.78726655
v -1.091817 0.38884604 0.84631157
v -1.2563144 0.14955617 0.85615236
v 1.2563144 0.20937864 -0.09840832
v 1.091817 0.38884604 -0.03936333
v 1.2563144 0.14955617 -0.029522493
v 1.2563144 0.20937864 0.78726655
v 1.091817 0.38884604 0.84631157
v 1.2563144 0.14955617 0.85615236
v -0.60798967 0.65804714 -0.19681664
v 0.7079897 0.65804714 -0.19681664
v 0.05 0.8375146 -0.14761248
v -0.41059276 0.80760336 -0.16729414
v 0.51059276 0.80760336 -0.16729414
v 0.05 0.8973371 -0.13777165
v -0.11449742 0.74778086 1.9681664
v 0.21449742 0.74778086 1.9681664
v 0.05 0.8973371 2.0173705
v -0.06514819 0.86742586 1.9976889
v 0.1651482 0.86742586 1.9976889
v 0.05 0.9422039 2.0272114
v -0.4873998 0.53840226 0.29522493
v 0.4873998 0.53840226 0.29522493
v 0 0.65804714 0.32474744
v -0.4873998 0.55335784 0.7380624
v 0.4873998 0.55335784 0.7380624
v 0 0.6730028 0.76758486
v -0.4873998 0.5683135 1.1808997
v 0.4873998 0.5683135 1.1808997
v 0 0.6879584 1.2104223
v -0.4873998 0.5832691 1.6237371
v 0.4873998 0.5832691 1.6237371
v 0 0.702914 1.6532596
v -0.4873998 0.5982247 2.0665746
v 0.4873998 0.5982247 2.0665746
v 0 0.7178696 2.096097
v -2.3760738 0.3589348 1.4761248
v -1.7668241 0.3589348 1.4761248
v -2.071449 0.44866854 1.6729414
v -2.071449 0.26920113 1.1808997
v -1.8277491 0.32902357 1.3777164
v -2.071449 0.20937864 1.4761248
v 1.7668241 0.3589348 1.4761248
v 2.3760738 0.3589348 1.4761248
v 2.071449 0.44866854 1.6729414
v 2.071449 0.26920113 1.1808997
v 1.8277491 0.32902357 1.3777164
v 2.071449 0.20937864 1.4761248
v -0.3046249 0.5982247 1.6729414
v 0.3046249 0.5982247 1.6729414
v 0 0.6879584 1.6926231
v -0.3046249 0.5982247 1.869758
v 0.3046249 0.5982247 1.869758
v 0 0.6879584 1.8894397
v -0.32554984 0.32902357 4.4362473
v 0.40554982 0.32902357 4.4362473
v 0.04 0.65804714 4.8220077
v -0.14277491 0.5982247 4.6773477
v 0.22277492 0.5982247 4.6773477
v 0.04 0.7178696 4.8220077
v -0.4473998 1.32088 0.59044987
v 0.5273998 1.32088 0.59044987
v 0.04 1.4357392 0.78726655
v -0.40554982 0.6281359 -0.0984083
v -3.9391983 0.6281359 0.19681664
v -0.40554982 1.4357392 0.4920416
v 0.40554982 0.6281359 -0.0984083
v 3.9391983 0.6281359 0.19681664
v 0.40554982 1.4357392 0.4920416
v -3.0862486 0.508491 0.4920416
v -2.9034736 0.5683134 0.59044987
v -3.0862486 0.44866854 0.78726655
v 3.0862486 0.508491 0.4920416
v 2.9034736 0.5683134 0.59044987
v 3.0862486 0.44866854 0.78726655
v -0.69109964 0.0897337 -0.9840832
v 0.7710997 0.0897337 -0.9840832
v 0.04 0.20937864 -0.78726655
vn 0 -0.8854107 0.46480957
vn 0 -0.8854107 0.46480957
vn 0 -0.8854107 0.46480957
vn 0.144233 -0.9885494 0.044347588
vn 0.144233 -0.9885494 0.044347588
vn 0.144233 -0.9885494 0.044347588
vn -0.28607312 -0.81692094 0.5008017
vn -0.28607312 -0.81692094 0.5008017
vn -0.28607312 -0.81692094 0.5008017
vn 0 1 0
vn 0 1 0
vn 0 1 0
vn 0 1 -0
vn 0 1 -0
vn 0 1 -0
vn 0 -0.74251753 0.66982657
vn 0 -0.74251753 0.66982657
vn 0 -0.74251753 0.66982657
vn 0.1750571 -0.9826698 0.06095046
vn 0.1750571 -0.9826698 0.06095046
vn 0.1750571 -0.9826698 0.06095046
vn -0.23979446 -0.9456344 0.219714
vn -0.23979446 -0.9456344 0.219714
vn -0.23979446 -0.9456344 0.219714
vn 0 1 -0
vn 0 1 -0
vn 0 1 -0
vn 0 1 -0
vn 0 1 -0
vn 0 1 -0
vn 0 -0.66101396 0.75037354
vn 0 -0.66101396 0.75037354
vn 0 -0.66101396 0.75037354
vn 0.18433678 -0.9795728 0.080356084
vn 0.18433678 -0.9795728 0.080356084
vn 0.18433678 -0.9795728 0.080356084
vn -0.1815385 -0.98019445 -0.07913628
vn -0.1815385 -0.98019445 -0.07913628
vn -0.1815385 -0.98019445 -0.07913628
vn 0 0.99999994 -0
vn 0 0.99999994 -0
vn 0 0.99999994 -0
vn 0 0.99999994 0
vn 0 0.99999994 0
vn 0 0.99999994 0
vn 0 -0.6610141 0.7503735
vn 0 -0.6610141 0.7503735
vn 0 -0.6610141 0.7503735
vn 0.18011077 -0.97828645 0.10254649
vn 0.18011077 -0.97828645 0.10254649
vn 0.18011077 -0.97828645 0.10254649
vn -0.123892464 -0.97710735 -0.17295027
vn -0.123892464 -0.97710735 -0.17295027
vn -0.123892464 -0.97710735 -0.17295027
vn 0 0.99999994 -0
vn 0 0.99999994 -0
vn 0 0.99999994 -0
vn 0 1 0
vn 0 1 0
vn 0 1 0
vn 0 -0.74251753 0.6698267
vn 0 -0.74251753 0.6698267
vn 0 -0.74251753 0.6698267
vn 0.18184319 -0.97811306 -0.10113312
vn 0.18184319 -0.97811306 -0.10113312
vn 0.18184319 -0.97811306 -0.10113312
vn -0.07615827 -0.9740105 -0.21331517
vn -0.07615827 -0.9740105 -0.21331517
vn -0.07615827 -0.9740105 -0.21331517
vn 0 1 0
vn 0 1 0
vn 0 1 0
vn 0 1 0
vn 0 1 0
vn 0 1 0
vn 0 0 -1
vn 0 0 -1
vn 0 0 -1
vn -0 0 -0.99999994
vn -0 0 -0.99999994
vn -0 0 -0.99999994
vn 0 0 -1
vn 0 0 -1
vn 0 0 -1
vn -0 0 -0.99999994
vn -0 0 -0.99999994
vn -0 0 -0.99999994
vn 0 -0.40603998 0.9138553
vn 0 -0.40603998 0.9138553
vn 0 -0.40603998 0.9138553
vn 0.24431379 -0.2735802 -0.9303035
vn 0.24431379 -0.2735802 -0.9303035
vn 0.24431379 -0.2735802 -0.9303035
vn -0.30340013 -0.1373545 0.9429115
vn -0.30340013 -0.1373545 0.9429115
vn -0.30340013 -0.1373545 0.9429115
vn 0 1 0
vn 0 1 0
vn 0 1 0
vn 0 1 -0
vn 0 1 -0
vn 0 1 -0
vn 0 -0.30331928 0.95288897
vn 0 -0.30331928 0.95288897
vn 0 -0.30331928 0.95288897
vn 0.14458416 -0.51015437 0.8478431
vn 0.14458416 -0.51015437 0.8478431
vn 0.14458416 -0.51015437 0.8478431
vn -0.15664871 -0.429376 -0.8894366
vn -0.15664871 -0.429376 -0.8894366
vn -0.15664871 -0.429376 -0.8894366
vn 0 1 -0
vn 0 1 -0
vn 0 1 -0
vn 0 1 0
vn 0 1 0
vn 0 1 0
vn -0.07196164 -0.9906173 -0.116184875
vn -0.07196164 -0.9906173 -0.116184875
vn -0.07196164 -0.9906173 -0.116184875
vn -0.025395539 -0.9988362 -0.04100209
vn -0.025395539 -0.9988362 -0.04100209
vn -0.025395539 -0.9988362 -0.04100209
vn 0.027250603 -0.9821007 -0.18637487
vn 0.027250603 -0.9821007 -0.18637487
vn 0.027250603 -0.9821007 -0.18637487
vn 0.0096897315 -0.9977546 -0.06627093
vn 0.0096897315 -0.9977546 -0.06627093
vn 0.0096897315 -0.9977546 -0.06627093
vn 0.08943217 -0.9959929 8.348588E-09
vn 0.08943217 -0.9959929 8.348588E-09
vn 0.08943217 -0.9959929 8.348588E-09
vn 0.031411678 -0.9995065 8.378039E-09
vn 0.031411678 -0.9995065 8.378039E-09
vn 0.031411678 -0.9995065 8.378039E-09
vn 0.027250582 -0.9821008 0.18637489
vn 0.027250582 -0.9821008 0.18637489
vn 0.027250582 -0.9821008 0.18637489
vn 0.009689725 -0.99775463 0.06627093
vn 0.009689725 -0.99775463 0.06627093
vn 0.009689725 -0.99775463 0.06627093
vn -0.07196165 -0.9906173 0.11618484
vn -0.07196165 -0.9906173 0.11618484
vn -0.07196165 -0.9906173 0.11618484
vn -0.025395542 -0.9988363 0.041002076
vn -0.025395542 -0.9988363 0.041002076
vn -0.025395542 -0.9988363 0.041002076
vn -0.07196164 -0.9906173 -0.116184875
vn -0.07196164 -0.9906173 -0.116184875
vn -0.07196164 -0.9906173 -0.116184875
vn -0.025395539 -0.9988362 -0.04100209
vn -0.025395539 -0.9988362 -0.04100209
vn -0.025395539 -0.9988362 -0.04100209
vn 0.027250607 -0.98210067 -0.18637487
vn 0.027250607 -0.98210067 -0.18637487
vn 0.027250607 -0.98210067 -0.18637487
vn 0.009689734 -0.99775463 -0.06627094
vn 0.009689734 -0.99775463 -0.06627094
vn 0.009689734 -0.99775463 -0.06627094
vn 0.089432165 -0.9959929 8.348588E-09
vn 0.089432165 -0.9959929 8.348588E-09
vn 0.089432165 -0.9959929 8.348588E-09
vn 0.031411678 -0.9995065 8.378039E-09
vn 0.031411678 -0.9995065 8.378039E-09
vn 0.031411678 -0.9995065 8.378039E-09
vn 0.027250582 -0.9821008 0.18637489
vn 0.027250582 -0.9821008 0.18637489
vn 0.027250582 -0.9821008 0.18637489
vn 0.009689724 -0.99775463 0.06627093
vn 0.009689724 -0.99775463 0.06627093
vn 0.009689724 -0.99775463 0.06627093
vn -0.07196165 -0.9906173 0.11618484
vn -0.07196165 -0.9906173 0.11618484
vn -0.07196165 -0.9906173 0.11618484
vn -0.025395542 -0.9988363 0.041002076
vn -0.025395542 -0.9988363 0.041002076
vn -0.025395542 -0.9988363 0.041002076
vn 0 -0.9804443 0.19679666
vn 0 -0.9804443 0.19679666
vn 0 -0.9804443 0.19679666
vn -0.16046256 -0.9203803 -0.35658348
vn -0.16046256 -0.9203803 -0.35658348
vn -0.16046256 -0.9203803 -0.35658348
vn -0.060356688 -0.98912454 -0.13412598
vn -0.060356688 -0.98912454 -0.13412598
vn -0.060356688 -0.98912454 -0.13412598
vn 0.16046256 -0.9203803 -0.35658348
vn 0.16046256 -0.9203803 -0.35658348
vn 0.16046256 -0.9203803 -0.35658348
vn 0.060356688 -0.98912454 -0.13412598
vn 0.060356688 -0.98912454 -0.13412598
vn 0.060356688 -0.98912454 -0.13412598
vn 0.16046256 -0.9203803 0.35658348
vn 0.16046256 -0.9203803 0.35658348
vn 0.16046256 -0.9203803 0.35658348
vn 0.060356688 -0.98912454 0.13412598
vn 0.060356688 -0.98912454 0.13412598
vn 0.060356688 -0.98912454 0.13412598
vn -0.16046256 -0.9203803 0.35658348
vn -0.16046256 -0.9203803 0.35658348
vn -0.16046256 -0.9203803 0.35658348
vn -0.060356688 -0.98912454 0.13412598
vn -0.060356688 -0.98912454 0.13412598
vn -0.060356688 -0.98912454 0.13412598
vn -0.16046256 -0.9203803 -0.35658348
vn -0.16046256 -0.9203803 -0.35658348
vn -0.16046256 -0.9203803 -0.35658348
vn -0.060356688 -0.98912454 -0.13412598
vn -0.060356688 -0.98912454 -0.13412598
vn -0.060356688 -0.98912454 -0.13412598
vn 0.16046256 -0.9203803 -0.35658348
vn 0.16046256 -0.9203803 -0.35658348
vn 0.16046256 -0.9203803 -0.35658348
vn 0.060356688 -0.98912454 -0.13412598
vn 0.060356688 -0.98912454 -0.13412598
vn 0.060356688 -0.98912454 -0.13412598
vn 0.16046256 -0.9203803 0.35658348
vn 0.16046256 -0.9203803 0.35658348
vn 0.16046256 -0.9203803 0.35658348
vn 0.060356688 -0.98912454 0.13412598
vn 0.060356688 -0.98912454 0.13412598
vn 0.060356688 -0.98912454 0.13412598
vn -0.16046256 -0.9203803 0.35658348
vn -0.16046256 -0.9203803 0.35658348
vn -0.16046256 -0.9203803 0.35658348
vn -0.060356688 -0.98912454 0.13412598
vn -0.060356688 -0.98912454 0.13412598
vn -0.060356688 -0.98912454 0.13412598
vn 0 -0.99959105 0.02859855
vn 0 -0.99959105 0.02859855
vn 0 -0.99959105 0.02859855
vn 0 -0.999591 0.02859855
vn 0 -0.999591 0.02859855
vn 0 -0.999591 0.02859855
vn 0 -0.99959105 0.02859855
vn 0 -0.99959105 0.02859855
vn 0 -0.99959105 0.02859855
vn 0.030157495 -0.67722756 -0.73515534
vn 0.030157495 -0.67722756 -0.73515534
vn 0.030157495 -0.67722756 -0.73515534
vn 0.06089813 -0.60780215 -0.7917499
vn 0.06089813 -0.60780215 -0.7917499
vn 0.06089813 -0.60780215 -0.7917499
vn 0.030157495 0.67722756 0.73515534
vn 0.030157495 0.67722756 0.73515534
vn 0.030157495 0.67722756 0.73515534
vn 0.06089813 0.60780215 0.7917499
vn 0.06089813 0.60780215 0.7917499
vn 0.06089813 0.60780215 0.7917499
vn 0 -0.9567798 0.2908134
vn 0 -0.9567798 0.2908134
vn 0 -0.9567798 0.2908134
vn 0 -0.9567798 0.2908134
vn 0 -0.9567798 0.2908134
vn 0 -0.9567798 0.2908134
vn 0 -0.9567797 0.29081368
vn 0 -0.9567797 0.29081368
vn 0 -0.9567797 0.29081368
vn 0 -0.27141538 0.96246237
vn 0 -0.27141538 0.96246237
vn 0 -0.27141538 0.96246237
vn 0 -0.2262158 0.9740771
vn 0 -0.2262158 0.9740771
vn 0 -0.2262158 0.9740771
vn 0.72710127 -0.5183509 -0.4501511
vn 0.72710127 -0.5183509 -0.4501511
vn 0.72710127 -0.5183509 -0.4501511
vn 0.7271013 -0.51835084 -0.45015118
vn 0.7271013 -0.51835084 -0.45015118
vn 0.7271013 -0.51835084 -0.45015118
vn 0.72710127 0.5183509 0.4501511
vn 0.72710127 0.5183509 0.4501511
vn 0.72710127 0.5183509 0.4501511
vn 0.7271013 0.51835084 0.45015118
vn 0.7271013 0.51835084 0.45015118
vn 0.7271013 0.51835084 0.45015118
vn 0 -0.26441008 0.96441036
vn 0 -0.26441008 0.96441036
vn 0 -0.26441008 0.96441036
vn 0 -0.31252167 0.9499107
vn 0 -0.31252167 0.9499107
vn 0 -0.31252167 0.9499107
vn 0 -0.31252137 0.94991076
vn 0 -0.31252137 0.94991076
vn 0 -0.31252137 0.94991076
vn 0 -0.36721924 0.9301344
vn 0 -0.36721924 0.9301344
vn 0 -0.36721924 0.9301344
vn 0 -0.23956577 0.97088015
vn 0 -0.23956577 0.97088015
vn 0 -0.23956577 0.97088015
vn 0 -0.2395654 0.9708802
vn 0 -0.2395654 0.9708802
vn 0 -0.2395654 0.9708802
vn 0 -0.23956586 0.9708801
vn 0 -0.23956586 0.9708801
vn 0 -0.23956586 0.9708801
vn 0 -0.23956597 0.97088003
vn 0 -0.23956597 0.97088003
vn 0 -0.23956597 0.97088003
vn 0 -0.23956506 0.97088027
vn 0 -0.23956506 0.97088027
vn 0 -0.23956506 0.97088027
vn 0 -0.90989286 0.41484338
vn 0 -0.90989286 0.41484338
vn 0 -0.90989286 0.41484338
vn 0.37217247 -0.90967566 -0.18433079
vn 0.37217247 -0.90967566 -0.18433079
vn 0.37217247 -0.90967566 -0.18433079
vn 0 -0.90989286 0.41484338
vn 0 -0.90989286 0.41484338
vn 0 -0.90989286 0.41484338
vn 0.37217247 0.90967566 0.18433079
vn 0.37217247 0.90967566 0.18433079
vn 0.37217247 0.90967566 0.18433079
vn 0 -0.21424161 0.97678065
vn 0 -0.21424161 0.97678065
vn 0 -0.21424161 0.97678065
vn 0 -0.21424161 0.97678065
vn 0 -0.21424161 0.97678065
vn 0 -0.21424161 0.97678065
vn 0 -0.7608411 0.6489383
vn 0 -0.7608411 0.6489383
vn 0 -0.7608411 0.6489383
vn 0 -0.7705872 0.6373346
vn 0 -0.7705872 0.6373346
vn 0 -0.7705872 0.6373346
vn 0 -0.86368454 0.5040327
vn 0 -0.86368454 0.5040327
vn 0 -0.86368454 0.5040327
vn -0.067290984 0.5888601 -0.80542886
vn -0.067290984 0.5888601 -0.80542886
vn -0.067290984 0.5888601 -0.80542886
vn -0.067290984 -0.5888601 0.80542886
vn -0.067290984 -0.5888601 0.80542886
vn -0.067290984 -0.5888601 0.80542886
vn 0.393249 -0.901118 -0.1825966
vn 0.393249 -0.901118 -0.1825966
vn 0.393249 -0.901118 -0.1825966
vn 0.393249 0.901118 0.1825966
vn 0.393249 0.901118 0.1825966
vn 0.393249 0.901118 0.1825966
vn 0 -0.8545001 0.51945114
vn 0 -0.8545001 0.51945114
vn 0 -0.8545001 0.51945114
f 1//1 2//2 3//3
f 4//4 5//5 6//6
f 7//7 8//8 9//9
f 10//10 11//11 12//12
f 13//13 14//14 15//15
f 16//16 17//17 18//18
f 19//19 20//20 21//21
f 22//22 23//23 24//24
f 25//25 26//26 27//27
f 28//28 29//29 30//30
f 31//31 32//32 33//33
f 34//34 35//35 36//36
f 37//37 38//38 39//39
f 40//40 41//41 42//42
f 43//43 44//44 45//45
f 46//46 47//47 48//48
f 49//49 50//50 51//51
f 52//52 53//53 54//54
f 55//55 56//56 57//57
f 58//58 59//59 60//60
f 61//61 62//62 63//63
f 64//64 65//65 66//66
f 67//67 68//68 69//69
f 70//70 71//71 72//72
f 73//73 74//74 75//75
f 76//76 77//77 78//78
f 79//79 80//80 81//81
f 82//82 83//83 84//84
f 85//85 86//86 87//87
f 88//88 89//89 90//90
f 91//91 92//92 93//93
f 94//94 95//95 96//96
f 97//97 98//98 99//99
f 100//100 101//101 102//102
f 103//103 104//104 105//105
f 106//106 107//107 108//108
f 109//109 110//110 111//111
f 112//112 113//113 114//114
f 115//115 116//116 117//117
f 118//118 119//119 120//120
f 121//121 122//122 123//123
f 124//124 125//125 126//126
f 127//127 128//128 129//129
f 130//130 131//131 132//132
f 133//133 134//134 135//135
f 136//136 137//137 138//138
f 139//139 140//140 141//141
f 142//142 143//143 144//144
f 145//145 146//146 147//147
f 148//148 149//149 150//150
f 151//151 152//152 153//153
f 154//154 155//155 156//156
f 157//157 158//158 159//159
f 160//160 161//161 162//162
f 163//163 164//164 165//165
f 166//166 167//167 168//168
f 169//169 170//170 171//171
f 172//172 173//173 174//174
f 175//175 176//176 177//177
f 178//178 179//179 180//180
f 181//181 182//182 183//183
f 184//184 185//185 186//186
f 187//187 188//188 189//189
f 190//190 191//191 192//192
f 193//193 194//194 195//195
f 196//196 197//197 198//198
f 199//199 200//200 201//201
f 202//202 203//203 204//204
f 205//205 206//206 207//207
f 208//208 209//209 210//210
f 211//211 212//212 213//213
f 214//214 215//215 216//216
f 217//217 218//218 219//219
f 220//220 221//221 222//222
f 223//223 224//224 225//225
f 226//226 227//227 228//228
f 229//229 230//230 231//231
f 232//232 233//233 234//234
f 235//235 236//236 237//237
f 238//238 239//239 240//240
f 241//241 242//242 243//243
f 244//244 245//245 246//246
f 247//247 248//248 249//249
f 250//250 251//251 252//252
f 253//253 254//254 255//255
f 256//256 257//257 258//258
f 259//259 260//260 261//261
f 262//262 263//263 264//264
f 265//265 266//266 267//267
f 268//268 269//269 270//270
f 271//271 272//272 273//273
f 274//274 275//275 276//276
f 277//277 278//278 279//279
f 280//280 281//281 282//282
f 283//283 284//284 285//285
f 286//286 287//287 288//288
f 289//289 290//290 291//291
f 292//292 293//293 294//294
f 295//295 296//296 297//297
f 298//298 299//299 300//300
f 301//301 302//302 303//303
f 304//304 305//305 306//306
f 307//307 308//308 309//309
f 310//310 311//311 312//312
f 313//313 314//314 315//315
f 316//316 317//317 318//318
f 319//319 320//320 321//321
f 322//322 323//323 324//324
f 325//325 326//326 327//327
f 328//328 329//329 330//330
f 331//331 332//332 333//333
f 334//334 335//335 336//336
f 337//337 338//338 339//339
f 340//340 341//341 342//342
f 343//343 344//344 345//345
