# Exported from SharpOpenGl procedural mesh
o miner_basic
# vertices 351
v -0.61141837 0.064484514 -0.943436
v 0.61141837 0.064484514 -0.943436
v 0 0.20151411 -0.74274147
v -0.61141837 0.064484514 -0.943436
v 0 0.20151411 -0.74274147
v -0.52817917 0.11081046 -0.4974481
v 0.61141837 0.064484514 -0.943436
v 1.2242742 0.11081046 -0.4974481
v 0.34804747 0.3462827 -0.74274147
v -0.61141837 0 -0.943436
v -0.52817917 0 -0.4974481
v 0.61141837 0 -0.943436
v 0.61141837 0 -0.943436
v -0.52817917 0 -0.4974481
v 1.2242742 0 -0.4974481
v -0.52817917 0.11081046 -0.4974481
v 1.2242742 0.11081046 -0.4974481
v 0.34804747 0.3462827 -0.29675353
v -0.52817917 0.11081046 -0.4974481
v 0.34804747 0.3462827 -0.29675353
v -0.56337726 0.13944148 -0.051460147
v 1.2242742 0.11081046 -0.4974481
v 1.5163969 0.13944148 -0.051460147
v 0.47650978 0.4357546 -0.29675353
v -0.52817917 0 -0.4974481
v -0.56337726 0 -0.051460147
v 1.2242742 0 -0.4974481
v 1.2242742 0 -0.4974481
v -0.56337726 0 -0.051460147
v 1.5163969 0 -0.051460147
v -0.56337726 0.13944148 -0.051460147
v 1.5163969 0.13944148 -0.051460147
v 0.47650978 0.4357546 0.14923441
v -0.56337726 0.13944148 -0.051460147
v 0.47650978 0.4357546 0.14923441
v -0.7355478 0.13944146 0.3945278
v 1.5163969 0.13944148 -0.051460147
v 1.3442264 0.13944146 0.3945278
v 0.3043393 0.43575457 0.14923441
v -0.56337726 0 -0.051460147
v -0.7355478 0 0.3945278
v 1.5163969 0 -0.051460147
v 1.5163969 0 -0.051460147
v -0.7355478 0 0.3945278
v 1.3442264 0 0.3945278
v -0.7355478 0.13944146 0.3945278
v 1.3442264 0.13944146 0.3945278
v 0.3043393 0.43575457 0.59522235
v -0.7355478 0.13944146 0.3945278
v 0.3043393 0.43575457 0.59522235
v -1.0647868 0.11081045 0.84051573
v 1.3442264 0.13944146 0.3945278
v 0.9451057 0.11081045 0.84051573
v -0.059840545 0.34628266 0.59522235
v -0.7355478 0 0.3945278
v -1.0647868 0 0.84051573
v 1.3442264 0 0.3945278
v 1.3442264 0 0.3945278
v -1.0647868 0 0.84051573
v 0.9451057 0 0.84051573
v -1.0647868 0.11081045 0.84051573
v 0.9451057 0.11081045 0.84051573
v -0.059840545 0.34628266 1.0412103
v -1.0647868 0.11081045 0.84051573
v -0.059840545 0.34628266 1.0412103
v -0.99768496 0.06448451 1.2865037
v 0.9451057 0.11081045 0.84051573
v 0.22515166 0.06448451 1.2865037
v -0.38626665 0.20151408 1.0412103
v -1.0647868 0 0.84051573
v -0.99768496 0 1.2865037
v 0.9451057 0 0.84051573
v 0.9451057 0 0.84051573
v -0.99768496 0 1.2865037
v 0.22515166 0 1.2865037
v 0.76951957 0.08380653 -0.8576691
v 0.76951957 0.33522612 -0.8576691
v 1.5390393 0.12852122 -0.8576691
v -0.76951975 0.08380652 -0.8576691
v -1.5390393 0.032130297 -0.8576691
v -0.76951975 0.3352261 -0.8576691
v 1.1949323 0.08380653 0.042883456
v 1.1949323 0.33522612 0.042883456
v 1.964452 0.12852122 0.042883456
v -0.34410694 0.08380652 0.042883456
v -1.1136265 0.032130297 0.042883456
v -0.34410694 0.3352261 0.042883456
v 0.38325292 0.08380653 0.943436
v 0.38325292 0.33522612 0.943436
v 1.1527727 0.12852122 0.943436
v -1.1557864 0.08380652 0.943436
v -1.9253058 0.032130297 0.943436
v -1.1557864 0.3352261 0.943436
v -0.27982533 0.06878348 0.026759274
v 0.27982533 0.06878348 0.026759274
v 0 0.21494837 0.0684636
v -0.27982533 0.06878348 0.026759274
v 0 0.21494837 0.0684636
v 0.11511271 0.096010275 0.119435556
v 0.27982533 0.06878348 0.026759274
v 0.5768245 0.096010275 0.119435556
v 0.3459686 0.3000321 0.0684636
v -0.27982533 0 0.026759274
v 0.11511271 0 0.119435556
v 0.27982533 0 0.026759274
v 0.27982533 0 0.026759274
v 0.11511271 0 0.119435556
v 0.5768245 0 0.119435556
v 0.11511271 0.096010275 0.119435556
v 0.5768245 0.096010275 0.119435556
v 0.3459686 0.3000321 0.16113988
v 0.11511271 0.096010275 0.119435556
v 0.3459686 0.3000321 0.16113988
v -0.39570695 0.12323707 0.21211183
v 0.5768245 0.096010275 0.119435556
v -0.031934008 0.12323707 0.21211183
v -0.21382047 0.38511586 0.16113988
v 0.11511271 0 0.119435556
v -0.39570695 0 0.21211183
v 0.5768245 0 0.119435556
v 0.5768245 0 0.119435556
v -0.39570695 0 0.21211183
v -0.031934008 0 0.21211183
v -0.10493449 0.11643037 0.8576691
v 0.10493449 0.11643037 0.8576691
v 0 0.1612113 0.9605894
v -0.5246725 0.062693276 0.13722706
v -1.2242358 0.08956183 0.9262827
v -0.5246725 0.03582473 0.89197594
v -1.2242358 0.08956183 0.9262827
v -1.3116812 0.11643037 0.96058947
v -1.2242358 0.053737093 0.97774285
v -1.2242358 0.16121128 0.9262827
v -1.0318558 0.09851801 0.9262827
v -1.2242358 0.09851801 1.0128536
v -1.2242358 0.09851801 0.9262827
v -1.0318558 0.07657536 0.9262827
v -1.2242358 0.07657536 1.0128536
v -1.2242358 0.16121128 0.9262827
v -1.2242358 0.09851801 1.0128536
v -1.4166157 0.09851801 0.9262827
v -1.2242358 0.09851801 0.9262827
v -1.2242358 0.07657536 1.0128536
v -1.4166157 0.07657536 0.9262827
v -1.2242358 0.16121128 0.9262827
v -1.4166157 0.09851801 0.9262827
v -1.2242358 0.09851801 0.8397117
v -1.2242358 0.09851801 0.9262827
v -1.4166157 0.07657536 0.9262827
v -1.2242358 0.07657536 0.8397117
v -1.2242358 0.16121128 0.9262827
v -1.2242358 0.09851801 0.8397117
v -1.0318558 0.09851801 0.9262827
v -1.2242358 0.09851801 0.9262827
v -1.2242358 0.07657536 0.8397117
v -1.0318558 0.07657536 0.9262827
v 0.5246725 0.062693276 0.13722706
v 1.2242358 0.08956183 0.9262827
v 0.5246725 0.03582473 0.89197594
v 1.2242358 0.08956183 0.9262827
v 1.3116812 0.11643037 0.96058947
v 1.2242358 0.053737093 0.97774285
v 1.2242358 0.16121128 0.9262827
v 1.4166157 0.09851801 0.9262827
v 1.2242358 0.09851801 1.0128536
v 1.2242358 0.09851801 0.9262827
v 1.4166157 0.07657536 0.9262827
v 1.2242358 0.07657536 1.0128536
v 1.2242358 0.16121128 0.9262827
v 1.2242358 0.09851801 1.0128536
v 1.0318558 0.09851801 0.9262827
v 1.2242358 0.09851801 0.9262827
v 1.2242358 0.07657536 1.0128536
v 1.0318558 0.07657536 0.9262827
v 1.2242358 0.16121128 0.9262827
v 1.0318558 0.09851801 0.9262827
v 1.2242358 0.09851801 0.8397117
v 1.2242358 0.09851801 0.9262827
v 1.0318558 0.07657536 0.9262827
v 1.2242358 0.07657536 0.8397117
v 1.2242358 0.16121128 0.9262827
v 1.2242358 0.09851801 0.8397117
v 1.4166157 0.09851801 0.9262827
v 1.2242358 0.09851801 0.9262827
v 1.2242358 0.07657536 0.8397117
v 1.4166157 0.07657536 0.9262827
v -1.188117 0.051178187 -1.0226055
v -1.554736 0 -1.8291672
v -0.82149804 0 -1.8291672
v 0 0.051178187 -1.0226055
v -0.36661896 0 -1.8291672
v 0.36661896 0 -1.8291672
v 1.188117 0.051178187 -1.0226055
v 0.82149804 0 -1.8291672
v 1.554736 0 -1.8291672
v -0.93988556 0.102356374 -0.06597455
v -0.88285595 0.08316455 -0.04948091
v -0.93988556 0.07037001 -0.042883456
v -0.93988556 0.1130185 0.054978795
v -0.88285595 0.093826674 0.071472436
v -0.93988556 0.07889971 0.07806989
v -0.93988556 0.12368062 0.17593214
v -0.88285595 0.1044888 0.19242577
v -0.93988556 0.087429404 0.19902323
v -0.93988556 0.13434274 0.2968855
v -0.88285595 0.11515092 0.31337914
v -0.93988556 0.095959105 0.31997657
v 0.93988556 0.102356374 -0.06597455
v 0.88285595 0.08316455 -0.04948091
v 0.93988556 0.07037001 -0.042883456
v 0.93988556 0.1130185 0.054978795
v 0.88285595 0.093826674 0.071472436
v 0.93988556 0.07889971 0.07806989
v 0.93988556 0.12368062 0.17593214
v 0.88285595 0.1044888 0.19242577
v 0.93988556 0.087429404 0.19902323
v 0.93988556 0.13434274 0.2968855
v 0.88285595 0.11515092 0.31337914
v 0.93988556 0.095959105 0.31997657
v -1.1405923 0.12794547 0.72572005
v -1.2057691 0.1663291 0.8246819
v -1.1405923 0.08956183 0.8576691
v -1.0917099 0.03838364 0.1319491
v -1.1894748 0.03838364 0.1319491
v -1.1405923 0.07676728 0.19792365
v 1.1405923 0.12794547 0.72572005
v 1.2057691 0.1663291 0.8246819
v 1.1405923 0.08956183 0.8576691
v 1.0917099 0.03838364 0.1319491
v 1.1894748 0.03838364 0.1319491
v 1.1405923 0.07676728 0.19792365
v -0.2932952 0.025589094 -0.1319491
v 0.2932952 0.025589094 -0.1319491
v 0 0.063972734 -0.06597455
v -0.30847186 0.012794547 -0.09896182
v 0.40847188 0.012794547 -0.09896182
v 0.05 0.102356374 -0.07916946
v -0.21070682 0.012794547 0.09896184
v 0.31070682 0.012794547 0.09896184
v 0.05 0.11195228 0.1187542
v -0.11294177 0.012794547 0.2968855
v 0.21294177 0.012794547 0.2968855
v 0.05 0.1215482 0.31667787
v -0.37588355 0.08956183 -0.032987274
v -0.32700104 0.1663291 -0.013194909
v -0.37588355 0.063972734 -0.0098961815
v -0.37588355 0.08956183 0.23091093
v -0.32700104 0.1663291 0.2507033
v -0.37588355 0.063972734 0.25400203
v 0.37588355 0.08956183 -0.032987274
v 0.32700104 0.1663291 -0.013194909
v 0.37588355 0.063972734 -0.0098961815
v 0.37588355 0.08956183 0.23091093
v 0.32700104 0.1663291 0.2507033
v 0.37588355 0.063972734 0.25400203
v -0.14553012 0.28148004 -0.06597455
v 0.24553011 0.28148004 -0.06597455
v 0.05 0.3582473 -0.04948091
v -0.08687109 0.3454528 -0.056078367
v 0.18687108 0.3454528 -0.056078367
v 0.05 0.38383642 -0.046182185
v -0.07220633 0.30067185 0.19792365
v 0.17220633 0.30067185 0.19792365
v 0.05 0.37104186 0.21441728
v -0.03554443 0.3582473 0.20781983
v 0.13554443 0.3582473 0.20781983
v 0.05 0.39343232 0.21771601
v 0.0011174679 0.31986368 0.46182185
v 0.09888253 0.31986368 0.46182185
v 0.05 0.38383642 0.4783155
v 0.01578223 0.3710419 0.47171804
v 0.08421777 0.3710419 0.47171804
v 0.05 0.40302822 0.48161423
v -0.19553012 0 -0.1319491
v 0.19553012 0 -0.1319491
v 0 0.03838364 -0.19792365
v -0.0848655 0.30706912 0.032987274
v 0.0848655 0.30706912 0.032987274
v 0 0.3582473 0.04123409
v -0.0848655 0.31474584 0.13854656
v 0.0848655 0.31474584 0.13854656
v 0 0.36592406 0.14679338
v -0.0848655 0.3224226 0.24410585
v 0.0848655 0.3224226 0.24410585
v 0 0.37360078 0.25235265
v -0.0848655 0.33009928 0.3496651
v 0.0848655 0.33009928 0.3496651
v 0 0.3812775 0.3579119
v -0.0848655 0.33777604 0.4552244
v 0.0848655 0.33777604 0.4552244
v 0 0.38895422 0.4634712
v -0.0848655 0.34545276 0.5607837
v 0.0848655 0.34545276 0.5607837
v 0 0.39663097 0.5690305
v -1.2220633 0.12794547 0.9401373
v -1.2899557 0.1663291 0.9731246
v -1.2220633 0.08956183 0.95663095
v -1.2220633 0.14074002 0.8741628
v -1.2899557 0.17912365 0.9071501
v -1.2220633 0.102356374 0.8906564
v -1.2220633 0.15353458 0.8081882
v -1.2899557 0.1919182 0.8411755
v -1.2220633 0.11515093 0.8246818
v -1.2220633 0.1663291 0.74221367
v -1.2899557 0.20471275 0.77520096
v -1.2220633 0.12794547 0.7587073
v 1.2220633 0.12794547 0.9401373
v 1.2899557 0.1663291 0.9731246
v 1.2220633 0.08956183 0.95663095
v 1.2220633 0.14074002 0.8741628
v 1.2899557 0.17912365 0.9071501
v 1.2220633 0.102356374 0.8906564
v 1.2220633 0.15353458 0.8081882
v 1.2899557 0.1919182 0.8411755
v 1.2220633 0.11515093 0.8246818
v 1.2220633 0.1663291 0.74221367
v 1.2899557 0.20471275 0.77520096
v 1.2220633 0.12794547 0.7587073
v -0.0678924 0.3454528 0.06597455
v 0.0678924 0.3454528 0.06597455
v 0 0.38383642 0.074221365
v -0.0678924 0.3454528 0.14844275
v 0.0678924 0.3454528 0.14844275
v 0 0.38383642 0.15668957
v -0.0678924 0.3454528 0.23091093
v 0.0678924 0.3454528 0.23091093
v 0 0.38383642 0.23915775
v -0.061838605 0.14074002 1.4870664
v 0.14183861 0.14074002 1.4870664
v 0.04 0.28148004 1.6163765
v -0.010919303 0.25589094 1.5678853
v 0.0909193 0.25589094 1.5678853
v 0.04 0.30706912 1.6163765
v -0.095784806 0.5650072 0.19792365
v 0.1757848 0.5650072 0.19792365
v 0.04 0.61413825 0.2638982
v -0.14183861 0.2686855 -0.032987274
v -1.1262784 0.2686855 0.06597455
v -0.14183861 0.61413825 0.16493636
v 0.14183861 0.2686855 -0.032987274
v 1.1262784 0.2686855 0.06597455
v 0.14183861 0.61413825 0.16493636
v -1.0923322 0.2175073 0.16493638
v -1.041413 0.2430964 0.19792365
v -1.0923322 0.19191821 0.2638982
v 1.0923322 0.2175073 0.16493638
v 1.041413 0.2430964 0.19792365
v 1.0923322 0.19191821 0.2638982
v -0.16367722 0.03838364 -0.2638982
v 0.2436772 0.03838364 -0.2638982
v 0.04 0.08956183 -0.19792365
vn 0 -0.8258588 0.56387717
vn 0 -0.8258588 0.56387717
vn 0 -0.8258588 0.56387717
vn 0.19798423 -0.9780713 0.06464307
vn 0.19798423 -0.9780713 0.06464307
vn 0.19798423 -0.9780713 0.06464307
vn -0.35821798 -0.7401197 0.5691245
vn -0.35821798 -0.7401197 0.5691245
vn -0.35821798 -0.7401197 0.5691245
vn 0 1 0
vn 0 1 0
vn 0 1 0
vn 0 1 -0
vn 0 1 -0
vn 0 1 -0
vn 0 -0.648667 0.7610723
vn 0 -0.648667 0.7610723
vn 0 -0.648667 0.7610723
vn 0.24129932 -0.96705395 0.08112554
vn 0.24129932 -0.96705395 0.08112554
vn 0.24129932 -0.96705395 0.08112554
vn -0.3221316 -0.90759546 0.26926142
vn -0.3221316 -0.90759546 0.26926142
vn -0.3221316 -0.90759546 0.26926142
vn 0 1 -0
vn 0 1 -0
vn 0 1 -0
vn 0 0.99999994 -0
vn 0 0.99999994 -0
vn 0 0.99999994 -0
vn 0 -0.5607836 0.8279624
vn 0 -0.5607836 0.8279624
vn 0 -0.5607836 0.8279624
vn 0.2550835 -0.9618916 0.09847318
vn 0.2550835 -0.9618916 0.09847318
vn 0.2550835 -0.9618916 0.09847318
vn -0.251496 -0.96297646 -0.097088315
vn -0.251496 -0.96297646 -0.097088315
vn -0.251496 -0.96297646 -0.097088315
vn 0 1 -0
vn 0 1 -0
vn 0 1 -0
vn 0 1 0
vn 0 1 0
vn 0 1 0
vn 0 -0.5607836 0.8279624
vn 0 -0.5607836 0.8279624
vn 0 -0.5607836 0.8279624
vn 0.24995846 -0.960429 0.12286886
vn 0.24995846 -0.960429 0.12286886
vn 0.24995846 -0.960429 0.12286886
vn -0.1724544 -0.9610368 -0.2160273
vn -0.1724544 -0.9610368 -0.2160273
vn -0.1724544 -0.9610368 -0.2160273
vn 0 1 -0
vn 0 1 -0
vn 0 1 -0
vn 0 1 0
vn 0 1 0
vn 0 1 0
vn 0 -0.6486671 0.7610723
vn 0 -0.6486671 0.7610723
vn 0 -0.6486671 0.7610723
vn 0.25190073 -0.9579488 -0.1374048
vn 0.25190073 -0.9579488 -0.1374048
vn 0.25190073 -0.9579488 -0.1374048
vn -0.10595779 -0.95688796 -0.27044111
vn -0.10595779 -0.95688796 -0.27044111
vn -0.10595779 -0.95688796 -0.27044111
vn 0 1 0
vn 0 1 0
vn 0 1 0
vn 0 1 0
vn 0 1 0
vn 0 1 0
vn 0 0 -1
vn 0 0 -1
vn 0 0 -1
vn -0 0 -0.99999994
vn -0 0 -0.99999994
vn -0 0 -0.99999994
vn 0 0 -1
vn 0 0 -1
vn 0 0 -1
vn -0 0 -1
vn -0 0 -1
vn -0 0 -1
vn 0 0 -0.99999994
vn 0 0 -0.99999994
vn 0 0 -0.99999994
vn -0 0 -1
vn -0 0 -1
vn -0 0 -1
vn 0 -0.27437398 0.9616231
vn 0 -0.27437398 0.9616231
vn 0 -0.27437398 0.9616231
vn 0.23647471 -0.18030253 -0.95476204
vn 0.23647471 -0.18030253 -0.95476204
vn 0.23647471 -0.18030253 -0.95476204
vn -0.2892334 -0.08915706 0.9530976
vn -0.2892334 -0.08915706 0.9530976
vn -0.2892334 -0.08915706 0.9530976
vn 0 1 0
vn 0 1 0
vn 0 1 0
vn 0 1 -0
vn 0 1 -0
vn 0 1 -0
vn 0 -0.20026983 0.97974074
vn 0 -0.20026983 0.97974074
vn 0 -0.20026983 0.97974074
vn 0.1483615 -0.35643682 0.9224649
vn 0.1483615 -0.35643682 0.9224649
vn 0.1483615 -0.35643682 0.9224649
vn -0.15669458 -0.29244584 -0.9433568
vn -0.15669458 -0.29244584 -0.9433568
vn -0.15669458 -0.29244584 -0.9433568
vn 0 0.99999994 -0
vn 0 0.99999994 -0
vn 0 0.99999994 -0
vn 0 1 0
vn 0 1 0
vn 0 1 0
vn 0 -0.91696256 0.3989731
vn 0 -0.91696256 0.3989731
vn 0 -0.91696256 0.3989731
vn 0.07827041 0.99630105 0.03546764
vn 0.07827041 0.99630105 0.03546764
vn 0.07827041 0.99630105 0.03546764
vn 0.43003184 0.7409464 0.51582074
vn 0.43003184 0.7409464 0.51582074
vn 0.43003184 0.7409464 0.51582074
vn -0.2552007 -0.78310627 -0.5671131
vn -0.2552007 -0.78310627 -0.5671131
vn -0.2552007 -0.78310627 -0.5671131
vn -0.10989305 -0.9634763 -0.24420694
vn -0.10989305 -0.9634763 -0.24420694
vn -0.10989305 -0.9634763 -0.24420694
vn 0.2552007 -0.78310627 -0.5671131
vn 0.2552007 -0.78310627 -0.5671131
vn 0.2552007 -0.78310627 -0.5671131
vn 0.10989305 -0.9634763 -0.24420694
vn 0.10989305 -0.9634763 -0.24420694
vn 0.10989305 -0.9634763 -0.24420694
vn 0.25520074 -0.78310645 0.56711274
vn 0.25520074 -0.78310645 0.56711274
vn 0.25520074 -0.78310645 0.56711274
vn 0.10989304 -0.9634763 0.24420674
vn 0.10989304 -0.9634763 0.24420674
vn 0.10989304 -0.9634763 0.24420674
vn -0.25520074 -0.78310645 0.56711274
vn -0.25520074 -0.78310645 0.56711274
vn -0.25520074 -0.78310645 0.56711274
vn -0.10989304 -0.9634763 0.24420674
vn -0.10989304 -0.9634763 0.24420674
vn -0.10989304 -0.9634763 0.24420674
vn 0.07827041 -0.99630105 -0.03546764
vn 0.07827041 -0.99630105 -0.03546764
vn 0.07827041 -0.99630105 -0.03546764
vn 0.43003184 -0.7409464 -0.51582074
vn 0.43003184 -0.7409464 -0.51582074
vn 0.43003184 -0.7409464 -0.51582074
vn -0.2552007 -0.78310627 -0.5671131
vn -0.2552007 -0.78310627 -0.5671131
vn -0.2552007 -0.78310627 -0.5671131
vn -0.10989305 -0.9634763 -0.24420694
vn -0.10989305 -0.9634763 -0.24420694
vn -0.10989305 -0.9634763 -0.24420694
vn 0.2552007 -0.78310627 -0.5671131
vn 0.2552007 -0.78310627 -0.5671131
vn 0.2552007 -0.78310627 -0.5671131
vn 0.10989305 -0.9634763 -0.24420694
vn 0.10989305 -0.9634763 -0.24420694
vn 0.10989305 -0.9634763 -0.24420694
vn 0.25520074 -0.78310645 0.56711274
vn 0.25520074 -0.78310645 0.56711274
vn 0.25520074 -0.78310645 0.56711274
vn 0.10989304 -0.9634763 0.24420674
vn 0.10989304 -0.9634763 0.24420674
vn 0.10989304 -0.9634763 0.24420674
vn -0.25520074 -0.78310645 0.56711274
vn -0.25520074 -0.78310645 0.56711274
vn -0.25520074 -0.78310645 0.56711274
vn -0.10989304 -0.9634763 0.24420674
vn -0.10989304 -0.9634763 0.24420674
vn -0.10989304 -0.9634763 0.24420674
vn 0 -0.997993 0.063324936
vn 0 -0.997993 0.063324936
vn 0 -0.997993 0.063324936
vn 0 -0.99799293 0.063324936
vn 0 -0.99799293 0.063324936
vn 0 -0.99799293 0.063324936
vn 0 -0.997993 0.063324936
vn 0 -0.997993 0.063324936
vn 0 -0.997993 0.063324936
vn 0.037492506 -0.5849096 -0.8102315
vn 0.037492506 -0.5849096 -0.8102315
vn 0.037492506 -0.5849096 -0.8102315
vn 0.050830986 -0.55976355 -0.8270918
vn 0.050830986 -0.55976355 -0.8270918
vn 0.050830986 -0.55976355 -0.8270918
vn 0.06300912 -0.5361745 -0.84175223
vn 0.06300912 -0.5361745 -0.84175223
vn 0.06300912 -0.5361745 -0.84175223
vn 0.07414265 -0.5140761 -0.85453415
vn 0.07414265 -0.5140761 -0.85453415
vn 0.07414265 -0.5140761 -0.85453415
vn 0.037492506 0.5849096 0.8102315
vn 0.037492506 0.5849096 0.8102315
vn 0.037492506 0.5849096 0.8102315
vn 0.050830986 0.55976355 0.8270918
vn 0.050830986 0.55976355 0.8270918
vn 0.050830986 0.55976355 0.8270918
vn 0.06300912 0.5361745 0.84175223
vn 0.06300912 0.5361745 0.84175223
vn 0.06300912 0.5361745 0.84175223
vn 0.07414265 0.5140761 0.85453415
vn 0.07414265 0.5140761 0.85453415
vn 0.07414265 0.5140761 0.85453415
vn 0.7033952 0.682508 0.19853981
vn 0.7033952 0.682508 0.19853981
vn 0.7033952 0.682508 0.19853981
vn 0 0.8643572 -0.50287837
vn 0 0.8643572 -0.50287837
vn 0 0.8643572 -0.50287837
vn 0.7033952 -0.682508 -0.19853981
vn 0.7033952 -0.682508 -0.19853981
vn 0.7033952 -0.682508 -0.19853981
vn 0 -0.8643572 0.50287837
vn 0 -0.8643572 0.50287837
vn 0 -0.8643572 0.50287837
vn 0 -0.8643572 0.5028784
vn 0 -0.8643572 0.5028784
vn 0 -0.8643572 0.5028784
vn 0 -0.2157847 0.9764409
vn 0 -0.2157847 0.9764409
vn 0 -0.2157847 0.9764409
vn 0 -0.1957435 0.9806551
vn 0 -0.1957435 0.9806551
vn 0 -0.1957435 0.9806551
vn 0 -0.17905168 0.98383963
vn 0 -0.17905168 0.98383963
vn 0 -0.17905168 0.98383963
vn 0.8041267 -0.39825147 -0.44133446
vn 0.8041267 -0.39825147 -0.44133446
vn 0.8041267 -0.39825147 -0.44133446
vn 0.80412674 -0.39825156 -0.44133425
vn 0.80412674 -0.39825156 -0.44133425
vn 0.80412674 -0.39825156 -0.44133425
vn 0.8041267 0.39825147 0.44133446
vn 0.8041267 0.39825147 0.44133446
vn 0.8041267 0.39825147 0.44133446
vn 0.80412674 0.39825156 0.44133425
vn 0.80412674 0.39825156 0.44133425
vn 0.80412674 0.39825156 0.44133425
vn 0 -0.21005885 0.9776887
vn 0 -0.21005885 0.9776887
vn 0 -0.21005885 0.9776887
vn 0 -0.24965872 0.9683339
vn 0 -0.24965872 0.9683339
vn 0 -0.24965872 0.9683339
vn 0 -0.22819999 0.9736142
vn 0 -0.22819999 0.9736142
vn 0 -0.22819999 0.9736142
vn 0 -0.27075544 0.9626481
vn 0 -0.27075544 0.9626481
vn 0 -0.27075544 0.9626481
vn 0 -0.24965881 0.96833384
vn 0 -0.24965881 0.96833384
vn 0 -0.24965881 0.96833384
vn 0 -0.29556546 0.95532256
vn 0 -0.29556546 0.95532256
vn 0 -0.29556546 0.95532256
vn -0 0.8643572 0.50287837
vn -0 0.8643572 0.50287837
vn -0 0.8643572 0.50287837
vn 0 -0.1590871 0.9872645
vn 0 -0.1590871 0.9872645
vn 0 -0.1590871 0.9872645
vn 0 -0.15908715 0.9872646
vn 0 -0.15908715 0.9872646
vn 0 -0.15908715 0.9872646
vn 0 -0.15908696 0.9872645
vn 0 -0.15908696 0.9872645
vn 0 -0.15908696 0.9872645
vn 0 -0.15908687 0.9872646
vn 0 -0.15908687 0.9872646
vn 0 -0.15908687 0.9872646
vn 0 -0.15908696 0.9872645
vn 0 -0.15908696 0.9872645
vn 0 -0.15908696 0.9872645
vn 0 -0.15908742 0.9872644
vn 0 -0.15908742 0.9872644
vn 0 -0.15908742 0.9872644
vn 0.5563923 0.32804587 0.7634222
vn 0.5563923 0.32804587 0.7634222
vn 0.5563923 0.32804587 0.7634222
vn 0.55639225 0.32804582 0.76342225
vn 0.55639225 0.32804582 0.76342225
vn 0.55639225 0.32804582 0.76342225
vn 0.55639225 0.32804585 0.7634223
vn 0.55639225 0.32804585 0.7634223
vn 0.55639225 0.32804585 0.7634223
vn 0.5563924 0.3280459 0.76342213
vn 0.5563924 0.3280459 0.76342213
vn 0.5563924 0.3280459 0.76342213
vn 0.5563923 -0.32804587 -0.7634222
vn 0.5563923 -0.32804587 -0.7634222
vn 0.5563923 -0.32804587 -0.7634222
vn 0.55639225 -0.32804582 -0.76342225
vn 0.55639225 -0.32804582 -0.76342225
vn 0.55639225 -0.32804582 -0.76342225
vn 0.55639225 -0.32804585 -0.7634223
vn 0.55639225 -0.32804585 -0.7634223
vn 0.55639225 -0.32804585 -0.7634223
vn 0.5563924 -0.3280459 -0.76342213
vn 0.5563924 -0.3280459 -0.76342213
vn 0.5563924 -0.3280459 -0.76342213
vn 0 -0.2100588 0.9776888
vn 0 -0.2100588 0.9776888
vn 0 -0.2100588 0.9776888
vn 0 -0.21005899 0.97768867
vn 0 -0.21005899 0.97768867
vn 0 -0.21005899 0.97768867
vn 0 -0.21005899 0.97768867
vn 0 -0.21005899 0.97768867
vn 0 -0.21005899 0.97768867
vn 0 -0.6765727 0.73637587
vn 0 -0.6765727 0.73637587
vn 0 -0.6765727 0.73637587
vn 0 -0.6877943 0.72590566
vn 0 -0.6877943 0.72590566
vn 0 -0.6877943 0.72590566
vn 0 -0.802037 0.59727436
vn 0 -0.802037 0.59727436
vn 0 -0.802037 0.59727436
vn -0.08689428 0.49524677 -0.86439574
vn -0.08689428 0.49524677 -0.86439574
vn -0.08689428 0.49524677 -0.86439574
vn -0.08689428 -0.49524677 0.86439574
vn -0.08689428 -0.49524677 0.86439574
vn -0.08689428 -0.49524677 0.86439574
vn 0.54423326 -0.8122202 -0.2100202
vn 0.54423326 -0.8122202 -0.2100202
vn 0.54423326 -0.8122202 -0.2100202
vn 0.54423326 0.8122202 0.2100202
vn 0.54423326 0.8122202 0.2100202
vn 0.54423326 0.8122202 0.2100202
vn 0 -0.7901372 0.6129301
vn 0 -0.7901372 0.6129301
vn 0 -0.7901372 0.6129301
f 1//1 2//2 3//3
f 4//4 5//5 6//6
f 7//7 8//8 9//9
f 10//10 11//11 12//12
f 13//13 14//14 15//15
f 16//16 17//17 18//18
f 19//19 20//20 21//21
f 22//22 23//23 24//24
f 25//25 26//26 27//27
f 28//28 29//29 30//30
f 31//31 32//32 33//33
f 34//34 35//35 36//36
f 37//37 38//38 39//39
f 40//40 41//41 42//42
f 43//43 44//44 45//45
f 46//46 47//47 48//48
f 49//49 50//50 51//51
f 52//52 53//53 54//54
f 55//55 56//56 57//57
f 58//58 59//59 60//60
f 61//61 62//62 63//63
f 64//64 65//65 66//66
f 67//67 68//68 69//69
f 70//70 71//71 72//72
f 73//73 74//74 75//75
f 76//76 77//77 78//78
f 79//79 80//80 81//81
f 82//82 83//83 84//84
f 85//85 86//86 87//87
f 88//88 89//89 90//90
f 91//91 92//92 93//93
f 94//94 95//95 96//96
f 97//97 98//98 99//99
f 100//100 101//101 102//102
f 103//103 104//104 105//105
f 106//106 107//107 108//108
f 109//109 110//110 111//111
f 112//112 113//113 114//114
f 115//115 116//116 117//117
f 118//118 119//119 120//120
f 121//121 122//122 123//123
f 124//124 125//125 126//126
f 127//127 128//128 129//129
f 130//130 131//131 132//132
f 133//133 134//134 135//135
f 136//136 137//137 138//138
f 139//139 140//140 141//141
f 142//142 143//143 144//144
f 145//145 146//146 147//147
f 148//148 149//149 150//150
f 151//151 152//152 153//153
f 154//154 155//155 156//156
f 157//157 158//158 159//159
f 160//160 161//161 162//162
f 163//163 164//164 165//165
f 166//166 167//167 168//168
f 169//169 170//170 171//171
f 172//172 173//173 174//174
f 175//175 176//176 177//177
f 178//178 179//179 180//180
f 181//181 182//182 183//183
f 184//184 185//185 186//186
f 187//187 188//188 189//189
f 190//190 191//191 192//192
f 193//193 194//194 195//195
f 196//196 197//197 198//198
f 199//199 200//200 201//201
f 202//202 203//203 204//204
f 205//205 206//206 207//207
f 208//208 209//209 210//210
f 211//211 212//212 213//213
f 214//214 215//215 216//216
f 217//217 218//218 219//219
f 220//220 221//221 222//222
f 223//223 224//224 225//225
f 226//226 227//227 228//228
f 229//229 230//230 231//231
f 232//232 233//233 234//234
f 235//235 236//236 237//237
f 238//238 239//239 240//240
f 241//241 242//242 243//243
f 244//244 245//245 246//246
f 247//247 248//248 249//249
f 250//250 251//251 252//252
f 253//253 254//254 255//255
f 256//256 257//257 258//258
f 259//259 260//260 261//261
f 262//262 263//263 264//264
f 265//265 266//266 267//267
f 268//268 269//269 270//270
f 271//271 272//272 273//273
f 274//274 275//275 276//276
f 277//277 278//278 279//279
f 280//280 281//281 282//282
f 283//283 284//284 285//285
f 286//286 287//287 288//288
f 289//289 290//290 291//291
f 292//292 293//293 294//294
f 295//295 296//296 297//297
f 298//298 299//299 300//300
f 301//301 302//302 303//303
f 304//304 305//305 306//306
f 307//307 308//308 309//309
f 310//310 311//311 312//312
f 313//313 314//314 315//315
f 316//316 317//317 318//318
f 319//319 320//320 321//321
f 322//322 323//323 324//324
f 325//325 326//326 327//327
f 328//328 329//329 330//330
f 331//331 332//332 333//333
f 334//334 335//335 336//336
f 337//337 338//338 339//339
f 340//340 341//341 342//342
f 343//343 344//344 345//345
f 346//346 347//347 348//348
f 349//349 350//350 351//351
