# Exported from SharpOpenGl procedural mesh
o miner_eva
# vertices 312
v -0.74175864 0.061874595 -1.1063257
v 0.74175864 0.061874595 -1.1063257
v 0 0.19335811 -0.8709801
v -0.74175864 0.061874595 -1.1063257
v 0 0.19335811 -0.8709801
v -0.6313916 0.10632556 -0.5833354
v 0.74175864 0.061874595 -1.1063257
v 1.4946444 0.10632556 -0.5833354
v 0.43162638 0.33226737 -0.8709801
v -0.74175864 0 -1.1063257
v -0.6313916 0 -0.5833354
v 0.74175864 0 -1.1063257
v 0.74175864 0 -1.1063257
v -0.6313916 0 -0.5833354
v 1.4946444 0 -0.5833354
v -0.6313916 0.10632556 -0.5833354
v 1.4946444 0.10632556 -0.5833354
v 0.43162638 0.33226737 -0.34798974
v -0.6313916 0.10632556 -0.5833354
v 0.43162638 0.33226737 -0.34798974
v -0.6706299 0.13379778 -0.060345054
v 1.4946444 0.10632556 -0.5833354
v 1.8525043 0.13379778 -0.060345054
v 0.5909372 0.41811806 -0.34798974
v -0.6313916 0 -0.5833354
v -0.6706299 0 -0.060345054
v 1.4946444 0 -0.5833354
v 1.4946444 0 -0.5833354
v -0.6706299 0 -0.060345054
v 1.8525043 0 -0.060345054
v -0.6706299 0.13379778 -0.060345054
v 1.8525043 0.13379778 -0.060345054
v 0.5909372 0.41811806 0.1750006
v -0.6706299 0.13379778 -0.060345054
v 0.5909372 0.41811806 0.1750006
v -0.88414484 0.13379776 0.4626453
v 1.8525043 0.13379778 -0.060345054
v 1.6389894 0.13379776 0.4626453
v 0.37742227 0.41811803 0.1750006
v -0.6706299 0 -0.060345054
v -0.88414484 0 0.4626453
v 1.8525043 0 -0.060345054
v 1.8525043 0 -0.060345054
v -0.88414484 0 0.4626453
v 1.6389894 0 0.4626453
v -0.88414484 0.13379776 0.4626453
v 1.6389894 0.13379776 0.4626453
v 0.37742227 0.41811803 0.69799095
v -0.88414484 0.13379776 0.4626453
v 0.37742227 0.41811803 0.69799095
v -1.293388 0.10632556 0.98563564
v 1.6389894 0.13379776 0.4626453
v 1.1449672 0.10632556 0.98563564
v -0.07421044 0.33226737 0.69799095
v -0.88414484 0 0.4626453
v -1.293388 0 0.98563564
v 1.6389894 0 0.4626453
v 1.6389894 0 0.4626453
v -1.293388 0 0.98563564
v 1.1449672 0 0.98563564
v -1.293388 0.10632556 0.98563564
v 1.1449672 0.10632556 0.98563564
v -0.07421044 0.33226737 1.2209812
v -1.293388 0.10632556 0.98563564
v -0.07421044 0.33226737 1.2209812
v -1.2207819 0.061874583 1.5086259
v 1.1449672 0.10632556 0.98563564
v 0.26273522 0.061874583 1.5086259
v -0.47902337 0.19335808 1.2209812
v -1.293388 0 0.98563564
v -1.2207819 0 1.5086259
v 1.1449672 0 0.98563564
v 1.1449672 0 0.98563564
v -1.2207819 0 1.5086259
v 0.26273522 0 1.5086259
v 0.95430934 0.080414586 -1.0057507
v 0.95430934 0.32165834 -1.0057507
v 1.9086188 0.12331951 -1.0057507
v -0.9543095 0.08041457 -1.0057507
v -1.9086188 0.030829871 -1.0057507
v -0.9543095 0.32165828 -1.0057507
v 1.4818792 0.080414586 0.050287485
v 1.4818792 0.32165834 0.050287485
v 2.4361887 0.12331951 0.050287485
v -0.42673957 0.08041457 0.050287485
v -1.3810489 0.030829871 0.050287485
v -0.42673957 0.32165828 0.050287485
v 0.47528598 0.080414586 1.1063256
v 0.47528598 0.32165834 1.1063256
v 1.4295955 0.12331951 1.1063256
v -1.4333329 0.08041457 1.1063256
v -2.3876421 0.030829871 1.1063256
v -1.4333329 0.32165828 1.1063256
v -0.34702158 0.06599957 0.03137942
v 0.34702158 0.06599957 0.03137942
v 0 0.20624866 0.07449474
v -0.34702158 0.06599957 0.03137942
v 0 0.20624866 0.07449474
v 0.14275545 0.092124395 0.12719125
v 0.34702158 0.06599957 0.03137942
v 0.71534103 0.092124395 0.12719125
v 0.42904824 0.28788874 0.07449474
v -0.34702158 0 0.03137942
v 0.14275545 0 0.12719125
v 0.34702158 0 0.03137942
v 0.34702158 0 0.03137942
v 0.14275545 0 0.12719125
v 0.71534103 0 0.12719125
v 0.14275545 0.092124395 0.12719125
v 0.71534103 0.092124395 0.12719125
v 0.42904824 0.28788874 0.17030656
v 0.14275545 0.092124395 0.12719125
v 0.42904824 0.28788874 0.17030656
v -0.49073058 0.11824923 0.22300307
v 0.71534103 0.092124395 0.12719125
v -0.039602533 0.11824923 0.22300307
v -0.26516655 0.36952886 0.17030656
v 0.14275545 0 0.12719125
v -0.49073058 0 0.22300307
v 0.71534103 0 0.12719125
v 0.71534103 0 0.12719125
v -0.49073058 0 0.22300307
v -0.039602533 0 0.22300307
v 0.8241763 0.2835919 0.20115013
v 1.4314642 0.20624866 0.20115013
v 1.0118386 0.20624866 0.46105438
v 0.8241763 0.20624866 0.20115013
v 1.4314642 0.17917852 0.20115013
v 1.0118386 0.17917852 0.46105438
v 0.8241763 0.2835919 0.20115013
v 1.0118386 0.20624866 0.46105438
v 0.3328701 0.20624866 0.36177978
v 0.8241763 0.20624866 0.20115013
v 1.0118386 0.17917852 0.46105438
v 0.3328701 0.17917852 0.36177978
v 0.8241763 0.2835919 0.20115013
v 0.3328701 0.20624866 0.36177978
v 0.3328702 0.20624866 0.04052043
v 0.8241763 0.20624866 0.20115013
v 0.3328701 0.17917852 0.36177978
v 0.3328702 0.17917852 0.04052043
v 0.8241763 0.2835919 0.20115013
v 0.3328702 0.20624866 0.04052043
v 1.0118387 0.20624866 -0.0587541
v 0.8241763 0.20624866 0.20115013
v 0.3328702 0.17917852 0.04052043
v 1.0118387 0.17917852 -0.0587541
v 0.8241763 0.2835919 0.20115013
v 1.0118387 0.20624866 -0.0587541
v 1.4314642 0.20624866 0.20115018
v 0.8241763 0.20624866 0.20115013
v 1.0118387 0.17917852 -0.0587541
v 1.4314642 0.17917852 0.20115018
v -0.10844425 0.120311715 0.88506055
v 0.10844425 0.120311715 0.88506055
v 0 0.16328019 1.0057507
v 0.9543094 0.18046756 0.24138016
v 1.1278201 0.20624866 0.3218402
v 0.9976871 0.1546865 0.2816102
v -1.8074042 0.04910682 -1.2226774
v -2.2721653 0 -2.2451515
v -1.3426431 0 -2.2451515
v -0.6024681 0.04910682 -1.2226774
v -1.0672292 0 -2.2451515
v -0.13770702 0 -2.2451515
v 0.6024681 0.04910682 -1.2226774
v 0.13770702 0 -2.2451515
v 1.0672292 0 -2.2451515
v 1.8074042 0.04910682 -1.2226774
v 1.3426431 0 -2.2451515
v 2.2721653 0 -2.2451515
v -1.1289505 0.09821364 -0.0788824
v -1.0596666 0.07979858 -0.059161805
v -1.1289505 0.06752188 -0.051273562
v -1.1289505 0.10844423 0.06573535
v -1.0596666 0.09002917 0.08545595
v -1.1289505 0.075706355 0.09334419
v -1.1289505 0.118674815 0.2103531
v -1.0596666 0.10025976 0.2300737
v -1.1289505 0.083890826 0.23796195
v -1.1289505 0.1289054 0.35497084
v -1.0596666 0.110490344 0.37469146
v -1.1289505 0.092075296 0.38257968
v 1.1289505 0.09821364 -0.0788824
v 1.0596666 0.07979858 -0.059161805
v 1.1289505 0.06752188 -0.051273562
v 1.1289505 0.10844423 0.06573535
v 1.0596666 0.09002917 0.08545595
v 1.1289505 0.075706355 0.09334419
v 1.1289505 0.118674815 0.2103531
v 1.0596666 0.10025976 0.2300737
v 1.1289505 0.083890826 0.23796195
v 1.1289505 0.1289054 0.35497084
v 1.0596666 0.110490344 0.37469146
v 1.1289505 0.092075296 0.38257968
v -0.38549834 0.012276705 -0.11832361
v 0.48549837 0.012276705 -0.11832361
v 0.05 0.09821364 -0.09465889
v -0.26672605 0.012276705 0.11832361
v 0.36672607 0.012276705 0.11832361
v 0.05 0.107421175 0.14198834
v -0.14795381 0.012276705 0.3549708
v 0.2479538 0.012276705 0.3549708
v 0.05 0.1166287 0.37863553
v -0.44590762 0.08593694 -0.0394412
v -0.3865215 0.15959716 -0.01577648
v -0.44590762 0.061383527 -0.011832358
v -0.44590762 0.08593694 0.27608842
v -0.3865215 0.15959716 0.29975313
v -0.44590762 0.061383527 0.30369726
v 0.44590762 0.08593694 -0.0394412
v 0.3865215 0.15959716 -0.01577648
v 0.44590762 0.061383527 -0.011832358
v 0.44590762 0.08593694 0.27608842
v 0.3865215 0.15959716 0.29975313
v 0.44590762 0.061383527 0.30369726
v -0.18754455 0.2700875 -0.0788824
v 0.28754455 0.2700875 -0.0788824
v 0.05 0.34374776 -0.059161805
v -0.11628118 0.33147106 -0.06705004
v 0.21628118 0.33147106 -0.06705004
v 0.05 0.36830118 -0.055217683
v -0.09846535 0.28850257 0.17748544
v 0.19846535 0.28850257 0.17748544
v 0.05 0.35602444 0.19720604
v -0.05392574 0.34374776 0.1893178
v 0.15392575 0.34374776 0.1893178
v 0.05 0.3775087 0.20115016
v -0.009386141 0.30691764 0.43385327
v 0.109386146 0.30691764 0.43385327
v 0.05 0.36830118 0.45357388
v 0.008429702 0.35602447 0.44568563
v 0.0915703 0.35602447 0.44568563
v 0.05 0.38671622 0.45751798
v -0.23754455 0 -0.1577648
v 0.23754455 0 -0.1577648
v 0 0.036830116 -0.23664722
v -0.10758358 0.29464093 0.0394412
v 0.10758358 0.29464093 0.0394412
v 0 0.34374776 0.0493015
v -0.10758358 0.30200696 0.14198832
v 0.10758358 0.30200696 0.14198832
v 0 0.3511138 0.15184863
v -0.10758358 0.309373 0.24453545
v 0.10758358 0.309373 0.24453545
v 0 0.3584798 0.25439575
v -0.10758358 0.316739 0.34708259
v 0.10758358 0.316739 0.34708259
v 0 0.36584583 0.3569429
v -0.10758358 0.32410502 0.4496297
v 0.10758358 0.32410502 0.4496297
v 0 0.37321183 0.45949
v -0.10758358 0.33147103 0.55217683
v 0.10758358 0.33147103 0.55217683
v 0 0.38057786 0.5620371
v -1.3770698 0.12276705 0.23664722
v -1.4631367 0.15959716 0.27608842
v -1.3770698 0.08593694 0.25636783
v -1.3770698 0.13504376 0.15776482
v -1.4631367 0.17187388 0.19720602
v -1.3770698 0.09821364 0.17748542
v -1.3770698 0.14732048 0.07888241
v -1.4631367 0.18415058 0.11832361
v -1.3770698 0.11049035 0.09860301
v -1.3770698 0.15959716 0
v -1.4631367 0.19642729 0.0394412
v -1.3770698 0.12276705 0.0197206
v 1.3770698 0.12276705 0.23664722
v 1.4631367 0.15959716 0.27608842
v 1.3770698 0.08593694 0.25636783
v 1.3770698 0.13504376 0.15776482
v 1.4631367 0.17187388 0.19720602
v 1.3770698 0.09821364 0.17748542
v 1.3770698 0.14732048 0.07888241
v 1.4631367 0.18415058 0.11832361
v 1.3770698 0.11049035 0.09860301
v 1.3770698 0.15959716 0
v 1.4631367 0.19642729 0.0394412
v 1.3770698 0.12276705 0.0197206
v -0.086066864 0.33147106 0.0788824
v 0.086066864 0.33147106 0.0788824
v 0 0.36830118 0.0887427
v -0.086066864 0.33147106 0.17748542
v 0.086066864 0.33147106 0.17748542
v 0 0.36830118 0.18734573
v -0.086066864 0.33147106 0.27608842
v 0.086066864 0.33147106 0.27608842
v 0 0.36830118 0.28594872
v -0.089100294 0.13504376 1.7780097
v 0.16910028 0.13504376 1.7780097
v 0.04 0.2700875 1.9326191
v -0.024550147 0.2455341 1.8746406
v 0.104550146 0.2455341 1.8746406
v 0.04 0.29464093 1.9326191
v -0.13213372 0.5421393 0.23664722
v 0.21213374 0.5421393 0.23664722
v 0.04 0.58928186 0.3155296
v -0.16910028 0.2578108 -0.039441206
v -1.4170698 0.2578108 0.0788824
v -0.16910028 0.58928186 0.19720602
v 0.16910028 0.2578108 -0.039441206
v 1.4170698 0.2578108 0.0788824
v 0.16910028 0.58928186 0.19720602
v -1.3740364 0.208704 0.19720602
v -1.3094863 0.2332574 0.23664722
v -1.3740364 0.18415059 0.3155296
v 1.3740364 0.208704 0.19720602
v 1.3094863 0.2332574 0.23664722
v 1.3740364 0.18415059 0.3155296
v -0.2182006 0.036830116 -0.3155296
v 0.29820058 0.036830116 -0.3155296
v 0.04 0.08593694 -0.23664722
vn 0 -0.8729959 0.48772755
vn 0 -0.8729959 0.48772755
vn 0 -0.8729959 0.48772755
vn 0.15882628 -0.986025 0.050288834
vn 0.15882628 -0.986025 0.050288834
vn 0.15882628 -0.986025 0.050288834
vn -0.30901992 -0.8008814 0.5129285
vn -0.30901992 -0.8008814 0.5129285
vn -0.30901992 -0.8008814 0.5129285
vn 0 1 0
vn 0 1 0
vn 0 1 0
vn 0 1 -0
vn 0 1 -0
vn 0 1 -0
vn 0 -0.72137207 0.6925477
vn 0 -0.72137207 0.6925477
vn 0 -0.72137207 0.6925477
vn 0.19346291 -0.9788896 0.06593513
vn 0.19346291 -0.9788896 0.06593513
vn 0.19346291 -0.9788896 0.06593513
vn -0.26349413 -0.9369597 0.22951539
vn -0.26349413 -0.9369597 0.22951539
vn -0.26349413 -0.9369597 0.22951539
vn 0 1 -0
vn 0 1 -0
vn 0 1 -0
vn 0 1 -0
vn 0 1 -0
vn 0 1 -0
vn 0 -0.63764185 0.770333
vn 0 -0.63764185 0.770333
vn 0 -0.63764185 0.770333
vn 0.20426057 -0.9753582 0.08339096
vn 0.20426057 -0.9753582 0.08339096
vn 0.20426057 -0.9753582 0.08339096
vn -0.20124847 -0.97608846 -0.082161255
vn -0.20124847 -0.97608846 -0.082161255
vn -0.20124847 -0.97608846 -0.082161255
vn 0 1 -0
vn 0 1 -0
vn 0 1 -0
vn 0 1 0
vn 0 1 0
vn 0 1 0
vn 0 -0.6376419 0.77033293
vn 0 -0.6376419 0.77033293
vn 0 -0.6376419 0.77033293
vn 0.19990773 -0.97414464 0.10525811
vn 0.19990773 -0.97414464 0.10525811
vn 0.19990773 -0.97414464 0.10525811
vn -0.13770197 -0.9737534 -0.18122514
vn -0.13770197 -0.9737534 -0.18122514
vn -0.13770197 -0.9737534 -0.18122514
vn 0 1 -0
vn 0 1 -0
vn 0 1 -0
vn 0 1 0
vn 0 1 0
vn 0 1 0
vn 0 -0.72137195 0.6925478
vn 0 -0.72137195 0.6925478
vn 0 -0.72137195 0.6925478
vn 0.20172253 -0.9731647 -0.11071795
vn 0.20172253 -0.9731647 -0.11071795
vn 0.20172253 -0.9731647 -0.11071795
vn -0.08466957 -0.9705979 -0.22532395
vn -0.08466957 -0.9705979 -0.22532395
vn -0.08466957 -0.9705979 -0.22532395
vn 0 1 0
vn 0 1 0
vn 0 1 0
vn 0 0.99999994 0
vn 0 0.99999994 0
vn 0 0.99999994 0
vn 0 0 -1
vn 0 0 -1
vn 0 0 -1
vn -0 0 -0.99999994
vn -0 0 -0.99999994
vn -0 0 -0.99999994
vn 0 0 -1
vn 0 0 -1
vn 0 0 -1
vn -0 0 -1
vn -0 0 -1
vn -0 0 -1
vn 0 0 -1
vn 0 0 -1
vn 0 0 -1
vn -0 0 -1
vn -0 0 -1
vn -0 0 -1
vn 0 -0.2938477 0.9558522
vn 0 -0.2938477 0.9558522
vn 0 -0.2938477 0.9558522
vn 0.19831221 -0.19542456 -0.960459
vn 0.19831221 -0.19542456 -0.960459
vn 0.19831221 -0.19542456 -0.960459
vn -0.24409443 -0.09724734 0.9648631
vn -0.24409443 -0.09724734 0.9648631
vn -0.24409443 -0.09724734 0.9648631
vn 0 1 0
vn 0 1 0
vn 0 1 0
vn 0 1 -0
vn 0 1 -0
vn 0 1 -0
vn 0 -0.2150862 0.97659504
vn 0 -0.2150862 0.97659504
vn 0 -0.2150862 0.97659504
vn 0.1228407 -0.38143113 0.9161989
vn 0.1228407 -0.38143113 0.9161989
vn 0.1228407 -0.38143113 0.9161989
vn -0.13022009 -0.31411016 -0.9404135
vn -0.13022009 -0.31411016 -0.9404135
vn -0.13022009 -0.31411016 -0.9404135
vn 0 1 -0
vn 0 1 -0
vn 0 1 -0
vn 0 1 0
vn 0 1 0
vn 0 1 0
vn -0.12378896 -0.9719729 -0.19986212
vn -0.12378896 -0.9719729 -0.19986212
vn -0.12378896 -0.9719729 -0.19986212
vn -0.044416584 -0.9964359 -0.07171232
vn -0.044416584 -0.9964359 -0.07171232
vn -0.044416584 -0.9964359 -0.07171232
vn 0.04610978 -0.94785184 -0.3153584
vn 0.04610978 -0.94785184 -0.3153584
vn 0.04610978 -0.94785184 -0.3153584
vn 0.016909618 -0.9931462 -0.11564988
vn 0.016909618 -0.9931462 -0.11564988
vn 0.016909618 -0.9931462 -0.11564988
vn 0.15550858 -0.9878346 4.66301E-08
vn 0.15550858 -0.9878346 4.66301E-08
vn 0.15550858 -0.9878346 4.66301E-08
vn 0.055014852 -0.9984855 1.7674825E-08
vn 0.055014852 -0.9984855 1.7674825E-08
vn 0.055014852 -0.9984855 1.7674825E-08
vn 0.046109736 -0.9478517 0.3153584
vn 0.046109736 -0.9478517 0.3153584
vn 0.046109736 -0.9478517 0.3153584
vn 0.016909605 -0.9931462 0.11564988
vn 0.016909605 -0.9931462 0.11564988
vn 0.016909605 -0.9931462 0.11564988
vn -0.12378899 -0.97197306 0.1998621
vn -0.12378899 -0.97197306 0.1998621
vn -0.12378899 -0.97197306 0.1998621
vn -0.04441659 -0.9964359 0.0717123
vn -0.04441659 -0.9964359 0.0717123
vn -0.04441659 -0.9964359 0.0717123
vn 0 -0.94207555 0.33540073
vn 0 -0.94207555 0.33540073
vn 0 -0.94207555 0.33540073
vn 0.42688087 -0.47882944 -0.76713437
vn 0.42688087 -0.47882944 -0.76713437
vn 0.42688087 -0.47882944 -0.76713437
vn 0 -0.9988486 0.047972146
vn 0 -0.9988486 0.047972146
vn 0 -0.9988486 0.047972146
vn 0 -0.9988486 0.047972146
vn 0 -0.9988486 0.047972146
vn 0 -0.9988486 0.047972146
vn 0 -0.9988486 0.047972146
vn 0 -0.9988486 0.047972146
vn 0 -0.9988486 0.047972146
vn 0 -0.9988486 0.047972146
vn 0 -0.9988486 0.047972146
vn 0 -0.9988486 0.047972146
vn 0.03383888 -0.6683977 -0.7430339
vn 0.03383888 -0.6683977 -0.7430339
vn 0.03383888 -0.6683977 -0.7430339
vn 0.04618829 -0.6439955 -0.7636337
vn 0.04618829 -0.6439955 -0.7636337
vn 0.04618829 -0.6439955 -0.7636337
vn 0.057607166 -0.62066 -0.7819608
vn 0.057607166 -0.62066 -0.7819608
vn 0.057607166 -0.62066 -0.7819608
vn 0.06816581 -0.5984138 -0.7982821
vn 0.06816581 -0.5984138 -0.7982821
vn 0.06816581 -0.5984138 -0.7982821
vn 0.03383888 0.6683977 0.7430339
vn 0.03383888 0.6683977 0.7430339
vn 0.03383888 0.6683977 0.7430339
vn 0.04618829 0.6439955 0.7636337
vn 0.04618829 0.6439955 0.7636337
vn 0.04618829 0.6439955 0.7636337
vn 0.057607166 0.62066 0.7819608
vn 0.057607166 0.62066 0.7819608
vn 0.057607166 0.62066 0.7819608
vn 0.06816581 0.5984138 0.7982821
vn 0.06816581 0.5984138 0.7982821
vn 0.06816581 0.5984138 0.7982821
vn 0 -0.26549086 0.9641133
vn 0 -0.26549086 0.9641133
vn 0 -0.26549086 0.9641133
vn 0 -0.24137017 0.9704331
vn 0 -0.24137017 0.9704331
vn 0 -0.24137017 0.9704331
vn 0 -0.22116208 0.975237
vn 0 -0.22116208 0.975237
vn 0 -0.22116208 0.975237
vn 0.76602185 -0.48033997 -0.42718148
vn 0.76602185 -0.48033997 -0.42718148
vn 0.76602185 -0.48033997 -0.42718148
vn 0.7660218 -0.48033997 -0.42718154
vn 0.7660218 -0.48033997 -0.42718154
vn 0.7660218 -0.48033997 -0.42718154
vn 0.76602185 0.48033997 0.42718148
vn 0.76602185 0.48033997 0.42718148
vn 0.76602185 0.48033997 0.42718148
vn 0.7660218 0.48033997 0.42718154
vn 0.7660218 0.48033997 0.42718154
vn 0.7660218 0.48033997 0.42718154
vn 0 -0.25861585 0.96598023
vn 0 -0.25861585 0.96598023
vn 0 -0.25861585 0.96598023
vn 0 -0.30587095 0.952073
vn 0 -0.30587095 0.952073
vn 0 -0.30587095 0.952073
vn 0 -0.28035003 0.9598978
vn 0 -0.28035003 0.9598978
vn 0 -0.28035003 0.9598978
vn 0 -0.33074993 0.94371843
vn 0 -0.33074993 0.94371843
vn 0 -0.33074993 0.94371843
vn 0 -0.30587128 0.9520729
vn 0 -0.30587128 0.9520729
vn 0 -0.30587128 0.9520729
vn 0 -0.3597163 0.9330618
vn 0 -0.3597163 0.9330618
vn 0 -0.3597163 0.9330618
vn -0 0.9061025 0.4230583
vn -0 0.9061025 0.4230583
vn -0 0.9061025 0.4230583
vn 0 -0.19686347 0.9804309
vn 0 -0.19686347 0.9804309
vn 0 -0.19686347 0.9804309
vn 0 -0.19686362 0.9804309
vn 0 -0.19686362 0.9804309
vn 0 -0.19686362 0.9804309
vn 0 -0.19686374 0.98043084
vn 0 -0.19686374 0.98043084
vn 0 -0.19686374 0.98043084
vn 0 -0.19686362 0.9804309
vn 0 -0.19686362 0.9804309
vn 0 -0.19686362 0.9804309
vn 0 -0.19686374 0.98043084
vn 0 -0.19686374 0.98043084
vn 0 -0.19686374 0.98043084
vn 0 -0.19686303 0.98043096
vn 0 -0.19686303 0.98043096
vn 0 -0.19686303 0.98043096
vn 0.51825815 0.40369925 0.75394654
vn 0.51825815 0.40369925 0.75394654
vn 0.51825815 0.40369925 0.75394654
vn 0.5182582 0.40369904 0.7539467
vn 0.5182582 0.40369904 0.7539467
vn 0.5182582 0.40369904 0.7539467
vn 0.51825804 0.4036989 0.7539468
vn 0.51825804 0.4036989 0.7539468
vn 0.51825804 0.4036989 0.7539468
vn 0.5182582 0.4036991 0.7539466
vn 0.5182582 0.4036991 0.7539466
vn 0.5182582 0.4036991 0.7539466
vn 0.51825815 -0.40369925 -0.75394654
vn 0.51825815 -0.40369925 -0.75394654
vn 0.51825815 -0.40369925 -0.75394654
vn 0.5182582 -0.40369904 -0.7539467
vn 0.5182582 -0.40369904 -0.7539467
vn 0.5182582 -0.40369904 -0.7539467
vn 0.51825804 -0.4036989 -0.7539468
vn 0.51825804 -0.4036989 -0.7539468
vn 0.51825804 -0.4036989 -0.7539468
vn 0.5182582 -0.4036991 -0.7539466
vn 0.5182582 -0.4036991 -0.7539466
vn 0.5182582 -0.4036991 -0.7539466
vn 0 -0.25861585 0.96598023
vn 0 -0.25861585 0.96598023
vn 0 -0.25861585 0.96598023
vn 0 -0.25861606 0.96598023
vn 0 -0.25861606 0.96598023
vn 0 -0.25861606 0.96598023
vn 0 -0.25861606 0.96598023
vn 0 -0.25861606 0.96598023
vn 0 -0.25861606 0.96598023
vn 0 -0.7531546 0.65784353
vn 0 -0.7531546 0.65784353
vn 0 -0.7531546 0.65784353
vn 0 -0.7630741 0.6463109
vn 0 -0.7630741 0.6463109
vn 0 -0.7630741 0.6463109
vn 0 -0.8583887 0.5129997
vn 0 -0.8583887 0.5129997
vn 0 -0.8583887 0.5129997
vn -0.07693668 0.57932436 -0.8114579
vn -0.07693668 0.57932436 -0.8114579
vn -0.07693668 0.57932436 -0.8114579
vn -0.07693668 -0.57932436 0.8114579
vn -0.07693668 -0.57932436 0.8114579
vn -0.07693668 -0.57932436 0.8114579
vn 0.44476888 -0.8769631 -0.18197915
vn 0.44476888 -0.8769631 -0.18197915
vn 0.44476888 -0.8769631 -0.18197915
vn 0.44476888 0.8769631 0.18197915
vn 0.44476888 0.8769631 0.18197915
vn 0.44476888 0.8769631 0.18197915
vn 0 -0.8489386 0.52849156
vn 0 -0.8489386 0.52849156
vn 0 -0.8489386 0.52849156
f 1//1 2//2 3//3
f 4//4 5//5 6//6
f 7//7 8//8 9//9
f 10//10 11//11 12//12
f 13//13 14//14 15//15
f 16//16 17//17 18//18
f 19//19 20//20 21//21
f 22//22 23//23 24//24
f 25//25 26//26 27//27
f 28//28 29//29 30//30
f 31//31 32//32 33//33
f 34//34 35//35 36//36
f 37//37 38//38 39//39
f 40//40 41//41 42//42
f 43//43 44//44 45//45
f 46//46 47//47 48//48
f 49//49 50//50 51//51
f 52//52 53//53 54//54
f 55//55 56//56 57//57
f 58//58 59//59 60//60
f 61//61 62//62 63//63
f 64//64 65//65 66//66
f 67//67 68//68 69//69
f 70//70 71//71 72//72
f 73//73 74//74 75//75
f 76//76 77//77 78//78
f 79//79 80//80 81//81
f 82//82 83//83 84//84
f 85//85 86//86 87//87
f 88//88 89//89 90//90
f 91//91 92//92 93//93
f 94//94 95//95 96//96
f 97//97 98//98 99//99
f 100//100 101//101 102//102
f 103//103 104//104 105//105
f 106//106 107//107 108//108
f 109//109 110//110 111//111
f 112//112 113//113 114//114
f 115//115 116//116 117//117
f 118//118 119//119 120//120
f 121//121 122//122 123//123
f 124//124 125//125 126//126
f 127//127 128//128 129//129
f 130//130 131//131 132//132
f 133//133 134//134 135//135
f 136//136 137//137 138//138
f 139//139 140//140 141//141
f 142//142 143//143 144//144
f 145//145 146//146 147//147
f 148//148 149//149 150//150
f 151//151 152//152 153//153
f 154//154 155//155 156//156
f 157//157 158//158 159//159
f 160//160 161//161 162//162
f 163//163 164//164 165//165
f 166//166 167//167 168//168
f 169//169 170//170 171//171
f 172//172 173//173 174//174
f 175//175 176//176 177//177
f 178//178 179//179 180//180
f 181//181 182//182 183//183
f 184//184 185//185 186//186
f 187//187 188//188 189//189
f 190//190 191//191 192//192
f 193//193 194//194 195//195
f 196//196 197//197 198//198
f 199//199 200//200 201//201
f 202//202 203//203 204//204
f 205//205 206//206 207//207
f 208//208 209//209 210//210
f 211//211 212//212 213//213
f 214//214 215//215 216//216
f 217//217 218//218 219//219
f 220//220 221//221 222//222
f 223//223 224//224 225//225
f 226//226 227//227 228//228
f 229//229 230//230 231//231
f 232//232 233//233 234//234
f 235//235 236//236 237//237
f 238//238 239//239 240//240
f 241//241 242//242 243//243
f 244//244 245//245 246//246
f 247//247 248//248 249//249
f 250//250 251//251 252//252
f 253//253 254//254 255//255
f 256//256 257//257 258//258
f 259//259 260//260 261//261
f 262//262 263//263 264//264
f 265//265 266//266 267//267
f 268//268 269//269 270//270
f 271//271 272//272 273//273
f 274//274 275//275 276//276
f 277//277 278//278 279//279
f 280//280 281//281 282//282
f 283//283 284//284 285//285
f 286//286 287//287 288//288
f 289//289 290//290 291//291
f 292//292 293//293 294//294
f 295//295 296//296 297//297
f 298//298 299//299 300//300
f 301//301 302//302 303//303
f 304//304 305//305 306//306
f 307//307 308//308 309//309
f 310//310 311//311 312//312
