# Exported from SharpOpenGl procedural mesh
o transport_cargo
# vertices 342
v -1.6363689 0.13127689 -2.5084784
v 1.6363689 0.13127689 -2.5084784
v 0 0.4102403 -1.9748566
v -1.6363689 0.13127689 -2.5084784
v 0 0.4102403 -1.9748566
v -1.3928919 0.22558676 -1.3226522
v 1.6363689 0.13127689 -2.5084784
v 3.2972846 0.22558676 -1.3226522
v 0.95219636 0.7049586 -1.9748566
v -1.6363689 0 -2.5084784
v -1.3928919 0 -1.3226522
v 1.6363689 0 -2.5084784
v 1.6363689 0 -2.5084784
v -1.3928919 0 -1.3226522
v 3.2972846 0 -1.3226522
v -1.3928919 0.22558676 -1.3226522
v 3.2972846 0.22558676 -1.3226522
v 0.95219636 0.7049586 -0.78903043
v -1.3928919 0.22558676 -1.3226522
v 0.95219636 0.7049586 -0.78903043
v -1.4794543 0.28387347 -0.13682604
v 3.2972846 0.22558676 -1.3226522
v 4.086747 0.28387347 -0.13682604
v 1.3036466 0.88710463 -0.78903043
v -1.3928919 0 -1.3226522
v -1.4794543 0 -0.13682604
v 3.2972846 0 -1.3226522
v 3.2972846 0 -1.3226522
v -1.4794543 0 -0.13682604
v 4.086747 0 -0.13682604
v -1.4794543 0.28387347 -0.13682604
v 4.086747 0.28387347 -0.13682604
v 1.3036466 0.88710463 0.3967957
v -1.4794543 0.28387347 -0.13682604
v 1.3036466 0.88710463 0.3967957
v -1.9504824 0.28387347 1.049
v 4.086747 0.28387347 -0.13682604
v 3.6157193 0.28387347 1.049
v 0.83261853 0.8871046 0.3967957
v -1.4794543 0 -0.13682604
v -1.9504824 0 1.049
v 4.086747 0 -0.13682604
v 4.086747 0 -0.13682604
v -1.9504824 0 1.049
v 3.6157193 0 1.049
v -1.9504824 0.28387347 1.049
v 3.6157193 0.28387347 1.049
v 0.83261853 0.8871046 1.5826218
v -1.9504824 0.28387347 1.049
v 0.83261853 0.8871046 1.5826218
v -2.8533 0.22558673 2.2348263
v 3.6157193 0.28387347 1.049
v 2.5258737 0.22558673 2.2348263
v -0.16371316 0.70495856 1.5826218
v -1.9504824 0 1.049
v -2.8533 0 2.2348263
v 3.6157193 0 1.049
v 3.6157193 0 1.049
v -2.8533 0 2.2348263
v 2.5258737 0 2.2348263
v -2.8533 0.22558673 2.2348263
v 2.5258737 0.22558673 2.2348263
v -0.16371316 0.70495856 2.7684479
v -2.8533 0.22558673 2.2348263
v -0.16371316 0.70495856 2.7684479
v -2.6931262 0.13127688 3.4206522
v 2.5258737 0.22558673 2.2348263
v 0.5796114 0.13127688 3.4206522
v -1.0567573 0.41024023 2.7684479
v -2.8533 0 2.2348263
v -2.6931262 0 3.4206522
v 2.5258737 0 2.2348263
v 2.5258737 0 2.2348263
v -2.6931262 0 3.4206522
v 0.5796114 0 3.4206522
v 2.1052697 0.17061245 -2.2804348
v 2.1052697 0.6824498 -2.2804348
v 4.21054 0.26164216 -2.2804348
v -2.1052701 0.17061244 -2.2804348
v -4.21054 0.065410525 -2.2804348
v -2.1052701 0.68244976 -2.2804348
v 1.0485123 0.17061245 2.5084784
v 1.0485123 0.6824498 2.5084784
v 3.1537824 0.26164216 2.5084784
v -3.1620274 0.17061244 2.5084784
v -5.2672973 0.065410525 2.5084784
v -3.1620274 0.68244976 2.5084784
v -0.76555264 0.14002869 0.071149565
v 0.76555264 0.14002869 0.071149565
v 0 0.43758965 0.19953895
v -0.76555264 0.14002869 0.071149565
v 0 0.43758965 0.19953895
v 0.314928 0.1954567 0.35645932
v 0.76555264 0.14002869 0.071149565
v 1.5780897 0.1954567 0.35645932
v 0.9465089 0.6108022 0.19953895
v -0.76555264 0 0.071149565
v 0.314928 0 0.35645932
v 0.76555264 0 0.071149565
v 0.76555264 0 0.071149565
v 0.314928 0 0.35645932
v 1.5780897 0 0.35645932
v 0.314928 0.1954567 0.35645932
v 1.5780897 0.1954567 0.35645932
v 0.9465089 0.6108022 0.48484874
v 0.314928 0.1954567 0.35645932
v 0.9465089 0.6108022 0.48484874
v -1.0825841 0.25088474 0.6417691
v 1.5780897 0.1954567 0.35645932
v -0.087365806 0.25088474 0.6417691
v -0.584975 0.7840148 0.48484874
v 0.314928 0 0.35645932
v -1.0825841 0 0.6417691
v 1.5780897 0 0.35645932
v 1.5780897 0 0.35645932
v -1.0825841 0 0.6417691
v -0.087365806 0 0.6417691
v 0 0.54698706 -0.09121739
v 0.62201154 0.43758965 -0.09121739
v 0.19221212 0.43758965 0.17498827
v 0 0.43758965 -0.09121739
v 0.62201154 0.39930055 -0.09121739
v 0.19221212 0.39930055 0.17498827
v 0 0.54698706 -0.09121739
v 0.19221212 0.43758965 0.17498827
v -0.50321794 0.43758965 0.07330673
v 0 0.43758965 -0.09121739
v 0.19221212 0.39930055 0.17498827
v -0.50321794 0.39930055 0.07330673
v 0 0.54698706 -0.09121739
v -0.50321794 0.43758965 0.07330673
v -0.5032179 0.43758965 -0.25574157
v 0 0.43758965 -0.09121739
v -0.50321794 0.39930055 0.07330673
v -0.5032179 0.39930055 -0.25574157
v 0 0.54698706 -0.09121739
v -0.5032179 0.43758965 -0.25574157
v 0.19221221 0.43758965 -0.35742304
v 0 0.43758965 -0.09121739
v -0.5032179 0.39930055 -0.25574157
v 0.19221221 0.39930055 -0.35742304
v 0 0.54698706 -0.09121739
v 0.19221221 0.43758965 -0.35742304
v 0.62201154 0.43758965 -0.09121734
v 0 0.43758965 -0.09121739
v 0.19221221 0.39930055 -0.35742304
v 0.62201154 0.39930055 -0.09121734
v 0 0.61991864 1.6419132
v 0.28708225 0.51052123 1.6419132
v 0.08871329 0.51052123 1.7647773
v 0 0.51052123 1.6419132
v 0.28708225 0.47223213 1.6419132
v 0.08871329 0.47223213 1.7647773
v 0 0.61991864 1.6419132
v 0.08871329 0.51052123 1.7647773
v -0.23225445 0.51052123 1.7178473
v 0 0.51052123 1.6419132
v 0.08871329 0.47223213 1.7647773
v -0.23225445 0.47223213 1.7178473
v 0 0.61991864 1.6419132
v -0.23225445 0.51052123 1.7178473
v -0.2322544 0.51052123 1.565979
v 0 0.51052123 1.6419132
v -0.23225445 0.47223213 1.7178473
v -0.2322544 0.47223213 1.565979
v 0 0.61991864 1.6419132
v -0.2322544 0.51052123 1.565979
v 0.08871333 0.51052123 1.519049
v 0 0.51052123 1.6419132
v -0.2322544 0.47223213 1.565979
v 0.08871333 0.47223213 1.519049
v 0 0.61991864 1.6419132
v 0.08871333 0.51052123 1.519049
v 0.28708225 0.51052123 1.6419132
v 0 0.51052123 1.6419132
v 0.08871333 0.47223213 1.519049
v 0.28708225 0.47223213 1.6419132
v -0.19138816 0.13419417 0.021892173
v 0.19138816 0.13419417 0.021892173
v 0 0.41935676 0.11548122
v -0.19138816 0.13419417 0.021892173
v 0 0.41935676 0.11548122
v -0.19138816 0.15169774 0.22986783
v 0.19138816 0.13419417 0.021892173
v 0.19138816 0.15169774 0.22986783
v 0 0.47405544 0.11548122
v -0.19138816 0 0.021892173
v -0.19138816 0 0.22986783
v 0.19138816 0 0.021892173
v 0.19138816 0 0.021892173
v -0.19138816 0 0.22986783
v 0.19138816 0 0.22986783
v -0.19138816 0.15169774 0.22986783
v 0.19138816 0.15169774 0.22986783
v 0 0.47405544 0.32345688
v -0.19138816 0.15169774 0.22986783
v 0 0.47405544 0.32345688
v -0.19138816 0.16920133 0.43784347
v 0.19138816 0.15169774 0.22986783
v 0.19138816 0.16920133 0.43784347
v 0 0.5287542 0.32345688
v -0.19138816 0 0.22986783
v -0.19138816 0 0.43784347
v 0.19138816 0 0.22986783
v 0.19138816 0 0.22986783
v -0.19138816 0 0.43784347
v 0.19138816 0 0.43784347
v -3.3227112 0.10418801 -2.570672
v -4.575848 0 -5.327573
v -2.0695744 0 -5.327573
v 0 0.10418801 -2.570672
v -1.2531368 0 -5.327573
v 1.2531368 0 -5.327573
v 3.3227112 0.10418801 -2.570672
v 2.0695744 0 -5.327573
v 4.575848 0 -5.327573
v -2.0650187 0.20837602 -0.16584979
v -1.9055285 0.16930552 -0.12438734
v -2.0650187 0.14325851 -0.10780236
v -2.0650187 0.24093479 0.5390119
v -1.9055285 0.20186427 0.5804743
v -2.0650187 0.16930552 0.5970593
v -2.0650187 0.27349353 1.2438736
v -1.9055285 0.23442303 1.285336
v -2.0650187 0.19535254 1.301921
v 2.0650187 0.20837602 -0.16584979
v 1.9055285 0.16930552 -0.12438734
v 2.0650187 0.14325851 -0.10780236
v 2.0650187 0.24093479 0.5390119
v 1.9055285 0.20186427 0.5804743
v 2.0650187 0.16930552 0.5970593
v 2.0650187 0.27349353 1.2438736
v 1.9055285 0.23442303 1.285336
v 2.0650187 0.19535254 1.301921
v -0.21341166 0.52094007 0.4146245
v 0.33341166 0.52094007 0.4146245
v 0.06 0.5990811 0.45608696
v -0.21341166 0.52094007 0.829249
v 0.33341166 0.52094007 0.829249
v 0.06 0.5990811 0.87071145
v -0.21341166 0.52094007 1.2438736
v 0.33341166 0.52094007 1.2438736
v 0.06 0.5990811 1.285336
v -2.2472932 0.28651702 1.0780237
v -1.7004699 0.28651702 1.0780237
v -1.9738815 0.36465806 1.2438736
v 1.7004699 0.28651702 1.0780237
v 2.2472932 0.28651702 1.0780237
v 1.9738815 0.36465806 1.2438736
v -0.8613722 0.026047003 -0.24877469
v 0.9613722 0.026047003 -0.24877469
v 0.05 0.20837602 -0.19901976
v -0.40568608 0.026047003 0.99509877
v 0.5056861 0.026047003 0.99509877
v 0.05 0.24744652 1.0448537
v -0.77909774 0.18232903 -0.082924895
v -0.6423919 0.33861104 -0.033169955
v -0.77909774 0.13023502 -0.024877463
v -0.77909774 0.18232903 0.66339916
v -0.6423919 0.33861104 0.7131541
v -0.77909774 0.13023502 0.7214466
v 0.77909774 0.18232903 -0.082924895
v 0.6423919 0.33861104 -0.033169955
v 0.77909774 0.13023502 -0.024877463
v 0.77909774 0.18232903 0.66339916
v 0.6423919 0.33861104 0.7131541
v 0.77909774 0.13023502 0.7214466
v -0.4968233 0.57303405 -0.16584979
v 0.59682333 0.57303405 -0.16584979
v 0.05 0.7293161 -0.12438734
v -0.3327763 0.7032691 -0.14097232
v 0.43277633 0.7032691 -0.14097232
v 0.05 0.78141016 -0.11609485
v -0.08670583 0.6511751 1.5755731
v 0.18670583 0.6511751 1.5755731
v 0.05 0.78141016 1.6170355
v -0.04569408 0.75536317 1.6004505
v 0.14569408 0.75536317 1.6004505
v 0.05 0.8204806 1.6253281
v -0.2848038 0.57303405 0.16584979
v 0.2848038 0.57303405 0.16584979
v 0 0.6772221 0.19072726
v -0.2848038 0.5834529 0.46437943
v 0.2848038 0.5834529 0.46437943
v 0 0.6876409 0.4892569
v -0.2848038 0.59387165 0.7629091
v 0.2848038 0.59387165 0.7629091
v 0 0.6980596 0.7877866
v -0.2848038 0.6042905 1.0614388
v 0.2848038 0.6042905 1.0614388
v 0 0.70847845 1.0863162
v -0.2848038 0.61470926 1.3599684
v 0.2848038 0.61470926 1.3599684
v 0 0.7188973 1.3848459
v -0.2848038 0.6251281 1.658498
v 0.2848038 0.6251281 1.658498
v 0 0.7293161 1.6833755
v -2.1360288 0.28651702 0.91217387
v -1.6613556 0.28651702 0.91217387
v -1.8986921 0.36465806 1.0780237
v -2.1360288 0.28651702 1.2438736
v -1.6613556 0.28651702 1.2438736
v -1.8986921 0.36465806 1.4097234
v 1.6613556 0.28651702 0.91217387
v 2.1360288 0.28651702 0.91217387
v 1.8986921 0.36465806 1.0780237
v 1.6613556 0.28651702 1.2438736
v 2.1360288 0.28651702 1.2438736
v 1.8986921 0.36465806 1.4097234
v -0.23733652 0.75536305 0.33169958
v 0.23733652 0.75536305 0.33169958
v 0 0.8335041 0.3524308
v -0.23733652 0.75536305 0.5804743
v 0.23733652 0.75536305 0.5804743
v 0 0.8335041 0.6012055
v -0.23733652 0.75536305 0.82924896
v 0.23733652 0.75536305 0.82924896
v 0 0.8335041 0.8499802
v -0.24480382 0.28651702 3.7382545
v 0.3248038 0.28651702 3.7382545
v 0.04 0.57303405 4.06332
v -0.102401905 0.52094007 3.9414206
v 0.1824019 0.52094007 3.9414206
v 0.04 0.6251281 4.06332
v -0.33973843 1.1502357 0.49754938
v 0.4197384 1.1502357 0.49754938
v 0.04 1.2502562 0.66339916
v -0.3248038 0.54698706 -0.0829249
v -3.0779073 0.54698706 0.16584979
v -0.3248038 1.2502562 0.41462448
v 0.3248038 0.54698706 -0.0829249
v 3.0779073 0.54698706 0.16584979
v 0.3248038 1.2502562 0.41462448
v -2.6032345 0.44279906 0.4146245
v -2.4608326 0.49489304 0.49754938
v -2.6032345 0.39070508 0.66339916
v 2.6032345 0.44279906 0.4146245
v 2.4608326 0.49489304 0.49754938
v 2.6032345 0.39070508 0.66339916
v -0.5296076 0.07814101 -0.829249
v 0.60960764 0.07814101 -0.829249
v 0.04 0.18232903 -0.6633992
vn 0 -0.8862086 0.46328646
vn 0 -0.8862086 0.46328646
vn 0 -0.8862086 0.46328646
vn 0.15291837 -0.9871153 0.0471086
vn 0.15291837 -0.9871153 0.0471086
vn 0.15291837 -0.9871153 0.0471086
vn -0.30330938 -0.81735414 0.48983222
vn -0.30330938 -0.81735414 0.48983222
vn -0.30330938 -0.81735414 0.48983222
vn 0 0.99999994 0
vn 0 0.99999994 0
vn 0 0.99999994 0
vn 0 1 -0
vn 0 1 -0
vn 0 1 -0
vn 0 -0.7439093 0.66828066
vn 0 -0.7439093 0.66828066
vn 0 -0.7439093 0.66828066
vn 0.1863733 -0.98053336 0.061800778
vn 0.1863733 -0.98053336 0.061800778
vn 0.1863733 -0.98053336 0.061800778
vn -0.2549167 -0.94252056 0.21603806
vn -0.2549167 -0.94252056 0.21603806
vn -0.2549167 -0.94252056 0.21603806
vn 0 1 -0
vn 0 1 -0
vn 0 1 -0
vn 0 1 -0
vn 0 1 -0
vn 0 1 -0
vn 0 -0.66256976 0.74900013
vn 0 -0.66256976 0.74900013
vn 0 -0.66256976 0.74900013
vn 0.19683915 -0.97731316 0.078187495
vn 0.19683915 -0.97731316 0.078187495
vn 0.19683915 -0.97731316 0.078187495
vn -0.19392511 -0.97798747 -0.07702996
vn -0.19392511 -0.97798747 -0.07702996
vn -0.19392511 -0.97798747 -0.07702996
vn 0 1 -0
vn 0 1 -0
vn 0 1 -0
vn 0 1 0
vn 0 1 0
vn 0 1 0
vn 0 -0.66256994 0.7490001
vn 0 -0.66256994 0.7490001
vn 0 -0.66256994 0.7490001
vn 0.19268134 -0.976284 0.09870899
vn 0.19268134 -0.976284 0.09870899
vn 0.19268134 -0.976284 0.09870899
vn -0.13279971 -0.9764469 -0.17004606
vn -0.13279971 -0.9764469 -0.17004606
vn -0.13279971 -0.9764469 -0.17004606
vn 0 1 -0
vn 0 1 -0
vn 0 1 -0
vn 0 0.99999994 0
vn 0 0.99999994 0
vn 0 0.99999994 0
vn 0 -0.74390906 0.66828084
vn 0 -0.74390906 0.66828084
vn 0 -0.74390906 0.66828084
vn 0.1944502 -0.9754007 -0.10383965
vn 0.1944502 -0.9754007 -0.10383965
vn 0.1944502 -0.9754007 -0.10383965
vn -0.08171059 -0.97394174 -0.21156779
vn -0.08171059 -0.97394174 -0.21156779
vn -0.08171059 -0.97394174 -0.21156779
vn 0 1 0
vn 0 1 0
vn 0 1 0
vn 0 1 0
vn 0 1 0
vn 0 1 0
vn 0 0 -1
vn 0 0 -1
vn 0 0 -1
vn -0 0 -1
vn -0 0 -1
vn -0 0 -1
vn 0 0 -1
vn 0 0 -1
vn 0 0 -1
vn -0 0 -1
vn -0 0 -1
vn -0 0 -1
vn 0 -0.3961685 0.9181778
vn 0 -0.3961685 0.9181778
vn 0 -0.3961685 0.9181778
vn 0.2588597 -0.26523867 -0.9287842
vn 0.2588597 -0.26523867 -0.9287842
vn 0.2588597 -0.26523867 -0.9287842
vn -0.32030448 -0.13268612 0.9379763
vn -0.32030448 -0.13268612 0.9379763
vn -0.32030448 -0.13268612 0.9379763
vn 0 1 0
vn 0 1 0
vn 0 1 0
vn 0 1 -0
vn 0 1 -0
vn 0 1 -0
vn 0 -0.29532707 0.95539623
vn 0 -0.29532707 0.95539623
vn 0 -0.29532707 0.95539623
vn 0.15438665 -0.49845544 0.8530575
vn 0.15438665 -0.49845544 0.8530575
vn 0.15438665 -0.49845544 0.8530575
vn -0.16686565 -0.4185174 -0.892748
vn -0.16686565 -0.4185174 -0.892748
vn -0.16686565 -0.4185174 -0.892748
vn 0 1 -0
vn 0 1 -0
vn 0 1 -0
vn 0 1 0
vn 0 1 0
vn 0 1 0
vn -0.16681726 -0.9484892 -0.26933295
vn -0.16681726 -0.9484892 -0.26933295
vn -0.16681726 -0.9484892 -0.26933295
vn -0.061140515 -0.9932359 -0.09871374
vn -0.061140515 -0.9932359 -0.09871374
vn -0.061140515 -0.9932359 -0.09871374
vn 0.06093063 -0.9069894 -0.41672254
vn 0.06093063 -0.9069894 -0.41672254
vn 0.06093063 -0.9069894 -0.41672254
vn 0.023208147 -0.9870496 -0.15872738
vn 0.023208147 -0.9870496 -0.15872738
vn 0.023208147 -0.9870496 -0.15872738
vn 0.21243377 -0.9771755 2.1984519E-08
vn 0.21243377 -0.9771755 2.1984519E-08
vn 0.21243377 -0.9771755 2.1984519E-08
vn 0.07586921 -0.9971178 1.1216591E-08
vn 0.07586921 -0.9971178 1.1216591E-08
vn 0.07586921 -0.9971178 1.1216591E-08
vn 0.06093058 -0.9069894 0.41672254
vn 0.06093058 -0.9069894 0.41672254
vn 0.06093058 -0.9069894 0.41672254
vn 0.023208132 -0.9870496 0.15872738
vn 0.023208132 -0.9870496 0.15872738
vn 0.023208132 -0.9870496 0.15872738
vn -0.16681728 -0.9484892 0.2693329
vn -0.16681728 -0.9484892 0.2693329
vn -0.16681728 -0.9484892 0.2693329
vn -0.06114052 -0.9932359 0.098713726
vn -0.06114052 -0.9932359 0.098713726
vn -0.06114052 -0.9932359 0.098713726
vn -0.30870613 -0.810111 -0.4984182
vn -0.30870613 -0.810111 -0.4984182
vn -0.30870613 -0.810111 -0.4984182
vn -0.12929022 -0.9693863 -0.20874414
vn -0.12929022 -0.9693863 -0.20874414
vn -0.12929022 -0.9693863 -0.20874414
vn 0.10261047 -0.70496225 -0.701783
vn 0.10261047 -0.70496225 -0.701783
vn 0.10261047 -0.70496225 -0.701783
vn 0.048052065 -0.94323134 -0.3286422
vn 0.048052065 -0.94323134 -0.3286422
vn 0.048052065 -0.94323134 -0.3286422
vn 0.42611974 -0.9046667 1.4332065E-07
vn 0.42611974 -0.9046667 1.4332065E-07
vn 0.42611974 -0.9046667 1.4332065E-07
vn 0.1626628 -0.98668176 5.210459E-08
vn 0.1626628 -0.98668176 5.210459E-08
vn 0.1626628 -0.98668176 5.210459E-08
vn 0.10261047 -0.7049622 0.70178294
vn 0.10261047 -0.7049622 0.70178294
vn 0.10261047 -0.7049622 0.70178294
vn 0.04805207 -0.9432313 0.3286422
vn 0.04805207 -0.9432313 0.3286422
vn 0.04805207 -0.9432313 0.3286422
vn -0.30870613 -0.810111 0.49841806
vn -0.30870613 -0.810111 0.49841806
vn -0.30870613 -0.810111 0.49841806
vn -0.12929022 -0.9693863 0.2087441
vn -0.12929022 -0.9693863 0.2087441
vn -0.12929022 -0.9693863 0.2087441
vn 0 -0.3118308 0.9501377
vn 0 -0.3118308 0.9501377
vn 0 -0.3118308 0.9501377
vn 0.82205683 -0.56739956 0.047753282
vn 0.82205683 -0.56739956 0.047753282
vn 0.82205683 -0.56739956 0.047753282
vn -0.865581 -0.49900487 0.04199707
vn -0.865581 -0.49900487 0.04199707
vn -0.865581 -0.49900487 0.04199707
vn 0 1 0
vn 0 1 0
vn 0 1 0
vn 0 1 -0
vn 0 1 -0
vn 0 1 -0
vn 0 -0.27881384 0.96034515
vn 0 -0.27881384 0.96034515
vn 0 -0.27881384 0.96034515
vn 0.85342443 -0.51938045 0.043711957
vn 0.85342443 -0.51938045 0.043711957
vn 0.85342443 -0.51938045 0.043711957
vn -0.88712704 -0.45989951 0.038705938
vn -0.88712704 -0.45989951 0.038705938
vn -0.88712704 -0.45989951 0.038705938
vn 0 1 0
vn 0 1 0
vn 0 1 0
vn 0 1 -0
vn 0 1 -0
vn 0 1 -0
vn 0 -0.99928665 0.037764758
vn 0 -0.99928665 0.037764758
vn 0 -0.99928665 0.037764758
vn 0 -0.99928665 0.037764758
vn 0 -0.99928665 0.037764758
vn 0 -0.99928665 0.037764758
vn 0 -0.99928665 0.037764758
vn 0 -0.99928665 0.037764758
vn 0 -0.99928665 0.037764758
vn 0.03103443 -0.6651005 -0.7461086
vn 0.03103443 -0.6651005 -0.7461086
vn 0.03103443 -0.6651005 -0.7461086
vn 0.047684908 -0.62888694 -0.7760331
vn 0.047684908 -0.62888694 -0.7760331
vn 0.047684908 -0.62888694 -0.7760331
vn 0.0624841 -0.59515756 -0.80117613
vn 0.0624841 -0.59515756 -0.80117613
vn 0.0624841 -0.59515756 -0.80117613
vn 0.03103443 0.6651005 0.7461086
vn 0.03103443 0.6651005 0.7461086
vn 0.03103443 0.6651005 0.7461086
vn 0.047684908 0.62888694 0.7760331
vn 0.047684908 0.62888694 0.7760331
vn 0.047684908 0.62888694 0.7760331
vn 0.0624841 0.59515756 0.80117613
vn 0.0624841 0.59515756 0.80117613
vn 0.0624841 0.59515756 0.80117613
vn 0 -0.46871454 0.8833496
vn 0 -0.46871454 0.8833496
vn 0 -0.46871454 0.8833496
vn 0 -0.46871433 0.8833498
vn 0 -0.46871433 0.8833498
vn 0 -0.46871433 0.8833498
vn 0 -0.46871433 0.8833498
vn 0 -0.46871433 0.8833498
vn 0 -0.46871433 0.8833498
vn 0 -0.90462106 0.42621684
vn 0 -0.90462106 0.42621684
vn 0 -0.90462106 0.42621684
vn 0 -0.90462106 0.42621684
vn 0 -0.90462106 0.42621684
vn 0 -0.90462106 0.42621684
vn 0 -0.2632594 0.9647251
vn 0 -0.2632594 0.9647251
vn 0 -0.2632594 0.9647251
vn 0 -0.21926062 0.9756662
vn 0 -0.21926062 0.9756662
vn 0 -0.21926062 0.9756662
vn 0.73807687 -0.5021519 -0.45065057
vn 0.73807687 -0.5021519 -0.45065057
vn 0.73807687 -0.5021519 -0.45065057
vn 0.73807687 -0.5021519 -0.45065075
vn 0.73807687 -0.5021519 -0.45065075
vn 0.73807687 -0.5021519 -0.45065075
vn 0.73807687 0.5021519 0.45065057
vn 0.73807687 0.5021519 0.45065057
vn 0.73807687 0.5021519 0.45065057
vn 0.73807687 0.5021519 0.45065075
vn 0.73807687 0.5021519 0.45065075
vn 0.73807687 0.5021519 0.45065075
vn 0 -0.25643387 0.9665617
vn 0 -0.25643387 0.9665617
vn 0 -0.25643387 0.9665617
vn 0 -0.30336323 0.95287496
vn 0 -0.30336323 0.95287496
vn 0 -0.30336323 0.95287496
vn 0 -0.30336303 0.952875
vn 0 -0.30336303 0.952875
vn 0 -0.30336303 0.952875
vn 0 -0.35688356 0.9341489
vn 0 -0.35688356 0.9341489
vn 0 -0.35688356 0.9341489
vn 0 -0.23224601 0.97265714
vn 0 -0.23224601 0.97265714
vn 0 -0.23224601 0.97265714
vn 0 -0.23224586 0.97265714
vn 0 -0.23224586 0.97265714
vn 0 -0.23224586 0.97265714
vn 0 -0.23224626 0.9726571
vn 0 -0.23224626 0.9726571
vn 0 -0.23224626 0.9726571
vn 0 -0.23224573 0.9726572
vn 0 -0.23224573 0.9726572
vn 0 -0.23224573 0.9726572
vn 0 -0.2322456 0.97265714
vn 0 -0.2322456 0.97265714
vn 0 -0.2322456 0.97265714
vn 0 -0.2322456 0.97265714
vn 0 -0.2322456 0.97265714
vn 0 -0.2322456 0.97265714
vn 0 -0.90462095 0.42621702
vn 0 -0.90462095 0.42621702
vn 0 -0.90462095 0.42621702
vn 0 -0.90462095 0.42621702
vn 0 -0.90462095 0.42621702
vn 0 -0.90462095 0.42621702
vn 0 -0.90462095 0.42621702
vn 0 -0.90462095 0.42621702
vn 0 -0.90462095 0.42621702
vn 0 -0.90462095 0.42621702
vn 0 -0.90462095 0.42621702
vn 0 -0.90462095 0.42621702
vn 0 -0.25643373 0.9665618
vn 0 -0.25643373 0.9665618
vn 0 -0.25643373 0.9665618
vn 0 -0.25643373 0.9665618
vn 0 -0.25643373 0.9665618
vn 0 -0.25643373 0.9665618
vn 0 -0.25643373 0.9665618
vn 0 -0.25643373 0.9665618
vn 0 -0.25643373 0.9665618
vn 0 -0.7501875 0.661225
vn 0 -0.7501875 0.661225
vn 0 -0.7501875 0.661225
vn 0 -0.76017207 0.6497218
vn 0 -0.76017207 0.6497218
vn 0 -0.76017207 0.6497218
vn 0 -0.85632753 0.5164332
vn 0 -0.85632753 0.5164332
vn 0 -0.85632753 0.5164332
vn -0.073566996 0.57598877 -0.8141405
vn -0.073566996 0.57598877 -0.8141405
vn -0.073566996 0.57598877 -0.8141405
vn -0.073566996 -0.57598877 0.8141405
vn -0.073566996 -0.57598877 0.8141405
vn -0.073566996 -0.57598877 0.8141405
vn 0.43083048 -0.88327515 -0.18495984
vn 0.43083048 -0.88327515 -0.18495984
vn 0.43083048 -0.88327515 -0.18495984
vn 0.43083048 0.88327515 0.18495984
vn 0.43083048 0.88327515 0.18495984
vn 0.43083048 0.88327515 0.18495984
vn 0 -0.8467756 0.5319504
vn 0 -0.8467756 0.5319504
vn 0 -0.8467756 0.5319504
f 1//1 2//2 3//3
f 4//4 5//5 6//6
f 7//7 8//8 9//9
f 10//10 11//11 12//12
f 13//13 14//14 15//15
f 16//16 17//17 18//18
f 19//19 20//20 21//21
f 22//22 23//23 24//24
f 25//25 26//26 27//27
f 28//28 29//29 30//30
f 31//31 32//32 33//33
f 34//34 35//35 36//36
f 37//37 38//38 39//39
f 40//40 41//41 42//42
f 43//43 44//44 45//45
f 46//46 47//47 48//48
f 49//49 50//50 51//51
f 52//52 53//53 54//54
f 55//55 56//56 57//57
f 58//58 59//59 60//60
f 61//61 62//62 63//63
f 64//64 65//65 66//66
f 67//67 68//68 69//69
f 70//70 71//71 72//72
f 73//73 74//74 75//75
f 76//76 77//77 78//78
f 79//79 80//80 81//81
f 82//82 83//83 84//84
f 85//85 86//86 87//87
f 88//88 89//89 90//90
f 91//91 92//92 93//93
f 94//94 95//95 96//96
f 97//97 98//98 99//99
f 100//100 101//101 102//102
f 103//103 104//104 105//105
f 106//106 107//107 108//108
f 109//109 110//110 111//111
f 112//112 113//113 114//114
f 115//115 116//116 117//117
f 118//118 119//119 120//120
f 121//121 122//122 123//123
f 124//124 125//125 126//126
f 127//127 128//128 129//129
f 130//130 131//131 132//132
f 133//133 134//134 135//135
f 136//136 137//137 138//138
f 139//139 140//140 141//141
f 142//142 143//143 144//144
f 145//145 146//146 147//147
f 148//148 149//149 150//150
f 151//151 152//152 153//153
f 154//154 155//155 156//156
f 157//157 158//158 159//159
f 160//160 161//161 162//162
f 163//163 164//164 165//165
f 166//166 167//167 168//168
f 169//169 170//170 171//171
f 172//172 173//173 174//174
f 175//175 176//176 177//177
f 178//178 179//179 180//180
f 181//181 182//182 183//183
f 184//184 185//185 186//186
f 187//187 188//188 189//189
f 190//190 191//191 192//192
f 193//193 194//194 195//195
f 196//196 197//197 198//198
f 199//199 200//200 201//201
f 202//202 203//203 204//204
f 205//205 206//206 207//207
f 208//208 209//209 210//210
f 211//211 212//212 213//213
f 214//214 215//215 216//216
f 217//217 218//218 219//219
f 220//220 221//221 222//222
f 223//223 224//224 225//225
f 226//226 227//227 228//228
f 229//229 230//230 231//231
f 232//232 233//233 234//234
f 235//235 236//236 237//237
f 238//238 239//239 240//240
f 241//241 242//242 243//243
f 244//244 245//245 246//246
f 247//247 248//248 249//249
f 250//250 251//251 252//252
f 253//253 254//254 255//255
f 256//256 257//257 258//258
f 259//259 260//260 261//261
f 262//262 263//263 264//264
f 265//265 266//266 267//267
f 268//268 269//269 270//270
f 271//271 272//272 273//273
f 274//274 275//275 276//276
f 277//277 278//278 279//279
f 280//280 281//281 282//282
f 283//283 284//284 285//285
f 286//286 287//287 288//288
f 289//289 290//290 291//291
f 292//292 293//293 294//294
f 295//295 296//296 297//297
f 298//298 299//299 300//300
f 301//301 302//302 303//303
f 304//304 305//305 306//306
f 307//307 308//308 309//309
f 310//310 311//311 312//312
f 313//313 314//314 315//315
f 316//316 317//317 318//318
f 319//319 320//320 321//321
f 322//322 323//323 324//324
f 325//325 326//326 327//327
f 328//328 329//329 330//330
f 331//331 332//332 333//333
f 334//334 335//335 336//336
f 337//337 338//338 339//339
f 340//340 341//341 342//342
