# Exported from SharpOpenGl procedural mesh
o defense_turret
# vertices 69
v 0 1.1956 0
v -1.3664001 0 -1.1956
v 1.3664001 0 -1.1956
v -1.3664001 0 -1.1956
v 1.3664001 0 1.1956
v 1.3664001 0 -1.1956
v -1.3664001 0 -1.1956
v -1.3664001 0 1.1956
v 1.3664001 0 1.1956
v 0 0.51240003 1.8788002
v -0.40992 0.34160003 1.1956
v 0.40992 0.34160003 1.1956
v 0 0.51240003 1.8788002
v 0.40992 0.34160003 1.1956
v 0 0.51240003 2.562
v 4.4408 0.355264 0
v 3.5926828 0.355264 2.610237
v 3.9079041 0 0
v 3.5926828 0.355264 2.610237
v 1.3722826 0.355264 4.223452
v 3.1615608 0 2.2970085
v 1.3722826 0.355264 4.223452
v -1.3722829 0.355264 4.2234516
v 1.2076087 0 3.7166378
v -1.3722829 0.355264 4.2234516
v -3.592683 0.355264 2.6102366
v -1.2076089 0 3.7166374
v -3.592683 0.355264 2.6102366
v -4.4408 0.355264 -3.8822708E-07
v -3.161561 0 2.2970083
v -4.4408 0.355264 -3.8822708E-07
v -3.5926826 0.355264 -2.6102374
v -3.9079041 0 -3.4163983E-07
v -3.5926826 0.355264 -2.6102374
v -1.3722812 0.355264 -4.223452
v -3.1615608 0 -2.2970088
v -1.3722812 0.355264 -4.223452
v 1.3722833 0.355264 -4.2234516
v -1.2076074 0 -3.7166378
v 1.3722833 0.355264 -4.2234516
v 3.5926826 0.355264 -2.6102371
v 1.2076093 0 -3.7166374
v 3.5926826 0.355264 -2.6102371
v 4.4408 0.355264 7.7645416E-07
v 3.1615608 0 -2.2970088
v 4.91904 0.81984 0
v 5.124 1.09312 0
v 4.91904 1.09312 0.20496
v 2.45952 0.81984 4.260014
v 2.6644802 1.09312 4.260014
v 2.45952 1.09312 4.464974
v -2.4595206 0.81984 4.2600136
v -2.2545605 1.09312 4.2600136
v -2.4595206 1.09312 4.4649734
v -4.91904 0.81984 -4.3003618E-07
v -4.7140803 1.09312 -4.3003618E-07
v -4.91904 1.09312 0.20495957
v -2.4595196 0.81984 -4.260014
v -2.2545595 1.09312 -4.260014
v -2.4595196 1.09312 -4.055054
v 2.459522 0.81984 -4.260013
v 2.664482 1.09312 -4.260013
v 2.459522 1.09312 -4.055053
v -0.54656 1.3664001 4.4408
v -0.27328 1.0248001 5.8072004
v -0.81984 1.0248001 5.8072004
v 0.54656 1.3664001 4.4408
v 0.81984 1.0248001 5.8072004
v 0.27328 1.0248001 5.8072004
vn 0 -0.70710677 0.70710677
vn 0 -0.70710677 0.70710677
vn 0 -0.70710677 0.70710677
vn 0 1 0
vn 0 1 0
vn 0 1 0
vn 0 1 0
vn 0 1 0
vn 0 1 0
vn 0 -0.97014254 0.24253558
vn 0 -0.97014254 0.24253558
vn 0 -0.97014254 0.24253558
vn -0.38461536 -0.9230769 0
vn -0.38461536 -0.9230769 0
vn -0.38461536 -0.9230769 0
vn 0.54590446 -0.8188567 0.1773751
vn 0.54590446 -0.8188567 0.1773751
vn 0.54590446 -0.8188567 0.1773751
vn 0.33738753 -0.8188568 0.4643741
vn 0.33738753 -0.8188568 0.4643741
vn 0.33738753 -0.8188568 0.4643741
vn -9.9725646E-08 -0.8188567 0.573998
vn -9.9725646E-08 -0.8188567 0.573998
vn -9.9725646E-08 -0.8188567 0.573998
vn -0.33738747 -0.8188568 0.4643741
vn -0.33738747 -0.8188568 0.4643741
vn -0.33738747 -0.8188568 0.4643741
vn -0.54590446 -0.8188568 0.17737503
vn -0.54590446 -0.8188568 0.17737503
vn -0.54590446 -0.8188568 0.17737503
vn -0.54590446 -0.8188567 -0.17737515
vn -0.54590446 -0.8188567 -0.17737515
vn -0.54590446 -0.8188567 -0.17737515
vn -0.33738735 -0.8188568 -0.4643742
vn -0.33738735 -0.8188568 -0.4643742
vn -0.33738735 -0.8188568 -0.4643742
vn 9.972568E-08 -0.8188568 -0.57399803
vn 9.972568E-08 -0.8188568 -0.57399803
vn 9.972568E-08 -0.8188568 -0.57399803
vn 0.33738747 -0.8188568 -0.46437404
vn 0.33738747 -0.8188568 -0.46437404
vn 0.33738747 -0.8188568 -0.46437404
vn 0.54590464 -0.81885666 -0.17737514
vn 0.54590464 -0.81885666 -0.17737514
vn 0.54590464 -0.81885666 -0.17737514
vn 0.62469524 -0.46852118 0.6246948
vn 0.62469524 -0.46852118 0.6246948
vn 0.62469524 -0.46852118 0.6246948
vn 0.6246947 -0.46852133 0.6246954
vn 0.6246947 -0.46852133 0.6246954
vn 0.6246947 -0.46852133 0.6246954
vn 0.6246947 -0.46852133 0.6246954
vn 0.6246947 -0.46852133 0.6246954
vn 0.6246947 -0.46852133 0.6246954
vn 0.62469524 -0.46852118 0.6246948
vn 0.62469524 -0.46852118 0.6246948
vn 0.62469524 -0.46852118 0.6246948
vn 0.6246947 -0.46852133 0.6246954
vn 0.6246947 -0.46852133 0.6246954
vn 0.6246947 -0.46852133 0.6246954
vn 0.6246947 -0.46852133 0.6246954
vn 0.6246947 -0.46852133 0.6246954
vn 0.6246947 -0.46852133 0.6246954
vn 0 -0.9701424 -0.2425356
vn 0 -0.9701424 -0.2425356
vn 0 -0.9701424 -0.2425356
vn 0 -0.9701424 -0.2425356
vn 0 -0.9701424 -0.2425356
vn 0 -0.9701424 -0.2425356
f 1//1 2//2 3//3
f 4//4 5//5 6//6
f 7//7 8//8 9//9
f 10//10 11//11 12//12
f 13//13 14//14 15//15
f 16//16 17//17 18//18
f 19//19 20//20 21//21
f 22//22 23//23 24//24
f 25//25 26//26 27//27
f 28//28 29//29 30//30
f 31//31 32//32 33//33
f 34//34 35//35 36//36
f 37//37 38//38 39//39
f 40//40 41//41 42//42
f 43//43 44//44 45//45
f 46//46 47//47 48//48
f 49//49 50//50 51//51
f 52//52 53//53 54//54
f 55//55 56//56 57//57
f 58//58 59//59 60//60
f 61//61 62//62 63//63
f 64//64 65//65 66//66
f 67//67 68//68 69//69
