# Exported from SharpOpenGl procedural mesh
o power_reactor
# vertices 135
v 1.952 0 0
v 1.3802725 0 1.3802725
v 0 2.44 0
v 1.952 0 0
v 1.3802725 0 1.3802725
v 0 0 0
v 1.3802725 0 1.3802725
v -8.5324636E-08 0 1.952
v 0 2.44 0
v 1.3802725 0 1.3802725
v -8.5324636E-08 0 1.952
v 0 0 0
v -8.5324636E-08 0 1.952
v -1.3802725 0 1.3802725
v 0 2.44 0
v -8.5324636E-08 0 1.952
v -1.3802725 0 1.3802725
v 0 0 0
v -1.3802725 0 1.3802725
v -1.952 0 -1.7064927E-07
v 0 2.44 0
v -1.3802725 0 1.3802725
v -1.952 0 -1.7064927E-07
v 0 0 0
v -1.952 0 -1.7064927E-07
v -1.3802723 0 -1.3802727
v 0 2.44 0
v -1.952 0 -1.7064927E-07
v -1.3802723 0 -1.3802727
v 0 0 0
v -1.3802723 0 -1.3802727
v 2.3277368E-08 0 -1.952
v 0 2.44 0
v -1.3802723 0 -1.3802727
v 2.3277368E-08 0 -1.952
v 0 0 0
v 2.3277368E-08 0 -1.952
v 1.3802729 0 -1.380272
v 0 2.44 0
v 2.3277368E-08 0 -1.952
v 1.3802729 0 -1.380272
v 0 0 0
v 1.3802729 0 -1.380272
v 1.952 0 3.4129854E-07
v 0 2.44 0
v 1.3802729 0 -1.380272
v 1.952 0 3.4129854E-07
v 0 0 0
v 0 2.5376 0
v -0.3904 3.0256002 0
v 0.3904 3.0256002 0
v 4.4408 0.355264 0
v 3.5926828 0.355264 2.610237
v 3.9079041 0 0
v 3.5926828 0.355264 2.610237
v 1.3722826 0.355264 4.223452
v 3.1615608 0 2.2970085
v 1.3722826 0.355264 4.223452
v -1.3722829 0.355264 4.2234516
v 1.2076087 0 3.7166378
v -1.3722829 0.355264 4.2234516
v -3.592683 0.355264 2.6102366
v -1.2076089 0 3.7166374
v -3.592683 0.355264 2.6102366
v -4.4408 0.355264 -3.8822708E-07
v -3.161561 0 2.2970083
v -4.4408 0.355264 -3.8822708E-07
v -3.5926826 0.355264 -2.6102374
v -3.9079041 0 -3.4163983E-07
v -3.5926826 0.355264 -2.6102374
v -1.3722812 0.355264 -4.223452
v -3.1615608 0 -2.2970088
v -1.3722812 0.355264 -4.223452
v 1.3722833 0.355264 -4.2234516
v -1.2076074 0 -3.7166378
v 1.3722833 0.355264 -4.2234516
v 3.5926826 0.355264 -2.6102371
v 1.2076093 0 -3.7166374
v 3.5926826 0.355264 -2.6102371
v 4.4408 0.355264 7.7645416E-07
v 3.1615608 0 -2.2970088
v 4.91904 0.81984 0
v 5.124 1.09312 0
v 4.91904 1.09312 0.20496
v 2.45952 0.81984 4.260014
v 2.6644802 1.09312 4.260014
v 2.45952 1.09312 4.464974
v -2.4595206 0.81984 4.2600136
v -2.2545605 1.09312 4.2600136
v -2.4595206 1.09312 4.4649734
v -4.91904 0.81984 -4.3003618E-07
v -4.7140803 1.09312 -4.3003618E-07
v -4.91904 1.09312 0.20495957
v -2.4595196 0.81984 -4.260014
v -2.2545595 1.09312 -4.260014
v -2.4595196 1.09312 -4.055054
v 2.459522 0.81984 -4.260013
v 2.664482 1.09312 -4.260013
v 2.459522 1.09312 -4.055053
v 3.4160001 3.55264 0
v 2.9583428 3.55264 1.7080001
v 0 3.96256 0
v 2.9583428 3.55264 1.7080001
v 1.708 3.55264 2.958343
v 0 3.96256 0
v 1.708 3.55264 2.958343
v -1.4931811E-07 3.55264 3.4160001
v 0 3.96256 0
v -1.4931811E-07 3.55264 3.4160001
v -1.7080003 3.55264 2.9583428
v 0 3.96256 0
v -1.7080003 3.55264 2.9583428
v -2.9583433 3.55264 1.7079995
v 0 3.96256 0
v -2.9583433 3.55264 1.7079995
v -3.4160001 3.55264 -2.9863622E-07
v 0 3.96256 0
v -3.4160001 3.55264 -2.9863622E-07
v -2.9583423 3.55264 -1.7080007
v 0 3.96256 0
v -2.9583423 3.55264 -1.7080007
v -1.7079997 3.55264 -2.958343
v 0 3.96256 0
v -1.7079997 3.55264 -2.958343
v 4.0735394E-08 3.55264 -3.4160001
v 0 3.96256 0
v 4.0735394E-08 3.55264 -3.4160001
v 1.7080013 3.55264 -2.9583423
v 0 3.96256 0
v 1.7080013 3.55264 -2.9583423
v 2.9583435 3.55264 -1.7079992
v 0 3.96256 0
v 2.9583435 3.55264 -1.7079992
v 3.4160001 3.55264 5.9727245E-07
v 0 3.96256 0
vn -0.7429714 -0.59437716 -0.3077488
vn -0.7429714 -0.59437716 -0.3077488
vn -0.7429714 -0.59437716 -0.3077488
vn 0 -1 0
vn 0 -1 0
vn 0 -1 0
vn -0.30774873 -0.5943771 -0.7429714
vn -0.30774873 -0.5943771 -0.7429714
vn -0.30774873 -0.5943771 -0.7429714
vn -0 -1 0
vn -0 -1 0
vn -0 -1 0
vn 0.3077488 -0.59437716 -0.74297136
vn 0.3077488 -0.59437716 -0.74297136
vn 0.3077488 -0.59437716 -0.74297136
vn 0 -1 -0
vn 0 -1 -0
vn 0 -1 -0
vn 0.7429714 -0.5943771 -0.30774873
vn 0.7429714 -0.5943771 -0.30774873
vn 0.7429714 -0.5943771 -0.30774873
vn 0 -1 -0
vn 0 -1 -0
vn 0 -1 -0
vn 0.74297136 -0.5943771 0.30774885
vn 0.74297136 -0.5943771 0.30774885
vn 0.74297136 -0.5943771 0.30774885
vn 0 -0.99999994 0
vn 0 -0.99999994 0
vn 0 -0.99999994 0
vn 0.30774873 -0.59437716 0.7429714
vn 0.30774873 -0.59437716 0.7429714
vn 0.30774873 -0.59437716 0.7429714
vn 0 -1 0
vn 0 -1 0
vn 0 -1 0
vn -0.30774894 -0.59437704 0.74297136
vn -0.30774894 -0.59437704 0.74297136
vn -0.30774894 -0.59437704 0.74297136
vn 0 -1 0
vn 0 -1 0
vn 0 -1 0
vn -0.7429715 -0.59437716 0.30774868
vn -0.7429715 -0.59437716 0.30774868
vn -0.7429715 -0.59437716 0.30774868
vn 0 -1 0
vn 0 -1 0
vn 0 -1 0
vn 0 0 -1
vn 0 0 -1
vn 0 0 -1
vn 0.54590446 -0.8188567 0.1773751
vn 0.54590446 -0.8188567 0.1773751
vn 0.54590446 -0.8188567 0.1773751
vn 0.33738753 -0.8188568 0.4643741
vn 0.33738753 -0.8188568 0.4643741
vn 0.33738753 -0.8188568 0.4643741
vn -9.9725646E-08 -0.8188567 0.573998
vn -9.9725646E-08 -0.8188567 0.573998
vn -9.9725646E-08 -0.8188567 0.573998
vn -0.33738747 -0.8188568 0.4643741
vn -0.33738747 -0.8188568 0.4643741
vn -0.33738747 -0.8188568 0.4643741
vn -0.54590446 -0.8188568 0.17737503
vn -0.54590446 -0.8188568 0.17737503
vn -0.54590446 -0.8188568 0.17737503
vn -0.54590446 -0.8188567 -0.17737515
vn -0.54590446 -0.8188567 -0.17737515
vn -0.54590446 -0.8188567 -0.17737515
vn -0.33738735 -0.8188568 -0.4643742
vn -0.33738735 -0.8188568 -0.4643742
vn -0.33738735 -0.8188568 -0.4643742
vn 9.972568E-08 -0.8188568 -0.57399803
vn 9.972568E-08 -0.8188568 -0.57399803
vn 9.972568E-08 -0.8188568 -0.57399803
vn 0.33738747 -0.8188568 -0.46437404
vn 0.33738747 -0.8188568 -0.46437404
vn 0.33738747 -0.8188568 -0.46437404
vn 0.54590464 -0.81885666 -0.17737514
vn 0.54590464 -0.81885666 -0.17737514
vn 0.54590464 -0.81885666 -0.17737514
vn 0.62469524 -0.46852118 0.6246948
vn 0.62469524 -0.46852118 0.6246948
vn 0.62469524 -0.46852118 0.6246948
vn 0.6246947 -0.46852133 0.6246954
vn 0.6246947 -0.46852133 0.6246954
vn 0.6246947 -0.46852133 0.6246954
vn 0.6246947 -0.46852133 0.6246954
vn 0.6246947 -0.46852133 0.6246954
vn 0.6246947 -0.46852133 0.6246954
vn 0.62469524 -0.46852118 0.6246948
vn 0.62469524 -0.46852118 0.6246948
vn 0.62469524 -0.46852118 0.6246948
vn 0.6246947 -0.46852133 0.6246954
vn 0.6246947 -0.46852133 0.6246954
vn 0.6246947 -0.46852133 0.6246954
vn 0.6246947 -0.46852133 0.6246954
vn 0.6246947 -0.46852133 0.6246954
vn 0.6246947 -0.46852133 0.6246954
vn -0.11908454 -0.99237126 -0.031908613
vn -0.11908454 -0.99237126 -0.031908613
vn -0.11908454 -0.99237126 -0.031908613
vn -0.08717593 -0.99237114 -0.08717592
vn -0.08717593 -0.99237114 -0.08717592
vn -0.08717593 -0.99237114 -0.08717592
vn -0.031908598 -0.99237126 -0.11908454
vn -0.031908598 -0.99237126 -0.11908454
vn -0.031908598 -0.99237126 -0.11908454
vn 0.031908613 -0.9923712 -0.11908454
vn 0.031908613 -0.9923712 -0.11908454
vn 0.031908613 -0.9923712 -0.11908454
vn 0.08717594 -0.9923712 -0.08717592
vn 0.08717594 -0.9923712 -0.08717592
vn 0.08717594 -0.9923712 -0.08717592
vn 0.119084544 -0.99237126 -0.031908583
vn 0.119084544 -0.99237126 -0.031908583
vn 0.119084544 -0.99237126 -0.031908583
vn 0.11908454 -0.9923712 0.031908643
vn 0.11908454 -0.9923712 0.031908643
vn 0.11908454 -0.9923712 0.031908643
vn 0.08717592 -0.99237114 0.08717593
vn 0.08717592 -0.99237114 0.08717593
vn 0.08717592 -0.99237114 0.08717593
vn 0.031908605 -0.99237126 0.119084544
vn 0.031908605 -0.99237126 0.119084544
vn 0.031908605 -0.99237126 0.119084544
vn -0.031908624 -0.99237126 0.11908453
vn -0.031908624 -0.99237126 0.11908453
vn -0.031908624 -0.99237126 0.11908453
vn -0.08717594 -0.99237114 0.08717589
vn -0.08717594 -0.99237114 0.08717589
vn -0.08717594 -0.99237114 0.08717589
vn -0.119084544 -0.99237126 0.031908568
vn -0.119084544 -0.99237126 0.031908568
vn -0.119084544 -0.99237126 0.031908568
f 1//1 2//2 3//3
f 4//4 5//5 6//6
f 7//7 8//8 9//9
f 10//10 11//11 12//12
f 13//13 14//14 15//15
f 16//16 17//17 18//18
f 19//19 20//20 21//21
f 22//22 23//23 24//24
f 25//25 26//26 27//27
f 28//28 29//29 30//30
f 31//31 32//32 33//33
f 34//34 35//35 36//36
f 37//37 38//38 39//39
f 40//40 41//41 42//42
f 43//43 44//44 45//45
f 46//46 47//47 48//48
f 49//49 50//50 51//51
f 52//52 53//53 54//54
f 55//55 56//56 57//57
f 58//58 59//59 60//60
f 61//61 62//62 63//63
f 64//64 65//65 66//66
f 67//67 68//68 69//69
f 70//70 71//71 72//72
f 73//73 74//74 75//75
f 76//76 77//77 78//78
f 79//79 80//80 81//81
f 82//82 83//83 84//84
f 85//85 86//86 87//87
f 88//88 89//89 90//90
f 91//91 92//92 93//93
f 94//94 95//95 96//96
f 97//97 98//98 99//99
f 100//100 101//101 102//102
f 103//103 104//104 105//105
f 106//106 107//107 108//108
f 109//109 110//110 111//111
f 112//112 113//113 114//114
f 115//115 116//116 117//117
f 118//118 119//119 120//120
f 121//121 122//122 123//123
f 124//124 125//125 126//126
f 127//127 128//128 129//129
f 130//130 131//131 132//132
f 133//133 134//134 135//135
