# Exported from SharpOpenGl procedural mesh
o shipyard_medium
# vertices 87
v -6.8320003 0 -4.0992002
v 6.8320003 0 -4.0992002
v 6.8320003 0 4.0992002
v -6.8320003 0 -4.0992002
v 6.8320003 0 4.0992002
v -6.8320003 0 4.0992002
v -6.1488 1.0248001 -3.4160001
v 6.1488 1.0248001 -3.4160001
v 6.1488 1.0248001 3.4160001
v -6.1488 1.0248001 -3.4160001
v 6.1488 1.0248001 3.4160001
v -6.1488 1.0248001 3.4160001
v -1.8788002 0 -3.7576003
v -1.3322401 4.7824 -3.7576003
v -1.8788002 4.7824 3.7576003
v -1.3322401 4.7824 -3.7576003
v -1.3322401 4.7824 3.7576003
v -1.8788002 4.7824 3.7576003
v 1.8788002 0 -3.7576003
v 2.4253602 4.7824 -3.7576003
v 1.8788002 4.7824 3.7576003
v 2.4253602 4.7824 -3.7576003
v 2.4253602 4.7824 3.7576003
v 1.8788002 4.7824 3.7576003
v -2.3912 1.09312 -2.3912
v 2.3912 1.09312 -2.3912
v 0 2.3912 -1.5713601
v -2.3912 1.09312 -0.47824
v 2.3912 1.09312 -0.47824
v 0 2.3912 0.3416
v -2.3912 1.09312 1.43472
v 2.3912 1.09312 1.43472
v 0 2.3912 2.25456
v -0.65587205 0.601216 3.0060804
v 0 1.12728 3.5526402
v 0.65587205 0.601216 3.0060804
v 4.4408 0.355264 0
v 3.5926828 0.355264 2.610237
v 3.9079041 0 0
v 3.5926828 0.355264 2.610237
v 1.3722826 0.355264 4.223452
v 3.1615608 0 2.2970085
v 1.3722826 0.355264 4.223452
v -1.3722829 0.355264 4.2234516
v 1.2076087 0 3.7166378
v -1.3722829 0.355264 4.2234516
v -3.592683 0.355264 2.6102366
v -1.2076089 0 3.7166374
v -3.592683 0.355264 2.6102366
v -4.4408 0.355264 -3.8822708E-07
v -3.161561 0 2.2970083
v -4.4408 0.355264 -3.8822708E-07
v -3.5926826 0.355264 -2.6102374
v -3.9079041 0 -3.4163983E-07
v -3.5926826 0.355264 -2.6102374
v -1.3722812 0.355264 -4.223452
v -3.1615608 0 -2.2970088
v -1.3722812 0.355264 -4.223452
v 1.3722833 0.355264 -4.2234516
v -1.2076074 0 -3.7166378
v 1.3722833 0.355264 -4.2234516
v 3.5926826 0.355264 -2.6102371
v 1.2076093 0 -3.7166374
v 3.5926826 0.355264 -2.6102371
v 4.4408 0.355264 7.7645416E-07
v 3.1615608 0 -2.2970088
v 4.91904 0.81984 0
v 5.124 1.09312 0
v 4.91904 1.09312 0.20496
v 2.45952 0.81984 4.260014
v 2.6644802 1.09312 4.260014
v 2.45952 1.09312 4.464974
v -2.4595206 0.81984 4.2600136
v -2.2545605 1.09312 4.2600136
v -2.4595206 1.09312 4.4649734
v -4.91904 0.81984 -4.3003618E-07
v -4.7140803 1.09312 -4.3003618E-07
v -4.91904 1.09312 0.20495957
v -2.4595196 0.81984 -4.260014
v -2.2545595 1.09312 -4.260014
v -2.4595196 1.09312 -4.055054
v 2.459522 0.81984 -4.260013
v 2.664482 1.09312 -4.260013
v 2.459522 1.09312 -4.055053
v 0 1.0248001 -2.7328002
v 0.34160003 3.7576003 -3.0744
v 0 3.4160001 2.0496001
vn 0 -1 0
vn 0 -1 0
vn 0 -1 0
vn 0 -1 0
vn 0 -1 0
vn 0 -1 0
vn 0 -1 0
vn 0 -1 0
vn 0 -1 0
vn 0 -1 0
vn 0 -1 0
vn 0 -1 0
vn 0.9909492 -0.113251336 0.072069034
vn 0.9909492 -0.113251336 0.072069034
vn 0.9909492 -0.113251336 0.072069034
vn 0 -1 0
vn 0 -1 0
vn 0 -1 0
vn 0.9909492 -0.113251336 0.072069034
vn 0.9909492 -0.113251336 0.072069034
vn 0.9909492 -0.113251336 0.072069034
vn 0 -1 0
vn 0 -1 0
vn 0 -1 0
vn 0 -0.53399295 0.84548897
vn 0 -0.53399295 0.84548897
vn 0 -0.53399295 0.84548897
vn 0 -0.53399295 0.84548885
vn 0 -0.53399295 0.84548885
vn 0 -0.53399295 0.84548885
vn 0 -0.53399295 0.84548897
vn 0 -0.53399295 0.84548897
vn 0 -0.53399295 0.84548897
vn 0 0.7204868 -0.69346875
vn 0 0.7204868 -0.69346875
vn 0 0.7204868 -0.69346875
vn 0.54590446 -0.8188567 0.1773751
vn 0.54590446 -0.8188567 0.1773751
vn 0.54590446 -0.8188567 0.1773751
vn 0.33738753 -0.8188568 0.4643741
vn 0.33738753 -0.8188568 0.4643741
vn 0.33738753 -0.8188568 0.4643741
vn -9.9725646E-08 -0.8188567 0.573998
vn -9.9725646E-08 -0.8188567 0.573998
vn -9.9725646E-08 -0.8188567 0.573998
vn -0.33738747 -0.8188568 0.4643741
vn -0.33738747 -0.8188568 0.4643741
vn -0.33738747 -0.8188568 0.4643741
vn -0.54590446 -0.8188568 0.17737503
vn -0.54590446 -0.8188568 0.17737503
vn -0.54590446 -0.8188568 0.17737503
vn -0.54590446 -0.8188567 -0.17737515
vn -0.54590446 -0.8188567 -0.17737515
vn -0.54590446 -0.8188567 -0.17737515
vn -0.33738735 -0.8188568 -0.4643742
vn -0.33738735 -0.8188568 -0.4643742
vn -0.33738735 -0.8188568 -0.4643742
vn 9.972568E-08 -0.8188568 -0.57399803
vn 9.972568E-08 -0.8188568 -0.57399803
vn 9.972568E-08 -0.8188568 -0.57399803
vn 0.33738747 -0.8188568 -0.46437404
vn 0.33738747 -0.8188568 -0.46437404
vn 0.33738747 -0.8188568 -0.46437404
vn 0.54590464 -0.81885666 -0.17737514
vn 0.54590464 -0.81885666 -0.17737514
vn 0.54590464 -0.81885666 -0.17737514
vn 0.62469524 -0.46852118 0.6246948
vn 0.62469524 -0.46852118 0.6246948
vn 0.62469524 -0.46852118 0.6246948
vn 0.6246947 -0.46852133 0.6246954
vn 0.6246947 -0.46852133 0.6246954
vn 0.6246947 -0.46852133 0.6246954
vn 0.6246947 -0.46852133 0.6246954
vn 0.6246947 -0.46852133 0.6246954
vn 0.6246947 -0.46852133 0.6246954
vn 0.62469524 -0.46852118 0.6246948
vn 0.62469524 -0.46852118 0.6246948
vn 0.62469524 -0.46852118 0.6246948
vn 0.6246947 -0.46852133 0.6246954
vn 0.6246947 -0.46852133 0.6246954
vn 0.6246947 -0.46852133 0.6246954
vn 0.6246947 -0.46852133 0.6246954
vn 0.6246947 -0.46852133 0.6246954
vn 0.6246947 -0.46852133 0.6246954
vn 0.9914601 -0.11664237 0.058321185
vn 0.9914601 -0.11664237 0.058321185
vn 0.9914601 -0.11664237 0.058321185
f 1//1 2//2 3//3
f 4//4 5//5 6//6
f 7//7 8//8 9//9
f 10//10 11//11 12//12
f 13//13 14//14 15//15
f 16//16 17//17 18//18
f 19//19 20//20 21//21
f 22//22 23//23 24//24
f 25//25 26//26 27//27
f 28//28 29//29 30//30
f 31//31 32//32 33//33
f 34//34 35//35 36//36
f 37//37 38//38 39//39
f 40//40 41//41 42//42
f 43//43 44//44 45//45
f 46//46 47//47 48//48
f 49//49 50//50 51//51
f 52//52 53//53 54//54
f 55//55 56//56 57//57
f 58//58 59//59 60//60
f 61//61 62//62 63//63
f 64//64 65//65 66//66
f 67//67 68//68 69//69
f 70//70 71//71 72//72
f 73//73 74//74 75//75
f 76//76 77//77 78//78
f 79//79 80//80 81//81
f 82//82 83//83 84//84
f 85//85 86//86 87//87
