# Exported from SharpOpenGl procedural mesh
o bomber_heavy
# vertices 24
v 0 0.36737663 1.5833303
v -0.73769766 0 0
v 0.73769766 0 0
v -0.73769766 0 0
v 0.73769766 0 0
v 0 0 -1.4249972
v -0.23053052 0.1632785 -1.3299974
v -0.92212206 0.44901592 -1.224612
v -0.29507905 0.0979671 -1.4617292
v 0.30956954 0.1632785 -0.06333315
v 1.2382782 0.5143273 0.042052224
v 0.396249 0.0979671 -0.19506489
v -0.38860857 0.1632785 1.2033311
v -1.5544343 0.5796387 1.3087165
v -0.49741897 0.0979671 1.0715994
v -0.92212206 0.0653114 -1.9633296
v -1.3015094 0 -2.7979817
v -0.54273474 0 -2.7979817
v 0 0.0653114 -1.9633296
v -0.37938735 0 -2.7979817
v 0.37938735 0 -2.7979817
v 0.92212206 0.0653114 -1.9633296
v 0.54273474 0 -2.7979817
v 1.3015094 0 -2.7979817
vn 0 -0.97412187 0.22602335
vn 0 -0.97412187 0.22602335
vn 0 -0.97412187 0.22602335
vn -0 1 0
vn -0 1 0
vn -0 1 0
vn -0.2547419 -0.8108841 0.5268524
vn -0.2547419 -0.8108841 0.5268524
vn -0.2547419 -0.8108841 0.5268524
vn -0.23896536 0.79819345 -0.55297625
vn -0.23896536 0.79819345 -0.55297625
vn -0.23896536 0.79819345 -0.55297625
vn -0.22791669 -0.7842411 0.57707876
vn -0.22791669 -0.7842411 0.57707876
vn -0.22791669 -0.7842411 0.57707876
vn 0 -0.9969525 0.07801138
vn 0 -0.9969525 0.07801138
vn 0 -0.9969525 0.07801138
vn 0 -0.9969524 0.07801137
vn 0 -0.9969524 0.07801137
vn 0 -0.9969524 0.07801137
vn 0 -0.9969525 0.07801138
vn 0 -0.9969525 0.07801138
vn 0 -0.9969525 0.07801138
f 1//1 2//2 3//3
f 4//4 5//5 6//6
f 7//7 8//8 9//9
f 10//10 11//11 12//12
f 13//13 14//14 15//15
f 16//16 17//17 18//18
f 19//19 20//20 21//21
f 22//22 23//23 24//24
