# Exported from SharpOpenGl procedural mesh
o drone_swarm
# vertices 21
v 0 0.11144838 0.53349614
v -0.20572579 0 0
v 0.20572579 0 0
v -0.20572579 0 0
v 0.20572579 0 0
v 0 0 -0.48014653
v -0.06428931 0.049532615 -0.44813675
v -0.25715724 0.13621469 -0.41874734
v -0.082290314 0.029719567 -0.4848735
v 0.08633136 0.049532615 -0.021339834
v 0.34532544 0.15602773 0.008049564
v 0.110504135 0.029719567 -0.058076583
v -0.1083734 0.049532615 0.40545708
v -0.4334936 0.17584078 0.4348465
v -0.13871795 0.029719567 0.36872032
v -0.20572579 0.019813044 -0.6615352
v -0.24980989 0 -0.75852025
v -0.16164169 0 -0.75852025
v 0.20572579 0.019813044 -0.6615352
v 0.16164169 0 -0.75852025
v 0.24980989 0 -0.75852025
vn 0 -0.97886914 0.20448767
vn 0 -0.97886914 0.20448767
vn 0 -0.97886914 0.20448767
vn -0 1 0
vn -0 1 0
vn -0 1 0
vn -0.26880044 -0.7865685 0.5559282
vn -0.26880044 -0.7865685 0.5559282
vn -0.26880044 -0.7865685 0.5559282
vn -0.25171039 0.7728984 -0.58246887
vn -0.25171039 0.7728984 -0.58246887
vn -0.25171039 0.7728984 -0.58246887
vn -0.23961818 -0.75795144 0.60670656
vn -0.23961818 -0.75795144 0.60670656
vn -0.23961818 -0.75795144 0.60670656
vn 0 -0.97976404 0.20015569
vn 0 -0.97976404 0.20015569
vn 0 -0.97976404 0.20015569
vn 0 -0.97976404 0.20015569
vn 0 -0.97976404 0.20015569
vn 0 -0.97976404 0.20015569
f 1//1 2//2 3//3
f 4//4 5//5 6//6
f 7//7 8//8 9//9
f 10//10 11//11 12//12
f 13//13 14//14 15//15
f 16//16 17//17 18//18
f 19//19 20//20 21//21
