# Exported from SharpOpenGl procedural mesh
o fighter_basic
# vertices 24
v 0 0.16366933 1.3652987
v -0.33654013 0 0
v 0.33654013 0 0
v -0.33654013 0 0
v 0.33654013 0 0
v 0 0 -1.2287688
v -0.1051688 0.072741926 -1.146851
v -0.4206752 0.2000403 -1.0987738
v -0.13461606 0.043645155 -1.2069474
v 0.14122666 0.072741926 -0.05461204
v 0.56490666 0.22913706 -0.006534878
v 0.18077013 0.043645155 -0.1147085
v -0.17728454 0.072741926 1.0376269
v -0.70913815 0.25823385 1.085704
v -0.22692421 0.043645155 0.9775304
v -0.4206752 0.02909677 -1.6929705
v -0.54327196 0 -1.9626834
v -0.29807842 0 -1.9626834
v 0 0.02909677 -1.6929705
v -0.12259676 0 -1.9626834
v 0.12259676 0 -1.9626834
v 0.4206752 0.02909677 -1.6929705
v 0.29807842 0 -1.9626834
v 0.54327196 0 -1.9626834
vn 0 -0.99289113 0.11902585
vn 0 -0.99289113 0.11902585
vn 0 -0.99289113 0.11902585
vn -0 1 0
vn -0 1 0
vn -0 1 0
vn -0.25076768 -0.8173958 0.51863253
vn -0.25076768 -0.8173958 0.51863253
vn -0.25076768 -0.8173958 0.51863253
vn -0.2353503 0.80499023 -0.54461086
vn -0.2353503 0.80499023 -0.54461086
vn -0.2353503 0.80499023 -0.54461086
vn -0.22458562 -0.7913308 0.56864476
vn -0.22458562 -0.7913308 0.56864476
vn -0.22458562 -0.7913308 0.56864476
vn 0 -0.9942312 0.10725818
vn 0 -0.9942312 0.10725818
vn 0 -0.9942312 0.10725818
vn 0 -0.9942313 0.107258186
vn 0 -0.9942313 0.107258186
vn 0 -0.9942313 0.107258186
vn 0 -0.9942312 0.10725818
vn 0 -0.9942312 0.10725818
vn 0 -0.9942312 0.10725818
f 1//1 2//2 3//3
f 4//4 5//5 6//6
f 7//7 8//8 9//9
f 10//10 11//11 12//12
f 13//13 14//14 15//15
f 16//16 17//17 18//18
f 19//19 20//20 21//21
f 22//22 23//23 24//24
