# Exported from SharpOpenGl procedural mesh
o frigate_strike
# vertices 24
v 0 0.36480635 2.329791
v -0.5391803 0 0
v 0.5391803 0 0
v -0.5391803 0 0
v 0.5391803 0 0
v 0 0 -2.096812
v -0.16849384 0.16213617 -1.9570245
v -0.67397535 0.44587445 -1.8799987
v -0.2156721 0.097281694 -2.0533066
v 0.22626317 0.16213617 -0.09319162
v 0.90505266 0.5107289 -0.016165867
v 0.28961685 0.097281694 -0.18947382
v -0.28403246 0.16213617 1.7706412
v -1.1361299 0.5755834 1.847667
v -0.36356154 0.097281694 1.674359
v -0.67397535 0.064854465 -2.888941
v -0.9281603 0 -3.448148
v -0.41979036 0 -3.448148
v 0 0.064854465 -2.888941
v -0.254185 0 -3.448148
v 0.254185 0 -3.448148
v 0.67397535 0.064854465 -2.888941
v 0.41979036 0 -3.448148
v 0.9281603 0 -3.448148
vn 0 -0.9879617 0.1546983
vn 0 -0.9879617 0.1546983
vn 0 -0.9879617 0.1546983
vn -0 1 0
vn -0 1 0
vn -0 1 0
vn -0.30475906 -0.7140356 0.6302977
vn -0.30475906 -0.7140356 0.6302977
vn -0.30475906 -0.7140356 0.6302977
vn -0.28398967 0.69820106 -0.65716463
vn -0.28398967 0.69820106 -0.65716463
vn -0.28398967 0.69820106 -0.65716463
vn -0.26894468 -0.6811475 0.6809603
vn -0.26894468 -0.6811475 0.6809603
vn -0.26894468 -0.6811475 0.6809603
vn 0 -0.9933419 0.11520363
vn 0 -0.9933419 0.11520363
vn 0 -0.9933419 0.11520363
vn 0 -0.9933419 0.11520361
vn 0 -0.9933419 0.11520361
vn 0 -0.9933419 0.11520361
vn 0 -0.9933419 0.11520363
vn 0 -0.9933419 0.11520363
vn 0 -0.9933419 0.11520363
f 1//1 2//2 3//3
f 4//4 5//5 6//6
f 7//7 8//8 9//9
f 10//10 11//11 12//12
f 13//13 14//14 15//15
f 16//16 17//17 18//18
f 19//19 20//20 21//21
f 22//22 23//23 24//24
