# Exported from SharpOpenGl procedural mesh
o miner_tractor
# vertices 357
v -0.3964961 0.06106701 -1.259598
v 0.3964961 0.06106701 -1.259598
v 0 0.19083442 -1.0835673
v -0.3964961 0.06106701 -1.259598
v 0 0.19083442 -1.0835673
v -0.38856915 0.09153739 -0.8684185
v 0.3964961 0.06106701 -1.259598
v 0.57645625 0.09153739 -0.8684185
v 0.093943544 0.28605437 -1.0835673
v -0.3964961 0 -1.259598
v -0.38856915 0 -0.8684185
v 0.3964961 0 -1.259598
v 0.3964961 0 -1.259598
v -0.38856915 0 -0.8684185
v 0.57645625 0 -0.8684185
v -0.38856915 0.09153739 -0.8684185
v 0.57645625 0.09153739 -0.8684185
v 0.093943544 0.28605437 -0.69238776
v -0.38856915 0.09153739 -0.8684185
v 0.093943544 0.28605437 -0.69238776
v -0.3860401 0.115972735 -0.477239
v 0.57645625 0.09153739 -0.8684185
v 0.7169452 0.115972735 -0.477239
v 0.16545253 0.3624148 -0.69238776
v -0.38856915 0 -0.8684185
v -0.3860401 0 -0.477239
v 0.57645625 0 -0.8684185
v 0.57645625 0 -0.8684185
v -0.3860401 0 -0.477239
v 0.7169452 0 -0.477239
v -0.3860401 0.115972735 -0.477239
v 0.7169452 0.115972735 -0.477239
v 0.16545253 0.3624148 -0.30120826
v -0.3860401 0.115972735 -0.477239
v 0.16545253 0.3624148 -0.30120826
v -0.3923237 0.12953335 -0.08605957
v 0.7169452 0.115972735 -0.477239
v 0.7872236 0.12953335 -0.08605957
v 0.19744995 0.4047917 -0.30120826
v -0.3860401 0 -0.477239
v -0.3923237 0 -0.08605957
v 0.7169452 0 -0.477239
v 0.7169452 0 -0.477239
v -0.3923237 0 -0.08605957
v 0.7872236 0 -0.08605957
v -0.3923237 0.12953335 -0.08605957
v 0.7872236 0.12953335 -0.08605957
v 0.19744995 0.4047917 0.08997123
v -0.3923237 0.12953335 -0.08605957
v 0.19744995 0.4047917 0.08997123
v -0.4074791 0.12953335 0.30512
v 0.7872236 0.12953335 -0.08605957
v 0.7720682 0.12953335 0.30512
v 0.18229456 0.4047917 0.08997123
v -0.3923237 0 -0.08605957
v -0.4074791 0 0.30512
v 0.7872236 0 -0.08605957
v 0.7872236 0 -0.08605957
v -0.4074791 0 0.30512
v 0.7720682 0 0.30512
v -0.4074791 0.12953335 0.30512
v 0.7720682 0.12953335 0.30512
v 0.18229456 0.4047917 0.4811508
v -0.4074791 0.12953335 0.30512
v 0.18229456 0.4047917 0.4811508
v -0.42788705 0.115972735 0.69629955
v 0.7720682 0.12953335 0.30512
v 0.67509824 0.115972735 0.69629955
v 0.12360559 0.3624148 0.4811508
v -0.4074791 0 0.30512
v -0.42788705 0 0.69629955
v 0.7720682 0 0.30512
v 0.7720682 0 0.30512
v -0.42788705 0 0.69629955
v 0.67509824 0 0.69629955
v -0.42788705 0.115972735 0.69629955
v 0.67509824 0.115972735 0.69629955
v 0.12360559 0.3624148 0.87233025
v -0.42788705 0.115972735 0.69629955
v 0.12360559 0.3624148 0.87233025
v -0.49717674 0.091537386 1.0874789
v 0.67509824 0.115972735 0.69629955
v 0.56797373 0.091537386 1.0874789
v 0.035398506 0.28605434 0.87233025
v -0.42788705 0 0.69629955
v -0.49717674 0 1.0874789
v 0.67509824 0 0.69629955
v 0.67509824 0 0.69629955
v -0.49717674 0 1.0874789
v 0.56797373 0 1.0874789
v -0.49717674 0.091537386 1.0874789
v 0.56797373 0.091537386 1.0874789
v 0.035398506 0.28605434 1.2635096
v -0.49717674 0.091537386 1.0874789
v 0.035398506 0.28605434 1.2635096
v -0.45775813 0.061067007 1.4786584
v 0.56797373 0.091537386 1.0874789
v 0.335234 0.061067007 1.4786584
v -0.061262056 0.1908344 1.2635096
v -0.49717674 0 1.0874789
v -0.45775813 0 1.4786584
v 0.56797373 0 1.0874789
v 0.56797373 0 1.0874789
v -0.45775813 0 1.4786584
v 0.335234 0 1.4786584
v -0.121151574 0.07633376 0.04928862
v 0.121151574 0.07633376 0.04928862
v 0 0.23854302 0.092465445
v -0.121151574 0.07633376 0.04928862
v 0 0.23854302 0.092465445
v -0.05429935 0.094653875 0.14523713
v 0.121151574 0.07633376 0.04928862
v 0.15731207 0.094653875 0.14523713
v 0.05150636 0.29579335 0.092465445
v -0.121151574 0 0.04928862
v -0.05429935 0 0.14523713
v 0.121151574 0 0.04928862
v 0.121151574 0 0.04928862
v -0.05429935 0 0.14523713
v 0.15731207 0 0.14523713
v -0.05429935 0.094653875 0.14523713
v 0.15731207 0.094653875 0.14523713
v 0.05150636 0.29579335 0.18841396
v -0.05429935 0.094653875 0.14523713
v 0.05150636 0.29579335 0.18841396
v -0.03895349 0.11297397 0.24118564
v 0.15731207 0.094653875 0.14523713
v 0.1419662 0.11297397 0.24118564
v 0.051506355 0.35304368 0.18841396
v -0.05429935 0 0.14523713
v -0.03895349 0 0.24118564
v 0.15731207 0 0.14523713
v 0.15731207 0 0.14523713
v -0.03895349 0 0.24118564
v 0.1419662 0 0.24118564
v -0.03895349 0.11297397 0.24118564
v 0.1419662 0.11297397 0.24118564
v 0.051506355 0.35304368 0.28436247
v -0.03895349 0.11297397 0.24118564
v 0.051506355 0.35304368 0.28436247
v -0.07511398 0.13129407 0.33713415
v 0.1419662 0.11297397 0.24118564
v 0.07511397 0.13129407 0.33713415
v -5.1994187E-09 0.410294 0.28436247
v -0.03895349 0 0.24118564
v -0.07511398 0 0.33713415
v 0.1419662 0 0.24118564
v 0.1419662 0 0.24118564
v -0.07511398 0 0.33713415
v 0.07511397 0 0.33713415
v -0.064044096 0.12404236 -0.9310072
v -0.08005512 0.089310504 -0.96404856
v 0 0.10543601 -0.9310072
v 0.07461732 0.12404236 0.91676825
v 0.09327166 0.089310504 0.8837269
v 0 0.10543601 0.91676825
v -3.947706E-08 0.09303177 -0.76671183
v -3.947706E-08 0.3721271 -0.76671183
v 0.90312994 0.13024448 -0.76671183
v -3.947706E-08 0.09303177 -0.76671183
v -0.90312994 0.032561112 -0.76671183
v -3.947706E-08 0.3721271 -0.76671183
v 0.18854505 0.09303177 -0.05805099
v 0.18854505 0.3721271 -0.05805099
v 1.091675 0.13024448 -0.05805099
v 0.18854505 0.09303177 -0.05805099
v -0.7145848 0.032561112 -0.05805099
v 0.18854505 0.3721271 -0.05805099
v -0.11652737 0.09303177 0.65060985
v -0.11652737 0.3721271 0.65060985
v 0.7866026 0.13024448 0.65060985
v -0.11652737 0.09303177 0.65060985
v -1.0196573 0.032561112 0.65060985
v -0.11652737 0.3721271 0.65060985
v 0 0.36258537 0.9857724
v 0.24230315 0.30533504 0.9857724
v -1.0591407E-08 0.30533504 1.0948088
v 0 0.30533504 0.9857724
v 0.24230315 0.28529742 0.9857724
v -1.0591407E-08 0.28529742 1.0948088
v 0 0.36258537 0.9857724
v -1.0591407E-08 0.30533504 1.0948088
v -0.24230315 0.30533504 0.9857724
v 0 0.30533504 0.9857724
v -1.0591407E-08 0.28529742 1.0948088
v -0.24230315 0.28529742 0.9857724
v 0 0.36258537 0.9857724
v -0.24230315 0.30533504 0.9857724
v 2.889436E-09 0.30533504 0.8767359
v 0 0.30533504 0.9857724
v -0.24230315 0.28529742 0.9857724
v 2.889436E-09 0.28529742 0.8767359
v 0 0.36258537 0.9857724
v 2.889436E-09 0.30533504 0.8767359
v 0.24230315 0.30533504 0.9857724
v 0 0.30533504 0.9857724
v 2.889436E-09 0.28529742 0.8767359
v 0.24230315 0.28529742 0.9857724
v -0.0550689 0.1335841 1.1500677
v 0.0550689 0.1335841 1.1500677
v 0 0.1812927 1.3143631
v -0.1101378 0.09541721 0.16429539
v -0.6387992 0.12404236 0.38335592
v -0.6387992 0.07633376 0.4928862
v -0.6387992 0.17652184 0.32859078
v -0.5617027 0.1335841 0.32859078
v -0.6773474 0.1335841 0.35863614
v -0.6387992 0.1335841 0.32859078
v -0.5617027 0.11855589 0.32859078
v -0.6773474 0.11855589 0.35863614
v -0.6387992 0.17652184 0.32859078
v -0.6773474 0.1335841 0.35863614
v -0.6773474 0.1335841 0.29854542
v -0.6387992 0.1335841 0.32859078
v -0.6773474 0.11855589 0.35863614
v -0.6773474 0.11855589 0.29854542
v -0.6387992 0.17652184 0.32859078
v -0.6773474 0.1335841 0.29854542
v -0.5617027 0.1335841 0.32859078
v -0.6387992 0.1335841 0.32859078
v -0.6773474 0.11855589 0.29854542
v -0.5617027 0.11855589 0.32859078
v 0.1101378 0.09541721 0.16429539
v 0.6387992 0.12404236 0.38335592
v 0.6387992 0.07633376 0.4928862
v 0.6387992 0.17652184 0.32859078
v 0.71589565 0.1335841 0.32859078
v 0.60025096 0.1335841 0.35863614
v 0.6387992 0.1335841 0.32859078
v 0.71589565 0.11855589 0.32859078
v 0.60025096 0.11855589 0.35863614
v 0.6387992 0.17652184 0.32859078
v 0.60025096 0.1335841 0.35863614
v 0.60025096 0.1335841 0.29854542
v 0.6387992 0.1335841 0.32859078
v 0.60025096 0.11855589 0.35863614
v 0.60025096 0.11855589 0.29854542
v 0.6387992 0.17652184 0.32859078
v 0.60025096 0.1335841 0.29854542
v 0.71589565 0.1335841 0.32859078
v 0.6387992 0.1335841 0.32859078
v 0.60025096 0.11855589 0.29854542
v 0.71589565 0.11855589 0.32859078
v -0.5637211 0.092766725 -0.11529501
v -0.5333383 0.07288814 -0.08647126
v -0.5637211 0.059635755 -0.074941754
v -0.5637211 0.103810385 0.07686333
v -0.5333383 0.083931796 0.10568708
v -0.5637211 0.06847068 0.11721659
v -0.5637211 0.11485404 0.2690217
v -0.5333383 0.09497546 0.29784545
v -0.5637211 0.07730561 0.30937493
v -0.5637211 0.12589769 0.46118003
v -0.5333383 0.10601911 0.4900038
v -0.5637211 0.08614053 0.50153327
v 0.5637211 0.092766725 -0.11529501
v 0.5333383 0.07288814 -0.08647126
v 0.5637211 0.059635755 -0.074941754
v 0.5637211 0.103810385 0.07686333
v 0.5333383 0.083931796 0.10568708
v 0.5637211 0.06847068 0.11721659
v 0.5637211 0.11485404 0.2690217
v 0.5333383 0.09497546 0.29784545
v 0.5637211 0.07730561 0.30937493
v 0.5637211 0.12589769 0.46118003
v 0.5333383 0.10601911 0.4900038
v 0.5637211 0.08614053 0.50153327
v -0.15888202 0.013252389 -0.1729425
v 0.25888202 0.013252389 -0.1729425
v 0.05 0.10601911 -0.138354
v -0.044946376 0.013252389 0.51882756
v 0.14494638 0.013252389 0.51882756
v 0.05 0.13252388 0.5534161
v 0.0025268123 0.09939291 0.5361218
v 0.09747319 0.09939291 0.5361218
v 0.05 0.1391501 0.5591808
v -0.46776405 0.092766725 -0.11529501
v -0.44687584 0.07951433 -0.09800076
v -0.46776405 0.06626195 -0.08647126
v -0.29686058 0.11927151 0.5764751
v -0.27597237 0.10601911 0.5937693
v -0.29686058 0.08614053 0.6052988
v 0.46776405 0.092766725 -0.11529501
v 0.44687584 0.07951433 -0.09800076
v 0.46776405 0.06626195 -0.08647126
v 0.29686058 0.11927151 0.5764751
v 0.27597237 0.10601911 0.5937693
v 0.29686058 0.08614053 0.6052988
v -0.044946376 0.27830017 -0.11529501
v 0.14494638 0.27830017 -0.11529501
v 0.05 0.3445621 -0.08647126
v -0.016462464 0.3445621 -0.09800076
v 0.11646247 0.3445621 -0.09800076
v 0.05 0.38431928 -0.08070651
v 0.021516088 0.31805733 0.74941754
v 0.07848391 0.31805733 0.74941754
v 0.05 0.3710669 0.7782413
v 0.030061262 0.3710669 0.7667118
v 0.06993874 0.3710669 0.7667118
v 0.05 0.40419784 0.78400606
v -0.11393564 0 -0.23059002
v 0.11393564 0 -0.23059002
v 0 0.039757166 -0.345885
v 0.0025268123 0.31805733 0.057647504
v 0.09747319 0.31805733 0.057647504
v 0.05 0.3710669 0.07205938
v 0.0025268123 0.3279966 0.23059002
v 0.09747319 0.3279966 0.23059002
v 0.05 0.38100618 0.2450019
v 0.0025268123 0.33793592 0.4035325
v 0.09747319 0.33793592 0.4035325
v 0.05 0.39094546 0.41794437
v 0.0025268123 0.3478752 0.576475
v 0.09747319 0.3478752 0.576475
v 0.05 0.4008848 0.5908869
v 0.0025268123 0.3578145 0.74941754
v 0.09747319 0.3578145 0.74941754
v 0.05 0.4108241 0.7638294
v -0.5886675 0.1325239 0.51882756
v -0.62664604 0.17228106 0.5764751
v -0.5886675 0.092766725 0.5476513
v -0.5886675 0.14577629 0.40353256
v -0.62664604 0.18553345 0.46118006
v -0.5886675 0.10601911 0.43235633
v -0.5886675 0.15902868 0.28823754
v -0.62664604 0.19878583 0.34588504
v -0.5886675 0.11927151 0.3170613
v 0.5886675 0.1325239 0.51882756
v 0.62664604 0.17228106 0.5764751
v 0.5886675 0.092766725 0.5476513
v 0.5886675 0.14577629 0.40353256
v 0.62664604 0.18553345 0.46118006
v 0.5886675 0.10601911 0.43235633
v 0.5886675 0.15902868 0.28823754
v 0.62664604 0.19878583 0.34588504
v 0.5886675 0.11927151 0.3170613
v -0.00696782 0.42407644 0.9800076
v 0.10696782 0.42407644 0.9800076
v 0.05 0.47708604 0.9973018
v -0.00696782 0.42407644 1.0953026
v 0.10696782 0.42407644 1.0953026
v 0.05 0.47708604 1.1125969
v -0.00696782 0.42407644 1.2105976
v 0.10696782 0.42407644 1.2105976
v 0.05 0.47708604 1.2278919
v -0.05050339 0.1325239 2.655244
v 0.05050339 0.1325239 2.655244
v 0 0.25179538 2.8247278
v -0.030302035 0.22529063 2.739986
v 0.030302035 0.22529063 2.739986
v 0 0.2650478 2.8247278
v -0.08080542 0.033130974 -0.46118003
v 0.08080542 0.033130974 -0.46118003
v 0 0.06626195 -0.37470877
v -0.04040271 0.58310515 0.40353253
v 0.04040271 0.58310515 0.40353253
v 0 0.6228623 0.46118003
vn 0 -0.80492365 0.5933784
vn 0 -0.80492365 0.5933784
vn 0 -0.80492365 0.5933784
vn 0.28259206 -0.95676965 0.06879974
vn 0.28259206 -0.95676965 0.06879974
vn 0.28259206 -0.95676965 0.06879974
vn -0.4633826 -0.8411913 0.27870023
vn -0.4633826 -0.8411913 0.27870023
vn -0.4633826 -0.8411913 0.27870023
vn 0 1 0
vn 0 1 0
vn 0 1 0
vn 0 1 -0
vn 0 1 -0
vn 0 1 -0
vn 0 -0.6709955 0.7414614
vn 0 -0.6709955 0.7414614
vn 0 -0.6709955 0.7414614
vn 0.35567454 -0.93293196 0.055976834
vn 0.35567454 -0.93293196 0.055976834
vn 0.35567454 -0.93293196 0.055976834
vn -0.46862027 -0.8551237 0.22171715
vn -0.46862027 -0.8551237 0.22171715
vn -0.46862027 -0.8551237 0.22171715
vn 0 1 0
vn 0 1 0
vn 0 1 0
vn 0 1 -0
vn 0 1 -0
vn 0 1 -0
vn 0 -0.58123976 0.8137324
vn 0 -0.58123976 0.8137324
vn 0 -0.58123976 0.8137324
vn 0.39750484 -0.916806 0.038167186
vn 0.39750484 -0.916806 0.038167186
vn 0.39750484 -0.916806 0.038167186
vn -0.45355397 -0.8841462 0.112134255
vn -0.45355397 -0.8841462 0.112134255
vn -0.45355397 -0.8841462 0.112134255
vn 0 1 -0
vn 0 1 -0
vn 0 1 -0
vn 0 1 -0
vn 0 1 -0
vn 0 1 -0
vn 0 -0.5387615 0.8424583
vn 0 -0.5387615 0.8424583
vn 0 -0.5387615 0.8424583
vn 0.41888693 -0.9078934 0.016228866
vn 0.41888693 -0.9078934 0.016228866
vn 0.41888693 -0.9078934 0.016228866
vn -0.41801143 -0.9082973 -0.016194915
vn -0.41801143 -0.9082973 -0.016194915
vn -0.41801143 -0.9082973 -0.016194915
vn 0 1 -0
vn 0 1 -0
vn 0 1 -0
vn 0 1 0
vn 0 1 0
vn 0 1 0
vn 0 -0.5387615 0.8424583
vn 0 -0.5387615 0.8424583
vn 0 -0.5387615 0.8424583
vn 0.4251584 -0.9050723 -0.009194568
vn 0.4251584 -0.9050723 -0.009194568
vn 0.4251584 -0.9050723 -0.009194568
vn -0.36471772 -0.9230369 -0.12240827
vn -0.36471772 -0.9230369 -0.12240827
vn -0.36471772 -0.9230369 -0.12240827
vn 0 1 -0
vn 0 1 -0
vn 0 1 -0
vn 0 1 0
vn 0 1 0
vn 0 1 0
vn 0 -0.58123964 0.81373245
vn 0 -0.58123964 0.81373245
vn 0 -0.58123964 0.81373245
vn 0.40409255 -0.91460395 0.014445494
vn 0.40409255 -0.91460395 0.014445494
vn 0.40409255 -0.91460395 0.014445494
vn -0.28990313 -0.94697505 -0.1385436
vn -0.28990313 -0.94697505 -0.1385436
vn -0.28990313 -0.94697505 -0.1385436
vn 0 1 -0
vn 0 1 -0
vn 0 1 -0
vn 0 1 0
vn 0 1 0
vn 0 1 0
vn 0 -0.67099553 0.7414614
vn 0 -0.67099553 0.7414614
vn 0 -0.67099553 0.7414614
vn 0.3727009 -0.9214879 -0.109334536
vn 0.3727009 -0.9214879 -0.109334536
vn 0.3727009 -0.9214879 -0.109334536
vn -0.20647678 -0.95831287 -0.19749372
vn -0.20647678 -0.95831287 -0.19749372
vn -0.20647678 -0.95831287 -0.19749372
vn 0 1 0
vn 0 1 0
vn 0 1 0
vn 0 1 0
vn 0 1 0
vn 0 1 0
vn 0 -0.25722337 0.966352
vn 0 -0.25722337 0.966352
vn 0 -0.25722337 0.966352
vn 0.7690729 -0.4548949 -0.4489961
vn 0.7690729 -0.4548949 -0.4489961
vn 0.7690729 -0.4548949 -0.4489961
vn -0.8537112 -0.34726927 0.38804796
vn -0.8537112 -0.34726927 0.38804796
vn -0.8537112 -0.34726927 0.38804796
vn 0 1 0
vn 0 1 0
vn 0 1 0
vn 0 1 -0
vn 0 1 -0
vn 0 1 -0
vn 0 -0.20988002 0.9777272
vn 0 -0.20988002 0.9777272
vn 0 -0.20988002 0.9777272
vn 0.8885031 -0.4555474 -0.0551251
vn 0.8885031 -0.4555474 -0.0551251
vn 0.8885031 -0.4555474 -0.0551251
vn -0.9270996 -0.36654714 -0.0782917
vn -0.9270996 -0.36654714 -0.0782917
vn -0.9270996 -0.36654714 -0.0782917
vn 0 0.99999994 0
vn 0 0.99999994 0
vn 0 0.99999994 0
vn 0 1 0
vn 0 1 0
vn 0 1 0
vn 0 -0.17701115 0.9842088
vn 0 -0.17701115 0.9842088
vn 0 -0.17701115 0.9842088
vn 0.83683115 -0.38527536 0.38894305
vn 0.83683115 -0.38527536 0.38894305
vn 0.83683115 -0.38527536 0.38894305
vn -0.8064147 -0.31211123 -0.5022767
vn -0.8064147 -0.31211123 -0.5022767
vn -0.8064147 -0.31211123 -0.5022767
vn 0 1 -0
vn 0 1 -0
vn 0 1 -0
vn 0 1 0
vn 0 1 0
vn 0 1 0
vn -0.18355516 -0.6318071 0.7530786
vn -0.18355516 -0.6318071 0.7530786
vn -0.18355516 -0.6318071 0.7530786
vn -0.15824905 0.6346285 -0.7564416
vn -0.15824905 0.6346285 -0.7564416
vn -0.15824905 0.6346285 -0.7564416
vn 0 0 -1
vn 0 0 -1
vn 0 0 -1
vn -0 0 -1
vn -0 0 -1
vn -0 0 -1
vn 0 0 -1
vn 0 0 -1
vn 0 0 -1
vn -0 0 -1
vn -0 0 -1
vn -0 0 -1
vn 0 0 -1
vn 0 0 -1
vn 0 0 -1
vn -0 0 -1
vn -0 0 -1
vn -0 0 -1
vn -0.20476067 -0.8666179 -0.45502362
vn -0.20476067 -0.8666179 -0.45502362
vn -0.20476067 -0.8666179 -0.45502362
vn -0.08106682 -0.9802932 -0.18014842
vn -0.08106682 -0.9802932 -0.18014842
vn -0.08106682 -0.9802932 -0.18014842
vn 0.20476067 -0.8666179 -0.45502356
vn 0.20476067 -0.8666179 -0.45502356
vn 0.20476067 -0.8666179 -0.45502356
vn 0.08106682 -0.9802932 -0.18014842
vn 0.08106682 -0.9802932 -0.18014842
vn 0.08106682 -0.9802932 -0.18014842
vn 0.20476067 -0.8666179 0.4550236
vn 0.20476067 -0.8666179 0.4550236
vn 0.20476067 -0.8666179 0.4550236
vn 0.08106682 -0.9802932 0.18014842
vn 0.08106682 -0.9802932 0.18014842
vn 0.08106682 -0.9802932 0.18014842
vn -0.20476067 -0.8666179 0.4550236
vn -0.20476067 -0.8666179 0.4550236
vn -0.20476067 -0.8666179 0.4550236
vn -0.08106682 -0.9802932 0.18014842
vn -0.08106682 -0.9802932 0.18014842
vn -0.08106682 -0.9802932 0.18014842
vn 0 -0.96033067 0.2788637
vn 0 -0.96033067 0.2788637
vn 0 -0.96033067 0.2788637
vn 0.21030341 0.89630115 0.39040592
vn 0.21030341 0.89630115 0.39040592
vn 0.21030341 0.89630115 0.39040592
vn -0.22918189 -0.4115054 -0.8821218
vn -0.22918189 -0.4115054 -0.8821218
vn -0.22918189 -0.4115054 -0.8821218
vn -0.15405974 -0.7903445 -0.5929765
vn -0.15405974 -0.7903445 -0.5929765
vn -0.15405974 -0.7903445 -0.5929765
vn 0.7441186 -0.6680476 0
vn 0.7441186 -0.6680476 0
vn 0.7441186 -0.6680476 0
vn 0.36322778 -0.93170047 0
vn 0.36322778 -0.93170047 0
vn 0.36322778 -0.93170047 0
vn -0.22918189 -0.4115054 0.8821218
vn -0.22918189 -0.4115054 0.8821218
vn -0.22918189 -0.4115054 0.8821218
vn -0.15405974 -0.7903445 0.5929765
vn -0.15405974 -0.7903445 0.5929765
vn -0.15405974 -0.7903445 0.5929765
vn 0.21030341 -0.89630115 -0.39040592
vn 0.21030341 -0.89630115 -0.39040592
vn 0.21030341 -0.89630115 -0.39040592
vn -0.22918189 -0.4115054 -0.8821218
vn -0.22918189 -0.4115054 -0.8821218
vn -0.22918189 -0.4115054 -0.8821218
vn -0.15405974 -0.7903445 -0.5929765
vn -0.15405974 -0.7903445 -0.5929765
vn -0.15405974 -0.7903445 -0.5929765
vn 0.7441186 -0.6680476 0
vn 0.7441186 -0.6680476 0
vn 0.7441186 -0.6680476 0
vn 0.36322778 -0.93170047 0
vn 0.36322778 -0.93170047 0
vn 0.36322778 -0.93170047 0
vn -0.22918189 -0.4115054 0.8821218
vn -0.22918189 -0.4115054 0.8821218
vn -0.22918189 -0.4115054 0.8821218
vn -0.15405974 -0.7903445 0.5929765
vn -0.15405974 -0.7903445 0.5929765
vn -0.15405974 -0.7903445 0.5929765
vn 0.09587481 -0.7693194 -0.6316293
vn 0.09587481 -0.7693194 -0.6316293
vn 0.09587481 -0.7693194 -0.6316293
vn 0.13166054 -0.74574506 -0.65309256
vn 0.13166054 -0.74574506 -0.65309256
vn 0.13166054 -0.74574506 -0.65309256
vn 0.16497351 -0.7220603 -0.6718725
vn 0.16497351 -0.7220603 -0.6718725
vn 0.16497351 -0.7220603 -0.6718725
vn 0.1958749 -0.69854945 -0.6882308
vn 0.1958749 -0.69854945 -0.6882308
vn 0.1958749 -0.69854945 -0.6882308
vn 0.09587481 0.7693194 0.6316293
vn 0.09587481 0.7693194 0.6316293
vn 0.09587481 0.7693194 0.6316293
vn 0.13166054 0.74574506 0.65309256
vn 0.13166054 0.74574506 0.65309256
vn 0.13166054 0.74574506 0.65309256
vn 0.16497351 0.7220603 0.6718725
vn 0.16497351 0.7220603 0.6718725
vn 0.16497351 0.7220603 0.6718725
vn 0.1958749 0.69854945 0.6882308
vn 0.1958749 0.69854945 0.6882308
vn 0.1958749 0.69854945 0.6882308
vn 0 -0.3493605 0.9369885
vn 0 -0.3493605 0.9369885
vn 0 -0.3493605 0.9369885
vn 0 -0.27852288 0.9604296
vn 0 -0.27852288 0.9604296
vn 0 -0.27852288 0.9604296
vn 0 -0.50171554 0.8650327
vn 0 -0.50171554 0.8650327
vn 0 -0.50171554 0.8650327
vn 0.0929976 -0.73290735 -0.67394245
vn 0.0929976 -0.73290735 -0.67394245
vn 0.0929976 -0.73290735 -0.67394245
vn 0.2038403 -0.64258176 -0.7386054
vn 0.2038403 -0.64258176 -0.7386054
vn 0.2038403 -0.64258176 -0.7386054
vn 0.0929976 0.73290735 0.67394245
vn 0.0929976 0.73290735 0.67394245
vn 0.0929976 0.73290735 0.67394245
vn 0.2038403 0.64258176 0.7386054
vn 0.2038403 0.64258176 0.7386054
vn 0.2038403 0.64258176 0.7386054
vn 0 -0.39889145 0.91699815
vn 0 -0.39889145 0.91699815
vn 0 -0.39889145 0.91699815
vn 0 -0.39889154 0.91699815
vn 0 -0.39889154 0.91699815
vn 0 -0.39889154 0.91699815
vn 0 -0.47769478 0.87852585
vn 0 -0.47769478 0.87852585
vn 0 -0.47769478 0.87852585
vn 0 -0.46274638 0.8864907
vn 0 -0.46274638 0.8864907
vn 0 -0.46274638 0.8864907
vn -0 0.9453723 0.32599267
vn -0 0.9453723 0.32599267
vn -0 0.9453723 0.32599267
vn 0 -0.2623501 0.9649728
vn 0 -0.2623501 0.9649728
vn 0 -0.2623501 0.9649728
vn 0 -0.26235023 0.9649728
vn 0 -0.26235023 0.9649728
vn 0 -0.26235023 0.9649728
vn 0 -0.2623501 0.9649727
vn 0 -0.2623501 0.9649727
vn 0 -0.2623501 0.9649727
vn 0 -0.26234984 0.96497285
vn 0 -0.26234984 0.96497285
vn 0 -0.26234984 0.96497285
vn 0 -0.26234984 0.96497285
vn 0 -0.26234984 0.96497285
vn 0 -0.26234984 0.96497285
vn 0.87898993 0.27988854 0.38605598
vn 0.87898993 0.27988854 0.38605598
vn 0.87898993 0.27988854 0.38605598
vn 0.8789898 0.27988872 0.38605598
vn 0.8789898 0.27988872 0.38605598
vn 0.8789898 0.27988872 0.38605598
vn 0.8789899 0.2798888 0.38605598
vn 0.8789899 0.2798888 0.38605598
vn 0.8789899 0.2798888 0.38605598
vn 0.87898993 -0.27988854 -0.38605598
vn 0.87898993 -0.27988854 -0.38605598
vn 0.87898993 -0.27988854 -0.38605598
vn 0.8789898 -0.27988872 -0.38605598
vn 0.8789898 -0.27988872 -0.38605598
vn 0.8789898 -0.27988872 -0.38605598
vn 0.8789899 -0.2798888 -0.38605598
vn 0.8789899 -0.2798888 -0.38605598
vn 0.8789899 -0.2798888 -0.38605598
vn 0 -0.31015822 0.950685
vn 0 -0.31015822 0.950685
vn 0 -0.31015822 0.950685
vn 0 -0.31015918 0.95068467
vn 0 -0.31015918 0.95068467
vn 0 -0.31015918 0.95068467
vn 0 -0.31015918 0.95068467
vn 0 -0.31015918 0.95068467
vn 0 -0.31015918 0.95068467
vn 0 -0.8177946 0.5755102
vn 0 -0.8177946 0.5755102
vn 0 -0.8177946 0.5755102
vn 0 -0.90531754 0.42473543
vn 0 -0.90531754 0.42473543
vn 0 -0.90531754 0.42473543
vn 0 -0.93380517 0.35778216
vn 0 -0.93380517 0.35778216
vn 0 -0.93380517 0.35778216
vn 0 -0.8232112 0.56773525
vn 0 -0.8232112 0.56773525
vn 0 -0.8232112 0.56773525
f 1//1 2//2 3//3
f 4//4 5//5 6//6
f 7//7 8//8 9//9
f 10//10 11//11 12//12
f 13//13 14//14 15//15
f 16//16 17//17 18//18
f 19//19 20//20 21//21
f 22//22 23//23 24//24
f 25//25 26//26 27//27
f 28//28 29//29 30//30
f 31//31 32//32 33//33
f 34//34 35//35 36//36
f 37//37 38//38 39//39
f 40//40 41//41 42//42
f 43//43 44//44 45//45
f 46//46 47//47 48//48
f 49//49 50//50 51//51
f 52//52 53//53 54//54
f 55//55 56//56 57//57
f 58//58 59//59 60//60
f 61//61 62//62 63//63
f 64//64 65//65 66//66
f 67//67 68//68 69//69
f 70//70 71//71 72//72
f 73//73 74//74 75//75
f 76//76 77//77 78//78
f 79//79 80//80 81//81
f 82//82 83//83 84//84
f 85//85 86//86 87//87
f 88//88 89//89 90//90
f 91//91 92//92 93//93
f 94//94 95//95 96//96
f 97//97 98//98 99//99
f 100//100 101//101 102//102
f 103//103 104//104 105//105
f 106//106 107//107 108//108
f 109//109 110//110 111//111
f 112//112 113//113 114//114
f 115//115 116//116 117//117
f 118//118 119//119 120//120
f 121//121 122//122 123//123
f 124//124 125//125 126//126
f 127//127 128//128 129//129
f 130//130 131//131 132//132
f 133//133 134//134 135//135
f 136//136 137//137 138//138
f 139//139 140//140 141//141
f 142//142 143//143 144//144
f 145//145 146//146 147//147
f 148//148 149//149 150//150
f 151//151 152//152 153//153
f 154//154 155//155 156//156
f 157//157 158//158 159//159
f 160//160 161//161 162//162
f 163//163 164//164 165//165
f 166//166 167//167 168//168
f 169//169 170//170 171//171
f 172//172 173//173 174//174
f 175//175 176//176 177//177
f 178//178 179//179 180//180
f 181//181 182//182 183//183
f 184//184 185//185 186//186
f 187//187 188//188 189//189
f 190//190 191//191 192//192
f 193//193 194//194 195//195
f 196//196 197//197 198//198
f 199//199 200//200 201//201
f 202//202 203//203 204//204
f 205//205 206//206 207//207
f 208//208 209//209 210//210
f 211//211 212//212 213//213
f 214//214 215//215 216//216
f 217//217 218//218 219//219
f 220//220 221//221 222//222
f 223//223 224//224 225//225
f 226//226 227//227 228//228
f 229//229 230//230 231//231
f 232//232 233//233 234//234
f 235//235 236//236 237//237
f 238//238 239//239 240//240
f 241//241 242//242 243//243
f 244//244 245//245 246//246
f 247//247 248//248 249//249
f 250//250 251//251 252//252
f 253//253 254//254 255//255
f 256//256 257//257 258//258
f 259//259 260//260 261//261
f 262//262 263//263 264//264
f 265//265 266//266 267//267
f 268//268 269//269 270//270
f 271//271 272//272 273//273
f 274//274 275//275 276//276
f 277//277 278//278 279//279
f 280//280 281//281 282//282
f 283//283 284//284 285//285
f 286//286 287//287 288//288
f 289//289 290//290 291//291
f 292//292 293//293 294//294
f 295//295 296//296 297//297
f 298//298 299//299 300//300
f 301//301 302//302 303//303
f 304//304 305//305 306//306
f 307//307 308//308 309//309
f 310//310 311//311 312//312
f 313//313 314//314 315//315
f 316//316 317//317 318//318
f 319//319 320//320 321//321
f 322//322 323//323 324//324
f 325//325 326//326 327//327
f 328//328 329//329 330//330
f 331//331 332//332 333//333
f 334//334 335//335 336//336
f 337//337 338//338 339//339
f 340//340 341//341 342//342
f 343//343 344//344 345//345
f 346//346 347//347 348//348
f 349//349 350//350 351//351
f 352//352 353//353 354//354
f 355//355 356//356 357//357
