# Exported from SharpOpenGl procedural mesh
o miner_basic
# vertices 345
v -0.39285174 0.067339934 -1.6082315
v 0.39285174 0.067339934 -1.6082315
v 0 0.2104373 -1.3789836
v -0.39285174 0.067339934 -1.6082315
v 0 0.2104373 -1.3789836
v -0.38499767 0.100940295 -1.0987917
v 0.39285174 0.067339934 -1.6082315
v 0.5711578 0.100940295 -1.0987917
v 0.09308007 0.31543842 -1.3789836
v -0.39285174 0 -1.6082315
v -0.38499767 0 -1.0987917
v 0.39285174 0 -1.6082315
v 0.39285174 0 -1.6082315
v -0.38499767 0 -1.0987917
v 0.5711578 0 -1.0987917
v -0.38499767 0.100940295 -1.0987917
v 0.5711578 0.100940295 -1.0987917
v 0.09308007 0.31543842 -0.8695438
v -0.38499767 0.100940295 -1.0987917
v 0.09308007 0.31543842 -0.8695438
v -0.3824919 0.12788568 -0.5893519
v 0.5711578 0.100940295 -1.0987917
v 0.71035546 0.12788568 -0.5893519
v 0.16393179 0.39964277 -0.8695438
v -0.38499767 0 -1.0987917
v -0.3824919 0 -0.5893519
v 0.5711578 0 -1.0987917
v 0.5711578 0 -1.0987917
v -0.3824919 0 -0.5893519
v 0.71035546 0 -0.5893519
v -0.3824919 0.12788568 -0.5893519
v 0.71035546 0.12788568 -0.5893519
v 0.16393179 0.39964277 -0.36010396
v -0.3824919 0.12788568 -0.5893519
v 0.16393179 0.39964277 -0.36010396
v -0.3887177 0.14283925 -0.07991207
v 0.71035546 0.12788568 -0.5893519
v 0.779988 0.14283925 -0.07991207
v 0.19563513 0.4463727 -0.36010396
v -0.3824919 0 -0.5893519
v -0.3887177 0 -0.07991207
v 0.71035546 0 -0.5893519
v 0.71035546 0 -0.5893519
v -0.3887177 0 -0.07991207
v 0.779988 0 -0.07991207
v -0.3887177 0.14283925 -0.07991207
v 0.779988 0.14283925 -0.07991207
v 0.19563513 0.4463727 0.14933585
v -0.3887177 0.14283925 -0.07991207
v 0.19563513 0.4463727 0.14933585
v -0.40373382 0.14283925 0.42952776
v 0.779988 0.14283925 -0.07991207
v 0.76497185 0.14283925 0.42952776
v 0.18061903 0.4463727 0.14933585
v -0.3887177 0 -0.07991207
v -0.40373382 0 0.42952776
v 0.779988 0 -0.07991207
v 0.779988 0 -0.07991207
v -0.40373382 0 0.42952776
v 0.76497185 0 0.42952776
v -0.40373382 0.14283925 0.42952776
v 0.76497185 0.14283925 0.42952776
v 0.18061903 0.4463727 0.6587756
v -0.40373382 0.14283925 0.42952776
v 0.18061903 0.4463727 0.6587756
v -0.4239542 0.12788568 0.93896747
v 0.76497185 0.14283925 0.42952776
v 0.66889316 0.12788568 0.93896747
v 0.12246948 0.39964277 0.6587756
v -0.40373382 0 0.42952776
v -0.4239542 0 0.93896747
v 0.76497185 0 0.42952776
v 0.76497185 0 0.42952776
v -0.4239542 0 0.93896747
v 0.66889316 0 0.93896747
v -0.4239542 0.12788568 0.93896747
v 0.66889316 0.12788568 0.93896747
v 0.12246948 0.39964277 1.1682154
v -0.4239542 0.12788568 0.93896747
v 0.12246948 0.39964277 1.1682154
v -0.49260706 0.10094028 1.4484074
v 0.66889316 0.12788568 0.93896747
v 0.5627534 0.10094028 1.4484074
v 0.035073146 0.3154384 1.1682154
v -0.4239542 0 0.93896747
v -0.49260706 0 1.4484074
v 0.66889316 0 0.93896747
v 0.66889316 0 0.93896747
v -0.49260706 0 1.4484074
v 0.5627534 0 1.4484074
v -0.49260706 0.10094028 1.4484074
v 0.5627534 0.10094028 1.4484074
v 0.035073146 0.3154384 1.6776552
v -0.49260706 0.10094028 1.4484074
v 0.035073146 0.3154384 1.6776552
v -0.4535507 0.06733993 1.9578471
v 0.5627534 0.10094028 1.4484074
v 0.33215272 0.06733993 1.9578471
v -0.060698975 0.21043728 1.6776552
v -0.49260706 0 1.4484074
v -0.4535507 0 1.9578471
v 0.5627534 0 1.4484074
v 0.5627534 0 1.4484074
v -0.4535507 0 1.9578471
v 0.33215272 0 1.9578471
v -0.12003803 0.084174916 0.0629308
v 0.12003803 0.084174916 0.0629308
v 0 0.26304662 0.120449565
v -0.12003803 0.084174916 0.0629308
v 0 0.26304662 0.120449565
v -0.053800274 0.1043769 0.19075027
v 0.12003803 0.084174916 0.0629308
v 0.15586616 0.1043769 0.19075027
v 0.05103294 0.3261778 0.120449565
v -0.12003803 0 0.0629308
v -0.053800274 0 0.19075027
v 0.12003803 0 0.0629308
v 0.12003803 0 0.0629308
v -0.053800274 0 0.19075027
v 0.15586616 0 0.19075027
v -0.053800274 0.1043769 0.19075027
v 0.15586616 0.1043769 0.19075027
v 0.05103294 0.3261778 0.24826902
v -0.053800274 0.1043769 0.19075027
v 0.05103294 0.3261778 0.24826902
v -0.03859546 0.124578886 0.31856972
v 0.15586616 0.1043769 0.19075027
v 0.14066133 0.124578886 0.31856972
v 0.051032938 0.38930902 0.24826902
v -0.053800274 0 0.19075027
v -0.03859546 0 0.31856972
v 0.15586616 0 0.19075027
v 0.15586616 0 0.19075027
v -0.03859546 0 0.31856972
v 0.14066133 0 0.31856972
v -0.03859546 0.124578886 0.31856972
v 0.14066133 0.124578886 0.31856972
v 0.051032938 0.38930902 0.37608847
v -0.03859546 0.124578886 0.31856972
v 0.051032938 0.38930902 0.37608847
v -0.07442359 0.14478086 0.44638917
v 0.14066133 0.124578886 0.31856972
v 0.074423574 0.14478086 0.44638917
v -5.151629E-09 0.4524402 0.37608847
v -0.03859546 0 0.31856972
v -0.07442359 0 0.44638917
v 0.14066133 0 0.31856972
v 0.14066133 0 0.31856972
v -0.07442359 0 0.44638917
v 0.074423574 0 0.44638917
v -0.06372016 0.13678424 -1.1886929
v -0.0796502 0.09848466 -1.2214305
v 0 0.11626661 -1.1886929
v 0.0741962 0.13678424 1.2138654
v 0.09274525 0.09848466 1.1811278
v 0 0.11626661 1.2138654
v -3.9114216E-08 0.10258818 -0.97892356
v -3.9114216E-08 0.4103527 -0.97892356
v 0.894829 0.14362344 -0.97892356
v -3.9114216E-08 0.10258818 -0.97892356
v -0.894829 0.035905857 -0.97892356
v -3.9114216E-08 0.4103527 -0.97892356
v 0.18681206 0.10258818 -0.05873543
v 0.18681206 0.4103527 -0.05873543
v 1.0816411 0.14362344 -0.05873543
v 0.18681206 0.10258818 -0.05873543
v -0.7080169 0.035905857 -0.05873543
v 0.18681206 0.4103527 -0.05873543
v -0.11545632 0.10258818 0.8614527
v -0.11545632 0.4103527 0.8614527
v 0.7793727 0.14362344 0.8614527
v -0.11545632 0.10258818 0.8614527
v -1.0102853 0.035905857 0.8614527
v -0.11545632 0.4103527 0.8614527
v -0.065475285 0.12626238 1.7480778
v 0.065475285 0.12626238 1.7480778
v 0 0.1788717 1.9578471
v -0.30555135 0.06313119 0.27969244
v -0.7420533 0.09469679 1.8879241
v -0.30555135 0.031565595 1.8180009
v -0.7420533 0.09469679 1.8879241
v -0.7857035 0.12626238 1.9578472
v -0.7420533 0.052609324 1.9928087
v -0.7420533 0.16834983 1.8879241
v -0.6329278 0.10521865 1.8879241
v -0.796616 0.10521865 1.9304515
v -0.7420533 0.10521865 1.8879241
v -0.6329278 0.08312273 1.8879241
v -0.796616 0.08312273 1.9304515
v -0.7420533 0.16834983 1.8879241
v -0.796616 0.10521865 1.9304515
v -0.796616 0.10521865 1.8453966
v -0.7420533 0.10521865 1.8879241
v -0.796616 0.08312273 1.9304515
v -0.796616 0.08312273 1.8453966
v -0.7420533 0.16834983 1.8879241
v -0.796616 0.10521865 1.8453966
v -0.6329278 0.10521865 1.8879241
v -0.7420533 0.10521865 1.8879241
v -0.796616 0.08312273 1.8453966
v -0.6329278 0.08312273 1.8879241
v 0.30555135 0.06313119 0.27969244
v 0.7420533 0.09469679 1.8879241
v 0.30555135 0.031565595 1.8180009
v 0.7420533 0.09469679 1.8879241
v 0.7857035 0.12626238 1.9578472
v 0.7420533 0.052609324 1.9928087
v 0.7420533 0.16834983 1.8879241
v 0.85117877 0.10521865 1.8879241
v 0.6874905 0.10521865 1.9304515
v 0.7420533 0.10521865 1.8879241
v 0.85117877 0.08312273 1.8879241
v 0.6874905 0.08312273 1.9304515
v 0.7420533 0.16834983 1.8879241
v 0.6874905 0.10521865 1.9304515
v 0.6874905 0.10521865 1.8453966
v 0.7420533 0.10521865 1.8879241
v 0.6874905 0.08312273 1.9304515
v 0.6874905 0.08312273 1.8453966
v 0.7420533 0.16834983 1.8879241
v 0.6874905 0.10521865 1.8453966
v 0.85117877 0.10521865 1.8879241
v 0.7420533 0.10521865 1.8879241
v 0.6874905 0.08312273 1.8453966
v 0.85117877 0.08312273 1.8879241
v -0.55918324 0.102295905 -0.14567314
v -0.5290797 0.08037536 -0.10925485
v -0.55918324 0.065761656 -0.09468754
v -0.55918324 0.11447399 0.09711544
v -0.5290797 0.09255344 0.13353373
v -0.55918324 0.075504124 0.14810105
v -0.55918324 0.12665208 0.339904
v -0.5290797 0.10473152 0.3763223
v -0.55918324 0.08524659 0.3908896
v -0.55918324 0.13883016 0.58269256
v -0.5290797 0.11690961 0.6191108
v -0.55918324 0.094989054 0.6336782
v 0.55918324 0.102295905 -0.14567314
v 0.5290797 0.08037536 -0.10925485
v 0.55918324 0.065761656 -0.09468754
v 0.55918324 0.11447399 0.09711544
v 0.5290797 0.09255344 0.13353373
v 0.55918324 0.075504124 0.14810105
v 0.55918324 0.12665208 0.339904
v 0.5290797 0.10473152 0.3763223
v 0.55918324 0.08524659 0.3908896
v 0.55918324 0.13883016 0.58269256
v 0.5290797 0.11690961 0.6191108
v 0.55918324 0.094989054 0.6336782
v -0.62088645 0.13152331 1.5295681
v -0.65851593 0.1753644 1.7480778
v -0.62088645 0.0876822 1.8209144
v -0.59266436 0.036534254 0.21850972
v -0.6491085 0.036534254 0.21850972
v -0.62088645 0.08037536 0.3641829
v 0.62088645 0.13152331 1.5295681
v 0.65851593 0.1753644 1.7480778
v 0.62088645 0.0876822 1.8209144
v 0.59266436 0.036534254 0.21850972
v 0.6491085 0.036534254 0.21850972
v 0.62088645 0.08037536 0.3641829
v -0.15051791 0.02192055 -0.29134628
v 0.15051791 0.02192055 -0.29134628
v 0 0.065761656 -0.14567314
v -0.15696214 0.014613701 -0.21850972
v 0.25696215 0.014613701 -0.21850972
v 0.05 0.11690961 -0.17480777
v -0.044073705 0.014613701 0.6555292
v 0.14407371 0.014613701 0.6555292
v 0.05 0.146137 0.69923115
v 0.002963148 0.10960275 0.6773802
v 0.09703685 0.10960275 0.6773802
v 0.05 0.15344387 0.70651484
v -0.4639243 0.102295905 -0.14567314
v -0.44322807 0.0876822 -0.12382217
v -0.4639243 0.07306851 -0.10925485
v -0.2945916 0.13152331 0.7283658
v -0.27389538 0.11690961 0.7502167
v -0.2945916 0.094989054 0.76478404
v 0.4639243 0.102295905 -0.14567314
v 0.44322807 0.0876822 -0.12382217
v 0.4639243 0.07306851 -0.10925485
v 0.2945916 0.13152331 0.7283658
v 0.27389538 0.11690961 0.7502167
v 0.2945916 0.094989054 0.76478404
v -0.044073705 0.30688772 -0.14567314
v 0.14407371 0.30688772 -0.14567314
v 0.05 0.37995622 -0.10925485
v -0.01585159 0.37995622 -0.12382217
v 0.115851596 0.37995622 -0.12382217
v 0.05 0.4237973 -0.101971194
v 0.021777889 0.3507288 1.0197121
v 0.07822211 0.3507288 1.0197121
v 0.05 0.40918362 1.0561304
v 0.030244522 0.40918362 1.041563
v 0.06975548 0.40918362 1.041563
v 0.05 0.44571784 1.0634141
v -0.11288844 0 -0.29134628
v 0.11288844 0 -0.29134628
v 0 0.0438411 -0.43701944
v 0.002963148 0.3507288 0.07283657
v 0.09703685 0.3507288 0.07283657
v 0.05 0.40918362 0.091045715
v 0.002963148 0.3616891 0.34597373
v 0.09703685 0.3616891 0.34597373
v 0.05 0.4201439 0.36418286
v 0.002963148 0.37264937 0.6191109
v 0.09703685 0.37264937 0.6191109
v 0.05 0.43110415 0.63732004
v 0.002963148 0.38360962 0.89224803
v 0.09703685 0.38360962 0.89224803
v 0.05 0.44206446 0.9104572
v 0.002963148 0.3945699 1.1653851
v 0.09703685 0.3945699 1.1653851
v 0.05 0.45302474 1.1835942
v -0.6585159 0.14613701 2.003006
v -0.69614536 0.18997811 2.0758426
v -0.6585159 0.102295905 2.0394242
v -0.6585159 0.16075072 1.8573328
v -0.69614536 0.20459181 1.9301693
v -0.6585159 0.11690961 1.8937511
v -0.6585159 0.17536442 1.7116597
v -0.69614536 0.2192055 1.7844962
v -0.6585159 0.13152331 1.748078
v 0.6585159 0.14613701 2.003006
v 0.69614536 0.18997811 2.0758426
v 0.6585159 0.102295905 2.0394242
v 0.6585159 0.16075072 1.8573328
v 0.69614536 0.20459181 1.9301693
v 0.6585159 0.11690961 1.8937511
v 0.6585159 0.17536442 1.7116597
v 0.69614536 0.2192055 1.7844962
v 0.6585159 0.13152331 1.748078
v -0.050039202 0.14613701 3.354853
v 0.050039202 0.14613701 3.354853
v 0 0.2776603 3.5689924
v -0.03002352 0.24843292 3.4619226
v 0.03002352 0.24843292 3.4619226
v 0 0.29227403 3.5689924
v -0.080062725 0.036534254 -0.58269256
v 0.080062725 0.036534254 -0.58269256
v 0 0.07306851 -0.4734377
v -0.040031362 0.64300287 0.50985605
v 0.040031362 0.64300287 0.50985605
v 0 0.68684393 0.58269256
vn 0 -0.8483018 0.529513
vn 0 -0.8483018 0.529513
vn 0 -0.8483018 0.529513
vn 0.31176132 -0.9484041 0.05774602
vn 0.31176132 -0.9484041 0.05774602
vn 0.31176132 -0.9484041 0.05774602
vn -0.5083386 -0.82914764 0.23260748
vn -0.5083386 -0.82914764 0.23260748
vn -0.5083386 -0.82914764 0.23260748
vn 0 0.99999994 0
vn 0 0.99999994 0
vn 0 0.99999994 0
vn 0 0.99999994 -0
vn 0 0.99999994 -0
vn 0 0.99999994 -0
vn 0 -0.7302072 0.68322575
vn 0 -0.7302072 0.68322575
vn 0 -0.7302072 0.68322575
vn 0.3901728 -0.91955566 0.046718176
vn 0.3901728 -0.91955566 0.046718176
vn 0.3901728 -0.91955566 0.046718176
vn -0.51179326 -0.8391241 0.1842238
vn -0.51179326 -0.8391241 0.1842238
vn -0.51179326 -0.8391241 0.1842238
vn 0 1 0
vn 0 1 0
vn 0 1 0
vn 0 1 -0
vn 0 1 -0
vn 0 1 -0
vn 0 -0.64479357 0.7643568
vn 0 -0.64479357 0.7643568
vn 0 -0.64479357 0.7643568
vn 0.4343769 -0.9001722 0.031731203
vn 0.4343769 -0.9001722 0.031731203
vn 0.4343769 -0.9001722 0.031731203
vn -0.49366876 -0.8646783 0.09285775
vn -0.49366876 -0.8646783 0.09285775
vn -0.49366876 -0.8646783 0.09285775
vn 0 1 -0
vn 0 1 -0
vn 0 1 -0
vn 0 1 -0
vn 0 1 -0
vn 0 1 -0
vn 0 -0.6026851 0.7979792
vn 0 -0.6026851 0.7979792
vn 0 -0.6026851 0.7979792
vn 0.45675185 -0.8894923 0.013463094
vn 0.45675185 -0.8894923 0.013463094
vn 0.45675185 -0.8894923 0.013463094
vn -0.45583546 -0.8899627 -0.013436108
vn -0.45583546 -0.8899627 -0.013436108
vn -0.45583546 -0.8899627 -0.013436108
vn 0 1 -0
vn 0 1 -0
vn 0 1 -0
vn 0 1 0
vn 0 1 0
vn 0 1 0
vn 0 -0.602685 0.7979792
vn 0 -0.602685 0.7979792
vn 0 -0.602685 0.7979792
vn 0.46329823 -0.8861697 -0.007622762
vn 0.46329823 -0.8861697 -0.007622762
vn 0.46329823 -0.8861697 -0.007622762
vn -0.4004433 -0.91059864 -0.10225109
vn -0.4004433 -0.91059864 -0.10225109
vn -0.4004433 -0.91059864 -0.10225109
vn 0 1 -0
vn 0 1 -0
vn 0 1 -0
vn 0 1 0
vn 0 1 0
vn 0 1 0
vn 0 -0.64479357 0.7643568
vn 0 -0.64479357 0.7643568
vn 0 -0.64479357 0.7643568
vn 0.44123265 -0.8973125 0.012000312
vn 0.44123265 -0.8973125 0.012000312
vn 0.44123265 -0.8973125 0.012000312
vn -0.3203143 -0.9401253 -0.1164615
vn -0.3203143 -0.9401253 -0.1164615
vn -0.3203143 -0.9401253 -0.1164615
vn 0 1 -0
vn 0 1 -0
vn 0 1 -0
vn 0 1 0
vn 0 1 0
vn 0 1 0
vn 0 -0.7302071 0.68322587
vn 0 -0.7302071 0.68322587
vn 0 -0.7302071 0.68322587
vn 0.40875855 -0.9080713 -0.09122991
vn 0.40875855 -0.9080713 -0.09122991
vn 0.40875855 -0.9080713 -0.09122991
vn -0.22989802 -0.9587274 -0.16729794
vn -0.22989802 -0.9587274 -0.16729794
vn -0.22989802 -0.9587274 -0.16729794
vn 0 1 0
vn 0 1 0
vn 0 1 0
vn 0 1 0
vn 0 1 0
vn 0 1 0
vn 0 -0.30612636 0.9519909
vn 0 -0.30612636 0.9519909
vn 0 -0.30612636 0.9519909
vn 0.82450867 -0.4381901 -0.35801503
vn 0.82450867 -0.4381901 -0.35801503
vn 0.82450867 -0.4381901 -0.35801503
vn -0.8951881 -0.3271851 0.3026354
vn -0.8951881 -0.3271851 0.3026354
vn -0.8951881 -0.3271851 0.3026354
vn 0 1 0
vn 0 1 0
vn 0 1 0
vn 0 1 -0
vn 0 1 -0
vn 0 1 -0
vn 0 -0.25102273 0.9679812
vn 0 -0.25102273 0.9679812
vn 0 -0.25102273 0.9679812
vn 0.90745956 -0.41804758 -0.04187438
vn 0.90745956 -0.41804758 -0.04187438
vn 0.90745956 -0.41804758 -0.04187438
vn -0.9406612 -0.3341646 -0.059081823
vn -0.9406612 -0.3341646 -0.059081823
vn -0.9406612 -0.3341646 -0.059081823
vn 0 1 0
vn 0 1 0
vn 0 1 0
vn 0 1 0
vn 0 1 0
vn 0 1 0
vn 0 -0.21231939 0.97720027
vn 0 -0.21231939 0.97720027
vn 0 -0.21231939 0.97720027
vn 0.8802385 -0.3641309 0.3042844
vn 0.8802385 -0.3641309 0.3042844
vn 0.8802385 -0.3641309 0.3042844
vn -0.8653112 -0.30091718 -0.4008557
vn -0.8653112 -0.30091718 -0.4008557
vn -0.8653112 -0.30091718 -0.4008557
vn 0 1 -0
vn 0 1 -0
vn 0 1 -0
vn 0 1 0
vn 0 1 0
vn 0 1 0
vn -0.19028413 -0.590952 0.7839438
vn -0.19028413 -0.590952 0.7839438
vn -0.19028413 -0.590952 0.7839438
vn -0.16419925 0.59378 -0.78769535
vn -0.16419925 0.59378 -0.78769535
vn -0.16419925 0.59378 -0.78769535
vn 0 0 -1
vn 0 0 -1
vn 0 0 -1
vn -0 0 -1
vn -0 0 -1
vn -0 0 -1
vn 0 0 -1
vn 0 0 -1
vn 0 0 -1
vn -0 0 -1
vn -0 0 -1
vn -0 0 -1
vn 0 0 -1
vn 0 0 -1
vn 0 0 -1
vn -0 0 -1
vn -0 0 -1
vn -0 0 -1
vn 0 -0.96996063 0.24326228
vn 0 -0.96996063 0.24326228
vn 0 -0.96996063 0.24326228
vn 0.14629464 0.98903286 0.020294636
vn 0.14629464 0.98903286 0.020294636
vn 0.14629464 0.98903286 0.020294636
vn 0.7851268 0.5747852 0.2306463
vn 0.7851268 0.5747852 0.2306463
vn 0.7851268 0.5747852 0.2306463
vn -0.23061615 -0.39863187 -0.8876423
vn -0.23061615 -0.39863187 -0.8876423
vn -0.23061615 -0.39863187 -0.8876423
vn -0.1577088 -0.77887917 -0.6070217
vn -0.1577088 -0.77887917 -0.6070217
vn -0.1577088 -0.77887917 -0.6070217
vn 0.7565837 -0.65389687 0
vn 0.7565837 -0.65389687 0
vn 0.7565837 -0.65389687 0
vn 0.37535325 -0.9268818 0
vn 0.37535325 -0.9268818 0
vn 0.37535325 -0.9268818 0
vn -0.23061615 -0.39863187 0.8876423
vn -0.23061615 -0.39863187 0.8876423
vn -0.23061615 -0.39863187 0.8876423
vn -0.1577088 -0.77887917 0.6070217
vn -0.1577088 -0.77887917 0.6070217
vn -0.1577088 -0.77887917 0.6070217
vn 0.14629464 -0.98903286 -0.020294636
vn 0.14629464 -0.98903286 -0.020294636
vn 0.14629464 -0.98903286 -0.020294636
vn 0.7851268 -0.5747852 -0.2306463
vn 0.7851268 -0.5747852 -0.2306463
vn 0.7851268 -0.5747852 -0.2306463
vn -0.23061615 -0.39863187 -0.8876423
vn -0.23061615 -0.39863187 -0.8876423
vn -0.23061615 -0.39863187 -0.8876423
vn -0.1577088 -0.77887917 -0.6070217
vn -0.1577088 -0.77887917 -0.6070217
vn -0.1577088 -0.77887917 -0.6070217
vn 0.7565837 -0.65389687 0
vn 0.7565837 -0.65389687 0
vn 0.7565837 -0.65389687 0
vn 0.37535325 -0.9268818 0
vn 0.37535325 -0.9268818 0
vn 0.37535325 -0.9268818 0
vn -0.23061615 -0.39863187 0.8876423
vn -0.23061615 -0.39863187 0.8876423
vn -0.23061615 -0.39863187 0.8876423
vn -0.1577088 -0.77887917 0.6070217
vn -0.1577088 -0.77887917 0.6070217
vn -0.1577088 -0.77887917 0.6070217
vn 0.11203314 -0.8077408 -0.57879484
vn 0.11203314 -0.8077408 -0.57879484
vn 0.11203314 -0.8077408 -0.57879484
vn 0.15424383 -0.7849937 -0.5999948
vn 0.15424383 -0.7849937 -0.5999948
vn 0.15424383 -0.7849937 -0.5999948
vn 0.19365358 -0.76157063 -0.6184726
vn 0.19365358 -0.76157063 -0.6184726
vn 0.19365358 -0.76157063 -0.6184726
vn 0.23026492 -0.7378581 -0.63446325
vn 0.23026492 -0.7378581 -0.63446325
vn 0.23026492 -0.7378581 -0.63446325
vn 0.11203314 0.8077408 0.57879484
vn 0.11203314 0.8077408 0.57879484
vn 0.11203314 0.8077408 0.57879484
vn 0.15424383 0.7849937 0.5999948
vn 0.15424383 0.7849937 0.5999948
vn 0.15424383 0.7849937 0.5999948
vn 0.19365358 0.76157063 0.6184726
vn 0.19365358 0.76157063 0.6184726
vn 0.19365358 0.76157063 0.6184726
vn 0.23026492 0.7378581 0.63446325
vn 0.23026492 0.7378581 0.63446325
vn 0.23026492 0.7378581 0.63446325
vn 0.89586025 0.43938893 0.06611822
vn 0.89586025 0.43938893 0.06611822
vn 0.89586025 0.43938893 0.06611822
vn 0 0.9575742 -0.28818697
vn 0 0.9575742 -0.28818697
vn 0 0.9575742 -0.28818697
vn 0.89586025 -0.43938893 -0.06611822
vn 0.89586025 -0.43938893 -0.06611822
vn 0.89586025 -0.43938893 -0.06611822
vn 0 -0.9575742 0.28818697
vn 0 -0.9575742 0.28818697
vn 0 -0.9575742 0.28818697
vn 0 -0.9575741 0.28818703
vn 0 -0.9575741 0.28818703
vn 0 -0.9575741 0.28818703
vn 0 -0.39286217 0.9195973
vn 0 -0.39286217 0.9195973
vn 0 -0.39286217 0.9195973
vn 0 -0.31532398 0.9489841
vn 0 -0.31532398 0.9489841
vn 0 -0.31532398 0.9489841
vn 0 -0.5534793 0.8328629
vn 0 -0.5534793 0.8328629
vn 0 -0.5534793 0.8328629
vn 0.10947595 -0.7752112 -0.6221436
vn 0.10947595 -0.7752112 -0.6221436
vn 0.10947595 -0.7752112 -0.6221436
vn 0.2418489 -0.6850238 -0.6872057
vn 0.2418489 -0.6850238 -0.6872057
vn 0.2418489 -0.6850238 -0.6872057
vn 0.10947595 0.7752112 0.6221436
vn 0.10947595 0.7752112 0.6221436
vn 0.10947595 0.7752112 0.6221436
vn 0.2418489 0.6850238 0.6872057
vn 0.2418489 0.6850238 0.6872057
vn 0.2418489 0.6850238 0.6872057
vn 0 -0.4460769 0.8949946
vn 0 -0.4460769 0.8949946
vn 0 -0.4460769 0.8949946
vn 0 -0.446077 0.89499456
vn 0 -0.446077 0.89499456
vn 0 -0.446077 0.89499456
vn 0 -0.5287879 0.8487541
vn 0 -0.5287879 0.8487541
vn 0 -0.5287879 0.8487541
vn 0 -0.5132953 0.858212
vn 0 -0.5132953 0.858212
vn 0 -0.5132953 0.858212
vn -0 0.9575742 0.28818697
vn -0 0.9575742 0.28818697
vn -0 0.9575742 0.28818697
vn 0 -0.29741204 0.95474917
vn 0 -0.29741204 0.95474917
vn 0 -0.29741204 0.95474917
vn 0 -0.29741183 0.9547492
vn 0 -0.29741183 0.9547492
vn 0 -0.29741183 0.9547492
vn 0 -0.29741243 0.9547491
vn 0 -0.29741243 0.9547491
vn 0 -0.29741243 0.9547491
vn 0 -0.29741216 0.95474917
vn 0 -0.29741216 0.95474917
vn 0 -0.29741216 0.95474917
vn 0 -0.29741126 0.95474946
vn 0 -0.29741126 0.95474946
vn 0 -0.29741126 0.95474946
vn 0.9126883 0.26112416 0.3143476
vn 0.9126883 0.26112416 0.3143476
vn 0.9126883 0.26112416 0.3143476
vn 0.912688 0.26112497 0.3143475
vn 0.912688 0.26112497 0.3143475
vn 0.912688 0.26112497 0.3143475
vn 0.91268796 0.26112497 0.31434754
vn 0.91268796 0.26112497 0.31434754
vn 0.91268796 0.26112497 0.31434754
vn 0.9126883 -0.26112416 -0.3143476
vn 0.9126883 -0.26112416 -0.3143476
vn 0.9126883 -0.26112416 -0.3143476
vn 0.912688 -0.26112497 -0.3143475
vn 0.912688 -0.26112497 -0.3143475
vn 0.912688 -0.26112497 -0.3143475
vn 0.91268796 -0.26112497 -0.31434754
vn 0.91268796 -0.26112497 -0.31434754
vn 0.91268796 -0.26112497 -0.31434754
vn 0 -0.8521106 0.52336174
vn 0 -0.8521106 0.52336174
vn 0 -0.8521106 0.52336174
vn 0 -0.92542624 0.37892792
vn 0 -0.92542624 0.37892792
vn 0 -0.92542624 0.37892792
vn 0 -0.94838095 0.3171336
vn 0 -0.94838095 0.3171336
vn 0 -0.94838095 0.3171336
vn 0 -0.8567699 0.5156988
vn 0 -0.8567699 0.5156988
vn 0 -0.8567699 0.5156988
f 1//1 2//2 3//3
f 4//4 5//5 6//6
f 7//7 8//8 9//9
f 10//10 11//11 12//12
f 13//13 14//14 15//15
f 16//16 17//17 18//18
f 19//19 20//20 21//21
f 22//22 23//23 24//24
f 25//25 26//26 27//27
f 28//28 29//29 30//30
f 31//31 32//32 33//33
f 34//34 35//35 36//36
f 37//37 38//38 39//39
f 40//40 41//41 42//42
f 43//43 44//44 45//45
f 46//46 47//47 48//48
f 49//49 50//50 51//51
f 52//52 53//53 54//54
f 55//55 56//56 57//57
f 58//58 59//59 60//60
f 61//61 62//62 63//63
f 64//64 65//65 66//66
f 67//67 68//68 69//69
f 70//70 71//71 72//72
f 73//73 74//74 75//75
f 76//76 77//77 78//78
f 79//79 80//80 81//81
f 82//82 83//83 84//84
f 85//85 86//86 87//87
f 88//88 89//89 90//90
f 91//91 92//92 93//93
f 94//94 95//95 96//96
f 97//97 98//98 99//99
f 100//100 101//101 102//102
f 103//103 104//104 105//105
f 106//106 107//107 108//108
f 109//109 110//110 111//111
f 112//112 113//113 114//114
f 115//115 116//116 117//117
f 118//118 119//119 120//120
f 121//121 122//122 123//123
f 124//124 125//125 126//126
f 127//127 128//128 129//129
f 130//130 131//131 132//132
f 133//133 134//134 135//135
f 136//136 137//137 138//138
f 139//139 140//140 141//141
f 142//142 143//143 144//144
f 145//145 146//146 147//147
f 148//148 149//149 150//150
f 151//151 152//152 153//153
f 154//154 155//155 156//156
f 157//157 158//158 159//159
f 160//160 161//161 162//162
f 163//163 164//164 165//165
f 166//166 167//167 168//168
f 169//169 170//170 171//171
f 172//172 173//173 174//174
f 175//175 176//176 177//177
f 178//178 179//179 180//180
f 181//181 182//182 183//183
f 184//184 185//185 186//186
f 187//187 188//188 189//189
f 190//190 191//191 192//192
f 193//193 194//194 195//195
f 196//196 197//197 198//198
f 199//199 200//200 201//201
f 202//202 203//203 204//204
f 205//205 206//206 207//207
f 208//208 209//209 210//210
f 211//211 212//212 213//213
f 214//214 215//215 216//216
f 217//217 218//218 219//219
f 220//220 221//221 222//222
f 223//223 224//224 225//225
f 226//226 227//227 228//228
f 229//229 230//230 231//231
f 232//232 233//233 234//234
f 235//235 236//236 237//237
f 238//238 239//239 240//240
f 241//241 242//242 243//243
f 244//244 245//245 246//246
f 247//247 248//248 249//249
f 250//250 251//251 252//252
f 253//253 254//254 255//255
f 256//256 257//257 258//258
f 259//259 260//260 261//261
f 262//262 263//263 264//264
f 265//265 266//266 267//267
f 268//268 269//269 270//270
f 271//271 272//272 273//273
f 274//274 275//275 276//276
f 277//277 278//278 279//279
f 280//280 281//281 282//282
f 283//283 284//284 285//285
f 286//286 287//287 288//288
f 289//289 290//290 291//291
f 292//292 293//293 294//294
f 295//295 296//296 297//297
f 298//298 299//299 300//300
f 301//301 302//302 303//303
f 304//304 305//305 306//306
f 307//307 308//308 309//309
f 310//310 311//311 312//312
f 313//313 314//314 315//315
f 316//316 317//317 318//318
f 319//319 320//320 321//321
f 322//322 323//323 324//324
f 325//325 326//326 327//327
f 328//328 329//329 330//330
f 331//331 332//332 333//333
f 334//334 335//335 336//336
f 337//337 338//338 339//339
f 340//340 341//341 342//342
f 343//343 344//344 345//345
