# Exported from SharpOpenGl procedural mesh
o miner_tractor
# vertices 33
v 0 0.29817876 1.4411876
v -0.565638 0 0
v 0.565638 0 0
v -0.565638 0 0
v 0.565638 0 0
v 0 0 -1.2970688
v -0.17676187 0.1325239 -1.2105975
v -0.70704746 0.3644407 -1.1297921
v -0.22625518 0.07951433 -1.3116043
v 0.23736593 0.1325239 -0.057647467
v 0.9494637 0.41745025 0.023157954
v 0.3038284 0.07951433 -0.15865424
v -0.29797 0.1325239 1.0953026
v -1.19188 0.47045985 1.176108
v -0.3814016 0.07951433 0.9942958
v -0.70704746 0.053009555 -1.7870727
v -0.9252221 0 -2.267057
v -0.48887283 0 -2.267057
v 0 0.053009555 -1.7870727
v -0.21817465 0 -2.267057
v 0.21817465 0 -2.267057
v 0.70704746 0.053009555 -1.7870727
v 0.48887283 0 -2.267057
v 0.9252221 0 -2.267057
v -0.44442984 0.25179538 0.23059002
v -0.58583933 0.092766725 0.10938188
v -0.30302036 0.092766725 0.10938188
v 0 0.25179538 0.089180514
v -0.1414095 0.092766725 -0.032027625
v 0.1414095 0.092766725 -0.032027625
v 0.44442984 0.25179538 -0.052228987
v 0.30302036 0.092766725 -0.17343712
v 0.58583933 0.092766725 -0.17343712
vn 0 -0.9792601 0.2026069
vn 0 -0.9792601 0.2026069
vn 0 -0.9792601 0.2026069
vn -0 1 0
vn -0 1 0
vn -0 1 0
vn -0.26425582 -0.7946537 0.5465293
vn -0.26425582 -0.7946537 0.5465293
vn -0.26425582 -0.7946537 0.5465293
vn -0.24759774 0.7812946 -0.57295203
vn -0.24759774 0.7812946 -0.57295203
vn -0.24759774 0.7812946 -0.57295203
vn -0.23584956 -0.7666612 0.5971645
vn -0.23584956 -0.7666612 0.5971645
vn -0.23584956 -0.7666612 0.5971645
vn 0 -0.99395674 0.10977277
vn 0 -0.99395674 0.10977277
vn 0 -0.99395674 0.10977277
vn 0 -0.99395674 0.109772764
vn 0 -0.99395674 0.109772764
vn 0 -0.99395674 0.109772764
vn 0 -0.99395674 0.10977277
vn 0 -0.99395674 0.10977277
vn 0 -0.99395674 0.10977277
vn 0 -0.60618067 0.79532695
vn 0 -0.60618067 0.79532695
vn 0 -0.60618067 0.79532695
vn 0 -0.60618067 0.7953269
vn 0 -0.60618067 0.7953269
vn 0 -0.60618067 0.7953269
vn 0 -0.60618067 0.795327
vn 0 -0.60618067 0.795327
vn 0 -0.60618067 0.795327
f 1//1 2//2 3//3
f 4//4 5//5 6//6
f 7//7 8//8 9//9
f 10//10 11//11 12//12
f 13//13 14//14 15//15
f 16//16 17//17 18//18
f 19//19 20//20 21//21
f 22//22 23//23 24//24
f 25//25 26//26 27//27
f 28//28 29//29 30//30
f 31//31 32//32 33//33
