# Exported from SharpOpenGl procedural mesh
o miner_eva
# vertices 24
v 0 0.24337299 1.180379
v -0.4580798 0 0
v 0.4580798 0 0
v -0.4580798 0 0
v 0.4580798 0 0
v 0 0 -1.0623411
v -0.14314993 0.10816578 -0.9915184
v -0.5725997 0.2974559 -0.92607844
v -0.1832319 0.06489947 -1.0733184
v 0.19222991 0.10816578 -0.047215164
v 0.76891965 0.3407222 0.018224806
v 0.24605428 0.06489947 -0.12901512
v -0.24130987 0.10816578 0.89708805
v -0.96523947 0.38398853 0.962528
v -0.30887663 0.06489947 0.81528807
v -0.4580798 0.04326631 -1.46367
v -0.63476765 0 -1.8523834
v -0.2813919 0 -1.8523834
v 0.4580798 0.04326631 -1.46367
v 0.2813919 0 -1.8523834
v 0.63476765 0 -1.8523834
v 0 0.20551497 0.18886064
v -0.11451995 0.07571604 0.09070069
v 0.11451995 0.07571604 0.09070069
vn 0 -0.979399 0.20193452
vn 0 -0.979399 0.20193452
vn 0 -0.979399 0.20193452
vn -0 1 0
vn -0 1 0
vn -0 1 0
vn -0.26555917 -0.7923579 0.5492243
vn -0.26555917 -0.7923579 0.5492243
vn -0.26555917 -0.7923579 0.5492243
vn -0.24877782 0.77890885 -0.57568276
vn -0.24877782 0.77890885 -0.57568276
vn -0.24877782 0.77890885 -0.57568276
vn -0.23693165 -0.7641847 0.59990424
vn -0.23693165 -0.7641847 0.59990424
vn -0.23693165 -0.7641847 0.59990424
vn 0 -0.9938624 0.11062331
vn 0 -0.9938624 0.11062331
vn 0 -0.9938624 0.11062331
vn 0 -0.9938624 0.11062331
vn 0 -0.9938624 0.11062331
vn 0 -0.9938624 0.11062331
vn 0 -0.60318375 0.79760224
vn 0 -0.60318375 0.79760224
vn 0 -0.60318375 0.79760224
f 1//1 2//2 3//3
f 4//4 5//5 6//6
f 7//7 8//8 9//9
f 10//10 11//11 12//12
f 13//13 14//14 15//15
f 16//16 17//17 18//18
f 19//19 20//20 21//21
f 22//22 23//23 24//24
