# Exported from SharpOpenGl procedural mesh
o scout_light
# vertices 21
v 0 0.10308614 1.0702016
v -0.17006785 0 0
v 0.17006785 0 0
v -0.17006785 0 0
v 0.17006785 0 0
v 0 0 -0.96318144
v -0.053146202 0.04581606 -0.89896935
v -0.21258481 0.12599418 -0.87467396
v -0.06802714 0.027489636 -0.92933863
v 0.071367756 0.04581606 -0.042808056
v 0.28547102 0.14432059 -0.01851265
v 0.09135073 0.027489636 -0.073177315
v -0.089589305 0.04581606 0.81335324
v -0.35835722 0.16264702 0.83764863
v -0.11467431 0.027489636 0.78298396
v -0.17006785 0.018326424 -1.3270501
v -0.2210882 0 -1.4392948
v -0.11904749 0 -1.4392948
v 0.17006785 0.018326424 -1.3270501
v 0.11904749 0 -1.4392948
v 0.2210882 0 -1.4392948
vn 0 -0.9953929 0.09588026
vn 0 -0.9953929 0.09588026
vn 0 -0.9953929 0.09588026
vn -0 1 0
vn -0 1 0
vn -0 1 0
vn -0.28727925 -0.75130713 0.59414506
vn -0.28727925 -0.75130713 0.59414506
vn -0.28727925 -0.75130713 0.59414506
vn -0.26835743 0.7364476 -0.62099075
vn -0.26835743 0.7364476 -0.62099075
vn -0.26835743 0.7364476 -0.62099075
vn -0.2547996 -0.72032285 0.645145
vn -0.2547996 -0.72032285 0.645145
vn -0.2547996 -0.72032285 0.645145
vn 0 -0.98693174 0.16113834
vn 0 -0.98693174 0.16113834
vn 0 -0.98693174 0.16113834
vn 0 -0.98693174 0.16113834
vn 0 -0.98693174 0.16113834
vn 0 -0.98693174 0.16113834
f 1//1 2//2 3//3
f 4//4 5//5 6//6
f 7//7 8//8 9//9
f 10//10 11//11 12//12
f 13//13 14//14 15//15
f 16//16 17//17 18//18
f 19//19 20//20 21//21
