# Exported from SharpOpenGl procedural mesh
o carrier_command
# vertices 84
v 0 2.5671768 1.1307772
v 1.6503582 0 0
v 1.7817403 0 0.76418036
v 1.6503582 0 0
v 1.7817403 0 0.76418036
v 0 0 -2.826943
v 0 2.5671768 1.1307772
v 1.7817403 0 0.76418036
v 0.63552785 0 1.285739
v 1.7817403 0 0.76418036
v 0.63552785 0 1.285739
v 0 0 -2.826943
v 0 2.5671768 1.1307772
v 0.63552785 0 1.285739
v -0.17274289 0 1.3990843
v 0.63552785 0 1.285739
v -0.17274289 0 1.3990843
v 0 0 -2.826943
v 0 2.5671768 1.1307772
v -0.17274289 0 1.3990843
v -1.2333308 0 1.0682303
v -0.17274289 0 1.3990843
v -1.2333308 0 1.0682303
v 0 0 -2.826943
v 0 2.5671768 1.1307772
v -1.2333308 0 1.0682303
v -1.9447672 0 0.3982207
v -1.2333308 0 1.0682303
v -1.9447672 0 0.3982207
v 0 0 -2.826943
v 0 2.5671768 1.1307772
v -1.9447672 0 0.3982207
v -1.266862 0 -0.39822093
v -1.9447672 0 0.3982207
v -1.266862 0 -0.39822093
v 0 0 -2.826943
v 0 2.5671768 1.1307772
v -1.266862 0 -0.39822093
v -0.8898819 0 -1.0682307
v -1.266862 0 -0.39822093
v -0.8898819 0 -1.0682307
v 0 0 -2.826943
v 0 2.5671768 1.1307772
v -0.8898819 0 -1.0682307
v -0.2925246 0 -1.3990844
v -0.8898819 0 -1.0682307
v -0.2925246 0 -1.3990844
v 0 0 -2.826943
v 0 2.5671768 1.1307772
v -0.2925246 0 -1.3990844
v 0.7632977 0 -1.2857388
v -0.2925246 0 -1.3990844
v 0.7632977 0 -1.2857388
v 0 0 -2.826943
v 0 2.5671768 1.1307772
v 0.7632977 0 -1.2857388
v 1.0070056 0 -0.7641799
v 0.7632977 0 -1.2857388
v 1.0070056 0 -0.7641799
v 0 0 -2.826943
v 0 2.5671768 1.1307772
v 1.0070056 0 -0.7641799
v 1.5801009 0 9.211349E-07
v 1.0070056 0 -0.7641799
v 1.5801009 0 9.211349E-07
v 0 0 -2.826943
v -1.6503582 0.1387663 -3.5054092
v -2.4425302 0 -5.2481875
v -0.8581863 0 -5.2481875
v -1.6503582 0.572411 -3.1093233
v -2.1256614 0.1387663 -3.5054092
v -1.175055 0.1387663 -3.5054092
v 0 0.1387663 -3.5054092
v -0.7921719 0 -5.2481875
v 0.7921719 0 -5.2481875
v 0 0.572411 -3.1093233
v -0.47530314 0.1387663 -3.5054092
v 0.47530314 0.1387663 -3.5054092
v 1.6503582 0.1387663 -3.5054092
v 0.8581863 0 -5.2481875
v 2.4425302 0 -5.2481875
v 1.6503582 0.572411 -3.1093233
v 1.175055 0.1387663 -3.5054092
v 2.1256614 0.1387663 -3.5054092
vn -0.80427307 -0.5779488 0.13827512
vn -0.80427307 -0.5779488 0.13827512
vn -0.80427307 -0.5779488 0.13827512
vn -0 -0.99999994 0
vn -0 -0.99999994 0
vn -0 -0.99999994 0
vn -0.40912518 -0.15555602 -0.89912117
vn -0.40912518 -0.15555602 -0.89912117
vn -0.40912518 -0.15555602 -0.89912117
vn -0 -1 0
vn -0 -1 0
vn -0 -1 0
vn -0.1382616 -0.09374246 -0.98594934
vn -0.1382616 -0.09374246 -0.98594934
vn -0.1382616 -0.09374246 -0.98594934
vn -0 -0.99999994 0
vn -0 -0.99999994 0
vn -0 -0.99999994 0
vn 0.29568493 -0.11896033 -0.9478496
vn 0.29568493 -0.11896033 -0.9478496
vn 0.29568493 -0.11896033 -0.9478496
vn 0 -1 -0
vn 0 -1 -0
vn 0 -1 -0
vn 0.654546 -0.2975255 -0.6950166
vn 0.654546 -0.2975255 -0.6950166
vn 0.654546 -0.2975255 -0.6950166
vn 0 -0.99999994 -0
vn 0 -0.99999994 -0
vn 0 -0.99999994 -0
vn 0.6057427 -0.60600674 0.5155886
vn 0.6057427 -0.60600674 0.5155886
vn 0.6057427 -0.60600674 0.5155886
vn 0 1 0
vn 0 1 0
vn 0 1 0
vn 0.7065517 -0.58544546 0.39754033
vn 0.7065517 -0.58544546 0.39754033
vn 0.7065517 -0.58544546 0.39754033
vn 0 1 0
vn 0 1 0
vn 0 1 0
vn 0.35705012 -0.6759698 0.644655
vn 0.35705012 -0.6759698 0.644655
vn 0.35705012 -0.6759698 0.644655
vn 0 1 0
vn 0 1 0
vn 0 1 0
vn -0.07670593 -0.69539535 0.7145218
vn -0.07670593 -0.69539535 0.7145218
vn -0.07670593 -0.69539535 0.7145218
vn -0 1 0
vn -0 1 0
vn -0 1 0
vn -0.7534004 -0.55538785 0.35204
vn -0.7534004 -0.55538785 0.35204
vn -0.7534004 -0.55538785 0.35204
vn -0 -1 0
vn -0 -1 0
vn -0 -1 0
vn -0.6379628 -0.603407 0.47843847
vn -0.6379628 -0.603407 0.47843847
vn -0.6379628 -0.603407 0.47843847
vn -0 0.99999994 0
vn -0 0.99999994 0
vn -0 0.99999994 0
vn 0 -0.99684507 0.07937241
vn 0 -0.99684507 0.07937241
vn 0 -0.99684507 0.07937241
vn 0 -0.6744082 0.73835874
vn 0 -0.6744082 0.73835874
vn 0 -0.6744082 0.73835874
vn 0 -0.99684507 0.079372406
vn 0 -0.99684507 0.079372406
vn 0 -0.99684507 0.079372406
vn 0 -0.6744082 0.73835874
vn 0 -0.6744082 0.73835874
vn 0 -0.6744082 0.73835874
vn 0 -0.99684507 0.07937241
vn 0 -0.99684507 0.07937241
vn 0 -0.99684507 0.07937241
vn 0 -0.6744082 0.73835874
vn 0 -0.6744082 0.73835874
vn 0 -0.6744082 0.73835874
f 1//1 2//2 3//3
f 4//4 5//5 6//6
f 7//7 8//8 9//9
f 10//10 11//11 12//12
f 13//13 14//14 15//15
f 16//16 17//17 18//18
f 19//19 20//20 21//21
f 22//22 23//23 24//24
f 25//25 26//26 27//27
f 28//28 29//29 30//30
f 31//31 32//32 33//33
f 34//34 35//35 36//36
f 37//37 38//38 39//39
f 40//40 41//41 42//42
f 43//43 44//44 45//45
f 46//46 47//47 48//48
f 49//49 50//50 51//51
f 52//52 53//53 54//54
f 55//55 56//56 57//57
f 58//58 59//59 60//60
f 61//61 62//62 63//63
f 64//64 65//65 66//66
f 67//67 68//68 69//69
f 70//70 71//71 72//72
f 73//73 74//74 75//75
f 76//76 77//77 78//78
f 79//79 80//80 81//81
f 82//82 83//83 84//84
