# Exported from SharpOpenGl procedural mesh
o destroyer_assault
# vertices 84
v 0 1.3496298 0.8609707
v 0.71564955 0 0
v 0.77262115 0 0.58184487
v 0.71564955 0 0
v 0.77262115 0 0.58184487
v 0 0 -2.1524267
v 0 1.3496298 0.8609707
v 0.77262115 0 0.58184487
v 0.27558574 0 0.97895813
v 0.77262115 0 0.58184487
v 0.27558574 0 0.97895813
v 0 0 -2.1524267
v 0 1.3496298 0.8609707
v 0.27558574 0 0.97895813
v -0.07490699 0 1.0652591
v 0.27558574 0 0.97895813
v -0.07490699 0 1.0652591
v 0 0 -2.1524267
v 0 1.3496298 0.8609707
v -0.07490699 0 1.0652591
v -0.5348128 0 0.8133477
v -0.07490699 0 1.0652591
v -0.5348128 0 0.8133477
v 0 0 -2.1524267
v 0 1.3496298 0.8609707
v -0.5348128 0 0.8133477
v -0.84331495 0 0.30320415
v -0.5348128 0 0.8133477
v -0.84331495 0 0.30320415
v 0 0 -2.1524267
v 0 1.3496298 0.8609707
v -0.84331495 0 0.30320415
v -0.549353 0 -0.30320436
v -0.84331495 0 0.30320415
v -0.549353 0 -0.30320436
v 0 0 -2.1524267
v 0 1.3496298 0.8609707
v -0.549353 0 -0.30320436
v -0.38588208 0 -0.813348
v -0.549353 0 -0.30320436
v -0.38588208 0 -0.813348
v 0 0 -2.1524267
v 0 1.3496298 0.8609707
v -0.38588208 0 -0.813348
v -0.1268483 0 -1.0652591
v -0.38588208 0 -0.813348
v -0.1268483 0 -1.0652591
v 0 0 -2.1524267
v 0 1.3496298 0.8609707
v -0.1268483 0 -1.0652591
v 0.33099094 0 -0.9789581
v -0.1268483 0 -1.0652591
v 0.33099094 0 -0.9789581
v 0 0 -2.1524267
v 0 1.3496298 0.8609707
v 0.33099094 0 -0.9789581
v 0.43667072 0 -0.5818445
v 0.33099094 0 -0.9789581
v 0.43667072 0 -0.5818445
v 0 0 -2.1524267
v 0 1.3496298 0.8609707
v 0.43667072 0 -0.5818445
v 0.6851837 0 7.013497E-07
v 0.43667072 0 -0.5818445
v 0.6851837 0 7.013497E-07
v 0 0 -2.1524267
v -0.71564955 0.072952956 -2.6690092
v -1.0223565 0 -3.3437645
v -0.40894258 0 -3.3437645
v -0.71564955 0.30093095 -2.5156558
v -0.8996737 0.072952956 -2.6690092
v -0.5316254 0.072952956 -2.6690092
v 0 0.072952956 -2.6690092
v -0.30670696 0 -3.3437645
v 0.30670696 0 -3.3437645
v 0 0.30093095 -2.5156558
v -0.18402418 0.072952956 -2.6690092
v 0.18402418 0.072952956 -2.6690092
v 0.71564955 0.072952956 -2.6690092
v 0.40894258 0 -3.3437645
v 1.0223565 0 -3.3437645
v 0.71564955 0.30093095 -2.5156558
v 0.5316254 0.072952956 -2.6690092
v 0.8996737 0.072952956 -2.6690092
vn -0.85720813 -0.508084 0.08393394
vn -0.85720813 -0.508084 0.08393394
vn -0.85720813 -0.508084 0.08393394
vn -0 -0.99999994 0
vn -0 -0.99999994 0
vn -0 -0.99999994 0
vn -0.61257434 -0.19211124 -0.76671106
vn -0.61257434 -0.19211124 -0.76671106
vn -0.61257434 -0.19211124 -0.76671106
vn -0 -1 0
vn -0 -1 0
vn -0 -1 0
vn -0.23697765 -0.13252726 -0.9624334
vn -0.23697765 -0.13252726 -0.9624334
vn -0.23697765 -0.13252726 -0.9624334
vn -0 -1 0
vn -0 -1 0
vn -0 -1 0
vn 0.47440946 -0.15743087 -0.8661127
vn 0.47440946 -0.15743087 -0.8661127
vn 0.47440946 -0.15743087 -0.8661127
vn 0 -0.99999994 -0
vn 0 -0.99999994 -0
vn 0 -0.99999994 -0
vn 0.81479365 -0.3054887 -0.49273506
vn 0.81479365 -0.3054887 -0.49273506
vn 0.81479365 -0.3054887 -0.49273506
vn 0 -0.99999994 -0
vn 0 -0.99999994 -0
vn 0 -0.99999994 -0
vn 0.7224548 -0.59616053 0.35021642
vn 0.7224548 -0.59616053 0.35021642
vn 0.7224548 -0.59616053 0.35021642
vn 0 1 0
vn 0 1 0
vn 0 1 0
vn 0.7981417 -0.5454887 0.2557573
vn 0.7981417 -0.5454887 0.2557573
vn 0.7981417 -0.5454887 0.2557573
vn 0 1 0
vn 0 1 0
vn 0 1 0
vn 0.4716219 -0.73647094 0.48495707
vn 0.4716219 -0.73647094 0.48495707
vn 0.4716219 -0.73647094 0.48495707
vn 0 1 0
vn 0 1 0
vn 0 1 0
vn -0.10842695 -0.81078035 0.57522064
vn -0.10842695 -0.81078035 0.57522064
vn -0.10842695 -0.81078035 0.57522064
vn -0 1 0
vn -0 1 0
vn -0 1 0
vn -0.83317834 -0.50660807 0.22172526
vn -0.83317834 -0.50660807 0.22172526
vn -0.83317834 -0.50660807 0.22172526
vn -0 -0.99999994 0
vn -0 -0.99999994 0
vn -0 -0.99999994 0
vn -0.74721414 -0.5829393 0.31914398
vn -0.74721414 -0.5829393 0.31914398
vn -0.74721414 -0.5829393 0.31914398
vn -0 1 0
vn -0 1 0
vn -0 1 0
vn 0 -0.994206 0.10749121
vn 0 -0.994206 0.10749121
vn 0 -0.994206 0.10749121
vn 0 -0.5581427 0.82974494
vn 0 -0.5581427 0.82974494
vn 0 -0.5581427 0.82974494
vn 0 -0.994206 0.10749121
vn 0 -0.994206 0.10749121
vn 0 -0.994206 0.10749121
vn 0 -0.5581427 0.82974494
vn 0 -0.5581427 0.82974494
vn 0 -0.5581427 0.82974494
vn 0 -0.994206 0.10749121
vn 0 -0.994206 0.10749121
vn 0 -0.994206 0.10749121
vn 0 -0.5581427 0.82974494
vn 0 -0.5581427 0.82974494
vn 0 -0.5581427 0.82974494
f 1//1 2//2 3//3
f 4//4 5//5 6//6
f 7//7 8//8 9//9
f 10//10 11//11 12//12
f 13//13 14//14 15//15
f 16//16 17//17 18//18
f 19//19 20//20 21//21
f 22//22 23//23 24//24
f 25//25 26//26 27//27
f 28//28 29//29 30//30
f 31//31 32//32 33//33
f 34//34 35//35 36//36
f 37//37 38//38 39//39
f 40//40 41//41 42//42
f 43//43 44//44 45//45
f 46//46 47//47 48//48
f 49//49 50//50 51//51
f 52//52 53//53 54//54
f 55//55 56//56 57//57
f 58//58 59//59 60//60
f 61//61 62//62 63//63
f 64//64 65//65 66//66
f 67//67 68//68 69//69
f 70//70 71//71 72//72
f 73//73 74//74 75//75
f 76//76 77//77 78//78
f 79//79 80//80 81//81
f 82//82 83//83 84//84
