# Exported from SharpOpenGl procedural mesh
o drone_swarm
# vertices 318
v 0 0.30157897 0.16978878
v 0.20600063 0.08558322 0
v 0.2581743 0.08558322 0.06905932
v 0.20600063 0.08558322 0
v 0.2581743 0.08558322 0.06905932
v 0.1339004 0 0
v 0.2581743 0.08558322 0.06905932
v 0.16781329 0 0.044888556
v 0.1339004 0 0
v 0.1339004 0 0
v 0.16781329 0 0.044888556
v 0 0 -0.40131894
v 0 0.30157897 0.16978878
v 0.2581743 0.08558322 0.06905932
v 0.12463226 0.08558322 0.12617767
v 0.2581743 0.08558322 0.06905932
v 0.12463226 0.08558322 0.12617767
v 0.16781329 0 0.044888556
v 0.12463226 0.08558322 0.12617767
v 0.08101097 0 0.082015485
v 0.16781329 0 0.044888556
v 0.16781329 0 0.044888556
v 0.08101097 0 0.082015485
v 0 0 -0.40131894
v 0 0.30157897 0.16978878
v 0.12463226 0.08558322 0.12617767
v 0.041556984 0.08558322 0.16147873
v 0.12463226 0.08558322 0.12617767
v 0.041556984 0.08558322 0.16147873
v 0.08101097 0 0.082015485
v 0.041556984 0.08558322 0.16147873
v 0.027012039 0 0.10496117
v 0.08101097 0 0.082015485
v 0.08101097 0 0.082015485
v 0.027012039 0 0.10496117
v 0 0 -0.40131894
v 0 0.30157897 0.16978878
v 0.041556984 0.08558322 0.16147873
v -0.025522834 0.08558322 0.16885866
v 0.041556984 0.08558322 0.16147873
v -0.025522834 0.08558322 0.16885866
v 0.027012039 0 0.10496117
v -0.025522834 0.08558322 0.16885866
v -0.01658984 0 0.109758124
v 0.027012039 0 0.10496117
v 0.027012039 0 0.10496117
v -0.01658984 0 0.109758124
v 0 0 -0.40131894
v 0 0.30157897 0.16978878
v -0.025522834 0.08558322 0.16885866
v -0.13384199 0.08558322 0.1470414
v -0.025522834 0.08558322 0.16885866
v -0.13384199 0.08558322 0.1470414
v -0.01658984 0 0.109758124
v -0.13384199 0.08558322 0.1470414
v -0.08699729 0 0.095576905
v -0.01658984 0 0.109758124
v -0.01658984 0 0.109758124
v -0.08699729 0 0.095576905
v 0 0 -0.40131894
v 0 0.30157897 0.16978878
v -0.13384199 0.08558322 0.1470414
v -0.12291809 0.08558322 0.099799335
v -0.13384199 0.08558322 0.1470414
v -0.12291809 0.08558322 0.099799335
v -0.08699729 0 0.095576905
v -0.12291809 0.08558322 0.099799335
v -0.079896756 0 0.06486957
v -0.08699729 0 0.095576905
v -0.08699729 0 0.095576905
v -0.079896756 0 0.06486957
v 0 0 -0.40131894
v 0 0.30157897 0.16978878
v -0.12291809 0.08558322 0.099799335
v -0.1547913 0.08558322 0.03530106
v -0.12291809 0.08558322 0.099799335
v -0.1547913 0.08558322 0.03530106
v -0.079896756 0 0.06486957
v -0.1547913 0.08558322 0.03530106
v -0.10061434 0 0.022945687
v -0.079896756 0 0.06486957
v -0.079896756 0 0.06486957
v -0.10061434 0 0.022945687
v 0 0 -0.40131894
v 0 0.30157897 0.16978878
v -0.1547913 0.08558322 0.03530106
v -0.2664191 0.08558322 -0.03530109
v -0.1547913 0.08558322 0.03530106
v -0.2664191 0.08558322 -0.03530109
v -0.10061434 0 0.022945687
v -0.2664191 0.08558322 -0.03530109
v -0.17317241 0 -0.022945708
v -0.10061434 0 0.022945687
v -0.10061434 0 0.022945687
v -0.17317241 0 -0.022945708
v 0 0 -0.40131894
v 0 0.30157897 0.16978878
v -0.2664191 0.08558322 -0.03530109
v -0.19145298 0.08558322 -0.09979936
v -0.2664191 0.08558322 -0.03530109
v -0.19145298 0.08558322 -0.09979936
v -0.17317241 0 -0.022945708
v -0.19145298 0.08558322 -0.09979936
v -0.12444443 0 -0.06486958
v -0.17317241 0 -0.022945708
v -0.17317241 0 -0.022945708
v -0.12444443 0 -0.06486958
v 0 0 -0.40131894
v 0 0.30157897 0.16978878
v -0.19145298 0.08558322 -0.09979936
v -0.06586621 0.08558322 -0.1470414
v -0.19145298 0.08558322 -0.09979936
v -0.06586621 0.08558322 -0.1470414
v -0.12444443 0 -0.06486958
v -0.06586621 0.08558322 -0.1470414
v -0.042813033 0 -0.095576905
v -0.12444443 0 -0.06486958
v -0.12444443 0 -0.06486958
v -0.042813033 0 -0.095576905
v 0 0 -0.40131894
v 0 0.30157897 0.16978878
v -0.06586621 0.08558322 -0.1470414
v -0.020329766 0.08558322 -0.16885866
v -0.06586621 0.08558322 -0.1470414
v -0.020329766 0.08558322 -0.16885866
v -0.042813033 0 -0.095576905
v -0.020329766 0.08558322 -0.16885866
v -0.013214347 0 -0.109758124
v -0.042813033 0 -0.095576905
v -0.042813033 0 -0.095576905
v -0.013214347 0 -0.109758124
v 0 0 -0.40131894
v 0 0.30157897 0.16978878
v -0.020329766 0.08558322 -0.16885866
v 0.08752442 0.08558322 -0.16147871
v -0.020329766 0.08558322 -0.16885866
v 0.08752442 0.08558322 -0.16147871
v -0.013214347 0 -0.109758124
v 0.08752442 0.08558322 -0.16147871
v 0.05689087 0 -0.10496116
v -0.013214347 0 -0.109758124
v -0.013214347 0 -0.109758124
v 0.05689087 0 -0.10496116
v 0 0 -0.40131894
v 0 0.30157897 0.16978878
v 0.08752442 0.08558322 -0.16147871
v 0.13222586 0.08558322 -0.12617764
v 0.08752442 0.08558322 -0.16147871
v 0.13222586 0.08558322 -0.12617764
v 0.05689087 0 -0.10496116
v 0.13222586 0.08558322 -0.12617764
v 0.085946806 0 -0.08201546
v 0.05689087 0 -0.10496116
v 0.05689087 0 -0.10496116
v 0.085946806 0 -0.08201546
v 0 0 -0.40131894
v 0 0.30157897 0.16978878
v 0.13222586 0.08558322 -0.12617764
v 0.1196096 0.08558322 -0.0690593
v 0.13222586 0.08558322 -0.12617764
v 0.1196096 0.08558322 -0.0690593
v 0.085946806 0 -0.08201546
v 0.1196096 0.08558322 -0.0690593
v 0.077746235 0 -0.04488854
v 0.085946806 0 -0.08201546
v 0.085946806 0 -0.08201546
v 0.077746235 0 -0.04488854
v 0 0 -0.40131894
v 0 0.30157897 0.16978878
v 0.1196096 0.08558322 -0.0690593
v 0.23373798 0.08558322 2.9686815E-08
v 0.1196096 0.08558322 -0.0690593
v 0.23373798 0.08558322 2.9686815E-08
v 0.077746235 0 -0.04488854
v 0.23373798 0.08558322 2.9686815E-08
v 0.15192968 0 1.929643E-08
v 0.077746235 0 -0.04488854
v 0.077746235 0 -0.04488854
v 0.15192968 0 1.929643E-08
v 0 0 -0.40131894
v 0.18025056 0.07274574 -0.11576509
v 0.11238438 0.07274574 -0.094626255
v 0 0.08147523 -0.11576509
v 0.18025056 0.014549148 -0.11576509
v 0.11238438 0.014549148 -0.094626255
v 0.18025056 0.07274574 -0.11576509
v 0.11238438 0.014549148 -0.094626255
v 0.11238438 0.07274574 -0.094626255
v 0.18025056 0.07274574 -0.11576509
v 0.11238438 0.07274574 -0.094626255
v -0.040109523 0.07274574 -0.08940539
v 0 0.08147523 -0.11576509
v 0.11238438 0.014549148 -0.094626255
v -0.040109523 0.014549148 -0.08940539
v 0.11238438 0.07274574 -0.094626255
v -0.040109523 0.014549148 -0.08940539
v -0.040109523 0.07274574 -0.08940539
v 0.11238438 0.07274574 -0.094626255
v -0.040109523 0.07274574 -0.08940539
v -0.16240014 0.07274574 -0.10403392
v 0 0.08147523 -0.11576509
v -0.040109523 0.014549148 -0.08940539
v -0.16240014 0.014549148 -0.10403392
v -0.040109523 0.07274574 -0.08940539
v -0.16240014 0.014549148 -0.10403392
v -0.16240014 0.07274574 -0.10403392
v -0.040109523 0.07274574 -0.08940539
v -0.16240014 0.07274574 -0.10403392
v -0.16240014 0.07274574 -0.12749626
v 0 0.08147523 -0.11576509
v -0.16240014 0.014549148 -0.10403392
v -0.16240014 0.014549148 -0.12749626
v -0.16240014 0.07274574 -0.10403392
v -0.16240014 0.014549148 -0.12749626
v -0.16240014 0.07274574 -0.12749626
v -0.16240014 0.07274574 -0.10403392
v -0.16240014 0.07274574 -0.12749626
v -0.04010945 0.07274574 -0.14212479
v 0 0.08147523 -0.11576509
v -0.16240014 0.014549148 -0.12749626
v -0.04010945 0.014549148 -0.14212479
v -0.16240014 0.07274574 -0.12749626
v -0.04010945 0.014549148 -0.14212479
v -0.04010945 0.07274574 -0.14212479
v -0.16240014 0.07274574 -0.12749626
v -0.04010945 0.07274574 -0.14212479
v 0.112384364 0.07274574 -0.13690393
v 0 0.08147523 -0.11576509
v -0.04010945 0.014549148 -0.14212479
v 0.112384364 0.014549148 -0.13690393
v -0.04010945 0.07274574 -0.14212479
v 0.112384364 0.014549148 -0.13690393
v 0.112384364 0.07274574 -0.13690393
v -0.04010945 0.07274574 -0.14212479
v 0.112384364 0.07274574 -0.13690393
v 0.18025056 0.07274574 -0.11576508
v 0 0.08147523 -0.11576509
v 0.112384364 0.014549148 -0.13690393
v 0.18025056 0.014549148 -0.11576508
v 0.112384364 0.07274574 -0.13690393
v 0.18025056 0.014549148 -0.11576508
v 0.18025056 0.07274574 -0.11576508
v 0.112384364 0.07274574 -0.13690393
v 0.21359211 0.07274574 0.07717671
v 0.1331725 0.07274574 0.10222567
v 0 0.08147523 0.07717671
v 0.21359211 0.014549148 0.07717671
v 0.1331725 0.014549148 0.10222567
v 0.21359211 0.07274574 0.07717671
v 0.1331725 0.014549148 0.10222567
v 0.1331725 0.07274574 0.10222567
v 0.21359211 0.07274574 0.07717671
v 0.1331725 0.07274574 0.10222567
v -0.047528718 0.07274574 0.10841225
v 0 0.08147523 0.07717671
v 0.1331725 0.014549148 0.10222567
v -0.047528718 0.014549148 0.10841225
v 0.1331725 0.07274574 0.10222567
v -0.047528718 0.014549148 0.10841225
v -0.047528718 0.07274574 0.10841225
v 0.1331725 0.07274574 0.10222567
v -0.047528718 0.07274574 0.10841225
v -0.19243984 0.07274574 0.091077834
v 0 0.08147523 0.07717671
v -0.047528718 0.014549148 0.10841225
v -0.19243984 0.014549148 0.091077834
v -0.047528718 0.07274574 0.10841225
v -0.19243984 0.014549148 0.091077834
v -0.19243984 0.07274574 0.091077834
v -0.047528718 0.07274574 0.10841225
v -0.19243984 0.07274574 0.091077834
v -0.19243984 0.07274574 0.06327559
v 0 0.08147523 0.07717671
v -0.19243984 0.014549148 0.091077834
v -0.19243984 0.014549148 0.06327559
v -0.19243984 0.07274574 0.091077834
v -0.19243984 0.014549148 0.06327559
v -0.19243984 0.07274574 0.06327559
v -0.19243984 0.07274574 0.091077834
v -0.19243984 0.07274574 0.06327559
v -0.047528632 0.07274574 0.045941174
v 0 0.08147523 0.07717671
v -0.19243984 0.014549148 0.06327559
v -0.047528632 0.014549148 0.045941174
v -0.19243984 0.07274574 0.06327559
v -0.047528632 0.014549148 0.045941174
v -0.047528632 0.07274574 0.045941174
v -0.19243984 0.07274574 0.06327559
v -0.047528632 0.07274574 0.045941174
v 0.13317248 0.07274574 0.05212775
v 0 0.08147523 0.07717671
v -0.047528632 0.014549148 0.045941174
v 0.13317248 0.014549148 0.05212775
v -0.047528632 0.07274574 0.045941174
v 0.13317248 0.014549148 0.05212775
v 0.13317248 0.07274574 0.05212775
v -0.047528632 0.07274574 0.045941174
v 0.13317248 0.07274574 0.05212775
v 0.21359211 0.07274574 0.07717672
v 0 0.08147523 0.07717671
v 0.13317248 0.014549148 0.05212775
v 0.21359211 0.014549148 0.07717672
v 0.13317248 0.07274574 0.05212775
v 0.21359211 0.014549148 0.07717672
v 0.21359211 0.07274574 0.07717672
v 0.13317248 0.07274574 0.05212775
v -0.18025056 0.016301567 -0.47849566
v -0.21887568 0 -0.5634709
v -0.14162543 0 -0.5634709
v -0.18025056 0.06724396 -0.4591831
v -0.20342563 0.016301567 -0.47849566
v -0.15707548 0.016301567 -0.47849566
v 0.18025056 0.016301567 -0.47849566
v 0.14162543 0 -0.5634709
v 0.21887568 0 -0.5634709
v 0.18025056 0.06724396 -0.4591831
v 0.15707548 0.016301567 -0.47849566
v 0.20342563 0.016301567 -0.47849566
vn -0.5021498 -0.7771257 0.3793694
vn -0.5021498 -0.7771257 0.3793694
vn -0.5021498 -0.7771257 0.3793694
vn 0.6621935 -0.55786985 -0.500281
vn 0.6621935 -0.55786985 -0.500281
vn 0.6621935 -0.55786985 -0.500281
vn 0.6621935 -0.5578699 -0.5002809
vn 0.6621935 -0.5578699 -0.5002809
vn 0.6621935 -0.5578699 -0.5002809
vn -0 0.99999994 0
vn -0 0.99999994 0
vn -0 0.99999994 0
vn -0.39292184 -0.041239373 -0.9186467
vn -0.39292184 -0.041239373 -0.9186467
vn -0.39292184 -0.041239373 -0.9186467
vn 0.32596824 -0.5594041 0.76211
vn 0.32596824 -0.5594041 0.76211
vn 0.32596824 -0.5594041 0.76211
vn 0.3259683 -0.559404 0.76211
vn 0.3259683 -0.559404 0.76211
vn 0.3259683 -0.559404 0.76211
vn -0 -0.99999994 0
vn -0 -0.99999994 0
vn -0 -0.99999994 0
vn -0.39077505 -0.0398031 -0.9196253
vn -0.39077505 -0.0398031 -0.9196253
vn -0.39077505 -0.0398031 -0.9196253
vn 0.32426295 -0.5590457 0.7630999
vn 0.32426295 -0.5590457 0.7630999
vn 0.32426295 -0.5590457 0.7630999
vn 0.32426295 -0.5590457 0.7630999
vn 0.32426295 -0.5590457 0.7630999
vn 0.32426295 -0.5590457 0.7630999
vn -0 -0.99999994 0
vn -0 -0.99999994 0
vn -0 -0.99999994 0
vn -0.109341204 0.017199865 -0.9938555
vn -0.109341204 0.017199865 -0.9938555
vn -0.109341204 0.017199865 -0.9938555
vn 0.09064046 -0.55947626 0.8238753
vn 0.09064046 -0.55947626 0.8238753
vn 0.09064046 -0.55947626 0.8238753
vn 0.09064038 -0.5594764 0.82387525
vn 0.09064038 -0.5594764 0.82387525
vn 0.09064038 -0.5594764 0.82387525
vn -0 -1 0
vn -0 -1 0
vn -0 -1 0
vn 0.19741511 -0.019106653 -0.98013383
vn 0.19741511 -0.019106653 -0.98013383
vn 0.19741511 -0.019106653 -0.98013383
vn -0.16194247 -0.5721276 0.80401784
vn -0.16194247 -0.5721276 0.80401784
vn -0.16194247 -0.5721276 0.80401784
vn -0.16194244 -0.5721275 0.8040179
vn -0.16194244 -0.5721275 0.8040179
vn -0.16194244 -0.5721275 0.8040179
vn 0 -1 -0
vn 0 -1 -0
vn 0 -1 -0
vn 0.8252892 -0.5314888 0.19083376
vn 0.8252892 -0.5314888 0.19083376
vn 0.8252892 -0.5314888 0.19083376
vn -0.9052887 -0.36963797 -0.20933217
vn -0.9052887 -0.36963797 -0.20933217
vn -0.9052887 -0.36963797 -0.20933217
vn -0.90528876 -0.36963794 -0.20933227
vn -0.90528876 -0.36963794 -0.20933227
vn -0.90528876 -0.36963794 -0.20933227
vn 0 1 0
vn 0 1 0
vn 0 1 0
vn 0.8417207 -0.34422112 -0.4159544
vn 0.8417207 -0.34422112 -0.4159544
vn 0.8417207 -0.34422112 -0.4159544
vn -0.75802207 -0.5339314 0.37459284
vn -0.75802207 -0.5339314 0.37459284
vn -0.75802207 -0.5339314 0.37459284
vn -0.758022 -0.5339313 0.37459284
vn -0.758022 -0.5339313 0.37459284
vn -0.758022 -0.5339313 0.37459284
vn 0 -1 -0
vn 0 -1 -0
vn 0 -1 -0
vn 0.52914196 0.14170718 -0.836617
vn 0.52914196 0.14170718 -0.836617
vn 0.52914196 0.14170718 -0.836617
vn -0.48554906 -0.41819772 0.76769316
vn -0.48554906 -0.41819772 0.76769316
vn -0.48554906 -0.41819772 0.76769316
vn -0.4855491 -0.41819778 0.76769316
vn -0.4855491 -0.41819778 0.76769316
vn -0.4855491 -0.41819778 0.76769316
vn 0 -1 -0
vn 0 -1 -0
vn 0 -1 -0
vn 0.3577648 -0.83611655 0.41582876
vn 0.3577648 -0.83611655 0.41582876
vn 0.3577648 -0.83611655 0.41582876
vn -0.5043151 -0.63409626 -0.5861639
vn -0.5043151 -0.63409626 -0.5861639
vn -0.5043151 -0.63409626 -0.5861639
vn -0.5043152 -0.6340963 -0.58616394
vn -0.5043152 -0.6340963 -0.58616394
vn -0.5043152 -0.6340963 -0.58616394
vn 0 1 0
vn 0 1 0
vn 0 1 0
vn 0.19709127 -0.8286375 0.5239417
vn 0.19709127 -0.8286375 0.5239417
vn 0.19709127 -0.8286375 0.5239417
vn -0.29416665 -0.5494873 -0.78200364
vn -0.29416665 -0.5494873 -0.78200364
vn -0.29416665 -0.5494873 -0.78200364
vn -0.29416662 -0.54948735 -0.7820036
vn -0.29416662 -0.54948735 -0.7820036
vn -0.29416662 -0.54948735 -0.7820036
vn 0 1 0
vn 0 1 0
vn 0 1 0
vn 0.24478148 -0.82405216 0.5109014
vn 0.24478148 -0.82405216 0.5109014
vn 0.24478148 -0.82405216 0.5109014
vn -0.36083713 -0.5500833 -0.7531301
vn -0.36083713 -0.5500833 -0.7531301
vn -0.36083713 -0.5500833 -0.7531301
vn -0.3608371 -0.55008334 -0.75313014
vn -0.3608371 -0.55008334 -0.75313014
vn -0.3608371 -0.55008334 -0.75313014
vn 0 1 0
vn 0 1 0
vn 0 1 0
vn -0.036878143 -0.84152657 0.5389555
vn -0.036878143 -0.84152657 0.5389555
vn -0.036878143 -0.84152657 0.5389555
vn 0.05636466 -0.564158 -0.8237407
vn 0.05636466 -0.564158 -0.8237407
vn 0.05636466 -0.564158 -0.8237407
vn 0.056364615 -0.564158 -0.82374066
vn 0.056364615 -0.564158 -0.82374066
vn 0.056364615 -0.564158 -0.82374066
vn -0 1 0
vn -0 1 0
vn -0 1 0
vn -0.3510764 -0.82407975 0.4445651
vn -0.3510764 -0.82407975 0.4445651
vn -0.3510764 -0.82407975 0.4445651
vn 0.4981637 -0.59489393 -0.6308203
vn 0.4981637 -0.59489393 -0.6308203
vn 0.4981637 -0.59489393 -0.6308203
vn 0.49816364 -0.59489393 -0.6308203
vn 0.49816364 -0.59489393 -0.6308203
vn 0.49816364 -0.59489393 -0.6308203
vn -0 0.99999994 0
vn -0 0.99999994 0
vn -0 0.99999994 0
vn -0.9347082 -0.28930226 -0.20645754
vn -0.9347082 -0.28930226 -0.20645754
vn -0.9347082 -0.28930226 -0.20645754
vn 0.9013318 -0.3846634 0.19908544
vn 0.9013318 -0.3846634 0.19908544
vn 0.9013318 -0.3846634 0.19908544
vn 0.9013318 -0.38466346 0.1990856
vn 0.9013318 -0.38466346 0.1990856
vn 0.9013318 -0.38466346 0.1990856
vn -0 -1 0
vn -0 -1 0
vn -0 -1 0
vn -0.32614088 -0.7766129 0.53898484
vn -0.32614088 -0.7766129 0.53898484
vn -0.32614088 -0.7766129 0.53898484
vn 0.46399543 -0.44352937 -0.7668051
vn 0.46399543 -0.44352937 -0.7668051
vn 0.46399543 -0.44352937 -0.7668051
vn 0.46399546 -0.44352934 -0.76680505
vn 0.46399546 -0.44352934 -0.76680505
vn 0.46399546 -0.44352934 -0.76680505
vn -0 1 0
vn -0 1 0
vn -0 1 0
vn -0.047800045 -0.9869978 -0.15346193
vn -0.047800045 -0.9869978 -0.15346193
vn -0.047800045 -0.9869978 -0.15346193
vn -0.29738602 0 -0.9547573
vn -0.29738602 0 -0.9547573
vn -0.29738602 0 -0.9547573
vn -0.29738602 0 -0.9547573
vn -0.29738602 0 -0.9547573
vn -0.29738602 0 -0.9547573
vn -0.011291156 -0.943984 -0.32979813
vn -0.011291156 -0.943984 -0.32979813
vn -0.011291156 -0.943984 -0.32979813
vn -0.034216523 0 -0.99941444
vn -0.034216523 0 -0.99941444
vn -0.034216523 0 -0.99941444
vn -0.034216523 0 -0.99941444
vn -0.034216523 0 -0.99941444
vn -0.034216523 0 -0.99941444
vn 0.032254953 -0.9624201 -0.2696428
vn 0.032254953 -0.9624201 -0.2696428
vn 0.032254953 -0.9624201 -0.2696428
vn 0.118774265 0 -0.99292135
vn 0.118774265 0 -0.99292135
vn 0.118774265 0 -0.99292135
vn 0.118774265 0 -0.99292135
vn 0.118774265 0 -0.99292135
vn 0.118774265 0 -0.99292135
vn 0.053675465 -0.99855846 0
vn 0.053675465 -0.99855846 0
vn 0.053675465 -0.99855846 0
vn 1 -0 0
vn 1 -0 0
vn 1 -0 0
vn 1 0 0
vn 1 0 0
vn 1 0 0
vn 0.03225494 -0.96242005 0.2696429
vn 0.03225494 -0.96242005 0.2696429
vn 0.03225494 -0.96242005 0.2696429
vn 0.11877419 -0 0.9929212
vn 0.11877419 -0 0.9929212
vn 0.11877419 -0 0.9929212
vn 0.11877419 -0 0.9929212
vn 0.11877419 -0 0.9929212
vn 0.11877419 -0 0.9929212
vn -0.0112911435 -0.943984 0.32979807
vn -0.0112911435 -0.943984 0.32979807
vn -0.0112911435 -0.943984 0.32979807
vn -0.034216493 0 0.99941444
vn -0.034216493 0 0.99941444
vn -0.034216493 0 0.99941444
vn -0.034216493 0 0.99941444
vn -0.034216493 0 0.99941444
vn -0.034216493 0 0.99941444
vn -0.047800057 -0.98699784 0.15346192
vn -0.047800057 -0.98699784 0.15346192
vn -0.047800057 -0.98699784 0.15346192
vn -0.2973862 0 0.95475733
vn -0.2973862 0 0.95475733
vn -0.2973862 0 0.95475733
vn -0.2973862 0 0.95475733
vn -0.2973862 0 0.95475733
vn -0.2973862 0 0.95475733
vn -0.040489323 -0.99068815 -0.12999088
vn -0.040489323 -0.99068815 -0.12999088
vn -0.040489323 -0.99068815 -0.12999088
vn -0.29738608 0 -0.9547573
vn -0.29738608 0 -0.9547573
vn -0.29738608 0 -0.9547573
vn -0.29738608 0 -0.9547573
vn -0.29738608 0 -0.9547573
vn -0.29738608 0 -0.9547573
vn -0.009681539 -0.9591349 -0.2827839
vn -0.009681539 -0.9591349 -0.2827839
vn -0.009681539 -0.9591349 -0.2827839
vn -0.034216482 0 -0.99941444
vn -0.034216482 0 -0.99941444
vn -0.034216482 0 -0.99941444
vn -0.034216482 0 -0.99941444
vn -0.034216482 0 -0.99941444
vn -0.034216482 0 -0.99941444
vn 0.02751356 -0.97280014 -0.23000604
vn 0.02751356 -0.97280014 -0.23000604
vn 0.02751356 -0.97280014 -0.23000604
vn 0.11877424 0 -0.9929212
vn 0.11877424 0 -0.9929212
vn 0.11877424 0 -0.9929212
vn 0.11877424 0 -0.9929212
vn 0.11877424 0 -0.9929212
vn 0.11877424 0 -0.9929212
vn 0.045315567 -0.9989727 0
vn 0.045315567 -0.9989727 0
vn 0.045315567 -0.9989727 0
vn 1 -0 0
vn 1 -0 0
vn 1 -0 0
vn 1 0 0
vn 1 0 0
vn 1 0 0
vn 0.027513554 -0.97280014 0.23000613
vn 0.027513554 -0.97280014 0.23000613
vn 0.027513554 -0.97280014 0.23000613
vn 0.1187742 -0 0.99292135
vn 0.1187742 -0 0.99292135
vn 0.1187742 -0 0.99292135
vn 0.1187742 -0 0.99292135
vn 0.1187742 -0 0.99292135
vn 0.1187742 -0 0.99292135
vn -0.009681531 -0.9591348 0.28278387
vn -0.009681531 -0.9591348 0.28278387
vn -0.009681531 -0.9591348 0.28278387
vn -0.03421646 0 0.9994144
vn -0.03421646 0 0.9994144
vn -0.03421646 0 0.9994144
vn -0.03421646 0 0.9994144
vn -0.03421646 0 0.9994144
vn -0.03421646 0 0.9994144
vn -0.04048933 -0.99068815 0.12999085
vn -0.04048933 -0.99068815 0.12999085
vn -0.04048933 -0.99068815 0.12999085
vn -0.29738623 0 0.95475733
vn -0.29738623 0 0.95475733
vn -0.29738623 0 0.95475733
vn -0.29738623 0 0.95475733
vn -0.29738623 0 0.95475733
vn -0.29738623 0 0.95475733
vn 0 -0.9820917 0.1884035
vn 0 -0.9820917 0.1884035
vn 0 -0.9820917 0.1884035
vn 0 -0.35448706 0.935061
vn 0 -0.35448706 0.935061
vn 0 -0.35448706 0.935061
vn 0 -0.9820917 0.1884035
vn 0 -0.9820917 0.1884035
vn 0 -0.9820917 0.1884035
vn 0 -0.35448706 0.935061
vn 0 -0.35448706 0.935061
vn 0 -0.35448706 0.935061
f 1//1 2//2 3//3
f 4//4 5//5 6//6
f 7//7 8//8 9//9
f 10//10 11//11 12//12
f 13//13 14//14 15//15
f 16//16 17//17 18//18
f 19//19 20//20 21//21
f 22//22 23//23 24//24
f 25//25 26//26 27//27
f 28//28 29//29 30//30
f 31//31 32//32 33//33
f 34//34 35//35 36//36
f 37//37 38//38 39//39
f 40//40 41//41 42//42
f 43//43 44//44 45//45
f 46//46 47//47 48//48
f 49//49 50//50 51//51
f 52//52 53//53 54//54
f 55//55 56//56 57//57
f 58//58 59//59 60//60
f 61//61 62//62 63//63
f 64//64 65//65 66//66
f 67//67 68//68 69//69
f 70//70 71//71 72//72
f 73//73 74//74 75//75
f 76//76 77//77 78//78
f 79//79 80//80 81//81
f 82//82 83//83 84//84
f 85//85 86//86 87//87
f 88//88 89//89 90//90
f 91//91 92//92 93//93
f 94//94 95//95 96//96
f 97//97 98//98 99//99
f 100//100 101//101 102//102
f 103//103 104//104 105//105
f 106//106 107//107 108//108
f 109//109 110//110 111//111
f 112//112 113//113 114//114
f 115//115 116//116 117//117
f 118//118 119//119 120//120
f 121//121 122//122 123//123
f 124//124 125//125 126//126
f 127//127 128//128 129//129
f 130//130 131//131 132//132
f 133//133 134//134 135//135
f 136//136 137//137 138//138
f 139//139 140//140 141//141
f 142//142 143//143 144//144
f 145//145 146//146 147//147
f 148//148 149//149 150//150
f 151//151 152//152 153//153
f 154//154 155//155 156//156
f 157//157 158//158 159//159
f 160//160 161//161 162//162
f 163//163 164//164 165//165
f 166//166 167//167 168//168
f 169//169 170//170 171//171
f 172//172 173//173 174//174
f 175//175 176//176 177//177
f 178//178 179//179 180//180
f 181//181 182//182 183//183
f 184//184 185//185 186//186
f 187//187 188//188 189//189
f 190//190 191//191 192//192
f 193//193 194//194 195//195
f 196//196 197//197 198//198
f 199//199 200//200 201//201
f 202//202 203//203 204//204
f 205//205 206//206 207//207
f 208//208 209//209 210//210
f 211//211 212//212 213//213
f 214//214 215//215 216//216
f 217//217 218//218 219//219
f 220//220 221//221 222//222
f 223//223 224//224 225//225
f 226//226 227//227 228//228
f 229//229 230//230 231//231
f 232//232 233//233 234//234
f 235//235 236//236 237//237
f 238//238 239//239 240//240
f 241//241 242//242 243//243
f 244//244 245//245 246//246
f 247//247 248//248 249//249
f 250//250 251//251 252//252
f 253//253 254//254 255//255
f 256//256 257//257 258//258
f 259//259 260//260 261//261
f 262//262 263//263 264//264
f 265//265 266//266 267//267
f 268//268 269//269 270//270
f 271//271 272//272 273//273
f 274//274 275//275 276//276
f 277//277 278//278 279//279
f 280//280 281//281 282//282
f 283//283 284//284 285//285
f 286//286 287//287 288//288
f 289//289 290//290 291//291
f 292//292 293//293 294//294
f 295//295 296//296 297//297
f 298//298 299//299 300//300
f 301//301 302//302 303//303
f 304//304 305//305 306//306
f 307//307 308//308 309//309
f 310//310 311//311 312//312
f 313//313 314//314 315//315
f 316//316 317//317 318//318
