# Exported from SharpOpenGl procedural mesh
o freighter_bulk
# vertices 87
v 0 1.8742514 1.122759
v 2.043309 0 0
v 2.2059734 0 0.75876164
v 2.043309 0 0
v 2.2059734 0 0.75876164
v 0 0 -2.8068974
v 0 1.8742514 1.122759
v 2.2059734 0 0.75876164
v 0.78684723 0 1.2766219
v 2.2059734 0 0.75876164
v 0.78684723 0 1.2766219
v 0 0 -2.8068974
v 0 1.8742514 1.122759
v 0.78684723 0 1.2766219
v -0.21387304 0 1.3891636
v 0.78684723 0 1.2766219
v -0.21387304 0 1.3891636
v 0 0 -2.8068974
v 0 1.8742514 1.122759
v -0.21387304 0 1.3891636
v -1.5269873 0 1.0606556
v -0.21387304 0 1.3891636
v -1.5269873 0 1.0606556
v 0 0 -2.8068974
v 0 1.8742514 1.122759
v -1.5269873 0 1.0606556
v -2.407817 0 0.39539695
v -1.5269873 0 1.0606556
v -2.407817 0 0.39539695
v 0 0 -2.8068974
v 0 1.8742514 1.122759
v -2.407817 0 0.39539695
v -1.5685023 0 -0.3953972
v -2.407817 0 0.39539695
v -1.5685023 0 -0.3953972
v 0 0 -2.8068974
v 0 1.8742514 1.122759
v -1.5685023 0 -0.3953972
v -1.1017631 0 -1.0606561
v -1.5685023 0 -0.3953972
v -1.1017631 0 -1.0606561
v 0 0 -2.8068974
v 0 1.8742514 1.122759
v -1.1017631 0 -1.0606561
v -0.36217484 0 -1.3891637
v -1.1017631 0 -1.0606561
v -0.36217484 0 -1.3891637
v 0 0 -2.8068974
v 0 1.8742514 1.122759
v -0.36217484 0 -1.3891637
v 0.9450391 0 -1.2766218
v -0.36217484 0 -1.3891637
v 0.9450391 0 -1.2766218
v 0 0 -2.8068974
v 0 1.8742514 1.122759
v 0.9450391 0 -1.2766218
v 1.246774 0 -0.75876117
v 0.9450391 0 -1.2766218
v 1.246774 0 -0.75876117
v 0 0 -2.8068974
v 0 1.8742514 1.122759
v 1.246774 0 -0.75876117
v 1.9563235 0 9.146033E-07
v 1.246774 0 -0.75876117
v 1.9563235 0 9.146033E-07
v 0 0 -2.8068974
v -1.6346473 0.10131088 -3.480553
v -2.5453792 0 -5.4841633
v -0.7239152 0 -5.4841633
v -1.6346473 0.4179074 -3.025187
v -2.1810865 0.10131088 -3.480553
v -1.088208 0.10131088 -3.480553
v 1.6346473 0.10131088 -3.480553
v 0.7239152 0 -5.4841633
v 2.5453792 0 -5.4841633
v 1.6346473 0.4179074 -3.025187
v 1.088208 0.10131088 -3.480553
v 2.1810865 0.10131088 -3.480553
v -1.2843658 0.48122668 -0.28068975
v -1.6930276 0.17729405 -0.6309713
v -0.87570393 0.17729405 -0.6309713
v 0 0.48122668 -0.68935156
v -0.4086618 0.17729405 -1.0396332
v 0.4086618 0.17729405 -1.0396332
v 1.2843658 0.48122668 -1.0980134
v 0.87570393 0.17729405 -1.448295
v 1.6930276 0.17729405 -1.448295
vn -0.62856996 -0.76599044 0.1347537
vn -0.62856996 -0.76599044 0.1347537
vn -0.62856996 -0.76599044 0.1347537
vn -0 -1 0
vn -0 -1 0
vn -0 -1 0
vn -0.33472446 -0.2158251 -0.91726714
vn -0.33472446 -0.2158251 -0.91726714
vn -0.33472446 -0.2158251 -0.91726714
vn -0 -1 0
vn -0 -1 0
vn -0 -1 0
vn -0.110844836 -0.12744834 -0.98563194
vn -0.110844836 -0.12744834 -0.98563194
vn -0.110844836 -0.12744834 -0.98563194
vn -0 -1 0
vn -0 -1 0
vn -0 -1 0
vn 0.23943494 -0.1633595 -0.9570708
vn 0.23943494 -0.1633595 -0.9570708
vn 0.23943494 -0.1633595 -0.9570708
vn 0 -1 -0
vn 0 -1 -0
vn 0 -1 -0
vn 0.5465796 -0.4213289 -0.7236937
vn 0.5465796 -0.4213289 -0.7236937
vn 0.5465796 -0.4213289 -0.7236937
vn 0 -1 -0
vn 0 -1 -0
vn 0 -1 -0
vn 0.44699717 -0.7583641 0.4744234
vn 0.44699717 -0.7583641 0.4744234
vn 0.44699717 -0.7583641 0.4744234
vn 0 1 0
vn 0 1 0
vn 0 1 0
vn 0.53708297 -0.7546884 0.37681228
vn 0.53708297 -0.7546884 0.37681228
vn 0.53708297 -0.7546884 0.37681228
vn 0 1 0
vn 0 1 0
vn 0 1 0
vn 0.24711075 -0.79336536 0.55633426
vn 0.24711075 -0.79336536 0.55633426
vn 0.24711075 -0.79336536 0.55633426
vn 0 1 0
vn 0 1 0
vn 0 1 0
vn -0.051828496 -0.7968084 0.60200506
vn -0.051828496 -0.7968084 0.60200506
vn -0.051828496 -0.7968084 0.60200506
vn -0 1 0
vn -0 1 0
vn -0 1 0
vn -0.58698666 -0.7338084 0.3420117
vn -0.58698666 -0.7338084 0.3420117
vn -0.58698666 -0.7338084 0.3420117
vn -0 -1 0
vn -0 -1 0
vn -0 -1 0
vn -0.47419262 -0.7605952 0.44343686
vn -0.47419262 -0.7605952 0.44343686
vn -0.47419262 -0.7605952 0.44343686
vn -0 1 0
vn -0 1 0
vn -0 1 0
vn 0 -0.99872404 0.050499644
vn 0 -0.99872404 0.050499644
vn 0 -0.99872404 0.050499644
vn 0 -0.82105714 0.5708461
vn 0 -0.82105714 0.5708461
vn 0 -0.82105714 0.5708461
vn 0 -0.99872404 0.050499644
vn 0 -0.99872404 0.050499644
vn 0 -0.99872404 0.050499644
vn 0 -0.82105714 0.5708461
vn 0 -0.82105714 0.5708461
vn 0 -0.82105714 0.5708461
vn 0 -0.7553098 0.6553679
vn 0 -0.7553098 0.6553679
vn 0 -0.7553098 0.6553679
vn 0 -0.7553098 0.6553679
vn 0 -0.7553098 0.6553679
vn 0 -0.7553098 0.6553679
vn 0 -0.7553098 0.65536785
vn 0 -0.7553098 0.65536785
vn 0 -0.7553098 0.65536785
f 1//1 2//2 3//3
f 4//4 5//5 6//6
f 7//7 8//8 9//9
f 10//10 11//11 12//12
f 13//13 14//14 15//15
f 16//16 17//17 18//18
f 19//19 20//20 21//21
f 22//22 23//23 24//24
f 25//25 26//26 27//27
f 28//28 29//29 30//30
f 31//31 32//32 33//33
f 34//34 35//35 36//36
f 37//37 38//38 39//39
f 40//40 41//41 42//42
f 43//43 44//44 45//45
f 46//46 47//47 48//48
f 49//49 50//50 51//51
f 52//52 53//53 54//54
f 55//55 56//56 57//57
f 58//58 59//59 60//60
f 61//61 62//62 63//63
f 64//64 65//65 66//66
f 67//67 68//68 69//69
f 70//70 71//71 72//72
f 73//73 74//74 75//75
f 76//76 77//77 78//78
f 79//79 80//80 81//81
f 82//82 83//83 84//84
f 85//85 86//86 87//87
