# Exported from SharpOpenGl procedural mesh
o frigate_strike
# vertices 78
v 0 1.1719124 0.6689967
v 0.6969398 0 0
v 0.752422 0 0.45210865
v 0.6969398 0 0
v 0.752422 0 0.45210865
v 0 0 -1.6724917
v 0 1.1719124 0.6689967
v 0.752422 0 0.45210865
v 0.2683809 0 0.76067597
v 0.752422 0 0.45210865
v 0.2683809 0 0.76067597
v 0 0 -1.6724917
v 0 1.1719124 0.6689967
v 0.2683809 0 0.76067597
v -0.07294864 0 0.82773405
v 0.2683809 0 0.76067597
v -0.07294864 0 0.82773405
v 0 0 -1.6724917
v 0 1.1719124 0.6689967
v -0.07294864 0 0.82773405
v -0.5208308 0 0.63199234
v -0.07294864 0 0.82773405
v -0.5208308 0 0.63199234
v 0 0 -1.6724917
v 0 1.1719124 0.6689967
v -0.5208308 0 0.63199234
v -0.82126755 0 0.23559754
v -0.5208308 0 0.63199234
v -0.82126755 0 0.23559754
v 0 0 -1.6724917
v 0 1.1719124 0.6689967
v -0.82126755 0 0.23559754
v -0.5349909 0 -0.23559768
v -0.82126755 0 0.23559754
v -0.5349909 0 -0.23559768
v 0 0 -1.6724917
v 0 1.1719124 0.6689967
v -0.5349909 0 -0.23559768
v -0.37579367 0 -0.6319926
v -0.5349909 0 -0.23559768
v -0.37579367 0 -0.6319926
v 0 0 -1.6724917
v 0 1.1719124 0.6689967
v -0.37579367 0 -0.6319926
v -0.123532005 0 -0.8277341
v -0.37579367 0 -0.6319926
v -0.123532005 0 -0.8277341
v 0 0 -1.6724917
v 0 1.1719124 0.6689967
v -0.123532005 0 -0.8277341
v 0.32233763 0 -0.76067597
v -0.123532005 0 -0.8277341
v 0.32233763 0 -0.76067597
v 0 0 -1.6724917
v 0 1.1719124 0.6689967
v 0.32233763 0 -0.76067597
v 0.4252545 0 -0.45210835
v 0.32233763 0 -0.76067597
v 0.4252545 0 -0.45210835
v 0 0 -1.6724917
v 0 1.1719124 0.6689967
v 0.4252545 0 -0.45210835
v 0.6672704 0 5.4496695E-07
v 0.4252545 0 -0.45210835
v 0.6672704 0 5.4496695E-07
v 0 0 -1.6724917
v -0.55755186 0.06334662 -2.0738897
v -0.82039773 0 -2.6521506
v -0.294706 0 -2.6521506
v -0.55755186 0.2613048 -1.9424667
v -0.7152594 0.06334662 -2.0738897
v -0.39984435 0.06334662 -2.0738897
v 0.55755186 0.06334662 -2.0738897
v 0.294706 0 -2.6521506
v 0.82039773 0 -2.6521506
v 0.55755186 0.2613048 -1.9424667
v 0.39984435 0.06334662 -2.0738897
v 0.7152594 0.06334662 -2.0738897
vn -0.82846797 -0.55073076 0.10166842
vn -0.82846797 -0.55073076 0.10166842
vn -0.82846797 -0.55073076 0.10166842
vn -0 -0.99999994 0
vn -0 -0.99999994 0
vn -0 -0.99999994 0
vn -0.52818847 -0.18577924 -0.8285547
vn -0.52818847 -0.18577924 -0.8285547
vn -0.52818847 -0.18577924 -0.8285547
vn -0 -1 0
vn -0 -1 0
vn -0 -1 0
vn -0.19138245 -0.12003675 -0.9741478
vn -0.19138245 -0.12003675 -0.9741478
vn -0.19138245 -0.12003675 -0.9741478
vn -0 -1 0
vn -0 -1 0
vn -0 -1 0
vn 0.39608863 -0.1474155 -0.90630156
vn 0.39608863 -0.1474155 -0.90630156
vn 0.39608863 -0.1474155 -0.90630156
vn 0 -1 -0
vn 0 -1 -0
vn 0 -1 -0
vn 0.755656 -0.31775028 -0.5727292
vn 0.755656 -0.31775028 -0.5727292
vn 0.755656 -0.31775028 -0.5727292
vn 0 -1 -0
vn 0 -1 -0
vn 0 -1 -0
vn 0.67030585 -0.6203544 0.40724722
vn 0.67030585 -0.6203544 0.40724722
vn 0.67030585 -0.6203544 0.40724722
vn 0 1 0
vn 0 1 0
vn 0 1 0
vn 0.7561803 -0.5796229 0.30369163
vn 0.7561803 -0.5796229 0.30369163
vn 0.7561803 -0.5796229 0.30369163
vn 0 1 0
vn 0 1 0
vn 0 1 0
vn 0.4178238 -0.7317605 0.5384699
vn 0.4178238 -0.7317605 0.5384699
vn 0.4178238 -0.7317605 0.5384699
vn 0 0.99999994 0
vn 0 0.99999994 0
vn 0 0.99999994 0
vn -0.09303113 -0.7802064 0.61856544
vn -0.09303113 -0.7802064 0.61856544
vn -0.09303113 -0.7802064 0.61856544
vn -0 1 0
vn -0 1 0
vn -0 1 0
vn -0.7964931 -0.543163 0.26565507
vn -0.7964931 -0.543163 0.26565507
vn -0.7964931 -0.543163 0.26565507
vn -0 -1 0
vn -0 -1 0
vn -0 -1 0
vn -0.69806916 -0.61078894 0.37367955
vn -0.69806916 -0.61078894 0.37367955
vn -0.69806916 -0.61078894 0.37367955
vn -0 1 0
vn -0 1 0
vn -0 1 0
vn 0 -0.9940532 0.108895324
vn 0 -0.9940532 0.108895324
vn 0 -0.9940532 0.108895324
vn 0 -0.5530993 0.83311534
vn 0 -0.5530993 0.83311534
vn 0 -0.5530993 0.83311534
vn 0 -0.9940532 0.108895324
vn 0 -0.9940532 0.108895324
vn 0 -0.9940532 0.108895324
vn 0 -0.5530993 0.83311534
vn 0 -0.5530993 0.83311534
vn 0 -0.5530993 0.83311534
f 1//1 2//2 3//3
f 4//4 5//5 6//6
f 7//7 8//8 9//9
f 10//10 11//11 12//12
f 13//13 14//14 15//15
f 16//16 17//17 18//18
f 19//19 20//20 21//21
f 22//22 23//23 24//24
f 25//25 26//26 27//27
f 28//28 29//29 30//30
f 31//31 32//32 33//33
f 34//34 35//35 36//36
f 37//37 38//38 39//39
f 40//40 41//41 42//42
f 43//43 44//44 45//45
f 46//46 47//47 48//48
f 49//49 50//50 51//51
f 52//52 53//53 54//54
f 55//55 56//56 57//57
f 58//58 59//59 60//60
f 61//61 62//62 63//63
f 64//64 65//65 66//66
f 67//67 68//68 69//69
f 70//70 71//71 72//72
f 73//73 74//74 75//75
f 76//76 77//77 78//78
