# Exported from SharpOpenGl procedural mesh
o miner_eva
# vertices 81
v 0 0.9641353 0.5131668
v 0.68783844 0 0
v 0.74259603 0 0.34679863
v 0.68783844 0 0
v 0.74259603 0 0.34679863
v 0 0 -1.2829169
v 0 0.9641353 0.5131668
v 0.74259603 0 0.34679863
v 0.2648761 0 0.58349115
v 0.74259603 0 0.34679863
v 0.2648761 0 0.58349115
v 0 0 -1.2829169
v 0 0.9641353 0.5131668
v 0.2648761 0 0.58349115
v -0.071996 0 0.6349293
v 0.2648761 0 0.58349115
v -0.071996 0 0.6349293
v 0 0 -1.2829169
v 0 0.9641353 0.5131668
v -0.071996 0 0.6349293
v -0.51402926 0 0.4847819
v -0.071996 0 0.6349293
v -0.51402926 0 0.4847819
v 0 0 -1.2829169
v 0 0.9641353 0.5131668
v -0.51402926 0 0.4847819
v -0.8105426 0 0.18071961
v -0.51402926 0 0.4847819
v -0.8105426 0 0.18071961
v 0 0 -1.2829169
v 0 0.9641353 0.5131668
v -0.8105426 0 0.18071961
v -0.5280044 0 -0.18071973
v -0.8105426 0 0.18071961
v -0.5280044 0 -0.18071973
v 0 0 -1.2829169
v 0 0.9641353 0.5131668
v -0.5280044 0 -0.18071973
v -0.37088615 0 -0.48478207
v -0.5280044 0 -0.18071973
v -0.37088615 0 -0.48478207
v 0 0 -1.2829169
v 0 0.9641353 0.5131668
v -0.37088615 0 -0.48478207
v -0.1219188 0 -0.63492936
v -0.37088615 0 -0.48478207
v -0.1219188 0 -0.63492936
v 0 0 -1.2829169
v 0 0.9641353 0.5131668
v -0.1219188 0 -0.63492936
v 0.31812817 0 -0.5834911
v -0.1219188 0 -0.63492936
v 0.31812817 0 -0.5834911
v 0 0 -1.2829169
v 0 0.9641353 0.5131668
v 0.31812817 0 -0.5834911
v 0.41970107 0 -0.3467984
v 0.31812817 0 -0.5834911
v 0.41970107 0 -0.3467984
v 0 0 -1.2829169
v 0 0.9641353 0.5131668
v 0.41970107 0 -0.3467984
v 0.6585565 0 4.180274E-07
v 0.41970107 0 -0.3467984
v 0.6585565 0 4.180274E-07
v 0 0 -1.2829169
v -0.55027074 0.05211542 -1.590817
v -0.762518 0 -2.057761
v -0.33802348 0 -2.057761
v -0.55027074 0.21497612 -1.4846933
v -0.6776191 0.05211542 -1.590817
v -0.42292237 0.05211542 -1.590817
v 0.55027074 0.05211542 -1.590817
v 0.33802348 0 -2.057761
v 0.762518 0 -2.057761
v 0.55027074 0.21497612 -1.4846933
v 0.42292237 0.05211542 -1.590817
v 0.6776191 0.05211542 -1.590817
v 0 0.24754825 0.2052667
v -0.13756768 0.09120199 0.087351546
v 0.13756768 0.09120199 0.087351546
vn -0.7759445 -0.61878896 0.122517385
vn -0.7759445 -0.61878896 0.122517385
vn -0.7759445 -0.61878896 0.122517385
vn -0 -1 0
vn -0 -1 0
vn -0 -1 0
vn -0.43636793 -0.18412359 -0.88072777
vn -0.43636793 -0.18412359 -0.88072777
vn -0.43636793 -0.18412359 -0.88072777
vn -0 -1 0
vn -0 -1 0
vn -0 -1 0
vn -0.14997971 -0.112847835 -0.9822278
vn -0.14997971 -0.112847835 -0.9822278
vn -0.14997971 -0.112847835 -0.9822278
vn -0 -0.99999994 0
vn -0 -0.99999994 0
vn -0 -0.99999994 0
vn 0.31836072 -0.14214076 -0.9372525
vn 0.31836072 -0.14214076 -0.9372525
vn 0.31836072 -0.14214076 -0.9372525
vn 0 -1 -0
vn 0 -1 -0
vn 0 -1 -0
vn 0.67337054 -0.3396755 -0.6566527
vn 0.67337054 -0.3396755 -0.6566527
vn 0.67337054 -0.3396755 -0.6566527
vn 0 -1 -0
vn 0 -1 -0
vn 0 -1 -0
vn 0.5930065 -0.65837693 0.4635548
vn 0.5930065 -0.65837693 0.4635548
vn 0.5930065 -0.65837693 0.4635548
vn 0 1 0
vn 0 1 0
vn 0 1 0
vn 0.68801177 -0.6326513 0.35551658
vn 0.68801177 -0.6326513 0.35551658
vn 0.68801177 -0.6326513 0.35551658
vn 0 1 0
vn 0 1 0
vn 0 1 0
vn 0.349992 -0.73533 0.58034074
vn 0.349992 -0.73533 0.58034074
vn 0.349992 -0.73533 0.58034074
vn 0 1 0
vn 0 1 0
vn 0 1 0
vn -0.07550594 -0.7596428 0.64594245
vn -0.07550594 -0.7596428 0.64594245
vn -0.07550594 -0.7596428 0.64594245
vn -0 1 0
vn -0 1 0
vn -0 1 0
vn -0.7345372 -0.6009114 0.31521493
vn -0.7345372 -0.6009114 0.31521493
vn -0.7345372 -0.6009114 0.31521493
vn -0 -1 0
vn -0 -1 0
vn -0 -1 0
vn -0.623042 -0.65397084 0.4291162
vn -0.623042 -0.65397084 0.4291162
vn -0.623042 -0.65397084 0.4291162
vn -0 1 0
vn -0 1 0
vn -0 1 0
vn 0 -0.99382925 0.11092087
vn 0 -0.99382925 0.11092087
vn 0 -0.99382925 0.11092087
vn 0 -0.54594356 0.8378219
vn 0 -0.54594356 0.8378219
vn 0 -0.54594356 0.8378219
vn 0 -0.99382925 0.11092087
vn 0 -0.99382925 0.11092087
vn 0 -0.99382925 0.11092087
vn 0 -0.54594356 0.8378219
vn 0 -0.54594356 0.8378219
vn 0 -0.54594356 0.8378219
vn 0 -0.60214 0.7983905
vn 0 -0.60214 0.7983905
vn 0 -0.60214 0.7983905
f 1//1 2//2 3//3
f 4//4 5//5 6//6
f 7//7 8//8 9//9
f 10//10 11//11 12//12
f 13//13 14//14 15//15
f 16//16 17//17 18//18
f 19//19 20//20 21//21
f 22//22 23//23 24//24
f 25//25 26//26 27//27
f 28//28 29//29 30//30
f 31//31 32//32 33//33
f 34//34 35//35 36//36
f 37//37 38//38 39//39
f 40//40 41//41 42//42
f 43//43 44//44 45//45
f 46//46 47//47 48//48
f 49//49 50//50 51//51
f 52//52 53//53 54//54
f 55//55 56//56 57//57
f 58//58 59//59 60//60
f 61//61 62//62 63//63
f 64//64 65//65 66//66
f 67//67 68//68 69//69
f 70//70 71//71 72//72
f 73//73 74//74 75//75
f 76//76 77//77 78//78
f 79//79 80//80 81//81
