# Exported from SharpOpenGl procedural mesh
o transport_cargo
# vertices 81
v 0 1.9093639 1.0737293
v 1.5492965 0 0
v 1.6726333 0 0.7256273
v 1.5492965 0 0
v 1.6726333 0 0.7256273
v 0 0 -2.684323
v 0 1.9093639 1.0737293
v 1.6726333 0 0.7256273
v 0.5966104 0 1.2208731
v 1.6726333 0 0.7256273
v 0.5966104 0 1.2208731
v 0 0 -2.684323
v 0 1.9093639 1.0737293
v 0.5966104 0 1.2208731
v -0.16216476 0 1.3285003
v 0.5966104 0 1.2208731
v -0.16216476 0 1.3285003
v 0 0 -2.684323
v 0 1.9093639 1.0737293
v -0.16216476 0 1.3285003
v -1.1578063 0 1.0143379
v -0.16216476 0 1.3285003
v -1.1578063 0 1.0143379
v 0 0 -2.684323
v 0 1.9093639 1.0737293
v -1.1578063 0 1.0143379
v -1.825677 0 0.37813038
v -1.1578063 0 1.0143379
v -1.825677 0 0.37813038
v 0 0 -2.684323
v 0 1.9093639 1.0737293
v -1.825677 0 0.37813038
v -1.1892842 0 -0.3781306
v -1.825677 0 0.37813038
v -1.1892842 0 -0.3781306
v 0 0 -2.684323
v 0 1.9093639 1.0737293
v -1.1892842 0 -0.3781306
v -0.83538896 0 -1.0143383
v -1.1892842 0 -0.3781306
v -0.83538896 0 -1.0143383
v 0 0 -2.684323
v 0 1.9093639 1.0737293
v -0.83538896 0 -1.0143383
v -0.27461153 0 -1.3285004
v -0.83538896 0 -1.0143383
v -0.27461153 0 -1.3285004
v 0 0 -2.684323
v 0 1.9093639 1.0737293
v -0.27461153 0 -1.3285004
v 0.71655613 0 -1.220873
v -0.27461153 0 -1.3285004
v 0.71655613 0 -1.220873
v 0 0 -2.684323
v 0 1.9093639 1.0737293
v 0.71655613 0 -1.220873
v 0.94534034 0 -0.7256268
v 0.71655613 0 -1.220873
v 0.94534034 0 -0.7256268
v 0 0 -2.684323
v 0 1.9093639 1.0737293
v 0.94534034 0 -0.7256268
v 1.4833415 0 8.746635E-07
v 0.94534034 0 -0.7256268
v 1.4833415 0 8.746635E-07
v 0 0 -2.684323
v -1.2394372 0.103208855 -3.3285606
v -1.8237433 0 -4.614034
v -0.6551311 0 -4.614034
v -1.2394372 0.42573655 -3.0364075
v -1.5900209 0.103208855 -3.3285606
v -0.88885355 0.103208855 -3.3285606
v 1.2394372 0.103208855 -3.3285606
v 0.6551311 0 -4.614034
v 1.8237433 0 -4.614034
v 1.2394372 0.42573655 -3.0364075
v 0.88885355 0.103208855 -3.3285606
v 1.5900209 0.103208855 -3.3285606
v 0 0.49024206 -0.26843232
v -0.3098593 0.1806155 -0.534026
v 0.3098593 0.1806155 -0.534026
vn -0.7349073 -0.666564 0.124914154
vn -0.7349073 -0.666564 0.124914154
vn -0.7349073 -0.666564 0.124914154
vn -0 -0.99999994 0
vn -0 -0.99999994 0
vn -0 -0.99999994 0
vn -0.40992725 -0.19672555 -0.8906508
vn -0.40992725 -0.19672555 -0.8906508
vn -0.40992725 -0.19672555 -0.8906508
vn -0 -1 0
vn -0 -1 0
vn -0 -1 0
vn -0.13943416 -0.11932382 -0.9830158
vn -0.13943416 -0.11932382 -0.9830158
vn -0.13943416 -0.11932382 -0.9830158
vn -0 -0.99999994 0
vn -0 -0.99999994 0
vn -0 -0.99999994 0
vn 0.29746026 -0.15105164 -0.94270927
vn 0.29746026 -0.15105164 -0.94270927
vn 0.29746026 -0.15105164 -0.94270927
vn 0 -1 -0
vn 0 -1 -0
vn 0 -1 -0
vn 0.6413446 -0.36795852 -0.67326343
vn 0.6413446 -0.36795852 -0.67326343
vn 0.6413446 -0.36795852 -0.67326343
vn 0 -1 -0
vn 0 -1 -0
vn 0 -1 -0
vn 0.55026317 -0.6948373 0.46304592
vn 0.55026317 -0.6948373 0.46304592
vn 0.55026317 -0.6948373 0.46304592
vn 0 1 0
vn 0 1 0
vn 0 1 0
vn 0.6450665 -0.67463726 0.35882297
vn 0.6450665 -0.67463726 0.35882297
vn 0.6450665 -0.67463726 0.35882297
vn 0 1 0
vn 0 1 0
vn 0 1 0
vn 0.31788057 -0.7596004 0.56741446
vn 0.31788057 -0.7596004 0.56741446
vn 0.31788057 -0.7596004 0.56741446
vn 0 1 0
vn 0 1 0
vn 0 1 0
vn -0.06792462 -0.77723455 0.62553406
vn -0.06792462 -0.77723455 0.62553406
vn -0.06792462 -0.77723455 0.62553406
vn -0 1 0
vn -0 1 0
vn -0 1 0
vn -0.69351715 -0.64528453 0.32037756
vn -0.69351715 -0.64528453 0.32037756
vn -0.69351715 -0.64528453 0.32037756
vn -0 -1 0
vn -0 -1 0
vn -0 -1 0
vn -0.5797789 -0.6921509 0.4298647
vn -0.5797789 -0.6921509 0.4298647
vn -0.5797789 -0.6921509 0.4298647
vn -0 1 0
vn -0 1 0
vn -0 1 0
vn 0 -0.9967923 0.080031045
vn 0 -0.9967923 0.080031045
vn 0 -0.9967923 0.080031045
vn 0 -0.67134583 0.7411443
vn 0 -0.67134583 0.7411443
vn 0 -0.67134583 0.7411443
vn 0 -0.9967923 0.080031045
vn 0 -0.9967923 0.080031045
vn 0 -0.9967923 0.080031045
vn 0 -0.67134583 0.7411443
vn 0 -0.67134583 0.7411443
vn 0 -0.67134583 0.7411443
vn 0 -0.6510733 0.7590149
vn 0 -0.6510733 0.7590149
vn 0 -0.6510733 0.7590149
f 1//1 2//2 3//3
f 4//4 5//5 6//6
f 7//7 8//8 9//9
f 10//10 11//11 12//12
f 13//13 14//14 15//15
f 16//16 17//17 18//18
f 19//19 20//20 21//21
f 22//22 23//23 24//24
f 25//25 26//26 27//27
f 28//28 29//29 30//30
f 31//31 32//32 33//33
f 34//34 35//35 36//36
f 37//37 38//38 39//39
f 40//40 41//41 42//42
f 43//43 44//44 45//45
f 46//46 47//47 48//48
f 49//49 50//50 51//51
f 52//52 53//53 54//54
f 55//55 56//56 57//57
f 58//58 59//59 60//60
f 61//61 62//62 63//63
f 64//64 65//65 66//66
f 67//67 68//68 69//69
f 70//70 71//71 72//72
f 73//73 74//74 75//75
f 76//76 77//77 78//78
f 79//79 80//80 81//81
