# Exported from SharpOpenGl procedural mesh
o solari_corvette_mk1_04
# vertices 345
v -0.43679062 0.026687512 -1.3881963
v 0.43679062 0.026687512 -1.3881963
v 0 0.083398476 -1.2519007
v -0.43679062 0.026687512 -1.3881963
v 0 0.083398476 -1.2519007
v -0.5472253 0.031935535 -1.0853171
v 0.43679062 0.026687512 -1.3881963
v 0.5472253 0.031935535 -1.0853171
v 0 0.09979855 -1.2519007
v -0.43679062 0 -1.3881963
v -0.5472253 0 -1.0853171
v 0.43679062 0 -1.3881963
v 0.43679062 0 -1.3881963
v -0.5472253 0 -1.0853171
v 0.5472253 0 -1.0853171
v -0.5472253 0.031935535 -1.0853171
v 0.5472253 0.031935535 -1.0853171
v 0 0.09979855 -0.9490215
v -0.5472253 0.031935535 -1.0853171
v 0 0.09979855 -0.9490215
v -0.6468499 0.036669847 -0.782438
v 0.5472253 0.031935535 -1.0853171
v 0.6468499 0.036669847 -0.782438
v 0 0.114593275 -0.9490215
v -0.5472253 0 -1.0853171
v -0.6468499 0 -0.782438
v 0.5472253 0 -1.0853171
v 0.5472253 0 -1.0853171
v -0.6468499 0 -0.782438
v 0.6468499 0 -0.782438
v -0.6468499 0.036669847 -0.782438
v 0.6468499 0.036669847 -0.782438
v 0 0.114593275 -0.64614236
v -0.6468499 0.036669847 -0.782438
v 0 0.114593275 -0.64614236
v -0.72591233 0.040427018 -0.47955877
v 0.6468499 0.036669847 -0.782438
v 0.72591233 0.040427018 -0.47955877
v 0 0.12633443 -0.64614236
v -0.6468499 0 -0.782438
v -0.72591233 0 -0.47955877
v 0.6468499 0 -0.782438
v 0.6468499 0 -0.782438
v -0.72591233 0 -0.47955877
v 0.72591233 0 -0.47955877
v -0.72591233 0.040427018 -0.47955877
v 0.72591233 0.040427018 -0.47955877
v 0 0.12633443 -0.34326315
v -0.72591233 0.040427018 -0.47955877
v 0 0.12633443 -0.34326315
v -0.7766736 0.04283927 -0.17667961
v 0.72591233 0.040427018 -0.47955877
v 0.7766736 0.04283927 -0.17667961
v 0 0.13387272 -0.34326315
v -0.72591233 0 -0.47955877
v -0.7766736 0 -0.17667961
v 0.72591233 0 -0.47955877
v 0.72591233 0 -0.47955877
v -0.7766736 0 -0.17667961
v 0.7766736 0 -0.17667961
v -0.7766736 0.04283927 -0.17667961
v 0.7766736 0.04283927 -0.17667961
v 0 0.13387272 -0.040383965
v -0.7766736 0.04283927 -0.17667961
v 0 0.13387272 -0.040383965
v -0.7941648 0.04367047 0.1261996
v 0.7766736 0.04283927 -0.17667961
v 0.7941648 0.04367047 0.1261996
v 0 0.13647023 -0.040383965
v -0.7766736 0 -0.17667961
v -0.7941648 0 0.1261996
v 0.7766736 0 -0.17667961
v 0.7766736 0 -0.17667961
v -0.7941648 0 0.1261996
v 0.7941648 0 0.1261996
v -0.7941648 0.04367047 0.1261996
v 0.7941648 0.04367047 0.1261996
v 0 0.13647023 0.26249525
v -0.7941648 0.04367047 0.1261996
v 0 0.13647023 0.26249525
v -0.7766736 0.04283927 0.42907882
v 0.7941648 0.04367047 0.1261996
v 0.7766736 0.04283927 0.42907882
v 0 0.13387272 0.26249525
v -0.7941648 0 0.1261996
v -0.7766736 0 0.42907882
v 0.7941648 0 0.1261996
v 0.7941648 0 0.1261996
v -0.7766736 0 0.42907882
v 0.7766736 0 0.42907882
v -0.7766736 0.04283927 0.42907882
v 0.7766736 0.04283927 0.42907882
v 0 0.13387272 0.5653745
v -0.7766736 0.04283927 0.42907882
v 0 0.13387272 0.5653745
v -0.72591233 0.040427018 0.73195803
v 0.7766736 0.04283927 0.42907882
v 0.72591233 0.040427018 0.73195803
v 0 0.12633443 0.5653745
v -0.7766736 0 0.42907882
v -0.72591233 0 0.73195803
v 0.7766736 0 0.42907882
v 0.7766736 0 0.42907882
v -0.72591233 0 0.73195803
v 0.72591233 0 0.73195803
v -0.72591233 0.040427018 0.73195803
v 0.72591233 0.040427018 0.73195803
v 0 0.12633443 0.8682536
v -0.72591233 0.040427018 0.73195803
v 0 0.12633443 0.8682536
v -0.79124343 0.036669843 1.0348371
v 0.72591233 0.040427018 0.73195803
v 0.79124343 0.036669843 1.0348371
v 0 0.11459326 0.8682536
v -0.72591233 0 0.73195803
v -0.79124343 0 1.0348371
v 0.72591233 0 0.73195803
v 0.72591233 0 0.73195803
v -0.79124343 0 1.0348371
v 0.79124343 0 1.0348371
v -0.79124343 0.036669843 1.0348371
v 0.79124343 0.036669843 1.0348371
v 0 0.11459326 1.1711327
v -0.79124343 0.036669843 1.0348371
v 0 0.11459326 1.1711327
v -0.61942214 0.031935535 1.3377162
v 0.79124343 0.036669843 1.0348371
v 0.61942214 0.031935535 1.3377162
v 0 0.09979855 1.1711327
v -0.79124343 0 1.0348371
v -0.61942214 0 1.3377162
v 0.79124343 0 1.0348371
v 0.79124343 0 1.0348371
v -0.61942214 0 1.3377162
v 0.61942214 0 1.3377162
v -0.61942214 0.031935535 1.3377162
v 0.61942214 0.031935535 1.3377162
v 0 0.09979855 1.4740119
v -0.61942214 0.031935535 1.3377162
v 0 0.09979855 1.4740119
v -0.4367906 0.02668751 1.6405956
v 0.61942214 0.031935535 1.3377162
v 0.4367906 0.02668751 1.6405956
v 0 0.08339847 1.4740119
v -0.61942214 0 1.3377162
v -0.4367906 0 1.6405956
v 0.61942214 0 1.3377162
v 0.61942214 0 1.3377162
v -0.4367906 0 1.6405956
v 0.4367906 0 1.6405956
v -1.3401531 0.15163359 0.9591174
v 1.3401531 0.15163359 0.9591174
v 0 0.23503205 -0.757198
v -1.3401531 0.15163359 0.9591174
v 0 0.23503205 -0.757198
v -1.3401531 0.15163359 -0.9591174
v 1.3401531 0.15163359 0.9591174
v 1.3401531 0.15163359 -0.9591174
v 0 0.23503205 -0.757198
v -1.3401531 0.13950291 0.9591174
v 1.3401531 0.13950291 0.9591174
v 1.3401531 0.13950291 -0.9591174
v -1.3401531 0.13950291 0.9591174
v 1.3401531 0.13950291 -0.9591174
v -1.3401531 0.13950291 -0.9591174
v -1.3401531 0.13950291 0.9591174
v -1.3401531 0.15163359 0.9591174
v 1.3401531 0.15163359 0.9591174
v -1.3401531 0.13950291 -0.9591174
v 1.3401531 0.15163359 -0.9591174
v -1.3401531 0.15163359 -0.9591174
v 1.3401531 0.13950291 -0.9591174
v 1.3401531 0.15163359 -0.9591174
v 1.3401531 0.15163359 0.9591174
v 1.3401531 0.13950291 0.9591174
v 1.3401531 0.15163359 0.9591174
v 1.3401531 0.15163359 -0.9591174
v -1.2597439 0.15163359 -0.9591174
v -0.9917133 0.15163359 -0.9591174
v -1.1257286 0.20470536 -0.7067181
v -1.2597439 0.15163359 -0.9591174
v -1.1257286 0.20470536 -0.7067181
v -1.2329409 0.15163359 -0.7067181
v -0.9917133 0.15163359 -0.9591174
v -1.0185163 0.15163359 -0.7067181
v -1.1257286 0.20470536 -0.7067181
v -0.1340153 0.15163359 -0.9591174
v 0.1340153 0.15163359 -0.9591174
v 0 0.20470536 -0.7067181
v -0.1340153 0.15163359 -0.9591174
v 0 0.20470536 -0.7067181
v -0.107212245 0.15163359 -0.7067181
v 0.1340153 0.15163359 -0.9591174
v 0.107212245 0.15163359 -0.7067181
v 0 0.20470536 -0.7067181
v 0.9917133 0.15163359 -0.9591174
v 1.2597439 0.15163359 -0.9591174
v 1.1257286 0.20470536 -0.7067181
v 0.9917133 0.15163359 -0.9591174
v 1.1257286 0.20470536 -0.7067181
v 1.0185163 0.15163359 -0.7067181
v 1.2597439 0.15163359 -0.9591174
v 1.2329409 0.15163359 -0.7067181
v 1.1257286 0.20470536 -0.7067181
v -1.2597439 0.15163359 0.757198
v -0.9917133 0.15163359 0.757198
v -1.1257286 0.27294046 1.0095973
v -1.2597439 0.15163359 0.757198
v -1.1257286 0.27294046 1.0095973
v -1.2329409 0.15163359 1.0095973
v -0.9917133 0.15163359 0.757198
v -1.0185163 0.15163359 1.0095973
v -1.1257286 0.27294046 1.0095973
v -0.1340153 0.15163359 0.757198
v 0.1340153 0.15163359 0.757198
v 0 0.27294046 1.0095973
v -0.1340153 0.15163359 0.757198
v 0 0.27294046 1.0095973
v -0.107212245 0.15163359 1.0095973
v 0.1340153 0.15163359 0.757198
v 0.107212245 0.15163359 1.0095973
v 0 0.27294046 1.0095973
v 0.9917133 0.15163359 0.757198
v 1.2597439 0.15163359 0.757198
v 1.1257286 0.27294046 1.0095973
v 0.9917133 0.15163359 0.757198
v 1.1257286 0.27294046 1.0095973
v 1.0185163 0.15163359 1.0095973
v 1.2597439 0.15163359 0.757198
v 1.2329409 0.15163359 1.0095973
v 1.1257286 0.27294046 1.0095973
v -0.1985412 0.12650573 0.08480617
v 0.1985412 0.12650573 0.08480617
v 0 0.39533043 0.10388755
v -0.1985412 0.12650573 0.08480617
v 0 0.39533043 0.10388755
v -0.18530512 0.14239116 0.12720925
v 0.1985412 0.12650573 0.08480617
v 0.18530512 0.14239116 0.12720925
v 0 0.44497237 0.10388755
v -0.1985412 0 0.08480617
v -0.18530512 0 0.12720925
v 0.1985412 0 0.08480617
v 0.1985412 0 0.08480617
v -0.18530512 0 0.12720925
v 0.18530512 0 0.12720925
v -0.18530512 0.14239116 0.12720925
v 0.18530512 0.14239116 0.12720925
v 0 0.44497237 0.14629063
v -0.18530512 0.14239116 0.12720925
v 0 0.44497237 0.14629063
v -0.17206904 0.15827659 0.16961233
v 0.18530512 0.14239116 0.12720925
v 0.17206904 0.15827659 0.16961233
v 0 0.49461433 0.14629063
v -0.18530512 0 0.12720925
v -0.17206904 0 0.16961233
v 0.18530512 0 0.12720925
v 0.18530512 0 0.12720925
v -0.17206904 0 0.16961233
v 0.17206904 0 0.16961233
v -0.17206904 0.15827659 0.16961233
v 0.17206904 0.15827659 0.16961233
v 0 0.49461433 0.18869372
v -0.17206904 0.15827659 0.16961233
v 0 0.49461433 0.18869372
v -0.15883295 0.17416202 0.21201542
v 0.17206904 0.15827659 0.16961233
v 0.15883295 0.17416202 0.21201542
v 0 0.5442563 0.18869372
v -0.17206904 0 0.16961233
v -0.15883295 0 0.21201542
v 0.17206904 0 0.16961233
v 0.17206904 0 0.16961233
v -0.15883295 0 0.21201542
v 0.15883295 0 0.21201542
v -0.15883295 0.17416202 0.21201542
v 0.15883295 0.17416202 0.21201542
v 0 0.5442563 0.2310968
v -0.15883295 0.17416202 0.21201542
v 0 0.5442563 0.2310968
v -0.14559688 0.19004743 0.2544185
v 0.15883295 0.17416202 0.21201542
v 0.14559688 0.19004743 0.2544185
v 0 0.59389824 0.2310968
v -0.15883295 0 0.21201542
v -0.14559688 0 0.2544185
v 0.15883295 0 0.21201542
v 0.15883295 0 0.21201542
v -0.14559688 0 0.2544185
v 0.14559688 0 0.2544185
v -0.14559688 0.19004743 0.2544185
v 0.14559688 0.19004743 0.2544185
v 0 0.59389824 0.27349988
v -0.14559688 0.19004743 0.2544185
v 0 0.59389824 0.27349988
v -0.13236079 0.20593284 0.29682156
v 0.14559688 0.19004743 0.2544185
v 0.13236079 0.20593284 0.29682156
v 0 0.64354014 0.27349988
v -0.14559688 0 0.2544185
v -0.13236079 0 0.29682156
v 0.14559688 0 0.2544185
v 0.14559688 0 0.2544185
v -0.13236079 0 0.29682156
v 0.13236079 0 0.29682156
v -0.13236079 0.20593284 0.29682156
v 0.13236079 0.20593284 0.29682156
v 0 0.64354014 0.31590295
v -0.13236079 0.20593284 0.29682156
v 0 0.64354014 0.31590295
v -0.11912472 0.22181827 0.33922467
v 0.13236079 0.20593284 0.29682156
v 0.11912472 0.22181827 0.33922467
v 0 0.6931821 0.31590295
v -0.13236079 0 0.29682156
v -0.11912472 0 0.33922467
v 0.13236079 0 0.29682156
v 0.13236079 0 0.29682156
v -0.11912472 0 0.33922467
v 0.11912472 0 0.33922467
v -0.833873 0.043323882 -1.7387509
v -1.0721223 0 -2.2628996
v -0.59562355 0 -2.2628996
v -0.833873 0.17871103 -1.6196263
v -0.9768226 0.043323882 -1.7387509
v -0.69092333 0.043323882 -1.7387509
v -0.27795768 0.043323882 -1.7387509
v -0.5162071 0 -2.2628996
v -0.039708257 0 -2.2628996
v -0.27795768 0.17871103 -1.6196263
v -0.42090732 0.043323882 -1.7387509
v -0.13500802 0.043323882 -1.7387509
v 0.27795768 0.043323882 -1.7387509
v 0.039708257 0 -2.2628996
v 0.5162071 0 -2.2628996
v 0.27795768 0.17871103 -1.6196263
v 0.13500802 0.043323882 -1.7387509
v 0.42090732 0.043323882 -1.7387509
v 0.833873 0.043323882 -1.7387509
v 0.59562355 0 -2.2628996
v 1.0721223 0 -2.2628996
v 0.833873 0.17871103 -1.6196263
v 0.69092333 0.043323882 -1.7387509
v 0.9768226 0.043323882 -1.7387509
vn 0 -0.92326665 0.38415995
vn 0 -0.92326665 0.38415995
vn 0 -0.92326665 0.38415995
vn 0.11084307 -0.99216694 0.057606578
vn 0.11084307 -0.99216694 0.057606578
vn 0.11084307 -0.99216694 0.057606578
vn -0.14356801 -0.9872004 0.06945257
vn -0.14356801 -0.9872004 0.06945257
vn -0.14356801 -0.9872004 0.06945257
vn 0 1 -0
vn 0 1 -0
vn 0 1 -0
vn 0 1 -0
vn 0 1 -0
vn 0 1 -0
vn 0 -0.89517415 0.44571662
vn 0 -0.89517415 0.44571662
vn 0 -0.89517415 0.44571662
vn 0.11019827 -0.99256086 0.051761724
vn 0.11019827 -0.99256086 0.051761724
vn 0.11019827 -0.99256086 0.051761724
vn -0.13453153 -0.9891086 0.059711587
vn -0.13453153 -0.9891086 0.059711587
vn -0.13453153 -0.9891086 0.059711587
vn 0 1 -0
vn 0 1 -0
vn 0 1 -0
vn 0 0.99999994 -0
vn 0 0.99999994 -0
vn 0 0.99999994 -0
vn 0 -0.8681327 0.49633202
vn 0 -0.8681327 0.49633202
vn 0 -0.8681327 0.49633202
vn 0.11092295 -0.99297166 0.041272577
vn 0.11092295 -0.99297166 0.041272577
vn 0.11092295 -0.99297166 0.041272577
vn -0.12772185 -0.99075985 0.04563026
vn -0.12772185 -0.99075985 0.04563026
vn -0.12772185 -0.99075985 0.04563026
vn 0 1 -0
vn 0 1 -0
vn 0 1 -0
vn 0 1 -0
vn 0 1 -0
vn 0 1 -0
vn 0 -0.8459763 0.53322065
vn 0 -0.8459763 0.53322065
vn 0 -0.8459763 0.53322065
vn 0.11252363 -0.9932884 0.026769439
vn 0.11252363 -0.9932884 0.026769439
vn 0.11252363 -0.9932884 0.026769439
vn -0.12237442 -0.9920773 0.028410748
vn -0.12237442 -0.9920773 0.028410748
vn -0.12237442 -0.9920773 0.028410748
vn 0 1 -0
vn 0 1 -0
vn 0 1 -0
vn 0 1 -0
vn 0 1 -0
vn 0 1 -0
vn 0 -0.8315721 0.5554167
vn 0 -0.8315721 0.5554167
vn 0 -0.8315721 0.5554167
vn 0.1147878 -0.993346 0.009355026
vn 0.1147878 -0.993346 0.009355026
vn 0.1147878 -0.993346 0.009355026
vn -0.11803122 -0.992964 0.009541284
vn -0.11803122 -0.992964 0.009541284
vn -0.11803122 -0.992964 0.009541284
vn 0 1 -0
vn 0 1 -0
vn 0 1 -0
vn 0 1 -0
vn 0 1 -0
vn 0 1 -0
vn 0 -0.8265916 0.56280226
vn 0 -0.8265916 0.56280226
vn 0 -0.8265916 0.56280226
vn 0.117668815 -0.9930073 -0.009520473
vn 0.117668815 -0.9930073 -0.009520473
vn 0.117668815 -0.9930073 -0.009520473
vn -0.1144322 -0.9933872 -0.009334603
vn -0.1144322 -0.9933872 -0.009334603
vn -0.1144322 -0.9933872 -0.009334603
vn 0 0.99999994 0
vn 0 0.99999994 0
vn 0 0.99999994 0
vn 0 1 0
vn 0 1 0
vn 0 1 0
vn 0 -0.83157223 0.55541664
vn 0 -0.83157223 0.55541664
vn 0 -0.83157223 0.55541664
vn 0.12125042 -0.99222064 -0.028223507
vn 0.12125042 -0.99222064 -0.028223507
vn 0.12125042 -0.99222064 -0.028223507
vn -0.111462004 -0.9934128 -0.026592502
vn -0.111462004 -0.9934128 -0.026592502
vn -0.111462004 -0.9934128 -0.026592502
vn 0 1 0
vn 0 1 0
vn 0 1 0
vn 0 1 0
vn 0 1 0
vn 0 1 0
vn 0 -0.8459762 0.53322077
vn 0 -0.8459762 0.53322077
vn 0 -0.8459762 0.53322077
vn 0.11519498 -0.9932639 0.01252628
vn 0.11519498 -0.9932639 0.01252628
vn 0.11519498 -0.9932639 0.01252628
vn -0.09992446 -0.99495244 0.009211479
vn -0.09992446 -0.99495244 0.009211479
vn -0.09992446 -0.99495244 0.009211479
vn 0 1 -0
vn 0 1 -0
vn 0 1 -0
vn 0 1 -0
vn 0 1 -0
vn 0 1 -0
vn 0 -0.8681327 0.49633214
vn 0 -0.8681327 0.49633214
vn 0 -0.8681327 0.49633214
vn 0.111089885 -0.99070466 -0.07850627
vn 0.111089885 -0.99070466 -0.07850627
vn 0.111089885 -0.99070466 -0.07850627
vn -0.09082471 -0.9936067 -0.06705533
vn -0.09082471 -0.9936067 -0.06705533
vn -0.09082471 -0.9936067 -0.06705533
vn 0 1 0
vn 0 1 0
vn 0 1 0
vn 0 1 0
vn 0 1 0
vn 0 1 0
vn 0 -0.8951742 0.4457164
vn 0 -0.8951742 0.4457164
vn 0 -0.8951742 0.4457164
vn 0.12902659 -0.9870893 -0.094904445
vn 0.12902659 -0.9870893 -0.094904445
vn 0.12902659 -0.9870893 -0.094904445
vn -0.09939157 -0.9920553 -0.07712104
vn -0.09939157 -0.9920553 -0.07712104
vn -0.09939157 -0.9920553 -0.07712104
vn 0 1 0
vn 0 1 0
vn 0 1 0
vn 0 1 0
vn 0 1 0
vn 0 1 0
vn -0 0.9988216 0.04853431
vn -0 0.9988216 0.04853431
vn -0 0.9988216 0.04853431
vn -0.0621104 0.9980693 0
vn -0.0621104 0.9980693 0
vn -0.0621104 0.9980693 0
vn 0.0621104 0.9980693 0
vn 0.0621104 0.9980693 0
vn 0.0621104 0.9980693 0
vn -0 1 0
vn -0 1 0
vn -0 1 0
vn 0 1 0
vn 0 1 0
vn 0 1 0
vn 0 0 -1
vn 0 0 -1
vn 0 0 -1
vn 0 0 1
vn 0 0 1
vn 0 0 1
vn 1 0 0
vn 1 0 0
vn 1 0 0
vn -1 0 0
vn -1 0 0
vn -1 0 0
vn 0 -0.9786005 0.2057694
vn 0 -0.9786005 0.2057694
vn 0 -0.9786005 0.2057694
vn 0.44314495 -0.89521396 -0.04705885
vn 0.44314495 -0.89521396 -0.04705885
vn 0.44314495 -0.89521396 -0.04705885
vn -0.44314495 -0.89521396 -0.04705885
vn -0.44314495 -0.89521396 -0.04705885
vn -0.44314495 -0.89521396 -0.04705885
vn 0 -0.9786005 0.2057694
vn 0 -0.9786005 0.2057694
vn 0 -0.9786005 0.2057694
vn 0.44314516 -0.8952139 -0.047058947
vn 0.44314516 -0.8952139 -0.047058947
vn 0.44314516 -0.8952139 -0.047058947
vn -0.44314516 -0.8952139 -0.047058947
vn -0.44314516 -0.8952139 -0.047058947
vn -0.44314516 -0.8952139 -0.047058947
vn 0 -0.9786005 0.2057694
vn 0 -0.9786005 0.2057694
vn 0 -0.9786005 0.2057694
vn 0.44314495 -0.89521396 -0.04705885
vn 0.44314495 -0.89521396 -0.04705885
vn 0.44314495 -0.89521396 -0.04705885
vn -0.44314495 -0.89521396 -0.04705885
vn -0.44314495 -0.89521396 -0.04705885
vn -0.44314495 -0.89521396 -0.04705885
vn 0 -0.90130675 0.43318143
vn 0 -0.90130675 0.43318143
vn 0 -0.90130675 0.43318143
vn 0.7469349 -0.660149 -0.07931919
vn 0.7469349 -0.660149 -0.07931919
vn 0.7469349 -0.660149 -0.07931919
vn -0.7469349 -0.660149 -0.07931919
vn -0.7469349 -0.660149 -0.07931919
vn -0.7469349 -0.660149 -0.07931919
vn 0 -0.9013067 0.4331814
vn 0 -0.9013067 0.4331814
vn 0 -0.9013067 0.4331814
vn 0.746935 -0.66014874 -0.07931933
vn 0.746935 -0.66014874 -0.07931933
vn 0.746935 -0.66014874 -0.07931933
vn -0.746935 -0.66014874 -0.07931933
vn -0.746935 -0.66014874 -0.07931933
vn -0.746935 -0.66014874 -0.07931933
vn 0 -0.90130675 0.43318143
vn 0 -0.90130675 0.43318143
vn 0 -0.90130675 0.43318143
vn 0.7469349 -0.660149 -0.07931919
vn 0.7469349 -0.660149 -0.07931919
vn 0.7469349 -0.660149 -0.07931919
vn -0.7469349 -0.660149 -0.07931919
vn -0.7469349 -0.660149 -0.07931919
vn -0.7469349 -0.660149 -0.07931919
vn 0 -0.07080263 0.99749035
vn 0 -0.07080263 0.99749035
vn 0 -0.07080263 0.99749035
vn 0.80504596 -0.59248686 -0.029331405
vn 0.80504596 -0.59248686 -0.029331405
vn 0.80504596 -0.59248686 -0.029331405
vn -0.84845024 -0.5248609 -0.06821464
vn -0.84845024 -0.5248609 -0.06821464
vn -0.84845024 -0.5248609 -0.06821464
vn 0 1 0
vn 0 1 0
vn 0 1 0
vn 0 1 0
vn 0 1 0
vn 0 1 0
vn 0 -0.06293701 0.9980174
vn 0 -0.06293701 0.9980174
vn 0 -0.06293701 0.9980174
vn 0.85258156 -0.5175782 -0.07223254
vn 0.85258156 -0.5175782 -0.07223254
vn 0.85258156 -0.5175782 -0.07223254
vn -0.88253284 -0.45868698 -0.103644155
vn -0.88253284 -0.45868698 -0.103644155
vn -0.88253284 -0.45868698 -0.103644155
vn 0 1 0
vn 0 1 0
vn 0 1 0
vn 0 1 0
vn 0 1 0
vn 0 1 0
vn 0 -0.056641728 0.99839455
vn 0 -0.056641728 0.99839455
vn 0 -0.056641728 0.99839455
vn 0.88743037 -0.44780782 -0.109248884
vn 0.88743037 -0.44780782 -0.109248884
vn 0.88743037 -0.44780782 -0.109248884
vn -0.90753984 -0.3979449 -0.13420612
vn -0.90753984 -0.3979449 -0.13420612
vn -0.90753984 -0.3979449 -0.13420612
vn 0 1 0
vn 0 1 0
vn 0 1 0
vn 0 1 0
vn 0 1 0
vn 0 1 0
vn 0 -0.051489778 0.99867356
vn 0 -0.051489778 0.99867356
vn 0 -0.051489778 0.99867356
vn 0.9123986 -0.38431212 -0.14082988
vn 0.9123986 -0.38431212 -0.14082988
vn 0.9123986 -0.38431212 -0.14082988
vn -0.9255533 -0.34294653 -0.16043285
vn -0.9255533 -0.34294653 -0.16043285
vn -0.9255533 -0.34294653 -0.16043285
vn 0 1 0
vn 0 1 0
vn 0 1 0
vn 0 1 0
vn 0 1 0
vn 0 1 0
vn 0 -0.047195945 0.99888563
vn 0 -0.047195945 0.99888563
vn 0 -0.047195945 0.99888563
vn 0.929918 -0.32733443 -0.16764435
vn 0.929918 -0.32733443 -0.16764435
vn 0.929918 -0.32733443 -0.16764435
vn -0.93828225 -0.29354548 -0.18291359
vn -0.93828225 -0.29354548 -0.18291359
vn -0.93828225 -0.29354548 -0.18291359
vn 0 1 0
vn 0 1 0
vn 0 1 0
vn 0 1 0
vn 0 1 0
vn 0 1 0
vn 0 -0.043562505 0.99905074
vn 0 -0.043562505 0.99905074
vn 0 -0.043562505 0.99905074
vn 0.9419342 -0.2765997 -0.19040123
vn 0.9419342 -0.2765997 -0.19040123
vn 0.9419342 -0.2765997 -0.19040123
vn -0.94706637 -0.24935077 -0.20221142
vn -0.94706637 -0.24935077 -0.20221142
vn -0.94706637 -0.24935077 -0.20221142
vn 0 0.99999994 0
vn 0 0.99999994 0
vn 0 0.99999994 0
vn 0 1 0
vn 0 1 0
vn 0 1 0
vn 0 -0.9966014 0.082374796
vn 0 -0.9966014 0.082374796
vn 0 -0.9966014 0.082374796
vn 0 -0.6605778 0.7507577
vn 0 -0.6605778 0.7507577
vn 0 -0.6605778 0.7507577
vn 0 -0.9966014 0.082374796
vn 0 -0.9966014 0.082374796
vn 0 -0.9966014 0.082374796
vn 0 -0.6605778 0.7507577
vn 0 -0.6605778 0.7507577
vn 0 -0.6605778 0.7507577
vn 0 -0.9966014 0.082374796
vn 0 -0.9966014 0.082374796
vn 0 -0.9966014 0.082374796
vn 0 -0.6605778 0.7507577
vn 0 -0.6605778 0.7507577
vn 0 -0.6605778 0.7507577
vn 0 -0.9966014 0.082374796
vn 0 -0.9966014 0.082374796
vn 0 -0.9966014 0.082374796
vn 0 -0.6605778 0.7507577
vn 0 -0.6605778 0.7507577
vn 0 -0.6605778 0.7507577
f 1//1 2//2 3//3
f 4//4 5//5 6//6
f 7//7 8//8 9//9
f 10//10 11//11 12//12
f 13//13 14//14 15//15
f 16//16 17//17 18//18
f 19//19 20//20 21//21
f 22//22 23//23 24//24
f 25//25 26//26 27//27
f 28//28 29//29 30//30
f 31//31 32//32 33//33
f 34//34 35//35 36//36
f 37//37 38//38 39//39
f 40//40 41//41 42//42
f 43//43 44//44 45//45
f 46//46 47//47 48//48
f 49//49 50//50 51//51
f 52//52 53//53 54//54
f 55//55 56//56 57//57
f 58//58 59//59 60//60
f 61//61 62//62 63//63
f 64//64 65//65 66//66
f 67//67 68//68 69//69
f 70//70 71//71 72//72
f 73//73 74//74 75//75
f 76//76 77//77 78//78
f 79//79 80//80 81//81
f 82//82 83//83 84//84
f 85//85 86//86 87//87
f 88//88 89//89 90//90
f 91//91 92//92 93//93
f 94//94 95//95 96//96
f 97//97 98//98 99//99
f 100//100 101//101 102//102
f 103//103 104//104 105//105
f 106//106 107//107 108//108
f 109//109 110//110 111//111
f 112//112 113//113 114//114
f 115//115 116//116 117//117
f 118//118 119//119 120//120
f 121//121 122//122 123//123
f 124//124 125//125 126//126
f 127//127 128//128 129//129
f 130//130 131//131 132//132
f 133//133 134//134 135//135
f 136//136 137//137 138//138
f 139//139 140//140 141//141
f 142//142 143//143 144//144
f 145//145 146//146 147//147
f 148//148 149//149 150//150
f 151//151 152//152 153//153
f 154//154 155//155 156//156
f 157//157 158//158 159//159
f 160//160 161//161 162//162
f 163//163 164//164 165//165
f 166//166 167//167 168//168
f 169//169 170//170 171//171
f 172//172 173//173 174//174
f 175//175 176//176 177//177
f 178//178 179//179 180//180
f 181//181 182//182 183//183
f 184//184 185//185 186//186
f 187//187 188//188 189//189
f 190//190 191//191 192//192
f 193//193 194//194 195//195
f 196//196 197//197 198//198
f 199//199 200//200 201//201
f 202//202 203//203 204//204
f 205//205 206//206 207//207
f 208//208 209//209 210//210
f 211//211 212//212 213//213
f 214//214 215//215 216//216
f 217//217 218//218 219//219
f 220//220 221//221 222//222
f 223//223 224//224 225//225
f 226//226 227//227 228//228
f 229//229 230//230 231//231
f 232//232 233//233 234//234
f 235//235 236//236 237//237
f 238//238 239//239 240//240
f 241//241 242//242 243//243
f 244//244 245//245 246//246
f 247//247 248//248 249//249
f 250//250 251//251 252//252
f 253//253 254//254 255//255
f 256//256 257//257 258//258
f 259//259 260//260 261//261
f 262//262 263//263 264//264
f 265//265 266//266 267//267
f 268//268 269//269 270//270
f 271//271 272//272 273//273
f 274//274 275//275 276//276
f 277//277 278//278 279//279
f 280//280 281//281 282//282
f 283//283 284//284 285//285
f 286//286 287//287 288//288
f 289//289 290//290 291//291
f 292//292 293//293 294//294
f 295//295 296//296 297//297
f 298//298 299//299 300//300
f 301//301 302//302 303//303
f 304//304 305//305 306//306
f 307//307 308//308 309//309
f 310//310 311//311 312//312
f 313//313 314//314 315//315
f 316//316 317//317 318//318
f 319//319 320//320 321//321
f 322//322 323//323 324//324
f 325//325 326//326 327//327
f 328//328 329//329 330//330
f 331//331 332//332 333//333
f 334//334 335//335 336//336
f 337//337 338//338 339//339
f 340//340 341//341 342//342
f 343//343 344//344 345//345
