# Exported from SharpOpenGl procedural mesh
o solari_carrier_mk1_10
# vertices 90
v -4.016129 0.46867818 1.7826626
v 4.016129 0.46867818 1.7826626
v 0 0.7498851 -0.7639983
v -4.016129 0.46867818 1.7826626
v 0 0.7498851 -0.7639983
v -4.016129 0.46867818 -1.7826626
v 4.016129 0.46867818 1.7826626
v 4.016129 0.46867818 -1.7826626
v 0 0.7498851 -0.7639983
v -4.016129 0 1.7826626
v 4.016129 0 1.7826626
v 4.016129 0 -1.7826626
v -4.016129 0 1.7826626
v 4.016129 0 -1.7826626
v -4.016129 0 -1.7826626
v -6.104516 0.46867818 2.0373287
v -5.140645 0.8436207 0.7639983
v -6.5864515 0.46867818 -1.0186644
v -3.052258 0.46867818 2.0373287
v -2.088387 0.8436207 0.7639983
v -3.5341935 0.46867818 -1.0186644
v 0 0.46867818 2.0373287
v 0.96387094 0.8436207 0.7639983
v -0.48193547 0.46867818 -1.0186644
v 3.052258 0.46867818 2.0373287
v 4.016129 0.8436207 0.7639983
v 2.5703225 0.46867818 -1.0186644
v 6.104516 0.46867818 2.0373287
v 7.068387 0.8436207 0.7639983
v 5.6225805 0.46867818 -1.0186644
v -0.89247316 0.46867818 0.5093322
v 0.89247316 0.46867818 0.5093322
v 0.89247316 1.9751437 0.5093322
v -0.89247316 0.46867818 0.5093322
v 0.89247316 1.9751437 0.5093322
v -0.89247316 1.9751437 0.5093322
v -0.89247316 0.46867818 2.2919948
v 0.89247316 1.9751437 2.2919948
v 0.89247316 0.46867818 2.2919948
v -0.89247316 0.46867818 2.2919948
v -0.89247316 1.9751437 2.2919948
v 0.89247316 1.9751437 2.2919948
v -0.89247316 0.46867818 0.5093322
v -0.89247316 0.46867818 2.2919948
v 0.89247316 0.46867818 2.2919948
v -0.89247316 0.46867818 0.5093322
v 0.89247316 0.46867818 2.2919948
v 0.89247316 0.46867818 0.5093322
v -0.89247316 1.9751437 0.5093322
v 0.89247316 1.9751437 2.2919948
v -0.89247316 1.9751437 2.2919948
v -0.89247316 1.9751437 0.5093322
v 0.89247316 1.9751437 0.5093322
v 0.89247316 1.9751437 2.2919948
v -0.89247316 0.46867818 0.5093322
v -0.89247316 1.9751437 0.5093322
v -0.89247316 1.9751437 2.2919948
v -0.89247316 0.46867818 0.5093322
v -0.89247316 1.9751437 2.2919948
v -0.89247316 0.46867818 2.2919948
v 0.89247316 0.46867818 0.5093322
v 0.89247316 0.46867818 2.2919948
v 0.89247316 1.9751437 2.2919948
v 0.89247316 0.46867818 0.5093322
v 0.89247316 1.9751437 2.2919948
v 0.89247316 1.9751437 0.5093322
v -2.4989247 0.13390805 -3.5087328
v -3.4984946 0 -5.7077866
v -1.4993548 0 -5.7077866
v -2.4989247 0.5523707 -3.0089478
v -3.0986667 0.13390805 -3.5087328
v -1.8991828 0.13390805 -3.5087328
v -0.832975 0.13390805 -3.5087328
v -1.8325449 0 -5.7077866
v 0.16659498 0 -5.7077866
v -0.832975 0.5523707 -3.0089478
v -1.432717 0.13390805 -3.5087328
v -0.23323298 0.13390805 -3.5087328
v 0.832975 0.13390805 -3.5087328
v -0.16659498 0 -5.7077866
v 1.8325449 0 -5.7077866
v 0.832975 0.5523707 -3.0089478
v 0.23323298 0.13390805 -3.5087328
v 1.432717 0.13390805 -3.5087328
v 2.4989247 0.13390805 -3.5087328
v 1.4993548 0 -5.7077866
v 3.4984946 0 -5.7077866
v 2.4989247 0.5523707 -3.0089478
v 1.8991828 0.13390805 -3.5087328
v 3.0986667 0.13390805 -3.5087328
vn -0 0.9939587 0.10975472
vn -0 0.9939587 0.10975472
vn -0 0.9939587 0.10975472
vn -0.06984838 0.99755764 0
vn -0.06984838 0.99755764 0
vn -0.06984838 0.99755764 0
vn 0.06984838 0.99755764 0
vn 0.06984838 0.99755764 0
vn 0.06984838 0.99755764 0
vn -0 1 0
vn -0 1 0
vn -0 1 0
vn 0 1 0
vn 0 1 0
vn 0 1 0
vn -0.30608302 0.95078033 0.048269834
vn -0.30608302 0.95078033 0.048269834
vn -0.30608302 0.95078033 0.048269834
vn -0.30608302 0.95078033 0.048269834
vn -0.30608302 0.95078033 0.048269834
vn -0.30608302 0.95078033 0.048269834
vn -0.30608302 0.9507803 0.04826983
vn -0.30608302 0.9507803 0.04826983
vn -0.30608302 0.9507803 0.04826983
vn -0.30608302 0.95078033 0.048269834
vn -0.30608302 0.95078033 0.048269834
vn -0.30608302 0.95078033 0.048269834
vn -0.30608302 0.95078033 0.048269834
vn -0.30608302 0.95078033 0.048269834
vn -0.30608302 0.95078033 0.048269834
vn 0 0 1
vn 0 0 1
vn 0 0 1
vn 0 0 1
vn 0 0 1
vn 0 0 1
vn 0 0 -1
vn 0 0 -1
vn 0 0 -1
vn 0 0 -1
vn 0 0 -1
vn 0 0 -1
vn 0 1 0
vn 0 1 0
vn 0 1 0
vn 0 1 0
vn 0 1 0
vn 0 1 0
vn 0 -1 0
vn 0 -1 0
vn 0 -1 0
vn 0 -1 0
vn 0 -1 0
vn 0 -1 0
vn 1 0 0
vn 1 0 0
vn 1 0 0
vn 1 0 0
vn 1 0 0
vn 1 0 0
vn -1 0 0
vn -1 0 0
vn -1 0 0
vn -1 0 0
vn -1 0 0
vn -1 0 0
vn 0 -0.9981512 0.0607809
vn 0 -0.9981512 0.0607809
vn 0 -0.9981512 0.0607809
vn 0 -0.76672894 0.64197105
vn 0 -0.76672894 0.64197105
vn 0 -0.76672894 0.64197105
vn 0 -0.9981512 0.0607809
vn 0 -0.9981512 0.0607809
vn 0 -0.9981512 0.0607809
vn 0 -0.7667289 0.641971
vn 0 -0.7667289 0.641971
vn 0 -0.7667289 0.641971
vn 0 -0.9981512 0.0607809
vn 0 -0.9981512 0.0607809
vn 0 -0.9981512 0.0607809
vn 0 -0.7667289 0.641971
vn 0 -0.7667289 0.641971
vn 0 -0.7667289 0.641971
vn 0 -0.9981512 0.0607809
vn 0 -0.9981512 0.0607809
vn 0 -0.9981512 0.0607809
vn 0 -0.76672894 0.64197105
vn 0 -0.76672894 0.64197105
vn 0 -0.76672894 0.64197105
f 1//1 2//2 3//3
f 4//4 5//5 6//6
f 7//7 8//8 9//9
f 10//10 11//11 12//12
f 13//13 14//14 15//15
f 16//16 17//17 18//18
f 19//19 20//20 21//21
f 22//22 23//23 24//24
f 25//25 26//26 27//27
f 28//28 29//29 30//30
f 31//31 32//32 33//33
f 34//34 35//35 36//36
f 37//37 38//38 39//39
f 40//40 41//41 42//42
f 43//43 44//44 45//45
f 46//46 47//47 48//48
f 49//49 50//50 51//51
f 52//52 53//53 54//54
f 55//55 56//56 57//57
f 58//58 59//59 60//60
f 61//61 62//62 63//63
f 64//64 65//65 66//66
f 67//67 68//68 69//69
f 70//70 71//71 72//72
f 73//73 74//74 75//75
f 76//76 77//77 78//78
f 79//79 80//80 81//81
f 82//82 83//83 84//84
f 85//85 86//86 87//87
f 88//88 89//89 90//90
