# Exported from SharpOpenGl procedural mesh
o solari_transport_mk3_47
# vertices 87
v -3.8575897 0.3507168 1.8404282
v 3.8575897 0.3507168 1.8404282
v 0 0.5611469 -0.788755
v -3.8575897 0.3507168 1.8404282
v 0 0.5611469 -0.788755
v -3.8575897 0.3507168 -1.8404282
v 3.8575897 0.3507168 1.8404282
v 3.8575897 0.3507168 -1.8404282
v 0 0.5611469 -0.788755
v -3.8575897 0 1.8404282
v 3.8575897 0 1.8404282
v 3.8575897 0 -1.8404282
v -3.8575897 0 1.8404282
v 3.8575897 0 -1.8404282
v -3.8575897 0 -1.8404282
v -2.9317682 0.3507168 2.1033466
v -2.0059466 0.6312902 0.788755
v -3.3946788 0.3507168 -1.0516733
v 0 0.3507168 2.1033466
v 0.9258215 0.6312902 0.788755
v -0.46291074 0.3507168 -1.0516733
v 2.9317682 0.3507168 2.1033466
v 3.8575897 0.6312902 0.788755
v 2.4688575 0.3507168 -1.0516733
v -0.85724217 0.3507168 0.52583665
v 0.85724217 0.3507168 0.52583665
v 0.85724217 1.4780208 0.52583665
v -0.85724217 0.3507168 0.52583665
v 0.85724217 1.4780208 0.52583665
v -0.85724217 1.4780208 0.52583665
v -0.85724217 0.3507168 2.3662648
v 0.85724217 1.4780208 2.3662648
v 0.85724217 0.3507168 2.3662648
v -0.85724217 0.3507168 2.3662648
v -0.85724217 1.4780208 2.3662648
v 0.85724217 1.4780208 2.3662648
v -0.85724217 0.3507168 0.52583665
v -0.85724217 0.3507168 2.3662648
v 0.85724217 0.3507168 2.3662648
v -0.85724217 0.3507168 0.52583665
v 0.85724217 0.3507168 2.3662648
v 0.85724217 0.3507168 0.52583665
v -0.85724217 1.4780208 0.52583665
v 0.85724217 1.4780208 2.3662648
v -0.85724217 1.4780208 2.3662648
v -0.85724217 1.4780208 0.52583665
v 0.85724217 1.4780208 0.52583665
v 0.85724217 1.4780208 2.3662648
v -0.85724217 0.3507168 0.52583665
v -0.85724217 1.4780208 0.52583665
v -0.85724217 1.4780208 2.3662648
v -0.85724217 0.3507168 0.52583665
v -0.85724217 1.4780208 2.3662648
v -0.85724217 0.3507168 2.3662648
v 0.85724217 0.3507168 0.52583665
v 0.85724217 0.3507168 2.3662648
v 0.85724217 1.4780208 2.3662648
v 0.85724217 0.3507168 0.52583665
v 0.85724217 1.4780208 2.3662648
v 0.85724217 1.4780208 0.52583665
v -2.0002317 0.100204796 -3.6224303
v -2.7546048 0 -5.282051
v -1.2458587 0 -5.282051
v -2.0002317 0.4133448 -3.2452438
v -2.4528556 0.100204796 -3.6224303
v -1.5476079 0.100204796 -3.6224303
v 0 0.100204796 -3.6224303
v -0.7543731 0 -5.282051
v 0.7543731 0 -5.282051
v 0 0.4133448 -3.2452438
v -0.45262387 0.100204796 -3.6224303
v 0.45262387 0.100204796 -3.6224303
v 2.0002317 0.100204796 -3.6224303
v 1.2458587 0 -5.282051
v 2.7546048 0 -5.282051
v 2.0002317 0.4133448 -3.2452438
v 1.5476079 0.100204796 -3.6224303
v 2.4528556 0.100204796 -3.6224303
v -1.2572885 0.4759728 -0.29213148
v -1.6573348 0.1753584 -0.63502836
v -0.8572421 0.1753584 -0.63502836
v 0 0.4759728 -0.69217783
v -0.40004635 0.1753584 -1.0350747
v 0.40004635 0.1753584 -1.0350747
v 1.2572885 0.4759728 -1.0922241
v 0.8572421 0.1753584 -1.4351209
v 1.6573348 0.1753584 -1.4351209
vn -0 0.99681246 0.07978118
vn -0 0.99681246 0.07978118
vn -0 0.99681246 0.07978118
vn -0.054468658 0.9985155 0
vn -0.054468658 0.9985155 0
vn -0.054468658 0.9985155 0
vn 0.054468658 0.9985155 0
vn 0.054468658 0.9985155 0
vn 0.054468658 0.9985155 0
vn -0 1 0
vn -0 1 0
vn -0 1 0
vn 0 1 0
vn 0 1 0
vn 0 1 0
vn -0.24311368 0.9693417 0.035670113
vn -0.24311368 0.9693417 0.035670113
vn -0.24311368 0.9693417 0.035670113
vn -0.24311368 0.9693417 0.03567012
vn -0.24311368 0.9693417 0.03567012
vn -0.24311368 0.9693417 0.03567012
vn -0.24311368 0.9693417 0.035670113
vn -0.24311368 0.9693417 0.035670113
vn -0.24311368 0.9693417 0.035670113
vn 0 0 1
vn 0 0 1
vn 0 0 1
vn 0 0 1
vn 0 0 1
vn 0 0 1
vn 0 0 -1
vn 0 0 -1
vn 0 0 -1
vn 0 0 -1
vn 0 0 -1
vn 0 0 -1
vn 0 1 0
vn 0 1 0
vn 0 1 0
vn 0 1 0
vn 0 1 0
vn 0 1 0
vn 0 -1 0
vn 0 -1 0
vn 0 -1 0
vn 0 -1 0
vn 0 -1 0
vn 0 -1 0
vn 1 0 0
vn 1 0 0
vn 1 0 0
vn 1 0 0
vn 1 0 0
vn 1 0 0
vn -1 0 0
vn -1 0 0
vn -1 0 0
vn -1 0 0
vn -1 0 0
vn -1 0 0
vn 0 -0.99818224 0.060268372
vn 0 -0.99818224 0.060268372
vn 0 -0.99818224 0.060268372
vn 0 -0.76940584 0.6387602
vn 0 -0.76940584 0.6387602
vn 0 -0.76940584 0.6387602
vn 0 -0.99818224 0.060268372
vn 0 -0.99818224 0.060268372
vn 0 -0.99818224 0.060268372
vn 0 -0.76940584 0.6387602
vn 0 -0.76940584 0.6387602
vn 0 -0.76940584 0.6387602
vn 0 -0.99818224 0.060268372
vn 0 -0.99818224 0.060268372
vn 0 -0.99818224 0.060268372
vn 0 -0.76940584 0.6387602
vn 0 -0.76940584 0.6387602
vn 0 -0.76940584 0.6387602
vn 0 -0.7519464 0.6592242
vn 0 -0.7519464 0.6592242
vn 0 -0.7519464 0.6592242
vn 0 -0.7519464 0.6592242
vn 0 -0.7519464 0.6592242
vn 0 -0.7519464 0.6592242
vn 0 -0.75194633 0.6592243
vn 0 -0.75194633 0.6592243
vn 0 -0.75194633 0.6592243
f 1//1 2//2 3//3
f 4//4 5//5 6//6
f 7//7 8//8 9//9
f 10//10 11//11 12//12
f 13//13 14//14 15//15
f 16//16 17//17 18//18
f 19//19 20//20 21//21
f 22//22 23//23 24//24
f 25//25 26//26 27//27
f 28//28 29//29 30//30
f 31//31 32//32 33//33
f 34//34 35//35 36//36
f 37//37 38//38 39//39
f 40//40 41//41 42//42
f 43//43 44//44 45//45
f 46//46 47//47 48//48
f 49//49 50//50 51//51
f 52//52 53//53 54//54
f 55//55 56//56 57//57
f 58//58 59//59 60//60
f 61//61 62//62 63//63
f 64//64 65//65 66//66
f 67//67 68//68 69//69
f 70//70 71//71 72//72
f 73//73 74//74 75//75
f 76//76 77//77 78//78
f 79//79 80//80 81//81
f 82//82 83//83 84//84
f 85//85 86//86 87//87
