# Exported from SharpOpenGl procedural mesh
o solari_bomber_mk2_24
# vertices 84
v -2.5323133 0.19771118 0.8614018
v 2.5323133 0.19771118 0.8614018
v 0 0.3163379 -0.36917222
v -2.5323133 0.19771118 0.8614018
v 0 0.3163379 -0.36917222
v -2.5323133 0.19771118 -0.8614018
v 2.5323133 0.19771118 0.8614018
v 2.5323133 0.19771118 -0.8614018
v 0 0.3163379 -0.36917222
v -2.5323133 0 0.8614018
v 2.5323133 0 0.8614018
v 2.5323133 0 -0.8614018
v -2.5323133 0 0.8614018
v 2.5323133 0 -0.8614018
v -2.5323133 0 -0.8614018
v -1.9245582 0.19771118 0.9844592
v -1.316803 0.3558801 0.36917222
v -2.2284358 0.19771118 -0.4922296
v 0 0.19771118 0.9844592
v 0.6077552 0.3558801 0.36917222
v -0.3038776 0.19771118 -0.4922296
v 1.9245582 0.19771118 0.9844592
v 2.5323133 0.3558801 0.36917222
v 1.6206806 0.19771118 -0.4922296
v -0.56273633 0.19771118 0.2461148
v 0.56273633 0.19771118 0.2461148
v 0.56273633 0.83321136 0.2461148
v -0.56273633 0.19771118 0.2461148
v 0.56273633 0.83321136 0.2461148
v -0.56273633 0.83321136 0.2461148
v -0.56273633 0.19771118 1.1075165
v 0.56273633 0.83321136 1.1075165
v 0.56273633 0.19771118 1.1075165
v -0.56273633 0.19771118 1.1075165
v -0.56273633 0.83321136 1.1075165
v 0.56273633 0.83321136 1.1075165
v -0.56273633 0.19771118 0.2461148
v -0.56273633 0.19771118 1.1075165
v 0.56273633 0.19771118 1.1075165
v -0.56273633 0.19771118 0.2461148
v 0.56273633 0.19771118 1.1075165
v 0.56273633 0.19771118 0.2461148
v -0.56273633 0.83321136 0.2461148
v 0.56273633 0.83321136 1.1075165
v -0.56273633 0.83321136 1.1075165
v -0.56273633 0.83321136 0.2461148
v 0.56273633 0.83321136 0.2461148
v 0.56273633 0.83321136 1.1075165
v -0.56273633 0.19771118 0.2461148
v -0.56273633 0.83321136 0.2461148
v -0.56273633 0.83321136 1.1075165
v -0.56273633 0.19771118 0.2461148
v -0.56273633 0.83321136 1.1075165
v -0.56273633 0.19771118 1.1075165
v 0.56273633 0.19771118 0.2461148
v 0.56273633 0.19771118 1.1075165
v 0.56273633 0.83321136 1.1075165
v 0.56273633 0.19771118 0.2461148
v 0.56273633 0.83321136 1.1075165
v 0.56273633 0.83321136 0.2461148
v -1.5756615 0.05648891 -1.6954576
v -2.1158884 0 -2.883957
v -1.0354347 0 -2.883957
v -1.5756615 0.23301676 -1.4253441
v -1.8997977 0.05648891 -1.6954576
v -1.2515254 0.05648891 -1.6954576
v -0.5252205 0.05648891 -1.6954576
v -1.0654473 0 -2.883957
v 0.015006363 0 -2.883957
v -0.5252205 0.23301676 -1.4253441
v -0.84935665 0.05648891 -1.6954576
v -0.20108438 0.05648891 -1.6954576
v 0.5252205 0.05648891 -1.6954576
v -0.015006363 0 -2.883957
v 1.0654473 0 -2.883957
v 0.5252205 0.23301676 -1.4253441
v 0.20108438 0.05648891 -1.6954576
v 0.84935665 0.05648891 -1.6954576
v 1.5756615 0.05648891 -1.6954576
v 1.0354347 0 -2.883957
v 2.1158884 0 -2.883957
v 1.5756615 0.23301676 -1.4253441
v 1.2515254 0.05648891 -1.6954576
v 1.8997977 0.05648891 -1.6954576
vn -0 0.9953857 0.095954694
vn -0 0.9953857 0.095954694
vn -0 0.9953857 0.095954694
vn -0.04679389 0.9989046 0
vn -0.04679389 0.9989046 0
vn -0.04679389 0.9989046 0
vn 0.04679389 0.9989046 0
vn 0.04679389 0.9989046 0
vn 0.04679389 0.9989046 0
vn -0 1 0
vn -0 1 0
vn -0 1 0
vn 0 1 0
vn 0 1 0
vn 0 1 0
vn -0.21035457 0.97666633 0.04328741
vn -0.21035457 0.97666633 0.04328741
vn -0.21035457 0.97666633 0.04328741
vn -0.21035457 0.97666633 0.04328741
vn -0.21035457 0.97666633 0.04328741
vn -0.21035457 0.97666633 0.04328741
vn -0.21035457 0.97666633 0.04328741
vn -0.21035457 0.97666633 0.04328741
vn -0.21035457 0.97666633 0.04328741
vn 0 0 1
vn 0 0 1
vn 0 0 1
vn 0 0 1
vn 0 0 1
vn 0 0 1
vn 0 0 -1
vn 0 0 -1
vn 0 0 -1
vn 0 0 -1
vn 0 0 -1
vn 0 0 -1
vn 0 1 0
vn 0 1 0
vn 0 1 0
vn 0 1 0
vn 0 1 0
vn 0 1 0
vn 0 -1 0
vn 0 -1 0
vn 0 -1 0
vn 0 -1 0
vn 0 -1 0
vn 0 -1 0
vn 1 0 0
vn 1 0 0
vn 1 0 0
vn 1 0 0
vn 1 0 0
vn 1 0 0
vn -1 0 0
vn -1 0 0
vn -1 0 0
vn -1 0 0
vn -1 0 0
vn -1 0 0
vn 0 -0.99887246 0.047476016
vn 0 -0.99887246 0.047476016
vn 0 -0.99887246 0.047476016
vn 0 -0.83708996 0.54706526
vn 0 -0.83708996 0.54706526
vn 0 -0.83708996 0.54706526
vn 0 -0.99887246 0.04747602
vn 0 -0.99887246 0.04747602
vn 0 -0.99887246 0.04747602
vn 0 -0.83708996 0.54706526
vn 0 -0.83708996 0.54706526
vn 0 -0.83708996 0.54706526
vn 0 -0.99887246 0.04747602
vn 0 -0.99887246 0.04747602
vn 0 -0.99887246 0.04747602
vn 0 -0.83708996 0.54706526
vn 0 -0.83708996 0.54706526
vn 0 -0.83708996 0.54706526
vn 0 -0.99887246 0.047476016
vn 0 -0.99887246 0.047476016
vn 0 -0.99887246 0.047476016
vn 0 -0.83708996 0.54706526
vn 0 -0.83708996 0.54706526
vn 0 -0.83708996 0.54706526
f 1//1 2//2 3//3
f 4//4 5//5 6//6
f 7//7 8//8 9//9
f 10//10 11//11 12//12
f 13//13 14//14 15//15
f 16//16 17//17 18//18
f 19//19 20//20 21//21
f 22//22 23//23 24//24
f 25//25 26//26 27//27
f 28//28 29//29 30//30
f 31//31 32//32 33//33
f 34//34 35//35 36//36
f 37//37 38//38 39//39
f 40//40 41//41 42//42
f 43//43 44//44 45//45
f 46//46 47//47 48//48
f 49//49 50//50 51//51
f 52//52 53//53 54//54
f 55//55 56//56 57//57
f 58//58 59//59 60//60
f 61//61 62//62 63//63
f 64//64 65//65 66//66
f 67//67 68//68 69//69
f 70//70 71//71 72//72
f 73//73 74//74 75//75
f 76//76 77//77 78//78
f 79//79 80//80 81//81
f 82//82 83//83 84//84
