# Exported from SharpOpenGl procedural mesh
o solari_cruiser_mk3_43
# vertices 84
v -3.7399375 0.49569088 2.5972798
v 3.7399375 0.49569088 2.5972798
v 0 0.7931054 -1.11312
v -3.7399375 0.49569088 2.5972798
v 0 0.7931054 -1.11312
v -3.7399375 0.49569088 -2.5972798
v 3.7399375 0.49569088 2.5972798
v 3.7399375 0.49569088 -2.5972798
v 0 0.7931054 -1.11312
v -3.7399375 0 2.5972798
v 3.7399375 0 2.5972798
v 3.7399375 0 -2.5972798
v -3.7399375 0 2.5972798
v 3.7399375 0 -2.5972798
v -3.7399375 0 -2.5972798
v -2.8423524 0.49569088 2.9683197
v -1.9447675 0.89224356 1.11312
v -3.2911448 0.49569088 -1.4841598
v 0 0.49569088 2.9683197
v 0.897585 0.89224356 1.11312
v -0.4487925 0.49569088 -1.4841598
v 2.8423524 0.49569088 2.9683197
v 3.7399373 0.89224356 1.11312
v 2.39356 0.49569088 -1.4841598
v -0.83109725 0.49569088 0.7420799
v 0.83109725 0.49569088 0.7420799
v 0.83109725 2.088983 0.7420799
v -0.83109725 0.49569088 0.7420799
v 0.83109725 2.088983 0.7420799
v -0.83109725 2.088983 0.7420799
v -0.83109725 0.49569088 3.3393595
v 0.83109725 2.088983 3.3393595
v 0.83109725 0.49569088 3.3393595
v -0.83109725 0.49569088 3.3393595
v -0.83109725 2.088983 3.3393595
v 0.83109725 2.088983 3.3393595
v -0.83109725 0.49569088 0.7420799
v -0.83109725 0.49569088 3.3393595
v 0.83109725 0.49569088 3.3393595
v -0.83109725 0.49569088 0.7420799
v 0.83109725 0.49569088 3.3393595
v 0.83109725 0.49569088 0.7420799
v -0.83109725 2.088983 0.7420799
v 0.83109725 2.088983 3.3393595
v -0.83109725 2.088983 3.3393595
v -0.83109725 2.088983 0.7420799
v 0.83109725 2.088983 0.7420799
v 0.83109725 2.088983 3.3393595
v -0.83109725 0.49569088 0.7420799
v -0.83109725 2.088983 0.7420799
v -0.83109725 2.088983 3.3393595
v -0.83109725 0.49569088 0.7420799
v -0.83109725 2.088983 3.3393595
v -0.83109725 0.49569088 3.3393595
v 0.83109725 0.49569088 0.7420799
v 0.83109725 0.49569088 3.3393595
v 0.83109725 2.088983 3.3393595
v 0.83109725 0.49569088 0.7420799
v 0.83109725 2.088983 3.3393595
v 0.83109725 2.088983 0.7420799
v -2.3270721 0.14162597 -5.1121063
v -3.224657 0 -7.0867934
v -1.4294871 0 -7.0867934
v -2.3270721 0.5842071 -4.663314
v -2.8656232 0.14162597 -5.1121063
v -1.788521 0.14162597 -5.1121063
v -0.77569073 0.14162597 -5.1121063
v -1.6732757 0 -7.0867934
v 0.1218943 0 -7.0867934
v -0.77569073 0.5842071 -4.663314
v -1.3142418 0.14162597 -5.1121063
v -0.2371397 0.14162597 -5.1121063
v 0.77569073 0.14162597 -5.1121063
v -0.1218943 0 -7.0867934
v 1.6732757 0 -7.0867934
v 0.77569073 0.5842071 -4.663314
v 0.2371397 0.14162597 -5.1121063
v 1.3142418 0.14162597 -5.1121063
v 2.3270721 0.14162597 -5.1121063
v 1.4294871 0 -7.0867934
v 3.224657 0 -7.0867934
v 2.3270721 0.5842071 -4.663314
v 1.788521 0.14162597 -5.1121063
v 2.8656232 0.14162597 -5.1121063
vn -0 0.99680275 0.07990073
vn -0 0.99680275 0.07990073
vn -0 0.99680275 0.07990073
vn -0.07927366 0.9968529 0
vn -0.07927366 0.9968529 0
vn -0.07927366 0.9968529 0
vn 0.07927366 0.9968529 0
vn 0.07927366 0.9968529 0
vn 0.07927366 0.9968529 0
vn -0 1 0
vn -0 1 0
vn -0 1 0
vn 0 1 0
vn 0 1 0
vn 0 1 0
vn -0.3431885 0.93862927 0.034592055
vn -0.3431885 0.93862927 0.034592055
vn -0.3431885 0.93862927 0.034592055
vn -0.34318846 0.9386293 0.03459205
vn -0.34318846 0.9386293 0.03459205
vn -0.34318846 0.9386293 0.03459205
vn -0.3431885 0.93862927 0.034592055
vn -0.3431885 0.93862927 0.034592055
vn -0.3431885 0.93862927 0.034592055
vn 0 0 1
vn 0 0 1
vn 0 0 1
vn 0 0 1
vn 0 0 1
vn 0 0 1
vn 0 0 -1
vn 0 0 -1
vn 0 0 -1
vn 0 0 -1
vn 0 0 -1
vn 0 0 -1
vn 0 1 0
vn 0 1 0
vn 0 1 0
vn 0 1 0
vn 0 1 0
vn 0 1 0
vn 0 -1 0
vn 0 -1 0
vn 0 -1 0
vn 0 -1 0
vn 0 -1 0
vn 0 -1 0
vn 1 0 0
vn 1 0 0
vn 1 0 0
vn 1 0 0
vn 1 0 0
vn 1 0 0
vn -1 0 0
vn -1 0 0
vn -1 0 0
vn -1 0 0
vn -1 0 0
vn -1 0 0
vn 0 -0.997438 0.071536966
vn 0 -0.997438 0.071536966
vn 0 -0.997438 0.071536966
vn 0 -0.7120168 0.7021625
vn 0 -0.7120168 0.7021625
vn 0 -0.7120168 0.7021625
vn 0 -0.997438 0.07153697
vn 0 -0.997438 0.07153697
vn 0 -0.997438 0.07153697
vn 0 -0.71201676 0.70216244
vn 0 -0.71201676 0.70216244
vn 0 -0.71201676 0.70216244
vn 0 -0.997438 0.07153697
vn 0 -0.997438 0.07153697
vn 0 -0.997438 0.07153697
vn 0 -0.71201676 0.70216244
vn 0 -0.71201676 0.70216244
vn 0 -0.71201676 0.70216244
vn 0 -0.997438 0.071536966
vn 0 -0.997438 0.071536966
vn 0 -0.997438 0.071536966
vn 0 -0.7120168 0.7021625
vn 0 -0.7120168 0.7021625
vn 0 -0.7120168 0.7021625
f 1//1 2//2 3//3
f 4//4 5//5 6//6
f 7//7 8//8 9//9
f 10//10 11//11 12//12
f 13//13 14//14 15//15
f 16//16 17//17 18//18
f 19//19 20//20 21//21
f 22//22 23//23 24//24
f 25//25 26//26 27//27
f 28//28 29//29 30//30
f 31//31 32//32 33//33
f 34//34 35//35 36//36
f 37//37 38//38 39//39
f 40//40 41//41 42//42
f 43//43 44//44 45//45
f 46//46 47//47 48//48
f 49//49 50//50 51//51
f 52//52 53//53 54//54
f 55//55 56//56 57//57
f 58//58 59//59 60//60
f 61//61 62//62 63//63
f 64//64 65//65 66//66
f 67//67 68//68 69//69
f 70//70 71//71 72//72
f 73//73 74//74 75//75
f 76//76 77//77 78//78
f 79//79 80//80 81//81
f 82//82 83//83 84//84
