# Exported from SharpOpenGl procedural mesh
o solari_hero_mk3_50
# vertices 84
v -2.230278 0.2838158 1.785539
v 2.230278 0.2838158 1.785539
v 0 0.4541053 -0.7652311
v -2.230278 0.2838158 1.785539
v 0 0.4541053 -0.7652311
v -2.230278 0.2838158 -1.785539
v 2.230278 0.2838158 1.785539
v 2.230278 0.2838158 -1.785539
v 0 0.4541053 -0.7652311
v -2.230278 0 1.785539
v 2.230278 0 1.785539
v 2.230278 0 -1.785539
v -2.230278 0 1.785539
v 2.230278 0 -1.785539
v -2.230278 0 -1.785539
v -1.6950113 0.2838158 2.040616
v -1.1597445 0.51086843 0.7652311
v -1.9626446 0.2838158 -1.020308
v 0 0.2838158 2.040616
v 0.5352667 0.51086843 0.7652311
v -0.26763335 0.2838158 -1.020308
v 1.6950113 0.2838158 2.040616
v 2.230278 0.51086843 0.7652311
v 1.4273779 0.2838158 -1.020308
v -0.49561736 0.2838158 0.510154
v 0.49561736 0.2838158 0.510154
v 0.49561736 1.1960809 0.510154
v -0.49561736 0.2838158 0.510154
v 0.49561736 1.1960809 0.510154
v -0.49561736 1.1960809 0.510154
v -0.49561736 0.2838158 2.295693
v 0.49561736 1.1960809 2.295693
v 0.49561736 0.2838158 2.295693
v -0.49561736 0.2838158 2.295693
v -0.49561736 1.1960809 2.295693
v 0.49561736 1.1960809 2.295693
v -0.49561736 0.2838158 0.510154
v -0.49561736 0.2838158 2.295693
v 0.49561736 0.2838158 2.295693
v -0.49561736 0.2838158 0.510154
v 0.49561736 0.2838158 2.295693
v 0.49561736 0.2838158 0.510154
v -0.49561736 1.1960809 0.510154
v 0.49561736 1.1960809 2.295693
v -0.49561736 1.1960809 2.295693
v -0.49561736 1.1960809 0.510154
v 0.49561736 1.1960809 0.510154
v 0.49561736 1.1960809 2.295693
v -0.49561736 0.2838158 0.510154
v -0.49561736 1.1960809 0.510154
v -0.49561736 1.1960809 2.295693
v -0.49561736 0.2838158 0.510154
v -0.49561736 1.1960809 2.295693
v -0.49561736 0.2838158 2.295693
v 0.49561736 0.2838158 0.510154
v 0.49561736 0.2838158 2.295693
v 0.49561736 1.1960809 2.295693
v 0.49561736 0.2838158 0.510154
v 0.49561736 1.1960809 2.295693
v 0.49561736 1.1960809 0.510154
v -1.3877285 0.08109023 -3.5143943
v -1.8635211 0 -4.561138
v -0.9119358 0 -4.561138
v -1.3877285 0.3344972 -3.2764978
v -1.6732041 0.08109023 -3.5143943
v -1.1022528 0.08109023 -3.5143943
v -0.46257618 0.08109023 -3.5143943
v -0.9383688 0 -4.561138
v 0.013216466 0 -4.561138
v -0.46257618 0.3344972 -3.2764978
v -0.74805176 0.08109023 -3.5143943
v -0.17710057 0.08109023 -3.5143943
v 0.46257618 0.08109023 -3.5143943
v -0.013216466 0 -4.561138
v 0.9383688 0 -4.561138
v 0.46257618 0.3344972 -3.2764978
v 0.17710057 0.08109023 -3.5143943
v 0.74805176 0.08109023 -3.5143943
v 1.3877285 0.08109023 -3.5143943
v 0.9119358 0 -4.561138
v 1.8635211 0 -4.561138
v 1.3877285 0.3344972 -3.2764978
v 1.1022528 0.08109023 -3.5143943
v 1.6732041 0.08109023 -3.5143943
vn -0 0.997779 0.06661176
vn -0 0.997779 0.06661176
vn -0 0.997779 0.06661176
vn -0.07613188 0.99709773 0
vn -0.07613188 0.99709773 0
vn -0.07613188 0.99709773 0
vn 0.07613188 0.99709773 0
vn 0.07613188 0.99709773 0
vn 0.07613188 0.99709773 0
vn -0 0.99999994 0
vn -0 0.99999994 0
vn -0 0.99999994 0
vn 0 0.99999994 0
vn 0 0.99999994 0
vn 0 0.99999994 0
vn -0.33109444 0.94315344 0.028949395
vn -0.33109444 0.94315344 0.028949395
vn -0.33109444 0.94315344 0.028949395
vn -0.33109447 0.94315344 0.028949402
vn -0.33109447 0.94315344 0.028949402
vn -0.33109447 0.94315344 0.028949402
vn -0.33109444 0.94315344 0.028949395
vn -0.33109444 0.94315344 0.028949395
vn -0.33109444 0.94315344 0.028949395
vn 0 0 1
vn 0 0 1
vn 0 0 1
vn 0 0 1
vn 0 0 1
vn 0 0 1
vn 0 0 -1
vn 0 0 -1
vn 0 0 -1
vn 0 0 -1
vn 0 0 -1
vn 0 0 -1
vn 0 1 0
vn 0 1 0
vn 0 1 0
vn 0 1 0
vn 0 1 0
vn 0 1 0
vn 0 -1 0
vn 0 -1 0
vn 0 -1 0
vn 0 -1 0
vn 0 -1 0
vn 0 -1 0
vn 1 0 0
vn 1 0 0
vn 1 0 0
vn 1 0 0
vn 1 0 0
vn 1 0 0
vn -1 0 0
vn -1 0 0
vn -1 0 0
vn -1 0 0
vn -1 0 0
vn -1 0 0
vn 0 -0.9970127 0.0772376
vn 0 -0.9970127 0.0772376
vn 0 -0.9970127 0.0772376
vn 0 -0.6844422 0.729067
vn 0 -0.6844422 0.729067
vn 0 -0.6844422 0.729067
vn 0 -0.9970127 0.07723759
vn 0 -0.9970127 0.07723759
vn 0 -0.9970127 0.07723759
vn 0 -0.6844422 0.72906715
vn 0 -0.6844422 0.72906715
vn 0 -0.6844422 0.72906715
vn 0 -0.9970127 0.07723759
vn 0 -0.9970127 0.07723759
vn 0 -0.9970127 0.07723759
vn 0 -0.6844422 0.72906715
vn 0 -0.6844422 0.72906715
vn 0 -0.6844422 0.72906715
vn 0 -0.9970127 0.0772376
vn 0 -0.9970127 0.0772376
vn 0 -0.9970127 0.0772376
vn 0 -0.6844422 0.729067
vn 0 -0.6844422 0.729067
vn 0 -0.6844422 0.729067
f 1//1 2//2 3//3
f 4//4 5//5 6//6
f 7//7 8//8 9//9
f 10//10 11//11 12//12
f 13//13 14//14 15//15
f 16//16 17//17 18//18
f 19//19 20//20 21//21
f 22//22 23//23 24//24
f 25//25 26//26 27//27
f 28//28 29//29 30//30
f 31//31 32//32 33//33
f 34//34 35//35 36//36
f 37//37 38//38 39//39
f 40//40 41//41 42//42
f 43//43 44//44 45//45
f 46//46 47//47 48//48
f 49//49 50//50 51//51
f 52//52 53//53 54//54
f 55//55 56//56 57//57
f 58//58 59//59 60//60
f 61//61 62//62 63//63
f 64//64 65//65 66//66
f 67//67 68//68 69//69
f 70//70 71//71 72//72
f 73//73 74//74 75//75
f 76//76 77//77 78//78
f 79//79 80//80 81//81
f 82//82 83//83 84//84
