# Exported from SharpOpenGl procedural mesh
o solari_destroyer_veteran_54
# vertices 345
v -0.811431 0.048274543 -3.337032
v 0.811431 0.048274543 -3.337032
v 0 0.15085796 -3.009396
v -0.811431 0.048274543 -3.337032
v 0 0.15085796 -3.009396
v -1.0165868 0.0577676 -2.6089523
v 0.811431 0.048274543 -3.337032
v 1.0165868 0.0577676 -2.6089523
v 0 0.18052375 -3.009396
v -0.811431 0 -3.337032
v -1.0165868 0 -2.6089523
v 0.811431 0 -3.337032
v 0.811431 0 -3.337032
v -1.0165868 0 -2.6089523
v 1.0165868 0 -2.6089523
v -1.0165868 0.0577676 -2.6089523
v 1.0165868 0.0577676 -2.6089523
v 0 0.18052375 -2.2813165
v -1.0165868 0.0577676 -2.6089523
v 0 0.18052375 -2.2813165
v -1.2016605 0.0663314 -1.8808726
v 1.0165868 0.0577676 -2.6089523
v 1.2016605 0.0663314 -1.8808726
v 0 0.20728564 -2.2813165
v -1.0165868 0 -2.6089523
v -1.2016605 0 -1.8808726
v 1.0165868 0 -2.6089523
v 1.0165868 0 -2.6089523
v -1.2016605 0 -1.8808726
v 1.2016605 0 -1.8808726
v -1.2016605 0.0663314 -1.8808726
v 1.2016605 0.0663314 -1.8808726
v 0 0.20728564 -1.5532367
v -1.2016605 0.0663314 -1.8808726
v 0 0.20728564 -1.5532367
v -1.3485359 0.07312768 -1.1527929
v 1.2016605 0.0663314 -1.8808726
v 1.3485359 0.07312768 -1.1527929
v 0 0.22852401 -1.5532367
v -1.2016605 0 -1.8808726
v -1.3485359 0 -1.1527929
v 1.2016605 0 -1.8808726
v 1.2016605 0 -1.8808726
v -1.3485359 0 -1.1527929
v 1.3485359 0 -1.1527929
v -1.3485359 0.07312768 -1.1527929
v 1.3485359 0.07312768 -1.1527929
v 0 0.22852401 -0.82515705
v -1.3485359 0.07312768 -1.1527929
v 0 0.22852401 -0.82515705
v -1.4428356 0.077491164 -0.42471313
v 1.3485359 0.07312768 -1.1527929
v 1.4428356 0.077491164 -0.42471313
v 0 0.24215989 -0.82515705
v -1.3485359 0 -1.1527929
v -1.4428356 0 -0.42471313
v 1.3485359 0 -1.1527929
v 1.3485359 0 -1.1527929
v -1.4428356 0 -0.42471313
v 1.4428356 0 -0.42471313
v -1.4428356 0.077491164 -0.42471313
v 1.4428356 0.077491164 -0.42471313
v 0 0.24215989 -0.09707734
v -1.4428356 0.077491164 -0.42471313
v 0 0.24215989 -0.09707734
v -1.4753292 0.078994706 0.30336642
v 1.4428356 0.077491164 -0.42471313
v 1.4753292 0.078994706 0.30336642
v 0 0.24685846 -0.09707734
v -1.4428356 0 -0.42471313
v -1.4753292 0 0.30336642
v 1.4428356 0 -0.42471313
v 1.4428356 0 -0.42471313
v -1.4753292 0 0.30336642
v 1.4753292 0 0.30336642
v -1.4753292 0.078994706 0.30336642
v 1.4753292 0.078994706 0.30336642
v 0 0.24685846 0.6310023
v -1.4753292 0.078994706 0.30336642
v 0 0.24685846 0.6310023
v -1.4428356 0.07749116 1.0314462
v 1.4753292 0.078994706 0.30336642
v 1.4428356 0.07749116 1.0314462
v 0 0.24215987 0.6310023
v -1.4753292 0 0.30336642
v -1.4428356 0 1.0314462
v 1.4753292 0 0.30336642
v 1.4753292 0 0.30336642
v -1.4428356 0 1.0314462
v 1.4428356 0 1.0314462
v -1.4428356 0.07749116 1.0314462
v 1.4428356 0.07749116 1.0314462
v 0 0.24215987 1.3590819
v -1.4428356 0.07749116 1.0314462
v 0 0.24215987 1.3590819
v -1.3485359 0.07312768 1.7595255
v 1.4428356 0.07749116 1.0314462
v 1.3485359 0.07312768 1.7595255
v 0 0.22852401 1.3590819
v -1.4428356 0 1.0314462
v -1.3485359 0 1.7595255
v 1.4428356 0 1.0314462
v 1.4428356 0 1.0314462
v -1.3485359 0 1.7595255
v 1.3485359 0 1.7595255
v -1.3485359 0.07312768 1.7595255
v 1.3485359 0.07312768 1.7595255
v 0 0.22852401 2.0871615
v -1.3485359 0.07312768 1.7595255
v 0 0.22852401 2.0871615
v -1.4699022 0.0663314 2.4876058
v 1.3485359 0.07312768 1.7595255
v 1.4699022 0.0663314 2.4876058
v 0 0.20728563 2.0871615
v -1.3485359 0 1.7595255
v -1.4699022 0 2.4876058
v 1.3485359 0 1.7595255
v 1.3485359 0 1.7595255
v -1.4699022 0 2.4876058
v 1.4699022 0 2.4876058
v -1.4699022 0.0663314 2.4876058
v 1.4699022 0.0663314 2.4876058
v 0 0.20728563 2.8152416
v -1.4699022 0.0663314 2.4876058
v 0 0.20728563 2.8152416
v -1.1507077 0.0577676 3.2156851
v 1.4699022 0.0663314 2.4876058
v 1.1507077 0.0577676 3.2156851
v 0 0.18052375 2.8152416
v -1.4699022 0 2.4876058
v -1.1507077 0 3.2156851
v 1.4699022 0 2.4876058
v 1.4699022 0 2.4876058
v -1.1507077 0 3.2156851
v 1.1507077 0 3.2156851
v -1.1507077 0.0577676 3.2156851
v 1.1507077 0.0577676 3.2156851
v 0 0.18052375 3.5433211
v -1.1507077 0.0577676 3.2156851
v 0 0.18052375 3.5433211
v -0.81143093 0.04827454 3.943765
v 1.1507077 0.0577676 3.2156851
v 0.81143093 0.04827454 3.943765
v 0 0.15085794 3.5433211
v -1.1507077 0 3.2156851
v -0.81143093 0 3.943765
v 1.1507077 0 3.2156851
v 1.1507077 0 3.2156851
v -0.81143093 0 3.943765
v 0.81143093 0 3.943765
v -2.4896178 0.2742872 2.3055856
v 2.4896178 0.2742872 2.3055856
v 0 0.42514515 -1.8201991
v -2.4896178 0.2742872 2.3055856
v 0 0.42514515 -1.8201991
v -2.4896178 0.2742872 -2.3055856
v 2.4896178 0.2742872 2.3055856
v 2.4896178 0.2742872 -2.3055856
v 0 0.42514515 -1.8201991
v -2.4896178 0.25234422 2.3055856
v 2.4896178 0.25234422 2.3055856
v 2.4896178 0.25234422 -2.3055856
v -2.4896178 0.25234422 2.3055856
v 2.4896178 0.25234422 -2.3055856
v -2.4896178 0.25234422 -2.3055856
v -2.4896178 0.25234422 2.3055856
v -2.4896178 0.2742872 2.3055856
v 2.4896178 0.2742872 2.3055856
v -2.4896178 0.25234422 -2.3055856
v 2.4896178 0.2742872 -2.3055856
v -2.4896178 0.2742872 -2.3055856
v 2.4896178 0.25234422 -2.3055856
v 2.4896178 0.2742872 -2.3055856
v 2.4896178 0.2742872 2.3055856
v 2.4896178 0.25234422 2.3055856
v 2.4896178 0.2742872 2.3055856
v 2.4896178 0.2742872 -2.3055856
v -2.3402405 0.2742872 -2.3055856
v -1.842317 0.2742872 -2.3055856
v -2.0912788 0.37028772 -1.6988525
v -2.3402405 0.2742872 -2.3055856
v -2.0912788 0.37028772 -1.6988525
v -2.2904482 0.2742872 -1.6988525
v -1.842317 0.2742872 -2.3055856
v -1.8921094 0.2742872 -1.6988525
v -2.0912788 0.37028772 -1.6988525
v -0.24896179 0.2742872 -2.3055856
v 0.24896179 0.2742872 -2.3055856
v 0 0.37028772 -1.6988525
v -0.24896179 0.2742872 -2.3055856
v 0 0.37028772 -1.6988525
v -0.19916943 0.2742872 -1.6988525
v 0.24896179 0.2742872 -2.3055856
v 0.19916943 0.2742872 -1.6988525
v 0 0.37028772 -1.6988525
v 1.842317 0.2742872 -2.3055856
v 2.3402405 0.2742872 -2.3055856
v 2.0912788 0.37028772 -1.6988525
v 1.842317 0.2742872 -2.3055856
v 2.0912788 0.37028772 -1.6988525
v 1.8921094 0.2742872 -1.6988525
v 2.3402405 0.2742872 -2.3055856
v 2.2904482 0.2742872 -1.6988525
v 2.0912788 0.37028772 -1.6988525
v -2.3402405 0.2742872 1.8201993
v -1.842317 0.2742872 1.8201993
v -2.0912788 0.49371693 2.4269323
v -2.3402405 0.2742872 1.8201993
v -2.0912788 0.49371693 2.4269323
v -2.2904482 0.2742872 2.4269323
v -1.842317 0.2742872 1.8201993
v -1.8921094 0.2742872 2.4269323
v -2.0912788 0.49371693 2.4269323
v -0.24896179 0.2742872 1.8201993
v 0.24896179 0.2742872 1.8201993
v 0 0.49371693 2.4269323
v -0.24896179 0.2742872 1.8201993
v 0 0.49371693 2.4269323
v -0.19916943 0.2742872 2.4269323
v 0.24896179 0.2742872 1.8201993
v 0.19916943 0.2742872 2.4269323
v 0 0.49371693 2.4269323
v 1.842317 0.2742872 1.8201993
v 2.3402405 0.2742872 1.8201993
v 2.0912788 0.49371693 2.4269323
v 1.842317 0.2742872 1.8201993
v 2.0912788 0.49371693 2.4269323
v 1.8921094 0.2742872 2.4269323
v 2.3402405 0.2742872 1.8201993
v 2.2904482 0.2742872 2.4269323
v 2.0912788 0.49371693 2.4269323
v -0.3688323 0.22883388 0.20386231
v 0.3688323 0.22883388 0.20386231
v 0 0.7151059 0.24973133
v -0.3688323 0.22883388 0.20386231
v 0 0.7151059 0.24973133
v -0.34424347 0.2575687 0.30579346
v 0.3688323 0.22883388 0.20386231
v 0.34424347 0.2575687 0.30579346
v 0 0.8049022 0.24973133
v -0.3688323 0 0.20386231
v -0.34424347 0 0.30579346
v 0.3688323 0 0.20386231
v 0.3688323 0 0.20386231
v -0.34424347 0 0.30579346
v 0.34424347 0 0.30579346
v -0.34424347 0.2575687 0.30579346
v 0.34424347 0.2575687 0.30579346
v 0 0.8049022 0.3516625
v -0.34424347 0.2575687 0.30579346
v 0 0.8049022 0.3516625
v -0.31965464 0.28630355 0.40772462
v 0.34424347 0.2575687 0.30579346
v 0.31965464 0.28630355 0.40772462
v 0 0.8946986 0.3516625
v -0.34424347 0 0.30579346
v -0.31965464 0 0.40772462
v 0.34424347 0 0.30579346
v 0.34424347 0 0.30579346
v -0.31965464 0 0.40772462
v 0.31965464 0 0.40772462
v -0.31965464 0.28630355 0.40772462
v 0.31965464 0.28630355 0.40772462
v 0 0.8946986 0.45359364
v -0.31965464 0.28630355 0.40772462
v 0 0.8946986 0.45359364
v -0.29506585 0.31503844 0.5096558
v 0.31965464 0.28630355 0.40772462
v 0.29506585 0.31503844 0.5096558
v 0 0.98449516 0.45359364
v -0.31965464 0 0.40772462
v -0.29506585 0 0.5096558
v 0.31965464 0 0.40772462
v 0.31965464 0 0.40772462
v -0.29506585 0 0.5096558
v 0.29506585 0 0.5096558
v -0.29506585 0.31503844 0.5096558
v 0.29506585 0.31503844 0.5096558
v 0 0.98449516 0.55552477
v -0.29506585 0.31503844 0.5096558
v 0 0.98449516 0.55552477
v -0.27047703 0.34377328 0.6115869
v 0.29506585 0.31503844 0.5096558
v 0.27047703 0.34377328 0.6115869
v 0 1.0742915 0.55552477
v -0.29506585 0 0.5096558
v -0.27047703 0 0.6115869
v 0.29506585 0 0.5096558
v 0.29506585 0 0.5096558
v -0.27047703 0 0.6115869
v 0.27047703 0 0.6115869
v -0.27047703 0.34377328 0.6115869
v 0.27047703 0.34377328 0.6115869
v 0 1.0742915 0.6574559
v -0.27047703 0.34377328 0.6115869
v 0 1.0742915 0.6574559
v -0.24588817 0.3725081 0.7135181
v 0.27047703 0.34377328 0.6115869
v 0.24588817 0.3725081 0.7135181
v 0 1.1640879 0.6574559
v -0.27047703 0 0.6115869
v -0.24588817 0 0.7135181
v 0.27047703 0 0.6115869
v 0.27047703 0 0.6115869
v -0.24588817 0 0.7135181
v 0.24588817 0 0.7135181
v -0.24588817 0.3725081 0.7135181
v 0.24588817 0.3725081 0.7135181
v 0 1.1640879 0.7593871
v -0.24588817 0.3725081 0.7135181
v 0 1.1640879 0.7593871
v -0.22129938 0.40124297 0.81544924
v 0.24588817 0.3725081 0.7135181
v 0.22129938 0.40124297 0.81544924
v 0 1.2538843 0.7593871
v -0.24588817 0 0.7135181
v -0.22129938 0 0.81544924
v 0.24588817 0 0.7135181
v 0.24588817 0 0.7135181
v -0.22129938 0 0.81544924
v 0.22129938 0 0.81544924
v -1.5490955 0.07836776 -4.179717
v -2.102344 0 -5.3968635
v -0.9958471 0 -5.3968635
v -1.5490955 0.32326704 -3.9030929
v -1.8810446 0.07836776 -4.179717
v -1.2171464 0.07836776 -4.179717
v -0.5163652 0.07836776 -4.179717
v -1.0696136 0 -5.3968635
v 0.036883235 0 -5.3968635
v -0.5163652 0.32326704 -3.9030929
v -0.8483142 0.07836776 -4.179717
v -0.18441612 0.07836776 -4.179717
v 0.5163652 0.07836776 -4.179717
v -0.036883235 0 -5.3968635
v 1.0696136 0 -5.3968635
v 0.5163652 0.32326704 -3.9030929
v 0.18441612 0.07836776 -4.179717
v 0.8483142 0.07836776 -4.179717
v 1.5490955 0.07836776 -4.179717
v 0.9958471 0 -5.3968635
v 2.102344 0 -5.3968635
v 1.5490955 0.32326704 -3.9030929
v 1.2171464 0.07836776 -4.179717
v 1.8810446 0.07836776 -4.179717
vn 0 -0.9543163 0.2987981
vn 0 -0.9543163 0.2987981
vn 0 -0.9543163 0.2987981
vn 0.10804179 -0.9931989 0.043393448
vn 0.10804179 -0.9931989 0.043393448
vn 0.10804179 -0.9931989 0.043393448
vn -0.14001583 -0.9887647 0.052345164
vn -0.14001583 -0.9887647 0.052345164
vn -0.14001583 -0.9887647 0.052345164
vn 0 1 -0
vn 0 1 -0
vn 0 1 -0
vn 0 1 -0
vn 0 1 -0
vn 0 1 -0
vn 0 -0.93642986 0.35085464
vn 0 -0.93642986 0.35085464
vn 0 -0.93642986 0.35085464
vn 0.10739799 -0.9934515 0.03898511
vn 0.10739799 -0.9934515 0.03898511
vn 0.10739799 -0.9934515 0.03898511
vn -0.13115846 -0.9903401 0.04498829
vn -0.13115846 -0.9903401 0.04498829
vn -0.13115846 -0.9903401 0.04498829
vn 0 1 -0
vn 0 1 -0
vn 0 1 -0
vn 0 1 -0
vn 0 1 -0
vn 0 1 -0
vn 0 -0.9185971 0.3951953
vn 0 -0.9185971 0.3951953
vn 0 -0.9185971 0.3951953
vn 0.108081765 -0.99365616 0.031078624
vn 0.108081765 -0.99365616 0.031078624
vn 0.108081765 -0.99365616 0.031078624
vn -0.1244736 -0.9916276 0.03436641
vn -0.1244736 -0.9916276 0.03436641
vn -0.1244736 -0.9916276 0.03436641
vn 0 1 -0
vn 0 1 -0
vn 0 1 -0
vn 0 1 -0
vn 0 1 -0
vn 0 1 -0
vn 0 -0.9035239 0.42853767
vn 0 -0.9035239 0.42853767
vn 0 -0.9035239 0.42853767
vn 0.10961898 -0.99376935 0.020153465
vn 0.10961898 -0.99376935 0.020153465
vn 0.10961898 -0.99376935 0.020153465
vn -0.119224995 -0.99263674 0.021390833
vn -0.119224995 -0.99263674 0.021390833
vn -0.119224995 -0.99263674 0.021390833
vn 0 1 -0
vn 0 1 -0
vn 0 1 -0
vn 0 1 -0
vn 0 1 -0
vn 0 1 -0
vn 0 -0.89349717 0.4490689
vn 0 -0.89349717 0.4490689
vn 0 -0.89349717 0.4490689
vn 0.111810945 -0.99370456 0.007042109
vn 0.111810945 -0.99370456 0.007042109
vn 0.111810945 -0.99370456 0.007042109
vn -0.11497257 -0.99334264 0.0071824626
vn -0.11497257 -0.99334264 0.0071824626
vn -0.11497257 -0.99334264 0.0071824626
vn 0 1 -0
vn 0 1 -0
vn 0 1 -0
vn 0 1 -0
vn 0 1 -0
vn 0 1 -0
vn 0 -0.889988 0.455984
vn 0 -0.889988 0.455984
vn 0 -0.889988 0.455984
vn 0.114619315 -0.9933837 -0.00716679
vn 0.114619315 -0.9933837 -0.00716679
vn 0.114619315 -0.9933837 -0.00716679
vn -0.11146432 -0.9937436 -0.007026728
vn -0.11146432 -0.9937436 -0.007026728
vn -0.11146432 -0.9937436 -0.007026728
vn 0 1 0
vn 0 1 0
vn 0 1 0
vn 0 1 0
vn 0 1 0
vn 0 1 0
vn 0 -0.8934971 0.44906896
vn 0 -0.8934971 0.44906896
vn 0 -0.8934971 0.44906896
vn 0.11812882 -0.9927709 -0.021249665
vn 0.11812882 -0.9927709 -0.021249665
vn 0.11812882 -0.9927709 -0.021249665
vn -0.108583905 -0.99388576 -0.020020105
vn -0.108583905 -0.99388576 -0.020020105
vn -0.108583905 -0.99388576 -0.020020105
vn 0 1 0
vn 0 1 0
vn 0 1 0
vn 0 0.99999994 0
vn 0 0.99999994 0
vn 0 0.99999994 0
vn 0 -0.90352404 0.42853755
vn 0 -0.90352404 0.42853755
vn 0 -0.90352404 0.42853755
vn 0.11220953 -0.99363995 0.009429452
vn 0.11220953 -0.99363995 0.009429452
vn 0.11220953 -0.99363995 0.009429452
vn -0.09732493 -0.99522847 0.0069334577
vn -0.09732493 -0.99522847 0.0069334577
vn -0.09732493 -0.99522847 0.0069334577
vn 0 1 -0
vn 0 1 -0
vn 0 1 -0
vn 0 1 -0
vn 0 1 -0
vn 0 1 -0
vn 0 -0.9185971 0.3951954
vn 0 -0.9185971 0.3951954
vn 0 -0.9185971 0.3951954
vn 0.10834955 -0.9923501 -0.059173312
vn 0.10834955 -0.9923501 -0.059173312
vn 0.10834955 -0.9923501 -0.059173312
vn -0.08854274 -0.9947905 -0.050518587
vn -0.08854274 -0.9947905 -0.050518587
vn -0.08854274 -0.9947905 -0.050518587
vn 0 1 0
vn 0 1 0
vn 0 1 0
vn 0 0.99999994 0
vn 0 0.99999994 0
vn 0 0.99999994 0
vn 0 -0.93643004 0.35085446
vn 0 -0.93643004 0.35085446
vn 0 -0.93643004 0.35085446
vn 0.12593588 -0.98945224 -0.071585625
vn 0.12593588 -0.98945224 -0.071585625
vn 0.12593588 -0.98945224 -0.071585625
vn -0.09692904 -0.99359274 -0.05812276
vn -0.09692904 -0.99359274 -0.05812276
vn -0.09692904 -0.99359274 -0.05812276
vn 0 0.99999994 0
vn 0 0.99999994 0
vn 0 0.99999994 0
vn 0 1 0
vn 0 1 0
vn 0 1 0
vn -0 0.9993322 0.036540247
vn -0 0.9993322 0.036540247
vn -0 0.9993322 0.036540247
vn -0.060483888 0.9981692 0
vn -0.060483888 0.9981692 0
vn -0.060483888 0.9981692 0
vn 0.060483888 0.9981692 0
vn 0.060483888 0.9981692 0
vn 0.060483888 0.9981692 0
vn -0 1 0
vn -0 1 0
vn -0 1 0
vn 0 1 0
vn 0 1 0
vn 0 1 0
vn 0 0 -1
vn 0 0 -1
vn 0 0 -1
vn 0 0 1
vn 0 0 1
vn 0 0 1
vn 1 0 0
vn 1 0 0
vn 1 0 0
vn -1 0 0
vn -1 0 0
vn -1 0 0
vn 0 -0.9877126 0.15628113
vn 0 -0.9877126 0.15628113
vn 0 -0.9877126 0.15628113
vn 0.43392256 -0.9002461 -0.03561038
vn 0.43392256 -0.9002461 -0.03561038
vn 0.43392256 -0.9002461 -0.03561038
vn -0.43392256 -0.9002461 -0.035610467
vn -0.43392256 -0.9002461 -0.035610467
vn -0.43392256 -0.9002461 -0.035610467
vn 0 -0.9877126 0.15628113
vn 0 -0.9877126 0.15628113
vn 0 -0.9877126 0.15628113
vn 0.4339225 -0.9002461 -0.035610434
vn 0.4339225 -0.9002461 -0.035610434
vn 0.4339225 -0.9002461 -0.035610434
vn -0.4339225 -0.9002461 -0.035610434
vn -0.4339225 -0.9002461 -0.035610434
vn -0.4339225 -0.9002461 -0.035610434
vn 0 -0.9877126 0.15628113
vn 0 -0.9877126 0.15628113
vn 0 -0.9877126 0.15628113
vn 0.43392256 -0.9002461 -0.035610467
vn 0.43392256 -0.9002461 -0.035610467
vn 0.43392256 -0.9002461 -0.035610467
vn -0.43392256 -0.9002461 -0.03561038
vn -0.43392256 -0.9002461 -0.03561038
vn -0.43392256 -0.9002461 -0.03561038
vn 0 -0.94038963 0.34009922
vn 0 -0.94038963 0.34009922
vn 0 -0.94038963 0.34009922
vn 0.73910075 -0.6708583 -0.060655206
vn 0.73910075 -0.6708583 -0.060655206
vn 0.73910075 -0.6708583 -0.060655206
vn -0.73910075 -0.6708583 -0.06065535
vn -0.73910075 -0.6708583 -0.06065535
vn -0.73910075 -0.6708583 -0.06065535
vn 0 -0.9403896 0.34009922
vn 0 -0.9403896 0.34009922
vn 0 -0.9403896 0.34009922
vn 0.7391007 -0.6708583 -0.060655292
vn 0.7391007 -0.6708583 -0.060655292
vn 0.7391007 -0.6708583 -0.060655292
vn -0.7391007 -0.6708583 -0.060655292
vn -0.7391007 -0.6708583 -0.060655292
vn -0.7391007 -0.6708583 -0.060655292
vn 0 -0.94038963 0.34009922
vn 0 -0.94038963 0.34009922
vn 0 -0.94038963 0.34009922
vn 0.73910075 -0.6708583 -0.06065535
vn 0.73910075 -0.6708583 -0.06065535
vn 0.73910075 -0.6708583 -0.06065535
vn -0.73910075 -0.6708583 -0.060655206
vn -0.73910075 -0.6708583 -0.060655206
vn -0.73910075 -0.6708583 -0.060655206
vn 0 -0.093911044 0.9955806
vn 0 -0.093911044 0.9955806
vn 0 -0.093911044 0.9955806
vn 0.7975594 -0.60282224 -0.02245701
vn 0.7975594 -0.60282224 -0.02245701
vn 0.7975594 -0.60282224 -0.02245701
vn -0.8429054 -0.53550684 -0.05237231
vn -0.8429054 -0.53550684 -0.05237231
vn -0.8429054 -0.53550684 -0.05237231
vn 0 1 0
vn 0 1 0
vn 0 1 0
vn 0 1 0
vn 0 1 0
vn 0 1 0
vn 0 -0.08351178 0.99650687
vn 0 -0.08351178 0.99650687
vn 0 -0.08351178 0.99650687
vn 0.8472786 -0.5282439 -0.05547439
vn 0.8472786 -0.5282439 -0.05547439
vn 0.8472786 -0.5282439 -0.05547439
vn -0.879379 -0.46938565 -0.07981035
vn -0.879379 -0.46938565 -0.07981035
vn -0.879379 -0.46938565 -0.07981035
vn 0 1 0
vn 0 1 0
vn 0 1 0
vn 0 1 0
vn 0 1 0
vn 0 1 0
vn 0 -0.075180106 0.9971699
vn 0 -0.075180106 0.9971699
vn 0 -0.075180106 0.9971699
vn 0.88470733 -0.4584851 -0.08416824
vn 0.88470733 -0.4584851 -0.08416824
vn 0.88470733 -0.4584851 -0.08416824
vn -0.9069004 -0.4083993 -0.10364128
vn -0.9069004 -0.4083993 -0.10364128
vn -0.9069004 -0.4083993 -0.10364128
vn 0 1 0
vn 0 1 0
vn 0 1 0
vn 0 0.99999994 0
vn 0 0.99999994 0
vn 0 0.99999994 0
vn 0 -0.06835648 0.99766093
vn 0 -0.06835648 0.99766093
vn 0 -0.06835648 0.99766093
vn 0.9123559 -0.39466807 -0.10882871
vn 0.9123559 -0.39466807 -0.10882871
vn 0.9123559 -0.39466807 -0.10882871
vn -0.92737806 -0.35289872 -0.12422747
vn -0.92737806 -0.35289872 -0.12422747
vn -0.92737806 -0.35289872 -0.12422747
vn 0 1 0
vn 0 1 0
vn 0 1 0
vn 0 1 0
vn 0 1 0
vn 0 1 0
vn 0 -0.06266625 0.9980346
vn 0 -0.06266625 0.9980346
vn 0 -0.06266625 0.9980346
vn 0.9324657 -0.33709174 -0.12991108
vn 0.9324657 -0.33709174 -0.12991108
vn 0.9324657 -0.33709174 -0.12991108
vn -0.9424196 -0.30279893 -0.14197955
vn -0.9424196 -0.30279893 -0.14197955
vn -0.9424196 -0.30279893 -0.14197955
vn 0 1 0
vn 0 1 0
vn 0 1 0
vn 0 0.99999994 0
vn 0 0.99999994 0
vn 0 0.99999994 0
vn 0 -0.057849105 0.99832535
vn 0 -0.057849105 0.99832535
vn 0 -0.057849105 0.99832535
vn 0.9468782 -0.28555736 -0.14791493
vn 0.9468782 -0.28555736 -0.14791493
vn 0.9468782 -0.28555736 -0.14791493
vn -0.95331544 -0.25777158 -0.15730071
vn -0.95331544 -0.25777158 -0.15730071
vn -0.95331544 -0.25777158 -0.15730071
vn 0 1 0
vn 0 1 0
vn 0 1 0
vn 0 1 0
vn 0 1 0
vn 0 1 0
vn 0 -0.9979336 0.06425343
vn 0 -0.9979336 0.06425343
vn 0 -0.9979336 0.06425343
vn 0 -0.7487369 0.6628673
vn 0 -0.7487369 0.6628673
vn 0 -0.7487369 0.6628673
vn 0 -0.9979336 0.06425343
vn 0 -0.9979336 0.06425343
vn 0 -0.9979336 0.06425343
vn 0 -0.748737 0.6628673
vn 0 -0.748737 0.6628673
vn 0 -0.748737 0.6628673
vn 0 -0.9979336 0.06425343
vn 0 -0.9979336 0.06425343
vn 0 -0.9979336 0.06425343
vn 0 -0.748737 0.6628673
vn 0 -0.748737 0.6628673
vn 0 -0.748737 0.6628673
vn 0 -0.9979336 0.06425343
vn 0 -0.9979336 0.06425343
vn 0 -0.9979336 0.06425343
vn 0 -0.7487369 0.6628673
vn 0 -0.7487369 0.6628673
vn 0 -0.7487369 0.6628673
f 1//1 2//2 3//3
f 4//4 5//5 6//6
f 7//7 8//8 9//9
f 10//10 11//11 12//12
f 13//13 14//14 15//15
f 16//16 17//17 18//18
f 19//19 20//20 21//21
f 22//22 23//23 24//24
f 25//25 26//26 27//27
f 28//28 29//29 30//30
f 31//31 32//32 33//33
f 34//34 35//35 36//36
f 37//37 38//38 39//39
f 40//40 41//41 42//42
f 43//43 44//44 45//45
f 46//46 47//47 48//48
f 49//49 50//50 51//51
f 52//52 53//53 54//54
f 55//55 56//56 57//57
f 58//58 59//59 60//60
f 61//61 62//62 63//63
f 64//64 65//65 66//66
f 67//67 68//68 69//69
f 70//70 71//71 72//72
f 73//73 74//74 75//75
f 76//76 77//77 78//78
f 79//79 80//80 81//81
f 82//82 83//83 84//84
f 85//85 86//86 87//87
f 88//88 89//89 90//90
f 91//91 92//92 93//93
f 94//94 95//95 96//96
f 97//97 98//98 99//99
f 100//100 101//101 102//102
f 103//103 104//104 105//105
f 106//106 107//107 108//108
f 109//109 110//110 111//111
f 112//112 113//113 114//114
f 115//115 116//116 117//117
f 118//118 119//119 120//120
f 121//121 122//122 123//123
f 124//124 125//125 126//126
f 127//127 128//128 129//129
f 130//130 131//131 132//132
f 133//133 134//134 135//135
f 136//136 137//137 138//138
f 139//139 140//140 141//141
f 142//142 143//143 144//144
f 145//145 146//146 147//147
f 148//148 149//149 150//150
f 151//151 152//152 153//153
f 154//154 155//155 156//156
f 157//157 158//158 159//159
f 160//160 161//161 162//162
f 163//163 164//164 165//165
f 166//166 167//167 168//168
f 169//169 170//170 171//171
f 172//172 173//173 174//174
f 175//175 176//176 177//177
f 178//178 179//179 180//180
f 181//181 182//182 183//183
f 184//184 185//185 186//186
f 187//187 188//188 189//189
f 190//190 191//191 192//192
f 193//193 194//194 195//195
f 196//196 197//197 198//198
f 199//199 200//200 201//201
f 202//202 203//203 204//204
f 205//205 206//206 207//207
f 208//208 209//209 210//210
f 211//211 212//212 213//213
f 214//214 215//215 216//216
f 217//217 218//218 219//219
f 220//220 221//221 222//222
f 223//223 224//224 225//225
f 226//226 227//227 228//228
f 229//229 230//230 231//231
f 232//232 233//233 234//234
f 235//235 236//236 237//237
f 238//238 239//239 240//240
f 241//241 242//242 243//243
f 244//244 245//245 246//246
f 247//247 248//248 249//249
f 250//250 251//251 252//252
f 253//253 254//254 255//255
f 256//256 257//257 258//258
f 259//259 260//260 261//261
f 262//262 263//263 264//264
f 265//265 266//266 267//267
f 268//268 269//269 270//270
f 271//271 272//272 273//273
f 274//274 275//275 276//276
f 277//277 278//278 279//279
f 280//280 281//281 282//282
f 283//283 284//284 285//285
f 286//286 287//287 288//288
f 289//289 290//290 291//291
f 292//292 293//293 294//294
f 295//295 296//296 297//297
f 298//298 299//299 300//300
f 301//301 302//302 303//303
f 304//304 305//305 306//306
f 307//307 308//308 309//309
f 310//310 311//311 312//312
f 313//313 314//314 315//315
f 316//316 317//317 318//318
f 319//319 320//320 321//321
f 322//322 323//323 324//324
f 325//325 326//326 327//327
f 328//328 329//329 330//330
f 331//331 332//332 333//333
f 334//334 335//335 336//336
f 337//337 338//338 339//339
f 340//340 341//341 342//342
f 343//343 344//344 345//345
