# Exported from SharpOpenGl procedural mesh
o solari_scout_mk1_00
# vertices 78
v -0.51653844 0.06447603 0.55792505
v 0.51653844 0.06447603 0.55792505
v 0 0.10316165 -0.23911075
v -0.51653844 0.06447603 0.55792505
v 0 0.10316165 -0.23911075
v -0.51653844 0.06447603 -0.55792505
v 0.51653844 0.06447603 0.55792505
v 0.51653844 0.06447603 -0.55792505
v 0 0.10316165 -0.23911075
v -0.51653844 0 0.55792505
v 0.51653844 0 0.55792505
v 0.51653844 0 -0.55792505
v -0.51653844 0 0.55792505
v 0.51653844 0 -0.55792505
v -0.51653844 0 -0.55792505
v -0.3925692 0.06447603 0.6376287
v -0.2686 0.116056845 0.23911075
v -0.4545538 0.06447603 -0.31881434
v 0 0.06447603 0.6376287
v 0.12396922 0.116056845 0.23911075
v -0.06198461 0.06447603 -0.31881434
v 0.3925692 0.06447603 0.6376287
v 0.51653844 0.116056845 0.23911075
v 0.33058462 0.06447603 -0.31881434
v -0.11478633 0.06447603 0.15940717
v 0.11478633 0.06447603 0.15940717
v 0.11478633 0.2717204 0.15940717
v -0.11478633 0.06447603 0.15940717
v 0.11478633 0.2717204 0.15940717
v -0.11478633 0.2717204 0.15940717
v -0.11478633 0.06447603 0.7173322
v 0.11478633 0.2717204 0.7173322
v 0.11478633 0.06447603 0.7173322
v -0.11478633 0.06447603 0.7173322
v -0.11478633 0.2717204 0.7173322
v 0.11478633 0.2717204 0.7173322
v -0.11478633 0.06447603 0.15940717
v -0.11478633 0.06447603 0.7173322
v 0.11478633 0.06447603 0.7173322
v -0.11478633 0.06447603 0.15940717
v 0.11478633 0.06447603 0.7173322
v 0.11478633 0.06447603 0.15940717
v -0.11478633 0.2717204 0.15940717
v 0.11478633 0.2717204 0.7173322
v -0.11478633 0.2717204 0.7173322
v -0.11478633 0.2717204 0.15940717
v 0.11478633 0.2717204 0.15940717
v 0.11478633 0.2717204 0.7173322
v -0.11478633 0.06447603 0.15940717
v -0.11478633 0.2717204 0.15940717
v -0.11478633 0.2717204 0.7173322
v -0.11478633 0.06447603 0.15940717
v -0.11478633 0.2717204 0.7173322
v -0.11478633 0.06447603 0.7173322
v 0.11478633 0.06447603 0.15940717
v 0.11478633 0.06447603 0.7173322
v 0.11478633 0.2717204 0.7173322
v 0.11478633 0.06447603 0.15940717
v 0.11478633 0.2717204 0.7173322
v 0.11478633 0.2717204 0.15940717
v -0.26783475 0.01842172 -1.0981383
v -0.33211508 0 -1.2395551
v -0.20355442 0 -1.2395551
v -0.26783475 0.075989604 -1.0659982
v -0.30640295 0.01842172 -1.0981383
v -0.22926655 0.01842172 -1.0981383
v 0 0.01842172 -1.0981383
v -0.06428034 0 -1.2395551
v 0.06428034 0 -1.2395551
v 0 0.075989604 -1.0659982
v -0.038568206 0.01842172 -1.0981383
v 0.038568206 0.01842172 -1.0981383
v 0.26783475 0.01842172 -1.0981383
v 0.20355442 0 -1.2395551
v 0.33211508 0 -1.2395551
v 0.26783475 0.075989604 -1.0659982
v 0.22926655 0.01842172 -1.0981383
v 0.30640295 0.01842172 -1.0981383
vn -0 0.9988242 0.048479795
vn -0 0.9988242 0.048479795
vn -0 0.9988242 0.048479795
vn -0.07468481 0.9972072 0
vn -0.07468481 0.9972072 0
vn -0.07468481 0.9972072 0
vn 0.07468481 0.9972072 0
vn 0.07468481 0.9972072 0
vn 0.07468481 0.9972072 0
vn -0 1 0
vn -0 1 0
vn -0 1 0
vn 0 1 0
vn 0 1 0
vn 0 1 0
vn -0.32550624 0.9453045 0.021095218
vn -0.32550624 0.9453045 0.021095218
vn -0.32550624 0.9453045 0.021095218
vn -0.32550624 0.9453045 0.021095222
vn -0.32550624 0.9453045 0.021095222
vn -0.32550624 0.9453045 0.021095222
vn -0.32550624 0.9453045 0.021095218
vn -0.32550624 0.9453045 0.021095218
vn -0.32550624 0.9453045 0.021095218
vn 0 0 1
vn 0 0 1
vn 0 0 1
vn 0 0 1
vn 0 0 1
vn 0 0 1
vn 0 0 -1
vn 0 0 -1
vn 0 0 -1
vn 0 0 -1
vn 0 0 -1
vn 0 0 -1
vn 0 1 0
vn 0 1 0
vn 0 1 0
vn 0 1 0
vn 0 1 0
vn 0 1 0
vn 0 -1 0
vn 0 -1 0
vn 0 -1 0
vn 0 -1 0
vn 0 -1 0
vn 0 -1 0
vn 1 0 0
vn 1 0 0
vn 1 0 0
vn 1 0 0
vn 1 0 0
vn 1 0 0
vn -1 0 0
vn -1 0 0
vn -1 0 0
vn -1 0 0
vn -1 0 0
vn -1 0 0
vn 0 -0.991622 0.12917407
vn 0 -0.991622 0.12917407
vn 0 -0.991622 0.12917407
vn 0 -0.4874728 0.8731381
vn 0 -0.4874728 0.8731381
vn 0 -0.4874728 0.8731381
vn 0 -0.991622 0.12917407
vn 0 -0.991622 0.12917407
vn 0 -0.991622 0.12917407
vn 0 -0.48747286 0.8731382
vn 0 -0.48747286 0.8731382
vn 0 -0.48747286 0.8731382
vn 0 -0.991622 0.12917407
vn 0 -0.991622 0.12917407
vn 0 -0.991622 0.12917407
vn 0 -0.4874728 0.8731381
vn 0 -0.4874728 0.8731381
vn 0 -0.4874728 0.8731381
f 1//1 2//2 3//3
f 4//4 5//5 6//6
f 7//7 8//8 9//9
f 10//10 11//11 12//12
f 13//13 14//14 15//15
f 16//16 17//17 18//18
f 19//19 20//20 21//21
f 22//22 23//23 24//24
f 25//25 26//26 27//27
f 28//28 29//29 30//30
f 31//31 32//32 33//33
f 34//34 35//35 36//36
f 37//37 38//38 39//39
f 40//40 41//41 42//42
f 43//43 44//44 45//45
f 46//46 47//47 48//48
f 49//49 50//50 51//51
f 52//52 53//53 54//54
f 55//55 56//56 57//57
f 58//58 59//59 60//60
f 61//61 62//62 63//63
f 64//64 65//65 66//66
f 67//67 68//68 69//69
f 70//70 71//71 72//72
f 73//73 74//74 75//75
f 76//76 77//77 78//78
