# Exported from SharpOpenGl procedural mesh
o solari_gunship_mk3_40
# vertices 78
v -3.5153449 0.3496372 1.4578068
v 3.5153449 0.3496372 1.4578068
v 0 0.5594196 -0.6247744
v -3.5153449 0.3496372 1.4578068
v 0 0.5594196 -0.6247744
v -3.5153449 0.3496372 -1.4578068
v 3.5153449 0.3496372 1.4578068
v 3.5153449 0.3496372 -1.4578068
v 0 0.5594196 -0.6247744
v -3.5153449 0 1.4578068
v 3.5153449 0 1.4578068
v 3.5153449 0 -1.4578068
v -3.5153449 0 1.4578068
v 3.5153449 0 -1.4578068
v -3.5153449 0 -1.4578068
v -2.671662 0.3496372 1.6660651
v -1.8279793 0.62934697 0.6247744
v -3.0935035 0.3496372 -0.83303255
v 0 0.3496372 1.6660651
v 0.84368277 0.62934697 0.6247744
v -0.42184138 0.3496372 -0.83303255
v 2.671662 0.3496372 1.6660651
v 3.5153449 0.62934697 0.6247744
v 2.2498207 0.3496372 -0.83303255
v -0.7811878 0.3496372 0.41651627
v 0.7811878 0.3496372 0.41651627
v 0.7811878 1.4734712 0.41651627
v -0.7811878 0.3496372 0.41651627
v 0.7811878 1.4734712 0.41651627
v -0.7811878 1.4734712 0.41651627
v -0.7811878 0.3496372 1.8743231
v 0.7811878 1.4734712 1.8743231
v 0.7811878 0.3496372 1.8743231
v -0.7811878 0.3496372 1.8743231
v -0.7811878 1.4734712 1.8743231
v 0.7811878 1.4734712 1.8743231
v -0.7811878 0.3496372 0.41651627
v -0.7811878 0.3496372 1.8743231
v 0.7811878 0.3496372 1.8743231
v -0.7811878 0.3496372 0.41651627
v 0.7811878 0.3496372 1.8743231
v 0.7811878 0.3496372 0.41651627
v -0.7811878 1.4734712 0.41651627
v 0.7811878 1.4734712 1.8743231
v -0.7811878 1.4734712 1.8743231
v -0.7811878 1.4734712 0.41651627
v 0.7811878 1.4734712 0.41651627
v 0.7811878 1.4734712 1.8743231
v -0.7811878 0.3496372 0.41651627
v -0.7811878 1.4734712 0.41651627
v -0.7811878 1.4734712 1.8743231
v -0.7811878 0.3496372 0.41651627
v -0.7811878 1.4734712 1.8743231
v -0.7811878 0.3496372 1.8743231
v 0.7811878 0.3496372 0.41651627
v 0.7811878 0.3496372 1.8743231
v 0.7811878 1.4734712 1.8743231
v 0.7811878 0.3496372 0.41651627
v 0.7811878 1.4734712 1.8743231
v 0.7811878 1.4734712 0.41651627
v -1.8227713 0.09989634 -2.8693345
v -2.5414639 0 -4.4504585
v -1.1040787 0 -4.4504585
v -1.8227713 0.41207242 -2.509988
v -2.2539868 0.09989634 -2.8693345
v -1.3915557 0.09989634 -2.8693345
v 0 0.09989634 -2.8693345
v -0.71869266 0 -4.4504585
v 0.71869266 0 -4.4504585
v 0 0.41207242 -2.509988
v -0.4312156 0.09989634 -2.8693345
v 0.4312156 0.09989634 -2.8693345
v 1.8227713 0.09989634 -2.8693345
v 1.1040787 0 -4.4504585
v 2.5414639 0 -4.4504585
v 1.8227713 0.41207242 -2.509988
v 1.3915557 0.09989634 -2.8693345
v 2.2539868 0.09989634 -2.8693345
vn -0 0.9949649 0.100224696
vn -0 0.9949649 0.100224696
vn -0 0.9949649 0.100224696
vn -0.059570204 0.9982241 0
vn -0.059570204 0.9982241 0
vn -0.059570204 0.9982241 0
vn 0.059570204 0.9982241 0
vn 0.059570204 0.9982241 0
vn 0.059570204 0.9982241 0
vn -0 1 0
vn -0 1 0
vn -0 1 0
vn 0 1 0
vn 0 1 0
vn 0 1 0
vn -0.26433098 0.9633994 0.0446184
vn -0.26433098 0.9633994 0.0446184
vn -0.26433098 0.9633994 0.0446184
vn -0.26433098 0.9633994 0.0446184
vn -0.26433098 0.9633994 0.0446184
vn -0.26433098 0.9633994 0.0446184
vn -0.26433098 0.9633994 0.0446184
vn -0.26433098 0.9633994 0.0446184
vn -0.26433098 0.9633994 0.0446184
vn 0 0 0.99999994
vn 0 0 0.99999994
vn 0 0 0.99999994
vn 0 0 0.99999994
vn 0 0 0.99999994
vn 0 0 0.99999994
vn 0 0 -0.99999994
vn 0 0 -0.99999994
vn 0 0 -0.99999994
vn 0 0 -0.99999994
vn 0 0 -0.99999994
vn 0 0 -0.99999994
vn 0 1 0
vn 0 1 0
vn 0 1 0
vn 0 1 0
vn 0 1 0
vn 0 1 0
vn 0 -1 0
vn 0 -1 0
vn 0 -1 0
vn 0 -1 0
vn 0 -1 0
vn 0 -1 0
vn 0.99999994 0 0
vn 0.99999994 0 0
vn 0.99999994 0 0
vn 0.99999994 0 0
vn 0.99999994 0 0
vn 0.99999994 0 0
vn -0.99999994 0 0
vn -0.99999994 0 0
vn -0.99999994 0 0
vn -0.99999994 0 0
vn -0.99999994 0 0
vn -0.99999994 0 0
vn 0 -0.9980101 0.06305487
vn 0 -0.9980101 0.06305487
vn 0 -0.9980101 0.06305487
vn 0 -0.75491655 0.65582085
vn 0 -0.75491655 0.65582085
vn 0 -0.75491655 0.65582085
vn 0 -0.99801004 0.06305486
vn 0 -0.99801004 0.06305486
vn 0 -0.99801004 0.06305486
vn 0 -0.75491655 0.65582097
vn 0 -0.75491655 0.65582097
vn 0 -0.75491655 0.65582097
vn 0 -0.9980101 0.06305487
vn 0 -0.9980101 0.06305487
vn 0 -0.9980101 0.06305487
vn 0 -0.75491655 0.65582085
vn 0 -0.75491655 0.65582085
vn 0 -0.75491655 0.65582085
f 1//1 2//2 3//3
f 4//4 5//5 6//6
f 7//7 8//8 9//9
f 10//10 11//11 12//12
f 13//13 14//14 15//15
f 16//16 17//17 18//18
f 19//19 20//20 21//21
f 22//22 23//23 24//24
f 25//25 26//26 27//27
f 28//28 29//29 30//30
f 31//31 32//32 33//33
f 34//34 35//35 36//36
f 37//37 38//38 39//39
f 40//40 41//41 42//42
f 43//43 44//44 45//45
f 46//46 47//47 48//48
f 49//49 50//50 51//51
f 52//52 53//53 54//54
f 55//55 56//56 57//57
f 58//58 59//59 60//60
f 61//61 62//62 63//63
f 64//64 65//65 66//66
f 67//67 68//68 69//69
f 70//70 71//71 72//72
f 73//73 74//74 75//75
f 76//76 77//77 78//78
