# Exported from SharpOpenGl procedural mesh
o solari_support_mk3_49
# vertices 78
v -2.8177023 0.36816508 1.3424624
v 2.8177023 0.36816508 1.3424624
v 0 0.5890641 -0.57534105
v -2.8177023 0.36816508 1.3424624
v 0 0.5890641 -0.57534105
v -2.8177023 0.36816508 -1.3424624
v 2.8177023 0.36816508 1.3424624
v 2.8177023 0.36816508 -1.3424624
v 0 0.5890641 -0.57534105
v -2.8177023 0 1.3424624
v 2.8177023 0 1.3424624
v 2.8177023 0 -1.3424624
v -2.8177023 0 1.3424624
v 2.8177023 0 -1.3424624
v -2.8177023 0 -1.3424624
v -2.1414537 0.36816508 1.5342427
v -1.4652052 0.66269714 0.57534105
v -2.479578 0.36816508 -0.7671214
v 0 0.36816508 1.5342427
v 0.67624855 0.66269714 0.57534105
v -0.33812428 0.36816508 -0.7671214
v 2.1414537 0.36816508 1.5342427
v 2.8177023 0.66269714 0.57534105
v 1.8033295 0.36816508 -0.7671214
v -0.6261561 0.36816508 0.3835607
v 0.6261561 0.36816508 0.3835607
v 0.6261561 1.5515528 0.3835607
v -0.6261561 0.36816508 0.3835607
v 0.6261561 1.5515528 0.3835607
v -0.6261561 1.5515528 0.3835607
v -0.6261561 0.36816508 1.7260231
v 0.6261561 1.5515528 1.7260231
v 0.6261561 0.36816508 1.7260231
v -0.6261561 0.36816508 1.7260231
v -0.6261561 1.5515528 1.7260231
v 0.6261561 1.5515528 1.7260231
v -0.6261561 0.36816508 0.3835607
v -0.6261561 0.36816508 1.7260231
v 0.6261561 0.36816508 1.7260231
v -0.6261561 0.36816508 0.3835607
v 0.6261561 0.36816508 1.7260231
v 0.6261561 0.36816508 0.3835607
v -0.6261561 1.5515528 0.3835607
v 0.6261561 1.5515528 1.7260231
v -0.6261561 1.5515528 1.7260231
v -0.6261561 1.5515528 0.3835607
v 0.6261561 1.5515528 0.3835607
v 0.6261561 1.5515528 1.7260231
v -0.6261561 0.36816508 0.3835607
v -0.6261561 1.5515528 0.3835607
v -0.6261561 1.5515528 1.7260231
v -0.6261561 0.36816508 0.3835607
v -0.6261561 1.5515528 1.7260231
v -0.6261561 0.36816508 1.7260231
v 0.6261561 0.36816508 0.3835607
v 0.6261561 0.36816508 1.7260231
v 0.6261561 1.5515528 1.7260231
v 0.6261561 0.36816508 0.3835607
v 0.6261561 1.5515528 1.7260231
v 0.6261561 1.5515528 0.3835607
v -1.4610307 0.10519002 -2.642307
v -1.9619555 0 -3.7443419
v -0.9601059 0 -3.7443419
v -1.4610307 0.43390882 -2.3918447
v -1.7615856 0.10519002 -2.642307
v -1.1604759 0.10519002 -2.642307
v 0 0.10519002 -2.642307
v -0.5009248 0 -3.7443419
v 0.5009248 0 -3.7443419
v 0 0.43390882 -2.3918447
v -0.3005549 0.10519002 -2.642307
v 0.3005549 0.10519002 -2.642307
v 1.4610307 0.10519002 -2.642307
v 0.9601059 0 -3.7443419
v 1.9619555 0 -3.7443419
v 1.4610307 0.43390882 -2.3918447
v 1.1604759 0.10519002 -2.642307
v 1.7615856 0.10519002 -2.642307
vn -0 0.99343175 0.1144268
vn -0 0.99343175 0.1144268
vn -0 0.99343175 0.1144268
vn -0.07815706 0.99694103 0
vn -0.07815706 0.99694103 0
vn -0.07815706 0.99694103 0
vn 0.07815706 0.99694103 0
vn 0.07815706 0.99694103 0
vn 0.07815706 0.99694103 0
vn -0 1 0
vn -0 1 0
vn -0 1 0
vn 0 1 0
vn 0 1 0
vn 0 1 0
vn -0.3386703 0.9395885 0.049758602
vn -0.3386703 0.9395885 0.049758602
vn -0.3386703 0.9395885 0.049758602
vn -0.3386703 0.9395885 0.049758602
vn -0.3386703 0.9395885 0.049758602
vn -0.3386703 0.9395885 0.049758602
vn -0.3386703 0.9395885 0.049758602
vn -0.3386703 0.9395885 0.049758602
vn -0.3386703 0.9395885 0.049758602
vn 0 0 1
vn 0 0 1
vn 0 0 1
vn 0 0 1
vn 0 0 1
vn 0 0 1
vn 0 0 -1
vn 0 0 -1
vn 0 0 -1
vn 0 0 -1
vn 0 0 -1
vn 0 0 -1
vn 0 1 0
vn 0 1 0
vn 0 1 0
vn 0 1 0
vn 0 1 0
vn 0 1 0
vn 0 -1 0
vn 0 -1 0
vn 0 -1 0
vn 0 -1 0
vn 0 -1 0
vn 0 -1 0
vn 1 0 0
vn 1 0 0
vn 1 0 0
vn 1 0 0
vn 1 0 0
vn 1 0 0
vn -1 0 0
vn -1 0 0
vn -1 0 0
vn -1 0 0
vn -1 0 0
vn -1 0 0
vn 0 -0.9954755 0.095018856
vn 0 -0.9954755 0.095018856
vn 0 -0.9954755 0.095018856
vn 0 -0.6060583 0.7954201
vn 0 -0.6060583 0.7954201
vn 0 -0.6060583 0.7954201
vn 0 -0.9954755 0.095018856
vn 0 -0.9954755 0.095018856
vn 0 -0.9954755 0.095018856
vn 0 -0.6060583 0.79542017
vn 0 -0.6060583 0.79542017
vn 0 -0.6060583 0.79542017
vn 0 -0.9954755 0.095018856
vn 0 -0.9954755 0.095018856
vn 0 -0.9954755 0.095018856
vn 0 -0.6060583 0.7954201
vn 0 -0.6060583 0.7954201
vn 0 -0.6060583 0.7954201
f 1//1 2//2 3//3
f 4//4 5//5 6//6
f 7//7 8//8 9//9
f 10//10 11//11 12//12
f 13//13 14//14 15//15
f 16//16 17//17 18//18
f 19//19 20//20 21//21
f 22//22 23//23 24//24
f 25//25 26//26 27//27
f 28//28 29//29 30//30
f 31//31 32//32 33//33
f 34//34 35//35 36//36
f 37//37 38//38 39//39
f 40//40 41//41 42//42
f 43//43 44//44 45//45
f 46//46 47//47 48//48
f 49//49 50//50 51//51
f 52//52 53//53 54//54
f 55//55 56//56 57//57
f 58//58 59//59 60//60
f 61//61 62//62 63//63
f 64//64 65//65 66//66
f 67//67 68//68 69//69
f 70//70 71//71 72//72
f 73//73 74//74 75//75
f 76//76 77//77 78//78
