# Exported from SharpOpenGl procedural mesh
o solari_transport_mk3_47
# vertices 348
v -1.2572885 0.06172616 -2.8921018
v 1.2572885 0.06172616 -2.8921018
v 0 0.19289425 -2.60815
v -1.2572885 0.06172616 -2.8921018
v 0 0.19289425 -2.60815
v -1.5751714 0.07386444 -2.2610977
v 1.2572885 0.06172616 -2.8921018
v 1.5751714 0.07386444 -2.2610977
v 0 0.23082636 -2.60815
v -1.2572885 0 -2.8921018
v -1.5751714 0 -2.2610977
v 1.2572885 0 -2.8921018
v 1.2572885 0 -2.8921018
v -1.5751714 0 -2.2610977
v 1.5751714 0 -2.2610977
v -1.5751714 0.07386444 -2.2610977
v 1.5751714 0.07386444 -2.2610977
v 0 0.23082636 -1.9771459
v -1.5751714 0.07386444 -2.2610977
v 0 0.23082636 -1.9771459
v -1.8619376 0.084814526 -1.6300937
v 1.5751714 0.07386444 -2.2610977
v 1.8619376 0.084814526 -1.6300937
v 0 0.2650454 -1.9771459
v -1.5751714 0 -2.2610977
v -1.8619376 0 -1.6300937
v 1.5751714 0 -2.2610977
v 1.5751714 0 -2.2610977
v -1.8619376 0 -1.6300937
v 1.8619376 0 -1.6300937
v -1.8619376 0.084814526 -1.6300937
v 1.8619376 0.084814526 -1.6300937
v 0 0.2650454 -1.3461419
v -1.8619376 0.084814526 -1.6300937
v 0 0.2650454 -1.3461419
v -2.0895166 0.09350458 -0.9990897
v 1.8619376 0.084814526 -1.6300937
v 2.0895166 0.09350458 -0.9990897
v 0 0.29220182 -1.3461419
v -1.8619376 0 -1.6300937
v -2.0895166 0 -0.9990897
v 1.8619376 0 -1.6300937
v 1.8619376 0 -1.6300937
v -2.0895166 0 -0.9990897
v 2.0895166 0 -0.9990897
v -2.0895166 0.09350458 -0.9990897
v 2.0895166 0.09350458 -0.9990897
v 0 0.29220182 -0.71513784
v -2.0895166 0.09350458 -0.9990897
v 0 0.29220182 -0.71513784
v -2.2356315 0.09908393 -0.36808562
v 2.0895166 0.09350458 -0.9990897
v 2.2356315 0.09908393 -0.36808562
v 0 0.30963728 -0.71513784
v -2.0895166 0 -0.9990897
v -2.2356315 0 -0.36808562
v 2.0895166 0 -0.9990897
v 2.0895166 0 -0.9990897
v -2.2356315 0 -0.36808562
v 2.2356315 0 -0.36808562
v -2.2356315 0.09908393 -0.36808562
v 2.2356315 0.09908393 -0.36808562
v 0 0.30963728 -0.08413389
v -2.2356315 0.09908393 -0.36808562
v 0 0.30963728 -0.08413389
v -2.285979 0.101006426 0.26291823
v 2.2356315 0.09908393 -0.36808562
v 2.285979 0.101006426 0.26291823
v 0 0.3156451 -0.08413389
v -2.2356315 0 -0.36808562
v -2.285979 0 0.26291823
v 2.2356315 0 -0.36808562
v 2.2356315 0 -0.36808562
v -2.285979 0 0.26291823
v 2.285979 0 0.26291823
v -2.285979 0.101006426 0.26291823
v 2.285979 0.101006426 0.26291823
v 0 0.3156451 0.5468701
v -2.285979 0.101006426 0.26291823
v 0 0.3156451 0.5468701
v -2.2356315 0.09908393 0.8939223
v 2.285979 0.101006426 0.26291823
v 2.2356315 0.09908393 0.8939223
v 0 0.30963728 0.5468701
v -2.285979 0 0.26291823
v -2.2356315 0 0.8939223
v 2.285979 0 0.26291823
v 2.285979 0 0.26291823
v -2.2356315 0 0.8939223
v 2.2356315 0 0.8939223
v -2.2356315 0.09908393 0.8939223
v 2.2356315 0.09908393 0.8939223
v 0 0.30963728 1.1778741
v -2.2356315 0.09908393 0.8939223
v 0 0.30963728 1.1778741
v -2.0895166 0.09350458 1.5249262
v 2.2356315 0.09908393 0.8939223
v 2.0895166 0.09350458 1.5249262
v 0 0.29220182 1.1778741
v -2.2356315 0 0.8939223
v -2.0895166 0 1.5249262
v 2.2356315 0 0.8939223
v 2.2356315 0 0.8939223
v -2.0895166 0 1.5249262
v 2.0895166 0 1.5249262
v -2.0895166 0.09350458 1.5249262
v 2.0895166 0.09350458 1.5249262
v 0 0.29220182 1.8088782
v -2.0895166 0.09350458 1.5249262
v 0 0.29220182 1.8088782
v -2.2775702 0.08481452 2.1559305
v 2.0895166 0.09350458 1.5249262
v 2.2775702 0.08481452 2.1559305
v 0 0.26504537 1.8088782
v -2.0895166 0 1.5249262
v -2.2775702 0 2.1559305
v 2.0895166 0 1.5249262
v 2.0895166 0 1.5249262
v -2.2775702 0 2.1559305
v 2.2775702 0 2.1559305
v -2.2775702 0.08481452 2.1559305
v 2.2775702 0.08481452 2.1559305
v 0 0.26504537 2.439882
v -2.2775702 0.08481452 2.1559305
v 0 0.26504537 2.439882
v -1.7829877 0.07386444 2.786934
v 2.2775702 0.08481452 2.1559305
v 1.7829877 0.07386444 2.786934
v 0 0.23082636 2.439882
v -2.2775702 0 2.1559305
v -1.7829877 0 2.786934
v 2.2775702 0 2.1559305
v 2.2775702 0 2.1559305
v -1.7829877 0 2.786934
v 1.7829877 0 2.786934
v -1.7829877 0.07386444 2.786934
v 1.7829877 0.07386444 2.786934
v 0 0.23082636 3.070886
v -1.7829877 0.07386444 2.786934
v 0 0.23082636 3.070886
v -1.2572885 0.06172615 3.4179382
v 1.7829877 0.07386444 2.786934
v 1.2572885 0.06172615 3.4179382
v 0 0.19289422 3.070886
v -1.7829877 0 2.786934
v -1.2572885 0 3.4179382
v 1.7829877 0 2.786934
v 1.7829877 0 2.786934
v -1.2572885 0 3.4179382
v 1.2572885 0 3.4179382
v -3.8575897 0.3507168 1.9981793
v 3.8575897 0.3507168 1.9981793
v 0 0.54361105 -1.57751
v -3.8575897 0.3507168 1.9981793
v 0 0.54361105 -1.57751
v -3.8575897 0.3507168 -1.9981793
v 3.8575897 0.3507168 1.9981793
v 3.8575897 0.3507168 -1.9981793
v 0 0.54361105 -1.57751
v -3.8575897 0.32265946 1.9981793
v 3.8575897 0.32265946 1.9981793
v 3.8575897 0.32265946 -1.9981793
v -3.8575897 0.32265946 1.9981793
v 3.8575897 0.32265946 -1.9981793
v -3.8575897 0.32265946 -1.9981793
v -3.8575897 0.32265946 1.9981793
v -3.8575897 0.3507168 1.9981793
v 3.8575897 0.3507168 1.9981793
v -3.8575897 0.32265946 -1.9981793
v 3.8575897 0.3507168 -1.9981793
v -3.8575897 0.3507168 -1.9981793
v 3.8575897 0.32265946 -1.9981793
v 3.8575897 0.3507168 -1.9981793
v 3.8575897 0.3507168 1.9981793
v 3.8575897 0.32265946 1.9981793
v 3.8575897 0.3507168 1.9981793
v 3.8575897 0.3507168 -1.9981793
v -3.6261342 0.3507168 -1.9981793
v -2.8546164 0.3507168 -1.9981793
v -3.2403753 0.47346768 -1.4723427
v -3.6261342 0.3507168 -1.9981793
v -3.2403753 0.47346768 -1.4723427
v -3.5489824 0.3507168 -1.4723427
v -2.8546164 0.3507168 -1.9981793
v -2.9317682 0.3507168 -1.4723427
v -3.2403753 0.47346768 -1.4723427
v -0.38575897 0.3507168 -1.9981793
v 0.38575897 0.3507168 -1.9981793
v 0 0.47346768 -1.4723427
v -0.38575897 0.3507168 -1.9981793
v 0 0.47346768 -1.4723427
v -0.30860716 0.3507168 -1.4723427
v 0.38575897 0.3507168 -1.9981793
v 0.30860716 0.3507168 -1.4723427
v 0 0.47346768 -1.4723427
v 2.8546164 0.3507168 -1.9981793
v 3.6261342 0.3507168 -1.9981793
v 3.2403753 0.47346768 -1.4723427
v 2.8546164 0.3507168 -1.9981793
v 3.2403753 0.47346768 -1.4723427
v 2.9317682 0.3507168 -1.4723427
v 3.6261342 0.3507168 -1.9981793
v 3.5489824 0.3507168 -1.4723427
v 3.2403753 0.47346768 -1.4723427
v -3.6261342 0.3507168 1.57751
v -2.8546164 0.3507168 1.57751
v -3.2403753 0.6312902 2.1033466
v -3.6261342 0.3507168 1.57751
v -3.2403753 0.6312902 2.1033466
v -3.5489824 0.3507168 2.1033466
v -2.8546164 0.3507168 1.57751
v -2.9317682 0.3507168 2.1033466
v -3.2403753 0.6312902 2.1033466
v -0.38575897 0.3507168 1.57751
v 0.38575897 0.3507168 1.57751
v 0 0.6312902 2.1033466
v -0.38575897 0.3507168 1.57751
v 0 0.6312902 2.1033466
v -0.30860716 0.3507168 2.1033466
v 0.38575897 0.3507168 1.57751
v 0.30860716 0.3507168 2.1033466
v 0 0.6312902 2.1033466
v 2.8546164 0.3507168 1.57751
v 3.6261342 0.3507168 1.57751
v 3.2403753 0.6312902 2.1033466
v 2.8546164 0.3507168 1.57751
v 3.2403753 0.6312902 2.1033466
v 2.9317682 0.3507168 2.1033466
v 3.6261342 0.3507168 1.57751
v 3.5489824 0.3507168 2.1033466
v 3.2403753 0.6312902 2.1033466
v -0.57149476 0.29259798 0.17668112
v 0.57149476 0.29259798 0.17668112
v 0 0.91436875 0.21643437
v -0.57149476 0.29259798 0.17668112
v 0 0.91436875 0.21643437
v -0.5333951 0.32933974 0.26502168
v 0.57149476 0.29259798 0.17668112
v 0.5333951 0.32933974 0.26502168
v 0 1.0291867 0.21643437
v -0.57149476 0 0.17668112
v -0.5333951 0 0.26502168
v 0.57149476 0 0.17668112
v 0.57149476 0 0.17668112
v -0.5333951 0 0.26502168
v 0.5333951 0 0.26502168
v -0.5333951 0.32933974 0.26502168
v 0.5333951 0.32933974 0.26502168
v 0 1.0291867 0.30477494
v -0.5333951 0.32933974 0.26502168
v 0 1.0291867 0.30477494
v -0.49529546 0.36608154 0.35336226
v 0.5333951 0.32933974 0.26502168
v 0.49529546 0.36608154 0.35336226
v 0 1.1440048 0.30477494
v -0.5333951 0 0.26502168
v -0.49529546 0 0.35336226
v 0.5333951 0 0.26502168
v 0.5333951 0 0.26502168
v -0.49529546 0 0.35336226
v 0.49529546 0 0.35336226
v -0.49529546 0.36608154 0.35336226
v 0.49529546 0.36608154 0.35336226
v 0 1.1440048 0.3931155
v -0.49529546 0.36608154 0.35336226
v 0 1.1440048 0.3931155
v -0.45719582 0.4028233 0.44170278
v 0.49529546 0.36608154 0.35336226
v 0.45719582 0.4028233 0.44170278
v 0 1.2588228 0.3931155
v -0.49529546 0 0.35336226
v -0.45719582 0 0.44170278
v 0.49529546 0 0.35336226
v 0.49529546 0 0.35336226
v -0.45719582 0 0.44170278
v 0.45719582 0 0.44170278
v -0.45719582 0.4028233 0.44170278
v 0.45719582 0.4028233 0.44170278
v 0 1.2588228 0.48145604
v -0.45719582 0.4028233 0.44170278
v 0 1.2588228 0.48145604
v -0.41909617 0.43956506 0.53004336
v 0.45719582 0.4028233 0.44170278
v 0.41909617 0.43956506 0.53004336
v 0 1.3736409 0.48145604
v -0.45719582 0 0.44170278
v -0.41909617 0 0.53004336
v 0.45719582 0 0.44170278
v 0.45719582 0 0.44170278
v -0.41909617 0 0.53004336
v 0.41909617 0 0.53004336
v -0.41909617 0.43956506 0.53004336
v 0.41909617 0.43956506 0.53004336
v 0 1.3736409 0.5697966
v -0.41909617 0.43956506 0.53004336
v 0 1.3736409 0.5697966
v -0.3809965 0.4763068 0.6183839
v 0.41909617 0.43956506 0.53004336
v 0.3809965 0.4763068 0.6183839
v 0 1.4884588 0.5697966
v -0.41909617 0 0.53004336
v -0.3809965 0 0.6183839
v 0.41909617 0 0.53004336
v 0.41909617 0 0.53004336
v -0.3809965 0 0.6183839
v 0.3809965 0 0.6183839
v -0.3809965 0.4763068 0.6183839
v 0.3809965 0.4763068 0.6183839
v 0 1.4884588 0.65813714
v -0.3809965 0.4763068 0.6183839
v 0 1.4884588 0.65813714
v -0.34289688 0.5130486 0.70672446
v 0.3809965 0.4763068 0.6183839
v 0.34289688 0.5130486 0.70672446
v 0 1.6032768 0.65813714
v -0.3809965 0 0.6183839
v -0.34289688 0 0.70672446
v 0.3809965 0 0.6183839
v 0.3809965 0 0.6183839
v -0.34289688 0 0.70672446
v 0.34289688 0 0.70672446
v -2.0002317 0.100204796 -3.6224303
v -2.7546048 0 -5.282051
v -1.2458587 0 -5.282051
v -2.0002317 0.4133448 -3.2452438
v -2.4528556 0.100204796 -3.6224303
v -1.5476079 0.100204796 -3.6224303
v 0 0.100204796 -3.6224303
v -0.7543731 0 -5.282051
v 0.7543731 0 -5.282051
v 0 0.4133448 -3.2452438
v -0.45262387 0.100204796 -3.6224303
v 0.45262387 0.100204796 -3.6224303
v 2.0002317 0.100204796 -3.6224303
v 1.2458587 0 -5.282051
v 2.7546048 0 -5.282051
v 2.0002317 0.4133448 -3.2452438
v 1.5476079 0.100204796 -3.6224303
v 2.4528556 0.100204796 -3.6224303
v -1.2572885 0.4759728 -0.29213148
v -1.6573348 0.1753584 -0.63502836
v -0.8572421 0.1753584 -0.63502836
v 0 0.4759728 -0.69217783
v -0.40004635 0.1753584 -1.0350747
v 0.40004635 0.1753584 -1.0350747
v 1.2572885 0.4759728 -1.0922241
v 0.8572421 0.1753584 -1.4351209
v 1.6573348 0.1753584 -1.4351209
vn 0 -0.90782136 0.41935715
vn 0 -0.90782136 0.41935715
vn 0 -0.90782136 0.41935715
vn 0.089225166 -0.99394864 0.06406928
vn 0.089225166 -0.99394864 0.06406928
vn 0.089225166 -0.99394864 0.06406928
vn -0.11571878 -0.99026614 0.077345215
vn -0.11571878 -0.99026614 0.077345215
vn -0.11571878 -0.99026614 0.077345215
vn 0 1 -0
vn 0 1 -0
vn 0 1 -0
vn 0 0.99999994 -0
vn 0 0.99999994 -0
vn 0 0.99999994 -0
vn 0 -0.8751878 0.4837834
vn 0 -0.8751878 0.4837834
vn 0 -0.8751878 0.4837834
vn 0.08871046 -0.9943922 0.057571508
vn 0.08871046 -0.9943922 0.057571508
vn 0.08871046 -0.9943922 0.057571508
vn -0.10840256 -0.99188185 0.066477224
vn -0.10840256 -0.99188185 0.066477224
vn -0.10840256 -0.99188185 0.066477224
vn 0 1 -0
vn 0 1 -0
vn 0 1 -0
vn 0 1 -0
vn 0 1 -0
vn 0 1 -0
vn 0 -0.84428805 0.53588957
vn 0 -0.84428805 0.53588957
vn 0 -0.84428805 0.53588957
vn 0.08930654 -0.9949454 0.045911632
vn 0.08930654 -0.9949454 0.045911632
vn 0.08930654 -0.9949454 0.045911632
vn -0.102900594 -0.99339396 0.05079312
vn -0.102900594 -0.99339396 0.05079312
vn -0.102900594 -0.99339396 0.05079312
vn 0 1 -0
vn 0 1 -0
vn 0 1 -0
vn 0 1 -0
vn 0 1 -0
vn 0 1 -0
vn 0 -0.8193255 0.57332855
vn 0 -0.8193255 0.57332855
vn 0 -0.8193255 0.57332855
vn 0.090611495 -0.9954409 0.029783638
vn 0.090611495 -0.9954409 0.029783638
vn 0.090611495 -0.9954409 0.029783638
vn -0.098583564 -0.9946262 0.03162244
vn -0.098583564 -0.9946262 0.03162244
vn -0.098583564 -0.9946262 0.03162244
vn 0 0.99999994 -0
vn 0 0.99999994 -0
vn 0 0.99999994 -0
vn 0 1 -0
vn 0 1 -0
vn 0 1 -0
vn 0 -0.80326116 0.59562707
vn 0 -0.80326116 0.59562707
vn 0 -0.80326116 0.59562707
vn 0.09245004 -0.9956629 0.010410066
vn 0.09245004 -0.9956629 0.010410066
vn 0.09245004 -0.9956629 0.010410066
vn -0.09507501 -0.99541336 0.010618751
vn -0.09507501 -0.99541336 0.010618751
vn -0.09507501 -0.99541336 0.010618751
vn 0 1 -0
vn 0 1 -0
vn 0 1 -0
vn 0 1 -0
vn 0 1 -0
vn 0 1 -0
vn 0 -0.7977359 0.603007
vn 0 -0.7977359 0.603007
vn 0 -0.7977359 0.603007
vn 0.09478166 -0.99544173 -0.010595428
vn 0.09478166 -0.99544173 -0.010595428
vn 0.09478166 -0.99544173 -0.010595428
vn -0.092162296 -0.9956898 -0.010387186
vn -0.092162296 -0.9956898 -0.010387186
vn -0.092162296 -0.9956898 -0.010387186
vn 0 1 0
vn 0 1 0
vn 0 1 0
vn 0 1 0
vn 0 1 0
vn 0 1 0
vn 0 -0.80326116 0.595627
vn 0 -0.80326116 0.595627
vn 0 -0.80326116 0.595627
vn 0.097673446 -0.99472266 -0.03141256
vn 0.097673446 -0.99472266 -0.03141256
vn 0.097673446 -0.99472266 -0.03141256
vn -0.089752935 -0.9955245 -0.029585581
vn -0.089752935 -0.9955245 -0.029585581
vn -0.089752935 -0.9955245 -0.029585581
vn 0 1 0
vn 0 1 0
vn 0 1 0
vn 0 1 0
vn 0 1 0
vn 0 1 0
vn 0 -0.81932557 0.5733284
vn 0 -0.81932557 0.5733284
vn 0 -0.81932557 0.5733284
vn 0.09277876 -0.99558914 0.013939129
vn 0.09277876 -0.99558914 0.013939129
vn 0.09277876 -0.99558914 0.013939129
vn -0.080433436 -0.9967073 0.010244544
vn -0.080433436 -0.9967073 0.010244544
vn -0.080433436 -0.9967073 0.010244544
vn 0 1 -0
vn 0 1 -0
vn 0 1 -0
vn 0 1 -0
vn 0 1 -0
vn 0 1 -0
vn 0 -0.84428793 0.53588986
vn 0 -0.84428793 0.53588986
vn 0 -0.84428793 0.53588986
vn 0.08939504 -0.9921642 -0.08728559
vn 0.08939504 -0.9921642 -0.08728559
vn 0.08939504 -0.9921642 -0.08728559
vn -0.07304856 -0.99454087 -0.07451441
vn -0.07304856 -0.99454087 -0.07451441
vn -0.07304856 -0.99454087 -0.07451441
vn 0 1 0
vn 0 1 0
vn 0 1 0
vn 0 1 0
vn 0 1 0
vn 0 1 0
vn 0 -0.8751879 0.4837831
vn 0 -0.8751879 0.4837831
vn 0 -0.8751879 0.4837831
vn 0.10387392 -0.98897254 -0.10556326
vn 0.10387392 -0.98897254 -0.10556326
vn 0.10387392 -0.98897254 -0.10556326
vn -0.07994833 -0.9931073 -0.08571002
vn -0.07994833 -0.9931073 -0.08571002
vn -0.07994833 -0.9931073 -0.08571002
vn 0 1 0
vn 0 1 0
vn 0 1 0
vn 0 1 0
vn 0 1 0
vn 0 1 0
vn -0 0.9985481 0.05386771
vn -0 0.9985481 0.05386771
vn -0 0.9985481 0.05386771
vn -0.04994143 0.9987522 0
vn -0.04994143 0.9987522 0
vn -0.04994143 0.9987522 0
vn 0.04994143 0.9987522 0
vn 0.04994143 0.9987522 0
vn 0.04994143 0.9987522 0
vn -0 1 0
vn -0 1 0
vn -0 1 0
vn 0 1 0
vn 0 1 0
vn 0 1 0
vn 0 0 -0.99999994
vn 0 0 -0.99999994
vn 0 0 -0.99999994
vn 0 0 0.99999994
vn 0 0 0.99999994
vn 0 0 0.99999994
vn 1 0 0
vn 1 0 0
vn 1 0 0
vn -1 0 0
vn -1 0 0
vn -1 0 0
vn 0 -0.9738184 0.2273274
vn 0 -0.9738184 0.2273274
vn 0 -0.9738184 0.2273274
vn 0.36905172 -0.92783016 -0.05414799
vn 0.36905172 -0.92783016 -0.05414799
vn 0.36905172 -0.92783016 -0.05414799
vn -0.36905172 -0.92783016 -0.05414799
vn -0.36905172 -0.92783016 -0.05414799
vn -0.36905172 -0.92783016 -0.05414799
vn 0 -0.9738184 0.22732739
vn 0 -0.9738184 0.22732739
vn 0 -0.9738184 0.22732739
vn 0.36905164 -0.9278302 -0.054147996
vn 0.36905164 -0.9278302 -0.054147996
vn 0.36905164 -0.9278302 -0.054147996
vn -0.36905164 -0.9278302 -0.054147996
vn -0.36905164 -0.9278302 -0.054147996
vn -0.36905164 -0.9278302 -0.054147996
vn 0 -0.9738184 0.2273274
vn 0 -0.9738184 0.2273274
vn 0 -0.9738184 0.2273274
vn 0.36905172 -0.92783016 -0.05414799
vn 0.36905172 -0.92783016 -0.05414799
vn 0.36905172 -0.92783016 -0.05414799
vn -0.36905172 -0.92783016 -0.05414799
vn -0.36905172 -0.92783016 -0.05414799
vn -0.36905172 -0.92783016 -0.05414799
vn 0 -0.88226426 0.47075438
vn 0 -0.88226426 0.47075438
vn 0 -0.88226426 0.47075438
vn 0.66944814 -0.73633647 -0.09822275
vn 0.66944814 -0.73633647 -0.09822275
vn 0.66944814 -0.73633647 -0.09822275
vn -0.66944814 -0.73633647 -0.09822275
vn -0.66944814 -0.73633647 -0.09822275
vn -0.66944814 -0.73633647 -0.09822275
vn 0 -0.8822643 0.4707544
vn 0 -0.8822643 0.4707544
vn 0 -0.8822643 0.4707544
vn 0.6694481 -0.73633665 -0.09822277
vn 0.6694481 -0.73633665 -0.09822277
vn 0.6694481 -0.73633665 -0.09822277
vn -0.6694481 -0.73633665 -0.09822277
vn -0.6694481 -0.73633665 -0.09822277
vn -0.6694481 -0.73633665 -0.09822277
vn 0 -0.88226426 0.47075438
vn 0 -0.88226426 0.47075438
vn 0 -0.88226426 0.47075438
vn 0.66944814 -0.73633647 -0.09822275
vn 0.66944814 -0.73633647 -0.09822275
vn 0.66944814 -0.73633647 -0.09822275
vn -0.66944814 -0.73633647 -0.09822275
vn -0.66944814 -0.73633647 -0.09822275
vn -0.66944814 -0.73633647 -0.09822275
vn 0 -0.063805275 0.99796236
vn 0 -0.063805275 0.99796236
vn 0 -0.063805275 0.99796236
vn 0.73692 -0.6749613 -0.037096452
vn 0.73692 -0.6749613 -0.037096452
vn 0.73692 -0.6749613 -0.037096452
vn -0.7893267 -0.6076803 -0.08768138
vn -0.7893267 -0.6076803 -0.08768138
vn -0.7893267 -0.6076803 -0.08768138
vn 0 1 0
vn 0 1 0
vn 0 1 0
vn 0 1 0
vn 0 1 0
vn 0 1 0
vn 0 -0.05671137 0.9983906
vn 0 -0.05671137 0.9983906
vn 0 -0.05671137 0.9983906
vn 0.79442716 -0.6001981 -0.09299282
vn 0.79442716 -0.6001981 -0.09299282
vn 0.79442716 -0.6001981 -0.09299282
vn -0.831974 -0.53814054 -0.13499646
vn -0.831974 -0.53814054 -0.13499646
vn -0.831974 -0.53814054 -0.13499646
vn 0 1 0
vn 0 1 0
vn 0 1 0
vn 0 0.99999994 0
vn 0 0.99999994 0
vn 0 0.99999994 0
vn 0 -0.051035136 0.9986968
vn 0 -0.051035136 0.9986968
vn 0 -0.051035136 0.9986968
vn 0.83820456 -0.52639025 -0.14257091
vn 0.83820456 -0.52639025 -0.14257091
vn 0.83820456 -0.52639025 -0.14257091
vn -0.864017 -0.47149822 -0.17653355
vn -0.864017 -0.47149822 -0.17653355
vn -0.864017 -0.47149822 -0.17653355
vn 0 1 0
vn 0 1 0
vn 0 1 0
vn 0 1 0
vn 0 1 0
vn 0 1 0
vn 0 -0.04639075 0.99892336
vn 0 -0.04639075 0.99892336
vn 0 -0.04639075 0.99892336
vn 0.8702995 -0.45621425 -0.18559976
vn 0.8702995 -0.45621425 -0.18559976
vn 0.8702995 -0.45621425 -0.18559976
vn -0.88735676 -0.40918878 -0.21251458
vn -0.88735676 -0.40918878 -0.21251458
vn -0.88735676 -0.40918878 -0.21251458
vn 0 1 0
vn 0 1 0
vn 0 1 0
vn 0 1 0
vn 0 1 0
vn 0 1 0
vn 0 -0.04252043 0.9990956
vn 0 -0.04252043 0.9990956
vn 0 -0.04252043 0.9990956
vn 0.893017 -0.39120755 -0.2224349
vn 0.893017 -0.39120755 -0.2224349
vn 0.893017 -0.39120755 -0.2224349
vn -0.90382427 -0.3519057 -0.24344194
vn -0.90382427 -0.3519057 -0.24344194
vn -0.90382427 -0.3519057 -0.24344194
vn 0 1 0
vn 0 1 0
vn 0 1 0
vn 0 1 0
vn 0 1 0
vn 0 1 0
vn 0 -0.03924572 0.9992296
vn 0 -0.03924572 0.9992296
vn 0 -0.03924572 0.9992296
vn 0.90850693 -0.3320166 -0.25373256
vn 0.90850693 -0.3320166 -0.25373256
vn 0.90850693 -0.3320166 -0.25373256
vn -0.91501206 -0.29981786 -0.26992986
vn -0.91501206 -0.29981786 -0.26992986
vn -0.91501206 -0.29981786 -0.26992986
vn 0 1 0
vn 0 1 0
vn 0 1 0
vn 0 0.99999994 0
vn 0 0.99999994 0
vn 0 0.99999994 0
vn 0 -0.99818224 0.060268372
vn 0 -0.99818224 0.060268372
vn 0 -0.99818224 0.060268372
vn 0 -0.76940584 0.6387602
vn 0 -0.76940584 0.6387602
vn 0 -0.76940584 0.6387602
vn 0 -0.99818224 0.060268372
vn 0 -0.99818224 0.060268372
vn 0 -0.99818224 0.060268372
vn 0 -0.76940584 0.6387602
vn 0 -0.76940584 0.6387602
vn 0 -0.76940584 0.6387602
vn 0 -0.99818224 0.060268372
vn 0 -0.99818224 0.060268372
vn 0 -0.99818224 0.060268372
vn 0 -0.76940584 0.6387602
vn 0 -0.76940584 0.6387602
vn 0 -0.76940584 0.6387602
vn 0 -0.7519464 0.6592242
vn 0 -0.7519464 0.6592242
vn 0 -0.7519464 0.6592242
vn 0 -0.7519464 0.6592242
vn 0 -0.7519464 0.6592242
vn 0 -0.7519464 0.6592242
vn 0 -0.75194633 0.6592243
vn 0 -0.75194633 0.6592243
vn 0 -0.75194633 0.6592243
f 1//1 2//2 3//3
f 4//4 5//5 6//6
f 7//7 8//8 9//9
f 10//10 11//11 12//12
f 13//13 14//14 15//15
f 16//16 17//17 18//18
f 19//19 20//20 21//21
f 22//22 23//23 24//24
f 25//25 26//26 27//27
f 28//28 29//29 30//30
f 31//31 32//32 33//33
f 34//34 35//35 36//36
f 37//37 38//38 39//39
f 40//40 41//41 42//42
f 43//43 44//44 45//45
f 46//46 47//47 48//48
f 49//49 50//50 51//51
f 52//52 53//53 54//54
f 55//55 56//56 57//57
f 58//58 59//59 60//60
f 61//61 62//62 63//63
f 64//64 65//65 66//66
f 67//67 68//68 69//69
f 70//70 71//71 72//72
f 73//73 74//74 75//75
f 76//76 77//77 78//78
f 79//79 80//80 81//81
f 82//82 83//83 84//84
f 85//85 86//86 87//87
f 88//88 89//89 90//90
f 91//91 92//92 93//93
f 94//94 95//95 96//96
f 97//97 98//98 99//99
f 100//100 101//101 102//102
f 103//103 104//104 105//105
f 106//106 107//107 108//108
f 109//109 110//110 111//111
f 112//112 113//113 114//114
f 115//115 116//116 117//117
f 118//118 119//119 120//120
f 121//121 122//122 123//123
f 124//124 125//125 126//126
f 127//127 128//128 129//129
f 130//130 131//131 132//132
f 133//133 134//134 135//135
f 136//136 137//137 138//138
f 139//139 140//140 141//141
f 142//142 143//143 144//144
f 145//145 146//146 147//147
f 148//148 149//149 150//150
f 151//151 152//152 153//153
f 154//154 155//155 156//156
f 157//157 158//158 159//159
f 160//160 161//161 162//162
f 163//163 164//164 165//165
f 166//166 167//167 168//168
f 169//169 170//170 171//171
f 172//172 173//173 174//174
f 175//175 176//176 177//177
f 178//178 179//179 180//180
f 181//181 182//182 183//183
f 184//184 185//185 186//186
f 187//187 188//188 189//189
f 190//190 191//191 192//192
f 193//193 194//194 195//195
f 196//196 197//197 198//198
f 199//199 200//200 201//201
f 202//202 203//203 204//204
f 205//205 206//206 207//207
f 208//208 209//209 210//210
f 211//211 212//212 213//213
f 214//214 215//215 216//216
f 217//217 218//218 219//219
f 220//220 221//221 222//222
f 223//223 224//224 225//225
f 226//226 227//227 228//228
f 229//229 230//230 231//231
f 232//232 233//233 234//234
f 235//235 236//236 237//237
f 238//238 239//239 240//240
f 241//241 242//242 243//243
f 244//244 245//245 246//246
f 247//247 248//248 249//249
f 250//250 251//251 252//252
f 253//253 254//254 255//255
f 256//256 257//257 258//258
f 259//259 260//260 261//261
f 262//262 263//263 264//264
f 265//265 266//266 267//267
f 268//268 269//269 270//270
f 271//271 272//272 273//273
f 274//274 275//275 276//276
f 277//277 278//278 279//279
f 280//280 281//281 282//282
f 283//283 284//284 285//285
f 286//286 287//287 288//288
f 289//289 290//290 291//291
f 292//292 293//293 294//294
f 295//295 296//296 297//297
f 298//298 299//299 300//300
f 301//301 302//302 303//303
f 304//304 305//305 306//306
f 307//307 308//308 309//309
f 310//310 311//311 312//312
f 313//313 314//314 315//315
f 316//316 317//317 318//318
f 319//319 320//320 321//321
f 322//322 323//323 324//324
f 325//325 326//326 327//327
f 328//328 329//329 330//330
f 331//331 332//332 333//333
f 334//334 335//335 336//336
f 337//337 338//338 339//339
f 340//340 341//341 342//342
f 343//343 344//344 345//345
f 346//346 347//347 348//348
