# Exported from SharpOpenGl procedural mesh
o solari_frigate_mk1_05
# vertices 345
v -0.5634224 0.043671362 -2.139774
v 0.5634224 0.043671362 -2.139774
v 0 0.13647301 -1.9296871
v -0.5634224 0.043671362 -2.139774
v 0 0.13647301 -1.9296871
v -0.7058736 0.052259214 -1.6729143
v 0.5634224 0.043671362 -2.139774
v 0.7058736 0.052259214 -1.6729143
v 0 0.16331005 -1.9296871
v -0.5634224 0 -2.139774
v -0.7058736 0 -1.6729143
v 0.5634224 0 -2.139774
v 0.5634224 0 -2.139774
v -0.7058736 0 -1.6729143
v 0.7058736 0 -1.6729143
v -0.7058736 0.052259214 -1.6729143
v 0.7058736 0.052259214 -1.6729143
v 0 0.16331005 -1.4628273
v -0.7058736 0.052259214 -1.6729143
v 0 0.16331005 -1.4628273
v -0.83438075 0.060006425 -1.2060544
v 0.7058736 0.052259214 -1.6729143
v 0.83438075 0.060006425 -1.2060544
v 0 0.18752009 -1.4628273
v -0.7058736 0 -1.6729143
v -0.83438075 0 -1.2060544
v 0.7058736 0 -1.6729143
v 0.7058736 0 -1.6729143
v -0.83438075 0 -1.2060544
v 0.83438075 0 -1.2060544
v -0.83438075 0.060006425 -1.2060544
v 0.83438075 0.060006425 -1.2060544
v 0 0.18752009 -0.9959676
v -0.83438075 0.060006425 -1.2060544
v 0 0.18752009 -0.9959676
v -0.9363646 0.06615465 -0.73919475
v 0.83438075 0.060006425 -1.2060544
v 0.9363646 0.06615465 -0.73919475
v 0 0.20673329 -0.9959676
v -0.83438075 0 -1.2060544
v -0.9363646 0 -0.73919475
v 0.83438075 0 -1.2060544
v 0.83438075 0 -1.2060544
v -0.9363646 0 -0.73919475
v 0.9363646 0 -0.73919475
v -0.9363646 0.06615465 -0.73919475
v 0.9363646 0.06615465 -0.73919475
v 0 0.20673329 -0.5291078
v -0.9363646 0.06615465 -0.73919475
v 0 0.20673329 -0.5291078
v -1.0018423 0.07010205 -0.27233493
v 0.9363646 0.06615465 -0.73919475
v 1.0018423 0.07010205 -0.27233493
v 0 0.21906891 -0.5291078
v -0.9363646 0 -0.73919475
v -1.0018423 0 -0.27233493
v 0.9363646 0 -0.73919475
v 0.9363646 0 -0.73919475
v -1.0018423 0 -0.27233493
v 1.0018423 0 -0.27233493
v -1.0018423 0.07010205 -0.27233493
v 1.0018423 0.07010205 -0.27233493
v 0 0.21906891 -0.06224808
v -1.0018423 0.07010205 -0.27233493
v 0 0.21906891 -0.06224808
v -1.0244044 0.07146223 0.19452477
v 1.0018423 0.07010205 -0.27233493
v 1.0244044 0.07146223 0.19452477
v 0 0.22331947 -0.06224808
v -1.0018423 0 -0.27233493
v -1.0244044 0 0.19452477
v 1.0018423 0 -0.27233493
v 1.0018423 0 -0.27233493
v -1.0244044 0 0.19452477
v 1.0244044 0 0.19452477
v -1.0244044 0.07146223 0.19452477
v 1.0244044 0.07146223 0.19452477
v 0 0.22331947 0.40461168
v -1.0244044 0.07146223 0.19452477
v 0 0.22331947 0.40461168
v -1.0018423 0.07010204 0.6613846
v 1.0244044 0.07146223 0.19452477
v 1.0018423 0.07010204 0.6613846
v 0 0.2190689 0.40461168
v -1.0244044 0 0.19452477
v -1.0018423 0 0.6613846
v 1.0244044 0 0.19452477
v 1.0244044 0 0.19452477
v -1.0018423 0 0.6613846
v 1.0018423 0 0.6613846
v -1.0018423 0.07010204 0.6613846
v 1.0018423 0.07010204 0.6613846
v 0 0.2190689 0.8714714
v -1.0018423 0.07010204 0.6613846
v 0 0.2190689 0.8714714
v -0.9363646 0.06615465 1.1282442
v 1.0018423 0.07010204 0.6613846
v 0.9363646 0.06615465 1.1282442
v 0 0.20673329 0.8714714
v -1.0018423 0 0.6613846
v -0.9363646 0 1.1282442
v 1.0018423 0 0.6613846
v 1.0018423 0 0.6613846
v -0.9363646 0 1.1282442
v 0.9363646 0 1.1282442
v -0.9363646 0.06615465 1.1282442
v 0.9363646 0.06615465 1.1282442
v 0 0.20673329 1.3383312
v -0.9363646 0.06615465 1.1282442
v 0 0.20673329 1.3383312
v -1.0206361 0.06000642 1.5951042
v 0.9363646 0.06615465 1.1282442
v 1.0206361 0.06000642 1.5951042
v 0 0.18752007 1.3383312
v -0.9363646 0 1.1282442
v -1.0206361 0 1.5951042
v 0.9363646 0 1.1282442
v 0.9363646 0 1.1282442
v -1.0206361 0 1.5951042
v 1.0206361 0 1.5951042
v -1.0206361 0.06000642 1.5951042
v 1.0206361 0.06000642 1.5951042
v 0 0.18752007 1.805191
v -1.0206361 0.06000642 1.5951042
v 0 0.18752007 1.805191
v -0.79900134 0.052259214 2.0619638
v 1.0206361 0.06000642 1.5951042
v 0.79900134 0.052259214 2.0619638
v 0 0.16331005 1.805191
v -1.0206361 0 1.5951042
v -0.79900134 0 2.0619638
v 1.0206361 0 1.5951042
v 1.0206361 0 1.5951042
v -0.79900134 0 2.0619638
v 0.79900134 0 2.0619638
v -0.79900134 0.052259214 2.0619638
v 0.79900134 0.052259214 2.0619638
v 0 0.16331005 2.2720506
v -0.79900134 0.052259214 2.0619638
v 0 0.16331005 2.2720506
v -0.5634223 0.04367136 2.5288236
v 0.79900134 0.052259214 2.0619638
v 0.5634223 0.04367136 2.5288236
v 0 0.136473 2.2720506
v -0.79900134 0 2.0619638
v -0.5634223 0 2.5288236
v 0.79900134 0 2.0619638
v 0.79900134 0 2.0619638
v -0.5634223 0 2.5288236
v 0.5634223 0 2.5288236
v -1.7286824 0.24813275 1.4783893
v 1.7286824 0.24813275 1.4783893
v 0 0.38460577 -1.1671494
v -1.7286824 0.24813275 1.4783893
v 0 0.38460577 -1.1671494
v -1.7286824 0.24813275 -1.4783893
v 1.7286824 0.24813275 1.4783893
v 1.7286824 0.24813275 -1.4783893
v 0 0.38460577 -1.1671494
v -1.7286824 0.22828214 1.4783893
v 1.7286824 0.22828214 1.4783893
v 1.7286824 0.22828214 -1.4783893
v -1.7286824 0.22828214 1.4783893
v 1.7286824 0.22828214 -1.4783893
v -1.7286824 0.22828214 -1.4783893
v -1.7286824 0.22828214 1.4783893
v -1.7286824 0.24813275 1.4783893
v 1.7286824 0.24813275 1.4783893
v -1.7286824 0.22828214 -1.4783893
v 1.7286824 0.24813275 -1.4783893
v -1.7286824 0.24813275 -1.4783893
v 1.7286824 0.22828214 -1.4783893
v 1.7286824 0.24813275 -1.4783893
v 1.7286824 0.24813275 1.4783893
v 1.7286824 0.22828214 1.4783893
v 1.7286824 0.24813275 1.4783893
v 1.7286824 0.24813275 -1.4783893
v -1.6249614 0.24813275 -1.4783893
v -1.2792249 0.24813275 -1.4783893
v -1.4520931 0.3349792 -1.0893395
v -1.6249614 0.24813275 -1.4783893
v -1.4520931 0.3349792 -1.0893395
v -1.5903877 0.24813275 -1.0893395
v -1.2792249 0.24813275 -1.4783893
v -1.3137985 0.24813275 -1.0893395
v -1.4520931 0.3349792 -1.0893395
v -0.17286824 0.24813275 -1.4783893
v 0.17286824 0.24813275 -1.4783893
v 0 0.3349792 -1.0893395
v -0.17286824 0.24813275 -1.4783893
v 0 0.3349792 -1.0893395
v -0.13829459 0.24813275 -1.0893395
v 0.17286824 0.24813275 -1.4783893
v 0.13829459 0.24813275 -1.0893395
v 0 0.3349792 -1.0893395
v 1.2792249 0.24813275 -1.4783893
v 1.6249614 0.24813275 -1.4783893
v 1.4520931 0.3349792 -1.0893395
v 1.2792249 0.24813275 -1.4783893
v 1.4520931 0.3349792 -1.0893395
v 1.3137985 0.24813275 -1.0893395
v 1.6249614 0.24813275 -1.4783893
v 1.5903877 0.24813275 -1.0893395
v 1.4520931 0.3349792 -1.0893395
v -1.6249614 0.24813275 1.1671495
v -1.2792249 0.24813275 1.1671495
v -1.4520931 0.44663894 1.5561993
v -1.6249614 0.24813275 1.1671495
v -1.4520931 0.44663894 1.5561993
v -1.5903877 0.24813275 1.5561993
v -1.2792249 0.24813275 1.1671495
v -1.3137985 0.24813275 1.5561993
v -1.4520931 0.44663894 1.5561993
v -0.17286824 0.24813275 1.1671495
v 0.17286824 0.24813275 1.1671495
v 0 0.44663894 1.5561993
v -0.17286824 0.24813275 1.1671495
v 0 0.44663894 1.5561993
v -0.13829459 0.24813275 1.5561993
v 0.17286824 0.24813275 1.1671495
v 0.13829459 0.24813275 1.5561993
v 0 0.44663894 1.5561993
v 1.2792249 0.24813275 1.1671495
v 1.6249614 0.24813275 1.1671495
v 1.4520931 0.44663894 1.5561993
v 1.2792249 0.24813275 1.1671495
v 1.4520931 0.44663894 1.5561993
v 1.3137985 0.24813275 1.5561993
v 1.6249614 0.24813275 1.1671495
v 1.5903877 0.24813275 1.5561993
v 1.4520931 0.44663894 1.5561993
v -0.2561011 0.2070136 0.13072073
v 0.2561011 0.2070136 0.13072073
v 0 0.6469175 0.1601329
v -0.2561011 0.2070136 0.13072073
v 0 0.6469175 0.1601329
v -0.2390277 0.23300846 0.1960811
v 0.2561011 0.2070136 0.13072073
v 0.2390277 0.23300846 0.1960811
v 0 0.72815144 0.1601329
v -0.2561011 0 0.13072073
v -0.2390277 0 0.1960811
v 0.2561011 0 0.13072073
v 0.2561011 0 0.13072073
v -0.2390277 0 0.1960811
v 0.2390277 0 0.1960811
v -0.2390277 0.23300846 0.1960811
v 0.2390277 0.23300846 0.1960811
v 0 0.72815144 0.22549327
v -0.2390277 0.23300846 0.1960811
v 0 0.72815144 0.22549327
v -0.22195429 0.25900334 0.26144147
v 0.2390277 0.23300846 0.1960811
v 0.22195429 0.25900334 0.26144147
v 0 0.8093854 0.22549327
v -0.2390277 0 0.1960811
v -0.22195429 0 0.26144147
v 0.2390277 0 0.1960811
v 0.2390277 0 0.1960811
v -0.22195429 0 0.26144147
v 0.22195429 0 0.26144147
v -0.22195429 0.25900334 0.26144147
v 0.22195429 0.25900334 0.26144147
v 0 0.8093854 0.29085362
v -0.22195429 0.25900334 0.26144147
v 0 0.8093854 0.29085362
v -0.20488088 0.2849982 0.32680184
v 0.22195429 0.25900334 0.26144147
v 0.20488088 0.2849982 0.32680184
v 0 0.8906194 0.29085362
v -0.22195429 0 0.26144147
v -0.20488088 0 0.32680184
v 0.22195429 0 0.26144147
v 0.22195429 0 0.26144147
v -0.20488088 0 0.32680184
v 0.20488088 0 0.32680184
v -0.20488088 0.2849982 0.32680184
v 0.20488088 0.2849982 0.32680184
v 0 0.8906194 0.356214
v -0.20488088 0.2849982 0.32680184
v 0 0.8906194 0.356214
v -0.18780749 0.31099305 0.3921622
v 0.20488088 0.2849982 0.32680184
v 0.18780749 0.31099305 0.3921622
v 0 0.97185326 0.356214
v -0.20488088 0 0.32680184
v -0.18780749 0 0.3921622
v 0.20488088 0 0.32680184
v 0.20488088 0 0.32680184
v -0.18780749 0 0.3921622
v 0.18780749 0 0.3921622
v -0.18780749 0.31099305 0.3921622
v 0.18780749 0.31099305 0.3921622
v 0 0.97185326 0.42157435
v -0.18780749 0.31099305 0.3921622
v 0 0.97185326 0.42157435
v -0.17073406 0.33698788 0.45752257
v 0.18780749 0.31099305 0.3921622
v 0.17073406 0.33698788 0.45752257
v 0 1.0530871 0.42157435
v -0.18780749 0 0.3921622
v -0.17073406 0 0.45752257
v 0.18780749 0 0.3921622
v 0.18780749 0 0.3921622
v -0.17073406 0 0.45752257
v 0.17073406 0 0.45752257
v -0.17073406 0.33698788 0.45752257
v 0.17073406 0.33698788 0.45752257
v 0 1.0530871 0.48693472
v -0.17073406 0.33698788 0.45752257
v 0 1.0530871 0.48693472
v -0.15366067 0.36298275 0.52288294
v 0.17073406 0.33698788 0.45752257
v 0.15366067 0.36298275 0.52288294
v 0 1.1343211 0.48693472
v -0.17073406 0 0.45752257
v -0.15366067 0 0.52288294
v 0.17073406 0 0.45752257
v 0.17073406 0 0.45752257
v -0.15366067 0 0.52288294
v 0.15366067 0 0.52288294
v -1.0756245 0.07089507 -2.680121
v -1.4136779 0 -3.4238384
v -0.73757106 0 -3.4238384
v -1.0756245 0.29244217 -2.5110943
v -1.2784566 0.07089507 -2.680121
v -0.8727924 0.07089507 -2.680121
v -0.35854152 0.07089507 -2.680121
v -0.69659495 0 -3.4238384
v -0.020488113 0 -3.4238384
v -0.35854152 0.29244217 -2.5110943
v -0.5613736 0.07089507 -2.680121
v -0.15570946 0.07089507 -2.680121
v 0.35854152 0.07089507 -2.680121
v 0.020488113 0 -3.4238384
v 0.69659495 0 -3.4238384
v 0.35854152 0.29244217 -2.5110943
v 0.15570946 0.07089507 -2.680121
v 0.5613736 0.07089507 -2.680121
v 1.0756245 0.07089507 -2.680121
v 0.73757106 0 -3.4238384
v 1.4136779 0 -3.4238384
v 1.0756245 0.29244217 -2.5110943
v 0.8727924 0.07089507 -2.680121
v 1.2784566 0.07089507 -2.680121
vn 0 -0.9147308 0.4040638
vn 0 -0.9147308 0.4040638
vn 0 -0.9147308 0.4040638
vn 0.14006382 -0.9882668 0.06091626
vn 0.14006382 -0.9882668 0.06091626
vn 0.14006382 -0.9882668 0.06091626
vn -0.18094385 -0.98076177 0.07325178
vn -0.18094385 -0.98076177 0.07325178
vn -0.18094385 -0.98076177 0.07325178
vn 0 1 -0
vn 0 1 -0
vn 0 1 -0
vn 0 1 -0
vn 0 1 -0
vn 0 1 -0
vn 0 -0.8840865 0.46732342
vn 0 -0.8840865 0.46732342
vn 0 -0.8840865 0.46732342
vn 0.13926062 -0.98874164 0.05474014
vn 0.13926062 -0.98874164 0.05474014
vn 0.13926062 -0.98874164 0.05474014
vn -0.16969651 -0.98347867 0.06303054
vn -0.16969651 -0.98347867 0.06303054
vn -0.16969651 -0.98347867 0.06303054
vn 0 1 -0
vn 0 1 -0
vn 0 1 -0
vn 0 1 -0
vn 0 1 -0
vn 0 1 -0
vn 0 -0.85485804 0.51886207
vn 0 -0.85485804 0.51886207
vn 0 -0.85485804 0.51886207
vn 0.14017823 -0.9891638 0.043648057
vn 0.14017823 -0.9891638 0.043648057
vn 0.14017823 -0.9891638 0.043648057
vn -0.16120864 -0.98574275 0.048197024
vn -0.16120864 -0.98574275 0.048197024
vn -0.16120864 -0.98574275 0.048197024
vn 0 1 -0
vn 0 1 -0
vn 0 1 -0
vn 0 0.99999994 -0
vn 0 0.99999994 -0
vn 0 0.99999994 -0
vn 0 -0.83109844 0.55612534
vn 0 -0.83109844 0.55612534
vn 0 -0.83109844 0.55612534
vn 0.14219454 -0.9894338 0.028308835
vn 0.14219454 -0.9894338 0.028308835
vn 0.14219454 -0.9894338 0.028308835
vn -0.15453391 -0.98753124 0.03002336
vn -0.15453391 -0.98753124 0.03002336
vn -0.15453391 -0.98753124 0.03002336
vn 0 1 -0
vn 0 1 -0
vn 0 1 -0
vn 0 1 -0
vn 0 1 -0
vn 0 1 -0
vn 0 -0.8157398 0.5784189
vn 0 -0.8157398 0.5784189
vn 0 -0.8157398 0.5784189
vn 0.14503898 -0.98937654 0.009891877
vn 0.14503898 -0.98937654 0.009891877
vn 0.14503898 -0.98937654 0.009891877
vn -0.14910309 -0.9887702 0.010086519
vn -0.14910309 -0.9887702 0.010086519
vn -0.14910309 -0.9887702 0.010086519
vn 0 1 -0
vn 0 1 -0
vn 0 1 -0
vn 0 1 -0
vn 0 1 -0
vn 0 1 -0
vn 0 -0.81044513 0.58581454
vn 0 -0.81044513 0.58581454
vn 0 -0.81044513 0.58581454
vn 0.14864913 -0.98883885 -0.010064794
vn 0.14864913 -0.98883885 -0.010064794
vn 0.14864913 -0.98883885 -0.010064794
vn -0.1445932 -0.98944193 -0.009870538
vn -0.1445932 -0.98944193 -0.009870538
vn -0.1445932 -0.98944193 -0.009870538
vn 0 1 0
vn 0 1 0
vn 0 1 0
vn 0 0.99999994 0
vn 0 0.99999994 0
vn 0 0.99999994 0
vn 0 -0.8157398 0.5784189
vn 0 -0.8157398 0.5784189
vn 0 -0.8157398 0.5784189
vn 0.15312731 -0.9877562 -0.029827984
vn 0.15312731 -0.9877562 -0.029827984
vn 0.15312731 -0.9877562 -0.029827984
vn -0.14086325 -0.9896295 -0.028123774
vn -0.14086325 -0.9896295 -0.028123774
vn -0.14086325 -0.9896295 -0.028123774
vn 0 1 0
vn 0 1 0
vn 0 1 0
vn 0 1 0
vn 0 1 0
vn 0 1 0
vn 0 -0.8310986 0.55612516
vn 0 -0.8310986 0.55612516
vn 0 -0.8310986 0.55612516
vn 0.14554869 -0.98926246 0.013244635
vn 0.14554869 -0.98926246 0.013244635
vn 0.14554869 -0.98926246 0.013244635
vn -0.12638053 -0.991934 0.0097494675
vn -0.12638053 -0.991934 0.0097494675
vn -0.12638053 -0.991934 0.0097494675
vn 0 0.99999994 -0
vn 0 0.99999994 -0
vn 0 0.99999994 -0
vn 0 1 -0
vn 0 1 -0
vn 0 1 -0
vn 0 -0.854858 0.51886195
vn 0 -0.854858 0.51886195
vn 0 -0.854858 0.51886195
vn 0.14034821 -0.9866171 -0.08300047
vn 0.14034821 -0.9866171 -0.08300047
vn 0.14034821 -0.9866171 -0.08300047
vn -0.11489991 -0.9908373 -0.0709893
vn -0.11489991 -0.9908373 -0.0709893
vn -0.11489991 -0.9908373 -0.0709893
vn 0 0.99999994 0
vn 0 0.99999994 0
vn 0 0.99999994 0
vn 0 1 0
vn 0 1 0
vn 0 1 0
vn 0 -0.8840864 0.4673236
vn 0 -0.8840864 0.4673236
vn 0 -0.8840864 0.4673236
vn 0.16276814 -0.9815644 -0.10018916
vn 0.16276814 -0.9815644 -0.10018916
vn 0.16276814 -0.9815644 -0.10018916
vn -0.12566406 -0.9887115 -0.08159778
vn -0.12566406 -0.9887115 -0.08159778
vn -0.12566406 -0.9887115 -0.08159778
vn 0 1 0
vn 0 1 0
vn 0 1 0
vn 0 1 0
vn 0 1 0
vn 0 1 0
vn -0 0.99867207 0.05151759
vn -0 0.99867207 0.05151759
vn -0 0.99867207 0.05151759
vn -0.07870139 0.99689823 0
vn -0.07870139 0.99689823 0
vn -0.07870139 0.99689823 0
vn 0.07870139 0.99689823 0
vn 0.07870139 0.99689823 0
vn 0.07870139 0.99689823 0
vn -0 1 0
vn -0 1 0
vn -0 1 0
vn 0 1 0
vn 0 1 0
vn 0 1 0
vn 0 0 -1
vn 0 0 -1
vn 0 0 -1
vn 0 0 1
vn 0 0 1
vn 0 0 1
vn 0.99999994 0 0
vn 0.99999994 0 0
vn 0.99999994 0 0
vn -0.99999994 0 0
vn -0.99999994 0 0
vn -0.99999994 0 0
vn 0 -0.975979 0.21786496
vn 0 -0.975979 0.21786496
vn 0 -0.975979 0.21786496
vn 0.5312205 -0.84591734 -0.047207955
vn 0.5312205 -0.84591734 -0.047207955
vn 0.5312205 -0.84591734 -0.047207955
vn -0.5312205 -0.84591734 -0.047207955
vn -0.5312205 -0.84591734 -0.047207955
vn -0.5312205 -0.84591734 -0.047207955
vn 0 -0.975979 0.21786496
vn 0 -0.975979 0.21786496
vn 0 -0.975979 0.21786496
vn 0.5312205 -0.84591734 -0.047207914
vn 0.5312205 -0.84591734 -0.047207914
vn 0.5312205 -0.84591734 -0.047207914
vn -0.5312205 -0.84591734 -0.047207914
vn -0.5312205 -0.84591734 -0.047207914
vn -0.5312205 -0.84591734 -0.047207914
vn 0 -0.975979 0.21786496
vn 0 -0.975979 0.21786496
vn 0 -0.975979 0.21786496
vn 0.5312205 -0.84591734 -0.047207955
vn 0.5312205 -0.84591734 -0.047207955
vn 0.5312205 -0.84591734 -0.047207955
vn -0.5312205 -0.84591734 -0.047207955
vn -0.5312205 -0.84591734 -0.047207955
vn -0.5312205 -0.84591734 -0.047207955
vn 0 -0.89075124 0.45449102
vn 0 -0.89075124 0.45449102
vn 0 -0.89075124 0.45449102
vn 0.8183384 -0.5701171 -0.07272326
vn 0.8183384 -0.5701171 -0.07272326
vn 0.8183384 -0.5701171 -0.07272326
vn -0.8183384 -0.5701171 -0.07272326
vn -0.8183384 -0.5701171 -0.07272326
vn -0.8183384 -0.5701171 -0.07272326
vn 0 -0.89075136 0.45449108
vn 0 -0.89075136 0.45449108
vn 0 -0.89075136 0.45449108
vn 0.8183384 -0.5701172 -0.072723195
vn 0.8183384 -0.5701172 -0.072723195
vn 0.8183384 -0.5701172 -0.072723195
vn -0.8183384 -0.5701172 -0.072723195
vn -0.8183384 -0.5701172 -0.072723195
vn -0.8183384 -0.5701172 -0.072723195
vn 0 -0.89075124 0.45449102
vn 0 -0.89075124 0.45449102
vn 0 -0.89075124 0.45449102
vn 0.8183384 -0.5701171 -0.07272326
vn 0.8183384 -0.5701171 -0.07272326
vn 0.8183384 -0.5701171 -0.07272326
vn -0.8183384 -0.5701171 -0.07272326
vn -0.8183384 -0.5701171 -0.07272326
vn -0.8183384 -0.5701171 -0.07272326
vn 0 -0.066711485 0.9977723
vn 0 -0.066711485 0.9977723
vn 0 -0.066711485 0.9977723
vn 0.8646792 -0.501632 -0.026364164
vn 0.8646792 -0.501632 -0.026364164
vn 0.8646792 -0.501632 -0.026364164
vn -0.89719135 -0.43749702 -0.060364466
vn -0.89719135 -0.43749702 -0.060364466
vn -0.89719135 -0.43749702 -0.060364466
vn 0 1 0
vn 0 1 0
vn 0 1 0
vn 0 1 0
vn 0 1 0
vn 0 1 0
vn 0 -0.059296835 0.9982404
vn 0 -0.059296835 0.9982404
vn 0 -0.059296835 0.9982404
vn 0.9001995 -0.43077543 -0.06382333
vn 0.9001995 -0.43077543 -0.06382333
vn 0.9001995 -0.43077543 -0.06382333
vn -0.92154884 -0.37755135 -0.090568304
vn -0.92154884 -0.37755135 -0.090568304
vn -0.92154884 -0.37755135 -0.090568304
vn 0 1 0
vn 0 1 0
vn 0 1 0
vn 0 1 0
vn 0 1 0
vn 0 1 0
vn 0 -0.05336337 0.9985752
vn 0 -0.05336337 0.9985752
vn 0 -0.05336337 0.9985752
vn 0.924962 -0.36791998 -0.095290475
vn 0.924962 -0.36791998 -0.095290475
vn 0.924962 -0.36791998 -0.095290475
vn -0.93873566 -0.32446864 -0.116169736
vn -0.93873566 -0.32446864 -0.116169736
vn -0.93873566 -0.32446864 -0.116169736
vn 0 1 0
vn 0 1 0
vn 0 1 0
vn 0 0.99999994 0
vn 0 0.99999994 0
vn 0 0.99999994 0
vn 0 -0.04850808 0.99882275
vn 0 -0.04850808 0.99882275
vn 0 -0.04850808 0.99882275
vn 0.94200325 -0.31276923 -0.121676266
vn 0.94200325 -0.31276923 -0.121676266
vn 0.94200325 -0.31276923 -0.121676266
vn -0.95072234 -0.27768397 -0.13790782
vn -0.95072234 -0.27768397 -0.13790782
vn -0.95072234 -0.27768397 -0.13790782
vn 0 1 0
vn 0 1 0
vn 0 1 0
vn 0 1 0
vn 0 1 0
vn 0 1 0
vn 0 -0.044461846 0.9990111
vn 0 -0.044461846 0.9990111
vn 0 -0.044461846 0.9990111
vn 0.95357054 -0.26458916 -0.14386028
vn 0.95357054 -0.26458916 -0.14386028
vn 0.95357054 -0.26458916 -0.14386028
vn -0.9589568 -0.23649015 -0.15644266
vn -0.9589568 -0.23649015 -0.15644266
vn -0.9589568 -0.23649015 -0.15644266
vn 0 1 0
vn 0 1 0
vn 0 1 0
vn 0 0.99999994 0
vn 0 0.99999994 0
vn 0 0.99999994 0
vn 0 -0.041038126 0.99915755
vn 0 -0.041038126 0.99915755
vn 0 -0.041038126 0.99915755
vn 0.9612741 -0.22251049 -0.1626074
vn 0.9612741 -0.22251049 -0.1626074
vn 0.9612741 -0.22251049 -0.1626074
vn -0.9644863 -0.20016977 -0.17233175
vn -0.9644863 -0.20016977 -0.17233175
vn -0.9644863 -0.20016977 -0.17233175
vn 0 0.99999994 0
vn 0 0.99999994 0
vn 0 0.99999994 0
vn 0 1 0
vn 0 1 0
vn 0 1 0
vn 0 -0.9954872 0.094895095
vn 0 -0.9954872 0.094895095
vn 0 -0.9954872 0.094895095
vn 0 -0.60656255 0.79503566
vn 0 -0.60656255 0.79503566
vn 0 -0.60656255 0.79503566
vn 0 -0.9954872 0.094895095
vn 0 -0.9954872 0.094895095
vn 0 -0.9954872 0.094895095
vn 0 -0.60656255 0.79503566
vn 0 -0.60656255 0.79503566
vn 0 -0.60656255 0.79503566
vn 0 -0.9954872 0.094895095
vn 0 -0.9954872 0.094895095
vn 0 -0.9954872 0.094895095
vn 0 -0.60656255 0.79503566
vn 0 -0.60656255 0.79503566
vn 0 -0.60656255 0.79503566
vn 0 -0.9954872 0.094895095
vn 0 -0.9954872 0.094895095
vn 0 -0.9954872 0.094895095
vn 0 -0.60656255 0.79503566
vn 0 -0.60656255 0.79503566
vn 0 -0.60656255 0.79503566
f 1//1 2//2 3//3
f 4//4 5//5 6//6
f 7//7 8//8 9//9
f 10//10 11//11 12//12
f 13//13 14//14 15//15
f 16//16 17//17 18//18
f 19//19 20//20 21//21
f 22//22 23//23 24//24
f 25//25 26//26 27//27
f 28//28 29//29 30//30
f 31//31 32//32 33//33
f 34//34 35//35 36//36
f 37//37 38//38 39//39
f 40//40 41//41 42//42
f 43//43 44//44 45//45
f 46//46 47//47 48//48
f 49//49 50//50 51//51
f 52//52 53//53 54//54
f 55//55 56//56 57//57
f 58//58 59//59 60//60
f 61//61 62//62 63//63
f 64//64 65//65 66//66
f 67//67 68//68 69//69
f 70//70 71//71 72//72
f 73//73 74//74 75//75
f 76//76 77//77 78//78
f 79//79 80//80 81//81
f 82//82 83//83 84//84
f 85//85 86//86 87//87
f 88//88 89//89 90//90
f 91//91 92//92 93//93
f 94//94 95//95 96//96
f 97//97 98//98 99//99
f 100//100 101//101 102//102
f 103//103 104//104 105//105
f 106//106 107//107 108//108
f 109//109 110//110 111//111
f 112//112 113//113 114//114
f 115//115 116//116 117//117
f 118//118 119//119 120//120
f 121//121 122//122 123//123
f 124//124 125//125 126//126
f 127//127 128//128 129//129
f 130//130 131//131 132//132
f 133//133 134//134 135//135
f 136//136 137//137 138//138
f 139//139 140//140 141//141
f 142//142 143//143 144//144
f 145//145 146//146 147//147
f 148//148 149//149 150//150
f 151//151 152//152 153//153
f 154//154 155//155 156//156
f 157//157 158//158 159//159
f 160//160 161//161 162//162
f 163//163 164//164 165//165
f 166//166 167//167 168//168
f 169//169 170//170 171//171
f 172//172 173//173 174//174
f 175//175 176//176 177//177
f 178//178 179//179 180//180
f 181//181 182//182 183//183
f 184//184 185//185 186//186
f 187//187 188//188 189//189
f 190//190 191//191 192//192
f 193//193 194//194 195//195
f 196//196 197//197 198//198
f 199//199 200//200 201//201
f 202//202 203//203 204//204
f 205//205 206//206 207//207
f 208//208 209//209 210//210
f 211//211 212//212 213//213
f 214//214 215//215 216//216
f 217//217 218//218 219//219
f 220//220 221//221 222//222
f 223//223 224//224 225//225
f 226//226 227//227 228//228
f 229//229 230//230 231//231
f 232//232 233//233 234//234
f 235//235 236//236 237//237
f 238//238 239//239 240//240
f 241//241 242//242 243//243
f 244//244 245//245 246//246
f 247//247 248//248 249//249
f 250//250 251//251 252//252
f 253//253 254//254 255//255
f 256//256 257//257 258//258
f 259//259 260//260 261//261
f 262//262 263//263 264//264
f 265//265 266//266 267//267
f 268//268 269//269 270//270
f 271//271 272//272 273//273
f 274//274 275//275 276//276
f 277//277 278//278 279//279
f 280//280 281//281 282//282
f 283//283 284//284 285//285
f 286//286 287//287 288//288
f 289//289 290//290 291//291
f 292//292 293//293 294//294
f 295//295 296//296 297//297
f 298//298 299//299 300//300
f 301//301 302//302 303//303
f 304//304 305//305 306//306
f 307//307 308//308 309//309
f 310//310 311//311 312//312
f 313//313 314//314 315//315
f 316//316 317//317 318//318
f 319//319 320//320 321//321
f 322//322 323//323 324//324
f 325//325 326//326 327//327
f 328//328 329//329 330//330
f 331//331 332//332 333//333
f 334//334 335//335 336//336
f 337//337 338//338 339//339
f 340//340 341//341 342//342
f 343//343 344//344 345//345
