# Exported from SharpOpenGl procedural mesh
o solari_scout_mk3_34
# vertices 285
v -0.23464446 0.0141675025 -1.2463679
v 0.23464446 0.0141675025 -1.2463679
v 0 0.044273447 -1.0424168
v -0.23464446 0.0141675025 -1.2463679
v 0 0.044273447 -1.0424168
v -0.3306354 0.018675344 -0.7931432
v 0.23464446 0.0141675025 -1.2463679
v 0.3306354 0.018675344 -0.7931432
v 0 0.058360454 -1.0424168
v -0.23464446 0 -1.2463679
v -0.3306354 0 -0.7931432
v 0.23464446 0 -1.2463679
v 0.23464446 0 -1.2463679
v -0.3306354 0 -0.7931432
v 0.3306354 0 -0.7931432
v -0.3306354 0.018675344 -0.7931432
v 0.3306354 0.018675344 -0.7931432
v 0 0.058360454 -0.5891921
v -0.3306354 0.018675344 -0.7931432
v 0 0.058360454 -0.5891921
v -0.40090564 0.021975314 -0.3399185
v 0.3306354 0.018675344 -0.7931432
v 0.40090564 0.021975314 -0.3399185
v 0 0.06867286 -0.5891921
v -0.3306354 0 -0.7931432
v -0.40090564 0 -0.3399185
v 0.3306354 0 -0.7931432
v 0.3306354 0 -0.7931432
v -0.40090564 0 -0.3399185
v 0.40090564 0 -0.3399185
v -0.40090564 0.021975314 -0.3399185
v 0.40090564 0.021975314 -0.3399185
v 0 0.06867286 -0.1359674
v -0.40090564 0.021975314 -0.3399185
v 0 0.06867286 -0.1359674
v -0.4266263 0.023183186 0.113306165
v 0.40090564 0.021975314 -0.3399185
v 0.4266263 0.023183186 0.113306165
v 0 0.07244746 -0.1359674
v -0.40090564 0 -0.3399185
v -0.4266263 0 0.113306165
v 0.40090564 0 -0.3399185
v 0.40090564 0 -0.3399185
v -0.4266263 0 0.113306165
v 0.4266263 0 0.113306165
v -0.4266263 0.023183186 0.113306165
v 0.4266263 0.023183186 0.113306165
v 0 0.07244746 0.31725731
v -0.4266263 0.023183186 0.113306165
v 0 0.07244746 0.31725731
v -0.40090564 0.021975314 0.56653094
v 0.4266263 0.023183186 0.113306165
v 0.40090564 0.021975314 0.56653094
v 0 0.06867286 0.31725731
v -0.4266263 0 0.113306165
v -0.40090564 0 0.56653094
v 0.4266263 0 0.113306165
v 0.4266263 0 0.113306165
v -0.40090564 0 0.56653094
v 0.40090564 0 0.56653094
v -0.40090564 0.021975314 0.56653094
v 0.40090564 0.021975314 0.56653094
v 0 0.06867286 0.77048206
v -0.40090564 0.021975314 0.56653094
v 0 0.06867286 0.77048206
v -0.39527574 0.018675344 1.0197556
v 0.40090564 0.021975314 0.56653094
v 0.39527574 0.018675344 1.0197556
v 0 0.058360454 0.77048206
v -0.40090564 0 0.56653094
v -0.39527574 0 1.0197556
v 0.40090564 0 0.56653094
v 0.40090564 0 0.56653094
v -0.39527574 0 1.0197556
v 0.39527574 0 1.0197556
v -0.39527574 0.018675344 1.0197556
v 0.39527574 0.018675344 1.0197556
v 0 0.058360454 1.2237067
v -0.39527574 0.018675344 1.0197556
v 0 0.058360454 1.2237067
v -0.23464444 0.014167502 1.4729803
v 0.39527574 0.018675344 1.0197556
v 0.23464444 0.014167502 1.4729803
v 0 0.044273444 1.2237067
v -0.39527574 0 1.0197556
v -0.23464444 0 1.4729803
v 0.39527574 0 1.0197556
v 0.39527574 0 1.0197556
v -0.23464444 0 1.4729803
v 0.23464444 0 1.4729803
v -0.7199319 0.080497175 0.86112696
v 0.7199319 0.080497175 0.86112696
v 0 0.12477062 -0.6798371
v -0.7199319 0.080497175 0.86112696
v 0 0.12477062 -0.6798371
v -0.7199319 0.080497175 -0.86112696
v 0.7199319 0.080497175 0.86112696
v 0.7199319 0.080497175 -0.86112696
v 0 0.12477062 -0.6798371
v -0.7199319 0.0740574 0.86112696
v 0.7199319 0.0740574 0.86112696
v 0.7199319 0.0740574 -0.86112696
v -0.7199319 0.0740574 0.86112696
v 0.7199319 0.0740574 -0.86112696
v -0.7199319 0.0740574 -0.86112696
v -0.7199319 0.0740574 0.86112696
v -0.7199319 0.080497175 0.86112696
v 0.7199319 0.080497175 0.86112696
v -0.7199319 0.0740574 -0.86112696
v 0.7199319 0.080497175 -0.86112696
v -0.7199319 0.080497175 -0.86112696
v 0.7199319 0.0740574 -0.86112696
v 0.7199319 0.080497175 -0.86112696
v 0.7199319 0.080497175 0.86112696
v 0.7199319 0.0740574 0.86112696
v 0.7199319 0.080497175 0.86112696
v 0.7199319 0.080497175 -0.86112696
v -0.67673594 0.080497175 -0.86112696
v -0.5327496 0.080497175 -0.86112696
v -0.60474277 0.10867119 -0.6345146
v -0.67673594 0.080497175 -0.86112696
v -0.60474277 0.10867119 -0.6345146
v -0.6623373 0.080497175 -0.6345146
v -0.5327496 0.080497175 -0.86112696
v -0.5471482 0.080497175 -0.6345146
v -0.60474277 0.10867119 -0.6345146
v -0.071993195 0.080497175 -0.86112696
v 0.071993195 0.080497175 -0.86112696
v 0 0.10867119 -0.6345146
v -0.071993195 0.080497175 -0.86112696
v 0 0.10867119 -0.6345146
v -0.05759455 0.080497175 -0.6345146
v 0.071993195 0.080497175 -0.86112696
v 0.05759455 0.080497175 -0.6345146
v 0 0.10867119 -0.6345146
v 0.5327496 0.080497175 -0.86112696
v 0.67673594 0.080497175 -0.86112696
v 0.60474277 0.10867119 -0.6345146
v 0.5327496 0.080497175 -0.86112696
v 0.60474277 0.10867119 -0.6345146
v 0.5471482 0.080497175 -0.6345146
v 0.67673594 0.080497175 -0.86112696
v 0.6623373 0.080497175 -0.6345146
v 0.60474277 0.10867119 -0.6345146
v -0.67673594 0.080497175 0.67983717
v -0.5327496 0.080497175 0.67983717
v -0.60474277 0.14489491 0.90644956
v -0.67673594 0.080497175 0.67983717
v -0.60474277 0.14489491 0.90644956
v -0.6623373 0.080497175 0.90644956
v -0.5327496 0.080497175 0.67983717
v -0.5471482 0.080497175 0.90644956
v -0.60474277 0.14489491 0.90644956
v -0.071993195 0.080497175 0.67983717
v 0.071993195 0.080497175 0.67983717
v 0 0.14489491 0.90644956
v -0.071993195 0.080497175 0.67983717
v 0 0.14489491 0.90644956
v -0.05759455 0.080497175 0.90644956
v 0.071993195 0.080497175 0.67983717
v 0.05759455 0.080497175 0.90644956
v 0 0.14489491 0.90644956
v 0.5327496 0.080497175 0.67983717
v 0.67673594 0.080497175 0.67983717
v 0.60474277 0.14489491 0.90644956
v 0.5327496 0.080497175 0.67983717
v 0.60474277 0.14489491 0.90644956
v 0.5471482 0.080497175 0.90644956
v 0.67673594 0.080497175 0.67983717
v 0.6623373 0.080497175 0.90644956
v 0.60474277 0.14489491 0.90644956
v -0.10665657 0.06715764 0.076141745
v 0.10665657 0.06715764 0.076141745
v 0 0.20986764 0.09327364
v -0.10665657 0.06715764 0.076141745
v 0 0.20986764 0.09327364
v -0.099546134 0.07559068 0.11421262
v 0.10665657 0.06715764 0.076141745
v 0.099546134 0.07559068 0.11421262
v 0 0.23622087 0.09327364
v -0.10665657 0 0.076141745
v -0.099546134 0 0.11421262
v 0.10665657 0 0.076141745
v 0.10665657 0 0.076141745
v -0.099546134 0 0.11421262
v 0.099546134 0 0.11421262
v -0.099546134 0.07559068 0.11421262
v 0.099546134 0.07559068 0.11421262
v 0 0.23622087 0.13134451
v -0.099546134 0.07559068 0.11421262
v 0 0.23622087 0.13134451
v -0.092435695 0.08402372 0.15228349
v 0.099546134 0.07559068 0.11421262
v 0.092435695 0.08402372 0.15228349
v 0 0.26257414 0.13134451
v -0.099546134 0 0.11421262
v -0.092435695 0 0.15228349
v 0.099546134 0 0.11421262
v 0.099546134 0 0.11421262
v -0.092435695 0 0.15228349
v 0.092435695 0 0.15228349
v -0.092435695 0.08402372 0.15228349
v 0.092435695 0.08402372 0.15228349
v 0 0.26257414 0.16941538
v -0.092435695 0.08402372 0.15228349
v 0 0.26257414 0.16941538
v -0.08532526 0.09245676 0.19035436
v 0.092435695 0.08402372 0.15228349
v 0.08532526 0.09245676 0.19035436
v 0 0.28892738 0.16941538
v -0.092435695 0 0.15228349
v -0.08532526 0 0.19035436
v 0.092435695 0 0.15228349
v 0.092435695 0 0.15228349
v -0.08532526 0 0.19035436
v 0.08532526 0 0.19035436
v -0.08532526 0.09245676 0.19035436
v 0.08532526 0.09245676 0.19035436
v 0 0.28892738 0.20748626
v -0.08532526 0.09245676 0.19035436
v 0 0.28892738 0.20748626
v -0.078214824 0.100889795 0.22842523
v 0.08532526 0.09245676 0.19035436
v 0.078214824 0.100889795 0.22842523
v 0 0.31528062 0.20748626
v -0.08532526 0 0.19035436
v -0.078214824 0 0.22842523
v 0.08532526 0 0.19035436
v 0.08532526 0 0.19035436
v -0.078214824 0 0.22842523
v 0.078214824 0 0.22842523
v -0.078214824 0.100889795 0.22842523
v 0.078214824 0.100889795 0.22842523
v 0 0.31528062 0.24555713
v -0.078214824 0.100889795 0.22842523
v 0 0.31528062 0.24555713
v -0.07110438 0.10932283 0.26649612
v 0.078214824 0.100889795 0.22842523
v 0.07110438 0.10932283 0.26649612
v 0 0.34163386 0.24555713
v -0.078214824 0 0.22842523
v -0.07110438 0 0.26649612
v 0.078214824 0 0.22842523
v 0.078214824 0 0.22842523
v -0.07110438 0 0.26649612
v 0.07110438 0 0.26649612
v -0.07110438 0.10932283 0.26649612
v 0.07110438 0.10932283 0.26649612
v 0 0.34163386 0.28362802
v -0.07110438 0.10932283 0.26649612
v 0 0.34163386 0.28362802
v -0.063993946 0.11775587 0.30456698
v 0.07110438 0.10932283 0.26649612
v 0.063993946 0.11775587 0.30456698
v 0 0.3679871 0.28362802
v -0.07110438 0 0.26649612
v -0.063993946 0 0.30456698
v 0.07110438 0 0.26649612
v 0.07110438 0 0.26649612
v -0.063993946 0 0.30456698
v 0.063993946 0 0.30456698
v -0.4479576 0.022999194 -1.5611073
v -0.53754914 0 -1.7582086
v -0.35836607 0 -1.7582086
v -0.4479576 0.09487167 -1.5163115
v -0.5017125 0.022999194 -1.5611073
v -0.39420268 0.022999194 -1.5611073
v -0.1493192 0.022999194 -1.5611073
v -0.23891073 0 -1.7582086
v -0.059727676 0 -1.7582086
v -0.1493192 0.09487167 -1.5163115
v -0.20307413 0.022999194 -1.5611073
v -0.09556428 0.022999194 -1.5611073
v 0.1493192 0.022999194 -1.5611073
v 0.059727676 0 -1.7582086
v 0.23891073 0 -1.7582086
v 0.1493192 0.09487167 -1.5163115
v 0.09556428 0.022999194 -1.5611073
v 0.20307413 0.022999194 -1.5611073
v 0.4479576 0.022999194 -1.5611073
v 0.35836607 0 -1.7582086
v 0.53754914 0 -1.7582086
v 0.4479576 0.09487167 -1.5163115
v 0.39420268 0.022999194 -1.5611073
v 0.5017125 0.022999194 -1.5611073
vn 0 -0.98928 0.14603111
vn 0 -0.98928 0.14603111
vn 0 -0.98928 0.14603111
vn 0.10049497 -0.994449 0.03117532
vn 0.10049497 -0.994449 0.03117532
vn 0.10049497 -0.994449 0.03117532
vn -0.14991009 -0.98782516 0.04157534
vn -0.14991009 -0.98782516 0.04157534
vn -0.14991009 -0.98782516 0.04157534
vn 0 1 -0
vn 0 1 -0
vn 0 1 -0
vn 0 1 -0
vn 0 1 -0
vn 0 1 -0
vn 0 -0.9815902 0.19099925
vn 0 -0.9815902 0.19099925
vn 0 -0.9815902 0.19099925
vn 0.10483993 -0.99421155 0.023493854
vn 0.10483993 -0.99421155 0.023493854
vn 0.10483993 -0.99421155 0.023493854
vn -0.13268127 -0.9907692 0.02778545
vn -0.13268127 -0.9907692 0.02778545
vn -0.13268127 -0.9907692 0.02778545
vn 0 1 -0
vn 0 1 -0
vn 0 1 -0
vn 0 1 -0
vn 0 1 -0
vn 0 1 -0
vn 0 -0.9747752 0.22318883
vn 0 -0.9747752 0.22318883
vn 0 -0.9747752 0.22318883
vn 0.111195505 -0.9937582 0.00895881
vn 0.111195505 -0.9937582 0.00895881
vn 0.111195505 -0.9937582 0.00895881
vn -0.12016238 -0.9927091 0.009464887
vn -0.12016238 -0.9927091 0.009464887
vn -0.12016238 -0.9927091 0.009464887
vn 0 1 -0
vn 0 1 -0
vn 0 1 -0
vn 0 1 -0
vn 0 1 -0
vn 0 1 -0
vn 0 -0.9720445 0.23479675
vn 0 -0.9720445 0.23479675
vn 0 -0.9720445 0.23479675
vn 0.119143665 -0.9928325 -0.009407402
vn 0.119143665 -0.9928325 -0.009407402
vn 0.119143665 -0.9928325 -0.009407402
vn -0.11022924 -0.9938663 -0.00890426
vn -0.11022924 -0.9938663 -0.00890426
vn -0.11022924 -0.9938663 -0.00890426
vn 0 0.99999994 0
vn 0 0.99999994 0
vn 0 0.99999994 0
vn 0 1 0
vn 0 1 0
vn 0 1 0
vn 0 -0.9747752 0.22318882
vn 0 -0.9747752 0.22318882
vn 0 -0.9747752 0.22318882
vn 0.1200689 -0.9927273 -0.008719618
vn 0.1200689 -0.9927273 -0.008719618
vn 0.1200689 -0.9927273 -0.008719618
vn -0.094632186 -0.9954766 -0.008423665
vn -0.094632186 -0.9954766 -0.008423665
vn -0.094632186 -0.9954766 -0.008423665
vn 0 1 0
vn 0 1 0
vn 0 1 0
vn 0 1 0
vn 0 1 0
vn 0 1 0
vn 0 -0.9815902 0.19099927
vn 0 -0.9815902 0.19099927
vn 0 -0.9815902 0.19099927
vn 0.12788886 -0.99025255 -0.05517541
vn 0.12788886 -0.99025255 -0.05517541
vn 0.12788886 -0.99025255 -0.05517541
vn -0.08515391 -0.9955613 -0.04008214
vn -0.08515391 -0.9955613 -0.04008214
vn -0.08515391 -0.9955613 -0.04008214
vn 0 1 0
vn 0 1 0
vn 0 1 0
vn 0 0.99999994 0
vn 0 0.99999994 0
vn 0 0.99999994 0
vn -0 0.99958754 0.028719151
vn -0 0.99958754 0.028719151
vn -0 0.99958754 0.028719151
vn -0.06138075 0.9981144 0
vn -0.06138075 0.9981144 0
vn -0.06138075 0.9981144 0
vn 0.06138075 0.9981144 0
vn 0.06138075 0.9981144 0
vn 0.06138075 0.9981144 0
vn -0 1 0
vn -0 1 0
vn -0 1 0
vn 0 1 0
vn 0 1 0
vn 0 1 0
vn 0 0 -1
vn 0 0 -1
vn 0 0 -1
vn 0 0 1
vn 0 0 1
vn 0 0 1
vn 1 0 0
vn 1 0 0
vn 1 0 0
vn -1 0 0
vn -1 0 0
vn -1 0 0
vn 0 -0.99235994 0.12337701
vn 0 -0.99235994 0.12337701
vn 0 -0.99235994 0.12337701
vn 0.43924892 -0.8979317 -0.027909262
vn 0.43924892 -0.8979317 -0.027909262
vn 0.43924892 -0.8979317 -0.027909262
vn -0.43924892 -0.8979317 -0.027909262
vn -0.43924892 -0.8979317 -0.027909262
vn -0.43924892 -0.8979317 -0.027909262
vn 0 -0.99235994 0.123377025
vn 0 -0.99235994 0.123377025
vn 0 -0.99235994 0.123377025
vn 0.43924892 -0.8979319 -0.027909284
vn 0.43924892 -0.8979319 -0.027909284
vn 0.43924892 -0.8979319 -0.027909284
vn -0.43924892 -0.8979319 -0.027909284
vn -0.43924892 -0.8979319 -0.027909284
vn -0.43924892 -0.8979319 -0.027909284
vn 0 -0.99235994 0.12337701
vn 0 -0.99235994 0.12337701
vn 0 -0.99235994 0.12337701
vn 0.43924892 -0.8979317 -0.027909262
vn 0.43924892 -0.8979317 -0.027909262
vn 0.43924892 -0.8979317 -0.027909262
vn -0.43924892 -0.8979317 -0.027909262
vn -0.43924892 -0.8979317 -0.027909262
vn -0.43924892 -0.8979317 -0.027909262
vn 0 -0.961914 0.2733526
vn 0 -0.961914 0.2733526
vn 0 -0.961914 0.2733526
vn 0.7445476 -0.665891 -0.04730751
vn 0.7445476 -0.665891 -0.04730751
vn 0.7445476 -0.665891 -0.04730751
vn -0.7445476 -0.665891 -0.04730751
vn -0.7445476 -0.665891 -0.04730751
vn -0.7445476 -0.665891 -0.04730751
vn 0 -0.9619139 0.27335256
vn 0 -0.9619139 0.27335256
vn 0 -0.9619139 0.27335256
vn 0.74454755 -0.66589105 -0.047307543
vn 0.74454755 -0.66589105 -0.047307543
vn 0.74454755 -0.66589105 -0.047307543
vn -0.74454755 -0.66589105 -0.047307543
vn -0.74454755 -0.66589105 -0.047307543
vn -0.74454755 -0.66589105 -0.047307543
vn 0 -0.961914 0.2733526
vn 0 -0.961914 0.2733526
vn 0 -0.961914 0.2733526
vn 0.7445476 -0.665891 -0.04730751
vn 0.7445476 -0.665891 -0.04730751
vn 0.7445476 -0.665891 -0.04730751
vn -0.7445476 -0.665891 -0.04730751
vn -0.7445476 -0.665891 -0.04730751
vn -0.7445476 -0.665891 -0.04730751
vn 0 -0.11919114 0.9928714
vn 0 -0.11919114 0.9928714
vn 0 -0.11919114 0.9928714
vn 0.8018944 -0.5972099 -0.017481305
vn 0.8018944 -0.5972099 -0.017481305
vn 0.8018944 -0.5972099 -0.017481305
vn -0.84691596 -0.5301637 -0.04074125
vn -0.84691596 -0.5301637 -0.04074125
vn -0.84691596 -0.5301637 -0.04074125
vn 0 1 0
vn 0 1 0
vn 0 1 0
vn 0 0.99999994 0
vn 0 0.99999994 0
vn 0 0.99999994 0
vn 0 -0.106052786 0.99436057
vn 0 -0.106052786 0.99436057
vn 0 -0.106052786 0.99436057
vn 0.85127085 -0.5229492 -0.043152574
vn 0.85127085 -0.5229492 -0.043152574
vn 0.85127085 -0.5229492 -0.043152574
vn -0.88334817 -0.46458924 -0.06207087
vn -0.88334817 -0.46458924 -0.06207087
vn -0.88334817 -0.46458924 -0.06207087
vn 0 1 0
vn 0 1 0
vn 0 1 0
vn 0 1 0
vn 0 1 0
vn 0 1 0
vn 0 -0.09551125 0.9954284
vn 0 -0.09551125 0.9954284
vn 0 -0.09551125 0.9954284
vn 0.8886969 -0.4537982 -0.065460056
vn 0.8886969 -0.4537982 -0.065460056
vn 0.8886969 -0.4537982 -0.065460056
vn -0.9110823 -0.40426546 -0.08061288
vn -0.9110823 -0.40426546 -0.08061288
vn -0.9110823 -0.40426546 -0.08061288
vn 0 1 0
vn 0 1 0
vn 0 1 0
vn 0 1 0
vn 0 1 0
vn 0 1 0
vn 0 -0.08686863 0.9962198
vn 0 -0.08686863 0.9962198
vn 0 -0.08686863 0.9962198
vn 0.9166187 -0.39069694 -0.08465263
vn 0.9166187 -0.39069694 -0.08465263
vn 0.9166187 -0.39069694 -0.08465263
vn -0.9319595 -0.34944096 -0.09665639
vn -0.9319595 -0.34944096 -0.09665639
vn -0.9319595 -0.34944096 -0.09665639
vn 0 1 0
vn 0 1 0
vn 0 1 0
vn 0 1 0
vn 0 1 0
vn 0 1 0
vn 0 -0.07965574 0.9968224
vn 0 -0.07965574 0.9968224
vn 0 -0.07965574 0.9968224
vn 0.9371958 -0.33383292 -0.101091824
vn 0.9371958 -0.33383292 -0.101091824
vn 0.9371958 -0.33383292 -0.101091824
vn -0.94752353 -0.299974 -0.11052077
vn -0.94752353 -0.299974 -0.11052077
vn -0.94752353 -0.299974 -0.11052077
vn 0 1 0
vn 0 1 0
vn 0 1 0
vn 0 0.99999994 0
vn 0 0.99999994 0
vn 0 0.99999994 0
vn 0 -0.0735458 0.9972919
vn 0 -0.0735458 0.9972919
vn 0 -0.0735458 0.9972919
vn 0.95219576 -0.2829496 -0.11516418
vn 0.95219576 -0.2829496 -0.11516418
vn 0.95219576 -0.2829496 -0.11516418
vn -0.9590125 -0.25550908 -0.12251565
vn -0.9590125 -0.25550908 -0.12251565
vn -0.9590125 -0.25550908 -0.12251565
vn 0 1 0
vn 0 1 0
vn 0 1 0
vn 0 1 0
vn 0 1 0
vn 0 1 0
vn 0 -0.99326086 0.11590078
vn 0 -0.99326086 0.11590078
vn 0 -0.99326086 0.11590078
vn 0 -0.52894104 0.8486586
vn 0 -0.52894104 0.8486586
vn 0 -0.52894104 0.8486586
vn 0 -0.99326086 0.11590078
vn 0 -0.99326086 0.11590078
vn 0 -0.99326086 0.11590078
vn 0 -0.52894104 0.84865856
vn 0 -0.52894104 0.84865856
vn 0 -0.52894104 0.84865856
vn 0 -0.99326086 0.11590078
vn 0 -0.99326086 0.11590078
vn 0 -0.99326086 0.11590078
vn 0 -0.52894104 0.84865856
vn 0 -0.52894104 0.84865856
vn 0 -0.52894104 0.84865856
vn 0 -0.99326086 0.11590078
vn 0 -0.99326086 0.11590078
vn 0 -0.99326086 0.11590078
vn 0 -0.52894104 0.8486586
vn 0 -0.52894104 0.8486586
vn 0 -0.52894104 0.8486586
f 1//1 2//2 3//3
f 4//4 5//5 6//6
f 7//7 8//8 9//9
f 10//10 11//11 12//12
f 13//13 14//14 15//15
f 16//16 17//17 18//18
f 19//19 20//20 21//21
f 22//22 23//23 24//24
f 25//25 26//26 27//27
f 28//28 29//29 30//30
f 31//31 32//32 33//33
f 34//34 35//35 36//36
f 37//37 38//38 39//39
f 40//40 41//41 42//42
f 43//43 44//44 45//45
f 46//46 47//47 48//48
f 49//49 50//50 51//51
f 52//52 53//53 54//54
f 55//55 56//56 57//57
f 58//58 59//59 60//60
f 61//61 62//62 63//63
f 64//64 65//65 66//66
f 67//67 68//68 69//69
f 70//70 71//71 72//72
f 73//73 74//74 75//75
f 76//76 77//77 78//78
f 79//79 80//80 81//81
f 82//82 83//83 84//84
f 85//85 86//86 87//87
f 88//88 89//89 90//90
f 91//91 92//92 93//93
f 94//94 95//95 96//96
f 97//97 98//98 99//99
f 100//100 101//101 102//102
f 103//103 104//104 105//105
f 106//106 107//107 108//108
f 109//109 110//110 111//111
f 112//112 113//113 114//114
f 115//115 116//116 117//117
f 118//118 119//119 120//120
f 121//121 122//122 123//123
f 124//124 125//125 126//126
f 127//127 128//128 129//129
f 130//130 131//131 132//132
f 133//133 134//134 135//135
f 136//136 137//137 138//138
f 139//139 140//140 141//141
f 142//142 143//143 144//144
f 145//145 146//146 147//147
f 148//148 149//149 150//150
f 151//151 152//152 153//153
f 154//154 155//155 156//156
f 157//157 158//158 159//159
f 160//160 161//161 162//162
f 163//163 164//164 165//165
f 166//166 167//167 168//168
f 169//169 170//170 171//171
f 172//172 173//173 174//174
f 175//175 176//176 177//177
f 178//178 179//179 180//180
f 181//181 182//182 183//183
f 184//184 185//185 186//186
f 187//187 188//188 189//189
f 190//190 191//191 192//192
f 193//193 194//194 195//195
f 196//196 197//197 198//198
f 199//199 200//200 201//201
f 202//202 203//203 204//204
f 205//205 206//206 207//207
f 208//208 209//209 210//210
f 211//211 212//212 213//213
f 214//214 215//215 216//216
f 217//217 218//218 219//219
f 220//220 221//221 222//222
f 223//223 224//224 225//225
f 226//226 227//227 228//228
f 229//229 230//230 231//231
f 232//232 233//233 234//234
f 235//235 236//236 237//237
f 238//238 239//239 240//240
f 241//241 242//242 243//243
f 244//244 245//245 246//246
f 247//247 248//248 249//249
f 250//250 251//251 252//252
f 253//253 254//254 255//255
f 256//256 257//257 258//258
f 259//259 260//260 261//261
f 262//262 263//263 264//264
f 265//265 266//266 267//267
f 268//268 269//269 270//270
f 271//271 272//272 273//273
f 274//274 275//275 276//276
f 277//277 278//278 279//279
f 280//280 281//281 282//282
f 283//283 284//284 285//285
