# Exported from SharpOpenGl procedural mesh
o solari_transport_mk2_30
# vertices 243
v -1.0238034 0.055483107 -2.2011728
v 1.0238034 0.055483107 -2.2011728
v 0 0.17338471 -1.9850577
v -1.0238034 0.055483107 -2.2011728
v 0 0.17338471 -1.9850577
v -1.2826537 0.0663937 -1.720917
v 1.0238034 0.055483107 -2.2011728
v 1.2826537 0.0663937 -1.720917
v 0 0.20748033 -1.9850577
v -1.0238034 0 -2.2011728
v -1.2826537 0 -1.720917
v 1.0238034 0 -2.2011728
v 1.0238034 0 -2.2011728
v -1.2826537 0 -1.720917
v 1.2826537 0 -1.720917
v -1.2826537 0.0663937 -1.720917
v 1.2826537 0.0663937 -1.720917
v 0 0.20748033 -1.5048018
v -1.2826537 0.0663937 -1.720917
v 0 0.20748033 -1.5048018
v -1.516166 0.07623629 -1.240661
v 1.2826537 0.0663937 -1.720917
v 1.516166 0.07623629 -1.240661
v 0 0.23823841 -1.5048018
v -1.2826537 0 -1.720917
v -1.516166 0 -1.240661
v 1.2826537 0 -1.720917
v -1.516166 0.07623629 -1.240661
v 1.516166 0.07623629 -1.240661
v 0 0.23823841 -1.0245459
v -1.516166 0.07623629 -1.240661
v 0 0.23823841 -1.0245459
v -1.7014824 0.08404742 -0.76040506
v 1.516166 0.07623629 -1.240661
v 1.7014824 0.08404742 -0.76040506
v 0 0.2626482 -1.0245459
v -1.7014824 0.08404742 -0.76040506
v 1.7014824 0.08404742 -0.76040506
v 0 0.2626482 -0.54428995
v -1.7014824 0.08404742 -0.76040506
v 0 0.2626482 -0.54428995
v -1.8204628 0.08906247 -0.28014922
v 1.7014824 0.08404742 -0.76040506
v 1.8204628 0.08906247 -0.28014922
v 0 0.27832022 -0.54428995
v -1.8204628 0.08906247 -0.28014922
v 1.8204628 0.08906247 -0.28014922
v 0 0.27832022 -0.064034104
v -1.8204628 0.08906247 -0.28014922
v 0 0.27832022 -0.064034104
v -1.8614607 0.090790525 0.20010662
v 1.8204628 0.08906247 -0.28014922
v 1.8614607 0.090790525 0.20010662
v 0 0.2837204 -0.064034104
v -1.8614607 0.090790525 0.20010662
v 1.8614607 0.090790525 0.20010662
v 0 0.2837204 0.41622186
v -1.8614607 0.090790525 0.20010662
v 0 0.2837204 0.41622186
v -1.8204628 0.08906246 0.6803627
v 1.8614607 0.090790525 0.20010662
v 1.8204628 0.08906246 0.6803627
v 0 0.2783202 0.41622186
v -1.8204628 0.08906246 0.6803627
v 1.8204628 0.08906246 0.6803627
v 0 0.2783202 0.8964777
v -1.8204628 0.08906246 0.6803627
v 0 0.2783202 0.8964777
v -1.7014824 0.08404742 1.1606183
v 1.8204628 0.08906246 0.6803627
v 1.7014824 0.08404742 1.1606183
v 0 0.2626482 0.8964777
v -1.7014824 0.08404742 1.1606183
v 1.7014824 0.08404742 1.1606183
v 0 0.2626482 1.3767335
v -1.7014824 0.08404742 1.1606183
v 0 0.2626482 1.3767335
v -1.8546133 0.076236285 1.6408744
v 1.7014824 0.08404742 1.1606183
v 1.8546133 0.076236285 1.6408744
v 0 0.2382384 1.3767335
v -1.8546133 0.076236285 1.6408744
v 1.8546133 0.076236285 1.6408744
v 0 0.2382384 1.8569894
v -1.8546133 0.076236285 1.6408744
v 0 0.2382384 1.8569894
v -1.4518775 0.0663937 2.12113
v 1.8546133 0.076236285 1.6408744
v 1.4518775 0.0663937 2.12113
v 0 0.20748033 1.8569894
v 1.8546133 0 1.6408744
v -1.4518775 0 2.12113
v 1.4518775 0 2.12113
v -1.4518775 0.0663937 2.12113
v 1.4518775 0.0663937 2.12113
v 0 0.20748033 2.3372452
v -1.4518775 0.0663937 2.12113
v 0 0.20748033 2.3372452
v -1.0238034 0.055483095 2.601386
v 1.4518775 0.0663937 2.12113
v 1.0238034 0.055483095 2.601386
v 0 0.17338468 2.3372452
v -1.4518775 0 2.12113
v -1.0238034 0 2.601386
v 1.4518775 0 2.12113
v 1.4518775 0 2.12113
v -1.0238034 0 2.601386
v 1.0238034 0 2.601386
v -3.1412148 0.3152449 1.5208102
v 3.1412148 0.3152449 1.5208102
v 0 0.4886296 -1.2006397
v -3.1412148 0.3152449 1.5208102
v 0 0.4886296 -1.2006397
v -3.1412148 0.3152449 -1.5208102
v 3.1412148 0.3152449 1.5208102
v 3.1412148 0.3152449 -1.5208102
v 0 0.4886296 -1.2006397
v -3.1412148 0.29002532 1.5208102
v 3.1412148 0.29002532 1.5208102
v 3.1412148 0.29002532 -1.5208102
v -3.1412148 0.29002532 1.5208102
v 3.1412148 0.29002532 -1.5208102
v -3.1412148 0.29002532 -1.5208102
v -2.9527419 0.3152449 -1.5208102
v -2.324499 0.3152449 -1.5208102
v -2.6386204 0.42558065 -1.120597
v -2.9527419 0.3152449 -1.5208102
v -2.6386204 0.42558065 -1.120597
v -2.8899176 0.3152449 -1.120597
v -2.324499 0.3152449 -1.5208102
v -2.3873231 0.3152449 -1.120597
v -2.6386204 0.42558065 -1.120597
v -0.31412148 0.3152449 -1.5208102
v 0.31412148 0.3152449 -1.5208102
v 0 0.42558065 -1.120597
v -0.31412148 0.3152449 -1.5208102
v 0 0.42558065 -1.120597
v -0.25129718 0.3152449 -1.120597
v 0.31412148 0.3152449 -1.5208102
v 0.25129718 0.3152449 -1.120597
v 0 0.42558065 -1.120597
v 2.324499 0.3152449 -1.5208102
v 2.9527419 0.3152449 -1.5208102
v 2.6386204 0.42558065 -1.120597
v 2.324499 0.3152449 -1.5208102
v 2.6386204 0.42558065 -1.120597
v 2.3873231 0.3152449 -1.120597
v 2.9527419 0.3152449 -1.5208102
v 2.8899176 0.3152449 -1.120597
v 2.6386204 0.42558065 -1.120597
v -2.9527419 0.3152449 1.2006396
v -2.324499 0.3152449 1.2006396
v -2.6386204 0.5674408 1.6008528
v -2.9527419 0.3152449 1.2006396
v -2.6386204 0.5674408 1.6008528
v -2.8899176 0.3152449 1.6008528
v -2.324499 0.3152449 1.2006396
v -2.3873231 0.3152449 1.6008528
v -2.6386204 0.5674408 1.6008528
v -0.31412148 0.3152449 1.2006396
v 0.31412148 0.3152449 1.2006396
v 0 0.5674408 1.6008528
v -0.31412148 0.3152449 1.2006396
v 0 0.5674408 1.6008528
v -0.25129718 0.3152449 1.6008528
v 0.31412148 0.3152449 1.2006396
v 0.25129718 0.3152449 1.6008528
v 0 0.5674408 1.6008528
v 2.324499 0.3152449 1.2006396
v 2.9527419 0.3152449 1.2006396
v 2.6386204 0.5674408 1.6008528
v 2.324499 0.3152449 1.2006396
v 2.6386204 0.5674408 1.6008528
v 2.3873231 0.3152449 1.6008528
v 2.9527419 0.3152449 1.2006396
v 2.8899176 0.3152449 1.6008528
v 2.6386204 0.5674408 1.6008528
v -0.46536517 0.2630043 0.13447165
v 0.46536517 0.2630043 0.13447165
v 0 0.8218885 0.16472778
v -0.43434083 0.29602996 0.20170748
v 0.43434083 0.29602996 0.20170748
v 0 0.92509365 0.2319636
v -0.4033165 0.32905564 0.2689433
v 0.4033165 0.32905564 0.2689433
v 0 1.0282989 0.29919943
v -0.37229213 0.3620813 0.33617914
v 0.37229213 0.3620813 0.33617914
v 0 1.131504 0.36643526
v -0.3412678 0.39510694 0.40341496
v 0.3412678 0.39510694 0.40341496
v 0 1.2347093 0.4336711
v -0.31024343 0.4281326 0.4706508
v 0.31024343 0.4281326 0.4706508
v 0 1.3379143 0.50090694
v -1.9545337 0.09006997 -2.7570248
v -2.5688157 0 -4.108445
v -1.3402517 0 -4.108445
v -1.9545337 0.37153864 -2.4498837
v -2.323103 0.09006997 -2.7570248
v -1.5859644 0.09006997 -2.7570248
v -0.65151125 0.09006997 -2.7570248
v -1.2657933 0 -4.108445
v -0.03722924 0 -4.108445
v -0.65151125 0.37153864 -2.4498837
v -1.0200804 0.09006997 -2.7570248
v -0.28294203 0.09006997 -2.7570248
v 0.65151125 0.09006997 -2.7570248
v 0.03722924 0 -4.108445
v 1.2657933 0 -4.108445
v 0.65151125 0.37153864 -2.4498837
v 0.28294203 0.09006997 -2.7570248
v 1.0200804 0.09006997 -2.7570248
v 1.9545337 0.09006997 -2.7570248
v 1.3402517 0 -4.108445
v 2.5688157 0 -4.108445
v 1.9545337 0.37153864 -2.4498837
v 1.5859644 0.09006997 -2.7570248
v 2.323103 0.09006997 -2.7570248
v -0.5119017 0.42783237 -0.2223407
v -0.83765733 0.15762246 -0.5015598
v -0.18614605 0.15762246 -0.5015598
v 0.5119017 0.42783237 -0.5480963
v 0.18614605 0.15762246 -0.8273154
v 0.83765733 0.15762246 -0.8273154
v -0.13960955 0.24769242 4.009248
v 0.13960955 0.24769242 4.009248
v 0 0.49538484 4.3578777
v -0.06980477 0.45034987 4.2271414
v 0.06980477 0.45034987 4.2271414
v 0 0.5404198 4.3578777
v -0.23268259 0.9943725 0.5336177
v 0.23268259 0.9943725 0.5336177
v 0 1.0808396 0.7114902
v -0.13960955 0.47286734 -0.088936284
v -2.1872163 0.47286734 0.17787255
v -0.13960955 1.0808396 0.4446814
v 0.13960955 0.47286734 -0.088936284
v 2.1872163 0.47286734 0.17787255
v 0.13960955 1.0808396 0.4446814
v -0.2792191 0.06755248 -0.7114902
v 0.2792191 0.06755248 -0.7114902
v 0 0.15762246 -0.5336177
vn 0 -0.87786025 0.4789167
vn 0 -0.87786025 0.4789167
vn 0 -0.87786025 0.4789167
vn 0.09832613 -0.9922832 0.075539224
vn 0.09832613 -0.9922832 0.075539224
vn 0.09832613 -0.9922832 0.075539224
vn -0.12739977 -0.98765844 0.09110439
vn -0.12739977 -0.98765844 0.09110439
vn -0.12739977 -0.98765844 0.09110439
vn 0 1 -0
vn 0 1 -0
vn 0 1 -0
vn 0 1 -0
vn 0 1 -0
vn 0 1 -0
vn 0 -0.83735895 0.5466535
vn 0 -0.83735895 0.5466535
vn 0 -0.83735895 0.5466535
vn 0.0977751 -0.9928903 0.067889415
vn 0.0977751 -0.9928903 0.067889415
vn 0.0977751 -0.9928903 0.067889415
vn -0.11940296 -0.98975027 0.07834106
vn -0.11940296 -0.98975027 0.07834106
vn -0.11940296 -0.98975027 0.07834106
vn 0 1 -0
vn 0 1 -0
vn 0 1 -0
vn 0 -0.8001497 0.59980047
vn 0 -0.8001497 0.59980047
vn 0 -0.8001497 0.59980047
vn 0.09845432 -0.99366707 0.054152098
vn 0.09845432 -0.99366707 0.054152098
vn 0.09845432 -0.99366707 0.054152098
vn -0.11339801 -0.991743 0.059887122
vn -0.11339801 -0.991743 0.059887122
vn -0.11339801 -0.991743 0.059887122
vn 0 -0.77083755 0.63703173
vn 0 -0.77083755 0.63703173
vn 0 -0.77083755 0.63703173
vn 0.0999144 -0.9943754 0.035136882
vn 0.0999144 -0.9943754 0.035136882
vn 0.0999144 -0.9943754 0.035136882
vn -0.108684674 -0.99337626 0.03729923
vn -0.108684674 -0.99337626 0.03729923
vn -0.108684674 -0.99337626 0.03729923
vn 0 -0.75230575 0.65881413
vn 0 -0.75230575 0.65881413
vn 0 -0.75230575 0.65881413
vn 0.10195362 -0.9947134 0.012282627
vn 0.10195362 -0.9947134 0.012282627
vn 0.10195362 -0.9947134 0.012282627
vn -0.10484271 -0.9944099 0.012528166
vn -0.10484271 -0.9944099 0.012528166
vn -0.10484271 -0.9944099 0.012528166
vn 0 -0.7459894 0.66595787
vn 0 -0.7459894 0.66595787
vn 0 -0.7459894 0.66595787
vn 0.10451986 -0.9944442 -0.012500738
vn 0.10451986 -0.9944442 -0.012500738
vn 0.10451986 -0.9944442 -0.012500738
vn -0.10163687 -0.9947461 -0.012255713
vn -0.10163687 -0.9947461 -0.012255713
vn -0.10163687 -0.9947461 -0.012255713
vn 0 -0.75230557 0.6588144
vn 0 -0.75230557 0.6588144
vn 0 -0.75230557 0.6588144
vn 0.10768367 -0.9934945 -0.037052475
vn 0.10768367 -0.9934945 -0.037052475
vn 0.10768367 -0.9934945 -0.037052475
vn -0.0989696 -0.99447817 -0.034903888
vn -0.0989696 -0.99447817 -0.034903888
vn -0.0989696 -0.99447817 -0.034903888
vn 0 -0.7708377 0.6370315
vn 0 -0.7708377 0.6370315
vn 0 -0.7708377 0.6370315
vn 0.10231372 -0.9946162 0.016446033
vn 0.10231372 -0.9946162 0.016446033
vn 0.10231372 -0.9946162 0.016446033
vn -0.08872191 -0.9959831 0.012090018
vn -0.08872191 -0.9959831 0.012090018
vn -0.08872191 -0.9959831 0.012090018
vn 0 -0.80014956 0.59980065
vn 0 -0.80014956 0.59980065
vn 0 -0.80014956 0.59980065
vn 0.09844498 -0.98981434 -0.102840334
vn 0.09844498 -0.98981434 -0.102840334
vn 0.09844498 -0.98981434 -0.102840334
vn -0.08049959 -0.99287534 -0.08785431
vn -0.08049959 -0.99287534 -0.08785431
vn -0.08049959 -0.99287534 -0.08785431
vn 0 1 0
vn 0 1 0
vn 0 1 0
vn 0 -0.83735895 0.5466535
vn 0 -0.83735895 0.5466535
vn 0 -0.83735895 0.5466535
vn 0.11427578 -0.98564833 -0.12425148
vn 0.11427578 -0.98564833 -0.12425148
vn 0.11427578 -0.98564833 -0.12425148
vn -0.088061936 -0.9909806 -0.10100702
vn -0.088061936 -0.9909806 -0.10100702
vn -0.088061936 -0.9909806 -0.10100702
vn 0 1 0
vn 0 1 0
vn 0 1 0
vn 0 1 0
vn 0 1 0
vn 0 1 0
vn -0 0.99797666 0.063581504
vn -0 0.99797666 0.063581504
vn -0 0.99797666 0.063581504
vn -0.055112813 0.99848014 0
vn -0.055112813 0.99848014 0
vn -0.055112813 0.99848014 0
vn 0.055112813 0.99848014 0
vn 0.055112813 0.99848014 0
vn 0.055112813 0.99848014 0
vn -0 1 0
vn -0 1 0
vn -0 1 0
vn 0 1 0
vn 0 1 0
vn 0 1 0
vn 0 -0.9640346 0.265777
vn 0 -0.9640346 0.265777
vn 0 -0.9640346 0.265777
vn 0.4012228 -0.91381264 -0.06298273
vn 0.4012228 -0.91381264 -0.06298273
vn 0.4012228 -0.91381264 -0.06298273
vn -0.4012228 -0.91381264 -0.06298273
vn -0.4012228 -0.91381264 -0.06298273
vn -0.4012228 -0.91381264 -0.06298273
vn 0 -0.9640346 0.265777
vn 0 -0.9640346 0.265777
vn 0 -0.9640346 0.265777
vn 0.40122288 -0.9138126 -0.0629828
vn 0.40122288 -0.9138126 -0.0629828
vn 0.40122288 -0.9138126 -0.0629828
vn -0.40122288 -0.9138126 -0.0629828
vn -0.40122288 -0.9138126 -0.0629828
vn -0.40122288 -0.9138126 -0.0629828
vn 0 -0.9640346 0.265777
vn 0 -0.9640346 0.265777
vn 0 -0.9640346 0.265777
vn 0.4012228 -0.91381264 -0.06298273
vn 0.4012228 -0.91381264 -0.06298273
vn 0.4012228 -0.91381264 -0.06298273
vn -0.4012228 -0.91381264 -0.06298273
vn -0.4012228 -0.91381264 -0.06298273
vn -0.4012228 -0.91381264 -0.06298273
vn 0 -0.84603286 0.53313076
vn 0 -0.84603286 0.53313076
vn 0 -0.84603286 0.53313076
vn 0.7040284 -0.7015198 -0.11051623
vn 0.7040284 -0.7015198 -0.11051623
vn 0.7040284 -0.7015198 -0.11051623
vn -0.7040284 -0.7015198 -0.11051623
vn -0.7040284 -0.7015198 -0.11051623
vn -0.7040284 -0.7015198 -0.11051623
vn 0 -0.84603286 0.53313076
vn 0 -0.84603286 0.53313076
vn 0 -0.84603286 0.53313076
vn 0.70402855 -0.7015197 -0.11051635
vn 0.70402855 -0.7015197 -0.11051635
vn 0.70402855 -0.7015197 -0.11051635
vn -0.70402855 -0.7015197 -0.11051635
vn -0.70402855 -0.7015197 -0.11051635
vn -0.70402855 -0.7015197 -0.11051635
vn 0 -0.84603286 0.53313076
vn 0 -0.84603286 0.53313076
vn 0 -0.84603286 0.53313076
vn 0.7040284 -0.7015198 -0.11051623
vn 0.7040284 -0.7015198 -0.11051623
vn 0.7040284 -0.7015198 -0.11051623
vn -0.7040284 -0.7015198 -0.11051623
vn -0.7040284 -0.7015198 -0.11051623
vn -0.7040284 -0.7015198 -0.11051623
vn 0 -0.054057498 0.99853784
vn 0 -0.054057498 0.99853784
vn 0 -0.054057498 0.99853784
vn 0 -0.048041537 0.9988454
vn 0 -0.048041537 0.9988454
vn 0 -0.048041537 0.9988454
vn 0 -0.043229368 0.9990652
vn 0 -0.043229368 0.9990652
vn 0 -0.043229368 0.9990652
vn 0 -0.03929278 0.99922776
vn 0 -0.03929278 0.99922776
vn 0 -0.03929278 0.99922776
vn 0 -0.036012873 0.99935126
vn 0 -0.036012873 0.99935126
vn 0 -0.036012873 0.99935126
vn 0 -0.03323812 0.9994474
vn 0 -0.03323812 0.9994474
vn 0 -0.03323812 0.9994474
vn 0 -0.9977864 0.06650084
vn 0 -0.9977864 0.06650084
vn 0 -0.9977864 0.06650084
vn 0 -0.73724663 0.6756238
vn 0 -0.73724663 0.6756238
vn 0 -0.73724663 0.6756238
vn 0 -0.9977864 0.06650084
vn 0 -0.9977864 0.06650084
vn 0 -0.9977864 0.06650084
vn 0 -0.73724663 0.67562383
vn 0 -0.73724663 0.67562383
vn 0 -0.73724663 0.67562383
vn 0 -0.9977864 0.06650084
vn 0 -0.9977864 0.06650084
vn 0 -0.9977864 0.06650084
vn 0 -0.73724663 0.67562383
vn 0 -0.73724663 0.67562383
vn 0 -0.73724663 0.67562383
vn 0 -0.9977864 0.06650084
vn 0 -0.9977864 0.06650084
vn 0 -0.9977864 0.06650084
vn 0 -0.73724663 0.6756238
vn 0 -0.73724663 0.6756238
vn 0 -0.73724663 0.6756238
vn 0 -0.71860486 0.6954186
vn 0 -0.71860486 0.6954186
vn 0 -0.71860486 0.6954186
vn 0 -0.71860486 0.6954186
vn 0 -0.71860486 0.6954186
vn 0 -0.71860486 0.6954186
vn 0 -0.8152006 0.57917863
vn 0 -0.8152006 0.57917863
vn 0 -0.8152006 0.57917863
vn 0 -0.8234866 0.56733567
vn 0 -0.8234866 0.56733567
vn 0 -0.8234866 0.56733567
vn 0 -0.8993652 0.43719813
vn 0 -0.8993652 0.43719813
vn 0 -0.8993652 0.43719813
vn -0.09746539 0.6565128 -0.7479916
vn -0.09746539 0.6565128 -0.7479916
vn -0.09746539 0.6565128 -0.7479916
vn -0.09746539 -0.6565128 0.7479916
vn -0.09746539 -0.6565128 0.7479916
vn -0.09746539 -0.6565128 0.7479916
vn 0 -0.89214116 0.45175683
vn 0 -0.89214116 0.45175683
vn 0 -0.89214116 0.45175683
f 1//1 2//2 3//3
f 4//4 5//5 6//6
f 7//7 8//8 9//9
f 10//10 11//11 12//12
f 13//13 14//14 15//15
f 16//16 17//17 18//18
f 19//19 20//20 21//21
f 22//22 23//23 24//24
f 25//25 26//26 27//27
f 28//28 29//29 30//30
f 31//31 32//32 33//33
f 34//34 35//35 36//36
f 37//37 38//38 39//39
f 40//40 41//41 42//42
f 43//43 44//44 45//45
f 46//46 47//47 48//48
f 49//49 50//50 51//51
f 52//52 53//53 54//54
f 55//55 56//56 57//57
f 58//58 59//59 60//60
f 61//61 62//62 63//63
f 64//64 65//65 66//66
f 67//67 68//68 69//69
f 70//70 71//71 72//72
f 73//73 74//74 75//75
f 76//76 77//77 78//78
f 79//79 80//80 81//81
f 82//82 83//83 84//84
f 85//85 86//86 87//87
f 88//88 89//89 90//90
f 91//91 92//92 93//93
f 94//94 95//95 96//96
f 97//97 98//98 99//99
f 100//100 101//101 102//102
f 103//103 104//104 105//105
f 106//106 107//107 108//108
f 109//109 110//110 111//111
f 112//112 113//113 114//114
f 115//115 116//116 117//117
f 118//118 119//119 120//120
f 121//121 122//122 123//123
f 124//124 125//125 126//126
f 127//127 128//128 129//129
f 130//130 131//131 132//132
f 133//133 134//134 135//135
f 136//136 137//137 138//138
f 139//139 140//140 141//141
f 142//142 143//143 144//144
f 145//145 146//146 147//147
f 148//148 149//149 150//150
f 151//151 152//152 153//153
f 154//154 155//155 156//156
f 157//157 158//158 159//159
f 160//160 161//161 162//162
f 163//163 164//164 165//165
f 166//166 167//167 168//168
f 169//169 170//170 171//171
f 172//172 173//173 174//174
f 175//175 176//176 177//177
f 178//178 179//179 180//180
f 181//181 182//182 183//183
f 184//184 185//185 186//186
f 187//187 188//188 189//189
f 190//190 191//191 192//192
f 193//193 194//194 195//195
f 196//196 197//197 198//198
f 199//199 200//200 201//201
f 202//202 203//203 204//204
f 205//205 206//206 207//207
f 208//208 209//209 210//210
f 211//211 212//212 213//213
f 214//214 215//215 216//216
f 217//217 218//218 219//219
f 220//220 221//221 222//222
f 223//223 224//224 225//225
f 226//226 227//227 228//228
f 229//229 230//230 231//231
f 232//232 233//233 234//234
f 235//235 236//236 237//237
f 238//238 239//239 240//240
f 241//241 242//242 243//243
