# Exported from SharpOpenGl procedural mesh
o solari_corvette_mk2_21
# vertices 345
v -0.41401228 0.024605114 -1.2350051
v 0.41401228 0.024605114 -1.2350051
v 0 0.07689098 -1.1137501
v -0.41401228 0.024605114 -1.2350051
v 0 0.07689098 -1.1137501
v -0.51868784 0.02944364 -0.96554947
v 0.41401228 0.024605114 -1.2350051
v 0.51868784 0.02944364 -0.96554947
v 0 0.09201138 -1.1137501
v -0.41401228 0 -1.2350051
v -0.51868784 0 -0.96554947
v 0.41401228 0 -1.2350051
v 0.41401228 0 -1.2350051
v -0.51868784 0 -0.96554947
v 0.51868784 0 -0.96554947
v -0.51868784 0.02944364 -0.96554947
v 0.51868784 0.02944364 -0.96554947
v 0 0.09201138 -0.8442944
v -0.51868784 0.02944364 -0.96554947
v 0 0.09201138 -0.8442944
v -0.61311704 0.033808537 -0.6960938
v 0.51868784 0.02944364 -0.96554947
v 0.61311704 0.033808537 -0.6960938
v 0 0.105651684 -0.8442944
v -0.51868784 0 -0.96554947
v -0.61311704 0 -0.6960938
v 0.51868784 0 -0.96554947
v 0.51868784 0 -0.96554947
v -0.61311704 0 -0.6960938
v 0.61311704 0 -0.6960938
v -0.61311704 0.033808537 -0.6960938
v 0.61311704 0.033808537 -0.6960938
v 0 0.105651684 -0.5748387
v -0.61311704 0.033808537 -0.6960938
v 0 0.105651684 -0.5748387
v -0.6880565 0.03727254 -0.42663807
v 0.61311704 0.033808537 -0.6960938
v 0.6880565 0.03727254 -0.42663807
v 0 0.11647669 -0.5748387
v -0.61311704 0 -0.6960938
v -0.6880565 0 -0.42663807
v 0.61311704 0 -0.6960938
v 0.61311704 0 -0.6960938
v -0.6880565 0 -0.42663807
v 0.6880565 0 -0.42663807
v -0.6880565 0.03727254 -0.42663807
v 0.6880565 0.03727254 -0.42663807
v 0 0.11647669 -0.30538303
v -0.6880565 0.03727254 -0.42663807
v 0 0.11647669 -0.30538303
v -0.7361706 0.039496567 -0.15718246
v 0.6880565 0.03727254 -0.42663807
v 0.7361706 0.039496567 -0.15718246
v 0 0.12342678 -0.30538303
v -0.6880565 0 -0.42663807
v -0.7361706 0 -0.15718246
v 0.6880565 0 -0.42663807
v 0.6880565 0 -0.42663807
v -0.7361706 0 -0.15718246
v 0.7361706 0 -0.15718246
v -0.7361706 0.039496567 -0.15718246
v 0.7361706 0.039496567 -0.15718246
v 0 0.12342678 -0.035927407
v -0.7361706 0.039496567 -0.15718246
v 0 0.12342678 -0.035927407
v -0.7527496 0.04026291 0.112273216
v 0.7361706 0.039496567 -0.15718246
v 0.7527496 0.04026291 0.112273216
v 0 0.1258216 -0.035927407
v -0.7361706 0 -0.15718246
v -0.7527496 0 0.112273216
v 0.7361706 0 -0.15718246
v 0.7361706 0 -0.15718246
v -0.7527496 0 0.112273216
v 0.7527496 0 0.112273216
v -0.7527496 0.04026291 0.112273216
v 0.7527496 0.04026291 0.112273216
v 0 0.1258216 0.23352832
v -0.7527496 0.04026291 0.112273216
v 0 0.1258216 0.23352832
v -0.7361706 0.039496567 0.381729
v 0.7527496 0.04026291 0.112273216
v 0.7361706 0.039496567 0.381729
v 0 0.12342677 0.23352832
v -0.7527496 0 0.112273216
v -0.7361706 0 0.381729
v 0.7527496 0 0.112273216
v 0.7527496 0 0.112273216
v -0.7361706 0 0.381729
v 0.7361706 0 0.381729
v -0.7361706 0.039496567 0.381729
v 0.7361706 0.039496567 0.381729
v 0 0.12342677 0.502984
v -0.7361706 0.039496567 0.381729
v 0 0.12342677 0.502984
v -0.6880565 0.03727254 0.65118456
v 0.7361706 0.039496567 0.381729
v 0.6880565 0.03727254 0.65118456
v 0 0.11647669 0.502984
v -0.7361706 0 0.381729
v -0.6880565 0 0.65118456
v 0.7361706 0 0.381729
v 0.7361706 0 0.381729
v -0.6880565 0 0.65118456
v 0.6880565 0 0.65118456
v -0.6880565 0.03727254 0.65118456
v 0.6880565 0.03727254 0.65118456
v 0 0.11647669 0.7724396
v -0.6880565 0.03727254 0.65118456
v 0 0.11647669 0.7724396
v -0.7499806 0.033808537 0.92064023
v 0.6880565 0.03727254 0.65118456
v 0.7499806 0.033808537 0.92064023
v 0 0.10565168 0.7724396
v -0.6880565 0 0.65118456
v -0.7499806 0 0.92064023
v 0.6880565 0 0.65118456
v 0.6880565 0 0.65118456
v -0.7499806 0 0.92064023
v 0.7499806 0 0.92064023
v -0.7499806 0.033808537 0.92064023
v 0.7499806 0.033808537 0.92064023
v 0 0.10565168 1.0418953
v -0.7499806 0.033808537 0.92064023
v 0 0.10565168 1.0418953
v -0.5871197 0.02944364 1.1900959
v 0.7499806 0.033808537 0.92064023
v 0.5871197 0.02944364 1.1900959
v 0 0.09201138 1.0418953
v -0.7499806 0 0.92064023
v -0.5871197 0 1.1900959
v 0.7499806 0 0.92064023
v 0.7499806 0 0.92064023
v -0.5871197 0 1.1900959
v 0.5871197 0 1.1900959
v -0.5871197 0.02944364 1.1900959
v 0.5871197 0.02944364 1.1900959
v 0 0.09201138 1.311351
v -0.5871197 0.02944364 1.1900959
v 0 0.09201138 1.311351
v -0.41401225 0.024605112 1.4595516
v 0.5871197 0.02944364 1.1900959
v 0.41401225 0.024605112 1.4595516
v 0 0.076890975 1.311351
v -0.5871197 0 1.1900959
v -0.41401225 0 1.4595516
v 0.5871197 0 1.1900959
v 0.5871197 0 1.1900959
v -0.41401225 0 1.4595516
v 0.41401225 0 1.4595516
v -1.270265 0.13980179 0.85327625
v 1.270265 0.13980179 0.85327625
v 0 0.21669276 -0.6736392
v -1.270265 0.13980179 0.85327625
v 0 0.21669276 -0.6736392
v -1.270265 0.13980179 -0.85327625
v 1.270265 0.13980179 0.85327625
v 1.270265 0.13980179 -0.85327625
v 0 0.21669276 -0.6736392
v -1.270265 0.12861764 0.85327625
v 1.270265 0.12861764 0.85327625
v 1.270265 0.12861764 -0.85327625
v -1.270265 0.12861764 0.85327625
v 1.270265 0.12861764 -0.85327625
v -1.270265 0.12861764 -0.85327625
v -1.270265 0.12861764 0.85327625
v -1.270265 0.13980179 0.85327625
v 1.270265 0.13980179 0.85327625
v -1.270265 0.12861764 -0.85327625
v 1.270265 0.13980179 -0.85327625
v -1.270265 0.13980179 -0.85327625
v 1.270265 0.12861764 -0.85327625
v 1.270265 0.13980179 -0.85327625
v 1.270265 0.13980179 0.85327625
v 1.270265 0.12861764 0.85327625
v 1.270265 0.13980179 0.85327625
v 1.270265 0.13980179 -0.85327625
v -1.1940491 0.13980179 -0.85327625
v -0.93999606 0.13980179 -0.85327625
v -1.0670226 0.18873242 -0.6287299
v -1.1940491 0.13980179 -0.85327625
v -1.0670226 0.18873242 -0.6287299
v -1.1686437 0.13980179 -0.6287299
v -0.93999606 0.13980179 -0.85327625
v -0.96540135 0.13980179 -0.6287299
v -1.0670226 0.18873242 -0.6287299
v -0.1270265 0.13980179 -0.85327625
v 0.1270265 0.13980179 -0.85327625
v 0 0.18873242 -0.6287299
v -0.1270265 0.13980179 -0.85327625
v 0 0.18873242 -0.6287299
v -0.101621196 0.13980179 -0.6287299
v 0.1270265 0.13980179 -0.85327625
v 0.101621196 0.13980179 -0.6287299
v 0 0.18873242 -0.6287299
v 0.93999606 0.13980179 -0.85327625
v 1.1940491 0.13980179 -0.85327625
v 1.0670226 0.18873242 -0.6287299
v 0.93999606 0.13980179 -0.85327625
v 1.0670226 0.18873242 -0.6287299
v 0.96540135 0.13980179 -0.6287299
v 1.1940491 0.13980179 -0.85327625
v 1.1686437 0.13980179 -0.6287299
v 1.0670226 0.18873242 -0.6287299
v -1.1940491 0.13980179 0.6736392
v -0.93999606 0.13980179 0.6736392
v -1.0670226 0.2516432 0.89818555
v -1.1940491 0.13980179 0.6736392
v -1.0670226 0.2516432 0.89818555
v -1.1686437 0.13980179 0.89818555
v -0.93999606 0.13980179 0.6736392
v -0.96540135 0.13980179 0.89818555
v -1.0670226 0.2516432 0.89818555
v -0.1270265 0.13980179 0.6736392
v 0.1270265 0.13980179 0.6736392
v 0 0.2516432 0.89818555
v -0.1270265 0.13980179 0.6736392
v 0 0.2516432 0.89818555
v -0.101621196 0.13980179 0.89818555
v 0.1270265 0.13980179 0.6736392
v 0.101621196 0.13980179 0.89818555
v 0 0.2516432 0.89818555
v 0.93999606 0.13980179 0.6736392
v 1.1940491 0.13980179 0.6736392
v 1.0670226 0.2516432 0.89818555
v 0.93999606 0.13980179 0.6736392
v 1.0670226 0.2516432 0.89818555
v 0.96540135 0.13980179 0.89818555
v 1.1940491 0.13980179 0.6736392
v 1.1686437 0.13980179 0.89818555
v 1.0670226 0.2516432 0.89818555
v -0.1881874 0.11663463 0.07544758
v 0.1881874 0.11663463 0.07544758
v 0 0.36448324 0.09242329
v -0.1881874 0.11663463 0.07544758
v 0 0.36448324 0.09242329
v -0.17564158 0.13128053 0.11317137
v 0.1881874 0.11663463 0.07544758
v 0.17564158 0.13128053 0.11317137
v 0 0.41025168 0.09242329
v -0.1881874 0 0.07544758
v -0.17564158 0 0.11317137
v 0.1881874 0 0.07544758
v 0.1881874 0 0.07544758
v -0.17564158 0 0.11317137
v 0.17564158 0 0.11317137
v -0.17564158 0.13128053 0.11317137
v 0.17564158 0.13128053 0.11317137
v 0 0.41025168 0.13014707
v -0.17564158 0.13128053 0.11317137
v 0 0.41025168 0.13014707
v -0.16309576 0.14592643 0.15089516
v 0.17564158 0.13128053 0.11317137
v 0.16309576 0.14592643 0.15089516
v 0 0.45602012 0.13014707
v -0.17564158 0 0.11317137
v -0.16309576 0 0.15089516
v 0.17564158 0 0.11317137
v 0.17564158 0 0.11317137
v -0.16309576 0 0.15089516
v 0.16309576 0 0.15089516
v -0.16309576 0.14592643 0.15089516
v 0.16309576 0.14592643 0.15089516
v 0 0.45602012 0.16787086
v -0.16309576 0.14592643 0.15089516
v 0 0.45602012 0.16787086
v -0.15054993 0.16057234 0.18861896
v 0.16309576 0.14592643 0.15089516
v 0.15054993 0.16057234 0.18861896
v 0 0.50178856 0.16787086
v -0.16309576 0 0.15089516
v -0.15054993 0 0.18861896
v 0.16309576 0 0.15089516
v 0.16309576 0 0.15089516
v -0.15054993 0 0.18861896
v 0.15054993 0 0.18861896
v -0.15054993 0.16057234 0.18861896
v 0.15054993 0.16057234 0.18861896
v 0 0.50178856 0.20559466
v -0.15054993 0.16057234 0.18861896
v 0 0.50178856 0.20559466
v -0.1380041 0.17521824 0.22634274
v 0.15054993 0.16057234 0.18861896
v 0.1380041 0.17521824 0.22634274
v 0 0.547557 0.20559466
v -0.15054993 0 0.18861896
v -0.1380041 0 0.22634274
v 0.15054993 0 0.18861896
v 0.15054993 0 0.18861896
v -0.1380041 0 0.22634274
v 0.1380041 0 0.22634274
v -0.1380041 0.17521824 0.22634274
v 0.1380041 0.17521824 0.22634274
v 0 0.547557 0.24331844
v -0.1380041 0.17521824 0.22634274
v 0 0.547557 0.24331844
v -0.12545826 0.18986413 0.26406652
v 0.1380041 0.17521824 0.22634274
v 0.12545826 0.18986413 0.26406652
v 0 0.59332544 0.24331844
v -0.1380041 0 0.22634274
v -0.12545826 0 0.26406652
v 0.1380041 0 0.22634274
v 0.1380041 0 0.22634274
v -0.12545826 0 0.26406652
v 0.12545826 0 0.26406652
v -0.12545826 0.18986413 0.26406652
v 0.12545826 0.18986413 0.26406652
v 0 0.59332544 0.28104222
v -0.12545826 0.18986413 0.26406652
v 0 0.59332544 0.28104222
v -0.112912446 0.20451003 0.30179033
v 0.12545826 0.18986413 0.26406652
v 0.112912446 0.20451003 0.30179033
v 0 0.6390939 0.28104222
v -0.12545826 0 0.26406652
v -0.112912446 0 0.30179033
v 0.12545826 0 0.26406652
v 0.12545826 0 0.26406652
v -0.112912446 0 0.30179033
v 0.112912446 0 0.30179033
v -0.79038703 0.039943367 -1.5468751
v -1.0162119 0 -2.0436897
v -0.56456214 0 -2.0436897
v -0.79038703 0.1647664 -1.4339627
v -0.925882 0.039943367 -1.5468751
v -0.6548921 0.039943367 -1.5468751
v -0.26346236 0.039943367 -1.5468751
v -0.48928726 0 -2.0436897
v -0.037637487 0 -2.0436897
v -0.26346236 0.1647664 -1.4339627
v -0.3989573 0.039943367 -1.5468751
v -0.12796743 0.039943367 -1.5468751
v 0.26346236 0.039943367 -1.5468751
v 0.037637487 0 -2.0436897
v 0.48928726 0 -2.0436897
v 0.26346236 0.1647664 -1.4339627
v 0.12796743 0.039943367 -1.5468751
v 0.3989573 0.039943367 -1.5468751
v 0.79038703 0.039943367 -1.5468751
v 0.56456214 0 -2.0436897
v 1.0162119 0 -2.0436897
v 0.79038703 0.1647664 -1.4339627
v 0.6548921 0.039943367 -1.5468751
v 0.925882 0.039943367 -1.5468751
vn 0 -0.9182669 0.39596194
vn 0 -0.9182669 0.39596194
vn 0 -0.9182669 0.39596194
vn 0.10783912 -0.99237347 0.059712034
vn 0.10783912 -0.99237347 0.059712034
vn 0.10783912 -0.99237347 0.059712034
vn -0.13970076 -0.98757243 0.072003126
vn -0.13970076 -0.98757243 0.072003126
vn -0.13970076 -0.98757243 0.072003126
vn 0 1 -0
vn 0 1 -0
vn 0 1 -0
vn 0 1 -0
vn 0 1 -0
vn 0 1 -0
vn 0 -0.8886669 0.45855317
vn 0 -0.8886669 0.45855317
vn 0 -0.8886669 0.45855317
vn 0.10721392 -0.9927871 0.0536546
vn 0.10721392 -0.9927871 0.0536546
vn 0.10721392 -0.9927871 0.0536546
vn -0.1309049 -0.98946047 0.061903078
vn -0.1309049 -0.98946047 0.061903078
vn -0.1309049 -0.98946047 0.061903078
vn 0 1 -0
vn 0 1 -0
vn 0 1 -0
vn 0 1 -0
vn 0 1 -0
vn 0 1 -0
vn 0 -0.8603281 0.5097408
vn 0 -0.8603281 0.5097408
vn 0 -0.8603281 0.5097408
vn 0.10792332 -0.9932382 0.042783644
vn 0.10792332 -0.9932382 0.042783644
vn 0.10792332 -0.9932382 0.042783644
vn -0.124279656 -0.99111897 0.047305327
vn -0.124279656 -0.99111897 0.047305327
vn -0.124279656 -0.99111897 0.047305327
vn 0 1 -0
vn 0 1 -0
vn 0 1 -0
vn 0 1 -0
vn 0 1 -0
vn 0 1 -0
vn 0 -0.83721614 0.54687214
vn 0 -0.83721614 0.54687214
vn 0 -0.83721614 0.54687214
vn 0.10948577 -0.9936009 0.027750771
vn 0.10948577 -0.9936009 0.027750771
vn 0.10948577 -0.9936009 0.027750771
vn -0.11907765 -0.992448 0.029453985
vn -0.11907765 -0.992448 0.029453985
vn -0.11907765 -0.992448 0.029453985
vn 0 1 -0
vn 0 1 -0
vn 0 1 -0
vn 0 1 -0
vn 0 1 -0
vn 0 1 -0
vn 0 -0.82224166 0.5691385
vn 0 -0.82224166 0.5691385
vn 0 -0.82224166 0.5691385
vn 0.11169298 -0.99369544 0.009698347
vn 0.11169298 -0.99369544 0.009698347
vn 0.11169298 -0.99369544 0.009698347
vn -0.11485127 -0.99333346 0.009891639
vn -0.11485127 -0.99333346 0.009891639
vn -0.11485127 -0.99333346 0.009891639
vn 0 1 -0
vn 0 1 -0
vn 0 1 -0
vn 0 0.99999994 -0
vn 0 0.99999994 -0
vn 0 0.99999994 -0
vn 0 -0.8170731 0.5765342
vn 0 -0.8170731 0.5765342
vn 0 -0.8170731 0.5765342
vn 0.11449838 -0.9933744 -0.009870038
vn 0.11449838 -0.9933744 -0.009870038
vn 0.11449838 -0.9933744 -0.009870038
vn -0.11134671 -0.9937344 -0.0096771475
vn -0.11134671 -0.9937344 -0.0096771475
vn -0.11134671 -0.9937344 -0.0096771475
vn 0 1 0
vn 0 1 0
vn 0 1 0
vn 0 0.99999994 0
vn 0 0.99999994 0
vn 0 0.99999994 0
vn 0 -0.82224154 0.56913877
vn 0 -0.82224154 0.56913877
vn 0 -0.82224154 0.56913877
vn 0.11798311 -0.9925844 -0.029259676
vn 0.11798311 -0.9925844 -0.029259676
vn 0.11798311 -0.9925844 -0.029259676
vn -0.108452186 -0.9937194 -0.027567199
vn -0.108452186 -0.9937194 -0.027567199
vn -0.108452186 -0.9937194 -0.027567199
vn 0 1 0
vn 0 1 0
vn 0 1 0
vn 0 1 0
vn 0 1 0
vn 0 1 0
vn 0 -0.83721614 0.54687214
vn 0 -0.83721614 0.54687214
vn 0 -0.83721614 0.54687214
vn 0.11208918 -0.9936133 0.012985967
vn 0.11208918 -0.9936133 0.012985967
vn 0.11208918 -0.9936133 0.012985967
vn -0.09722202 -0.9952169 0.009548703
vn -0.09722202 -0.9952169 0.009548703
vn -0.09722202 -0.9952169 0.009548703
vn 0 0.99999994 -0
vn 0 0.99999994 -0
vn 0 0.99999994 -0
vn 0 1 -0
vn 0 1 -0
vn 0 1 -0
vn 0 -0.86032796 0.50974095
vn 0 -0.86032796 0.50974095
vn 0 -0.86032796 0.50974095
vn 0.10806805 -0.9908082 -0.08136714
vn 0.10806805 -0.9908082 -0.08136714
vn 0.10806805 -0.9908082 -0.08136714
vn -0.088349804 -0.9936623 -0.06949553
vn -0.088349804 -0.9936623 -0.06949553
vn -0.088349804 -0.9936623 -0.06949553
vn 0 1 0
vn 0 1 0
vn 0 1 0
vn 0 1 0
vn 0 1 0
vn 0 1 0
vn 0 -0.888667 0.45855317
vn 0 -0.888667 0.45855317
vn 0 -0.888667 0.45855317
vn 0.12551817 -0.98720294 -0.098363996
vn 0.12551817 -0.98720294 -0.098363996
vn 0.12551817 -0.98720294 -0.098363996
vn -0.09668228 -0.99210095 -0.079926796
vn -0.09668228 -0.99210095 -0.079926796
vn -0.09668228 -0.99210095 -0.079926796
vn 0 1 0
vn 0 1 0
vn 0 1 0
vn 0 1 0
vn 0 1 0
vn 0 1 0
vn -0 0.9987345 0.05029333
vn -0 0.9987345 0.05029333
vn -0 0.9987345 0.05029333
vn -0.060420856 0.998173 0
vn -0.060420856 0.998173 0
vn -0.060420856 0.998173 0
vn 0.060420856 0.998173 0
vn 0.060420856 0.998173 0
vn 0.060420856 0.998173 0
vn -0 1 0
vn -0 1 0
vn -0 1 0
vn 0 1 0
vn 0 1 0
vn 0 1 0
vn 0 0 -1
vn 0 0 -1
vn 0 0 -1
vn 0 0 1
vn 0 0 1
vn 0 0 1
vn 1 0 0
vn 1 0 0
vn 1 0 0
vn -1 0 0
vn -1 0 0
vn -1 0 0
vn 0 -0.9770713 0.21291243
vn 0 -0.9770713 0.21291243
vn 0 -0.9770713 0.21291243
vn 0.43330786 -0.89991164 -0.049024895
vn 0.43330786 -0.89991164 -0.049024895
vn 0.43330786 -0.89991164 -0.049024895
vn -0.43330765 -0.8999117 -0.04902464
vn -0.43330765 -0.8999117 -0.04902464
vn -0.43330765 -0.8999117 -0.04902464
vn 0 -0.9770712 0.21291243
vn 0 -0.9770712 0.21291243
vn 0 -0.9770712 0.21291243
vn 0.43330768 -0.89991164 -0.049024675
vn 0.43330768 -0.89991164 -0.049024675
vn 0.43330768 -0.89991164 -0.049024675
vn -0.43330768 -0.89991164 -0.049024675
vn -0.43330768 -0.89991164 -0.049024675
vn -0.43330768 -0.89991164 -0.049024675
vn 0 -0.9770713 0.21291243
vn 0 -0.9770713 0.21291243
vn 0 -0.9770713 0.21291243
vn 0.43330765 -0.8999117 -0.04902464
vn 0.43330765 -0.8999117 -0.04902464
vn 0.43330765 -0.8999117 -0.04902464
vn -0.43330786 -0.89991164 -0.049024895
vn -0.43330786 -0.89991164 -0.049024895
vn -0.43330786 -0.89991164 -0.049024895
vn 0 -0.89511466 0.44583616
vn 0 -0.89511466 0.44583616
vn 0 -0.89511466 0.44583616
vn 0.7375329 -0.6701358 -0.083445236
vn 0.7375329 -0.6701358 -0.083445236
vn 0.7375329 -0.6701358 -0.083445236
vn -0.7375328 -0.67013603 -0.08344483
vn -0.7375328 -0.67013603 -0.08344483
vn -0.7375328 -0.67013603 -0.08344483
vn 0 -0.89511454 0.44583613
vn 0 -0.89511454 0.44583613
vn 0 -0.89511454 0.44583613
vn 0.73753285 -0.670136 -0.08344488
vn 0.73753285 -0.670136 -0.08344488
vn 0.73753285 -0.670136 -0.08344488
vn -0.73753285 -0.670136 -0.08344488
vn -0.73753285 -0.670136 -0.08344488
vn -0.73753285 -0.670136 -0.08344488
vn 0 -0.89511466 0.44583616
vn 0 -0.89511466 0.44583616
vn 0 -0.89511466 0.44583616
vn 0.7375328 -0.67013603 -0.08344483
vn 0.7375328 -0.67013603 -0.08344483
vn 0.7375328 -0.67013603 -0.08344483
vn -0.7375329 -0.6701358 -0.083445236
vn -0.7375329 -0.6701358 -0.083445236
vn -0.7375329 -0.6701358 -0.083445236
vn 0 -0.06833215 0.99766254
vn 0 -0.06833215 0.99766254
vn 0 -0.06833215 0.99766254
vn 0.79707515 -0.60308695 -0.030941095
vn 0.79707515 -0.60308695 -0.030941095
vn 0.79707515 -0.60308695 -0.030941095
vn -0.8416142 -0.53524613 -0.07209203
vn -0.8416142 -0.53524613 -0.07209203
vn -0.8416142 -0.53524613 -0.07209203
vn 0 0.99999994 0
vn 0 0.99999994 0
vn 0 0.99999994 0
vn 0 1 0
vn 0 1 0
vn 0 1 0
vn 0 -0.060738754 0.99815375
vn 0 -0.060738754 0.99815375
vn 0 -0.060738754 0.99815375
vn 0.84586036 -0.52791166 -0.07635156
vn 0.84586036 -0.52791166 -0.07635156
vn 0.84586036 -0.52791166 -0.07635156
vn -0.8766661 -0.46842748 -0.10969084
vn -0.8766661 -0.46842748 -0.10969084
vn -0.8766661 -0.46842748 -0.10969084
vn 0 1 0
vn 0 1 0
vn 0 1 0
vn 0 1 0
vn 0 1 0
vn 0 1 0
vn 0 -0.054661933 0.99850494
vn 0 -0.054661933 0.99850494
vn 0 -0.054661933 0.99850494
vn 0.8817054 -0.45740768 -0.11564507
vn 0.8817054 -0.45740768 -0.11564507
vn 0.8817054 -0.45740768 -0.11564507
vn -0.902389 -0.4067932 -0.14217445
vn -0.902389 -0.4067932 -0.14217445
vn -0.902389 -0.4067932 -0.14217445
vn 0 1 0
vn 0 1 0
vn 0 1 0
vn 0 1 0
vn 0 1 0
vn 0 1 0
vn 0 -0.049689118 0.99876475
vn 0 -0.049689118 0.99876475
vn 0 -0.049689118 0.99876475
vn 0.90738183 -0.39292738 -0.14921862
vn 0.90738183 -0.39292738 -0.14921862
vn 0.90738183 -0.39292738 -0.14921862
vn -0.9208809 -0.35079318 -0.17006622
vn -0.9208809 -0.35079318 -0.17006622
vn -0.9208809 -0.35079318 -0.17006622
vn 0 1 0
vn 0 1 0
vn 0 1 0
vn 0 1 0
vn 0 1 0
vn 0 1 0
vn 0 -0.04554478 0.99896234
vn 0 -0.04554478 0.99896234
vn 0 -0.04554478 0.99896234
vn 0.92535 -0.33486956 -0.17773482
vn 0.92535 -0.33486956 -0.17773482
vn 0.92535 -0.33486956 -0.17773482
vn -0.93389106 -0.30037278 -0.19396836
vn -0.93389106 -0.30037278 -0.19396836
vn -0.93389106 -0.30037278 -0.19396836
vn 0 1 0
vn 0 1 0
vn 0 1 0
vn 0 1 0
vn 0 1 0
vn 0 1 0
vn 0 -0.042037964 0.99911594
vn 0 -0.042037964 0.99911594
vn 0 -0.042037964 0.99911594
vn 0.93760586 -0.28305706 -0.20192547
vn 0.93760586 -0.28305706 -0.20192547
vn 0.93760586 -0.28305706 -0.20192547
vn -0.94280297 -0.25519598 -0.21447065
vn -0.94280297 -0.25519598 -0.21447065
vn -0.94280297 -0.25519598 -0.21447065
vn 0 1 0
vn 0 1 0
vn 0 1 0
vn 0 1 0
vn 0 1 0
vn 0 1 0
vn 0 -0.99678355 0.08014034
vn 0 -0.99678355 0.08014034
vn 0 -0.99678355 0.08014034
vn 0 -0.67083913 0.7416029
vn 0 -0.67083913 0.7416029
vn 0 -0.67083913 0.7416029
vn 0 -0.99678355 0.08014033
vn 0 -0.99678355 0.08014033
vn 0 -0.99678355 0.08014033
vn 0 -0.67083913 0.74160284
vn 0 -0.67083913 0.74160284
vn 0 -0.67083913 0.74160284
vn 0 -0.99678355 0.08014033
vn 0 -0.99678355 0.08014033
vn 0 -0.99678355 0.08014033
vn 0 -0.67083913 0.74160284
vn 0 -0.67083913 0.74160284
vn 0 -0.67083913 0.74160284
vn 0 -0.99678355 0.08014034
vn 0 -0.99678355 0.08014034
vn 0 -0.99678355 0.08014034
vn 0 -0.67083913 0.7416029
vn 0 -0.67083913 0.7416029
vn 0 -0.67083913 0.7416029
f 1//1 2//2 3//3
f 4//4 5//5 6//6
f 7//7 8//8 9//9
f 10//10 11//11 12//12
f 13//13 14//14 15//15
f 16//16 17//17 18//18
f 19//19 20//20 21//21
f 22//22 23//23 24//24
f 25//25 26//26 27//27
f 28//28 29//29 30//30
f 31//31 32//32 33//33
f 34//34 35//35 36//36
f 37//37 38//38 39//39
f 40//40 41//41 42//42
f 43//43 44//44 45//45
f 46//46 47//47 48//48
f 49//49 50//50 51//51
f 52//52 53//53 54//54
f 55//55 56//56 57//57
f 58//58 59//59 60//60
f 61//61 62//62 63//63
f 64//64 65//65 66//66
f 67//67 68//68 69//69
f 70//70 71//71 72//72
f 73//73 74//74 75//75
f 76//76 77//77 78//78
f 79//79 80//80 81//81
f 82//82 83//83 84//84
f 85//85 86//86 87//87
f 88//88 89//89 90//90
f 91//91 92//92 93//93
f 94//94 95//95 96//96
f 97//97 98//98 99//99
f 100//100 101//101 102//102
f 103//103 104//104 105//105
f 106//106 107//107 108//108
f 109//109 110//110 111//111
f 112//112 113//113 114//114
f 115//115 116//116 117//117
f 118//118 119//119 120//120
f 121//121 122//122 123//123
f 124//124 125//125 126//126
f 127//127 128//128 129//129
f 130//130 131//131 132//132
f 133//133 134//134 135//135
f 136//136 137//137 138//138
f 139//139 140//140 141//141
f 142//142 143//143 144//144
f 145//145 146//146 147//147
f 148//148 149//149 150//150
f 151//151 152//152 153//153
f 154//154 155//155 156//156
f 157//157 158//158 159//159
f 160//160 161//161 162//162
f 163//163 164//164 165//165
f 166//166 167//167 168//168
f 169//169 170//170 171//171
f 172//172 173//173 174//174
f 175//175 176//176 177//177
f 178//178 179//179 180//180
f 181//181 182//182 183//183
f 184//184 185//185 186//186
f 187//187 188//188 189//189
f 190//190 191//191 192//192
f 193//193 194//194 195//195
f 196//196 197//197 198//198
f 199//199 200//200 201//201
f 202//202 203//203 204//204
f 205//205 206//206 207//207
f 208//208 209//209 210//210
f 211//211 212//212 213//213
f 214//214 215//215 216//216
f 217//217 218//218 219//219
f 220//220 221//221 222//222
f 223//223 224//224 225//225
f 226//226 227//227 228//228
f 229//229 230//230 231//231
f 232//232 233//233 234//234
f 235//235 236//236 237//237
f 238//238 239//239 240//240
f 241//241 242//242 243//243
f 244//244 245//245 246//246
f 247//247 248//248 249//249
f 250//250 251//251 252//252
f 253//253 254//254 255//255
f 256//256 257//257 258//258
f 259//259 260//260 261//261
f 262//262 263//263 264//264
f 265//265 266//266 267//267
f 268//268 269//269 270//270
f 271//271 272//272 273//273
f 274//274 275//275 276//276
f 277//277 278//278 279//279
f 280//280 281//281 282//282
f 283//283 284//284 285//285
f 286//286 287//287 288//288
f 289//289 290//290 291//291
f 292//292 293//293 294//294
f 295//295 296//296 297//297
f 298//298 299//299 300//300
f 301//301 302//302 303//303
f 304//304 305//305 306//306
f 307//307 308//308 309//309
f 310//310 311//311 312//312
f 313//313 314//314 315//315
f 316//316 317//317 318//318
f 319//319 320//320 321//321
f 322//322 323//323 324//324
f 325//325 326//326 327//327
f 328//328 329//329 330//330
f 331//331 332//332 333//333
f 334//334 335//335 336//336
f 337//337 338//338 339//339
f 340//340 341//341 342//342
f 343//343 344//344 345//345
