# Exported from SharpOpenGl procedural mesh
o solari_drone_mk2_20
# vertices 279
v -0.18552265 0.010356 -0.39619777
v 0.18552265 0.010356 -0.39619777
v 0 0.0323625 -0.3313654
v -0.18552265 0.010356 -0.39619777
v 0 0.0323625 -0.3313654
v -0.26141828 0.013651091 -0.25212586
v 0.18552265 0.010356 -0.39619777
v 0.26141828 0.013651091 -0.25212586
v 0 0.04265966 -0.3313654
v -0.18552265 0 -0.39619777
v -0.26141828 0 -0.25212586
v 0.18552265 0 -0.39619777
v 0.18552265 0 -0.39619777
v -0.26141828 0 -0.25212586
v 0.26141828 0 -0.25212586
v -0.26141828 0.013651091 -0.25212586
v 0.26141828 0.013651091 -0.25212586
v 0 0.04265966 -0.1872935
v -0.26141828 0.013651091 -0.25212586
v 0 0.04265966 -0.1872935
v -0.31697777 0.016063264 -0.10805392
v 0.26141828 0.013651091 -0.25212586
v 0.31697777 0.016063264 -0.10805392
v 0 0.050197702 -0.1872935
v -0.26141828 0 -0.25212586
v -0.31697777 0 -0.10805392
v 0.26141828 0 -0.25212586
v 0.26141828 0 -0.25212586
v -0.31697777 0 -0.10805392
v 0.31697777 0 -0.10805392
v -0.31697777 0.016063264 -0.10805392
v 0.31697777 0.016063264 -0.10805392
v 0 0.050197702 -0.043221563
v -0.31697777 0.016063264 -0.10805392
v 0 0.050197702 -0.043221563
v -0.33731392 0.01694618 0.036017984
v 0.31697777 0.016063264 -0.10805392
v 0.33731392 0.01694618 0.036017984
v 0 0.052956816 -0.043221563
v -0.31697777 0 -0.10805392
v -0.33731392 0 0.036017984
v 0.31697777 0 -0.10805392
v 0.31697777 0 -0.10805392
v -0.33731392 0 0.036017984
v 0.33731392 0 0.036017984
v -0.33731392 0.01694618 0.036017984
v 0.33731392 0.01694618 0.036017984
v 0 0.052956816 0.10085035
v -0.33731392 0.01694618 0.036017984
v 0 0.052956816 0.10085035
v -0.31697777 0.016063264 0.18008992
v 0.33731392 0.01694618 0.036017984
v 0.31697777 0.016063264 0.18008992
v 0 0.050197702 0.10085035
v -0.33731392 0 0.036017984
v -0.31697777 0 0.18008992
v 0.33731392 0 0.036017984
v 0.33731392 0 0.036017984
v -0.31697777 0 0.18008992
v 0.31697777 0 0.18008992
v -0.31697777 0.016063264 0.18008992
v 0.31697777 0.016063264 0.18008992
v 0 0.050197702 0.24492227
v -0.31697777 0.016063264 0.18008992
v 0 0.050197702 0.24492227
v -0.31252646 0.013651091 0.3241618
v 0.31697777 0.016063264 0.18008992
v 0.31252646 0.013651091 0.3241618
v 0 0.04265966 0.24492227
v -0.31697777 0 0.18008992
v -0.31252646 0 0.3241618
v 0.31697777 0 0.18008992
v 0.31697777 0 0.18008992
v -0.31252646 0 0.3241618
v 0.31252646 0 0.3241618
v -0.31252646 0.013651091 0.3241618
v 0.31252646 0.013651091 0.3241618
v 0 0.04265966 0.38899416
v -0.31252646 0.013651091 0.3241618
v 0 0.04265966 0.38899416
v -0.18552265 0.010356 0.46823373
v 0.31252646 0.013651091 0.3241618
v 0.18552265 0.010356 0.46823373
v 0 0.0323625 0.38899416
v -0.31252646 0 0.3241618
v -0.18552265 0 0.46823373
v 0.31252646 0 0.3241618
v 0.31252646 0 0.3241618
v -0.18552265 0 0.46823373
v 0.18552265 0 0.46823373
v -0.56921726 0.058840908 0.27373663
v 0.56921726 0.058840908 0.27373663
v 0 0.09120341 -0.21610786
v -0.56921726 0.058840908 0.27373663
v 0 0.09120341 -0.21610786
v -0.56921726 0.058840908 -0.27373663
v 0.56921726 0.058840908 0.27373663
v 0.56921726 0.058840908 -0.27373663
v 0 0.09120341 -0.21610786
v -0.56921726 0.054133635 0.27373663
v 0.56921726 0.054133635 0.27373663
v 0.56921726 0.054133635 -0.27373663
v -0.56921726 0.054133635 0.27373663
v 0.56921726 0.054133635 -0.27373663
v -0.56921726 0.054133635 -0.27373663
v -0.56921726 0.054133635 0.27373663
v -0.56921726 0.058840908 0.27373663
v 0.56921726 0.058840908 0.27373663
v -0.56921726 0.054133635 -0.27373663
v 0.56921726 0.058840908 -0.27373663
v -0.56921726 0.058840908 -0.27373663
v 0.56921726 0.054133635 -0.27373663
v 0.56921726 0.058840908 -0.27373663
v 0.56921726 0.058840908 0.27373663
v 0.56921726 0.054133635 0.27373663
v 0.56921726 0.058840908 0.27373663
v 0.56921726 0.058840908 -0.27373663
v -0.5350642 0.058840908 -0.27373663
v -0.42122078 0.058840908 -0.27373663
v -0.4781425 0.07943523 -0.20170066
v -0.5350642 0.058840908 -0.27373663
v -0.4781425 0.07943523 -0.20170066
v -0.52367985 0.058840908 -0.20170066
v -0.42122078 0.058840908 -0.27373663
v -0.43260512 0.058840908 -0.20170066
v -0.4781425 0.07943523 -0.20170066
v -0.056921728 0.058840908 -0.27373663
v 0.056921728 0.058840908 -0.27373663
v 0 0.07943523 -0.20170066
v -0.056921728 0.058840908 -0.27373663
v 0 0.07943523 -0.20170066
v -0.04553738 0.058840908 -0.20170066
v 0.056921728 0.058840908 -0.27373663
v 0.04553738 0.058840908 -0.20170066
v 0 0.07943523 -0.20170066
v 0.42122078 0.058840908 -0.27373663
v 0.5350642 0.058840908 -0.27373663
v 0.4781425 0.07943523 -0.20170066
v 0.42122078 0.058840908 -0.27373663
v 0.4781425 0.07943523 -0.20170066
v 0.43260512 0.058840908 -0.20170066
v 0.5350642 0.058840908 -0.27373663
v 0.52367985 0.058840908 -0.20170066
v 0.4781425 0.07943523 -0.20170066
v -0.5350642 0.058840908 0.21610788
v -0.42122078 0.058840908 0.21610788
v -0.4781425 0.10591363 0.28814384
v -0.5350642 0.058840908 0.21610788
v -0.4781425 0.10591363 0.28814384
v -0.52367985 0.058840908 0.28814384
v -0.42122078 0.058840908 0.21610788
v -0.43260512 0.058840908 0.28814384
v -0.4781425 0.10591363 0.28814384
v -0.056921728 0.058840908 0.21610788
v 0.056921728 0.058840908 0.21610788
v 0 0.10591363 0.28814384
v -0.056921728 0.058840908 0.21610788
v 0 0.10591363 0.28814384
v -0.04553738 0.058840908 0.28814384
v 0.056921728 0.058840908 0.21610788
v 0.04553738 0.058840908 0.28814384
v 0 0.10591363 0.28814384
v 0.42122078 0.058840908 0.21610788
v 0.5350642 0.058840908 0.21610788
v 0.4781425 0.10591363 0.28814384
v 0.42122078 0.058840908 0.21610788
v 0.4781425 0.10591363 0.28814384
v 0.43260512 0.058840908 0.28814384
v 0.5350642 0.058840908 0.21610788
v 0.52367985 0.058840908 0.28814384
v 0.4781425 0.10591363 0.28814384
v -0.08432848 0.04909013 0.02420408
v 0.08432848 0.04909013 0.02420408
v 0 0.15340665 0.029649999
v -0.08432848 0.04909013 0.02420408
v 0 0.15340665 0.029649999
v -0.078706585 0.05525441 0.03630612
v 0.08432848 0.04909013 0.02420408
v 0.078706585 0.05525441 0.03630612
v 0 0.17267004 0.029649999
v -0.08432848 0 0.02420408
v -0.078706585 0 0.03630612
v 0.08432848 0 0.02420408
v 0.08432848 0 0.02420408
v -0.078706585 0 0.03630612
v 0.078706585 0 0.03630612
v -0.078706585 0.05525441 0.03630612
v 0.078706585 0.05525441 0.03630612
v 0 0.17267004 0.04175204
v -0.078706585 0.05525441 0.03630612
v 0 0.17267004 0.04175204
v -0.07308468 0.061418694 0.04840816
v 0.078706585 0.05525441 0.03630612
v 0.07308468 0.061418694 0.04840816
v 0 0.19193342 0.04175204
v -0.078706585 0 0.03630612
v -0.07308468 0 0.04840816
v 0.078706585 0 0.03630612
v 0.078706585 0 0.03630612
v -0.07308468 0 0.04840816
v 0.07308468 0 0.04840816
v -0.07308468 0.061418694 0.04840816
v 0.07308468 0.061418694 0.04840816
v 0 0.19193342 0.05385408
v -0.07308468 0.061418694 0.04840816
v 0 0.19193342 0.05385408
v -0.06746279 0.06758299 0.060510203
v 0.07308468 0.061418694 0.04840816
v 0.06746279 0.06758299 0.060510203
v 0 0.21119684 0.05385408
v -0.07308468 0 0.04840816
v -0.06746279 0 0.060510203
v 0.07308468 0 0.04840816
v 0.07308468 0 0.04840816
v -0.06746279 0 0.060510203
v 0.06746279 0 0.060510203
v -0.06746279 0.06758299 0.060510203
v 0.06746279 0.06758299 0.060510203
v 0 0.21119684 0.06595612
v -0.06746279 0.06758299 0.060510203
v 0 0.21119684 0.06595612
v -0.061840888 0.07374727 0.07261224
v 0.06746279 0.06758299 0.060510203
v 0.061840888 0.07374727 0.07261224
v 0 0.23046023 0.06595612
v -0.06746279 0 0.060510203
v -0.061840888 0 0.07261224
v 0.06746279 0 0.060510203
v 0.06746279 0 0.060510203
v -0.061840888 0 0.07261224
v 0.061840888 0 0.07261224
v -0.061840888 0.07374727 0.07261224
v 0.061840888 0.07374727 0.07261224
v 0 0.23046023 0.07805816
v -0.061840888 0.07374727 0.07261224
v 0 0.23046023 0.07805816
v -0.05621898 0.07991155 0.08471428
v 0.061840888 0.07374727 0.07261224
v 0.05621898 0.07991155 0.08471428
v 0 0.24972361 0.07805816
v -0.061840888 0 0.07261224
v -0.05621898 0 0.08471428
v 0.061840888 0 0.07261224
v 0.061840888 0 0.07261224
v -0.05621898 0 0.08471428
v 0.05621898 0 0.08471428
v -0.05621898 0.07991155 0.08471428
v 0.05621898 0.07991155 0.08471428
v 0 0.24972361 0.0901602
v -0.05621898 0.07991155 0.08471428
v 0 0.24972361 0.0901602
v -0.05059709 0.086075835 0.09681632
v 0.05621898 0.07991155 0.08471428
v 0.05059709 0.086075835 0.09681632
v 0 0.268987 0.0901602
v -0.05621898 0 0.08471428
v -0.05059709 0 0.09681632
v 0.05621898 0 0.08471428
v 0.05621898 0 0.08471428
v -0.05059709 0 0.09681632
v 0.05059709 0 0.09681632
v -0.29514968 0.016811687 -0.4962477
v -0.34574676 0 -0.6075613
v -0.2445526 0 -0.6075613
v -0.29514968 0.069348216 -0.47094917
v -0.32550794 0.016811687 -0.4962477
v -0.26479143 0.016811687 -0.4962477
v 0 0.016811687 -0.4962477
v -0.050597087 0 -0.6075613
v 0.050597087 0 -0.6075613
v 0 0.069348216 -0.47094917
v -0.030358253 0.016811687 -0.4962477
v 0.030358253 0.016811687 -0.4962477
v 0.29514968 0.016811687 -0.4962477
v 0.2445526 0 -0.6075613
v 0.34574676 0 -0.6075613
v 0.29514968 0.069348216 -0.47094917
v 0.26479143 0.016811687 -0.4962477
v 0.32550794 0.016811687 -0.4962477
vn 0 -0.94693506 0.32142475
vn 0 -0.94693506 0.32142475
vn 0 -0.94693506 0.32142475
vn 0.09278352 -0.9931092 0.07159099
vn 0.09278352 -0.9931092 0.07159099
vn 0.09278352 -0.9931092 0.07159099
vn -0.13830708 -0.98578346 0.09540479
vn -0.13830708 -0.98578346 0.09540479
vn -0.13830708 -0.98578346 0.09540479
vn 0 1 -0
vn 0 1 -0
vn 0 1 -0
vn 0 1 -0
vn 0 1 -0
vn 0 1 -0
vn 0 -0.912794 0.4084202
vn 0 -0.912794 0.4084202
vn 0 -0.912794 0.4084202
vn 0.0968884 -0.9938292 0.05400328
vn 0.0968884 -0.9938292 0.05400328
vn 0.0968884 -0.9938292 0.05400328
vn -0.12261915 -0.99039656 0.063868545
vn -0.12261915 -0.99039656 0.063868545
vn -0.12261915 -0.99039656 0.063868545
vn 0 1 -0
vn 0 1 -0
vn 0 1 -0
vn 0 1 -0
vn 0 1 -0
vn 0 1 -0
vn 0 -0.88484997 0.46587628
vn 0 -0.88484997 0.46587628
vn 0 -0.88484997 0.46587628
vn 0.1028762 -0.9944805 0.020615738
vn 0.1028762 -0.9944805 0.020615738
vn 0.1028762 -0.9944805 0.020615738
vn -0.111186765 -0.99356073 0.02178316
vn -0.111186765 -0.99356073 0.02178316
vn -0.111186765 -0.99356073 0.02178316
vn 0 0.99999994 -0
vn 0 0.99999994 -0
vn 0 0.99999994 -0
vn 0 1 -0
vn 0 1 -0
vn 0 1 -0
vn 0 -0.8741992 0.4855672
vn 0 -0.8741992 0.4855672
vn 0 -0.8741992 0.4855672
vn 0.11024242 -0.9936689 -0.021650525
vn 0.11024242 -0.9936689 -0.021650525
vn 0.11024242 -0.9936689 -0.021650525
vn -0.101980835 -0.9945753 -0.020489933
vn -0.101980835 -0.9945753 -0.020489933
vn -0.101980835 -0.9945753 -0.020489933
vn 0 1 0
vn 0 1 0
vn 0 1 0
vn 0 1 0
vn 0 1 0
vn 0 1 0
vn 0 -0.8848498 0.4658763
vn 0 -0.8848498 0.4658763
vn 0 -0.8848498 0.4658763
vn 0.11110331 -0.99360627 -0.020068487
vn 0.11110331 -0.99360627 -0.020068487
vn 0.11110331 -0.99360627 -0.020068487
vn -0.08753212 -0.99597317 -0.019379852
vn -0.08753212 -0.99597317 -0.019379852
vn -0.08753212 -0.99597317 -0.019379852
vn 0 1 0
vn 0 1 0
vn 0 1 0
vn 0 1 0
vn 0 1 0
vn 0 1 0
vn 0 -0.912794 0.4084202
vn 0 -0.912794 0.4084202
vn 0 -0.912794 0.4084202
vn 0.117608465 -0.985008 -0.12620373
vn 0.117608465 -0.985008 -0.12620373
vn 0.117608465 -0.985008 -0.12620373
vn -0.078497045 -0.99266934 -0.091901034
vn -0.078497045 -0.99266934 -0.091901034
vn -0.078497045 -0.99266934 -0.091901034
vn 0 0.99999994 0
vn 0 0.99999994 0
vn 0 0.99999994 0
vn 0 1 0
vn 0 1 0
vn 0 1 0
vn -0 0.9978247 0.06592317
vn -0 0.9978247 0.06592317
vn -0 0.9978247 0.06592317
vn -0.056762714 0.99838763 0
vn -0.056762714 0.99838763 0
vn -0.056762714 0.99838763 0
vn 0.056762714 0.99838763 0
vn 0.056762714 0.99838763 0
vn 0.056762714 0.99838763 0
vn -0 1 0
vn -0 1 0
vn -0 1 0
vn 0 1 0
vn 0 1 0
vn 0 1 0
vn 0 0 -1
vn 0 0 -1
vn 0 0 -1
vn 0 0 1
vn 0 0 1
vn 0 0 1
vn 1 0 0
vn 1 0 0
vn 1 0 0
vn -1 0 0
vn -1 0 0
vn -1 0 0
vn 0 -0.9614794 0.2748768
vn 0 -0.9614794 0.2748768
vn 0 -0.9614794 0.2748768
vn 0.4111987 -0.90922636 -0.06498472
vn 0.4111987 -0.90922636 -0.06498472
vn 0.4111987 -0.90922636 -0.06498472
vn -0.41119847 -0.9092265 -0.064984515
vn -0.41119847 -0.9092265 -0.064984515
vn -0.41119847 -0.9092265 -0.064984515
vn 0 -0.96147954 0.27487683
vn 0 -0.96147954 0.27487683
vn 0 -0.96147954 0.27487683
vn 0.41119853 -0.9092265 -0.06498459
vn 0.41119853 -0.9092265 -0.06498459
vn 0.41119853 -0.9092265 -0.06498459
vn -0.41119853 -0.9092265 -0.06498459
vn -0.41119853 -0.9092265 -0.06498459
vn -0.41119853 -0.9092265 -0.06498459
vn 0 -0.9614794 0.2748768
vn 0 -0.9614794 0.2748768
vn 0 -0.9614794 0.2748768
vn 0.41119847 -0.9092265 -0.064984515
vn 0.41119847 -0.9092265 -0.064984515
vn 0.41119847 -0.9092265 -0.064984515
vn -0.4111987 -0.90922636 -0.06498472
vn -0.4111987 -0.90922636 -0.06498472
vn -0.4111987 -0.90922636 -0.06498472
vn 0 -0.8371171 0.5470237
vn 0 -0.8371171 0.5470237
vn 0 -0.8371171 0.5470237
vn 0.714139 -0.6908459 -0.112860575
vn 0.714139 -0.6908459 -0.112860575
vn 0.714139 -0.6908459 -0.112860575
vn -0.71413875 -0.6908462 -0.11286025
vn -0.71413875 -0.6908462 -0.11286025
vn -0.71413875 -0.6908462 -0.11286025
vn 0 -0.8371171 0.5470237
vn 0 -0.8371171 0.5470237
vn 0 -0.8371171 0.5470237
vn 0.7141388 -0.69084615 -0.11286037
vn 0.7141388 -0.69084615 -0.11286037
vn 0.7141388 -0.69084615 -0.11286037
vn -0.7141388 -0.69084615 -0.11286037
vn -0.7141388 -0.69084615 -0.11286037
vn -0.7141388 -0.69084615 -0.11286037
vn 0 -0.8371171 0.5470237
vn 0 -0.8371171 0.5470237
vn 0 -0.8371171 0.5470237
vn 0.71413875 -0.6908462 -0.11286025
vn 0.71413875 -0.6908462 -0.11286025
vn 0.71413875 -0.6908462 -0.11286025
vn -0.714139 -0.6908459 -0.112860575
vn -0.714139 -0.6908459 -0.112860575
vn -0.714139 -0.6908459 -0.112860575
vn 0 -0.05213472 0.99864006
vn 0 -0.05213472 0.99864006
vn 0 -0.05213472 0.99864006
vn 0.7780589 -0.62677294 -0.04218792
vn 0.7780589 -0.62677294 -0.04218792
vn 0.7780589 -0.62677294 -0.04218792
vn -0.8240043 -0.55793947 -0.09859242
vn -0.8240043 -0.55793947 -0.09859242
vn -0.8240043 -0.55793947 -0.09859242
vn 0 1 0
vn 0 1 0
vn 0 1 0
vn 0 1 0
vn 0 1 0
vn 0 1 0
vn 0 -0.04633175 0.99892604
vn 0 -0.04633175 0.99892604
vn 0 -0.04633175 0.99892604
vn 0.82833624 -0.5504101 -0.10444045
vn 0.82833624 -0.5504101 -0.10444045
vn 0.82833624 -0.5504101 -0.10444045
vn -0.8593344 -0.48886335 -0.15018977
vn -0.8593344 -0.48886335 -0.15018977
vn -0.8593344 -0.48886335 -0.15018977
vn 0 1 0
vn 0 1 0
vn 0 1 0
vn 0 1 0
vn 0 1 0
vn 0 1 0
vn 0 -0.0416902 0.9991306
vn 0 -0.0416902 0.9991306
vn 0 -0.0416902 0.9991306
vn 0.86430997 -0.47738266 -0.1583479
vn 0.86430997 -0.47738266 -0.1583479
vn 0.86430997 -0.47738266 -0.1583479
vn -0.8843032 -0.42442226 -0.19461149
vn -0.8843032 -0.42442226 -0.19461149
vn -0.8843032 -0.42442226 -0.19461149
vn 0 1 0
vn 0 1 0
vn 0 1 0
vn 0 0.99999994 0
vn 0 0.99999994 0
vn 0 0.99999994 0
vn 0 -0.03789334 0.99928176
vn 0 -0.03789334 0.99928176
vn 0 -0.03789334 0.99928176
vn 0.8889948 -0.40986276 -0.20420766
vn 0.8889948 -0.40986276 -0.20420766
vn 0.8889948 -0.40986276 -0.20420766
vn -0.90129226 -0.36553618 -0.23249851
vn -0.90129226 -0.36553618 -0.23249851
vn -0.90129226 -0.36553618 -0.23249851
vn 0 1 0
vn 0 1 0
vn 0 1 0
vn 0 0.99999994 0
vn 0 0.99999994 0
vn 0 0.99999994 0
vn 0 -0.03472996 0.99939674
vn 0 -0.03472996 0.99939674
vn 0 -0.03472996 0.99939674
vn 0.90519863 -0.3487632 -0.24285722
vn 0.90519863 -0.3487632 -0.24285722
vn 0.90519863 -0.3487632 -0.24285722
vn -0.91232663 -0.312415 -0.2646827
vn -0.91232663 -0.312415 -0.2646827
vn -0.91232663 -0.312415 -0.2646827
vn 0 1 0
vn 0 1 0
vn 0 1 0
vn 0 1 0
vn 0 1 0
vn 0 1 0
vn 0 -0.0320538 0.99948615
vn 0 -0.0320538 0.99948615
vn 0 -0.0320538 0.99948615
vn 0.91523665 -0.29417393 -0.27532452
vn 0.91523665 -0.29417393 -0.27532452
vn 0.91523665 -0.29417393 -0.27532452
vn -0.919012 -0.26484466 -0.29201752
vn -0.919012 -0.26484466 -0.29201752
vn -0.919012 -0.26484466 -0.29201752
vn 0 1 0
vn 0 1 0
vn 0 1 0
vn 0 1 0
vn 0 1 0
vn 0 1 0
vn 0 -0.9887865 0.14933641
vn 0 -0.9887865 0.14933641
vn 0 -0.9887865 0.14933641
vn 0 -0.43385977 0.9009805
vn 0 -0.43385977 0.9009805
vn 0 -0.43385977 0.9009805
vn 0 -0.98878646 0.1493364
vn 0 -0.98878646 0.1493364
vn 0 -0.98878646 0.1493364
vn 0 -0.43385974 0.9009804
vn 0 -0.43385974 0.9009804
vn 0 -0.43385974 0.9009804
vn 0 -0.9887865 0.14933641
vn 0 -0.9887865 0.14933641
vn 0 -0.9887865 0.14933641
vn 0 -0.43385977 0.9009805
vn 0 -0.43385977 0.9009805
vn 0 -0.43385977 0.9009805
f 1//1 2//2 3//3
f 4//4 5//5 6//6
f 7//7 8//8 9//9
f 10//10 11//11 12//12
f 13//13 14//14 15//15
f 16//16 17//17 18//18
f 19//19 20//20 21//21
f 22//22 23//23 24//24
f 25//25 26//26 27//27
f 28//28 29//29 30//30
f 31//31 32//32 33//33
f 34//34 35//35 36//36
f 37//37 38//38 39//39
f 40//40 41//41 42//42
f 43//43 44//44 45//45
f 46//46 47//47 48//48
f 49//49 50//50 51//51
f 52//52 53//53 54//54
f 55//55 56//56 57//57
f 58//58 59//59 60//60
f 61//61 62//62 63//63
f 64//64 65//65 66//66
f 67//67 68//68 69//69
f 70//70 71//71 72//72
f 73//73 74//74 75//75
f 76//76 77//77 78//78
f 79//79 80//80 81//81
f 82//82 83//83 84//84
f 85//85 86//86 87//87
f 88//88 89//89 90//90
f 91//91 92//92 93//93
f 94//94 95//95 96//96
f 97//97 98//98 99//99
f 100//100 101//101 102//102
f 103//103 104//104 105//105
f 106//106 107//107 108//108
f 109//109 110//110 111//111
f 112//112 113//113 114//114
f 115//115 116//116 117//117
f 118//118 119//119 120//120
f 121//121 122//122 123//123
f 124//124 125//125 126//126
f 127//127 128//128 129//129
f 130//130 131//131 132//132
f 133//133 134//134 135//135
f 136//136 137//137 138//138
f 139//139 140//140 141//141
f 142//142 143//143 144//144
f 145//145 146//146 147//147
f 148//148 149//149 150//150
f 151//151 152//152 153//153
f 154//154 155//155 156//156
f 157//157 158//158 159//159
f 160//160 161//161 162//162
f 163//163 164//164 165//165
f 166//166 167//167 168//168
f 169//169 170//170 171//171
f 172//172 173//173 174//174
f 175//175 176//176 177//177
f 178//178 179//179 180//180
f 181//181 182//182 183//183
f 184//184 185//185 186//186
f 187//187 188//188 189//189
f 190//190 191//191 192//192
f 193//193 194//194 195//195
f 196//196 197//197 198//198
f 199//199 200//200 201//201
f 202//202 203//203 204//204
f 205//205 206//206 207//207
f 208//208 209//209 210//210
f 211//211 212//212 213//213
f 214//214 215//215 216//216
f 217//217 218//218 219//219
f 220//220 221//221 222//222
f 223//223 224//224 225//225
f 226//226 227//227 228//228
f 229//229 230//230 231//231
f 232//232 233//233 234//234
f 235//235 236//236 237//237
f 238//238 239//239 240//240
f 241//241 242//242 243//243
f 244//244 245//245 246//246
f 247//247 248//248 249//249
f 250//250 251//251 252//252
f 253//253 254//254 255//255
f 256//256 257//257 258//258
f 259//259 260//260 261//261
f 262//262 263//263 264//264
f 265//265 266//266 267//267
f 268//268 269//269 270//270
f 271//271 272//272 273//273
f 274//274 275//275 276//276
f 277//277 278//278 279//279
