# Exported from SharpOpenGl procedural mesh
o solari_bomber_mk2_24
# vertices 345
v -0.8253465 0.03479717 -1.3536315
v 0.8253465 0.03479717 -1.3536315
v 0 0.10874116 -1.2207295
v -0.8253465 0.03479717 -1.3536315
v 0 0.10874116 -1.2207295
v -1.0340207 0.04163993 -1.0582937
v 0.8253465 0.03479717 -1.3536315
v 1.0340207 0.04163993 -1.0582937
v 0 0.13012479 -1.2207295
v -0.8253465 0 -1.3536315
v -1.0340207 0 -1.0582937
v 0.8253465 0 -1.3536315
v 0.8253465 0 -1.3536315
v -1.0340207 0 -1.0582937
v 1.0340207 0 -1.0582937
v -1.0340207 0.04163993 -1.0582937
v 1.0340207 0.04163993 -1.0582937
v 0 0.13012479 -0.92539173
v -1.0340207 0.04163993 -1.0582937
v 0 0.13012479 -0.92539173
v -1.2222682 0.04781288 -0.76295596
v 1.0340207 0.04163993 -1.0582937
v 1.2222682 0.04781288 -0.76295596
v 0 0.14941525 -0.92539173
v -1.0340207 0 -1.0582937
v -1.2222682 0 -0.76295596
v 1.0340207 0 -1.0582937
v 1.0340207 0 -1.0582937
v -1.2222682 0 -0.76295596
v 1.2222682 0 -0.76295596
v -1.2222682 0.04781288 -0.76295596
v 1.2222682 0.04781288 -0.76295596
v 0 0.14941525 -0.63005394
v -1.2222682 0.04781288 -0.76295596
v 0 0.14941525 -0.63005394
v -1.3716624 0.052711762 -0.46761817
v 1.2222682 0.04781288 -0.76295596
v 1.3716624 0.052711762 -0.46761817
v 0 0.16472426 -0.63005394
v -1.2222682 0 -0.76295596
v -1.3716624 0 -0.46761817
v 1.2222682 0 -0.76295596
v 1.2222682 0 -0.76295596
v -1.3716624 0 -0.46761817
v 1.3716624 0 -0.46761817
v -1.3716624 0.052711762 -0.46761817
v 1.3716624 0.052711762 -0.46761817
v 0 0.16472426 -0.3347162
v -1.3716624 0.052711762 -0.46761817
v 0 0.16472426 -0.3347162
v -1.4675794 0.055857036 -0.17228043
v 1.3716624 0.052711762 -0.46761817
v 1.4675794 0.055857036 -0.17228043
v 0 0.17455325 -0.3347162
v -1.3716624 0 -0.46761817
v -1.4675794 0 -0.17228043
v 1.3716624 0 -0.46761817
v 1.3716624 0 -0.46761817
v -1.4675794 0 -0.17228043
v 1.4675794 0 -0.17228043
v -1.4675794 0.055857036 -0.17228043
v 1.4675794 0.055857036 -0.17228043
v 0 0.17455325 -0.03937842
v -1.4675794 0.055857036 -0.17228043
v 0 0.17455325 -0.03937842
v -1.5006301 0.056940816 0.123057365
v 1.4675794 0.055857036 -0.17228043
v 1.5006301 0.056940816 0.123057365
v 0 0.17794006 -0.03937842
v -1.4675794 0 -0.17228043
v -1.5006301 0 0.123057365
v 1.4675794 0 -0.17228043
v 1.4675794 0 -0.17228043
v -1.5006301 0 0.123057365
v 1.5006301 0 0.123057365
v -1.5006301 0.056940816 0.123057365
v 1.5006301 0.056940816 0.123057365
v 0 0.17794006 0.2559594
v -1.5006301 0.056940816 0.123057365
v 0 0.17794006 0.2559594
v -1.4675794 0.055857033 0.41839516
v 1.5006301 0.056940816 0.123057365
v 1.4675794 0.055857033 0.41839516
v 0 0.17455323 0.2559594
v -1.5006301 0 0.123057365
v -1.4675794 0 0.41839516
v 1.5006301 0 0.123057365
v 1.5006301 0 0.123057365
v -1.4675794 0 0.41839516
v 1.4675794 0 0.41839516
v -1.4675794 0.055857033 0.41839516
v 1.4675794 0.055857033 0.41839516
v 0 0.17455323 0.5512972
v -1.4675794 0.055857033 0.41839516
v 0 0.17455323 0.5512972
v -1.3716624 0.052711762 0.71373296
v 1.4675794 0.055857033 0.41839516
v 1.3716624 0.052711762 0.71373296
v 0 0.16472426 0.5512972
v -1.4675794 0 0.41839516
v -1.3716624 0 0.71373296
v 1.4675794 0 0.41839516
v 1.4675794 0 0.41839516
v -1.3716624 0 0.71373296
v 1.3716624 0 0.71373296
v -1.3716624 0.052711762 0.71373296
v 1.3716624 0.052711762 0.71373296
v 0 0.16472426 0.8466349
v -1.3716624 0.052711762 0.71373296
v 0 0.16472426 0.8466349
v -1.49511 0.047812875 1.0090706
v 1.3716624 0.052711762 0.71373296
v 1.49511 0.047812875 1.0090706
v 0 0.14941524 0.8466349
v -1.3716624 0 0.71373296
v -1.49511 0 1.0090706
v 1.3716624 0 0.71373296
v 1.3716624 0 0.71373296
v -1.49511 0 1.0090706
v 1.49511 0 1.0090706
v -1.49511 0.047812875 1.0090706
v 1.49511 0.047812875 1.0090706
v 0 0.14941524 1.1419725
v -1.49511 0.047812875 1.0090706
v 0 0.14941524 1.1419725
v -1.1704416 0.04163993 1.3044083
v 1.49511 0.047812875 1.0090706
v 1.1704416 0.04163993 1.3044083
v 0 0.13012479 1.1419725
v -1.49511 0 1.0090706
v -1.1704416 0 1.3044083
v 1.49511 0 1.0090706
v 1.49511 0 1.0090706
v -1.1704416 0 1.3044083
v 1.1704416 0 1.3044083
v -1.1704416 0.04163993 1.3044083
v 1.1704416 0.04163993 1.3044083
v 0 0.13012479 1.4373103
v -1.1704416 0.04163993 1.3044083
v 0 0.13012479 1.4373103
v -0.82534647 0.034797166 1.5997462
v 1.1704416 0.04163993 1.3044083
v 0.82534647 0.034797166 1.5997462
v 0 0.10874114 1.4373103
v -1.1704416 0 1.3044083
v -0.82534647 0 1.5997462
v 1.1704416 0 1.3044083
v 1.1704416 0 1.3044083
v -0.82534647 0 1.5997462
v 0.82534647 0 1.5997462
v -2.5323133 0.19771118 0.9352362
v 2.5323133 0.19771118 0.9352362
v 0 0.30645233 -0.7383444
v -2.5323133 0.19771118 0.9352362
v 0 0.30645233 -0.7383444
v -2.5323133 0.19771118 -0.9352362
v 2.5323133 0.19771118 0.9352362
v 2.5323133 0.19771118 -0.9352362
v 0 0.30645233 -0.7383444
v -2.5323133 0.18189429 0.9352362
v 2.5323133 0.18189429 0.9352362
v 2.5323133 0.18189429 -0.9352362
v -2.5323133 0.18189429 0.9352362
v 2.5323133 0.18189429 -0.9352362
v -2.5323133 0.18189429 -0.9352362
v -2.5323133 0.18189429 0.9352362
v -2.5323133 0.19771118 0.9352362
v 2.5323133 0.19771118 0.9352362
v -2.5323133 0.18189429 -0.9352362
v 2.5323133 0.19771118 -0.9352362
v -2.5323133 0.19771118 -0.9352362
v 2.5323133 0.18189429 -0.9352362
v 2.5323133 0.19771118 -0.9352362
v 2.5323133 0.19771118 0.9352362
v 2.5323133 0.18189429 0.9352362
v 2.5323133 0.19771118 0.9352362
v 2.5323133 0.19771118 -0.9352362
v -2.3803744 0.19771118 -0.9352362
v -1.8739119 0.19771118 -0.9352362
v -2.1271431 0.2669101 -0.6891214
v -2.3803744 0.19771118 -0.9352362
v -2.1271431 0.2669101 -0.6891214
v -2.3297281 0.19771118 -0.6891214
v -1.8739119 0.19771118 -0.9352362
v -1.924558 0.19771118 -0.6891214
v -2.1271431 0.2669101 -0.6891214
v -0.25323135 0.19771118 -0.9352362
v 0.25323135 0.19771118 -0.9352362
v 0 0.2669101 -0.6891214
v -0.25323135 0.19771118 -0.9352362
v 0 0.2669101 -0.6891214
v -0.20258506 0.19771118 -0.6891214
v 0.25323135 0.19771118 -0.9352362
v 0.20258506 0.19771118 -0.6891214
v 0 0.2669101 -0.6891214
v 1.8739119 0.19771118 -0.9352362
v 2.3803744 0.19771118 -0.9352362
v 2.1271431 0.2669101 -0.6891214
v 1.8739119 0.19771118 -0.9352362
v 2.1271431 0.2669101 -0.6891214
v 1.924558 0.19771118 -0.6891214
v 2.3803744 0.19771118 -0.9352362
v 2.3297281 0.19771118 -0.6891214
v 2.1271431 0.2669101 -0.6891214
v -2.3803744 0.19771118 0.73834443
v -1.8739119 0.19771118 0.73834443
v -2.1271431 0.3558801 0.9844592
v -2.3803744 0.19771118 0.73834443
v -2.1271431 0.3558801 0.9844592
v -2.3297281 0.19771118 0.9844592
v -1.8739119 0.19771118 0.73834443
v -1.924558 0.19771118 0.9844592
v -2.1271431 0.3558801 0.9844592
v -0.25323135 0.19771118 0.73834443
v 0.25323135 0.19771118 0.73834443
v 0 0.3558801 0.9844592
v -0.25323135 0.19771118 0.73834443
v 0 0.3558801 0.9844592
v -0.20258506 0.19771118 0.9844592
v 0.25323135 0.19771118 0.73834443
v 0.20258506 0.19771118 0.9844592
v 0 0.3558801 0.9844592
v 1.8739119 0.19771118 0.73834443
v 2.3803744 0.19771118 0.73834443
v 2.1271431 0.3558801 0.9844592
v 1.8739119 0.19771118 0.73834443
v 2.1271431 0.3558801 0.9844592
v 1.924558 0.19771118 0.9844592
v 2.3803744 0.19771118 0.73834443
v 2.3297281 0.19771118 0.9844592
v 2.1271431 0.3558801 0.9844592
v -0.37515754 0.1649476 0.08269457
v 0.37515754 0.1649476 0.08269457
v 0 0.51546127 0.10130085
v -0.37515754 0.1649476 0.08269457
v 0 0.51546127 0.10130085
v -0.35014704 0.1856602 0.124041855
v 0.37515754 0.1649476 0.08269457
v 0.35014704 0.1856602 0.124041855
v 0 0.58018816 0.10130085
v -0.37515754 0 0.08269457
v -0.35014704 0 0.124041855
v 0.37515754 0 0.08269457
v 0.37515754 0 0.08269457
v -0.35014704 0 0.124041855
v 0.35014704 0 0.124041855
v -0.35014704 0.1856602 0.124041855
v 0.35014704 0.1856602 0.124041855
v 0 0.58018816 0.14264813
v -0.35014704 0.1856602 0.124041855
v 0 0.58018816 0.14264813
v -0.32513654 0.20637281 0.16538915
v 0.35014704 0.1856602 0.124041855
v 0.32513654 0.20637281 0.16538915
v 0 0.64491504 0.14264813
v -0.35014704 0 0.124041855
v -0.32513654 0 0.16538915
v 0.35014704 0 0.124041855
v 0.35014704 0 0.124041855
v -0.32513654 0 0.16538915
v 0.32513654 0 0.16538915
v -0.32513654 0.20637281 0.16538915
v 0.32513654 0.20637281 0.16538915
v 0 0.64491504 0.18399543
v -0.32513654 0.20637281 0.16538915
v 0 0.64491504 0.18399543
v -0.30012605 0.22708541 0.20673642
v 0.32513654 0.20637281 0.16538915
v 0.30012605 0.22708541 0.20673642
v 0 0.70964193 0.18399543
v -0.32513654 0 0.16538915
v -0.30012605 0 0.20673642
v 0.32513654 0 0.16538915
v 0.32513654 0 0.16538915
v -0.30012605 0 0.20673642
v 0.30012605 0 0.20673642
v -0.30012605 0.22708541 0.20673642
v 0.30012605 0.22708541 0.20673642
v 0 0.70964193 0.22534269
v -0.30012605 0.22708541 0.20673642
v 0 0.70964193 0.22534269
v -0.27511552 0.247798 0.24808371
v 0.30012605 0.22708541 0.20673642
v 0.27511552 0.247798 0.24808371
v 0 0.77436876 0.22534269
v -0.30012605 0 0.20673642
v -0.27511552 0 0.24808371
v 0.30012605 0 0.20673642
v 0.30012605 0 0.20673642
v -0.27511552 0 0.24808371
v 0.27511552 0 0.24808371
v -0.27511552 0.247798 0.24808371
v 0.27511552 0.247798 0.24808371
v 0 0.77436876 0.26669
v -0.27511552 0.247798 0.24808371
v 0 0.77436876 0.26669
v -0.250105 0.2685106 0.28943098
v 0.27511552 0.247798 0.24808371
v 0.250105 0.2685106 0.28943098
v 0 0.83909565 0.26669
v -0.27511552 0 0.24808371
v -0.250105 0 0.28943098
v 0.27511552 0 0.24808371
v 0.27511552 0 0.24808371
v -0.250105 0 0.28943098
v 0.250105 0 0.28943098
v -0.250105 0.2685106 0.28943098
v 0.250105 0.2685106 0.28943098
v 0 0.83909565 0.30803725
v -0.250105 0.2685106 0.28943098
v 0 0.83909565 0.30803725
v -0.22509453 0.2892232 0.33077827
v 0.250105 0.2685106 0.28943098
v 0.22509453 0.2892232 0.33077827
v 0 0.90382254 0.30803725
v -0.250105 0 0.28943098
v -0.22509453 0 0.33077827
v 0.250105 0 0.28943098
v 0.250105 0 0.28943098
v -0.22509453 0 0.33077827
v 0.22509453 0 0.33077827
v -1.5756615 0.05648891 -1.6954576
v -2.1158884 0 -2.883957
v -1.0354347 0 -2.883957
v -1.5756615 0.23301676 -1.4253441
v -1.8997977 0.05648891 -1.6954576
v -1.2515254 0.05648891 -1.6954576
v -0.5252205 0.05648891 -1.6954576
v -1.0654473 0 -2.883957
v 0.015006363 0 -2.883957
v -0.5252205 0.23301676 -1.4253441
v -0.84935665 0.05648891 -1.6954576
v -0.20108438 0.05648891 -1.6954576
v 0.5252205 0.05648891 -1.6954576
v -0.015006363 0 -2.883957
v 1.0654473 0 -2.883957
v 0.5252205 0.23301676 -1.4253441
v 0.20108438 0.05648891 -1.6954576
v 0.84935665 0.05648891 -1.6954576
v 1.5756615 0.05648891 -1.6954576
v 1.0354347 0 -2.883957
v 2.1158884 0 -2.883957
v 1.5756615 0.23301676 -1.4253441
v 1.2515254 0.05648891 -1.6954576
v 1.8997977 0.05648891 -1.6954576
vn 0 -0.87385136 0.48619312
vn 0 -0.87385136 0.48619312
vn 0 -0.87385136 0.48619312
vn 0.076632455 -0.9940679 0.07717732
vn 0.076632455 -0.9940679 0.07717732
vn 0.076632455 -0.9940679 0.07717732
vn -0.09941572 -0.99067205 0.093196414
vn -0.09941572 -0.99067205 0.093196414
vn -0.09941572 -0.99067205 0.093196414
vn 0 1 -0
vn 0 1 -0
vn 0 1 -0
vn 0 1 -0
vn 0 1 -0
vn 0 1 -0
vn 0 -0.8323868 0.55419517
vn 0 -0.8323868 0.55419517
vn 0 -0.8323868 0.55419517
vn 0.076203056 -0.9946768 0.0693617
vn 0.076203056 -0.9946768 0.0693617
vn 0.076203056 -0.9946768 0.0693617
vn -0.09314302 -0.9924245 0.080112115
vn -0.09314302 -0.9924245 0.080112115
vn -0.09314302 -0.9924245 0.080112115
vn 0 1 -0
vn 0 1 -0
vn 0 1 -0
vn 0 1 -0
vn 0 1 -0
vn 0 1 -0
vn 0 -0.79444027 0.6073423
vn 0 -0.79444027 0.6073423
vn 0 -0.79444027 0.6073423
vn 0.076737046 -0.995515 0.05532979
vn 0.076737046 -0.995515 0.05532979
vn 0.076737046 -0.995515 0.05532979
vn -0.088438734 -0.9941981 0.06122715
vn -0.088438734 -0.9941981 0.06122715
vn -0.088438734 -0.9941981 0.06122715
vn 0 1 -0
vn 0 1 -0
vn 0 1 -0
vn 0 1 -0
vn 0 1 -0
vn 0 1 -0
vn 0 -0.76464176 0.6444557
vn 0 -0.76464176 0.6444557
vn 0 -0.76464176 0.6444557
vn 0.07788218 -0.99631584 0.03590435
vn 0.07788218 -0.99631584 0.03590435
vn 0.07788218 -0.99631584 0.03590435
vn -0.084748976 -0.9956725 0.038127635
vn -0.084748976 -0.9956725 0.038127635
vn -0.084748976 -0.9956725 0.038127635
vn 0 0.99999994 -0
vn 0 0.99999994 -0
vn 0 0.99999994 -0
vn 0 0.99999994 -0
vn 0 0.99999994 -0
vn 0 0.99999994 -0
vn 0 -0.74584377 0.66612107
vn 0 -0.74584377 0.66612107
vn 0 -0.74584377 0.66612107
vn 0.07947993 -0.99675745 0.012552201
vn 0.07947993 -0.99675745 0.012552201
vn 0.07947993 -0.99675745 0.012552201
vn -0.081741855 -0.9965712 0.012804646
vn -0.081741855 -0.9965712 0.012804646
vn -0.081741855 -0.9965712 0.012804646
vn 0 0.99999994 -0
vn 0 0.99999994 -0
vn 0 0.99999994 -0
vn 0 1 -0
vn 0 1 -0
vn 0 1 -0
vn 0 -0.7394436 0.67321855
vn 0 -0.7394436 0.67321855
vn 0 -0.7394436 0.67321855
vn 0.08148905 -0.99659234 -0.012776444
vn 0.08148905 -0.99659234 -0.012776444
vn 0.08148905 -0.99659234 -0.012776444
vn -0.079232015 -0.99677753 -0.0125245415
vn -0.079232015 -0.99677753 -0.0125245415
vn -0.079232015 -0.99677753 -0.0125245415
vn 0 1 0
vn 0 1 0
vn 0 1 0
vn 0 0.99999994 0
vn 0 0.99999994 0
vn 0 0.99999994 0
vn 0 -0.7458437 0.6661209
vn 0 -0.7458437 0.6661209
vn 0 -0.7458437 0.6661209
vn 0.08396485 -0.9957487 -0.037873764
vn 0.08396485 -0.9957487 -0.037873764
vn 0.08396485 -0.9957487 -0.037873764
vn -0.077142864 -0.99638194 -0.03566493
vn -0.077142864 -0.99638194 -0.03566493
vn -0.077142864 -0.99638194 -0.03566493
vn 0 0.99999994 0
vn 0 0.99999994 0
vn 0 0.99999994 0
vn 0 1 0
vn 0 1 0
vn 0 1 0
vn 0 -0.76464176 0.6444557
vn 0 -0.76464176 0.6444557
vn 0 -0.76464176 0.6444557
vn 0.07976163 -0.9966723 0.01680721
vn 0.07976163 -0.9966723 0.01680721
vn 0.07976163 -0.9966723 0.01680721
vn -0.069130346 -0.99753124 0.01234921
vn -0.069130346 -0.99753124 0.01234921
vn -0.069130346 -0.99753124 0.01234921
vn 0 1 -0
vn 0 1 -0
vn 0 1 -0
vn 0 0.99999994 -0
vn 0 0.99999994 -0
vn 0 0.99999994 -0
vn 0 -0.79444003 0.60734254
vn 0 -0.79444003 0.60734254
vn 0 -0.79444003 0.60734254
vn 0.07671791 -0.99150217 -0.10506067
vn 0.07671791 -0.99150217 -0.10506067
vn 0.07671791 -0.99150217 -0.10506067
vn -0.06269686 -0.99399346 -0.08969921
vn -0.06269686 -0.99399346 -0.08969921
vn -0.06269686 -0.99399346 -0.08969921
vn 0 0.99999994 0
vn 0 0.99999994 0
vn 0 0.99999994 0
vn 0 1 0
vn 0 1 0
vn 0 1 0
vn 0 -0.83238685 0.5541949
vn 0 -0.83238685 0.5541949
vn 0 -0.83238685 0.5541949
vn 0.08910555 -0.9878915 -0.1270064
vn 0.08910555 -0.9878915 -0.1270064
vn 0.08910555 -0.9878915 -0.1270064
vn -0.06860066 -0.99229753 -0.10314902
vn -0.06860066 -0.99229753 -0.10314902
vn -0.06860066 -0.99229753 -0.10314902
vn 0 1 0
vn 0 1 0
vn 0 1 0
vn 0 1 0
vn 0 1 0
vn 0 1 0
vn -0 0.9978958 0.06483843
vn -0 0.9978958 0.06483843
vn -0 0.9978958 0.06483843
vn -0.042901892 0.99907935 0
vn -0.042901892 0.99907935 0
vn -0.042901892 0.99907935 0
vn 0.042901892 0.99907935 0
vn 0.042901892 0.99907935 0
vn 0.042901892 0.99907935 0
vn -0 1 0
vn -0 1 0
vn -0 1 0
vn 0 1 0
vn 0 1 0
vn 0 1 0
vn 0 0 -1
vn 0 0 -1
vn 0 0 -1
vn 0 0 1
vn 0 0 1
vn 0 0 1
vn 1 0 0
vn 1 0 0
vn 1 0 0
vn -1 0 0
vn -1 0 0
vn -1 0 0
vn 0 -0.9626722 0.27066994
vn 0 -0.9626722 0.27066994
vn 0 -0.9626722 0.27066994
vn 0.32252964 -0.9442295 -0.06637121
vn 0.32252964 -0.9442295 -0.06637121
vn 0.32252964 -0.9442295 -0.06637121
vn -0.3225295 -0.9442296 -0.066371016
vn -0.3225295 -0.9442296 -0.066371016
vn -0.3225295 -0.9442296 -0.066371016
vn 0 -0.9626723 0.27066997
vn 0 -0.9626723 0.27066997
vn 0 -0.9626723 0.27066997
vn 0.32252955 -0.94422966 -0.066371165
vn 0.32252955 -0.94422966 -0.066371165
vn 0.32252955 -0.94422966 -0.066371165
vn -0.32252955 -0.94422966 -0.066371165
vn -0.32252955 -0.94422966 -0.066371165
vn -0.32252955 -0.94422966 -0.066371165
vn 0 -0.9626722 0.27066994
vn 0 -0.9626722 0.27066994
vn 0 -0.9626722 0.27066994
vn 0.3225295 -0.9442296 -0.066371016
vn 0.3225295 -0.9442296 -0.066371016
vn 0.3225295 -0.9442296 -0.066371016
vn -0.32252964 -0.9442295 -0.06637121
vn -0.32252964 -0.9442295 -0.06637121
vn -0.32252964 -0.9442295 -0.06637121
vn 0 -0.8412527 0.54064214
vn 0 -0.8412527 0.54064214
vn 0 -0.8412527 0.54064214
vn 0.61052483 -0.7819688 -0.12563579
vn 0.61052483 -0.7819688 -0.12563579
vn 0.61052483 -0.7819688 -0.12563579
vn -0.6105246 -0.78196895 -0.12563545
vn -0.6105246 -0.78196895 -0.12563545
vn -0.6105246 -0.78196895 -0.12563545
vn 0 -0.84125274 0.5406422
vn 0 -0.84125274 0.5406422
vn 0 -0.84125274 0.5406422
vn 0.61052465 -0.7819689 -0.12563573
vn 0.61052465 -0.7819689 -0.12563573
vn 0.61052465 -0.7819689 -0.12563573
vn -0.61052465 -0.7819689 -0.12563573
vn -0.61052465 -0.7819689 -0.12563573
vn -0.61052465 -0.7819689 -0.12563573
vn 0 -0.8412527 0.54064214
vn 0 -0.8412527 0.54064214
vn 0 -0.8412527 0.54064214
vn 0.6105246 -0.78196895 -0.12563545
vn 0.6105246 -0.78196895 -0.12563545
vn 0.6105246 -0.78196895 -0.12563545
vn -0.61052483 -0.7819688 -0.12563579
vn -0.61052483 -0.7819688 -0.12563579
vn -0.61052483 -0.7819688 -0.12563579
vn 0 -0.05300827 0.998594
vn 0 -0.05300827 0.998594
vn 0 -0.05300827 0.998594
vn 0.6831814 -0.72865397 -0.048235048
vn 0.6831814 -0.72865397 -0.048235048
vn 0.6831814 -0.72865397 -0.048235048
vn -0.7396324 -0.6630725 -0.115234144
vn -0.7396324 -0.6630725 -0.115234144
vn -0.7396324 -0.6630725 -0.115234144
vn 0 0.99999994 0
vn 0 0.99999994 0
vn 0 0.99999994 0
vn 0 1 0
vn 0 1 0
vn 0 1 0
vn 0 -0.047108494 0.9988898
vn 0 -0.047108494 0.9988898
vn 0 -0.047108494 0.9988898
vn 0.745161 -0.6555674 -0.12233769
vn 0.745161 -0.6555674 -0.12233769
vn 0.745161 -0.6555674 -0.12233769
vn -0.78589076 -0.59193623 -0.1788502
vn -0.78589076 -0.59193623 -0.1788502
vn -0.78589076 -0.59193623 -0.1788502
vn 0 1 0
vn 0 1 0
vn 0 1 0
vn 0 1 0
vn 0 1 0
vn 0 1 0
vn 0 -0.042389415 0.9991011
vn 0 -0.042389415 0.9991011
vn 0 -0.042389415 0.9991011
vn 0.79263216 -0.57963735 -0.18908939
vn 0.79263216 -0.57963735 -0.18908939
vn 0.79263216 -0.57963735 -0.18908939
vn -0.82035565 -0.5212988 -0.23508327
vn -0.82035565 -0.5212988 -0.23508327
vn -0.82035565 -0.5212988 -0.23508327
vn 0 1 0
vn 0 1 0
vn 0 1 0
vn 0 1 0
vn 0 1 0
vn 0 1 0
vn 0 -0.038529083 0.9992575
vn 0 -0.038529083 0.9992575
vn 0 -0.038529083 0.9992575
vn 0.8270189 -0.50482655 -0.247366
vn 0.8270189 -0.50482655 -0.247366
vn 0.8270189 -0.50482655 -0.247366
vn -0.8448023 -0.4536358 -0.28376657
vn -0.8448023 -0.4536358 -0.28376657
vn -0.8448023 -0.4536358 -0.28376657
vn 0 0.99999994 0
vn 0 0.99999994 0
vn 0 0.99999994 0
vn 0 1 0
vn 0 1 0
vn 0 1 0
vn 0 -0.035312764 0.99937624
vn 0 -0.035312764 0.99937624
vn 0 -0.035312764 0.99937624
vn 0.85055774 -0.4338884 -0.2971402
vn 0.85055774 -0.4338884 -0.2971402
vn 0.85055774 -0.4338884 -0.2971402
vn -0.8612153 -0.3904638 -0.32534006
vn -0.8612153 -0.3904638 -0.32534006
vn -0.8612153 -0.3904638 -0.32534006
vn 0 1 0
vn 0 1 0
vn 0 1 0
vn 0 1 0
vn 0 1 0
vn 0 1 0
vn 0 -0.0325918 0.9994688
vn 0 -0.0325918 0.9994688
vn 0 -0.0325918 0.9994688
vn 0.86563563 -0.36837777 -0.33907646
vn 0.86563563 -0.36837777 -0.33907646
vn 0.86563563 -0.36837777 -0.33907646
vn -0.87145376 -0.33250776 -0.36056456
vn -0.87145376 -0.33250776 -0.36056456
vn -0.87145376 -0.33250776 -0.36056456
vn 0 1 0
vn 0 1 0
vn 0 1 0
vn 0 1 0
vn 0 1 0
vn 0 1 0
vn 0 -0.99887246 0.047476016
vn 0 -0.99887246 0.047476016
vn 0 -0.99887246 0.047476016
vn 0 -0.83708996 0.54706526
vn 0 -0.83708996 0.54706526
vn 0 -0.83708996 0.54706526
vn 0 -0.99887246 0.04747602
vn 0 -0.99887246 0.04747602
vn 0 -0.99887246 0.04747602
vn 0 -0.83708996 0.54706526
vn 0 -0.83708996 0.54706526
vn 0 -0.83708996 0.54706526
vn 0 -0.99887246 0.04747602
vn 0 -0.99887246 0.04747602
vn 0 -0.99887246 0.04747602
vn 0 -0.83708996 0.54706526
vn 0 -0.83708996 0.54706526
vn 0 -0.83708996 0.54706526
vn 0 -0.99887246 0.047476016
vn 0 -0.99887246 0.047476016
vn 0 -0.99887246 0.047476016
vn 0 -0.83708996 0.54706526
vn 0 -0.83708996 0.54706526
vn 0 -0.83708996 0.54706526
f 1//1 2//2 3//3
f 4//4 5//5 6//6
f 7//7 8//8 9//9
f 10//10 11//11 12//12
f 13//13 14//14 15//15
f 16//16 17//17 18//18
f 19//19 20//20 21//21
f 22//22 23//23 24//24
f 25//25 26//26 27//27
f 28//28 29//29 30//30
f 31//31 32//32 33//33
f 34//34 35//35 36//36
f 37//37 38//38 39//39
f 40//40 41//41 42//42
f 43//43 44//44 45//45
f 46//46 47//47 48//48
f 49//49 50//50 51//51
f 52//52 53//53 54//54
f 55//55 56//56 57//57
f 58//58 59//59 60//60
f 61//61 62//62 63//63
f 64//64 65//65 66//66
f 67//67 68//68 69//69
f 70//70 71//71 72//72
f 73//73 74//74 75//75
f 76//76 77//77 78//78
f 79//79 80//80 81//81
f 82//82 83//83 84//84
f 85//85 86//86 87//87
f 88//88 89//89 90//90
f 91//91 92//92 93//93
f 94//94 95//95 96//96
f 97//97 98//98 99//99
f 100//100 101//101 102//102
f 103//103 104//104 105//105
f 106//106 107//107 108//108
f 109//109 110//110 111//111
f 112//112 113//113 114//114
f 115//115 116//116 117//117
f 118//118 119//119 120//120
f 121//121 122//122 123//123
f 124//124 125//125 126//126
f 127//127 128//128 129//129
f 130//130 131//131 132//132
f 133//133 134//134 135//135
f 136//136 137//137 138//138
f 139//139 140//140 141//141
f 142//142 143//143 144//144
f 145//145 146//146 147//147
f 148//148 149//149 150//150
f 151//151 152//152 153//153
f 154//154 155//155 156//156
f 157//157 158//158 159//159
f 160//160 161//161 162//162
f 163//163 164//164 165//165
f 166//166 167//167 168//168
f 169//169 170//170 171//171
f 172//172 173//173 174//174
f 175//175 176//176 177//177
f 178//178 179//179 180//180
f 181//181 182//182 183//183
f 184//184 185//185 186//186
f 187//187 188//188 189//189
f 190//190 191//191 192//192
f 193//193 194//194 195//195
f 196//196 197//197 198//198
f 199//199 200//200 201//201
f 202//202 203//203 204//204
f 205//205 206//206 207//207
f 208//208 209//209 210//210
f 211//211 212//212 213//213
f 214//214 215//215 216//216
f 217//217 218//218 219//219
f 220//220 221//221 222//222
f 223//223 224//224 225//225
f 226//226 227//227 228//228
f 229//229 230//230 231//231
f 232//232 233//233 234//234
f 235//235 236//236 237//237
f 238//238 239//239 240//240
f 241//241 242//242 243//243
f 244//244 245//245 246//246
f 247//247 248//248 249//249
f 250//250 251//251 252//252
f 253//253 254//254 255//255
f 256//256 257//257 258//258
f 259//259 260//260 261//261
f 262//262 263//263 264//264
f 265//265 266//266 267//267
f 268//268 269//269 270//270
f 271//271 272//272 273//273
f 274//274 275//275 276//276
f 277//277 278//278 279//279
f 280//280 281//281 282//282
f 283//283 284//284 285//285
f 286//286 287//287 288//288
f 289//289 290//290 291//291
f 292//292 293//293 294//294
f 295//295 296//296 297//297
f 298//298 299//299 300//300
f 301//301 302//302 303//303
f 304//304 305//305 306//306
f 307//307 308//308 309//309
f 310//310 311//311 312//312
f 313//313 314//314 315//315
f 316//316 317//317 318//318
f 319//319 320//320 321//321
f 322//322 323//323 324//324
f 325//325 326//326 327//327
f 328//328 329//329 330//330
f 331//331 332//332 333//333
f 334//334 335//335 336//336
f 337//337 338//338 339//339
f 340//340 341//341 342//342
f 343//343 344//344 345//345
