# Exported from SharpOpenGl procedural mesh
o solari_corvette_mk3_38
# vertices 78
v -1.4399664 0.14774439 0.9380148
v 1.4399664 0.14774439 0.9380148
v 0 0.23639102 -0.40200636
v -1.4399664 0.14774439 0.9380148
v 0 0.23639102 -0.40200636
v -1.4399664 0.14774439 -0.9380148
v 1.4399664 0.14774439 0.9380148
v 1.4399664 0.14774439 -0.9380148
v 0 0.23639102 -0.40200636
v -1.4399664 0 0.9380148
v 1.4399664 0 0.9380148
v 1.4399664 0 -0.9380148
v -1.4399664 0 0.9380148
v 1.4399664 0 -0.9380148
v -1.4399664 0 -0.9380148
v -1.0943745 0.14774439 1.072017
v -0.74878263 0.2659399 0.40200636
v -1.2671705 0.14774439 -0.5360085
v 0 0.14774439 1.072017
v 0.34559193 0.2659399 0.40200636
v -0.17279597 0.14774439 -0.5360085
v 1.0943745 0.14774439 1.072017
v 1.4399664 0.2659399 0.40200636
v 0.9215786 0.14774439 -0.5360085
v -0.31999254 0.14774439 0.26800424
v 0.31999254 0.14774439 0.26800424
v 0.31999254 0.62263703 0.26800424
v -0.31999254 0.14774439 0.26800424
v 0.31999254 0.62263703 0.26800424
v -0.31999254 0.62263703 0.26800424
v -0.31999254 0.14774439 1.206019
v 0.31999254 0.62263703 1.206019
v 0.31999254 0.14774439 1.206019
v -0.31999254 0.14774439 1.206019
v -0.31999254 0.62263703 1.206019
v 0.31999254 0.62263703 1.206019
v -0.31999254 0.14774439 0.26800424
v -0.31999254 0.14774439 1.206019
v 0.31999254 0.14774439 1.206019
v -0.31999254 0.14774439 0.26800424
v 0.31999254 0.14774439 1.206019
v 0.31999254 0.14774439 0.26800424
v -0.31999254 0.62263703 0.26800424
v 0.31999254 0.62263703 1.206019
v -0.31999254 0.62263703 1.206019
v -0.31999254 0.62263703 0.26800424
v 0.31999254 0.62263703 0.26800424
v 0.31999254 0.62263703 1.206019
v -0.31999254 0.14774439 0.26800424
v -0.31999254 0.62263703 0.26800424
v -0.31999254 0.62263703 1.206019
v -0.31999254 0.14774439 0.26800424
v -0.31999254 0.62263703 1.206019
v -0.31999254 0.14774439 1.206019
v 0.31999254 0.14774439 0.26800424
v 0.31999254 0.14774439 1.206019
v 0.31999254 0.62263703 1.206019
v 0.31999254 0.14774439 0.26800424
v 0.31999254 0.62263703 1.206019
v 0.31999254 0.62263703 0.26800424
v -0.74664927 0.04221268 -1.8462514
v -1.0026433 0 -2.4094381
v -0.49065524 0 -2.4094381
v -0.74664927 0.17412731 -1.7182543
v -0.90024567 0.04221268 -1.8462514
v -0.59305286 0.04221268 -1.8462514
v 0 0.04221268 -1.8462514
v -0.25599402 0 -2.4094381
v 0.25599402 0 -2.4094381
v 0 0.17412731 -1.7182543
v -0.15359642 0.04221268 -1.8462514
v 0.15359642 0.04221268 -1.8462514
v 0.74664927 0.04221268 -1.8462514
v 0.49065524 0 -2.4094381
v 1.0026433 0 -2.4094381
v 0.74664927 0.17412731 -1.7182543
v 0.59305286 0.04221268 -1.8462514
v 0.90024567 0.04221268 -1.8462514
vn -0 0.99781907 0.06600888
vn -0 0.99781907 0.06600888
vn -0 0.99781907 0.06600888
vn -0.061445277 0.9981105 0
vn -0.061445277 0.9981105 0
vn -0.061445277 0.9981105 0
vn 0.061445277 0.9981105 0
vn 0.061445277 0.9981105 0
vn 0.061445277 0.9981105 0
vn -0 1 0
vn -0 1 0
vn -0 1 0
vn 0 1 0
vn 0 1 0
vn 0 1 0
vn -0.27222636 0.96178854 0.029253041
vn -0.27222636 0.96178854 0.029253041
vn -0.27222636 0.96178854 0.029253041
vn -0.27222636 0.96178854 0.029253032
vn -0.27222636 0.96178854 0.029253032
vn -0.27222636 0.96178854 0.029253032
vn -0.27222636 0.9617884 0.02925303
vn -0.27222636 0.9617884 0.02925303
vn -0.27222636 0.9617884 0.02925303
vn 0 0 1
vn 0 0 1
vn 0 0 1
vn 0 0 1
vn 0 0 1
vn 0 0 1
vn 0 0 -1
vn 0 0 -1
vn 0 0 -1
vn 0 0 -1
vn 0 0 -1
vn 0 0 -1
vn 0 1 0
vn 0 1 0
vn 0 1 0
vn 0 1 0
vn 0 1 0
vn 0 1 0
vn 0 -1 0
vn 0 -1 0
vn 0 -1 0
vn 0 -1 0
vn 0 -1 0
vn 0 -1 0
vn 1 0 0
vn 1 0 0
vn 1 0 0
vn 1 0 0
vn 1 0 0
vn 1 0 0
vn -1 0 0
vn -1 0 0
vn -1 0 0
vn -1 0 0
vn -1 0 0
vn -1 0 0
vn 0 -0.9972027 0.07474359
vn 0 -0.9972027 0.07474359
vn 0 -0.9972027 0.07474359
vn 0 -0.69636965 0.7176833
vn 0 -0.69636965 0.7176833
vn 0 -0.69636965 0.7176833
vn 0 -0.9972028 0.07474359
vn 0 -0.9972028 0.07474359
vn 0 -0.9972028 0.07474359
vn 0 -0.69636965 0.7176833
vn 0 -0.69636965 0.7176833
vn 0 -0.69636965 0.7176833
vn 0 -0.9972027 0.07474359
vn 0 -0.9972027 0.07474359
vn 0 -0.9972027 0.07474359
vn 0 -0.69636965 0.7176833
vn 0 -0.69636965 0.7176833
vn 0 -0.69636965 0.7176833
f 1//1 2//2 3//3
f 4//4 5//5 6//6
f 7//7 8//8 9//9
f 10//10 11//11 12//12
f 13//13 14//14 15//15
f 16//16 17//17 18//18
f 19//19 20//20 21//21
f 22//22 23//23 24//24
f 25//25 26//26 27//27
f 28//28 29//29 30//30
f 31//31 32//32 33//33
f 34//34 35//35 36//36
f 37//37 38//38 39//39
f 40//40 41//41 42//42
f 43//43 44//44 45//45
f 46//46 47//47 48//48
f 49//49 50//50 51//51
f 52//52 53//53 54//54
f 55//55 56//56 57//57
f 58//58 59//59 60//60
f 61//61 62//62 63//63
f 64//64 65//65 66//66
f 67//67 68//68 69//69
f 70//70 71//71 72//72
f 73//73 74//74 75//75
f 76//76 77//77 78//78
