# Exported from SharpOpenGl procedural mesh
o solari_carrier_mk3_44
# vertices 90
v -4.5194507 0.52643037 2.0593061
v 4.5194507 0.52643037 2.0593061
v 0 0.8422886 -0.88255984
v -4.5194507 0.52643037 2.0593061
v 0 0.8422886 -0.88255984
v -4.5194507 0.52643037 -2.0593061
v 4.5194507 0.52643037 2.0593061
v 4.5194507 0.52643037 -2.0593061
v 0 0.8422886 -0.88255984
v -4.5194507 0 2.0593061
v 4.5194507 0 2.0593061
v 4.5194507 0 -2.0593061
v -4.5194507 0 2.0593061
v 4.5194507 0 -2.0593061
v -4.5194507 0 -2.0593061
v -6.869565 0.52643037 2.3534927
v -5.784897 0.9475746 0.88255984
v -7.411899 0.52643037 -1.1767464
v -3.4347825 0.52643037 2.3534927
v -2.3501143 0.9475746 0.88255984
v -3.9771166 0.52643037 -1.1767464
v 0 0.52643037 2.3534927
v 1.0846682 0.9475746 0.88255984
v -0.5423341 0.52643037 -1.1767464
v 3.4347825 0.52643037 2.3534927
v 4.5194507 0.9475746 0.88255984
v 2.8924484 0.52643037 -1.1767464
v 6.869565 0.52643037 2.3534927
v 7.954233 0.9475746 0.88255984
v 6.327231 0.52643037 -1.1767464
v -1.0043224 0.52643037 0.5883732
v 1.0043224 0.52643037 0.5883732
v 1.0043224 2.2185278 0.5883732
v -1.0043224 0.52643037 0.5883732
v 1.0043224 2.2185278 0.5883732
v -1.0043224 2.2185278 0.5883732
v -1.0043224 0.52643037 2.6476793
v 1.0043224 2.2185278 2.6476793
v 1.0043224 0.52643037 2.6476793
v -1.0043224 0.52643037 2.6476793
v -1.0043224 2.2185278 2.6476793
v 1.0043224 2.2185278 2.6476793
v -1.0043224 0.52643037 0.5883732
v -1.0043224 0.52643037 2.6476793
v 1.0043224 0.52643037 2.6476793
v -1.0043224 0.52643037 0.5883732
v 1.0043224 0.52643037 2.6476793
v 1.0043224 0.52643037 0.5883732
v -1.0043224 2.2185278 0.5883732
v 1.0043224 2.2185278 2.6476793
v -1.0043224 2.2185278 2.6476793
v -1.0043224 2.2185278 0.5883732
v 1.0043224 2.2185278 0.5883732
v 1.0043224 2.2185278 2.6476793
v -1.0043224 0.52643037 0.5883732
v -1.0043224 2.2185278 0.5883732
v -1.0043224 2.2185278 2.6476793
v -1.0043224 0.52643037 0.5883732
v -1.0043224 2.2185278 2.6476793
v -1.0043224 0.52643037 2.6476793
v 1.0043224 0.52643037 0.5883732
v 1.0043224 0.52643037 2.6476793
v 1.0043224 2.2185278 2.6476793
v 1.0043224 0.52643037 0.5883732
v 1.0043224 2.2185278 2.6476793
v 1.0043224 2.2185278 0.5883732
v -2.8121026 0.15040867 -4.0532374
v -3.9369435 0 -6.5278873
v -1.6872616 0 -6.5278873
v -2.8121026 0.6204358 -3.490817
v -3.4870071 0.15040867 -4.0532374
v -2.137198 0.15040867 -4.0532374
v -0.9373675 0.15040867 -4.0532374
v -2.0622084 0 -6.5278873
v 0.18747348 0 -6.5278873
v -0.9373675 0.6204358 -3.490817
v -1.612272 0.15040867 -4.0532374
v -0.2624629 0.15040867 -4.0532374
v 0.9373675 0.15040867 -4.0532374
v -0.18747348 0 -6.5278873
v 2.0622084 0 -6.5278873
v 0.9373675 0.6204358 -3.490817
v 0.2624629 0.15040867 -4.0532374
v 1.612272 0.15040867 -4.0532374
v 2.8121026 0.15040867 -4.0532374
v 1.6872616 0 -6.5278873
v 3.9369435 0 -6.5278873
v 2.8121026 0.6204358 -3.490817
v 2.137198 0.15040867 -4.0532374
v 3.4870071 0.15040867 -4.0532374
vn -0 0.9942856 0.106753096
vn -0 0.9942856 0.106753096
vn -0 0.9942856 0.106753096
vn -0.06971858 0.99756676 0
vn -0.06971858 0.99756676 0
vn -0.06971858 0.99756676 0
vn 0.06971858 0.99756676 0
vn 0.06971858 0.99756676 0
vn 0.06971858 0.99756676 0
vn -0 1 0
vn -0 1 0
vn -0 1 0
vn 0 1 0
vn 0 1 0
vn 0 1 0
vn -0.30558422 0.951007 0.04694547
vn -0.30558422 0.951007 0.04694547
vn -0.30558422 0.951007 0.04694547
vn -0.30558422 0.951007 0.04694547
vn -0.30558422 0.951007 0.04694547
vn -0.30558422 0.951007 0.04694547
vn -0.30558422 0.951007 0.04694547
vn -0.30558422 0.951007 0.04694547
vn -0.30558422 0.951007 0.04694547
vn -0.30558422 0.951007 0.04694547
vn -0.30558422 0.951007 0.04694547
vn -0.30558422 0.951007 0.04694547
vn -0.30558422 0.951007 0.04694547
vn -0.30558422 0.951007 0.04694547
vn -0.30558422 0.951007 0.04694547
vn 0 0 1
vn 0 0 1
vn 0 0 1
vn 0 0 1
vn 0 0 1
vn 0 0 1
vn 0 0 -1
vn 0 0 -1
vn 0 0 -1
vn 0 0 -1
vn 0 0 -1
vn 0 0 -1
vn 0 1 0
vn 0 1 0
vn 0 1 0
vn 0 1 0
vn 0 1 0
vn 0 1 0
vn 0 -1 0
vn 0 -1 0
vn 0 -1 0
vn 0 -1 0
vn 0 -1 0
vn 0 -1 0
vn 1 0 0
vn 1 0 0
vn 1 0 0
vn 1 0 0
vn 1 0 0
vn 1 0 0
vn -1 0 0
vn -1 0 0
vn -1 0 0
vn -1 0 0
vn -1 0 0
vn -1 0 0
vn 0 -0.9981579 0.060667813
vn 0 -0.9981579 0.060667813
vn 0 -0.9981579 0.060667813
vn 0 -0.7673191 0.64126545
vn 0 -0.7673191 0.64126545
vn 0 -0.7673191 0.64126545
vn 0 -0.9981579 0.060667813
vn 0 -0.9981579 0.060667813
vn 0 -0.9981579 0.060667813
vn 0 -0.7673191 0.64126545
vn 0 -0.7673191 0.64126545
vn 0 -0.7673191 0.64126545
vn 0 -0.9981579 0.060667813
vn 0 -0.9981579 0.060667813
vn 0 -0.9981579 0.060667813
vn 0 -0.7673191 0.64126545
vn 0 -0.7673191 0.64126545
vn 0 -0.7673191 0.64126545
vn 0 -0.9981579 0.060667813
vn 0 -0.9981579 0.060667813
vn 0 -0.9981579 0.060667813
vn 0 -0.7673191 0.64126545
vn 0 -0.7673191 0.64126545
vn 0 -0.7673191 0.64126545
f 1//1 2//2 3//3
f 4//4 5//5 6//6
f 7//7 8//8 9//9
f 10//10 11//11 12//12
f 13//13 14//14 15//15
f 16//16 17//17 18//18
f 19//19 20//20 21//21
f 22//22 23//23 24//24
f 25//25 26//26 27//27
f 28//28 29//29 30//30
f 31//31 32//32 33//33
f 34//34 35//35 36//36
f 37//37 38//38 39//39
f 40//40 41//41 42//42
f 43//43 44//44 45//45
f 46//46 47//47 48//48
f 49//49 50//50 51//51
f 52//52 53//53 54//54
f 55//55 56//56 57//57
f 58//58 59//59 60//60
f 61//61 62//62 63//63
f 64//64 65//65 66//66
f 67//67 68//68 69//69
f 70//70 71//71 72//72
f 73//73 74//74 75//75
f 76//76 77//77 78//78
f 79//79 80//80 81//81
f 82//82 83//83 84//84
f 85//85 86//86 87//87
f 88//88 89//89 90//90
