# Exported from SharpOpenGl procedural mesh
o solari_freighter_mk2_31
# vertices 231
v -1.5395832 0.07070346 -3.0500169
v 1.5395832 0.07070346 -3.0500169
v 0 0.22094832 -2.7505608
v -1.5395832 0.07070346 -3.0500169
v 0 0.22094832 -2.7505608
v -1.9288392 0.0846071 -2.3845587
v 1.5395832 0.07070346 -3.0500169
v 1.9288392 0.0846071 -2.3845587
v 0 0.2643972 -2.7505608
v -1.5395832 0 -3.0500169
v -1.9288392 0 -2.3845587
v 1.5395832 0 -3.0500169
v 1.5395832 0 -3.0500169
v -1.9288392 0 -2.3845587
v 1.9288392 0 -2.3845587
v -1.9288392 0.0846071 -2.3845587
v 1.9288392 0.0846071 -2.3845587
v 0 0.2643972 -2.0851026
v -1.9288392 0.0846071 -2.3845587
v 0 0.2643972 -2.0851026
v -2.279992 0.09714975 -1.7191005
v 1.9288392 0.0846071 -2.3845587
v 2.279992 0.09714975 -1.7191005
v 0 0.30359298 -2.0851026
v -2.279992 0.09714975 -1.7191005
v 2.279992 0.09714975 -1.7191005
v 0 0.30359298 -1.4196442
v -2.279992 0.09714975 -1.7191005
v 0 0.30359298 -1.4196442
v -2.5586689 0.10710366 -1.0536422
v 2.279992 0.09714975 -1.7191005
v 2.5586689 0.10710366 -1.0536422
v 0 0.33469895 -1.4196442
v -2.5586689 0.10710366 -1.0536422
v 2.5586689 0.10710366 -1.0536422
v 0 0.33469895 -0.75418603
v -2.5586689 0.10710366 -1.0536422
v 0 0.33469895 -0.75418603
v -2.73759 0.11349446 -0.38818407
v 2.5586689 0.10710366 -1.0536422
v 2.73759 0.11349446 -0.38818407
v 0 0.3546702 -0.75418603
v -2.73759 0.11349446 -0.38818407
v 2.73759 0.11349446 -0.38818407
v 0 0.3546702 -0.08872789
v -2.73759 0.11349446 -0.38818407
v 0 0.3546702 -0.08872789
v -2.7992423 0.11569657 0.27727413
v 2.73759 0.11349446 -0.38818407
v 2.7992423 0.11569657 0.27727413
v 0 0.3615518 -0.08872789
v -2.7992423 0.11569657 0.27727413
v 2.7992423 0.11569657 0.27727413
v 0 0.3615518 0.57673043
v -2.7992423 0.11569657 0.27727413
v 0 0.3615518 0.57673043
v -2.73759 0.11349445 0.9427326
v 2.7992423 0.11569657 0.27727413
v 2.73759 0.11349445 0.9427326
v 0 0.35467017 0.57673043
v -2.73759 0.11349445 0.9427326
v 2.73759 0.11349445 0.9427326
v 0 0.35467017 1.2421887
v -2.73759 0.11349445 0.9427326
v 0 0.35467017 1.2421887
v -2.5586689 0.10710366 1.6081905
v 2.73759 0.11349445 0.9427326
v 2.5586689 0.10710366 1.6081905
v 0 0.33469895 1.2421887
v -2.5586689 0.10710366 1.6081905
v 2.5586689 0.10710366 1.6081905
v 0 0.33469895 1.9076467
v -2.5586689 0.10710366 1.6081905
v 0 0.33469895 1.9076467
v -2.7889452 0.097149745 2.2736487
v 2.5586689 0.10710366 1.6081905
v 2.7889452 0.097149745 2.2736487
v 0 0.30359295 1.9076467
v -2.7889452 0.097149745 2.2736487
v 2.7889452 0.097149745 2.2736487
v 0 0.30359295 2.5731049
v -2.7889452 0.097149745 2.2736487
v 0 0.30359295 2.5731049
v -2.183316 0.0846071 2.939107
v 2.7889452 0.097149745 2.2736487
v 2.183316 0.0846071 2.939107
v 0 0.2643972 2.5731049
v -2.183316 0.0846071 2.939107
v 2.183316 0.0846071 2.939107
v 0 0.2643972 3.238563
v -2.183316 0.0846071 2.939107
v 0 0.2643972 3.238563
v -1.5395831 0.070703454 3.6045651
v 2.183316 0.0846071 2.939107
v 1.5395831 0.070703454 3.6045651
v 0 0.22094831 3.238563
v -2.183316 0 2.939107
v -1.5395831 0 3.6045651
v 2.183316 0 2.939107
v 2.183316 0 2.939107
v -1.5395831 0 3.6045651
v 1.5395831 0 3.6045651
v -4.7237215 0.40172422 2.1072843
v 4.7237215 0.40172422 2.1072843
v 0 0.6226725 -1.6636455
v -4.7237215 0.40172422 2.1072843
v 0 0.6226725 -1.6636455
v -4.7237215 0.40172422 -2.1072843
v 4.7237215 0.40172422 2.1072843
v 4.7237215 0.40172422 -2.1072843
v 0 0.6226725 -1.6636455
v -4.7237215 0.3695863 2.1072843
v 4.7237215 0.3695863 2.1072843
v 4.7237215 0.3695863 -2.1072843
v -4.7237215 0.3695863 2.1072843
v 4.7237215 0.3695863 -2.1072843
v -4.7237215 0.3695863 -2.1072843
v -4.440298 0.40172422 -2.1072843
v -3.495554 0.40172422 -2.1072843
v -3.967926 0.5423277 -1.5527358
v -4.440298 0.40172422 -2.1072843
v -3.967926 0.5423277 -1.5527358
v -4.345824 0.40172422 -1.5527358
v -3.495554 0.40172422 -2.1072843
v -3.5900283 0.40172422 -1.5527358
v -3.967926 0.5423277 -1.5527358
v -0.47237214 0.40172422 -2.1072843
v 0.47237214 0.40172422 -2.1072843
v 0 0.5423277 -1.5527358
v -0.47237214 0.40172422 -2.1072843
v 0 0.5423277 -1.5527358
v -0.3778977 0.40172422 -1.5527358
v 0.47237214 0.40172422 -2.1072843
v 0.3778977 0.40172422 -1.5527358
v 0 0.5423277 -1.5527358
v 3.495554 0.40172422 -2.1072843
v 4.440298 0.40172422 -2.1072843
v 3.967926 0.5423277 -1.5527358
v 3.495554 0.40172422 -2.1072843
v 3.967926 0.5423277 -1.5527358
v 3.5900283 0.40172422 -1.5527358
v 4.440298 0.40172422 -2.1072843
v 4.345824 0.40172422 -1.5527358
v 3.967926 0.5423277 -1.5527358
v -4.440298 0.40172422 1.6636455
v -3.495554 0.40172422 1.6636455
v -3.967926 0.7231036 2.218194
v -4.440298 0.40172422 1.6636455
v -3.967926 0.7231036 2.218194
v -4.345824 0.40172422 2.218194
v -3.495554 0.40172422 1.6636455
v -3.5900283 0.40172422 2.218194
v -3.967926 0.7231036 2.218194
v -0.47237214 0.40172422 1.6636455
v 0.47237214 0.40172422 1.6636455
v 0 0.7231036 2.218194
v -0.47237214 0.40172422 1.6636455
v 0 0.7231036 2.218194
v -0.3778977 0.40172422 2.218194
v 0.47237214 0.40172422 1.6636455
v 0.3778977 0.40172422 2.218194
v 0 0.7231036 2.218194
v 3.495554 0.40172422 1.6636455
v 4.440298 0.40172422 1.6636455
v 3.967926 0.7231036 2.218194
v 3.495554 0.40172422 1.6636455
v 3.967926 0.7231036 2.218194
v 3.5900283 0.40172422 2.218194
v 4.440298 0.40172422 1.6636455
v 4.345824 0.40172422 2.218194
v 3.967926 0.7231036 2.218194
v -0.69981056 0.33515278 0.18632829
v 0.69981056 0.33515278 0.18632829
v 0 1.0473524 0.22825216
v -0.6531565 0.37723815 0.27949244
v 0.6531565 0.37723815 0.27949244
v 0 1.1788692 0.32141632
v -0.6065025 0.41932356 0.37265658
v 0.6065025 0.41932356 0.37265658
v 0 1.3103862 0.41458046
v -0.5598485 0.46140894 0.46582073
v 0.5598485 0.46140894 0.46582073
v 0 1.441903 0.5077446
v -0.51319444 0.5034943 0.5589849
v 0.51319444 0.5034943 0.5589849
v 0 1.5734198 0.60090876
v -0.46654034 0.54557973 0.652149
v 0.46654034 0.54557973 0.652149
v 0 1.7049366 0.6940729
v -2.449337 0.11477835 -3.820223
v -3.5410414 0 -6.2219725
v -1.3576326 0 -6.2219725
v -2.449337 0.47346067 -3.274371
v -3.1043596 0.11477835 -3.820223
v -1.7943144 0.11477835 -3.820223
v 0 0.11477835 -3.820223
v -1.0917044 0 -6.2219725
v 1.0917044 0 -6.2219725
v 0 0.47346067 -3.274371
v -0.6550226 0.11477835 -3.820223
v 0.6550226 0.11477835 -3.820223
v 2.449337 0.11477835 -3.820223
v 1.3576326 0 -6.2219725
v 3.5410414 0 -6.2219725
v 2.449337 0.47346067 -3.274371
v 1.7943144 0.11477835 -3.820223
v 3.1043596 0.11477835 -3.820223
v -0.7697916 0.5451971 -0.30808252
v -1.259659 0.20086211 -0.7279688
v -0.2799242 0.20086211 -0.7279688
v 0.7697916 0.5451971 -0.7979499
v 0.2799242 0.20086211 -1.2178363
v 1.259659 0.20086211 -1.2178363
v -0.20994316 0.31564045 5.555344
v 0.20994316 0.31564045 5.555344
v 0 0.6312809 6.0384173
v -0.10497158 0.57389176 5.857265
v 0.10497158 0.57389176 5.857265
v 0 0.68867004 6.0384173
v -0.34990528 1.2671529 0.739398
v 0.34990528 1.2671529 0.739398
v 0 1.3773401 0.985864
v -0.20994316 0.6025863 -0.123233005
v -3.2891097 0.6025863 0.246466
v -0.20994316 1.3773401 0.616165
v 0.20994316 0.6025863 -0.123233005
v 3.2891097 0.6025863 0.246466
v 0.20994316 1.3773401 0.616165
v -0.41988632 0.086083755 -0.985864
v 0.41988632 0.086083755 -0.985864
v 0 0.20086211 -0.739398
vn 0 -0.8938093 0.4484472
vn 0 -0.8938093 0.4484472
vn 0 -0.8938093 0.4484472
vn 0.08347308 -0.9940767 0.06959668
vn 0.08347308 -0.9940767 0.06959668
vn 0.08347308 -0.9940767 0.06959668
vn -0.10827723 -0.99056274 0.084032305
vn -0.10827723 -0.99056274 0.084032305
vn -0.10827723 -0.99056274 0.084032305
vn 0 1 -0
vn 0 1 -0
vn 0 1 -0
vn 0 1 -0
vn 0 1 -0
vn 0 1 -0
vn 0 -0.8573458 0.5147408
vn 0 -0.8573458 0.5147408
vn 0 -0.8573458 0.5147408
vn 0.08299702 -0.99458534 0.06254244
vn 0.08299702 -0.99458534 0.06254244
vn 0.08299702 -0.99458534 0.06254244
vn -0.10143538 -0.9922168 0.07222746
vn -0.10143538 -0.9922168 0.07222746
vn -0.10143538 -0.9922168 0.07222746
vn 0 -0.8233134 0.567587
vn 0 -0.8233134 0.567587
vn 0 -0.8233134 0.567587
vn 0.083564304 -0.9952532 0.04988154
vn 0.083564304 -0.9952532 0.04988154
vn 0.083564304 -0.9952532 0.04988154
vn -0.09629593 -0.99382144 0.0551918
vn -0.09629593 -0.99382144 0.0551918
vn -0.09629593 -0.99382144 0.0551918
vn 0 -0.79615116 0.60509783
vn 0 -0.79615116 0.60509783
vn 0 -0.79615116 0.60509783
vn 0.084795885 -0.9958726 0.032362983
vn 0.084795885 -0.9958726 0.032362983
vn 0.084795885 -0.9958726 0.032362983
vn -0.09226407 -0.9951414 0.034363925
vn -0.09226407 -0.9951414 0.034363925
vn -0.09226407 -0.9951414 0.034363925
vn 0 -0.7788211 0.6272462
vn 0 -0.7788211 0.6272462
vn 0 -0.7788211 0.6272462
vn 0.08652432 -0.99618554 0.01131269
vn 0.08652432 -0.99618554 0.01131269
vn 0.08652432 -0.99618554 0.01131269
vn -0.08898375 -0.9959662 0.0115398215
vn -0.08898375 -0.9959662 0.0115398215
vn -0.08898375 -0.9959662 0.0115398215
vn 0 -0.77288663 0.634544
vn 0 -0.77288663 0.634544
vn 0 -0.77288663 0.634544
vn 0.088708885 -0.995991 -0.011514456
vn 0.088708885 -0.995991 -0.011514456
vn 0.088708885 -0.995991 -0.011514456
vn -0.08625474 -0.9962092 -0.01128781
vn -0.08625474 -0.9962092 -0.01128781
vn -0.08625474 -0.9962092 -0.01128781
vn 0 -0.77882105 0.62724626
vn 0 -0.77882105 0.62724626
vn 0 -0.77882105 0.62724626
vn 0.09141138 -0.99522793 -0.03413548
vn 0.09141138 -0.99522793 -0.03413548
vn 0.09141138 -0.99522793 -0.03413548
vn -0.0839917 -0.99594766 -0.032147467
vn -0.0839917 -0.99594766 -0.032147467
vn -0.0839917 -0.99594766 -0.032147467
vn 0 -0.79615116 0.60509783
vn 0 -0.79615116 0.60509783
vn 0 -0.79615116 0.60509783
vn 0.08683164 -0.9961079 0.015147605
vn 0.08683164 -0.9961079 0.015147605
vn 0.08683164 -0.9961079 0.015147605
vn -0.07526818 -0.9971011 0.01113131
vn -0.07526818 -0.9971011 0.01113131
vn -0.07526818 -0.9971011 0.01113131
vn 0 -0.8233133 0.5675872
vn 0 -0.8233133 0.5675872
vn 0 -0.8233133 0.5675872
vn 0.08360578 -0.99198073 -0.09478606
vn 0.08360578 -0.99198073 -0.09478606
vn 0.08360578 -0.99198073 -0.09478606
vn -0.06831925 -0.99437654 -0.08091904
vn -0.06831925 -0.99437654 -0.08091904
vn -0.06831925 -0.99437654 -0.08091904
vn 0 -0.8573459 0.5147408
vn 0 -0.8573459 0.5147408
vn 0 -0.8573459 0.5147408
vn 0.09713324 -0.98864955 -0.11461832
vn 0.09713324 -0.98864955 -0.11461832
vn 0.09713324 -0.98864955 -0.11461832
vn -0.0747652 -0.99284863 -0.09306826
vn -0.0747652 -0.99284863 -0.09306826
vn -0.0747652 -0.99284863 -0.09306826
vn 0 1 0
vn 0 1 0
vn 0 1 0
vn 0 1 0
vn 0 1 0
vn 0 1 0
vn -0 0.9982879 0.058492206
vn -0 0.9982879 0.058492206
vn -0 0.9982879 0.058492206
vn -0.046723112 0.99890786 0
vn -0.046723112 0.99890786 0
vn -0.046723112 0.99890786 0
vn 0.046723112 0.99890786 0
vn 0.046723112 0.99890786 0
vn 0.046723112 0.99890786 0
vn -0 1 0
vn -0 1 0
vn -0 1 0
vn 0 1 0
vn 0 1 0
vn 0 1 0
vn 0 -0.96932834 0.24576922
vn 0 -0.96932834 0.24576922
vn 0 -0.96932834 0.24576922
vn 0.34809905 -0.9355802 -0.05930305
vn 0.34809905 -0.9355802 -0.05930305
vn 0.34809905 -0.9355802 -0.05930305
vn -0.34809905 -0.9355802 -0.05930305
vn -0.34809905 -0.9355802 -0.05930305
vn -0.34809905 -0.9355802 -0.05930305
vn 0 -0.96932834 0.24576919
vn 0 -0.96932834 0.24576919
vn 0 -0.96932834 0.24576919
vn 0.34809905 -0.93558013 -0.059303127
vn 0.34809905 -0.93558013 -0.059303127
vn 0.34809905 -0.93558013 -0.059303127
vn -0.34809905 -0.93558013 -0.059303127
vn -0.34809905 -0.93558013 -0.059303127
vn -0.34809905 -0.93558013 -0.059303127
vn 0 -0.96932834 0.24576922
vn 0 -0.96932834 0.24576922
vn 0 -0.96932834 0.24576922
vn 0.34809905 -0.9355802 -0.05930305
vn 0.34809905 -0.9355802 -0.05930305
vn 0.34809905 -0.9355802 -0.05930305
vn -0.34809905 -0.9355802 -0.05930305
vn -0.34809905 -0.9355802 -0.05930305
vn -0.34809905 -0.9355802 -0.05930305
vn 0 -0.8652063 0.50141597
vn 0 -0.8652063 0.50141597
vn 0 -0.8652063 0.50141597
vn 0.643933 -0.75717616 -0.10970209
vn 0.643933 -0.75717616 -0.10970209
vn 0.643933 -0.75717616 -0.10970209
vn -0.643933 -0.75717616 -0.10970209
vn -0.643933 -0.75717616 -0.10970209
vn -0.643933 -0.75717616 -0.10970209
vn 0 -0.8652064 0.50141597
vn 0 -0.8652064 0.50141597
vn 0 -0.8652064 0.50141597
vn 0.643933 -0.75717616 -0.10970222
vn 0.643933 -0.75717616 -0.10970222
vn 0.643933 -0.75717616 -0.10970222
vn -0.643933 -0.75717616 -0.10970222
vn -0.643933 -0.75717616 -0.10970222
vn -0.643933 -0.75717616 -0.10970222
vn 0 -0.8652063 0.50141597
vn 0 -0.8652063 0.50141597
vn 0 -0.8652063 0.50141597
vn 0.643933 -0.75717616 -0.10970209
vn 0.643933 -0.75717616 -0.10970209
vn 0.643933 -0.75717616 -0.10970209
vn -0.643933 -0.75717616 -0.10970209
vn -0.643933 -0.75717616 -0.10970209
vn -0.643933 -0.75717616 -0.10970209
vn 0 -0.0587636 0.9982719
vn 0 -0.0587636 0.9982719
vn 0 -0.0587636 0.9982719
vn 0 -0.05222685 0.99863523
vn 0 -0.05222685 0.99863523
vn 0 -0.05222685 0.99863523
vn 0 -0.04699732 0.998895
vn 0 -0.04699732 0.998895
vn 0 -0.04699732 0.998895
vn 0 -0.042718884 0.9990871
vn 0 -0.042718884 0.9990871
vn 0 -0.042718884 0.9990871
vn 0 -0.03915388 0.99923325
vn 0 -0.03915388 0.99923325
vn 0 -0.03915388 0.99923325
vn 0 -0.036137704 0.99934673
vn 0 -0.036137704 0.99934673
vn 0 -0.036137704 0.99934673
vn 0 -0.99886006 0.047735002
vn 0 -0.99886006 0.047735002
vn 0 -0.99886006 0.047735002
vn 0 -0.8357199 0.54915595
vn 0 -0.8357199 0.54915595
vn 0 -0.8357199 0.54915595
vn 0 -0.99886006 0.047735002
vn 0 -0.99886006 0.047735002
vn 0 -0.99886006 0.047735002
vn 0 -0.8357199 0.54915595
vn 0 -0.8357199 0.54915595
vn 0 -0.8357199 0.54915595
vn 0 -0.99886006 0.047735002
vn 0 -0.99886006 0.047735002
vn 0 -0.99886006 0.047735002
vn 0 -0.8357199 0.54915595
vn 0 -0.8357199 0.54915595
vn 0 -0.8357199 0.54915595
vn 0 -0.77324224 0.6341107
vn 0 -0.77324224 0.6341107
vn 0 -0.77324224 0.6341107
vn 0 -0.77324235 0.6341107
vn 0 -0.77324235 0.6341107
vn 0 -0.77324235 0.6341107
vn 0 -0.8371403 0.5469882
vn 0 -0.8371403 0.5469882
vn 0 -0.8371403 0.5469882
vn 0 -0.8447169 0.53521335
vn 0 -0.8447169 0.53521335
vn 0 -0.8447169 0.53521335
vn 0 -0.91292036 0.40813792
vn 0 -0.91292036 0.40813792
vn 0 -0.91292036 0.40813792
vn -0.086531445 0.6878179 -0.7207072
vn -0.086531445 0.6878179 -0.7207072
vn -0.086531445 0.6878179 -0.7207072
vn -0.086531445 -0.6878179 0.7207072
vn -0.086531445 -0.6878179 0.7207072
vn -0.086531445 -0.6878179 0.7207072
vn 0 -0.90651983 0.42216316
vn 0 -0.90651983 0.42216316
vn 0 -0.90651983 0.42216316
f 1//1 2//2 3//3
f 4//4 5//5 6//6
f 7//7 8//8 9//9
f 10//10 11//11 12//12
f 13//13 14//14 15//15
f 16//16 17//17 18//18
f 19//19 20//20 21//21
f 22//22 23//23 24//24
f 25//25 26//26 27//27
f 28//28 29//29 30//30
f 31//31 32//32 33//33
f 34//34 35//35 36//36
f 37//37 38//38 39//39
f 40//40 41//41 42//42
f 43//43 44//44 45//45
f 46//46 47//47 48//48
f 49//49 50//50 51//51
f 52//52 53//53 54//54
f 55//55 56//56 57//57
f 58//58 59//59 60//60
f 61//61 62//62 63//63
f 64//64 65//65 66//66
f 67//67 68//68 69//69
f 70//70 71//71 72//72
f 73//73 74//74 75//75
f 76//76 77//77 78//78
f 79//79 80//80 81//81
f 82//82 83//83 84//84
f 85//85 86//86 87//87
f 88//88 89//89 90//90
f 91//91 92//92 93//93
f 94//94 95//95 96//96
f 97//97 98//98 99//99
f 100//100 101//101 102//102
f 103//103 104//104 105//105
f 106//106 107//107 108//108
f 109//109 110//110 111//111
f 112//112 113//113 114//114
f 115//115 116//116 117//117
f 118//118 119//119 120//120
f 121//121 122//122 123//123
f 124//124 125//125 126//126
f 127//127 128//128 129//129
f 130//130 131//131 132//132
f 133//133 134//134 135//135
f 136//136 137//137 138//138
f 139//139 140//140 141//141
f 142//142 143//143 144//144
f 145//145 146//146 147//147
f 148//148 149//149 150//150
f 151//151 152//152 153//153
f 154//154 155//155 156//156
f 157//157 158//158 159//159
f 160//160 161//161 162//162
f 163//163 164//164 165//165
f 166//166 167//167 168//168
f 169//169 170//170 171//171
f 172//172 173//173 174//174
f 175//175 176//176 177//177
f 178//178 179//179 180//180
f 181//181 182//182 183//183
f 184//184 185//185 186//186
f 187//187 188//188 189//189
f 190//190 191//191 192//192
f 193//193 194//194 195//195
f 196//196 197//197 198//198
f 199//199 200//200 201//201
f 202//202 203//203 204//204
f 205//205 206//206 207//207
f 208//208 209//209 210//210
f 211//211 212//212 213//213
f 214//214 215//215 216//216
f 217//217 218//218 219//219
f 220//220 221//221 222//222
f 223//223 224//224 225//225
f 226//226 227//227 228//228
f 229//229 230//230 231//231
