# Exported from SharpOpenGl procedural mesh
o solari_transport_mk1_13
# vertices 84
v -2.8031378 0.26681638 1.279857
v 2.8031378 0.26681638 1.279857
v 0 0.4269062 -0.5485102
v -2.8031378 0.26681638 1.279857
v 0 0.4269062 -0.5485102
v -2.8031378 0.26681638 -1.279857
v 2.8031378 0.26681638 1.279857
v 2.8031378 0.26681638 -1.279857
v 0 0.4269062 -0.5485102
v -2.8031378 0 1.279857
v 2.8031378 0 1.279857
v 2.8031378 0 -1.279857
v -2.8031378 0 1.279857
v 2.8031378 0 -1.279857
v -2.8031378 0 -1.279857
v -2.1303847 0.26681638 1.4626938
v -1.4576316 0.48026946 0.5485102
v -2.466761 0.26681638 -0.7313469
v 0 0.26681638 1.4626938
v 0.67275304 0.48026946 0.5485102
v -0.33637652 0.26681638 -0.7313469
v 2.1303847 0.26681638 1.4626938
v 2.8031378 0.48026946 0.5485102
v 1.7940081 0.26681638 -0.7313469
v -0.62291956 0.26681638 0.36567345
v 0.62291956 0.26681638 0.36567345
v 0.62291956 1.1244404 0.36567345
v -0.62291956 0.26681638 0.36567345
v 0.62291956 1.1244404 0.36567345
v -0.62291956 1.1244404 0.36567345
v -0.62291956 0.26681638 1.6455305
v 0.62291956 1.1244404 1.6455305
v 0.62291956 0.26681638 1.6455305
v -0.62291956 0.26681638 1.6455305
v -0.62291956 1.1244404 1.6455305
v 0.62291956 1.1244404 1.6455305
v -0.62291956 0.26681638 0.36567345
v -0.62291956 0.26681638 1.6455305
v 0.62291956 0.26681638 1.6455305
v -0.62291956 0.26681638 0.36567345
v 0.62291956 0.26681638 1.6455305
v 0.62291956 0.26681638 0.36567345
v -0.62291956 1.1244404 0.36567345
v 0.62291956 1.1244404 1.6455305
v -0.62291956 1.1244404 1.6455305
v -0.62291956 1.1244404 0.36567345
v 0.62291956 1.1244404 0.36567345
v 0.62291956 1.1244404 1.6455305
v -0.62291956 0.26681638 0.36567345
v -0.62291956 1.1244404 0.36567345
v -0.62291956 1.1244404 1.6455305
v -0.62291956 0.26681638 0.36567345
v -0.62291956 1.1244404 1.6455305
v -0.62291956 0.26681638 1.6455305
v 0.62291956 0.26681638 0.36567345
v 0.62291956 0.26681638 1.6455305
v 0.62291956 1.1244404 1.6455305
v 0.62291956 0.26681638 0.36567345
v 0.62291956 1.1244404 1.6455305
v 0.62291956 1.1244404 0.36567345
v -1.4534788 0.076233245 -2.5190837
v -2.001648 0 -3.7250562
v -0.9053096 0 -3.7250562
v -1.4534788 0.31446216 -2.2449992
v -1.7823803 0.076233245 -2.5190837
v -1.1245773 0.076233245 -2.5190837
v 0 0.076233245 -2.5190837
v -0.5481692 0 -3.7250562
v 0.5481692 0 -3.7250562
v 0 0.31446216 -2.2449992
v -0.32890153 0.076233245 -2.5190837
v 0.32890153 0.076233245 -2.5190837
v 1.4534788 0.076233245 -2.5190837
v 0.9053096 0 -3.7250562
v 2.001648 0 -3.7250562
v 1.4534788 0.31446216 -2.2449992
v 1.1245773 0.076233245 -2.5190837
v 1.7823803 0.076233245 -2.5190837
v -0.45680764 0.36210793 -0.20315193
v -0.7475034 0.13340819 -0.45231974
v -0.16611186 0.13340819 -0.45231974
v 0.45680764 0.36210793 -0.49384773
v 0.16611186 0.13340819 -0.7430155
v 0.7475034 0.13340819 -0.7430155
vn -0 0.99618864 0.08722518
vn -0 0.99618864 0.08722518
vn -0 0.99618864 0.08722518
vn -0.05701802 0.9983731 0
vn -0.05701802 0.9983731 0
vn -0.05701802 0.9983731 0
vn 0.05701802 0.9983731 0
vn 0.05701802 0.9983731 0
vn 0.05701802 0.9983731 0
vn -0 1 0
vn -0 1 0
vn -0 1 0
vn 0 1 0
vn 0 1 0
vn 0 1 0
vn -0.25377733 0.96647984 0.03890753
vn -0.25377733 0.96647984 0.03890753
vn -0.25377733 0.96647984 0.03890753
vn -0.25377733 0.96647984 0.03890754
vn -0.25377733 0.96647984 0.03890754
vn -0.25377733 0.96647984 0.03890754
vn -0.25377733 0.9664799 0.038907543
vn -0.25377733 0.9664799 0.038907543
vn -0.25377733 0.9664799 0.038907543
vn 0 0 1
vn 0 0 1
vn 0 0 1
vn 0 0 1
vn 0 0 1
vn 0 0 1
vn 0 0 -1
vn 0 0 -1
vn 0 0 -1
vn 0 0 -1
vn 0 0 -1
vn 0 0 -1
vn 0 0.99999994 0
vn 0 0.99999994 0
vn 0 0.99999994 0
vn 0 0.99999994 0
vn 0 0.99999994 0
vn 0 0.99999994 0
vn 0 -0.99999994 0
vn 0 -0.99999994 0
vn 0 -0.99999994 0
vn 0 -0.99999994 0
vn 0 -0.99999994 0
vn 0 -0.99999994 0
vn 1 0 0
vn 1 0 0
vn 1 0 0
vn 1 0 0
vn 1 0 0
vn 1 0 0
vn -1 0 0
vn -1 0 0
vn -1 0 0
vn -1 0 0
vn -1 0 0
vn -1 0 0
vn 0 -0.9980081 0.06308717
vn 0 -0.9980081 0.06308717
vn 0 -0.9980081 0.06308717
vn 0 -0.7547493 0.65601325
vn 0 -0.7547493 0.65601325
vn 0 -0.7547493 0.65601325
vn 0 -0.9980081 0.06308717
vn 0 -0.9980081 0.06308717
vn 0 -0.9980081 0.06308717
vn 0 -0.7547493 0.65601325
vn 0 -0.7547493 0.65601325
vn 0 -0.7547493 0.65601325
vn 0 -0.9980081 0.06308717
vn 0 -0.9980081 0.06308717
vn 0 -0.9980081 0.06308717
vn 0 -0.7547493 0.65601325
vn 0 -0.7547493 0.65601325
vn 0 -0.7547493 0.65601325
vn 0 -0.7367181 0.6762
vn 0 -0.7367181 0.6762
vn 0 -0.7367181 0.6762
vn 0 -0.7367181 0.6762
vn 0 -0.7367181 0.6762
vn 0 -0.7367181 0.6762
f 1//1 2//2 3//3
f 4//4 5//5 6//6
f 7//7 8//8 9//9
f 10//10 11//11 12//12
f 13//13 14//14 15//15
f 16//16 17//17 18//18
f 19//19 20//20 21//21
f 22//22 23//23 24//24
f 25//25 26//26 27//27
f 28//28 29//29 30//30
f 31//31 32//32 33//33
f 34//34 35//35 36//36
f 37//37 38//38 39//39
f 40//40 41//41 42//42
f 43//43 44//44 45//45
f 46//46 47//47 48//48
f 49//49 50//50 51//51
f 52//52 53//53 54//54
f 55//55 56//56 57//57
f 58//58 59//59 60//60
f 61//61 62//62 63//63
f 64//64 65//65 66//66
f 67//67 68//68 69//69
f 70//70 71//71 72//72
f 73//73 74//74 75//75
f 76//76 77//77 78//78
f 79//79 80//80 81//81
f 82//82 83//83 84//84
