# Exported from SharpOpenGl procedural mesh
o solari_hero_mk2_33
# vertices 84
v -1.7396264 0.21551044 1.273976
v 1.7396264 0.21551044 1.273976
v 0 0.3448167 -0.54598975
v -1.7396264 0.21551044 1.273976
v 0 0.3448167 -0.54598975
v -1.7396264 0.21551044 -1.273976
v 1.7396264 0.21551044 1.273976
v 1.7396264 0.21551044 -1.273976
v 0 0.3448167 -0.54598975
v -1.7396264 0 1.273976
v 1.7396264 0 1.273976
v 1.7396264 0 -1.273976
v -1.7396264 0 1.273976
v 1.7396264 0 -1.273976
v -1.7396264 0 -1.273976
v -1.322116 0.21551044 1.4559726
v -0.9046057 0.3879188 0.54598975
v -1.5308712 0.21551044 -0.7279863
v 0 0.21551044 1.4559726
v 0.41751033 0.3879188 0.54598975
v -0.20875517 0.21551044 -0.7279863
v 1.322116 0.21551044 1.4559726
v 1.7396264 0.3879188 0.54598975
v 1.1133609 0.21551044 -0.7279863
v -0.38658366 0.21551044 0.36399314
v 0.38658366 0.21551044 0.36399314
v 0.38658366 0.90822256 0.36399314
v -0.38658366 0.21551044 0.36399314
v 0.38658366 0.90822256 0.36399314
v -0.38658366 0.90822256 0.36399314
v -0.38658366 0.21551044 1.6379691
v 0.38658366 0.90822256 1.6379691
v 0.38658366 0.21551044 1.6379691
v -0.38658366 0.21551044 1.6379691
v -0.38658366 0.90822256 1.6379691
v 0.38658366 0.90822256 1.6379691
v -0.38658366 0.21551044 0.36399314
v -0.38658366 0.21551044 1.6379691
v 0.38658366 0.21551044 1.6379691
v -0.38658366 0.21551044 0.36399314
v 0.38658366 0.21551044 1.6379691
v 0.38658366 0.21551044 0.36399314
v -0.38658366 0.90822256 0.36399314
v 0.38658366 0.90822256 1.6379691
v -0.38658366 0.90822256 1.6379691
v -0.38658366 0.90822256 0.36399314
v 0.38658366 0.90822256 0.36399314
v 0.38658366 0.90822256 1.6379691
v -0.38658366 0.21551044 0.36399314
v -0.38658366 0.90822256 0.36399314
v -0.38658366 0.90822256 1.6379691
v -0.38658366 0.21551044 0.36399314
v -0.38658366 0.90822256 1.6379691
v -0.38658366 0.21551044 1.6379691
v 0.38658366 0.21551044 0.36399314
v 0.38658366 0.21551044 1.6379691
v 0.38658366 0.90822256 1.6379691
v 0.38658366 0.21551044 0.36399314
v 0.38658366 0.90822256 1.6379691
v 0.38658366 0.90822256 0.36399314
v -1.0824342 0.06157441 -2.5075083
v -1.4535544 0 -3.323973
v -0.7113139 0 -3.323973
v -1.0824342 0.25399444 -2.321948
v -1.3051064 0.06157441 -2.5075083
v -0.859762 0.06157441 -2.5075083
v -0.36081138 0.06157441 -2.5075083
v -0.7319317 0 -3.323973
v 0.010308892 0 -3.323973
v -0.36081138 0.25399444 -2.321948
v -0.5834836 0.06157441 -2.5075083
v -0.1381392 0.06157441 -2.5075083
v 0.36081138 0.06157441 -2.5075083
v -0.010308892 0 -3.323973
v 0.7319317 0 -3.323973
v 0.36081138 0.25399444 -2.321948
v 0.1381392 0.06157441 -2.5075083
v 0.5834836 0.06157441 -2.5075083
v 1.0824342 0.06157441 -2.5075083
v 0.7113139 0 -3.323973
v 1.4535544 0 -3.323973
v 1.0824342 0.25399444 -2.321948
v 0.859762 0.06157441 -2.5075083
v 1.3051064 0.06157441 -2.5075083
vn -0 0.99748546 0.07087009
vn -0 0.99748546 0.07087009
vn -0 0.99748546 0.07087009
vn -0.074125424 0.99724895 0
vn -0.074125424 0.99724895 0
vn -0.074125424 0.99724895 0
vn 0.074125424 0.99724895 0
vn 0.074125424 0.99724895 0
vn 0.074125424 0.99724895 0
vn -0 1 0
vn -0 1 0
vn -0 1 0
vn 0 1 0
vn 0 1 0
vn 0 1 0
vn -0.32322952 0.9458161 0.030896105
vn -0.32322952 0.9458161 0.030896105
vn -0.32322952 0.9458161 0.030896105
vn -0.32322952 0.9458161 0.030896112
vn -0.32322952 0.9458161 0.030896112
vn -0.32322952 0.9458161 0.030896112
vn -0.32322952 0.9458161 0.030896105
vn -0.32322952 0.9458161 0.030896105
vn -0.32322952 0.9458161 0.030896105
vn 0 0 1
vn 0 0 1
vn 0 0 1
vn 0 0 1
vn 0 0 1
vn 0 0 1
vn 0 0 -1
vn 0 0 -1
vn 0 0 -1
vn 0 0 -1
vn 0 0 -1
vn 0 0 -1
vn 0 1 0
vn 0 1 0
vn 0 1 0
vn 0 1 0
vn 0 1 0
vn 0 1 0
vn 0 -1 0
vn 0 -1 0
vn 0 -1 0
vn 0 -1 0
vn 0 -1 0
vn 0 -1 0
vn 1 0 0
vn 1 0 0
vn 1 0 0
vn 1 0 0
vn 1 0 0
vn 1 0 0
vn -1 0 0
vn -1 0 0
vn -1 0 0
vn -1 0 0
vn -1 0 0
vn -1 0 0
vn 0 -0.9971683 0.07520234
vn 0 -0.9971683 0.07520234
vn 0 -0.9971683 0.07520234
vn 0 -0.69415945 0.7198212
vn 0 -0.69415945 0.7198212
vn 0 -0.69415945 0.7198212
vn 0 -0.99716836 0.07520234
vn 0 -0.99716836 0.07520234
vn 0 -0.99716836 0.07520234
vn 0 -0.69415957 0.7198212
vn 0 -0.69415957 0.7198212
vn 0 -0.69415957 0.7198212
vn 0 -0.99716836 0.07520234
vn 0 -0.99716836 0.07520234
vn 0 -0.99716836 0.07520234
vn 0 -0.69415957 0.7198212
vn 0 -0.69415957 0.7198212
vn 0 -0.69415957 0.7198212
vn 0 -0.9971683 0.07520234
vn 0 -0.9971683 0.07520234
vn 0 -0.9971683 0.07520234
vn 0 -0.69415945 0.7198212
vn 0 -0.69415945 0.7198212
vn 0 -0.69415945 0.7198212
f 1//1 2//2 3//3
f 4//4 5//5 6//6
f 7//7 8//8 9//9
f 10//10 11//11 12//12
f 13//13 14//14 15//15
f 16//16 17//17 18//18
f 19//19 20//20 21//21
f 22//22 23//23 24//24
f 25//25 26//26 27//27
f 28//28 29//29 30//30
f 31//31 32//32 33//33
f 34//34 35//35 36//36
f 37//37 38//38 39//39
f 40//40 41//41 42//42
f 43//43 44//44 45//45
f 46//46 47//47 48//48
f 49//49 50//50 51//51
f 52//52 53//53 54//54
f 55//55 56//56 57//57
f 58//58 59//59 60//60
f 61//61 62//62 63//63
f 64//64 65//65 66//66
f 67//67 68//68 69//69
f 70//70 71//71 72//72
f 73//73 74//74 75//75
f 76//76 77//77 78//78
f 79//79 80//80 81//81
f 82//82 83//83 84//84
