# Exported from SharpOpenGl procedural mesh
o solari_bomber_mk1_07
# vertices 78
v -2.2398624 0.1788571 0.7762146
v 2.2398624 0.1788571 0.7762146
v 0 0.28617138 -0.33266342
v -2.2398624 0.1788571 0.7762146
v 0 0.28617138 -0.33266342
v -2.2398624 0.1788571 -0.7762146
v 2.2398624 0.1788571 0.7762146
v 2.2398624 0.1788571 -0.7762146
v 0 0.28617138 -0.33266342
v -2.2398624 0 0.7762146
v 2.2398624 0 0.7762146
v 2.2398624 0 -0.7762146
v -2.2398624 0 0.7762146
v 2.2398624 0 -0.7762146
v -2.2398624 0 -0.7762146
v -1.7022954 0.1788571 0.8871024
v -1.1647284 0.32194278 0.33266342
v -1.9710789 0.1788571 -0.4435512
v 0 0.1788571 0.8871024
v 0.53756696 0.32194278 0.33266342
v -0.26878348 0.1788571 -0.4435512
v 1.7022954 0.1788571 0.8871024
v 2.2398624 0.32194278 0.33266342
v 1.433512 0.1788571 -0.4435512
v -0.4977472 0.1788571 0.2217756
v 0.4977472 0.1788571 0.2217756
v 0.4977472 0.7537549 0.2217756
v -0.4977472 0.1788571 0.2217756
v 0.4977472 0.7537549 0.2217756
v -0.4977472 0.7537549 0.2217756
v -0.4977472 0.1788571 0.9979902
v 0.4977472 0.7537549 0.9979902
v 0.4977472 0.1788571 0.9979902
v -0.4977472 0.1788571 0.9979902
v -0.4977472 0.7537549 0.9979902
v 0.4977472 0.7537549 0.9979902
v -0.4977472 0.1788571 0.2217756
v -0.4977472 0.1788571 0.9979902
v 0.4977472 0.1788571 0.9979902
v -0.4977472 0.1788571 0.2217756
v 0.4977472 0.1788571 0.9979902
v 0.4977472 0.1788571 0.2217756
v -0.4977472 0.7537549 0.2217756
v 0.4977472 0.7537549 0.9979902
v -0.4977472 0.7537549 0.9979902
v -0.4977472 0.7537549 0.2217756
v 0.4977472 0.7537549 0.2217756
v 0.4977472 0.7537549 0.9979902
v -0.4977472 0.1788571 0.2217756
v -0.4977472 0.7537549 0.2217756
v -0.4977472 0.7537549 0.9979902
v -0.4977472 0.1788571 0.2217756
v -0.4977472 0.7537549 0.9979902
v -0.4977472 0.1788571 0.9979902
v 0.4977472 0.1788571 0.2217756
v 0.4977472 0.1788571 0.9979902
v 0.4977472 0.7537549 0.9979902
v 0.4977472 0.1788571 0.2217756
v 0.4977472 0.7537549 0.9979902
v 0.4977472 0.7537549 0.2217756
v -1.1614101 0.051102027 -1.5277874
v -1.6392474 0 -2.5790296
v -0.68357277 0 -2.5790296
v -1.1614101 0.21079586 -1.2888688
v -1.4481125 0.051102027 -1.5277874
v -0.8747077 0.051102027 -1.5277874
v 0 0.051102027 -1.5277874
v -0.4778373 0 -2.5790296
v 0.4778373 0 -2.5790296
v 0 0.21079586 -1.2888688
v -0.2867024 0.051102027 -1.5277874
v 0.2867024 0.051102027 -1.5277874
v 1.1614101 0.051102027 -1.5277874
v 0.68357277 0 -2.5790296
v 1.6392474 0 -2.5790296
v 1.1614101 0.21079586 -1.2888688
v 0.8747077 0.051102027 -1.5277874
v 1.4481125 0.051102027 -1.5277874
vn -0 0.99534965 0.096327305
vn -0 0.99534965 0.096327305
vn -0 0.99534965 0.096327305
vn -0.0478562 0.99885416 0
vn -0.0478562 0.99885416 0
vn -0.0478562 0.99885416 0
vn 0.0478562 0.99885416 0
vn 0.0478562 0.99885416 0
vn 0.0478562 0.99885416 0
vn -0 1 0
vn -0 1 0
vn -0 1 0
vn 0 1 0
vn 0 1 0
vn 0 1 0
vn -0.21492061 0.97566617 0.043412577
vn -0.21492061 0.97566617 0.043412577
vn -0.21492061 0.97566617 0.043412577
vn -0.21492061 0.9756661 0.04341258
vn -0.21492061 0.9756661 0.04341258
vn -0.21492061 0.9756661 0.04341258
vn -0.21492061 0.97566617 0.043412577
vn -0.21492061 0.97566617 0.043412577
vn -0.21492061 0.97566617 0.043412577
vn 0 0 1
vn 0 0 1
vn 0 0 1
vn 0 0 1
vn 0 0 1
vn 0 0 1
vn 0 0 -1
vn 0 0 -1
vn 0 0 -1
vn 0 0 -1
vn 0 0 -1
vn 0 0 -1
vn 0 1 0
vn 0 1 0
vn 0 1 0
vn 0 1 0
vn 0 1 0
vn 0 1 0
vn 0 -1 0
vn 0 -1 0
vn 0 -1 0
vn 0 -1 0
vn 0 -1 0
vn 0 -1 0
vn 1 0 0
vn 1 0 0
vn 1 0 0
vn 1 0 0
vn 1 0 0
vn 1 0 0
vn -1 0 0
vn -1 0 0
vn -1 0 0
vn -1 0 0
vn -1 0 0
vn -1 0 0
vn 0 -0.9988206 0.04855376
vn 0 -0.9988206 0.04855376
vn 0 -0.9988206 0.04855376
vn 0 -0.8313836 0.5556989
vn 0 -0.8313836 0.5556989
vn 0 -0.8313836 0.5556989
vn 0 -0.9988206 0.04855376
vn 0 -0.9988206 0.04855376
vn 0 -0.9988206 0.04855376
vn 0 -0.8313836 0.5556989
vn 0 -0.8313836 0.5556989
vn 0 -0.8313836 0.5556989
vn 0 -0.9988206 0.04855376
vn 0 -0.9988206 0.04855376
vn 0 -0.9988206 0.04855376
vn 0 -0.8313836 0.5556989
vn 0 -0.8313836 0.5556989
vn 0 -0.8313836 0.5556989
f 1//1 2//2 3//3
f 4//4 5//5 6//6
f 7//7 8//8 9//9
f 10//10 11//11 12//12
f 13//13 14//14 15//15
f 16//16 17//17 18//18
f 19//19 20//20 21//21
f 22//22 23//23 24//24
f 25//25 26//26 27//27
f 28//28 29//29 30//30
f 31//31 32//32 33//33
f 34//34 35//35 36//36
f 37//37 38//38 39//39
f 40//40 41//41 42//42
f 43//43 44//44 45//45
f 46//46 47//47 48//48
f 49//49 50//50 51//51
f 52//52 53//53 54//54
f 55//55 56//56 57//57
f 58//58 59//59 60//60
f 61//61 62//62 63//63
f 64//64 65//65 66//66
f 67//67 68//68 69//69
f 70//70 71//71 72//72
f 73//73 74//74 75//75
f 76//76 77//77 78//78
