# Exported from SharpOpenGl procedural mesh
o solari_fighter_mk2_18
# vertices 78
v -0.93377125 0.11369251 0.73882663
v 0.93377125 0.11369251 0.73882663
v 0 0.18190801 -0.31664002
v -0.93377125 0.11369251 0.73882663
v 0 0.18190801 -0.31664002
v -0.93377125 0.11369251 -0.73882663
v 0.93377125 0.11369251 0.73882663
v 0.93377125 0.11369251 -0.73882663
v 0 0.18190801 -0.31664002
v -0.93377125 0 0.73882663
v 0.93377125 0 0.73882663
v 0.93377125 0 -0.73882663
v -0.93377125 0 0.73882663
v 0.93377125 0 -0.73882663
v -0.93377125 0 -0.73882663
v -0.70966613 0.11369251 0.84437335
v -0.48556104 0.20464651 0.31664002
v -0.8217187 0.11369251 -0.42218667
v 0 0.11369251 0.84437335
v 0.22410509 0.20464651 0.31664002
v -0.112052545 0.11369251 -0.42218667
v 0.70966613 0.11369251 0.84437335
v 0.93377125 0.20464651 0.31664002
v 0.5976136 0.11369251 -0.42218667
v -0.20750473 0.11369251 0.21109334
v 0.20750473 0.11369251 0.21109334
v 0.20750473 0.4791327 0.21109334
v -0.20750473 0.11369251 0.21109334
v 0.20750473 0.4791327 0.21109334
v -0.20750473 0.4791327 0.21109334
v -0.20750473 0.11369251 0.94991994
v 0.20750473 0.4791327 0.94991994
v 0.20750473 0.11369251 0.94991994
v -0.20750473 0.11369251 0.94991994
v -0.20750473 0.4791327 0.94991994
v 0.20750473 0.4791327 0.94991994
v -0.20750473 0.11369251 0.21109334
v -0.20750473 0.11369251 0.94991994
v 0.20750473 0.11369251 0.94991994
v -0.20750473 0.11369251 0.21109334
v 0.20750473 0.11369251 0.94991994
v 0.20750473 0.11369251 0.21109334
v -0.20750473 0.4791327 0.21109334
v 0.20750473 0.4791327 0.94991994
v -0.20750473 0.4791327 0.94991994
v -0.20750473 0.4791327 0.21109334
v 0.20750473 0.4791327 0.21109334
v 0.20750473 0.4791327 0.94991994
v -0.20750473 0.11369251 0.21109334
v -0.20750473 0.4791327 0.21109334
v -0.20750473 0.4791327 0.94991994
v -0.20750473 0.11369251 0.21109334
v -0.20750473 0.4791327 0.94991994
v -0.20750473 0.11369251 0.94991994
v 0.20750473 0.11369251 0.21109334
v 0.20750473 0.11369251 0.94991994
v 0.20750473 0.4791327 0.94991994
v 0.20750473 0.11369251 0.21109334
v 0.20750473 0.4791327 0.94991994
v 0.20750473 0.4791327 0.21109334
v -0.48417768 0.032483574 -1.4541985
v -0.6252809 0 -1.7646255
v -0.34307444 0 -1.7646255
v -0.48417768 0.13399474 -1.3836468
v -0.5688396 0.032483574 -1.4541985
v -0.39951575 0.032483574 -1.4541985
v 0 0.032483574 -1.4541985
v -0.14110322 0 -1.7646255
v 0.14110322 0 -1.7646255
v 0 0.13399474 -1.3836468
v -0.08466194 0.032483574 -1.4541985
v 0.08466194 0.032483574 -1.4541985
v 0.48417768 0.032483574 -1.4541985
v 0.34307444 0 -1.7646255
v 0.6252809 0 -1.7646255
v 0.48417768 0.13399474 -1.3836468
v 0.39951575 0.032483574 -1.4541985
v 0.5688396 0.032483574 -1.4541985
vn -0 0.99791795 0.06449609
vn -0 0.99791795 0.06449609
vn -0 0.99791795 0.06449609
vn -0.07285959 0.99734217 0
vn -0.07285959 0.99734217 0
vn -0.07285959 0.99734217 0
vn 0.07285959 0.99734217 0
vn 0.07285959 0.99734217 0
vn 0.07285959 0.99734217 0
vn -0 1 0
vn -0 1 0
vn -0 1 0
vn 0 1 0
vn 0 1 0
vn 0 1 0
vn -0.3182729 0.9475809 0.0281576
vn -0.3182729 0.9475809 0.0281576
vn -0.3182729 0.9475809 0.0281576
vn -0.3182729 0.9475809 0.028157597
vn -0.3182729 0.9475809 0.028157597
vn -0.3182729 0.9475809 0.028157597
vn -0.31827286 0.9475809 0.028157597
vn -0.31827286 0.9475809 0.028157597
vn -0.31827286 0.9475809 0.028157597
vn 0 0 0.99999994
vn 0 0 0.99999994
vn 0 0 0.99999994
vn 0 0 0.99999994
vn 0 0 0.99999994
vn 0 0 0.99999994
vn 0 0 -0.99999994
vn 0 0 -0.99999994
vn 0 0 -0.99999994
vn 0 0 -0.99999994
vn 0 0 -0.99999994
vn 0 0 -0.99999994
vn 0 1 0
vn 0 1 0
vn 0 1 0
vn 0 1 0
vn 0 1 0
vn 0 1 0
vn 0 -1 0
vn 0 -1 0
vn 0 -1 0
vn 0 -1 0
vn 0 -1 0
vn 0 -1 0
vn 1 0 0
vn 1 0 0
vn 1 0 0
vn 1 0 0
vn 1 0 0
vn 1 0 0
vn -1 0 0
vn -1 0 0
vn -1 0 0
vn -1 0 0
vn -1 0 0
vn -1 0 0
vn 0 -0.9945697 0.10407333
vn 0 -0.9945697 0.10407333
vn 0 -0.9945697 0.10407333
vn 0 -0.570711 0.82115096
vn 0 -0.570711 0.82115096
vn 0 -0.570711 0.82115096
vn 0 -0.9945697 0.10407333
vn 0 -0.9945697 0.10407333
vn 0 -0.9945697 0.10407333
vn 0 -0.5707111 0.82115096
vn 0 -0.5707111 0.82115096
vn 0 -0.5707111 0.82115096
vn 0 -0.9945697 0.10407333
vn 0 -0.9945697 0.10407333
vn 0 -0.9945697 0.10407333
vn 0 -0.570711 0.82115096
vn 0 -0.570711 0.82115096
vn 0 -0.570711 0.82115096
f 1//1 2//2 3//3
f 4//4 5//5 6//6
f 7//7 8//8 9//9
f 10//10 11//11 12//12
f 13//13 14//14 15//15
f 16//16 17//17 18//18
f 19//19 20//20 21//21
f 22//22 23//23 24//24
f 25//25 26//26 27//27
f 28//28 29//29 30//30
f 31//31 32//32 33//33
f 34//34 35//35 36//36
f 37//37 38//38 39//39
f 40//40 41//41 42//42
f 43//43 44//44 45//45
f 46//46 47//47 48//48
f 49//49 50//50 51//51
f 52//52 53//53 54//54
f 55//55 56//56 57//57
f 58//58 59//59 60//60
f 61//61 62//62 63//63
f 64//64 65//65 66//66
f 67//67 68//68 69//69
f 70//70 71//71 72//72
f 73//73 74//74 75//75
f 76//76 77//77 78//78
