# Exported from SharpOpenGl procedural mesh
o solari_drone_mk1_03
# vertices 285
v -0.18148057 0.009756899 -0.39466524
v 0.18148057 0.009756899 -0.39466524
v 0 0.030490313 -0.33008367
v -0.18148057 0.009756899 -0.39466524
v 0 0.030490313 -0.33008367
v -0.25572264 0.012861368 -0.2511506
v 0.18148057 0.009756899 -0.39466524
v 0.25572264 0.012861368 -0.2511506
v 0 0.040191777 -0.33008367
v -0.18148057 0 -0.39466524
v -0.25572264 0 -0.2511506
v 0.18148057 0 -0.39466524
v 0.18148057 0 -0.39466524
v -0.25572264 0 -0.2511506
v 0.25572264 0 -0.2511506
v -0.25572264 0.012861368 -0.2511506
v 0.25572264 0.012861368 -0.2511506
v 0 0.040191777 -0.18656904
v -0.25572264 0.012861368 -0.2511506
v 0 0.040191777 -0.18656904
v -0.31007162 0.015133996 -0.107635975
v 0.25572264 0.012861368 -0.2511506
v 0.31007162 0.015133996 -0.107635975
v 0 0.047293738 -0.18656904
v -0.25572264 0 -0.2511506
v -0.31007162 0 -0.107635975
v 0.25572264 0 -0.2511506
v 0.25572264 0 -0.2511506
v -0.31007162 0 -0.107635975
v 0.31007162 0 -0.107635975
v -0.31007162 0.015133996 -0.107635975
v 0.31007162 0.015133996 -0.107635975
v 0 0.047293738 -0.043054394
v -0.31007162 0.015133996 -0.107635975
v 0 0.047293738 -0.043054394
v -0.3299647 0.015965836 0.03587866
v 0.31007162 0.015133996 -0.107635975
v 0.3299647 0.015965836 0.03587866
v 0 0.049893238 -0.043054394
v -0.31007162 0 -0.107635975
v -0.3299647 0 0.03587866
v 0.31007162 0 -0.107635975
v 0.31007162 0 -0.107635975
v -0.3299647 0 0.03587866
v 0.3299647 0 0.03587866
v -0.3299647 0.015965836 0.03587866
v 0.3299647 0.015965836 0.03587866
v 0 0.049893238 0.10046024
v -0.3299647 0.015965836 0.03587866
v 0 0.049893238 0.10046024
v -0.31007162 0.015133996 0.17939329
v 0.3299647 0.015965836 0.03587866
v 0.31007162 0.015133996 0.17939329
v 0 0.047293738 0.10046024
v -0.3299647 0 0.03587866
v -0.31007162 0 0.17939329
v 0.3299647 0 0.03587866
v 0.3299647 0 0.03587866
v -0.31007162 0 0.17939329
v 0.31007162 0 0.17939329
v -0.31007162 0.015133996 0.17939329
v 0.31007162 0.015133996 0.17939329
v 0 0.047293738 0.24397486
v -0.31007162 0.015133996 0.17939329
v 0 0.047293738 0.24397486
v -0.3057173 0.012861368 0.32290792
v 0.31007162 0.015133996 0.17939329
v 0.3057173 0.012861368 0.32290792
v 0 0.040191777 0.24397486
v -0.31007162 0 0.17939329
v -0.3057173 0 0.32290792
v 0.31007162 0 0.17939329
v 0.31007162 0 0.17939329
v -0.3057173 0 0.32290792
v 0.3057173 0 0.32290792
v -0.3057173 0.012861368 0.32290792
v 0.3057173 0.012861368 0.32290792
v 0 0.040191777 0.3874895
v -0.3057173 0.012861368 0.32290792
v 0 0.040191777 0.3874895
v -0.18148056 0.0097568985 0.46642256
v 0.3057173 0.012861368 0.32290792
v 0.18148056 0.0097568985 0.46642256
v 0 0.030490309 0.3874895
v -0.3057173 0 0.32290792
v -0.18148056 0 0.46642256
v 0.3057173 0 0.32290792
v 0.3057173 0 0.32290792
v -0.18148056 0 0.46642256
v 0.18148056 0 0.46642256
v -0.55681545 0.05543693 0.2726778
v 0.55681545 0.05543693 0.2726778
v 0 0.08592724 -0.21527195
v -0.55681545 0.05543693 0.2726778
v 0 0.08592724 -0.21527195
v -0.55681545 0.05543693 -0.2726778
v 0.55681545 0.05543693 0.2726778
v 0.55681545 0.05543693 -0.2726778
v 0 0.08592724 -0.21527195
v -0.55681545 0.051001977 0.2726778
v 0.55681545 0.051001977 0.2726778
v 0.55681545 0.051001977 -0.2726778
v -0.55681545 0.051001977 0.2726778
v 0.55681545 0.051001977 -0.2726778
v -0.55681545 0.051001977 -0.2726778
v -0.55681545 0.051001977 0.2726778
v -0.55681545 0.05543693 0.2726778
v 0.55681545 0.05543693 0.2726778
v -0.55681545 0.051001977 -0.2726778
v 0.55681545 0.05543693 -0.2726778
v -0.55681545 0.05543693 -0.2726778
v 0.55681545 0.051001977 -0.2726778
v 0.55681545 0.05543693 -0.2726778
v 0.55681545 0.05543693 0.2726778
v 0.55681545 0.051001977 0.2726778
v 0.55681545 0.05543693 0.2726778
v 0.55681545 0.05543693 -0.2726778
v -0.5234065 0.05543693 -0.2726778
v -0.4120434 0.05543693 -0.2726778
v -0.46772495 0.07483986 -0.20092049
v -0.5234065 0.05543693 -0.2726778
v -0.46772495 0.07483986 -0.20092049
v -0.5122702 0.05543693 -0.20092049
v -0.4120434 0.05543693 -0.2726778
v -0.42317972 0.05543693 -0.20092049
v -0.46772495 0.07483986 -0.20092049
v -0.055681545 0.05543693 -0.2726778
v 0.055681545 0.05543693 -0.2726778
v 0 0.07483986 -0.20092049
v -0.055681545 0.05543693 -0.2726778
v 0 0.07483986 -0.20092049
v -0.044545233 0.05543693 -0.20092049
v 0.055681545 0.05543693 -0.2726778
v 0.044545233 0.05543693 -0.20092049
v 0 0.07483986 -0.20092049
v 0.4120434 0.05543693 -0.2726778
v 0.5234065 0.05543693 -0.2726778
v 0.46772495 0.07483986 -0.20092049
v 0.4120434 0.05543693 -0.2726778
v 0.46772495 0.07483986 -0.20092049
v 0.42317972 0.05543693 -0.20092049
v 0.5234065 0.05543693 -0.2726778
v 0.5122702 0.05543693 -0.20092049
v 0.46772495 0.07483986 -0.20092049
v -0.5234065 0.05543693 0.21527195
v -0.4120434 0.05543693 0.21527195
v -0.46772495 0.099786475 0.28702927
v -0.5234065 0.05543693 0.21527195
v -0.46772495 0.099786475 0.28702927
v -0.5122702 0.05543693 0.28702927
v -0.4120434 0.05543693 0.21527195
v -0.42317972 0.05543693 0.28702927
v -0.46772495 0.099786475 0.28702927
v -0.055681545 0.05543693 0.21527195
v 0.055681545 0.05543693 0.21527195
v 0 0.099786475 0.28702927
v -0.055681545 0.05543693 0.21527195
v 0 0.099786475 0.28702927
v -0.044545233 0.05543693 0.28702927
v 0.055681545 0.05543693 0.21527195
v 0.044545233 0.05543693 0.28702927
v 0 0.099786475 0.28702927
v 0.4120434 0.05543693 0.21527195
v 0.5234065 0.05543693 0.21527195
v 0.46772495 0.099786475 0.28702927
v 0.4120434 0.05543693 0.21527195
v 0.46772495 0.099786475 0.28702927
v 0.42317972 0.05543693 0.28702927
v 0.5234065 0.05543693 0.21527195
v 0.5122702 0.05543693 0.28702927
v 0.46772495 0.099786475 0.28702927
v -0.082491174 0.04625024 0.024110459
v 0.082491174 0.04625024 0.024110459
v 0 0.144532 0.029535312
v -0.082491174 0.04625024 0.024110459
v 0 0.144532 0.029535312
v -0.07699177 0.052057914 0.03616569
v 0.082491174 0.04625024 0.024110459
v 0.07699177 0.052057914 0.03616569
v 0 0.16268098 0.029535312
v -0.082491174 0 0.024110459
v -0.07699177 0 0.03616569
v 0.082491174 0 0.024110459
v 0.082491174 0 0.024110459
v -0.07699177 0 0.03616569
v 0.07699177 0 0.03616569
v -0.07699177 0.052057914 0.03616569
v 0.07699177 0.052057914 0.03616569
v 0 0.16268098 0.04159054
v -0.07699177 0.052057914 0.03616569
v 0 0.16268098 0.04159054
v -0.07149235 0.0578656 0.048220918
v 0.07699177 0.052057914 0.03616569
v 0.07149235 0.0578656 0.048220918
v 0 0.18083 0.04159054
v -0.07699177 0 0.03616569
v -0.07149235 0 0.048220918
v 0.07699177 0 0.03616569
v 0.07699177 0 0.03616569
v -0.07149235 0 0.048220918
v 0.07149235 0 0.048220918
v -0.07149235 0.0578656 0.048220918
v 0.07149235 0.0578656 0.048220918
v 0 0.18083 0.05364577
v -0.07149235 0.0578656 0.048220918
v 0 0.18083 0.05364577
v -0.065992944 0.06367327 0.060276147
v 0.07149235 0.0578656 0.048220918
v 0.065992944 0.06367327 0.060276147
v 0 0.19897899 0.05364577
v -0.07149235 0 0.048220918
v -0.065992944 0 0.060276147
v 0.07149235 0 0.048220918
v 0.07149235 0 0.048220918
v -0.065992944 0 0.060276147
v 0.065992944 0 0.060276147
v -0.065992944 0.06367327 0.060276147
v 0.065992944 0.06367327 0.060276147
v 0 0.19897899 0.065701
v -0.065992944 0.06367327 0.060276147
v 0 0.19897899 0.065701
v -0.06049353 0.06948095 0.07233138
v 0.065992944 0.06367327 0.060276147
v 0.06049353 0.06948095 0.07233138
v 0 0.21712798 0.065701
v -0.065992944 0 0.060276147
v -0.06049353 0 0.07233138
v 0.065992944 0 0.060276147
v 0.065992944 0 0.060276147
v -0.06049353 0 0.07233138
v 0.06049353 0 0.07233138
v -0.06049353 0.06948095 0.07233138
v 0.06049353 0.06948095 0.07233138
v 0 0.21712798 0.077756226
v -0.06049353 0.06948095 0.07233138
v 0 0.21712798 0.077756226
v -0.054994114 0.07528863 0.0843866
v 0.06049353 0.06948095 0.07233138
v 0.054994114 0.07528863 0.0843866
v 0 0.23527697 0.077756226
v -0.06049353 0 0.07233138
v -0.054994114 0 0.0843866
v 0.06049353 0 0.07233138
v 0.06049353 0 0.07233138
v -0.054994114 0 0.0843866
v 0.054994114 0 0.0843866
v -0.054994114 0.07528863 0.0843866
v 0.054994114 0.07528863 0.0843866
v 0 0.23527697 0.08981146
v -0.054994114 0.07528863 0.0843866
v 0 0.23527697 0.08981146
v -0.049494706 0.081096314 0.096441835
v 0.054994114 0.07528863 0.0843866
v 0.049494706 0.081096314 0.096441835
v 0 0.253426 0.08981146
v -0.054994114 0 0.0843866
v -0.049494706 0 0.096441835
v 0.054994114 0 0.0843866
v 0.054994114 0 0.0843866
v -0.049494706 0 0.096441835
v 0.049494706 0 0.096441835
v -0.3464629 0.015839124 -0.4943282
v -0.39595762 0 -0.6032165
v -0.2969682 0 -0.6032165
v -0.3464629 0.065336384 -0.46958086
v -0.37615973 0.015839124 -0.4943282
v -0.31676608 0.015839124 -0.4943282
v -0.11548764 0.015839124 -0.4943282
v -0.16498235 0 -0.6032165
v -0.06599294 0 -0.6032165
v -0.11548764 0.065336384 -0.46958086
v -0.14518446 0.015839124 -0.4943282
v -0.08579082 0.015839124 -0.4943282
v 0.11548764 0.015839124 -0.4943282
v 0.06599294 0 -0.6032165
v 0.16498235 0 -0.6032165
v 0.11548764 0.065336384 -0.46958086
v 0.08579082 0.015839124 -0.4943282
v 0.14518446 0.015839124 -0.4943282
v 0.3464629 0.015839124 -0.4943282
v 0.2969682 0 -0.6032165
v 0.39595762 0 -0.6032165
v 0.3464629 0.065336384 -0.46958086
v 0.31676608 0.015839124 -0.4943282
v 0.37615973 0.015839124 -0.4943282
vn 0 -0.9521356 0.30567575
vn 0 -0.9521356 0.30567575
vn 0 -0.9521356 0.30567575
vn 0.08941498 -0.9936874 0.06775075
vn 0.08941498 -0.9936874 0.06775075
vn 0.08941498 -0.9936874 0.06775075
vn -0.13336465 -0.986941 0.09034058
vn -0.13336465 -0.986941 0.09034058
vn -0.13336465 -0.986941 0.09034058
vn 0 1 -0
vn 0 1 -0
vn 0 1 -0
vn 0 1 -0
vn 0 1 -0
vn 0 1 -0
vn 0 -0.9209292 0.38972995
vn 0 -0.9209292 0.38972995
vn 0 -0.9209292 0.38972995
vn 0.093362585 -0.99431986 0.05110196
vn 0.093362585 -0.99431986 0.05110196
vn 0.093362585 -0.99431986 0.05110196
vn -0.1181884 -0.99114925 0.06045329
vn -0.1181884 -0.99114925 0.06045329
vn -0.1181884 -0.99114925 0.06045329
vn 0 1 -0
vn 0 1 -0
vn 0 1 -0
vn 0 1 -0
vn 0 1 -0
vn 0 1 -0
vn 0 -0.89515257 0.4457599
vn 0 -0.89515257 0.4457599
vn 0 -0.89515257 0.4457599
vn 0.099123724 -0.9948839 0.019506449
vn 0.099123724 -0.9948839 0.019506449
vn 0.099123724 -0.9948839 0.019506449
vn -0.10713835 -0.9940305 0.02061244
vn -0.10713835 -0.9940305 0.02061244
vn -0.10713835 -0.9940305 0.02061244
vn 0 1 -0
vn 0 1 -0
vn 0 1 -0
vn 0 1 -0
vn 0 1 -0
vn 0 1 -0
vn 0 -0.88527334 0.46507108
vn 0 -0.88527334 0.46507108
vn 0 -0.88527334 0.46507108
vn 0.10622756 -0.99413085 -0.020486774
vn 0.10622756 -0.99413085 -0.020486774
vn 0.10622756 -0.99413085 -0.020486774
vn -0.09826034 -0.99497193 -0.019387282
vn -0.09826034 -0.99497193 -0.019387282
vn -0.09826034 -0.99497193 -0.019387282
vn 0 1 0
vn 0 1 0
vn 0 1 0
vn 0 1 0
vn 0 1 0
vn 0 1 0
vn 0 -0.89515257 0.44575992
vn 0 -0.89515257 0.44575992
vn 0 -0.89515257 0.44575992
vn 0.10705744 -0.99407136 -0.01898982
vn 0.10705744 -0.99407136 -0.01898982
vn 0.10705744 -0.99407136 -0.01898982
vn -0.08433021 -0.9962692 -0.018335065
vn -0.08433021 -0.9962692 -0.018335065
vn -0.08433021 -0.9962692 -0.018335065
vn 0 1 0
vn 0 1 0
vn 0 1 0
vn 0 1 0
vn 0 1 0
vn 0 1 0
vn 0 -0.92092913 0.38972995
vn 0 -0.92092913 0.38972995
vn 0 -0.92092913 0.38972995
vn 0.113424815 -0.9863308 -0.11952483
vn 0.113424815 -0.9863308 -0.11952483
vn 0.113424815 -0.9863308 -0.11952483
vn -0.075653724 -0.9933334 -0.0869789
vn -0.075653724 -0.9933334 -0.0869789
vn -0.075653724 -0.9933334 -0.0869789
vn 0 1 0
vn 0 1 0
vn 0 1 0
vn 0 1 0
vn 0 1 0
vn 0 1 0
vn -0 0.99805343 0.062364936
vn -0 0.99805343 0.062364936
vn -0 0.99805343 0.062364936
vn -0.054676462 0.9985041 0
vn -0.054676462 0.9985041 0
vn -0.054676462 0.9985041 0
vn 0.054676462 0.9985041 0
vn 0.054676462 0.9985041 0
vn 0.054676462 0.9985041 0
vn -0 1 0
vn -0 1 0
vn -0 1 0
vn 0 1 0
vn 0 1 0
vn 0 1 0
vn 0 0 -1
vn 0 0 -1
vn 0 0 -1
vn 0 0 1
vn 0 0 1
vn 0 0 1
vn 1 0 0
vn 1 0 0
vn 1 0 0
vn -1 0 0
vn -1 0 0
vn -1 0 0
vn 0 -0.9653327 0.2610226
vn 0 -0.9653327 0.2610226
vn 0 -0.9653327 0.2610226
vn 0.39857447 -0.9150477 -0.061856303
vn 0.39857447 -0.9150477 -0.061856303
vn 0.39857447 -0.9150477 -0.061856303
vn -0.39857468 -0.9150476 -0.0618565
vn -0.39857468 -0.9150476 -0.0618565
vn -0.39857468 -0.9150476 -0.0618565
vn 0 -0.9653326 0.2610226
vn 0 -0.9653326 0.2610226
vn 0 -0.9653326 0.2610226
vn 0.39857468 -0.9150476 -0.061856437
vn 0.39857468 -0.9150476 -0.061856437
vn 0.39857468 -0.9150476 -0.061856437
vn -0.39857468 -0.9150476 -0.061856437
vn -0.39857468 -0.9150476 -0.061856437
vn -0.39857468 -0.9150476 -0.061856437
vn 0 -0.9653327 0.2610226
vn 0 -0.9653327 0.2610226
vn 0 -0.9653327 0.2610226
vn 0.39857468 -0.9150476 -0.0618565
vn 0.39857468 -0.9150476 -0.0618565
vn 0.39857468 -0.9150476 -0.0618565
vn -0.39857447 -0.9150477 -0.061856303
vn -0.39857447 -0.9150477 -0.061856303
vn -0.39857447 -0.9150477 -0.061856303
vn 0 -0.85064507 0.5257404
vn 0 -0.85064507 0.5257404
vn 0 -0.85064507 0.5257404
vn 0.7013563 -0.7044515 -0.10884619
vn 0.7013563 -0.7044515 -0.10884619
vn 0.7013563 -0.7044515 -0.10884619
vn -0.7013565 -0.7044512 -0.10884649
vn -0.7013565 -0.7044512 -0.10884649
vn -0.7013565 -0.7044512 -0.10884649
vn 0 -0.850645 0.5257404
vn 0 -0.850645 0.5257404
vn 0 -0.850645 0.5257404
vn 0.7013565 -0.7044512 -0.10884639
vn 0.7013565 -0.7044512 -0.10884639
vn 0.7013565 -0.7044512 -0.10884639
vn -0.7013565 -0.7044512 -0.10884639
vn -0.7013565 -0.7044512 -0.10884639
vn -0.7013565 -0.7044512 -0.10884639
vn 0 -0.85064507 0.5257404
vn 0 -0.85064507 0.5257404
vn 0 -0.85064507 0.5257404
vn 0.7013565 -0.7044512 -0.10884649
vn 0.7013565 -0.7044512 -0.10884649
vn 0.7013565 -0.7044512 -0.10884649
vn -0.7013563 -0.7044515 -0.10884619
vn -0.7013563 -0.7044515 -0.10884619
vn -0.7013563 -0.7044515 -0.10884619
vn 0 -0.055113062 0.99848014
vn 0 -0.055113062 0.99848014
vn 0 -0.055113062 0.99848014
vn 0.76642615 -0.64103466 -0.040809575
vn 0.76642615 -0.64103466 -0.040809575
vn 0.76642615 -0.64103466 -0.040809575
vn -0.81431425 -0.57248366 -0.09568024
vn -0.81431425 -0.57248366 -0.09568024
vn -0.81431425 -0.57248366 -0.09568024
vn 0 1 0
vn 0 1 0
vn 0 1 0
vn 0 1 0
vn 0 1 0
vn 0 1 0
vn 0 -0.048980217 0.9987997
vn 0 -0.048980217 0.9987997
vn 0 -0.048980217 0.9987997
vn 0.8188727 -0.56494933 -0.10138936
vn 0.8188727 -0.56494933 -0.10138936
vn 0.8188727 -0.56494933 -0.10138936
vn -0.8517696 -0.5031074 -0.14618918
vn -0.8517696 -0.5031074 -0.14618918
vn -0.8517696 -0.5031074 -0.14618918
vn 0 1 0
vn 0 1 0
vn 0 1 0
vn 0 1 0
vn 0 1 0
vn 0 1 0
vn 0 -0.0440744 0.99902827
vn 0 -0.0440744 0.99902827
vn 0 -0.0440744 0.99902827
vn 0.8571036 -0.4915229 -0.15420347
vn 0.8571036 -0.4915229 -0.15420347
vn 0.8571036 -0.4915229 -0.15420347
vn -0.87873906 -0.43789533 -0.18990861
vn -0.87873906 -0.43789533 -0.18990861
vn -0.87873906 -0.43789533 -0.18990861
vn 0 1 0
vn 0 1 0
vn 0 1 0
vn 0 1 0
vn 0 1 0
vn 0 1 0
vn 0 -0.04006112 0.9991972
vn 0 -0.04006112 0.9991972
vn 0 -0.04006112 0.9991972
vn 0.88387454 -0.42310023 -0.19937938
vn 0.88387454 -0.42310023 -0.19937938
vn 0.88387454 -0.42310023 -0.19937938
vn -0.89748716 -0.37792563 -0.22735238
vn -0.89748716 -0.37792563 -0.22735238
vn -0.89748716 -0.37792563 -0.22735238
vn 0 1 0
vn 0 1 0
vn 0 1 0
vn 0 0.99999994 0
vn 0 0.99999994 0
vn 0 0.99999994 0
vn 0 -0.03671724 0.9993257
vn 0 -0.03671724 0.9993257
vn 0 -0.03671724 0.9993257
vn 0.90187377 -0.36078286 -0.23761193
vn 0.90187377 -0.36078286 -0.23761193
vn 0.90187377 -0.36078286 -0.23761193
vn -0.9100014 -0.3235467 -0.2592584
vn -0.9100014 -0.3235467 -0.2592584
vn -0.9100014 -0.3235467 -0.2592584
vn 0 1 0
vn 0 1 0
vn 0 1 0
vn 0 1 0
vn 0 1 0
vn 0 1 0
vn 0 -0.03388835 0.99942565
vn 0 -0.03388835 0.99942565
vn 0 -0.03388835 0.99942565
vn 0.9133893 -0.30481762 -0.26982605
vn 0.9133893 -0.30481762 -0.26982605
vn 0.9133893 -0.30481762 -0.26982605
vn -0.9178965 -0.2746484 -0.2864164
vn -0.9178965 -0.2746484 -0.2864164
vn -0.9178965 -0.2746484 -0.2864164
vn 0 1 0
vn 0 1 0
vn 0 1 0
vn 0 1 0
vn 0 1 0
vn 0 1 0
vn 0 -0.98958534 0.14394715
vn 0 -0.98958534 0.14394715
vn 0 -0.98958534 0.14394715
vn 0 -0.44719496 0.89443654
vn 0 -0.44719496 0.89443654
vn 0 -0.44719496 0.89443654
vn 0 -0.98958534 0.14394715
vn 0 -0.98958534 0.14394715
vn 0 -0.98958534 0.14394715
vn 0 -0.44719496 0.8944365
vn 0 -0.44719496 0.8944365
vn 0 -0.44719496 0.8944365
vn 0 -0.98958534 0.14394715
vn 0 -0.98958534 0.14394715
vn 0 -0.98958534 0.14394715
vn 0 -0.44719496 0.8944365
vn 0 -0.44719496 0.8944365
vn 0 -0.44719496 0.8944365
vn 0 -0.98958534 0.14394715
vn 0 -0.98958534 0.14394715
vn 0 -0.98958534 0.14394715
vn 0 -0.44719496 0.89443654
vn 0 -0.44719496 0.89443654
vn 0 -0.44719496 0.89443654
f 1//1 2//2 3//3
f 4//4 5//5 6//6
f 7//7 8//8 9//9
f 10//10 11//11 12//12
f 13//13 14//14 15//15
f 16//16 17//17 18//18
f 19//19 20//20 21//21
f 22//22 23//23 24//24
f 25//25 26//26 27//27
f 28//28 29//29 30//30
f 31//31 32//32 33//33
f 34//34 35//35 36//36
f 37//37 38//38 39//39
f 40//40 41//41 42//42
f 43//43 44//44 45//45
f 46//46 47//47 48//48
f 49//49 50//50 51//51
f 52//52 53//53 54//54
f 55//55 56//56 57//57
f 58//58 59//59 60//60
f 61//61 62//62 63//63
f 64//64 65//65 66//66
f 67//67 68//68 69//69
f 70//70 71//71 72//72
f 73//73 74//74 75//75
f 76//76 77//77 78//78
f 79//79 80//80 81//81
f 82//82 83//83 84//84
f 85//85 86//86 87//87
f 88//88 89//89 90//90
f 91//91 92//92 93//93
f 94//94 95//95 96//96
f 97//97 98//98 99//99
f 100//100 101//101 102//102
f 103//103 104//104 105//105
f 106//106 107//107 108//108
f 109//109 110//110 111//111
f 112//112 113//113 114//114
f 115//115 116//116 117//117
f 118//118 119//119 120//120
f 121//121 122//122 123//123
f 124//124 125//125 126//126
f 127//127 128//128 129//129
f 130//130 131//131 132//132
f 133//133 134//134 135//135
f 136//136 137//137 138//138
f 139//139 140//140 141//141
f 142//142 143//143 144//144
f 145//145 146//146 147//147
f 148//148 149//149 150//150
f 151//151 152//152 153//153
f 154//154 155//155 156//156
f 157//157 158//158 159//159
f 160//160 161//161 162//162
f 163//163 164//164 165//165
f 166//166 167//167 168//168
f 169//169 170//170 171//171
f 172//172 173//173 174//174
f 175//175 176//176 177//177
f 178//178 179//179 180//180
f 181//181 182//182 183//183
f 184//184 185//185 186//186
f 187//187 188//188 189//189
f 190//190 191//191 192//192
f 193//193 194//194 195//195
f 196//196 197//197 198//198
f 199//199 200//200 201//201
f 202//202 203//203 204//204
f 205//205 206//206 207//207
f 208//208 209//209 210//210
f 211//211 212//212 213//213
f 214//214 215//215 216//216
f 217//217 218//218 219//219
f 220//220 221//221 222//222
f 223//223 224//224 225//225
f 226//226 227//227 228//228
f 229//229 230//230 231//231
f 232//232 233//233 234//234
f 235//235 236//236 237//237
f 238//238 239//239 240//240
f 241//241 242//242 243//243
f 244//244 245//245 246//246
f 247//247 248//248 249//249
f 250//250 251//251 252//252
f 253//253 254//254 255//255
f 256//256 257//257 258//258
f 259//259 260//260 261//261
f 262//262 263//263 264//264
f 265//265 266//266 267//267
f 268//268 269//269 270//270
f 271//271 272//272 273//273
f 274//274 275//275 276//276
f 277//277 278//278 279//279
f 280//280 281//281 282//282
f 283//283 284//284 285//285
