# Exported from SharpOpenGl procedural mesh
o solari_drone_mk1_03
# vertices 84
v -0.55681545 0.05543693 0.2511506
v 0.55681545 0.05543693 0.2511506
v 0 0.088699095 -0.10763598
v -0.55681545 0.05543693 0.2511506
v 0 0.088699095 -0.10763598
v -0.55681545 0.05543693 -0.2511506
v 0.55681545 0.05543693 0.2511506
v 0.55681545 0.05543693 -0.2511506
v 0 0.088699095 -0.10763598
v -0.55681545 0 0.2511506
v 0.55681545 0 0.2511506
v 0.55681545 0 -0.2511506
v -0.55681545 0 0.2511506
v 0.55681545 0 -0.2511506
v -0.55681545 0 -0.2511506
v -0.42317975 0.05543693 0.28702927
v -0.28954405 0.099786475 0.10763598
v -0.4899976 0.05543693 -0.14351463
v 0 0.05543693 0.28702927
v 0.1336357 0.099786475 0.10763598
v -0.06681785 0.05543693 -0.14351463
v 0.42317975 0.05543693 0.28702927
v 0.55681545 0.099786475 0.10763598
v 0.3563619 0.05543693 -0.14351463
v -0.12373676 0.05543693 0.07175732
v 0.12373676 0.05543693 0.07175732
v 0.12373676 0.23362708 0.07175732
v -0.12373676 0.05543693 0.07175732
v 0.12373676 0.23362708 0.07175732
v -0.12373676 0.23362708 0.07175732
v -0.12373676 0.05543693 0.32290792
v 0.12373676 0.23362708 0.32290792
v 0.12373676 0.05543693 0.32290792
v -0.12373676 0.05543693 0.32290792
v -0.12373676 0.23362708 0.32290792
v 0.12373676 0.23362708 0.32290792
v -0.12373676 0.05543693 0.07175732
v -0.12373676 0.05543693 0.32290792
v 0.12373676 0.05543693 0.32290792
v -0.12373676 0.05543693 0.07175732
v 0.12373676 0.05543693 0.32290792
v 0.12373676 0.05543693 0.07175732
v -0.12373676 0.23362708 0.07175732
v 0.12373676 0.23362708 0.32290792
v -0.12373676 0.23362708 0.32290792
v -0.12373676 0.23362708 0.07175732
v 0.12373676 0.23362708 0.07175732
v 0.12373676 0.23362708 0.32290792
v -0.12373676 0.05543693 0.07175732
v -0.12373676 0.23362708 0.07175732
v -0.12373676 0.23362708 0.32290792
v -0.12373676 0.05543693 0.07175732
v -0.12373676 0.23362708 0.32290792
v -0.12373676 0.05543693 0.32290792
v 0.12373676 0.05543693 0.07175732
v 0.12373676 0.05543693 0.32290792
v 0.12373676 0.23362708 0.32290792
v 0.12373676 0.05543693 0.07175732
v 0.12373676 0.23362708 0.32290792
v 0.12373676 0.23362708 0.07175732
v -0.3464629 0.015839124 -0.4943282
v -0.39595762 0 -0.6032165
v -0.2969682 0 -0.6032165
v -0.3464629 0.065336384 -0.46958086
v -0.37615973 0.015839124 -0.4943282
v -0.31676608 0.015839124 -0.4943282
v -0.11548764 0.015839124 -0.4943282
v -0.16498235 0 -0.6032165
v -0.06599294 0 -0.6032165
v -0.11548764 0.065336384 -0.46958086
v -0.14518446 0.015839124 -0.4943282
v -0.08579082 0.015839124 -0.4943282
v 0.11548764 0.015839124 -0.4943282
v 0.06599294 0 -0.6032165
v 0.16498235 0 -0.6032165
v 0.11548764 0.065336384 -0.46958086
v 0.08579082 0.015839124 -0.4943282
v 0.14518446 0.015839124 -0.4943282
v 0.3464629 0.015839124 -0.4943282
v 0.2969682 0 -0.6032165
v 0.39595762 0 -0.6032165
v 0.3464629 0.065336384 -0.46958086
v 0.31676608 0.015839124 -0.4943282
v 0.37615973 0.015839124 -0.4943282
vn -0 0.9957302 0.09231154
vn -0 0.9957302 0.09231154
vn -0 0.9957302 0.09231154
vn -0.059630126 0.9982205 0
vn -0.059630126 0.9982205 0
vn -0.059630126 0.9982205 0
vn 0.059630126 0.9982205 0
vn 0.059630126 0.9982205 0
vn 0.059630126 0.9982205 0
vn -0 1 0
vn -0 1 0
vn -0 1 0
vn 0 1 0
vn 0 1 0
vn 0 1 0
vn -0.26461944 0.963478 0.041067358
vn -0.26461944 0.963478 0.041067358
vn -0.26461944 0.963478 0.041067358
vn -0.26461944 0.963478 0.041067358
vn -0.26461944 0.963478 0.041067358
vn -0.26461944 0.963478 0.041067358
vn -0.26461944 0.963478 0.041067358
vn -0.26461944 0.963478 0.041067358
vn -0.26461944 0.963478 0.041067358
vn 0 0 0.99999994
vn 0 0 0.99999994
vn 0 0 0.99999994
vn 0 0 0.99999994
vn 0 0 0.99999994
vn 0 0 0.99999994
vn 0 0 -0.99999994
vn 0 0 -0.99999994
vn 0 0 -0.99999994
vn 0 0 -0.99999994
vn 0 0 -0.99999994
vn 0 0 -0.99999994
vn 0 0.99999994 0
vn 0 0.99999994 0
vn 0 0.99999994 0
vn 0 0.99999994 0
vn 0 0.99999994 0
vn 0 0.99999994 0
vn 0 -0.99999994 0
vn 0 -0.99999994 0
vn 0 -0.99999994 0
vn 0 -0.99999994 0
vn 0 -0.99999994 0
vn 0 -0.99999994 0
vn 1 0 0
vn 1 0 0
vn 1 0 0
vn 1 0 0
vn 1 0 0
vn 1 0 0
vn -1 0 0
vn -1 0 0
vn -1 0 0
vn -1 0 0
vn -1 0 0
vn -1 0 0
vn 0 -0.98958534 0.14394715
vn 0 -0.98958534 0.14394715
vn 0 -0.98958534 0.14394715
vn 0 -0.44719496 0.89443654
vn 0 -0.44719496 0.89443654
vn 0 -0.44719496 0.89443654
vn 0 -0.98958534 0.14394715
vn 0 -0.98958534 0.14394715
vn 0 -0.98958534 0.14394715
vn 0 -0.44719496 0.8944365
vn 0 -0.44719496 0.8944365
vn 0 -0.44719496 0.8944365
vn 0 -0.98958534 0.14394715
vn 0 -0.98958534 0.14394715
vn 0 -0.98958534 0.14394715
vn 0 -0.44719496 0.8944365
vn 0 -0.44719496 0.8944365
vn 0 -0.44719496 0.8944365
vn 0 -0.98958534 0.14394715
vn 0 -0.98958534 0.14394715
vn 0 -0.98958534 0.14394715
vn 0 -0.44719496 0.89443654
vn 0 -0.44719496 0.89443654
vn 0 -0.44719496 0.89443654
f 1//1 2//2 3//3
f 4//4 5//5 6//6
f 7//7 8//8 9//9
f 10//10 11//11 12//12
f 13//13 14//14 15//15
f 16//16 17//17 18//18
f 19//19 20//20 21//21
f 22//22 23//23 24//24
f 25//25 26//26 27//27
f 28//28 29//29 30//30
f 31//31 32//32 33//33
f 34//34 35//35 36//36
f 37//37 38//38 39//39
f 40//40 41//41 42//42
f 43//43 44//44 45//45
f 46//46 47//47 48//48
f 49//49 50//50 51//51
f 52//52 53//53 54//54
f 55//55 56//56 57//57
f 58//58 59//59 60//60
f 61//61 62//62 63//63
f 64//64 65//65 66//66
f 67//67 68//68 69//69
f 70//70 71//71 72//72
f 73//73 74//74 75//75
f 76//76 77//77 78//78
f 79//79 80//80 81//81
f 82//82 83//83 84//84
