# Exported from SharpOpenGl procedural mesh
o solari_destroyer_mk3_42
# vertices 84
v -2.1547434 0.22779006 1.69924
v 2.1547434 0.22779006 1.69924
v 0 0.3644641 -0.72824574
v -2.1547434 0.22779006 1.69924
v 0 0.3644641 -0.72824574
v -2.1547434 0.22779006 -1.69924
v 2.1547434 0.22779006 1.69924
v 2.1547434 0.22779006 -1.69924
v 0 0.3644641 -0.72824574
v -2.1547434 0 1.69924
v 2.1547434 0 1.69924
v 2.1547434 0 -1.69924
v -2.1547434 0 1.69924
v 2.1547434 0 -1.69924
v -2.1547434 0 -1.69924
v -1.637605 0.22779006 1.9419886
v -1.1204665 0.41002208 0.72824574
v -1.8961742 0.22779006 -0.9709943
v 0 0.22779006 1.9419886
v 0.5171384 0.41002208 0.72824574
v -0.2585692 0.22779006 -0.9709943
v 1.637605 0.22779006 1.9419886
v 2.1547434 0.41002208 0.72824574
v 1.3790357 0.22779006 -0.9709943
v -0.47883192 0.22779006 0.48549715
v 0.47883192 0.22779006 0.48549715
v 0.47883192 0.9599724 0.48549715
v -0.47883192 0.22779006 0.48549715
v 0.47883192 0.9599724 0.48549715
v -0.47883192 0.9599724 0.48549715
v -0.47883192 0.22779006 2.184737
v 0.47883192 0.9599724 2.184737
v 0.47883192 0.22779006 2.184737
v -0.47883192 0.22779006 2.184737
v -0.47883192 0.9599724 2.184737
v 0.47883192 0.9599724 2.184737
v -0.47883192 0.22779006 0.48549715
v -0.47883192 0.22779006 2.184737
v 0.47883192 0.22779006 2.184737
v -0.47883192 0.22779006 0.48549715
v 0.47883192 0.22779006 2.184737
v 0.47883192 0.22779006 0.48549715
v -0.47883192 0.9599724 0.48549715
v 0.47883192 0.9599724 2.184737
v -0.47883192 0.9599724 2.184737
v -0.47883192 0.9599724 0.48549715
v 0.47883192 0.9599724 0.48549715
v 0.47883192 0.9599724 2.184737
v -0.47883192 0.22779006 0.48549715
v -0.47883192 0.9599724 0.48549715
v -0.47883192 0.9599724 2.184737
v -0.47883192 0.22779006 0.48549715
v -0.47883192 0.9599724 2.184737
v -0.47883192 0.22779006 2.184737
v 0.47883192 0.22779006 0.48549715
v 0.47883192 0.22779006 2.184737
v 0.47883192 0.9599724 2.184737
v 0.47883192 0.22779006 0.48549715
v 0.47883192 0.9599724 2.184737
v 0.47883192 0.9599724 0.48549715
v -1.3407292 0.06508287 -3.344536
v -1.8195611 0 -4.3979664
v -0.86189735 0 -4.3979664
v -1.3407292 0.26846686 -3.1051202
v -1.6280284 0.06508287 -3.344536
v -1.0534301 0.06508287 -3.344536
v -0.44690976 0.06508287 -3.344536
v -0.9257416 0 -4.3979664
v 0.031922102 0 -4.3979664
v -0.44690976 0.26846686 -3.1051202
v -0.7342089 0.06508287 -3.344536
v -0.15961063 0.06508287 -3.344536
v 0.44690976 0.06508287 -3.344536
v -0.031922102 0 -4.3979664
v 0.9257416 0 -4.3979664
v 0.44690976 0.26846686 -3.1051202
v 0.15961063 0.06508287 -3.344536
v 0.7342089 0.06508287 -3.344536
v 1.3407292 0.06508287 -3.344536
v 0.86189735 0 -4.3979664
v 1.8195611 0 -4.3979664
v 1.3407292 0.26846686 -3.1051202
v 1.0534301 0.06508287 -3.344536
v 1.6280284 0.06508287 -3.344536
vn -0 0.9984187 0.056213684
vn -0 0.9984187 0.056213684
vn -0 0.9984187 0.056213684
vn -0.063302174 0.9979944 0
vn -0.063302174 0.9979944 0
vn -0.063302174 0.9979944 0
vn 0.063302174 0.9979944 0
vn 0.063302174 0.9979944 0
vn 0.063302174 0.9979944 0
vn -0 1 0
vn -0 1 0
vn -0 1 0
vn 0 1 0
vn 0 1 0
vn 0 1 0
vn -0.27988046 0.9597133 0.024843426
vn -0.27988046 0.9597133 0.024843426
vn -0.27988046 0.9597133 0.024843426
vn -0.27988052 0.9597134 0.02484343
vn -0.27988052 0.9597134 0.02484343
vn -0.27988052 0.9597134 0.02484343
vn -0.27988046 0.9597133 0.024843426
vn -0.27988046 0.9597133 0.024843426
vn -0.27988046 0.9597133 0.024843426
vn 0 0 1
vn 0 0 1
vn 0 0 1
vn 0 0 1
vn 0 0 1
vn 0 0 1
vn 0 0 -1
vn 0 0 -1
vn 0 0 -1
vn 0 0 -1
vn 0 0 -1
vn 0 0 -1
vn 0 1 0
vn 0 1 0
vn 0 1 0
vn 0 1 0
vn 0 1 0
vn 0 1 0
vn 0 -1 0
vn 0 -1 0
vn 0 -1 0
vn 0 -1 0
vn 0 -1 0
vn 0 -1 0
vn 0.99999994 0 0
vn 0.99999994 0 0
vn 0.99999994 0 0
vn 0.99999994 0 0
vn 0.99999994 0 0
vn 0.99999994 0 0
vn -0.99999994 0 0
vn -0.99999994 0 0
vn -0.99999994 0 0
vn -0.99999994 0 0
vn -0.99999994 0 0
vn -0.99999994 0 0
vn 0 -0.998097 0.061664276
vn 0 -0.998097 0.061664276
vn 0 -0.998097 0.061664276
vn 0 -0.762127 0.64742744
vn 0 -0.762127 0.64742744
vn 0 -0.762127 0.64742744
vn 0 -0.998097 0.06166428
vn 0 -0.998097 0.06166428
vn 0 -0.998097 0.06166428
vn 0 -0.76212704 0.6474275
vn 0 -0.76212704 0.6474275
vn 0 -0.76212704 0.6474275
vn 0 -0.998097 0.06166428
vn 0 -0.998097 0.06166428
vn 0 -0.998097 0.06166428
vn 0 -0.76212704 0.6474275
vn 0 -0.76212704 0.6474275
vn 0 -0.76212704 0.6474275
vn 0 -0.998097 0.061664276
vn 0 -0.998097 0.061664276
vn 0 -0.998097 0.061664276
vn 0 -0.762127 0.64742744
vn 0 -0.762127 0.64742744
vn 0 -0.762127 0.64742744
f 1//1 2//2 3//3
f 4//4 5//5 6//6
f 7//7 8//8 9//9
f 10//10 11//11 12//12
f 13//13 14//14 15//15
f 16//16 17//17 18//18
f 19//19 20//20 21//21
f 22//22 23//23 24//24
f 25//25 26//26 27//27
f 28//28 29//29 30//30
f 31//31 32//32 33//33
f 34//34 35//35 36//36
f 37//37 38//38 39//39
f 40//40 41//41 42//42
f 43//43 44//44 45//45
f 46//46 47//47 48//48
f 49//49 50//50 51//51
f 52//52 53//53 54//54
f 55//55 56//56 57//57
f 58//58 59//59 60//60
f 61//61 62//62 63//63
f 64//64 65//65 66//66
f 67//67 68//68 69//69
f 70//70 71//71 72//72
f 73//73 74//74 75//75
f 76//76 77//77 78//78
f 79//79 80//80 81//81
f 82//82 83//83 84//84
