# Exported from SharpOpenGl procedural mesh
o solari_destroyer_mk1_08
# vertices 84
v -2.0236354 0.31468087 1.9940273
v 2.0236354 0.31468087 1.9940273
v 0 0.50348943 -0.85458314
v -2.0236354 0.31468087 1.9940273
v 0 0.50348943 -0.85458314
v -2.0236354 0.31468087 -1.9940273
v 2.0236354 0.31468087 1.9940273
v 2.0236354 0.31468087 -1.9940273
v 0 0.50348943 -0.85458314
v -2.0236354 0 1.9940273
v 2.0236354 0 1.9940273
v 2.0236354 0 -1.9940273
v -2.0236354 0 1.9940273
v 2.0236354 0 -1.9940273
v -2.0236354 0 -1.9940273
v -1.5379629 0.31468087 2.2788885
v -1.0522904 0.56642556 0.85458314
v -1.7807992 0.31468087 -1.1394442
v 0 0.31468087 2.2788885
v 0.48567247 0.56642556 0.85458314
v -0.24283624 0.31468087 -1.1394442
v 1.5379629 0.31468087 2.2788885
v 2.0236354 0.56642556 0.85458314
v 1.2951267 0.31468087 -1.1394442
v -0.44969675 0.31468087 0.5697221
v 0.44969675 0.31468087 0.5697221
v 0.44969675 1.326155 0.5697221
v -0.44969675 0.31468087 0.5697221
v 0.44969675 1.326155 0.5697221
v -0.44969675 1.326155 0.5697221
v -0.44969675 0.31468087 2.5637493
v 0.44969675 1.326155 2.5637493
v 0.44969675 0.31468087 2.5637493
v -0.44969675 0.31468087 2.5637493
v -0.44969675 1.326155 2.5637493
v 0.44969675 1.326155 2.5637493
v -0.44969675 0.31468087 0.5697221
v -0.44969675 0.31468087 2.5637493
v 0.44969675 0.31468087 2.5637493
v -0.44969675 0.31468087 0.5697221
v 0.44969675 0.31468087 2.5637493
v 0.44969675 0.31468087 0.5697221
v -0.44969675 1.326155 0.5697221
v 0.44969675 1.326155 2.5637493
v -0.44969675 1.326155 2.5637493
v -0.44969675 1.326155 0.5697221
v 0.44969675 1.326155 0.5697221
v 0.44969675 1.326155 2.5637493
v -0.44969675 0.31468087 0.5697221
v -0.44969675 1.326155 0.5697221
v -0.44969675 1.326155 2.5637493
v -0.44969675 0.31468087 0.5697221
v -0.44969675 1.326155 2.5637493
v -0.44969675 0.31468087 2.5637493
v 0.44969675 0.31468087 0.5697221
v 0.44969675 0.31468087 2.5637493
v 0.44969675 1.326155 2.5637493
v 0.44969675 0.31468087 0.5697221
v 0.44969675 1.326155 2.5637493
v 0.44969675 1.326155 0.5697221
v -1.2591509 0.089908816 -3.9247522
v -1.7088475 0 -4.914085
v -0.80945414 0 -4.914085
v -1.2591509 0.37087387 -3.699904
v -1.5289689 0.089908816 -3.9247522
v -0.9893328 0.089908816 -3.9247522
v -0.41971695 0.089908816 -3.9247522
v -0.8694137 0 -4.914085
v 0.029979765 0 -4.914085
v -0.41971695 0.37087387 -3.699904
v -0.689535 0.089908816 -3.9247522
v -0.14989892 0.089908816 -3.9247522
v 0.41971695 0.089908816 -3.9247522
v -0.029979765 0 -4.914085
v 0.8694137 0 -4.914085
v 0.41971695 0.37087387 -3.699904
v 0.14989892 0.089908816 -3.9247522
v 0.689535 0.089908816 -3.9247522
v 1.2591509 0.089908816 -3.9247522
v 0.80945414 0 -4.914085
v 1.7088475 0 -4.914085
v 1.2591509 0.37087387 -3.699904
v 0.9893328 0.089908816 -3.9247522
v 1.5289689 0.089908816 -3.9247522
vn -0 0.99781066 0.066135824
vn -0 0.99781066 0.066135824
vn -0 0.99781066 0.066135824
vn -0.09289819 0.99567556 0
vn -0.09289819 0.99567556 0
vn -0.09289819 0.99567556 0
vn 0.09289819 0.99567556 0
vn 0.09289819 0.99567556 0
vn 0.09289819 0.99567556 0
vn -0 1 0
vn -0 1 0
vn -0 1 0
vn 0 1 0
vn 0 1 0
vn 0 1 0
vn -0.39407662 0.9186511 0.02799496
vn -0.39407662 0.9186511 0.02799496
vn -0.39407662 0.9186511 0.02799496
vn -0.39407662 0.9186511 0.02799496
vn -0.39407662 0.9186511 0.02799496
vn -0.39407662 0.9186511 0.02799496
vn -0.39407662 0.9186511 0.02799496
vn -0.39407662 0.9186511 0.02799496
vn -0.39407662 0.9186511 0.02799496
vn 0 0 1
vn 0 0 1
vn 0 0 1
vn 0 0 1
vn 0 0 1
vn 0 0 1
vn 0 0 -1
vn 0 0 -1
vn 0 0 -1
vn 0 0 -1
vn 0 0 -1
vn 0 0 -1
vn 0 1 0
vn 0 1 0
vn 0 1 0
vn 0 1 0
vn 0 1 0
vn 0 1 0
vn 0 -1 0
vn 0 -1 0
vn 0 -1 0
vn 0 -1 0
vn 0 -1 0
vn 0 -1 0
vn 1 0 0
vn 1 0 0
vn 1 0 0
vn 1 0 0
vn 1 0 0
vn 1 0 0
vn -1 0 0
vn -1 0 0
vn -1 0 0
vn -1 0 0
vn -1 0 0
vn -1 0 0
vn 0 -0.995896 0.09050528
vn 0 -0.995896 0.09050528
vn 0 -0.995896 0.09050528
vn 0 -0.6248242 0.7807655
vn 0 -0.6248242 0.7807655
vn 0 -0.6248242 0.7807655
vn 0 -0.9958959 0.09050528
vn 0 -0.9958959 0.09050528
vn 0 -0.9958959 0.09050528
vn 0 -0.62482417 0.7807655
vn 0 -0.62482417 0.7807655
vn 0 -0.62482417 0.7807655
vn 0 -0.9958959 0.09050528
vn 0 -0.9958959 0.09050528
vn 0 -0.9958959 0.09050528
vn 0 -0.62482417 0.7807655
vn 0 -0.62482417 0.7807655
vn 0 -0.62482417 0.7807655
vn 0 -0.995896 0.09050528
vn 0 -0.995896 0.09050528
vn 0 -0.995896 0.09050528
vn 0 -0.6248242 0.7807655
vn 0 -0.6248242 0.7807655
vn 0 -0.6248242 0.7807655
f 1//1 2//2 3//3
f 4//4 5//5 6//6
f 7//7 8//8 9//9
f 10//10 11//11 12//12
f 13//13 14//14 15//15
f 16//16 17//17 18//18
f 19//19 20//20 21//21
f 22//22 23//23 24//24
f 25//25 26//26 27//27
f 28//28 29//29 30//30
f 31//31 32//32 33//33
f 34//34 35//35 36//36
f 37//37 38//38 39//39
f 40//40 41//41 42//42
f 43//43 44//44 45//45
f 46//46 47//47 48//48
f 49//49 50//50 51//51
f 52//52 53//53 54//54
f 55//55 56//56 57//57
f 58//58 59//59 60//60
f 61//61 62//62 63//63
f 64//64 65//65 66//66
f 67//67 68//68 69//69
f 70//70 71//71 72//72
f 73//73 74//74 75//75
f 76//76 77//77 78//78
f 79//79 80//80 81//81
f 82//82 83//83 84//84
