# Exported from SharpOpenGl procedural mesh
o solari_support_mk3_49
# vertices 234
v -0.9183622 0.06479705 -2.1095839
v 0.9183622 0.06479705 -2.1095839
v 0 0.20249079 -1.902461
v -0.9183622 0.06479705 -2.1095839
v 0 0.20249079 -1.902461
v -1.1505536 0.07753921 -1.6493111
v 0.9183622 0.06479705 -2.1095839
v 1.1505536 0.07753921 -1.6493111
v 0 0.24231005 -1.902461
v -0.9183622 0 -2.1095839
v -1.1505536 0 -1.6493111
v 0.9183622 0 -2.1095839
v 0.9183622 0 -2.1095839
v -1.1505536 0 -1.6493111
v 1.1505536 0 -1.6493111
v -1.1505536 0.07753921 -1.6493111
v 1.1505536 0.07753921 -1.6493111
v 0 0.24231005 -1.4421883
v -1.1505536 0.07753921 -1.6493111
v 0 0.24231005 -1.4421883
v -1.3600166 0.08903408 -1.1890383
v 1.1505536 0.07753921 -1.6493111
v 1.3600166 0.08903408 -1.1890383
v 0 0.2782315 -1.4421883
v -1.1505536 0 -1.6493111
v -1.3600166 0 -1.1890383
v 1.1505536 0 -1.6493111
v 1.1505536 0 -1.6493111
v -1.3600166 0 -1.1890383
v 1.3600166 0 -1.1890383
v -1.3600166 0.08903408 -1.1890383
v 1.3600166 0.08903408 -1.1890383
v 0 0.2782315 -0.98191553
v -1.3600166 0.08903408 -1.1890383
v 0 0.2782315 -0.98191553
v -1.5262473 0.09815646 -0.7287655
v 1.3600166 0.08903408 -1.1890383
v 1.5262473 0.09815646 -0.7287655
v 0 0.30673894 -0.98191553
v -1.5262473 0.09815646 -0.7287655
v 1.5262473 0.09815646 -0.7287655
v 0 0.30673894 -0.52164274
v -1.5262473 0.09815646 -0.7287655
v 0 0.30673894 -0.52164274
v -1.6329739 0.10401338 -0.2684927
v 1.5262473 0.09815646 -0.7287655
v 1.6329739 0.10401338 -0.2684927
v 0 0.32504183 -0.52164274
v -1.6329739 0.10401338 -0.2684927
v 1.6329739 0.10401338 -0.2684927
v 0 0.32504183 -0.061369956
v -1.6329739 0.10401338 -0.2684927
v 0 0.32504183 -0.061369956
v -1.6697495 0.10603154 0.19178009
v 1.6329739 0.10401338 -0.2684927
v 1.6697495 0.10603154 0.19178009
v 0 0.33134857 -0.061369956
v -1.6697495 0.10603154 0.19178009
v 1.6697495 0.10603154 0.19178009
v 0 0.33134857 0.39890283
v -1.6697495 0.10603154 0.19178009
v 0 0.33134857 0.39890283
v -1.6329739 0.10401338 0.6520529
v 1.6697495 0.10603154 0.19178009
v 1.6329739 0.10401338 0.6520529
v 0 0.32504183 0.39890283
v -1.6329739 0.10401338 0.6520529
v 1.6329739 0.10401338 0.6520529
v 0 0.32504183 0.8591756
v -1.6329739 0.10401338 0.6520529
v 0 0.32504183 0.8591756
v -1.5262473 0.09815646 1.1123257
v 1.6329739 0.10401338 0.6520529
v 1.5262473 0.09815646 1.1123257
v 0 0.30673894 0.8591756
v -1.5262473 0.09815646 1.1123257
v 1.5262473 0.09815646 1.1123257
v 0 0.30673894 1.3194485
v -1.5262473 0.09815646 1.1123257
v 0 0.30673894 1.3194485
v -1.6636074 0.089034066 1.5725985
v 1.5262473 0.09815646 1.1123257
v 1.6636074 0.089034066 1.5725985
v 0 0.27823147 1.3194485
v -1.6636074 0.089034066 1.5725985
v 1.6636074 0.089034066 1.5725985
v 0 0.27823147 1.7797213
v -1.6636074 0.089034066 1.5725985
v 0 0.27823147 1.7797213
v -1.3023491 0.07753921 2.0328712
v 1.6636074 0.089034066 1.5725985
v 1.3023491 0.07753921 2.0328712
v 0 0.24231005 1.7797213
v 1.6636074 0 1.5725985
v -1.3023491 0 2.0328712
v 1.3023491 0 2.0328712
v -1.3023491 0.07753921 2.0328712
v 1.3023491 0.07753921 2.0328712
v 0 0.24231005 2.239994
v -1.3023491 0.07753921 2.0328712
v 0 0.24231005 2.239994
v -0.91836214 0.064797044 2.493144
v 1.3023491 0.07753921 2.0328712
v 0.91836214 0.064797044 2.493144
v 0 0.20249078 2.239994
v -1.3023491 0 2.0328712
v -0.91836214 0 2.493144
v 1.3023491 0 2.0328712
v 1.3023491 0 2.0328712
v -0.91836214 0 2.493144
v 0.91836214 0 2.493144
v -2.8177023 0.36816508 1.4575306
v 2.8177023 0.36816508 1.4575306
v 0 0.5706558 -1.1506821
v -2.8177023 0.36816508 1.4575306
v 0 0.5706558 -1.1506821
v -2.8177023 0.36816508 -1.4575306
v 2.8177023 0.36816508 1.4575306
v 2.8177023 0.36816508 -1.4575306
v 0 0.5706558 -1.1506821
v -2.8177023 0.3387119 1.4575306
v 2.8177023 0.3387119 1.4575306
v 2.8177023 0.3387119 -1.4575306
v -2.8177023 0.3387119 1.4575306
v 2.8177023 0.3387119 -1.4575306
v -2.8177023 0.3387119 -1.4575306
v -2.6486402 0.36816508 -1.4575306
v -2.0850997 0.36816508 -1.4575306
v -2.36687 0.49702287 -1.07397
v -2.6486402 0.36816508 -1.4575306
v -2.36687 0.49702287 -1.07397
v -2.592286 0.36816508 -1.07397
v -2.0850997 0.36816508 -1.4575306
v -2.1414537 0.36816508 -1.07397
v -2.36687 0.49702287 -1.07397
v -0.28177023 0.36816508 -1.4575306
v 0.28177023 0.36816508 -1.4575306
v 0 0.49702287 -1.07397
v -0.28177023 0.36816508 -1.4575306
v 0 0.49702287 -1.07397
v -0.22541618 0.36816508 -1.07397
v 0.28177023 0.36816508 -1.4575306
v 0.22541618 0.36816508 -1.07397
v 0 0.49702287 -1.07397
v 2.0850997 0.36816508 -1.4575306
v 2.6486402 0.36816508 -1.4575306
v 2.36687 0.49702287 -1.07397
v 2.0850997 0.36816508 -1.4575306
v 2.36687 0.49702287 -1.07397
v 2.1414537 0.36816508 -1.07397
v 2.6486402 0.36816508 -1.4575306
v 2.592286 0.36816508 -1.07397
v 2.36687 0.49702287 -1.07397
v -2.6486402 0.36816508 1.1506821
v -2.0850997 0.36816508 1.1506821
v -2.36687 0.66269714 1.5342427
v -2.6486402 0.36816508 1.1506821
v -2.36687 0.66269714 1.5342427
v -2.592286 0.36816508 1.5342427
v -2.0850997 0.36816508 1.1506821
v -2.1414537 0.36816508 1.5342427
v -2.36687 0.66269714 1.5342427
v -0.28177023 0.36816508 1.1506821
v 0.28177023 0.36816508 1.1506821
v 0 0.66269714 1.5342427
v -0.28177023 0.36816508 1.1506821
v 0 0.66269714 1.5342427
v -0.22541618 0.36816508 1.5342427
v 0.28177023 0.36816508 1.1506821
v 0.22541618 0.36816508 1.5342427
v 0 0.66269714 1.5342427
v 2.0850997 0.36816508 1.1506821
v 2.6486402 0.36816508 1.1506821
v 2.36687 0.66269714 1.5342427
v 2.0850997 0.36816508 1.1506821
v 2.36687 0.66269714 1.5342427
v 2.1414537 0.36816508 1.5342427
v 2.6486402 0.36816508 1.1506821
v 2.592286 0.36816508 1.5342427
v 2.36687 0.66269714 1.5342427
v -0.41743737 0.30715483 0.12887639
v 0.41743737 0.30715483 0.12887639
v 0 0.9598589 0.15787357
v -0.3896082 0.34572452 0.19331458
v 0.3896082 0.34572452 0.19331458
v 0 1.0803891 0.22231176
v -0.36177906 0.38429418 0.25775278
v 0.36177906 0.38429418 0.25775278
v 0 1.2009194 0.28674996
v -0.3339499 0.42286387 0.32219097
v 0.3339499 0.42286387 0.32219097
v 0 1.3214496 0.35118815
v -0.30612075 0.46143356 0.38662916
v 0.30612075 0.46143356 0.38662916
v 0 1.4419799 0.41562635
v -0.27829155 0.5000032 0.45106736
v 0.27829155 0.5000032 0.45106736
v 0 1.56251 0.48006454
v -1.4610307 0.10519002 -2.642307
v -1.9619555 0 -3.7443419
v -0.9601059 0 -3.7443419
v -1.4610307 0.43390882 -2.3918447
v -1.7615856 0.10519002 -2.642307
v -1.1604759 0.10519002 -2.642307
v 0 0.10519002 -2.642307
v -0.5009248 0 -3.7443419
v 0.5009248 0 -3.7443419
v 0 0.43390882 -2.3918447
v -0.3005549 0.10519002 -2.642307
v 0.3005549 0.10519002 -2.642307
v 1.4610307 0.10519002 -2.642307
v 0.9601059 0 -3.7443419
v 1.9619555 0 -3.7443419
v 1.4610307 0.43390882 -2.3918447
v 1.1604759 0.10519002 -2.642307
v 1.7615856 0.10519002 -2.642307
v -0.1252312 0.28927255 3.842426
v 0.1252312 0.28927255 3.842426
v 0 0.5785451 4.17655
v -0.0626156 0.52595013 4.0512533
v 0.0626156 0.52595013 4.0512533
v 0 0.6311401 4.17655
v -0.20871869 1.1612978 0.51141423
v 0.20871869 1.1612978 0.51141423
v 0 1.2622802 0.68188566
v -0.1252312 0.5522476 -0.0852357
v -1.9619555 0.5522476 0.17047141
v -0.1252312 1.2622802 0.42617851
v 0.1252312 0.5522476 -0.0852357
v 1.9619555 0.5522476 0.17047141
v 0.1252312 1.2622802 0.42617851
v -0.2504624 0.078892514 -0.68188566
v 0.2504624 0.078892514 -0.68188566
v 0 0.18408254 -0.51141423
vn 0 -0.8327698 0.5536193
vn 0 -0.8327698 0.5536193
vn 0 -0.8327698 0.5536193
vn 0.12741351 -0.9876094 0.09161653
vn 0.12741351 -0.9876094 0.09161653
vn 0.12741351 -0.9876094 0.09161653
vn -0.16461413 -0.9801853 0.11017739
vn -0.16461413 -0.9801853 0.11017739
vn -0.16461413 -0.9801853 0.11017739
vn 0 1 -0
vn 0 1 -0
vn 0 1 -0
vn 0 1 -0
vn 0 1 -0
vn 0 1 -0
vn 0 -0.7825752 0.62255615
vn 0 -0.7825752 0.62255615
vn 0 -0.7825752 0.62255615
vn 0.12673764 -0.98851097 0.08236344
vn 0.12673764 -0.98851097 0.08236344
vn 0.12673764 -0.98851097 0.08236344
vn -0.15446563 -0.9834342 0.094855234
vn -0.15446563 -0.9834342 0.094855234
vn -0.15446563 -0.9834342 0.094855234
vn 0 1 -0
vn 0 1 -0
vn 0 1 -0
vn 0 1 -0
vn 0 1 -0
vn 0 1 -0
vn 0 -0.73833394 0.6744353
vn 0 -0.73833394 0.6744353
vn 0 -0.73833394 0.6744353
vn 0.12766361 -0.9896377 0.06572072
vn 0.12766361 -0.9896377 0.06572072
vn 0.12766361 -0.9896377 0.06572072
vn -0.14685751 -0.9864905 0.07259036
vn -0.14685751 -0.9864905 0.07259036
vn -0.14685751 -0.9864905 0.07259036
vn 0 -0.70461935 0.7095854
vn 0 -0.70461935 0.7095854
vn 0 -0.70461935 0.7095854
vn 0.12959689 -0.9906489 0.042656437
vn 0.12959689 -0.9906489 0.042656437
vn 0.12959689 -0.9906489 0.042656437
vn -0.14087841 -0.98899215 0.045251276
vn -0.14087841 -0.98899215 0.045251276
vn -0.14087841 -0.98899215 0.045251276
vn 0 -0.68378043 0.72968775
vn 0 -0.68378043 0.72968775
vn 0 -0.68378043 0.72968775
vn 0.13225758 -0.99110323 0.014913002
vn 0.13225758 -0.99110323 0.014913002
vn 0.13225758 -0.99110323 0.014913002
vn -0.13597722 -0.9905953 0.015207971
vn -0.13597722 -0.9905953 0.015207971
vn -0.13597722 -0.9905953 0.015207971
vn 0 -0.6767576 0.736206
vn 0 -0.6767576 0.736206
vn 0 -0.6767576 0.736206
vn 0.13556167 -0.99065274 -0.015175022
vn 0.13556167 -0.99065274 -0.015175022
vn 0.13556167 -0.99065274 -0.015175022
vn -0.13184968 -0.991158 -0.01488065
vn -0.13184968 -0.991158 -0.01488065
vn -0.13184968 -0.991158 -0.01488065
vn 0 -0.68378043 0.72968775
vn 0 -0.68378043 0.72968775
vn 0 -0.68378043 0.72968775
vn 0.13959195 -0.9891881 -0.04495547
vn 0.13959195 -0.9891881 -0.04495547
vn 0.13959195 -0.9891881 -0.04495547
vn -0.12838021 -0.9908193 -0.042376485
vn -0.12838021 -0.9908193 -0.042376485
vn -0.12838021 -0.9908193 -0.042376485
vn 0 -0.7046196 0.7095853
vn 0 -0.7046196 0.7095853
vn 0 -0.7046196 0.7095853
vn 0.13271753 -0.9909528 0.019966928
vn 0.13271753 -0.9909528 0.019966928
vn 0.13271753 -0.9909528 0.019966928
vn -0.115193434 -0.99323446 0.014691952
vn -0.115193434 -0.99323446 0.014691952
vn -0.115193434 -0.99323446 0.014691952
vn 0 -0.73833406 0.67443514
vn 0 -0.73833406 0.67443514
vn 0 -0.73833406 0.67443514
vn 0.12741756 -0.983994 -0.12458159
vn 0.12741756 -0.983994 -0.12458159
vn 0.12741756 -0.983994 -0.12458159
vn -0.10437758 -0.98880637 -0.10661818
vn -0.10437758 -0.98880637 -0.10661818
vn -0.10437758 -0.98880637 -0.10661818
vn 0 1 0
vn 0 1 0
vn 0 1 0
vn 0 -0.7825752 0.62255615
vn 0 -0.7825752 0.62255615
vn 0 -0.7825752 0.62255615
vn 0.14756522 -0.9775854 -0.1501711
vn 0.14756522 -0.9775854 -0.1501711
vn 0.14756522 -0.9775854 -0.1501711
vn -0.1140649 -0.9858977 -0.12245328
vn -0.1140649 -0.9858977 -0.12245328
vn -0.1140649 -0.9858977 -0.12245328
vn 0 1 0
vn 0 1 0
vn 0 1 0
vn 0 1 0
vn 0 1 0
vn 0 1 0
vn -0 0.99699986 0.07740291
vn -0 0.99699986 0.07740291
vn -0 0.99699986 0.07740291
vn -0.07167894 0.9974278 0
vn -0.07167894 0.9974278 0
vn -0.07167894 0.9974278 0
vn 0.07167894 0.9974278 0
vn 0.07167894 0.9974278 0
vn 0.07167894 0.9974278 0
vn -0 1 0
vn -0 1 0
vn -0 1 0
vn 0 1 0
vn 0 1 0
vn 0 1 0
vn 0 -0.9479361 0.31846058
vn 0 -0.9479361 0.31846058
vn 0 -0.9479361 0.31846058
vn 0.49496585 -0.865864 -0.07272208
vn 0.49496585 -0.865864 -0.07272208
vn 0.49496585 -0.865864 -0.07272208
vn -0.49496585 -0.865864 -0.07272208
vn -0.49496585 -0.865864 -0.07272208
vn -0.49496585 -0.865864 -0.07272208
vn 0 -0.9479361 0.31846058
vn 0 -0.9479361 0.31846058
vn 0 -0.9479361 0.31846058
vn 0.49496585 -0.865864 -0.07272208
vn 0.49496585 -0.865864 -0.07272208
vn 0.49496585 -0.865864 -0.07272208
vn -0.49496585 -0.865864 -0.07272208
vn -0.49496585 -0.865864 -0.07272208
vn -0.49496585 -0.865864 -0.07272208
vn 0 -0.9479361 0.31846058
vn 0 -0.9479361 0.31846058
vn 0 -0.9479361 0.31846058
vn 0.49496585 -0.865864 -0.07272208
vn 0.49496585 -0.865864 -0.07272208
vn 0.49496585 -0.865864 -0.07272208
vn -0.49496585 -0.865864 -0.07272208
vn -0.49496585 -0.865864 -0.07272208
vn -0.49496585 -0.865864 -0.07272208
vn 0 -0.793138 0.60904205
vn 0 -0.793138 0.60904205
vn 0 -0.793138 0.60904205
vn 0.7887656 -0.60367125 -0.11588814
vn 0.7887656 -0.60367125 -0.11588814
vn 0.7887656 -0.60367125 -0.11588814
vn -0.7887656 -0.60367125 -0.11588814
vn -0.7887656 -0.60367125 -0.11588814
vn -0.7887656 -0.60367125 -0.11588814
vn 0 -0.793138 0.60904205
vn 0 -0.793138 0.60904205
vn 0 -0.793138 0.60904205
vn 0.7887656 -0.60367125 -0.11588814
vn 0.7887656 -0.60367125 -0.11588814
vn 0.7887656 -0.60367125 -0.11588814
vn -0.7887656 -0.60367125 -0.11588814
vn -0.7887656 -0.60367125 -0.11588814
vn -0.7887656 -0.60367125 -0.11588814
vn 0 -0.793138 0.60904205
vn 0 -0.793138 0.60904205
vn 0 -0.793138 0.60904205
vn 0.7887656 -0.60367125 -0.11588814
vn 0.7887656 -0.60367125 -0.11588814
vn 0.7887656 -0.60367125 -0.11588814
vn -0.7887656 -0.60367125 -0.11588814
vn -0.7887656 -0.60367125 -0.11588814
vn -0.7887656 -0.60367125 -0.11588814
vn 0 -0.044382457 0.9990147
vn 0 -0.044382457 0.9990147
vn 0 -0.044382457 0.9990147
vn 0 -0.039439254 0.99922204
vn 0 -0.039439254 0.99922204
vn 0 -0.039439254 0.99922204
vn 0 -0.03548619 0.9993701
vn 0 -0.03548619 0.9993701
vn 0 -0.03548619 0.9993701
vn 0 -0.032253012 0.9994797
vn 0 -0.032253012 0.9994797
vn 0 -0.032253012 0.9994797
vn 0 -0.029559553 0.9995631
vn 0 -0.029559553 0.9995631
vn 0 -0.029559553 0.9995631
vn 0 -0.027281133 0.99962777
vn 0 -0.027281133 0.99962777
vn 0 -0.027281133 0.99962777
vn 0 -0.9954755 0.095018856
vn 0 -0.9954755 0.095018856
vn 0 -0.9954755 0.095018856
vn 0 -0.6060583 0.7954201
vn 0 -0.6060583 0.7954201
vn 0 -0.6060583 0.7954201
vn 0 -0.9954755 0.095018856
vn 0 -0.9954755 0.095018856
vn 0 -0.9954755 0.095018856
vn 0 -0.6060583 0.79542017
vn 0 -0.6060583 0.79542017
vn 0 -0.6060583 0.79542017
vn 0 -0.9954755 0.095018856
vn 0 -0.9954755 0.095018856
vn 0 -0.9954755 0.095018856
vn 0 -0.6060583 0.7954201
vn 0 -0.6060583 0.7954201
vn 0 -0.6060583 0.7954201
vn 0 -0.75602657 0.6545409
vn 0 -0.75602657 0.6545409
vn 0 -0.75602657 0.6545409
vn 0 -0.7658829 0.64298004
vn 0 -0.7658829 0.64298004
vn 0 -0.7658829 0.64298004
vn 0 -0.86037487 0.5096616
vn 0 -0.86037487 0.5096616
vn 0 -0.86037487 0.5096616
vn -0.112252705 0.58075434 -0.8063025
vn -0.112252705 0.58075434 -0.8063025
vn -0.112252705 0.58075434 -0.8063025
vn -0.112252705 -0.58075434 0.8063025
vn -0.112252705 -0.58075434 0.8063025
vn -0.112252705 -0.58075434 0.8063025
vn 0 -0.8510237 0.5251273
vn 0 -0.8510237 0.5251273
vn 0 -0.8510237 0.5251273
f 1//1 2//2 3//3
f 4//4 5//5 6//6
f 7//7 8//8 9//9
f 10//10 11//11 12//12
f 13//13 14//14 15//15
f 16//16 17//17 18//18
f 19//19 20//20 21//21
f 22//22 23//23 24//24
f 25//25 26//26 27//27
f 28//28 29//29 30//30
f 31//31 32//32 33//33
f 34//34 35//35 36//36
f 37//37 38//38 39//39
f 40//40 41//41 42//42
f 43//43 44//44 45//45
f 46//46 47//47 48//48
f 49//49 50//50 51//51
f 52//52 53//53 54//54
f 55//55 56//56 57//57
f 58//58 59//59 60//60
f 61//61 62//62 63//63
f 64//64 65//65 66//66
f 67//67 68//68 69//69
f 70//70 71//71 72//72
f 73//73 74//74 75//75
f 76//76 77//77 78//78
f 79//79 80//80 81//81
f 82//82 83//83 84//84
f 85//85 86//86 87//87
f 88//88 89//89 90//90
f 91//91 92//92 93//93
f 94//94 95//95 96//96
f 97//97 98//98 99//99
f 100//100 101//101 102//102
f 103//103 104//104 105//105
f 106//106 107//107 108//108
f 109//109 110//110 111//111
f 112//112 113//113 114//114
f 115//115 116//116 117//117
f 118//118 119//119 120//120
f 121//121 122//122 123//123
f 124//124 125//125 126//126
f 127//127 128//128 129//129
f 130//130 131//131 132//132
f 133//133 134//134 135//135
f 136//136 137//137 138//138
f 139//139 140//140 141//141
f 142//142 143//143 144//144
f 145//145 146//146 147//147
f 148//148 149//149 150//150
f 151//151 152//152 153//153
f 154//154 155//155 156//156
f 157//157 158//158 159//159
f 160//160 161//161 162//162
f 163//163 164//164 165//165
f 166//166 167//167 168//168
f 169//169 170//170 171//171
f 172//172 173//173 174//174
f 175//175 176//176 177//177
f 178//178 179//179 180//180
f 181//181 182//182 183//183
f 184//184 185//185 186//186
f 187//187 188//188 189//189
f 190//190 191//191 192//192
f 193//193 194//194 195//195
f 196//196 197//197 198//198
f 199//199 200//200 201//201
f 202//202 203//203 204//204
f 205//205 206//206 207//207
f 208//208 209//209 210//210
f 211//211 212//212 213//213
f 214//214 215//215 216//216
f 217//217 218//218 219//219
f 220//220 221//221 222//222
f 223//223 224//224 225//225
f 226//226 227//227 228//228
f 229//229 230//230 231//231
f 232//232 233//233 234//234
