# Exported from SharpOpenGl procedural mesh
o solari_cruiser_mk3_43
# vertices 84
v -3.2724445 0.4337295 2.272619
v 3.2724445 0.4337295 2.272619
v 0 0.6939672 -0.97397965
v -3.2724445 0.4337295 2.272619
v 0 0.6939672 -0.97397965
v -3.2724445 0.4337295 -2.272619
v 3.2724445 0.4337295 2.272619
v 3.2724445 0.4337295 -2.272619
v 0 0.6939672 -0.97397965
v -3.2724445 0 2.272619
v 3.2724445 0 2.272619
v 3.2724445 0 -2.272619
v -3.2724445 0 2.272619
v 3.2724445 0 -2.272619
v -3.2724445 0 -2.272619
v -2.4870577 0.4337295 2.597279
v -1.701671 0.7807131 0.97397965
v -2.879751 0.4337295 -1.2986395
v 0 0.4337295 2.597279
v 0.7853867 0.7807131 0.97397965
v -0.39269334 0.4337295 -1.2986395
v 2.4870577 0.4337295 2.597279
v 3.2724442 0.7807131 0.97397965
v 2.0943644 0.4337295 -1.2986395
v -0.7272099 0.4337295 0.64931977
v 0.7272099 0.4337295 0.64931977
v 0.7272099 1.82786 0.64931977
v -0.7272099 0.4337295 0.64931977
v 0.7272099 1.82786 0.64931977
v -0.7272099 1.82786 0.64931977
v -0.7272099 0.4337295 2.9219387
v 0.7272099 1.82786 2.9219387
v 0.7272099 0.4337295 2.9219387
v -0.7272099 0.4337295 2.9219387
v -0.7272099 1.82786 2.9219387
v 0.7272099 1.82786 2.9219387
v -0.7272099 0.4337295 0.64931977
v -0.7272099 0.4337295 2.9219387
v 0.7272099 0.4337295 2.9219387
v -0.7272099 0.4337295 0.64931977
v 0.7272099 0.4337295 2.9219387
v 0.7272099 0.4337295 0.64931977
v -0.7272099 1.82786 0.64931977
v 0.7272099 1.82786 2.9219387
v -0.7272099 1.82786 2.9219387
v -0.7272099 1.82786 0.64931977
v 0.7272099 1.82786 0.64931977
v 0.7272099 1.82786 2.9219387
v -0.7272099 0.4337295 0.64931977
v -0.7272099 1.82786 0.64931977
v -0.7272099 1.82786 2.9219387
v -0.7272099 0.4337295 0.64931977
v -0.7272099 1.82786 2.9219387
v -0.7272099 0.4337295 2.9219387
v 0.7272099 0.4337295 0.64931977
v 0.7272099 0.4337295 2.9219387
v 0.7272099 1.82786 2.9219387
v 0.7272099 0.4337295 0.64931977
v 0.7272099 1.82786 2.9219387
v 0.7272099 1.82786 0.64931977
v -2.0361876 0.123922706 -4.4730916
v -2.8215742 0 -6.2009425
v -1.250801 0 -6.2009425
v -2.0361876 0.5111812 -4.080398
v -2.5074196 0.123922706 -4.4730916
v -1.5649556 0.123922706 -4.4730916
v -0.67872924 0.123922706 -4.4730916
v -1.4641159 0 -6.2009425
v 0.106657445 0 -6.2009425
v -0.67872924 0.5111812 -4.080398
v -1.1499612 0.123922706 -4.4730916
v -0.20749721 0.123922706 -4.4730916
v 0.67872924 0.123922706 -4.4730916
v -0.106657445 0 -6.2009425
v 1.4641159 0 -6.2009425
v 0.67872924 0.5111812 -4.080398
v 0.20749721 0.123922706 -4.4730916
v 1.1499612 0.123922706 -4.4730916
v 2.0361876 0.123922706 -4.4730916
v 1.250801 0 -6.2009425
v 2.8215742 0 -6.2009425
v 2.0361876 0.5111812 -4.080398
v 1.5649556 0.123922706 -4.4730916
v 2.5074196 0.123922706 -4.4730916
vn -0 0.9968028 0.07990076
vn -0 0.9968028 0.07990076
vn -0 0.9968028 0.07990076
vn -0.07927368 0.9968529 0
vn -0.07927368 0.9968529 0
vn -0.07927368 0.9968529 0
vn 0.07927368 0.9968529 0
vn 0.07927368 0.9968529 0
vn 0.07927368 0.9968529 0
vn -0 1 0
vn -0 1 0
vn -0 1 0
vn 0 1 0
vn 0 1 0
vn 0 1 0
vn -0.34318855 0.9386294 0.03459206
vn -0.34318855 0.9386294 0.03459206
vn -0.34318855 0.9386294 0.03459206
vn -0.34318855 0.9386294 0.034592062
vn -0.34318855 0.9386294 0.034592062
vn -0.34318855 0.9386294 0.034592062
vn -0.34318858 0.9386294 0.034592062
vn -0.34318858 0.9386294 0.034592062
vn -0.34318858 0.9386294 0.034592062
vn 0 0 1
vn 0 0 1
vn 0 0 1
vn 0 0 1
vn 0 0 1
vn 0 0 1
vn 0 0 -1
vn 0 0 -1
vn 0 0 -1
vn 0 0 -1
vn 0 0 -1
vn 0 0 -1
vn 0 1 0
vn 0 1 0
vn 0 1 0
vn 0 1 0
vn 0 1 0
vn 0 1 0
vn 0 -1 0
vn 0 -1 0
vn 0 -1 0
vn 0 -1 0
vn 0 -1 0
vn 0 -1 0
vn 1 0 0
vn 1 0 0
vn 1 0 0
vn 1 0 0
vn 1 0 0
vn 1 0 0
vn -1 0 0
vn -1 0 0
vn -1 0 0
vn -1 0 0
vn -1 0 0
vn -1 0 0
vn 0 -0.99743795 0.07153696
vn 0 -0.99743795 0.07153696
vn 0 -0.99743795 0.07153696
vn 0 -0.7120168 0.70216227
vn 0 -0.7120168 0.70216227
vn 0 -0.7120168 0.70216227
vn 0 -0.99743795 0.07153696
vn 0 -0.99743795 0.07153696
vn 0 -0.99743795 0.07153696
vn 0 -0.7120169 0.70216227
vn 0 -0.7120169 0.70216227
vn 0 -0.7120169 0.70216227
vn 0 -0.99743795 0.07153696
vn 0 -0.99743795 0.07153696
vn 0 -0.99743795 0.07153696
vn 0 -0.7120169 0.70216227
vn 0 -0.7120169 0.70216227
vn 0 -0.7120169 0.70216227
vn 0 -0.99743795 0.07153696
vn 0 -0.99743795 0.07153696
vn 0 -0.99743795 0.07153696
vn 0 -0.7120168 0.70216227
vn 0 -0.7120168 0.70216227
vn 0 -0.7120168 0.70216227
f 1//1 2//2 3//3
f 4//4 5//5 6//6
f 7//7 8//8 9//9
f 10//10 11//11 12//12
f 13//13 14//14 15//15
f 16//16 17//17 18//18
f 19//19 20//20 21//21
f 22//22 23//23 24//24
f 25//25 26//26 27//27
f 28//28 29//29 30//30
f 31//31 32//32 33//33
f 34//34 35//35 36//36
f 37//37 38//38 39//39
f 40//40 41//41 42//42
f 43//43 44//44 45//45
f 46//46 47//47 48//48
f 49//49 50//50 51//51
f 52//52 53//53 54//54
f 55//55 56//56 57//57
f 58//58 59//59 60//60
f 61//61 62//62 63//63
f 64//64 65//65 66//66
f 67//67 68//68 69//69
f 70//70 71//71 72//72
f 73//73 74//74 75//75
f 76//76 77//77 78//78
f 79//79 80//80 81//81
f 82//82 83//83 84//84
