# Exported from SharpOpenGl procedural mesh
o solari_transport_mk2_30
# vertices 90
v -3.1412148 0.3152449 1.4007463
v 3.1412148 0.3152449 1.4007463
v 0 0.50439185 -0.60031986
v -3.1412148 0.3152449 1.4007463
v 0 0.50439185 -0.60031986
v -3.1412148 0.3152449 -1.4007463
v 3.1412148 0.3152449 1.4007463
v 3.1412148 0.3152449 -1.4007463
v 0 0.50439185 -0.60031986
v -3.1412148 0 1.4007463
v 3.1412148 0 1.4007463
v 3.1412148 0 -1.4007463
v -3.1412148 0 1.4007463
v 3.1412148 0 -1.4007463
v -3.1412148 0 -1.4007463
v -2.3873231 0.3152449 1.600853
v -1.6334317 0.5674408 0.60031986
v -2.7642689 0.3152449 -0.8004265
v 0 0.3152449 1.600853
v 0.7538915 0.5674408 0.60031986
v -0.37694576 0.3152449 -0.8004265
v 2.3873231 0.3152449 1.600853
v 3.1412146 0.5674408 0.60031986
v 2.0103774 0.3152449 -0.8004265
v -0.69804776 0.3152449 0.40021324
v 0.69804776 0.3152449 0.40021324
v 0.69804776 1.3285321 0.40021324
v -0.69804776 0.3152449 0.40021324
v 0.69804776 1.3285321 0.40021324
v -0.69804776 1.3285321 0.40021324
v -0.69804776 0.3152449 1.8009596
v 0.69804776 1.3285321 1.8009596
v 0.69804776 0.3152449 1.8009596
v -0.69804776 0.3152449 1.8009596
v -0.69804776 1.3285321 1.8009596
v 0.69804776 1.3285321 1.8009596
v -0.69804776 0.3152449 0.40021324
v -0.69804776 0.3152449 1.8009596
v 0.69804776 0.3152449 1.8009596
v -0.69804776 0.3152449 0.40021324
v 0.69804776 0.3152449 1.8009596
v 0.69804776 0.3152449 0.40021324
v -0.69804776 1.3285321 0.40021324
v 0.69804776 1.3285321 1.8009596
v -0.69804776 1.3285321 1.8009596
v -0.69804776 1.3285321 0.40021324
v 0.69804776 1.3285321 0.40021324
v 0.69804776 1.3285321 1.8009596
v -0.69804776 0.3152449 0.40021324
v -0.69804776 1.3285321 0.40021324
v -0.69804776 1.3285321 1.8009596
v -0.69804776 0.3152449 0.40021324
v -0.69804776 1.3285321 1.8009596
v -0.69804776 0.3152449 1.8009596
v 0.69804776 0.3152449 0.40021324
v 0.69804776 0.3152449 1.8009596
v 0.69804776 1.3285321 1.8009596
v 0.69804776 0.3152449 0.40021324
v 0.69804776 1.3285321 1.8009596
v 0.69804776 1.3285321 0.40021324
v -1.9545337 0.09006997 -2.7570248
v -2.5688157 0 -4.108445
v -1.3402517 0 -4.108445
v -1.9545337 0.37153864 -2.4498837
v -2.323103 0.09006997 -2.7570248
v -1.5859644 0.09006997 -2.7570248
v -0.65151125 0.09006997 -2.7570248
v -1.2657933 0 -4.108445
v -0.03722924 0 -4.108445
v -0.65151125 0.37153864 -2.4498837
v -1.0200804 0.09006997 -2.7570248
v -0.28294203 0.09006997 -2.7570248
v 0.65151125 0.09006997 -2.7570248
v 0.03722924 0 -4.108445
v 1.2657933 0 -4.108445
v 0.65151125 0.37153864 -2.4498837
v 0.28294203 0.09006997 -2.7570248
v 1.0200804 0.09006997 -2.7570248
v 1.9545337 0.09006997 -2.7570248
v 1.3402517 0 -4.108445
v 2.5688157 0 -4.108445
v 1.9545337 0.37153864 -2.4498837
v 1.5859644 0.09006997 -2.7570248
v 2.323103 0.09006997 -2.7570248
v -0.5119017 0.42783237 -0.2223407
v -0.83765733 0.15762246 -0.5015598
v -0.18614605 0.15762246 -0.5015598
v 0.5119017 0.42783237 -0.5480963
v 0.18614605 0.15762246 -0.8273154
v 0.83765733 0.15762246 -0.8273154
vn -0 0.9955624 0.09410361
vn -0 0.9955624 0.09410361
vn -0 0.9955624 0.09410361
vn -0.060105715 0.9981921 0
vn -0.060105715 0.9981921 0
vn -0.060105715 0.9981921 0
vn 0.060105715 0.9981921 0
vn 0.060105715 0.9981921 0
vn 0.060105715 0.9981921 0
vn -0 1 0
vn -0 1 0
vn -0 1 0
vn 0 1 0
vn 0 1 0
vn 0 1 0
vn -0.26657876 0.9629042 0.041846745
vn -0.26657876 0.9629042 0.041846745
vn -0.26657876 0.9629042 0.041846745
vn -0.26657876 0.9629043 0.041846745
vn -0.26657876 0.9629043 0.041846745
vn -0.26657876 0.9629043 0.041846745
vn -0.26657876 0.9629042 0.041846745
vn -0.26657876 0.9629042 0.041846745
vn -0.26657876 0.9629042 0.041846745
vn 0 0 1
vn 0 0 1
vn 0 0 1
vn 0 0 1
vn 0 0 1
vn 0 0 1
vn 0 0 -1
vn 0 0 -1
vn 0 0 -1
vn 0 0 -1
vn 0 0 -1
vn 0 0 -1
vn 0 1 0
vn 0 1 0
vn 0 1 0
vn 0 1 0
vn 0 1 0
vn 0 1 0
vn 0 -1 0
vn 0 -1 0
vn 0 -1 0
vn 0 -1 0
vn 0 -1 0
vn 0 -1 0
vn 1 0 0
vn 1 0 0
vn 1 0 0
vn 1 0 0
vn 1 0 0
vn 1 0 0
vn -1 0 0
vn -1 0 0
vn -1 0 0
vn -1 0 0
vn -1 0 0
vn -1 0 0
vn 0 -0.9977864 0.06650084
vn 0 -0.9977864 0.06650084
vn 0 -0.9977864 0.06650084
vn 0 -0.73724663 0.6756238
vn 0 -0.73724663 0.6756238
vn 0 -0.73724663 0.6756238
vn 0 -0.9977864 0.06650084
vn 0 -0.9977864 0.06650084
vn 0 -0.9977864 0.06650084
vn 0 -0.73724663 0.67562383
vn 0 -0.73724663 0.67562383
vn 0 -0.73724663 0.67562383
vn 0 -0.9977864 0.06650084
vn 0 -0.9977864 0.06650084
vn 0 -0.9977864 0.06650084
vn 0 -0.73724663 0.67562383
vn 0 -0.73724663 0.67562383
vn 0 -0.73724663 0.67562383
vn 0 -0.9977864 0.06650084
vn 0 -0.9977864 0.06650084
vn 0 -0.9977864 0.06650084
vn 0 -0.73724663 0.6756238
vn 0 -0.73724663 0.6756238
vn 0 -0.73724663 0.6756238
vn 0 -0.71860486 0.6954186
vn 0 -0.71860486 0.6954186
vn 0 -0.71860486 0.6954186
vn 0 -0.71860486 0.6954186
vn 0 -0.71860486 0.6954186
vn 0 -0.71860486 0.6954186
f 1//1 2//2 3//3
f 4//4 5//5 6//6
f 7//7 8//8 9//9
f 10//10 11//11 12//12
f 13//13 14//14 15//15
f 16//16 17//17 18//18
f 19//19 20//20 21//21
f 22//22 23//23 24//24
f 25//25 26//26 27//27
f 28//28 29//29 30//30
f 31//31 32//32 33//33
f 34//34 35//35 36//36
f 37//37 38//38 39//39
f 40//40 41//41 42//42
f 43//43 44//44 45//45
f 46//46 47//47 48//48
f 49//49 50//50 51//51
f 52//52 53//53 54//54
f 55//55 56//56 57//57
f 58//58 59//59 60//60
f 61//61 62//62 63//63
f 64//64 65//65 66//66
f 67//67 68//68 69//69
f 70//70 71//71 72//72
f 73//73 74//74 75//75
f 76//76 77//77 78//78
f 79//79 80//80 81//81
f 82//82 83//83 84//84
f 85//85 86//86 87//87
f 88//88 89//89 90//90
