# Exported from SharpOpenGl procedural mesh
o solari_destroyer_mk2_25
# vertices 84
v -2.0063672 0.2632006 1.967939
v 2.0063672 0.2632006 1.967939
v 0 0.42112097 -0.8434025
v -2.0063672 0.2632006 1.967939
v 0 0.42112097 -0.8434025
v -2.0063672 0.2632006 -1.967939
v 2.0063672 0.2632006 1.967939
v 2.0063672 0.2632006 -1.967939
v 0 0.42112097 -0.8434025
v -2.0063672 0 1.967939
v 2.0063672 0 1.967939
v 2.0063672 0 -1.967939
v -2.0063672 0 1.967939
v 2.0063672 0 -1.967939
v -2.0063672 0 -1.967939
v -1.524839 0.2632006 2.2490733
v -1.0433109 0.47376108 0.8434025
v -1.7656031 0.2632006 -1.1245366
v 0 0.2632006 2.2490733
v 0.48152813 0.47376108 0.8434025
v -0.24076407 0.2632006 -1.1245366
v 1.524839 0.2632006 2.2490733
v 2.0063672 0.47376108 0.8434025
v 1.284075 0.2632006 -1.1245366
v -0.44585937 0.2632006 0.5622683
v 0.44585937 0.2632006 0.5622683
v 0.44585937 1.1092025 0.5622683
v -0.44585937 0.2632006 0.5622683
v 0.44585937 1.1092025 0.5622683
v -0.44585937 1.1092025 0.5622683
v -0.44585937 0.2632006 2.5302074
v 0.44585937 1.1092025 2.5302074
v 0.44585937 0.2632006 2.5302074
v -0.44585937 0.2632006 2.5302074
v -0.44585937 1.1092025 2.5302074
v 0.44585937 1.1092025 2.5302074
v -0.44585937 0.2632006 0.5622683
v -0.44585937 0.2632006 2.5302074
v 0.44585937 0.2632006 2.5302074
v -0.44585937 0.2632006 0.5622683
v 0.44585937 0.2632006 2.5302074
v 0.44585937 0.2632006 0.5622683
v -0.44585937 1.1092025 0.5622683
v 0.44585937 1.1092025 2.5302074
v -0.44585937 1.1092025 2.5302074
v -0.44585937 1.1092025 0.5622683
v 0.44585937 1.1092025 0.5622683
v 0.44585937 1.1092025 2.5302074
v -0.44585937 0.2632006 0.5622683
v -0.44585937 1.1092025 0.5622683
v -0.44585937 1.1092025 2.5302074
v -0.44585937 0.2632006 0.5622683
v -0.44585937 1.1092025 2.5302074
v -0.44585937 0.2632006 2.5302074
v 0.44585937 0.2632006 0.5622683
v 0.44585937 0.2632006 2.5302074
v 0.44585937 1.1092025 2.5302074
v 0.44585937 0.2632006 0.5622683
v 0.44585937 1.1092025 2.5302074
v 0.44585937 1.1092025 0.5622683
v -1.2484062 0.07520017 -3.8734038
v -1.6942655 0 -4.8542943
v -0.80254686 0 -4.8542943
v -1.2484062 0.3102007 -3.650474
v -1.5159218 0.07520017 -3.8734038
v -0.9808906 0.07520017 -3.8734038
v -0.4161354 0.07520017 -3.8734038
v -0.86199474 0 -4.8542943
v 0.029723912 0 -4.8542943
v -0.4161354 0.3102007 -3.650474
v -0.683651 0.07520017 -3.8734038
v -0.1486198 0.07520017 -3.8734038
v 0.4161354 0.07520017 -3.8734038
v -0.029723912 0 -4.8542943
v 0.86199474 0 -4.8542943
v 0.4161354 0.3102007 -3.650474
v 0.1486198 0.07520017 -3.8734038
v 0.683651 0.07520017 -3.8734038
v 1.2484062 0.07520017 -3.8734038
v 0.80254686 0 -4.8542943
v 1.6942655 0 -4.8542943
v 1.2484062 0.3102007 -3.650474
v 0.9808906 0.07520017 -3.8734038
v 1.5159218 0.07520017 -3.8734038
vn -0 0.9984261 0.056084186
vn -0 0.9984261 0.056084186
vn -0 0.9984261 0.056084186
vn -0.078466915 0.9969167 0
vn -0.078466915 0.9969167 0
vn -0.078466915 0.9969167 0
vn 0.078466915 0.9969167 0
vn 0.078466915 0.9969167 0
vn 0.078466915 0.9969167 0
vn -0 1 0
vn -0 1 0
vn -0 1 0
vn 0 1 0
vn 0 1 0
vn 0 1 0
vn -0.34018633 0.9400446 0.024278037
vn -0.34018633 0.9400446 0.024278037
vn -0.34018633 0.9400446 0.024278037
vn -0.34018633 0.9400445 0.024278043
vn -0.34018633 0.9400445 0.024278043
vn -0.34018633 0.9400445 0.024278043
vn -0.34018633 0.9400446 0.024278037
vn -0.34018633 0.9400446 0.024278037
vn -0.34018633 0.9400446 0.024278037
vn 0 0 1
vn 0 0 1
vn 0 0 1
vn 0 0 1
vn 0 0 1
vn 0 0 1
vn 0 0 -1
vn 0 0 -1
vn 0 0 -1
vn 0 0 -1
vn 0 0 -1
vn 0 0 -1
vn 0 1 0
vn 0 1 0
vn 0 1 0
vn 0 1 0
vn 0 1 0
vn 0 1 0
vn 0 -1 0
vn 0 -1 0
vn 0 -1 0
vn 0 -1 0
vn 0 -1 0
vn 0 -1 0
vn 0.99999994 0 0
vn 0.99999994 0 0
vn 0.99999994 0 0
vn 0.99999994 0 0
vn 0.99999994 0 0
vn 0.99999994 0 0
vn -0.99999994 0 0
vn -0.99999994 0 0
vn -0.99999994 0 0
vn -0.99999994 0 0
vn -0.99999994 0 0
vn -0.99999994 0 0
vn 0 -0.9970741 0.07644089
vn 0 -0.9970741 0.07644089
vn 0 -0.9970741 0.07644089
vn 0 -0.6882287 0.7254938
vn 0 -0.6882287 0.7254938
vn 0 -0.6882287 0.7254938
vn 0 -0.9970741 0.076440886
vn 0 -0.9970741 0.076440886
vn 0 -0.9970741 0.076440886
vn 0 -0.6882287 0.7254937
vn 0 -0.6882287 0.7254937
vn 0 -0.6882287 0.7254937
vn 0 -0.9970741 0.076440886
vn 0 -0.9970741 0.076440886
vn 0 -0.9970741 0.076440886
vn 0 -0.6882287 0.7254937
vn 0 -0.6882287 0.7254937
vn 0 -0.6882287 0.7254937
vn 0 -0.9970741 0.07644089
vn 0 -0.9970741 0.07644089
vn 0 -0.9970741 0.07644089
vn 0 -0.6882287 0.7254938
vn 0 -0.6882287 0.7254938
vn 0 -0.6882287 0.7254938
f 1//1 2//2 3//3
f 4//4 5//5 6//6
f 7//7 8//8 9//9
f 10//10 11//11 12//12
f 13//13 14//14 15//15
f 16//16 17//17 18//18
f 19//19 20//20 21//21
f 22//22 23//23 24//24
f 25//25 26//26 27//27
f 28//28 29//29 30//30
f 31//31 32//32 33//33
f 34//34 35//35 36//36
f 37//37 38//38 39//39
f 40//40 41//41 42//42
f 43//43 44//44 45//45
f 46//46 47//47 48//48
f 49//49 50//50 51//51
f 52//52 53//53 54//54
f 55//55 56//56 57//57
f 58//58 59//59 60//60
f 61//61 62//62 63//63
f 64//64 65//65 66//66
f 67//67 68//68 69//69
f 70//70 71//71 72//72
f 73//73 74//74 75//75
f 76//76 77//77 78//78
f 79//79 80//80 81//81
f 82//82 83//83 84//84
