# Exported from SharpOpenGl procedural mesh
o solari_dreadnought_mk3_45
# vertices 84
v -5.022963 0.6289435 2.8313549
v 5.022963 0.6289435 2.8313549
v 0 1.0063096 -1.2134378
v -5.022963 0.6289435 2.8313549
v 0 1.0063096 -1.2134378
v -5.022963 0.6289435 -2.8313549
v 5.022963 0.6289435 2.8313549
v 5.022963 0.6289435 -2.8313549
v 0 1.0063096 -1.2134378
v -5.022963 0 2.8313549
v 5.022963 0 2.8313549
v 5.022963 0 -2.8313549
v -5.022963 0 2.8313549
v 5.022963 0 -2.8313549
v -5.022963 0 -2.8313549
v -7.634904 0.6289435 3.2358341
v -6.429393 1.1320983 1.2134378
v -8.237659 0.6289435 -1.6179171
v -3.817452 0.6289435 3.2358341
v -2.6119409 1.1320983 1.2134378
v -4.4202075 0.6289435 -1.6179171
v 0 0.6289435 3.2358341
v 1.2055111 1.1320983 1.2134378
v -0.60275555 0.6289435 -1.6179171
v 3.817452 0.6289435 3.2358341
v 5.022963 1.1320983 1.2134378
v 3.2146964 0.6289435 -1.6179171
v 7.634904 0.6289435 3.2358341
v 8.840415 1.1320983 1.2134378
v 7.0321484 0.6289435 -1.6179171
v -1.116214 0.6289435 0.80895853
v 1.116214 0.6289435 0.80895853
v 1.116214 2.6505475 0.80895853
v -1.116214 0.6289435 0.80895853
v 1.116214 2.6505475 0.80895853
v -1.116214 2.6505475 0.80895853
v -1.116214 0.6289435 3.6403134
v 1.116214 2.6505475 3.6403134
v 1.116214 0.6289435 3.6403134
v -1.116214 0.6289435 3.6403134
v -1.116214 2.6505475 3.6403134
v 1.116214 2.6505475 3.6403134
v -1.116214 0.6289435 0.80895853
v -1.116214 0.6289435 3.6403134
v 1.116214 0.6289435 3.6403134
v -1.116214 0.6289435 0.80895853
v 1.116214 0.6289435 3.6403134
v 1.116214 0.6289435 0.80895853
v -1.116214 2.6505475 0.80895853
v 1.116214 2.6505475 3.6403134
v -1.116214 2.6505475 3.6403134
v -1.116214 2.6505475 0.80895853
v 1.116214 2.6505475 0.80895853
v 1.116214 2.6505475 3.6403134
v -1.116214 0.6289435 0.80895853
v -1.116214 2.6505475 0.80895853
v -1.116214 2.6505475 3.6403134
v -1.116214 0.6289435 0.80895853
v -1.116214 2.6505475 3.6403134
v -1.116214 0.6289435 3.6403134
v 1.116214 0.6289435 0.80895853
v 1.116214 0.6289435 3.6403134
v 1.116214 2.6505475 3.6403134
v 1.116214 0.6289435 0.80895853
v 1.116214 2.6505475 3.6403134
v 1.116214 2.6505475 0.80895853
v -2.604499 0.17969814 -5.5728254
v -3.943956 0 -8.51963
v -1.2650423 0 -8.51963
v -2.604499 0.7412548 -4.903097
v -3.408173 0.17969814 -5.5728254
v -1.800825 0.17969814 -5.5728254
v 0 0.17969814 -5.5728254
v -1.3394568 0 -8.51963
v 1.3394568 0 -8.51963
v 0 0.7412548 -4.903097
v -0.8036741 0.17969814 -5.5728254
v 0.8036741 0.17969814 -5.5728254
v 2.604499 0.17969814 -5.5728254
v 1.2650423 0 -8.51963
v 3.943956 0 -8.51963
v 2.604499 0.7412548 -4.903097
v 1.800825 0.17969814 -5.5728254
v 3.408173 0.17969814 -5.5728254
vn -0 0.99567604 0.09289337
vn -0 0.99567604 0.09289337
vn -0 0.99567604 0.09289337
vn -0.07491706 0.9971898 0
vn -0.07491706 0.9971898 0
vn -0.07491706 0.9971898 0
vn 0.07491706 0.9971898 0
vn 0.07491706 0.9971898 0
vn 0.07491706 0.9971898 0
vn -0 1 0
vn -0 1 0
vn -0 1 0
vn 0 1 0
vn 0 1 0
vn 0 1 0
vn -0.32622048 0.9444252 0.040511183
vn -0.32622048 0.9444252 0.040511183
vn -0.32622048 0.9444252 0.040511183
vn -0.32622048 0.9444252 0.040511183
vn -0.32622048 0.9444252 0.040511183
vn -0.32622048 0.9444252 0.040511183
vn -0.32622048 0.9444252 0.040511183
vn -0.32622048 0.9444252 0.040511183
vn -0.32622048 0.9444252 0.040511183
vn -0.32622048 0.9444252 0.040511183
vn -0.32622048 0.9444252 0.040511183
vn -0.32622048 0.9444252 0.040511183
vn -0.32622048 0.9444252 0.040511183
vn -0.32622048 0.9444252 0.040511183
vn -0.32622048 0.9444252 0.040511183
vn 0 0 1
vn 0 0 1
vn 0 0 1
vn 0 0 1
vn 0 0 1
vn 0 0 1
vn 0 0 -1
vn 0 0 -1
vn 0 0 -1
vn 0 0 -1
vn 0 0 -1
vn 0 0 -1
vn 0 1 0
vn 0 1 0
vn 0 1 0
vn 0 1 0
vn 0 1 0
vn 0 1 0
vn 0 -1 0
vn 0 -1 0
vn 0 -1 0
vn 0 -1 0
vn 0 -1 0
vn 0 -1 0
vn 1 0 0
vn 1 0 0
vn 1 0 0
vn 1 0 0
vn 1 0 0
vn 1 0 0
vn -1 0 0
vn -1 0 0
vn -1 0 0
vn -1 0 0
vn -1 0 0
vn -1 0 0
vn 0 -0.9981458 0.060867596
vn 0 -0.9981458 0.060867596
vn 0 -0.9981458 0.060867596
vn 0 -0.7662765 0.64251083
vn 0 -0.7662765 0.64251083
vn 0 -0.7662765 0.64251083
vn 0 -0.9981458 0.060867596
vn 0 -0.9981458 0.060867596
vn 0 -0.9981458 0.060867596
vn 0 -0.76627654 0.6425109
vn 0 -0.76627654 0.6425109
vn 0 -0.76627654 0.6425109
vn 0 -0.9981458 0.060867596
vn 0 -0.9981458 0.060867596
vn 0 -0.9981458 0.060867596
vn 0 -0.7662765 0.64251083
vn 0 -0.7662765 0.64251083
vn 0 -0.7662765 0.64251083
f 1//1 2//2 3//3
f 4//4 5//5 6//6
f 7//7 8//8 9//9
f 10//10 11//11 12//12
f 13//13 14//14 15//15
f 16//16 17//17 18//18
f 19//19 20//20 21//21
f 22//22 23//23 24//24
f 25//25 26//26 27//27
f 28//28 29//29 30//30
f 31//31 32//32 33//33
f 34//34 35//35 36//36
f 37//37 38//38 39//39
f 40//40 41//41 42//42
f 43//43 44//44 45//45
f 46//46 47//47 48//48
f 49//49 50//50 51//51
f 52//52 53//53 54//54
f 55//55 56//56 57//57
f 58//58 59//59 60//60
f 61//61 62//62 63//63
f 64//64 65//65 66//66
f 67//67 68//68 69//69
f 70//70 71//71 72//72
f 73//73 74//74 75//75
f 76//76 77//77 78//78
f 79//79 80//80 81//81
f 82//82 83//83 84//84
