# Exported from SharpOpenGl procedural mesh
o solari_fighter_mk1_01
# vertices 339
v -0.26901463 0.01627415 -1.0289294
v 0.26901463 0.01627415 -1.0289294
v 0 0.05085672 -0.9279072
v -0.26901463 0.01627415 -1.0289294
v 0 0.05085672 -0.9279072
v -0.33703017 0.019474417 -0.8044357
v 0.26901463 0.01627415 -1.0289294
v 0.33703017 0.019474417 -0.8044357
v 0 0.060857553 -0.9279072
v -0.26901463 0 -1.0289294
v -0.33703017 0 -0.8044357
v 0.26901463 0 -1.0289294
v 0.26901463 0 -1.0289294
v -0.33703017 0 -0.8044357
v 0.33703017 0 -0.8044357
v -0.33703017 0.019474417 -0.8044357
v 0.33703017 0.019474417 -0.8044357
v 0 0.060857553 -0.7034135
v -0.33703017 0.019474417 -0.8044357
v 0 0.060857553 -0.7034135
v -0.39838788 0.022361416 -0.579942
v 0.33703017 0.019474417 -0.8044357
v 0.39838788 0.022361416 -0.579942
v 0 0.06987943 -0.7034135
v -0.33703017 0 -0.8044357
v -0.39838788 0 -0.579942
v 0.33703017 0 -0.8044357
v 0.33703017 0 -0.8044357
v -0.39838788 0 -0.579942
v 0.39838788 0 -0.579942
v -0.39838788 0.022361416 -0.579942
v 0.39838788 0.022361416 -0.579942
v 0 0.06987943 -0.4789198
v -0.39838788 0.022361416 -0.579942
v 0 0.06987943 -0.4789198
v -0.44708163 0.024652557 -0.35544825
v 0.39838788 0.022361416 -0.579942
v 0.44708163 0.024652557 -0.35544825
v 0 0.07703924 -0.4789198
v -0.39838788 0 -0.579942
v -0.44708163 0 -0.35544825
v 0.39838788 0 -0.579942
v 0.39838788 0 -0.579942
v -0.44708163 0 -0.35544825
v 0.44708163 0 -0.35544825
v -0.44708163 0.024652557 -0.35544825
v 0.44708163 0.024652557 -0.35544825
v 0 0.07703924 -0.2544261
v -0.44708163 0.024652557 -0.35544825
v 0 0.07703924 -0.2544261
v -0.47834492 0.026123557 -0.13095456
v 0.44708163 0.024652557 -0.35544825
v 0.47834492 0.026123557 -0.13095456
v 0 0.081636116 -0.2544261
v -0.44708163 0 -0.35544825
v -0.47834492 0 -0.13095456
v 0.44708163 0 -0.35544825
v 0.44708163 0 -0.35544825
v -0.47834492 0 -0.13095456
v 0.47834492 0 -0.13095456
v -0.47834492 0.026123557 -0.13095456
v 0.47834492 0.026123557 -0.13095456
v 0 0.081636116 -0.02993241
v -0.47834492 0.026123557 -0.13095456
v 0 0.081636116 -0.02993241
v -0.48911753 0.026630428 0.09353912
v 0.47834492 0.026123557 -0.13095456
v 0.48911753 0.026630428 0.09353912
v 0 0.08322009 -0.02993241
v -0.47834492 0 -0.13095456
v -0.48911753 0 0.09353912
v 0.47834492 0 -0.13095456
v 0.47834492 0 -0.13095456
v -0.48911753 0 0.09353912
v 0.48911753 0 0.09353912
v -0.48911753 0.026630428 0.09353912
v 0.48911753 0.026630428 0.09353912
v 0 0.08322009 0.1945613
v -0.48911753 0.026630428 0.09353912
v 0 0.08322009 0.1945613
v -0.47834492 0.026123554 0.31803286
v 0.48911753 0.026630428 0.09353912
v 0.47834492 0.026123554 0.31803286
v 0 0.08163611 0.1945613
v -0.48911753 0 0.09353912
v -0.47834492 0 0.31803286
v 0.48911753 0 0.09353912
v 0.48911753 0 0.09353912
v -0.47834492 0 0.31803286
v 0.47834492 0 0.31803286
v -0.47834492 0.026123554 0.31803286
v 0.47834492 0.026123554 0.31803286
v 0 0.08163611 0.41905499
v -0.47834492 0.026123554 0.31803286
v 0 0.08163611 0.41905499
v -0.44708163 0.024652557 0.5425265
v 0.47834492 0.026123554 0.31803286
v 0.44708163 0.024652557 0.5425265
v 0 0.07703924 0.41905499
v -0.47834492 0 0.31803286
v -0.44708163 0 0.5425265
v 0.47834492 0 0.31803286
v 0.47834492 0 0.31803286
v -0.44708163 0 0.5425265
v 0.44708163 0 0.5425265
v -0.44708163 0.024652557 0.5425265
v 0.44708163 0.024652557 0.5425265
v 0 0.07703924 0.64354867
v -0.44708163 0.024652557 0.5425265
v 0 0.07703924 0.64354867
v -0.4873183 0.022361416 0.7670202
v 0.44708163 0.024652557 0.5425265
v 0.4873183 0.022361416 0.7670202
v 0 0.06987943 0.64354867
v -0.44708163 0 0.5425265
v -0.4873183 0 0.7670202
v 0.44708163 0 0.5425265
v 0.44708163 0 0.5425265
v -0.4873183 0 0.7670202
v 0.4873183 0 0.7670202
v -0.4873183 0.022361416 0.7670202
v 0.4873183 0.022361416 0.7670202
v 0 0.06987943 0.86804235
v -0.4873183 0.022361416 0.7670202
v 0 0.06987943 0.86804235
v -0.38149542 0.019474417 0.99151385
v 0.4873183 0.022361416 0.7670202
v 0.38149542 0.019474417 0.99151385
v 0 0.060857553 0.86804235
v -0.4873183 0 0.7670202
v -0.38149542 0 0.99151385
v 0.4873183 0 0.7670202
v 0.4873183 0 0.7670202
v -0.38149542 0 0.99151385
v 0.38149542 0 0.99151385
v -0.38149542 0.019474417 0.99151385
v 0.38149542 0.019474417 0.99151385
v 0 0.060857553 1.092536
v -0.38149542 0.019474417 0.99151385
v 0 0.060857553 1.092536
v -0.26901463 0.016274149 1.2160076
v 0.38149542 0.019474417 0.99151385
v 0.26901463 0.016274149 1.2160076
v 0 0.050856717 1.092536
v -0.38149542 0 0.99151385
v -0.26901463 0 1.2160076
v 0.38149542 0 0.99151385
v 0.38149542 0 0.99151385
v -0.26901463 0 1.2160076
v 0.26901463 0 1.2160076
v -0.82538587 0.092466764 0.7108967
v 0.82538587 0.092466764 0.7108967
v 0 0.14332348 -0.56123424
v -0.82538587 0.092466764 0.7108967
v 0 0.14332348 -0.56123424
v -0.82538587 0.092466764 -0.7108967
v 0.82538587 0.092466764 0.7108967
v 0.82538587 0.092466764 -0.7108967
v 0 0.14332348 -0.56123424
v -0.82538587 0.085069425 0.7108967
v 0.82538587 0.085069425 0.7108967
v 0.82538587 0.085069425 -0.7108967
v -0.82538587 0.085069425 0.7108967
v 0.82538587 0.085069425 -0.7108967
v -0.82538587 0.085069425 -0.7108967
v -0.82538587 0.085069425 0.7108967
v -0.82538587 0.092466764 0.7108967
v 0.82538587 0.092466764 0.7108967
v -0.82538587 0.085069425 -0.7108967
v 0.82538587 0.092466764 -0.7108967
v -0.82538587 0.092466764 -0.7108967
v 0.82538587 0.085069425 -0.7108967
v 0.82538587 0.092466764 -0.7108967
v 0.82538587 0.092466764 0.7108967
v 0.82538587 0.085069425 0.7108967
v 0.82538587 0.092466764 0.7108967
v 0.82538587 0.092466764 -0.7108967
v -0.7758627 0.092466764 -0.7108967
v -0.6107855 0.092466764 -0.7108967
v -0.6933241 0.124830134 -0.5238186
v -0.7758627 0.092466764 -0.7108967
v -0.6933241 0.124830134 -0.5238186
v -0.75935495 0.092466764 -0.5238186
v -0.6107855 0.092466764 -0.7108967
v -0.6272932 0.092466764 -0.5238186
v -0.6933241 0.124830134 -0.5238186
v -0.08253859 0.092466764 -0.7108967
v 0.08253859 0.092466764 -0.7108967
v 0 0.124830134 -0.5238186
v -0.08253859 0.092466764 -0.7108967
v 0 0.124830134 -0.5238186
v -0.06603087 0.092466764 -0.5238186
v 0.08253859 0.092466764 -0.7108967
v 0.06603087 0.092466764 -0.5238186
v 0 0.124830134 -0.5238186
v 0.6107855 0.092466764 -0.7108967
v 0.7758627 0.092466764 -0.7108967
v 0.6933241 0.124830134 -0.5238186
v 0.6107855 0.092466764 -0.7108967
v 0.6933241 0.124830134 -0.5238186
v 0.6272932 0.092466764 -0.5238186
v 0.7758627 0.092466764 -0.7108967
v 0.75935495 0.092466764 -0.5238186
v 0.6933241 0.124830134 -0.5238186
v -0.7758627 0.092466764 0.5612343
v -0.6107855 0.092466764 0.5612343
v -0.6933241 0.16644017 0.74831235
v -0.7758627 0.092466764 0.5612343
v -0.6933241 0.16644017 0.74831235
v -0.75935495 0.092466764 0.74831235
v -0.6107855 0.092466764 0.5612343
v -0.6272932 0.092466764 0.74831235
v -0.6933241 0.16644017 0.74831235
v -0.08253859 0.092466764 0.5612343
v 0.08253859 0.092466764 0.5612343
v 0 0.16644017 0.74831235
v -0.08253859 0.092466764 0.5612343
v 0 0.16644017 0.74831235
v -0.06603087 0.092466764 0.74831235
v 0.08253859 0.092466764 0.5612343
v 0.06603087 0.092466764 0.74831235
v 0 0.16644017 0.74831235
v 0.6107855 0.092466764 0.5612343
v 0.7758627 0.092466764 0.5612343
v 0.6933241 0.16644017 0.74831235
v 0.6107855 0.092466764 0.5612343
v 0.6933241 0.16644017 0.74831235
v 0.6272932 0.092466764 0.74831235
v 0.7758627 0.092466764 0.5612343
v 0.75935495 0.092466764 0.74831235
v 0.6933241 0.16644017 0.74831235
v -0.12227938 0.0771437 0.06285823
v 0.12227938 0.0771437 0.06285823
v 0 0.24107406 0.07700133
v -0.12227938 0.0771437 0.06285823
v 0 0.24107406 0.07700133
v -0.11412743 0.08683069 0.09428735
v 0.12227938 0.0771437 0.06285823
v 0.11412743 0.08683069 0.09428735
v 0 0.2713459 0.07700133
v -0.12227938 0 0.06285823
v -0.11412743 0 0.09428735
v 0.12227938 0 0.06285823
v 0.12227938 0 0.06285823
v -0.11412743 0 0.09428735
v 0.11412743 0 0.09428735
v -0.11412743 0.08683069 0.09428735
v 0.11412743 0.08683069 0.09428735
v 0 0.2713459 0.10843046
v -0.11412743 0.08683069 0.09428735
v 0 0.2713459 0.10843046
v -0.105975464 0.09651768 0.12571648
v 0.11412743 0.08683069 0.09428735
v 0.105975464 0.09651768 0.12571648
v 0 0.30161777 0.10843046
v -0.11412743 0 0.09428735
v -0.105975464 0 0.12571648
v 0.11412743 0 0.09428735
v 0.11412743 0 0.09428735
v -0.105975464 0 0.12571648
v 0.105975464 0 0.12571648
v -0.105975464 0.09651768 0.12571648
v 0.105975464 0.09651768 0.12571648
v 0 0.30161777 0.13985957
v -0.105975464 0.09651768 0.12571648
v 0 0.30161777 0.13985957
v -0.09782351 0.10620468 0.15714559
v 0.105975464 0.09651768 0.12571648
v 0.09782351 0.10620468 0.15714559
v 0 0.33188963 0.13985957
v -0.105975464 0 0.12571648
v -0.09782351 0 0.15714559
v 0.105975464 0 0.12571648
v 0.105975464 0 0.12571648
v -0.09782351 0 0.15714559
v 0.09782351 0 0.15714559
v -0.09782351 0.10620468 0.15714559
v 0.09782351 0.10620468 0.15714559
v 0 0.33188963 0.17128868
v -0.09782351 0.10620468 0.15714559
v 0 0.33188963 0.17128868
v -0.08967155 0.11589167 0.1885747
v 0.09782351 0.10620468 0.15714559
v 0.08967155 0.11589167 0.1885747
v 0 0.3621615 0.17128868
v -0.09782351 0 0.15714559
v -0.08967155 0 0.1885747
v 0.09782351 0 0.15714559
v 0.09782351 0 0.15714559
v -0.08967155 0 0.1885747
v 0.08967155 0 0.1885747
v -0.08967155 0.11589167 0.1885747
v 0.08967155 0.11589167 0.1885747
v 0 0.3621615 0.2027178
v -0.08967155 0.11589167 0.1885747
v 0 0.3621615 0.2027178
v -0.08151958 0.12557867 0.22000381
v 0.08967155 0.11589167 0.1885747
v 0.08151958 0.12557867 0.22000381
v 0 0.39243335 0.2027178
v -0.08967155 0 0.1885747
v -0.08151958 0 0.22000381
v 0.08967155 0 0.1885747
v 0.08967155 0 0.1885747
v -0.08151958 0 0.22000381
v 0.08151958 0 0.22000381
v -0.08151958 0.12557867 0.22000381
v 0.08151958 0.12557867 0.22000381
v 0 0.39243335 0.23414691
v -0.08151958 0.12557867 0.22000381
v 0 0.39243335 0.23414691
v -0.07336763 0.13526566 0.25143293
v 0.08151958 0.12557867 0.22000381
v 0.07336763 0.13526566 0.25143293
v 0 0.4227052 0.23414691
v -0.08151958 0 0.22000381
v -0.07336763 0 0.25143293
v 0.08151958 0 0.22000381
v 0.08151958 0 0.22000381
v -0.07336763 0 0.25143293
v 0.07336763 0 0.25143293
v -0.42797783 0.026419073 -1.2887601
v -0.5527028 0 -1.5631549
v -0.30325288 0 -1.5631549
v -0.42797783 0.10897868 -1.2263976
v -0.5028128 0.026419073 -1.2887601
v -0.35314286 0.026419073 -1.2887601
v 0 0.026419073 -1.2887601
v -0.12472497 0 -1.5631549
v 0.12472497 0 -1.5631549
v 0 0.10897868 -1.2263976
v -0.07483499 0.026419073 -1.2887601
v 0.07483499 0.026419073 -1.2887601
v 0.42797783 0.026419073 -1.2887601
v 0.30325288 0 -1.5631549
v 0.5527028 0 -1.5631549
v 0.42797783 0.10897868 -1.2263976
v 0.35314286 0.026419073 -1.2887601
v 0.5028128 0.026419073 -1.2887601
vn 0 -0.9460998 0.32387522
vn 0 -0.9460998 0.32387522
vn 0 -0.9460998 0.32387522
vn 0.10982006 -0.99281937 0.04742565
vn 0.10982006 -0.99281937 0.04742565
vn 0.10982006 -0.99281937 0.04742565
vn -0.14228928 -0.98817116 0.057196684
vn -0.14228928 -0.98817116 0.057196684
vn -0.14228928 -0.98817116 0.057196684
vn 0 0.99999994 -0
vn 0 0.99999994 -0
vn 0 0.99999994 -0
vn 0 1 -0
vn 0 1 -0
vn 0 1 -0
vn 0 -0.9253675 0.37907127
vn 0 -0.9253675 0.37907127
vn 0 -0.9253675 0.37907127
vn 0.10916976 -0.99310946 0.042609274
vn 0.10916976 -0.99310946 0.042609274
vn 0.10916976 -0.99310946 0.042609274
vn -0.13330282 -0.9898553 0.049163375
vn -0.13330282 -0.9898553 0.049163375
vn -0.13330282 -0.9898553 0.049163375
vn 0 1 -0
vn 0 1 -0
vn 0 1 -0
vn 0 1 -0
vn 0 1 -0
vn 0 1 -0
vn 0 -0.9048941 0.4256369
vn 0 -0.9048941 0.4256369
vn 0 -0.9048941 0.4256369
vn 0.10987048 -0.9933653 0.03396952
vn 0.10987048 -0.9933653 0.03396952
vn 0.10987048 -0.9933653 0.03396952
vn -0.12652276 -0.9912523 0.037559915
vn -0.12652276 -0.9912523 0.037559915
vn -0.12652276 -0.9912523 0.037559915
vn 0 1 -0
vn 0 1 -0
vn 0 1 -0
vn 0 0.99999994 -0
vn 0 0.99999994 -0
vn 0 0.99999994 -0
vn 0 -0.8877372 0.46035063
vn 0 -0.8877372 0.46035063
vn 0 -0.8877372 0.46035063
vn 0.11143861 -0.9935272 0.0220292
vn 0.11143861 -0.9935272 0.0220292
vn 0.11143861 -0.9935272 0.0220292
vn -0.121198945 -0.9923528 0.02338074
vn -0.121198945 -0.9923528 0.02338074
vn -0.121198945 -0.9923528 0.02338074
vn 0 1 -0
vn 0 1 -0
vn 0 1 -0
vn 0 1 -0
vn 0 1 -0
vn 0 1 -0
vn 0 -0.87639767 0.48158818
vn 0 -0.87639767 0.48158818
vn 0 -0.87639767 0.48158818
vn 0.11366998 -0.9934887 0.0076977354
vn 0.11366998 -0.9934887 0.0076977354
vn 0.11366998 -0.9934887 0.0076977354
vn -0.11688275 -0.99311465 0.00785106
vn -0.11688275 -0.99311465 0.00785106
vn -0.11688275 -0.99311465 0.00785106
vn 0 1 -0
vn 0 1 -0
vn 0 1 -0
vn 0 0.99999994 -0
vn 0 0.99999994 -0
vn 0 0.99999994 -0
vn 0 -0.8724426 0.4887167
vn 0 -0.8724426 0.4887167
vn 0 -0.8724426 0.4887167
vn 0.11652377 -0.993157 -0.007833945
vn 0.11652377 -0.993157 -0.007833945
vn 0.11652377 -0.993157 -0.007833945
vn -0.11331774 -0.9935291 -0.0076809386
vn -0.11331774 -0.9935291 -0.0076809386
vn -0.11331774 -0.9935291 -0.0076809386
vn 0 1 0
vn 0 1 0
vn 0 1 0
vn 0 1 0
vn 0 1 0
vn 0 1 0
vn 0 -0.87639767 0.4815883
vn 0 -0.87639767 0.4815883
vn 0 -0.87639767 0.4815883
vn 0.120085225 -0.9924919 -0.023226544
vn 0.120085225 -0.9924919 -0.023226544
vn 0.120085225 -0.9924919 -0.023226544
vn -0.11038683 -0.9936478 -0.021883506
vn -0.11038683 -0.9936478 -0.021883506
vn -0.11038683 -0.9936478 -0.021883506
vn 0 1 0
vn 0 1 0
vn 0 1 0
vn 0 1 0
vn 0 1 0
vn 0 1 0
vn 0 -0.8877372 0.4603505
vn 0 -0.8877372 0.4603505
vn 0 -0.8877372 0.4603505
vn 0.114074595 -0.99341875 0.010307281
vn 0.114074595 -0.99341875 0.010307281
vn 0.114074595 -0.99341875 0.010307281
vn -0.09894825 -0.99506384 0.007579353
vn -0.09894825 -0.99506384 0.007579353
vn -0.09894825 -0.99506384 0.007579353
vn 0 0.99999994 -0
vn 0 0.99999994 -0
vn 0 0.99999994 -0
vn 0 1 -0
vn 0 1 -0
vn 0 1 -0
vn 0 -0.904894 0.4256371
vn 0 -0.904894 0.4256371
vn 0 -0.904894 0.4256371
vn 0.11011537 -0.9918133 -0.06466148
vn 0.11011537 -0.9918133 -0.06466148
vn 0.11011537 -0.9918133 -0.06466148
vn -0.09000003 -0.99441016 -0.055212814
vn -0.09000003 -0.99441016 -0.055212814
vn -0.09000003 -0.99441016 -0.055212814
vn 0 0.99999994 0
vn 0 0.99999994 0
vn 0 0.99999994 0
vn 0 1 0
vn 0 1 0
vn 0 1 0
vn 0 -0.9253674 0.37907147
vn 0 -0.9253674 0.37907147
vn 0 -0.9253674 0.37907147
vn 0.12795904 -0.9886911 -0.07820712
vn 0.12795904 -0.9886911 -0.07820712
vn 0.12795904 -0.9886911 -0.07820712
vn -0.0985138 -0.99310654 -0.06351677
vn -0.0985138 -0.99310654 -0.06351677
vn -0.0985138 -0.99310654 -0.06351677
vn 0 1 0
vn 0 1 0
vn 0 1 0
vn 0 1 0
vn 0 1 0
vn 0 1 0
vn -0 0.9992018 0.03994567
vn -0 0.9992018 0.03994567
vn -0 0.9992018 0.03994567
vn -0.061499063 0.99810714 0
vn -0.061499063 0.99810714 0
vn -0.061499063 0.99810714 0
vn 0.061499063 0.99810714 0
vn 0.061499063 0.99810714 0
vn 0.061499063 0.99810714 0
vn -0 1 0
vn -0 1 0
vn -0 1 0
vn 0 1 0
vn 0 1 0
vn 0 1 0
vn 0 0 -1
vn 0 0 -1
vn 0 0 -1
vn 0 0 1
vn 0 0 1
vn 0 0 1
vn 1 0 0
vn 1 0 0
vn 1 0 0
vn -1 0 0
vn -1 0 0
vn -1 0 0
vn 0 -0.9853643 0.17046206
vn 0 -0.9853643 0.17046206
vn 0 -0.9853643 0.17046206
vn 0.43977425 -0.8972697 -0.038805626
vn 0.43977425 -0.8972697 -0.038805626
vn 0.43977425 -0.8972697 -0.038805626
vn -0.43977425 -0.8972697 -0.038805626
vn -0.43977425 -0.8972697 -0.038805626
vn -0.43977425 -0.8972697 -0.038805626
vn 0 -0.98536426 0.17046204
vn 0 -0.98536426 0.17046204
vn 0 -0.98536426 0.17046204
vn 0.43977416 -0.89726967 -0.038805563
vn 0.43977416 -0.89726967 -0.038805563
vn 0.43977416 -0.89726967 -0.038805563
vn -0.43977416 -0.89726967 -0.038805563
vn -0.43977416 -0.89726967 -0.038805563
vn -0.43977416 -0.89726967 -0.038805563
vn 0 -0.9853643 0.17046206
vn 0 -0.9853643 0.17046206
vn 0 -0.9853643 0.17046206
vn 0.43977425 -0.8972697 -0.038805626
vn 0.43977425 -0.8972697 -0.038805626
vn 0.43977425 -0.8972697 -0.038805626
vn -0.43977425 -0.8972697 -0.038805626
vn -0.43977425 -0.8972697 -0.038805626
vn -0.43977425 -0.8972697 -0.038805626
vn 0 -0.9299398 0.36771184
vn 0 -0.9299398 0.36771184
vn 0 -0.9299398 0.36771184
vn 0.7444108 -0.66448313 -0.06568672
vn 0.7444108 -0.66448313 -0.06568672
vn 0.7444108 -0.66448313 -0.06568672
vn -0.7444108 -0.66448313 -0.06568672
vn -0.7444108 -0.66448313 -0.06568672
vn -0.7444108 -0.66448313 -0.06568672
vn 0 -0.92993975 0.36771184
vn 0 -0.92993975 0.36771184
vn 0 -0.92993975 0.36771184
vn 0.74441075 -0.6644832 -0.06568662
vn 0.74441075 -0.6644832 -0.06568662
vn 0.74441075 -0.6644832 -0.06568662
vn -0.74441075 -0.6644832 -0.06568662
vn -0.74441075 -0.6644832 -0.06568662
vn -0.74441075 -0.6644832 -0.06568662
vn 0 -0.9299398 0.36771184
vn 0 -0.9299398 0.36771184
vn 0 -0.9299398 0.36771184
vn 0.7444108 -0.66448313 -0.06568672
vn 0.7444108 -0.66448313 -0.06568672
vn 0.7444108 -0.66448313 -0.06568672
vn -0.7444108 -0.66448313 -0.06568672
vn -0.7444108 -0.66448313 -0.06568672
vn -0.7444108 -0.66448313 -0.06568672
vn 0 -0.085955754 0.9962989
vn 0 -0.085955754 0.9962989
vn 0 -0.085955754 0.9962989
vn 0.80233276 -0.59638256 -0.024290461
vn 0.80233276 -0.59638256 -0.024290461
vn 0.80233276 -0.59638256 -0.024290461
vn -0.8467225 -0.52901906 -0.05656668
vn -0.8467225 -0.52901906 -0.05656668
vn -0.8467225 -0.52901906 -0.05656668
vn 0 1 0
vn 0 1 0
vn 0 1 0
vn 0 1 0
vn 0 1 0
vn 0 1 0
vn 0 -0.07642591 0.99707526
vn 0 -0.07642591 0.99707526
vn 0 -0.07642591 0.99707526
vn 0.85098404 -0.52176356 -0.059908472
vn 0.85098404 -0.52176356 -0.059908472
vn 0.85098404 -0.52176356 -0.059908472
vn -0.88213813 -0.463057 -0.086083464
vn -0.88213813 -0.463057 -0.086083464
vn -0.88213813 -0.463057 -0.086083464
vn 0 1 0
vn 0 1 0
vn 0 1 0
vn 0 0.99999994 0
vn 0 0.99999994 0
vn 0 0.99999994 0
vn 0 -0.06879367 0.99763095
vn 0 -0.06879367 0.99763095
vn 0 -0.06879367 0.99763095
vn 0.88728505 -0.45220247 -0.09076375
vn 0.88728505 -0.45220247 -0.09076375
vn 0.88728505 -0.45220247 -0.09076375
vn -0.9086304 -0.40239906 -0.1116505
vn -0.9086304 -0.40239906 -0.1116505
vn -0.9086304 -0.40239906 -0.1116505
vn 0 1 0
vn 0 1 0
vn 0 1 0
vn 0 1 0
vn 0 1 0
vn 0 1 0
vn 0 -0.06254473 0.99804217
vn 0 -0.06254473 0.99804217
vn 0 -0.06254473 0.99804217
vn 0.9138512 -0.3887653 -0.11720692
vn 0.9138512 -0.3887653 -0.11720692
vn 0.9138512 -0.3887653 -0.11720692
vn -0.92815965 -0.34734422 -0.13368484
vn -0.92815965 -0.34734422 -0.13368484
vn -0.92815965 -0.34734422 -0.13368484
vn 0 1 0
vn 0 1 0
vn 0 1 0
vn 0 1 0
vn 0 1 0
vn 0 1 0
vn 0 -0.05733479 0.99835503
vn 0 -0.05733479 0.99835503
vn 0 -0.05733479 0.99835503
vn 0.93297875 -0.33168912 -0.13976035
vn 0.93297875 -0.33168912 -0.13976035
vn 0.93297875 -0.33168912 -0.13976035
vn -0.9423565 -0.29776213 -0.1526496
vn -0.9423565 -0.29776213 -0.1526496
vn -0.9423565 -0.29776213 -0.1526496
vn 0 1 0
vn 0 1 0
vn 0 1 0
vn 0 1 0
vn 0 1 0
vn 0 1 0
vn 0 -0.052924965 0.9985985
vn 0 -0.052924965 0.9985985
vn 0 -0.052924965 0.9985985
vn 0.9465299 -0.28072286 -0.15898329
vn 0.9465299 -0.28072286 -0.15898329
vn 0.9465299 -0.28072286 -0.15898329
vn -0.9525161 -0.2532882 -0.16899179
vn -0.9525161 -0.2532882 -0.16899179
vn -0.9525161 -0.2532882 -0.16899179
vn 0 1 0
vn 0 1 0
vn 0 1 0
vn 0 1 0
vn 0 1 0
vn 0 1 0
vn 0 -0.995397 0.09583804
vn 0 -0.995397 0.09583804
vn 0 -0.995397 0.09583804
vn 0 -0.60273504 0.79794145
vn 0 -0.60273504 0.79794145
vn 0 -0.60273504 0.79794145
vn 0 -0.9953969 0.09583803
vn 0 -0.9953969 0.09583803
vn 0 -0.9953969 0.09583803
vn 0 -0.60273504 0.79794145
vn 0 -0.60273504 0.79794145
vn 0 -0.60273504 0.79794145
vn 0 -0.995397 0.09583804
vn 0 -0.995397 0.09583804
vn 0 -0.995397 0.09583804
vn 0 -0.60273504 0.79794145
vn 0 -0.60273504 0.79794145
vn 0 -0.60273504 0.79794145
f 1//1 2//2 3//3
f 4//4 5//5 6//6
f 7//7 8//8 9//9
f 10//10 11//11 12//12
f 13//13 14//14 15//15
f 16//16 17//17 18//18
f 19//19 20//20 21//21
f 22//22 23//23 24//24
f 25//25 26//26 27//27
f 28//28 29//29 30//30
f 31//31 32//32 33//33
f 34//34 35//35 36//36
f 37//37 38//38 39//39
f 40//40 41//41 42//42
f 43//43 44//44 45//45
f 46//46 47//47 48//48
f 49//49 50//50 51//51
f 52//52 53//53 54//54
f 55//55 56//56 57//57
f 58//58 59//59 60//60
f 61//61 62//62 63//63
f 64//64 65//65 66//66
f 67//67 68//68 69//69
f 70//70 71//71 72//72
f 73//73 74//74 75//75
f 76//76 77//77 78//78
f 79//79 80//80 81//81
f 82//82 83//83 84//84
f 85//85 86//86 87//87
f 88//88 89//89 90//90
f 91//91 92//92 93//93
f 94//94 95//95 96//96
f 97//97 98//98 99//99
f 100//100 101//101 102//102
f 103//103 104//104 105//105
f 106//106 107//107 108//108
f 109//109 110//110 111//111
f 112//112 113//113 114//114
f 115//115 116//116 117//117
f 118//118 119//119 120//120
f 121//121 122//122 123//123
f 124//124 125//125 126//126
f 127//127 128//128 129//129
f 130//130 131//131 132//132
f 133//133 134//134 135//135
f 136//136 137//137 138//138
f 139//139 140//140 141//141
f 142//142 143//143 144//144
f 145//145 146//146 147//147
f 148//148 149//149 150//150
f 151//151 152//152 153//153
f 154//154 155//155 156//156
f 157//157 158//158 159//159
f 160//160 161//161 162//162
f 163//163 164//164 165//165
f 166//166 167//167 168//168
f 169//169 170//170 171//171
f 172//172 173//173 174//174
f 175//175 176//176 177//177
f 178//178 179//179 180//180
f 181//181 182//182 183//183
f 184//184 185//185 186//186
f 187//187 188//188 189//189
f 190//190 191//191 192//192
f 193//193 194//194 195//195
f 196//196 197//197 198//198
f 199//199 200//200 201//201
f 202//202 203//203 204//204
f 205//205 206//206 207//207
f 208//208 209//209 210//210
f 211//211 212//212 213//213
f 214//214 215//215 216//216
f 217//217 218//218 219//219
f 220//220 221//221 222//222
f 223//223 224//224 225//225
f 226//226 227//227 228//228
f 229//229 230//230 231//231
f 232//232 233//233 234//234
f 235//235 236//236 237//237
f 238//238 239//239 240//240
f 241//241 242//242 243//243
f 244//244 245//245 246//246
f 247//247 248//248 249//249
f 250//250 251//251 252//252
f 253//253 254//254 255//255
f 256//256 257//257 258//258
f 259//259 260//260 261//261
f 262//262 263//263 264//264
f 265//265 266//266 267//267
f 268//268 269//269 270//270
f 271//271 272//272 273//273
f 274//274 275//275 276//276
f 277//277 278//278 279//279
f 280//280 281//281 282//282
f 283//283 284//284 285//285
f 286//286 287//287 288//288
f 289//289 290//290 291//291
f 292//292 293//293 294//294
f 295//295 296//296 297//297
f 298//298 299//299 300//300
f 301//301 302//302 303//303
f 304//304 305//305 306//306
f 307//307 308//308 309//309
f 310//310 311//311 312//312
f 313//313 314//314 315//315
f 316//316 317//317 318//318
f 319//319 320//320 321//321
f 322//322 323//323 324//324
f 325//325 326//326 327//327
f 328//328 329//329 330//330
f 331//331 332//332 333//333
f 334//334 335//335 336//336
f 337//337 338//338 339//339
