# Exported from SharpOpenGl procedural mesh
o solari_destroyer_mk2_25
# vertices 84
v -2.292991 0.3008007 2.2490737
v 2.292991 0.3008007 2.2490737
v 0 0.48128113 -0.96388876
v -2.292991 0.3008007 2.2490737
v 0 0.48128113 -0.96388876
v -2.292991 0.3008007 -2.2490737
v 2.292991 0.3008007 2.2490737
v 2.292991 0.3008007 -2.2490737
v 0 0.48128113 -0.96388876
v -2.292991 0 2.2490737
v 2.292991 0 2.2490737
v 2.292991 0 -2.2490737
v -2.292991 0 2.2490737
v 2.292991 0 -2.2490737
v -2.292991 0 -2.2490737
v -1.742673 0.3008007 2.57037
v -1.1923552 0.54144126 0.96388876
v -2.017832 0.3008007 -1.285185
v 0 0.3008007 2.57037
v 0.5503178 0.54144126 0.96388876
v -0.2751589 0.3008007 -1.285185
v 1.742673 0.3008007 2.57037
v 2.292991 0.54144126 0.96388876
v 1.4675142 0.3008007 -1.285185
v -0.50955355 0.3008007 0.6425925
v 0.50955355 0.3008007 0.6425925
v 0.50955355 1.2676601 0.6425925
v -0.50955355 0.3008007 0.6425925
v 0.50955355 1.2676601 0.6425925
v -0.50955355 1.2676601 0.6425925
v -0.50955355 0.3008007 2.8916662
v 0.50955355 1.2676601 2.8916662
v 0.50955355 0.3008007 2.8916662
v -0.50955355 0.3008007 2.8916662
v -0.50955355 1.2676601 2.8916662
v 0.50955355 1.2676601 2.8916662
v -0.50955355 0.3008007 0.6425925
v -0.50955355 0.3008007 2.8916662
v 0.50955355 0.3008007 2.8916662
v -0.50955355 0.3008007 0.6425925
v 0.50955355 0.3008007 2.8916662
v 0.50955355 0.3008007 0.6425925
v -0.50955355 1.2676601 0.6425925
v 0.50955355 1.2676601 2.8916662
v -0.50955355 1.2676601 2.8916662
v -0.50955355 1.2676601 0.6425925
v 0.50955355 1.2676601 0.6425925
v 0.50955355 1.2676601 2.8916662
v -0.50955355 0.3008007 0.6425925
v -0.50955355 1.2676601 0.6425925
v -0.50955355 1.2676601 2.8916662
v -0.50955355 0.3008007 0.6425925
v -0.50955355 1.2676601 2.8916662
v -0.50955355 0.3008007 2.8916662
v 0.50955355 0.3008007 0.6425925
v 0.50955355 0.3008007 2.8916662
v 0.50955355 1.2676601 2.8916662
v 0.50955355 0.3008007 0.6425925
v 0.50955355 1.2676601 2.8916662
v 0.50955355 1.2676601 0.6425925
v -1.42675 0.08594306 -4.4267483
v -1.9363035 0 -5.547766
v -0.9171964 0 -5.547766
v -1.42675 0.35451514 -4.1719713
v -1.7324821 0.08594306 -4.4267483
v -1.1210178 0.08594306 -4.4267483
v -0.4755833 0.08594306 -4.4267483
v -0.98513687 0 -5.547766
v 0.033970237 0 -5.547766
v -0.4755833 0.35451514 -4.1719713
v -0.78131545 0.08594306 -4.4267483
v -0.16985118 0.08594306 -4.4267483
v 0.4755833 0.08594306 -4.4267483
v -0.033970237 0 -5.547766
v 0.98513687 0 -5.547766
v 0.4755833 0.35451514 -4.1719713
v 0.16985118 0.08594306 -4.4267483
v 0.78131545 0.08594306 -4.4267483
v 1.42675 0.08594306 -4.4267483
v 0.9171964 0 -5.547766
v 1.9363035 0 -5.547766
v 1.42675 0.35451514 -4.1719713
v 1.1210178 0.08594306 -4.4267483
v 1.7324821 0.08594306 -4.4267483
vn -0 0.998426 0.05608417
vn -0 0.998426 0.05608417
vn -0 0.998426 0.05608417
vn -0.07846693 0.9969167 0
vn -0.07846693 0.9969167 0
vn -0.07846693 0.9969167 0
vn 0.07846693 0.9969167 0
vn 0.07846693 0.9969167 0
vn 0.07846693 0.9969167 0
vn -0 1 0
vn -0 1 0
vn -0 1 0
vn 0 1 0
vn 0 1 0
vn 0 1 0
vn -0.34018633 0.9400446 0.024278043
vn -0.34018633 0.9400446 0.024278043
vn -0.34018633 0.9400446 0.024278043
vn -0.3401864 0.9400445 0.024278037
vn -0.3401864 0.9400445 0.024278037
vn -0.3401864 0.9400445 0.024278037
vn -0.34018636 0.9400446 0.024278034
vn -0.34018636 0.9400446 0.024278034
vn -0.34018636 0.9400446 0.024278034
vn 0 0 0.99999994
vn 0 0 0.99999994
vn 0 0 0.99999994
vn 0 0 0.99999994
vn 0 0 0.99999994
vn 0 0 0.99999994
vn 0 0 -0.99999994
vn 0 0 -0.99999994
vn 0 0 -0.99999994
vn 0 0 -0.99999994
vn 0 0 -0.99999994
vn 0 0 -0.99999994
vn 0 1 0
vn 0 1 0
vn 0 1 0
vn 0 1 0
vn 0 1 0
vn 0 1 0
vn 0 -1 0
vn 0 -1 0
vn 0 -1 0
vn 0 -1 0
vn 0 -1 0
vn 0 -1 0
vn 1 0 0
vn 1 0 0
vn 1 0 0
vn 1 0 0
vn 1 0 0
vn 1 0 0
vn -1 0 0
vn -1 0 0
vn -1 0 0
vn -1 0 0
vn -1 0 0
vn -1 0 0
vn 0 -0.9970741 0.076440886
vn 0 -0.9970741 0.076440886
vn 0 -0.9970741 0.076440886
vn 0 -0.68822885 0.72549367
vn 0 -0.68822885 0.72549367
vn 0 -0.68822885 0.72549367
vn 0 -0.9970741 0.076440886
vn 0 -0.9970741 0.076440886
vn 0 -0.9970741 0.076440886
vn 0 -0.68822885 0.72549367
vn 0 -0.68822885 0.72549367
vn 0 -0.68822885 0.72549367
vn 0 -0.9970741 0.076440886
vn 0 -0.9970741 0.076440886
vn 0 -0.9970741 0.076440886
vn 0 -0.68822885 0.72549367
vn 0 -0.68822885 0.72549367
vn 0 -0.68822885 0.72549367
vn 0 -0.9970741 0.076440886
vn 0 -0.9970741 0.076440886
vn 0 -0.9970741 0.076440886
vn 0 -0.68822885 0.72549367
vn 0 -0.68822885 0.72549367
vn 0 -0.68822885 0.72549367
f 1//1 2//2 3//3
f 4//4 5//5 6//6
f 7//7 8//8 9//9
f 10//10 11//11 12//12
f 13//13 14//14 15//15
f 16//16 17//17 18//18
f 19//19 20//20 21//21
f 22//22 23//23 24//24
f 25//25 26//26 27//27
f 28//28 29//29 30//30
f 31//31 32//32 33//33
f 34//34 35//35 36//36
f 37//37 38//38 39//39
f 40//40 41//41 42//42
f 43//43 44//44 45//45
f 46//46 47//47 48//48
f 49//49 50//50 51//51
f 52//52 53//53 54//54
f 55//55 56//56 57//57
f 58//58 59//59 60//60
f 61//61 62//62 63//63
f 64//64 65//65 66//66
f 67//67 68//68 69//69
f 70//70 71//71 72//72
f 73//73 74//74 75//75
f 76//76 77//77 78//78
f 79//79 80//80 81//81
f 82//82 83//83 84//84
