# Exported from SharpOpenGl procedural mesh
o solari_bomber_mk1_07
# vertices 339
v -0.7300292 0.03147885 -1.2197659
v 0.7300292 0.03147885 -1.2197659
v 0 0.09837141 -1.100007
v -0.7300292 0.03147885 -1.2197659
v 0 0.09837141 -1.100007
v -0.914604 0.037669078 -0.95363516
v 0.7300292 0.03147885 -1.2197659
v 0.914604 0.037669078 -0.95363516
v 0 0.11771587 -1.100007
v -0.7300292 0 -1.2197659
v -0.914604 0 -0.95363516
v 0.7300292 0 -1.2197659
v 0.7300292 0 -1.2197659
v -0.914604 0 -0.95363516
v 0.914604 0 -0.95363516
v -0.914604 0.037669078 -0.95363516
v 0.914604 0.037669078 -0.95363516
v 0 0.11771587 -0.8338763
v -0.914604 0.037669078 -0.95363516
v 0 0.11771587 -0.8338763
v -1.0811113 0.043253362 -0.6875044
v 0.914604 0.037669078 -0.95363516
v 1.0811113 0.043253362 -0.6875044
v 0 0.13516676 -0.8338763
v -0.914604 0 -0.95363516
v -1.0811113 0 -0.6875044
v 0.914604 0 -0.95363516
v 0.914604 0 -0.95363516
v -1.0811113 0 -0.6875044
v 1.0811113 0 -0.6875044
v -1.0811113 0.043253362 -0.6875044
v 1.0811113 0.043253362 -0.6875044
v 0 0.13516676 -0.56774557
v -1.0811113 0.043253362 -0.6875044
v 0 0.13516676 -0.56774557
v -1.2132523 0.04768508 -0.42137367
v 1.0811113 0.043253362 -0.6875044
v 1.2132523 0.04768508 -0.42137367
v 0 0.14901587 -0.56774557
v -1.0811113 0 -0.6875044
v -1.2132523 0 -0.42137367
v 1.0811113 0 -0.6875044
v 1.0811113 0 -0.6875044
v -1.2132523 0 -0.42137367
v 1.2132523 0 -0.42137367
v -1.2132523 0.04768508 -0.42137367
v 1.2132523 0.04768508 -0.42137367
v 0 0.14901587 -0.30161482
v -1.2132523 0.04768508 -0.42137367
v 0 0.14901587 -0.30161482
v -1.298092 0.050530415 -0.15524292
v 1.2132523 0.04768508 -0.42137367
v 1.298092 0.050530415 -0.15524292
v 0 0.15790755 -0.30161482
v -1.2132523 0 -0.42137367
v -1.298092 0 -0.15524292
v 1.2132523 0 -0.42137367
v 1.2132523 0 -0.42137367
v -1.298092 0 -0.15524292
v 1.298092 0 -0.15524292
v -1.298092 0.050530415 -0.15524292
v 1.298092 0.050530415 -0.15524292
v 0 0.15790755 -0.035484113
v -1.298092 0.050530415 -0.15524292
v 0 0.15790755 -0.035484113
v -1.3273258 0.051510844 0.110887766
v 1.298092 0.050530415 -0.15524292
v 1.3273258 0.051510844 0.110887766
v 0 0.16097139 -0.035484113
v -1.298092 0 -0.15524292
v -1.3273258 0 0.110887766
v 1.298092 0 -0.15524292
v 1.298092 0 -0.15524292
v -1.3273258 0 0.110887766
v 1.3273258 0 0.110887766
v -1.3273258 0.051510844 0.110887766
v 1.3273258 0.051510844 0.110887766
v 0 0.16097139 0.23064663
v -1.3273258 0.051510844 0.110887766
v 0 0.16097139 0.23064663
v -1.298092 0.050530408 0.37701857
v 1.3273258 0.051510844 0.110887766
v 1.298092 0.050530408 0.37701857
v 0 0.15790753 0.23064663
v -1.3273258 0 0.110887766
v -1.298092 0 0.37701857
v 1.3273258 0 0.110887766
v 1.3273258 0 0.110887766
v -1.298092 0 0.37701857
v 1.298092 0 0.37701857
v -1.298092 0.050530408 0.37701857
v 1.298092 0.050530408 0.37701857
v 0 0.15790753 0.4967774
v -1.298092 0.050530408 0.37701857
v 0 0.15790753 0.4967774
v -1.2132523 0.04768508 0.64314926
v 1.298092 0.050530408 0.37701857
v 1.2132523 0.04768508 0.64314926
v 0 0.14901587 0.4967774
v -1.298092 0 0.37701857
v -1.2132523 0 0.64314926
v 1.298092 0 0.37701857
v 1.298092 0 0.37701857
v -1.2132523 0 0.64314926
v 1.2132523 0 0.64314926
v -1.2132523 0.04768508 0.64314926
v 1.2132523 0.04768508 0.64314926
v 0 0.14901587 0.7629081
v -1.2132523 0.04768508 0.64314926
v 0 0.14901587 0.7629081
v -1.3224432 0.04325336 0.90928006
v 1.2132523 0.04768508 0.64314926
v 1.3224432 0.04325336 0.90928006
v 0 0.13516675 0.7629081
v -1.2132523 0 0.64314926
v -1.3224432 0 0.90928006
v 1.2132523 0 0.64314926
v 1.2132523 0 0.64314926
v -1.3224432 0 0.90928006
v 1.3224432 0 0.90928006
v -1.3224432 0.04325336 0.90928006
v 1.3224432 0.04325336 0.90928006
v 0 0.13516675 1.0290389
v -1.3224432 0.04325336 0.90928006
v 0 0.13516675 1.0290389
v -1.0352701 0.037669078 1.1754107
v 1.3224432 0.04325336 0.90928006
v 1.0352701 0.037669078 1.1754107
v 0 0.11771587 1.0290389
v -1.3224432 0 0.90928006
v -1.0352701 0 1.1754107
v 1.3224432 0 0.90928006
v 1.3224432 0 0.90928006
v -1.0352701 0 1.1754107
v 1.0352701 0 1.1754107
v -1.0352701 0.037669078 1.1754107
v 1.0352701 0.037669078 1.1754107
v 0 0.11771587 1.2951696
v -1.0352701 0.037669078 1.1754107
v 0 0.11771587 1.2951696
v -0.73002917 0.03147885 1.4415414
v 1.0352701 0.037669078 1.1754107
v 0.73002917 0.03147885 1.4415414
v 0 0.0983714 1.2951696
v -1.0352701 0 1.1754107
v -0.73002917 0 1.4415414
v 1.0352701 0 1.1754107
v 1.0352701 0 1.1754107
v -0.73002917 0 1.4415414
v 0.73002917 0 1.4415414
v -2.2398624 0.1788571 0.8427473
v 2.2398624 0.1788571 0.8427473
v 0 0.2772285 -0.6653268
v -2.2398624 0.1788571 0.8427473
v 0 0.2772285 -0.6653268
v -2.2398624 0.1788571 -0.8427473
v 2.2398624 0.1788571 0.8427473
v 2.2398624 0.1788571 -0.8427473
v 0 0.2772285 -0.6653268
v -2.2398624 0.16454853 0.8427473
v 2.2398624 0.16454853 0.8427473
v 2.2398624 0.16454853 -0.8427473
v -2.2398624 0.16454853 0.8427473
v 2.2398624 0.16454853 -0.8427473
v -2.2398624 0.16454853 -0.8427473
v -2.2398624 0.16454853 0.8427473
v -2.2398624 0.1788571 0.8427473
v 2.2398624 0.1788571 0.8427473
v -2.2398624 0.16454853 -0.8427473
v 2.2398624 0.1788571 -0.8427473
v -2.2398624 0.1788571 -0.8427473
v 2.2398624 0.16454853 -0.8427473
v 2.2398624 0.1788571 -0.8427473
v 2.2398624 0.1788571 0.8427473
v 2.2398624 0.16454853 0.8427473
v 2.2398624 0.1788571 0.8427473
v 2.2398624 0.1788571 -0.8427473
v -2.1054707 0.1788571 -0.8427473
v -1.6574981 0.1788571 -0.8427473
v -1.8814844 0.24145709 -0.6209717
v -2.1054707 0.1788571 -0.8427473
v -1.8814844 0.24145709 -0.6209717
v -2.0606735 0.1788571 -0.6209717
v -1.6574981 0.1788571 -0.8427473
v -1.7022954 0.1788571 -0.6209717
v -1.8814844 0.24145709 -0.6209717
v -0.22398625 0.1788571 -0.8427473
v 0.22398625 0.1788571 -0.8427473
v 0 0.24145709 -0.6209717
v -0.22398625 0.1788571 -0.8427473
v 0 0.24145709 -0.6209717
v -0.179189 0.1788571 -0.6209717
v 0.22398625 0.1788571 -0.8427473
v 0.179189 0.1788571 -0.6209717
v 0 0.24145709 -0.6209717
v 1.6574981 0.1788571 -0.8427473
v 2.1054707 0.1788571 -0.8427473
v 1.8814844 0.24145709 -0.6209717
v 1.6574981 0.1788571 -0.8427473
v 1.8814844 0.24145709 -0.6209717
v 1.7022954 0.1788571 -0.6209717
v 2.1054707 0.1788571 -0.8427473
v 2.0606735 0.1788571 -0.6209717
v 1.8814844 0.24145709 -0.6209717
v -2.1054707 0.1788571 0.6653268
v -1.6574981 0.1788571 0.6653268
v -1.8814844 0.32194278 0.88710237
v -2.1054707 0.1788571 0.6653268
v -1.8814844 0.32194278 0.88710237
v -2.0606735 0.1788571 0.88710237
v -1.6574981 0.1788571 0.6653268
v -1.7022954 0.1788571 0.88710237
v -1.8814844 0.32194278 0.88710237
v -0.22398625 0.1788571 0.6653268
v 0.22398625 0.1788571 0.6653268
v 0 0.32194278 0.88710237
v -0.22398625 0.1788571 0.6653268
v 0 0.32194278 0.88710237
v -0.179189 0.1788571 0.88710237
v 0.22398625 0.1788571 0.6653268
v 0.179189 0.1788571 0.88710237
v 0 0.32194278 0.88710237
v 1.6574981 0.1788571 0.6653268
v 2.1054707 0.1788571 0.6653268
v 1.8814844 0.32194278 0.88710237
v 1.6574981 0.1788571 0.6653268
v 1.8814844 0.32194278 0.88710237
v 1.7022954 0.1788571 0.88710237
v 2.1054707 0.1788571 0.6653268
v 2.0606735 0.1788571 0.88710237
v 1.8814844 0.32194278 0.88710237
v -0.33183146 0.14921793 0.0745166
v 0.33183146 0.14921793 0.0745166
v 0 0.46630603 0.09128284
v -0.33183146 0.14921793 0.0745166
v 0 0.46630603 0.09128284
v -0.30970937 0.16795532 0.11177491
v 0.33183146 0.14921793 0.0745166
v 0.30970937 0.16795532 0.11177491
v 0 0.5248604 0.09128284
v -0.33183146 0 0.0745166
v -0.30970937 0 0.11177491
v 0.33183146 0 0.0745166
v 0.33183146 0 0.0745166
v -0.30970937 0 0.11177491
v 0.30970937 0 0.11177491
v -0.30970937 0.16795532 0.11177491
v 0.30970937 0.16795532 0.11177491
v 0 0.5248604 0.12854114
v -0.30970937 0.16795532 0.11177491
v 0 0.5248604 0.12854114
v -0.28758726 0.18669273 0.14903322
v 0.30970937 0.16795532 0.11177491
v 0.28758726 0.18669273 0.14903322
v 0 0.5834148 0.12854114
v -0.30970937 0 0.11177491
v -0.28758726 0 0.14903322
v 0.30970937 0 0.11177491
v 0.30970937 0 0.11177491
v -0.28758726 0 0.14903322
v 0.28758726 0 0.14903322
v -0.28758726 0.18669273 0.14903322
v 0.28758726 0.18669273 0.14903322
v 0 0.5834148 0.16579945
v -0.28758726 0.18669273 0.14903322
v 0 0.5834148 0.16579945
v -0.26546517 0.20543016 0.18629152
v 0.28758726 0.18669273 0.14903322
v 0.26546517 0.20543016 0.18629152
v 0 0.64196926 0.16579945
v -0.28758726 0 0.14903322
v -0.26546517 0 0.18629152
v 0.28758726 0 0.14903322
v 0.28758726 0 0.14903322
v -0.26546517 0 0.18629152
v 0.26546517 0 0.18629152
v -0.26546517 0.20543016 0.18629152
v 0.26546517 0.20543016 0.18629152
v 0 0.64196926 0.20305775
v -0.26546517 0.20543016 0.18629152
v 0 0.64196926 0.20305775
v -0.24334307 0.22416756 0.22354981
v 0.26546517 0.20543016 0.18629152
v 0.24334307 0.22416756 0.22354981
v 0 0.7005236 0.20305775
v -0.26546517 0 0.18629152
v -0.24334307 0 0.22354981
v 0.26546517 0 0.18629152
v 0.26546517 0 0.18629152
v -0.24334307 0 0.22354981
v 0.24334307 0 0.22354981
v -0.24334307 0.22416756 0.22354981
v 0.24334307 0.22416756 0.22354981
v 0 0.7005236 0.24031605
v -0.24334307 0.22416756 0.22354981
v 0 0.7005236 0.24031605
v -0.22122096 0.24290496 0.2608081
v 0.24334307 0.22416756 0.22354981
v 0.22122096 0.24290496 0.2608081
v 0 0.759078 0.24031605
v -0.24334307 0 0.22354981
v -0.22122096 0 0.2608081
v 0.24334307 0 0.22354981
v 0.24334307 0 0.22354981
v -0.22122096 0 0.2608081
v 0.22122096 0 0.2608081
v -0.22122096 0.24290496 0.2608081
v 0.22122096 0.24290496 0.2608081
v 0 0.759078 0.27757433
v -0.22122096 0.24290496 0.2608081
v 0 0.759078 0.27757433
v -0.19909889 0.26164237 0.2980664
v 0.22122096 0.24290496 0.2608081
v 0.19909889 0.26164237 0.2980664
v 0 0.81763244 0.27757433
v -0.22122096 0 0.2608081
v -0.19909889 0 0.2980664
v 0.22122096 0 0.2608081
v 0.22122096 0 0.2608081
v -0.19909889 0 0.2980664
v 0.19909889 0 0.2980664
v -1.1614101 0.051102027 -1.5277874
v -1.6392474 0 -2.5790296
v -0.68357277 0 -2.5790296
v -1.1614101 0.21079586 -1.2888688
v -1.4481125 0.051102027 -1.5277874
v -0.8747077 0.051102027 -1.5277874
v 0 0.051102027 -1.5277874
v -0.4778373 0 -2.5790296
v 0.4778373 0 -2.5790296
v 0 0.21079586 -1.2888688
v -0.2867024 0.051102027 -1.5277874
v 0.2867024 0.051102027 -1.5277874
v 1.1614101 0.051102027 -1.5277874
v 0.68357277 0 -2.5790296
v 1.6392474 0 -2.5790296
v 1.1614101 0.21079586 -1.2888688
v 0.8747077 0.051102027 -1.5277874
v 1.4481125 0.051102027 -1.5277874
vn 0 -0.8730412 0.48764634
vn 0 -0.8730412 0.48764634
vn 0 -0.8730412 0.48764634
vn 0.0783637 -0.9939104 0.077467546
vn 0.0783637 -0.9939104 0.077467546
vn 0.0783637 -0.9939104 0.077467546
vn -0.10165123 -0.990413 0.09353724
vn -0.10165123 -0.990413 0.09353724
vn -0.10165123 -0.990413 0.09353724
vn 0 0.99999994 -0
vn 0 0.99999994 -0
vn 0 0.99999994 -0
vn 0 1 -0
vn 0 1 -0
vn 0 1 -0
vn 0 -0.8313846 0.5556974
vn 0 -0.8313846 0.5556974
vn 0 -0.8313846 0.5556974
vn 0.07792506 -0.9945251 0.069622934
vn 0.07792506 -0.9945251 0.069622934
vn 0.07792506 -0.9945251 0.069622934
vn -0.09524096 -0.9922014 0.080408044
vn -0.09524096 -0.9922014 0.080408044
vn -0.09524096 -0.9922014 0.080408044
vn 0 1 -0
vn 0 1 -0
vn 0 1 -0
vn 0 1 -0
vn 0 1 -0
vn 0 1 -0
vn 0 -0.79329187 0.6088415
vn 0 -0.79329187 0.6088415
vn 0 -0.79329187 0.6088415
vn 0.07847152 -0.9953681 0.05553847
vn 0.07847152 -0.9953681 0.05553847
vn 0.07847152 -0.9953681 0.05553847
vn -0.09043344 -0.99400455 0.06145517
vn -0.09043344 -0.99400455 0.06145517
vn -0.09043344 -0.99400455 0.06145517
vn 0 1 -0
vn 0 1 -0
vn 0 1 -0
vn 0 1 -0
vn 0 1 -0
vn 0 1 -0
vn 0 -0.76339763 0.6459288
vn 0 -0.76339763 0.6459288
vn 0 -0.76339763 0.6459288
vn 0.07964278 -0.99617183 0.036039855
vn 0.07964278 -0.99617183 0.036039855
vn 0.07964278 -0.99617183 0.036039855
vn -0.086662516 -0.99550235 0.038270514
vn -0.086662516 -0.99550235 0.038270514
vn -0.086662516 -0.99550235 0.038270514
vn 0 1 -0
vn 0 1 -0
vn 0 1 -0
vn 0 1 -0
vn 0 1 -0
vn 0 1 -0
vn 0 -0.74454725 0.66756964
vn 0 -0.74454725 0.66756964
vn 0 -0.74454725 0.66756964
vn 0.081276536 -0.996612 0.012599564
vn 0.081276536 -0.996612 0.012599564
vn 0.081276536 -0.996612 0.012599564
vn -0.08358888 -0.9964174 0.012852853
vn -0.08358888 -0.9964174 0.012852853
vn -0.08358888 -0.9964174 0.012852853
vn 0 1 -0
vn 0 1 -0
vn 0 1 -0
vn 0 1 -0
vn 0 1 -0
vn 0 1 -0
vn 0 -0.7381309 0.6746575
vn 0 -0.7381309 0.6746575
vn 0 -0.7381309 0.6746575
vn 0.08333045 -0.9964394 -0.012824569
vn 0.08333045 -0.9964394 -0.012824569
vn 0.08333045 -0.9964394 -0.012824569
vn -0.08102308 -0.99663293 -0.012571824
vn -0.08102308 -0.99663293 -0.012571824
vn -0.08102308 -0.99663293 -0.012571824
vn 0 1 0
vn 0 1 0
vn 0 1 0
vn 0 1 0
vn 0 1 0
vn 0 1 0
vn 0 -0.7445473 0.66756964
vn 0 -0.7445473 0.66756964
vn 0 -0.7445473 0.66756964
vn 0.085860945 -0.99558157 -0.038015813
vn 0.085860945 -0.99558157 -0.038015813
vn 0.085860945 -0.99558157 -0.038015813
vn -0.07888696 -0.9962405 -0.03579962
vn -0.07888696 -0.9962405 -0.03579962
vn -0.07888696 -0.9962405 -0.03579962
vn 0 1 0
vn 0 1 0
vn 0 1 0
vn 0 1 0
vn 0 1 0
vn 0 1 0
vn 0 -0.76339763 0.6459288
vn 0 -0.76339763 0.6459288
vn 0 -0.76339763 0.6459288
vn 0.081564486 -0.9965253 0.016870579
vn 0.081564486 -0.9965253 0.016870579
vn 0.081564486 -0.9965253 0.016870579
vn -0.07069551 -0.9974209 0.012396229
vn -0.07069551 -0.9974209 0.012396229
vn -0.07069551 -0.9974209 0.012396229
vn 0 1 -0
vn 0 1 -0
vn 0 1 -0
vn 0 1 -0
vn 0 1 -0
vn 0 1 -0
vn 0 -0.7932919 0.6088414
vn 0 -0.7932919 0.6088414
vn 0 -0.7932919 0.6088414
vn 0.07844952 -0.99132496 -0.105453566
vn 0.07844952 -0.99132496 -0.105453566
vn 0.07844952 -0.99132496 -0.105453566
vn -0.06411564 -0.9938723 -0.0900398
vn -0.06411564 -0.9938723 -0.0900398
vn -0.06411564 -0.9938723 -0.0900398
vn 0 1 0
vn 0 1 0
vn 0 1 0
vn 0 1 0
vn 0 1 0
vn 0 1 0
vn 0 -0.83138466 0.5556974
vn 0 -0.83138466 0.5556974
vn 0 -0.83138466 0.5556974
vn 0.09111063 -0.9876485 -0.12747295
vn 0.09111063 -0.9876485 -0.12747295
vn 0.09111063 -0.9876485 -0.12747295
vn -0.07015107 -0.9921485 -0.103537865
vn -0.07015107 -0.9921485 -0.103537865
vn -0.07015107 -0.9921485 -0.103537865
vn 0 1 0
vn 0 1 0
vn 0 1 0
vn 0 1 0
vn 0 1 0
vn 0 1 0
vn -0 0.9978793 0.06509149
vn -0 0.9978793 0.06509149
vn -0 0.9978793 0.06509149
vn -0.043876205 0.99903697 0
vn -0.043876205 0.99903697 0
vn -0.043876205 0.99903697 0
vn 0.043876205 0.99903697 0
vn 0.043876205 0.99903697 0
vn 0.043876205 0.99903697 0
vn -0 1 0
vn -0 1 0
vn -0 1 0
vn 0 1 0
vn 0 1 0
vn 0 1 0
vn 0 0 -1
vn 0 0 -1
vn 0 0 -1
vn 0 0 1
vn 0 0 1
vn 0 0 1
vn 0.99999994 0 0
vn 0.99999994 0 0
vn 0.99999994 0 0
vn -0.99999994 0 0
vn -0.99999994 0 0
vn -0.99999994 0 0
vn 0 -0.9623954 0.2716527
vn 0 -0.9623954 0.2716527
vn 0 -0.9623954 0.2716527
vn 0.3290756 -0.94196117 -0.06647107
vn 0.3290756 -0.94196117 -0.06647107
vn 0.3290756 -0.94196117 -0.06647107
vn -0.32907578 -0.9419611 -0.06647128
vn -0.32907578 -0.9419611 -0.06647128
vn -0.32907578 -0.9419611 -0.06647128
vn 0 -0.9623953 0.2716527
vn 0 -0.9623953 0.2716527
vn 0 -0.9623953 0.2716527
vn 0.32907578 -0.9419611 -0.06647121
vn 0.32907578 -0.9419611 -0.06647121
vn 0.32907578 -0.9419611 -0.06647121
vn -0.32907578 -0.9419611 -0.06647121
vn -0.32907578 -0.9419611 -0.06647121
vn -0.32907578 -0.9419611 -0.06647121
vn 0 -0.9623954 0.2716527
vn 0 -0.9623954 0.2716527
vn 0 -0.9623954 0.2716527
vn 0.32907578 -0.9419611 -0.06647128
vn 0.32907578 -0.9419611 -0.06647128
vn 0.32907578 -0.9419611 -0.06647128
vn -0.3290756 -0.94196117 -0.06647107
vn -0.3290756 -0.94196117 -0.06647107
vn -0.3290756 -0.94196117 -0.06647107
vn 0 -0.8402887 0.54213935
vn 0 -0.8402887 0.54213935
vn 0 -0.8402887 0.54213935
vn 0.6190904 -0.77529943 -0.12505211
vn 0.6190904 -0.77529943 -0.12505211
vn 0.6190904 -0.77529943 -0.12505211
vn -0.61909056 -0.77529913 -0.12505247
vn -0.61909056 -0.77529913 -0.12505247
vn -0.61909056 -0.77529913 -0.12505247
vn 0 -0.8402886 0.5421393
vn 0 -0.8402886 0.5421393
vn 0 -0.8402886 0.5421393
vn 0.61909056 -0.7752992 -0.12505235
vn 0.61909056 -0.7752992 -0.12505235
vn 0.61909056 -0.7752992 -0.12505235
vn -0.61909056 -0.7752992 -0.12505235
vn -0.61909056 -0.7752992 -0.12505235
vn -0.61909056 -0.7752992 -0.12505235
vn 0 -0.8402887 0.54213935
vn 0 -0.8402887 0.54213935
vn 0 -0.8402887 0.54213935
vn 0.61909056 -0.77529913 -0.12505247
vn 0.61909056 -0.77529913 -0.12505247
vn 0.61909056 -0.77529913 -0.12505247
vn -0.6190904 -0.77529943 -0.12505211
vn -0.6190904 -0.77529943 -0.12505211
vn -0.6190904 -0.77529943 -0.12505211
vn 0 -0.052801877 0.9986051
vn 0 -0.052801877 0.9986051
vn 0 -0.052801877 0.9986051
vn 0.691334 -0.720945 -0.047912065
vn 0.691334 -0.720945 -0.047912065
vn 0.691334 -0.720945 -0.047912065
vn -0.7470765 -0.65484595 -0.11425064
vn -0.7470765 -0.65484595 -0.11425064
vn -0.7470765 -0.65484595 -0.11425064
vn 0 1 0
vn 0 1 0
vn 0 1 0
vn 0 1 0
vn 0 1 0
vn 0 1 0
vn 0 -0.04692499 0.9988984
vn 0 -0.04692499 0.9988984
vn 0 -0.04692499 0.9988984
vn 0.7525174 -0.6473106 -0.12127106
vn 0.7525174 -0.6473106 -0.12127106
vn 0.7525174 -0.6473106 -0.12127106
vn -0.7924895 -0.5836268 -0.17703141
vn -0.7924895 -0.5836268 -0.17703141
vn -0.7924895 -0.5836268 -0.17703141
vn 0 0.99999994 0
vn 0 0.99999994 0
vn 0 0.99999994 0
vn 0 1 0
vn 0 1 0
vn 0 1 0
vn 0 -0.04222422 0.99910814
vn 0 -0.04222422 0.99910814
vn 0 -0.04222422 0.99910814
vn 0.79908615 -0.57135653 -0.18711795
vn 0.79908615 -0.57135653 -0.18711795
vn 0.79908615 -0.57135653 -0.18711795
vn -0.82614833 -0.51330024 -0.232383
vn -0.82614833 -0.51330024 -0.232383
vn -0.82614833 -0.51330024 -0.232383
vn 0 1 0
vn 0 1 0
vn 0 1 0
vn 0 1 0
vn 0 1 0
vn 0 1 0
vn 0 -0.038378883 0.9992633
vn 0 -0.038378883 0.9992633
vn 0 -0.038378883 0.9992633
vn 0.8326359 -0.4969478 -0.24445964
vn 0.8326359 -0.4969478 -0.24445964
vn 0.8326359 -0.4969478 -0.24445964
vn -0.8499144 -0.44622746 -0.28022623
vn -0.8499144 -0.44622746 -0.28022623
vn -0.8499144 -0.44622746 -0.28022623
vn 0 1 0
vn 0 1 0
vn 0 1 0
vn 0 1 0
vn 0 1 0
vn 0 1 0
vn 0 -0.035175074 0.9993811
vn 0 -0.035175074 0.9993811
vn 0 -0.035175074 0.9993811
vn 0.85549337 -0.4266972 -0.29336074
vn 0.85549337 -0.4266972 -0.29336074
vn 0.85549337 -0.4266972 -0.29336074
vn -0.8658036 -0.38381097 -0.32105023
vn -0.8658036 -0.38381097 -0.32105023
vn -0.8658036 -0.38381097 -0.32105023
vn 0 0.99999994 0
vn 0 0.99999994 0
vn 0 0.99999994 0
vn 0 1 0
vn 0 1 0
vn 0 1 0
vn 0 -0.032464657 0.9994729
vn 0 -0.032464657 0.9994729
vn 0 -0.032464657 0.9994729
vn 0.87006956 -0.3620272 -0.33453727
vn 0.87006956 -0.3620272 -0.33453727
vn 0.87006956 -0.3620272 -0.33453727
vn -0.87567097 -0.32668364 -0.35563755
vn -0.87567097 -0.32668364 -0.35563755
vn -0.87567097 -0.32668364 -0.35563755
vn 0 1 0
vn 0 1 0
vn 0 1 0
vn 0 1 0
vn 0 1 0
vn 0 1 0
vn 0 -0.9988206 0.04855376
vn 0 -0.9988206 0.04855376
vn 0 -0.9988206 0.04855376
vn 0 -0.8313836 0.5556989
vn 0 -0.8313836 0.5556989
vn 0 -0.8313836 0.5556989
vn 0 -0.9988206 0.04855376
vn 0 -0.9988206 0.04855376
vn 0 -0.9988206 0.04855376
vn 0 -0.8313836 0.5556989
vn 0 -0.8313836 0.5556989
vn 0 -0.8313836 0.5556989
vn 0 -0.9988206 0.04855376
vn 0 -0.9988206 0.04855376
vn 0 -0.9988206 0.04855376
vn 0 -0.8313836 0.5556989
vn 0 -0.8313836 0.5556989
vn 0 -0.8313836 0.5556989
f 1//1 2//2 3//3
f 4//4 5//5 6//6
f 7//7 8//8 9//9
f 10//10 11//11 12//12
f 13//13 14//14 15//15
f 16//16 17//17 18//18
f 19//19 20//20 21//21
f 22//22 23//23 24//24
f 25//25 26//26 27//27
f 28//28 29//29 30//30
f 31//31 32//32 33//33
f 34//34 35//35 36//36
f 37//37 38//38 39//39
f 40//40 41//41 42//42
f 43//43 44//44 45//45
f 46//46 47//47 48//48
f 49//49 50//50 51//51
f 52//52 53//53 54//54
f 55//55 56//56 57//57
f 58//58 59//59 60//60
f 61//61 62//62 63//63
f 64//64 65//65 66//66
f 67//67 68//68 69//69
f 70//70 71//71 72//72
f 73//73 74//74 75//75
f 76//76 77//77 78//78
f 79//79 80//80 81//81
f 82//82 83//83 84//84
f 85//85 86//86 87//87
f 88//88 89//89 90//90
f 91//91 92//92 93//93
f 94//94 95//95 96//96
f 97//97 98//98 99//99
f 100//100 101//101 102//102
f 103//103 104//104 105//105
f 106//106 107//107 108//108
f 109//109 110//110 111//111
f 112//112 113//113 114//114
f 115//115 116//116 117//117
f 118//118 119//119 120//120
f 121//121 122//122 123//123
f 124//124 125//125 126//126
f 127//127 128//128 129//129
f 130//130 131//131 132//132
f 133//133 134//134 135//135
f 136//136 137//137 138//138
f 139//139 140//140 141//141
f 142//142 143//143 144//144
f 145//145 146//146 147//147
f 148//148 149//149 150//150
f 151//151 152//152 153//153
f 154//154 155//155 156//156
f 157//157 158//158 159//159
f 160//160 161//161 162//162
f 163//163 164//164 165//165
f 166//166 167//167 168//168
f 169//169 170//170 171//171
f 172//172 173//173 174//174
f 175//175 176//176 177//177
f 178//178 179//179 180//180
f 181//181 182//182 183//183
f 184//184 185//185 186//186
f 187//187 188//188 189//189
f 190//190 191//191 192//192
f 193//193 194//194 195//195
f 196//196 197//197 198//198
f 199//199 200//200 201//201
f 202//202 203//203 204//204
f 205//205 206//206 207//207
f 208//208 209//209 210//210
f 211//211 212//212 213//213
f 214//214 215//215 216//216
f 217//217 218//218 219//219
f 220//220 221//221 222//222
f 223//223 224//224 225//225
f 226//226 227//227 228//228
f 229//229 230//230 231//231
f 232//232 233//233 234//234
f 235//235 236//236 237//237
f 238//238 239//239 240//240
f 241//241 242//242 243//243
f 244//244 245//245 246//246
f 247//247 248//248 249//249
f 250//250 251//251 252//252
f 253//253 254//254 255//255
f 256//256 257//257 258//258
f 259//259 260//260 261//261
f 262//262 263//263 264//264
f 265//265 266//266 267//267
f 268//268 269//269 270//270
f 271//271 272//272 273//273
f 274//274 275//275 276//276
f 277//277 278//278 279//279
f 280//280 281//281 282//282
f 283//283 284//284 285//285
f 286//286 287//287 288//288
f 289//289 290//290 291//291
f 292//292 293//293 294//294
f 295//295 296//296 297//297
f 298//298 299//299 300//300
f 301//301 302//302 303//303
f 304//304 305//305 306//306
f 307//307 308//308 309//309
f 310//310 311//311 312//312
f 313//313 314//314 315//315
f 316//316 317//317 318//318
f 319//319 320//320 321//321
f 322//322 323//323 324//324
f 325//325 326//326 327//327
f 328//328 329//329 330//330
f 331//331 332//332 333//333
f 334//334 335//335 336//336
f 337//337 338//338 339//339
