# Exported from SharpOpenGl procedural mesh
o solari_corvette_mk2_21
# vertices 84
v -1.270265 0.13980179 0.78591233
v 1.270265 0.13980179 0.78591233
v 0 0.22368287 -0.3368196
v -1.270265 0.13980179 0.78591233
v 0 0.22368287 -0.3368196
v -1.270265 0.13980179 -0.78591233
v 1.270265 0.13980179 0.78591233
v 1.270265 0.13980179 -0.78591233
v 0 0.22368287 -0.3368196
v -1.270265 0 0.78591233
v 1.270265 0 0.78591233
v 1.270265 0 -0.78591233
v -1.270265 0 0.78591233
v 1.270265 0 -0.78591233
v -1.270265 0 -0.78591233
v -0.96540135 0.13980179 0.89818555
v -0.6605377 0.2516432 0.3368196
v -1.1178331 0.13980179 -0.44909278
v 0 0.13980179 0.89818555
v 0.3048636 0.2516432 0.3368196
v -0.1524318 0.13980179 -0.44909278
v 0.96540135 0.13980179 0.89818555
v 1.270265 0.2516432 0.3368196
v 0.81296957 0.13980179 -0.44909278
v -0.2822811 0.13980179 0.22454639
v 0.2822811 0.13980179 0.22454639
v 0.2822811 0.5891647 0.22454639
v -0.2822811 0.13980179 0.22454639
v 0.2822811 0.5891647 0.22454639
v -0.2822811 0.5891647 0.22454639
v -0.2822811 0.13980179 1.0104587
v 0.2822811 0.5891647 1.0104587
v 0.2822811 0.13980179 1.0104587
v -0.2822811 0.13980179 1.0104587
v -0.2822811 0.5891647 1.0104587
v 0.2822811 0.5891647 1.0104587
v -0.2822811 0.13980179 0.22454639
v -0.2822811 0.13980179 1.0104587
v 0.2822811 0.13980179 1.0104587
v -0.2822811 0.13980179 0.22454639
v 0.2822811 0.13980179 1.0104587
v 0.2822811 0.13980179 0.22454639
v -0.2822811 0.5891647 0.22454639
v 0.2822811 0.5891647 1.0104587
v -0.2822811 0.5891647 1.0104587
v -0.2822811 0.5891647 0.22454639
v 0.2822811 0.5891647 0.22454639
v 0.2822811 0.5891647 1.0104587
v -0.2822811 0.13980179 0.22454639
v -0.2822811 0.5891647 0.22454639
v -0.2822811 0.5891647 1.0104587
v -0.2822811 0.13980179 0.22454639
v -0.2822811 0.5891647 1.0104587
v -0.2822811 0.13980179 1.0104587
v 0.2822811 0.13980179 0.22454639
v 0.2822811 0.13980179 1.0104587
v 0.2822811 0.5891647 1.0104587
v 0.2822811 0.13980179 0.22454639
v 0.2822811 0.5891647 1.0104587
v 0.2822811 0.5891647 0.22454639
v -0.79038703 0.039943367 -1.5468751
v -1.0162119 0 -2.0436897
v -0.56456214 0 -2.0436897
v -0.79038703 0.1647664 -1.4339627
v -0.925882 0.039943367 -1.5468751
v -0.6548921 0.039943367 -1.5468751
v -0.26346236 0.039943367 -1.5468751
v -0.48928726 0 -2.0436897
v -0.037637487 0 -2.0436897
v -0.26346236 0.1647664 -1.4339627
v -0.3989573 0.039943367 -1.5468751
v -0.12796743 0.039943367 -1.5468751
v 0.26346236 0.039943367 -1.5468751
v 0.037637487 0 -2.0436897
v 0.48928726 0 -2.0436897
v 0.26346236 0.1647664 -1.4339627
v 0.12796743 0.039943367 -1.5468751
v 0.3989573 0.039943367 -1.5468751
v 0.79038703 0.039943367 -1.5468751
v 0.56456214 0 -2.0436897
v 1.0162119 0 -2.0436897
v 0.79038703 0.1647664 -1.4339627
v 0.6548921 0.039943367 -1.5468751
v 0.925882 0.039943367 -1.5468751
vn -0 0.99722075 0.07450394
vn -0 0.99722075 0.07450394
vn -0 0.99722075 0.07450394
vn -0.06589081 0.9978269 0
vn -0.06589081 0.9978269 0
vn -0.06589081 0.9978269 0
vn 0.06589081 0.9978269 0
vn 0.06589081 0.9978269 0
vn 0.06589081 0.9978269 0
vn -0 0.99999994 0
vn -0 0.99999994 0
vn -0 0.99999994 0
vn 0 0.99999994 0
vn 0 0.99999994 0
vn 0 0.99999994 0
vn -0.2903551 0.9563549 0.03285093
vn -0.2903551 0.9563549 0.03285093
vn -0.2903551 0.9563549 0.03285093
vn -0.2903551 0.9563549 0.032850932
vn -0.2903551 0.9563549 0.032850932
vn -0.2903551 0.9563549 0.032850932
vn -0.2903551 0.9563549 0.03285093
vn -0.2903551 0.9563549 0.03285093
vn -0.2903551 0.9563549 0.03285093
vn 0 0 1
vn 0 0 1
vn 0 0 1
vn 0 0 1
vn 0 0 1
vn 0 0 1
vn 0 0 -1
vn 0 0 -1
vn 0 0 -1
vn 0 0 -1
vn 0 0 -1
vn 0 0 -1
vn 0 0.99999994 0
vn 0 0.99999994 0
vn 0 0.99999994 0
vn 0 0.99999994 0
vn 0 0.99999994 0
vn 0 0.99999994 0
vn 0 -0.99999994 0
vn 0 -0.99999994 0
vn 0 -0.99999994 0
vn 0 -0.99999994 0
vn 0 -0.99999994 0
vn 0 -0.99999994 0
vn 1 0 0
vn 1 0 0
vn 1 0 0
vn 1 0 0
vn 1 0 0
vn 1 0 0
vn -1 0 0
vn -1 0 0
vn -1 0 0
vn -1 0 0
vn -1 0 0
vn -1 0 0
vn 0 -0.99678355 0.08014034
vn 0 -0.99678355 0.08014034
vn 0 -0.99678355 0.08014034
vn 0 -0.67083913 0.7416029
vn 0 -0.67083913 0.7416029
vn 0 -0.67083913 0.7416029
vn 0 -0.99678355 0.08014033
vn 0 -0.99678355 0.08014033
vn 0 -0.99678355 0.08014033
vn 0 -0.67083913 0.74160284
vn 0 -0.67083913 0.74160284
vn 0 -0.67083913 0.74160284
vn 0 -0.99678355 0.08014033
vn 0 -0.99678355 0.08014033
vn 0 -0.99678355 0.08014033
vn 0 -0.67083913 0.74160284
vn 0 -0.67083913 0.74160284
vn 0 -0.67083913 0.74160284
vn 0 -0.99678355 0.08014034
vn 0 -0.99678355 0.08014034
vn 0 -0.99678355 0.08014034
vn 0 -0.67083913 0.7416029
vn 0 -0.67083913 0.7416029
vn 0 -0.67083913 0.7416029
f 1//1 2//2 3//3
f 4//4 5//5 6//6
f 7//7 8//8 9//9
f 10//10 11//11 12//12
f 13//13 14//14 15//15
f 16//16 17//17 18//18
f 19//19 20//20 21//21
f 22//22 23//23 24//24
f 25//25 26//26 27//27
f 28//28 29//29 30//30
f 31//31 32//32 33//33
f 34//34 35//35 36//36
f 37//37 38//38 39//39
f 40//40 41//41 42//42
f 43//43 44//44 45//45
f 46//46 47//47 48//48
f 49//49 50//50 51//51
f 52//52 53//53 54//54
f 55//55 56//56 57//57
f 58//58 59//59 60//60
f 61//61 62//62 63//63
f 64//64 65//65 66//66
f 67//67 68//68 69//69
f 70//70 71//71 72//72
f 73//73 74//74 75//75
f 76//76 77//77 78//78
f 79//79 80//80 81//81
f 82//82 83//83 84//84
