# Exported from SharpOpenGl procedural mesh
o solari_fighter_mk3_35
# vertices 339
v -0.36637914 0.01895842 -1.2681234
v 0.36637914 0.01895842 -1.2681234
v 0 0.059245065 -1.1436167
v -0.36637914 0.01895842 -1.2681234
v 0 0.059245065 -1.1436167
v -0.45901152 0.022686541 -0.9914419
v 0.36637914 0.01895842 -1.2681234
v 0.45901152 0.022686541 -0.9914419
v 0 0.07089544 -1.1436167
v -0.36637914 0 -1.2681234
v -0.45901152 0 -0.9914419
v 0.36637914 0 -1.2681234
v 0.36637914 0 -1.2681234
v -0.45901152 0 -0.9914419
v 0.45901152 0 -0.9914419
v -0.45901152 0.022686541 -0.9914419
v 0.45901152 0.022686541 -0.9914419
v 0 0.07089544 -0.86693525
v -0.45901152 0.022686541 -0.9914419
v 0 0.07089544 -0.86693525
v -0.54257643 0.026049726 -0.7147604
v 0.45901152 0.022686541 -0.9914419
v 0.54257643 0.026049726 -0.7147604
v 0 0.081405394 -0.86693525
v -0.45901152 0 -0.9914419
v -0.54257643 0 -0.7147604
v 0.45901152 0 -0.9914419
v 0.45901152 0 -0.9914419
v -0.54257643 0 -0.7147604
v 0.54257643 0 -0.7147604
v -0.54257643 0.026049726 -0.7147604
v 0.54257643 0.026049726 -0.7147604
v 0 0.081405394 -0.5902538
v -0.54257643 0.026049726 -0.7147604
v 0 0.081405394 -0.5902538
v -0.60889393 0.028718766 -0.43807894
v 0.54257643 0.026049726 -0.7147604
v 0.60889393 0.028718766 -0.43807894
v 0 0.08974615 -0.5902538
v -0.54257643 0 -0.7147604
v -0.60889393 0 -0.43807894
v 0.54257643 0 -0.7147604
v 0.54257643 0 -0.7147604
v -0.60889393 0 -0.43807894
v 0.60889393 0 -0.43807894
v -0.60889393 0.028718766 -0.43807894
v 0.60889393 0.028718766 -0.43807894
v 0 0.08974615 -0.3135723
v -0.60889393 0.028718766 -0.43807894
v 0 0.08974615 -0.3135723
v -0.6514724 0.030432396 -0.16139746
v 0.60889393 0.028718766 -0.43807894
v 0.6514724 0.030432396 -0.16139746
v 0 0.09510124 -0.3135723
v -0.60889393 0 -0.43807894
v -0.6514724 0 -0.16139746
v 0.60889393 0 -0.43807894
v 0.60889393 0 -0.43807894
v -0.6514724 0 -0.16139746
v 0.6514724 0 -0.16139746
v -0.6514724 0.030432396 -0.16139746
v 0.6514724 0.030432396 -0.16139746
v 0 0.09510124 -0.03689082
v -0.6514724 0.030432396 -0.16139746
v 0 0.09510124 -0.03689082
v -0.6661439 0.031022867 0.115283966
v 0.6514724 0.030432396 -0.16139746
v 0.6661439 0.031022867 0.115283966
v 0 0.09694646 -0.03689082
v -0.6514724 0 -0.16139746
v -0.6661439 0 0.115283966
v 0.6514724 0 -0.16139746
v 0.6514724 0 -0.16139746
v -0.6661439 0 0.115283966
v 0.6661439 0 0.115283966
v -0.6661439 0.031022867 0.115283966
v 0.6661439 0.031022867 0.115283966
v 0 0.09694646 0.23979065
v -0.6661439 0.031022867 0.115283966
v 0 0.09694646 0.23979065
v -0.6514724 0.030432394 0.3919655
v 0.6661439 0.031022867 0.115283966
v 0.6514724 0.030432394 0.3919655
v 0 0.09510123 0.23979065
v -0.6661439 0 0.115283966
v -0.6514724 0 0.3919655
v 0.6661439 0 0.115283966
v 0.6661439 0 0.115283966
v -0.6514724 0 0.3919655
v 0.6514724 0 0.3919655
v -0.6514724 0.030432394 0.3919655
v 0.6514724 0.030432394 0.3919655
v 0 0.09510123 0.51647216
v -0.6514724 0.030432394 0.3919655
v 0 0.09510123 0.51647216
v -0.60889393 0.028718766 0.66864693
v 0.6514724 0.030432394 0.3919655
v 0.60889393 0.028718766 0.66864693
v 0 0.08974615 0.51647216
v -0.6514724 0 0.3919655
v -0.60889393 0 0.66864693
v 0.6514724 0 0.3919655
v 0.6514724 0 0.3919655
v -0.60889393 0 0.66864693
v 0.60889393 0 0.66864693
v -0.60889393 0.028718766 0.66864693
v 0.60889393 0.028718766 0.66864693
v 0 0.08974615 0.79315364
v -0.60889393 0.028718766 0.66864693
v 0 0.08974615 0.79315364
v -0.6636935 0.026049724 0.9453285
v 0.60889393 0.028718766 0.66864693
v 0.6636935 0.026049724 0.9453285
v 0 0.08140539 0.79315364
v -0.60889393 0 0.66864693
v -0.6636935 0 0.9453285
v 0.60889393 0 0.66864693
v 0.60889393 0 0.66864693
v -0.6636935 0 0.9453285
v 0.6636935 0 0.9453285
v -0.6636935 0.026049724 0.9453285
v 0.6636935 0.026049724 0.9453285
v 0 0.08140539 1.0698351
v -0.6636935 0.026049724 0.9453285
v 0 0.08140539 1.0698351
v -0.5195701 0.022686541 1.2220099
v 0.6636935 0.026049724 0.9453285
v 0.5195701 0.022686541 1.2220099
v 0 0.07089544 1.0698351
v -0.6636935 0 0.9453285
v -0.5195701 0 1.2220099
v 0.6636935 0 0.9453285
v 0.6636935 0 0.9453285
v -0.5195701 0 1.2220099
v 0.5195701 0 1.2220099
v -0.5195701 0.022686541 1.2220099
v 0.5195701 0.022686541 1.2220099
v 0 0.07089544 1.3465165
v -0.5195701 0.022686541 1.2220099
v 0 0.07089544 1.3465165
v -0.3663791 0.018958418 1.4986913
v 0.5195701 0.022686541 1.2220099
v 0.3663791 0.018958418 1.4986913
v 0 0.059245057 1.3465165
v -0.5195701 0 1.2220099
v -0.3663791 0 1.4986913
v 0.5195701 0 1.2220099
v 0.5195701 0 1.2220099
v -0.3663791 0 1.4986913
v 0.3663791 0 1.4986913
v -1.1241179 0.1077183 0.87615794
v 1.1241179 0.1077183 0.87615794
v 0 0.16696335 -0.6917036
v -1.1241179 0.1077183 0.87615794
v 0 0.16696335 -0.6917036
v -1.1241179 0.1077183 -0.87615794
v 1.1241179 0.1077183 0.87615794
v 1.1241179 0.1077183 -0.87615794
v 0 0.16696335 -0.6917036
v -1.1241179 0.099100836 0.87615794
v 1.1241179 0.099100836 0.87615794
v 1.1241179 0.099100836 -0.87615794
v -1.1241179 0.099100836 0.87615794
v 1.1241179 0.099100836 -0.87615794
v -1.1241179 0.099100836 -0.87615794
v -1.1241179 0.099100836 0.87615794
v -1.1241179 0.1077183 0.87615794
v 1.1241179 0.1077183 0.87615794
v -1.1241179 0.099100836 -0.87615794
v 1.1241179 0.1077183 -0.87615794
v -1.1241179 0.1077183 -0.87615794
v 1.1241179 0.099100836 -0.87615794
v 1.1241179 0.1077183 -0.87615794
v 1.1241179 0.1077183 0.87615794
v 1.1241179 0.099100836 0.87615794
v 1.1241179 0.1077183 0.87615794
v 1.1241179 0.1077183 -0.87615794
v -1.0566708 0.1077183 -0.87615794
v -0.8318472 0.1077183 -0.87615794
v -0.944259 0.1454197 -0.64559007
v -1.0566708 0.1077183 -0.87615794
v -0.944259 0.1454197 -0.64559007
v -1.0341884 0.1077183 -0.64559007
v -0.8318472 0.1077183 -0.87615794
v -0.8543296 0.1077183 -0.64559007
v -0.944259 0.1454197 -0.64559007
v -0.11241179 0.1077183 -0.87615794
v 0.11241179 0.1077183 -0.87615794
v 0 0.1454197 -0.64559007
v -0.11241179 0.1077183 -0.87615794
v 0 0.1454197 -0.64559007
v -0.089929424 0.1077183 -0.64559007
v 0.11241179 0.1077183 -0.87615794
v 0.089929424 0.1077183 -0.64559007
v 0 0.1454197 -0.64559007
v 0.8318472 0.1077183 -0.87615794
v 1.0566708 0.1077183 -0.87615794
v 0.944259 0.1454197 -0.64559007
v 0.8318472 0.1077183 -0.87615794
v 0.944259 0.1454197 -0.64559007
v 0.8543296 0.1077183 -0.64559007
v 1.0566708 0.1077183 -0.87615794
v 1.0341884 0.1077183 -0.64559007
v 0.944259 0.1454197 -0.64559007
v -1.0566708 0.1077183 0.6917036
v -0.8318472 0.1077183 0.6917036
v -0.944259 0.19389293 0.9222715
v -1.0566708 0.1077183 0.6917036
v -0.944259 0.19389293 0.9222715
v -1.0341884 0.1077183 0.9222715
v -0.8318472 0.1077183 0.6917036
v -0.8543296 0.1077183 0.9222715
v -0.944259 0.19389293 0.9222715
v -0.11241179 0.1077183 0.6917036
v 0.11241179 0.1077183 0.6917036
v 0 0.19389293 0.9222715
v -0.11241179 0.1077183 0.6917036
v 0 0.19389293 0.9222715
v -0.089929424 0.1077183 0.9222715
v 0.11241179 0.1077183 0.6917036
v 0.089929424 0.1077183 0.9222715
v 0 0.19389293 0.9222715
v 0.8318472 0.1077183 0.6917036
v 1.0566708 0.1077183 0.6917036
v 0.944259 0.19389293 0.9222715
v 0.8318472 0.1077183 0.6917036
v 0.944259 0.19389293 0.9222715
v 0.8543296 0.1077183 0.9222715
v 1.0566708 0.1077183 0.6917036
v 1.0341884 0.1077183 0.9222715
v 0.944259 0.19389293 0.9222715
v -0.16653597 0.08986783 0.07747081
v 0.16653597 0.08986783 0.07747081
v 0 0.28083697 0.09490174
v -0.16653597 0.08986783 0.07747081
v 0 0.28083697 0.09490174
v -0.15543358 0.1011526 0.116206214
v 0.16653597 0.08986783 0.07747081
v 0.15543358 0.1011526 0.116206214
v 0 0.31610188 0.09490174
v -0.16653597 0 0.07747081
v -0.15543358 0 0.116206214
v 0.16653597 0 0.07747081
v 0.16653597 0 0.07747081
v -0.15543358 0 0.116206214
v 0.15543358 0 0.116206214
v -0.15543358 0.1011526 0.116206214
v 0.15543358 0.1011526 0.116206214
v 0 0.31610188 0.13363715
v -0.15543358 0.1011526 0.116206214
v 0 0.31610188 0.13363715
v -0.14433117 0.11243738 0.15494162
v 0.15543358 0.1011526 0.116206214
v 0.14433117 0.11243738 0.15494162
v 0 0.35136682 0.13363715
v -0.15543358 0 0.116206214
v -0.14433117 0 0.15494162
v 0.15543358 0 0.116206214
v 0.15543358 0 0.116206214
v -0.14433117 0 0.15494162
v 0.14433117 0 0.15494162
v -0.14433117 0.11243738 0.15494162
v 0.14433117 0.11243738 0.15494162
v 0 0.35136682 0.17237255
v -0.14433117 0.11243738 0.15494162
v 0 0.35136682 0.17237255
v -0.13322878 0.12372215 0.19367702
v 0.14433117 0.11243738 0.15494162
v 0.13322878 0.12372215 0.19367702
v 0 0.38663173 0.17237255
v -0.14433117 0 0.15494162
v -0.13322878 0 0.19367702
v 0.14433117 0 0.15494162
v 0.14433117 0 0.15494162
v -0.13322878 0 0.19367702
v 0.13322878 0 0.19367702
v -0.13322878 0.12372215 0.19367702
v 0.13322878 0.12372215 0.19367702
v 0 0.38663173 0.21110795
v -0.13322878 0.12372215 0.19367702
v 0 0.38663173 0.21110795
v -0.122126386 0.13500692 0.23241243
v 0.13322878 0.12372215 0.19367702
v 0.122126386 0.13500692 0.23241243
v 0 0.42189664 0.21110795
v -0.13322878 0 0.19367702
v -0.122126386 0 0.23241243
v 0.13322878 0 0.19367702
v 0.13322878 0 0.19367702
v -0.122126386 0 0.23241243
v 0.122126386 0 0.23241243
v -0.122126386 0.13500692 0.23241243
v 0.122126386 0.13500692 0.23241243
v 0 0.42189664 0.24984336
v -0.122126386 0.13500692 0.23241243
v 0 0.42189664 0.24984336
v -0.11102398 0.14629169 0.27114785
v 0.122126386 0.13500692 0.23241243
v 0.11102398 0.14629169 0.27114785
v 0 0.45716155 0.24984336
v -0.122126386 0 0.23241243
v -0.11102398 0 0.27114785
v 0.122126386 0 0.23241243
v 0.122126386 0 0.23241243
v -0.11102398 0 0.27114785
v 0.11102398 0 0.27114785
v -0.11102398 0.14629169 0.27114785
v 0.11102398 0.14629169 0.27114785
v 0 0.45716155 0.28857878
v -0.11102398 0.14629169 0.27114785
v 0 0.45716155 0.28857878
v -0.09992159 0.15757647 0.30988324
v 0.11102398 0.14629169 0.27114785
v 0.09992159 0.15757647 0.30988324
v 0 0.49242648 0.28857878
v -0.11102398 0 0.27114785
v -0.09992159 0 0.30988324
v 0.11102398 0 0.27114785
v 0.11102398 0 0.27114785
v -0.09992159 0 0.30988324
v 0.09992159 0 0.30988324
v -0.5828759 0.030776655 -1.5883565
v -0.7527426 0 -1.9620632
v -0.41300923 0 -1.9620632
v -0.5828759 0.1269537 -1.5034231
v -0.6847959 0.030776655 -1.5883565
v -0.4809559 0.030776655 -1.5883565
v 0 0.030776655 -1.5883565
v -0.1698667 0 -1.9620632
v 0.1698667 0 -1.9620632
v 0 0.1269537 -1.5034231
v -0.10192002 0.030776655 -1.5883565
v 0.10192002 0.030776655 -1.5883565
v 0.5828759 0.030776655 -1.5883565
v 0.41300923 0 -1.9620632
v 0.7527426 0 -1.9620632
v 0.5828759 0.1269537 -1.5034231
v 0.4809559 0.030776655 -1.5883565
v 0.6847959 0.030776655 -1.5883565
vn 0 -0.9514331 0.30785528
vn 0 -0.9514331 0.30785528
vn 0 -0.9514331 0.30785528
vn 0.094099395 -0.9945495 0.044905253
vn 0.094099395 -0.9945495 0.044905253
vn 0.094099395 -0.9945495 0.044905253
vn -0.12206197 -0.9910404 0.054219782
vn -0.12206197 -0.9910404 0.054219782
vn -0.12206197 -0.9910404 0.054219782
vn 0 1 -0
vn 0 1 -0
vn 0 1 -0
vn 0 1 -0
vn 0 1 -0
vn 0 1 -0
vn 0 -0.93253595 0.36107734
vn 0 -0.93253595 0.36107734
vn 0 -0.93253595 0.36107734
vn 0.09353823 -0.994798 0.040343147
vn 0.09353823 -0.994798 0.040343147
vn 0.09353823 -0.994798 0.040343147
vn -0.11430955 -0.99235225 0.046586893
vn -0.11430955 -0.99235225 0.046586893
vn -0.11430955 -0.99235225 0.046586893
vn 0 1 -0
vn 0 1 -0
vn 0 1 -0
vn 0 1 -0
vn 0 1 -0
vn 0 1 -0
vn 0 -0.91375875 0.4062572
vn 0 -0.91375875 0.4062572
vn 0 -0.91375875 0.4062572
vn 0.09413723 -0.9950395 0.03216242
vn 0.09413723 -0.9950395 0.03216242
vn 0.09413723 -0.9950395 0.03216242
vn -0.10846392 -0.99346334 0.035581164
vn -0.10846392 -0.99346334 0.035581164
vn -0.10846392 -0.99346334 0.035581164
vn 0 1 -0
vn 0 1 -0
vn 0 1 -0
vn 0 1 -0
vn 0 1 -0
vn 0 1 -0
vn 0 -0.89793575 0.44012642
vn 0 -0.89793575 0.44012642
vn 0 -0.89793575 0.44012642
vn 0.09548184 -0.9952126 0.020857545
vn 0.09548184 -0.9952126 0.020857545
vn 0.09548184 -0.9952126 0.020857545
vn -0.10387672 -0.99434364 0.022144046
vn -0.10387672 -0.99434364 0.022144046
vn -0.10387672 -0.99434364 0.022144046
vn 0 1 -0
vn 0 1 -0
vn 0 1 -0
vn 0 1 -0
vn 0 1 -0
vn 0 1 -0
vn 0 -0.8874344 0.4609341
vn 0 -0.8874344 0.4609341
vn 0 -0.8874344 0.4609341
vn 0.097398095 -0.99521875 0.0072886166
vn 0.097398095 -0.99521875 0.0072886166
vn 0.097398095 -0.99521875 0.0072886166
vn -0.10016094 -0.99494344 0.0074345344
vn -0.10016094 -0.99494344 0.0074345344
vn -0.10016094 -0.99494344 0.0074345344
vn 0 1 -0
vn 0 1 -0
vn 0 1 -0
vn 0 1 -0
vn 0 1 -0
vn 0 1 -0
vn 0 -0.8837636 0.4679337
vn 0 -0.8837636 0.4679337
vn 0 -0.8837636 0.4679337
vn 0.09985218 -0.9949746 -0.0074182316
vn 0.09985218 -0.9949746 -0.0074182316
vn 0.09985218 -0.9949746 -0.0074182316
vn -0.09709521 -0.99524844 -0.0072726235
vn -0.09709521 -0.99524844 -0.0072726235
vn -0.09709521 -0.99524844 -0.0072726235
vn 0 1 0
vn 0 1 0
vn 0 1 0
vn 0 1 0
vn 0 1 0
vn 0 1 0
vn 0 -0.8874345 0.46093404
vn 0 -0.8874345 0.46093404
vn 0 -0.8874345 0.46093404
vn 0.1029184 -0.9944465 -0.021997206
vn 0.1029184 -0.9944465 -0.021997206
vn 0.1029184 -0.9944465 -0.021997206
vn -0.09457766 -0.99530184 -0.020718949
vn -0.09457766 -0.99530184 -0.020718949
vn -0.09457766 -0.99530184 -0.020718949
vn 0 1 0
vn 0 1 0
vn 0 1 0
vn 0 1 0
vn 0 1 0
vn 0 1 0
vn 0 -0.8979359 0.4401263
vn 0 -0.8979359 0.4401263
vn 0 -0.8979359 0.4401263
vn 0.09774623 -0.99516356 0.009759655
vn 0.09774623 -0.99516356 0.009759655
vn 0.09774623 -0.99516356 0.009759655
vn -0.08474804 -0.99637663 0.0071735308
vn -0.08474804 -0.99637663 0.0071735308
vn -0.08474804 -0.99637663 0.0071735308
vn 0 1 -0
vn 0 1 -0
vn 0 1 -0
vn 0 1 -0
vn 0 1 -0
vn 0 1 -0
vn 0 -0.91375875 0.40625736
vn 0 -0.91375875 0.40625736
vn 0 -0.91375875 0.40625736
vn 0.09436298 -0.993653 -0.061231967
vn 0.09436298 -0.993653 -0.061231967
vn 0.09436298 -0.993653 -0.061231967
vn -0.07707879 -0.9956549 -0.052252967
vn -0.07707879 -0.9956549 -0.052252967
vn -0.07707879 -0.9956549 -0.052252967
vn 0 1 0
vn 0 1 0
vn 0 1 0
vn 0 1 0
vn 0 1 0
vn 0 1 0
vn 0 -0.93253577 0.36107746
vn 0 -0.93253577 0.36107746
vn 0 -0.93253577 0.36107746
vn 0.109728254 -0.9911949 -0.07410934
vn 0.109728254 -0.9911949 -0.07410934
vn 0.109728254 -0.9911949 -0.07410934
vn -0.08439292 -0.9946167 -0.060127966
vn -0.08439292 -0.9946167 -0.060127966
vn -0.08439292 -0.9946167 -0.060127966
vn 0 1 0
vn 0 1 0
vn 0 1 0
vn 0 1 0
vn 0 1 0
vn 0 1 0
vn -0 0.9992869 0.037760228
vn -0 0.9992869 0.037760228
vn -0 0.9992869 0.037760228
vn -0.052630555 0.998614 0
vn -0.052630555 0.998614 0
vn -0.052630555 0.998614 0
vn 0.052630555 0.998614 0
vn 0.052630555 0.998614 0
vn 0.052630555 0.998614 0
vn -0 1 0
vn -0 1 0
vn -0 1 0
vn 0 1 0
vn 0 1 0
vn 0 1 0
vn 0 0 -1
vn 0 0 -1
vn 0 0 -1
vn 0 0 1
vn 0 0 1
vn 0 0 1
vn 1 0 0
vn 1 0 0
vn 1 0 0
vn -1 0 0
vn -1 0 0
vn -1 0 0
vn 0 -0.98689353 0.16137232
vn 0 -0.98689353 0.16137232
vn 0 -0.98689353 0.16137232
vn 0.38635692 -0.9215796 -0.037673198
vn 0.38635692 -0.9215796 -0.037673198
vn 0.38635692 -0.9215796 -0.037673198
vn -0.38635692 -0.9215796 -0.037673198
vn -0.38635692 -0.9215796 -0.037673198
vn -0.38635692 -0.9215796 -0.037673198
vn 0 -0.9868936 0.16137233
vn 0 -0.9868936 0.16137233
vn 0 -0.9868936 0.16137233
vn 0.38635686 -0.92157966 -0.03767314
vn 0.38635686 -0.92157966 -0.03767314
vn 0.38635686 -0.92157966 -0.03767314
vn -0.38635686 -0.92157966 -0.03767314
vn -0.38635686 -0.92157966 -0.03767314
vn -0.38635686 -0.92157966 -0.03767314
vn 0 -0.98689353 0.16137232
vn 0 -0.98689353 0.16137232
vn 0 -0.98689353 0.16137232
vn 0.38635692 -0.9215796 -0.037673198
vn 0.38635692 -0.9215796 -0.037673198
vn 0.38635692 -0.9215796 -0.037673198
vn -0.38635692 -0.9215796 -0.037673198
vn -0.38635692 -0.9215796 -0.037673198
vn -0.38635692 -0.9215796 -0.037673198
vn 0 -0.93671376 0.3500963
vn 0 -0.93671376 0.3500963
vn 0 -0.93671376 0.3500963
vn 0.69030386 -0.7203816 -0.067310706
vn 0.69030386 -0.7203816 -0.067310706
vn 0.69030386 -0.7203816 -0.067310706
vn -0.69030386 -0.7203816 -0.067310706
vn -0.69030386 -0.7203816 -0.067310706
vn -0.69030386 -0.7203816 -0.067310706
vn 0 -0.9367137 0.3500963
vn 0 -0.9367137 0.3500963
vn 0 -0.9367137 0.3500963
vn 0.69030386 -0.72038174 -0.06731062
vn 0.69030386 -0.72038174 -0.06731062
vn 0.69030386 -0.72038174 -0.06731062
vn -0.69030386 -0.72038174 -0.06731062
vn -0.69030386 -0.72038174 -0.06731062
vn -0.69030386 -0.72038174 -0.06731062
vn 0 -0.93671376 0.3500963
vn 0 -0.93671376 0.3500963
vn 0 -0.93671376 0.3500963
vn 0.69030386 -0.7203816 -0.067310706
vn 0.69030386 -0.7203816 -0.067310706
vn 0.69030386 -0.7203816 -0.067310706
vn -0.69030386 -0.7203816 -0.067310706
vn -0.69030386 -0.7203816 -0.067310706
vn -0.69030386 -0.7203816 -0.067310706
vn 0 -0.0908983 0.99586016
vn 0 -0.0908983 0.99586016
vn 0 -0.0908983 0.99586016
vn 0.75457495 -0.65572816 -0.025244283
vn 0.75457495 -0.65572816 -0.025244283
vn 0.75457495 -0.65572816 -0.025244283
vn -0.8060888 -0.588795 -0.059508827
vn -0.8060888 -0.588795 -0.059508827
vn -0.8060888 -0.588795 -0.059508827
vn 0 1 0
vn 0 1 0
vn 0 1 0
vn 0 1 0
vn 0 1 0
vn 0 1 0
vn 0 -0.0808279 0.99672806
vn 0 -0.0808279 0.99672806
vn 0 -0.0808279 0.99672806
vn 0.8111426 -0.58143425 -0.06310188
vn 0.8111426 -0.58143425 -0.06310188
vn 0.8111426 -0.58143425 -0.06310188
vn -0.84872526 -0.52085406 -0.09152272
vn -0.84872526 -0.52085406 -0.09152272
vn -0.84872526 -0.52085406 -0.09152272
vn 0 1 0
vn 0 1 0
vn 0 1 0
vn 0 1 0
vn 0 1 0
vn 0 1 0
vn 0 -0.07276094 0.9973494
vn 0 -0.07276094 0.9973494
vn 0 -0.07276094 0.9973494
vn 0.85504806 -0.50946134 -0.096653864
vn 0.85504806 -0.50946134 -0.096653864
vn 0.85504806 -0.50946134 -0.096653864
vn -0.8816466 -0.45647305 -0.11971461
vn -0.8816466 -0.45647305 -0.11971461
vn -0.8816466 -0.45647305 -0.11971461
vn 0 1 0
vn 0 1 0
vn 0 1 0
vn 0 1 0
vn 0 1 0
vn 0 1 0
vn 0 -0.06615485 0.9978093
vn 0 -0.06615485 0.9978093
vn 0 -0.06615485 0.9978093
vn 0.8882505 -0.44177222 -0.12589024
vn 0.8882505 -0.44177222 -0.12589024
vn 0.8882505 -0.44177222 -0.12589024
vn -0.9065666 -0.39663234 -0.14429061
vn -0.9065666 -0.39663234 -0.14429061
vn -0.9065666 -0.39663234 -0.14429061
vn 0 0.99999994 0
vn 0 0.99999994 0
vn 0 0.99999994 0
vn 0 1 0
vn 0 1 0
vn 0 1 0
vn 0 -0.06064646 0.9981593
vn 0 -0.06064646 0.9981593
vn 0 -0.06064646 0.9981593
vn 0.9128127 -0.37939543 -0.15110278
vn 0.9128127 -0.37939543 -0.15110278
vn 0.9128127 -0.37939543 -0.15110278
vn -0.92509216 -0.3417356 -0.16559376
vn -0.92509216 -0.3417356 -0.16559376
vn -0.92509216 -0.3417356 -0.16559376
vn 0 1 0
vn 0 1 0
vn 0 1 0
vn 0 1 0
vn 0 1 0
vn 0 1 0
vn 0 -0.055983532 0.9984317
vn 0 -0.055983532 0.9984317
vn 0 -0.055983532 0.9984317
vn 0.9306157 -0.32267466 -0.1727294
vn 0.9306157 -0.32267466 -0.1727294
vn 0.9306157 -0.32267466 -0.1727294
vn -0.9386121 -0.29179633 -0.18401712
vn -0.9386121 -0.29179633 -0.18401712
vn -0.9386121 -0.29179633 -0.18401712
vn 0 1 0
vn 0 1 0
vn 0 1 0
vn 0 1 0
vn 0 1 0
vn 0 1 0
vn 0 -0.99662596 0.08207724
vn 0 -0.99662596 0.08207724
vn 0 -0.99662596 0.08207724
vn 0 -0.661934 0.7495621
vn 0 -0.661934 0.7495621
vn 0 -0.661934 0.7495621
vn 0 -0.99662596 0.082077235
vn 0 -0.99662596 0.082077235
vn 0 -0.99662596 0.082077235
vn 0 -0.661934 0.74956214
vn 0 -0.661934 0.74956214
vn 0 -0.661934 0.74956214
vn 0 -0.99662596 0.08207724
vn 0 -0.99662596 0.08207724
vn 0 -0.99662596 0.08207724
vn 0 -0.661934 0.7495621
vn 0 -0.661934 0.7495621
vn 0 -0.661934 0.7495621
f 1//1 2//2 3//3
f 4//4 5//5 6//6
f 7//7 8//8 9//9
f 10//10 11//11 12//12
f 13//13 14//14 15//15
f 16//16 17//17 18//18
f 19//19 20//20 21//21
f 22//22 23//23 24//24
f 25//25 26//26 27//27
f 28//28 29//29 30//30
f 31//31 32//32 33//33
f 34//34 35//35 36//36
f 37//37 38//38 39//39
f 40//40 41//41 42//42
f 43//43 44//44 45//45
f 46//46 47//47 48//48
f 49//49 50//50 51//51
f 52//52 53//53 54//54
f 55//55 56//56 57//57
f 58//58 59//59 60//60
f 61//61 62//62 63//63
f 64//64 65//65 66//66
f 67//67 68//68 69//69
f 70//70 71//71 72//72
f 73//73 74//74 75//75
f 76//76 77//77 78//78
f 79//79 80//80 81//81
f 82//82 83//83 84//84
f 85//85 86//86 87//87
f 88//88 89//89 90//90
f 91//91 92//92 93//93
f 94//94 95//95 96//96
f 97//97 98//98 99//99
f 100//100 101//101 102//102
f 103//103 104//104 105//105
f 106//106 107//107 108//108
f 109//109 110//110 111//111
f 112//112 113//113 114//114
f 115//115 116//116 117//117
f 118//118 119//119 120//120
f 121//121 122//122 123//123
f 124//124 125//125 126//126
f 127//127 128//128 129//129
f 130//130 131//131 132//132
f 133//133 134//134 135//135
f 136//136 137//137 138//138
f 139//139 140//140 141//141
f 142//142 143//143 144//144
f 145//145 146//146 147//147
f 148//148 149//149 150//150
f 151//151 152//152 153//153
f 154//154 155//155 156//156
f 157//157 158//158 159//159
f 160//160 161//161 162//162
f 163//163 164//164 165//165
f 166//166 167//167 168//168
f 169//169 170//170 171//171
f 172//172 173//173 174//174
f 175//175 176//176 177//177
f 178//178 179//179 180//180
f 181//181 182//182 183//183
f 184//184 185//185 186//186
f 187//187 188//188 189//189
f 190//190 191//191 192//192
f 193//193 194//194 195//195
f 196//196 197//197 198//198
f 199//199 200//200 201//201
f 202//202 203//203 204//204
f 205//205 206//206 207//207
f 208//208 209//209 210//210
f 211//211 212//212 213//213
f 214//214 215//215 216//216
f 217//217 218//218 219//219
f 220//220 221//221 222//222
f 223//223 224//224 225//225
f 226//226 227//227 228//228
f 229//229 230//230 231//231
f 232//232 233//233 234//234
f 235//235 236//236 237//237
f 238//238 239//239 240//240
f 241//241 242//242 243//243
f 244//244 245//245 246//246
f 247//247 248//248 249//249
f 250//250 251//251 252//252
f 253//253 254//254 255//255
f 256//256 257//257 258//258
f 259//259 260//260 261//261
f 262//262 263//263 264//264
f 265//265 266//266 267//267
f 268//268 269//269 270//270
f 271//271 272//272 273//273
f 274//274 275//275 276//276
f 277//277 278//278 279//279
f 280//280 281//281 282//282
f 283//283 284//284 285//285
f 286//286 287//287 288//288
f 289//289 290//290 291//291
f 292//292 293//293 294//294
f 295//295 296//296 297//297
f 298//298 299//299 300//300
f 301//301 302//302 303//303
f 304//304 305//305 306//306
f 307//307 308//308 309//309
f 310//310 311//311 312//312
f 313//313 314//314 315//315
f 316//316 317//317 318//318
f 319//319 320//320 321//321
f 322//322 323//323 324//324
f 325//325 326//326 327//327
f 328//328 329//329 330//330
f 331//331 332//332 333//333
f 334//334 335//335 336//336
f 337//337 338//338 339//339
