# Exported from SharpOpenGl procedural mesh
o solari_freighter_mk1_14
# vertices 345
v -1.4614145 0.06971794 -3.206534
v 1.4614145 0.06971794 -3.206534
v 0 0.21786858 -2.8917105
v -1.4614145 0.06971794 -3.206534
v 0 0.21786858 -2.8917105
v -1.830907 0.08342778 -2.5069265
v 1.4614145 0.06971794 -3.206534
v 1.830907 0.08342778 -2.5069265
v 0 0.26071182 -2.8917105
v -1.4614145 0 -3.206534
v -1.830907 0 -2.5069265
v 1.4614145 0 -3.206534
v 1.4614145 0 -3.206534
v -1.830907 0 -2.5069265
v 1.830907 0 -2.5069265
v -1.830907 0.08342778 -2.5069265
v 1.830907 0.08342778 -2.5069265
v 0 0.26071182 -2.1921031
v -1.830907 0.08342778 -2.5069265
v 0 0.26071182 -2.1921031
v -2.1642308 0.0957956 -1.8073192
v 1.830907 0.08342778 -2.5069265
v 2.1642308 0.0957956 -1.8073192
v 0 0.29936126 -2.1921031
v -1.830907 0 -2.5069265
v -2.1642308 0 -1.8073192
v 1.830907 0 -2.5069265
v 1.830907 0 -2.5069265
v -2.1642308 0 -1.8073192
v 2.1642308 0 -1.8073192
v -2.1642308 0.0957956 -1.8073192
v 2.1642308 0.0957956 -1.8073192
v 0 0.29936126 -1.4924959
v -2.1642308 0.0957956 -1.8073192
v 0 0.29936126 -1.4924959
v -2.4287584 0.105610766 -1.1077118
v 2.1642308 0.0957956 -1.8073192
v 2.4287584 0.105610766 -1.1077118
v 0 0.33003366 -1.4924959
v -2.1642308 0 -1.8073192
v -2.4287584 0 -1.1077118
v 2.1642308 0 -1.8073192
v 2.1642308 0 -1.8073192
v -2.4287584 0 -1.1077118
v 2.4287584 0 -1.1077118
v -2.4287584 0.105610766 -1.1077118
v 2.4287584 0.105610766 -1.1077118
v 0 0.33003366 -0.7928885
v -2.4287584 0.105610766 -1.1077118
v 0 0.33003366 -0.7928885
v -2.5985954 0.11191249 -0.40810442
v 2.4287584 0.105610766 -1.1077118
v 2.5985954 0.11191249 -0.40810442
v 0 0.34972653 -0.7928885
v -2.4287584 0 -1.1077118
v -2.5985954 0 -0.40810442
v 2.4287584 0 -1.1077118
v 2.4287584 0 -1.1077118
v -2.5985954 0 -0.40810442
v 2.5985954 0 -0.40810442
v -2.5985954 0.11191249 -0.40810442
v 2.5985954 0.11191249 -0.40810442
v 0 0.34972653 -0.09328112
v -2.5985954 0.11191249 -0.40810442
v 0 0.34972653 -0.09328112
v -2.6571174 0.11408391 0.29150295
v 2.5985954 0.11191249 -0.40810442
v 2.6571174 0.11408391 0.29150295
v 0 0.35651222 -0.09328112
v -2.5985954 0 -0.40810442
v -2.6571174 0 0.29150295
v 2.5985954 0 -0.40810442
v 2.5985954 0 -0.40810442
v -2.6571174 0 0.29150295
v 2.6571174 0 0.29150295
v -2.6571174 0.11408391 0.29150295
v 2.6571174 0.11408391 0.29150295
v 0 0.35651222 0.6063262
v -2.6571174 0.11408391 0.29150295
v 0 0.35651222 0.6063262
v -2.5985954 0.11191249 0.9911103
v 2.6571174 0.11408391 0.29150295
v 2.5985954 0.11191249 0.9911103
v 0 0.34972653 0.6063262
v -2.6571174 0 0.29150295
v -2.5985954 0 0.9911103
v 2.6571174 0 0.29150295
v 2.6571174 0 0.29150295
v -2.5985954 0 0.9911103
v 2.5985954 0 0.9911103
v -2.5985954 0.11191249 0.9911103
v 2.5985954 0.11191249 0.9911103
v 0 0.34972653 1.3059336
v -2.5985954 0.11191249 0.9911103
v 0 0.34972653 1.3059336
v -2.4287584 0.105610766 1.6907177
v 2.5985954 0.11191249 0.9911103
v 2.4287584 0.105610766 1.6907177
v 0 0.33003366 1.3059336
v -2.5985954 0 0.9911103
v -2.4287584 0 1.6907177
v 2.5985954 0 0.9911103
v 2.5985954 0 0.9911103
v -2.4287584 0 1.6907177
v 2.4287584 0 1.6907177
v -2.4287584 0.105610766 1.6907177
v 2.4287584 0.105610766 1.6907177
v 0 0.33003366 2.005541
v -2.4287584 0.105610766 1.6907177
v 0 0.33003366 2.005541
v -2.6473432 0.0957956 2.390325
v 2.4287584 0.105610766 1.6907177
v 2.6473432 0.0957956 2.390325
v 0 0.29936126 2.005541
v -2.4287584 0 1.6907177
v -2.6473432 0 2.390325
v 2.4287584 0 1.6907177
v 2.4287584 0 1.6907177
v -2.6473432 0 2.390325
v 2.6473432 0 2.390325
v -2.6473432 0.0957956 2.390325
v 2.6473432 0.0957956 2.390325
v 0 0.29936126 2.7051485
v -2.6473432 0.0957956 2.390325
v 0 0.29936126 2.7051485
v -2.0724633 0.08342778 3.0899324
v 2.6473432 0.0957956 2.390325
v 2.0724633 0.08342778 3.0899324
v 0 0.26071182 2.7051485
v -2.6473432 0 2.390325
v -2.0724633 0 3.0899324
v 2.6473432 0 2.390325
v 2.6473432 0 2.390325
v -2.0724633 0 3.0899324
v 2.0724633 0 3.0899324
v -2.0724633 0.08342778 3.0899324
v 2.0724633 0.08342778 3.0899324
v 0 0.26071182 3.4047558
v -2.0724633 0.08342778 3.0899324
v 0 0.26071182 3.4047558
v -1.4614143 0.069717936 3.7895398
v 2.0724633 0.08342778 3.0899324
v 1.4614143 0.069717936 3.7895398
v 0 0.21786857 3.4047558
v -2.0724633 0 3.0899324
v -1.4614143 0 3.7895398
v 2.0724633 0 3.0899324
v 2.0724633 0 3.0899324
v -1.4614143 0 3.7895398
v 1.4614143 0 3.7895398
v -4.4838853 0.3961247 2.2154233
v 4.4838853 0.3961247 2.2154233
v 0 0.6139932 -1.7490184
v -4.4838853 0.3961247 2.2154233
v 0 0.6139932 -1.7490184
v -4.4838853 0.3961247 -2.2154233
v 4.4838853 0.3961247 2.2154233
v 4.4838853 0.3961247 -2.2154233
v 0 0.6139932 -1.7490184
v -4.4838853 0.36443472 2.2154233
v 4.4838853 0.36443472 2.2154233
v 4.4838853 0.36443472 -2.2154233
v -4.4838853 0.36443472 2.2154233
v 4.4838853 0.36443472 -2.2154233
v -4.4838853 0.36443472 -2.2154233
v -4.4838853 0.36443472 2.2154233
v -4.4838853 0.3961247 2.2154233
v 4.4838853 0.3961247 2.2154233
v -4.4838853 0.36443472 -2.2154233
v 4.4838853 0.3961247 -2.2154233
v -4.4838853 0.3961247 -2.2154233
v 4.4838853 0.36443472 -2.2154233
v 4.4838853 0.3961247 -2.2154233
v 4.4838853 0.3961247 2.2154233
v 4.4838853 0.36443472 2.2154233
v 4.4838853 0.3961247 2.2154233
v 4.4838853 0.3961247 -2.2154233
v -4.214852 0.3961247 -2.2154233
v -3.318075 0.3961247 -2.2154233
v -3.7664635 0.53476834 -1.6324172
v -4.214852 0.3961247 -2.2154233
v -3.7664635 0.53476834 -1.6324172
v -4.1251745 0.3961247 -1.6324172
v -3.318075 0.3961247 -2.2154233
v -3.4077528 0.3961247 -1.6324172
v -3.7664635 0.53476834 -1.6324172
v -0.44838855 0.3961247 -2.2154233
v 0.44838855 0.3961247 -2.2154233
v 0 0.53476834 -1.6324172
v -0.44838855 0.3961247 -2.2154233
v 0 0.53476834 -1.6324172
v -0.35871083 0.3961247 -1.6324172
v 0.44838855 0.3961247 -2.2154233
v 0.35871083 0.3961247 -1.6324172
v 0 0.53476834 -1.6324172
v 3.318075 0.3961247 -2.2154233
v 4.214852 0.3961247 -2.2154233
v 3.7664635 0.53476834 -1.6324172
v 3.318075 0.3961247 -2.2154233
v 3.7664635 0.53476834 -1.6324172
v 3.4077528 0.3961247 -1.6324172
v 4.214852 0.3961247 -2.2154233
v 4.1251745 0.3961247 -1.6324172
v 3.7664635 0.53476834 -1.6324172
v -4.214852 0.3961247 1.7490184
v -3.318075 0.3961247 1.7490184
v -3.7664635 0.71302444 2.3320246
v -4.214852 0.3961247 1.7490184
v -3.7664635 0.71302444 2.3320246
v -4.1251745 0.3961247 2.3320246
v -3.318075 0.3961247 1.7490184
v -3.4077528 0.3961247 2.3320246
v -3.7664635 0.71302444 2.3320246
v -0.44838855 0.3961247 1.7490184
v 0.44838855 0.3961247 1.7490184
v 0 0.71302444 2.3320246
v -0.44838855 0.3961247 1.7490184
v 0 0.71302444 2.3320246
v -0.35871083 0.3961247 2.3320246
v 0.44838855 0.3961247 1.7490184
v 0.35871083 0.3961247 2.3320246
v 0 0.71302444 2.3320246
v 3.318075 0.3961247 1.7490184
v 4.214852 0.3961247 1.7490184
v 3.7664635 0.71302444 2.3320246
v 3.318075 0.3961247 1.7490184
v 3.7664635 0.71302444 2.3320246
v 3.4077528 0.3961247 2.3320246
v 4.214852 0.3961247 1.7490184
v 4.1251745 0.3961247 2.3320246
v 3.7664635 0.71302444 2.3320246
v -0.66427934 0.33048114 0.19589005
v 0.66427934 0.33048114 0.19589005
v 0 1.0327536 0.23996532
v -0.66427934 0.33048114 0.19589005
v 0 1.0327536 0.23996532
v -0.61999404 0.37197992 0.29383507
v 0.66427934 0.33048114 0.19589005
v 0.61999404 0.37197992 0.29383507
v 0 1.1624373 0.23996532
v -0.66427934 0 0.19589005
v -0.61999404 0 0.29383507
v 0.66427934 0 0.19589005
v 0.66427934 0 0.19589005
v -0.61999404 0 0.29383507
v 0.61999404 0 0.29383507
v -0.61999404 0.37197992 0.29383507
v 0.61999404 0.37197992 0.29383507
v 0 1.1624373 0.33791035
v -0.61999404 0.37197992 0.29383507
v 0 1.1624373 0.33791035
v -0.57570875 0.41347873 0.3917801
v 0.61999404 0.37197992 0.29383507
v 0.57570875 0.41347873 0.3917801
v 0 1.292121 0.33791035
v -0.61999404 0 0.29383507
v -0.57570875 0 0.3917801
v 0.61999404 0 0.29383507
v 0.61999404 0 0.29383507
v -0.57570875 0 0.3917801
v 0.57570875 0 0.3917801
v -0.57570875 0.41347873 0.3917801
v 0.57570875 0.41347873 0.3917801
v 0 1.292121 0.43585536
v -0.57570875 0.41347873 0.3917801
v 0 1.292121 0.43585536
v -0.5314235 0.4549775 0.4897251
v 0.57570875 0.41347873 0.3917801
v 0.5314235 0.4549775 0.4897251
v 0 1.4218048 0.43585536
v -0.57570875 0 0.3917801
v -0.5314235 0 0.4897251
v 0.57570875 0 0.3917801
v 0.57570875 0 0.3917801
v -0.5314235 0 0.4897251
v 0.5314235 0 0.4897251
v -0.5314235 0.4549775 0.4897251
v 0.5314235 0.4549775 0.4897251
v 0 1.4218048 0.53380036
v -0.5314235 0.4549775 0.4897251
v 0 1.4218048 0.53380036
v -0.48713818 0.49647626 0.58767015
v 0.5314235 0.4549775 0.4897251
v 0.48713818 0.49647626 0.58767015
v 0 1.5514884 0.53380036
v -0.5314235 0 0.4897251
v -0.48713818 0 0.58767015
v 0.5314235 0 0.4897251
v 0.5314235 0 0.4897251
v -0.48713818 0 0.58767015
v 0.48713818 0 0.58767015
v -0.48713818 0.49647626 0.58767015
v 0.48713818 0.49647626 0.58767015
v 0 1.5514884 0.6317454
v -0.48713818 0.49647626 0.58767015
v 0 1.5514884 0.6317454
v -0.44285285 0.537975 0.6856152
v 0.48713818 0.49647626 0.58767015
v 0.44285285 0.537975 0.6856152
v 0 1.681172 0.6317454
v -0.48713818 0 0.58767015
v -0.44285285 0 0.6856152
v 0.48713818 0 0.58767015
v 0.48713818 0 0.58767015
v -0.44285285 0 0.6856152
v 0.44285285 0 0.6856152
v -0.44285285 0.537975 0.6856152
v 0.44285285 0.537975 0.6856152
v 0 1.681172 0.72969043
v -0.44285285 0.537975 0.6856152
v 0 1.681172 0.72969043
v -0.39856762 0.57947385 0.7835602
v 0.44285285 0.537975 0.6856152
v 0.39856762 0.57947385 0.7835602
v 0 1.8108557 0.72969043
v -0.44285285 0 0.6856152
v -0.39856762 0 0.7835602
v 0.44285285 0 0.6856152
v 0.44285285 0 0.6856152
v -0.39856762 0 0.7835602
v 0.39856762 0 0.7835602
v -2.3249776 0.11317848 -4.0162644
v -3.3612533 0 -6.296071
v -1.2887019 0 -6.296071
v -2.3249776 0.46686125 -3.4981265
v -2.946743 0.11317848 -4.0162644
v -1.7032121 0.11317848 -4.0162644
v 0 0.11317848 -4.0162644
v -1.0362757 0 -6.296071
v 1.0362757 0 -6.296071
v 0 0.46686125 -3.4981265
v -0.6217655 0.11317848 -4.0162644
v 0.6217655 0.11317848 -4.0162644
v 2.3249776 0.11317848 -4.0162644
v 1.2887019 0 -6.296071
v 3.3612533 0 -6.296071
v 2.3249776 0.46686125 -3.4981265
v 1.7032121 0.11317848 -4.0162644
v 2.946743 0.11317848 -4.0162644
v -0.7307072 0.5375978 -0.32389233
v -1.1957028 0.19806235 -0.7224599
v -0.2657117 0.19806235 -0.7224599
v 0.7307072 0.5375978 -0.78888786
v 0.2657117 0.19806235 -1.1874554
v 1.1957028 0.19806235 -1.1874554
vn 0 -0.9048204 0.42579338
vn 0 -0.9048204 0.42579338
vn 0 -0.9048204 0.42579338
vn 0.086713545 -0.99409235 0.06527783
vn 0.086713545 -0.99409235 0.06527783
vn 0.086713545 -0.99409235 0.06527783
vn -0.11247442 -0.99052405 0.07881332
vn -0.11247442 -0.99052405 0.07881332
vn -0.11247442 -0.99052405 0.07881332
vn 0 1 -0
vn 0 1 -0
vn 0 1 -0
vn 0 1 -0
vn 0 1 -0
vn 0 1 -0
vn 0 -0.8713438 0.490673
vn 0 -0.8713438 0.490673
vn 0 -0.8713438 0.490673
vn 0.08621441 -0.9945483 0.058658205
vn 0.08621441 -0.9945483 0.058658205
vn 0.08621441 -0.9945483 0.058658205
vn -0.10536163 -0.9921242 0.06773794
vn -0.10536163 -0.9921242 0.06773794
vn -0.10536163 -0.9921242 0.06773794
vn 0 1 -0
vn 0 1 -0
vn 0 1 -0
vn 0 0.99999994 -0
vn 0 0.99999994 -0
vn 0 0.99999994 -0
vn 0 -0.83974475 0.54298145
vn 0 -0.83974475 0.54298145
vn 0 -0.83974475 0.54298145
vn 0.08679593 -0.99512714 0.046779454
vn 0.08679593 -0.99512714 0.046779454
vn 0.08679593 -0.99512714 0.046779454
vn -0.10001424 -0.993639 0.05175653
vn -0.10001424 -0.993639 0.05175653
vn -0.10001424 -0.993639 0.05175653
vn 0 1 -0
vn 0 1 -0
vn 0 1 -0
vn 0 1 -0
vn 0 1 -0
vn 0 1 -0
vn 0 -0.8142847 0.58046573
vn 0 -0.8142847 0.58046573
vn 0 -0.8142847 0.58046573
vn 0.08806683 -0.99565214 0.030347494
vn 0.08806683 -0.99565214 0.030347494
vn 0.08806683 -0.99565214 0.030347494
vn -0.095818855 -0.9948771 0.032222398
vn -0.095818855 -0.9948771 0.032222398
vn -0.095818855 -0.9948771 0.032222398
vn 0 1 -0
vn 0 1 -0
vn 0 1 -0
vn 0 0.99999994 -0
vn 0 0.99999994 -0
vn 0 0.99999994 -0
vn 0 -0.79793125 0.6027484
vn 0 -0.79793125 0.6027484
vn 0 -0.79793125 0.6027484
vn 0.089855894 -0.99589825 0.010607462
vn 0.089855894 -0.99589825 0.010607462
vn 0.089855894 -0.99589825 0.010607462
vn -0.09240849 -0.9956624 0.010820254
vn -0.09240849 -0.9956624 0.010820254
vn -0.09240849 -0.9956624 0.010820254
vn 0 0.99999994 -0
vn 0 0.99999994 -0
vn 0 0.99999994 -0
vn 0 1 -0
vn 0 1 -0
vn 0 1 -0
vn 0 -0.7923118 0.61011624
vn 0 -0.7923118 0.61011624
vn 0 -0.7923118 0.61011624
vn 0.09212322 -0.9956891 -0.010796472
vn 0.09212322 -0.9956891 -0.010796472
vn 0.09212322 -0.9956891 -0.010796472
vn -0.089576095 -0.9959237 -0.010584136
vn -0.089576095 -0.9959237 -0.010584136
vn -0.089576095 -0.9959237 -0.010584136
vn 0 1 0
vn 0 1 0
vn 0 1 0
vn 0 1 0
vn 0 1 0
vn 0 1 0
vn 0 -0.79793125 0.6027485
vn 0 -0.79793125 0.6027485
vn 0 -0.79793125 0.6027485
vn 0.0949338 -0.9949689 -0.03200837
vn 0.0949338 -0.9949689 -0.03200837
vn 0.0949338 -0.9949689 -0.03200837
vn -0.08723201 -0.9957317 -0.03014555
vn -0.08723201 -0.9957317 -0.03014555
vn -0.08723201 -0.9957317 -0.03014555
vn 0 0.99999994 0
vn 0 0.99999994 0
vn 0 0.99999994 0
vn 0 1 0
vn 0 1 0
vn 0 1 0
vn 0 -0.81428474 0.58046556
vn 0 -0.81428474 0.58046556
vn 0 -0.81428474 0.58046556
vn 0.09017541 -0.99582464 0.014203383
vn 0.09017541 -0.99582464 0.014203383
vn 0.09017541 -0.99582464 0.014203383
vn -0.078171976 -0.9968853 0.010438158
vn -0.078171976 -0.9968853 0.010438158
vn -0.078171976 -0.9968853 0.010438158
vn 0 1 -0
vn 0 1 -0
vn 0 1 -0
vn 0 1 -0
vn 0 1 -0
vn 0 1 -0
vn 0 -0.8397448 0.54298127
vn 0 -0.8397448 0.54298127
vn 0 -0.8397448 0.54298127
vn 0.08687296 -0.9922426 -0.08892616
vn 0.08687296 -0.9922426 -0.08892616
vn 0.08687296 -0.9922426 -0.08892616
vn -0.07098515 -0.9945845 -0.075912274
vn -0.07098515 -0.9945845 -0.075912274
vn -0.07098515 -0.9945845 -0.075912274
vn 0 1 0
vn 0 1 0
vn 0 1 0
vn 0 1 0
vn 0 1 0
vn 0 1 0
vn 0 -0.8713438 0.49067304
vn 0 -0.8713438 0.49067304
vn 0 -0.8713438 0.49067304
vn 0.1009445 -0.9890619 -0.107548766
vn 0.1009445 -0.9890619 -0.107548766
vn 0.1009445 -0.9890619 -0.107548766
vn -0.077689685 -0.9931464 -0.08731767
vn -0.077689685 -0.9931464 -0.08731767
vn -0.077689685 -0.9931464 -0.08731767
vn 0 1 0
vn 0 1 0
vn 0 1 0
vn 0 1 0
vn 0 1 0
vn 0 1 0
vn -0 0.9984934 0.054872867
vn -0 0.9984934 0.054872867
vn -0 0.9984934 0.054872867
vn -0.048531972 0.99882156 0
vn -0.048531972 0.99882156 0
vn -0.048531972 0.99882156 0
vn 0.048531972 0.99882156 0
vn 0.048531972 0.99882156 0
vn 0.048531972 0.99882156 0
vn -0 1 0
vn -0 1 0
vn -0 1 0
vn 0 1 0
vn 0 1 0
vn 0 1 0
vn 0 0 -1
vn 0 0 -1
vn 0 0 -1
vn 0 0 1
vn 0 0 1
vn 0 0 1
vn 1 0 0
vn 1 0 0
vn 1 0 0
vn -1 0 0
vn -1 0 0
vn -1 0 0
vn 0 -0.97286916 0.2313563
vn 0 -0.97286916 0.2313563
vn 0 -0.97286916 0.2313563
vn 0.3599611 -0.9313228 -0.055368796
vn 0.3599611 -0.9313228 -0.055368796
vn 0.3599611 -0.9313228 -0.055368796
vn -0.35996133 -0.9313228 -0.055369128
vn -0.35996133 -0.9313228 -0.055369128
vn -0.35996133 -0.9313228 -0.055369128
vn 0 -0.97286904 0.23135626
vn 0 -0.97286904 0.23135626
vn 0 -0.97286904 0.23135626
vn 0.35996124 -0.93132275 -0.05536906
vn 0.35996124 -0.93132275 -0.05536906
vn 0.35996124 -0.93132275 -0.05536906
vn -0.35996124 -0.93132275 -0.05536906
vn -0.35996124 -0.93132275 -0.05536906
vn -0.35996124 -0.93132275 -0.05536906
vn 0 -0.97286916 0.2313563
vn 0 -0.97286916 0.2313563
vn 0 -0.97286916 0.2313563
vn 0.35996133 -0.9313228 -0.055369128
vn 0.35996133 -0.9313228 -0.055369128
vn 0.35996133 -0.9313228 -0.055369128
vn -0.3599611 -0.9313228 -0.055368796
vn -0.3599611 -0.9313228 -0.055368796
vn -0.3599611 -0.9313228 -0.055368796
vn 0 -0.8785938 0.47756988
vn 0 -0.8785938 0.47756988
vn 0 -0.8785938 0.47756988
vn 0.6586728 -0.74557704 -0.10131629
vn 0.6586728 -0.74557704 -0.10131629
vn 0.6586728 -0.74557704 -0.10131629
vn -0.6586729 -0.74557674 -0.101316854
vn -0.6586729 -0.74557674 -0.101316854
vn -0.6586729 -0.74557674 -0.101316854
vn 0 -0.87859386 0.47756985
vn 0 -0.87859386 0.47756985
vn 0 -0.87859386 0.47756985
vn 0.6586729 -0.74557686 -0.10131674
vn 0.6586729 -0.74557686 -0.10131674
vn 0.6586729 -0.74557686 -0.10131674
vn -0.6586729 -0.74557686 -0.10131674
vn -0.6586729 -0.74557686 -0.10131674
vn -0.6586729 -0.74557686 -0.10131674
vn 0 -0.8785938 0.47756988
vn 0 -0.8785938 0.47756988
vn 0 -0.8785938 0.47756988
vn 0.6586729 -0.74557674 -0.101316854
vn 0.6586729 -0.74557674 -0.101316854
vn 0.6586729 -0.74557674 -0.101316854
vn -0.6586728 -0.74557704 -0.10131629
vn -0.6586728 -0.74557704 -0.10131629
vn -0.6586728 -0.74557704 -0.10131629
vn 0 -0.06263768 0.9980363
vn 0 -0.06263768 0.9980363
vn 0 -0.06263768 0.9980363
vn 0.7271513 -0.68540376 -0.038375497
vn 0.7271513 -0.68540376 -0.038375497
vn 0.7271513 -0.68540376 -0.038375497
vn -0.7805647 -0.6184297 -0.09090263
vn -0.7805647 -0.6184297 -0.09090263
vn -0.7805647 -0.6184297 -0.09090263
vn 0 1 0
vn 0 1 0
vn 0 1 0
vn 0 1 0
vn 0 1 0
vn 0 1 0
vn 0 -0.05567273 0.9984491
vn 0 -0.05567273 0.9984491
vn 0 -0.05567273 0.9984491
vn 0.7857772 -0.6109463 -0.09642993
vn 0.7857772 -0.6109463 -0.09642993
vn 0.7857772 -0.6109463 -0.09642993
vn -0.8242161 -0.54864347 -0.14020726
vn -0.8242161 -0.54864347 -0.14020726
vn -0.8242161 -0.54864347 -0.14020726
vn 0 1 0
vn 0 1 0
vn 0 1 0
vn 0 1 0
vn 0 1 0
vn 0 1 0
vn 0 -0.050099906 0.9987442
vn 0 -0.050099906 0.9987442
vn 0 -0.050099906 0.9987442
vn 0.830605 -0.5368037 -0.14811209
vn 0.830605 -0.5368037 -0.14811209
vn 0.830605 -0.5368037 -0.14811209
vn -0.85709363 -0.48133692 -0.18358979
vn -0.85709363 -0.48133692 -0.18358979
vn -0.85709363 -0.48133692 -0.18358979
vn 0 1 0
vn 0 1 0
vn 0 1 0
vn 0 1 0
vn 0 1 0
vn 0 1 0
vn 0 -0.045540217 0.99896246
vn 0 -0.045540217 0.99896246
vn 0 -0.045540217 0.99896246
vn 0.86354345 -0.46585128 -0.19306804
vn 0.86354345 -0.46585128 -0.19306804
vn 0.86354345 -0.46585128 -0.19306804
vn -0.8810506 -0.41810894 -0.22121197
vn -0.8810506 -0.41810894 -0.22121197
vn -0.8810506 -0.41810894 -0.22121197
vn 0 1 0
vn 0 1 0
vn 0 1 0
vn 0 1 0
vn 0 1 0
vn 0 1 0
vn 0 -0.041740596 0.99912846
vn 0 -0.041740596 0.99912846
vn 0 -0.041740596 0.99912846
vn 0.8868556 -0.3998191 -0.23158596
vn 0.8868556 -0.3998191 -0.23158596
vn 0.8868556 -0.3998191 -0.23158596
vn -0.8979229 -0.35978615 -0.2535517
vn -0.8979229 -0.35978615 -0.2535517
vn -0.8979229 -0.35978615 -0.2535517
vn 0 1 0
vn 0 1 0
vn 0 1 0
vn 0 1 0
vn 0 1 0
vn 0 1 0
vn 0 -0.038525756 0.9992577
vn 0 -0.038525756 0.9992577
vn 0 -0.038525756 0.9992577
vn 0.902707 -0.33950132 -0.2643083
vn 0.902707 -0.33950132 -0.2643083
vn 0.902707 -0.33950132 -0.2643083
vn -0.90933293 -0.3066315 -0.28123093
vn -0.90933293 -0.3066315 -0.28123093
vn -0.90933293 -0.3066315 -0.28123093
vn 0 1 0
vn 0 1 0
vn 0 1 0
vn 0 1 0
vn 0 1 0
vn 0 1 0
vn 0 -0.99877 0.04958283
vn 0 -0.99877 0.04958283
vn 0 -0.99877 0.04958283
vn 0 -0.82592535 0.56377953
vn 0 -0.82592535 0.56377953
vn 0 -0.82592535 0.56377953
vn 0 -0.99877 0.04958283
vn 0 -0.99877 0.04958283
vn 0 -0.99877 0.04958283
vn 0 -0.82592535 0.56377953
vn 0 -0.82592535 0.56377953
vn 0 -0.82592535 0.56377953
vn 0 -0.99877 0.04958283
vn 0 -0.99877 0.04958283
vn 0 -0.99877 0.04958283
vn 0 -0.82592535 0.56377953
vn 0 -0.82592535 0.56377953
vn 0 -0.82592535 0.56377953
vn 0 -0.7612292 0.6484829
vn 0 -0.7612292 0.6484829
vn 0 -0.7612292 0.6484829
vn 0 -0.7612292 0.6484829
vn 0 -0.7612292 0.6484829
vn 0 -0.7612292 0.6484829
f 1//1 2//2 3//3
f 4//4 5//5 6//6
f 7//7 8//8 9//9
f 10//10 11//11 12//12
f 13//13 14//14 15//15
f 16//16 17//17 18//18
f 19//19 20//20 21//21
f 22//22 23//23 24//24
f 25//25 26//26 27//27
f 28//28 29//29 30//30
f 31//31 32//32 33//33
f 34//34 35//35 36//36
f 37//37 38//38 39//39
f 40//40 41//41 42//42
f 43//43 44//44 45//45
f 46//46 47//47 48//48
f 49//49 50//50 51//51
f 52//52 53//53 54//54
f 55//55 56//56 57//57
f 58//58 59//59 60//60
f 61//61 62//62 63//63
f 64//64 65//65 66//66
f 67//67 68//68 69//69
f 70//70 71//71 72//72
f 73//73 74//74 75//75
f 76//76 77//77 78//78
f 79//79 80//80 81//81
f 82//82 83//83 84//84
f 85//85 86//86 87//87
f 88//88 89//89 90//90
f 91//91 92//92 93//93
f 94//94 95//95 96//96
f 97//97 98//98 99//99
f 100//100 101//101 102//102
f 103//103 104//104 105//105
f 106//106 107//107 108//108
f 109//109 110//110 111//111
f 112//112 113//113 114//114
f 115//115 116//116 117//117
f 118//118 119//119 120//120
f 121//121 122//122 123//123
f 124//124 125//125 126//126
f 127//127 128//128 129//129
f 130//130 131//131 132//132
f 133//133 134//134 135//135
f 136//136 137//137 138//138
f 139//139 140//140 141//141
f 142//142 143//143 144//144
f 145//145 146//146 147//147
f 148//148 149//149 150//150
f 151//151 152//152 153//153
f 154//154 155//155 156//156
f 157//157 158//158 159//159
f 160//160 161//161 162//162
f 163//163 164//164 165//165
f 166//166 167//167 168//168
f 169//169 170//170 171//171
f 172//172 173//173 174//174
f 175//175 176//176 177//177
f 178//178 179//179 180//180
f 181//181 182//182 183//183
f 184//184 185//185 186//186
f 187//187 188//188 189//189
f 190//190 191//191 192//192
f 193//193 194//194 195//195
f 196//196 197//197 198//198
f 199//199 200//200 201//201
f 202//202 203//203 204//204
f 205//205 206//206 207//207
f 208//208 209//209 210//210
f 211//211 212//212 213//213
f 214//214 215//215 216//216
f 217//217 218//218 219//219
f 220//220 221//221 222//222
f 223//223 224//224 225//225
f 226//226 227//227 228//228
f 229//229 230//230 231//231
f 232//232 233//233 234//234
f 235//235 236//236 237//237
f 238//238 239//239 240//240
f 241//241 242//242 243//243
f 244//244 245//245 246//246
f 247//247 248//248 249//249
f 250//250 251//251 252//252
f 253//253 254//254 255//255
f 256//256 257//257 258//258
f 259//259 260//260 261//261
f 262//262 263//263 264//264
f 265//265 266//266 267//267
f 268//268 269//269 270//270
f 271//271 272//272 273//273
f 274//274 275//275 276//276
f 277//277 278//278 279//279
f 280//280 281//281 282//282
f 283//283 284//284 285//285
f 286//286 287//287 288//288
f 289//289 290//290 291//291
f 292//292 293//293 294//294
f 295//295 296//296 297//297
f 298//298 299//299 300//300
f 301//301 302//302 303//303
f 304//304 305//305 306//306
f 307//307 308//308 309//309
f 310//310 311//311 312//312
f 313//313 314//314 315//315
f 316//316 317//317 318//318
f 319//319 320//320 321//321
f 322//322 323//323 324//324
f 325//325 326//326 327//327
f 328//328 329//329 330//330
f 331//331 332//332 333//333
f 334//334 335//335 336//336
f 337//337 338//338 339//339
f 340//340 341//341 342//342
f 343//343 344//344 345//345
