# Exported from SharpOpenGl procedural mesh
o solari_interceptor_mk1_02
# vertices 345
v -0.24054569 0.017112158 -1.3254753
v 0.24054569 0.017112158 -1.3254753
v 0 0.053475495 -1.1953378
v -0.24054569 0.017112158 -1.3254753
v 0 0.053475495 -1.1953378
v -0.30136335 0.020477217 -1.0362808
v 0.24054569 0.017112158 -1.3254753
v 0.30136335 0.020477217 -1.0362808
v 0 0.0639913 -1.1953378
v -0.24054569 0 -1.3254753
v -0.30136335 0 -1.0362808
v 0.24054569 0 -1.3254753
v 0.24054569 0 -1.3254753
v -0.30136335 0 -1.0362808
v 0.30136335 0 -1.0362808
v -0.30136335 0.020477217 -1.0362808
v 0.30136335 0.020477217 -1.0362808
v 0 0.0639913 -0.9061432
v -0.30136335 0.020477217 -1.0362808
v 0 0.0639913 -0.9061432
v -0.3562278 0.023512878 -0.7470861
v 0.30136335 0.020477217 -1.0362808
v 0.3562278 0.023512878 -0.7470861
v 0 0.073477745 -0.9061432
v -0.30136335 0 -1.0362808
v -0.3562278 0 -0.7470861
v 0.30136335 0 -1.0362808
v 0.30136335 0 -1.0362808
v -0.3562278 0 -0.7470861
v 0.3562278 0 -0.7470861
v -0.3562278 0.023512878 -0.7470861
v 0.3562278 0.023512878 -0.7470861
v 0 0.073477745 -0.6169485
v -0.3562278 0.023512878 -0.7470861
v 0 0.073477745 -0.6169485
v -0.3997684 0.025921993 -0.45789146
v 0.3562278 0.023512878 -0.7470861
v 0.3997684 0.025921993 -0.45789146
v 0 0.08100623 -0.6169485
v -0.3562278 0 -0.7470861
v -0.3997684 0 -0.45789146
v 0.3562278 0 -0.7470861
v 0.3562278 0 -0.7470861
v -0.3997684 0 -0.45789146
v 0.3997684 0 -0.45789146
v -0.3997684 0.025921993 -0.45789146
v 0.3997684 0.025921993 -0.45789146
v 0 0.08100623 -0.3277539
v -0.3997684 0.025921993 -0.45789146
v 0 0.08100623 -0.3277539
v -0.42772323 0.027468741 -0.16869688
v 0.3997684 0.025921993 -0.45789146
v 0.42772323 0.027468741 -0.16869688
v 0 0.085839815 -0.3277539
v -0.3997684 0 -0.45789146
v -0.42772323 0 -0.16869688
v 0.3997684 0 -0.45789146
v 0.3997684 0 -0.45789146
v -0.42772323 0 -0.16869688
v 0.42772323 0 -0.16869688
v -0.42772323 0.027468741 -0.16869688
v 0.42772323 0.027468741 -0.16869688
v 0 0.085839815 -0.038559318
v -0.42772323 0.027468741 -0.16869688
v 0 0.085839815 -0.038559318
v -0.43735582 0.02800171 0.1204977
v 0.42772323 0.027468741 -0.16869688
v 0.43735582 0.02800171 0.1204977
v 0 0.08750535 -0.038559318
v -0.42772323 0 -0.16869688
v -0.43735582 0 0.1204977
v 0.42772323 0 -0.16869688
v 0.42772323 0 -0.16869688
v -0.43735582 0 0.1204977
v 0.43735582 0 0.1204977
v -0.43735582 0.02800171 0.1204977
v 0.43735582 0.02800171 0.1204977
v 0 0.08750535 0.25063533
v -0.43735582 0.02800171 0.1204977
v 0 0.08750535 0.25063533
v -0.42772323 0.027468741 0.4096924
v 0.43735582 0.02800171 0.1204977
v 0.42772323 0.027468741 0.4096924
v 0 0.085839815 0.25063533
v -0.43735582 0 0.1204977
v -0.42772323 0 0.4096924
v 0.43735582 0 0.1204977
v 0.43735582 0 0.1204977
v -0.42772323 0 0.4096924
v 0.42772323 0 0.4096924
v -0.42772323 0.027468741 0.4096924
v 0.42772323 0.027468741 0.4096924
v 0 0.085839815 0.53982997
v -0.42772323 0.027468741 0.4096924
v 0 0.085839815 0.53982997
v -0.3997684 0.025921993 0.698887
v 0.42772323 0.027468741 0.4096924
v 0.3997684 0.025921993 0.698887
v 0 0.08100623 0.53982997
v -0.42772323 0 0.4096924
v -0.3997684 0 0.698887
v 0.42772323 0 0.4096924
v 0.42772323 0 0.4096924
v -0.3997684 0 0.698887
v 0.3997684 0 0.698887
v -0.3997684 0.025921993 0.698887
v 0.3997684 0.025921993 0.698887
v 0 0.08100623 0.82902455
v -0.3997684 0.025921993 0.698887
v 0 0.08100623 0.82902455
v -0.435747 0.023512876 0.9880816
v 0.3997684 0.025921993 0.698887
v 0.435747 0.023512876 0.9880816
v 0 0.07347774 0.82902455
v -0.3997684 0 0.698887
v -0.435747 0 0.9880816
v 0.3997684 0 0.698887
v 0.3997684 0 0.698887
v -0.435747 0 0.9880816
v 0.435747 0 0.9880816
v -0.435747 0.023512876 0.9880816
v 0.435747 0.023512876 0.9880816
v 0 0.07347774 1.1182191
v -0.435747 0.023512876 0.9880816
v 0 0.07347774 1.1182191
v -0.341123 0.020477217 1.2772762
v 0.435747 0.023512876 0.9880816
v 0.341123 0.020477217 1.2772762
v 0 0.0639913 1.1182191
v -0.435747 0 0.9880816
v -0.341123 0 1.2772762
v 0.435747 0 0.9880816
v 0.435747 0 0.9880816
v -0.341123 0 1.2772762
v 0.341123 0 1.2772762
v -0.341123 0.020477217 1.2772762
v 0.341123 0.020477217 1.2772762
v 0 0.0639913 1.4074137
v -0.341123 0.020477217 1.2772762
v 0 0.0639913 1.4074137
v -0.24054568 0.017112156 1.5664707
v 0.341123 0.020477217 1.2772762
v 0.24054568 0.017112156 1.5664707
v 0 0.053475488 1.4074137
v -0.341123 0 1.2772762
v -0.24054568 0 1.5664707
v 0.341123 0 1.2772762
v 0.341123 0 1.2772762
v -0.24054568 0 1.5664707
v 0.24054568 0 1.5664707
v -0.73803794 0.09722817 0.91578287
v 0.73803794 0.09722817 0.91578287
v 0 0.15070365 -0.72298646
v -0.73803794 0.09722817 0.91578287
v 0 0.15070365 -0.72298646
v -0.73803794 0.09722817 -0.91578287
v 0.73803794 0.09722817 0.91578287
v 0.73803794 0.09722817 -0.91578287
v 0 0.15070365 -0.72298646
v -0.73803794 0.08944992 0.91578287
v 0.73803794 0.08944992 0.91578287
v 0.73803794 0.08944992 -0.91578287
v -0.73803794 0.08944992 0.91578287
v 0.73803794 0.08944992 -0.91578287
v -0.73803794 0.08944992 -0.91578287
v -0.73803794 0.08944992 0.91578287
v -0.73803794 0.09722817 0.91578287
v 0.73803794 0.09722817 0.91578287
v -0.73803794 0.08944992 -0.91578287
v 0.73803794 0.09722817 -0.91578287
v -0.73803794 0.09722817 -0.91578287
v 0.73803794 0.08944992 -0.91578287
v 0.73803794 0.09722817 -0.91578287
v 0.73803794 0.09722817 0.91578287
v 0.73803794 0.08944992 0.91578287
v 0.73803794 0.09722817 0.91578287
v 0.73803794 0.09722817 -0.91578287
v -0.6937556 0.09722817 -0.91578287
v -0.54614806 0.09722817 -0.91578287
v -0.61995184 0.13125803 -0.67478734
v -0.6937556 0.09722817 -0.91578287
v -0.61995184 0.13125803 -0.67478734
v -0.6789949 0.09722817 -0.67478734
v -0.54614806 0.09722817 -0.91578287
v -0.5609088 0.09722817 -0.67478734
v -0.61995184 0.13125803 -0.67478734
v -0.0738038 0.09722817 -0.91578287
v 0.0738038 0.09722817 -0.91578287
v 0 0.13125803 -0.67478734
v -0.0738038 0.09722817 -0.91578287
v 0 0.13125803 -0.67478734
v -0.059043035 0.09722817 -0.67478734
v 0.0738038 0.09722817 -0.91578287
v 0.059043035 0.09722817 -0.67478734
v 0 0.13125803 -0.67478734
v 0.54614806 0.09722817 -0.91578287
v 0.6937556 0.09722817 -0.91578287
v 0.61995184 0.13125803 -0.67478734
v 0.54614806 0.09722817 -0.91578287
v 0.61995184 0.13125803 -0.67478734
v 0.5609088 0.09722817 -0.67478734
v 0.6937556 0.09722817 -0.91578287
v 0.6789949 0.09722817 -0.67478734
v 0.61995184 0.13125803 -0.67478734
v -0.6937556 0.09722817 0.7229865
v -0.54614806 0.09722817 0.7229865
v -0.61995184 0.1750107 0.96398205
v -0.6937556 0.09722817 0.7229865
v -0.61995184 0.1750107 0.96398205
v -0.6789949 0.09722817 0.96398205
v -0.54614806 0.09722817 0.7229865
v -0.5609088 0.09722817 0.96398205
v -0.61995184 0.1750107 0.96398205
v -0.0738038 0.09722817 0.7229865
v 0.0738038 0.09722817 0.7229865
v 0 0.1750107 0.96398205
v -0.0738038 0.09722817 0.7229865
v 0 0.1750107 0.96398205
v -0.059043035 0.09722817 0.96398205
v 0.0738038 0.09722817 0.7229865
v 0.059043035 0.09722817 0.96398205
v 0 0.1750107 0.96398205
v 0.54614806 0.09722817 0.7229865
v 0.6937556 0.09722817 0.7229865
v 0.61995184 0.1750107 0.96398205
v 0.54614806 0.09722817 0.7229865
v 0.61995184 0.1750107 0.96398205
v 0.5609088 0.09722817 0.96398205
v 0.6937556 0.09722817 0.7229865
v 0.6789949 0.09722817 0.96398205
v 0.61995184 0.1750107 0.96398205
v -0.109338954 0.081116065 0.08097449
v 0.109338954 0.081116065 0.08097449
v 0 0.2534877 0.09919375
v -0.109338954 0.081116065 0.08097449
v 0 0.2534877 0.09919375
v -0.10204969 0.09130188 0.121461734
v 0.109338954 0.081116065 0.08097449
v 0.10204969 0.09130188 0.121461734
v 0 0.28531837 0.09919375
v -0.109338954 0 0.08097449
v -0.10204969 0 0.121461734
v 0.109338954 0 0.08097449
v 0.109338954 0 0.08097449
v -0.10204969 0 0.121461734
v 0.10204969 0 0.121461734
v -0.10204969 0.09130188 0.121461734
v 0.10204969 0.09130188 0.121461734
v 0 0.28531837 0.139681
v -0.10204969 0.09130188 0.121461734
v 0 0.28531837 0.139681
v -0.094760425 0.10148769 0.16194898
v 0.10204969 0.09130188 0.121461734
v 0.094760425 0.10148769 0.16194898
v 0 0.31714904 0.139681
v -0.10204969 0 0.121461734
v -0.094760425 0 0.16194898
v 0.10204969 0 0.121461734
v 0.10204969 0 0.121461734
v -0.094760425 0 0.16194898
v 0.094760425 0 0.16194898
v -0.094760425 0.10148769 0.16194898
v 0.094760425 0.10148769 0.16194898
v 0 0.31714904 0.18016824
v -0.094760425 0.10148769 0.16194898
v 0 0.31714904 0.18016824
v -0.087471165 0.1116735 0.20243622
v 0.094760425 0.10148769 0.16194898
v 0.087471165 0.1116735 0.20243622
v 0 0.34897968 0.18016824
v -0.094760425 0 0.16194898
v -0.087471165 0 0.20243622
v 0.094760425 0 0.16194898
v 0.094760425 0 0.16194898
v -0.087471165 0 0.20243622
v 0.087471165 0 0.20243622
v -0.087471165 0.1116735 0.20243622
v 0.087471165 0.1116735 0.20243622
v 0 0.34897968 0.22065549
v -0.087471165 0.1116735 0.20243622
v 0 0.34897968 0.22065549
v -0.080181904 0.1218593 0.24292347
v 0.087471165 0.1116735 0.20243622
v 0.080181904 0.1218593 0.24292347
v 0 0.38081032 0.22065549
v -0.087471165 0 0.20243622
v -0.080181904 0 0.24292347
v 0.087471165 0 0.20243622
v 0.087471165 0 0.20243622
v -0.080181904 0 0.24292347
v 0.080181904 0 0.24292347
v -0.080181904 0.1218593 0.24292347
v 0.080181904 0.1218593 0.24292347
v 0 0.38081032 0.26114273
v -0.080181904 0.1218593 0.24292347
v 0 0.38081032 0.26114273
v -0.07289263 0.1320451 0.28341073
v 0.080181904 0.1218593 0.24292347
v 0.07289263 0.1320451 0.28341073
v 0 0.41264096 0.26114273
v -0.080181904 0 0.24292347
v -0.07289263 0 0.28341073
v 0.080181904 0 0.24292347
v 0.080181904 0 0.24292347
v -0.07289263 0 0.28341073
v 0.07289263 0 0.28341073
v -0.07289263 0.1320451 0.28341073
v 0.07289263 0.1320451 0.28341073
v 0 0.41264096 0.30163
v -0.07289263 0.1320451 0.28341073
v 0 0.41264096 0.30163
v -0.065603375 0.14223091 0.32389796
v 0.07289263 0.1320451 0.28341073
v 0.065603375 0.14223091 0.32389796
v 0 0.44447163 0.30163
v -0.07289263 0 0.28341073
v -0.065603375 0 0.32389796
v 0.07289263 0 0.28341073
v 0.07289263 0 0.28341073
v -0.065603375 0 0.32389796
v 0.065603375 0 0.32389796
v -0.45922357 0.027779477 -1.6601913
v -0.5773096 0 -1.9199806
v -0.3411375 0 -1.9199806
v -0.45922357 0.11459034 -1.6011482
v -0.5300752 0.027779477 -1.6601913
v -0.38837194 0.027779477 -1.6601913
v -0.15307453 0.027779477 -1.6601913
v -0.2711606 0 -1.9199806
v -0.03498847 0 -1.9199806
v -0.15307453 0.11459034 -1.6011482
v -0.22392617 0.027779477 -1.6601913
v -0.082222894 0.027779477 -1.6601913
v 0.15307453 0.027779477 -1.6601913
v 0.03498847 0 -1.9199806
v 0.2711606 0 -1.9199806
v 0.15307453 0.11459034 -1.6011482
v 0.082222894 0.027779477 -1.6601913
v 0.22392617 0.027779477 -1.6601913
v 0.45922357 0.027779477 -1.6601913
v 0.3411375 0 -1.9199806
v 0.5773096 0 -1.9199806
v 0.45922357 0.11459034 -1.6011482
v 0.38837194 0.027779477 -1.6601913
v 0.5300752 0.027779477 -1.6601913
vn 0 -0.9631083 0.26911393
vn 0 -0.9631083 0.26911393
vn 0 -0.9631083 0.26911393
vn 0.12889275 -0.9909056 0.038636304
vn 0.12889275 -0.9909056 0.038636304
vn 0.12889275 -0.9909056 0.038636304
vn -0.16676916 -0.9848973 0.046531808
vn -0.16676916 -0.9848973 0.046531808
vn -0.16676916 -0.9848973 0.046531808
vn 0 1 -0
vn 0 1 -0
vn 0 1 -0
vn 0 1 -0
vn 0 1 -0
vn 0 1 -0
vn 0 -0.948388 0.31711242
vn 0 -0.948388 0.31711242
vn 0 -0.948388 0.31711242
vn 0.12812376 -0.99115056 0.034711
vn 0.12812376 -0.99115056 0.034711
vn 0.12812376 -0.99115056 0.034711
vn -0.15628813 -0.9869008 0.04000958
vn -0.15628813 -0.9869008 0.04000958
vn -0.15628813 -0.9869008 0.04000958
vn 0 1 -0
vn 0 1 -0
vn 0 1 -0
vn 0 1 -0
vn 0 1 -0
vn 0 1 -0
vn 0 -0.93355715 0.35842872
vn 0 -0.93355715 0.35842872
vn 0 -0.93355715 0.35842872
vn 0.1289282 -0.9912679 0.027668884
vn 0.1289282 -0.9912679 0.027668884
vn 0.1289282 -0.9912679 0.027668884
vn -0.14836393 -0.9884601 0.030571707
vn -0.14836393 -0.9884601 0.030571707
vn -0.14836393 -0.9884601 0.030571707
vn 0 1 -0
vn 0 1 -0
vn 0 1 -0
vn 0 1 -0
vn 0 1 -0
vn 0 1 -0
vn 0 -0.9209012 0.3897963
vn 0 -0.9209012 0.3897963
vn 0 -0.9209012 0.3897963
vn 0.13074511 -0.9912536 0.017940085
vn 0.13074511 -0.9912536 0.017940085
vn 0.13074511 -0.9912536 0.017940085
vn -0.14213641 -0.9896641 0.019032715
vn -0.14213641 -0.9896641 0.019032715
vn -0.14213641 -0.9896641 0.019032715
vn 0 1 -0
vn 0 1 -0
vn 0 1 -0
vn 0 1 -0
vn 0 1 -0
vn 0 1 -0
vn 0 -0.9124216 0.40925175
vn 0 -0.9124216 0.40925175
vn 0 -0.9124216 0.40925175
vn 0.13334088 -0.99105036 0.0062678135
vn 0.13334088 -0.99105036 0.0062678135
vn 0.13334088 -0.99105036 0.0062678135
vn -0.13709036 -0.99053794 0.0063917576
vn -0.13709036 -0.99053794 0.0063917576
vn -0.13709036 -0.99053794 0.0063917576
vn 0 1 -0
vn 0 1 -0
vn 0 1 -0
vn 0 1 -0
vn 0 1 -0
vn 0 1 -0
vn 0 -0.90944237 0.41583002
vn 0 -0.90944237 0.41583002
vn 0 -0.90944237 0.41583002
vn 0.13667148 -0.99059594 -0.00637791
vn 0.13667148 -0.99059594 -0.00637791
vn 0.13667148 -0.99059594 -0.00637791
vn -0.13292971 -0.99110574 -0.0062542176
vn -0.13292971 -0.99110574 -0.0062542176
vn -0.13292971 -0.99110574 -0.0062542176
vn 0 1 0
vn 0 1 0
vn 0 1 0
vn 0 1 0
vn 0 1 0
vn 0 1 0
vn 0 -0.9124216 0.40925175
vn 0 -0.9124216 0.40925175
vn 0 -0.9124216 0.40925175
vn 0.14083733 -0.98985225 -0.018908147
vn 0.14083733 -0.98985225 -0.018908147
vn 0.14083733 -0.98985225 -0.018908147
vn -0.12951675 -0.99141705 -0.017822219
vn -0.12951675 -0.99141705 -0.017822219
vn -0.12951675 -0.99141705 -0.017822219
vn 0 1 0
vn 0 1 0
vn 0 1 0
vn 0 1 0
vn 0 1 0
vn 0 1 0
vn 0 -0.9209012 0.3897963
vn 0 -0.9209012 0.3897963
vn 0 -0.9209012 0.3897963
vn 0.13381419 -0.99097085 0.008392549
vn 0.13381419 -0.99097085 0.008392549
vn 0.13381419 -0.99097085 0.008392549
vn -0.11614072 -0.99321353 0.00617512
vn -0.11614072 -0.99321353 0.00617512
vn -0.11614072 -0.99321353 0.00617512
vn 0 1 -0
vn 0 1 -0
vn 0 1 -0
vn 0 1 -0
vn 0 1 -0
vn 0 1 -0
vn 0 -0.933557 0.35842878
vn 0 -0.933557 0.35842878
vn 0 -0.933557 0.35842878
vn 0.12927923 -0.9902071 -0.052694093
vn 0.12927923 -0.9902071 -0.052694093
vn 0.12927923 -0.9902071 -0.052694093
vn -0.10572445 -0.9933758 -0.045020267
vn -0.10572445 -0.9933758 -0.045020267
vn -0.10572445 -0.9933758 -0.045020267
vn 0 1 0
vn 0 1 0
vn 0 1 0
vn 0 1 0
vn 0 1 0
vn 0 1 0
vn 0 -0.9483879 0.3171124
vn 0 -0.9483879 0.3171124
vn 0 -0.9483879 0.3171124
vn 0.15015502 -0.9866081 -0.063701704
vn 0.15015502 -0.9866081 -0.063701704
vn 0.15015502 -0.9866081 -0.063701704
vn -0.115709275 -0.9919324 -0.051783964
vn -0.115709275 -0.9919324 -0.051783964
vn -0.115709275 -0.9919324 -0.051783964
vn 0 1 0
vn 0 1 0
vn 0 1 0
vn 0 1 0
vn 0 1 0
vn 0 1 0
vn -0 0.999468 0.03261413
vn -0 0.999468 0.03261413
vn -0 0.999468 0.03261413
vn -0.072266825 0.99738526 0
vn -0.072266825 0.99738526 0
vn -0.072266825 0.99738526 0
vn 0.072266825 0.99738526 0
vn 0.072266825 0.99738526 0
vn 0.072266825 0.99738526 0
vn -0 0.99999994 0
vn -0 0.99999994 0
vn -0 0.99999994 0
vn 0 0.99999994 0
vn 0 0.99999994 0
vn 0 0.99999994 0
vn 0 0 -1
vn 0 0 -1
vn 0 0 -1
vn 0 0 1
vn 0 0 1
vn 0 0 1
vn 0.99999994 0 0
vn 0.99999994 0 0
vn 0.99999994 0 0
vn -0.99999994 0 0
vn -0.99999994 0 0
vn -0.99999994 0 0
vn 0 -0.99017715 0.1398183
vn 0 -0.99017715 0.1398183
vn 0 -0.99017715 0.1398183
vn 0.4991208 -0.86599296 -0.030570647
vn 0.4991208 -0.86599296 -0.030570647
vn 0.4991208 -0.86599296 -0.030570647
vn -0.4991208 -0.86599296 -0.030570647
vn -0.4991208 -0.86599296 -0.030570647
vn -0.4991208 -0.86599296 -0.030570647
vn 0 -0.99017715 0.1398183
vn 0 -0.99017715 0.1398183
vn 0 -0.99017715 0.1398183
vn 0.49912092 -0.86599296 -0.030570714
vn 0.49912092 -0.86599296 -0.030570714
vn 0.49912092 -0.86599296 -0.030570714
vn -0.49912092 -0.86599296 -0.030570714
vn -0.49912092 -0.86599296 -0.030570714
vn -0.49912092 -0.86599296 -0.030570714
vn 0 -0.99017715 0.1398183
vn 0 -0.99017715 0.1398183
vn 0 -0.99017715 0.1398183
vn 0.4991208 -0.86599296 -0.030570647
vn 0.4991208 -0.86599296 -0.030570647
vn 0.4991208 -0.86599296 -0.030570647
vn -0.4991208 -0.86599296 -0.030570647
vn -0.4991208 -0.86599296 -0.030570647
vn -0.4991208 -0.86599296 -0.030570647
vn 0 -0.9516601 0.30715314
vn 0 -0.9516601 0.30715314
vn 0 -0.9516601 0.30715314
vn 0.7955694 -0.6038997 -0.048727825
vn 0.7955694 -0.6038997 -0.048727825
vn 0.7955694 -0.6038997 -0.048727825
vn -0.7955694 -0.6038997 -0.048727825
vn -0.7955694 -0.6038997 -0.048727825
vn -0.7955694 -0.6038997 -0.048727825
vn 0 -0.95166004 0.30715308
vn 0 -0.95166004 0.30715308
vn 0 -0.95166004 0.30715308
vn 0.7955695 -0.6038996 -0.048727922
vn 0.7955695 -0.6038996 -0.048727922
vn 0.7955695 -0.6038996 -0.048727922
vn -0.7955695 -0.6038996 -0.048727922
vn -0.7955695 -0.6038996 -0.048727922
vn -0.7955695 -0.6038996 -0.048727922
vn 0 -0.9516601 0.30715314
vn 0 -0.9516601 0.30715314
vn 0 -0.9516601 0.30715314
vn 0.7955694 -0.6038997 -0.048727825
vn 0.7955694 -0.6038997 -0.048727825
vn 0.7955694 -0.6038997 -0.048727825
vn -0.7955694 -0.6038997 -0.048727825
vn -0.7955694 -0.6038997 -0.048727825
vn -0.7955694 -0.6038997 -0.048727825
vn 0 -0.10511203 0.99446034
vn 0 -0.10511203 0.99446034
vn 0 -0.10511203 0.99446034
vn 0.8451567 -0.53422344 -0.01776032
vn 0.8451567 -0.53422344 -0.01776032
vn 0.8451567 -0.53422344 -0.01776032
vn -0.88235533 -0.46880147 -0.040916417
vn -0.88235533 -0.46880147 -0.040916417
vn -0.88235533 -0.46880147 -0.040916417
vn 0 1 0
vn 0 1 0
vn 0 1 0
vn 0 1 0
vn 0 1 0
vn 0 1 0
vn 0 -0.093494415 0.9956198
vn 0 -0.093494415 0.9956198
vn 0 -0.093494415 0.9956198
vn 0.8858784 -0.4618934 -0.043288894
vn 0.8858784 -0.4618934 -0.043288894
vn 0.8858784 -0.4618934 -0.043288894
vn -0.9114097 -0.40684292 -0.061735153
vn -0.9114097 -0.40684292 -0.061735153
vn -0.9114097 -0.40684292 -0.061735153
vn 0 1 0
vn 0 1 0
vn 0 1 0
vn 0 1 0
vn 0 1 0
vn 0 1 0
vn 0 -0.08418103 0.99645054
vn 0 -0.08418103 0.99645054
vn 0 -0.08418103 0.99645054
vn 0.9155937 -0.39681467 -0.06501116
vn 0.9155937 -0.39681467 -0.06501116
vn 0.9155937 -0.39681467 -0.06501116
vn -0.93286777 -0.35132173 -0.07956632
vn -0.93286777 -0.35132173 -0.07956632
vn -0.93286777 -0.35132173 -0.07956632
vn 0 0.99999994 0
vn 0 0.99999994 0
vn 0 0.99999994 0
vn 0 1 0
vn 0 1 0
vn 0 1 0
vn 0 -0.07655006 0.9970657
vn 0 -0.07655006 0.9970657
vn 0 -0.07655006 0.9970657
vn 0.9370792 -0.33900297 -0.08342377
vn 0.9370792 -0.33900297 -0.08342377
vn 0.9370792 -0.33900297 -0.08342377
vn -0.9486151 -0.30188578 -0.09483862
vn -0.9486151 -0.30188578 -0.09483862
vn -0.9486151 -0.30188578 -0.09483862
vn 0 1 0
vn 0 1 0
vn 0 1 0
vn 0 1 0
vn 0 1 0
vn 0 1 0
vn 0 -0.07018445 0.997534
vn 0 -0.07018445 0.997534
vn 0 -0.07018445 0.997534
vn 0.9525053 -0.28796658 -0.09904106
vn 0.9525053 -0.28796658 -0.09904106
vn 0.9525053 -0.28796658 -0.09904106
vn -0.9601003 -0.25798 -0.1079525
vn -0.9601003 -0.25798 -0.1079525
vn -0.9601003 -0.25798 -0.1079525
vn 0 0.99999994 0
vn 0 0.99999994 0
vn 0 0.99999994 0
vn 0 1 0
vn 0 1 0
vn 0 1 0
vn 0 -0.06479418 0.9978987
vn 0 -0.06479418 0.9978987
vn 0 -0.06479418 0.9978987
vn 0.96349955 -0.2430022 -0.112332165
vn 0.96349955 -0.2430022 -0.112332165
vn 0.96349955 -0.2430022 -0.112332165
vn -0.9684122 -0.2189869 -0.11925842
vn -0.9684122 -0.2189869 -0.11925842
vn -0.9684122 -0.2189869 -0.11925842
vn 0 0.99999994 0
vn 0 0.99999994 0
vn 0 0.99999994 0
vn 0 1 0
vn 0 1 0
vn 0 1 0
vn 0 -0.9943315 0.106324635
vn 0 -0.9943315 0.106324635
vn 0 -0.9943315 0.106324635
vn 0 -0.562386 0.82687485
vn 0 -0.562386 0.82687485
vn 0 -0.562386 0.82687485
vn 0 -0.99433154 0.10632464
vn 0 -0.99433154 0.10632464
vn 0 -0.99433154 0.10632464
vn 0 -0.562386 0.82687485
vn 0 -0.562386 0.82687485
vn 0 -0.562386 0.82687485
vn 0 -0.99433154 0.10632464
vn 0 -0.99433154 0.10632464
vn 0 -0.99433154 0.10632464
vn 0 -0.562386 0.82687485
vn 0 -0.562386 0.82687485
vn 0 -0.562386 0.82687485
vn 0 -0.9943315 0.106324635
vn 0 -0.9943315 0.106324635
vn 0 -0.9943315 0.106324635
vn 0 -0.562386 0.82687485
vn 0 -0.562386 0.82687485
vn 0 -0.562386 0.82687485
f 1//1 2//2 3//3
f 4//4 5//5 6//6
f 7//7 8//8 9//9
f 10//10 11//11 12//12
f 13//13 14//14 15//15
f 16//16 17//17 18//18
f 19//19 20//20 21//21
f 22//22 23//23 24//24
f 25//25 26//26 27//27
f 28//28 29//29 30//30
f 31//31 32//32 33//33
f 34//34 35//35 36//36
f 37//37 38//38 39//39
f 40//40 41//41 42//42
f 43//43 44//44 45//45
f 46//46 47//47 48//48
f 49//49 50//50 51//51
f 52//52 53//53 54//54
f 55//55 56//56 57//57
f 58//58 59//59 60//60
f 61//61 62//62 63//63
f 64//64 65//65 66//66
f 67//67 68//68 69//69
f 70//70 71//71 72//72
f 73//73 74//74 75//75
f 76//76 77//77 78//78
f 79//79 80//80 81//81
f 82//82 83//83 84//84
f 85//85 86//86 87//87
f 88//88 89//89 90//90
f 91//91 92//92 93//93
f 94//94 95//95 96//96
f 97//97 98//98 99//99
f 100//100 101//101 102//102
f 103//103 104//104 105//105
f 106//106 107//107 108//108
f 109//109 110//110 111//111
f 112//112 113//113 114//114
f 115//115 116//116 117//117
f 118//118 119//119 120//120
f 121//121 122//122 123//123
f 124//124 125//125 126//126
f 127//127 128//128 129//129
f 130//130 131//131 132//132
f 133//133 134//134 135//135
f 136//136 137//137 138//138
f 139//139 140//140 141//141
f 142//142 143//143 144//144
f 145//145 146//146 147//147
f 148//148 149//149 150//150
f 151//151 152//152 153//153
f 154//154 155//155 156//156
f 157//157 158//158 159//159
f 160//160 161//161 162//162
f 163//163 164//164 165//165
f 166//166 167//167 168//168
f 169//169 170//170 171//171
f 172//172 173//173 174//174
f 175//175 176//176 177//177
f 178//178 179//179 180//180
f 181//181 182//182 183//183
f 184//184 185//185 186//186
f 187//187 188//188 189//189
f 190//190 191//191 192//192
f 193//193 194//194 195//195
f 196//196 197//197 198//198
f 199//199 200//200 201//201
f 202//202 203//203 204//204
f 205//205 206//206 207//207
f 208//208 209//209 210//210
f 211//211 212//212 213//213
f 214//214 215//215 216//216
f 217//217 218//218 219//219
f 220//220 221//221 222//222
f 223//223 224//224 225//225
f 226//226 227//227 228//228
f 229//229 230//230 231//231
f 232//232 233//233 234//234
f 235//235 236//236 237//237
f 238//238 239//239 240//240
f 241//241 242//242 243//243
f 244//244 245//245 246//246
f 247//247 248//248 249//249
f 250//250 251//251 252//252
f 253//253 254//254 255//255
f 256//256 257//257 258//258
f 259//259 260//260 261//261
f 262//262 263//263 264//264
f 265//265 266//266 267//267
f 268//268 269//269 270//270
f 271//271 272//272 273//273
f 274//274 275//275 276//276
f 277//277 278//278 279//279
f 280//280 281//281 282//282
f 283//283 284//284 285//285
f 286//286 287//287 288//288
f 289//289 290//290 291//291
f 292//292 293//293 294//294
f 295//295 296//296 297//297
f 298//298 299//299 300//300
f 301//301 302//302 303//303
f 304//304 305//305 306//306
f 307//307 308//308 309//309
f 310//310 311//311 312//312
f 313//313 314//314 315//315
f 316//316 317//317 318//318
f 319//319 320//320 321//321
f 322//322 323//323 324//324
f 325//325 326//326 327//327
f 328//328 329//329 330//330
f 331//331 332//332 333//333
f 334//334 335//335 336//336
f 337//337 338//338 339//339
f 340//340 341//341 342//342
f 343//343 344//344 345//345
