# Exported from SharpOpenGl procedural mesh
o solari_bomber_elite_53
# vertices 345
v -0.87963873 0.037341245 -1.4650471
v 0.87963873 0.037341245 -1.4650471
v 0 0.116691396 -1.3212061
v -0.87963873 0.037341245 -1.4650471
v 0 0.116691396 -1.3212061
v -1.1020397 0.0446843 -1.1454005
v 0.87963873 0.037341245 -1.4650471
v 1.1020397 0.0446843 -1.1454005
v 0 0.13963844 -1.3212061
v -0.87963873 0 -1.4650471
v -1.1020397 0 -1.1454005
v 0.87963873 0 -1.4650471
v 0.87963873 0 -1.4650471
v -1.1020397 0 -1.1454005
v 1.1020397 0 -1.1454005
v -1.1020397 0.0446843 -1.1454005
v 1.1020397 0.0446843 -1.1454005
v 0 0.13963844 -1.0015595
v -1.1020397 0.0446843 -1.1454005
v 0 0.13963844 -1.0015595
v -1.3026704 0.051308557 -0.8257538
v 1.1020397 0.0446843 -1.1454005
v 1.3026704 0.051308557 -0.8257538
v 0 0.16033925 -1.0015595
v -1.1020397 0 -1.1454005
v -1.3026704 0 -0.8257538
v 1.1020397 0 -1.1454005
v 1.1020397 0 -1.1454005
v -1.3026704 0 -0.8257538
v 1.3026704 0 -0.8257538
v -1.3026704 0.051308557 -0.8257538
v 1.3026704 0.051308557 -0.8257538
v 0 0.16033925 -0.6819128
v -1.3026704 0.051308557 -0.8257538
v 0 0.16033925 -0.6819128
v -1.4618919 0.0565656 -0.50610715
v 1.3026704 0.051308557 -0.8257538
v 1.4618919 0.0565656 -0.50610715
v 0 0.17676751 -0.6819128
v -1.3026704 0 -0.8257538
v -1.4618919 0 -0.50610715
v 1.3026704 0 -0.8257538
v 1.3026704 0 -0.8257538
v -1.4618919 0 -0.50610715
v 1.4618919 0 -0.50610715
v -1.4618919 0.0565656 -0.50610715
v 1.4618919 0.0565656 -0.50610715
v 0 0.17676751 -0.36226615
v -1.4618919 0.0565656 -0.50610715
v 0 0.17676751 -0.36226615
v -1.5641184 0.059940837 -0.1864605
v 1.4618919 0.0565656 -0.50610715
v 1.5641184 0.059940837 -0.1864605
v 0 0.18731512 -0.36226615
v -1.4618919 0 -0.50610715
v -1.5641184 0 -0.1864605
v 1.4618919 0 -0.50610715
v 1.4618919 0 -0.50610715
v -1.5641184 0 -0.1864605
v 1.5641184 0 -0.1864605
v -1.5641184 0.059940837 -0.1864605
v 1.5641184 0.059940837 -0.1864605
v 0 0.18731512 -0.042619526
v -1.5641184 0.059940837 -0.1864605
v 0 0.18731512 -0.042619526
v -1.5993432 0.061103858 0.1331861
v 1.5641184 0.059940837 -0.1864605
v 1.5993432 0.061103858 0.1331861
v 0 0.19094956 -0.042619526
v -1.5641184 0 -0.1864605
v -1.5993432 0 0.1331861
v 1.5641184 0 -0.1864605
v 1.5641184 0 -0.1864605
v -1.5993432 0 0.1331861
v 1.5993432 0 0.1331861
v -1.5993432 0.061103858 0.1331861
v 1.5993432 0.061103858 0.1331861
v 0 0.19094956 0.27702713
v -1.5993432 0.061103858 0.1331861
v 0 0.19094956 0.27702713
v -1.5641184 0.059940834 0.45283282
v 1.5993432 0.061103858 0.1331861
v 1.5641184 0.059940834 0.45283282
v 0 0.1873151 0.27702713
v -1.5993432 0 0.1331861
v -1.5641184 0 0.45283282
v 1.5993432 0 0.1331861
v 1.5993432 0 0.1331861
v -1.5641184 0 0.45283282
v 1.5641184 0 0.45283282
v -1.5641184 0.059940834 0.45283282
v 1.5641184 0.059940834 0.45283282
v 0 0.1873151 0.5966737
v -1.5641184 0.059940834 0.45283282
v 0 0.1873151 0.5966737
v -1.4618919 0.0565656 0.7724793
v 1.5641184 0.059940834 0.45283282
v 1.4618919 0.0565656 0.7724793
v 0 0.17676751 0.5966737
v -1.5641184 0 0.45283282
v -1.4618919 0 0.7724793
v 1.5641184 0 0.45283282
v 1.5641184 0 0.45283282
v -1.4618919 0 0.7724793
v 1.4618919 0 0.7724793
v -1.4618919 0.0565656 0.7724793
v 1.4618919 0.0565656 0.7724793
v 0 0.17676751 0.9163204
v -1.4618919 0.0565656 0.7724793
v 0 0.17676751 0.9163204
v -1.5934601 0.051308554 1.0921261
v 1.4618919 0.0565656 0.7724793
v 1.5934601 0.051308554 1.0921261
v 0 0.16033924 0.9163204
v -1.4618919 0 0.7724793
v -1.5934601 0 1.0921261
v 1.4618919 0 0.7724793
v 1.4618919 0 0.7724793
v -1.5934601 0 1.0921261
v 1.5934601 0 1.0921261
v -1.5934601 0.051308554 1.0921261
v 1.5934601 0.051308554 1.0921261
v 0 0.16033924 1.235967
v -1.5934601 0.051308554 1.0921261
v 0 0.16033924 1.235967
v -1.2474346 0.0446843 1.4117725
v 1.5934601 0.051308554 1.0921261
v 1.2474346 0.0446843 1.4117725
v 0 0.13963844 1.235967
v -1.5934601 0 1.0921261
v -1.2474346 0 1.4117725
v 1.5934601 0 1.0921261
v 1.5934601 0 1.0921261
v -1.2474346 0 1.4117725
v 1.2474346 0 1.4117725
v -1.2474346 0.0446843 1.4117725
v 1.2474346 0.0446843 1.4117725
v 0 0.13963844 1.5556135
v -1.2474346 0.0446843 1.4117725
v 0 0.13963844 1.5556135
v -0.8796387 0.037341245 1.7314193
v 1.2474346 0.0446843 1.4117725
v 0.8796387 0.037341245 1.7314193
v 0 0.11669139 1.5556135
v -1.2474346 0 1.4117725
v -0.8796387 0 1.7314193
v 1.2474346 0 1.4117725
v 1.2474346 0 1.4117725
v -0.8796387 0 1.7314193
v 0.8796387 0 1.7314193
v -2.6988916 0.21216618 1.0122143
v 2.6988916 0.21216618 1.0122143
v 0 0.32885757 -0.79911655
v -2.6988916 0.21216618 1.0122143
v 0 0.32885757 -0.79911655
v -2.6988916 0.21216618 -1.0122143
v 2.6988916 0.21216618 1.0122143
v 2.6988916 0.21216618 -1.0122143
v 0 0.32885757 -0.79911655
v -2.6988916 0.19519289 1.0122143
v 2.6988916 0.19519289 1.0122143
v 2.6988916 0.19519289 -1.0122143
v -2.6988916 0.19519289 1.0122143
v 2.6988916 0.19519289 -1.0122143
v -2.6988916 0.19519289 -1.0122143
v -2.6988916 0.19519289 1.0122143
v -2.6988916 0.21216618 1.0122143
v 2.6988916 0.21216618 1.0122143
v -2.6988916 0.19519289 -1.0122143
v 2.6988916 0.21216618 -1.0122143
v -2.6988916 0.21216618 -1.0122143
v 2.6988916 0.19519289 -1.0122143
v 2.6988916 0.21216618 -1.0122143
v 2.6988916 0.21216618 1.0122143
v 2.6988916 0.19519289 1.0122143
v 2.6988916 0.21216618 1.0122143
v 2.6988916 0.21216618 -1.0122143
v -2.536958 0.21216618 -1.0122143
v -1.9971797 0.21216618 -1.0122143
v -2.2670689 0.28642434 -0.7458421
v -2.536958 0.21216618 -1.0122143
v -2.2670689 0.28642434 -0.7458421
v -2.4829803 0.21216618 -0.7458421
v -1.9971797 0.21216618 -1.0122143
v -2.0511575 0.21216618 -0.7458421
v -2.2670689 0.28642434 -0.7458421
v -0.26988918 0.21216618 -1.0122143
v 0.26988918 0.21216618 -1.0122143
v 0 0.28642434 -0.7458421
v -0.26988918 0.21216618 -1.0122143
v 0 0.28642434 -0.7458421
v -0.21591133 0.21216618 -0.7458421
v 0.26988918 0.21216618 -1.0122143
v 0.21591133 0.21216618 -0.7458421
v 0 0.28642434 -0.7458421
v 1.9971797 0.21216618 -1.0122143
v 2.536958 0.21216618 -1.0122143
v 2.2670689 0.28642434 -0.7458421
v 1.9971797 0.21216618 -1.0122143
v 2.2670689 0.28642434 -0.7458421
v 2.0511575 0.21216618 -0.7458421
v 2.536958 0.21216618 -1.0122143
v 2.4829803 0.21216618 -0.7458421
v 2.2670689 0.28642434 -0.7458421
v -2.536958 0.21216618 0.7991165
v -1.9971797 0.21216618 0.7991165
v -2.2670689 0.38189912 1.0654887
v -2.536958 0.21216618 0.7991165
v -2.2670689 0.38189912 1.0654887
v -2.4829803 0.21216618 1.0654887
v -1.9971797 0.21216618 0.7991165
v -2.0511575 0.21216618 1.0654887
v -2.2670689 0.38189912 1.0654887
v -0.26988918 0.21216618 0.7991165
v 0.26988918 0.21216618 0.7991165
v 0 0.38189912 1.0654887
v -0.26988918 0.21216618 0.7991165
v 0 0.38189912 1.0654887
v -0.21591133 0.21216618 1.0654887
v 0.26988918 0.21216618 0.7991165
v 0.21591133 0.21216618 1.0654887
v 0 0.38189912 1.0654887
v 1.9971797 0.21216618 0.7991165
v 2.536958 0.21216618 0.7991165
v 2.2670689 0.38189912 1.0654887
v 1.9971797 0.21216618 0.7991165
v 2.2670689 0.38189912 1.0654887
v 2.0511575 0.21216618 1.0654887
v 2.536958 0.21216618 0.7991165
v 2.4829803 0.21216618 1.0654887
v 2.2670689 0.38189912 1.0654887
v -0.3998358 0.1770072 0.08950106
v 0.3998358 0.1770072 0.08950106
v 0 0.5531475 0.1096388
v -0.3998358 0.1770072 0.08950106
v 0 0.5531475 0.1096388
v -0.3731801 0.19923411 0.1342516
v 0.3998358 0.1770072 0.08950106
v 0.3731801 0.19923411 0.1342516
v 0 0.62260664 0.1096388
v -0.3998358 0 0.08950106
v -0.3731801 0 0.1342516
v 0.3998358 0 0.08950106
v 0.3998358 0 0.08950106
v -0.3731801 0 0.1342516
v 0.3731801 0 0.1342516
v -0.3731801 0.19923411 0.1342516
v 0.3731801 0.19923411 0.1342516
v 0 0.62260664 0.15438934
v -0.3731801 0.19923411 0.1342516
v 0 0.62260664 0.15438934
v -0.34652436 0.22146106 0.17900214
v 0.3731801 0.19923411 0.1342516
v 0.34652436 0.22146106 0.17900214
v 0 0.69206583 0.15438934
v -0.3731801 0 0.1342516
v -0.34652436 0 0.17900214
v 0.3731801 0 0.1342516
v 0.3731801 0 0.1342516
v -0.34652436 0 0.17900214
v 0.34652436 0 0.17900214
v -0.34652436 0.22146106 0.17900214
v 0.34652436 0.22146106 0.17900214
v 0 0.69206583 0.19913986
v -0.34652436 0.22146106 0.17900214
v 0 0.69206583 0.19913986
v -0.31986865 0.243688 0.22375265
v 0.34652436 0.22146106 0.17900214
v 0.31986865 0.243688 0.22375265
v 0 0.76152503 0.19913986
v -0.34652436 0 0.17900214
v -0.31986865 0 0.22375265
v 0.34652436 0 0.17900214
v 0.34652436 0 0.17900214
v -0.31986865 0 0.22375265
v 0.31986865 0 0.22375265
v -0.31986865 0.243688 0.22375265
v 0.31986865 0.243688 0.22375265
v 0 0.76152503 0.24389039
v -0.31986865 0.243688 0.22375265
v 0 0.76152503 0.24389039
v -0.29321292 0.26591492 0.2685032
v 0.31986865 0.243688 0.22375265
v 0.29321292 0.26591492 0.2685032
v 0 0.8309842 0.24389039
v -0.31986865 0 0.22375265
v -0.29321292 0 0.2685032
v 0.31986865 0 0.22375265
v 0.31986865 0 0.22375265
v -0.29321292 0 0.2685032
v 0.29321292 0 0.2685032
v -0.29321292 0.26591492 0.2685032
v 0.29321292 0.26591492 0.2685032
v 0 0.8309842 0.28864092
v -0.29321292 0.26591492 0.2685032
v 0 0.8309842 0.28864092
v -0.2665572 0.28814185 0.3132537
v 0.29321292 0.26591492 0.2685032
v 0.2665572 0.28814185 0.3132537
v 0 0.9004433 0.28864092
v -0.29321292 0 0.2685032
v -0.2665572 0 0.3132537
v 0.29321292 0 0.2685032
v 0.29321292 0 0.2685032
v -0.2665572 0 0.3132537
v 0.2665572 0 0.3132537
v -0.2665572 0.28814185 0.3132537
v 0.2665572 0.28814185 0.3132537
v 0 0.9004433 0.33339146
v -0.2665572 0.28814185 0.3132537
v 0 0.9004433 0.33339146
v -0.23990148 0.3103688 0.35800424
v 0.2665572 0.28814185 0.3132537
v 0.23990148 0.3103688 0.35800424
v 0 0.9699025 0.33339146
v -0.2665572 0 0.3132537
v -0.23990148 0 0.35800424
v 0.2665572 0 0.3132537
v 0.2665572 0 0.3132537
v -0.23990148 0 0.35800424
v 0.23990148 0 0.35800424
v -1.6793103 0.060618903 -1.8350086
v -2.2550738 0 -3.1016884
v -1.1035469 0 -3.1016884
v -1.6793103 0.250053 -1.5471269
v -2.0247684 0.060618903 -1.8350086
v -1.3338522 0.060618903 -1.8350086
v -0.5597701 0.060618903 -1.8350086
v -1.1355336 0 -3.1016884
v 0.015993416 0 -3.1016884
v -0.5597701 0.250053 -1.5471269
v -0.90522826 0.060618903 -1.8350086
v -0.21431199 0.060618903 -1.8350086
v 0.5597701 0.060618903 -1.8350086
v -0.015993416 0 -3.1016884
v 1.1355336 0 -3.1016884
v 0.5597701 0.250053 -1.5471269
v 0.21431199 0.060618903 -1.8350086
v 0.90522826 0.060618903 -1.8350086
v 1.6793103 0.060618903 -1.8350086
v 1.1035469 0 -3.1016884
v 2.2550738 0 -3.1016884
v 1.6793103 0.250053 -1.5471269
v 1.3338522 0.060618903 -1.8350086
v 2.0247684 0.060618903 -1.8350086
vn 0 -0.87560445 0.4830287
vn 0 -0.87560445 0.4830287
vn 0 -0.87560445 0.4830287
vn 0.07716029 -0.99407774 0.07652228
vn 0.07716029 -0.99407774 0.07652228
vn 0.07716029 -0.99407774 0.07652228
vn -0.10010003 -0.9906771 0.09240498
vn -0.10010003 -0.9906771 0.09240498
vn -0.10010003 -0.9906771 0.09240498
vn 0 1 -0
vn 0 1 -0
vn 0 1 -0
vn 0 1 -0
vn 0 1 -0
vn 0 1 -0
vn 0 -0.8345586 0.55091923
vn 0 -0.8345586 0.55091923
vn 0 -0.8345586 0.55091923
vn 0.07672725 -0.99467754 0.0687723
vn 0.07672725 -0.99467754 0.0687723
vn 0.07672725 -0.99467754 0.0687723
vn -0.093783155 -0.99241906 0.07943087
vn -0.093783155 -0.99241906 0.07943087
vn -0.093783155 -0.99241906 0.07943087
vn 0 1 -0
vn 0 1 -0
vn 0 1 -0
vn 0 1 -0
vn 0 1 -0
vn 0 1 -0
vn 0 -0.7969315 0.60406965
vn 0 -0.7969315 0.60406965
vn 0 -0.7969315 0.60406965
vn 0.07726371 -0.9955003 0.054858807
vn 0.07726371 -0.9955003 0.054858807
vn 0.07726371 -0.9955003 0.054858807
vn -0.08904505 -0.99417603 0.060705516
vn -0.08904505 -0.99417603 0.060705516
vn -0.08904505 -0.99417603 0.060705516
vn 0 1 -0
vn 0 1 -0
vn 0 1 -0
vn 0 1 -0
vn 0 1 -0
vn 0 1 -0
vn 0 -0.76734316 0.64123666
vn 0 -0.76734316 0.64123666
vn 0 -0.76734316 0.64123666
vn 0.07841544 -0.99628496 0.03559816
vn 0.07841544 -0.99628496 0.03559816
vn 0.07841544 -0.99628496 0.03559816
vn -0.08532871 -0.99563545 0.037802238
vn -0.08532871 -0.99563545 0.037802238
vn -0.08532871 -0.99563545 0.037802238
vn 0 1 -0
vn 0 1 -0
vn 0 1 -0
vn 0 1 -0
vn 0 1 -0
vn 0 1 -0
vn 0 -0.74865973 0.6629544
vn 0 -0.74865973 0.6629544
vn 0 -0.74865973 0.6629544
vn 0.08002323 -0.9967153 0.012445001
vn 0.08002323 -0.9967153 0.012445001
vn 0.08002323 -0.9967153 0.012445001
vn -0.08230041 -0.99652666 0.0126952585
vn -0.08230041 -0.99652666 0.0126952585
vn -0.08230041 -0.99652666 0.0126952585
vn 0 1 -0
vn 0 1 -0
vn 0 1 -0
vn 0 1 -0
vn 0 1 -0
vn 0 1 -0
vn 0 -0.74229574 0.67007244
vn 0 -0.74229574 0.67007244
vn 0 -0.74229574 0.67007244
vn 0.08204591 -0.99654806 -0.012667297
vn 0.08204591 -0.99654806 -0.012667297
vn 0.08204591 -0.99654806 -0.012667297
vn -0.07977363 -0.9967357 -0.012417577
vn -0.07977363 -0.9967357 -0.012417577
vn -0.07977363 -0.9967357 -0.012417577
vn 0 1 0
vn 0 1 0
vn 0 1 0
vn 0 1 0
vn 0 1 0
vn 0 1 0
vn 0 -0.7486597 0.66295457
vn 0 -0.7486597 0.66295457
vn 0 -0.7486597 0.66295457
vn 0.08453928 -0.9957124 -0.037550595
vn 0.08453928 -0.9957124 -0.037550595
vn 0.08453928 -0.9957124 -0.037550595
vn -0.07767111 -0.99635184 -0.035360828
vn -0.07767111 -0.99635184 -0.035360828
vn -0.07767111 -0.99635184 -0.035360828
vn 0 1 0
vn 0 1 0
vn 0 1 0
vn 0 0.99999994 0
vn 0 0.99999994 0
vn 0 0.99999994 0
vn 0 -0.7673434 0.6412364
vn 0 -0.7673434 0.6412364
vn 0 -0.7673434 0.6412364
vn 0.08030691 -0.99663097 0.016663702
vn 0.08030691 -0.99663097 0.016663702
vn 0.08030691 -0.99663097 0.016663702
vn -0.06960363 -0.9974996 0.012243891
vn -0.06960363 -0.9974996 0.012243891
vn -0.06960363 -0.9974996 0.012243891
vn 0 1 -0
vn 0 1 -0
vn 0 1 -0
vn 0 1 -0
vn 0 1 -0
vn 0 1 -0
vn 0 -0.79693127 0.6040699
vn 0 -0.79693127 0.6040699
vn 0 -0.79693127 0.6040699
vn 0.077249676 -0.9915545 -0.10417346
vn 0.077249676 -0.9915545 -0.10417346
vn 0.077249676 -0.9915545 -0.10417346
vn -0.0631307 -0.9940343 -0.08894068
vn -0.0631307 -0.9940343 -0.08894068
vn -0.0631307 -0.9940343 -0.08894068
vn 0 1 0
vn 0 1 0
vn 0 1 0
vn 0 1 0
vn 0 1 0
vn 0 1 0
vn 0 -0.8345586 0.5509193
vn 0 -0.8345586 0.5509193
vn 0 -0.8345586 0.5509193
vn 0.08972577 -0.98797226 -0.12593745
vn 0.08972577 -0.98797226 -0.12593745
vn 0.08972577 -0.98797226 -0.12593745
vn -0.06907648 -0.9923546 -0.10227838
vn -0.06907648 -0.9923546 -0.10227838
vn -0.06907648 -0.9923546 -0.10227838
vn 0 1 0
vn 0 1 0
vn 0 1 0
vn 0 1 0
vn 0 1 0
vn 0 1 0
vn -0 0.9979313 0.06428975
vn -0 0.9979313 0.06428975
vn -0 0.9979313 0.06428975
vn -0.043196425 0.9990666 0
vn -0.043196425 0.9990666 0
vn -0.043196425 0.9990666 0
vn 0.043196425 0.9990666 0
vn 0.043196425 0.9990666 0
vn 0.043196425 0.9990666 0
vn -0 1 0
vn -0 1 0
vn -0 1 0
vn 0 1 0
vn 0 1 0
vn 0 1 0
vn 0 0 -1
vn 0 0 -1
vn 0 0 -1
vn 0 0 1
vn 0 0 1
vn 0 0 1
vn 1 0 0
vn 1 0 0
vn 1 0 0
vn -1 0 0
vn -1 0 0
vn -1 0 0
vn 0 -0.96326953 0.2685364
vn 0 -0.96326953 0.2685364
vn 0 -0.96326953 0.2685364
vn 0.324527 -0.94358754 -0.06576224
vn 0.324527 -0.94358754 -0.06576224
vn 0.324527 -0.94358754 -0.06576224
vn -0.324527 -0.94358754 -0.06576224
vn -0.324527 -0.94358754 -0.06576224
vn -0.324527 -0.94358754 -0.06576224
vn 0 -0.96326953 0.2685364
vn 0 -0.96326953 0.2685364
vn 0 -0.96326953 0.2685364
vn 0.32452708 -0.9435875 -0.0657624
vn 0.32452708 -0.9435875 -0.0657624
vn 0.32452708 -0.9435875 -0.0657624
vn -0.32452708 -0.9435875 -0.0657624
vn -0.32452708 -0.9435875 -0.0657624
vn -0.32452708 -0.9435875 -0.0657624
vn 0 -0.96326953 0.2685364
vn 0 -0.96326953 0.2685364
vn 0 -0.96326953 0.2685364
vn 0.324527 -0.94358754 -0.06576224
vn 0.324527 -0.94358754 -0.06576224
vn 0.324527 -0.94358754 -0.06576224
vn -0.324527 -0.94358754 -0.06576224
vn -0.324527 -0.94358754 -0.06576224
vn -0.324527 -0.94358754 -0.06576224
vn 0 -0.84334105 0.5373787
vn 0 -0.84334105 0.5373787
vn 0 -0.84334105 0.5373787
vn 0.61323005 -0.78006864 -0.124265075
vn 0.61323005 -0.78006864 -0.124265075
vn 0.61323005 -0.78006864 -0.124265075
vn -0.61323005 -0.78006864 -0.124265075
vn -0.61323005 -0.78006864 -0.124265075
vn -0.61323005 -0.78006864 -0.124265075
vn 0 -0.843341 0.5373787
vn 0 -0.843341 0.5373787
vn 0 -0.843341 0.5373787
vn 0.61323017 -0.7800686 -0.12426538
vn 0.61323017 -0.7800686 -0.12426538
vn 0.61323017 -0.7800686 -0.12426538
vn -0.61323017 -0.7800686 -0.12426538
vn -0.61323017 -0.7800686 -0.12426538
vn -0.61323017 -0.7800686 -0.12426538
vn 0 -0.84334105 0.5373787
vn 0 -0.84334105 0.5373787
vn 0 -0.84334105 0.5373787
vn 0.61323005 -0.78006864 -0.124265075
vn 0.61323005 -0.78006864 -0.124265075
vn 0.61323005 -0.78006864 -0.124265075
vn -0.61323005 -0.78006864 -0.124265075
vn -0.61323005 -0.78006864 -0.124265075
vn -0.61323005 -0.78006864 -0.124265075
vn 0 -0.053461287 0.9985699
vn 0 -0.053461287 0.9985699
vn 0 -0.053461287 0.9985699
vn 0.6856886 -0.72633225 -0.047672916
vn 0.6856886 -0.72633225 -0.047672916
vn 0.6856886 -0.72633225 -0.047672916
vn -0.74200636 -0.6606567 -0.1138387
vn -0.74200636 -0.6606567 -0.1138387
vn -0.74200636 -0.6606567 -0.1138387
vn 0 1 0
vn 0 1 0
vn 0 1 0
vn 0 1 0
vn 0 1 0
vn 0 1 0
vn 0 -0.04751135 0.99887073
vn 0 -0.04751135 0.99887073
vn 0 -0.04751135 0.99887073
vn 0.7475213 -0.6531515 -0.120851435
vn 0.7475213 -0.6531515 -0.120851435
vn 0.7475213 -0.6531515 -0.120851435
vn -0.78815603 -0.5895872 -0.17662704
vn -0.78815603 -0.5895872 -0.17662704
vn -0.78815603 -0.5895872 -0.17662704
vn 0 1 0
vn 0 1 0
vn 0 1 0
vn 0 0.99999994 0
vn 0 0.99999994 0
vn 0 0.99999994 0
vn 0 -0.042752042 0.99908566
vn 0 -0.042752042 0.99908566
vn 0 -0.042752042 0.99908566
vn 0.79488426 -0.57731336 -0.18673053
vn 0.79488426 -0.57731336 -0.18673053
vn 0.79488426 -0.57731336 -0.18673053
vn -0.82256943 -0.5191348 -0.2321177
vn -0.82256943 -0.5191348 -0.2321177
vn -0.82256943 -0.5191348 -0.2321177
vn 0 0.99999994 0
vn 0 0.99999994 0
vn 0 0.99999994 0
vn 0 1 0
vn 0 1 0
vn 0 1 0
vn 0 -0.038858812 0.9992447
vn 0 -0.038858812 0.9992447
vn 0 -0.038858812 0.9992447
vn 0.82922953 -0.50271815 -0.24423943
vn 0.82922953 -0.50271815 -0.24423943
vn 0.82922953 -0.50271815 -0.24423943
vn -0.8470256 -0.4517226 -0.2801684
vn -0.8470256 -0.4517226 -0.2801684
vn -0.8470256 -0.4517226 -0.2801684
vn 0 1 0
vn 0 1 0
vn 0 1 0
vn 0 1 0
vn 0 1 0
vn 0 1 0
vn 0 -0.035615016 0.9993655
vn 0 -0.035615016 0.9993655
vn 0 -0.035615016 0.9993655
vn 0.85279465 -0.43205777 -0.29337206
vn 0.85279465 -0.43205777 -0.29337206
vn 0.85279465 -0.43205777 -0.29337206
vn -0.8634997 -0.38882515 -0.32122156
vn -0.8634997 -0.38882515 -0.32122156
vn -0.8634997 -0.38882515 -0.32122156
vn 0 1 0
vn 0 1 0
vn 0 1 0
vn 0 1 0
vn 0 1 0
vn 0 1 0
vn 0 -0.03287086 0.9994596
vn 0 -0.03287086 0.9994596
vn 0 -0.03287086 0.9994596
vn 0.8679527 -0.36684066 -0.33479232
vn 0.8679527 -0.36684066 -0.33479232
vn 0.8679527 -0.36684066 -0.33479232
vn -0.8738363 -0.33113924 -0.35602924
vn -0.8738363 -0.33113924 -0.35602924
vn -0.8738363 -0.33113924 -0.35602924
vn 0 1 0
vn 0 1 0
vn 0 1 0
vn 0 1 0
vn 0 1 0
vn 0 1 0
vn 0 -0.9988569 0.04780183
vn 0 -0.9988569 0.04780183
vn 0 -0.9988569 0.04780183
vn 0 -0.83536613 0.5496938
vn 0 -0.83536613 0.5496938
vn 0 -0.83536613 0.5496938
vn 0 -0.9988569 0.047801826
vn 0 -0.9988569 0.047801826
vn 0 -0.9988569 0.047801826
vn 0 -0.8353661 0.5496939
vn 0 -0.8353661 0.5496939
vn 0 -0.8353661 0.5496939
vn 0 -0.9988569 0.047801826
vn 0 -0.9988569 0.047801826
vn 0 -0.9988569 0.047801826
vn 0 -0.8353661 0.5496939
vn 0 -0.8353661 0.5496939
vn 0 -0.8353661 0.5496939
vn 0 -0.9988569 0.04780183
vn 0 -0.9988569 0.04780183
vn 0 -0.9988569 0.04780183
vn 0 -0.83536613 0.5496938
vn 0 -0.83536613 0.5496938
vn 0 -0.83536613 0.5496938
f 1//1 2//2 3//3
f 4//4 5//5 6//6
f 7//7 8//8 9//9
f 10//10 11//11 12//12
f 13//13 14//14 15//15
f 16//16 17//17 18//18
f 19//19 20//20 21//21
f 22//22 23//23 24//24
f 25//25 26//26 27//27
f 28//28 29//29 30//30
f 31//31 32//32 33//33
f 34//34 35//35 36//36
f 37//37 38//38 39//39
f 40//40 41//41 42//42
f 43//43 44//44 45//45
f 46//46 47//47 48//48
f 49//49 50//50 51//51
f 52//52 53//53 54//54
f 55//55 56//56 57//57
f 58//58 59//59 60//60
f 61//61 62//62 63//63
f 64//64 65//65 66//66
f 67//67 68//68 69//69
f 70//70 71//71 72//72
f 73//73 74//74 75//75
f 76//76 77//77 78//78
f 79//79 80//80 81//81
f 82//82 83//83 84//84
f 85//85 86//86 87//87
f 88//88 89//89 90//90
f 91//91 92//92 93//93
f 94//94 95//95 96//96
f 97//97 98//98 99//99
f 100//100 101//101 102//102
f 103//103 104//104 105//105
f 106//106 107//107 108//108
f 109//109 110//110 111//111
f 112//112 113//113 114//114
f 115//115 116//116 117//117
f 118//118 119//119 120//120
f 121//121 122//122 123//123
f 124//124 125//125 126//126
f 127//127 128//128 129//129
f 130//130 131//131 132//132
f 133//133 134//134 135//135
f 136//136 137//137 138//138
f 139//139 140//140 141//141
f 142//142 143//143 144//144
f 145//145 146//146 147//147
f 148//148 149//149 150//150
f 151//151 152//152 153//153
f 154//154 155//155 156//156
f 157//157 158//158 159//159
f 160//160 161//161 162//162
f 163//163 164//164 165//165
f 166//166 167//167 168//168
f 169//169 170//170 171//171
f 172//172 173//173 174//174
f 175//175 176//176 177//177
f 178//178 179//179 180//180
f 181//181 182//182 183//183
f 184//184 185//185 186//186
f 187//187 188//188 189//189
f 190//190 191//191 192//192
f 193//193 194//194 195//195
f 196//196 197//197 198//198
f 199//199 200//200 201//201
f 202//202 203//203 204//204
f 205//205 206//206 207//207
f 208//208 209//209 210//210
f 211//211 212//212 213//213
f 214//214 215//215 216//216
f 217//217 218//218 219//219
f 220//220 221//221 222//222
f 223//223 224//224 225//225
f 226//226 227//227 228//228
f 229//229 230//230 231//231
f 232//232 233//233 234//234
f 235//235 236//236 237//237
f 238//238 239//239 240//240
f 241//241 242//242 243//243
f 244//244 245//245 246//246
f 247//247 248//248 249//249
f 250//250 251//251 252//252
f 253//253 254//254 255//255
f 256//256 257//257 258//258
f 259//259 260//260 261//261
f 262//262 263//263 264//264
f 265//265 266//266 267//267
f 268//268 269//269 270//270
f 271//271 272//272 273//273
f 274//274 275//275 276//276
f 277//277 278//278 279//279
f 280//280 281//281 282//282
f 283//283 284//284 285//285
f 286//286 287//287 288//288
f 289//289 290//290 291//291
f 292//292 293//293 294//294
f 295//295 296//296 297//297
f 298//298 299//299 300//300
f 301//301 302//302 303//303
f 304//304 305//305 306//306
f 307//307 308//308 309//309
f 310//310 311//311 312//312
f 313//313 314//314 315//315
f 316//316 317//317 318//318
f 319//319 320//320 321//321
f 322//322 323//323 324//324
f 325//325 326//326 327//327
f 328//328 329//329 330//330
f 331//331 332//332 333//333
f 334//334 335//335 336//336
f 337//337 338//338 339//339
f 340//340 341//341 342//342
f 343//343 344//344 345//345
