# Exported from SharpOpenGl procedural mesh
o solari_dreadnought_mk2_28
# vertices 84
v -4.2469087 0.5815182 2.2280748
v 4.2469087 0.5815182 2.2280748
v 0 0.9304291 -0.95488924
v -4.2469087 0.5815182 2.2280748
v 0 0.9304291 -0.95488924
v -4.2469087 0.5815182 -2.2280748
v 4.2469087 0.5815182 2.2280748
v 4.2469087 0.5815182 -2.2280748
v 0 0.9304291 -0.95488924
v -4.2469087 0 2.2280748
v 4.2469087 0 2.2280748
v 4.2469087 0 -2.2280748
v -4.2469087 0 2.2280748
v 4.2469087 0 -2.2280748
v -4.2469087 0 -2.2280748
v -6.4553013 0.5815182 2.5463712
v -5.4360433 1.0467327 0.95488924
v -6.9649305 0.5815182 -1.2731856
v -3.2276506 0.5815182 2.5463712
v -2.2083926 1.0467327 0.95488924
v -3.7372797 0.5815182 -1.2731856
v 0 0.5815182 2.5463712
v 1.019258 1.0467327 0.95488924
v -0.509629 0.5815182 -1.2731856
v 3.2276506 0.5815182 2.5463712
v 4.2469087 1.0467327 0.95488924
v 2.7180216 0.5815182 -1.2731856
v 6.4553013 0.5815182 2.5463712
v 7.4745593 1.0467327 0.95488924
v 5.945672 0.5815182 -1.2731856
v -0.94375753 0.5815182 0.6365928
v 0.94375753 0.5815182 0.6365928
v 0.94375753 2.4506836 0.6365928
v -0.94375753 0.5815182 0.6365928
v 0.94375753 2.4506836 0.6365928
v -0.94375753 2.4506836 0.6365928
v -0.94375753 0.5815182 2.8646677
v 0.94375753 2.4506836 2.8646677
v 0.94375753 0.5815182 2.8646677
v -0.94375753 0.5815182 2.8646677
v -0.94375753 2.4506836 2.8646677
v 0.94375753 2.4506836 2.8646677
v -0.94375753 0.5815182 0.6365928
v -0.94375753 0.5815182 2.8646677
v 0.94375753 0.5815182 2.8646677
v -0.94375753 0.5815182 0.6365928
v 0.94375753 0.5815182 2.8646677
v 0.94375753 0.5815182 0.6365928
v -0.94375753 2.4506836 0.6365928
v 0.94375753 2.4506836 2.8646677
v -0.94375753 2.4506836 2.8646677
v -0.94375753 2.4506836 0.6365928
v 0.94375753 2.4506836 0.6365928
v 0.94375753 2.4506836 2.8646677
v -0.94375753 0.5815182 0.6365928
v -0.94375753 2.4506836 0.6365928
v -0.94375753 2.4506836 2.8646677
v -0.94375753 0.5815182 0.6365928
v -0.94375753 2.4506836 2.8646677
v -0.94375753 0.5815182 2.8646677
v 0.94375753 0.5815182 0.6365928
v 0.94375753 0.5815182 2.8646677
v 0.94375753 2.4506836 2.8646677
v 0.94375753 0.5815182 0.6365928
v 0.94375753 2.4506836 2.8646677
v 0.94375753 2.4506836 0.6365928
v -2.2021008 0.16614805 -4.3854175
v -3.3346097 0 -6.8769374
v -1.0695918 0 -6.8769374
v -2.2021008 0.6853607 -3.8191628
v -2.881606 0.16614805 -4.3854175
v -1.5225954 0.16614805 -4.3854175
v 0 0.16614805 -4.3854175
v -1.132509 0 -6.8769374
v 1.132509 0 -6.8769374
v 0 0.6853607 -3.8191628
v -0.6795054 0.16614805 -4.3854175
v 0.6795054 0.16614805 -4.3854175
v 2.2021008 0.16614805 -4.3854175
v 1.0695918 0 -6.8769374
v 3.3346097 0 -6.8769374
v 2.2021008 0.6853607 -3.8191628
v 1.5225954 0.16614805 -4.3854175
v 2.881606 0.16614805 -4.3854175
vn -0 0.99404556 0.10896552
vn -0 0.99404556 0.10896552
vn -0 0.99404556 0.10896552
vn -0.08188058 0.9966421 0
vn -0.08188058 0.9966421 0
vn -0.08188058 0.9966421 0
vn 0.08188058 0.9966421 0
vn 0.08188058 0.9966421 0
vn 0.08188058 0.9966421 0
vn -0 1 0
vn -0 1 0
vn -0 1 0
vn 0 1 0
vn 0 1 0
vn 0 1 0
vn -0.35296994 0.93444866 0.047095466
vn -0.35296994 0.93444866 0.047095466
vn -0.35296994 0.93444866 0.047095466
vn -0.35296997 0.93444866 0.04709545
vn -0.35296997 0.93444866 0.04709545
vn -0.35296997 0.93444866 0.04709545
vn -0.35296997 0.93444866 0.04709545
vn -0.35296997 0.93444866 0.04709545
vn -0.35296997 0.93444866 0.04709545
vn -0.35296997 0.93444866 0.04709545
vn -0.35296997 0.93444866 0.04709545
vn -0.35296997 0.93444866 0.04709545
vn -0.35296994 0.93444866 0.047095466
vn -0.35296994 0.93444866 0.047095466
vn -0.35296994 0.93444866 0.047095466
vn 0 0 1
vn 0 0 1
vn 0 0 1
vn 0 0 1
vn 0 0 1
vn 0 0 1
vn 0 0 -1
vn 0 0 -1
vn 0 0 -1
vn 0 0 -1
vn 0 0 -1
vn 0 0 -1
vn 0 1 0
vn 0 1 0
vn 0 1 0
vn 0 1 0
vn 0 1 0
vn 0 1 0
vn 0 -1 0
vn 0 -1 0
vn 0 -1 0
vn 0 -1 0
vn 0 -1 0
vn 0 -1 0
vn 1 0 0
vn 1 0 0
vn 1 0 0
vn 1 0 0
vn 1 0 0
vn 1 0 0
vn -1 0 0
vn -1 0 0
vn -1 0 0
vn -1 0 0
vn -1 0 0
vn -1 0 0
vn 0 -0.99778396 0.06653764
vn 0 -0.99778396 0.06653764
vn 0 -0.99778396 0.06653764
vn 0 -0.7370595 0.6758278
vn 0 -0.7370595 0.6758278
vn 0 -0.7370595 0.6758278
vn 0 -0.99778396 0.06653764
vn 0 -0.99778396 0.06653764
vn 0 -0.99778396 0.06653764
vn 0 -0.73705953 0.67582786
vn 0 -0.73705953 0.67582786
vn 0 -0.73705953 0.67582786
vn 0 -0.99778396 0.06653764
vn 0 -0.99778396 0.06653764
vn 0 -0.99778396 0.06653764
vn 0 -0.7370595 0.6758278
vn 0 -0.7370595 0.6758278
vn 0 -0.7370595 0.6758278
f 1//1 2//2 3//3
f 4//4 5//5 6//6
f 7//7 8//8 9//9
f 10//10 11//11 12//12
f 13//13 14//14 15//15
f 16//16 17//17 18//18
f 19//19 20//20 21//21
f 22//22 23//23 24//24
f 25//25 26//26 27//27
f 28//28 29//29 30//30
f 31//31 32//32 33//33
f 34//34 35//35 36//36
f 37//37 38//38 39//39
f 40//40 41//41 42//42
f 43//43 44//44 45//45
f 46//46 47//47 48//48
f 49//49 50//50 51//51
f 52//52 53//53 54//54
f 55//55 56//56 57//57
f 58//58 59//59 60//60
f 61//61 62//62 63//63
f 64//64 65//65 66//66
f 67//67 68//68 69//69
f 70//70 71//71 72//72
f 73//73 74//74 75//75
f 76//76 77//77 78//78
f 79//79 80//80 81//81
f 82//82 83//83 84//84
