# Exported from SharpOpenGl procedural mesh
o solari_cruiser_mk1_09
# vertices 78
v -2.825612 0.4155125 1.7631683
v 2.825612 0.4155125 1.7631683
v 0 0.66482 -0.7556436
v -2.825612 0.4155125 1.7631683
v 0 0.66482 -0.7556436
v -2.825612 0.4155125 -1.7631683
v 2.825612 0.4155125 1.7631683
v 2.825612 0.4155125 -1.7631683
v 0 0.66482 -0.7556436
v -2.825612 0 1.7631683
v 2.825612 0 1.7631683
v 2.825612 0 -1.7631683
v -2.825612 0 1.7631683
v 2.825612 0 -1.7631683
v -2.825612 0 -1.7631683
v -2.1474652 0.4155125 2.0150497
v -1.4693184 0.7479225 0.7556436
v -2.4865386 0.4155125 -1.0075248
v 0 0.4155125 2.0150497
v 0.6781469 0.7479225 0.7556436
v -0.33907345 0.4155125 -1.0075248
v 2.1474652 0.4155125 2.0150497
v 2.825612 0.7479225 0.7556436
v 1.8083918 0.4155125 -1.0075248
v -0.62791383 0.4155125 0.5037624
v 0.62791383 0.4155125 0.5037624
v 0.62791383 1.7510884 0.5037624
v -0.62791383 0.4155125 0.5037624
v 0.62791383 1.7510884 0.5037624
v -0.62791383 1.7510884 0.5037624
v -0.62791383 0.4155125 2.2669306
v 0.62791383 1.7510884 2.2669306
v 0.62791383 0.4155125 2.2669306
v -0.62791383 0.4155125 2.2669306
v -0.62791383 1.7510884 2.2669306
v 0.62791383 1.7510884 2.2669306
v -0.62791383 0.4155125 0.5037624
v -0.62791383 0.4155125 2.2669306
v 0.62791383 0.4155125 2.2669306
v -0.62791383 0.4155125 0.5037624
v 0.62791383 0.4155125 2.2669306
v 0.62791383 0.4155125 0.5037624
v -0.62791383 1.7510884 0.5037624
v 0.62791383 1.7510884 2.2669306
v -0.62791383 1.7510884 2.2669306
v -0.62791383 1.7510884 0.5037624
v 0.62791383 1.7510884 0.5037624
v 0.62791383 1.7510884 2.2669306
v -0.62791383 0.4155125 0.5037624
v -0.62791383 1.7510884 0.5037624
v -0.62791383 1.7510884 2.2669306
v -0.62791383 0.4155125 0.5037624
v -0.62791383 1.7510884 2.2669306
v -0.62791383 0.4155125 2.2669306
v 0.62791383 0.4155125 0.5037624
v 0.62791383 0.4155125 2.2669306
v 0.62791383 1.7510884 2.2669306
v 0.62791383 0.4155125 0.5037624
v 0.62791383 1.7510884 2.2669306
v 0.62791383 1.7510884 0.5037624
v -1.4651321 0.11871786 -3.4703634
v -2.143279 0 -4.9622865
v -0.7869852 0 -4.9622865
v -1.4651321 0.48971117 -3.13129
v -1.8720202 0.11871786 -3.4703634
v -1.058244 0.11871786 -3.4703634
v 0 0.11871786 -3.4703634
v -0.6781469 0 -4.9622865
v 0.6781469 0 -4.9622865
v 0 0.48971117 -3.13129
v -0.40688816 0.11871786 -3.4703634
v 0.40688816 0.11871786 -3.4703634
v 1.4651321 0.11871786 -3.4703634
v 0.7869852 0 -4.9622865
v 2.143279 0 -4.9622865
v 1.4651321 0.48971117 -3.13129
v 1.058244 0.11871786 -3.4703634
v 1.8720202 0.11871786 -3.4703634
vn -0 0.9951374 0.09849692
vn -0 0.9951374 0.09849692
vn -0 0.9951374 0.09849692
vn -0.08788989 0.9961302 0
vn -0.08788989 0.9961302 0
vn -0.08788989 0.9961302 0
vn 0.08788989 0.9961302 0
vn 0.08788989 0.9961302 0
vn 0.08788989 0.9961302 0
vn -0 1 0
vn -0 1 0
vn -0 1 0
vn 0 1 0
vn 0 1 0
vn 0 1 0
vn -0.37557498 0.9258339 0.042132124
vn -0.37557498 0.9258339 0.042132124
vn -0.37557498 0.9258339 0.042132124
vn -0.37557498 0.9258339 0.04213213
vn -0.37557498 0.9258339 0.04213213
vn -0.37557498 0.9258339 0.04213213
vn -0.37557498 0.9258339 0.042132124
vn -0.37557498 0.9258339 0.042132124
vn -0.37557498 0.9258339 0.042132124
vn 0 0 1
vn 0 0 1
vn 0 0 1
vn 0 0 1
vn 0 0 1
vn 0 0 1
vn 0 0 -1
vn 0 0 -1
vn 0 0 -1
vn 0 0 -1
vn 0 0 -1
vn 0 0 -1
vn 0 1 0
vn 0 1 0
vn 0 1 0
vn 0 1 0
vn 0 1 0
vn 0 1 0
vn 0 -1 0
vn 0 -1 0
vn 0 -1 0
vn 0 -1 0
vn 0 -1 0
vn 0 -1 0
vn 1 0 0
vn 1 0 0
vn 1 0 0
vn 1 0 0
vn 1 0 0
vn 1 0 0
vn -1 0 0
vn -1 0 0
vn -1 0 0
vn -1 0 0
vn -1 0 0
vn -1 0 0
vn 0 -0.99684894 0.079322964
vn 0 -0.99684894 0.079322964
vn 0 -0.99684894 0.079322964
vn 0 -0.6746386 0.73814815
vn 0 -0.6746386 0.73814815
vn 0 -0.6746386 0.73814815
vn 0 -0.99684894 0.079322964
vn 0 -0.99684894 0.079322964
vn 0 -0.99684894 0.079322964
vn 0 -0.6746386 0.73814815
vn 0 -0.6746386 0.73814815
vn 0 -0.6746386 0.73814815
vn 0 -0.99684894 0.079322964
vn 0 -0.99684894 0.079322964
vn 0 -0.99684894 0.079322964
vn 0 -0.6746386 0.73814815
vn 0 -0.6746386 0.73814815
vn 0 -0.6746386 0.73814815
f 1//1 2//2 3//3
f 4//4 5//5 6//6
f 7//7 8//8 9//9
f 10//10 11//11 12//12
f 13//13 14//14 15//15
f 16//16 17//17 18//18
f 19//19 20//20 21//21
f 22//22 23//23 24//24
f 25//25 26//26 27//27
f 28//28 29//29 30//30
f 31//31 32//32 33//33
f 34//34 35//35 36//36
f 37//37 38//38 39//39
f 40//40 41//41 42//42
f 43//43 44//44 45//45
f 46//46 47//47 48//48
f 49//49 50//50 51//51
f 52//52 53//53 54//54
f 55//55 56//56 57//57
f 58//58 59//59 60//60
f 61//61 62//62 63//63
f 64//64 65//65 66//66
f 67//67 68//68 69//69
f 70//70 71//71 72//72
f 73//73 74//74 75//75
f 76//76 77//77 78//78
