# Exported from SharpOpenGl procedural mesh
o solari_support_mk1_15
# vertices 345
v -0.81837076 0.0564386 -1.9184204
v 0.81837076 0.0564386 -1.9184204
v 0 0.17637062 -1.7300664
v -0.81837076 0.0564386 -1.9184204
v 0 0.17637062 -1.7300664
v -1.0252812 0.06753709 -1.499856
v 0.81837076 0.0564386 -1.9184204
v 1.0252812 0.06753709 -1.499856
v 0 0.21105342 -1.7300664
v -0.81837076 0 -1.9184204
v -1.0252812 0 -1.499856
v 0.81837076 0 -1.9184204
v 0.81837076 0 -1.9184204
v -1.0252812 0 -1.499856
v 1.0252812 0 -1.499856
v -1.0252812 0.06753709 -1.499856
v 1.0252812 0.06753709 -1.499856
v 0 0.21105342 -1.311502
v -1.0252812 0.06753709 -1.499856
v 0 0.21105342 -1.311502
v -1.2119378 0.07754918 -1.0812914
v 1.0252812 0.06753709 -1.499856
v 1.2119378 0.07754918 -1.0812914
v 0 0.2423412 -1.311502
v -1.0252812 0 -1.499856
v -1.2119378 0 -1.0812914
v 1.0252812 0 -1.499856
v 1.0252812 0 -1.499856
v -1.2119378 0 -1.0812914
v 1.2119378 0 -1.0812914
v -1.2119378 0.07754918 -1.0812914
v 1.2119378 0.07754918 -1.0812914
v 0 0.2423412 -0.8929374
v -1.2119378 0.07754918 -1.0812914
v 0 0.2423412 -0.8929374
v -1.3600693 0.08549483 -0.662727
v 1.2119378 0.07754918 -1.0812914
v 1.3600693 0.08549483 -0.662727
v 0 0.26717135 -0.8929374
v -1.2119378 0 -1.0812914
v -1.3600693 0 -0.662727
v 1.2119378 0 -1.0812914
v 1.2119378 0 -1.0812914
v -1.3600693 0 -0.662727
v 1.3600693 0 -0.662727
v -1.3600693 0.08549483 -0.662727
v 1.3600693 0.08549483 -0.662727
v 0 0.26717135 -0.474373
v -1.3600693 0.08549483 -0.662727
v 0 0.26717135 -0.474373
v -1.4551755 0.090596244 -0.24416256
v 1.3600693 0.08549483 -0.662727
v 1.4551755 0.090596244 -0.24416256
v 0 0.28311327 -0.474373
v -1.3600693 0 -0.662727
v -1.4551755 0 -0.24416256
v 1.3600693 0 -0.662727
v 1.3600693 0 -0.662727
v -1.4551755 0 -0.24416256
v 1.4551755 0 -0.24416256
v -1.4551755 0.090596244 -0.24416256
v 1.4551755 0.090596244 -0.24416256
v 0 0.28311327 -0.055808574
v -1.4551755 0.090596244 -0.24416256
v 0 0.28311327 -0.055808574
v -1.4879469 0.09235407 0.17440188
v 1.4551755 0.090596244 -0.24416256
v 1.4879469 0.09235407 0.17440188
v 0 0.28860646 -0.055808574
v -1.4551755 0 -0.24416256
v -1.4879469 0 0.17440188
v 1.4551755 0 -0.24416256
v 1.4551755 0 -0.24416256
v -1.4879469 0 0.17440188
v 1.4879469 0 0.17440188
v -1.4879469 0.09235407 0.17440188
v 1.4879469 0.09235407 0.17440188
v 0 0.28860646 0.36275592
v -1.4879469 0.09235407 0.17440188
v 0 0.28860646 0.36275592
v -1.4551755 0.09059624 0.59296644
v 1.4879469 0.09235407 0.17440188
v 1.4551755 0.09059624 0.59296644
v 0 0.28311324 0.36275592
v -1.4879469 0 0.17440188
v -1.4551755 0 0.59296644
v 1.4879469 0 0.17440188
v 1.4879469 0 0.17440188
v -1.4551755 0 0.59296644
v 1.4551755 0 0.59296644
v -1.4551755 0.09059624 0.59296644
v 1.4551755 0.09059624 0.59296644
v 0 0.28311324 0.7813204
v -1.4551755 0.09059624 0.59296644
v 0 0.28311324 0.7813204
v -1.3600693 0.08549483 1.0115308
v 1.4551755 0.09059624 0.59296644
v 1.3600693 0.08549483 1.0115308
v 0 0.26717135 0.7813204
v -1.4551755 0 0.59296644
v -1.3600693 0 1.0115308
v 1.4551755 0 0.59296644
v 1.4551755 0 0.59296644
v -1.3600693 0 1.0115308
v 1.3600693 0 1.0115308
v -1.3600693 0.08549483 1.0115308
v 1.3600693 0.08549483 1.0115308
v 0 0.26717135 1.1998848
v -1.3600693 0.08549483 1.0115308
v 0 0.26717135 1.1998848
v -1.4824735 0.077549174 1.4300953
v 1.3600693 0.08549483 1.0115308
v 1.4824735 0.077549174 1.4300953
v 0 0.24234118 1.1998848
v -1.3600693 0 1.0115308
v -1.4824735 0 1.4300953
v 1.3600693 0 1.0115308
v 1.3600693 0 1.0115308
v -1.4824735 0 1.4300953
v 1.4824735 0 1.4300953
v -1.4824735 0.077549174 1.4300953
v 1.4824735 0.077549174 1.4300953
v 0 0.24234118 1.6184492
v -1.4824735 0.077549174 1.4300953
v 0 0.24234118 1.6184492
v -1.1605492 0.06753709 1.8486596
v 1.4824735 0.077549174 1.4300953
v 1.1605492 0.06753709 1.8486596
v 0 0.21105342 1.6184492
v -1.4824735 0 1.4300953
v -1.1605492 0 1.8486596
v 1.4824735 0 1.4300953
v 1.4824735 0 1.4300953
v -1.1605492 0 1.8486596
v 1.1605492 0 1.8486596
v -1.1605492 0.06753709 1.8486596
v 1.1605492 0.06753709 1.8486596
v 0 0.21105342 2.0370138
v -1.1605492 0.06753709 1.8486596
v 0 0.21105342 2.0370138
v -0.81837076 0.05643859 2.2672243
v 1.1605492 0.06753709 1.8486596
v 0.81837076 0.05643859 2.2672243
v 0 0.1763706 2.0370138
v -1.1605492 0 1.8486596
v -0.81837076 0 2.2672243
v 1.1605492 0 1.8486596
v 1.1605492 0 1.8486596
v -0.81837076 0 2.2672243
v 0.81837076 0 2.2672243
v -2.5109105 0.32067385 1.3254541
v 2.5109105 0.32067385 1.3254541
v 0 0.49704444 -1.0464112
v -2.5109105 0.32067385 1.3254541
v 0 0.49704444 -1.0464112
v -2.5109105 0.32067385 -1.3254541
v 2.5109105 0.32067385 1.3254541
v 2.5109105 0.32067385 -1.3254541
v 0 0.49704444 -1.0464112
v -2.5109105 0.29501995 1.3254541
v 2.5109105 0.29501995 1.3254541
v 2.5109105 0.29501995 -1.3254541
v -2.5109105 0.29501995 1.3254541
v 2.5109105 0.29501995 -1.3254541
v -2.5109105 0.29501995 -1.3254541
v -2.5109105 0.29501995 1.3254541
v -2.5109105 0.32067385 1.3254541
v 2.5109105 0.32067385 1.3254541
v -2.5109105 0.29501995 -1.3254541
v 2.5109105 0.32067385 -1.3254541
v -2.5109105 0.32067385 -1.3254541
v 2.5109105 0.29501995 -1.3254541
v 2.5109105 0.32067385 -1.3254541
v 2.5109105 0.32067385 1.3254541
v 2.5109105 0.29501995 1.3254541
v 2.5109105 0.32067385 1.3254541
v 2.5109105 0.32067385 -1.3254541
v -2.3602557 0.32067385 -1.3254541
v -1.8580737 0.32067385 -1.3254541
v -2.1091647 0.4329097 -0.97665036
v -2.3602557 0.32067385 -1.3254541
v -2.1091647 0.4329097 -0.97665036
v -2.3100376 0.32067385 -0.97665036
v -1.8580737 0.32067385 -1.3254541
v -1.9082918 0.32067385 -0.97665036
v -2.1091647 0.4329097 -0.97665036
v -0.25109106 0.32067385 -1.3254541
v 0.25109106 0.32067385 -1.3254541
v 0 0.4329097 -0.97665036
v -0.25109106 0.32067385 -1.3254541
v 0 0.4329097 -0.97665036
v -0.20087284 0.32067385 -0.97665036
v 0.25109106 0.32067385 -1.3254541
v 0.20087284 0.32067385 -0.97665036
v 0 0.4329097 -0.97665036
v 1.8580737 0.32067385 -1.3254541
v 2.3602557 0.32067385 -1.3254541
v 2.1091647 0.4329097 -0.97665036
v 1.8580737 0.32067385 -1.3254541
v 2.1091647 0.4329097 -0.97665036
v 1.9082918 0.32067385 -0.97665036
v 2.3602557 0.32067385 -1.3254541
v 2.3100376 0.32067385 -0.97665036
v 2.1091647 0.4329097 -0.97665036
v -2.3602557 0.32067385 1.0464112
v -1.8580737 0.32067385 1.0464112
v -2.1091647 0.5772129 1.3952149
v -2.3602557 0.32067385 1.0464112
v -2.1091647 0.5772129 1.3952149
v -2.3100376 0.32067385 1.3952149
v -1.8580737 0.32067385 1.0464112
v -1.9082918 0.32067385 1.3952149
v -2.1091647 0.5772129 1.3952149
v -0.25109106 0.32067385 1.0464112
v 0.25109106 0.32067385 1.0464112
v 0 0.5772129 1.3952149
v -0.25109106 0.32067385 1.0464112
v 0 0.5772129 1.3952149
v -0.20087284 0.32067385 1.3952149
v 0.25109106 0.32067385 1.0464112
v 0.20087284 0.32067385 1.3952149
v 0 0.5772129 1.3952149
v 1.8580737 0.32067385 1.0464112
v 2.3602557 0.32067385 1.0464112
v 2.1091647 0.5772129 1.3952149
v 1.8580737 0.32067385 1.0464112
v 2.1091647 0.5772129 1.3952149
v 1.9082918 0.32067385 1.3952149
v 2.3602557 0.32067385 1.0464112
v 2.3100376 0.32067385 1.3952149
v 2.1091647 0.5772129 1.3952149
v -0.37198672 0.2675336 0.11719805
v 0.37198672 0.2675336 0.11719805
v 0 0.8360425 0.1435676
v -0.37198672 0.2675336 0.11719805
v 0 0.8360425 0.1435676
v -0.3471876 0.301128 0.17579708
v 0.37198672 0.2675336 0.11719805
v 0.3471876 0.301128 0.17579708
v 0 0.941025 0.1435676
v -0.37198672 0 0.11719805
v -0.3471876 0 0.17579708
v 0.37198672 0 0.11719805
v 0.37198672 0 0.11719805
v -0.3471876 0 0.17579708
v 0.3471876 0 0.17579708
v -0.3471876 0.301128 0.17579708
v 0.3471876 0.301128 0.17579708
v 0 0.941025 0.20216663
v -0.3471876 0.301128 0.17579708
v 0 0.941025 0.20216663
v -0.3223885 0.33472243 0.2343961
v 0.3471876 0.301128 0.17579708
v 0.3223885 0.33472243 0.2343961
v 0 1.0460076 0.20216663
v -0.3471876 0 0.17579708
v -0.3223885 0 0.2343961
v 0.3471876 0 0.17579708
v 0.3471876 0 0.17579708
v -0.3223885 0 0.2343961
v 0.3223885 0 0.2343961
v -0.3223885 0.33472243 0.2343961
v 0.3223885 0.33472243 0.2343961
v 0 1.0460076 0.26076567
v -0.3223885 0.33472243 0.2343961
v 0 1.0460076 0.26076567
v -0.2975894 0.36831683 0.29299513
v 0.3223885 0.33472243 0.2343961
v 0.2975894 0.36831683 0.29299513
v 0 1.1509901 0.26076567
v -0.3223885 0 0.2343961
v -0.2975894 0 0.29299513
v 0.3223885 0 0.2343961
v 0.3223885 0 0.2343961
v -0.2975894 0 0.29299513
v 0.2975894 0 0.29299513
v -0.2975894 0.36831683 0.29299513
v 0.2975894 0.36831683 0.29299513
v 0 1.1509901 0.3193647
v -0.2975894 0.36831683 0.29299513
v 0 1.1509901 0.3193647
v -0.27279025 0.40191123 0.35159415
v 0.2975894 0.36831683 0.29299513
v 0.27279025 0.40191123 0.35159415
v 0 1.2559726 0.3193647
v -0.2975894 0 0.29299513
v -0.27279025 0 0.35159415
v 0.2975894 0 0.29299513
v 0.2975894 0 0.29299513
v -0.27279025 0 0.35159415
v 0.27279025 0 0.35159415
v -0.27279025 0.40191123 0.35159415
v 0.27279025 0.40191123 0.35159415
v 0 1.2559726 0.37796372
v -0.27279025 0.40191123 0.35159415
v 0 1.2559726 0.37796372
v -0.24799113 0.43550563 0.41019318
v 0.27279025 0.40191123 0.35159415
v 0.24799113 0.43550563 0.41019318
v 0 1.3609551 0.37796372
v -0.27279025 0 0.35159415
v -0.24799113 0 0.41019318
v 0.27279025 0 0.35159415
v 0.27279025 0 0.35159415
v -0.24799113 0 0.41019318
v 0.24799113 0 0.41019318
v -0.24799113 0.43550563 0.41019318
v 0.24799113 0.43550563 0.41019318
v 0 1.3609551 0.43656275
v -0.24799113 0.43550563 0.41019318
v 0 1.3609551 0.43656275
v -0.22319204 0.46910003 0.4687922
v 0.24799113 0.43550563 0.41019318
v 0.22319204 0.46910003 0.4687922
v 0 1.4659376 0.43656275
v -0.24799113 0 0.41019318
v -0.22319204 0 0.4687922
v 0.24799113 0 0.41019318
v 0.24799113 0 0.41019318
v -0.22319204 0 0.4687922
v 0.22319204 0 0.4687922
v -1.5623442 0.0916211 -2.4028702
v -2.0087283 0 -3.384915
v -1.1159601 0 -3.384915
v -1.5623442 0.37793705 -2.1796782
v -1.8301747 0.0916211 -2.4028702
v -1.2945137 0.0916211 -2.4028702
v -0.5207814 0.0916211 -2.4028702
v -0.96716547 0 -3.384915
v -0.074397326 0 -3.384915
v -0.5207814 0.37793705 -2.1796782
v -0.7886119 0.0916211 -2.4028702
v -0.25295094 0.0916211 -2.4028702
v 0.5207814 0.0916211 -2.4028702
v 0.074397326 0 -3.384915
v 0.96716547 0 -3.384915
v 0.5207814 0.37793705 -2.1796782
v 0.25295094 0.0916211 -2.4028702
v 0.7886119 0.0916211 -2.4028702
v 1.5623442 0.0916211 -2.4028702
v 1.1159601 0 -3.384915
v 2.0087283 0 -3.384915
v 1.5623442 0.37793705 -2.1796782
v 1.2945137 0.0916211 -2.4028702
v 1.8301747 0.0916211 -2.4028702
vn 0 -0.8435188 0.53709984
vn 0 -0.8435188 0.53709984
vn 0 -0.8435188 0.53709984
vn 0.124625966 -0.9883104 0.08781245
vn 0.124625966 -0.9883104 0.08781245
vn 0.124625966 -0.9883104 0.08781245
vn -0.16107674 -0.9812713 0.10564464
vn -0.16107674 -0.9812713 0.10564464
vn -0.16107674 -0.9812713 0.10564464
vn 0 1 -0
vn 0 1 -0
vn 0 1 -0
vn 0 1 -0
vn 0 1 -0
vn 0 1 -0
vn 0 -0.7954143 0.6060659
vn 0 -0.7954143 0.6060659
vn 0 -0.7954143 0.6060659
vn 0.12395613 -0.98914295 0.07893792
vn 0.12395613 -0.98914295 0.07893792
vn 0.12395613 -0.98914295 0.07893792
vn -0.15111575 -0.9843246 0.09093435
vn -0.15111575 -0.9843246 0.09093435
vn -0.15111575 -0.9843246 0.09093435
vn 0 1 -0
vn 0 1 -0
vn 0 1 -0
vn 0 1 -0
vn 0 1 -0
vn 0 1 -0
vn 0 -0.7526118 0.6584645
vn 0 -0.7526118 0.6584645
vn 0 -0.7526118 0.6584645
vn 0.12484973 -0.9901748 0.06298137
vn 0.12484973 -0.9901748 0.06298137
vn 0.12484973 -0.9901748 0.06298137
vn -0.14364311 -0.98718077 0.06957558
vn -0.14364311 -0.98718077 0.06957558
vn -0.14364311 -0.98718077 0.06957558
vn 0 1 -0
vn 0 1 -0
vn 0 1 -0
vn 0 1 -0
vn 0 1 -0
vn 0 1 -0
vn 0 -0.71974987 0.6942335
vn 0 -0.71974987 0.6942335
vn 0 -0.71974987 0.6942335
vn 0.12672867 -0.9910949 0.040874645
vn 0.12672867 -0.9910949 0.040874645
vn 0.12672867 -0.9910949 0.040874645
vn -0.13777122 -0.98951435 0.04336447
vn -0.13777122 -0.98951435 0.04336447
vn -0.13777122 -0.98951435 0.04336447
vn 0 1 -0
vn 0 1 -0
vn 0 1 -0
vn 0 1 -0
vn 0 1 -0
vn 0 1 -0
vn 0 -0.6993361 0.71479297
vn 0 -0.6993361 0.71479297
vn 0 -0.6993361 0.71479297
vn 0.12932397 -0.9914995 0.014289321
vn 0.12932397 -0.9914995 0.014289321
vn 0.12932397 -0.9914995 0.014289321
vn -0.13296409 -0.99101377 0.014572285
vn -0.13296409 -0.99101377 0.014572285
vn -0.13296409 -0.99101377 0.014572285
vn 0 1 -0
vn 0 1 -0
vn 0 1 -0
vn 0 1 -0
vn 0 1 -0
vn 0 1 -0
vn 0 -0.69243944 0.7214759
vn 0 -0.69243944 0.7214759
vn 0 -0.69243944 0.7214759
vn 0.13255742 -0.99106866 -0.014540687
vn 0.13255742 -0.99106866 -0.014540687
vn 0.13255742 -0.99106866 -0.014540687
vn -0.12892479 -0.9915519 -0.0142583
vn -0.12892479 -0.9915519 -0.0142583
vn -0.12892479 -0.9915519 -0.0142583
vn 0 1 0
vn 0 1 0
vn 0 1 0
vn 0 1 0
vn 0 1 0
vn 0 1 0
vn 0 -0.6993361 0.714793
vn 0 -0.6993361 0.714793
vn 0 -0.6993361 0.714793
vn 0.13651186 -0.9897012 -0.04308059
vn 0.13651186 -0.9897012 -0.04308059
vn 0.13651186 -0.9897012 -0.04308059
vn -0.12553793 -0.9912575 -0.04060606
vn -0.12553793 -0.9912575 -0.04060606
vn -0.12553793 -0.9912575 -0.04060606
vn 0 1 0
vn 0 1 0
vn 0 1 0
vn 0 1 0
vn 0 1 0
vn 0 1 0
vn 0 -0.7197499 0.6942335
vn 0 -0.7197499 0.6942335
vn 0 -0.7197499 0.6942335
vn 0.12977503 -0.99135894 0.019132089
vn 0.12977503 -0.99135894 0.019132089
vn 0.12977503 -0.99135894 0.019132089
vn -0.11262767 -0.9935376 0.014076187
vn -0.11262767 -0.9935376 0.014076187
vn -0.11262767 -0.9935376 0.014076187
vn 0 1 -0
vn 0 1 -0
vn 0 1 -0
vn 0 1 -0
vn 0 1 -0
vn 0 1 -0
vn 0 -0.7526117 0.6584646
vn 0 -0.7526117 0.6584646
vn 0 -0.7526117 0.6584646
vn 0.12466667 -0.9849829 -0.119443916
vn 0.12466667 -0.9849829 -0.119443916
vn 0.12466667 -0.9849829 -0.119443916
vn -0.102094375 -0.98951185 -0.10219155
vn -0.102094375 -0.98951185 -0.10219155
vn -0.102094375 -0.98951185 -0.10219155
vn 0 1 0
vn 0 1 0
vn 0 1 0
vn 0 1 0
vn 0 1 0
vn 0 1 0
vn 0 -0.7954146 0.60606575
vn 0 -0.7954146 0.60606575
vn 0 -0.7954146 0.60606575
vn 0.1444393 -0.9789741 -0.14403783
vn 0.1444393 -0.9789741 -0.14403783
vn 0.1444393 -0.9789741 -0.14403783
vn -0.11159181 -0.98679596 -0.117392294
vn -0.11159181 -0.98679596 -0.117392294
vn -0.11159181 -0.98679596 -0.117392294
vn 0 1 0
vn 0 1 0
vn 0 1 0
vn 0 1 0
vn 0 1 0
vn 0 1 0
vn -0 0.99724674 0.07415471
vn -0 0.99724674 0.07415471
vn -0 0.99724674 0.07415471
vn -0.070069045 0.99754214 0
vn -0.070069045 0.99754214 0
vn -0.070069045 0.99754214 0
vn 0.070069045 0.99754214 0
vn 0.070069045 0.99754214 0
vn 0.070069045 0.99754214 0
vn -0 1 0
vn -0 1 0
vn -0 1 0
vn 0 1 0
vn 0 1 0
vn 0 1 0
vn 0 0 -1
vn 0 0 -1
vn 0 0 -1
vn 0 0 1
vn 0 0 1
vn 0 0 1
vn 1 0 0
vn 1 0 0
vn 1 0 0
vn -1 0 0
vn -1 0 0
vn -1 0 0
vn 0 -0.9519328 0.30630687
vn 0 -0.9519328 0.30630687
vn 0 -0.9519328 0.30630687
vn 0.4865679 -0.8708297 -0.07005234
vn 0.4865679 -0.8708297 -0.07005234
vn 0.4865679 -0.8708297 -0.07005234
vn -0.4865679 -0.8708297 -0.07005234
vn -0.4865679 -0.8708297 -0.07005234
vn -0.4865679 -0.8708297 -0.07005234
vn 0 -0.9519328 0.30630684
vn 0 -0.9519328 0.30630684
vn 0 -0.9519328 0.30630684
vn 0.48656803 -0.8708296 -0.07005251
vn 0.48656803 -0.8708296 -0.07005251
vn 0.48656803 -0.8708296 -0.07005251
vn -0.48656803 -0.8708296 -0.07005251
vn -0.48656803 -0.8708296 -0.07005251
vn -0.48656803 -0.8708296 -0.07005251
vn 0 -0.9519328 0.30630687
vn 0 -0.9519328 0.30630687
vn 0 -0.9519328 0.30630687
vn 0.4865679 -0.8708297 -0.07005234
vn 0.4865679 -0.8708297 -0.07005234
vn 0.4865679 -0.8708297 -0.07005234
vn -0.4865679 -0.8708297 -0.07005234
vn -0.4865679 -0.8708297 -0.07005234
vn -0.4865679 -0.8708297 -0.07005234
vn 0 -0.80557853 0.59248894
vn 0 -0.80557853 0.59248894
vn 0 -0.80557853 0.59248894
vn 0.78234094 -0.6125815 -0.11263548
vn 0.78234094 -0.6125815 -0.11263548
vn 0.78234094 -0.6125815 -0.11263548
vn -0.78234094 -0.6125815 -0.11263548
vn -0.78234094 -0.6125815 -0.11263548
vn -0.78234094 -0.6125815 -0.11263548
vn 0 -0.80557853 0.592489
vn 0 -0.80557853 0.592489
vn 0 -0.80557853 0.592489
vn 0.78234094 -0.6125813 -0.11263575
vn 0.78234094 -0.6125813 -0.11263575
vn 0.78234094 -0.6125813 -0.11263575
vn -0.78234094 -0.6125813 -0.11263575
vn -0.78234094 -0.6125813 -0.11263575
vn -0.78234094 -0.6125813 -0.11263575
vn 0 -0.80557853 0.59248894
vn 0 -0.80557853 0.59248894
vn 0 -0.80557853 0.59248894
vn 0.78234094 -0.6125815 -0.11263548
vn 0.78234094 -0.6125815 -0.11263548
vn 0.78234094 -0.6125815 -0.11263548
vn -0.78234094 -0.6125815 -0.11263548
vn -0.78234094 -0.6125815 -0.11263548
vn -0.78234094 -0.6125815 -0.11263548
vn 0 -0.0463339 0.998926
vn 0 -0.0463339 0.998926
vn 0 -0.0463339 0.998926
vn 0.83695006 -0.5457155 -0.041342523
vn 0.83695006 -0.5457155 -0.041342523
vn 0.83695006 -0.5457155 -0.041342523
vn -0.87295496 -0.47843 -0.0951541
vn -0.87295496 -0.47843 -0.0951541
vn -0.87295496 -0.47843 -0.0951541
vn 0 1 0
vn 0 1 0
vn 0 1 0
vn 0 1 0
vn 0 1 0
vn 0 1 0
vn 0 -0.041174117 0.99915195
vn 0 -0.041174117 0.99915195
vn 0 -0.041174117 0.99915195
vn 0.8762295 -0.47126657 -0.100646384
vn 0.8762295 -0.47126657 -0.100646384
vn 0.8762295 -0.47126657 -0.100646384
vn -0.89897794 -0.41394553 -0.14313525
vn -0.89897794 -0.41394553 -0.14313525
vn -0.89897794 -0.41394553 -0.14313525
vn 0 1 0
vn 0 1 0
vn 0 1 0
vn 0 1 0
vn 0 1 0
vn 0 1 0
vn 0 -0.03704768 0.99931353
vn 0 -0.03704768 0.99931353
vn 0 -0.03704768 0.99931353
vn 0.90250665 -0.40347478 -0.15063164
vn 0.90250665 -0.40347478 -0.15063164
vn 0.90250665 -0.40347478 -0.15063164
vn -0.91627103 -0.35595074 -0.18370192
vn -0.91627103 -0.35595074 -0.18370192
vn -0.91627103 -0.35595074 -0.18370192
vn 0 1 0
vn 0 1 0
vn 0 1 0
vn 0 1 0
vn 0 1 0
vn 0 1 0
vn 0 -0.033672564 0.9994329
vn 0 -0.033672564 0.9994329
vn 0 -0.033672564 0.9994329
vn 0.91938776 -0.3430891 -0.19239487
vn 0.91938776 -0.3430891 -0.19239487
vn 0.91938776 -0.3430891 -0.19239487
vn -0.9272826 -0.30440077 -0.21791568
vn -0.9272826 -0.30440077 -0.21791568
vn -0.9272826 -0.30440077 -0.21791568
vn 0 1 0
vn 0 1 0
vn 0 1 0
vn 0 1 0
vn 0 1 0
vn 0 1 0
vn 0 -0.030860793 0.99952364
vn 0 -0.030860793 0.99952364
vn 0 -0.030860793 0.99952364
vn 0.92968225 -0.28992805 -0.22722813
vn 0.92968225 -0.28992805 -0.22722813
vn 0.92968225 -0.28992805 -0.22722813
vn -0.9338543 -0.25883892 -0.24681689
vn -0.9338543 -0.25883892 -0.24681689
vn -0.9338543 -0.25883892 -0.24681689
vn 0 1 0
vn 0 1 0
vn 0 1 0
vn 0 1 0
vn 0 1 0
vn 0 1 0
vn 0 -0.028482238 0.9995943
vn 0 -0.028482238 0.9995943
vn 0 -0.028482238 0.9995943
vn 0.93544286 -0.24336436 -0.25636014
vn 0.93544286 -0.24336436 -0.25636014
vn 0.93544286 -0.24336436 -0.25636014
vn -0.93732405 -0.21863954 -0.27133083
vn -0.93732405 -0.21863954 -0.27133083
vn -0.93732405 -0.21863954 -0.27133083
vn 0 0.99999994 0
vn 0 0.99999994 0
vn 0 0.99999994 0
vn 0 0.99999994 0
vn 0 0.99999994 0
vn 0 0.99999994 0
vn 0 -0.9956761 0.09289283
vn 0 -0.9956761 0.09289283
vn 0 -0.9956761 0.09289283
vn 0 -0.6148015 0.78868186
vn 0 -0.6148015 0.78868186
vn 0 -0.6148015 0.78868186
vn 0 -0.9956761 0.09289283
vn 0 -0.9956761 0.09289283
vn 0 -0.9956761 0.09289283
vn 0 -0.6148015 0.78868186
vn 0 -0.6148015 0.78868186
vn 0 -0.6148015 0.78868186
vn 0 -0.9956761 0.09289283
vn 0 -0.9956761 0.09289283
vn 0 -0.9956761 0.09289283
vn 0 -0.6148015 0.78868186
vn 0 -0.6148015 0.78868186
vn 0 -0.6148015 0.78868186
vn 0 -0.9956761 0.09289283
vn 0 -0.9956761 0.09289283
vn 0 -0.9956761 0.09289283
vn 0 -0.6148015 0.78868186
vn 0 -0.6148015 0.78868186
vn 0 -0.6148015 0.78868186
f 1//1 2//2 3//3
f 4//4 5//5 6//6
f 7//7 8//8 9//9
f 10//10 11//11 12//12
f 13//13 14//14 15//15
f 16//16 17//17 18//18
f 19//19 20//20 21//21
f 22//22 23//23 24//24
f 25//25 26//26 27//27
f 28//28 29//29 30//30
f 31//31 32//32 33//33
f 34//34 35//35 36//36
f 37//37 38//38 39//39
f 40//40 41//41 42//42
f 43//43 44//44 45//45
f 46//46 47//47 48//48
f 49//49 50//50 51//51
f 52//52 53//53 54//54
f 55//55 56//56 57//57
f 58//58 59//59 60//60
f 61//61 62//62 63//63
f 64//64 65//65 66//66
f 67//67 68//68 69//69
f 70//70 71//71 72//72
f 73//73 74//74 75//75
f 76//76 77//77 78//78
f 79//79 80//80 81//81
f 82//82 83//83 84//84
f 85//85 86//86 87//87
f 88//88 89//89 90//90
f 91//91 92//92 93//93
f 94//94 95//95 96//96
f 97//97 98//98 99//99
f 100//100 101//101 102//102
f 103//103 104//104 105//105
f 106//106 107//107 108//108
f 109//109 110//110 111//111
f 112//112 113//113 114//114
f 115//115 116//116 117//117
f 118//118 119//119 120//120
f 121//121 122//122 123//123
f 124//124 125//125 126//126
f 127//127 128//128 129//129
f 130//130 131//131 132//132
f 133//133 134//134 135//135
f 136//136 137//137 138//138
f 139//139 140//140 141//141
f 142//142 143//143 144//144
f 145//145 146//146 147//147
f 148//148 149//149 150//150
f 151//151 152//152 153//153
f 154//154 155//155 156//156
f 157//157 158//158 159//159
f 160//160 161//161 162//162
f 163//163 164//164 165//165
f 166//166 167//167 168//168
f 169//169 170//170 171//171
f 172//172 173//173 174//174
f 175//175 176//176 177//177
f 178//178 179//179 180//180
f 181//181 182//182 183//183
f 184//184 185//185 186//186
f 187//187 188//188 189//189
f 190//190 191//191 192//192
f 193//193 194//194 195//195
f 196//196 197//197 198//198
f 199//199 200//200 201//201
f 202//202 203//203 204//204
f 205//205 206//206 207//207
f 208//208 209//209 210//210
f 211//211 212//212 213//213
f 214//214 215//215 216//216
f 217//217 218//218 219//219
f 220//220 221//221 222//222
f 223//223 224//224 225//225
f 226//226 227//227 228//228
f 229//229 230//230 231//231
f 232//232 233//233 234//234
f 235//235 236//236 237//237
f 238//238 239//239 240//240
f 241//241 242//242 243//243
f 244//244 245//245 246//246
f 247//247 248//248 249//249
f 250//250 251//251 252//252
f 253//253 254//254 255//255
f 256//256 257//257 258//258
f 259//259 260//260 261//261
f 262//262 263//263 264//264
f 265//265 266//266 267//267
f 268//268 269//269 270//270
f 271//271 272//272 273//273
f 274//274 275//275 276//276
f 277//277 278//278 279//279
f 280//280 281//281 282//282
f 283//283 284//284 285//285
f 286//286 287//287 288//288
f 289//289 290//290 291//291
f 292//292 293//293 294//294
f 295//295 296//296 297//297
f 298//298 299//299 300//300
f 301//301 302//302 303//303
f 304//304 305//305 306//306
f 307//307 308//308 309//309
f 310//310 311//311 312//312
f 313//313 314//314 315//315
f 316//316 317//317 318//318
f 319//319 320//320 321//321
f 322//322 323//323 324//324
f 325//325 326//326 327//327
f 328//328 329//329 330//330
f 331//331 332//332 333//333
f 334//334 335//335 336//336
f 337//337 338//338 339//339
f 340//340 341//341 342//342
f 343//343 344//344 345//345
