# Exported from SharpOpenGl procedural mesh
o solari_interceptor_mk1_02
# vertices 84
v -0.73803794 0.09722817 0.8434842
v 0.73803794 0.09722817 0.8434842
v 0 0.15556507 -0.36149326
v -0.73803794 0.09722817 0.8434842
v 0 0.15556507 -0.36149326
v -0.73803794 0.09722817 -0.8434842
v 0.73803794 0.09722817 0.8434842
v 0.73803794 0.09722817 -0.8434842
v 0 0.15556507 -0.36149326
v -0.73803794 0 0.8434842
v 0.73803794 0 0.8434842
v 0.73803794 0 -0.8434842
v -0.73803794 0 0.8434842
v 0.73803794 0 -0.8434842
v -0.73803794 0 -0.8434842
v -0.56090885 0.09722817 0.96398205
v -0.38377976 0.1750107 0.36149326
v -0.6494734 0.09722817 -0.48199102
v 0 0.09722817 0.96398205
v 0.1771291 0.1750107 0.36149326
v -0.08856455 0.09722817 -0.48199102
v 0.56090885 0.09722817 0.96398205
v 0.73803794 0.1750107 0.36149326
v 0.4723443 0.09722817 -0.48199102
v -0.16400844 0.09722817 0.24099551
v 0.16400844 0.09722817 0.24099551
v 0.16400844 0.40974727 0.24099551
v -0.16400844 0.09722817 0.24099551
v 0.16400844 0.40974727 0.24099551
v -0.16400844 0.40974727 0.24099551
v -0.16400844 0.09722817 1.0844797
v 0.16400844 0.40974727 1.0844797
v 0.16400844 0.09722817 1.0844797
v -0.16400844 0.09722817 1.0844797
v -0.16400844 0.40974727 1.0844797
v 0.16400844 0.40974727 1.0844797
v -0.16400844 0.09722817 0.24099551
v -0.16400844 0.09722817 1.0844797
v 0.16400844 0.09722817 1.0844797
v -0.16400844 0.09722817 0.24099551
v 0.16400844 0.09722817 1.0844797
v 0.16400844 0.09722817 0.24099551
v -0.16400844 0.40974727 0.24099551
v 0.16400844 0.40974727 1.0844797
v -0.16400844 0.40974727 1.0844797
v -0.16400844 0.40974727 0.24099551
v 0.16400844 0.40974727 0.24099551
v 0.16400844 0.40974727 1.0844797
v -0.16400844 0.09722817 0.24099551
v -0.16400844 0.40974727 0.24099551
v -0.16400844 0.40974727 1.0844797
v -0.16400844 0.09722817 0.24099551
v -0.16400844 0.40974727 1.0844797
v -0.16400844 0.09722817 1.0844797
v 0.16400844 0.09722817 0.24099551
v 0.16400844 0.09722817 1.0844797
v 0.16400844 0.40974727 1.0844797
v 0.16400844 0.09722817 0.24099551
v 0.16400844 0.40974727 1.0844797
v 0.16400844 0.40974727 0.24099551
v -0.45922357 0.027779477 -1.6601913
v -0.5773096 0 -1.9199806
v -0.3411375 0 -1.9199806
v -0.45922357 0.11459034 -1.6011482
v -0.5300752 0.027779477 -1.6601913
v -0.38837194 0.027779477 -1.6601913
v -0.15307453 0.027779477 -1.6601913
v -0.2711606 0 -1.9199806
v -0.03498847 0 -1.9199806
v -0.15307453 0.11459034 -1.6011482
v -0.22392617 0.027779477 -1.6601913
v -0.082222894 0.027779477 -1.6601913
v 0.15307453 0.027779477 -1.6601913
v 0.03498847 0 -1.9199806
v 0.2711606 0 -1.9199806
v 0.15307453 0.11459034 -1.6011482
v 0.082222894 0.027779477 -1.6601913
v 0.22392617 0.027779477 -1.6601913
v 0.45922357 0.027779477 -1.6601913
v 0.3411375 0 -1.9199806
v 0.5773096 0 -1.9199806
v 0.45922357 0.11459034 -1.6011482
v 0.38837194 0.027779477 -1.6601913
v 0.5300752 0.027779477 -1.6601913
vn -0 0.9988302 0.048356634
vn -0 0.9988302 0.048356634
vn -0 0.9988302 0.048356634
vn -0.07879745 0.99689066 0
vn -0.07879745 0.99689066 0
vn -0.07879745 0.99689066 0
vn 0.07879745 0.99689066 0
vn 0.07879745 0.99689066 0
vn 0.07879745 0.99689066 0
vn -0 1 0
vn -0 1 0
vn -0 1 0
vn 0 1 0
vn 0 1 0
vn 0 1 0
vn -0.34148636 0.939654 0.020915737
vn -0.34148636 0.939654 0.020915737
vn -0.34148636 0.939654 0.020915737
vn -0.34148636 0.939654 0.020915732
vn -0.34148636 0.939654 0.020915732
vn -0.34148636 0.939654 0.020915732
vn -0.34148636 0.939654 0.020915732
vn -0.34148636 0.939654 0.020915732
vn -0.34148636 0.939654 0.020915732
vn 0 0 1
vn 0 0 1
vn 0 0 1
vn 0 0 1
vn 0 0 1
vn 0 0 1
vn 0 0 -1
vn 0 0 -1
vn 0 0 -1
vn 0 0 -1
vn 0 0 -1
vn 0 0 -1
vn 0 1 0
vn 0 1 0
vn 0 1 0
vn 0 1 0
vn 0 1 0
vn 0 1 0
vn 0 -1 0
vn 0 -1 0
vn 0 -1 0
vn 0 -1 0
vn 0 -1 0
vn 0 -1 0
vn 1 0 0
vn 1 0 0
vn 1 0 0
vn 1 0 0
vn 1 0 0
vn 1 0 0
vn -1 0 0
vn -1 0 0
vn -1 0 0
vn -1 0 0
vn -1 0 0
vn -1 0 0
vn 0 -0.9943315 0.106324635
vn 0 -0.9943315 0.106324635
vn 0 -0.9943315 0.106324635
vn 0 -0.562386 0.82687485
vn 0 -0.562386 0.82687485
vn 0 -0.562386 0.82687485
vn 0 -0.99433154 0.10632464
vn 0 -0.99433154 0.10632464
vn 0 -0.99433154 0.10632464
vn 0 -0.562386 0.82687485
vn 0 -0.562386 0.82687485
vn 0 -0.562386 0.82687485
vn 0 -0.99433154 0.10632464
vn 0 -0.99433154 0.10632464
vn 0 -0.99433154 0.10632464
vn 0 -0.562386 0.82687485
vn 0 -0.562386 0.82687485
vn 0 -0.562386 0.82687485
vn 0 -0.9943315 0.106324635
vn 0 -0.9943315 0.106324635
vn 0 -0.9943315 0.106324635
vn 0 -0.562386 0.82687485
vn 0 -0.562386 0.82687485
vn 0 -0.562386 0.82687485
f 1//1 2//2 3//3
f 4//4 5//5 6//6
f 7//7 8//8 9//9
f 10//10 11//11 12//12
f 13//13 14//14 15//15
f 16//16 17//17 18//18
f 19//19 20//20 21//21
f 22//22 23//23 24//24
f 25//25 26//26 27//27
f 28//28 29//29 30//30
f 31//31 32//32 33//33
f 34//34 35//35 36//36
f 37//37 38//38 39//39
f 40//40 41//41 42//42
f 43//43 44//44 45//45
f 46//46 47//47 48//48
f 49//49 50//50 51//51
f 52//52 53//53 54//54
f 55//55 56//56 57//57
f 58//58 59//59 60//60
f 61//61 62//62 63//63
f 64//64 65//65 66//66
f 67//67 68//68 69//69
f 70//70 71//71 72//72
f 73//73 74//74 75//75
f 76//76 77//77 78//78
f 79//79 80//80 81//81
f 82//82 83//83 84//84
