# Exported from SharpOpenGl procedural mesh
o solari_interceptor_mk2_19
# vertices 84
v -0.82743275 0.09430877 0.8271023
v 0.82743275 0.09430877 0.8271023
v 0 0.15089403 -0.35447243
v -0.82743275 0.09430877 0.8271023
v 0 0.15089403 -0.35447243
v -0.82743275 0.09430877 -0.8271023
v 0.82743275 0.09430877 0.8271023
v 0.82743275 0.09430877 -0.8271023
v 0 0.15089403 -0.35447243
v -0.82743275 0 0.8271023
v 0.82743275 0 0.8271023
v 0.82743275 0 -0.8271023
v -0.82743275 0 0.8271023
v 0.82743275 0 -0.8271023
v -0.82743275 0 -0.8271023
v -0.6288489 0.09430877 0.94525975
v -0.43026507 0.16975579 0.35447243
v -0.72814083 0.09430877 -0.47262987
v 0 0.09430877 0.94525975
v 0.19858386 0.16975579 0.35447243
v -0.09929193 0.09430877 -0.47262987
v 0.6288489 0.09430877 0.94525975
v 0.82743275 0.16975579 0.35447243
v 0.529557 0.09430877 -0.47262987
v -0.18387395 0.09430877 0.23631494
v 0.18387395 0.09430877 0.23631494
v 0.18387395 0.39744407 0.23631494
v -0.18387395 0.09430877 0.23631494
v 0.18387395 0.39744407 0.23631494
v -0.18387395 0.39744407 0.23631494
v -0.18387395 0.09430877 1.0634172
v 0.18387395 0.39744407 1.0634172
v 0.18387395 0.09430877 1.0634172
v -0.18387395 0.09430877 1.0634172
v -0.18387395 0.39744407 1.0634172
v 0.18387395 0.39744407 1.0634172
v -0.18387395 0.09430877 0.23631494
v -0.18387395 0.09430877 1.0634172
v 0.18387395 0.09430877 1.0634172
v -0.18387395 0.09430877 0.23631494
v 0.18387395 0.09430877 1.0634172
v 0.18387395 0.09430877 0.23631494
v -0.18387395 0.39744407 0.23631494
v 0.18387395 0.39744407 1.0634172
v -0.18387395 0.39744407 1.0634172
v -0.18387395 0.39744407 0.23631494
v 0.18387395 0.39744407 0.23631494
v 0.18387395 0.39744407 1.0634172
v -0.18387395 0.09430877 0.23631494
v -0.18387395 0.39744407 0.23631494
v -0.18387395 0.39744407 1.0634172
v -0.18387395 0.09430877 0.23631494
v -0.18387395 0.39744407 1.0634172
v -0.18387395 0.09430877 1.0634172
v 0.18387395 0.09430877 0.23631494
v 0.18387395 0.09430877 1.0634172
v 0.18387395 0.39744407 1.0634172
v 0.18387395 0.09430877 0.23631494
v 0.18387395 0.39744407 1.0634172
v 0.18387395 0.39744407 0.23631494
v -0.51484704 0.026945362 -1.6279474
v -0.6472363 0 -1.9192038
v -0.3824578 0 -1.9192038
v -0.51484704 0.11114962 -1.5617528
v -0.5942806 0.026945362 -1.6279474
v -0.43541348 0.026945362 -1.6279474
v -0.17161568 0.026945362 -1.6279474
v -0.3040049 0 -1.9192038
v -0.039226443 0 -1.9192038
v -0.17161568 0.11114962 -1.5617528
v -0.25104922 0.026945362 -1.6279474
v -0.09218213 0.026945362 -1.6279474
v 0.17161568 0.026945362 -1.6279474
v 0.039226443 0 -1.9192038
v 0.3040049 0 -1.9192038
v 0.17161568 0.11114962 -1.5617528
v 0.09218213 0.026945362 -1.6279474
v 0.25104922 0.026945362 -1.6279474
v 0.51484704 0.026945362 -1.6279474
v 0.3824578 0 -1.9192038
v 0.6472363 0 -1.9192038
v 0.51484704 0.11114962 -1.5617528
v 0.43541348 0.026945362 -1.6279474
v 0.5942806 0.026945362 -1.6279474
vn -0 0.99885535 0.047834888
vn -0 0.99885535 0.047834888
vn -0 0.99885535 0.047834888
vn -0.06822718 0.9976698 0
vn -0.06822718 0.9976698 0
vn -0.06822718 0.9976698 0
vn 0.06822718 0.9976698 0
vn 0.06822718 0.9976698 0
vn 0.06822718 0.9976698 0
vn -0 1 0
vn -0 1 0
vn -0 1 0
vn 0 1 0
vn 0 1 0
vn 0 1 0
vn -0.29987785 0.9537465 0.020999834
vn -0.29987785 0.9537465 0.020999834
vn -0.29987785 0.9537465 0.020999834
vn -0.2998778 0.95374644 0.020999832
vn -0.2998778 0.95374644 0.020999832
vn -0.2998778 0.95374644 0.020999832
vn -0.29987785 0.9537465 0.020999834
vn -0.29987785 0.9537465 0.020999834
vn -0.29987785 0.9537465 0.020999834
vn 0 0 1
vn 0 0 1
vn 0 0 1
vn 0 0 1
vn 0 0 1
vn 0 0 1
vn 0 0 -1
vn 0 0 -1
vn 0 0 -1
vn 0 0 -1
vn 0 0 -1
vn 0 0 -1
vn 0 0.99999994 0
vn 0 0.99999994 0
vn 0 0.99999994 0
vn 0 0.99999994 0
vn 0 0.99999994 0
vn 0 0.99999994 0
vn 0 -0.99999994 0
vn 0 -0.99999994 0
vn 0 -0.99999994 0
vn 0 -0.99999994 0
vn 0 -0.99999994 0
vn 0 -0.99999994 0
vn 1 0 0
vn 1 0 0
vn 1 0 0
vn 1 0 0
vn 1 0 0
vn 1 0 0
vn -1 0 0
vn -1 0 0
vn -1 0 0
vn -1 0 0
vn -1 0 0
vn -1 0 0
vn 0 -0.9957478 0.09212088
vn 0 -0.9957478 0.09212088
vn 0 -0.9957478 0.09212088
vn 0 -0.61801875 0.78616333
vn 0 -0.61801875 0.78616333
vn 0 -0.61801875 0.78616333
vn 0 -0.9957478 0.09212087
vn 0 -0.9957478 0.09212087
vn 0 -0.9957478 0.09212087
vn 0 -0.61801875 0.7861634
vn 0 -0.61801875 0.7861634
vn 0 -0.61801875 0.7861634
vn 0 -0.9957478 0.09212087
vn 0 -0.9957478 0.09212087
vn 0 -0.9957478 0.09212087
vn 0 -0.61801875 0.7861634
vn 0 -0.61801875 0.7861634
vn 0 -0.61801875 0.7861634
vn 0 -0.9957478 0.09212088
vn 0 -0.9957478 0.09212088
vn 0 -0.9957478 0.09212088
vn 0 -0.61801875 0.78616333
vn 0 -0.61801875 0.78616333
vn 0 -0.61801875 0.78616333
f 1//1 2//2 3//3
f 4//4 5//5 6//6
f 7//7 8//8 9//9
f 10//10 11//11 12//12
f 13//13 14//14 15//15
f 16//16 17//17 18//18
f 19//19 20//20 21//21
f 22//22 23//23 24//24
f 25//25 26//26 27//27
f 28//28 29//29 30//30
f 31//31 32//32 33//33
f 34//34 35//35 36//36
f 37//37 38//38 39//39
f 40//40 41//41 42//42
f 43//43 44//44 45//45
f 46//46 47//47 48//48
f 49//49 50//50 51//51
f 52//52 53//53 54//54
f 55//55 56//56 57//57
f 58//58 59//59 60//60
f 61//61 62//62 63//63
f 64//64 65//65 66//66
f 67//67 68//68 69//69
f 70//70 71//71 72//72
f 73//73 74//74 75//75
f 76//76 77//77 78//78
f 79//79 80//80 81//81
f 82//82 83//83 84//84
