# Exported from SharpOpenGl procedural mesh
o debris
# vertices 9
v 0 1.2 0
v -1.8000001 0 1.05
v 1.5 0 0.6
v -1.6500001 0 -0.75
v 1.3499999 0 -1.2
v 0 0.75 0.3
v -0.90000004 0 1.6500001
v 1.9499999 0 0.1
v 0 0.45000002 -1.5
vn 0.11254341 0.55333847 0.8253184
vn 0.11254341 0.55333847 0.8253184
vn 0.11254341 0.55333847 0.8253184
vn 0.07485605 -0.86333966 0.49904028
vn 0.07485605 -0.86333966 0.49904028
vn 0.07485605 -0.86333966 0.49904028
vn 0.090329126 0.98196495 0.16608903
vn 0.090329126 0.98196495 0.16608903
vn 0.090329126 0.98196495 0.16608903
f 1//1 2//2 3//3
f 4//4 5//5 6//6
f 7//7 8//8 9//9
