# Exported from SharpOpenGl procedural mesh
o korath_transport_mk3_47
# vertices 330
v -2.6811638 0 -1.701536
v 2.6811638 0 -1.701536
v 2.6811638 0.6504035 -1.701536
v -2.6811638 0 -1.701536
v 2.6811638 0.6504035 -1.701536
v -2.6811638 0.6504035 -1.701536
v -2.6811638 0 1.701536
v 2.6811638 0.6504035 1.701536
v 2.6811638 0 1.701536
v -2.6811638 0 1.701536
v -2.6811638 0.6504035 1.701536
v 2.6811638 0.6504035 1.701536
v -2.6811638 0 -1.701536
v -2.6811638 0 1.701536
v 2.6811638 0 1.701536
v -2.6811638 0 -1.701536
v 2.6811638 0 1.701536
v 2.6811638 0 -1.701536
v -2.6811638 0.6504035 -1.701536
v 2.6811638 0.6504035 1.701536
v -2.6811638 0.6504035 1.701536
v -2.6811638 0.6504035 -1.701536
v 2.6811638 0.6504035 -1.701536
v 2.6811638 0.6504035 1.701536
v -2.6811638 0 -1.701536
v -2.6811638 0.6504035 -1.701536
v -2.6811638 0.6504035 1.701536
v -2.6811638 0 -1.701536
v -2.6811638 0.6504035 1.701536
v -2.6811638 0 1.701536
v 2.6811638 0 -1.701536
v 2.6811638 0 1.701536
v 2.6811638 0.6504035 1.701536
v 2.6811638 0 -1.701536
v 2.6811638 0.6504035 1.701536
v 2.6811638 0.6504035 -1.701536
v -1.6623216 0.02408902 1.8149717
v 1.6623216 0.02408902 1.8149717
v 1.6623216 0.45769134 1.8149717
v -1.6623216 0.02408902 1.8149717
v 1.6623216 0.45769134 1.8149717
v -1.6623216 0.45769134 1.8149717
v -1.6623216 0.02408902 2.9493291
v 1.6623216 0.45769134 2.9493291
v 1.6623216 0.02408902 2.9493291
v -1.6623216 0.02408902 2.9493291
v -1.6623216 0.45769134 2.9493291
v 1.6623216 0.45769134 2.9493291
v -1.6623216 0.02408902 1.8149717
v -1.6623216 0.02408902 2.9493291
v 1.6623216 0.02408902 2.9493291
v -1.6623216 0.02408902 1.8149717
v 1.6623216 0.02408902 2.9493291
v 1.6623216 0.02408902 1.8149717
v -1.6623216 0.45769134 1.8149717
v 1.6623216 0.45769134 2.9493291
v -1.6623216 0.45769134 2.9493291
v -1.6623216 0.45769134 1.8149717
v 1.6623216 0.45769134 1.8149717
v 1.6623216 0.45769134 2.9493291
v -1.6623216 0.02408902 1.8149717
v -1.6623216 0.45769134 1.8149717
v -1.6623216 0.45769134 2.9493291
v -1.6623216 0.02408902 1.8149717
v -1.6623216 0.45769134 2.9493291
v -1.6623216 0.02408902 2.9493291
v 1.6623216 0.02408902 1.8149717
v 1.6623216 0.02408902 2.9493291
v 1.6623216 0.45769134 2.9493291
v 1.6623216 0.02408902 1.8149717
v 1.6623216 0.45769134 2.9493291
v 1.6623216 0.45769134 1.8149717
v -1.3942051 0 -2.8358934
v 1.3942051 0 -2.8358934
v 1.3942051 0.3950599 -2.8358934
v -1.3942051 0 -2.8358934
v 1.3942051 0.3950599 -2.8358934
v -1.3942051 0.3950599 -2.8358934
v -1.3942051 0 -1.0209217
v 1.3942051 0.3950599 -1.0209217
v 1.3942051 0 -1.0209217
v -1.3942051 0 -1.0209217
v -1.3942051 0.3950599 -1.0209217
v 1.3942051 0.3950599 -1.0209217
v -1.3942051 0 -2.8358934
v -1.3942051 0 -1.0209217
v 1.3942051 0 -1.0209217
v -1.3942051 0 -2.8358934
v 1.3942051 0 -1.0209217
v 1.3942051 0 -2.8358934
v -1.3942051 0.3950599 -2.8358934
v 1.3942051 0.3950599 -1.0209217
v -1.3942051 0.3950599 -1.0209217
v -1.3942051 0.3950599 -2.8358934
v 1.3942051 0.3950599 -2.8358934
v 1.3942051 0.3950599 -1.0209217
v -1.3942051 0 -2.8358934
v -1.3942051 0.3950599 -2.8358934
v -1.3942051 0.3950599 -1.0209217
v -1.3942051 0 -2.8358934
v -1.3942051 0.3950599 -1.0209217
v -1.3942051 0 -1.0209217
v 1.3942051 0 -2.8358934
v 1.3942051 0 -1.0209217
v 1.3942051 0.3950599 -1.0209217
v 1.3942051 0 -2.8358934
v 1.3942051 0.3950599 -1.0209217
v 1.3942051 0.3950599 -2.8358934
v -2.5471056 0.72267056 -3.2896361
v -2.5471056 0.72267056 -1.9510945
v -2.5471056 0.61427 -3.0888548
v 2.5471056 0.72267056 -3.2896361
v 2.5471056 0.72267056 -1.9510945
v 2.5471056 0.61427 -3.0888548
v -2.5471056 0.72267056 -3.2896361
v 2.5471056 0.72267056 -3.2896361
v -2.5471056 0.61427 -3.2896361
v -0.75072587 0.5540474 -3.2896361
v 0.75072587 0.5540474 -1.9510945
v -0.75072587 0.47094032 -3.0888548
v -0.75072587 0 -3.2896361
v -0.75072587 -0.105991684 -1.9510945
v -0.75072587 0 -3.0888548
v 0.75072587 0 -3.2896361
v 0.75072587 -0.105991684 -1.9510945
v 0.75072587 0 -3.0888548
v -2.5471056 0.72267056 -1.9510945
v -2.5471056 0.72267056 -0.6125529
v -2.5471056 0.61427 -1.7503133
v 2.5471056 0.72267056 -1.9510945
v 2.5471056 0.72267056 -0.6125529
v 2.5471056 0.61427 -1.7503133
v -2.5471056 0.72267056 -1.9510945
v 2.5471056 0.72267056 -1.9510945
v -2.5471056 0.61427 -1.9510945
v -0.75072587 0.5540474 -1.9510945
v 0.75072587 0.5540474 -0.6125529
v -0.75072587 0.47094032 -1.7503133
v -0.75072587 0 -1.9510945
v -0.75072587 -0.105991684 -0.6125529
v -0.75072587 0 -1.7503133
v 0.75072587 0 -1.9510945
v 0.75072587 -0.105991684 -0.6125529
v 0.75072587 0 -1.7503133
v -2.5471056 0.72267056 -0.6125529
v -2.5471056 0.72267056 0.72598886
v -2.5471056 0.61427 -0.4117716
v 2.5471056 0.72267056 -0.6125529
v 2.5471056 0.72267056 0.72598886
v 2.5471056 0.61427 -0.4117716
v -2.5471056 0.72267056 -0.6125529
v 2.5471056 0.72267056 -0.6125529
v -2.5471056 0.61427 -0.6125529
v -0.75072587 0.5540474 -0.6125529
v 0.75072587 0.5540474 0.72598886
v -0.75072587 0.47094032 -0.4117716
v -0.75072587 0 -0.6125529
v -0.75072587 -0.105991684 0.72598886
v -0.75072587 0 -0.4117716
v 0.75072587 0 -0.6125529
v 0.75072587 -0.105991684 0.72598886
v 0.75072587 0 -0.4117716
v -2.5471056 0.72267056 0.72598886
v -2.5471056 0.72267056 2.0645304
v -2.5471056 0.61427 0.9267701
v 2.5471056 0.72267056 0.72598886
v 2.5471056 0.72267056 2.0645304
v 2.5471056 0.61427 0.9267701
v -2.5471056 0.72267056 0.72598886
v 2.5471056 0.72267056 0.72598886
v -2.5471056 0.61427 0.72598886
v -0.75072587 0.5540474 0.72598886
v 0.75072587 0.5540474 2.0645304
v -0.75072587 0.47094032 0.9267701
v -0.75072587 0 0.72598886
v -0.75072587 -0.105991684 2.0645304
v -0.75072587 0 0.9267701
v 0.75072587 0 0.72598886
v 0.75072587 -0.105991684 2.0645304
v 0.75072587 0 0.9267701
v -2.5471056 0.72267056 2.0645304
v -2.5471056 0.72267056 3.4030719
v -2.5471056 0.61427 2.2653117
v 2.5471056 0.72267056 2.0645304
v 2.5471056 0.72267056 3.4030719
v 2.5471056 0.61427 2.2653117
v -2.5471056 0.72267056 2.0645304
v 2.5471056 0.72267056 2.0645304
v -2.5471056 0.61427 2.0645304
v -0.75072587 0.5540474 2.0645304
v 0.75072587 0.5540474 3.4030719
v -0.75072587 0.47094032 2.2653117
v -0.75072587 0 2.0645304
v -0.75072587 -0.105991684 3.4030719
v -0.75072587 0 2.2653117
v 0.75072587 0 2.0645304
v 0.75072587 -0.105991684 3.4030719
v 0.75072587 0 2.2653117
v -9.235119 0.27943262 -0.5671787
v -0.10724655 0.27943262 -0.5671787
v -0.10724655 0.3661531 -0.5671787
v -9.235119 0.27943262 -0.5671787
v -0.10724655 0.3661531 -0.5671787
v -9.235119 0.3661531 -0.5671787
v -9.235119 0.27943262 1.0209216
v -0.10724655 0.3661531 1.0209216
v -0.10724655 0.27943262 1.0209216
v -9.235119 0.27943262 1.0209216
v -9.235119 0.3661531 1.0209216
v -0.10724655 0.3661531 1.0209216
v -9.235119 0.27943262 -0.5671787
v -9.235119 0.27943262 1.0209216
v -0.10724655 0.27943262 1.0209216
v -9.235119 0.27943262 -0.5671787
v -0.10724655 0.27943262 1.0209216
v -0.10724655 0.27943262 -0.5671787
v -9.235119 0.3661531 -0.5671787
v -0.10724655 0.3661531 1.0209216
v -9.235119 0.3661531 1.0209216
v -9.235119 0.3661531 -0.5671787
v -0.10724655 0.3661531 -0.5671787
v -0.10724655 0.3661531 1.0209216
v -9.235119 0.27943262 -0.5671787
v -9.235119 0.3661531 -0.5671787
v -9.235119 0.3661531 1.0209216
v -9.235119 0.27943262 -0.5671787
v -9.235119 0.3661531 1.0209216
v -9.235119 0.27943262 1.0209216
v -0.10724655 0.27943262 -0.5671787
v -0.10724655 0.27943262 1.0209216
v -0.10724655 0.3661531 1.0209216
v -0.10724655 0.27943262 -0.5671787
v -0.10724655 0.3661531 1.0209216
v -0.10724655 0.3661531 -0.5671787
v 0.10724655 0.27943262 -0.5671787
v 9.235119 0.27943262 -0.5671787
v 9.235119 0.3661531 -0.5671787
v 0.10724655 0.27943262 -0.5671787
v 9.235119 0.3661531 -0.5671787
v 0.10724655 0.3661531 -0.5671787
v 0.10724655 0.27943262 1.0209216
v 9.235119 0.3661531 1.0209216
v 9.235119 0.27943262 1.0209216
v 0.10724655 0.27943262 1.0209216
v 0.10724655 0.3661531 1.0209216
v 9.235119 0.3661531 1.0209216
v 0.10724655 0.27943262 -0.5671787
v 0.10724655 0.27943262 1.0209216
v 9.235119 0.27943262 1.0209216
v 0.10724655 0.27943262 -0.5671787
v 9.235119 0.27943262 1.0209216
v 9.235119 0.27943262 -0.5671787
v 0.10724655 0.3661531 -0.5671787
v 9.235119 0.3661531 1.0209216
v 0.10724655 0.3661531 1.0209216
v 0.10724655 0.3661531 -0.5671787
v 9.235119 0.3661531 -0.5671787
v 9.235119 0.3661531 1.0209216
v 0.10724655 0.27943262 -0.5671787
v 0.10724655 0.3661531 -0.5671787
v 0.10724655 0.3661531 1.0209216
v 0.10724655 0.27943262 -0.5671787
v 0.10724655 0.3661531 1.0209216
v 0.10724655 0.27943262 1.0209216
v 9.235119 0.27943262 -0.5671787
v 9.235119 0.27943262 1.0209216
v 9.235119 0.3661531 1.0209216
v 9.235119 0.27943262 -0.5671787
v 9.235119 0.3661531 1.0209216
v 9.235119 0.3661531 -0.5671787
v -2.6811638 0.30352163 0.22687146
v -6.285839 0.31797504 0.22687146
v -2.6811638 0.2579934 0.22687146
v 2.6811638 0.30352163 0.22687146
v 6.285839 0.31797504 0.22687146
v 2.6811638 0.2579934 0.22687146
v -0.8579724 0.6022255 2.609022
v 0.8579724 0.6022255 2.609022
v 0.8579724 0.7323062 2.609022
v -0.8579724 0.6022255 2.609022
v 0.8579724 0.7323062 2.609022
v -0.8579724 0.7323062 2.609022
v -0.8579724 0.6022255 3.403072
v 0.8579724 0.7323062 3.403072
v 0.8579724 0.6022255 3.403072
v -0.8579724 0.6022255 3.403072
v -0.8579724 0.7323062 3.403072
v 0.8579724 0.7323062 3.403072
v -0.8579724 0.6022255 2.609022
v -0.8579724 0.6022255 3.403072
v 0.8579724 0.6022255 3.403072
v -0.8579724 0.6022255 2.609022
v 0.8579724 0.6022255 3.403072
v 0.8579724 0.6022255 2.609022
v -0.8579724 0.7323062 2.609022
v 0.8579724 0.7323062 3.403072
v -0.8579724 0.7323062 3.403072
v -0.8579724 0.7323062 2.609022
v 0.8579724 0.7323062 2.609022
v 0.8579724 0.7323062 3.403072
v -0.8579724 0.6022255 2.609022
v -0.8579724 0.7323062 2.609022
v -0.8579724 0.7323062 3.403072
v -0.8579724 0.6022255 2.609022
v -0.8579724 0.7323062 3.403072
v -0.8579724 0.6022255 3.403072
v 0.8579724 0.6022255 2.609022
v 0.8579724 0.6022255 3.403072
v 0.8579724 0.7323062 3.403072
v 0.8579724 0.6022255 2.609022
v 0.8579724 0.7323062 3.403072
v 0.8579724 0.7323062 2.609022
v 0 0.6648569 2.0418434
v 0 0.713035 3.2896361
v 0 0.5651284 2.2290123
v -1.2869586 -0.057813644 -0.6806144
v 1.2869586 -0.057813644 1.2477931
v -1.2869586 -0.0491416 -0.39135328
v -2.6066868 0.18066765 -3.6630292
v -3.58978 0 -5.8258343
v -1.6235936 0 -5.8258343
v 0 0.18066765 -3.6630292
v -0.9830933 0 -5.8258343
v 0.9830933 0 -5.8258343
v 2.6066868 0.18066765 -3.6630292
v 1.6235936 0 -5.8258343
v 3.58978 0 -5.8258343
v 0 0.45769137 -0.2954056
v -0.5213374 0.16862313 -0.7422662
v 0.5213374 0.16862313 -0.7422662
vn 0 0 1
vn 0 0 1
vn 0 0 1
vn 0 0 1
vn 0 0 1
vn 0 0 1
vn 0 0 -1
vn 0 0 -1
vn 0 0 -1
vn 0 0 -1
vn 0 0 -1
vn 0 0 -1
vn 0 1 0
vn 0 1 0
vn 0 1 0
vn 0 1 0
vn 0 1 0
vn 0 1 0
vn 0 -1 0
vn 0 -1 0
vn 0 -1 0
vn 0 -1 0
vn 0 -1 0
vn 0 -1 0
vn 1 0 0
vn 1 0 0
vn 1 0 0
vn 1 0 0
vn 1 0 0
vn 1 0 0
vn -1 0 0
vn -1 0 0
vn -1 0 0
vn -1 0 0
vn -1 0 0
vn -1 0 0
vn 0 0 1
vn 0 0 1
vn 0 0 1
vn 0 0 1
vn 0 0 1
vn 0 0 1
vn 0 0 -1
vn 0 0 -1
vn 0 0 -1
vn 0 0 -1
vn 0 0 -1
vn 0 0 -1
vn 0 0.99999994 0
vn 0 0.99999994 0
vn 0 0.99999994 0
vn 0 0.99999994 0
vn 0 0.99999994 0
vn 0 0.99999994 0
vn 0 -0.99999994 0
vn 0 -0.99999994 0
vn 0 -0.99999994 0
vn 0 -0.99999994 0
vn 0 -0.99999994 0
vn 0 -0.99999994 0
vn 1 0 0
vn 1 0 0
vn 1 0 0
vn 1 0 0
vn 1 0 0
vn 1 0 0
vn -1 0 0
vn -1 0 0
vn -1 0 0
vn -1 0 0
vn -1 0 0
vn -1 0 0
vn 0 0 1
vn 0 0 1
vn 0 0 1
vn 0 0 1
vn 0 0 1
vn 0 0 1
vn 0 0 -1
vn 0 0 -1
vn 0 0 -1
vn 0 0 -1
vn 0 0 -1
vn 0 0 -1
vn 0 1 0
vn 0 1 0
vn 0 1 0
vn 0 1 0
vn 0 1 0
vn 0 1 0
vn 0 -1 0
vn 0 -1 0
vn 0 -1 0
vn 0 -1 0
vn 0 -1 0
vn 0 -1 0
vn 1 0 0
vn 1 0 0
vn 1 0 0
vn 1 0 0
vn 1 0 0
vn 1 0 0
vn -1 0 0
vn -1 0 0
vn -1 0 0
vn -1 0 0
vn -1 0 0
vn -1 0 0
vn 1 0 -0
vn 1 0 -0
vn 1 0 -0
vn 1 0 -0
vn 1 0 -0
vn 1 0 -0
vn 0 0 -1
vn 0 0 -1
vn 0 0 -1
vn 0.32271206 -0.8745406 -0.36198843
vn 0.32271206 -0.8745406 -0.36198843
vn 0.32271206 -0.8745406 -0.36198843
vn -1 0 0
vn -1 0 0
vn -1 0 0
vn -1 0 0
vn -1 0 0
vn -1 0 0
vn 1 0 -0
vn 1 0 -0
vn 1 0 -0
vn 1 0 -0
vn 1 0 -0
vn 1 0 -0
vn 0 0 -1
vn 0 0 -1
vn 0 0 -1
vn 0.3227122 -0.87454045 -0.36198857
vn 0.3227122 -0.87454045 -0.36198857
vn 0.3227122 -0.87454045 -0.36198857
vn -1 0 0
vn -1 0 0
vn -1 0 0
vn -1 0 0
vn -1 0 0
vn -1 0 0
vn 1 0 -0
vn 1 0 -0
vn 1 0 -0
vn 1 0 -0
vn 1 0 -0
vn 1 0 -0
vn 0 0 -1
vn 0 0 -1
vn 0 0 -1
vn 0.32271218 -0.87454057 -0.3619885
vn 0.32271218 -0.87454057 -0.3619885
vn 0.32271218 -0.87454057 -0.3619885
vn -1 0 0
vn -1 0 0
vn -1 0 0
vn -1 0 0
vn -1 0 0
vn -1 0 0
vn 1 0 -0
vn 1 0 -0
vn 1 0 -0
vn 1 0 -0
vn 1 0 -0
vn 1 0 -0
vn 0 0 -1
vn 0 0 -1
vn 0 0 -1
vn 0.32271215 -0.87454045 -0.36198857
vn 0.32271215 -0.87454045 -0.36198857
vn 0.32271215 -0.87454045 -0.36198857
vn -1 0 0
vn -1 0 0
vn -1 0 0
vn -1 0 0
vn -1 0 0
vn -1 0 0
vn 1 0 -0
vn 1 0 -0
vn 1 0 -0
vn 1 0 -0
vn 1 0 -0
vn 1 0 -0
vn 0 0 -1
vn 0 0 -1
vn 0 0 -1
vn 0.32271203 -0.8745406 -0.36198843
vn 0.32271203 -0.8745406 -0.36198843
vn 0.32271203 -0.8745406 -0.36198843
vn -1 0 0
vn -1 0 0
vn -1 0 0
vn -1 0 0
vn -1 0 0
vn -1 0 0
vn 0 0 1
vn 0 0 1
vn 0 0 1
vn 0 0 1
vn 0 0 1
vn 0 0 1
vn 0 0 -1
vn 0 0 -1
vn 0 0 -1
vn 0 0 -1
vn 0 0 -1
vn 0 0 -1
vn 0 1 0
vn 0 1 0
vn 0 1 0
vn 0 1 0
vn 0 1 0
vn 0 1 0
vn 0 -1 0
vn 0 -1 0
vn 0 -1 0
vn 0 -1 0
vn 0 -1 0
vn 0 -1 0
vn 1 0 0
vn 1 0 0
vn 1 0 0
vn 1 0 0
vn 1 0 0
vn 1 0 0
vn -1 0 0
vn -1 0 0
vn -1 0 0
vn -1 0 0
vn -1 0 0
vn -1 0 0
vn 0 0 1
vn 0 0 1
vn 0 0 1
vn 0 0 1
vn 0 0 1
vn 0 0 1
vn 0 0 -1
vn 0 0 -1
vn 0 0 -1
vn 0 0 -1
vn 0 0 -1
vn 0 0 -1
vn 0 1 0
vn 0 1 0
vn 0 1 0
vn 0 1 0
vn 0 1 0
vn 0 1 0
vn 0 -1 0
vn 0 -1 0
vn 0 -1 0
vn 0 -1 0
vn 0 -1 0
vn 0 -1 0
vn 1 0 0
vn 1 0 0
vn 1 0 0
vn 1 0 0
vn 1 0 0
vn 1 0 0
vn -1 0 0
vn -1 0 0
vn -1 0 0
vn -1 0 0
vn -1 0 0
vn -1 0 0
vn 0 0 1
vn 0 0 1
vn 0 0 1
vn 0 0 -1
vn 0 0 -1
vn 0 0 -1
vn 0 0 0.99999994
vn 0 0 0.99999994
vn 0 0 0.99999994
vn 0 0 0.99999994
vn 0 0 0.99999994
vn 0 0 0.99999994
vn 0 0 -0.99999994
vn 0 0 -0.99999994
vn 0 0 -0.99999994
vn 0 0 -0.99999994
vn 0 0 -0.99999994
vn 0 0 -0.99999994
vn 0 0.99999994 0
vn 0 0.99999994 0
vn 0 0.99999994 0
vn 0 0.99999994 0
vn 0 0.99999994 0
vn 0 0.99999994 0
vn 0 -0.99999994 0
vn 0 -0.99999994 0
vn 0 -0.99999994 0
vn 0 -0.99999994 0
vn 0 -0.99999994 0
vn 0 -0.99999994 0
vn 1 0 0
vn 1 0 0
vn 1 0 0
vn 1 0 0
vn 1 0 0
vn 1 0 0
vn -1 0 0
vn -1 0 0
vn -1 0 0
vn -1 0 0
vn -1 0 0
vn -1 0 0
vn 1 0 -0
vn 1 0 -0
vn 1 0 -0
vn -0.022445593 -0.999299 0.029958965
vn -0.022445593 -0.999299 0.029958965
vn -0.022445593 -0.999299 0.029958965
vn 0 -0.9965292 0.083244026
vn 0 -0.9965292 0.083244026
vn 0 -0.9965292 0.083244026
vn 0 -0.99652916 0.08324402
vn 0 -0.99652916 0.08324402
vn 0 -0.99652916 0.08324402
vn 0 -0.9965292 0.083244026
vn 0 -0.9965292 0.083244026
vn 0 -0.9965292 0.083244026
vn 0 -0.839636 0.54314953
vn 0 -0.839636 0.54314953
vn 0 -0.839636 0.54314953
f 1//1 2//2 3//3
f 4//4 5//5 6//6
f 7//7 8//8 9//9
f 10//10 11//11 12//12
f 13//13 14//14 15//15
f 16//16 17//17 18//18
f 19//19 20//20 21//21
f 22//22 23//23 24//24
f 25//25 26//26 27//27
f 28//28 29//29 30//30
f 31//31 32//32 33//33
f 34//34 35//35 36//36
f 37//37 38//38 39//39
f 40//40 41//41 42//42
f 43//43 44//44 45//45
f 46//46 47//47 48//48
f 49//49 50//50 51//51
f 52//52 53//53 54//54
f 55//55 56//56 57//57
f 58//58 59//59 60//60
f 61//61 62//62 63//63
f 64//64 65//65 66//66
f 67//67 68//68 69//69
f 70//70 71//71 72//72
f 73//73 74//74 75//75
f 76//76 77//77 78//78
f 79//79 80//80 81//81
f 82//82 83//83 84//84
f 85//85 86//86 87//87
f 88//88 89//89 90//90
f 91//91 92//92 93//93
f 94//94 95//95 96//96
f 97//97 98//98 99//99
f 100//100 101//101 102//102
f 103//103 104//104 105//105
f 106//106 107//107 108//108
f 109//109 110//110 111//111
f 112//112 113//113 114//114
f 115//115 116//116 117//117
f 118//118 119//119 120//120
f 121//121 122//122 123//123
f 124//124 125//125 126//126
f 127//127 128//128 129//129
f 130//130 131//131 132//132
f 133//133 134//134 135//135
f 136//136 137//137 138//138
f 139//139 140//140 141//141
f 142//142 143//143 144//144
f 145//145 146//146 147//147
f 148//148 149//149 150//150
f 151//151 152//152 153//153
f 154//154 155//155 156//156
f 157//157 158//158 159//159
f 160//160 161//161 162//162
f 163//163 164//164 165//165
f 166//166 167//167 168//168
f 169//169 170//170 171//171
f 172//172 173//173 174//174
f 175//175 176//176 177//177
f 178//178 179//179 180//180
f 181//181 182//182 183//183
f 184//184 185//185 186//186
f 187//187 188//188 189//189
f 190//190 191//191 192//192
f 193//193 194//194 195//195
f 196//196 197//197 198//198
f 199//199 200//200 201//201
f 202//202 203//203 204//204
f 205//205 206//206 207//207
f 208//208 209//209 210//210
f 211//211 212//212 213//213
f 214//214 215//215 216//216
f 217//217 218//218 219//219
f 220//220 221//221 222//222
f 223//223 224//224 225//225
f 226//226 227//227 228//228
f 229//229 230//230 231//231
f 232//232 233//233 234//234
f 235//235 236//236 237//237
f 238//238 239//239 240//240
f 241//241 242//242 243//243
f 244//244 245//245 246//246
f 247//247 248//248 249//249
f 250//250 251//251 252//252
f 253//253 254//254 255//255
f 256//256 257//257 258//258
f 259//259 260//260 261//261
f 262//262 263//263 264//264
f 265//265 266//266 267//267
f 268//268 269//269 270//270
f 271//271 272//272 273//273
f 274//274 275//275 276//276
f 277//277 278//278 279//279
f 280//280 281//281 282//282
f 283//283 284//284 285//285
f 286//286 287//287 288//288
f 289//289 290//290 291//291
f 292//292 293//293 294//294
f 295//295 296//296 297//297
f 298//298 299//299 300//300
f 301//301 302//302 303//303
f 304//304 305//305 306//306
f 307//307 308//308 309//309
f 310//310 311//311 312//312
f 313//313 314//314 315//315
f 316//316 317//317 318//318
f 319//319 320//320 321//321
f 322//322 323//323 324//324
f 325//325 326//326 327//327
f 328//328 329//329 330//330
