# Exported from SharpOpenGl procedural mesh
o korath_dreadnought_mk1_11
# vertices 363
v -3.245653 0 -2.3523192
v 3.245653 0 -2.3523192
v 3.245653 1.3646294 -2.3523192
v -3.245653 0 -2.3523192
v 3.245653 1.3646294 -2.3523192
v -3.245653 1.3646294 -2.3523192
v -3.245653 0 2.3523192
v 3.245653 1.3646294 2.3523192
v 3.245653 0 2.3523192
v -3.245653 0 2.3523192
v -3.245653 1.3646294 2.3523192
v 3.245653 1.3646294 2.3523192
v -3.245653 0 -2.3523192
v -3.245653 0 2.3523192
v 3.245653 0 2.3523192
v -3.245653 0 -2.3523192
v 3.245653 0 2.3523192
v 3.245653 0 -2.3523192
v -3.245653 1.3646294 -2.3523192
v 3.245653 1.3646294 2.3523192
v -3.245653 1.3646294 2.3523192
v -3.245653 1.3646294 -2.3523192
v 3.245653 1.3646294 -2.3523192
v 3.245653 1.3646294 2.3523192
v -3.245653 0 -2.3523192
v -3.245653 1.3646294 -2.3523192
v -3.245653 1.3646294 2.3523192
v -3.245653 0 -2.3523192
v -3.245653 1.3646294 2.3523192
v -3.245653 0 2.3523192
v 3.245653 0 -2.3523192
v 3.245653 0 2.3523192
v 3.245653 1.3646294 2.3523192
v 3.245653 0 -2.3523192
v 3.245653 1.3646294 2.3523192
v 3.245653 1.3646294 -2.3523192
v -2.0123048 0.05054183 2.5091403
v 2.0123048 0.05054183 2.5091403
v 2.0123048 0.9602948 2.5091403
v -2.0123048 0.05054183 2.5091403
v 2.0123048 0.9602948 2.5091403
v -2.0123048 0.9602948 2.5091403
v -2.0123048 0.05054183 4.077353
v 2.0123048 0.9602948 4.077353
v 2.0123048 0.05054183 4.077353
v -2.0123048 0.05054183 4.077353
v -2.0123048 0.9602948 4.077353
v 2.0123048 0.9602948 4.077353
v -2.0123048 0.05054183 2.5091403
v -2.0123048 0.05054183 4.077353
v 2.0123048 0.05054183 4.077353
v -2.0123048 0.05054183 2.5091403
v 2.0123048 0.05054183 4.077353
v 2.0123048 0.05054183 2.5091403
v -2.0123048 0.9602948 2.5091403
v 2.0123048 0.9602948 4.077353
v -2.0123048 0.9602948 4.077353
v -2.0123048 0.9602948 2.5091403
v 2.0123048 0.9602948 2.5091403
v 2.0123048 0.9602948 4.077353
v -2.0123048 0.05054183 2.5091403
v -2.0123048 0.9602948 2.5091403
v -2.0123048 0.9602948 4.077353
v -2.0123048 0.05054183 2.5091403
v -2.0123048 0.9602948 4.077353
v -2.0123048 0.05054183 4.077353
v 2.0123048 0.05054183 2.5091403
v 2.0123048 0.05054183 4.077353
v 2.0123048 0.9602948 4.077353
v 2.0123048 0.05054183 2.5091403
v 2.0123048 0.9602948 4.077353
v 2.0123048 0.9602948 2.5091403
v -1.6877395 0 -3.9205317
v 1.6877395 0 -3.9205317
v 1.6877395 0.82888603 -3.9205317
v -1.6877395 0 -3.9205317
v 1.6877395 0.82888603 -3.9205317
v -1.6877395 0.82888603 -3.9205317
v -1.6877395 0 -1.4113915
v 1.6877395 0.82888603 -1.4113915
v 1.6877395 0 -1.4113915
v -1.6877395 0 -1.4113915
v -1.6877395 0.82888603 -1.4113915
v 1.6877395 0.82888603 -1.4113915
v -1.6877395 0 -3.9205317
v -1.6877395 0 -1.4113915
v 1.6877395 0 -1.4113915
v -1.6877395 0 -3.9205317
v 1.6877395 0 -1.4113915
v 1.6877395 0 -3.9205317
v -1.6877395 0.82888603 -3.9205317
v 1.6877395 0.82888603 -1.4113915
v -1.6877395 0.82888603 -1.4113915
v -1.6877395 0.82888603 -3.9205317
v 1.6877395 0.82888603 -3.9205317
v 1.6877395 0.82888603 -1.4113915
v -1.6877395 0 -3.9205317
v -1.6877395 0.82888603 -3.9205317
v -1.6877395 0.82888603 -1.4113915
v -1.6877395 0 -3.9205317
v -1.6877395 0.82888603 -1.4113915
v -1.6877395 0 -1.4113915
v 1.6877395 0 -3.9205317
v 1.6877395 0 -1.4113915
v 1.6877395 0.82888603 -1.4113915
v 1.6877395 0 -3.9205317
v 1.6877395 0.82888603 -1.4113915
v 1.6877395 0.82888603 -3.9205317
v -3.0833702 1.5162549 -4.5478168
v -3.0833702 1.5162549 -3.2260375
v -3.0833702 1.2888167 -4.34955
v 3.0833702 1.5162549 -4.5478168
v 3.0833702 1.5162549 -3.2260375
v 3.0833702 1.2888167 -4.34955
v -3.0833702 1.5162549 -4.5478168
v 3.0833702 1.5162549 -4.5478168
v -3.0833702 1.2888167 -4.5478168
v -0.90878284 1.1624621 -4.5478168
v 0.90878284 1.1624621 -3.2260375
v -0.90878284 0.98809284 -4.34955
v -0.90878284 0 -4.5478168
v -0.90878284 -0.22238405 -3.2260375
v -0.90878284 0 -4.34955
v 0.90878284 0 -4.5478168
v 0.90878284 -0.22238405 -3.2260375
v 0.90878284 0 -4.34955
v -3.0833702 1.5162549 -3.2260375
v -3.0833702 1.5162549 -1.9042583
v -3.0833702 1.2888167 -3.0277705
v 3.0833702 1.5162549 -3.2260375
v 3.0833702 1.5162549 -1.9042583
v 3.0833702 1.2888167 -3.0277705
v -3.0833702 1.5162549 -3.2260375
v 3.0833702 1.5162549 -3.2260375
v -3.0833702 1.2888167 -3.2260375
v -0.90878284 1.1624621 -3.2260375
v 0.90878284 1.1624621 -1.9042583
v -0.90878284 0.98809284 -3.0277705
v -0.90878284 0 -3.2260375
v -0.90878284 -0.22238405 -1.9042583
v -0.90878284 0 -3.0277705
v 0.90878284 0 -3.2260375
v 0.90878284 -0.22238405 -1.9042583
v 0.90878284 0 -3.0277705
v -3.0833702 1.5162549 -1.9042583
v -3.0833702 1.5162549 -0.582479
v -3.0833702 1.2888167 -1.7059914
v 3.0833702 1.5162549 -1.9042583
v 3.0833702 1.5162549 -0.582479
v 3.0833702 1.2888167 -1.7059914
v -3.0833702 1.5162549 -1.9042583
v 3.0833702 1.5162549 -1.9042583
v -3.0833702 1.2888167 -1.9042583
v -0.90878284 1.1624621 -1.9042583
v 0.90878284 1.1624621 -0.582479
v -0.90878284 0.98809284 -1.7059914
v -0.90878284 0 -1.9042583
v -0.90878284 -0.22238405 -0.582479
v -0.90878284 0 -1.7059914
v 0.90878284 0 -1.9042583
v 0.90878284 -0.22238405 -0.582479
v 0.90878284 0 -1.7059914
v -3.0833702 1.5162549 -0.582479
v -3.0833702 1.5162549 0.73930025
v -3.0833702 1.2888167 -0.3842121
v 3.0833702 1.5162549 -0.582479
v 3.0833702 1.5162549 0.73930025
v 3.0833702 1.2888167 -0.3842121
v -3.0833702 1.5162549 -0.582479
v 3.0833702 1.5162549 -0.582479
v -3.0833702 1.2888167 -0.582479
v -0.90878284 1.1624621 -0.582479
v 0.90878284 1.1624621 0.73930025
v -0.90878284 0.98809284 -0.3842121
v -0.90878284 0 -0.582479
v -0.90878284 -0.22238405 0.73930025
v -0.90878284 0 -0.3842121
v 0.90878284 0 -0.582479
v 0.90878284 -0.22238405 0.73930025
v 0.90878284 0 -0.3842121
v -3.0833702 1.5162549 0.73930025
v -3.0833702 1.5162549 2.0610795
v -3.0833702 1.2888167 0.9375671
v 3.0833702 1.5162549 0.73930025
v 3.0833702 1.5162549 2.0610795
v 3.0833702 1.2888167 0.9375671
v -3.0833702 1.5162549 0.73930025
v 3.0833702 1.5162549 0.73930025
v -3.0833702 1.2888167 0.73930025
v -0.90878284 1.1624621 0.73930025
v 0.90878284 1.1624621 2.0610795
v -0.90878284 0.98809284 0.9375671
v -0.90878284 0 0.73930025
v -0.90878284 -0.22238405 2.0610795
v -0.90878284 0 0.9375671
v 0.90878284 0 0.73930025
v 0.90878284 -0.22238405 2.0610795
v 0.90878284 0 0.9375671
v -3.0833702 1.5162549 2.0610795
v -3.0833702 1.5162549 3.3828588
v -3.0833702 1.2888167 2.2593465
v 3.0833702 1.5162549 2.0610795
v 3.0833702 1.5162549 3.3828588
v 3.0833702 1.2888167 2.2593465
v -3.0833702 1.5162549 2.0610795
v 3.0833702 1.5162549 2.0610795
v -3.0833702 1.2888167 2.0610795
v -0.90878284 1.1624621 2.0610795
v 0.90878284 1.1624621 3.3828588
v -0.90878284 0.98809284 2.2593465
v -0.90878284 0 2.0610795
v -0.90878284 -0.22238405 3.3828588
v -0.90878284 0 2.2593465
v 0.90878284 0 2.0610795
v 0.90878284 -0.22238405 3.3828588
v 0.90878284 0 2.2593465
v -3.0833702 1.5162549 3.3828588
v -3.0833702 1.5162549 4.704638
v -3.0833702 1.2888167 3.5811257
v 3.0833702 1.5162549 3.3828588
v 3.0833702 1.5162549 4.704638
v 3.0833702 1.2888167 3.5811257
v -3.0833702 1.5162549 3.3828588
v 3.0833702 1.5162549 3.3828588
v -3.0833702 1.2888167 3.3828588
v -0.90878284 1.1624621 3.3828588
v 0.90878284 1.1624621 4.704638
v -0.90878284 0.98809284 3.5811257
v -0.90878284 0 3.3828588
v -0.90878284 -0.22238405 4.704638
v -0.90878284 0 3.5811257
v 0.90878284 0 3.3828588
v 0.90878284 -0.22238405 4.704638
v 0.90878284 0 3.5811257
v -13.162926 0.58628523 -0.7841064
v -0.12982611 0.58628523 -0.7841064
v -0.12982611 0.7682358 -0.7841064
v -13.162926 0.58628523 -0.7841064
v -0.12982611 0.7682358 -0.7841064
v -13.162926 0.7682358 -0.7841064
v -13.162926 0.58628523 1.4113914
v -0.12982611 0.7682358 1.4113914
v -0.12982611 0.58628523 1.4113914
v -13.162926 0.58628523 1.4113914
v -13.162926 0.7682358 1.4113914
v -0.12982611 0.7682358 1.4113914
v -13.162926 0.58628523 -0.7841064
v -13.162926 0.58628523 1.4113914
v -0.12982611 0.58628523 1.4113914
v -13.162926 0.58628523 -0.7841064
v -0.12982611 0.58628523 1.4113914
v -0.12982611 0.58628523 -0.7841064
v -13.162926 0.7682358 -0.7841064
v -0.12982611 0.7682358 1.4113914
v -13.162926 0.7682358 1.4113914
v -13.162926 0.7682358 -0.7841064
v -0.12982611 0.7682358 -0.7841064
v -0.12982611 0.7682358 1.4113914
v -13.162926 0.58628523 -0.7841064
v -13.162926 0.7682358 -0.7841064
v -13.162926 0.7682358 1.4113914
v -13.162926 0.58628523 -0.7841064
v -13.162926 0.7682358 1.4113914
v -13.162926 0.58628523 1.4113914
v -0.12982611 0.58628523 -0.7841064
v -0.12982611 0.58628523 1.4113914
v -0.12982611 0.7682358 1.4113914
v -0.12982611 0.58628523 -0.7841064
v -0.12982611 0.7682358 1.4113914
v -0.12982611 0.7682358 -0.7841064
v 0.12982611 0.58628523 -0.7841064
v 13.162926 0.58628523 -0.7841064
v 13.162926 0.7682358 -0.7841064
v 0.12982611 0.58628523 -0.7841064
v 13.162926 0.7682358 -0.7841064
v 0.12982611 0.7682358 -0.7841064
v 0.12982611 0.58628523 1.4113914
v 13.162926 0.7682358 1.4113914
v 13.162926 0.58628523 1.4113914
v 0.12982611 0.58628523 1.4113914
v 0.12982611 0.7682358 1.4113914
v 13.162926 0.7682358 1.4113914
v 0.12982611 0.58628523 -0.7841064
v 0.12982611 0.58628523 1.4113914
v 13.162926 0.58628523 1.4113914
v 0.12982611 0.58628523 -0.7841064
v 13.162926 0.58628523 1.4113914
v 13.162926 0.58628523 -0.7841064
v 0.12982611 0.7682358 -0.7841064
v 13.162926 0.7682358 1.4113914
v 0.12982611 0.7682358 1.4113914
v 0.12982611 0.7682358 -0.7841064
v 13.162926 0.7682358 -0.7841064
v 13.162926 0.7682358 1.4113914
v 0.12982611 0.58628523 -0.7841064
v 0.12982611 0.7682358 -0.7841064
v 0.12982611 0.7682358 1.4113914
v 0.12982611 0.58628523 -0.7841064
v 0.12982611 0.7682358 1.4113914
v 0.12982611 0.58628523 1.4113914
v 13.162926 0.58628523 -0.7841064
v 13.162926 0.58628523 1.4113914
v 13.162926 0.7682358 1.4113914
v 13.162926 0.58628523 -0.7841064
v 13.162926 0.7682358 1.4113914
v 13.162926 0.7682358 -0.7841064
v -3.245653 0.63682705 0.31364253
v -8.700153 0.66715217 0.31364253
v -3.245653 0.54130304 0.31364253
v 3.245653 0.63682705 0.31364253
v 8.700153 0.66715217 0.31364253
v 3.245653 0.54130304 0.31364253
v -1.0386089 1.2635458 3.6068892
v 1.0386089 1.2635458 3.6068892
v 1.0386089 1.5364716 3.6068892
v -1.0386089 1.2635458 3.6068892
v 1.0386089 1.5364716 3.6068892
v -1.0386089 1.5364716 3.6068892
v -1.0386089 1.2635458 4.7046385
v 1.0386089 1.5364716 4.7046385
v 1.0386089 1.2635458 4.7046385
v -1.0386089 1.2635458 4.7046385
v -1.0386089 1.5364716 4.7046385
v 1.0386089 1.5364716 4.7046385
v -1.0386089 1.2635458 3.6068892
v -1.0386089 1.2635458 4.7046385
v 1.0386089 1.2635458 4.7046385
v -1.0386089 1.2635458 3.6068892
v 1.0386089 1.2635458 4.7046385
v 1.0386089 1.2635458 3.6068892
v -1.0386089 1.5364716 3.6068892
v 1.0386089 1.5364716 4.7046385
v -1.0386089 1.5364716 4.7046385
v -1.0386089 1.5364716 3.6068892
v 1.0386089 1.5364716 3.6068892
v 1.0386089 1.5364716 4.7046385
v -1.0386089 1.2635458 3.6068892
v -1.0386089 1.5364716 3.6068892
v -1.0386089 1.5364716 4.7046385
v -1.0386089 1.2635458 3.6068892
v -1.0386089 1.5364716 4.7046385
v -1.0386089 1.2635458 4.7046385
v 1.0386089 1.2635458 3.6068892
v 1.0386089 1.2635458 4.7046385
v 1.0386089 1.5364716 4.7046385
v 1.0386089 1.2635458 3.6068892
v 1.0386089 1.5364716 4.7046385
v 1.0386089 1.5364716 3.6068892
v 0 1.3949546 2.822783
v 0 1.4960382 4.5478168
v 0 1.1857114 3.0815382
v -1.5579134 -0.12130039 -0.9409276
v 1.5579134 -0.12130039 1.725034
v -1.5579134 -0.10310534 -0.5410334
v -3.1554956 0.37906376 -4.960673
v -4.778322 0 -8.530891
v -1.5326693 0 -8.530891
v 0 0.37906376 -4.960673
v -1.6228263 0 -8.530891
v 1.6228263 0 -8.530891
v 3.1554956 0.37906376 -4.960673
v 1.5326693 0 -8.530891
v 4.778322 0 -8.530891
vn 0 0 1
vn 0 0 1
vn 0 0 1
vn 0 0 1
vn 0 0 1
vn 0 0 1
vn 0 0 -1
vn 0 0 -1
vn 0 0 -1
vn 0 0 -1
vn 0 0 -1
vn 0 0 -1
vn 0 1 0
vn 0 1 0
vn 0 1 0
vn 0 1 0
vn 0 1 0
vn 0 1 0
vn 0 -1 0
vn 0 -1 0
vn 0 -1 0
vn 0 -1 0
vn 0 -1 0
vn 0 -1 0
vn 1 0 0
vn 1 0 0
vn 1 0 0
vn 1 0 0
vn 1 0 0
vn 1 0 0
vn -1 0 0
vn -1 0 0
vn -1 0 0
vn -1 0 0
vn -1 0 0
vn -1 0 0
vn 0 0 1
vn 0 0 1
vn 0 0 1
vn 0 0 1
vn 0 0 1
vn 0 0 1
vn 0 0 -1
vn 0 0 -1
vn 0 0 -1
vn 0 0 -1
vn 0 0 -1
vn 0 0 -1
vn 0 1 0
vn 0 1 0
vn 0 1 0
vn 0 1 0
vn 0 1 0
vn 0 1 0
vn 0 -1 0
vn 0 -1 0
vn 0 -1 0
vn 0 -1 0
vn 0 -1 0
vn 0 -1 0
vn 1 0 0
vn 1 0 0
vn 1 0 0
vn 1 0 0
vn 1 0 0
vn 1 0 0
vn -1 0 0
vn -1 0 0
vn -1 0 0
vn -1 0 0
vn -1 0 0
vn -1 0 0
vn 0 0 1
vn 0 0 1
vn 0 0 1
vn 0 0 1
vn 0 0 1
vn 0 0 1
vn 0 0 -1
vn 0 0 -1
vn 0 0 -1
vn 0 0 -1
vn 0 0 -1
vn 0 0 -1
vn 0 1 0
vn 0 1 0
vn 0 1 0
vn 0 1 0
vn 0 1 0
vn 0 1 0
vn 0 -1 0
vn 0 -1 0
vn 0 -1 0
vn 0 -1 0
vn 0 -1 0
vn 0 -1 0
vn 1 0 0
vn 1 0 0
vn 1 0 0
vn 1 0 0
vn 1 0 0
vn 1 0 0
vn -1 0 0
vn -1 0 0
vn -1 0 0
vn -1 0 0
vn -1 0 0
vn -1 0 0
vn 1 0 -0
vn 1 0 -0
vn 1 0 -0
vn 1 0 -0
vn 1 0 -0
vn 1 0 -0
vn 0 0 -1
vn 0 0 -1
vn 0 0 -1
vn 0.4329224 -0.67689556 -0.59530735
vn 0.4329224 -0.67689556 -0.59530735
vn 0.4329224 -0.67689556 -0.59530735
vn -1 0 0
vn -1 0 0
vn -1 0 0
vn -1 0 0
vn -1 0 0
vn -1 0 0
vn 1 0 -0
vn 1 0 -0
vn 1 0 -0
vn 1 0 -0
vn 1 0 -0
vn 1 0 -0
vn 0 0 -1
vn 0 0 -1
vn 0 0 -1
vn 0.4329224 -0.67689556 -0.59530735
vn 0.4329224 -0.67689556 -0.59530735
vn 0.4329224 -0.67689556 -0.59530735
vn -1 0 0
vn -1 0 0
vn -1 0 0
vn -1 0 0
vn -1 0 0
vn -1 0 0
vn 1 0 -0
vn 1 0 -0
vn 1 0 -0
vn 1 0 -0
vn 1 0 -0
vn 1 0 -0
vn 0 0 -1
vn 0 0 -1
vn 0 0 -1
vn 0.43292245 -0.6768952 -0.5953074
vn 0.43292245 -0.6768952 -0.5953074
vn 0.43292245 -0.6768952 -0.5953074
vn -1 0 0
vn -1 0 0
vn -1 0 0
vn -1 0 0
vn -1 0 0
vn -1 0 0
vn 1 0 -0
vn 1 0 -0
vn 1 0 -0
vn 1 0 -0
vn 1 0 -0
vn 1 0 -0
vn 0 0 -1
vn 0 0 -1
vn 0 0 -1
vn 0.43292245 -0.6768953 -0.5953074
vn 0.43292245 -0.6768953 -0.5953074
vn 0.43292245 -0.6768953 -0.5953074
vn -1 0 0
vn -1 0 0
vn -1 0 0
vn -1 0 0
vn -1 0 0
vn -1 0 0
vn 1 0 -0
vn 1 0 -0
vn 1 0 -0
vn 1 0 -0
vn 1 0 -0
vn 1 0 -0
vn 0 0 -1
vn 0 0 -1
vn 0 0 -1
vn 0.43292245 -0.6768952 -0.5953074
vn 0.43292245 -0.6768952 -0.5953074
vn 0.43292245 -0.6768952 -0.5953074
vn -1 0 0
vn -1 0 0
vn -1 0 0
vn -1 0 0
vn -1 0 0
vn -1 0 0
vn 1 0 -0
vn 1 0 -0
vn 1 0 -0
vn 1 0 -0
vn 1 0 -0
vn 1 0 -0
vn 0 0 -1
vn 0 0 -1
vn 0 0 -1
vn 0.4329224 -0.67689556 -0.59530735
vn 0.4329224 -0.67689556 -0.59530735
vn 0.4329224 -0.67689556 -0.59530735
vn -1 0 0
vn -1 0 0
vn -1 0 0
vn -1 0 0
vn -1 0 0
vn -1 0 0
vn 1 0 -0
vn 1 0 -0
vn 1 0 -0
vn 1 0 -0
vn 1 0 -0
vn 1 0 -0
vn 0 0 -1
vn 0 0 -1
vn 0 0 -1
vn 0.4329224 -0.67689556 -0.59530735
vn 0.4329224 -0.67689556 -0.59530735
vn 0.4329224 -0.67689556 -0.59530735
vn -1 0 0
vn -1 0 0
vn -1 0 0
vn -1 0 0
vn -1 0 0
vn -1 0 0
vn 0 0 1
vn 0 0 1
vn 0 0 1
vn 0 0 1
vn 0 0 1
vn 0 0 1
vn 0 0 -1
vn 0 0 -1
vn 0 0 -1
vn 0 0 -1
vn 0 0 -1
vn 0 0 -1
vn 0 1 0
vn 0 1 0
vn 0 1 0
vn 0 1 0
vn 0 1 0
vn 0 1 0
vn 0 -1 0
vn 0 -1 0
vn 0 -1 0
vn 0 -1 0
vn 0 -1 0
vn 0 -1 0
vn 1 0 0
vn 1 0 0
vn 1 0 0
vn 1 0 0
vn 1 0 0
vn 1 0 0
vn -1 0 0
vn -1 0 0
vn -1 0 0
vn -1 0 0
vn -1 0 0
vn -1 0 0
vn 0 0 1
vn 0 0 1
vn 0 0 1
vn 0 0 1
vn 0 0 1
vn 0 0 1
vn 0 0 -1
vn 0 0 -1
vn 0 0 -1
vn 0 0 -1
vn 0 0 -1
vn 0 0 -1
vn 0 1 0
vn 0 1 0
vn 0 1 0
vn 0 1 0
vn 0 1 0
vn 0 1 0
vn 0 -1 0
vn 0 -1 0
vn 0 -1 0
vn 0 -1 0
vn 0 -1 0
vn 0 -1 0
vn 1 0 0
vn 1 0 0
vn 1 0 0
vn 1 0 0
vn 1 0 0
vn 1 0 0
vn -1 0 0
vn -1 0 0
vn -1 0 0
vn -1 0 0
vn -1 0 0
vn -1 0 0
vn 0 0 1
vn 0 0 1
vn 0 0 1
vn 0 0 -1
vn 0 0 -1
vn 0 0 -1
vn 0 0 1
vn 0 0 1
vn 0 0 1
vn 0 0 1
vn 0 0 1
vn 0 0 1
vn 0 0 -1
vn 0 0 -1
vn 0 0 -1
vn 0 0 -1
vn 0 0 -1
vn 0 0 -1
vn 0 1 0
vn 0 1 0
vn 0 1 0
vn 0 1 0
vn 0 1 0
vn 0 1 0
vn 0 -1 0
vn 0 -1 0
vn 0 -1 0
vn 0 -1 0
vn 0 -1 0
vn 0 -1 0
vn 1 0 0
vn 1 0 0
vn 1 0 0
vn 1 0 0
vn 1 0 0
vn 1 0 0
vn -1 0 0
vn -1 0 0
vn -1 0 0
vn -1 0 0
vn -1 0 0
vn -1 0 0
vn 1 0 -0
vn 1 0 -0
vn 1 0 -0
vn -0.038860787 -0.9982119 0.04541831
vn -0.038860787 -0.9982119 0.04541831
vn -0.038860787 -0.9982119 0.04541831
vn 0 -0.99441075 0.10558039
vn 0 -0.99441075 0.10558039
vn 0 -0.99441075 0.10558039
vn 0 -0.99441075 0.10558039
vn 0 -0.99441075 0.10558039
vn 0 -0.99441075 0.10558039
vn 0 -0.99441075 0.10558039
vn 0 -0.99441075 0.10558039
vn 0 -0.99441075 0.10558039
f 1//1 2//2 3//3
f 4//4 5//5 6//6
f 7//7 8//8 9//9
f 10//10 11//11 12//12
f 13//13 14//14 15//15
f 16//16 17//17 18//18
f 19//19 20//20 21//21
f 22//22 23//23 24//24
f 25//25 26//26 27//27
f 28//28 29//29 30//30
f 31//31 32//32 33//33
f 34//34 35//35 36//36
f 37//37 38//38 39//39
f 40//40 41//41 42//42
f 43//43 44//44 45//45
f 46//46 47//47 48//48
f 49//49 50//50 51//51
f 52//52 53//53 54//54
f 55//55 56//56 57//57
f 58//58 59//59 60//60
f 61//61 62//62 63//63
f 64//64 65//65 66//66
f 67//67 68//68 69//69
f 70//70 71//71 72//72
f 73//73 74//74 75//75
f 76//76 77//77 78//78
f 79//79 80//80 81//81
f 82//82 83//83 84//84
f 85//85 86//86 87//87
f 88//88 89//89 90//90
f 91//91 92//92 93//93
f 94//94 95//95 96//96
f 97//97 98//98 99//99
f 100//100 101//101 102//102
f 103//103 104//104 105//105
f 106//106 107//107 108//108
f 109//109 110//110 111//111
f 112//112 113//113 114//114
f 115//115 116//116 117//117
f 118//118 119//119 120//120
f 121//121 122//122 123//123
f 124//124 125//125 126//126
f 127//127 128//128 129//129
f 130//130 131//131 132//132
f 133//133 134//134 135//135
f 136//136 137//137 138//138
f 139//139 140//140 141//141
f 142//142 143//143 144//144
f 145//145 146//146 147//147
f 148//148 149//149 150//150
f 151//151 152//152 153//153
f 154//154 155//155 156//156
f 157//157 158//158 159//159
f 160//160 161//161 162//162
f 163//163 164//164 165//165
f 166//166 167//167 168//168
f 169//169 170//170 171//171
f 172//172 173//173 174//174
f 175//175 176//176 177//177
f 178//178 179//179 180//180
f 181//181 182//182 183//183
f 184//184 185//185 186//186
f 187//187 188//188 189//189
f 190//190 191//191 192//192
f 193//193 194//194 195//195
f 196//196 197//197 198//198
f 199//199 200//200 201//201
f 202//202 203//203 204//204
f 205//205 206//206 207//207
f 208//208 209//209 210//210
f 211//211 212//212 213//213
f 214//214 215//215 216//216
f 217//217 218//218 219//219
f 220//220 221//221 222//222
f 223//223 224//224 225//225
f 226//226 227//227 228//228
f 229//229 230//230 231//231
f 232//232 233//233 234//234
f 235//235 236//236 237//237
f 238//238 239//239 240//240
f 241//241 242//242 243//243
f 244//244 245//245 246//246
f 247//247 248//248 249//249
f 250//250 251//251 252//252
f 253//253 254//254 255//255
f 256//256 257//257 258//258
f 259//259 260//260 261//261
f 262//262 263//263 264//264
f 265//265 266//266 267//267
f 268//268 269//269 270//270
f 271//271 272//272 273//273
f 274//274 275//275 276//276
f 277//277 278//278 279//279
f 280//280 281//281 282//282
f 283//283 284//284 285//285
f 286//286 287//287 288//288
f 289//289 290//290 291//291
f 292//292 293//293 294//294
f 295//295 296//296 297//297
f 298//298 299//299 300//300
f 301//301 302//302 303//303
f 304//304 305//305 306//306
f 307//307 308//308 309//309
f 310//310 311//311 312//312
f 313//313 314//314 315//315
f 316//316 317//317 318//318
f 319//319 320//320 321//321
f 322//322 323//323 324//324
f 325//325 326//326 327//327
f 328//328 329//329 330//330
f 331//331 332//332 333//333
f 334//334 335//335 336//336
f 337//337 338//338 339//339
f 340//340 341//341 342//342
f 343//343 344//344 345//345
f 346//346 347//347 348//348
f 349//349 350//350 351//351
f 352//352 353//353 354//354
f 355//355 356//356 357//357
f 358//358 359//359 360//360
f 361//361 362//362 363//363
