# Exported from SharpOpenGl procedural mesh
o korath_gunship_mk2_23
# vertices 369
v -0.83976835 -0.011544215 -1.626134
v -0.83976835 -0.011544215 1.6211306
v 0.83976835 -0.011544215 1.6211306
v -0.83976835 -0.011544215 -1.626134
v 0.83976835 -0.011544215 1.6211306
v 0.83976835 -0.011544215 -1.626134
v -0.83976835 0.0750374 -1.626134
v 0.83976835 0.0750374 1.6211306
v -0.83976835 0.0750374 1.6211306
v -0.83976835 0.0750374 -1.626134
v 0.83976835 0.0750374 -1.626134
v 0.83976835 0.0750374 1.6211306
v -0.4618726 0.0048100897 -1.626134
v 0.4618726 0.0048100897 -1.626134
v -0.4618726 -0.0076961434 -1.3533638
v 0.4618726 0.0048100897 -1.626134
v 0.4618726 -0.0076961434 -1.3533638
v -0.4618726 -0.0076961434 -1.3533638
v -0.4618726 0.0048100897 -0.8143179
v 0.4618726 0.0048100897 -0.8143179
v -0.4618726 -0.0076961434 -0.54154766
v 0.4618726 0.0048100897 -0.8143179
v 0.4618726 -0.0076961434 -0.54154766
v -0.4618726 -0.0076961434 -0.54154766
v -0.4618726 0.0048100897 -0.0025017262
v 0.4618726 0.0048100897 -0.0025017262
v -0.4618726 -0.0076961434 0.2702685
v 0.4618726 0.0048100897 -0.0025017262
v 0.4618726 -0.0076961434 0.2702685
v -0.4618726 -0.0076961434 0.2702685
v -0.4618726 0.0048100897 0.80931437
v 0.4618726 0.0048100897 0.80931437
v -0.4618726 -0.0076961434 1.0820847
v 0.4618726 0.0048100897 0.80931437
v 0.4618726 -0.0076961434 1.0820847
v -0.4618726 -0.0076961434 1.0820847
v -0.4618726 0.0048100897 1.6211306
v 0.4618726 0.0048100897 1.6211306
v -0.4618726 -0.0076961434 1.8939009
v 0.4618726 0.0048100897 1.6211306
v 0.4618726 -0.0076961434 1.8939009
v -0.4618726 -0.0076961434 1.8939009
v 0 0.22676137 0.2501745
v 1.2919514 0.22676137 0.2501745
v 0.64597565 0.22676137 1.3690373
v 0 0.034357782 0.2501745
v 0.64597565 0.034357782 1.3690373
v 1.2919514 0.034357782 0.2501745
v 0 0.22676137 0.2501745
v 0.64597565 0.22676137 1.3690373
v -0.64597577 0.22676137 1.3690373
v 0 0.034357782 0.2501745
v -0.64597577 0.034357782 1.3690373
v 0.64597565 0.034357782 1.3690373
v 0 0.22676137 0.2501745
v -0.64597577 0.22676137 1.3690373
v -1.2919514 0.22676137 0.25017437
v 0 0.034357782 0.2501745
v -1.2919514 0.034357782 0.25017437
v -0.64597577 0.034357782 1.3690373
v 0 0.22676137 0.2501745
v -1.2919514 0.22676137 0.25017437
v -0.6459756 0.22676137 -0.8686882
v 0 0.034357782 0.2501745
v -0.6459756 0.034357782 -0.8686882
v -1.2919514 0.034357782 0.25017437
v 0 0.22676137 0.2501745
v -0.6459756 0.22676137 -0.8686882
v 0.6459762 0.22676137 -0.868688
v 0 0.034357782 0.2501745
v 0.6459762 0.034357782 -0.868688
v -0.6459756 0.034357782 -0.8686882
v 0 0.22676137 0.2501745
v 0.6459762 0.22676137 -0.868688
v 1.2919514 0.22676137 0.25017473
v 0 0.034357782 0.2501745
v 1.2919514 0.034357782 0.25017473
v 0.6459762 0.034357782 -0.868688
v 0 0.17866047 -0.5628926
v 1.0335611 0.17866047 -0.5628926
v 0.5167805 0.17866047 0.3321976
v 0 0.027486226 -0.5628926
v 0.5167805 0.027486226 0.3321976
v 1.0335611 0.027486226 -0.5628926
v 0 0.17866047 -0.5628926
v 0.5167805 0.17866047 0.3321976
v -0.5167806 0.17866047 0.33219755
v 0 0.027486226 -0.5628926
v -0.5167806 0.027486226 0.33219755
v 0.5167805 0.027486226 0.3321976
v 0 0.17866047 -0.5628926
v -0.5167806 0.17866047 0.33219755
v -1.0335611 0.17866047 -0.56289274
v 0 0.027486226 -0.5628926
v -1.0335611 0.027486226 -0.56289274
v -0.5167806 0.027486226 0.33219755
v 0 0.17866047 -0.5628926
v -1.0335611 0.17866047 -0.56289274
v -0.51678044 0.17866047 -1.4579828
v 0 0.027486226 -0.5628926
v -0.51678044 0.027486226 -1.4579828
v -1.0335611 0.027486226 -0.56289274
v 0 0.17866047 -0.5628926
v -0.51678044 0.17866047 -1.4579828
v 0.5167809 0.17866047 -1.4579825
v 0 0.027486226 -0.5628926
v 0.5167809 0.027486226 -1.4579825
v -0.51678044 0.027486226 -1.4579828
v 0 0.17866047 -0.5628926
v 0.5167809 0.17866047 -1.4579825
v 1.0335611 0.17866047 -0.56289244
v 0 0.027486226 -0.5628926
v 1.0335611 0.027486226 -0.56289244
v 0.5167809 0.027486226 -1.4579825
v -0.90436596 0.082458675 -0.06254362
v -0.90436596 0.082458675 0.43780535
v 0.90436596 0.082458675 0.43780535
v -0.90436596 0.082458675 -0.06254362
v 0.90436596 0.082458675 0.43780535
v 0.90436596 0.082458675 -0.06254362
v -0.90436596 0.13055958 -0.06254362
v 0.90436596 0.13055958 0.43780535
v -0.90436596 0.13055958 0.43780535
v -0.90436596 0.13055958 -0.06254362
v 0.90436596 0.13055958 -0.06254362
v 0.90436596 0.13055958 0.43780535
v -0.3875854 0 0.43905622
v 0.3875854 0 0.43905622
v 0 0.027486226 0.8105653
v -1.4857441 0.013743113 0.18763086
v -1.4857441 0.013743113 0.43780535
v -1.0981587 0.013743113 0.43780535
v -1.4857441 0.013743113 0.18763086
v -1.0981587 0.013743113 0.43780535
v -1.0981587 0.013743113 0.18763086
v -1.4857441 0.041229337 0.18763086
v -1.0981587 0.041229337 0.43780535
v -1.4857441 0.041229337 0.43780535
v -1.4857441 0.041229337 0.18763086
v -1.0981587 0.041229337 0.18763086
v -1.0981587 0.041229337 0.43780535
v 1.0981587 0.013743113 0.18763086
v 1.0981587 0.013743113 0.43780535
v 1.4857441 0.013743113 0.43780535
v 1.0981587 0.013743113 0.18763086
v 1.4857441 0.013743113 0.43780535
v 1.4857441 0.013743113 0.18763086
v 1.0981587 0.041229337 0.18763086
v 1.4857441 0.041229337 0.43780535
v 1.0981587 0.041229337 0.43780535
v 1.0981587 0.041229337 0.18763086
v 1.4857441 0.041229337 0.18763086
v 1.4857441 0.041229337 0.43780535
v -0.32298785 0.041229337 1.2496216
v 0.32298785 0.041229337 1.2496216
v 0 0.09620179 1.6886778
v -0.25839028 0.048100896 1.4184893
v 0.25839028 0.048100896 1.4184893
v 0 0.13743113 1.6886778
v -0.09689635 0.12368803 1.6211306
v 0.09689635 0.12368803 1.6211306
v 0 0.1580458 1.6886778
v -3.3644567 0.14430268 -0.031271815
v -3.3644567 1.0307335 -0.031271815
v -3.3644567 1.0307335 0.2814463
v -3.3644567 0.14430268 -0.031271815
v -3.3644567 1.0307335 0.2814463
v -3.3644567 0.14430268 0.2814463
v -0.12919521 0.14430268 -0.031271815
v -0.12919521 1.0307335 -0.031271815
v -0.12919521 1.0307335 0.2814463
v -0.12919521 0.14430268 -0.031271815
v -0.12919521 1.0307335 0.2814463
v -0.12919521 0.14430268 0.2814463
v 0.12919514 0.14430268 -0.031271815
v 0.12919514 1.0307335 -0.031271815
v 0.12919514 1.0307335 0.2814463
v 0.12919514 0.14430268 -0.031271815
v 0.12919514 1.0307335 0.2814463
v 0.12919514 0.14430268 0.2814463
v 3.3644567 0.14430268 -0.031271815
v 3.3644567 1.0307335 -0.031271815
v 3.3644567 1.0307335 0.2814463
v 3.3644567 0.14430268 -0.031271815
v 3.3644567 1.0307335 0.2814463
v 3.3644567 0.14430268 0.2814463
v -0.25839028 0.17178892 0.12508725
v -0.25839028 0.17178892 0.31271812
v 0.25839028 0.17178892 0.31271812
v -0.25839028 0.17178892 0.12508725
v 0.25839028 0.17178892 0.31271812
v 0.25839028 0.17178892 0.12508725
v -0.25839028 0.19240358 0.12508725
v 0.25839028 0.19240358 0.31271812
v -0.25839028 0.19240358 0.31271812
v -0.25839028 0.19240358 0.12508725
v 0.25839028 0.19240358 0.12508725
v 0.25839028 0.19240358 0.31271812
v -0.25839028 0.048100896 2.5217588
v 0.25839028 0.048100896 2.5217588
v 0 0.13743113 3.0020938
v -0.09689635 0.12368803 2.88201
v 0.09689635 0.12368803 2.88201
v 0 0.1580458 3.0020938
v -1.8840958 0.17178892 -0.37526172
v -2.8126857 0 -0.85812855
v -0.9555058 0 -0.85812855
v 1.8840958 0.17178892 -0.37526172
v 0.9555058 0 -0.85812855
v 2.8126857 0 -0.85812855
v -2.3551197 0.1832415 -0.12508725
v -2.254186 0.13743113 -0.1000698
v -2.3551197 0.11452594 -0.08756107
v -1.7495174 0.21759927 0.43780535
v -1.6485838 0.1717889 0.4628228
v -1.7495174 0.13743113 0.47533152
v 2.3551197 0.1832415 -0.12508725
v 2.254186 0.13743113 -0.1000698
v 2.3551197 0.11452594 -0.08756107
v 1.7495174 0.21759927 0.43780535
v 1.6485838 0.1717889 0.4628228
v 1.7495174 0.13743113 0.47533152
v -1.1439153 0.5039141 -0.18763086
v 1.1439153 0.5039141 -0.18763086
v 0 0.5726297 -0.16886778
v -0.74018043 0.52681935 0.15635905
v 0.74018043 0.52681935 0.15635905
v 0 0.59553486 0.17512213
v -0.33644566 0.5497245 0.5003489
v 0.33644566 0.5497245 0.5003489
v 0 0.6184401 0.519112
v -0.6728913 0.022905188 0.31271812
v 0.6728913 0.022905188 0.31271812
v 0 0.11452594 0.34398994
v -1.0766261 0.045810375 -0.18763086
v 1.0766261 0.045810375 -0.18763086
v 0 0.13743113 -0.1626134
v -0.8935997 0.045810375 0.15635905
v 0.8935997 0.045810375 0.15635905
v 0 0.14888372 0.1813765
v -0.71057326 0.045810375 0.5003489
v 0.71057326 0.045810375 0.5003489
v 0 0.16033632 0.52536637
v -0.9043659 0.022905188 -0.12508725
v 0.9043659 0.022905188 -0.12508725
v 0 0.09162075 -0.10632416
v -0.55984557 0.022905188 0.36025125
v 0.55984557 0.022905188 0.36025125
v 0 0.11452593 0.37901434
v -1.2784935 0.22905187 0.06254362
v -1.1775599 0.27486226 0.09381543
v -1.2784935 0.1832415 0.10006979
v -1.2784935 0.22905187 0.2814463
v -1.1775599 0.27486226 0.31271812
v -1.2784935 0.1832415 0.31897247
v -1.2784935 0.22905187 0.500349
v -1.1775599 0.27486226 0.5316208
v -1.2784935 0.1832415 0.5378752
v 1.2784935 0.22905187 0.06254362
v 1.1775599 0.27486226 0.09381543
v 1.2784935 0.1832415 0.10006979
v 1.2784935 0.22905187 0.2814463
v 1.1775599 0.27486226 0.31271812
v 1.2784935 0.1832415 0.31897247
v 1.2784935 0.22905187 0.500349
v 1.1775599 0.27486226 0.5316208
v 1.2784935 0.1832415 0.5378752
v -0.6056022 0.022905188 0.31271812
v 0.6056022 0.022905188 0.31271812
v 0 0.09162075 0.34398994
v -0.74018043 0.48100892 -0.06254362
v 0.74018043 0.48100892 -0.06254362
v 0 0.52681935 -0.043780535
v -0.50466853 0.5039141 0.21890268
v 0.50466853 0.5039141 0.21890268
v 0 0.5497245 0.23766576
v -0.26915652 0.5268193 0.500349
v 0.26915652 0.5268193 0.500349
v 0 0.5726297 0.51911205
v -0.16822283 0.57262975 -0.12508725
v 0.16822283 0.57262975 -0.12508725
v 0 0.64134526 -0.10945134
v -0.2018674 0.60698754 0.18763088
v 0.2018674 0.60698754 0.18763088
v 0 0.6757031 0.20639396
v -0.2018674 0.68715566 0.500349
v 0.2018674 0.68715566 0.500349
v 0 0.75587124 0.51911205
v -0.33644566 0.045810375 -0.31271812
v 0.33644566 0.045810375 -0.31271812
v 0 0.11452594 -0.18763086
v -0.47102395 0.068715565 -0.31271812
v 0.47102395 0.068715565 -0.31271812
v 0 0.13743113 -0.18763086
v -0.4037348 0.022905188 0.500349
v 0.4037348 0.022905188 0.500349
v 0 0.11452594 0.75052345
v -1.4130718 0.068715565 0.12508725
v -1.2784935 0.022905188 0.18763086
v -1.4130718 0.011452594 -0.06254362
v 1.4130718 0.068715565 0.12508725
v 1.2784935 0.022905188 0.18763086
v 1.4130718 0.011452594 -0.06254362
v -0.2018674 0.8016816 0.18763086
v 0.2018674 0.8016816 0.18763086
v 0 0.847492 0.2814463
v -0.47102395 0.034357782 0.18763086
v 0.47102395 0.034357782 0.18763086
v 0 0.10307335 0.21264832
v -0.47102395 0.034357782 0.3127181
v 0.47102395 0.034357782 0.3127181
v 0 0.10307335 0.33773553
v -0.47102395 0.034357782 0.43780535
v 0.47102395 0.034357782 0.43780535
v 0 0.10307335 0.4628228
v -0.47102395 0.034357782 0.56289256
v 0.47102395 0.034357782 0.56289256
v 0 0.10307335 0.58791
v -0.47102395 0.034357782 0.6879798
v 0.47102395 0.034357782 0.6879798
v 0 0.10307335 0.71299726
v -0.47102395 0.034357782 0.813067
v 0.47102395 0.034357782 0.813067
v 0 0.10307335 0.83808446
v -0.33644566 0.52681935 0.06254362
v 0.33644566 0.52681935 0.06254362
v 0 0.5955349 0.07817953
v -0.29607219 0.53598136 0.17512214
v 0.29607219 0.53598136 0.17512214
v 0 0.6046969 0.19075805
v -0.2556987 0.5451435 0.28770068
v 0.2556987 0.5451435 0.28770068
v 0 0.61385906 0.3033366
v -0.2153252 0.55430555 0.40027922
v 0.2153252 0.55430555 0.40027922
v 0 0.6230211 0.41591513
v -0.17495173 0.5634676 0.51285774
v 0.17495173 0.5634676 0.51285774
v 0 0.6321832 0.52849364
v -0.13457826 0.5726297 0.62543625
v 0.13457826 0.5726297 0.62543625
v 0 0.64134526 0.64107215
v -1.1439153 0.11452594 0.12508725
v -1.0429816 0.16033632 0.14385033
v -1.1439153 0.068715565 0.1501047
v -1.1439153 0.11452594 0.3127181
v -1.0429816 0.16033632 0.3314812
v -1.1439153 0.068715565 0.33773553
v 1.1439153 0.11452594 0.12508725
v 1.0429816 0.16033632 0.14385033
v 1.1439153 0.068715565 0.1501047
v 1.1439153 0.11452594 0.3127181
v 1.0429816 0.16033632 0.3314812
v 1.1439153 0.068715565 0.33773553
v -0.26915652 0.068715565 -0.2501745
v 0.26915652 0.068715565 -0.2501745
v 0 0.13743113 -0.18763086
v -0.2018674 0.25195706 2.8194666
v 0.2018674 0.25195706 2.8194666
v 0 0.5039141 3.0646374
v -0.1009337 0.45810375 2.9726985
v 0.1009337 0.45810375 2.9726985
v 0 0.5497245 3.0646374
v -0.26915652 1.0114931 0.37526172
v 0.26915652 1.0114931 0.37526172
v 0 1.099449 0.500349
v -0.4037348 0.068715565 -0.500349
v 0.4037348 0.068715565 -0.500349
v 0 0.16033632 -0.37526172
vn 0 1 0
vn 0 1 0
vn 0 1 0
vn 0 1 0
vn 0 1 0
vn 0 1 0
vn 0 -1 0
vn 0 -1 0
vn 0 -1 0
vn 0 -1 0
vn 0 -1 0
vn 0 -1 0
vn 0 -0.99895054 -0.045800846
vn 0 -0.99895054 -0.045800846
vn 0 -0.99895054 -0.045800846
vn 0 -0.99895054 -0.045800846
vn 0 -0.99895054 -0.045800846
vn 0 -0.99895054 -0.045800846
vn 0 -0.99895054 -0.04580085
vn 0 -0.99895054 -0.04580085
vn 0 -0.99895054 -0.04580085
vn 0 -0.99895054 -0.04580085
vn 0 -0.99895054 -0.04580085
vn 0 -0.99895054 -0.04580085
vn 0 -0.99895054 -0.04580085
vn 0 -0.99895054 -0.04580085
vn 0 -0.99895054 -0.04580085
vn 0 -0.99895054 -0.04580085
vn 0 -0.99895054 -0.04580085
vn 0 -0.99895054 -0.04580085
vn 0 -0.99895054 -0.045800846
vn 0 -0.99895054 -0.045800846
vn 0 -0.99895054 -0.045800846
vn 0 -0.99895054 -0.045800846
vn 0 -0.99895054 -0.045800846
vn 0 -0.99895054 -0.045800846
vn 0 -0.99895054 -0.045800846
vn 0 -0.99895054 -0.045800846
vn 0 -0.99895054 -0.045800846
vn 0 -0.99895054 -0.045800846
vn 0 -0.99895054 -0.045800846
vn 0 -0.99895054 -0.045800846
vn 0 -1 0
vn 0 -1 0
vn 0 -1 0
vn 0 1 0
vn 0 1 0
vn 0 1 0
vn 0 -1 0
vn 0 -1 0
vn 0 -1 0
vn 0 1 -0
vn 0 1 -0
vn 0 1 -0
vn -0 -1 0
vn -0 -1 0
vn -0 -1 0
vn 0 1 0
vn 0 1 0
vn 0 1 0
vn 0 -1 0
vn 0 -1 0
vn 0 -1 0
vn 0 1 0
vn 0 1 0
vn 0 1 0
vn 0 -1 -0
vn 0 -1 -0
vn 0 -1 -0
vn 0 1 0
vn 0 1 0
vn 0 1 0
vn 0 -1 0
vn 0 -1 0
vn 0 -1 0
vn -0 1 0
vn -0 1 0
vn -0 1 0
vn 0 -1 0
vn 0 -1 0
vn 0 -1 0
vn 0 1 0
vn 0 1 0
vn 0 1 0
vn 0 -0.99999994 0
vn 0 -0.99999994 0
vn 0 -0.99999994 0
vn 0 0.99999994 -0
vn 0 0.99999994 -0
vn 0 0.99999994 -0
vn -0 -1 0
vn -0 -1 0
vn -0 -1 0
vn 0 1 0
vn 0 1 0
vn 0 1 0
vn 0 -1 0
vn 0 -1 0
vn 0 -1 0
vn 0 1 0
vn 0 1 0
vn 0 1 0
vn 0 -0.99999994 -0
vn 0 -0.99999994 -0
vn 0 -0.99999994 -0
vn 0 0.99999994 0
vn 0 0.99999994 0
vn 0 0.99999994 0
vn 0 -1 0
vn 0 -1 0
vn 0 -1 0
vn -0 1 0
vn -0 1 0
vn -0 1 0
vn 0 1 0
vn 0 1 0
vn 0 1 0
vn 0 1 0
vn 0 1 0
vn 0 1 0
vn 0 -1 0
vn 0 -1 0
vn 0 -1 0
vn 0 -1 0
vn 0 -1 0
vn 0 -1 0
vn 0 -0.9972743 0.07378368
vn 0 -0.9972743 0.07378368
vn 0 -0.9972743 0.07378368
vn 0 1 0
vn 0 1 0
vn 0 1 0
vn 0 1 0
vn 0 1 0
vn 0 1 0
vn 0 -1 0
vn 0 -1 0
vn 0 -1 0
vn 0 -1 0
vn 0 -1 0
vn 0 -1 0
vn 0 1 0
vn 0 1 0
vn 0 1 0
vn 0 1 0
vn 0 1 0
vn 0 1 0
vn 0 -1 0
vn 0 -1 0
vn 0 -1 0
vn 0 -1 0
vn 0 -1 0
vn 0 -1 0
vn 0 -0.9922527 0.12423597
vn 0 -0.9922527 0.12423597
vn 0 -0.9922527 0.12423597
vn 0 -0.94945276 0.31390992
vn 0 -0.94945276 0.31390992
vn 0 -0.94945276 0.31390992
vn 0 -0.8913225 0.45336968
vn 0 -0.8913225 0.45336968
vn 0 -0.8913225 0.45336968
vn 1 0 0
vn 1 0 0
vn 1 0 0
vn 1 0 0
vn 1 0 0
vn 1 0 0
vn 1 0 0
vn 1 0 0
vn 1 0 0
vn 1 0 0
vn 1 0 0
vn 1 0 0
vn 1 0 0
vn 1 0 0
vn 1 0 0
vn 1 0 0
vn 1 0 0
vn 1 0 0
vn 1 0 0
vn 1 0 0
vn 1 0 0
vn 1 0 0
vn 1 0 0
vn 1 0 0
vn 0 1 0
vn 0 1 0
vn 0 1 0
vn 0 1 0
vn 0 1 0
vn 0 1 0
vn 0 -1 0
vn 0 -1 0
vn 0 -1 0
vn 0 -1 0
vn 0 -1 0
vn 0 -1 0
vn 0 -0.9831427 0.18283983
vn 0 -0.9831427 0.18283983
vn 0 -0.9831427 0.18283983
vn 0 -0.96142215 0.27507725
vn 0 -0.96142215 0.27507725
vn 0 -0.96142215 0.27507725
vn 0 -0.9421513 0.33518794
vn 0 -0.9421513 0.33518794
vn 0 -0.9421513 0.33518794
vn 0 -0.9421513 0.33518794
vn 0 -0.9421513 0.33518794
vn 0 -0.9421513 0.33518794
vn 0 -0.47929466 -0.87765414
vn 0 -0.47929466 -0.87765414
vn 0 -0.47929466 -0.87765414
vn 0.032052632 -0.42372826 -0.90522206
vn 0.032052632 -0.42372826 -0.90522206
vn 0.032052632 -0.42372826 -0.90522206
vn 0 0.47929466 0.87765414
vn 0 0.47929466 0.87765414
vn 0 0.47929466 0.87765414
vn 0.032052632 0.42372826 0.90522206
vn 0.032052632 0.42372826 0.90522206
vn 0.032052632 0.42372826 0.90522206
vn 0 -0.263411 0.96468365
vn 0 -0.263411 0.96468365
vn 0 -0.263411 0.96468365
vn 0 -0.26341122 0.96468365
vn 0 -0.26341122 0.96468365
vn 0 -0.26341122 0.96468365
vn 0 -0.26341078 0.9646837
vn 0 -0.26341078 0.9646837
vn 0 -0.26341078 0.9646837
vn 0 -0.32302067 0.946392
vn 0 -0.32302067 0.946392
vn 0 -0.32302067 0.946392
vn 0 -0.26341116 0.96468365
vn 0 -0.26341116 0.96468365
vn 0 -0.26341116 0.96468365
vn 0 -0.23586696 0.9717853
vn 0 -0.23586696 0.9717853
vn 0 -0.23586696 0.9717853
vn 0 -0.21341105 0.9769625
vn 0 -0.21341105 0.9769625
vn 0 -0.21341105 0.9769625
vn 0 -0.26341113 0.96468365
vn 0 -0.26341113 0.96468365
vn 0 -0.26341113 0.96468365
vn 0 -0.20062706 0.9796678
vn 0 -0.20062706 0.9796678
vn 0 -0.20062706 0.9796678
vn 0.46641964 -0.5605412 -0.6842852
vn 0.46641964 -0.5605412 -0.6842852
vn 0.46641964 -0.5605412 -0.6842852
vn 0.46641967 -0.56054115 -0.6842853
vn 0.46641967 -0.56054115 -0.6842853
vn 0.46641967 -0.56054115 -0.6842853
vn 0.46641973 -0.56054145 -0.68428504
vn 0.46641973 -0.56054145 -0.68428504
vn 0.46641973 -0.56054145 -0.68428504
vn 0.46641964 0.5605412 0.6842852
vn 0.46641964 0.5605412 0.6842852
vn 0.46641964 0.5605412 0.6842852
vn 0.46641967 0.56054115 0.6842853
vn 0.46641967 0.56054115 0.6842853
vn 0.46641967 0.56054115 0.6842853
vn 0.46641973 0.56054145 0.68428504
vn 0.46641973 0.56054145 0.68428504
vn 0.46641973 0.56054145 0.68428504
vn 0 -0.4142142 0.91017944
vn 0 -0.4142142 0.91017944
vn 0 -0.4142142 0.91017944
vn 0 -0.37902144 0.9253879
vn 0 -0.37902144 0.9253879
vn 0 -0.37902144 0.9253879
vn 0 -0.3790215 0.9253878
vn 0 -0.3790215 0.9253878
vn 0 -0.3790215 0.9253878
vn 0 -0.37902126 0.925388
vn 0 -0.37902126 0.925388
vn 0 -0.37902126 0.925388
vn 0 -0.22187403 0.9750753
vn 0 -0.22187403 0.9750753
vn 0 -0.22187403 0.9750753
vn 0 -0.263411 0.96468365
vn 0 -0.263411 0.96468365
vn 0 -0.263411 0.96468365
vn 0 -0.2634108 0.9646838
vn 0 -0.2634108 0.9646838
vn 0 -0.2634108 0.9646838
vn 0 -0.8764598 0.48147523
vn 0 -0.8764598 0.48147523
vn 0 -0.8764598 0.48147523
vn 0 -0.87645966 0.4814753
vn 0 -0.87645966 0.4814753
vn 0 -0.87645966 0.4814753
vn 0 -0.93900955 0.34389105
vn 0 -0.93900955 0.34389105
vn 0 -0.93900955 0.34389105
vn 0.4188282 0.8685187 -0.2650628
vn 0.4188282 0.8685187 -0.2650628
vn 0.4188282 0.8685187 -0.2650628
vn 0.4188282 -0.8685187 0.2650628
vn 0.4188282 -0.8685187 0.2650628
vn 0.4188282 -0.8685187 0.2650628
vn 0 -0.8985918 0.43878546
vn 0 -0.8985918 0.43878546
vn 0 -0.8985918 0.43878546
vn 0 -0.34210503 0.93966174
vn 0 -0.34210503 0.93966174
vn 0 -0.34210503 0.93966174
vn 0 -0.34210488 0.93966186
vn 0 -0.34210488 0.93966186
vn 0 -0.34210488 0.93966186
vn 0 -0.34210488 0.93966186
vn 0 -0.34210488 0.93966186
vn 0 -0.34210488 0.93966186
vn 0 -0.34210488 0.93966186
vn 0 -0.34210488 0.93966186
vn 0 -0.34210488 0.93966186
vn 0 -0.34210488 0.93966186
vn 0 -0.34210488 0.93966186
vn 0 -0.34210488 0.93966186
vn 0 -0.34210488 0.93966186
vn 0 -0.34210488 0.93966186
vn 0 -0.34210488 0.93966186
vn 0 -0.22187385 0.97507536
vn 0 -0.22187385 0.97507536
vn 0 -0.22187385 0.97507536
vn 0 -0.22187386 0.9750754
vn 0 -0.22187386 0.9750754
vn 0 -0.22187386 0.9750754
vn 0 -0.22187385 0.97507536
vn 0 -0.22187385 0.97507536
vn 0 -0.22187385 0.97507536
vn 0 -0.22187385 0.97507536
vn 0 -0.22187385 0.97507536
vn 0 -0.22187385 0.97507536
vn 0 -0.22187383 0.97507536
vn 0 -0.22187383 0.97507536
vn 0 -0.22187383 0.97507536
vn 0 -0.22187383 0.9750753
vn 0 -0.22187383 0.9750753
vn 0 -0.22187383 0.9750753
vn 0.35577896 -0.44793454 -0.82022923
vn 0.35577896 -0.44793454 -0.82022923
vn 0.35577896 -0.44793454 -0.82022923
vn 0.355779 -0.44793433 -0.8202293
vn 0.355779 -0.44793433 -0.8202293
vn 0.355779 -0.44793433 -0.8202293
vn 0.35577896 0.44793454 0.82022923
vn 0.35577896 0.44793454 0.82022923
vn 0.35577896 0.44793454 0.82022923
vn 0.355779 0.44793433 0.8202293
vn 0.355779 0.44793433 0.8202293
vn 0.355779 0.44793433 0.8202293
vn 0 -0.67311424 0.7395385
vn 0 -0.67311424 0.7395385
vn 0 -0.67311424 0.7395385
vn 0 -0.69738925 0.7166927
vn 0 -0.69738925 0.7166927
vn 0 -0.69738925 0.7166927
vn 0 -0.70833147 0.7058799
vn 0 -0.70833147 0.7058799
vn 0 -0.70833147 0.7058799
vn 0 -0.81801695 0.5751941
vn 0 -0.81801695 0.5751941
vn 0 -0.81801695 0.5751941
vn 0 -0.80674285 0.5909026
vn 0 -0.80674285 0.5909026
vn 0 -0.80674285 0.5909026
f 1//1 2//2 3//3
f 4//4 5//5 6//6
f 7//7 8//8 9//9
f 10//10 11//11 12//12
f 13//13 14//14 15//15
f 16//16 17//17 18//18
f 19//19 20//20 21//21
f 22//22 23//23 24//24
f 25//25 26//26 27//27
f 28//28 29//29 30//30
f 31//31 32//32 33//33
f 34//34 35//35 36//36
f 37//37 38//38 39//39
f 40//40 41//41 42//42
f 43//43 44//44 45//45
f 46//46 47//47 48//48
f 49//49 50//50 51//51
f 52//52 53//53 54//54
f 55//55 56//56 57//57
f 58//58 59//59 60//60
f 61//61 62//62 63//63
f 64//64 65//65 66//66
f 67//67 68//68 69//69
f 70//70 71//71 72//72
f 73//73 74//74 75//75
f 76//76 77//77 78//78
f 79//79 80//80 81//81
f 82//82 83//83 84//84
f 85//85 86//86 87//87
f 88//88 89//89 90//90
f 91//91 92//92 93//93
f 94//94 95//95 96//96
f 97//97 98//98 99//99
f 100//100 101//101 102//102
f 103//103 104//104 105//105
f 106//106 107//107 108//108
f 109//109 110//110 111//111
f 112//112 113//113 114//114
f 115//115 116//116 117//117
f 118//118 119//119 120//120
f 121//121 122//122 123//123
f 124//124 125//125 126//126
f 127//127 128//128 129//129
f 130//130 131//131 132//132
f 133//133 134//134 135//135
f 136//136 137//137 138//138
f 139//139 140//140 141//141
f 142//142 143//143 144//144
f 145//145 146//146 147//147
f 148//148 149//149 150//150
f 151//151 152//152 153//153
f 154//154 155//155 156//156
f 157//157 158//158 159//159
f 160//160 161//161 162//162
f 163//163 164//164 165//165
f 166//166 167//167 168//168
f 169//169 170//170 171//171
f 172//172 173//173 174//174
f 175//175 176//176 177//177
f 178//178 179//179 180//180
f 181//181 182//182 183//183
f 184//184 185//185 186//186
f 187//187 188//188 189//189
f 190//190 191//191 192//192
f 193//193 194//194 195//195
f 196//196 197//197 198//198
f 199//199 200//200 201//201
f 202//202 203//203 204//204
f 205//205 206//206 207//207
f 208//208 209//209 210//210
f 211//211 212//212 213//213
f 214//214 215//215 216//216
f 217//217 218//218 219//219
f 220//220 221//221 222//222
f 223//223 224//224 225//225
f 226//226 227//227 228//228
f 229//229 230//230 231//231
f 232//232 233//233 234//234
f 235//235 236//236 237//237
f 238//238 239//239 240//240
f 241//241 242//242 243//243
f 244//244 245//245 246//246
f 247//247 248//248 249//249
f 250//250 251//251 252//252
f 253//253 254//254 255//255
f 256//256 257//257 258//258
f 259//259 260//260 261//261
f 262//262 263//263 264//264
f 265//265 266//266 267//267
f 268//268 269//269 270//270
f 271//271 272//272 273//273
f 274//274 275//275 276//276
f 277//277 278//278 279//279
f 280//280 281//281 282//282
f 283//283 284//284 285//285
f 286//286 287//287 288//288
f 289//289 290//290 291//291
f 292//292 293//293 294//294
f 295//295 296//296 297//297
f 298//298 299//299 300//300
f 301//301 302//302 303//303
f 304//304 305//305 306//306
f 307//307 308//308 309//309
f 310//310 311//311 312//312
f 313//313 314//314 315//315
f 316//316 317//317 318//318
f 319//319 320//320 321//321
f 322//322 323//323 324//324
f 325//325 326//326 327//327
f 328//328 329//329 330//330
f 331//331 332//332 333//333
f 334//334 335//335 336//336
f 337//337 338//338 339//339
f 340//340 341//341 342//342
f 343//343 344//344 345//345
f 346//346 347//347 348//348
f 349//349 350//350 351//351
f 352//352 353//353 354//354
f 355//355 356//356 357//357
f 358//358 359//359 360//360
f 361//361 362//362 363//363
f 364//364 365//365 366//366
f 367//367 368//368 369//369
