# Exported from SharpOpenGl procedural mesh
o default_base
# vertices 159
v 6.8320003 0 0
v 4.8309536 0 4.8309536
v 3.7576003 1.3664001 0
v 4.8309536 0 4.8309536
v 2.6570246 1.3664001 2.6570246
v 3.7576003 1.3664001 0
v 0 0 0
v 6.8320003 0 0
v 4.8309536 0 4.8309536
v 4.8309536 0 4.8309536
v -2.9863622E-07 0 6.8320003
v 2.6570246 1.3664001 2.6570246
v -2.9863622E-07 0 6.8320003
v -1.6424993E-07 1.3664001 3.7576003
v 2.6570246 1.3664001 2.6570246
v 0 0 0
v 4.8309536 0 4.8309536
v -2.9863622E-07 0 6.8320003
v -2.9863622E-07 0 6.8320003
v -4.8309536 0 4.8309536
v -1.6424993E-07 1.3664001 3.7576003
v -4.8309536 0 4.8309536
v -2.6570246 1.3664001 2.6570246
v -1.6424993E-07 1.3664001 3.7576003
v 0 0 0
v -2.9863622E-07 0 6.8320003
v -4.8309536 0 4.8309536
v -4.8309536 0 4.8309536
v -6.8320003 0 -5.9727245E-07
v -2.6570246 1.3664001 2.6570246
v -6.8320003 0 -5.9727245E-07
v -3.7576003 1.3664001 -3.2849985E-07
v -2.6570246 1.3664001 2.6570246
v 0 0 0
v -4.8309536 0 4.8309536
v -6.8320003 0 -5.9727245E-07
v -6.8320003 0 -5.9727245E-07
v -4.8309526 0 -4.8309546
v -3.7576003 1.3664001 -3.2849985E-07
v -4.8309526 0 -4.8309546
v -2.657024 1.3664001 -2.657025
v -3.7576003 1.3664001 -3.2849985E-07
v 0 0 0
v -6.8320003 0 -5.9727245E-07
v -4.8309526 0 -4.8309546
v -4.8309526 0 -4.8309546
v 8.147079E-08 0 -6.8320003
v -2.657024 1.3664001 -2.657025
v 8.147079E-08 0 -6.8320003
v 4.4808935E-08 1.3664001 -3.7576003
v -2.657024 1.3664001 -2.657025
v 0 0 0
v -4.8309526 0 -4.8309546
v 8.147079E-08 0 -6.8320003
v 8.147079E-08 0 -6.8320003
v 4.830955 0 -4.830952
v 4.4808935E-08 1.3664001 -3.7576003
v 4.830955 0 -4.830952
v 2.6570253 1.3664001 -2.6570237
v 4.4808935E-08 1.3664001 -3.7576003
v 0 0 0
v 8.147079E-08 0 -6.8320003
v 4.830955 0 -4.830952
v 4.830955 0 -4.830952
v 6.8320003 0 1.1945449E-06
v 2.6570253 1.3664001 -2.6570237
v 6.8320003 0 1.1945449E-06
v 3.7576003 1.3664001 6.569997E-07
v 2.6570253 1.3664001 -2.6570237
v 0 0 0
v 4.830955 0 -4.830952
v 6.8320003 0 1.1945449E-06
v 0 1.3664001 0
v -1.3664001 7.5152006 0
v 1.3664001 7.5152006 0
v -1.3664001 7.5152006 0
v 0 10.248 1.0248001
v 1.3664001 7.5152006 0
v -0.81984 0.95648 3.7576003
v 0 1.7934 4.4408
v 0.81984 0.95648 3.7576003
v 4.4408 0.355264 0
v 3.5926828 0.355264 2.610237
v 3.9079041 0 0
v 3.5926828 0.355264 2.610237
v 1.3722826 0.355264 4.223452
v 3.1615608 0 2.2970085
v 1.3722826 0.355264 4.223452
v -1.3722829 0.355264 4.2234516
v 1.2076087 0 3.7166378
v -1.3722829 0.355264 4.2234516
v -3.592683 0.355264 2.6102366
v -1.2076089 0 3.7166374
v -3.592683 0.355264 2.6102366
v -4.4408 0.355264 -3.8822708E-07
v -3.161561 0 2.2970083
v -4.4408 0.355264 -3.8822708E-07
v -3.5926826 0.355264 -2.6102374
v -3.9079041 0 -3.4163983E-07
v -3.5926826 0.355264 -2.6102374
v -1.3722812 0.355264 -4.223452
v -3.1615608 0 -2.2970088
v -1.3722812 0.355264 -4.223452
v 1.3722833 0.355264 -4.2234516
v -1.2076074 0 -3.7166378
v 1.3722833 0.355264 -4.2234516
v 3.5926826 0.355264 -2.6102371
v 1.2076093 0 -3.7166374
v 3.5926826 0.355264 -2.6102371
v 4.4408 0.355264 7.7645416E-07
v 3.1615608 0 -2.2970088
v 4.91904 0.81984 0
v 5.124 1.09312 0
v 4.91904 1.09312 0.20496
v 2.45952 0.81984 4.260014
v 2.6644802 1.09312 4.260014
v 2.45952 1.09312 4.464974
v -2.4595206 0.81984 4.2600136
v -2.2545605 1.09312 4.2600136
v -2.4595206 1.09312 4.4649734
v -4.91904 0.81984 -4.3003618E-07
v -4.7140803 1.09312 -4.3003618E-07
v -4.91904 1.09312 0.20495957
v -2.4595196 0.81984 -4.260014
v -2.2545595 1.09312 -4.260014
v -2.4595196 1.09312 -4.055054
v 2.459522 0.81984 -4.260013
v 2.664482 1.09312 -4.260013
v 2.459522 1.09312 -4.055053
v 2.3912 3.7576003 0
v 3.0744002 3.27936 0
v 2.3912 3.27936 0.68320006
v -2.3912 3.7576003 -2.0904535E-07
v -1.708 3.27936 -2.0904535E-07
v -2.3912 3.27936 0.6831998
v 2.4390242 3.7576003 0
v 1.7246505 3.7576003 1.7246505
v 2.206736 4.1060324 0
v 1.7246505 3.7576003 1.7246505
v -1.0661313E-07 3.7576003 2.4390242
v 1.5603981 4.1060324 1.5603981
v -1.0661313E-07 3.7576003 2.4390242
v -1.7246505 3.7576003 1.7246505
v -9.64595E-08 4.1060324 2.206736
v -1.7246505 3.7576003 1.7246505
v -2.4390242 3.7576003 -2.1322626E-07
v -1.5603981 4.1060324 1.5603981
v -2.4390242 3.7576003 -2.1322626E-07
v -1.7246501 3.7576003 -1.7246507
v -2.206736 4.1060324 -1.92919E-07
v -1.7246501 3.7576003 -1.7246507
v 2.908507E-08 3.7576003 -2.4390242
v -1.5603977 4.1060324 -1.5603983
v 2.908507E-08 3.7576003 -2.4390242
v 1.7246511 3.7576003 -1.7246499
v 2.6315064E-08 4.1060324 -2.206736
v 1.7246511 3.7576003 -1.7246499
v 2.4390242 3.7576003 4.2645252E-07
v 1.5603987 4.1060324 -1.5603975
vn -0.4005107 -0.901149 -0.16589697
vn -0.4005107 -0.901149 -0.16589697
vn -0.4005107 -0.901149 -0.16589697
vn -0.4005107 -0.90114886 -0.16589697
vn -0.4005107 -0.90114886 -0.16589697
vn -0.4005107 -0.90114886 -0.16589697
vn 0 -1 0
vn 0 -1 0
vn 0 -1 0
vn -0.16589694 -0.901149 -0.40051067
vn -0.16589694 -0.901149 -0.40051067
vn -0.16589694 -0.901149 -0.40051067
vn -0.16589695 -0.9011489 -0.4005107
vn -0.16589695 -0.9011489 -0.4005107
vn -0.16589695 -0.9011489 -0.4005107
vn 0 -1 0
vn 0 -1 0
vn 0 -1 0
vn 0.16589698 -0.9011489 -0.4005107
vn 0.16589698 -0.9011489 -0.4005107
vn 0.16589698 -0.9011489 -0.4005107
vn 0.16589697 -0.90114886 -0.4005107
vn 0.16589697 -0.90114886 -0.4005107
vn 0.16589697 -0.90114886 -0.4005107
vn 0 -1 0
vn 0 -1 0
vn 0 -1 0
vn 0.40051067 -0.901149 -0.16589694
vn 0.40051067 -0.901149 -0.16589694
vn 0.40051067 -0.901149 -0.16589694
vn 0.40051067 -0.9011489 -0.16589692
vn 0.40051067 -0.9011489 -0.16589692
vn 0.40051067 -0.9011489 -0.16589692
vn -0 -1 0
vn -0 -1 0
vn -0 -1 0
vn 0.4005106 -0.9011489 0.16589701
vn 0.4005106 -0.9011489 0.16589701
vn 0.4005106 -0.9011489 0.16589701
vn 0.40051058 -0.9011489 0.16589706
vn 0.40051058 -0.9011489 0.16589706
vn 0.40051058 -0.9011489 0.16589706
vn 0 -1 0
vn 0 -1 0
vn 0 -1 0
vn 0.1658969 -0.9011489 0.40051064
vn 0.1658969 -0.9011489 0.40051064
vn 0.1658969 -0.9011489 0.40051064
vn 0.16589698 -0.9011489 0.40051064
vn 0.16589698 -0.9011489 0.40051064
vn 0.16589698 -0.9011489 0.40051064
vn 0 -1 -0
vn 0 -1 -0
vn 0 -1 -0
vn -0.16589703 -0.9011489 0.40051067
vn -0.16589703 -0.9011489 0.40051067
vn -0.16589703 -0.9011489 0.40051067
vn -0.16589704 -0.9011489 0.40051064
vn -0.16589704 -0.9011489 0.40051064
vn -0.16589704 -0.9011489 0.40051064
vn 0 -1 0
vn 0 -1 0
vn 0 -1 0
vn -0.4005107 -0.9011489 0.16589685
vn -0.4005107 -0.9011489 0.16589685
vn -0.4005107 -0.9011489 0.16589685
vn -0.40051067 -0.90114886 0.16589685
vn -0.40051067 -0.90114886 0.16589685
vn -0.40051067 -0.90114886 0.16589685
vn 0 -1 0
vn 0 -1 0
vn 0 -1 0
vn 0 0 -1
vn 0 0 -1
vn 0 0 -1
vn 0 0.35112348 -0.9363291
vn 0 0.35112348 -0.9363291
vn 0 0.35112348 -0.9363291
vn 0 0.6323764 -0.77466124
vn 0 0.6323764 -0.77466124
vn 0 0.6323764 -0.77466124
vn 0.54590446 -0.8188567 0.1773751
vn 0.54590446 -0.8188567 0.1773751
vn 0.54590446 -0.8188567 0.1773751
vn 0.33738753 -0.8188568 0.4643741
vn 0.33738753 -0.8188568 0.4643741
vn 0.33738753 -0.8188568 0.4643741
vn -9.9725646E-08 -0.8188567 0.573998
vn -9.9725646E-08 -0.8188567 0.573998
vn -9.9725646E-08 -0.8188567 0.573998
vn -0.33738747 -0.8188568 0.4643741
vn -0.33738747 -0.8188568 0.4643741
vn -0.33738747 -0.8188568 0.4643741
vn -0.54590446 -0.8188568 0.17737503
vn -0.54590446 -0.8188568 0.17737503
vn -0.54590446 -0.8188568 0.17737503
vn -0.54590446 -0.8188567 -0.17737515
vn -0.54590446 -0.8188567 -0.17737515
vn -0.54590446 -0.8188567 -0.17737515
vn -0.33738735 -0.8188568 -0.4643742
vn -0.33738735 -0.8188568 -0.4643742
vn -0.33738735 -0.8188568 -0.4643742
vn 9.972568E-08 -0.8188568 -0.57399803
vn 9.972568E-08 -0.8188568 -0.57399803
vn 9.972568E-08 -0.8188568 -0.57399803
vn 0.33738747 -0.8188568 -0.46437404
vn 0.33738747 -0.8188568 -0.46437404
vn 0.33738747 -0.8188568 -0.46437404
vn 0.54590464 -0.81885666 -0.17737514
vn 0.54590464 -0.81885666 -0.17737514
vn 0.54590464 -0.81885666 -0.17737514
vn 0.62469524 -0.46852118 0.6246948
vn 0.62469524 -0.46852118 0.6246948
vn 0.62469524 -0.46852118 0.6246948
vn 0.6246947 -0.46852133 0.6246954
vn 0.6246947 -0.46852133 0.6246954
vn 0.6246947 -0.46852133 0.6246954
vn 0.6246947 -0.46852133 0.6246954
vn 0.6246947 -0.46852133 0.6246954
vn 0.6246947 -0.46852133 0.6246954
vn 0.62469524 -0.46852118 0.6246948
vn 0.62469524 -0.46852118 0.6246948
vn 0.62469524 -0.46852118 0.6246948
vn 0.6246947 -0.46852133 0.6246954
vn 0.6246947 -0.46852133 0.6246954
vn 0.6246947 -0.46852133 0.6246954
vn 0.6246947 -0.46852133 0.6246954
vn 0.6246947 -0.46852133 0.6246954
vn 0.6246947 -0.46852133 0.6246954
vn -0.4974684 -0.7106689 -0.49746847
vn -0.4974684 -0.7106689 -0.49746847
vn -0.4974684 -0.7106689 -0.49746847
vn -0.4974684 -0.7106689 -0.49746847
vn -0.4974684 -0.7106689 -0.49746847
vn -0.4974684 -0.7106689 -0.49746847
vn -0.78664166 -0.52442795 -0.32583767
vn -0.78664166 -0.52442795 -0.32583767
vn -0.78664166 -0.52442795 -0.32583767
vn -0.3258377 -0.5244278 -0.78664184
vn -0.3258377 -0.5244278 -0.78664184
vn -0.3258377 -0.5244278 -0.78664184
vn 0.3258377 -0.52442795 -0.78664166
vn 0.3258377 -0.52442795 -0.78664166
vn 0.3258377 -0.52442795 -0.78664166
vn 0.78664184 -0.5244278 -0.3258377
vn 0.78664184 -0.5244278 -0.3258377
vn 0.78664184 -0.5244278 -0.3258377
vn 0.7866416 -0.5244279 0.32583782
vn 0.7866416 -0.5244279 0.32583782
vn 0.7866416 -0.5244279 0.32583782
vn 0.3258377 -0.5244277 0.78664184
vn 0.3258377 -0.5244277 0.78664184
vn 0.3258377 -0.5244277 0.78664184
vn -0.32583785 -0.52442795 0.7866416
vn -0.32583785 -0.52442795 0.7866416
vn -0.32583785 -0.52442795 0.7866416
vn -0.7866419 -0.52442765 0.32583752
vn -0.7866419 -0.52442765 0.32583752
vn -0.7866419 -0.52442765 0.32583752
f 1//1 2//2 3//3
f 4//4 5//5 6//6
f 7//7 8//8 9//9
f 10//10 11//11 12//12
f 13//13 14//14 15//15
f 16//16 17//17 18//18
f 19//19 20//20 21//21
f 22//22 23//23 24//24
f 25//25 26//26 27//27
f 28//28 29//29 30//30
f 31//31 32//32 33//33
f 34//34 35//35 36//36
f 37//37 38//38 39//39
f 40//40 41//41 42//42
f 43//43 44//44 45//45
f 46//46 47//47 48//48
f 49//49 50//50 51//51
f 52//52 53//53 54//54
f 55//55 56//56 57//57
f 58//58 59//59 60//60
f 61//61 62//62 63//63
f 64//64 65//65 66//66
f 67//67 68//68 69//69
f 70//70 71//71 72//72
f 73//73 74//74 75//75
f 76//76 77//77 78//78
f 79//79 80//80 81//81
f 82//82 83//83 84//84
f 85//85 86//86 87//87
f 88//88 89//89 90//90
f 91//91 92//92 93//93
f 94//94 95//95 96//96
f 97//97 98//98 99//99
f 100//100 101//101 102//102
f 103//103 104//104 105//105
f 106//106 107//107 108//108
f 109//109 110//110 111//111
f 112//112 113//113 114//114
f 115//115 116//116 117//117
f 118//118 119//119 120//120
f 121//121 122//122 123//123
f 124//124 125//125 126//126
f 127//127 128//128 129//129
f 130//130 131//131 132//132
f 133//133 134//134 135//135
f 136//136 137//137 138//138
f 139//139 140//140 141//141
f 142//142 143//143 144//144
f 145//145 146//146 147//147
f 148//148 149//149 150//150
f 151//151 152//152 153//153
f 154//154 155//155 156//156
f 157//157 158//158 159//159
