# Exported from SharpOpenGl procedural mesh
o command_center
# vertices 159
v 6.412 0 0
v 4.533969 0 4.533969
v 3.5266001 1.2824 0
v 4.533969 0 4.533969
v 2.4936829 1.2824 2.4936829
v 3.5266001 1.2824 0
v 0 0 0
v 6.412 0 0
v 4.533969 0 4.533969
v 4.533969 0 4.533969
v -2.8027742E-07 0 6.412
v 2.4936829 1.2824 2.4936829
v -2.8027742E-07 0 6.412
v -1.5415259E-07 1.2824 3.5266001
v 2.4936829 1.2824 2.4936829
v 0 0 0
v 4.533969 0 4.533969
v -2.8027742E-07 0 6.412
v -2.8027742E-07 0 6.412
v -4.533969 0 4.533969
v -1.5415259E-07 1.2824 3.5266001
v -4.533969 0 4.533969
v -2.4936829 1.2824 2.4936829
v -1.5415259E-07 1.2824 3.5266001
v 0 0 0
v -2.8027742E-07 0 6.412
v -4.533969 0 4.533969
v -4.533969 0 4.533969
v -6.412 0 -5.6055484E-07
v -2.4936829 1.2824 2.4936829
v -6.412 0 -5.6055484E-07
v -3.5266001 1.2824 -3.0830518E-07
v -2.4936829 1.2824 2.4936829
v 0 0 0
v -4.533969 0 4.533969
v -6.412 0 -5.6055484E-07
v -6.412 0 -5.6055484E-07
v -4.533968 0 -4.5339694
v -3.5266001 1.2824 -3.0830518E-07
v -4.533968 0 -4.5339694
v -2.4936824 1.2824 -2.4936833
v -3.5266001 1.2824 -3.0830518E-07
v 0 0 0
v -6.412 0 -5.6055484E-07
v -4.533968 0 -4.5339694
v -4.533968 0 -4.5339694
v 7.6462335E-08 0 -6.412
v -2.4936824 1.2824 -2.4936833
v 7.6462335E-08 0 -6.412
v 4.2054285E-08 1.2824 -3.5266001
v -2.4936824 1.2824 -2.4936833
v 0 0 0
v -4.533968 0 -4.5339694
v 7.6462335E-08 0 -6.412
v 7.6462335E-08 0 -6.412
v 4.5339704 0 -4.533967
v 4.2054285E-08 1.2824 -3.5266001
v 4.5339704 0 -4.533967
v 2.4936838 1.2824 -2.493682
v 4.2054285E-08 1.2824 -3.5266001
v 0 0 0
v 7.6462335E-08 0 -6.412
v 4.5339704 0 -4.533967
v 4.5339704 0 -4.533967
v 6.412 0 1.1211097E-06
v 2.4936838 1.2824 -2.493682
v 6.412 0 1.1211097E-06
v 3.5266001 1.2824 6.1661035E-07
v 2.4936838 1.2824 -2.493682
v 0 0 0
v 4.5339704 0 -4.533967
v 6.412 0 1.1211097E-06
v 0 1.2824 0
v -1.2824 7.0532002 0
v 1.2824 7.0532002 0
v -1.2824 7.0532002 0
v 0 9.618 0.96180004
v 1.2824 7.0532002 0
v -0.76944 0.89768 3.5266001
v 0 1.68315 4.1678
v 0.76944 0.89768 3.5266001
v 4.1678 0.333424 0
v 3.371821 0.333424 2.4497714
v 3.667664 0 0
v 3.371821 0.333424 2.4497714
v 1.287921 0.333424 3.9638133
v 2.9672024 0 2.155799
v 1.287921 0.333424 3.9638133
v -1.2879212 0.333424 3.963813
v 1.1333704 0 3.4881556
v -1.2879212 0.333424 3.963813
v -3.3718212 0.333424 2.4497712
v -1.1333706 0 3.4881554
v -3.3718212 0.333424 2.4497712
v -4.1678 0.333424 -3.6436063E-07
v -2.9672027 0 2.1557987
v -4.1678 0.333424 -3.6436063E-07
v -3.3718207 0.333424 -2.449772
v -3.667664 0 -3.2063735E-07
v -3.3718207 0.333424 -2.449772
v -1.2879195 0.333424 -3.9638135
v -2.9672022 0 -2.1557992
v -1.2879195 0.333424 -3.9638135
v 1.2879215 0.333424 -3.963813
v -1.1333692 0 -3.4881558
v 1.2879215 0.333424 -3.963813
v 3.3718207 0.333424 -2.4497716
v 1.133371 0 -3.4881554
v 3.3718207 0.333424 -2.4497716
v 4.1678 0.333424 7.2872126E-07
v 2.9672022 0 -2.1557992
v 4.61664 0.76944 0
v 4.809 1.02592 0
v 4.61664 1.02592 0.19236
v 2.30832 0.76944 3.998128
v 2.50068 1.02592 3.998128
v 2.30832 1.02592 4.190488
v -2.3083205 0.76944 3.998128
v -2.1159606 1.02592 3.998128
v -2.3083205 1.02592 4.190488
v -4.61664 0.76944 -4.035995E-07
v -4.42428 1.02592 -4.035995E-07
v -4.61664 1.02592 0.1923596
v -2.3083198 0.76944 -3.998128
v -2.11596 1.02592 -3.998128
v -2.3083198 1.02592 -3.805768
v 2.308322 0.76944 -3.9981267
v 2.5006819 1.02592 -3.9981267
v 2.308322 1.02592 -3.8057668
v 2.2442 3.5266001 0
v 2.8854 3.07776 0
v 2.2442 3.07776 0.6412
v -2.2442 3.5266001 -1.961942E-07
v -1.6029999 3.07776 -1.961942E-07
v -2.2442 3.07776 0.6411998
v 2.289084 3.5266001 0
v 1.6186267 3.5266001 1.6186267
v 2.071076 3.8536122 0
v 1.6186267 3.5266001 1.6186267
v -1.0005904E-07 3.5266001 2.289084
v 1.4644718 3.8536122 1.4644718
v -1.0005904E-07 3.5266001 2.289084
v -1.6186267 3.5266001 1.6186267
v -9.052961E-08 3.8536122 2.071076
v -1.6186267 3.5266001 1.6186267
v -2.289084 3.5266001 -2.0011808E-07
v -1.4644718 3.8536122 1.4644718
v -2.289084 3.5266001 -2.0011808E-07
v -1.6186265 3.5266001 -1.6186271
v -2.071076 3.8536122 -1.8105922E-07
v -1.6186265 3.5266001 -1.6186271
v 2.7297055E-08 3.5266001 -2.289084
v -1.4644716 3.8536122 -1.464472
v 2.7297055E-08 3.5266001 -2.289084
v 1.6186273 3.5266001 -1.6186262
v 2.4697336E-08 3.8536122 -2.071076
v 1.6186273 3.5266001 -1.6186262
v 2.289084 3.5266001 4.0023616E-07
v 1.4644724 3.8536122 -1.4644713
vn -0.40051058 -0.9011489 -0.1658969
vn -0.40051058 -0.9011489 -0.1658969
vn -0.40051058 -0.9011489 -0.1658969
vn -0.40051064 -0.901149 -0.16589697
vn -0.40051064 -0.901149 -0.16589697
vn -0.40051064 -0.901149 -0.16589697
vn 0 -1 0
vn 0 -1 0
vn 0 -1 0
vn -0.1658969 -0.901149 -0.40051067
vn -0.1658969 -0.901149 -0.40051067
vn -0.1658969 -0.901149 -0.40051067
vn -0.16589697 -0.9011489 -0.40051064
vn -0.16589697 -0.9011489 -0.40051064
vn -0.16589697 -0.9011489 -0.40051064
vn 0 -0.99999994 0
vn 0 -0.99999994 0
vn 0 -0.99999994 0
vn 0.16589694 -0.901149 -0.40051064
vn 0.16589694 -0.901149 -0.40051064
vn 0.16589694 -0.901149 -0.40051064
vn 0.16589697 -0.901149 -0.40051064
vn 0.16589697 -0.901149 -0.40051064
vn 0.16589697 -0.901149 -0.40051064
vn 0 -1 0
vn 0 -1 0
vn 0 -1 0
vn 0.40051067 -0.901149 -0.1658969
vn 0.40051067 -0.901149 -0.1658969
vn 0.40051067 -0.901149 -0.1658969
vn 0.40051067 -0.9011489 -0.16589697
vn 0.40051067 -0.9011489 -0.16589697
vn 0.40051067 -0.9011489 -0.16589697
vn -0 -0.99999994 0
vn -0 -0.99999994 0
vn -0 -0.99999994 0
vn 0.40051058 -0.9011489 0.165897
vn 0.40051058 -0.9011489 0.165897
vn 0.40051058 -0.9011489 0.165897
vn 0.40051064 -0.901149 0.16589703
vn 0.40051064 -0.901149 0.16589703
vn 0.40051064 -0.901149 0.16589703
vn 0 -1 0
vn 0 -1 0
vn 0 -1 0
vn 0.16589692 -0.9011489 0.40051067
vn 0.16589692 -0.9011489 0.40051067
vn 0.16589692 -0.9011489 0.40051067
vn 0.16589688 -0.901149 0.40051064
vn 0.16589688 -0.901149 0.40051064
vn 0.16589688 -0.901149 0.40051064
vn 0 -1 -0
vn 0 -1 -0
vn 0 -1 -0
vn -0.16589704 -0.901149 0.40051064
vn -0.16589704 -0.901149 0.40051064
vn -0.16589704 -0.901149 0.40051064
vn -0.16589704 -0.9011489 0.4005106
vn -0.16589704 -0.9011489 0.4005106
vn -0.16589704 -0.9011489 0.4005106
vn 0 -1 0
vn 0 -1 0
vn 0 -1 0
vn -0.40051067 -0.9011489 0.16589685
vn -0.40051067 -0.9011489 0.16589685
vn -0.40051067 -0.9011489 0.16589685
vn -0.40051067 -0.901149 0.16589682
vn -0.40051067 -0.901149 0.16589682
vn -0.40051067 -0.901149 0.16589682
vn 0 -0.99999994 0
vn 0 -0.99999994 0
vn 0 -0.99999994 0
vn 0 0 -0.99999994
vn 0 0 -0.99999994
vn 0 0 -0.99999994
vn 0 0.3511235 -0.93632925
vn 0 0.3511235 -0.93632925
vn 0 0.3511235 -0.93632925
vn 0 0.6323764 -0.7746613
vn 0 0.6323764 -0.7746613
vn 0 0.6323764 -0.7746613
vn 0.5459045 -0.81885666 0.17737514
vn 0.5459045 -0.81885666 0.17737514
vn 0.5459045 -0.81885666 0.17737514
vn 0.33738753 -0.81885666 0.46437413
vn 0.33738753 -0.81885666 0.46437413
vn 0.33738753 -0.81885666 0.46437413
vn -5.312894E-08 -0.8188568 0.5739979
vn -5.312894E-08 -0.8188568 0.5739979
vn -5.312894E-08 -0.8188568 0.5739979
vn -0.33738747 -0.81885684 0.46437404
vn -0.33738747 -0.81885684 0.46437404
vn -0.33738747 -0.81885684 0.46437404
vn -0.5459046 -0.8188567 0.1773751
vn -0.5459046 -0.8188567 0.1773751
vn -0.5459046 -0.8188567 0.1773751
vn -0.5459045 -0.81885666 -0.17737521
vn -0.5459045 -0.81885666 -0.17737521
vn -0.5459045 -0.81885666 -0.17737521
vn -0.33738735 -0.8188568 -0.46437418
vn -0.33738735 -0.8188568 -0.46437418
vn -0.33738735 -0.8188568 -0.46437418
vn 1.0625794E-07 -0.81885684 -0.573998
vn 1.0625794E-07 -0.81885684 -0.573998
vn 1.0625794E-07 -0.81885684 -0.573998
vn 0.33738747 -0.8188568 -0.464374
vn 0.33738747 -0.8188568 -0.464374
vn 0.33738747 -0.8188568 -0.464374
vn 0.5459045 -0.8188567 -0.17737512
vn 0.5459045 -0.8188567 -0.17737512
vn 0.5459045 -0.8188567 -0.17737512
vn 0.62469524 -0.46852115 0.624695
vn 0.62469524 -0.46852115 0.624695
vn 0.62469524 -0.46852115 0.624695
vn 0.6246952 -0.46852112 0.6246952
vn 0.6246952 -0.46852112 0.6246952
vn 0.6246952 -0.46852112 0.6246952
vn 0.6246952 -0.46852112 0.6246952
vn 0.6246952 -0.46852112 0.6246952
vn 0.6246952 -0.46852112 0.6246952
vn 0.62469524 -0.46852115 0.624695
vn 0.62469524 -0.46852115 0.624695
vn 0.62469524 -0.46852115 0.624695
vn 0.6246952 -0.46852112 0.6246952
vn 0.6246952 -0.46852112 0.6246952
vn 0.6246952 -0.46852112 0.6246952
vn 0.6246952 -0.46852112 0.6246952
vn 0.6246952 -0.46852112 0.6246952
vn 0.6246952 -0.46852112 0.6246952
vn -0.49746838 -0.710669 -0.49746844
vn -0.49746838 -0.710669 -0.49746844
vn -0.49746838 -0.710669 -0.49746844
vn -0.49746838 -0.710669 -0.49746844
vn -0.49746838 -0.710669 -0.49746844
vn -0.49746838 -0.710669 -0.49746844
vn -0.7866417 -0.52442783 -0.3258377
vn -0.7866417 -0.52442783 -0.3258377
vn -0.7866417 -0.52442783 -0.3258377
vn -0.3258377 -0.52442765 -0.7866418
vn -0.3258377 -0.52442765 -0.7866418
vn -0.3258377 -0.52442765 -0.7866418
vn 0.32583776 -0.52442783 -0.7866417
vn 0.32583776 -0.52442783 -0.7866417
vn 0.32583776 -0.52442783 -0.7866417
vn 0.7866418 -0.52442765 -0.3258377
vn 0.7866418 -0.52442765 -0.3258377
vn 0.7866418 -0.52442765 -0.3258377
vn 0.7866417 -0.5244278 0.3258378
vn 0.7866417 -0.5244278 0.3258378
vn 0.7866417 -0.5244278 0.3258378
vn 0.32583758 -0.52442783 0.7866417
vn 0.32583758 -0.52442783 0.7866417
vn 0.32583758 -0.52442783 0.7866417
vn -0.32583782 -0.52442783 0.7866417
vn -0.32583782 -0.52442783 0.7866417
vn -0.32583782 -0.52442783 0.7866417
vn -0.78664196 -0.52442765 0.32583755
vn -0.78664196 -0.52442765 0.32583755
vn -0.78664196 -0.52442765 0.32583755
f 1//1 2//2 3//3
f 4//4 5//5 6//6
f 7//7 8//8 9//9
f 10//10 11//11 12//12
f 13//13 14//14 15//15
f 16//16 17//17 18//18
f 19//19 20//20 21//21
f 22//22 23//23 24//24
f 25//25 26//26 27//27
f 28//28 29//29 30//30
f 31//31 32//32 33//33
f 34//34 35//35 36//36
f 37//37 38//38 39//39
f 40//40 41//41 42//42
f 43//43 44//44 45//45
f 46//46 47//47 48//48
f 49//49 50//50 51//51
f 52//52 53//53 54//54
f 55//55 56//56 57//57
f 58//58 59//59 60//60
f 61//61 62//62 63//63
f 64//64 65//65 66//66
f 67//67 68//68 69//69
f 70//70 71//71 72//72
f 73//73 74//74 75//75
f 76//76 77//77 78//78
f 79//79 80//80 81//81
f 82//82 83//83 84//84
f 85//85 86//86 87//87
f 88//88 89//89 90//90
f 91//91 92//92 93//93
f 94//94 95//95 96//96
f 97//97 98//98 99//99
f 100//100 101//101 102//102
f 103//103 104//104 105//105
f 106//106 107//107 108//108
f 109//109 110//110 111//111
f 112//112 113//113 114//114
f 115//115 116//116 117//117
f 118//118 119//119 120//120
f 121//121 122//122 123//123
f 124//124 125//125 126//126
f 127//127 128//128 129//129
f 130//130 131//131 132//132
f 133//133 134//134 135//135
f 136//136 137//137 138//138
f 139//139 140//140 141//141
f 142//142 143//143 144//144
f 145//145 146//146 147//147
f 148//148 149//149 150//150
f 151//151 152//152 153//153
f 154//154 155//155 156//156
f 157//157 158//158 159//159
