# Exported from SharpOpenGl procedural mesh
o shipyard_medium
# vertices 87
v -6.412 0 -3.8472002
v 6.412 0 -3.8472002
v 6.412 0 3.8472002
v -6.412 0 -3.8472002
v 6.412 0 3.8472002
v -6.412 0 3.8472002
v -5.7708 0.96180004 -3.206
v 5.7708 0.96180004 -3.206
v 5.7708 0.96180004 3.206
v -5.7708 0.96180004 -3.206
v 5.7708 0.96180004 3.206
v -5.7708 0.96180004 3.206
v -1.7633001 0 -3.5266001
v -1.25034 4.4884 -3.5266001
v -1.7633001 4.4884 3.5266001
v -1.25034 4.4884 -3.5266001
v -1.25034 4.4884 3.5266001
v -1.7633001 4.4884 3.5266001
v 1.7633001 0 -3.5266001
v 2.2762601 4.4884 -3.5266001
v 1.7633001 4.4884 3.5266001
v 2.2762601 4.4884 -3.5266001
v 2.2762601 4.4884 3.5266001
v 1.7633001 4.4884 3.5266001
v -2.2442 1.02592 -2.2442
v 2.2442 1.02592 -2.2442
v 0 2.2442 -1.47476
v -2.2442 1.02592 -0.4488399
v 2.2442 1.02592 -0.4488399
v 0 2.2442 0.3206001
v -2.2442 1.02592 1.3465202
v 2.2442 1.02592 1.3465202
v 0 2.2442 2.1159601
v -0.615552 0.564256 2.82128
v 0 1.0579801 3.33424
v 0.615552 0.564256 2.82128
v 4.1678 0.333424 0
v 3.371821 0.333424 2.4497714
v 3.667664 0 0
v 3.371821 0.333424 2.4497714
v 1.287921 0.333424 3.9638133
v 2.9672024 0 2.155799
v 1.287921 0.333424 3.9638133
v -1.2879212 0.333424 3.963813
v 1.1333704 0 3.4881556
v -1.2879212 0.333424 3.963813
v -3.3718212 0.333424 2.4497712
v -1.1333706 0 3.4881554
v -3.3718212 0.333424 2.4497712
v -4.1678 0.333424 -3.6436063E-07
v -2.9672027 0 2.1557987
v -4.1678 0.333424 -3.6436063E-07
v -3.3718207 0.333424 -2.449772
v -3.667664 0 -3.2063735E-07
v -3.3718207 0.333424 -2.449772
v -1.2879195 0.333424 -3.9638135
v -2.9672022 0 -2.1557992
v -1.2879195 0.333424 -3.9638135
v 1.2879215 0.333424 -3.963813
v -1.1333692 0 -3.4881558
v 1.2879215 0.333424 -3.963813
v 3.3718207 0.333424 -2.4497716
v 1.133371 0 -3.4881554
v 3.3718207 0.333424 -2.4497716
v 4.1678 0.333424 7.2872126E-07
v 2.9672022 0 -2.1557992
v 4.61664 0.76944 0
v 4.809 1.02592 0
v 4.61664 1.02592 0.19236
v 2.30832 0.76944 3.998128
v 2.50068 1.02592 3.998128
v 2.30832 1.02592 4.190488
v -2.3083205 0.76944 3.998128
v -2.1159606 1.02592 3.998128
v -2.3083205 1.02592 4.190488
v -4.61664 0.76944 -4.035995E-07
v -4.42428 1.02592 -4.035995E-07
v -4.61664 1.02592 0.1923596
v -2.3083198 0.76944 -3.998128
v -2.11596 1.02592 -3.998128
v -2.3083198 1.02592 -3.805768
v 2.308322 0.76944 -3.9981267
v 2.5006819 1.02592 -3.9981267
v 2.308322 1.02592 -3.8057668
v 0 0.96180004 -2.5648
v 0.3206 3.5266001 -2.8854
v 0 3.206 1.9236001
vn 0 -1 0
vn 0 -1 0
vn 0 -1 0
vn 0 -1 0
vn 0 -1 0
vn 0 -1 0
vn 0 -1 0
vn 0 -1 0
vn 0 -1 0
vn 0 -1 0
vn 0 -1 0
vn 0 -1 0
vn 0.99094915 -0.11325134 0.07206904
vn 0.99094915 -0.11325134 0.07206904
vn 0.99094915 -0.11325134 0.07206904
vn 0 -0.99999994 0
vn 0 -0.99999994 0
vn 0 -0.99999994 0
vn 0.99094915 -0.11325134 0.07206904
vn 0.99094915 -0.11325134 0.07206904
vn 0.99094915 -0.11325134 0.07206904
vn 0 -0.99999994 0
vn 0 -0.99999994 0
vn 0 -0.99999994 0
vn 0 -0.533993 0.84548897
vn 0 -0.533993 0.84548897
vn 0 -0.533993 0.84548897
vn 0 -0.533993 0.84548885
vn 0 -0.533993 0.84548885
vn 0 -0.533993 0.84548885
vn 0 -0.533993 0.84548897
vn 0 -0.533993 0.84548897
vn 0 -0.533993 0.84548897
vn 0 0.7204868 -0.6934687
vn 0 0.7204868 -0.6934687
vn 0 0.7204868 -0.6934687
vn 0.5459045 -0.81885666 0.17737514
vn 0.5459045 -0.81885666 0.17737514
vn 0.5459045 -0.81885666 0.17737514
vn 0.33738753 -0.81885666 0.46437413
vn 0.33738753 -0.81885666 0.46437413
vn 0.33738753 -0.81885666 0.46437413
vn -5.312894E-08 -0.8188568 0.5739979
vn -5.312894E-08 -0.8188568 0.5739979
vn -5.312894E-08 -0.8188568 0.5739979
vn -0.33738747 -0.81885684 0.46437404
vn -0.33738747 -0.81885684 0.46437404
vn -0.33738747 -0.81885684 0.46437404
vn -0.5459046 -0.8188567 0.1773751
vn -0.5459046 -0.8188567 0.1773751
vn -0.5459046 -0.8188567 0.1773751
vn -0.5459045 -0.81885666 -0.17737521
vn -0.5459045 -0.81885666 -0.17737521
vn -0.5459045 -0.81885666 -0.17737521
vn -0.33738735 -0.8188568 -0.46437418
vn -0.33738735 -0.8188568 -0.46437418
vn -0.33738735 -0.8188568 -0.46437418
vn 1.0625794E-07 -0.81885684 -0.573998
vn 1.0625794E-07 -0.81885684 -0.573998
vn 1.0625794E-07 -0.81885684 -0.573998
vn 0.33738747 -0.8188568 -0.464374
vn 0.33738747 -0.8188568 -0.464374
vn 0.33738747 -0.8188568 -0.464374
vn 0.5459045 -0.8188567 -0.17737512
vn 0.5459045 -0.8188567 -0.17737512
vn 0.5459045 -0.8188567 -0.17737512
vn 0.62469524 -0.46852115 0.624695
vn 0.62469524 -0.46852115 0.624695
vn 0.62469524 -0.46852115 0.624695
vn 0.6246952 -0.46852112 0.6246952
vn 0.6246952 -0.46852112 0.6246952
vn 0.6246952 -0.46852112 0.6246952
vn 0.6246952 -0.46852112 0.6246952
vn 0.6246952 -0.46852112 0.6246952
vn 0.6246952 -0.46852112 0.6246952
vn 0.62469524 -0.46852115 0.624695
vn 0.62469524 -0.46852115 0.624695
vn 0.62469524 -0.46852115 0.624695
vn 0.6246952 -0.46852112 0.6246952
vn 0.6246952 -0.46852112 0.6246952
vn 0.6246952 -0.46852112 0.6246952
vn 0.6246952 -0.46852112 0.6246952
vn 0.6246952 -0.46852112 0.6246952
vn 0.6246952 -0.46852112 0.6246952
vn 0.99146014 -0.11664237 0.058321185
vn 0.99146014 -0.11664237 0.058321185
vn 0.99146014 -0.11664237 0.058321185
f 1//1 2//2 3//3
f 4//4 5//5 6//6
f 7//7 8//8 9//9
f 10//10 11//11 12//12
f 13//13 14//14 15//15
f 16//16 17//17 18//18
f 19//19 20//20 21//21
f 22//22 23//23 24//24
f 25//25 26//26 27//27
f 28//28 29//29 30//30
f 31//31 32//32 33//33
f 34//34 35//35 36//36
f 37//37 38//38 39//39
f 40//40 41//41 42//42
f 43//43 44//44 45//45
f 46//46 47//47 48//48
f 49//49 50//50 51//51
f 52//52 53//53 54//54
f 55//55 56//56 57//57
f 58//58 59//59 60//60
f 61//61 62//62 63//63
f 64//64 65//65 66//66
f 67//67 68//68 69//69
f 70//70 71//71 72//72
f 73//73 74//74 75//75
f 76//76 77//77 78//78
f 79//79 80//80 81//81
f 82//82 83//83 84//84
f 85//85 86//86 87//87
