# Exported from SharpOpenGl procedural mesh
o cryo_cruiser_mk2_26
# vertices 84
v 0 1.8337592 1.0187956
v 1.2510996 0 0
v 1.3506974 0 0.6885031
v 1.2510996 0 0
v 1.3506974 0 0.6885031
v 0 0 -2.546989
v 0 1.8337592 1.0187956
v 1.3506974 0 0.6885031
v 0.48177937 0 1.1584114
v 1.3506974 0 0.6885031
v 0.48177937 0 1.1584114
v 0 0 -2.546989
v 0 1.8337592 1.0187956
v 0.48177937 0 1.1584114
v -0.1309525 0 1.2605321
v 0.48177937 0 1.1584114
v -0.1309525 0 1.2605321
v 0 0 -2.546989
v 0 1.8337592 1.0187956
v -0.1309525 0 1.2605321
v -0.9349605 0 0.96244276
v -0.1309525 0 1.2605321
v -0.9349605 0 0.96244276
v 0 0 -2.546989
v 0 1.8337592 1.0187956
v -0.9349605 0 0.96244276
v -1.4742844 0 0.35878465
v -0.9349605 0 0.96244276
v -1.4742844 0 0.35878465
v 0 0 -2.546989
v 0 1.8337592 1.0187956
v -1.4742844 0 0.35878465
v -0.9603798 0 -0.35878485
v -1.4742844 0 0.35878465
v -0.9603798 0 -0.35878485
v 0 0 -2.546989
v 0 1.8337592 1.0187956
v -0.9603798 0 -0.35878485
v -0.6745996 0 -0.9624432
v -0.9603798 0 -0.35878485
v -0.6745996 0 -0.9624432
v 0 0 -2.546989
v 0 1.8337592 1.0187956
v -0.6745996 0 -0.9624432
v -0.22175637 0 -1.2605323
v -0.6745996 0 -0.9624432
v -0.22175637 0 -1.2605323
v 0 0 -2.546989
v 0 1.8337592 1.0187956
v -0.22175637 0 -1.2605323
v 0.57863885 0 -1.1584113
v -0.22175637 0 -1.2605323
v 0.57863885 0 -1.1584113
v 0 0 -2.546989
v 0 1.8337592 1.0187956
v 0.57863885 0 -1.1584113
v 0.76338834 0 -0.68850267
v 0.57863885 0 -1.1584113
v 0.76338834 0 -0.68850267
v 0 0 -2.546989
v 0 1.8337592 1.0187956
v 0.76338834 0 -0.68850267
v 1.1978391 0 8.2991437E-07
v 0.76338834 0 -0.68850267
v 1.1978391 0 8.2991437E-07
v 0 0 -2.546989
v -1.2510996 0.099122114 -3.1582663
v -1.8301799 0 -4.4322433
v -0.67201924 0 -4.4322433
v -1.2510996 0.4088787 -2.8687263
v -1.5985478 0.099122114 -3.1582663
v -0.90365136 0.099122114 -3.1582663
v 0 0.099122114 -3.1582663
v -0.57908034 0 -4.4322433
v 0.57908034 0 -4.4322433
v 0 0.4088787 -2.8687263
v -0.34744823 0.099122114 -3.1582663
v 0.34744823 0.099122114 -3.1582663
v 1.2510996 0.099122114 -3.1582663
v 0.67201924 0 -4.4322433
v 1.8301799 0 -4.4322433
v 1.2510996 0.4088787 -2.8687263
v 0.90365136 0.099122114 -3.1582663
v 1.5985478 0.099122114 -3.1582663
vn -0.78994554 -0.60243493 0.11427232
vn -0.78994554 -0.60243493 0.11427232
vn -0.78994554 -0.60243493 0.11427232
vn -0 -1 0
vn -0 -1 0
vn -0 -1 0
vn -0.46716335 -0.18850659 -0.86384237
vn -0.46716335 -0.18850659 -0.86384237
vn -0.46716335 -0.18850659 -0.86384237
vn -0 -1 0
vn -0 -1 0
vn -0 -1 0
vn -0.16325882 -0.11747312 -0.97956455
vn -0.16325882 -0.11747312 -0.97956455
vn -0.16325882 -0.11747312 -0.97956455
vn -0 -1 0
vn -0 -1 0
vn -0 -1 0
vn 0.34386367 -0.14682043 -0.9274705
vn 0.34386367 -0.14682043 -0.9274705
vn 0.34386367 -0.14682043 -0.9274705
vn 0 -1 -0
vn 0 -1 -0
vn 0 -1 -0
vn 0.70170265 -0.33850437 -0.6269195
vn 0.70170265 -0.33850437 -0.6269195
vn 0.70170265 -0.33850437 -0.6269195
vn 0 -1 -0
vn 0 -1 -0
vn 0 -1 -0
vn 0.61543566 -0.65342987 0.44075906
vn 0.61543566 -0.65342987 0.44075906
vn 0.61543566 -0.65342987 0.44075906
vn 0 0.99999994 0
vn 0 0.99999994 0
vn 0 0.99999994 0
vn 0.70756596 -0.62220937 0.33497152
vn 0.70756596 -0.62220937 0.33497152
vn 0.70756596 -0.62220937 0.33497152
vn 0 1 0
vn 0 1 0
vn 0 1 0
vn 0.36898735 -0.7413728 0.5605485
vn 0.36898735 -0.7413728 0.5605485
vn 0.36898735 -0.7413728 0.5605485
vn 0 1 0
vn 0 1 0
vn 0 1 0
vn -0.08032258 -0.77280027 0.6295459
vn -0.08032258 -0.77280027 0.6295459
vn -0.08032258 -0.77280027 0.6295459
vn -0 1 0
vn -0 1 0
vn -0 1 0
vn -0.75236106 -0.58860517 0.29579863
vn -0.75236106 -0.58860517 0.29579863
vn -0.75236106 -0.58860517 0.29579863
vn -0 -1 0
vn -0 -1 0
vn -0 -1 0
vn -0.6447239 -0.64716625 0.40682545
vn -0.6447239 -0.64716625 0.40682545
vn -0.6447239 -0.64716625 0.40682545
vn -0 1 0
vn -0 1 0
vn -0 1 0
vn 0 -0.9969868 0.077570826
vn 0 -0.9969868 0.077570826
vn 0 -0.9969868 0.077570826
vn 0 -0.68286496 0.7305446
vn 0 -0.68286496 0.7305446
vn 0 -0.68286496 0.7305446
vn 0 -0.9969868 0.077570826
vn 0 -0.9969868 0.077570826
vn 0 -0.9969868 0.077570826
vn 0 -0.68286496 0.7305446
vn 0 -0.68286496 0.7305446
vn 0 -0.68286496 0.7305446
vn 0 -0.9969868 0.077570826
vn 0 -0.9969868 0.077570826
vn 0 -0.9969868 0.077570826
vn 0 -0.68286496 0.7305446
vn 0 -0.68286496 0.7305446
vn 0 -0.68286496 0.7305446
f 1//1 2//2 3//3
f 4//4 5//5 6//6
f 7//7 8//8 9//9
f 10//10 11//11 12//12
f 13//13 14//14 15//15
f 16//16 17//17 18//18
f 19//19 20//20 21//21
f 22//22 23//23 24//24
f 25//25 26//26 27//27
f 28//28 29//29 30//30
f 31//31 32//32 33//33
f 34//34 35//35 36//36
f 37//37 38//38 39//39
f 40//40 41//41 42//42
f 43//43 44//44 45//45
f 46//46 47//47 48//48
f 49//49 50//50 51//51
f 52//52 53//53 54//54
f 55//55 56//56 57//57
f 58//58 59//59 60//60
f 61//61 62//62 63//63
f 64//64 65//65 66//66
f 67//67 68//68 69//69
f 70//70 71//71 72//72
f 73//73 74//74 75//75
f 76//76 77//77 78//78
f 79//79 80//80 81//81
f 82//82 83//83 84//84
