# Exported from SharpOpenGl procedural mesh
o cryo_drone_mk3_37
# vertices 78
v 0 0.362591 0.1704381
v 0.2679162 0 0
v 0.28924456 0 0.11518224
v 0.2679162 0 0
v 0.28924456 0 0.11518224
v 0 0 -0.42609525
v 0 0.362591 0.1704381
v 0.28924456 0 0.11518224
v 0.103170455 0 0.19379494
v 0.28924456 0 0.11518224
v 0.103170455 0 0.19379494
v 0 0 -0.42609525
v 0 0.362591 0.1704381
v 0.103170455 0 0.19379494
v -0.028042775 0 0.2108791
v 0.103170455 0 0.19379494
v -0.028042775 0 0.2108791
v 0 0 -0.42609525
v 0 0.362591 0.1704381
v -0.028042775 0 0.2108791
v -0.20021674 0 0.16101062
v -0.028042775 0 0.2108791
v -0.20021674 0 0.16101062
v 0 0 -0.42609525
v 0 0.362591 0.1704381
v -0.20021674 0 0.16101062
v -0.31571007 0 0.060022414
v -0.20021674 0 0.16101062
v -0.31571007 0 0.060022414
v 0 0 -0.42609525
v 0 0.362591 0.1704381
v -0.31571007 0 0.060022414
v -0.20566015 0 -0.06002245
v -0.31571007 0 0.060022414
v -0.20566015 0 -0.06002245
v 0 0 -0.42609525
v 0 0.362591 0.1704381
v -0.20566015 0 -0.06002245
v -0.14446186 0 -0.1610107
v -0.20566015 0 -0.06002245
v -0.14446186 0 -0.1610107
v 0 0 -0.42609525
v 0 0.362591 0.1704381
v -0.14446186 0 -0.1610107
v -0.047487926 0 -0.21087912
v -0.14446186 0 -0.1610107
v -0.047487926 0 -0.21087912
v 0 0 -0.42609525
v 0 0.362591 0.1704381
v -0.047487926 0 -0.21087912
v 0.12391239 0 -0.19379494
v -0.047487926 0 -0.21087912
v 0.12391239 0 -0.19379494
v 0 0 -0.42609525
v 0 0.362591 0.1704381
v 0.12391239 0 -0.19379494
v 0.1634755 0 -0.11518217
v 0.12391239 0 -0.19379494
v 0.1634755 0 -0.11518217
v 0 0 -0.42609525
v 0 0.362591 0.1704381
v 0.1634755 0 -0.11518217
v 0.25651076 0 1.3883945E-07
v 0.1634755 0 -0.11518217
v 0.25651076 0 1.3883945E-07
v 0 0 -0.42609525
v -0.21433298 0.019599512 -0.5283581
v -0.26026148 0 -0.6294008
v -0.16840449 0 -0.6294008
v -0.21433298 0.08084799 -0.50539386
v -0.24189007 0.019599512 -0.5283581
v -0.1867759 0.019599512 -0.5283581
v 0.21433298 0.019599512 -0.5283581
v 0.16840449 0 -0.6294008
v 0.26026148 0 -0.6294008
v 0.21433298 0.08084799 -0.50539386
v 0.1867759 0.019599512 -0.5283581
v 0.24189007 0.019599512 -0.5283581
vn -0.7632797 -0.6304189 0.14133693
vn -0.7632797 -0.6304189 0.14133693
vn -0.7632797 -0.6304189 0.14133693
vn -0 -1 0
vn -0 -1 0
vn -0 -1 0
vn -0.3836649 -0.16766495 -0.9081243
vn -0.3836649 -0.16766495 -0.9081243
vn -0.3836649 -0.16766495 -0.9081243
vn -0 -1 0
vn -0 -1 0
vn -0 -1 0
vn -0.12846316 -0.10010894 -0.98664856
vn -0.12846316 -0.10010894 -0.98664856
vn -0.12846316 -0.10010894 -0.98664856
vn -0 -0.99999994 0
vn -0 -0.99999994 0
vn -0 -0.99999994 0
vn 0.27593154 -0.12759513 -0.9526706
vn 0.27593154 -0.12759513 -0.9526706
vn 0.27593154 -0.12759513 -0.9526706
vn 0 -1 -0
vn 0 -1 -0
vn 0 -1 -0
vn 0.6224708 -0.32520902 -0.71187735
vn 0.6224708 -0.32520902 -0.71187735
vn 0.6224708 -0.32520902 -0.71187735
vn 0 -1 -0
vn 0 -1 -0
vn 0 -1 -0
vn 0.56231153 -0.64658517 0.5154933
vn 0.56231153 -0.64658517 0.5154933
vn 0.56231153 -0.64658517 0.5154933
vn 0 0.99999994 0
vn 0 0.99999994 0
vn 0 0.99999994 0
vn 0.6631068 -0.6315179 0.40183902
vn 0.6631068 -0.6315179 0.40183902
vn 0.6631068 -0.6315179 0.40183902
vn 0 1 0
vn 0 1 0
vn 0 1 0
vn 0.32416305 -0.7053769 0.6303663
vn 0.32416305 -0.7053769 0.6303663
vn 0.32416305 -0.7053769 0.6303663
vn 0 1 0
vn 0 1 0
vn 0 1 0
vn -0.06896911 -0.71864814 0.6919451
vn -0.06896911 -0.71864814 0.6919451
vn -0.06896911 -0.71864814 0.6919451
vn -0 1 0
vn -0 1 0
vn -0 1 0
vn -0.71225876 -0.6034873 0.35845563
vn -0.71225876 -0.6034873 0.35845563
vn -0.71225876 -0.6034873 0.35845563
vn -0 -1 0
vn -0 -1 0
vn -0 -1 0
vn -0.59399474 -0.64573914 0.47978252
vn -0.59399474 -0.64573914 0.47978252
vn -0.59399474 -0.64573914 0.47978252
vn -0 1 0
vn -0 1 0
vn -0 1 0
vn 0 -0.98170215 0.19042331
vn 0 -0.98170215 0.19042331
vn 0 -0.98170215 0.19042331
vn 0 -0.3510706 0.936349
vn 0 -0.3510706 0.936349
vn 0 -0.3510706 0.936349
vn 0 -0.98170215 0.19042331
vn 0 -0.98170215 0.19042331
vn 0 -0.98170215 0.19042331
vn 0 -0.3510706 0.936349
vn 0 -0.3510706 0.936349
vn 0 -0.3510706 0.936349
f 1//1 2//2 3//3
f 4//4 5//5 6//6
f 7//7 8//8 9//9
f 10//10 11//11 12//12
f 13//13 14//14 15//15
f 16//16 17//17 18//18
f 19//19 20//20 21//21
f 22//22 23//23 24//24
f 25//25 26//26 27//27
f 28//28 29//29 30//30
f 31//31 32//32 33//33
f 34//34 35//35 36//36
f 37//37 38//38 39//39
f 40//40 41//41 42//42
f 43//43 44//44 45//45
f 46//46 47//47 48//48
f 49//49 50//50 51//51
f 52//52 53//53 54//54
f 55//55 56//56 57//57
f 58//58 59//59 60//60
f 61//61 62//62 63//63
f 64//64 65//65 66//66
f 67//67 68//68 69//69
f 70//70 71//71 72//72
f 73//73 74//74 75//75
f 76//76 77//77 78//78
