# Exported from SharpOpenGl procedural mesh
o cryo_dreadnought_mk1_11
# vertices 78
v 0 3.0996568 1.4971169
v 1.8107327 0 0
v 1.9548819 0 1.0117532
v 1.8107327 0 0
v 1.9548819 0 1.0117532
v 0 0 -3.7427924
v 0 3.0996568 1.4971169
v 1.9548819 0 1.0117532
v 0.6972856 0 1.702282
v 1.9548819 0 1.0117532
v 0.6972856 0 1.702282
v 0 0 -3.7427924
v 0 3.0996568 1.4971169
v 0.6972856 0 1.702282
v -0.18952928 0 1.8523481
v 0.6972856 0 1.702282
v -0.18952928 0 1.8523481
v 0 0 -3.7427924
v 0 3.0996568 1.4971169
v -0.18952928 0 1.8523481
v -1.3531804 0 1.4143066
v -0.18952928 0 1.8523481
v -1.3531804 0 1.4143066
v 0 0 -3.7427924
v 0 3.0996568 1.4971169
v -1.3531804 0 1.4143066
v -2.133751 0 0.5272329
v -1.3531804 0 1.4143066
v -2.133751 0 0.5272329
v 0 0 -3.7427924
v 0 3.0996568 1.4971169
v -2.133751 0 0.5272329
v -1.3899701 0 -0.52723324
v -2.133751 0 0.5272329
v -1.3899701 0 -0.52723324
v 0 0 -3.7427924
v 0 3.0996568 1.4971169
v -1.3899701 0 -0.52723324
v -0.97635674 0 -1.4143072
v -1.3899701 0 -0.52723324
v -0.97635674 0 -1.4143072
v 0 0 -3.7427924
v 0 3.0996568 1.4971169
v -0.97635674 0 -1.4143072
v -0.3209509 0 -1.8523482
v -0.97635674 0 -1.4143072
v -0.3209509 0 -1.8523482
v 0 0 -3.7427924
v 0 3.0996568 1.4971169
v -0.3209509 0 -1.8523482
v 0.83747154 0 -1.7022818
v -0.3209509 0 -1.8523482
v 0.83747154 0 -1.7022818
v 0 0 -3.7427924
v 0 3.0996568 1.4971169
v 0.83747154 0 -1.7022818
v 1.1048619 0 -1.0117525
v 0.83747154 0 -1.7022818
v 1.1048619 0 -1.0117525
v 0 0 -3.7427924
v 0 3.0996568 1.4971169
v 1.1048619 0 -1.0117525
v 1.7336481 0 1.2195566E-06
v 1.1048619 0 -1.0117525
v 1.7336481 0 1.2195566E-06
v 0 0 -3.7427924
v -1.4485861 0.16754901 -4.6410627
v -2.3798199 0 -6.6897774
v -0.5173522 0 -6.6897774
v -1.4485861 0.6911397 -4.1754456
v -2.0073266 0.16754901 -4.6410627
v -0.8898457 0.16754901 -4.6410627
v 1.4485861 0.16754901 -4.6410627
v 0.5173522 0 -6.6897774
v 2.3798199 0 -6.6897774
v 1.4485861 0.6911397 -4.1754456
v 0.8898457 0.16754901 -4.6410627
v 2.0073266 0.16754901 -4.6410627
vn -0.8314042 -0.5428956 0.11845405
vn -0.8314042 -0.5428956 0.11845405
vn -0.8314042 -0.5428956 0.11845405
vn -0 -1 0
vn -0 -1 0
vn -0 -1 0
vn -0.4747839 -0.1640382 -0.8646801
vn -0.4747839 -0.1640382 -0.8646801
vn -0.4747839 -0.1640382 -0.8646801
vn -0 -1 0
vn -0 -1 0
vn -0 -1 0
vn -0.16597265 -0.1022562 -0.9808143
vn -0.16597265 -0.1022562 -0.9808143
vn -0.16597265 -0.1022562 -0.9808143
vn -0 -1 0
vn -0 -1 0
vn -0 -1 0
vn 0.34941605 -0.12774216 -0.92821896
vn 0.34941605 -0.12774216 -0.92821896
vn 0.34941605 -0.12774216 -0.92821896
vn 0 -0.99999994 -0
vn 0 -0.99999994 -0
vn 0 -0.99999994 -0
vn 0.7170529 -0.2961785 -0.63096243
vn 0.7170529 -0.2961785 -0.63096243
vn 0.7170529 -0.2961785 -0.63096243
vn 0 -1 -0
vn 0 -1 -0
vn 0 -1 -0
vn 0.6559693 -0.59633595 0.4626961
vn 0.6559693 -0.59633595 0.4626961
vn 0.6559693 -0.59633595 0.4626961
vn 0 1 0
vn 0 1 0
vn 0 1 0
vn 0.74862283 -0.5636685 0.3490581
vn 0.74862283 -0.5636685 0.3490581
vn 0.74862283 -0.5636685 0.3490581
vn 0 1 0
vn 0 1 0
vn 0 1 0
vn 0.40166557 -0.6910047 0.6009803
vn 0.40166557 -0.6910047 0.6009803
vn 0.40166557 -0.6910047 0.6009803
vn 0 1 0
vn 0 1 0
vn 0 1 0
vn -0.088232264 -0.72685504 0.68109965
vn -0.088232264 -0.72685504 0.68109965
vn -0.088232264 -0.72685504 0.68109965
vn -0 1 0
vn -0 1 0
vn -0 1 0
vn -0.79089916 -0.52979773 0.30625612
vn -0.79089916 -0.52979773 0.30625612
vn -0.79089916 -0.52979773 0.30625612
vn -0 -1 0
vn -0 -1 0
vn -0 -1 0
vn -0.68600464 -0.5896038 0.42633915
vn -0.68600464 -0.5896038 0.42633915
vn -0.68600464 -0.5896038 0.42633915
vn -0 1 0
vn -0 1 0
vn -0 1 0
vn 0 -0.9966725 0.08151037
vn 0 -0.9966725 0.08151037
vn 0 -0.9966725 0.08151037
vn 0 -0.66452587 0.7472653
vn 0 -0.66452587 0.7472653
vn 0 -0.66452587 0.7472653
vn 0 -0.9966725 0.08151037
vn 0 -0.9966725 0.08151037
vn 0 -0.9966725 0.08151037
vn 0 -0.66452587 0.7472653
vn 0 -0.66452587 0.7472653
vn 0 -0.66452587 0.7472653
f 1//1 2//2 3//3
f 4//4 5//5 6//6
f 7//7 8//8 9//9
f 10//10 11//11 12//12
f 13//13 14//14 15//15
f 16//16 17//17 18//18
f 19//19 20//20 21//21
f 22//22 23//23 24//24
f 25//25 26//26 27//27
f 28//28 29//29 30//30
f 31//31 32//32 33//33
f 34//34 35//35 36//36
f 37//37 38//38 39//39
f 40//40 41//41 42//42
f 43//43 44//44 45//45
f 46//46 47//47 48//48
f 49//49 50//50 51//51
f 52//52 53//53 54//54
f 55//55 56//56 57//57
f 58//58 59//59 60//60
f 61//61 62//62 63//63
f 64//64 65//65 66//66
f 67//67 68//68 69//69
f 70//70 71//71 72//72
f 73//73 74//74 75//75
f 76//76 77//77 78//78
