# Exported from SharpOpenGl procedural mesh
o cryo_scout_eclipse_61
# vertices 90
v 0 0.39001277 0.39713368
v 0.29997587 0 0
v 0.32385644 0 0.26838335
v 0.29997587 0 0
v 0.32385644 0 0.26838335
v 0 0 -0.9928342
v 0 0.39001277 0.39713368
v 0.32385644 0 0.26838335
v 0.11551615 0 0.4515569
v 0.32385644 0 0.26838335
v 0.11551615 0 0.4515569
v 0 0 -0.9928342
v 0 0.39001277 0.39713368
v 0.11551615 0 0.4515569
v -0.031398457 0 0.4913643
v 0.11551615 0 0.4515569
v -0.031398457 0 0.4913643
v 0 0 -0.9928342
v 0 0.39001277 0.39713368
v -0.031398457 0 0.4913643
v -0.22417529 0 0.37516695
v -0.031398457 0 0.4913643
v -0.22417529 0 0.37516695
v 0 0 -0.9928342
v 0 0.39001277 0.39713368
v -0.22417529 0 0.37516695
v -0.3534889 0 0.13985677
v -0.22417529 0 0.37516695
v -0.3534889 0 0.13985677
v 0 0 -0.9928342
v 0 0.39001277 0.39713368
v -0.3534889 0 0.13985677
v -0.23027004 0 -0.13985686
v -0.3534889 0 0.13985677
v -0.23027004 0 -0.13985686
v 0 0 -0.9928342
v 0 0.39001277 0.39713368
v -0.23027004 0 -0.13985686
v -0.1617486 0 -0.3751671
v -0.23027004 0 -0.13985686
v -0.1617486 0 -0.3751671
v 0 0 -0.9928342
v 0 0.39001277 0.39713368
v -0.1617486 0 -0.3751671
v -0.053170476 0 -0.49136433
v -0.1617486 0 -0.3751671
v -0.053170476 0 -0.49136433
v 0 0 -0.9928342
v 0 0.39001277 0.39713368
v -0.053170476 0 -0.49136433
v 0.1387401 0 -0.45155686
v -0.053170476 0 -0.49136433
v 0.1387401 0 -0.45155686
v 0 0 -0.9928342
v 0 0.39001277 0.39713368
v 0.1387401 0 -0.45155686
v 0.18303746 0 -0.26838318
v 0.1387401 0 -0.45155686
v 0.18303746 0 -0.26838318
v 0 0 -0.9928342
v 0 0.39001277 0.39713368
v 0.18303746 0 -0.26838318
v 0.28720564 0 3.2350647E-07
v 0.18303746 0 -0.26838318
v 0.28720564 0 3.2350647E-07
v 0 0 -0.9928342
v -0.35997105 0.021081772 -1.2311144
v -0.43196526 0 -1.3895017
v -0.28797683 0 -1.3895017
v -0.35997105 0.08696231 -1.1951172
v -0.40316758 0.021081772 -1.2311144
v -0.31677452 0.021081772 -1.2311144
v -0.119990356 0.021081772 -1.2311144
v -0.19198456 0 -1.3895017
v -0.04799615 0 -1.3895017
v -0.119990356 0.08696231 -1.1951172
v -0.16318688 0.021081772 -1.2311144
v -0.076793835 0.021081772 -1.2311144
v 0.119990356 0.021081772 -1.2311144
v 0.04799615 0 -1.3895017
v 0.19198456 0 -1.3895017
v 0.119990356 0.08696231 -1.1951172
v 0.076793835 0.021081772 -1.2311144
v 0.16318688 0.021081772 -1.2311144
v 0.35997105 0.021081772 -1.2311144
v 0.28797683 0 -1.3895017
v 0.43196526 0 -1.3895017
v 0.35997105 0.08696231 -1.1951172
v 0.31677452 0.021081772 -1.2311144
v 0.40316758 0.021081772 -1.2311144
vn -0.75655967 -0.6504505 0.067318164
vn -0.75655967 -0.6504505 0.067318164
vn -0.75655967 -0.6504505 0.067318164
vn -0 -0.99999994 0
vn -0 -0.99999994 0
vn -0 -0.99999994 0
vn -0.6323801 -0.2876696 -0.7192646
vn -0.6323801 -0.2876696 -0.7192646
vn -0.6323801 -0.2876696 -0.7192646
vn -0 -1 0
vn -0 -1 0
vn -0 -1 0
vn -0.25583225 -0.20752718 -0.9441834
vn -0.25583225 -0.20752718 -0.9441834
vn -0.25583225 -0.20752718 -0.9441834
vn -0 -1 0
vn -0 -1 0
vn -0 -1 0
vn 0.5009948 -0.24115232 -0.8311738
vn 0.5009948 -0.24115232 -0.8311738
vn 0.5009948 -0.24115232 -0.8311738
vn 0 -1 -0
vn 0 -1 -0
vn 0 -1 -0
vn 0.79112357 -0.43024266 -0.4347583
vn 0.79112357 -0.43024266 -0.4347583
vn 0.79112357 -0.43024266 -0.4347583
vn 0 -1 -0
vn 0 -1 -0
vn 0 -1 -0
vn 0.61700964 -0.7385268 0.2718038
vn 0.61700964 -0.7385268 0.2718038
vn 0.61700964 -0.7385268 0.2718038
vn 0 1 0
vn 0 1 0
vn 0 1 0
vn 0.69545597 -0.6894412 0.20251413
vn 0.69545597 -0.6894412 0.20251413
vn 0.69545597 -0.6894412 0.20251413
vn 0 1 0
vn 0 1 0
vn 0 1 0
vn 0.3778638 -0.85589045 0.35308695
vn 0.3778638 -0.85589045 0.35308695
vn 0.3778638 -0.85589045 0.35308695
vn 0 1 0
vn 0 1 0
vn 0 1 0
vn -0.08395158 -0.91057545 0.40472773
vn -0.08395158 -0.91057545 0.40472773
vn -0.08395158 -0.91057545 0.40472773
vn -0 1 0
vn -0 1 0
vn -0 1 0
vn -0.73793983 -0.6508437 0.17845786
vn -0.73793983 -0.6508437 0.17845786
vn -0.73793983 -0.6508437 0.17845786
vn -0 -0.99999994 0
vn -0 -0.99999994 0
vn -0 -0.99999994 0
vn -0.64134103 -0.7257534 0.24892485
vn -0.64134103 -0.7257534 0.24892485
vn -0.64134103 -0.7257534 0.24892485
vn -0 1 0
vn -0 1 0
vn -0 1 0
vn 0 -0.9912578 0.13193905
vn 0 -0.9912578 0.13193905
vn 0 -0.9912578 0.13193905
vn 0 -0.4794917 0.8775464
vn 0 -0.4794917 0.8775464
vn 0 -0.4794917 0.8775464
vn 0 -0.9912578 0.13193905
vn 0 -0.9912578 0.13193905
vn 0 -0.9912578 0.13193905
vn 0 -0.47949168 0.87754637
vn 0 -0.47949168 0.87754637
vn 0 -0.47949168 0.87754637
vn 0 -0.9912578 0.13193905
vn 0 -0.9912578 0.13193905
vn 0 -0.9912578 0.13193905
vn 0 -0.47949168 0.87754637
vn 0 -0.47949168 0.87754637
vn 0 -0.47949168 0.87754637
vn 0 -0.9912578 0.13193905
vn 0 -0.9912578 0.13193905
vn 0 -0.9912578 0.13193905
vn 0 -0.4794917 0.8775464
vn 0 -0.4794917 0.8775464
vn 0 -0.4794917 0.8775464
f 1//1 2//2 3//3
f 4//4 5//5 6//6
f 7//7 8//8 9//9
f 10//10 11//11 12//12
f 13//13 14//14 15//15
f 16//16 17//17 18//18
f 19//19 20//20 21//21
f 22//22 23//23 24//24
f 25//25 26//26 27//27
f 28//28 29//29 30//30
f 31//31 32//32 33//33
f 34//34 35//35 36//36
f 37//37 38//38 39//39
f 40//40 41//41 42//42
f 43//43 44//44 45//45
f 46//46 47//47 48//48
f 49//49 50//50 51//51
f 52//52 53//53 54//54
f 55//55 56//56 57//57
f 58//58 59//59 60//60
f 61//61 62//62 63//63
f 64//64 65//65 66//66
f 67//67 68//68 69//69
f 70//70 71//71 72//72
f 73//73 74//74 75//75
f 76//76 77//77 78//78
f 79//79 80//80 81//81
f 82//82 83//83 84//84
f 85//85 86//86 87//87
f 88//88 89//89 90//90
