# Exported from SharpOpenGl procedural mesh
o cryo_carrier_mk2_27
# vertices 78
v 0 2.3315964 1.0215819
v 1.7263199 0 0
v 1.8637491 0 0.69038606
v 1.7263199 0 0
v 1.8637491 0 0.69038606
v 0 0 -2.5539546
v 0 2.3315964 1.0215819
v 1.8637491 0 0.69038606
v 0.6647795 0 1.1615795
v 1.8637491 0 0.69038606
v 0.6647795 0 1.1615795
v 0 0 -2.5539546
v 0 2.3315964 1.0215819
v 0.6647795 0 1.1615795
v -0.18069379 0 1.2639796
v 0.6647795 0 1.1615795
v -0.18069379 0 1.2639796
v 0 0 -2.5539546
v 0 2.3315964 1.0215819
v -0.18069379 0 1.2639796
v -1.290098 0 0.9650749
v -0.18069379 0 1.2639796
v -1.290098 0 0.9650749
v 0 0 -2.5539546
v 0 2.3315964 1.0215819
v -1.290098 0 0.9650749
v -2.0342798 0 0.35976586
v -1.290098 0 0.9650749
v -2.0342798 0 0.35976586
v 0 0 -2.5539546
v 0 2.3315964 1.0215819
v -2.0342798 0 0.35976586
v -1.3251724 0 -0.3597661
v -2.0342798 0 0.35976586
v -1.3251724 0 -0.3597661
v 0 0 -2.5539546
v 0 2.3315964 1.0215819
v -1.3251724 0 -0.3597661
v -0.9308409 0 -0.9650753
v -1.3251724 0 -0.3597661
v -0.9308409 0 -0.9650753
v 0 0 -2.5539546
v 0 2.3315964 1.0215819
v -0.9308409 0 -0.9650753
v -0.30598876 0 -1.2639796
v -0.9308409 0 -0.9650753
v -0.30598876 0 -1.2639796
v 0 0 -2.5539546
v 0 2.3315964 1.0215819
v -0.30598876 0 -1.2639796
v 0.79843026 0 -1.1615794
v -0.30598876 0 -1.2639796
v 0.79843026 0 -1.1615794
v 0 0 -2.5539546
v 0 2.3315964 1.0215819
v 0.79843026 0 -1.1615794
v 1.0533553 0 -0.69038564
v 0.79843026 0 -1.1615794
v 1.0533553 0 -0.69038564
v 0 0 -2.5539546
v 0 2.3315964 1.0215819
v 1.0533553 0 -0.69038564
v 1.6528288 0 8.3218407E-07
v 1.0533553 0 -0.69038564
v 1.6528288 0 8.3218407E-07
v 0 0 -2.5539546
v -1.381056 0.12603223 -3.1669037
v -2.2096896 0 -4.9898977
v -0.5524224 0 -4.9898977
v -1.381056 0.519883 -2.7525868
v -1.878236 0.12603223 -3.1669037
v -0.88387585 0.12603223 -3.1669037
v 1.381056 0.12603223 -3.1669037
v 0.5524224 0 -4.9898977
v 2.2096896 0 -4.9898977
v 1.381056 0.519883 -2.7525868
v 0.88387585 0.12603223 -3.1669037
v 1.878236 0.12603223 -3.1669037
vn -0.76147926 -0.63021606 0.1515813
vn -0.76147926 -0.63021606 0.1515813
vn -0.76147926 -0.63021606 0.1515813
vn -0 -1 0
vn -0 -1 0
vn -0 -1 0
vn -0.36116308 -0.15815373 -0.9189933
vn -0.36116308 -0.15815373 -0.9189933
vn -0.36116308 -0.15815373 -0.9189933
vn -0 -1 0
vn -0 -1 0
vn -0 -1 0
vn -0.11971051 -0.09347865 -0.98839825
vn -0.11971051 -0.09347865 -0.98839825
vn -0.11971051 -0.09347865 -0.98839825
vn -0 -1 0
vn -0 -1 0
vn -0 -1 0
vn 0.25828138 -0.11967726 -0.95862824
vn 0.25828138 -0.11967726 -0.95862824
vn 0.25828138 -0.11967726 -0.95862824
vn 0 -1 -0
vn 0 -1 -0
vn 0 -1 -0
vn 0.59916204 -0.3136706 -0.73662454
vn 0.59916204 -0.3136706 -0.73662454
vn 0.59916204 -0.3136706 -0.73662454
vn 0 -0.99999994 -0
vn 0 -0.99999994 -0
vn 0 -0.99999994 -0
vn 0.5505787 -0.63438666 0.5426018
vn 0.5505787 -0.63438666 0.5426018
vn 0.5505787 -0.63438666 0.5426018
vn 0 1 0
vn 0 1 0
vn 0 1 0
vn 0.6544066 -0.62450475 0.42631635
vn 0.6544066 -0.62450475 0.42631635
vn 0.6544066 -0.62450475 0.42631635
vn 0 1 0
vn 0 1 0
vn 0 1 0
vn 0.31427932 -0.6852658 0.65699273
vn 0.31427932 -0.6852658 0.65699273
vn 0.31427932 -0.6852658 0.65699273
vn 0 1 0
vn 0 1 0
vn 0 1 0
vn -0.066469006 -0.69401157 0.7168889
vn -0.066469006 -0.69401157 0.7168889
vn -0.066469006 -0.69401157 0.7168889
vn -0 0.99999994 0
vn -0 0.99999994 0
vn -0 0.99999994 0
vn -0.70472693 -0.5983246 0.381271
vn -0.70472693 -0.5983246 0.381271
vn -0.70472693 -0.5983246 0.381271
vn -0 -1 0
vn -0 -1 0
vn -0 -1 0
vn -0.58315057 -0.63524485 0.5063589
vn -0.58315057 -0.63524485 0.5063589
vn -0.58315057 -0.63524485 0.5063589
vn -0 0.99999994 0
vn -0 0.99999994 0
vn -0 0.99999994 0
vn 0 -0.99761873 0.06897012
vn 0 -0.99761873 0.06897012
vn 0 -0.99761873 0.06897012
vn 0 -0.7247813 0.688979
vn 0 -0.7247813 0.688979
vn 0 -0.7247813 0.688979
vn 0 -0.99761873 0.06897012
vn 0 -0.99761873 0.06897012
vn 0 -0.99761873 0.06897012
vn 0 -0.7247813 0.688979
vn 0 -0.7247813 0.688979
vn 0 -0.7247813 0.688979
f 1//1 2//2 3//3
f 4//4 5//5 6//6
f 7//7 8//8 9//9
f 10//10 11//11 12//12
f 13//13 14//14 15//15
f 16//16 17//17 18//18
f 19//19 20//20 21//21
f 22//22 23//23 24//24
f 25//25 26//26 27//27
f 28//28 29//29 30//30
f 31//31 32//32 33//33
f 34//34 35//35 36//36
f 37//37 38//38 39//39
f 40//40 41//41 42//42
f 43//43 44//44 45//45
f 46//46 47//47 48//48
f 49//49 50//50 51//51
f 52//52 53//53 54//54
f 55//55 56//56 57//57
f 58//58 59//59 60//60
f 61//61 62//62 63//63
f 64//64 65//65 66//66
f 67//67 68//68 69//69
f 70//70 71//71 72//72
f 73//73 74//74 75//75
f 76//76 77//77 78//78
