# Exported from SharpOpenGl procedural mesh
o cryo_cruiser_mk1_09
# vertices 78
v 0 1.7707562 1.0075724
v 1.1531186 0 0
v 1.2449164 0 0.68091846
v 1.1531186 0 0
v 1.2449164 0 0.68091846
v 0 0 -2.518931
v 0 1.7707562 1.0075724
v 1.2449164 0 0.68091846
v 0.44404843 0 1.1456501
v 1.2449164 0 0.68091846
v 0.44404843 0 1.1456501
v 0 0 -2.518931
v 0 1.7707562 1.0075724
v 0.44404843 0 1.1456501
v -0.12069686 0 1.2466459
v 0.44404843 0 1.1456501
v -0.12069686 0 1.2466459
v 0 0 -2.518931
v 0 1.7707562 1.0075724
v -0.12069686 0 1.2466459
v -0.8617383 0 0.95184034
v -0.12069686 0 1.2466459
v -0.8617383 0 0.95184034
v 0 0 -2.518931
v 0 1.7707562 1.0075724
v -0.8617383 0 0.95184034
v -1.3588246 0 0.3548322
v -0.8617383 0 0.95184034
v -1.3588246 0 0.3548322
v 0 0 -2.518931
v 0 1.7707562 1.0075724
v -1.3588246 0 0.3548322
v -0.8851668 0 -0.35483244
v -1.3588246 0 0.3548322
v -0.8851668 0 -0.35483244
v 0 0 -2.518931
v 0 1.7707562 1.0075724
v -0.8851668 0 -0.35483244
v -0.62176776 0 -0.9518407
v -0.8851668 0 -0.35483244
v -0.62176776 0 -0.9518407
v 0 0 -2.518931
v 0 1.7707562 1.0075724
v -0.62176776 0 -0.9518407
v -0.20438933 0 -1.2466459
v -0.62176776 0 -0.9518407
v -0.20438933 0 -1.2466459
v 0 0 -2.518931
v 0 1.7707562 1.0075724
v -0.20438933 0 -1.2466459
v 0.5333223 0 -1.14565
v -0.20438933 0 -1.2466459
v 0.5333223 0 -1.14565
v 0 0 -2.518931
v 0 1.7707562 1.0075724
v 0.5333223 0 -1.14565
v 0.70360297 0 -0.680918
v 0.5333223 0 -1.14565
v 0.70360297 0 -0.680918
v 0 0 -2.518931
v 0 1.7707562 1.0075724
v 0.70360297 0 -0.680918
v 1.1040293 0 8.207719E-07
v 0.70360297 0 -0.680918
v 1.1040293 0 8.207719E-07
v 0 0 -2.518931
v -0.92249495 0.09571655 -3.1234744
v -1.4562242 0 -4.2976785
v -0.38876575 0 -4.2976785
v -0.92249495 0.39483076 -2.8566098
v -1.2427325 0.09571655 -3.1234744
v -0.60225743 0.09571655 -3.1234744
v 0.92249495 0.09571655 -3.1234744
v 0.38876575 0 -4.2976785
v 1.4562242 0 -4.2976785
v 0.92249495 0.39483076 -2.8566098
v 0.60225743 0.09571655 -3.1234744
v 1.2427325 0.09571655 -3.1234744
vn -0.80373013 -0.58504456 0.108354524
vn -0.80373013 -0.58504456 0.108354524
vn -0.80373013 -0.58504456 0.108354524
vn -0 -1 0
vn -0 -1 0
vn -0 -1 0
vn -0.49278018 -0.18979146 -0.84920365
vn -0.49278018 -0.18979146 -0.84920365
vn -0.49278018 -0.18979146 -0.84920365
vn -0 -0.99999994 0
vn -0 -0.99999994 0
vn -0 -0.99999994 0
vn -0.17476858 -0.12003029 -0.9772659
vn -0.17476858 -0.12003029 -0.9772659
vn -0.17476858 -0.12003029 -0.9772659
vn -0 -1 0
vn -0 -1 0
vn -0 -1 0
vn 0.36552432 -0.1489643 -0.91880447
vn 0.36552432 -0.1489643 -0.91880447
vn 0.36552432 -0.1489643 -0.91880447
vn 0 -1 -0
vn 0 -1 -0
vn 0 -1 -0
vn 0.7244704 -0.33357808 -0.60321504
vn 0.7244704 -0.33357808 -0.60321504
vn 0.7244704 -0.33357808 -0.60321504
vn 0 -1 -0
vn 0 -1 -0
vn 0 -1 -0
vn 0.6359682 -0.6444918 0.42447
vn 0.6359682 -0.6444918 0.42447
vn 0.6359682 -0.6444918 0.42447
vn 0 1 0
vn 0 1 0
vn 0 1 0
vn 0.72564065 -0.6090555 0.32015145
vn 0.72564065 -0.6090555 0.32015145
vn 0.72564065 -0.6090555 0.32015145
vn 0 0.99999994 0
vn 0 0.99999994 0
vn 0 0.99999994 0
vn 0.38684878 -0.74187744 0.5476915
vn 0.38684878 -0.74187744 0.5476915
vn 0.38684878 -0.74187744 0.5476915
vn 0 1 0
vn 0 1 0
vn 0 1 0
vn -0.08491481 -0.7797939 0.6202507
vn -0.08491481 -0.7797939 0.6202507
vn -0.08491481 -0.7797939 0.6202507
vn -0 1 0
vn -0 1 0
vn -0 1 0
vn -0.7688082 -0.5740918 0.28169596
vn -0.7688082 -0.5740918 0.28169596
vn -0.7688082 -0.5740918 0.28169596
vn -0 -1 0
vn -0 -1 0
vn -0 -1 0
vn -0.6646365 -0.6367838 0.39085126
vn -0.6646365 -0.6367838 0.39085126
vn -0.6646365 -0.6367838 0.39085126
vn -0 1 0
vn -0 1 0
vn -0 1 0
vn 0 -0.996694 0.081246614
vn 0 -0.996694 0.081246614
vn 0 -0.996694 0.081246614
vn 0 -0.6657357 0.7461876
vn 0 -0.6657357 0.7461876
vn 0 -0.6657357 0.7461876
vn 0 -0.996694 0.081246614
vn 0 -0.996694 0.081246614
vn 0 -0.996694 0.081246614
vn 0 -0.6657357 0.7461876
vn 0 -0.6657357 0.7461876
vn 0 -0.6657357 0.7461876
f 1//1 2//2 3//3
f 4//4 5//5 6//6
f 7//7 8//8 9//9
f 10//10 11//11 12//12
f 13//13 14//14 15//15
f 16//16 17//17 18//18
f 19//19 20//20 21//21
f 22//22 23//23 24//24
f 25//25 26//26 27//27
f 28//28 29//29 30//30
f 31//31 32//32 33//33
f 34//34 35//35 36//36
f 37//37 38//38 39//39
f 40//40 41//41 42//42
f 43//43 44//44 45//45
f 46//46 47//47 48//48
f 49//49 50//50 51//51
f 52//52 53//53 54//54
f 55//55 56//56 57//57
f 58//58 59//59 60//60
f 61//61 62//62 63//63
f 64//64 65//65 66//66
f 67//67 68//68 69//69
f 70//70 71//71 72//72
f 73//73 74//74 75//75
f 76//76 77//77 78//78
