# Exported from SharpOpenGl procedural mesh
o cryo_gunship_mk1_06
# vertices 78
v 0 1.5656725 0.5684883
v 1.0541347 0 0
v 1.1380525 0 0.38418496
v 1.0541347 0 0
v 1.1380525 0 0.38418496
v 0 0 -1.4212207
v 0 1.5656725 0.5684883
v 1.1380525 0 0.38418496
v 0.4059312 0 0.6463939
v 1.1380525 0 0.38418496
v 0.4059312 0 0.6463939
v 0 0 -1.4212207
v 0 1.5656725 0.5684883
v 0.4059312 0 0.6463939
v -0.110336214 0 0.7033773
v 0.4059312 0 0.6463939
v -0.110336214 0 0.7033773
v 0 0 -1.4212207
v 0 1.5656725 0.5684883
v -0.110336214 0 0.7033773
v -0.7877665 0 0.5370434
v -0.110336214 0 0.7033773
v -0.7877665 0 0.5370434
v 0 0 -1.4212207
v 0 1.5656725 0.5684883
v -0.7877665 0 0.5370434
v -1.2421829 0 0.20020194
v -0.7877665 0 0.5370434
v -1.2421829 0 0.20020194
v 0 0 -1.4212207
v 0 1.5656725 0.5684883
v -1.2421829 0 0.20020194
v -0.8091839 0 -0.20020206
v -1.2421829 0 0.20020194
v -0.8091839 0 -0.20020206
v 0 0 -1.4212207
v 0 1.5656725 0.5684883
v -0.8091839 0 -0.20020206
v -0.5683951 0 -0.5370436
v -0.8091839 0 -0.20020206
v -0.5683951 0 -0.5370436
v 0 0 -1.4212207
v 0 1.5656725 0.5684883
v -0.5683951 0 -0.5370436
v -0.1868445 0 -0.70337737
v -0.5683951 0 -0.5370436
v -0.1868445 0 -0.70337737
v 0 0 -1.4212207
v 0 1.5656725 0.5684883
v -0.1868445 0 -0.70337737
v 0.48754176 0 -0.6463939
v -0.1868445 0 -0.70337737
v 0.48754176 0 -0.6463939
v 0 0 -1.4212207
v 0 1.5656725 0.5684883
v 0.48754176 0 -0.6463939
v 0.6432055 0 -0.38418472
v 0.48754176 0 -0.6463939
v 0.6432055 0 -0.38418472
v 0 0 -1.4212207
v 0 1.5656725 0.5684883
v 0.6432055 0 -0.38418472
v 1.0092592 0 4.6309248E-07
v 0.6432055 0 -0.38418472
v 1.0092592 0 4.6309248E-07
v 0 0 -1.4212207
v -0.84330773 0.084630944 -1.7623136
v -1.258938 0 -2.6767
v -0.4276775 0 -2.6767
v -0.84330773 0.34910265 -1.5544984
v -1.0926859 0.084630944 -1.7623136
v -0.5939296 0.084630944 -1.7623136
v 0.84330773 0.084630944 -1.7623136
v 0.4276775 0 -2.6767
v 1.258938 0 -2.6767
v 0.84330773 0.34910265 -1.5544984
v 0.5939296 0.084630944 -1.7623136
v 1.0926859 0.084630944 -1.7623136
vn -0.7871078 -0.59236974 0.17192844
vn -0.7871078 -0.59236974 0.17192844
vn -0.7871078 -0.59236974 0.17192844
vn -0 -1 0
vn -0 -1 0
vn -0 -1 0
vn -0.3341782 -0.13307036 -0.93306875
vn -0.3341782 -0.13307036 -0.93306875
vn -0.3341782 -0.13307036 -0.93306875
vn -0 -1 0
vn -0 -1 0
vn -0 -1 0
vn -0.109378114 -0.077667214 -0.9909613
vn -0.109378114 -0.077667214 -0.9909613
vn -0.109378114 -0.077667214 -0.9909613
vn -0 -1 0
vn -0 -1 0
vn -0 -1 0
vn 0.23725922 -0.09996983 -0.96628875
vn 0.23725922 -0.09996983 -0.96628875
vn 0.23725922 -0.09996983 -0.96628875
vn 0 -0.99999994 -0
vn 0 -0.99999994 -0
vn 0 -0.99999994 -0
vn 0.5729209 -0.27274168 -0.7728995
vn 0.5729209 -0.27274168 -0.7728995
vn 0.5729209 -0.27274168 -0.7728995
vn 0 -0.99999994 -0
vn 0 -0.99999994 -0
vn 0 -0.99999994 -0
vn 0.5532348 -0.5796576 0.598271
vn 0.5532348 -0.5796576 0.598271
vn 0.5532348 -0.5796576 0.598271
vn 0 1 0
vn 0 1 0
vn 0 1 0
vn 0.6645932 -0.57672805 0.47507972
vn 0.6645932 -0.57672805 0.47507972
vn 0.6645932 -0.57672805 0.47507972
vn 0 1 0
vn 0 1 0
vn 0 1 0
vn 0.31321543 -0.62103254 0.7184808
vn 0.31321543 -0.62103254 0.7184808
vn 0.31321543 -0.62103254 0.7184808
vn 0 1 0
vn 0 1 0
vn 0 1 0
vn -0.06576545 -0.62441504 0.7783192
vn -0.06576545 -0.62441504 0.7783192
vn -0.06576545 -0.62441504 0.7783192
vn -0 1 0
vn -0 1 0
vn -0 1 0
vn -0.71639216 -0.553088 0.42529517
vn -0.71639216 -0.553088 0.42529517
vn -0.71639216 -0.553088 0.42529517
vn -0 -1 0
vn -0 -1 0
vn -0 -1 0
vn -0.5883291 -0.5827846 0.56056315
vn -0.5883291 -0.5827846 0.56056315
vn -0.5883291 -0.5827846 0.56056315
vn -0 1 0
vn -0 1 0
vn -0 1 0
vn 0 -0.99574417 0.09216099
vn 0 -0.99574417 0.09216099
vn 0 -0.99574417 0.09216099
vn 0 -0.6178509 0.7862952
vn 0 -0.6178509 0.7862952
vn 0 -0.6178509 0.7862952
vn 0 -0.99574417 0.09216099
vn 0 -0.99574417 0.09216099
vn 0 -0.99574417 0.09216099
vn 0 -0.6178509 0.7862952
vn 0 -0.6178509 0.7862952
vn 0 -0.6178509 0.7862952
f 1//1 2//2 3//3
f 4//4 5//5 6//6
f 7//7 8//8 9//9
f 10//10 11//11 12//12
f 13//13 14//14 15//15
f 16//16 17//17 18//18
f 19//19 20//20 21//21
f 22//22 23//23 24//24
f 25//25 26//26 27//27
f 28//28 29//29 30//30
f 31//31 32//32 33//33
f 34//34 35//35 36//36
f 37//37 38//38 39//39
f 40//40 41//41 42//42
f 43//43 44//44 45//45
f 46//46 47//47 48//48
f 49//49 50//50 51//51
f 52//52 53//53 54//54
f 55//55 56//56 57//57
f 58//58 59//59 60//60
f 61//61 62//62 63//63
f 64//64 65//65 66//66
f 67//67 68//68 69//69
f 70//70 71//71 72//72
f 73//73 74//74 75//75
f 76//76 77//77 78//78
