# Exported from SharpOpenGl procedural mesh
o cryo_drone_mk2_20
# vertices 78
v 0 0.3172581 0.14367041
v 0.23476553 0 0
v 0.2534548 0 0.097092606
v 0.23476553 0 0
v 0.2534548 0 0.097092606
v 0 0 -0.359176
v 0 0.3172581 0.14367041
v 0.2534548 0 0.097092606
v 0.09040464 0 0.163359
v 0.2534548 0 0.097092606
v 0.09040464 0 0.163359
v 0 0 -0.359176
v 0 0.3172581 0.14367041
v 0.09040464 0 0.163359
v -0.024572892 0 0.17776005
v 0.09040464 0 0.163359
v -0.024572892 0 0.17776005
v 0 0 -0.359176
v 0 0.3172581 0.14367041
v -0.024572892 0 0.17776005
v -0.17544287 0 0.13572353
v -0.024572892 0 0.17776005
v -0.17544287 0 0.13572353
v 0 0 -0.359176
v 0 0.3172581 0.14367041
v -0.17544287 0 0.13572353
v -0.27664557 0 0.050595757
v -0.17544287 0 0.13572353
v -0.27664557 0 0.050595757
v 0 0 -0.359176
v 0 0.3172581 0.14367041
v -0.27664557 0 0.050595757
v -0.18021272 0 -0.050595786
v -0.27664557 0 0.050595757
v -0.18021272 0 -0.050595786
v 0 0 -0.359176
v 0 0.3172581 0.14367041
v -0.18021272 0 -0.050595786
v -0.12658682 0 -0.13572359
v -0.18021272 0 -0.050595786
v -0.12658682 0 -0.13572359
v 0 0 -0.359176
v 0 0.3172581 0.14367041
v -0.12658682 0 -0.13572359
v -0.041611996 0 -0.17776006
v -0.12658682 0 -0.13572359
v -0.041611996 0 -0.17776006
v 0 0 -0.359176
v 0 0.3172581 0.14367041
v -0.041611996 0 -0.17776006
v 0.10858006 0 -0.16335899
v -0.041611996 0 -0.17776006
v 0.10858006 0 -0.16335899
v 0 0 -0.359176
v 0 0.3172581 0.14367041
v 0.10858006 0 -0.16335899
v 0.14324781 0 -0.09709255
v 0.10858006 0 -0.16335899
v 0.14324781 0 -0.09709255
v 0 0 -0.359176
v 0 0.3172581 0.14367041
v 0.14324781 0 -0.09709255
v 0.22477135 0 1.170344E-07
v 0.14324781 0 -0.09709255
v 0.22477135 0 1.170344E-07
v 0 0 -0.359176
v -0.18781243 0.017149085 -0.44537824
v -0.22805795 0 -0.5339184
v -0.14756691 0 -0.5339184
v -0.18781243 0.07073998 -0.42525548
v -0.21195975 0.017149085 -0.44537824
v -0.16366512 0.017149085 -0.44537824
v 0.18781243 0.017149085 -0.44537824
v 0.14756691 0 -0.5339184
v 0.22805795 0 -0.5339184
v 0.18781243 0.07073998 -0.42525548
v 0.16366512 0.017149085 -0.44537824
v 0.21195975 0.017149085 -0.44537824
vn -0.76221997 -0.63047147 0.14671902
vn -0.76221997 -0.63047147 0.14671902
vn -0.76221997 -0.63047147 0.14671902
vn -0 -1 0
vn -0 -1 0
vn -0 -1 0
vn -0.37150016 -0.16258812 -0.9140857
vn -0.37150016 -0.16258812 -0.9140857
vn -0.37150016 -0.16258812 -0.9140857
vn -0 -1 0
vn -0 -1 0
vn -0 -1 0
vn -0.123699464 -0.09653876 -0.9876126
vn -0.123699464 -0.09653876 -0.9876126
vn -0.123699464 -0.09653876 -0.9876126
vn -0 -1 0
vn -0 -1 0
vn -0 -1 0
vn 0.26635396 -0.123347804 -0.95595026
vn 0.26635396 -0.123347804 -0.95595026
vn 0.26635396 -0.123347804 -0.95595026
vn 0 -1 -0
vn 0 -1 -0
vn 0 -1 -0
vn 0.6100418 -0.3191853 -0.72523785
vn 0.6100418 -0.3191853 -0.72523785
vn 0.6100418 -0.3191853 -0.72523785
vn 0 -1 -0
vn 0 -1 -0
vn 0 -1 -0
vn 0.55604833 -0.64032567 0.52989924
vn 0.55604833 -0.64032567 0.52989924
vn 0.55604833 -0.64032567 0.52989924
vn 0 1 0
vn 0 1 0
vn 0 1 0
vn 0.65845054 -0.6280077 0.41478825
vn 0.65845054 -0.6280077 0.41478825
vn 0.65845054 -0.6280077 0.41478825
vn 0 1 0
vn 0 1 0
vn 0 1 0
vn 0.31886622 -0.6948736 0.6445735
vn 0.31886622 -0.6948736 0.6445735
vn 0.31886622 -0.6948736 0.6445735
vn 0 0.99999994 0
vn 0 0.99999994 0
vn 0 0.99999994 0
vn -0.06762589 -0.70569086 0.70528525
vn -0.06762589 -0.70569086 0.70528525
vn -0.06762589 -0.70569086 0.70528525
vn -0 1 0
vn -0 1 0
vn -0 1 0
vn -0.70822215 -0.6009515 0.3705114
vn -0.70822215 -0.6009515 0.3705114
vn -0.70822215 -0.6009515 0.3705114
vn -0 -1 0
vn -0 -1 0
vn -0 -1 0
vn -0.5882041 -0.64038664 0.49388364
vn -0.5882041 -0.64038664 0.49388364
vn -0.5882041 -0.64038664 0.49388364
vn -0 0.99999994 0
vn -0 0.99999994 0
vn -0 0.99999994 0
vn 0 -0.98175436 0.19015318
vn 0 -0.98175436 0.19015318
vn 0 -0.98175436 0.19015318
vn 0 -0.35152438 0.93617874
vn 0 -0.35152438 0.93617874
vn 0 -0.35152438 0.93617874
vn 0 -0.98175436 0.19015318
vn 0 -0.98175436 0.19015318
vn 0 -0.98175436 0.19015318
vn 0 -0.35152438 0.93617874
vn 0 -0.35152438 0.93617874
vn 0 -0.35152438 0.93617874
f 1//1 2//2 3//3
f 4//4 5//5 6//6
f 7//7 8//8 9//9
f 10//10 11//11 12//12
f 13//13 14//14 15//15
f 16//16 17//17 18//18
f 19//19 20//20 21//21
f 22//22 23//23 24//24
f 25//25 26//26 27//27
f 28//28 29//29 30//30
f 31//31 32//32 33//33
f 34//34 35//35 36//36
f 37//37 38//38 39//39
f 40//40 41//41 42//42
f 43//43 44//44 45//45
f 46//46 47//47 48//48
f 49//49 50//50 51//51
f 52//52 53//53 54//54
f 55//55 56//56 57//57
f 58//58 59//59 60//60
f 61//61 62//62 63//63
f 64//64 65//65 66//66
f 67//67 68//68 69//69
f 70//70 71//71 72//72
f 73//73 74//74 75//75
f 76//76 77//77 78//78
