# Exported from SharpOpenGl procedural mesh
o cryo_freighter_bulwark_58
# vertices 99
v 0 2.5100043 1.4835505
v 2.6466234 0 0
v 2.8573163 0 1.002585
v 2.6466234 0 0
v 2.8573163 0 1.002585
v 0 0 -3.7088764
v 0 2.5100043 1.4835505
v 2.8573163 0 1.002585
v 1.0191743 0 1.6868564
v 2.8573163 0 1.002585
v 1.0191743 0 1.6868564
v 0 0 -3.7088764
v 0 2.5100043 1.4835505
v 1.0191743 0 1.6868564
v -0.27702188 0 1.8355627
v 1.0191743 0 1.6868564
v -0.27702188 0 1.8355627
v 0 0 -3.7088764
v 0 2.5100043 1.4835505
v -0.27702188 0 1.8355627
v -1.9778507 0 1.4014907
v -0.27702188 0 1.8355627
v -1.9778507 0 1.4014907
v 0 0 -3.7088764
v 0 2.5100043 1.4835505
v -1.9778507 0 1.4014907
v -3.118757 0 0.5224553
v -1.9778507 0 1.4014907
v -3.118757 0 0.5224553
v 0 0 -3.7088764
v 0 2.5100043 1.4835505
v -3.118757 0 0.5224553
v -2.0316236 0 -0.52245563
v -3.118757 0 0.5224553
v -2.0316236 0 -0.52245563
v 0 0 -3.7088764
v 0 2.5100043 1.4835505
v -2.0316236 0 -0.52245563
v -1.4270735 0 -1.4014912
v -2.0316236 0 -0.52245563
v -1.4270735 0 -1.4014912
v 0 0 -3.7088764
v 0 2.5100043 1.4835505
v -1.4270735 0 -1.4014912
v -0.4691118 0 -1.8355628
v -1.4270735 0 -1.4014912
v -0.4691118 0 -1.8355628
v 0 0 -3.7088764
v 0 2.5100043 1.4835505
v -0.4691118 0 -1.8355628
v 1.2240745 0 -1.6868563
v -0.4691118 0 -1.8355628
v 1.2240745 0 -1.6868563
v 0 0 -3.7088764
v 0 2.5100043 1.4835505
v 1.2240745 0 -1.6868563
v 1.6149006 0 -1.0025843
v 1.2240745 0 -1.6868563
v 1.6149006 0 -1.0025843
v 0 0 -3.7088764
v 0 2.5100043 1.4835505
v 1.6149006 0 -1.0025843
v 2.5339541 0 1.2085054E-06
v 1.6149006 0 -1.0025843
v 2.5339541 0 1.2085054E-06
v 0 0 -3.7088764
v -3.175948 0.1356759 -4.5990067
v -4.3555856 0 -7.1942096
v -1.9963102 0 -7.1942096
v -3.175948 0.5596631 -4.0091877
v -3.8837304 0.1356759 -4.5990067
v -2.4681654 0.1356759 -4.5990067
v -1.0586493 0.1356759 -4.5990067
v -2.238287 0 -7.1942096
v 0.12098837 0 -7.1942096
v -1.0586493 0.5596631 -4.0091877
v -1.7664319 0.1356759 -4.5990067
v -0.35086668 0.1356759 -4.5990067
v 1.0586493 0.1356759 -4.5990067
v -0.12098837 0 -7.1942096
v 2.238287 0 -7.1942096
v 1.0586493 0.5596631 -4.0091877
v 0.35086668 0.1356759 -4.5990067
v 1.7664319 0.1356759 -4.5990067
v 3.175948 0.1356759 -4.5990067
v 1.9963102 0 -7.1942096
v 4.3555856 0 -7.1942096
v 3.175948 0.5596631 -4.0091877
v 2.4681654 0.1356759 -4.5990067
v 3.8837304 0.1356759 -4.5990067
v -1.6635917 0.64446056 -0.37088764
v -2.1929164 0.23743284 -0.8245945
v -1.1342671 0.23743284 -0.8245945
v 0 0.64446056 -0.9002123
v -0.52932465 0.23743284 -1.3539191
v 0.52932465 0.23743284 -1.3539191
v 1.6635917 0.64446056 -1.4295369
v 1.1342671 0.23743284 -1.8832438
v 2.1929164 0.23743284 -1.8832438
vn -0.64105797 -0.7555765 0.1347181
vn -0.64105797 -0.7555765 0.1347181
vn -0.64105797 -0.7555765 0.1347181
vn -0 -1 0
vn -0 -1 0
vn -0 -1 0
vn -0.34089825 -0.21259382 -0.91574675
vn -0.34089825 -0.21259382 -0.91574675
vn -0.34089825 -0.21259382 -0.91574675
vn -0 -1 0
vn -0 -1 0
vn -0 -1 0
vn -0.11307285 -0.1257443 -0.9855978
vn -0.11307285 -0.1257443 -0.9855978
vn -0.11307285 -0.1257443 -0.9855978
vn -0 -1 0
vn -0 -1 0
vn -0 -1 0
vn 0.24405779 -0.16105013 -0.9562942
vn 0.24405779 -0.16105013 -0.9562942
vn 0.24405779 -0.16105013 -0.9562942
vn 0 -1 -0
vn 0 -1 -0
vn 0 -1 -0
vn 0.55552006 -0.41417038 -0.7210134
vn 0.55552006 -0.41417038 -0.7210134
vn 0.55552006 -0.41417038 -0.7210134
vn 0 -0.99999994 -0
vn 0 -0.99999994 -0
vn 0 -0.99999994 -0
vn 0.45762733 -0.7509247 0.47611904
vn 0.45762733 -0.7509247 0.47611904
vn 0.45762733 -0.7509247 0.47611904
vn 0 1 0
vn 0 1 0
vn 0 1 0
vn 0.54881907 -0.7458766 0.37744626
vn 0.54881907 -0.7458766 0.37744626
vn 0.54881907 -0.7458766 0.37744626
vn 0 1 0
vn 0 1 0
vn 0 1 0
vn 0.25389445 -0.7883996 0.5603248
vn 0.25389445 -0.7883996 0.5603248
vn 0.25389445 -0.7883996 0.5603248
vn 0 1 0
vn 0 1 0
vn 0 1 0
vn -0.053319424 -0.79283494 0.6070994
vn -0.053319424 -0.79283494 0.6070994
vn -0.053319424 -0.79283494 0.6070994
vn -0 1 0
vn -0 1 0
vn -0 1 0
vn -0.59888107 -0.72411335 0.3420546
vn -0.59888107 -0.72411335 0.3420546
vn -0.59888107 -0.72411335 0.3420546
vn -0 -0.99999994 0
vn -0 -0.99999994 0
vn -0 -0.99999994 0
vn -0.48524255 -0.7527818 0.44481376
vn -0.48524255 -0.7527818 0.44481376
vn -0.48524255 -0.7527818 0.44481376
vn -0 1 0
vn -0 1 0
vn -0 1 0
vn 0 -0.9986363 0.052208204
vn 0 -0.9986363 0.052208204
vn 0 -0.9986363 0.052208204
vn 0 -0.8119796 0.5836858
vn 0 -0.8119796 0.5836858
vn 0 -0.8119796 0.5836858
vn 0 -0.9986363 0.052208204
vn 0 -0.9986363 0.052208204
vn 0 -0.9986363 0.052208204
vn 0 -0.8119796 0.5836859
vn 0 -0.8119796 0.5836859
vn 0 -0.8119796 0.5836859
vn 0 -0.9986363 0.052208204
vn 0 -0.9986363 0.052208204
vn 0 -0.9986363 0.052208204
vn 0 -0.8119796 0.5836859
vn 0 -0.8119796 0.5836859
vn 0 -0.8119796 0.5836859
vn 0 -0.9986363 0.052208204
vn 0 -0.9986363 0.052208204
vn 0 -0.9986363 0.052208204
vn 0 -0.8119796 0.5836858
vn 0 -0.8119796 0.5836858
vn 0 -0.8119796 0.5836858
vn 0 -0.7443606 0.6677779
vn 0 -0.7443606 0.6677779
vn 0 -0.7443606 0.6677779
vn 0 -0.7443606 0.6677779
vn 0 -0.7443606 0.6677779
vn 0 -0.7443606 0.6677779
vn 0 -0.7443606 0.6677779
vn 0 -0.7443606 0.6677779
vn 0 -0.7443606 0.6677779
f 1//1 2//2 3//3
f 4//4 5//5 6//6
f 7//7 8//8 9//9
f 10//10 11//11 12//12
f 13//13 14//14 15//15
f 16//16 17//17 18//18
f 19//19 20//20 21//21
f 22//22 23//23 24//24
f 25//25 26//26 27//27
f 28//28 29//29 30//30
f 31//31 32//32 33//33
f 34//34 35//35 36//36
f 37//37 38//38 39//39
f 40//40 41//41 42//42
f 43//43 44//44 45//45
f 46//46 47//47 48//48
f 49//49 50//50 51//51
f 52//52 53//53 54//54
f 55//55 56//56 57//57
f 58//58 59//59 60//60
f 61//61 62//62 63//63
f 64//64 65//65 66//66
f 67//67 68//68 69//69
f 70//70 71//71 72//72
f 73//73 74//74 75//75
f 76//76 77//77 78//78
f 79//79 80//80 81//81
f 82//82 83//83 84//84
f 85//85 86//86 87//87
f 88//88 89//89 90//90
f 91//91 92//92 93//93
f 94//94 95//95 96//96
f 97//97 98//98 99//99
