# Exported from SharpOpenGl procedural mesh
o cryo_support_mk3_49
# vertices 78
v 0 2.0693064 0.9131837
v 1.3774295 0 0
v 1.4870843 0 0.61713046
v 1.3774295 0 0
v 1.4870843 0 0.61713046
v 0 0 -2.2829592
v 0 2.0693064 0.9131837
v 1.4870843 0 0.61713046
v 0.53042716 0 1.0383264
v 1.4870843 0 0.61713046
v 0.53042716 0 1.0383264
v 0 0 -2.2829592
v 0 2.0693064 0.9131837
v 0.53042716 0 1.0383264
v -0.14417547 0 1.129861
v 0.53042716 0 1.0383264
v -0.14417547 0 1.129861
v 0 0 -2.2829592
v 0 2.0693064 0.9131837
v -0.14417547 0 1.129861
v -1.0293683 0 0.8626726
v -0.14417547 0 1.129861
v -1.0293683 0 0.8626726
v 0 0 -2.2829592
v 0 2.0693064 0.9131837
v -1.0293683 0 0.8626726
v -1.6231506 0 0.32159176
v -1.0293683 0 0.8626726
v -1.6231506 0 0.32159176
v 0 0 -2.2829592
v 0 2.0693064 0.9131837
v -1.6231506 0 0.32159176
v -1.0573543 0 -0.32159197
v -1.6231506 0 0.32159176
v -1.0573543 0 -0.32159197
v 0 0 -2.2829592
v 0 2.0693064 0.9131837
v -1.0573543 0 -0.32159197
v -0.7427174 0 -0.8626729
v -1.0573543 0 -0.32159197
v -0.7427174 0 -0.8626729
v 0 0 -2.2829592
v 0 2.0693064 0.9131837
v -0.7427174 0 -0.8626729
v -0.24414825 0 -1.129861
v -0.7427174 0 -0.8626729
v -0.24414825 0 -1.129861
v 0 0 -2.2829592
v 0 2.0693064 0.9131837
v -0.24414825 0 -1.129861
v 0.63706696 0 -1.0383264
v -0.24414825 0 -1.129861
v 0.63706696 0 -1.0383264
v 0 0 -2.2829592
v 0 2.0693064 0.9131837
v 0.63706696 0 -1.0383264
v 0.8404716 0 -0.6171301
v 0.63706696 0 -1.0383264
v 0.8404716 0 -0.6171301
v 0 0 -2.2829592
v 0 2.0693064 0.9131837
v 0.8404716 0 -0.6171301
v 1.3187912 0 7.4388254E-07
v 0.8404716 0 -0.6171301
v 1.3187912 0 7.4388254E-07
v 0 0 -2.2829592
v -1.1019436 0.1118544 -2.8308694
v -1.5742052 0 -3.869845
v -0.62968206 0 -3.869845
v -1.1019436 0.4613994 -2.5947387
v -1.3853005 0.1118544 -2.8308694
v -0.8185867 0.1118544 -2.8308694
v 1.1019436 0.1118544 -2.8308694
v 0.62968206 0 -3.869845
v 1.5742052 0 -3.869845
v 1.1019436 0.4613994 -2.5947387
v 0.8185867 0.1118544 -2.8308694
v 1.3853005 0.1118544 -2.8308694
vn -0.7942519 -0.5909713 0.14112665
vn -0.7942519 -0.5909713 0.14112665
vn -0.7942519 -0.5909713 0.14112665
vn -0 -1 0
vn -0 -1 0
vn -0 -1 0
vn -0.39797583 -0.15667853 -0.9039176
vn -0.39797583 -0.15667853 -0.9039176
vn -0.39797583 -0.15667853 -0.9039176
vn -0 -0.99999994 0
vn -0 -0.99999994 0
vn -0 -0.99999994 0
vn -0.13385963 -0.09397371 -0.9865346
vn -0.13385963 -0.09397371 -0.9865346
vn -0.13385963 -0.09397371 -0.9865346
vn -0 -1 0
vn -0 -1 0
vn -0 -1 0
vn 0.28689414 -0.11951352 -0.95047796
vn 0.28689414 -0.11951352 -0.95047796
vn 0.28689414 -0.11951352 -0.95047796
vn 0 -1 -0
vn 0 -1 -0
vn 0 -1 -0
vn 0.64205444 -0.3021886 -0.7045907
vn 0.64205444 -0.3021886 -0.7045907
vn 0.64205444 -0.3021886 -0.7045907
vn 0 -1 -0
vn 0 -1 -0
vn 0 -1 -0
vn 0.59267175 -0.6139396 0.52136195
vn 0.59267175 -0.6139396 0.52136195
vn 0.59267175 -0.6139396 0.52136195
vn 0 1 0
vn 0 1 0
vn 0 1 0
vn 0.69433963 -0.5957124 0.40375635
vn 0.69433963 -0.5957124 0.40375635
vn 0.69433963 -0.5957124 0.40375635
vn 0 1 0
vn 0 1 0
vn 0 1 0
vn 0.34659082 -0.6794188 0.6467339
vn 0.34659082 -0.6794188 0.6467339
vn 0.34659082 -0.6794188 0.6467339
vn 0 1 0
vn 0 1 0
vn 0 1 0
vn -0.07416617 -0.69619703 0.7140092
vn -0.07416617 -0.69619703 0.7140092
vn -0.07416617 -0.69619703 0.7140092
vn -0 1 0
vn -0 1 0
vn -0 1 0
vn -0.7420994 -0.5664411 0.3583755
vn -0.7420994 -0.5664411 0.3583755
vn -0.7420994 -0.5664411 0.3583755
vn -0 -1 0
vn -0 -1 0
vn -0 -1 0
vn -0.62501746 -0.6121098 0.48443225
vn -0.62501746 -0.6121098 0.48443225
vn -0.62501746 -0.6121098 0.48443225
vn -0 1 0
vn -0 1 0
vn -0 1 0
vn 0 -0.9942547 0.10703983
vn 0 -0.9942547 0.10703983
vn 0 -0.9942547 0.10703983
vn 0 -0.5597787 0.82864213
vn 0 -0.5597787 0.82864213
vn 0 -0.5597787 0.82864213
vn 0 -0.9942547 0.10703983
vn 0 -0.9942547 0.10703983
vn 0 -0.9942547 0.10703983
vn 0 -0.5597787 0.82864213
vn 0 -0.5597787 0.82864213
vn 0 -0.5597787 0.82864213
f 1//1 2//2 3//3
f 4//4 5//5 6//6
f 7//7 8//8 9//9
f 10//10 11//11 12//12
f 13//13 14//14 15//15
f 16//16 17//17 18//18
f 19//19 20//20 21//21
f 22//22 23//23 24//24
f 25//25 26//26 27//27
f 28//28 29//29 30//30
f 31//31 32//32 33//33
f 34//34 35//35 36//36
f 37//37 38//38 39//39
f 40//40 41//41 42//42
f 43//43 44//44 45//45
f 46//46 47//47 48//48
f 49//49 50//50 51//51
f 52//52 53//53 54//54
f 55//55 56//56 57//57
f 58//58 59//59 60//60
f 61//61 62//62 63//63
f 64//64 65//65 66//66
f 67//67 68//68 69//69
f 70//70 71//71 72//72
f 73//73 74//74 75//75
f 76//76 77//77 78//78
