# Exported from SharpOpenGl procedural mesh
o cryo_dreadnought_prototype_55
# vertices 90
v 0 4.1531973 1.7756923
v 2.6832616 0 0
v 2.8968713 0 1.2000147
v 2.6832616 0 0
v 2.8968713 0 1.2000147
v 0 0 -4.439231
v 0 4.1531973 1.7756923
v 2.8968713 0 1.2000147
v 1.0332832 0 2.0190332
v 2.8968713 0 1.2000147
v 1.0332832 0 2.0190332
v 0 0 -4.439231
v 0 4.1531973 1.7756923
v 1.0332832 0 2.0190332
v -0.28085685 0 2.197023
v 1.0332832 0 2.0190332
v -0.28085685 0 2.197023
v 0 0 -4.439231
v 0 4.1531973 1.7756923
v -0.28085685 0 2.197023
v -2.005231 0 1.6774732
v -0.28085685 0 2.197023
v -2.005231 0 1.6774732
v 0 0 -4.439231
v 0 4.1531973 1.7756923
v -2.005231 0 1.6774732
v -3.1619313 0 0.62533754
v -2.005231 0 1.6774732
v -3.1619313 0 0.62533754
v 0 0 -4.439231
v 0 4.1531973 1.7756923
v -3.1619313 0 0.62533754
v -2.0597484 0 -0.62533796
v -3.1619313 0 0.62533754
v -2.0597484 0 -0.62533796
v 0 0 -4.439231
v 0 4.1531973 1.7756923
v -2.0597484 0 -0.62533796
v -1.4468291 0 -1.6774739
v -2.0597484 0 -0.62533796
v -1.4468291 0 -1.6774739
v 0 0 -4.439231
v 0 4.1531973 1.7756923
v -1.4468291 0 -1.6774739
v -0.47560593 0 -2.1970232
v -1.4468291 0 -1.6774739
v -0.47560593 0 -2.1970232
v 0 0 -4.439231
v 0 4.1531973 1.7756923
v -0.47560593 0 -2.1970232
v 1.24102 0 -2.0190332
v -0.47560593 0 -2.1970232
v 1.24102 0 -2.0190332
v 0 0 -4.439231
v 0 4.1531973 1.7756923
v 1.24102 0 -2.0190332
v 1.6372563 0 -1.200014
v 1.24102 0 -2.0190332
v 1.6372563 0 -1.200014
v 0 0 -4.439231
v 0 4.1531973 1.7756923
v 1.6372563 0 -1.200014
v 2.5690327 0 1.446485E-06
v 1.6372563 0 -1.200014
v 2.5690327 0 1.446485E-06
v 0 0 -4.439231
v -3.219914 0.22449714 -5.5046463
v -4.5998774 0 -8.5405655
v -1.8399508 0 -8.5405655
v -3.219914 0.9260507 -4.814665
v -4.047892 0.22449714 -5.5046463
v -2.391936 0.22449714 -5.5046463
v -1.0733047 0.22449714 -5.5046463
v -2.4532678 0 -8.5405655
v 0.3066585 0 -8.5405655
v -1.0733047 0.9260507 -4.814665
v -1.9012825 0.22449714 -5.5046463
v -0.2453267 0.22449714 -5.5046463
v 1.0733047 0.22449714 -5.5046463
v -0.3066585 0 -8.5405655
v 2.4532678 0 -8.5405655
v 1.0733047 0.9260507 -4.814665
v 0.2453267 0.22449714 -5.5046463
v 1.9012825 0.22449714 -5.5046463
v 3.219914 0.22449714 -5.5046463
v 1.8399508 0 -8.5405655
v 4.5998774 0 -8.5405655
v 3.219914 0.9260507 -4.814665
v 2.391936 0.22449714 -5.5046463
v 4.047892 0.22449714 -5.5046463
vn -0.8023847 -0.5794641 0.14282934
vn -0.8023847 -0.5794641 0.14282934
vn -0.8023847 -0.5794641 0.14282934
vn -0 -1 0
vn -0 -1 0
vn -0 -1 0
vn -0.39767113 -0.15195419 -0.90485775
vn -0.39767113 -0.15195419 -0.90485775
vn -0.39767113 -0.15195419 -0.90485775
vn -0 -0.99999994 0
vn -0 -0.99999994 0
vn -0 -0.99999994 0
vn -0.13365872 -0.091073036 -0.9868338
vn -0.13365872 -0.091073036 -0.9868338
vn -0.13365872 -0.091073036 -0.9868338
vn -0 -1 0
vn -0 -1 0
vn -0 -1 0
vn 0.28654483 -0.11585738 -0.95103586
vn 0.28654483 -0.11585738 -0.95103586
vn 0.28654483 -0.11585738 -0.95103586
vn 0 -0.99999994 -0
vn 0 -0.99999994 -0
vn 0 -0.99999994 -0
vn 0.64317995 -0.29381543 -0.7071012
vn 0.64317995 -0.29381543 -0.7071012
vn 0.64317995 -0.29381543 -0.7071012
vn 0 -1 -0
vn 0 -1 -0
vn 0 -1 -0
vn 0.59895223 -0.6021982 0.52783865
vn 0.59895223 -0.6021982 0.52783865
vn 0.59895223 -0.6021982 0.52783865
vn 0 1 0
vn 0 1 0
vn 0 1 0
vn 0.7013807 -0.58405584 0.40858772
vn 0.7013807 -0.58405584 0.40858772
vn 0.7013807 -0.58405584 0.40858772
vn 0 1 0
vn 0 1 0
vn 0 1 0
vn 0.35104966 -0.6679201 0.65623695
vn 0.35104966 -0.6679201 0.65623695
vn 0.35104966 -0.6679201 0.65623695
vn 0 1 0
vn 0 1 0
vn 0 1 0
vn -0.07515944 -0.6847679 0.7248751
vn -0.07515944 -0.6847679 0.7248751
vn -0.07515944 -0.6847679 0.7248751
vn -0 1 0
vn -0 1 0
vn -0 1 0
vn -0.7489196 -0.55483484 0.36232254
vn -0.7489196 -0.55483484 0.36232254
vn -0.7489196 -0.55483484 0.36232254
vn -0 -0.99999994 0
vn -0 -0.99999994 0
vn -0 -0.99999994 0
vn -0.63164204 -0.60040474 0.49045143
vn -0.63164204 -0.60040474 0.49045143
vn -0.63164204 -0.60040474 0.49045143
vn -0 1 0
vn -0 1 0
vn -0 1 0
vn 0 -0.9972771 0.07374566
vn 0 -0.9972771 0.07374566
vn 0 -0.9972771 0.07374566
vn 0 -0.7012021 0.71296245
vn 0 -0.7012021 0.71296245
vn 0 -0.7012021 0.71296245
vn 0 -0.9972771 0.07374566
vn 0 -0.9972771 0.07374566
vn 0 -0.9972771 0.07374566
vn 0 -0.70120215 0.71296245
vn 0 -0.70120215 0.71296245
vn 0 -0.70120215 0.71296245
vn 0 -0.9972771 0.07374566
vn 0 -0.9972771 0.07374566
vn 0 -0.9972771 0.07374566
vn 0 -0.70120215 0.71296245
vn 0 -0.70120215 0.71296245
vn 0 -0.70120215 0.71296245
vn 0 -0.9972771 0.07374566
vn 0 -0.9972771 0.07374566
vn 0 -0.9972771 0.07374566
vn 0 -0.7012021 0.71296245
vn 0 -0.7012021 0.71296245
vn 0 -0.7012021 0.71296245
f 1//1 2//2 3//3
f 4//4 5//5 6//6
f 7//7 8//8 9//9
f 10//10 11//11 12//12
f 13//13 14//14 15//15
f 16//16 17//17 18//18
f 19//19 20//20 21//21
f 22//22 23//23 24//24
f 25//25 26//26 27//27
f 28//28 29//29 30//30
f 31//31 32//32 33//33
f 34//34 35//35 36//36
f 37//37 38//38 39//39
f 40//40 41//41 42//42
f 43//43 44//44 45//45
f 46//46 47//47 48//48
f 49//49 50//50 51//51
f 52//52 53//53 54//54
f 55//55 56//56 57//57
f 58//58 59//59 60//60
f 61//61 62//62 63//63
f 64//64 65//65 66//66
f 67//67 68//68 69//69
f 70//70 71//71 72//72
f 73//73 74//74 75//75
f 76//76 77//77 78//78
f 79//79 80//80 81//81
f 82//82 83//83 84//84
f 85//85 86//86 87//87
f 88//88 89//89 90//90
