# Exported from SharpOpenGl procedural mesh
o cryo_frigate_mk1_05
# vertices 78
v 0 1.356089 0.83206207
v 0.7406374 0 0
v 0.7995983 0 0.5623084
v 0.7406374 0 0
v 0.7995983 0 0.5623084
v 0 0 -2.0801551
v 0 1.356089 0.83206207
v 0.7995983 0 0.5623084
v 0.2852082 0 0.94608784
v 0.7995983 0 0.5623084
v 0.2852082 0 0.94608784
v 0 0 -2.0801551
v 0 1.356089 0.83206207
v 0.2852082 0 0.94608784
v -0.07752247 0 1.0294911
v 0.2852082 0 0.94608784
v -0.07752247 0 1.0294911
v 0 0 -2.0801551
v 0 1.356089 0.83206207
v -0.07752247 0 1.0294911
v -0.5534865 0 0.78603804
v -0.07752247 0 1.0294911
v -0.5534865 0 0.78603804
v 0 0 -2.0801551
v 0 1.356089 0.83206207
v -0.5534865 0 0.78603804
v -0.8727605 0 0.29302353
v -0.5534865 0 0.78603804
v -0.8727605 0 0.29302353
v 0 0 -2.0801551
v 0 1.356089 0.83206207
v -0.8727605 0 0.29302353
v -0.56853443 0 -0.2930237
v -0.8727605 0 0.29302353
v -0.56853443 0 -0.2930237
v 0 0 -2.0801551
v 0 1.356089 0.83206207
v -0.56853443 0 -0.2930237
v -0.39935565 0 -0.7860384
v -0.56853443 0 -0.2930237
v -0.39935565 0 -0.7860384
v 0 0 -2.0801551
v 0 1.356089 0.83206207
v -0.39935565 0 -0.7860384
v -0.13127738 0 -1.0294912
v -0.39935565 0 -0.7860384
v -0.13127738 0 -1.0294912
v 0 0 -2.0801551
v 0 1.356089 0.83206207
v -0.13127738 0 -1.0294912
v 0.34254795 0 -0.9460878
v -0.13127738 0 -1.0294912
v 0.34254795 0 -0.9460878
v 0 0 -2.0801551
v 0 1.356089 0.83206207
v 0.34254795 0 -0.9460878
v 0.45191768 0 -0.562308
v 0.34254795 0 -0.9460878
v 0.45191768 0 -0.562308
v 0 0 -2.0801551
v 0 1.356089 0.83206207
v 0.45191768 0 -0.562308
v 0.7091078 0 6.778006E-07
v 0.45191768 0 -0.562308
v 0.7091078 0 6.778006E-07
v 0 0 -2.0801551
v -0.59251 0.073302105 -2.5793924
v -0.87183607 0 -3.19391
v -0.31318387 0 -3.19391
v -0.59251 0.3023712 -2.4397295
v -0.76010567 0.073302105 -2.5793924
v -0.4249143 0.073302105 -2.5793924
v 0.59251 0.073302105 -2.5793924
v 0.31318387 0 -3.19391
v 0.87183607 0 -3.19391
v 0.59251 0.3023712 -2.4397295
v 0.4249143 0.073302105 -2.5793924
v 0.76010567 0.073302105 -2.5793924
vn -0.85011876 -0.51899177 0.08913922
vn -0.85011876 -0.51899177 0.08913922
vn -0.85011876 -0.51899177 0.08913922
vn -0 -1 0
vn -0 -1 0
vn -0 -1 0
vn -0.58713746 -0.18965548 -0.7869563
vn -0.58713746 -0.18965548 -0.7869563
vn -0.58713746 -0.18965548 -0.7869563
vn -0 -1 0
vn -0 -1 0
vn -0 -1 0
vn -0.22224073 -0.12801273 -0.9665515
vn -0.22224073 -0.12801273 -0.9665515
vn -0.22224073 -0.12801273 -0.9665515
vn -0 -1 0
vn -0 -1 0
vn -0 -1 0
vn 0.44996393 -0.15379627 -0.8797041
vn 0.44996393 -0.15379627 -0.8797041
vn 0.44996393 -0.15379627 -0.8797041
vn 0 -1 -0
vn 0 -1 -0
vn 0 -1 -0
vn 0.7984665 -0.30834422 -0.5170832
vn 0.7984665 -0.30834422 -0.5170832
vn 0.7984665 -0.30834422 -0.5170832
vn 0 -1 -0
vn 0 -1 -0
vn 0 -1 -0
vn 0.7085493 -0.60221875 0.36781862
vn 0.7085493 -0.60221875 0.36781862
vn 0.7085493 -0.60221875 0.36781862
vn 0 1 0
vn 0 1 0
vn 0 1 0
vn 0.78730667 -0.554219 0.2701656
vn 0.78730667 -0.554219 0.2701656
vn 0.78730667 -0.554219 0.2701656
vn 0 1 0
vn 0 1 0
vn 0 1 0
vn 0.45646033 -0.73416954 0.502632
vn 0.45646033 -0.73416954 0.502632
vn 0.45646033 -0.73416954 0.502632
vn 0 1 0
vn 0 1 0
vn 0 1 0
vn -0.10392189 -0.80039626 0.59039474
vn -0.10392189 -0.80039626 0.59039474
vn -0.10392189 -0.80039626 0.59039474
vn -0 1 0
vn -0 1 0
vn -0 1 0
vn -0.8238241 -0.51594114 0.2347737
vn -0.8238241 -0.51594114 0.2347737
vn -0.8238241 -0.51594114 0.2347737
vn -0 -0.99999994 0
vn -0 -0.99999994 0
vn -0 -0.99999994 0
vn -0.7342463 -0.5899998 0.3358314
vn -0.7342463 -0.5899998 0.3358314
vn -0.7342463 -0.5899998 0.3358314
vn -0 1 0
vn -0 1 0
vn -0 1 0
vn 0 -0.9929607 0.11844432
vn 0 -0.9929607 0.11844432
vn 0 -0.9929607 0.11844432
vn 0 -0.5205713 0.8538182
vn 0 -0.5205713 0.8538182
vn 0 -0.5205713 0.8538182
vn 0 -0.9929607 0.11844432
vn 0 -0.9929607 0.11844432
vn 0 -0.9929607 0.11844432
vn 0 -0.5205713 0.8538182
vn 0 -0.5205713 0.8538182
vn 0 -0.5205713 0.8538182
f 1//1 2//2 3//3
f 4//4 5//5 6//6
f 7//7 8//8 9//9
f 10//10 11//11 12//12
f 13//13 14//14 15//15
f 16//16 17//17 18//18
f 19//19 20//20 21//21
f 22//22 23//23 24//24
f 25//25 26//26 27//27
f 28//28 29//29 30//30
f 31//31 32//32 33//33
f 34//34 35//35 36//36
f 37//37 38//38 39//39
f 40//40 41//41 42//42
f 43//43 44//44 45//45
f 46//46 47//47 48//48
f 49//49 50//50 51//51
f 52//52 53//53 54//54
f 55//55 56//56 57//57
f 58//58 59//59 60//60
f 61//61 62//62 63//63
f 64//64 65//65 66//66
f 67//67 68//68 69//69
f 70//70 71//71 72//72
f 73//73 74//74 75//75
f 76//76 77//77 78//78
