# Exported from SharpOpenGl procedural mesh
o cryo_destroyer_mk3_42
# vertices 84
v 0 1.5840722 1.472814
v 1.1021544 0 0
v 1.1898949 0 0.99532914
v 1.1021544 0 0
v 1.1898949 0 0.99532914
v 0 0 -3.6820347
v 0 1.5840722 1.472814
v 1.1898949 0 0.99532914
v 0.4244229 0 1.6746484
v 1.1898949 0 0.99532914
v 0.4244229 0 1.6746484
v 0 0 -3.6820347
v 0 1.5840722 1.472814
v 0.4244229 0 1.6746484
v -0.11536243 0 1.8222785
v 0.4244229 0 1.6746484
v -0.11536243 0 1.8222785
v 0 0 -3.6820347
v 0 1.5840722 1.472814
v -0.11536243 0 1.8222785
v -0.82365215 0 1.3913479
v -0.11536243 0 1.8222785
v -0.82365215 0 1.3913479
v 0 0 -3.6820347
v 0 1.5840722 1.472814
v -0.82365215 0 1.3913479
v -1.2987688 0 0.5186742
v -0.82365215 0 1.3913479
v -1.2987688 0 0.5186742
v 0 0 -3.6820347
v 0 1.5840722 1.472814
v -1.2987688 0 0.5186742
v -0.84604514 0 -0.51867455
v -1.2987688 0 0.5186742
v -0.84604514 0 -0.51867455
v 0 0 -3.6820347
v 0 1.5840722 1.472814
v -0.84604514 0 -0.51867455
v -0.5942875 0 -1.3913485
v -0.84604514 0 -0.51867455
v -0.5942875 0 -1.3913485
v 0 0 -3.6820347
v 0 1.5840722 1.472814
v -0.5942875 0 -1.3913485
v -0.19535597 0 -1.8222785
v -0.5942875 0 -1.3913485
v -0.19535597 0 -1.8222785
v 0 0 -3.6820347
v 0 1.5840722 1.472814
v -0.19535597 0 -1.8222785
v 0.5097511 0 -1.6746483
v -0.19535597 0 -1.8222785
v 0.5097511 0 -1.6746483
v 0 0 -3.6820347
v 0 1.5840722 1.472814
v 0.5097511 0 -1.6746483
v 0.6725059 0 -0.9953285
v 0.5097511 0 -1.6746483
v 0.6725059 0 -0.9953285
v 0 0 -3.6820347
v 0 1.5840722 1.472814
v 0.6725059 0 -0.9953285
v 1.0552347 0 1.1997593E-06
v 0.6725059 0 -0.9953285
v 1.0552347 0 1.1997593E-06
v 0 0 -3.6820347
v -1.1021544 0.08562552 -4.565723
v -1.5745063 0 -5.604897
v -0.62980247 0 -5.604897
v -1.1021544 0.3532053 -4.329547
v -1.3855655 0.08562552 -4.565723
v -0.8187432 0.08562552 -4.565723
v 0 0.08562552 -4.565723
v -0.47235188 0 -5.604897
v 0.47235188 0 -5.604897
v 0 0.3532053 -4.329547
v -0.28341115 0.08562552 -4.565723
v 0.28341115 0.08562552 -4.565723
v 1.1021544 0.08562552 -4.565723
v 0.62980247 0 -5.604897
v 1.5745063 0 -5.604897
v 1.1021544 0.3532053 -4.329547
v 0.8187432 0.08562552 -4.565723
v 1.3855655 0.08562552 -4.565723
vn -0.78746504 -0.61243796 0.06941681
vn -0.78746504 -0.61243796 0.06941681
vn -0.78746504 -0.61243796 0.06941681
vn -0 -1 0
vn -0 -1 0
vn -0 -1 0
vn -0.64030707 -0.26348987 -0.72151226
vn -0.64030707 -0.26348987 -0.72151226
vn -0.64030707 -0.26348987 -0.72151226
vn -0 -1 0
vn -0 -1 0
vn -0 -1 0
vn -0.25900075 -0.19005562 -0.9469939
vn -0.25900075 -0.19005562 -0.9469939
vn -0.25900075 -0.19005562 -0.9469939
vn -0 -0.99999994 0
vn -0 -0.99999994 0
vn -0 -0.99999994 0
vn 0.50694764 -0.22074008 -0.8332334
vn 0.50694764 -0.22074008 -0.8332334
vn 0.50694764 -0.22074008 -0.8332334
vn 0 -0.99999994 -0
vn 0 -0.99999994 -0
vn 0 -0.99999994 -0
vn 0.8062324 -0.39663342 -0.43894342
vn 0.8062324 -0.39663342 -0.43894342
vn 0.8062324 -0.39663342 -0.43894342
vn 0 -1 -0
vn 0 -1 -0
vn 0 -1 -0
vn 0.65055245 -0.7043954 0.2839165
vn 0.65055245 -0.7043954 0.2839165
vn 0.65055245 -0.7043954 0.2839165
vn 0 1 0
vn 0 1 0
vn 0 1 0
vn 0.7278848 -0.6527549 0.20998743
vn 0.7278848 -0.6527549 0.20998743
vn 0.7278848 -0.6527549 0.20998743
vn 0 0.99999994 0
vn 0 0.99999994 0
vn 0 0.99999994 0
vn 0.40637553 -0.83266574 0.3762003
vn 0.40637553 -0.83266574 0.3762003
vn 0.40637553 -0.83266574 0.3762003
vn 0 1 0
vn 0 1 0
vn 0 1 0
vn -0.091255516 -0.8953799 0.43585235
vn -0.091255516 -0.8953799 0.43585235
vn -0.091255516 -0.8953799 0.43585235
vn -0 1 0
vn -0 1 0
vn -0 1 0
vn -0.76833355 -0.613007 0.18408118
vn -0.76833355 -0.613007 0.18408118
vn -0.76833355 -0.613007 0.18408118
vn -0 -1 0
vn -0 -1 0
vn -0 -1 0
vn -0.6748505 -0.69082433 0.2594966
vn -0.6748505 -0.69082433 0.2594966
vn -0.6748505 -0.69082433 0.2594966
vn -0 1 0
vn -0 1 0
vn -0 1 0
vn 0 -0.99662256 0.082119375
vn 0 -0.99662256 0.082119375
vn 0 -0.99662256 0.082119375
vn 0 -0.66174173 0.7497319
vn 0 -0.66174173 0.7497319
vn 0 -0.66174173 0.7497319
vn 0 -0.9966225 0.08211937
vn 0 -0.9966225 0.08211937
vn 0 -0.9966225 0.08211937
vn 0 -0.66174173 0.7497319
vn 0 -0.66174173 0.7497319
vn 0 -0.66174173 0.7497319
vn 0 -0.99662256 0.082119375
vn 0 -0.99662256 0.082119375
vn 0 -0.99662256 0.082119375
vn 0 -0.66174173 0.7497319
vn 0 -0.66174173 0.7497319
vn 0 -0.66174173 0.7497319
f 1//1 2//2 3//3
f 4//4 5//5 6//6
f 7//7 8//8 9//9
f 10//10 11//11 12//12
f 13//13 14//14 15//15
f 16//16 17//17 18//18
f 19//19 20//20 21//21
f 22//22 23//23 24//24
f 25//25 26//26 27//27
f 28//28 29//29 30//30
f 31//31 32//32 33//33
f 34//34 35//35 36//36
f 37//37 38//38 39//39
f 40//40 41//41 42//42
f 43//43 44//44 45//45
f 46//46 47//47 48//48
f 49//49 50//50 51//51
f 52//52 53//53 54//54
f 55//55 56//56 57//57
f 58//58 59//59 60//60
f 61//61 62//62 63//63
f 64//64 65//65 66//66
f 67//67 68//68 69//69
f 70//70 71//71 72//72
f 73//73 74//74 75//75
f 76//76 77//77 78//78
f 79//79 80//80 81//81
f 82//82 83//83 84//84
