# Exported from SharpOpenGl procedural mesh
o cryo_scout_mk1_00
# vertices 78
v 0 0.35478085 0.356602
v 0.22728188 0 0
v 0.24537538 0 0.24099201
v 0.22728188 0 0
v 0.24537538 0 0.24099201
v 0 0 -0.891505
v 0 0.35478085 0.356602
v 0.24537538 0 0.24099201
v 0.08752279 0 0.40547076
v 0.24537538 0 0.24099201
v 0.08752279 0 0.40547076
v 0 0 -0.891505
v 0 0.35478085 0.356602
v 0.08752279 0 0.40547076
v -0.023789579 0 0.44121537
v 0.08752279 0 0.40547076
v -0.023789579 0 0.44121537
v 0 0 -0.891505
v 0 0.35478085 0.356602
v -0.023789579 0 0.44121537
v -0.16985026 0 0.33687723
v -0.023789579 0 0.44121537
v -0.16985026 0 0.33687723
v 0 0 -0.891505
v 0 0.35478085 0.356602
v -0.16985026 0 0.33687723
v -0.2678269 0 0.12558292
v -0.16985026 0 0.33687723
v -0.2678269 0 0.12558292
v 0 0 -0.891505
v 0 0.35478085 0.356602
v -0.2678269 0 0.12558292
v -0.17446806 0 -0.125583
v -0.2678269 0 0.12558292
v -0.17446806 0 -0.125583
v 0 0 -0.891505
v 0 0.35478085 0.356602
v -0.17446806 0 -0.125583
v -0.122551605 0 -0.33687735
v -0.17446806 0 -0.125583
v -0.122551605 0 -0.33687735
v 0 0 -0.891505
v 0 0.35478085 0.356602
v -0.122551605 0 -0.33687735
v -0.040285528 0 -0.4412154
v -0.122551605 0 -0.33687735
v -0.040285528 0 -0.4412154
v 0 0 -0.891505
v 0 0.35478085 0.356602
v -0.040285528 0 -0.4412154
v 0.10511883 0 -0.40547073
v -0.040285528 0 -0.4412154
v 0.10511883 0 -0.40547073
v 0 0 -0.891505
v 0 0.35478085 0.356602
v 0.10511883 0 -0.40547073
v 0.13868149 0 -0.24099185
v 0.10511883 0 -0.40547073
v 0.13868149 0 -0.24099185
v 0 0 -0.891505
v 0 0.35478085 0.356602
v 0.13868149 0 -0.24099185
v 0.21760628 0 2.9048923E-07
v 0.13868149 0 -0.24099185
v 0.21760628 0 2.9048923E-07
v 0 0 -0.891505
v -0.1818255 0.019177342 -1.1054662
v -0.23637316 0 -1.225471
v -0.12727785 0 -1.225471
v -0.1818255 0.07910654 -1.0781925
v -0.2145541 0.019177342 -1.1054662
v -0.1490969 0.019177342 -1.1054662
v 0.1818255 0.019177342 -1.1054662
v 0.12727785 0 -1.225471
v 0.23637316 0 -1.225471
v 0.1818255 0.07910654 -1.0781925
v 0.1490969 0.019177342 -1.1054662
v 0.2145541 0.019177342 -1.1054662
vn -0.8115282 -0.5811279 0.060928926
vn -0.8115282 -0.5811279 0.060928926
vn -0.8115282 -0.5811279 0.060928926
vn -0 -1 0
vn -0 -1 0
vn -0 -1 0
vn -0.6959549 -0.26369017 -0.6679178
vn -0.6959549 -0.26369017 -0.6679178
vn -0.6959549 -0.26369017 -0.6679178
vn -0 -1 0
vn -0 -1 0
vn -0 -1 0
vn -0.29942098 -0.20230158 -0.9324276
vn -0.29942098 -0.20230158 -0.9324276
vn -0.29942098 -0.20230158 -0.9324276
vn -0 -1 0
vn -0 -1 0
vn -0 -1 0
vn 0.5661028 -0.22696069 -0.7924749
vn 0.5661028 -0.22696069 -0.7924749
vn 0.5661028 -0.22696069 -0.7924749
vn 0 -1 -0
vn 0 -1 -0
vn 0 -1 -0
vn 0.83912396 -0.3800952 -0.3890997
vn 0.83912396 -0.3800952 -0.3890997
vn 0.83912396 -0.3800952 -0.3890997
vn 0 -1 -0
vn 0 -1 -0
vn 0 -1 -0
vn 0.6848572 -0.68276525 0.25456277
vn 0.6848572 -0.68276525 0.25456277
vn 0.6848572 -0.68276525 0.25456277
vn 0 1 0
vn 0 1 0
vn 0 1 0
vn 0.7576279 -0.62557685 0.18615432
vn 0.7576279 -0.62557685 0.18615432
vn 0.7576279 -0.62557685 0.18615432
vn 0 1 0
vn 0 1 0
vn 0 1 0
vn 0.43933517 -0.8288508 0.34639695
vn 0.43933517 -0.8288508 0.34639695
vn 0.43933517 -0.8288508 0.34639695
vn 0 1 0
vn 0 1 0
vn 0 1 0
vn -0.10042135 -0.9072171 0.40850046
vn -0.10042135 -0.9072171 0.40850046
vn -0.10042135 -0.9072171 0.40850046
vn -0 1 0
vn -0 1 0
vn -0 1 0
vn -0.79523516 -0.5841824 0.1622713
vn -0.79523516 -0.5841824 0.1622713
vn -0.79523516 -0.5841824 0.1622713
vn -0 -1 0
vn -0 -1 0
vn -0 -1 0
vn -0.7078811 -0.6672023 0.2318307
vn -0.7078811 -0.6672023 0.2318307
vn -0.7078811 -0.6672023 0.2318307
vn -0 1 0
vn -0 1 0
vn -0 1 0
vn 0 -0.9874707 0.15780258
vn 0 -0.9874707 0.15780258
vn 0 -0.9874707 0.15780258
vn 0 -0.41422117 0.9101763
vn 0 -0.41422117 0.9101763
vn 0 -0.41422117 0.9101763
vn 0 -0.9874707 0.15780258
vn 0 -0.9874707 0.15780258
vn 0 -0.9874707 0.15780258
vn 0 -0.41422117 0.9101763
vn 0 -0.41422117 0.9101763
vn 0 -0.41422117 0.9101763
f 1//1 2//2 3//3
f 4//4 5//5 6//6
f 7//7 8//8 9//9
f 10//10 11//11 12//12
f 13//13 14//14 15//15
f 16//16 17//17 18//18
f 19//19 20//20 21//21
f 22//22 23//23 24//24
f 25//25 26//26 27//27
f 28//28 29//29 30//30
f 31//31 32//32 33//33
f 34//34 35//35 36//36
f 37//37 38//38 39//39
f 40//40 41//41 42//42
f 43//43 44//44 45//45
f 46//46 47//47 48//48
f 49//49 50//50 51//51
f 52//52 53//53 54//54
f 55//55 56//56 57//57
f 58//58 59//59 60//60
f 61//61 62//62 63//63
f 64//64 65//65 66//66
f 67//67 68//68 69//69
f 70//70 71//71 72//72
f 73//73 74//74 75//75
f 76//76 77//77 78//78
