# Exported from SharpOpenGl procedural mesh
o cryo_corvette_mk3_38
# vertices 84
v 0 0.7346033 0.52822304
v 0.5743727 0 0
v 0.6200975 0 0.35697368
v 0.5743727 0 0
v 0.6200975 0 0.35697368
v 0 0 -1.3205576
v 0 0.7346033 0.52822304
v 0.6200975 0 0.35697368
v 0.22118218 0 0.60061073
v 0.6200975 0 0.35697368
v 0.22118218 0 0.60061073
v 0 0 -1.3205576
v 0 0.7346033 0.52822304
v 0.22118218 0 0.60061073
v -0.060119554 0 0.65355814
v 0.22118218 0 0.60061073
v -0.060119554 0 0.65355814
v 0 0 -1.3205576
v 0 0.7346033 0.52822304
v -0.060119554 0 0.65355814
v -0.42923507 0 0.49900535
v -0.060119554 0 0.65355814
v -0.42923507 0 0.49900535
v 0 0 -1.3205576
v 0 0.7346033 0.52822304
v -0.42923507 0 0.49900535
v -0.6768356 0 0.18602192
v -0.42923507 0 0.49900535
v -0.6768356 0 0.18602192
v 0 0 -1.3205576
v 0 0.7346033 0.52822304
v -0.6768356 0 0.18602192
v -0.4409049 0 -0.18602203
v -0.6768356 0 0.18602192
v -0.4409049 0 -0.18602203
v 0 0 -1.3205576
v 0 0.7346033 0.52822304
v -0.4409049 0 -0.18602203
v -0.30970484 0 -0.49900556
v -0.4409049 0 -0.18602203
v -0.30970484 0 -0.49900556
v 0 0 -1.3205576
v 0 0.7346033 0.52822304
v -0.30970484 0 -0.49900556
v -0.10180709 0 -0.65355814
v -0.30970484 0 -0.49900556
v -0.10180709 0 -0.65355814
v 0 0 -1.3205576
v 0 0.7346033 0.52822304
v -0.10180709 0 -0.65355814
v 0.2656498 0 -0.6006107
v -0.10180709 0 -0.65355814
v 0.2656498 0 -0.6006107
v 0 0 -1.3205576
v 0 0.7346033 0.52822304
v 0.2656498 0 -0.6006107
v 0.35046726 0 -0.35697344
v 0.2656498 0 -0.6006107
v 0.35046726 0 -0.35697344
v 0 0 -1.3205576
v 0 0.7346033 0.52822304
v 0.35046726 0 -0.35697344
v 0.54992115 0 4.302923E-07
v 0.35046726 0 -0.35697344
v 0.54992115 0 4.302923E-07
v 0 0 -1.3205576
v -0.5743727 0.039708283 -1.6374915
v -0.7713005 0 -2.0707326
v -0.37744492 0 -2.0707326
v -0.5743727 0.16379668 -1.5390276
v -0.6925294 0.039708283 -1.6374915
v -0.45621604 0.039708283 -1.6374915
v 0 0.039708283 -1.6374915
v -0.19692779 0 -2.0707326
v 0.19692779 0 -2.0707326
v 0 0.16379668 -1.5390276
v -0.11815668 0.039708283 -1.6374915
v 0.11815668 0.039708283 -1.6374915
v 0.5743727 0.039708283 -1.6374915
v 0.37744492 0 -2.0707326
v 0.7713005 0 -2.0707326
v 0.5743727 0.16379668 -1.5390276
v 0.45621604 0.039708283 -1.6374915
v 0.6925294 0.039708283 -1.6374915
vn -0.74947727 -0.6550325 0.09600067
vn -0.74947727 -0.6550325 0.09600067
vn -0.74947727 -0.6550325 0.09600067
vn -0 -1 0
vn -0 -1 0
vn -0 -1 0
vn -0.50671357 -0.23432125 -0.8296595
vn -0.50671357 -0.23432125 -0.8296595
vn -0.50671357 -0.23432125 -0.8296595
vn -0 -1 0
vn -0 -1 0
vn -0 -1 0
vn -0.1828597 -0.15078945 -0.97150654
vn -0.1828597 -0.15078945 -0.97150654
vn -0.1828597 -0.15078945 -0.97150654
vn -0 -1 0
vn -0 -1 0
vn -0 -1 0
vn 0.37950408 -0.1856984 -0.9063624
vn 0.37950408 -0.1856984 -0.9063624
vn 0.37950408 -0.1856984 -0.9063624
vn 0 -1 -0
vn 0 -1 -0
vn 0 -1 -0
vn 0.7195413 -0.39779413 -0.56922764
vn 0.7195413 -0.39779413 -0.56922764
vn 0.7195413 -0.39779413 -0.56922764
vn 0 -0.99999994 -0
vn 0 -0.99999994 -0
vn 0 -0.99999994 -0
vn 0.588983 -0.7166555 0.37350205
vn 0.588983 -0.7166555 0.37350205
vn 0.588983 -0.7166555 0.37350205
vn 0 1 0
vn 0 1 0
vn 0 1 0
vn 0.67553383 -0.680782 0.28317806
vn 0.67553383 -0.680782 0.28317806
vn 0.67553383 -0.680782 0.28317806
vn 0 1 0
vn 0 1 0
vn 0 1 0
vn 0.35111785 -0.8084802 0.47230914
vn 0.35111785 -0.8084802 0.47230914
vn 0.35111785 -0.8084802 0.47230914
vn 0 1 0
vn 0 1 0
vn 0 1 0
vn -0.07653049 -0.84383076 0.5311239
vn -0.07653049 -0.84383076 0.5311239
vn -0.07653049 -0.84383076 0.5311239
vn -0 1 0
vn -0 1 0
vn -0 1 0
vn -0.7207405 -0.64620155 0.25091136
vn -0.7207405 -0.64620155 0.25091136
vn -0.7207405 -0.64620155 0.25091136
vn -0 -1 0
vn -0 -1 0
vn -0 -1 0
vn -0.6159813 -0.7085999 0.3441705
vn -0.6159813 -0.7085999 0.3441705
vn -0.6159813 -0.7085999 0.3441705
vn -0 1 0
vn -0 1 0
vn -0 1 0
vn 0 -0.99582607 0.091271445
vn 0 -0.99582607 0.091271445
vn 0 -0.99582607 0.091271445
vn 0 -0.6215844 0.78334713
vn 0 -0.6215844 0.78334713
vn 0 -0.6215844 0.78334713
vn 0 -0.99582607 0.091271445
vn 0 -0.99582607 0.091271445
vn 0 -0.99582607 0.091271445
vn 0 -0.6215844 0.7833472
vn 0 -0.6215844 0.7833472
vn 0 -0.6215844 0.7833472
vn 0 -0.99582607 0.091271445
vn 0 -0.99582607 0.091271445
vn 0 -0.99582607 0.091271445
vn 0 -0.6215844 0.78334713
vn 0 -0.6215844 0.78334713
vn 0 -0.6215844 0.78334713
f 1//1 2//2 3//3
f 4//4 5//5 6//6
f 7//7 8//8 9//9
f 10//10 11//11 12//12
f 13//13 14//14 15//15
f 16//16 17//17 18//18
f 19//19 20//20 21//21
f 22//22 23//23 24//24
f 25//25 26//26 27//27
f 28//28 29//29 30//30
f 31//31 32//32 33//33
f 34//34 35//35 36//36
f 37//37 38//38 39//39
f 40//40 41//41 42//42
f 43//43 44//44 45//45
f 46//46 47//47 48//48
f 49//49 50//50 51//51
f 52//52 53//53 54//54
f 55//55 56//56 57//57
f 58//58 59//59 60//60
f 61//61 62//62 63//63
f 64//64 65//65 66//66
f 67//67 68//68 69//69
f 70//70 71//71 72//72
f 73//73 74//74 75//75
f 76//76 77//77 78//78
f 79//79 80//80 81//81
f 82//82 83//83 84//84
