# Exported from SharpOpenGl procedural mesh
o cryo_dreadnought_mk2_28
# vertices 78
v 0 4.1973515 1.7742695
v 2.3456717 0 0
v 2.5324063 0 1.1990532
v 2.3456717 0 0
v 2.5324063 0 1.1990532
v 0 0 -4.4356737
v 0 4.1973515 1.7742695
v 2.5324063 0 1.1990532
v 0.90328246 0 2.0174155
v 2.5324063 0 1.1990532
v 0.90328246 0 2.0174155
v 0 0 -4.4356737
v 0 4.1973515 1.7742695
v 0.90328246 0 2.0174155
v -0.2455213 0 2.1952624
v 0.90328246 0 2.0174155
v -0.2455213 0 2.1952624
v 0 0 -4.4356737
v 0 4.1973515 1.7742695
v -0.2455213 0 2.1952624
v -1.7529464 0 1.676129
v -0.2455213 0 2.1952624
v -1.7529464 0 1.676129
v 0 0 -4.4356737
v 0 4.1973515 1.7742695
v -1.7529464 0 1.676129
v -2.7641182 0 0.62483644
v -1.7529464 0 1.676129
v -2.7641182 0 0.62483644
v 0 0 -4.4356737
v 0 4.1973515 1.7742695
v -2.7641182 0 0.62483644
v -1.8006046 0 -0.62483686
v -2.7641182 0 0.62483644
v -1.8006046 0 -0.62483686
v 0 0 -4.4356737
v 0 4.1973515 1.7742695
v -1.8006046 0 -0.62483686
v -1.2647986 0 -1.6761297
v -1.8006046 0 -0.62483686
v -1.2647986 0 -1.6761297
v 0 0 -4.4356737
v 0 4.1973515 1.7742695
v -1.2647986 0 -1.6761297
v -0.41576836 0 -2.1952627
v -1.2647986 0 -1.6761297
v -0.41576836 0 -2.1952627
v 0 0 -4.4356737
v 0 4.1973515 1.7742695
v -0.41576836 0 -2.1952627
v 1.0848831 0 -2.0174153
v -0.41576836 0 -2.1952627
v 1.0848831 0 -2.0174153
v 0 0 -4.4356737
v 0 4.1973515 1.7742695
v 1.0848831 0 -2.0174153
v 1.4312677 0 -1.1990523
v 1.0848831 0 -2.0174153
v 1.4312677 0 -1.1990523
v 0 0 -4.4356737
v 0 4.1973515 1.7742695
v 1.4312677 0 -1.1990523
v 2.2458143 0 1.445326E-06
v 1.4312677 0 -1.1990523
v 2.2458143 0 1.445326E-06
v 0 0 -4.4356737
v -1.8765373 0.22688384 -5.5002356
v -3.082883 0 -8.154196
v -0.6701919 0 -8.154196
v -1.8765373 0.93589586 -4.897063
v -2.6003447 0.22688384 -5.5002356
v -1.15273 0.22688384 -5.5002356
v 1.8765373 0.22688384 -5.5002356
v 0.6701919 0 -8.154196
v 3.082883 0 -8.154196
v 1.8765373 0.93589586 -4.897063
v 1.15273 0.22688384 -5.5002356
v 2.6003447 0.22688384 -5.5002356
vn -0.8408189 -0.52523994 0.13094492
vn -0.8408189 -0.52523994 0.13094492
vn -0.8408189 -0.52523994 0.13094492
vn -0 -1 0
vn -0 -1 0
vn -0 -1 0
vn -0.44402015 -0.14675836 -0.8839163
vn -0.44402015 -0.14675836 -0.8839163
vn -0.44402015 -0.14675836 -0.8839163
vn -0 -1 0
vn -0 -1 0
vn -0 -1 0
vn -0.15236995 -0.08980566 -0.984235
vn -0.15236995 -0.08980566 -0.984235
vn -0.15236995 -0.08980566 -0.984235
vn -0 -0.99999994 0
vn -0 -0.99999994 0
vn -0 -0.99999994 0
vn 0.32352495 -0.11314892 -0.9394301
vn 0.32352495 -0.11314892 -0.9394301
vn 0.32352495 -0.11314892 -0.9394301
vn 0 -1 -0
vn 0 -1 -0
vn 0 -1 -0
vn 0.69316405 -0.27389845 -0.6667107
vn 0.69316405 -0.27389845 -0.6667107
vn 0.69316405 -0.27389845 -0.6667107
vn 0 -1 -0
vn 0 -1 -0
vn 0 -1 -0
vn 0.652217 -0.56721896 0.50286746
vn 0.652217 -0.56721896 0.50286746
vn 0.652217 -0.56721896 0.50286746
vn 0 1 0
vn 0 1 0
vn 0 1 0
vn 0.74982965 -0.5401004 0.38216096
vn 0.74982965 -0.5401004 0.38216096
vn 0.74982965 -0.5401004 0.38216096
vn 0 1 0
vn 0 1 0
vn 0 1 0
vn 0.39580068 -0.6513943 0.64732313
vn 0.39580068 -0.6513943 0.64732313
vn 0.39580068 -0.6513943 0.64732313
vn 0 1 0
vn 0 1 0
vn 0 1 0
vn -0.0862888 -0.68002635 0.7280923
vn -0.0862888 -0.68002635 0.7280923
vn -0.0862888 -0.68002635 0.7280923
vn -0 0.99999994 0
vn -0 0.99999994 0
vn -0 0.99999994 0
vn -0.7930986 -0.50823814 0.33569112
vn -0.7930986 -0.50823814 0.33569112
vn -0.7930986 -0.50823814 0.33569112
vn -0 -1 0
vn -0 -1 0
vn -0 -1 0
vn -0.68398297 -0.5623799 0.46464634
vn -0.68398297 -0.5623799 0.46464634
vn -0.68398297 -0.5623799 0.46464634
vn -0 1 0
vn -0 1 0
vn -0 1 0
vn 0 -0.9963657 0.0851781
vn 0 -0.9963657 0.0851781
vn 0 -0.9963657 0.0851781
vn 0 -0.647968 0.7616675
vn 0 -0.647968 0.7616675
vn 0 -0.647968 0.7616675
vn 0 -0.9963657 0.0851781
vn 0 -0.9963657 0.0851781
vn 0 -0.9963657 0.0851781
vn 0 -0.647968 0.7616675
vn 0 -0.647968 0.7616675
vn 0 -0.647968 0.7616675
f 1//1 2//2 3//3
f 4//4 5//5 6//6
f 7//7 8//8 9//9
f 10//10 11//11 12//12
f 13//13 14//14 15//15
f 16//16 17//17 18//18
f 19//19 20//20 21//21
f 22//22 23//23 24//24
f 25//25 26//26 27//27
f 28//28 29//29 30//30
f 31//31 32//32 33//33
f 34//34 35//35 36//36
f 37//37 38//38 39//39
f 40//40 41//41 42//42
f 43//43 44//44 45//45
f 46//46 47//47 48//48
f 49//49 50//50 51//51
f 52//52 53//53 54//54
f 55//55 56//56 57//57
f 58//58 59//59 60//60
f 61//61 62//62 63//63
f 64//64 65//65 66//66
f 67//67 68//68 69//69
f 70//70 71//71 72//72
f 73//73 74//74 75//75
f 76//76 77//77 78//78
