# Exported from SharpOpenGl procedural mesh
o cryo_drone_mk3_37
# vertices 318
v 0 0.362591 0.18748191
v 0.24495196 0.102897435 0
v 0.30699083 0.102897435 0.07625576
v 0.24495196 0.102897435 0
v 0.30699083 0.102897435 0.07625576
v 0.15921877 0 0
v 0.30699083 0.102897435 0.07625576
v 0.19954403 0 0.049566243
v 0.15921877 0 0
v 0.15921877 0 0
v 0.19954403 0 0.049566243
v 0 0 -0.44313905
v 0 0.362591 0.18748191
v 0.30699083 0.102897435 0.07625576
v 0.14819817 0.102897435 0.13932623
v 0.30699083 0.102897435 0.07625576
v 0.14819817 0.102897435 0.13932623
v 0.19954403 0 0.049566243
v 0.14819817 0.102897435 0.13932623
v 0.09632881 0 0.090562046
v 0.19954403 0 0.049566243
v 0.19954403 0 0.049566243
v 0.09632881 0 0.090562046
v 0 0 -0.44313905
v 0 0.362591 0.18748191
v 0.14819817 0.102897435 0.13932623
v 0.04941473 0.102897435 0.1783059
v 0.14819817 0.102897435 0.13932623
v 0.04941473 0.102897435 0.1783059
v 0.09632881 0 0.090562046
v 0.04941473 0.102897435 0.1783059
v 0.032119576 0 0.115898825
v 0.09632881 0 0.090562046
v 0.09632881 0 0.090562046
v 0.032119576 0 0.115898825
v 0 0 -0.44313905
v 0 0.362591 0.18748191
v 0.04941473 0.102897435 0.1783059
v -0.03034878 0.102897435 0.18645486
v 0.04941473 0.102897435 0.1783059
v -0.03034878 0.102897435 0.18645486
v 0.032119576 0 0.115898825
v -0.03034878 0.102897435 0.18645486
v -0.019726707 0 0.12119566
v 0.032119576 0 0.115898825
v 0.032119576 0 0.115898825
v -0.019726707 0 0.12119566
v 0 0 -0.44313905
v 0 0.362591 0.18748191
v -0.03034878 0.102897435 0.18645486
v -0.15914932 0.102897435 0.1623641
v -0.03034878 0.102897435 0.18645486
v -0.15914932 0.102897435 0.1623641
v -0.019726707 0 0.12119566
v -0.15914932 0.102897435 0.1623641
v -0.10344705 0 0.105536655
v -0.019726707 0 0.12119566
v -0.019726707 0 0.12119566
v -0.10344705 0 0.105536655
v 0 0 -0.44313905
v 0 0.362591 0.18748191
v -0.15914932 0.102897435 0.1623641
v -0.14615987 0.102897435 0.11019908
v -0.15914932 0.102897435 0.1623641
v -0.14615987 0.102897435 0.11019908
v -0.10344705 0 0.105536655
v -0.14615987 0.102897435 0.11019908
v -0.09500391 0 0.0716294
v -0.10344705 0 0.105536655
v -0.10344705 0 0.105536655
v -0.09500391 0 0.0716294
v 0 0 -0.44313905
v 0 0.362591 0.18748191
v -0.14615987 0.102897435 0.11019908
v -0.18405978 0.102897435 0.03897967
v -0.14615987 0.102897435 0.11019908
v -0.18405978 0.102897435 0.03897967
v -0.09500391 0 0.0716294
v -0.18405978 0.102897435 0.03897967
v -0.11963885 0 0.025336783
v -0.09500391 0 0.0716294
v -0.09500391 0 0.0716294
v -0.11963885 0 0.025336783
v 0 0 -0.44313905
v 0 0.362591 0.18748191
v -0.18405978 0.102897435 0.03897967
v -0.3167946 0.102897435 -0.038979698
v -0.18405978 0.102897435 0.03897967
v -0.3167946 0.102897435 -0.038979698
v -0.11963885 0 0.025336783
v -0.3167946 0.102897435 -0.038979698
v -0.20591648 0 -0.025336802
v -0.11963885 0 0.025336783
v -0.11963885 0 0.025336783
v -0.20591648 0 -0.025336802
v 0 0 -0.44313905
v 0 0.362591 0.18748191
v -0.3167946 0.102897435 -0.038979698
v -0.22765361 0.102897435 -0.11019912
v -0.3167946 0.102897435 -0.038979698
v -0.22765361 0.102897435 -0.11019912
v -0.20591648 0 -0.025336802
v -0.22765361 0.102897435 -0.11019912
v -0.14797483 0 -0.07162943
v -0.20591648 0 -0.025336802
v -0.20591648 0 -0.025336802
v -0.14797483 0 -0.07162943
v 0 0 -0.44313905
v 0 0.362591 0.18748191
v -0.22765361 0.102897435 -0.11019912
v -0.07832043 0.102897435 -0.1623641
v -0.22765361 0.102897435 -0.11019912
v -0.07832043 0.102897435 -0.1623641
v -0.14797483 0 -0.07162943
v -0.07832043 0.102897435 -0.1623641
v -0.050908275 0 -0.105536655
v -0.14797483 0 -0.07162943
v -0.14797483 0 -0.07162943
v -0.050908275 0 -0.105536655
v 0 0 -0.44313905
v 0 0.362591 0.18748191
v -0.07832043 0.102897435 -0.1623641
v -0.024173792 0.102897435 -0.18645486
v -0.07832043 0.102897435 -0.1623641
v -0.024173792 0.102897435 -0.18645486
v -0.050908275 0 -0.105536655
v -0.024173792 0.102897435 -0.18645486
v -0.015712965 0 -0.12119566
v -0.050908275 0 -0.105536655
v -0.050908275 0 -0.105536655
v -0.015712965 0 -0.12119566
v 0 0 -0.44313905
v 0 0.362591 0.18748191
v -0.024173792 0.102897435 -0.18645486
v 0.10407386 0.102897435 -0.1783059
v -0.024173792 0.102897435 -0.18645486
v 0.10407386 0.102897435 -0.1783059
v -0.015712965 0 -0.12119566
v 0.10407386 0.102897435 -0.1783059
v 0.06764801 0 -0.115898825
v -0.015712965 0 -0.12119566
v -0.015712965 0 -0.12119566
v 0.06764801 0 -0.115898825
v 0 0 -0.44313905
v 0 0.362591 0.18748191
v 0.10407386 0.102897435 -0.1783059
v 0.15722759 0.102897435 -0.1393262
v 0.10407386 0.102897435 -0.1783059
v 0.15722759 0.102897435 -0.1393262
v 0.06764801 0 -0.115898825
v 0.15722759 0.102897435 -0.1393262
v 0.10219793 0 -0.09056202
v 0.06764801 0 -0.115898825
v 0.06764801 0 -0.115898825
v 0.10219793 0 -0.09056202
v 0 0 -0.44313905
v 0 0.362591 0.18748191
v 0.15722759 0.102897435 -0.1393262
v 0.1422258 0.102897435 -0.07625574
v 0.15722759 0.102897435 -0.1393262
v 0.1422258 0.102897435 -0.07625574
v 0.10219793 0 -0.09056202
v 0.1422258 0.102897435 -0.07625574
v 0.09244677 0 -0.049566228
v 0.10219793 0 -0.09056202
v 0.10219793 0 -0.09056202
v 0.09244677 0 -0.049566228
v 0 0 -0.44313905
v 0 0.362591 0.18748191
v 0.1422258 0.102897435 -0.07625574
v 0.27793398 0.102897435 3.2780378E-08
v 0.1422258 0.102897435 -0.07625574
v 0.27793398 0.102897435 3.2780378E-08
v 0.09244677 0 -0.049566228
v 0.27793398 0.102897435 3.2780378E-08
v 0.18065709 0 2.1307244E-08
v 0.09244677 0 -0.049566228
v 0.09244677 0 -0.049566228
v 0.18065709 0 2.1307244E-08
v 0 0 -0.44313905
v 0.21433298 0.08746282 -0.12782858
v 0.13363443 0.08746282 -0.10269274
v 0 0.097958356 -0.12782858
v 0.21433298 0.017492564 -0.12782858
v 0.13363443 0.017492564 -0.10269274
v 0.21433298 0.08746282 -0.12782858
v 0.13363443 0.017492564 -0.10269274
v 0.13363443 0.08746282 -0.10269274
v 0.21433298 0.08746282 -0.12782858
v 0.13363443 0.08746282 -0.10269274
v -0.047693577 0.08746282 -0.096484706
v 0 0.097958356 -0.12782858
v 0.13363443 0.017492564 -0.10269274
v -0.047693577 0.017492564 -0.096484706
v 0.13363443 0.08746282 -0.10269274
v -0.047693577 0.017492564 -0.096484706
v -0.047693577 0.08746282 -0.096484706
v 0.13363443 0.08746282 -0.10269274
v -0.047693577 0.08746282 -0.096484706
v -0.19310734 0.08746282 -0.11387924
v 0 0.097958356 -0.12782858
v -0.047693577 0.017492564 -0.096484706
v -0.19310734 0.017492564 -0.11387924
v -0.047693577 0.08746282 -0.096484706
v -0.19310734 0.017492564 -0.11387924
v -0.19310734 0.08746282 -0.11387924
v -0.047693577 0.08746282 -0.096484706
v -0.19310734 0.08746282 -0.11387924
v -0.19310734 0.08746282 -0.14177792
v 0 0.097958356 -0.12782858
v -0.19310734 0.017492564 -0.11387924
v -0.19310734 0.017492564 -0.14177792
v -0.19310734 0.08746282 -0.11387924
v -0.19310734 0.017492564 -0.14177792
v -0.19310734 0.08746282 -0.14177792
v -0.19310734 0.08746282 -0.11387924
v -0.19310734 0.08746282 -0.14177792
v -0.04769349 0.08746282 -0.15917248
v 0 0.097958356 -0.12782858
v -0.19310734 0.017492564 -0.14177792
v -0.04769349 0.017492564 -0.15917248
v -0.19310734 0.08746282 -0.14177792
v -0.04769349 0.017492564 -0.15917248
v -0.04769349 0.08746282 -0.15917248
v -0.19310734 0.08746282 -0.14177792
v -0.04769349 0.08746282 -0.15917248
v 0.1336344 0.08746282 -0.15296443
v 0 0.097958356 -0.12782858
v -0.04769349 0.017492564 -0.15917248
v 0.1336344 0.017492564 -0.15296443
v -0.04769349 0.08746282 -0.15917248
v 0.1336344 0.017492564 -0.15296443
v 0.1336344 0.08746282 -0.15296443
v -0.04769349 0.08746282 -0.15917248
v 0.1336344 0.08746282 -0.15296443
v 0.21433298 0.08746282 -0.12782858
v 0 0.097958356 -0.12782858
v 0.1336344 0.017492564 -0.15296443
v 0.21433298 0.017492564 -0.12782858
v 0.1336344 0.08746282 -0.15296443
v 0.21433298 0.017492564 -0.12782858
v 0.21433298 0.08746282 -0.12782858
v 0.1336344 0.08746282 -0.15296443
v 0.25397888 0.08746282 0.08521904
v 0.15835324 0.08746282 0.115004346
v 0 0.097958356 0.08521904
v 0.25397888 0.017492564 0.08521904
v 0.15835324 0.017492564 0.115004346
v 0.25397888 0.08746282 0.08521904
v 0.15835324 0.017492564 0.115004346
v 0.15835324 0.08746282 0.115004346
v 0.25397888 0.08746282 0.08521904
v 0.15835324 0.08746282 0.115004346
v -0.05651562 0.08746282 0.12236071
v 0 0.097958356 0.08521904
v 0.15835324 0.017492564 0.115004346
v -0.05651562 0.017492564 0.12236071
v 0.15835324 0.08746282 0.115004346
v -0.05651562 0.017492564 0.12236071
v -0.05651562 0.08746282 0.12236071
v 0.15835324 0.08746282 0.115004346
v -0.05651562 0.08746282 0.12236071
v -0.22882706 0.08746282 0.10174864
v 0 0.097958356 0.08521904
v -0.05651562 0.017492564 0.12236071
v -0.22882706 0.017492564 0.10174864
v -0.05651562 0.08746282 0.12236071
v -0.22882706 0.017492564 0.10174864
v -0.22882706 0.08746282 0.10174864
v -0.05651562 0.08746282 0.12236071
v -0.22882706 0.08746282 0.10174864
v -0.22882706 0.08746282 0.06868944
v 0 0.097958356 0.08521904
v -0.22882706 0.017492564 0.10174864
v -0.22882706 0.017492564 0.06868944
v -0.22882706 0.08746282 0.10174864
v -0.22882706 0.017492564 0.06868944
v -0.22882706 0.08746282 0.06868944
v -0.22882706 0.08746282 0.10174864
v -0.22882706 0.08746282 0.06868944
v -0.05651552 0.08746282 0.04807737
v 0 0.097958356 0.08521904
v -0.22882706 0.017492564 0.06868944
v -0.05651552 0.017492564 0.04807737
v -0.22882706 0.08746282 0.06868944
v -0.05651552 0.017492564 0.04807737
v -0.05651552 0.08746282 0.04807737
v -0.22882706 0.08746282 0.06868944
v -0.05651552 0.08746282 0.04807737
v 0.15835321 0.08746282 0.05543373
v 0 0.097958356 0.08521904
v -0.05651552 0.017492564 0.04807737
v 0.15835321 0.017492564 0.05543373
v -0.05651552 0.08746282 0.04807737
v 0.15835321 0.017492564 0.05543373
v 0.15835321 0.08746282 0.05543373
v -0.05651552 0.08746282 0.04807737
v 0.15835321 0.08746282 0.05543373
v 0.25397888 0.08746282 0.08521905
v 0 0.097958356 0.08521904
v 0.15835321 0.017492564 0.05543373
v 0.25397888 0.017492564 0.08521905
v 0.15835321 0.08746282 0.05543373
v 0.25397888 0.017492564 0.08521905
v 0.25397888 0.08746282 0.08521905
v 0.15835321 0.08746282 0.05543373
v -0.21433298 0.019599512 -0.5283581
v -0.26026148 0 -0.6294008
v -0.16840449 0 -0.6294008
v -0.21433298 0.08084799 -0.50539386
v -0.24189007 0.019599512 -0.5283581
v -0.1867759 0.019599512 -0.5283581
v 0.21433298 0.019599512 -0.5283581
v 0.16840449 0 -0.6294008
v 0.26026148 0 -0.6294008
v 0.21433298 0.08084799 -0.50539386
v 0.1867759 0.019599512 -0.5283581
v 0.24189007 0.019599512 -0.5283581
vn -0.4997163 -0.764853 0.4065508
vn -0.4997163 -0.764853 0.4065508
vn -0.4997163 -0.764853 0.4065508
vn 0.65148425 -0.5428107 -0.5300236
vn 0.65148425 -0.5428107 -0.5300236
vn 0.65148425 -0.5428107 -0.5300236
vn 0.65148425 -0.5428108 -0.5300234
vn 0.65148425 -0.5428108 -0.5300234
vn 0.65148425 -0.5428108 -0.5300234
vn -0 1 0
vn -0 1 0
vn -0 1 0
vn -0.36886564 -0.03828869 -0.92869383
vn -0.36886564 -0.03828869 -0.92869383
vn -0.36886564 -0.03828869 -0.92869383
vn 0.31281337 -0.53092366 0.7875709
vn 0.31281337 -0.53092366 0.7875709
vn 0.31281337 -0.53092366 0.7875709
vn 0.31281343 -0.5309236 0.7875709
vn 0.31281343 -0.5309236 0.7875709
vn 0.31281343 -0.5309236 0.7875709
vn -0 -1 0
vn -0 -1 0
vn -0 -1 0
vn -0.36680347 -0.036950458 -0.92956436
vn -0.36680347 -0.036950458 -0.92956436
vn -0.36680347 -0.036950458 -0.92956436
vn 0.31114107 -0.53052247 0.7885031
vn 0.31114107 -0.53052247 0.7885031
vn 0.31114107 -0.53052247 0.7885031
vn 0.3111411 -0.53052247 0.7885031
vn 0.3111411 -0.53052247 0.7885031
vn 0.3111411 -0.53052247 0.7885031
vn -0 -1 0
vn -0 -1 0
vn -0 -1 0
vn -0.10162237 0.015809853 -0.99469745
vn -0.10162237 0.015809853 -0.99469745
vn -0.10162237 0.015809853 -0.99469745
vn 0.0863629 -0.52720976 0.84533495
vn 0.0863629 -0.52720976 0.84533495
vn 0.0863629 -0.52720976 0.84533495
vn 0.08636294 -0.5272098 0.84533495
vn 0.08636294 -0.5272098 0.84533495
vn 0.08636294 -0.5272098 0.84533495
vn -0 -1 0
vn -0 -1 0
vn -0 -1 0
vn 0.1838226 -0.017595382 -0.982802
vn 0.1838226 -0.017595382 -0.982802
vn 0.1838226 -0.017595382 -0.982802
vn -0.15468486 -0.540476 0.8270178
vn -0.15468486 -0.540476 0.8270178
vn -0.15468486 -0.540476 0.8270178
vn -0.15468492 -0.5404761 0.82701766
vn -0.15468492 -0.5404761 0.82701766
vn -0.15468492 -0.5404761 0.82701766
vn 0 -1 -0
vn 0 -1 -0
vn 0 -1 -0
vn 0.82544035 -0.52573884 0.20554034
vn 0.82544035 -0.52573884 0.20554034
vn 0.82544035 -0.52573884 0.20554034
vn -0.9034808 -0.36484194 -0.2249729
vn -0.9034808 -0.36484194 -0.2249729
vn -0.9034808 -0.36484194 -0.2249729
vn -0.90348077 -0.3648419 -0.22497301
vn -0.90348077 -0.3648419 -0.22497301
vn -0.90348077 -0.3648419 -0.22497301
vn 0 1 0
vn 0 1 0
vn 0 1 0
vn 0.83138084 -0.33625263 -0.44242516
vn 0.83138084 -0.33625263 -0.44242516
vn 0.83138084 -0.33625263 -0.44242516
vn -0.75196904 -0.5238416 0.40016562
vn -0.75196904 -0.5238416 0.40016562
vn -0.75196904 -0.5238416 0.40016562
vn -0.75196904 -0.52384156 0.40016562
vn -0.75196904 -0.52384156 0.40016562
vn -0.75196904 -0.52384156 0.40016562
vn 0 -1 -0
vn 0 -1 -0
vn 0 -1 -0
vn 0.5019456 0.13294531 -0.8546204
vn 0.5019456 0.13294531 -0.8546204
vn 0.5019456 0.13294531 -0.8546204
vn -0.46501637 -0.39610764 0.79174405
vn -0.46501637 -0.39610764 0.79174405
vn -0.46501637 -0.39610764 0.79174405
vn -0.46501637 -0.39610764 0.79174393
vn -0.46501637 -0.39610764 0.79174393
vn -0.46501637 -0.39610764 0.79174393
vn 0 -1 -0
vn 0 -1 -0
vn 0 -1 -0
vn 0.3555829 -0.8218766 0.4450614
vn 0.3555829 -0.8218766 0.4450614
vn 0.3555829 -0.8218766 0.4450614
vn -0.49308854 -0.6131611 -0.6171687
vn -0.49308854 -0.6131611 -0.6171687
vn -0.49308854 -0.6131611 -0.6171687
vn -0.49308848 -0.61316097 -0.61716866
vn -0.49308848 -0.61316097 -0.61716866
vn -0.49308848 -0.61316097 -0.61716866
vn 0 0.99999994 0
vn 0 0.99999994 0
vn 0 0.99999994 0
vn 0.19431296 -0.8079699 0.5562617
vn 0.19431296 -0.8079699 0.5562617
vn 0.19431296 -0.8079699 0.5562617
vn -0.2816288 -0.5202807 -0.8062215
vn -0.2816288 -0.5202807 -0.8062215
vn -0.2816288 -0.5202807 -0.8062215
vn -0.2816288 -0.5202808 -0.80622154
vn -0.2816288 -0.5202808 -0.80622154
vn -0.2816288 -0.5202808 -0.80622154
vn 0 0.99999994 0
vn 0 0.99999994 0
vn 0 0.99999994 0
vn 0.24156436 -0.8042765 0.5429419
vn 0.24156436 -0.8042765 0.5429419
vn 0.24156436 -0.8042765 0.5429419
vn -0.3465857 -0.5225459 -0.77898926
vn -0.3465857 -0.5225459 -0.77898926
vn -0.3465857 -0.5225459 -0.77898926
vn -0.34658584 -0.52254575 -0.7789892
vn -0.34658584 -0.52254575 -0.7789892
vn -0.34658584 -0.52254575 -0.7789892
vn 0 1 0
vn 0 1 0
vn 0 1 0
vn -0.036321655 -0.8197106 0.571625
vn -0.036321655 -0.8197106 0.571625
vn -0.036321655 -0.8197106 0.571625
vn 0.05370822 -0.5316579 -0.8452546
vn 0.05370822 -0.5316579 -0.8452546
vn 0.05370822 -0.5316579 -0.8452546
vn 0.05370825 -0.53165793 -0.8452546
vn 0.05370825 -0.53165793 -0.8452546
vn 0.05370825 -0.53165793 -0.8452546
vn -0 1 0
vn -0 1 0
vn -0 1 0
vn -0.3481824 -0.8082963 0.47479063
vn -0.3481824 -0.8082963 0.47479063
vn -0.3481824 -0.8082963 0.47479063
vn 0.4848245 -0.5725961 -0.6611194
vn 0.4848245 -0.5725961 -0.6611194
vn 0.4848245 -0.5725961 -0.6611194
vn 0.48482457 -0.57259613 -0.66111934
vn 0.48482457 -0.57259613 -0.66111934
vn 0.48482457 -0.57259613 -0.66111934
vn -0 1 0
vn -0 1 0
vn -0 1 0
vn -0.9323924 -0.28541094 -0.22177663
vn -0.9323924 -0.28541094 -0.22177663
vn -0.9323924 -0.28541094 -0.22177663
vn 0.89994234 -0.37984574 0.21405813
vn 0.89994234 -0.37984574 0.21405813
vn 0.89994234 -0.37984574 0.21405813
vn 0.89994234 -0.37984577 0.21405816
vn 0.89994234 -0.37984577 0.21405816
vn 0.89994234 -0.37984577 0.21405816
vn -0 -1 0
vn -0 -1 0
vn -0 -1 0
vn -0.32086098 -0.75563616 0.57101864
vn -0.32086098 -0.75563616 0.57101864
vn -0.32086098 -0.75563616 0.57101864
vn 0.44451585 -0.42023513 -0.79108036
vn 0.44451585 -0.42023513 -0.79108036
vn 0.44451585 -0.42023513 -0.79108036
vn 0.44451585 -0.42023507 -0.79108024
vn 0.44451585 -0.42023507 -0.79108024
vn 0.44451585 -0.42023507 -0.79108024
vn -0 1 0
vn -0 1 0
vn -0 1 0
vn -0.048317708 -0.9867127 -0.15512384
vn -0.048317708 -0.9867127 -0.15512384
vn -0.048317708 -0.9867127 -0.15512384
vn -0.29738614 0 -0.9547573
vn -0.29738614 0 -0.9547573
vn -0.29738614 0 -0.9547573
vn -0.29738614 0 -0.9547573
vn -0.29738614 0 -0.9547573
vn -0.29738614 0 -0.9547573
vn -0.011402828 -0.9428364 -0.33306077
vn -0.011402828 -0.9428364 -0.33306077
vn -0.011402828 -0.9428364 -0.33306077
vn -0.034216434 0 -0.99941444
vn -0.034216434 0 -0.99941444
vn -0.034216434 0 -0.99941444
vn -0.034216434 0 -0.99941444
vn -0.034216434 0 -0.99941444
vn -0.034216434 0 -0.99941444
vn 0.03258681 -0.9616272 -0.2724172
vn 0.03258681 -0.9616272 -0.2724172
vn 0.03258681 -0.9616272 -0.2724172
vn 0.11877421 0 -0.9929213
vn 0.11877421 0 -0.9929213
vn 0.11877421 0 -0.9929213
vn 0.11877421 0 -0.9929213
vn 0.11877421 0 -0.9929213
vn 0.11877421 0 -0.9929213
vn 0.054270692 -0.9985262 0
vn 0.054270692 -0.9985262 0
vn 0.054270692 -0.9985262 0
vn 1 -0 0
vn 1 -0 0
vn 1 -0 0
vn 1 0 0
vn 1 0 0
vn 1 0 0
vn 0.032586828 -0.96162736 0.2724172
vn 0.032586828 -0.96162736 0.2724172
vn 0.032586828 -0.96162736 0.2724172
vn 0.118774295 -0 0.9929213
vn 0.118774295 -0 0.9929213
vn 0.118774295 -0 0.9929213
vn 0.118774295 -0 0.9929213
vn 0.118774295 -0 0.9929213
vn 0.118774295 -0 0.9929213
vn -0.011402857 -0.9428365 0.33306062
vn -0.011402857 -0.9428365 0.33306062
vn -0.011402857 -0.9428365 0.33306062
vn -0.03421653 0 0.9994144
vn -0.03421653 0 0.9994144
vn -0.03421653 0 0.9994144
vn -0.03421653 0 0.9994144
vn -0.03421653 0 0.9994144
vn -0.03421653 0 0.9994144
vn -0.048317708 -0.9867127 0.1551239
vn -0.048317708 -0.9867127 0.1551239
vn -0.048317708 -0.9867127 0.1551239
vn -0.29738608 0 0.95475733
vn -0.29738608 0 0.95475733
vn -0.29738608 0 0.95475733
vn -0.29738608 0 0.95475733
vn -0.29738608 0 0.95475733
vn -0.29738608 0 0.95475733
vn -0.04093115 -0.9904828 -0.13140935
vn -0.04093115 -0.9904828 -0.13140935
vn -0.04093115 -0.9904828 -0.13140935
vn -0.2973861 0 -0.9547573
vn -0.2973861 0 -0.9547573
vn -0.2973861 0 -0.9547573
vn -0.2973861 0 -0.9547573
vn -0.2973861 0 -0.9547573
vn -0.2973861 0 -0.9547573
vn -0.009780456 -0.95827717 -0.28567326
vn -0.009780456 -0.95827717 -0.28567326
vn -0.009780456 -0.95827717 -0.28567326
vn -0.034216464 0 -0.9994144
vn -0.034216464 0 -0.9994144
vn -0.034216464 0 -0.9994144
vn -0.034216464 0 -0.9994144
vn -0.034216464 0 -0.9994144
vn -0.034216464 0 -0.9994144
vn 0.027802879 -0.9722169 -0.23242472
vn 0.027802879 -0.9722169 -0.23242472
vn 0.027802879 -0.9722169 -0.23242472
vn 0.118774235 0 -0.99292123
vn 0.118774235 0 -0.99292123
vn 0.118774235 0 -0.99292123
vn 0.118774235 0 -0.99292123
vn 0.118774235 0 -0.99292123
vn 0.118774235 0 -0.99292123
vn 0.045818504 -0.99894977 0
vn 0.045818504 -0.99894977 0
vn 0.045818504 -0.99894977 0
vn 1 -0 0
vn 1 -0 0
vn 1 -0 0
vn 1 0 0
vn 1 0 0
vn 1 0 0
vn 0.027802875 -0.9722169 0.23242477
vn 0.027802875 -0.9722169 0.23242477
vn 0.027802875 -0.9722169 0.23242477
vn 0.1187742 -0 0.9929213
vn 0.1187742 -0 0.9929213
vn 0.1187742 -0 0.9929213
vn 0.1187742 -0 0.9929213
vn 0.1187742 -0 0.9929213
vn 0.1187742 -0 0.9929213
vn -0.009780461 -0.9582772 0.28567323
vn -0.009780461 -0.9582772 0.28567323
vn -0.009780461 -0.9582772 0.28567323
vn -0.034216486 0 0.99941444
vn -0.034216486 0 0.99941444
vn -0.034216486 0 0.99941444
vn -0.034216486 0 0.99941444
vn -0.034216486 0 0.99941444
vn -0.034216486 0 0.99941444
vn -0.040931158 -0.99048287 0.13140936
vn -0.040931158 -0.99048287 0.13140936
vn -0.040931158 -0.99048287 0.13140936
vn -0.29738614 0 0.95475733
vn -0.29738614 0 0.95475733
vn -0.29738614 0 0.95475733
vn -0.29738614 0 0.95475733
vn -0.29738614 0 0.95475733
vn -0.29738614 0 0.95475733
vn 0 -0.98170215 0.19042331
vn 0 -0.98170215 0.19042331
vn 0 -0.98170215 0.19042331
vn 0 -0.3510706 0.936349
vn 0 -0.3510706 0.936349
vn 0 -0.3510706 0.936349
vn 0 -0.98170215 0.19042331
vn 0 -0.98170215 0.19042331
vn 0 -0.98170215 0.19042331
vn 0 -0.3510706 0.936349
vn 0 -0.3510706 0.936349
vn 0 -0.3510706 0.936349
f 1//1 2//2 3//3
f 4//4 5//5 6//6
f 7//7 8//8 9//9
f 10//10 11//11 12//12
f 13//13 14//14 15//15
f 16//16 17//17 18//18
f 19//19 20//20 21//21
f 22//22 23//23 24//24
f 25//25 26//26 27//27
f 28//28 29//29 30//30
f 31//31 32//32 33//33
f 34//34 35//35 36//36
f 37//37 38//38 39//39
f 40//40 41//41 42//42
f 43//43 44//44 45//45
f 46//46 47//47 48//48
f 49//49 50//50 51//51
f 52//52 53//53 54//54
f 55//55 56//56 57//57
f 58//58 59//59 60//60
f 61//61 62//62 63//63
f 64//64 65//65 66//66
f 67//67 68//68 69//69
f 70//70 71//71 72//72
f 73//73 74//74 75//75
f 76//76 77//77 78//78
f 79//79 80//80 81//81
f 82//82 83//83 84//84
f 85//85 86//86 87//87
f 88//88 89//89 90//90
f 91//91 92//92 93//93
f 94//94 95//95 96//96
f 97//97 98//98 99//99
f 100//100 101//101 102//102
f 103//103 104//104 105//105
f 106//106 107//107 108//108
f 109//109 110//110 111//111
f 112//112 113//113 114//114
f 115//115 116//116 117//117
f 118//118 119//119 120//120
f 121//121 122//122 123//123
f 124//124 125//125 126//126
f 127//127 128//128 129//129
f 130//130 131//131 132//132
f 133//133 134//134 135//135
f 136//136 137//137 138//138
f 139//139 140//140 141//141
f 142//142 143//143 144//144
f 145//145 146//146 147//147
f 148//148 149//149 150//150
f 151//151 152//152 153//153
f 154//154 155//155 156//156
f 157//157 158//158 159//159
f 160//160 161//161 162//162
f 163//163 164//164 165//165
f 166//166 167//167 168//168
f 169//169 170//170 171//171
f 172//172 173//173 174//174
f 175//175 176//176 177//177
f 178//178 179//179 180//180
f 181//181 182//182 183//183
f 184//184 185//185 186//186
f 187//187 188//188 189//189
f 190//190 191//191 192//192
f 193//193 194//194 195//195
f 196//196 197//197 198//198
f 199//199 200//200 201//201
f 202//202 203//203 204//204
f 205//205 206//206 207//207
f 208//208 209//209 210//210
f 211//211 212//212 213//213
f 214//214 215//215 216//216
f 217//217 218//218 219//219
f 220//220 221//221 222//222
f 223//223 224//224 225//225
f 226//226 227//227 228//228
f 229//229 230//230 231//231
f 232//232 233//233 234//234
f 235//235 236//236 237//237
f 238//238 239//239 240//240
f 241//241 242//242 243//243
f 244//244 245//245 246//246
f 247//247 248//248 249//249
f 250//250 251//251 252//252
f 253//253 254//254 255//255
f 256//256 257//257 258//258
f 259//259 260//260 261//261
f 262//262 263//263 264//264
f 265//265 266//266 267//267
f 268//268 269//269 270//270
f 271//271 272//272 273//273
f 274//274 275//275 276//276
f 277//277 278//278 279//279
f 280//280 281//281 282//282
f 283//283 284//284 285//285
f 286//286 287//287 288//288
f 289//289 290//290 291//291
f 292//292 293//293 294//294
f 295//295 296//296 297//297
f 298//298 299//299 300//300
f 301//301 302//302 303//303
f 304//304 305//305 306//306
f 307//307 308//308 309//309
f 310//310 311//311 312//312
f 313//313 314//314 315//315
f 316//316 317//317 318//318
