# Exported from SharpOpenGl procedural mesh
o cryo_gunship_mk2_23
# vertices 84
v 0 1.615856 0.72771114
v 1.2074062 0 0
v 1.3035257 0 0.49178794
v 1.2074062 0 0
v 1.3035257 0 0.49178794
v 0 0 -1.8192779
v 0 1.615856 0.72771114
v 1.3035257 0 0.49178794
v 0.46495375 0 0.8274367
v 1.3035257 0 0.49178794
v 0.46495375 0 0.8274367
v 0 0 -1.8192779
v 0 1.615856 0.72771114
v 0.46495375 0 0.8274367
v -0.12637913 0 0.90038013
v 0.46495375 0 0.8274367
v -0.12637913 0 0.90038013
v 0 0 -1.8192779
v 0 1.615856 0.72771114
v -0.12637913 0 0.90038013
v -0.9023079 0 0.6874592
v -0.12637913 0 0.90038013
v -0.9023079 0 0.6874592
v 0 0 -1.8192779
v 0 1.615856 0.72771114
v -0.9023079 0 0.6874592
v -1.4227966 0 0.25627473
v -0.9023079 0 0.6874592
v -1.4227966 0 0.25627473
v 0 0 -1.8192779
v 0 1.615856 0.72771114
v -1.4227966 0 0.25627473
v -0.9268395 0 -0.2562749
v -1.4227966 0 0.25627473
v -0.9268395 0 -0.2562749
v 0 0 -1.8192779
v 0 1.615856 0.72771114
v -0.9268395 0 -0.2562749
v -0.6510399 0 -0.6874594
v -0.9268395 0 -0.2562749
v -0.6510399 0 -0.6874594
v 0 0 -1.8192779
v 0 1.615856 0.72771114
v -0.6510399 0 -0.6874594
v -0.21401176 0 -0.9003802
v -0.6510399 0 -0.6874594
v -0.21401176 0 -0.9003802
v 0 0 -1.8192779
v 0 1.615856 0.72771114
v -0.21401176 0 -0.9003802
v 0.5584305 0 -0.8274367
v -0.21401176 0 -0.9003802
v 0.5584305 0 -0.8274367
v 0 0 -1.8192779
v 0 1.615856 0.72771114
v 0.5584305 0 -0.8274367
v 0.7367278 0 -0.49178764
v 0.5584305 0 -0.8274367
v 0.7367278 0 -0.49178764
v 0 0 -1.8192779
v 0 1.615856 0.72771114
v 0.7367278 0 -0.49178764
v 1.1560059 0 5.9279597E-07
v 0.7367278 0 -0.49178764
v 1.1560059 0 5.9279597E-07
v 0 0 -1.8192779
v -1.2074062 0.087343566 -2.2559047
v -1.6834692 0 -3.3032432
v -0.73134315 0 -3.3032432
v -1.2074062 0.36029223 -2.0178733
v -1.493044 0.087343566 -2.2559047
v -0.9217683 0.087343566 -2.2559047
v 0 0.087343566 -2.2559047
v -0.476063 0 -3.3032432
v 0.476063 0 -3.3032432
v 0 0.36029223 -2.0178733
v -0.28563783 0.087343566 -2.2559047
v 0.28563783 0.087343566 -2.2559047
v 1.2074062 0.087343566 -2.2559047
v 0.73134315 0 -3.3032432
v 1.6834692 0 -3.3032432
v 1.2074062 0.36029223 -2.0178733
v 0.9217683 0.087343566 -2.2559047
v 1.493044 0.087343566 -2.2559047
vn -0.75900686 -0.63395715 0.1483472
vn -0.75900686 -0.63395715 0.1483472
vn -0.75900686 -0.63395715 0.1483472
vn -0 -0.99999994 0
vn -0 -0.99999994 0
vn -0 -0.99999994 0
vn -0.36668882 -0.16205281 -0.91612124
vn -0.36668882 -0.16205281 -0.91612124
vn -0.36668882 -0.16205281 -0.91612124
vn -0 -1 0
vn -0 -1 0
vn -0 -1 0
vn -0.12186051 -0.096034184 -0.98789036
vn -0.12186051 -0.096034184 -0.98789036
vn -0.12186051 -0.096034184 -0.98789036
vn -0 -1 0
vn -0 -1 0
vn -0 -1 0
vn 0.26262242 -0.122809865 -0.9570513
vn 0.26262242 -0.122809865 -0.9570513
vn 0.26262242 -0.122809865 -0.9570513
vn 0 -1 -0
vn 0 -1 -0
vn 0 -1 -0
vn 0.6045342 -0.31939876 -0.7297416
vn 0.6045342 -0.31939876 -0.7297416
vn 0.6045342 -0.31939876 -0.7297416
vn 0 -0.99999994 -0
vn 0 -0.99999994 -0
vn 0 -0.99999994 -0
vn 0.5514448 -0.6412386 0.5335933
vn 0.5514448 -0.6412386 0.5335933
vn 0.5514448 -0.6412386 0.5335933
vn 0 1 0
vn 0 1 0
vn 0 1 0
vn 0.65418357 -0.6300433 0.41843688
vn 0.65418357 -0.6300433 0.41843688
vn 0.65418357 -0.6300433 0.41843688
vn 0 1 0
vn 0 1 0
vn 0 1 0
vn 0.31535804 -0.6939536 0.6472848
vn 0.31535804 -0.6939536 0.6472848
vn 0.31535804 -0.6939536 0.6472848
vn 0 1 0
vn 0 1 0
vn 0 1 0
vn -0.066789135 -0.70378053 0.7072709
vn -0.066789135 -0.70378053 0.7072709
vn -0.066789135 -0.70378053 0.7072709
vn -0 1 0
vn -0 1 0
vn -0 1 0
vn -0.7042347 -0.6034152 0.37409046
vn -0.7042347 -0.6034152 0.37409046
vn -0.7042347 -0.6034152 0.37409046
vn -0 -0.99999994 0
vn -0 -0.99999994 0
vn -0 -0.99999994 0
vn -0.5836619 -0.6416597 0.49760586
vn -0.5836619 -0.6416597 0.49760586
vn -0.5836619 -0.6416597 0.49760586
vn -0 1 0
vn -0 1 0
vn -0 1 0
vn 0 -0.99654055 0.08310723
vn 0 -0.99654055 0.08310723
vn 0 -0.99654055 0.08310723
vn 0 -0.6572546 0.75366855
vn 0 -0.6572546 0.75366855
vn 0 -0.6572546 0.75366855
vn 0 -0.99654055 0.08310723
vn 0 -0.99654055 0.08310723
vn 0 -0.99654055 0.08310723
vn 0 -0.65725464 0.7536686
vn 0 -0.65725464 0.7536686
vn 0 -0.65725464 0.7536686
vn 0 -0.99654055 0.08310723
vn 0 -0.99654055 0.08310723
vn 0 -0.99654055 0.08310723
vn 0 -0.6572546 0.75366855
vn 0 -0.6572546 0.75366855
vn 0 -0.6572546 0.75366855
f 1//1 2//2 3//3
f 4//4 5//5 6//6
f 7//7 8//8 9//9
f 10//10 11//11 12//12
f 13//13 14//14 15//15
f 16//16 17//17 18//18
f 19//19 20//20 21//21
f 22//22 23//23 24//24
f 25//25 26//26 27//27
f 28//28 29//29 30//30
f 31//31 32//32 33//33
f 34//34 35//35 36//36
f 37//37 38//38 39//39
f 40//40 41//41 42//42
f 43//43 44//44 45//45
f 46//46 47//47 48//48
f 49//49 50//50 51//51
f 52//52 53//53 54//54
f 55//55 56//56 57//57
f 58//58 59//59 60//60
f 61//61 62//62 63//63
f 64//64 65//65 66//66
f 67//67 68//68 69//69
f 70//70 71//71 72//72
f 73//73 74//74 75//75
f 76//76 77//77 78//78
f 79//79 80//80 81//81
f 82//82 83//83 84//84
