# Exported from SharpOpenGl procedural mesh
o cryo_destroyer_patrol_52
# vertices 84
v 0 1.5600804 1.2244712
v 1.0366957 0 0
v 1.1192254 0 0.8274989
v 1.0366957 0 0
v 1.1192254 0 0.8274989
v 0 0 -3.061178
v 0 1.5600804 1.2244712
v 1.1192254 0 0.8274989
v 0.39921576 0 1.3922727
v 1.1192254 0 0.8274989
v 0.39921576 0 1.3922727
v 0 0 -3.061178
v 0 1.5600804 1.2244712
v 0.39921576 0 1.3922727
v -0.10851088 0 1.5150098
v 0.39921576 0 1.3922727
v -0.10851088 0 1.5150098
v 0 0 -3.061178
v 0 1.5600804 1.2244712
v -0.10851088 0 1.5150098
v -0.7747342 0 1.1567419
v -0.10851088 0 1.5150098
v -0.7747342 0 1.1567419
v 0 0 -3.061178
v 0 1.5600804 1.2244712
v -0.7747342 0 1.1567419
v -1.221633 0 0.43121648
v -0.7747342 0 1.1567419
v -1.221633 0 0.43121648
v 0 0 -3.061178
v 0 1.5600804 1.2244712
v -1.221633 0 0.43121648
v -0.7957972 0 -0.43121675
v -1.221633 0 0.43121648
v -0.7957972 0 -0.43121675
v 0 0 -3.061178
v 0 1.5600804 1.2244712
v -0.7957972 0 -0.43121675
v -0.5589919 0 -1.1567422
v -0.7957972 0 -0.43121675
v -0.5589919 0 -1.1567422
v 0 0 -3.061178
v 0 1.5600804 1.2244712
v -0.5589919 0 -1.1567422
v -0.18375346 0 -1.5150099
v -0.5589919 0 -1.1567422
v -0.18375346 0 -1.5150099
v 0 0 -3.061178
v 0 1.5600804 1.2244712
v -0.18375346 0 -1.5150099
v 0.4794762 0 -1.3922727
v -0.18375346 0 -1.5150099
v 0.4794762 0 -1.3922727
v 0 0 -3.061178
v 0 1.5600804 1.2244712
v 0.4794762 0 -1.3922727
v 0.6325647 0 -0.8274984
v 0.4794762 0 -1.3922727
v 0.6325647 0 -0.8274984
v 0 0 -3.061178
v 0 1.5600804 1.2244712
v 0.6325647 0 -0.8274984
v 0.9925627 0 9.974584E-07
v 0.6325647 0 -0.8274984
v 0.9925627 0 9.974584E-07
v 0 0 -3.061178
v -1.0366957 0.08432867 -3.7958608
v -1.480994 0 -4.773317
v -0.5923975 0 -4.773317
v -1.0366957 0.34785575 -3.5737116
v -1.3032746 0.08432867 -3.7958608
v -0.7701168 0.08432867 -3.7958608
v 0 0.08432867 -3.7958608
v -0.4442982 0 -4.773317
v 0.4442982 0 -4.773317
v 0 0.34785575 -3.5737116
v -0.26657894 0.08432867 -3.7958608
v 0.26657894 0.08432867 -3.7958608
v 1.0366957 0.08432867 -3.7958608
v 0.5923975 0 -4.773317
v 1.480994 0 -4.773317
v 1.0366957 0.34785575 -3.5737116
v 0.7701168 0.08432867 -3.7958608
v 1.3032746 0.08432867 -3.7958608
vn -0.80020785 -0.5943889 0.07980784
vn -0.80020785 -0.5943889 0.07980784
vn -0.80020785 -0.5943889 0.07980784
vn -0 -1 0
vn -0 -1 0
vn -0 -1 0
vn -0.5997881 -0.23572756 -0.7646481
vn -0.5997881 -0.23572756 -0.7646481
vn -0.5997881 -0.23572756 -0.7646481
vn -0 -1 0
vn -0 -1 0
vn -0 -1 0
vn -0.23184775 -0.16248728 -0.9590852
vn -0.23184775 -0.16248728 -0.9590852
vn -0.23184775 -0.16248728 -0.9590852
vn -0 -0.99999994 0
vn -0 -0.99999994 0
vn -0 -0.99999994 0
vn 0.46469238 -0.19325052 -0.86412686
vn 0.46469238 -0.19325052 -0.86412686
vn 0.46469238 -0.19325052 -0.86412686
vn 0 -0.99999994 -0
vn 0 -0.99999994 -0
vn 0 -0.99999994 -0
vn 0.790525 -0.37143397 -0.48693633
vn 0.790525 -0.37143397 -0.48693633
vn 0.790525 -0.37143397 -0.48693633
vn 0 -1 -0
vn 0 -1 -0
vn 0 -1 -0
vn 0.65749574 -0.67992973 0.32464564
vn 0.65749574 -0.67992973 0.32464564
vn 0.65749574 -0.67992973 0.32464564
vn 0 1 0
vn 0 1 0
vn 0 1 0
vn 0.737187 -0.63139635 0.24061152
vn 0.737187 -0.63139635 0.24061152
vn 0.737187 -0.63139635 0.24061152
vn 0 1 0
vn 0 1 0
vn 0 1 0
vn 0.4107669 -0.8038514 0.4302249
vn 0.4107669 -0.8038514 0.4302249
vn 0.4107669 -0.8038514 0.4302249
vn 0 1 0
vn 0 1 0
vn 0 1 0
vn -0.09205147 -0.8626144 0.49741632
vn -0.09205147 -0.8626144 0.49741632
vn -0.09205147 -0.8626144 0.49741632
vn -0 1 0
vn -0 1 0
vn -0 1 0
vn -0.77753085 -0.592475 0.2107585
vn -0.77753085 -0.592475 0.2107585
vn -0.77753085 -0.592475 0.2107585
vn -0 -1 0
vn -0 -1 0
vn -0 -1 0
vn -0.68276936 -0.66753024 0.2970342
vn -0.68276936 -0.66753024 0.2970342
vn -0.68276936 -0.66753024 0.2970342
vn -0 1 0
vn -0 1 0
vn -0 1 0
vn 0 -0.9962991 0.08595432
vn 0 -0.9962991 0.08595432
vn 0 -0.9962991 0.08595432
vn 0 -0.64452875 0.76458
vn 0 -0.64452875 0.76458
vn 0 -0.64452875 0.76458
vn 0 -0.9962991 0.085954316
vn 0 -0.9962991 0.085954316
vn 0 -0.9962991 0.085954316
vn 0 -0.6445288 0.7645801
vn 0 -0.6445288 0.7645801
vn 0 -0.6445288 0.7645801
vn 0 -0.9962991 0.08595432
vn 0 -0.9962991 0.08595432
vn 0 -0.9962991 0.08595432
vn 0 -0.64452875 0.76458
vn 0 -0.64452875 0.76458
vn 0 -0.64452875 0.76458
f 1//1 2//2 3//3
f 4//4 5//5 6//6
f 7//7 8//8 9//9
f 10//10 11//11 12//12
f 13//13 14//14 15//15
f 16//16 17//17 18//18
f 19//19 20//20 21//21
f 22//22 23//23 24//24
f 25//25 26//26 27//27
f 28//28 29//29 30//30
f 31//31 32//32 33//33
f 34//34 35//35 36//36
f 37//37 38//38 39//39
f 40//40 41//41 42//42
f 43//43 44//44 45//45
f 46//46 47//47 48//48
f 49//49 50//50 51//51
f 52//52 53//53 54//54
f 55//55 56//56 57//57
f 58//58 59//59 60//60
f 61//61 62//62 63//63
f 64//64 65//65 66//66
f 67//67 68//68 69//69
f 70//70 71//71 72//72
f 73//73 74//74 75//75
f 76//76 77//77 78//78
f 79//79 80//80 81//81
f 82//82 83//83 84//84
