# Exported from SharpOpenGl procedural mesh
o cryo_support_spear_59
# vertices 90
v 0 2.0639544 0.89655477
v 1.4409573 0 0
v 1.5556694 0 0.60589266
v 1.4409573 0 0
v 1.5556694 0 0.60589266
v 0 0 -2.241387
v 0 2.0639544 0.89655477
v 1.5556694 0 0.60589266
v 0.55489075 0 1.0194186
v 1.5556694 0 0.60589266
v 0.55489075 0 1.0194186
v 0 0 -2.241387
v 0 2.0639544 0.89655477
v 0.55489075 0 1.0194186
v -0.1508249 0 1.1092864
v 0.55489075 0 1.0194186
v -0.1508249 0 1.1092864
v 0 0 -2.241387
v 0 2.0639544 0.89655477
v -0.1508249 0 1.1092864
v -1.0768434 0 0.84696347
v -0.1508249 0 1.1092864
v -1.0768434 0 0.84696347
v 0 0 -2.241387
v 0 2.0639544 0.89655477
v -1.0768434 0 0.84696347
v -1.6980112 0 0.31573564
v -1.0768434 0 0.84696347
v -1.6980112 0 0.31573564
v 0 0 -2.241387
v 0 2.0639544 0.89655477
v -1.6980112 0 0.31573564
v -1.1061201 0 -0.31573585
v -1.6980112 0 0.31573564
v -1.1061201 0 -0.31573585
v 0 0 -2.241387
v 0 2.0639544 0.89655477
v -1.1061201 0 -0.31573585
v -0.7769719 0 -0.8469638
v -1.1061201 0 -0.31573585
v -0.7769719 0 -0.8469638
v 0 0 -2.241387
v 0 2.0639544 0.89655477
v -0.7769719 0 -0.8469638
v -0.25540853 0 -1.1092864
v -0.7769719 0 -0.8469638
v -0.25540853 0 -1.1092864
v 0 0 -2.241387
v 0 2.0639544 0.89655477
v -0.25540853 0 -1.1092864
v 0.6664489 0 -1.0194186
v -0.25540853 0 -1.1092864
v 0.6664489 0 -1.0194186
v 0 0 -2.241387
v 0 2.0639544 0.89655477
v 0.6664489 0 -1.0194186
v 0.8792346 0 -0.60589224
v 0.6664489 0 -1.0194186
v 0.8792346 0 -0.60589224
v 0 0 -2.241387
v 0 2.0639544 0.89655477
v 0.8792346 0 -0.60589224
v 1.3796145 0 7.303366E-07
v 0.8792346 0 -0.60589224
v 1.3796145 0 7.303366E-07
v 0 0 -2.241387
v -1.7291487 0.1115651 -2.7793198
v -2.2231913 0 -3.8662133
v -1.2351062 0 -3.8662133
v -1.7291487 0.46020603 -2.5322986
v -2.0255742 0.1115651 -2.7793198
v -1.4327233 0.1115651 -2.7793198
v -0.57638294 0.1115651 -2.7793198
v -1.0704255 0 -3.8662133
v -0.08234042 0 -3.8662133
v -0.57638294 0.46020603 -2.5322986
v -0.87280846 0.1115651 -2.7793198
v -0.2799574 0.1115651 -2.7793198
v 0.57638294 0.1115651 -2.7793198
v 0.08234042 0 -3.8662133
v 1.0704255 0 -3.8662133
v 0.57638294 0.46020603 -2.5322986
v 0.2799574 0.1115651 -2.7793198
v 0.87280846 0.1115651 -2.7793198
v 1.7291487 0.1115651 -2.7793198
v 1.2351062 0 -3.8662133
v 2.2231913 0 -3.8662133
v 1.7291487 0.46020603 -2.5322986
v 1.4327233 0.1115651 -2.7793198
v 2.0255742 0.1115651 -2.7793198
vn -0.7797141 -0.608485 0.14762132
vn -0.7797141 -0.608485 0.14762132
vn -0.7797141 -0.608485 0.14762132
vn -0 -1 0
vn -0 -1 0
vn -0 -1 0
vn -0.37722594 -0.15576173 -0.9129287
vn -0.37722594 -0.15576173 -0.9129287
vn -0.37722594 -0.15576173 -0.9129287
vn -0 -1 0
vn -0 -1 0
vn -0 -1 0
vn -0.1257798 -0.09261339 -0.98772573
vn -0.1257798 -0.09261339 -0.98772573
vn -0.1257798 -0.09261339 -0.98772573
vn -0 -1 0
vn -0 -1 0
vn -0 -1 0
vn 0.27064323 -0.1182494 -0.9553896
vn 0.27064323 -0.1182494 -0.9553896
vn 0.27064323 -0.1182494 -0.9553896
vn 0 -1 -0
vn 0 -1 -0
vn 0 -1 -0
vn 0.61887085 -0.30550107 -0.7236492
vn 0.61887085 -0.30550107 -0.7236492
vn 0.61887085 -0.30550107 -0.7236492
vn 0 -1 -0
vn 0 -1 -0
vn 0 -1 -0
vn 0.5717566 -0.62119645 0.535919
vn 0.5717566 -0.62119645 0.535919
vn 0.5717566 -0.62119645 0.535919
vn 0 1 0
vn 0 1 0
vn 0 1 0
vn 0.675177 -0.60755956 0.41833892
vn 0.675177 -0.60755956 0.41833892
vn 0.675177 -0.60755956 0.41833892
vn 0 1 0
vn 0 1 0
vn 0 1 0
vn 0.33004287 -0.67857385 0.65620834
vn 0.33004287 -0.67857385 0.65620834
vn 0.33004287 -0.67857385 0.65620834
vn 0 1 0
vn 0 1 0
vn 0 1 0
vn -0.07015924 -0.69074297 0.71968865
vn -0.07015924 -0.69074297 0.71968865
vn -0.07015924 -0.69074297 0.71968865
vn -0 1 0
vn -0 1 0
vn -0 1 0
vn -0.72439283 -0.5799269 0.37274632
vn -0.72439283 -0.5799269 0.37274632
vn -0.72439283 -0.5799269 0.37274632
vn -0 -1 0
vn -0 -1 0
vn -0 -1 0
vn -0.60443974 -0.62086415 0.49917966
vn -0.60443974 -0.62086415 0.49917966
vn -0.60443974 -0.62086415 0.49917966
vn -0 1 0
vn -0 1 0
vn -0 1 0
vn 0 -0.9947731 0.10210931
vn 0 -0.9947731 0.10210931
vn 0 -0.9947731 0.10210931
vn 0 -0.57812214 0.81595033
vn 0 -0.57812214 0.81595033
vn 0 -0.57812214 0.81595033
vn 0 -0.9947732 0.10210932
vn 0 -0.9947732 0.10210932
vn 0 -0.9947732 0.10210932
vn 0 -0.57812214 0.8159503
vn 0 -0.57812214 0.8159503
vn 0 -0.57812214 0.8159503
vn 0 -0.9947732 0.10210932
vn 0 -0.9947732 0.10210932
vn 0 -0.9947732 0.10210932
vn 0 -0.57812214 0.8159503
vn 0 -0.57812214 0.8159503
vn 0 -0.57812214 0.8159503
vn 0 -0.9947731 0.10210931
vn 0 -0.9947731 0.10210931
vn 0 -0.9947731 0.10210931
vn 0 -0.57812214 0.81595033
vn 0 -0.57812214 0.81595033
vn 0 -0.57812214 0.81595033
f 1//1 2//2 3//3
f 4//4 5//5 6//6
f 7//7 8//8 9//9
f 10//10 11//11 12//12
f 13//13 14//14 15//15
f 16//16 17//17 18//18
f 19//19 20//20 21//21
f 22//22 23//23 24//24
f 25//25 26//26 27//27
f 28//28 29//29 30//30
f 31//31 32//32 33//33
f 34//34 35//35 36//36
f 37//37 38//38 39//39
f 40//40 41//41 42//42
f 43//43 44//44 45//45
f 46//46 47//47 48//48
f 49//49 50//50 51//51
f 52//52 53//53 54//54
f 55//55 56//56 57//57
f 58//58 59//59 60//60
f 61//61 62//62 63//63
f 64//64 65//65 66//66
f 67//67 68//68 69//69
f 70//70 71//71 72//72
f 73//73 74//74 75//75
f 76//76 77//77 78//78
f 79//79 80//80 81//81
f 82//82 83//83 84//84
f 85//85 86//86 87//87
f 88//88 89//89 90//90
