# Exported from SharpOpenGl procedural mesh
o cryo_cruiser_mk2_26
# vertices 84
v 0 2.0957248 1.164338
v 1.429828 0 0
v 1.5436542 0 0.7868608
v 1.429828 0 0
v 1.5436542 0 0.7868608
v 0 0 -2.910845
v 0 2.0957248 1.164338
v 1.5436542 0 0.7868608
v 0.55060506 0 1.3238989
v 1.5436542 0 0.7868608
v 0.55060506 0 1.3238989
v 0 0 -2.910845
v 0 2.0957248 1.164338
v 0.55060506 0 1.3238989
v -0.14966002 0 1.4406084
v 0.55060506 0 1.3238989
v -0.14966002 0 1.4406084
v 0 0 -2.910845
v 0 2.0957248 1.164338
v -0.14966002 0 1.4406084
v -1.0685264 0 1.0999348
v -0.14966002 0 1.4406084
v -1.0685264 0 1.0999348
v 0 0 -2.910845
v 0 2.0957248 1.164338
v -1.0685264 0 1.0999348
v -1.6848966 0 0.41003966
v -1.0685264 0 1.0999348
v -1.6848966 0 0.41003966
v 0 0 -2.910845
v 0 2.0957248 1.164338
v -1.6848966 0 0.41003966
v -1.0975769 0 -0.4100399
v -1.6848966 0 0.41003966
v -1.0975769 0 -0.4100399
v 0 0 -2.910845
v 0 2.0957248 1.164338
v -1.0975769 0 -0.4100399
v -0.770971 0 -1.0999352
v -1.0975769 0 -0.4100399
v -0.770971 0 -1.0999352
v 0 0 -2.910845
v 0 2.0957248 1.164338
v -0.770971 0 -1.0999352
v -0.25343585 0 -1.4406085
v -0.770971 0 -1.0999352
v -0.25343585 0 -1.4406085
v 0 0 -2.910845
v 0 2.0957248 1.164338
v -0.25343585 0 -1.4406085
v 0.6613016 0 -1.3238988
v -0.25343585 0 -1.4406085
v 0.6613016 0 -1.3238988
v 0 0 -2.910845
v 0 2.0957248 1.164338
v 0.6613016 0 -1.3238988
v 0.87244385 0 -0.78686035
v 0.6613016 0 -1.3238988
v 0.87244385 0 -0.78686035
v 0 0 -2.910845
v 0 2.0957248 1.164338
v 0.87244385 0 -0.78686035
v 1.368959 0 9.484737E-07
v 0.87244385 0 -0.78686035
v 1.368959 0 9.484737E-07
v 0 0 -2.910845
v -1.429828 0.11328242 -3.609448
v -2.0916343 0 -5.0654216
v -0.7680219 0 -5.0654216
v -1.429828 0.46728998 -3.278545
v -1.8269118 0.11328242 -3.609448
v -1.0327443 0.11328242 -3.609448
v 0 0.11328242 -3.609448
v -0.66180617 0 -5.0654216
v 0.66180617 0 -5.0654216
v 0 0.46728998 -3.278545
v -0.39708373 0.11328242 -3.609448
v 0.39708373 0.11328242 -3.609448
v 1.429828 0.11328242 -3.609448
v 0.7680219 0 -5.0654216
v 2.0916343 0 -5.0654216
v 1.429828 0.46728998 -3.278545
v 1.0327443 0.11328242 -3.609448
v 1.8269118 0.11328242 -3.609448
vn -0.78994554 -0.602435 0.11427238
vn -0.78994554 -0.602435 0.11427238
vn -0.78994554 -0.602435 0.11427238
vn -0 -1 0
vn -0 -1 0
vn -0 -1 0
vn -0.4671634 -0.18850665 -0.86384237
vn -0.4671634 -0.18850665 -0.86384237
vn -0.4671634 -0.18850665 -0.86384237
vn -0 -1 0
vn -0 -1 0
vn -0 -1 0
vn -0.16325884 -0.117473125 -0.9795645
vn -0.16325884 -0.117473125 -0.9795645
vn -0.16325884 -0.117473125 -0.9795645
vn -0 -1 0
vn -0 -1 0
vn -0 -1 0
vn 0.34386358 -0.14682046 -0.9274705
vn 0.34386358 -0.14682046 -0.9274705
vn 0.34386358 -0.14682046 -0.9274705
vn 0 -1 -0
vn 0 -1 -0
vn 0 -1 -0
vn 0.7017028 -0.33850452 -0.62691945
vn 0.7017028 -0.33850452 -0.62691945
vn 0.7017028 -0.33850452 -0.62691945
vn 0 -1 -0
vn 0 -1 -0
vn 0 -1 -0
vn 0.61543554 -0.6534298 0.440759
vn 0.61543554 -0.6534298 0.440759
vn 0.61543554 -0.6534298 0.440759
vn 0 1 0
vn 0 1 0
vn 0 1 0
vn 0.707566 -0.6222093 0.3349714
vn 0.707566 -0.6222093 0.3349714
vn 0.707566 -0.6222093 0.3349714
vn 0 1 0
vn 0 1 0
vn 0 1 0
vn 0.36898747 -0.7413728 0.5605484
vn 0.36898747 -0.7413728 0.5605484
vn 0.36898747 -0.7413728 0.5605484
vn 0 1 0
vn 0 1 0
vn 0 1 0
vn -0.08032271 -0.77280027 0.6295458
vn -0.08032271 -0.77280027 0.6295458
vn -0.08032271 -0.77280027 0.6295458
vn -0 1 0
vn -0 1 0
vn -0 1 0
vn -0.75236106 -0.5886051 0.29579854
vn -0.75236106 -0.5886051 0.29579854
vn -0.75236106 -0.5886051 0.29579854
vn -0 -1 0
vn -0 -1 0
vn -0 -1 0
vn -0.6447239 -0.64716625 0.40682542
vn -0.6447239 -0.64716625 0.40682542
vn -0.6447239 -0.64716625 0.40682542
vn -0 0.99999994 0
vn -0 0.99999994 0
vn -0 0.99999994 0
vn 0 -0.9969869 0.07757083
vn 0 -0.9969869 0.07757083
vn 0 -0.9969869 0.07757083
vn 0 -0.6828651 0.7305445
vn 0 -0.6828651 0.7305445
vn 0 -0.6828651 0.7305445
vn 0 -0.99698687 0.07757083
vn 0 -0.99698687 0.07757083
vn 0 -0.99698687 0.07757083
vn 0 -0.6828651 0.7305445
vn 0 -0.6828651 0.7305445
vn 0 -0.6828651 0.7305445
vn 0 -0.9969869 0.07757083
vn 0 -0.9969869 0.07757083
vn 0 -0.9969869 0.07757083
vn 0 -0.6828651 0.7305445
vn 0 -0.6828651 0.7305445
vn 0 -0.6828651 0.7305445
f 1//1 2//2 3//3
f 4//4 5//5 6//6
f 7//7 8//8 9//9
f 10//10 11//11 12//12
f 13//13 14//14 15//15
f 16//16 17//17 18//18
f 19//19 20//20 21//21
f 22//22 23//23 24//24
f 25//25 26//26 27//27
f 28//28 29//29 30//30
f 31//31 32//32 33//33
f 34//34 35//35 36//36
f 37//37 38//38 39//39
f 40//40 41//41 42//42
f 43//43 44//44 45//45
f 46//46 47//47 48//48
f 49//49 50//50 51//51
f 52//52 53//53 54//54
f 55//55 56//56 57//57
f 58//58 59//59 60//60
f 61//61 62//62 63//63
f 64//64 65//65 66//66
f 67//67 68//68 69//69
f 70//70 71//71 72//72
f 73//73 74//74 75//75
f 76//76 77//77 78//78
f 79//79 80//80 81//81
f 82//82 83//83 84//84
