# Exported from SharpOpenGl procedural mesh
o cryo_cruiser_mk3_43
# vertices 84
v 0 2.2775905 1.4102906
v 1.5144155 0 0
v 1.6349754 0 0.9530759
v 1.5144155 0 0
v 1.6349754 0 0.9530759
v 0 0 -3.5257266
v 0 2.2775905 1.4102906
v 1.6349754 0 0.9530759
v 0.58317834 0 1.6035569
v 1.6349754 0 0.9530759
v 0.58317834 0 1.6035569
v 0 0 -3.5257266
v 0 2.2775905 1.4102906
v 0.58317834 0 1.6035569
v -0.15851377 0 1.7449199
v 0.58317834 0 1.6035569
v -0.15851377 0 1.7449199
v 0 0 -3.5257266
v 0 2.2775905 1.4102906
v -0.15851377 0 1.7449199
v -1.1317394 0 1.332283
v -0.15851377 0 1.7449199
v -1.1317394 0 1.332283
v 0 0 -3.5257266
v 0 2.2775905 1.4102906
v -1.1317394 0 1.332283
v -1.7845736 0 0.49665567
v -1.1317394 0 1.332283
v -1.7845736 0 0.49665567
v 0 0 -3.5257266
v 0 2.2775905 1.4102906
v -1.7845736 0 0.49665567
v -1.1625086 0 -0.49665597
v -1.7845736 0 0.49665567
v -1.1625086 0 -0.49665597
v 0 0 -3.5257266
v 0 2.2775905 1.4102906
v -1.1625086 0 -0.49665597
v -0.8165809 0 -1.3322835
v -1.1625086 0 -0.49665597
v -0.8165809 0 -1.3322835
v 0 0 -3.5257266
v 0 2.2775905 1.4102906
v -0.8165809 0 -1.3322835
v -0.2684289 0 -1.74492
v -0.8165809 0 -1.3322835
v -0.2684289 0 -1.74492
v 0 0 -3.5257266
v 0 2.2775905 1.4102906
v -0.2684289 0 -1.74492
v 0.7004236 0 -1.6035568
v -0.2684289 0 -1.74492
v 0.7004236 0 -1.6035568
v 0 0 -3.5257266
v 0 2.2775905 1.4102906
v 0.7004236 0 -1.6035568
v 0.9240569 0 -0.95307523
v 0.7004236 0 -1.6035568
v 0.9240569 0 -0.95307523
v 0 0 -3.5257266
v 0 2.2775905 1.4102906
v 0.9240569 0 -0.95307523
v 1.4499454 0 1.1488276E-06
v 0.9240569 0 -0.95307523
v 1.4499454 0 1.1488276E-06
v 0 0 -3.5257266
v -1.5144155 0.123113 -4.371901
v -2.2153735 0 -5.9140086
v -0.8134575 0 -5.9140086
v -1.5144155 0.5078411 -4.021422
v -1.9349903 0.123113 -4.371901
v -1.0938407 0.123113 -4.371901
v 0 0.123113 -4.371901
v -0.700958 0 -5.9140086
v 0.700958 0 -5.9140086
v 0 0.5078411 -4.021422
v -0.4205748 0.123113 -4.371901
v 0.4205748 0.123113 -4.371901
v 1.5144155 0.123113 -4.371901
v 0.8134575 0 -5.9140086
v 2.2153735 0 -5.9140086
v 1.5144155 0.5078411 -4.021422
v 1.0938407 0.123113 -4.371901
v 1.9349903 0.123113 -4.371901
vn -0.79848975 -0.5934746 0.10100547
vn -0.79848975 -0.5934746 0.10100547
vn -0.79848975 -0.5934746 0.10100547
vn -0 -1 0
vn -0 -1 0
vn -0 -1 0
vn -0.5150816 -0.20256 -0.8328627
vn -0.5150816 -0.20256 -0.8328627
vn -0.5150816 -0.20256 -0.8328627
vn -0 -1 0
vn -0 -1 0
vn -0 -1 0
vn -0.18563186 -0.13017695 -0.9739584
vn -0.18563186 -0.13017695 -0.9739584
vn -0.18563186 -0.13017695 -0.9739584
vn -0 -1 0
vn -0 -1 0
vn -0 -1 0
vn 0.38530204 -0.16033249 -0.90875506
vn 0.38530204 -0.16033249 -0.90875506
vn 0.38530204 -0.16033249 -0.90875506
vn 0 -1 -0
vn 0 -1 -0
vn 0 -1 -0
vn 0.73894113 -0.34740886 -0.5772981
vn 0.73894113 -0.34740886 -0.5772981
vn 0.73894113 -0.34740886 -0.5772981
vn 0 -1 -0
vn 0 -1 -0
vn 0 -1 -0
vn 0.63720053 -0.65934443 0.39904916
vn 0.63720053 -0.65934443 0.39904916
vn 0.63720053 -0.65934443 0.39904916
vn 0 1 0
vn 0 1 0
vn 0 1 0
vn 0.7243616 -0.6207902 0.2998665
vn 0.7243616 -0.6207902 0.2998665
vn 0.7243616 -0.6207902 0.2998665
vn 0 1 0
vn 0 1 0
vn 0 1 0
vn 0.38927826 -0.76226395 0.51712286
vn 0.38927826 -0.76226395 0.51712286
vn 0.38927826 -0.76226395 0.51712286
vn 0 1 0
vn 0 1 0
vn 0 1 0
vn -0.085782446 -0.80435586 0.5879227
vn -0.085782446 -0.80435586 0.5879227
vn -0.085782446 -0.80435586 0.5879227
vn -0 0.99999994 0
vn -0 0.99999994 0
vn -0 0.99999994 0
vn -0.7670682 -0.5848595 0.26371542
vn -0.7670682 -0.5848595 0.26371542
vn -0.7670682 -0.5848595 0.26371542
vn -0 -1 0
vn -0 -1 0
vn -0 -1 0
vn -0.66497123 -0.6505263 0.36691782
vn -0.66497123 -0.6505263 0.36691782
vn -0.66497123 -0.6505263 0.36691782
vn -0 1 0
vn -0 1 0
vn -0 1 0
vn 0 -0.99682844 0.07958105
vn 0 -0.99682844 0.07958105
vn 0 -0.99682844 0.07958105
vn 0 -0.6734366 0.7392451
vn 0 -0.6734366 0.7392451
vn 0 -0.6734366 0.7392451
vn 0 -0.99682844 0.07958105
vn 0 -0.99682844 0.07958105
vn 0 -0.99682844 0.07958105
vn 0 -0.6734365 0.7392451
vn 0 -0.6734365 0.7392451
vn 0 -0.6734365 0.7392451
vn 0 -0.99682844 0.07958105
vn 0 -0.99682844 0.07958105
vn 0 -0.99682844 0.07958105
vn 0 -0.6734366 0.7392451
vn 0 -0.6734366 0.7392451
vn 0 -0.6734366 0.7392451
f 1//1 2//2 3//3
f 4//4 5//5 6//6
f 7//7 8//8 9//9
f 10//10 11//11 12//12
f 13//13 14//14 15//15
f 16//16 17//17 18//18
f 19//19 20//20 21//21
f 22//22 23//23 24//24
f 25//25 26//26 27//27
f 28//28 29//29 30//30
f 31//31 32//32 33//33
f 34//34 35//35 36//36
f 37//37 38//38 39//39
f 40//40 41//41 42//42
f 43//43 44//44 45//45
f 46//46 47//47 48//48
f 49//49 50//50 51//51
f 52//52 53//53 54//54
f 55//55 56//56 57//57
f 58//58 59//59 60//60
f 61//61 62//62 63//63
f 64//64 65//65 66//66
f 67//67 68//68 69//69
f 70//70 71//71 72//72
f 73//73 74//74 75//75
f 76//76 77//77 78//78
f 79//79 80//80 81//81
f 82//82 83//83 84//84
