# Exported from SharpOpenGl procedural mesh
o cryo_scout_mk3_34
# vertices 78
v 0 0.37359843 0.37227315
v 0.27013034 0 0
v 0.29163492 0 0.25158256
v 0.27013034 0 0
v 0.29163492 0 0.25158256
v 0 0 -0.93068284
v 0 0.37359843 0.37227315
v 0.29163492 0 0.25158256
v 0.10402308 0 0.42328945
v 0.29163492 0 0.25158256
v 0.10402308 0 0.42328945
v 0 0 -0.93068284
v 0 0.37359843 0.37227315
v 0.10402308 0 0.42328945
v -0.028274525 0 0.4606049
v 0.10402308 0 0.42328945
v -0.028274525 0 0.4606049
v 0 0 -0.93068284
v 0 0.37359843 0.37227315
v -0.028274525 0 0.4606049
v -0.20187137 0 0.35168153
v -0.028274525 0 0.4606049
v -0.20187137 0 0.35168153
v 0 0 -0.93068284
v 0 0.37359843 0.37227315
v -0.20187137 0 0.35168153
v -0.31831914 0 0.13110174
v -0.20187137 0 0.35168153
v -0.31831914 0 0.13110174
v 0 0 -0.93068284
v 0 0.37359843 0.37227315
v -0.31831914 0 0.13110174
v -0.20735975 0 -0.13110183
v -0.31831914 0 0.13110174
v -0.20735975 0 -0.13110183
v 0 0 -0.93068284
v 0 0.37359843 0.37227315
v -0.20735975 0 -0.13110183
v -0.1456557 0 -0.35168168
v -0.20735975 0 -0.13110183
v -0.1456557 0 -0.35168168
v 0 0 -0.93068284
v 0 0.37359843 0.37227315
v -0.1456557 0 -0.35168168
v -0.047880378 0 -0.46060494
v -0.1456557 0 -0.35168168
v -0.047880378 0 -0.46060494
v 0 0 -0.93068284
v 0 0.37359843 0.37227315
v -0.047880378 0 -0.46060494
v 0.124936424 0 -0.42328942
v -0.047880378 0 -0.46060494
v 0.124936424 0 -0.42328942
v 0 0 -0.93068284
v 0 0.37359843 0.37227315
v 0.124936424 0 -0.42328942
v 0.16482648 0 -0.2515824
v 0.124936424 0 -0.42328942
v 0.16482648 0 -0.2515824
v 0 0 -0.93068284
v 0 0.37359843 0.37227315
v 0.16482648 0 -0.2515824
v 0.25863063 0 3.0325498E-07
v 0.16482648 0 -0.2515824
v 0.25863063 0 3.0325498E-07
v 0 0 -0.93068284
v -0.21610427 0.020194508 -1.1540468
v -0.28093556 0 -1.2966756
v -0.15127298 0 -1.2966756
v -0.21610427 0.08330235 -1.1216311
v -0.25500304 0.020194508 -1.1540468
v -0.1772055 0.020194508 -1.1540468
v 0.21610427 0.020194508 -1.1540468
v 0.15127298 0 -1.2966756
v 0.28093556 0 -1.2966756
v 0.21610427 0.08330235 -1.1216311
v 0.1772055 0.020194508 -1.1540468
v 0.25500304 0.020194508 -1.1540468
vn -0.7760261 -0.6272029 0.066332586
vn -0.7760261 -0.6272029 0.066332586
vn -0.7760261 -0.6272029 0.066332586
vn -0 -1 0
vn -0 -1 0
vn -0 -1 0
vn -0.648652 -0.27738833 -0.70873564
vn -0.648652 -0.27738833 -0.70873564
vn -0.648652 -0.27738833 -0.70873564
vn -0 -1 0
vn -0 -1 0
vn -0 -1 0
vn -0.26582912 -0.20271361 -0.942466
vn -0.26582912 -0.20271361 -0.942466
vn -0.26582912 -0.20271361 -0.942466
vn -0 -1 0
vn -0 -1 0
vn -0 -1 0
vn 0.5167561 -0.23383233 -0.8235809
vn 0.5167561 -0.23383233 -0.8235809
vn 0.5167561 -0.23383233 -0.8235809
vn 0 -0.99999994 -0
vn 0 -0.99999994 -0
vn 0 -0.99999994 -0
vn 0.805805 -0.4119646 -0.42539802
vn 0.805805 -0.4119646 -0.42539802
vn 0.805805 -0.4119646 -0.42539802
vn 0 -1 -0
vn 0 -1 -0
vn 0 -1 -0
vn 0.63950485 -0.71957976 0.27062586
vn 0.63950485 -0.71957976 0.27062586
vn 0.63950485 -0.71957976 0.27062586
vn 0 1 0
vn 0 1 0
vn 0 1 0
vn 0.7167095 -0.66793084 0.20048918
vn 0.7167095 -0.66793084 0.20048918
vn 0.7167095 -0.66793084 0.20048918
vn 0 1 0
vn 0 1 0
vn 0 1 0
vn 0.3971556 -0.84567696 0.35650784
vn 0.3971556 -0.84567696 0.35650784
vn 0.3971556 -0.84567696 0.35650784
vn 0 1 0
vn 0 1 0
vn 0 1 0
vn -0.08894074 -0.90687615 0.41190425
vn -0.08894074 -0.90687615 0.41190425
vn -0.08894074 -0.90687615 0.41190425
vn -0 1 0
vn -0 1 0
vn -0 1 0
vn -0.75779164 -0.628299 0.17604616
vn -0.75779164 -0.628299 0.17604616
vn -0.75779164 -0.628299 0.17604616
vn -0 -1 0
vn -0 -1 0
vn -0 -1 0
vn -0.6636215 -0.70596206 0.24743529
vn -0.6636215 -0.70596206 0.24743529
vn -0.6636215 -0.70596206 0.24743529
vn -0 1 0
vn -0 1 0
vn -0 1 0
vn 0 -0.9901247 0.14018966
vn 0 -0.9901247 0.14018966
vn 0 -0.9901247 0.14018966
vn 0 -0.45690396 0.889516
vn 0 -0.45690396 0.889516
vn 0 -0.45690396 0.889516
vn 0 -0.9901247 0.14018966
vn 0 -0.9901247 0.14018966
vn 0 -0.9901247 0.14018966
vn 0 -0.45690396 0.889516
vn 0 -0.45690396 0.889516
vn 0 -0.45690396 0.889516
f 1//1 2//2 3//3
f 4//4 5//5 6//6
f 7//7 8//8 9//9
f 10//10 11//11 12//12
f 13//13 14//14 15//15
f 16//16 17//17 18//18
f 19//19 20//20 21//21
f 22//22 23//23 24//24
f 25//25 26//26 27//27
f 28//28 29//29 30//30
f 31//31 32//32 33//33
f 34//34 35//35 36//36
f 37//37 38//38 39//39
f 40//40 41//41 42//42
f 43//43 44//44 45//45
f 46//46 47//47 48//48
f 49//49 50//50 51//51
f 52//52 53//53 54//54
f 55//55 56//56 57//57
f 58//58 59//59 60//60
f 61//61 62//62 63//63
f 64//64 65//65 66//66
f 67//67 68//68 69//69
f 70//70 71//71 72//72
f 73//73 74//74 75//75
f 76//76 77//77 78//78
