# Exported from SharpOpenGl procedural mesh
o cryo_corvette_mk1_04
# vertices 78
v 0 0.85175735 0.5422841
v 0.5715163 0 0
v 0.6170137 0 0.36647612
v 0.5715163 0 0
v 0.6170137 0 0.36647612
v 0 0 -1.3557101
v 0 0.85175735 0.5422841
v 0.6170137 0 0.36647612
v 0.22008221 0 0.61659867
v 0.6170137 0 0.36647612
v 0.22008221 0 0.61659867
v 0 0 -1.3557101
v 0 0.85175735 0.5422841
v 0.22008221 0 0.61659867
v -0.059820578 0 0.6709555
v 0.22008221 0 0.61659867
v -0.059820578 0 0.6709555
v 0 0 -1.3557101
v 0 0.85175735 0.5422841
v -0.059820578 0 0.6709555
v -0.42710042 0 0.51228863
v -0.059820578 0 0.6709555
v -0.42710042 0 0.51228863
v 0 0 -1.3557101
v 0 0.85175735 0.5422841
v -0.42710042 0 0.51228863
v -0.67346966 0 0.19097373
v -0.42710042 0 0.51228863
v -0.67346966 0 0.19097373
v 0 0 -1.3557101
v 0 0.85175735 0.5422841
v -0.67346966 0 0.19097373
v -0.4387122 0 -0.19097385
v -0.67346966 0 0.19097373
v -0.4387122 0 -0.19097385
v 0 0 -1.3557101
v 0 0.85175735 0.5422841
v -0.4387122 0 -0.19097385
v -0.30816463 0 -0.5122888
v -0.4387122 0 -0.19097385
v -0.30816463 0 -0.5122888
v 0 0 -1.3557101
v 0 0.85175735 0.5422841
v -0.30816463 0 -0.5122888
v -0.10130079 0 -0.67095554
v -0.30816463 0 -0.5122888
v -0.10130079 0 -0.67095554
v 0 0 -1.3557101
v 0 0.85175735 0.5422841
v -0.10130079 0 -0.67095554
v 0.2643287 0 -0.61659867
v -0.10130079 0 -0.67095554
v 0.2643287 0 -0.61659867
v 0 0 -1.3557101
v 0 0.85175735 0.5422841
v 0.2643287 0 -0.61659867
v 0.34872437 0 -0.36647588
v 0.2643287 0 -0.61659867
v 0.34872437 0 -0.36647588
v 0 0 -1.3557101
v 0 0.85175735 0.5422841
v 0.34872437 0 -0.36647588
v 0.5471863 0 4.4174647E-07
v 0.34872437 0 -0.36647588
v 0.5471863 0 4.4174647E-07
v 0 0 -1.3557101
v -0.45721304 0.046040934 -1.6810806
v -0.65316147 0 -2.1121671
v -0.26126462 0 -2.1121671
v -0.45721304 0.18991886 -1.5831064
v -0.57478213 0.046040934 -1.6810806
v -0.33964399 0.046040934 -1.6810806
v 0.45721304 0.046040934 -1.6810806
v 0.26126462 0 -2.1121671
v 0.65316147 0 -2.1121671
v 0.45721304 0.18991886 -1.5831064
v 0.33964399 0.046040934 -1.6810806
v 0.57478213 0.046040934 -1.6810806
vn -0.7960735 -0.59707564 0.098831244
vn -0.7960735 -0.59707564 0.098831244
vn -0.7960735 -0.59707564 0.098831244
vn -0 -1 0
vn -0 -1 0
vn -0 -1 0
vn -0.5215774 -0.20698537 -0.82771623
vn -0.5215774 -0.20698537 -0.82771623
vn -0.5215774 -0.20698537 -0.82771623
vn -0 -1 0
vn -0 -1 0
vn -0 -1 0
vn -0.18892595 -0.13369538 -0.97284764
vn -0.18892595 -0.13369538 -0.97284764
vn -0.18892595 -0.13369538 -0.97284764
vn -0 -1 0
vn -0 -1 0
vn -0 -1 0
vn 0.39119354 -0.1642688 -0.9055294
vn 0.39119354 -0.1642688 -0.9055294
vn 0.39119354 -0.1642688 -0.9055294
vn 0 -1 -0
vn 0 -1 -0
vn 0 -1 -0
vn 0.7426796 -0.35235128 -0.5694519
vn 0.7426796 -0.35235128 -0.5694519
vn 0.7426796 -0.35235128 -0.5694519
vn 0 -1 -0
vn 0 -1 -0
vn 0 -1 -0
vn 0.63652885 -0.66465706 0.39123142
vn 0.63652885 -0.66465706 0.39123142
vn 0.63652885 -0.66465706 0.39123142
vn 0 0.99999994 0
vn 0 0.99999994 0
vn 0 0.99999994 0
vn 0.72300494 -0.6252793 0.29375094
vn 0.72300494 -0.6252793 0.29375094
vn 0.72300494 -0.6252793 0.29375094
vn 0 1 0
vn 0 1 0
vn 0 1 0
vn 0.38911992 -0.76890314 0.50732005
vn 0.38911992 -0.76890314 0.50732005
vn 0.38911992 -0.76890314 0.50732005
vn 0 1 0
vn 0 1 0
vn 0 1 0
vn -0.085819095 -0.8120388 0.577259
vn -0.085819095 -0.8120388 0.577259
vn -0.085819095 -0.8120388 0.577259
vn -0 1 0
vn -0 1 0
vn -0 1 0
vn -0.7656486 -0.58910197 0.25834283
vn -0.7656486 -0.58910197 0.25834283
vn -0.7656486 -0.58910197 0.25834283
vn -0 -1 0
vn -0 -1 0
vn -0 -1 0
vn -0.66404057 -0.6555411 0.35960522
vn -0.66404057 -0.6555411 0.35960522
vn -0.66404057 -0.6555411 0.35960522
vn -0 1 0
vn -0 1 0
vn -0 1 0
vn 0 -0.994345 0.1061981
vn 0 -0.994345 0.1061981
vn 0 -0.994345 0.1061981
vn 0 -0.56284887 0.82655984
vn 0 -0.56284887 0.82655984
vn 0 -0.56284887 0.82655984
vn 0 -0.994345 0.1061981
vn 0 -0.994345 0.1061981
vn 0 -0.994345 0.1061981
vn 0 -0.56284887 0.82655984
vn 0 -0.56284887 0.82655984
vn 0 -0.56284887 0.82655984
f 1//1 2//2 3//3
f 4//4 5//5 6//6
f 7//7 8//8 9//9
f 10//10 11//11 12//12
f 13//13 14//14 15//15
f 16//16 17//17 18//18
f 19//19 20//20 21//21
f 22//22 23//23 24//24
f 25//25 26//26 27//27
f 28//28 29//29 30//30
f 31//31 32//32 33//33
f 34//34 35//35 36//36
f 37//37 38//38 39//39
f 40//40 41//41 42//42
f 43//43 44//44 45//45
f 46//46 47//47 48//48
f 49//49 50//50 51//51
f 52//52 53//53 54//54
f 55//55 56//56 57//57
f 58//58 59//59 60//60
f 61//61 62//62 63//63
f 64//64 65//65 66//66
f 67//67 68//68 69//69
f 70//70 71//71 72//72
f 73//73 74//74 75//75
f 76//76 77//77 78//78
