# Exported from SharpOpenGl procedural mesh
o cryo_destroyer_mk1_08
# vertices 84
v 0 1.3342534 0.93199265
v 0.7368645 0 0
v 0.79552495 0 0.62984157
v 0.7368645 0 0
v 0.79552495 0 0.62984157
v 0 0 -2.3299816
v 0 1.3342534 0.93199265
v 0.79552495 0 0.62984157
v 0.2837553 0 1.0597129
v 0.79552495 0 0.62984157
v 0.2837553 0 1.0597129
v 0 0 -2.3299816
v 0 1.3342534 0.93199265
v 0.2837553 0 1.0597129
v -0.07712756 0 1.1531328
v 0.2837553 0 1.0597129
v -0.07712756 0 1.1531328
v 0 0 -2.3299816
v 0 1.3342534 0.93199265
v -0.07712756 0 1.1531328
v -0.5506669 0 0.8804412
v -0.07712756 0 1.1531328
v -0.5506669 0 0.8804412
v 0 0 -2.3299816
v 0 1.3342534 0.93199265
v -0.5506669 0 0.8804412
v -0.86831445 0 0.32821563
v -0.5506669 0 0.8804412
v -0.86831445 0 0.32821563
v 0 0 -2.3299816
v 0 1.3342534 0.93199265
v -0.86831445 0 0.32821563
v -0.56563824 0 -0.32821584
v -0.86831445 0 0.32821563
v -0.56563824 0 -0.32821584
v 0 0 -2.3299816
v 0 1.3342534 0.93199265
v -0.56563824 0 -0.32821584
v -0.39732128 0 -0.8804415
v -0.56563824 0 -0.32821584
v -0.39732128 0 -0.8804415
v 0 0 -2.3299816
v 0 1.3342534 0.93199265
v -0.39732128 0 -0.8804415
v -0.13060862 0 -1.1531329
v -0.39732128 0 -0.8804415
v -0.13060862 0 -1.1531329
v 0 0 -2.3299816
v 0 1.3342534 0.93199265
v -0.13060862 0 -1.1531329
v 0.34080294 0 -1.0597129
v -0.13060862 0 -1.1531329
v 0.34080294 0 -1.0597129
v 0 0 -2.3299816
v 0 1.3342534 0.93199265
v 0.34080294 0 -1.0597129
v 0.44961548 0 -0.62984115
v 0.34080294 0 -1.0597129
v 0.44961548 0 -0.62984115
v 0 0 -2.3299816
v 0 1.3342534 0.93199265
v 0.44961548 0 -0.62984115
v 0.7054955 0 7.592044E-07
v 0.44961548 0 -0.62984115
v 0.7054955 0 7.592044E-07
v 0 0 -2.3299816
v -0.7368645 0.07212181 -2.889177
v -1.0526636 0 -3.583935
v -0.42106542 0 -3.583935
v -0.7368645 0.29750246 -2.7312775
v -0.926344 0.07212181 -2.889177
v -0.54738504 0.07212181 -2.889177
v 0 0.07212181 -2.889177
v -0.3157991 0 -3.583935
v 0.3157991 0 -3.583935
v 0 0.29750246 -2.7312775
v -0.18947946 0.07212181 -2.889177
v 0.18947946 0.07212181 -2.889177
v 0.7368645 0.07212181 -2.889177
v 0.42106542 0 -3.583935
v 1.0526636 0 -3.583935
v 0.7368645 0.29750246 -2.7312775
v 0.54738504 0.07212181 -2.889177
v 0.926344 0.07212181 -2.889177
vn -0.8482614 -0.52365166 0.079003006
vn -0.8482614 -0.52365166 0.079003006
vn -0.8482614 -0.52365166 0.079003006
vn -0 -1 0
vn -0 -1 0
vn -0 -1 0
vn -0.62943876 -0.20559423 -0.7493583
vn -0.62943876 -0.20559423 -0.7493583
vn -0.62943876 -0.20559423 -0.7493583
vn -0 -0.99999994 0
vn -0 -0.99999994 0
vn -0 -0.99999994 0
vn -0.24797663 -0.14443493 -0.95793843
vn -0.24797663 -0.14443493 -0.95793843
vn -0.24797663 -0.14443493 -0.95793843
vn -0 -1 0
vn -0 -1 0
vn -0 -1 0
vn 0.49176916 -0.16996568 -0.8539759
vn 0.49176916 -0.16996568 -0.8539759
vn 0.49176916 -0.16996568 -0.8539759
vn 0 -1 -0
vn 0 -1 -0
vn 0 -1 -0
vn 0.8210652 -0.32061848 -0.47228768
vn 0.8210652 -0.32061848 -0.47228768
vn 0.8210652 -0.32061848 -0.47228768
vn 0 -1 -0
vn 0 -1 -0
vn 0 -1 -0
vn 0.7158862 -0.615262 0.33009043
vn 0.7158862 -0.615262 0.33009043
vn 0.7158862 -0.615262 0.33009043
vn 0 1 0
vn 0 1 0
vn 0 1 0
vn 0.7906714 -0.5628148 0.2409946
vn 0.7906714 -0.5628148 0.2409946
vn 0.7906714 -0.5628148 0.2409946
vn 0 1 0
vn 0 1 0
vn 0 1 0
vn 0.46616223 -0.75816226 0.45594174
vn 0.46616223 -0.75816226 0.45594174
vn 0.46616223 -0.75816226 0.45594174
vn 0 1 0
vn 0 1 0
vn 0 1 0
vn -0.10713885 -0.8344044 0.540639
vn -0.10713885 -0.8344044 0.540639
vn -0.10713885 -0.8344044 0.540639
vn -0 1 0
vn -0 1 0
vn -0 1 0
vn -0.82615846 -0.5231915 0.20912382
vn -0.82615846 -0.5231915 0.20912382
vn -0.82615846 -0.5231915 0.20912382
vn -0 -1 0
vn -0 -1 0
vn -0 -1 0
vn -0.7401805 -0.6014223 0.30070618
vn -0.7401805 -0.6014223 0.30070618
vn -0.7401805 -0.6014223 0.30070618
vn -0 1 0
vn -0 1 0
vn -0 1 0
vn 0 -0.9946551 0.103253685
vn 0 -0.9946551 0.103253685
vn 0 -0.9946551 0.103253685
vn 0 -0.57378703 0.8190045
vn 0 -0.57378703 0.8190045
vn 0 -0.57378703 0.8190045
vn 0 -0.9946551 0.103253685
vn 0 -0.9946551 0.103253685
vn 0 -0.9946551 0.103253685
vn 0 -0.57378703 0.81900454
vn 0 -0.57378703 0.81900454
vn 0 -0.57378703 0.81900454
vn 0 -0.9946551 0.103253685
vn 0 -0.9946551 0.103253685
vn 0 -0.9946551 0.103253685
vn 0 -0.57378703 0.8190045
vn 0 -0.57378703 0.8190045
vn 0 -0.57378703 0.8190045
f 1//1 2//2 3//3
f 4//4 5//5 6//6
f 7//7 8//8 9//9
f 10//10 11//11 12//12
f 13//13 14//14 15//15
f 16//16 17//17 18//18
f 19//19 20//20 21//21
f 22//22 23//23 24//24
f 25//25 26//26 27//27
f 28//28 29//29 30//30
f 31//31 32//32 33//33
f 34//34 35//35 36//36
f 37//37 38//38 39//39
f 40//40 41//41 42//42
f 43//43 44//44 45//45
f 46//46 47//47 48//48
f 49//49 50//50 51//51
f 52//52 53//53 54//54
f 55//55 56//56 57//57
f 58//58 59//59 60//60
f 61//61 62//62 63//63
f 64//64 65//65 66//66
f 67//67 68//68 69//69
f 70//70 71//71 72//72
f 73//73 74//74 75//75
f 76//76 77//77 78//78
f 79//79 80//80 81//81
f 82//82 83//83 84//84
