# Exported from SharpOpenGl procedural mesh
o cryo_transport_mk1_13
# vertices 84
v 0 1.5116019 0.767379
v 1.2023668 0 0
v 1.2980852 0 0.5185955
v 1.2023668 0 0
v 1.2980852 0 0.5185955
v 0 0 -1.9184475
v 0 1.5116019 0.767379
v 1.2980852 0 0.5185955
v 0.46301317 0 0.87254065
v 1.2980852 0 0.5185955
v 0.46301317 0 0.87254065
v 0 0 -1.9184475
v 0 1.5116019 0.767379
v 0.46301317 0 0.87254065
v -0.12585166 0 0.9494602
v 0.46301317 0 0.87254065
v -0.12585166 0 0.9494602
v 0 0 -1.9184475
v 0 1.5116019 0.767379
v -0.12585166 0 0.9494602
v -0.898542 0 0.72493285
v -0.12585166 0 0.9494602
v -0.898542 0 0.72493285
v 0 0 -1.9184475
v 0 1.5116019 0.767379
v -0.898542 0 0.72493285
v -1.4168583 0 0.2702444
v -0.898542 0 0.72493285
v -1.4168583 0 0.2702444
v 0 0 -1.9184475
v 0 1.5116019 0.767379
v -1.4168583 0 0.2702444
v -0.9229711 0 -0.27024457
v -1.4168583 0 0.2702444
v -0.9229711 0 -0.27024457
v 0 0 -1.9184475
v 0 1.5116019 0.767379
v -0.9229711 0 -0.27024457
v -0.64832264 0 -0.72493315
v -0.9229711 0 -0.27024457
v -0.64832264 0 -0.72493315
v 0 0 -1.9184475
v 0 1.5116019 0.767379
v -0.64832264 0 -0.72493315
v -0.21311854 0 -0.94946027
v -0.64832264 0 -0.72493315
v -0.21311854 0 -0.94946027
v 0 0 -1.9184475
v 0 1.5116019 0.767379
v -0.21311854 0 -0.94946027
v 0.5560998 0 -0.8725406
v -0.21311854 0 -0.94946027
v 0.5560998 0 -0.8725406
v 0 0 -1.9184475
v 0 1.5116019 0.767379
v 0.5560998 0 -0.8725406
v 0.73365295 0 -0.51859516
v 0.5560998 0 -0.8725406
v 0.73365295 0 -0.51859516
v 0 0 -1.9184475
v 0 1.5116019 0.767379
v 0.73365295 0 -0.51859516
v 1.151181 0 6.251096E-07
v 0.73365295 0 -0.51859516
v 1.151181 0 6.251096E-07
v 0 0 -1.9184475
v -0.9618935 0.08170821 -2.378875
v -1.4153576 0 -3.3764958
v -0.5084294 0 -3.3764958
v -0.9618935 0.33704638 -2.152143
v -1.233972 0.08170821 -2.378875
v -0.68981504 0.08170821 -2.378875
v 0.9618935 0.08170821 -2.378875
v 0.5084294 0 -3.3764958
v 1.4153576 0 -3.3764958
v 0.9618935 0.33704638 -2.152143
v 0.68981504 0.08170821 -2.378875
v 1.233972 0.08170821 -2.378875
v -0.37788674 0.388114 -0.19184475
v -0.6183601 0.14298937 -0.39796478
v -0.13741337 0.14298937 -0.39796478
v 0.37788674 0.388114 -0.43231812
v 0.13741337 0.14298937 -0.63843817
v 0.6183601 0.14298937 -0.63843817
vn -0.7403121 -0.65823025 0.13664114
vn -0.7403121 -0.65823025 0.13664114
vn -0.7403121 -0.65823025 0.13664114
vn -0 -1 0
vn -0 -1 0
vn -0 -1 0
vn -0.38382873 -0.18056986 -0.9055771
vn -0.38382873 -0.18056986 -0.9055771
vn -0.38382873 -0.18056986 -0.9055771
vn -0 -1 0
vn -0 -1 0
vn -0 -1 0
vn -0.12876521 -0.1080216 -0.9857742
vn -0.12876521 -0.1080216 -0.9857742
vn -0.12876521 -0.1080216 -0.9857742
vn -0 -0.99999994 0
vn -0 -0.99999994 0
vn -0 -0.99999994 0
vn 0.2763835 -0.13758226 -0.95114845
vn 0.2763835 -0.13758226 -0.95114845
vn 0.2763835 -0.13758226 -0.95114845
vn 0 -1 -0
vn 0 -1 -0
vn 0 -1 -0
vn 0.6183009 -0.34774515 -0.7048243
vn 0.6183009 -0.34774515 -0.7048243
vn 0.6183009 -0.34774515 -0.7048243
vn 0 -1 -0
vn 0 -1 -0
vn 0 -1 -0
vn 0.5449569 -0.67457235 0.49796996
vn 0.5449569 -0.67457235 0.49796996
vn 0.5449569 -0.67457235 0.49796996
vn 0 0.99999994 0
vn 0 0.99999994 0
vn 0 0.99999994 0
vn 0.6433631 -0.65959257 0.3886148
vn 0.6433631 -0.65959257 0.3886148
vn 0.6433631 -0.65959257 0.3886148
vn 0 1 0
vn 0 1 0
vn 0 1 0
vn 0.31243512 -0.7318718 0.60559726
vn 0.31243512 -0.7318718 0.60559726
vn 0.31243512 -0.7318718 0.60559726
vn 0 1 0
vn 0 1 0
vn 0 1 0
vn -0.06639759 -0.7447851 0.66399294
vn -0.06639759 -0.7447851 0.66399294
vn -0.06639759 -0.7447851 0.66399294
vn -0 1 0
vn -0 1 0
vn -0 1 0
vn -0.69277763 -0.6318904 0.34752512
vn -0.69277763 -0.6318904 0.34752512
vn -0.69277763 -0.6318904 0.34752512
vn -0 -1 0
vn -0 -1 0
vn -0 -1 0
vn -0.57564735 -0.6736722 0.46346095
vn -0.57564735 -0.6736722 0.46346095
vn -0.57564735 -0.6736722 0.46346095
vn -0 1 0
vn -0 1 0
vn -0 1 0
vn 0 -0.9966627 0.08162973
vn 0 -0.9966627 0.08162973
vn 0 -0.9966627 0.08162973
vn 0 -0.6639789 0.74775136
vn 0 -0.6639789 0.74775136
vn 0 -0.6639789 0.74775136
vn 0 -0.9966627 0.08162973
vn 0 -0.9966627 0.08162973
vn 0 -0.9966627 0.08162973
vn 0 -0.6639789 0.74775136
vn 0 -0.6639789 0.74775136
vn 0 -0.6639789 0.74775136
vn 0 -0.6435862 0.7653736
vn 0 -0.6435862 0.7653736
vn 0 -0.6435862 0.7653736
vn 0 -0.6435862 0.7653736
vn 0 -0.6435862 0.7653736
vn 0 -0.6435862 0.7653736
f 1//1 2//2 3//3
f 4//4 5//5 6//6
f 7//7 8//8 9//9
f 10//10 11//11 12//12
f 13//13 14//14 15//15
f 16//16 17//17 18//18
f 19//19 20//20 21//21
f 22//22 23//23 24//24
f 25//25 26//26 27//27
f 28//28 29//29 30//30
f 31//31 32//32 33//33
f 34//34 35//35 36//36
f 37//37 38//38 39//39
f 40//40 41//41 42//42
f 43//43 44//44 45//45
f 46//46 47//47 48//48
f 49//49 50//50 51//51
f 52//52 53//53 54//54
f 55//55 56//56 57//57
f 58//58 59//59 60//60
f 61//61 62//62 63//63
f 64//64 65//65 66//66
f 67//67 68//68 69//69
f 70//70 71//71 72//72
f 73//73 74//74 75//75
f 76//76 77//77 78//78
f 79//79 80//80 81//81
f 82//82 83//83 84//84
