# Exported from SharpOpenGl procedural mesh
o cryo_dreadnought_mk3_45
# vertices 84
v 0 3.93285 1.9086857
v 2.395544 0 0
v 2.586249 0 1.2898917
v 2.395544 0 0
v 2.586249 0 1.2898917
v 0 0 -4.771714
v 0 3.93285 1.9086857
v 2.586249 0 1.2898917
v 0.92248756 0 2.170252
v 2.586249 0 1.2898917
v 0.92248756 0 2.170252
v 0 0 -4.771714
v 0 3.93285 1.9086857
v 0.92248756 0 2.170252
v -0.25074145 0 2.3615725
v 0.92248756 0 2.170252
v -0.25074145 0 2.3615725
v 0 0 -4.771714
v 0 3.93285 1.9086857
v -0.25074145 0 2.3615725
v -1.7902166 0 1.8031102
v -0.25074145 0 2.3615725
v -1.7902166 0 1.8031102
v 0 0 -4.771714
v 0 3.93285 1.9086857
v -1.7902166 0 1.8031102
v -2.8228874 0 0.6721732
v -1.7902166 0 1.8031102
v -2.8228874 0 0.6721732
v 0 0 -4.771714
v 0 3.93285 1.9086857
v -2.8228874 0 0.6721732
v -1.838888 0 -0.6721736
v -2.8228874 0 0.6721732
v -1.838888 0 -0.6721736
v 0 0 -4.771714
v 0 3.93285 1.9086857
v -1.838888 0 -0.6721736
v -1.2916902 0 -1.803111
v -1.838888 0 -0.6721736
v -1.2916902 0 -1.803111
v 0 0 -4.771714
v 0 3.93285 1.9086857
v -1.2916902 0 -1.803111
v -0.42460823 0 -2.3615727
v -1.2916902 0 -1.803111
v -0.42460823 0 -2.3615727
v 0 0 -4.771714
v 0 3.93285 1.9086857
v -0.42460823 0 -2.3615727
v 1.1079494 0 -2.1702518
v -0.42460823 0 -2.3615727
v 1.1079494 0 -2.1702518
v 0 0 -4.771714
v 0 3.93285 1.9086857
v 1.1079494 0 -2.1702518
v 1.4616987 0 -1.2898909
v 1.1079494 0 -2.1702518
v 1.4616987 0 -1.2898909
v 0 0 -4.771714
v 0 3.93285 1.9086857
v 1.4616987 0 -1.2898909
v 2.2935636 0 1.5548219E-06
v 1.4616987 0 -1.2898909
v 2.2935636 0 1.5548219E-06
v 0 0 -4.771714
v -2.395544 0.21258648 -5.9169254
v -3.6275382 0 -8.627313
v -1.1635499 0 -8.627313
v -2.395544 0.8769192 -5.300928
v -3.1347406 0.21258648 -5.9169254
v -1.6563475 0.21258648 -5.9169254
v 0 0.21258648 -5.9169254
v -1.2319942 0 -8.627313
v 1.2319942 0 -8.627313
v 0 0.8769192 -5.300928
v -0.73919654 0.21258648 -5.9169254
v 0.73919654 0.21258648 -5.9169254
v 2.395544 0.21258648 -5.9169254
v 1.1635499 0 -8.627313
v 3.6275382 0 -8.627313
v 2.395544 0.8769192 -5.300928
v 1.6563475 0.21258648 -5.9169254
v 3.1347406 0.21258648 -5.9169254
vn -0.82049 -0.55864197 0.12130599
vn -0.82049 -0.55864197 0.12130599
vn -0.82049 -0.55864197 0.12130599
vn -0 -1 0
vn -0 -1 0
vn -0 -1 0
vn -0.46119854 -0.16614717 -0.87160265
vn -0.46119854 -0.16614717 -0.87160265
vn -0.46119854 -0.16614717 -0.87160265
vn -0 -1 0
vn -0 -1 0
vn -0 -1 0
vn -0.16009234 -0.10284418 -0.9817298
vn -0.16009234 -0.10284418 -0.9817298
vn -0.16009234 -0.10284418 -0.9817298
vn -0 -1 0
vn -0 -1 0
vn -0 -1 0
vn 0.3381712 -0.12890929 -0.9322138
vn 0.3381712 -0.12890929 -0.9322138
vn 0.3381712 -0.12890929 -0.9322138
vn 0 -1 -0
vn 0 -1 -0
vn 0 -1 -0
vn 0.7037264 -0.30308354 -0.6425803
vn 0.7037264 -0.30308354 -0.6425803
vn 0.7037264 -0.30308354 -0.6425803
vn 0 -1 -0
vn 0 -1 -0
vn 0 -1 -0
vn 0.64093685 -0.6075454 0.46913597
vn 0.64093685 -0.6075454 0.46913597
vn 0.64093685 -0.6075454 0.46913597
vn 0 1 0
vn 0 1 0
vn 0 1 0
vn 0.7351224 -0.5771338 0.35568485
vn 0.7351224 -0.5771338 0.35568485
vn 0.7351224 -0.5771338 0.35568485
vn 0 1 0
vn 0 1 0
vn 0 1 0
vn 0.3884163 -0.6967389 0.6030653
vn 0.3884163 -0.6967389 0.6030653
vn 0.3884163 -0.6967389 0.6030653
vn 0 1 0
vn 0 1 0
vn 0 1 0
vn -0.084834374 -0.72870004 0.6795582
vn -0.084834374 -0.72870004 0.6795582
vn -0.084834374 -0.72870004 0.6795582
vn -0 1 0
vn -0 1 0
vn -0 1 0
vn -0.7786605 -0.54386747 0.31288368
vn -0.7786605 -0.54386747 0.31288368
vn -0.7786605 -0.54386747 0.31288368
vn -0 -1 0
vn -0 -1 0
vn -0 -1 0
vn -0.6713033 -0.60160047 0.43293047
vn -0.6713033 -0.60160047 0.43293047
vn -0.6713033 -0.60160047 0.43293047
vn -0 1 0
vn -0 1 0
vn -0 1 0
vn 0 -0.99693817 0.07819383
vn 0 -0.99693817 0.07819383
vn 0 -0.99693817 0.07819383
vn 0 -0.6799275 0.73327935
vn 0 -0.6799275 0.73327935
vn 0 -0.6799275 0.73327935
vn 0 -0.99693817 0.07819383
vn 0 -0.99693817 0.07819383
vn 0 -0.99693817 0.07819383
vn 0 -0.6799275 0.73327935
vn 0 -0.6799275 0.73327935
vn 0 -0.6799275 0.73327935
vn 0 -0.99693817 0.07819383
vn 0 -0.99693817 0.07819383
vn 0 -0.99693817 0.07819383
vn 0 -0.6799275 0.73327935
vn 0 -0.6799275 0.73327935
vn 0 -0.6799275 0.73327935
f 1//1 2//2 3//3
f 4//4 5//5 6//6
f 7//7 8//8 9//9
f 10//10 11//11 12//12
f 13//13 14//14 15//15
f 16//16 17//17 18//18
f 19//19 20//20 21//21
f 22//22 23//23 24//24
f 25//25 26//26 27//27
f 28//28 29//29 30//30
f 31//31 32//32 33//33
f 34//34 35//35 36//36
f 37//37 38//38 39//39
f 40//40 41//41 42//42
f 43//43 44//44 45//45
f 46//46 47//47 48//48
f 49//49 50//50 51//51
f 52//52 53//53 54//54
f 55//55 56//56 57//57
f 58//58 59//59 60//60
f 61//61 62//62 63//63
f 64//64 65//65 66//66
f 67//67 68//68 69//69
f 70//70 71//71 72//72
f 73//73 74//74 75//75
f 76//76 77//77 78//78
f 79//79 80//80 81//81
f 82//82 83//83 84//84
