# Exported from SharpOpenGl procedural mesh
o cryo_carrier_mk1_10
# vertices 84
v 0 2.2323275 0.9832846
v 1.4350942 0 0
v 1.5493395 0 0.6645047
v 1.4350942 0 0
v 1.5493395 0 0.6645047
v 0 0 -2.4582114
v 0 2.2323275 0.9832846
v 1.5493395 0 0.6645047
v 0.5526329 0 1.1180339
v 1.5493395 0 0.6645047
v 0.5526329 0 1.1180339
v 0 0 -2.4582114
v 0 2.2323275 0.9832846
v 0.5526329 0 1.1180339
v -0.15021123 0 1.2165952
v 0.5526329 0 1.1180339
v -0.15021123 0 1.2165952
v 0 0 -2.4582114
v 0 2.2323275 0.9832846
v -0.15021123 0 1.2165952
v -1.0724617 0 0.928896
v -0.15021123 0 1.2165952
v -1.0724617 0 0.928896
v 0 0 -2.4582114
v 0 2.2323275 0.9832846
v -1.0724617 0 0.928896
v -1.691102 0 0.34627888
v -1.0724617 0 0.928896
v -1.691102 0 0.34627888
v 0 0 -2.4582114
v 0 2.2323275 0.9832846
v -1.691102 0 0.34627888
v -1.1016192 0 -0.34627908
v -1.691102 0 0.34627888
v -1.1016192 0 -0.34627908
v 0 0 -2.4582114
v 0 2.2323275 0.9832846
v -1.1016192 0 -0.34627908
v -0.77381045 0 -0.92889637
v -1.1016192 0 -0.34627908
v -0.77381045 0 -0.92889637
v 0 0 -2.4582114
v 0 2.2323275 0.9832846
v -0.77381045 0 -0.92889637
v -0.2543693 0 -1.2165953
v -0.77381045 0 -0.92889637
v -0.2543693 0 -1.2165953
v 0 0 -2.4582114
v 0 2.2323275 0.9832846
v -0.2543693 0 -1.2165953
v 0.6637372 0 -1.1180339
v -0.2543693 0 -1.2165953
v 0.6637372 0 -1.1180339
v 0 0 -2.4582114
v 0 2.2323275 0.9832846
v 0.6637372 0 -1.1180339
v 0.87565714 0 -0.6645043
v 0.6637372 0 -1.1180339
v 0.87565714 0 -0.6645043
v 0 0 -2.4582114
v 0 2.2323275 0.9832846
v 0.87565714 0 -0.6645043
v 1.3740009 0 8.00987E-07
v 0.87565714 0 -0.6645043
v 1.3740009 0 8.00987E-07
v 0 0 -2.4582114
v -1.4350942 0.12066635 -3.0481822
v -2.1239395 0 -4.5636415
v -0.746249 0 -4.5636415
v -1.4350942 0.4977487 -2.7037597
v -1.8484014 0.12066635 -3.0481822
v -1.021787 0.12066635 -3.0481822
v 0 0.12066635 -3.0481822
v -0.6888452 0 -4.5636415
v 0.6888452 0 -4.5636415
v 0 0.4977487 -2.7037597
v -0.41330716 0.12066635 -3.0481822
v 0.41330716 0.12066635 -3.0481822
v 1.4350942 0.12066635 -3.0481822
v 0.746249 0 -4.5636415
v 2.1239395 0 -4.5636415
v 1.4350942 0.4977487 -2.7037597
v 1.021787 0.12066635 -3.0481822
v 1.8484014 0.12066635 -3.0481822
vn -0.804273 -0.5779489 0.13827507
vn -0.804273 -0.5779489 0.13827507
vn -0.804273 -0.5779489 0.13827507
vn -0 -1 0
vn -0 -1 0
vn -0 -1 0
vn -0.40912512 -0.15555602 -0.8991213
vn -0.40912512 -0.15555602 -0.8991213
vn -0.40912512 -0.15555602 -0.8991213
vn -0 -1 0
vn -0 -1 0
vn -0 -1 0
vn -0.1382617 -0.0937425 -0.9859493
vn -0.1382617 -0.0937425 -0.9859493
vn -0.1382617 -0.0937425 -0.9859493
vn -0 -1 0
vn -0 -1 0
vn -0 -1 0
vn 0.2956849 -0.11896039 -0.9478496
vn 0.2956849 -0.11896039 -0.9478496
vn 0.2956849 -0.11896039 -0.9478496
vn 0 -1 -0
vn 0 -1 -0
vn 0 -1 -0
vn 0.65454596 -0.29752558 -0.6950166
vn 0.65454596 -0.29752558 -0.6950166
vn 0.65454596 -0.29752558 -0.6950166
vn 0 -1 -0
vn 0 -1 -0
vn 0 -1 -0
vn 0.60574275 -0.60600674 0.5155885
vn 0.60574275 -0.60600674 0.5155885
vn 0.60574275 -0.60600674 0.5155885
vn 0 1 0
vn 0 1 0
vn 0 1 0
vn 0.7065516 -0.5854456 0.3975403
vn 0.7065516 -0.5854456 0.3975403
vn 0.7065516 -0.5854456 0.3975403
vn 0 1 0
vn 0 1 0
vn 0 1 0
vn 0.35705033 -0.6759698 0.64465487
vn 0.35705033 -0.6759698 0.64465487
vn 0.35705033 -0.6759698 0.64465487
vn 0 1 0
vn 0 1 0
vn 0 1 0
vn -0.076706134 -0.69539547 0.7145218
vn -0.076706134 -0.69539547 0.7145218
vn -0.076706134 -0.69539547 0.7145218
vn -0 1 0
vn -0 1 0
vn -0 1 0
vn -0.7534002 -0.55538803 0.35204005
vn -0.7534002 -0.55538803 0.35204005
vn -0.7534002 -0.55538803 0.35204005
vn -0 -1 0
vn -0 -1 0
vn -0 -1 0
vn -0.63796276 -0.603407 0.47843844
vn -0.63796276 -0.603407 0.47843844
vn -0.63796276 -0.603407 0.47843844
vn -0 1 0
vn -0 1 0
vn -0 1 0
vn 0 -0.99684507 0.079372406
vn 0 -0.99684507 0.079372406
vn 0 -0.99684507 0.079372406
vn 0 -0.67440814 0.7383587
vn 0 -0.67440814 0.7383587
vn 0 -0.67440814 0.7383587
vn 0 -0.99684507 0.079372406
vn 0 -0.99684507 0.079372406
vn 0 -0.99684507 0.079372406
vn 0 -0.67440826 0.7383588
vn 0 -0.67440826 0.7383588
vn 0 -0.67440826 0.7383588
vn 0 -0.99684507 0.079372406
vn 0 -0.99684507 0.079372406
vn 0 -0.99684507 0.079372406
vn 0 -0.67440814 0.7383587
vn 0 -0.67440814 0.7383587
vn 0 -0.67440814 0.7383587
f 1//1 2//2 3//3
f 4//4 5//5 6//6
f 7//7 8//8 9//9
f 10//10 11//11 12//12
f 13//13 14//14 15//15
f 16//16 17//17 18//18
f 19//19 20//20 21//21
f 22//22 23//23 24//24
f 25//25 26//26 27//27
f 28//28 29//29 30//30
f 31//31 32//32 33//33
f 34//34 35//35 36//36
f 37//37 38//38 39//39
f 40//40 41//41 42//42
f 43//43 44//44 45//45
f 46//46 47//47 48//48
f 49//49 50//50 51//51
f 52//52 53//53 54//54
f 55//55 56//56 57//57
f 58//58 59//59 60//60
f 61//61 62//62 63//63
f 64//64 65//65 66//66
f 67//67 68//68 69//69
f 70//70 71//71 72//72
f 73//73 74//74 75//75
f 76//76 77//77 78//78
f 79//79 80//80 81//81
f 82//82 83//83 84//84
