# Exported from SharpOpenGl procedural mesh
o cryo_bomber_strike_51
# vertices 78
v 0 1.2510965 0.60068375
v 1.1868298 0 0
v 1.2813113 0 0.40594268
v 1.1868298 0 0
v 1.2813113 0 0.40594268
v 0 0 -1.5017093
v 0 1.2510965 0.60068375
v 1.2813113 0 0.40594268
v 0.45703012 0 0.68300146
v 1.2813113 0 0.40594268
v 0.45703012 0 0.68300146
v 0 0 -1.5017093
v 0 1.2510965 0.60068375
v 0.45703012 0 0.68300146
v -0.1242254 0 0.74321204
v 0.45703012 0 0.68300146
v -0.1242254 0 0.74321204
v 0 0 -1.5017093
v 0 1.2510965 0.60068375
v -0.1242254 0 0.74321204
v -0.886931 0 0.56745803
v -0.1242254 0 0.74321204
v -0.886931 0 0.56745803
v 0 0 -1.5017093
v 0 1.2510965 0.60068375
v -0.886931 0 0.56745803
v -1.3985496 0 0.21154007
v -0.886931 0 0.56745803
v -1.3985496 0 0.21154007
v 0 0 -1.5017093
v 0 1.2510965 0.60068375
v -1.3985496 0 0.21154007
v -0.9110444 0 -0.2115402
v -1.3985496 0 0.21154007
v -0.9110444 0 -0.2115402
v 0 0 -1.5017093
v 0 1.2510965 0.60068375
v -0.9110444 0 -0.2115402
v -0.639945 0 -0.5674582
v -0.9110444 0 -0.2115402
v -0.639945 0 -0.5674582
v 0 0 -1.5017093
v 0 1.2510965 0.60068375
v -0.639945 0 -0.5674582
v -0.21036461 0 -0.7432121
v -0.639945 0 -0.5674582
v -0.21036461 0 -0.7432121
v 0 0 -1.5017093
v 0 1.2510965 0.60068375
v -0.21036461 0 -0.7432121
v 0.5489138 0 -0.6830014
v -0.21036461 0 -0.7432121
v 0.5489138 0 -0.6830014
v 0 0 -1.5017093
v 0 1.2510965 0.60068375
v 0.5489138 0 -0.6830014
v 0.7241726 0 -0.4059424
v 0.5489138 0 -0.6830014
v 0.7241726 0 -0.4059424
v 0 0 -1.5017093
v 0 1.2510965 0.60068375
v 0.7241726 0 -0.4059424
v 1.1363053 0 4.89319E-07
v 0.7241726 0 -0.4059424
v 1.1363053 0 4.89319E-07
v 0 0 -1.5017093
v -0.94946384 0.067626834 -1.8621196
v -1.4377595 0 -2.9363701
v -0.46116814 0 -2.9363701
v -0.94946384 0.2789607 -1.6179717
v -1.2424413 0.067626834 -1.8621196
v -0.6564864 0.067626834 -1.8621196
v 0.94946384 0.067626834 -1.8621196
v 0.46116814 0 -2.9363701
v 1.4377595 0 -2.9363701
v 0.94946384 0.2789607 -1.6179717
v 0.6564864 0.067626834 -1.8621196
v 1.2424413 0.067626834 -1.8621196
vn -0.677507 -0.71841425 0.15768695
vn -0.677507 -0.71841425 0.15768695
vn -0.677507 -0.71841425 0.15768695
vn -0 -1 0
vn -0 -1 0
vn -0 -1 0
vn -0.31363407 -0.17596613 -0.93309677
vn -0.31363407 -0.17596613 -0.93309677
vn -0.31363407 -0.17596613 -0.93309677
vn -0 -1 0
vn -0 -1 0
vn -0 -1 0
vn -0.102492645 -0.10254221 -0.9894343
vn -0.102492645 -0.10254221 -0.9894343
vn -0.102492645 -0.10254221 -0.9894343
vn -0 -1 0
vn -0 -1 0
vn -0 -1 0
vn 0.22258112 -0.13214071 -0.96591747
vn 0.22258112 -0.13214071 -0.96591747
vn 0.22258112 -0.13214071 -0.96591747
vn 0 -1 -0
vn 0 -1 -0
vn 0 -1 -0
vn 0.53328973 -0.35770294 -0.7665837
vn 0.53328973 -0.35770294 -0.7665837
vn 0.53328973 -0.35770294 -0.7665837
vn 0 -1 -0
vn 0 -1 -0
vn 0 -1 -0
vn 0.47103313 -0.69536984 0.5427601
vn 0.47103313 -0.69536984 0.5427601
vn 0.47103313 -0.69536984 0.5427601
vn 0 0.99999994 0
vn 0 0.99999994 0
vn 0 0.99999994 0
vn 0.5702518 -0.6972433 0.4343555
vn 0.5702518 -0.6972433 0.4343555
vn 0.5702518 -0.6972433 0.4343555
vn 0 0.99999994 0
vn 0 0.99999994 0
vn 0 0.99999994 0
vn 0.26012477 -0.72669953 0.6358009
vn 0.26012477 -0.72669953 0.6358009
vn 0.26012477 -0.72669953 0.6358009
vn 0 1 0
vn 0 1 0
vn 0 1 0
vn -0.054314103 -0.726591 0.68492
vn -0.054314103 -0.726591 0.68492
vn -0.054314103 -0.726591 0.68492
vn -0 1 0
vn -0 1 0
vn -0 1 0
vn -0.62215894 -0.67677945 0.39355817
vn -0.62215894 -0.67677945 0.39355817
vn -0.62215894 -0.67677945 0.39355817
vn -0 -1 0
vn -0 -1 0
vn -0 -1 0
vn -0.5013372 -0.69971323 0.50898165
vn -0.5013372 -0.69971323 0.50898165
vn -0.5013372 -0.69971323 0.50898165
vn -0 1 0
vn -0 1 0
vn -0 1 0
vn 0 -0.99802434 0.06282819
vn 0 -0.99802434 0.06282819
vn 0 -0.99802434 0.06282819
vn 0 -0.7560889 0.65446883
vn 0 -0.7560889 0.65446883
vn 0 -0.7560889 0.65446883
vn 0 -0.99802434 0.06282819
vn 0 -0.99802434 0.06282819
vn 0 -0.99802434 0.06282819
vn 0 -0.7560889 0.65446883
vn 0 -0.7560889 0.65446883
vn 0 -0.7560889 0.65446883
f 1//1 2//2 3//3
f 4//4 5//5 6//6
f 7//7 8//8 9//9
f 10//10 11//11 12//12
f 13//13 14//14 15//15
f 16//16 17//17 18//18
f 19//19 20//20 21//21
f 22//22 23//23 24//24
f 25//25 26//26 27//27
f 28//28 29//29 30//30
f 31//31 32//32 33//33
f 34//34 35//35 36//36
f 37//37 38//38 39//39
f 40//40 41//41 42//42
f 43//43 44//44 45//45
f 46//46 47//47 48//48
f 49//49 50//50 51//51
f 52//52 53//53 54//54
f 55//55 56//56 57//57
f 58//58 59//59 60//60
f 61//61 62//62 63//63
f 64//64 65//65 66//66
f 67//67 68//68 69//69
f 70//70 71//71 72//72
f 73//73 74//74 75//75
f 76//76 77//77 78//78
