# Exported from SharpOpenGl procedural mesh
o cryo_destroyer_mk1_08
# vertices 84
v 0 1.5248612 1.0651344
v 0.84213084 0 0
v 0.9091714 0 0.71981895
v 0.84213084 0 0
v 0.9091714 0 0.71981895
v 0 0 -2.662836
v 0 1.5248612 1.0651344
v 0.9091714 0 0.71981895
v 0.32429177 0 1.2111005
v 0.9091714 0 0.71981895
v 0.32429177 0 1.2111005
v 0 0 -2.662836
v 0 1.5248612 1.0651344
v 0.32429177 0 1.2111005
v -0.088145785 0 1.3178661
v 0.32429177 0 1.2111005
v -0.088145785 0 1.3178661
v 0 0 -2.662836
v 0 1.5248612 1.0651344
v -0.088145785 0 1.3178661
v -0.6293337 0 1.0062184
v -0.088145785 0 1.3178661
v -0.6293337 0 1.0062184
v 0 0 -2.662836
v 0 1.5248612 1.0651344
v -0.6293337 0 1.0062184
v -0.99235934 0 0.37510356
v -0.6293337 0 1.0062184
v -0.99235934 0 0.37510356
v 0 0 -2.662836
v 0 1.5248612 1.0651344
v -0.99235934 0 0.37510356
v -0.64644367 0 -0.3751038
v -0.99235934 0 0.37510356
v -0.64644367 0 -0.3751038
v 0 0 -2.662836
v 0 1.5248612 1.0651344
v -0.64644367 0 -0.3751038
v -0.45408145 0 -1.0062189
v -0.64644367 0 -0.3751038
v -0.45408145 0 -1.0062189
v 0 0 -2.662836
v 0 1.5248612 1.0651344
v -0.45408145 0 -1.0062189
v -0.149267 0 -1.3178662
v -0.45408145 0 -1.0062189
v -0.149267 0 -1.3178662
v 0 0 -2.662836
v 0 1.5248612 1.0651344
v -0.149267 0 -1.3178662
v 0.38948908 0 -1.2111005
v -0.149267 0 -1.3178662
v 0.38948908 0 -1.2111005
v 0 0 -2.662836
v 0 1.5248612 1.0651344
v 0.38948908 0 -1.2111005
v 0.5138463 0 -0.7198185
v 0.38948908 0 -1.2111005
v 0.5138463 0 -0.7198185
v 0 0 -2.662836
v 0 1.5248612 1.0651344
v 0.5138463 0 -0.7198185
v 0.80628055 0 8.6766215E-07
v 0.5138463 0 -0.7198185
v 0.80628055 0 8.6766215E-07
v 0 0 -2.662836
v -0.84213084 0.082424924 -3.3019168
v -1.203044 0 -4.095926
v -0.48121762 0 -4.095926
v -0.84213084 0.34000283 -3.1214602
v -1.0586787 0.082424924 -3.3019168
v -0.62558293 0.082424924 -3.3019168
v 0 0.082424924 -3.3019168
v -0.36091322 0 -4.095926
v 0.36091322 0 -4.095926
v 0 0.34000283 -3.1214602
v -0.21654794 0.082424924 -3.3019168
v 0.21654794 0.082424924 -3.3019168
v 0.84213084 0.082424924 -3.3019168
v 0.48121762 0 -4.095926
v 1.203044 0 -4.095926
v 0.84213084 0.34000283 -3.1214602
v 0.62558293 0.082424924 -3.3019168
v 1.0586787 0.082424924 -3.3019168
vn -0.8482614 -0.5236516 0.07900311
vn -0.8482614 -0.5236516 0.07900311
vn -0.8482614 -0.5236516 0.07900311
vn -0 -1 0
vn -0 -1 0
vn -0 -1 0
vn -0.62943876 -0.20559424 -0.7493583
vn -0.62943876 -0.20559424 -0.7493583
vn -0.62943876 -0.20559424 -0.7493583
vn -0 -1 0
vn -0 -1 0
vn -0 -1 0
vn -0.24797672 -0.14443497 -0.9579385
vn -0.24797672 -0.14443497 -0.9579385
vn -0.24797672 -0.14443497 -0.9579385
vn -0 -1 0
vn -0 -1 0
vn -0 -1 0
vn 0.49176928 -0.16996571 -0.85397583
vn 0.49176928 -0.16996571 -0.85397583
vn 0.49176928 -0.16996571 -0.85397583
vn 0 -1 -0
vn 0 -1 -0
vn 0 -1 -0
vn 0.82106525 -0.32061848 -0.47228765
vn 0.82106525 -0.32061848 -0.47228765
vn 0.82106525 -0.32061848 -0.47228765
vn 0 -1 -0
vn 0 -1 -0
vn 0 -1 -0
vn 0.71588624 -0.6152619 0.33009043
vn 0.71588624 -0.6152619 0.33009043
vn 0.71588624 -0.6152619 0.33009043
vn 0 1 0
vn 0 1 0
vn 0 1 0
vn 0.79067147 -0.56281465 0.24099453
vn 0.79067147 -0.56281465 0.24099453
vn 0.79067147 -0.56281465 0.24099453
vn 0 1 0
vn 0 1 0
vn 0 1 0
vn 0.4661623 -0.7581622 0.45594177
vn 0.4661623 -0.7581622 0.45594177
vn 0.4661623 -0.7581622 0.45594177
vn 0 1 0
vn 0 1 0
vn 0 1 0
vn -0.10713889 -0.8344044 0.54063904
vn -0.10713889 -0.8344044 0.54063904
vn -0.10713889 -0.8344044 0.54063904
vn -0 1 0
vn -0 1 0
vn -0 1 0
vn -0.82615846 -0.5231916 0.20912378
vn -0.82615846 -0.5231916 0.20912378
vn -0.82615846 -0.5231916 0.20912378
vn -0 -1 0
vn -0 -1 0
vn -0 -1 0
vn -0.74018043 -0.6014222 0.30070627
vn -0.74018043 -0.6014222 0.30070627
vn -0.74018043 -0.6014222 0.30070627
vn -0 1 0
vn -0 1 0
vn -0 1 0
vn 0 -0.9946551 0.1032537
vn 0 -0.9946551 0.1032537
vn 0 -0.9946551 0.1032537
vn 0 -0.5737869 0.81900465
vn 0 -0.5737869 0.81900465
vn 0 -0.5737869 0.81900465
vn 0 -0.9946551 0.1032537
vn 0 -0.9946551 0.1032537
vn 0 -0.9946551 0.1032537
vn 0 -0.5737869 0.81900465
vn 0 -0.5737869 0.81900465
vn 0 -0.5737869 0.81900465
vn 0 -0.9946551 0.1032537
vn 0 -0.9946551 0.1032537
vn 0 -0.9946551 0.1032537
vn 0 -0.5737869 0.81900465
vn 0 -0.5737869 0.81900465
vn 0 -0.5737869 0.81900465
f 1//1 2//2 3//3
f 4//4 5//5 6//6
f 7//7 8//8 9//9
f 10//10 11//11 12//12
f 13//13 14//14 15//15
f 16//16 17//17 18//18
f 19//19 20//20 21//21
f 22//22 23//23 24//24
f 25//25 26//26 27//27
f 28//28 29//29 30//30
f 31//31 32//32 33//33
f 34//34 35//35 36//36
f 37//37 38//38 39//39
f 40//40 41//41 42//42
f 43//43 44//44 45//45
f 46//46 47//47 48//48
f 49//49 50//50 51//51
f 52//52 53//53 54//54
f 55//55 56//56 57//57
f 58//58 59//59 60//60
f 61//61 62//62 63//63
f 64//64 65//65 66//66
f 67//67 68//68 69//69
f 70//70 71//71 72//72
f 73//73 74//74 75//75
f 76//76 77//77 78//78
f 79//79 80//80 81//81
f 82//82 83//83 84//84
