# Exported from SharpOpenGl procedural mesh
o cryo_hero_mk1_16
# vertices 78
v 0 1.384214 0.74990845
v 0.6418936 0 0
v 0.69299364 0 0.5067889
v 0.6418936 0 0
v 0.69299364 0 0.5067889
v 0 0 -1.8747711
v 0 1.384214 0.74990845
v 0.69299364 0 0.5067889
v 0.24718346 0 0.8526759
v 0.69299364 0 0.5067889
v 0.24718346 0 0.8526759
v 0 0 -1.8747711
v 0 1.384214 0.74990845
v 0.24718346 0 0.8526759
v -0.06718697 0 0.92784435
v 0.24718346 0 0.8526759
v -0.06718697 0 0.92784435
v 0 0 -1.8747711
v 0 1.384214 0.74990845
v -0.06718697 0 0.92784435
v -0.4796942 0 0.7084286
v -0.06718697 0 0.92784435
v -0.4796942 0 0.7084286
v 0 0 -1.8747711
v 0 1.384214 0.74990845
v -0.4796942 0 0.7084286
v -0.7564016 0 0.26409188
v -0.4796942 0 0.7084286
v -0.7564016 0 0.26409188
v 0 0 -1.8747711
v 0 1.384214 0.74990845
v -0.7564016 0 0.26409188
v -0.4927359 0 -0.26409203
v -0.7564016 0 0.26409188
v -0.4927359 0 -0.26409203
v 0 0 -1.8747711
v 0 1.384214 0.74990845
v -0.4927359 0 -0.26409203
v -0.3461125 0 -0.7084289
v -0.4927359 0 -0.26409203
v -0.3461125 0 -0.7084289
v 0 0 -1.8747711
v 0 1.384214 0.74990845
v -0.3461125 0 -0.7084289
v -0.11377511 0 -0.92784435
v -0.3461125 0 -0.7084289
v -0.11377511 0 -0.92784435
v 0 0 -1.8747711
v 0 1.384214 0.74990845
v -0.11377511 0 -0.92784435
v 0.29687852 0 -0.85267586
v -0.11377511 0 -0.92784435
v 0.29687852 0 -0.85267586
v 0 0 -1.8747711
v 0 1.384214 0.74990845
v 0.29687852 0 -0.85267586
v 0.39166674 0 -0.50678855
v 0.29687852 0 -0.85267586
v 0.39166674 0 -0.50678855
v 0 0 -1.8747711
v 0 1.384214 0.74990845
v 0.39166674 0 -0.50678855
v 0.6145676 0 6.10878E-07
v 0.39166674 0 -0.50678855
v 0.6145676 0 6.10878E-07
v 0 0 -1.8747711
v -0.5135149 0.07482238 -2.324716
v -0.7776083 0 -2.9057217
v -0.24942148 0 -2.9057217
v -0.5135149 0.30864233 -2.1926694
v -0.6719709 0.07482238 -2.324716
v -0.35505885 0.07482238 -2.324716
v 0.5135149 0.07482238 -2.324716
v 0.24942148 0 -2.9057217
v 0.7776083 0 -2.9057217
v 0.5135149 0.30864233 -2.1926694
v 0.35505885 0.07482238 -2.324716
v 0.6719709 0.07482238 -2.324716
vn -0.8842795 -0.45836645 0.08916277
vn -0.8842795 -0.45836645 0.08916277
vn -0.8842795 -0.45836645 0.08916277
vn -0 -0.99999994 0
vn -0 -0.99999994 0
vn -0 -0.99999994 0
vn -0.60451305 -0.16579586 -0.7791506
vn -0.60451305 -0.16579586 -0.7791506
vn -0.60451305 -0.16579586 -0.7791506
vn -0 -1 0
vn -0 -1 0
vn -0 -1 0
vn -0.23106275 -0.11300611 -0.9663538
vn -0.23106275 -0.11300611 -0.9663538
vn -0.23106275 -0.11300611 -0.9663538
vn -0 -1 0
vn -0 -1 0
vn -0 -1 0
vn 0.46530664 -0.13503607 -0.8747885
vn 0.46530664 -0.13503607 -0.8747885
vn 0.46530664 -0.13503607 -0.8747885
vn 0 -1 -0
vn 0 -1 -0
vn 0 -1 -0
vn 0.81777424 -0.26813585 -0.50926286
vn 0.81777424 -0.26813585 -0.50926286
vn 0.81777424 -0.26813585 -0.50926286
vn 0 -1 -0
vn 0 -1 -0
vn 0 -1 -0
vn 0.7516519 -0.5424295 0.3752194
vn 0.7516519 -0.5424295 0.3752194
vn 0.7516519 -0.5424295 0.3752194
vn 0 1 0
vn 0 1 0
vn 0 1 0
vn 0.82587445 -0.49362132 0.27252418
vn 0.82587445 -0.49362132 0.27252418
vn 0.82587445 -0.49362132 0.27252418
vn 0 1 0
vn 0 1 0
vn 0 1 0
vn 0.5008634 -0.6839981 0.53036064
vn 0.5008634 -0.6839981 0.53036064
vn 0.5008634 -0.6839981 0.53036064
vn 0 1 0
vn 0 1 0
vn 0 1 0
vn -0.11655507 -0.762206 0.63675493
vn -0.11655507 -0.762206 0.63675493
vn -0.11655507 -0.762206 0.63675493
vn -0 1 0
vn -0 1 0
vn -0 1 0
vn -0.8581689 -0.4563316 0.23517564
vn -0.8581689 -0.4563316 0.23517564
vn -0.8581689 -0.4563316 0.23517564
vn -0 -1 0
vn -0 -1 0
vn -0 -1 0
vn -0.77639985 -0.5297096 0.34148356
vn -0.77639985 -0.5297096 0.34148356
vn -0.77639985 -0.5297096 0.34148356
vn -0 1 0
vn -0 1 0
vn -0 1 0
vn 0 -0.99180955 0.12772606
vn 0 -0.99180955 0.12772606
vn 0 -0.99180955 0.12772606
vn 0 -0.49174 0.8707421
vn 0 -0.49174 0.8707421
vn 0 -0.49174 0.8707421
vn 0 -0.99180955 0.12772606
vn 0 -0.99180955 0.12772606
vn 0 -0.99180955 0.12772606
vn 0 -0.49174 0.8707421
vn 0 -0.49174 0.8707421
vn 0 -0.49174 0.8707421
f 1//1 2//2 3//3
f 4//4 5//5 6//6
f 7//7 8//8 9//9
f 10//10 11//11 12//12
f 13//13 14//14 15//15
f 16//16 17//17 18//18
f 19//19 20//20 21//21
f 22//22 23//23 24//24
f 25//25 26//26 27//27
f 28//28 29//29 30//30
f 31//31 32//32 33//33
f 34//34 35//35 36//36
f 37//37 38//38 39//39
f 40//40 41//41 42//42
f 43//43 44//44 45//45
f 46//46 47//47 48//48
f 49//49 50//50 51//51
f 52//52 53//53 54//54
f 55//55 56//56 57//57
f 58//58 59//59 60//60
f 61//61 62//62 63//63
f 64//64 65//65 66//66
f 67//67 68//68 69//69
f 70//70 71//71 72//72
f 73//73 74//74 75//75
f 76//76 77//77 78//78
