# Exported from SharpOpenGl procedural mesh
o cryo_carrier_mk2_27
# vertices 78
v 0 2.0274754 0.88833207
v 1.5011479 0 0
v 1.6206516 0 0.6003357
v 1.5011479 0 0
v 1.6206516 0 0.6003357
v 0 0 -2.2208302
v 0 2.0274754 0.88833207
v 1.6206516 0 0.6003357
v 0.57806915 0 1.0100691
v 1.6206516 0 0.6003357
v 0.57806915 0 1.0100691
v 0 0 -2.2208302
v 0 2.0274754 0.88833207
v 0.57806915 0 1.0100691
v -0.15712504 0 1.0991126
v 0.57806915 0 1.0100691
v -0.15712504 0 1.0991126
v 0 0 -2.2208302
v 0 2.0274754 0.88833207
v -0.15712504 0 1.0991126
v -1.1218243 0 0.8391956
v -0.15712504 0 1.0991126
v -1.1218243 0 0.8391956
v 0 0 -2.2208302
v 0 2.0274754 0.88833207
v -1.1218243 0 0.8391956
v -1.768939 0 0.3128399
v -1.1218243 0 0.8391956
v -1.768939 0 0.3128399
v 0 0 -2.2208302
v 0 2.0274754 0.88833207
v -1.768939 0 0.3128399
v -1.152324 0 -0.31284007
v -1.768939 0 0.3128399
v -1.152324 0 -0.31284007
v 0 0 -2.2208302
v 0 2.0274754 0.88833207
v -1.152324 0 -0.31284007
v -0.8094269 0 -0.83919597
v -1.152324 0 -0.31284007
v -0.8094269 0 -0.83919597
v 0 0 -2.2208302
v 0 2.0274754 0.88833207
v -0.8094269 0 -0.83919597
v -0.26607722 0 -1.0991127
v -0.8094269 0 -0.83919597
v -0.26607722 0 -1.0991127
v 0 0 -2.2208302
v 0 2.0274754 0.88833207
v -0.26607722 0 -1.0991127
v 0.69428724 0 -1.0100691
v -0.26607722 0 -1.0991127
v 0.69428724 0 -1.0100691
v 0 0 -2.2208302
v 0 2.0274754 0.88833207
v 0.69428724 0 -1.0100691
v 0.91596127 0 -0.60033536
v 0.69428724 0 -1.0100691
v 0.91596127 0 -0.60033536
v 0 0 -2.2208302
v 0 2.0274754 0.88833207
v 0.91596127 0 -0.60033536
v 1.4372426 0 7.236384E-07
v 0.91596127 0 -0.60033536
v 1.4372426 0 7.236384E-07
v 0 0 -2.2208302
v -1.2009183 0.10959326 -2.7538295
v -1.9214692 0 -4.3390417
v -0.48036736 0 -4.3390417
v -1.2009183 0.4520722 -2.393554
v -1.6332489 0.10959326 -2.7538295
v -0.7685877 0.10959326 -2.7538295
v 1.2009183 0.10959326 -2.7538295
v 0.48036736 0 -4.3390417
v 1.9214692 0 -4.3390417
v 1.2009183 0.4520722 -2.393554
v 0.7685877 0.10959326 -2.7538295
v 1.6332489 0.10959326 -2.7538295
vn -0.76147944 -0.6302161 0.1515813
vn -0.76147944 -0.6302161 0.1515813
vn -0.76147944 -0.6302161 0.1515813
vn -0 -1 0
vn -0 -1 0
vn -0 -1 0
vn -0.36116305 -0.15815373 -0.9189933
vn -0.36116305 -0.15815373 -0.9189933
vn -0.36116305 -0.15815373 -0.9189933
vn -0 -1 0
vn -0 -1 0
vn -0 -1 0
vn -0.119710475 -0.093478635 -0.9883983
vn -0.119710475 -0.093478635 -0.9883983
vn -0.119710475 -0.093478635 -0.9883983
vn -0 -1 0
vn -0 -1 0
vn -0 -1 0
vn 0.25828132 -0.11967724 -0.9586282
vn 0.25828132 -0.11967724 -0.9586282
vn 0.25828132 -0.11967724 -0.9586282
vn 0 -1 -0
vn 0 -1 -0
vn 0 -1 -0
vn 0.59916186 -0.3136705 -0.7366246
vn 0.59916186 -0.3136705 -0.7366246
vn 0.59916186 -0.3136705 -0.7366246
vn 0 -1 -0
vn 0 -1 -0
vn 0 -1 -0
vn 0.55057865 -0.63438654 0.5426018
vn 0.55057865 -0.63438654 0.5426018
vn 0.55057865 -0.63438654 0.5426018
vn 0 1 0
vn 0 1 0
vn 0 1 0
vn 0.6544068 -0.6245047 0.42631638
vn 0.6544068 -0.6245047 0.42631638
vn 0.6544068 -0.6245047 0.42631638
vn 0 0.99999994 0
vn 0 0.99999994 0
vn 0 0.99999994 0
vn 0.31427926 -0.6852657 0.65699273
vn 0.31427926 -0.6852657 0.65699273
vn 0.31427926 -0.6852657 0.65699273
vn 0 1 0
vn 0 1 0
vn 0 1 0
vn -0.06646898 -0.6940116 0.71688896
vn -0.06646898 -0.6940116 0.71688896
vn -0.06646898 -0.6940116 0.71688896
vn -0 1 0
vn -0 1 0
vn -0 1 0
vn -0.70472693 -0.5983246 0.38127115
vn -0.70472693 -0.5983246 0.38127115
vn -0.70472693 -0.5983246 0.38127115
vn -0 -1 0
vn -0 -1 0
vn -0 -1 0
vn -0.58315057 -0.6352449 0.50635886
vn -0.58315057 -0.6352449 0.50635886
vn -0.58315057 -0.6352449 0.50635886
vn -0 0.99999994 0
vn -0 0.99999994 0
vn -0 0.99999994 0
vn 0 -0.99761873 0.06897012
vn 0 -0.99761873 0.06897012
vn 0 -0.99761873 0.06897012
vn 0 -0.72478116 0.688979
vn 0 -0.72478116 0.688979
vn 0 -0.72478116 0.688979
vn 0 -0.99761873 0.06897012
vn 0 -0.99761873 0.06897012
vn 0 -0.99761873 0.06897012
vn 0 -0.72478116 0.688979
vn 0 -0.72478116 0.688979
vn 0 -0.72478116 0.688979
f 1//1 2//2 3//3
f 4//4 5//5 6//6
f 7//7 8//8 9//9
f 10//10 11//11 12//12
f 13//13 14//14 15//15
f 16//16 17//17 18//18
f 19//19 20//20 21//21
f 22//22 23//23 24//24
f 25//25 26//26 27//27
f 28//28 29//29 30//30
f 31//31 32//32 33//33
f 34//34 35//35 36//36
f 37//37 38//38 39//39
f 40//40 41//41 42//42
f 43//43 44//44 45//45
f 46//46 47//47 48//48
f 49//49 50//50 51//51
f 52//52 53//53 54//54
f 55//55 56//56 57//57
f 58//58 59//59 60//60
f 61//61 62//62 63//63
f 64//64 65//65 66//66
f 67//67 68//68 69//69
f 70//70 71//71 72//72
f 73//73 74//74 75//75
f 76//76 77//77 78//78
