# Exported from SharpOpenGl procedural mesh
o cryo_dreadnought_prototype_55
# vertices 90
v 0 3.625807 1.5502079
v 2.3425298 0 0
v 2.5290146 0 1.0476321
v 2.3425298 0 0
v 2.5290146 0 1.0476321
v 0 0 -3.8755195
v 0 3.625807 1.5502079
v 2.5290146 0 1.0476321
v 0.9020726 0 1.7626483
v 2.5290146 0 1.0476321
v 0.9020726 0 1.7626483
v 0 0 -3.8755195
v 0 3.625807 1.5502079
v 0.9020726 0 1.7626483
v -0.24519245 0 1.9180361
v 0.9020726 0 1.7626483
v -0.24519245 0 1.9180361
v 0 0 -3.8755195
v 0 3.625807 1.5502079
v -0.24519245 0 1.9180361
v -1.7505984 0 1.4644608
v -0.24519245 0 1.9180361
v -1.7505984 0 1.4644608
v 0 0 -3.8755195
v 0 3.625807 1.5502079
v -1.7505984 0 1.4644608
v -2.760416 0 0.5459297
v -1.7505984 0 1.4644608
v -2.760416 0 0.5459297
v 0 0 -3.8755195
v 0 3.625807 1.5502079
v -2.760416 0 0.5459297
v -1.7981929 0 -0.54593
v -2.760416 0 0.5459297
v -1.7981929 0 -0.54593
v 0 0 -3.8755195
v 0 3.625807 1.5502079
v -1.7981929 0 -0.54593
v -1.2631047 0 -1.4644614
v -1.7981929 0 -0.54593
v -1.2631047 0 -1.4644614
v 0 0 -3.8755195
v 0 3.625807 1.5502079
v -1.2631047 0 -1.4644614
v -0.4152115 0 -1.9180362
v -1.2631047 0 -1.4644614
v -0.4152115 0 -1.9180362
v 0 0 -3.8755195
v 0 3.625807 1.5502079
v -0.4152115 0 -1.9180362
v 1.08343 0 -1.7626482
v -0.4152115 0 -1.9180362
v 1.08343 0 -1.7626482
v 0 0 -3.8755195
v 0 3.625807 1.5502079
v 1.08343 0 -1.7626482
v 1.4293507 0 -1.0476314
v 1.08343 0 -1.7626482
v 1.4293507 0 -1.0476314
v 0 0 -3.8755195
v 0 3.625807 1.5502079
v 1.4293507 0 -1.0476314
v 2.2428062 0 1.2628046E-06
v 1.4293507 0 -1.0476314
v 2.2428062 0 1.2628046E-06
v 0 0 -3.8755195
v -2.8110359 0.19598956 -4.805644
v -4.0157657 0 -7.4560494
v -1.6063062 0 -7.4560494
v -2.8110359 0.80845696 -4.203279
v -3.5338736 0.19598956 -4.805644
v -2.0881982 0.19598956 -4.805644
v -0.93701196 0.19598956 -4.805644
v -2.1417418 0 -7.4560494
v 0.26771772 0 -7.4560494
v -0.93701196 0.80845696 -4.203279
v -1.6598498 0.19598956 -4.805644
v -0.21417415 0.19598956 -4.805644
v 0.93701196 0.19598956 -4.805644
v -0.26771772 0 -7.4560494
v 2.1417418 0 -7.4560494
v 0.93701196 0.80845696 -4.203279
v 0.21417415 0.19598956 -4.805644
v 1.6598498 0.19598956 -4.805644
v 2.8110359 0.19598956 -4.805644
v 1.6063062 0 -7.4560494
v 4.0157657 0 -7.4560494
v 2.8110359 0.80845696 -4.203279
v 2.0881982 0.19598956 -4.805644
v 3.5338736 0.19598956 -4.805644
vn -0.8023846 -0.57946414 0.14282928
vn -0.8023846 -0.57946414 0.14282928
vn -0.8023846 -0.57946414 0.14282928
vn -0 -1 0
vn -0 -1 0
vn -0 -1 0
vn -0.39767122 -0.15195423 -0.9048577
vn -0.39767122 -0.15195423 -0.9048577
vn -0.39767122 -0.15195423 -0.9048577
vn -0 -1 0
vn -0 -1 0
vn -0 -1 0
vn -0.13365868 -0.09107304 -0.98683393
vn -0.13365868 -0.09107304 -0.98683393
vn -0.13365868 -0.09107304 -0.98683393
vn -0 -1 0
vn -0 -1 0
vn -0 -1 0
vn 0.28654483 -0.11585736 -0.95103574
vn 0.28654483 -0.11585736 -0.95103574
vn 0.28654483 -0.11585736 -0.95103574
vn 0 -1 -0
vn 0 -1 -0
vn 0 -1 -0
vn 0.64318 -0.29381543 -0.70710117
vn 0.64318 -0.29381543 -0.70710117
vn 0.64318 -0.29381543 -0.70710117
vn 0 -1 -0
vn 0 -1 -0
vn 0 -1 -0
vn 0.59895235 -0.6021982 0.5278386
vn 0.59895235 -0.6021982 0.5278386
vn 0.59895235 -0.6021982 0.5278386
vn 0 0.99999994 0
vn 0 0.99999994 0
vn 0 0.99999994 0
vn 0.7013807 -0.58405584 0.40858757
vn 0.7013807 -0.58405584 0.40858757
vn 0.7013807 -0.58405584 0.40858757
vn 0 1 0
vn 0 1 0
vn 0 1 0
vn 0.35104948 -0.66792023 0.65623695
vn 0.35104948 -0.66792023 0.65623695
vn 0.35104948 -0.66792023 0.65623695
vn 0 1 0
vn 0 1 0
vn 0 1 0
vn -0.07515933 -0.684768 0.72487503
vn -0.07515933 -0.684768 0.72487503
vn -0.07515933 -0.684768 0.72487503
vn -0 1 0
vn -0 1 0
vn -0 1 0
vn -0.7489196 -0.55483496 0.36232263
vn -0.7489196 -0.55483496 0.36232263
vn -0.7489196 -0.55483496 0.36232263
vn -0 -1 0
vn -0 -1 0
vn -0 -1 0
vn -0.6316421 -0.60040474 0.49045125
vn -0.6316421 -0.60040474 0.49045125
vn -0.6316421 -0.60040474 0.49045125
vn -0 1 0
vn -0 1 0
vn -0 1 0
vn 0 -0.99727714 0.07374567
vn 0 -0.99727714 0.07374567
vn 0 -0.99727714 0.07374567
vn 0 -0.7012023 0.71296227
vn 0 -0.7012023 0.71296227
vn 0 -0.7012023 0.71296227
vn 0 -0.99727714 0.07374567
vn 0 -0.99727714 0.07374567
vn 0 -0.99727714 0.07374567
vn 0 -0.70120233 0.7129623
vn 0 -0.70120233 0.7129623
vn 0 -0.70120233 0.7129623
vn 0 -0.99727714 0.07374567
vn 0 -0.99727714 0.07374567
vn 0 -0.99727714 0.07374567
vn 0 -0.70120233 0.7129623
vn 0 -0.70120233 0.7129623
vn 0 -0.70120233 0.7129623
vn 0 -0.99727714 0.07374567
vn 0 -0.99727714 0.07374567
vn 0 -0.99727714 0.07374567
vn 0 -0.7012023 0.71296227
vn 0 -0.7012023 0.71296227
vn 0 -0.7012023 0.71296227
f 1//1 2//2 3//3
f 4//4 5//5 6//6
f 7//7 8//8 9//9
f 10//10 11//11 12//12
f 13//13 14//14 15//15
f 16//16 17//17 18//18
f 19//19 20//20 21//21
f 22//22 23//23 24//24
f 25//25 26//26 27//27
f 28//28 29//29 30//30
f 31//31 32//32 33//33
f 34//34 35//35 36//36
f 37//37 38//38 39//39
f 40//40 41//41 42//42
f 43//43 44//44 45//45
f 46//46 47//47 48//48
f 49//49 50//50 51//51
f 52//52 53//53 54//54
f 55//55 56//56 57//57
f 58//58 59//59 60//60
f 61//61 62//62 63//63
f 64//64 65//65 66//66
f 67//67 68//68 69//69
f 70//70 71//71 72//72
f 73//73 74//74 75//75
f 76//76 77//77 78//78
f 79//79 80//80 81//81
f 82//82 83//83 84//84
f 85//85 86//86 87//87
f 88//88 89//89 90//90
