# Exported from SharpOpenGl procedural mesh
o cryo_carrier_mk3_44
# vertices 84
v 0 2.8340194 1.2711482
v 1.9164692 0 0
v 2.069036 0 0.8590433
v 1.9164692 0 0
v 2.069036 0 0.8590433
v 0 0 -3.1778705
v 0 2.8340194 1.2711482
v 2.069036 0 0.8590433
v 0.73800313 0 1.4453464
v 2.069036 0 0.8590433
v 0.73800313 0 1.4453464
v 0 0 -3.1778705
v 0 2.8340194 1.2711482
v 0.73800313 0 1.4453464
v -0.20059672 0 1.5727621
v 0.73800313 0 1.4453464
v -0.20059672 0 1.5727621
v 0 0 -3.1778705
v 0 2.8340194 1.2711482
v -0.20059672 0 1.5727621
v -1.4321986 0 1.200837
v -0.20059672 0 1.5727621
v -1.4321986 0 1.200837
v 0 0 -3.1778705
v 0 2.8340194 1.2711482
v -1.4321986 0 1.200837
v -2.25835 0 0.44765452
v -1.4321986 0 1.200837
v -2.25835 0 0.44765452
v 0 0 -3.1778705
v 0 2.8340194 1.2711482
v -2.25835 0 0.44765452
v -1.4711366 0 -0.44765478
v -2.25835 0 0.44765452
v -1.4711366 0 -0.44765478
v 0 0 -3.1778705
v 0 2.8340194 1.2711482
v -1.4711366 0 -0.44765478
v -1.0333705 0 -1.2008375
v -1.4711366 0 -0.44765478
v -1.0333705 0 -1.2008375
v 0 0 -3.1778705
v 0 2.8340194 1.2711482
v -1.0333705 0 -1.2008375
v -0.3396926 0 -1.5727623
v -1.0333705 0 -1.2008375
v -0.3396926 0 -1.5727623
v 0 0 -3.1778705
v 0 2.8340194 1.2711482
v -0.3396926 0 -1.5727623
v 0.8863751 0 -1.4453464
v -0.3396926 0 -1.5727623
v 0.8863751 0 -1.4453464
v 0 0 -3.1778705
v 0 2.8340194 1.2711482
v 0.8863751 0 -1.4453464
v 1.1693796 0 -0.8590427
v 0.8863751 0 -1.4453464
v 1.1693796 0 -0.8590427
v 0 0 -3.1778705
v 0 2.8340194 1.2711482
v 1.1693796 0 -0.8590427
v 1.8348833 0 1.0354817E-06
v 1.1693796 0 -0.8590427
v 1.8348833 0 1.0354817E-06
v 0 0 -3.1778705
v -1.9164692 0.15319024 -3.9405594
v -2.8363745 0 -5.9643507
v -0.996564 0 -5.9643507
v -1.9164692 0.6319097 -3.4806068
v -2.4684124 0.15319024 -3.9405594
v -1.364526 0.15319024 -3.9405594
v 0 0.15319024 -3.9405594
v -0.91990525 0 -5.9643507
v 0.91990525 0 -5.9643507
v 0 0.6319097 -3.4806068
v -0.5519432 0.15319024 -3.9405594
v 0.5519432 0.15319024 -3.9405594
v 1.9164692 0.15319024 -3.9405594
v 0.996564 0 -5.9643507
v 2.8363745 0 -5.9643507
v 1.9164692 0.6319097 -3.4806068
v 1.364526 0.15319024 -3.9405594
v 2.4684124 0.15319024 -3.9405594
vn -0.78984857 -0.597044 0.14027762
vn -0.78984857 -0.597044 0.14027762
vn -0.78984857 -0.597044 0.14027762
vn -0 -1 0
vn -0 -1 0
vn -0 -1 0
vn -0.39797306 -0.15916988 -0.9034835
vn -0.39797306 -0.15916988 -0.9034835
vn -0.39797306 -0.15916988 -0.9034835
vn -0 -0.99999994 0
vn -0 -0.99999994 0
vn -0 -0.99999994 0
vn -0.13390228 -0.0954991 -0.98638237
vn -0.13390228 -0.0954991 -0.98638237
vn -0.13390228 -0.0954991 -0.98638237
vn -0 -1 0
vn -0 -1 0
vn -0 -1 0
vn 0.28695107 -0.12143884 -0.9502167
vn 0.28695107 -0.12143884 -0.9502167
vn 0.28695107 -0.12143884 -0.9502167
vn 0 -1 -0
vn 0 -1 -0
vn 0 -1 -0
vn 0.64126676 -0.3066193 -0.703393
vn 0.64126676 -0.3066193 -0.703393
vn 0.64126676 -0.3066193 -0.703393
vn 0 -1 -0
vn 0 -1 -0
vn 0 -1 -0
vn 0.5891969 -0.62004924 0.5180598
vn 0.5891969 -0.62004924 0.5180598
vn 0.5891969 -0.62004924 0.5180598
vn 0 1 0
vn 0 1 0
vn 0 1 0
vn 0.69047475 -0.60182035 0.4013188
vn 0.69047475 -0.60182035 0.4013188
vn 0.69047475 -0.60182035 0.4013188
vn 0 0.99999994 0
vn 0 0.99999994 0
vn 0 0.99999994 0
vn 0.34412068 -0.685308 0.6418208
vn 0.34412068 -0.685308 0.6418208
vn 0.34412068 -0.685308 0.6418208
vn 0 1 0
vn 0 1 0
vn 0 1 0
vn -0.07361406 -0.70200545 0.7083568
vn -0.07361406 -0.70200545 0.7083568
vn -0.07361406 -0.70200545 0.7083568
vn -0 1 0
vn -0 1 0
vn -0 1 0
vn -0.73835504 -0.5725486 0.35639846
vn -0.73835504 -0.5725486 0.35639846
vn -0.73835504 -0.5725486 0.35639846
vn -0 -1 0
vn -0 -1 0
vn -0 -1 0
vn -0.62136424 -0.6182126 0.4813728
vn -0.62136424 -0.6182126 0.4813728
vn -0.62136424 -0.6182126 0.4813728
vn -0 1 0
vn -0 1 0
vn -0 1 0
vn 0 -0.9971475 0.07547877
vn 0 -0.9971475 0.07547877
vn 0 -0.9971475 0.07547877
vn 0 -0.6928311 0.72109985
vn 0 -0.6928311 0.72109985
vn 0 -0.6928311 0.72109985
vn 0 -0.9971475 0.07547876
vn 0 -0.9971475 0.07547876
vn 0 -0.9971475 0.07547876
vn 0 -0.6928311 0.72109985
vn 0 -0.6928311 0.72109985
vn 0 -0.6928311 0.72109985
vn 0 -0.9971475 0.07547877
vn 0 -0.9971475 0.07547877
vn 0 -0.9971475 0.07547877
vn 0 -0.6928311 0.72109985
vn 0 -0.6928311 0.72109985
vn 0 -0.6928311 0.72109985
f 1//1 2//2 3//3
f 4//4 5//5 6//6
f 7//7 8//8 9//9
f 10//10 11//11 12//12
f 13//13 14//14 15//15
f 16//16 17//17 18//18
f 19//19 20//20 21//21
f 22//22 23//23 24//24
f 25//25 26//26 27//27
f 28//28 29//29 30//30
f 31//31 32//32 33//33
f 34//34 35//35 36//36
f 37//37 38//38 39//39
f 40//40 41//41 42//42
f 43//43 44//44 45//45
f 46//46 47//47 48//48
f 49//49 50//50 51//51
f 52//52 53//53 54//54
f 55//55 56//56 57//57
f 58//58 59//59 60//60
f 61//61 62//62 63//63
f 64//64 65//65 66//66
f 67//67 68//68 69//69
f 70//70 71//71 72//72
f 73//73 74//74 75//75
f 76//76 77//77 78//78
f 79//79 80//80 81//81
f 82//82 83//83 84//84
