# Exported from SharpOpenGl procedural mesh
o cryo_fighter_mk1_01
# vertices 84
v 0 0.5324393 0.3548182
v 0.33587515 0 0
v 0.3626136 0 0.23978649
v 0.33587515 0 0
v 0.3626136 0 0.23978649
v 0 0 -0.88704544
v 0 0.5324393 0.3548182
v 0.3626136 0 0.23978649
v 0.12934041 0 0.40344247
v 0.3626136 0 0.23978649
v 0.12934041 0 0.40344247
v 0 0 -0.88704544
v 0 0.5324393 0.3548182
v 0.12934041 0 0.40344247
v -0.03515603 0 0.4390083
v 0.12934041 0 0.40344247
v -0.03515603 0 0.4390083
v 0 0 -0.88704544
v 0 0.5324393 0.3548182
v -0.03515603 0 0.4390083
v -0.2510032 0 0.33519205
v -0.03515603 0 0.4390083
v -0.2510032 0 0.33519205
v 0 0 -0.88704544
v 0 0.5324393 0.3548182
v -0.2510032 0 0.33519205
v -0.39579225 0 0.124954715
v -0.2510032 0 0.33519205
v -0.39579225 0 0.124954715
v 0 0 -0.88704544
v 0 0.5324393 0.3548182
v -0.39579225 0 0.124954715
v -0.25782734 0 -0.12495479
v -0.39579225 0 0.124954715
v -0.25782734 0 -0.12495479
v 0 0 -0.88704544
v 0 0.5324393 0.3548182
v -0.25782734 0 -0.12495479
v -0.18110569 0 -0.3351922
v -0.25782734 0 -0.12495479
v -0.18110569 0 -0.3351922
v 0 0 -0.88704544
v 0 0.5324393 0.3548182
v -0.18110569 0 -0.3351922
v -0.059533596 0 -0.43900833
v -0.18110569 0 -0.3351922
v -0.059533596 0 -0.43900833
v 0 0 -0.88704544
v 0 0.5324393 0.3548182
v -0.059533596 0 -0.43900833
v 0.15534368 0 -0.40344244
v -0.059533596 0 -0.43900833
v 0.15534368 0 -0.40344244
v 0 0 -0.88704544
v 0 0.5324393 0.3548182
v 0.15534368 0 -0.40344244
v 0.20494226 0 -0.23978633
v 0.15534368 0 -0.40344244
v 0.20494226 0 -0.23978633
v 0 0 -0.88704544
v 0 0.5324393 0.3548182
v 0.20494226 0 -0.23978633
v 0.32157663 0 2.890361E-07
v 0.20494226 0 -0.23978633
v 0.32157663 0 2.890361E-07
v 0 0 -0.88704544
v -0.33587515 0.028780503 -1.0999364
v -0.43375877 0 -1.3152803
v -0.23799154 0 -1.3152803
v -0.33587515 0.11871958 -1.0509945
v -0.39460534 0.028780503 -1.0999364
v -0.27714497 0.028780503 -1.0999364
v 0 0.028780503 -1.0999364
v -0.09788362 0 -1.3152803
v 0.09788362 0 -1.3152803
v 0 0.11871958 -1.0509945
v -0.058730174 0.028780503 -1.0999364
v 0.058730174 0.028780503 -1.0999364
v 0.33587515 0.028780503 -1.0999364
v 0.23799154 0 -1.3152803
v 0.43375877 0 -1.3152803
v 0.33587515 0.11871958 -1.0509945
v 0.27714497 0.028780503 -1.0999364
v 0.39460534 0.028780503 -1.0999364
vn -0.8138835 -0.5738964 0.09075565
vn -0.8138835 -0.5738964 0.09075565
vn -0.8138835 -0.5738964 0.09075565
vn -0 -1 0
vn -0 -1 0
vn -0 -1 0
vn -0.5615739 -0.20951872 -0.80046034
vn -0.5615739 -0.20951872 -0.80046034
vn -0.5615739 -0.20951872 -0.80046034
vn -0 -1 0
vn -0 -1 0
vn -0 -1 0
vn -0.209269 -0.13922745 -0.9678957
vn -0.209269 -0.13922745 -0.9678957
vn -0.209269 -0.13922745 -0.9678957
vn -0 -1 0
vn -0 -1 0
vn -0 -1 0
vn 0.42723247 -0.16866411 -0.88827074
vn 0.42723247 -0.16866411 -0.88827074
vn 0.42723247 -0.16866411 -0.88827074
vn 0 -1 -0
vn 0 -1 -0
vn 0 -1 -0
vn 0.7730723 -0.34481767 -0.5324096
vn 0.7730723 -0.34481767 -0.5324096
vn 0.7730723 -0.34481767 -0.5324096
vn 0 -1 -0
vn 0 -1 -0
vn 0 -1 -0
vn 0.6639448 -0.65178823 0.36653697
vn 0.6639448 -0.65178823 0.36653697
vn 0.6639448 -0.65178823 0.36653697
vn 0 1 0
vn 0 1 0
vn 0 1 0
vn 0.74654835 -0.6069957 0.27243683
vn 0.74654835 -0.6069957 0.27243683
vn 0.74654835 -0.6069957 0.27243683
vn 0 1 0
vn 0 1 0
vn 0 1 0
vn 0.41442454 -0.76989067 0.48530486
vn 0.41442454 -0.76989067 0.48530486
vn 0.41442454 -0.76989067 0.48530486
vn 0 1 0
vn 0 1 0
vn 0 1 0
vn -0.092593476 -0.8236974 0.5594185
vn -0.092593476 -0.8236974 0.5594185
vn -0.092593476 -0.8236974 0.5594185
vn -0 1 0
vn -0 1 0
vn -0 1 0
vn -0.78686464 -0.5691882 0.23847178
vn -0.78686464 -0.5691882 0.23847178
vn -0.78686464 -0.5691882 0.23847178
vn -0 -1 0
vn -0 -1 0
vn -0 -1 0
vn -0.6903967 -0.6407655 0.33581525
vn -0.6903967 -0.6407655 0.33581525
vn -0.6903967 -0.6407655 0.33581525
vn -0 1 0
vn -0 1 0
vn -0 1 0
vn 0 -0.9911869 0.13247113
vn 0 -0.9911869 0.13247113
vn 0 -0.9911869 0.13247113
vn 0 -0.47798005 0.87837064
vn 0 -0.47798005 0.87837064
vn 0 -0.47798005 0.87837064
vn 0 -0.99118686 0.13247111
vn 0 -0.99118686 0.13247111
vn 0 -0.99118686 0.13247111
vn 0 -0.47798008 0.87837064
vn 0 -0.47798008 0.87837064
vn 0 -0.47798008 0.87837064
vn 0 -0.9911869 0.13247113
vn 0 -0.9911869 0.13247113
vn 0 -0.9911869 0.13247113
vn 0 -0.47798005 0.87837064
vn 0 -0.47798005 0.87837064
vn 0 -0.47798005 0.87837064
f 1//1 2//2 3//3
f 4//4 5//5 6//6
f 7//7 8//8 9//9
f 10//10 11//11 12//12
f 13//13 14//14 15//15
f 16//16 17//17 18//18
f 19//19 20//20 21//21
f 22//22 23//23 24//24
f 25//25 26//26 27//27
f 28//28 29//29 30//30
f 31//31 32//32 33//33
f 34//34 35//35 36//36
f 37//37 38//38 39//39
f 40//40 41//41 42//42
f 43//43 44//44 45//45
f 46//46 47//47 48//48
f 49//49 50//50 51//51
f 52//52 53//53 54//54
f 55//55 56//56 57//57
f 58//58 59//59 60//60
f 61//61 62//62 63//63
f 64//64 65//65 66//66
f 67//67 68//68 69//69
f 70//70 71//71 72//72
f 73//73 74//74 75//75
f 76//76 77//77 78//78
f 79//79 80//80 81//81
f 82//82 83//83 84//84
