# Exported from SharpOpenGl procedural mesh
o cryo_bomber_mk3_41
# vertices 84
v 0 1.216101 0.6908697
v 1.2630421 0 0
v 1.3635907 0 0.46689042
v 1.2630421 0 0
v 1.3635907 0 0.46689042
v 0 0 -1.7271742
v 0 1.216101 0.6908697
v 1.3635907 0 0.46689042
v 0.48637828 0 0.7855465
v 1.3635907 0 0.46689042
v 0.48637828 0 0.7855465
v 0 0 -1.7271742
v 0 1.216101 0.6908697
v 0.48637828 0 0.7855465
v -0.13220254 0 0.854797
v 0.48637828 0 0.7855465
v -0.13220254 0 0.854797
v 0 0 -1.7271742
v 0 1.216101 0.6908697
v -0.13220254 0 0.854797
v -0.94388527 0 0.6526555
v -0.13220254 0 0.854797
v -0.94388527 0 0.6526555
v 0 0 -1.7271742
v 0 1.216101 0.6908697
v -0.94388527 0 0.6526555
v -1.4883574 0 0.24330044
v -0.94388527 0 0.6526555
v -1.4883574 0 0.24330044
v 0 0 -1.7271742
v 0 1.216101 0.6908697
v -1.4883574 0 0.24330044
v -0.96954715 0 -0.2433006
v -1.4883574 0 0.24330044
v -0.96954715 0 -0.2433006
v 0 0 -1.7271742
v 0 1.216101 0.6908697
v -0.96954715 0 -0.2433006
v -0.68103904 0 -0.6526557
v -0.96954715 0 -0.2433006
v -0.68103904 0 -0.6526557
v 0 0 -1.7271742
v 0 1.216101 0.6908697
v -0.68103904 0 -0.6526557
v -0.22387317 0 -0.85479707
v -0.68103904 0 -0.6526557
v -0.22387317 0 -0.85479707
v 0 0 -1.7271742
v 0 1.216101 0.6908697
v -0.22387317 0 -0.85479707
v 0.58416235 0 -0.7855464
v -0.22387317 0 -0.85479707
v 0.58416235 0 -0.7855464
v 0 0 -1.7271742
v 0 1.216101 0.6908697
v 0.58416235 0 -0.7855464
v 0.77067536 0 -0.46689013
v 0.58416235 0 -0.7855464
v 0.77067536 0 -0.46689013
v 0 0 -1.7271742
v 0 1.216101 0.6908697
v 0.77067536 0 -0.46689013
v 1.2092732 0 5.627848E-07
v 0.77067536 0 -0.46689013
v 1.2092732 0 5.627848E-07
v 0 0 -1.7271742
v -1.2630421 0.06573519 -2.141696
v -1.7826937 0 -3.2849298
v -0.74339044 0 -3.2849298
v -1.2630421 0.27115768 -1.8818702
v -1.5748332 0.06573519 -2.141696
v -0.9512511 0.06573519 -2.141696
v 0 0.06573519 -2.141696
v -0.51965165 0 -3.2849298
v 0.51965165 0 -3.2849298
v 0 0.27115768 -1.8818702
v -0.311791 0.06573519 -2.141696
v 0.311791 0.06573519 -2.141696
v 1.2630421 0.06573519 -2.141696
v 0.74339044 0 -3.2849298
v 1.7826937 0 -3.2849298
v 1.2630421 0.27115768 -1.8818702
v 0.9512511 0.06573519 -2.141696
v 1.5748332 0.06573519 -2.141696
vn -0.6462823 -0.75029826 0.13918222
vn -0.6462823 -0.75029826 0.13918222
vn -0.6462823 -0.75029826 0.13918222
vn -0 -1 0
vn -0 -1 0
vn -0 -1 0
vn -0.33416033 -0.20526326 -0.9198934
vn -0.33416033 -0.20526326 -0.9198934
vn -0.33416033 -0.20526326 -0.9198934
vn -0 -1 0
vn -0 -1 0
vn -0 -1 0
vn -0.11043858 -0.12097102 -0.98649347
vn -0.11043858 -0.12097102 -0.98649347
vn -0.11043858 -0.12097102 -0.98649347
vn -0 -1 0
vn -0 -1 0
vn -0 -1 0
vn 0.23873182 -0.15517049 -0.95860803
vn 0.23873182 -0.15517049 -0.95860803
vn 0.23873182 -0.15517049 -0.95860803
vn 0 -1 -0
vn 0 -1 -0
vn 0 -1 -0
vn 0.5497841 -0.40374026 -0.73125327
vn 0.5497841 -0.40374026 -0.73125327
vn 0.5497841 -0.40374026 -0.73125327
vn 0 -0.99999994 -0
vn 0 -0.99999994 -0
vn 0 -0.99999994 -0
vn 0.45887455 -0.7416669 0.4892485
vn 0.45887455 -0.7416669 0.4892485
vn 0.45887455 -0.7416669 0.4892485
vn 0 1 0
vn 0 1 0
vn 0 1 0
vn 0.5514253 -0.7381675 0.3886373
vn 0.5514253 -0.7381675 0.3886373
vn 0.5514253 -0.7381675 0.3886373
vn 0 0.99999994 0
vn 0 0.99999994 0
vn 0 0.99999994 0
vn 0.25424647 -0.7776405 0.5750078
vn 0.25424647 -0.7776405 0.5750078
vn 0.25424647 -0.7776405 0.5750078
vn 0 0.99999994 0
vn 0 0.99999994 0
vn 0 0.99999994 0
vn -0.05332563 -0.78102493 0.6222191
vn -0.05332563 -0.78102493 0.6222191
vn -0.05332563 -0.78102493 0.6222191
vn -0 1 0
vn -0 1 0
vn -0 1 0
vn -0.6018236 -0.7167465 0.35225394
vn -0.6018236 -0.7167465 0.35225394
vn -0.6018236 -0.7167465 0.35225394
vn -0 -1 0
vn -0 -1 0
vn -0 -1 0
vn -0.4869398 -0.74407375 0.45743203
vn -0.4869398 -0.74407375 0.45743203
vn -0.4869398 -0.74407375 0.45743203
vn -0 1 0
vn -0 1 0
vn -0 1 0
vn 0 -0.998351 0.057404526
vn 0 -0.998351 0.057404526
vn 0 -0.998351 0.057404526
vn 0 -0.7844467 0.6201962
vn 0 -0.7844467 0.6201962
vn 0 -0.7844467 0.6201962
vn 0 -0.998351 0.057404526
vn 0 -0.998351 0.057404526
vn 0 -0.998351 0.057404526
vn 0 -0.78444666 0.6201962
vn 0 -0.78444666 0.6201962
vn 0 -0.78444666 0.6201962
vn 0 -0.998351 0.057404526
vn 0 -0.998351 0.057404526
vn 0 -0.998351 0.057404526
vn 0 -0.7844467 0.6201962
vn 0 -0.7844467 0.6201962
vn 0 -0.7844467 0.6201962
f 1//1 2//2 3//3
f 4//4 5//5 6//6
f 7//7 8//8 9//9
f 10//10 11//11 12//12
f 13//13 14//14 15//15
f 16//16 17//17 18//18
f 19//19 20//20 21//21
f 22//22 23//23 24//24
f 25//25 26//26 27//27
f 28//28 29//29 30//30
f 31//31 32//32 33//33
f 34//34 35//35 36//36
f 37//37 38//38 39//39
f 40//40 41//41 42//42
f 43//43 44//44 45//45
f 46//46 47//47 48//48
f 49//49 50//50 51//51
f 52//52 53//53 54//54
f 55//55 56//56 57//57
f 58//58 59//59 60//60
f 61//61 62//62 63//63
f 64//64 65//65 66//66
f 67//67 68//68 69//69
f 70//70 71//71 72//72
f 73//73 74//74 75//75
f 76//76 77//77 78//78
f 79//79 80//80 81//81
f 82//82 83//83 84//84
