# Exported from SharpOpenGl procedural mesh
o cryo_frigate_mk3_39
# vertices 78
v 0 1.3708106 0.8647601
v 0.8764192 0 0
v 0.9461894 0 0.5844058
v 0.8764192 0 0
v 0.9461894 0 0.5844058
v 0 0 -2.1619003
v 0 1.3708106 0.8647601
v 0.9461894 0 0.5844058
v 0.33749568 0 0.9832669
v 0.9461894 0 0.5844058
v 0.33749568 0 0.9832669
v 0 0 -2.1619003
v 0 1.3708106 0.8647601
v 0.33749568 0 0.9832669
v -0.09173474 0 1.0699476
v 0.33749568 0 0.9832669
v -0.09173474 0 1.0699476
v 0 0 -2.1619003
v 0 1.3708106 0.8647601
v -0.09173474 0 1.0699476
v -0.6549577 0 0.8169275
v -0.09173474 0 1.0699476
v -0.6549577 0 0.8169275
v 0 0 -2.1619003
v 0 1.3708106 0.8647601
v -0.6549577 0 0.8169275
v -1.0327644 0 0.30453867
v -0.6549577 0 0.8169275
v -1.0327644 0 0.30453867
v 0 0 -2.1619003
v 0 1.3708106 0.8647601
v -1.0327644 0 0.30453867
v -0.67276436 0 -0.30453885
v -1.0327644 0 0.30453867
v -0.67276436 0 -0.30453885
v 0 0 -2.1619003
v 0 1.3708106 0.8647601
v -0.67276436 0 -0.30453885
v -0.47256988 0 -0.8169278
v -0.67276436 0 -0.30453885
v -0.47256988 0 -0.8169278
v 0 0 -2.1619003
v 0 1.3708106 0.8647601
v -0.47256988 0 -0.8169278
v -0.15534458 0 -1.0699477
v -0.47256988 0 -0.8169278
v -0.15534458 0 -1.0699477
v 0 0 -2.1619003
v 0 1.3708106 0.8647601
v -0.15534458 0 -1.0699477
v 0.40534756 0 -0.98326683
v -0.15534458 0 -1.0699477
v 0.40534756 0 -0.98326683
v 0 0 -2.1619003
v 0 1.3708106 0.8647601
v 0.40534756 0 -0.98326683
v 0.53476816 0 -0.5844054
v 0.40534756 0 -0.98326683
v 0.53476816 0 -0.5844054
v 0 0 -2.1619003
v 0 1.3708106 0.8647601
v 0.53476816 0 -0.5844054
v 0.8391092 0 7.0443656E-07
v 0.53476816 0 -0.5844054
v 0.8391092 0 7.0443656E-07
v 0 0 -2.1619003
v -0.70113534 0.07409787 -2.6807563
v -1.0316706 0 -3.4079337
v -0.3706001 0 -3.4079337
v -0.70113534 0.30565372 -2.5154886
v -0.8994565 0.07409787 -2.6807563
v -0.5028142 0.07409787 -2.6807563
v 0.70113534 0.07409787 -2.6807563
v 0.3706001 0 -3.4079337
v 1.0316706 0 -3.4079337
v 0.70113534 0.30565372 -2.5154886
v 0.5028142 0.07409787 -2.6807563
v 0.8994565 0.07409787 -2.6807563
vn -0.80977935 -0.57871485 0.0966769
vn -0.80977935 -0.57871485 0.0966769
vn -0.80977935 -0.57871485 0.0966769
vn -0 -0.99999994 0
vn -0 -0.99999994 0
vn -0 -0.99999994 0
vn -0.53668106 -0.20293593 -0.81901795
vn -0.53668106 -0.20293593 -0.81901795
vn -0.53668106 -0.20293593 -0.81901795
vn -0 -0.99999994 0
vn -0 -0.99999994 0
vn -0 -0.99999994 0
vn -0.19620843 -0.13230143 -0.97159594
vn -0.19620843 -0.13230143 -0.97159594
vn -0.19620843 -0.13230143 -0.97159594
vn -0 -1 0
vn -0 -1 0
vn -0 -1 0
vn 0.40438557 -0.16180085 -0.90016264
vn 0.40438557 -0.16180085 -0.90016264
vn 0.40438557 -0.16180085 -0.90016264
vn 0 -1 -0
vn 0 -1 -0
vn 0 -1 -0
vn 0.75635386 -0.3419173 -0.55769295
vn 0.75635386 -0.3419173 -0.55769295
vn 0.75635386 -0.3419173 -0.55769295
vn 0 -1 -0
vn 0 -1 -0
vn 0 -1 -0
vn 0.6538218 -0.65051985 0.38644662
vn 0.6538218 -0.65051985 0.38644662
vn 0.6538218 -0.65051985 0.38644662
vn 0 1 0
vn 0 1 0
vn 0 1 0
vn 0.73887527 -0.6088715 0.28868452
vn 0.73887527 -0.6088715 0.28868452
vn 0.73887527 -0.6088715 0.28868452
vn 0 0.99999994 0
vn 0 0.99999994 0
vn 0 0.99999994 0
vn 0.40432766 -0.76127744 0.50692785
vn 0.40432766 -0.76127744 0.50692785
vn 0.40432766 -0.76127744 0.50692785
vn 0 1 0
vn 0 1 0
vn 0 1 0
vn -0.089755796 -0.8092393 0.5805822
vn -0.089755796 -0.8092393 0.5805822
vn -0.089755796 -0.8092393 0.5805822
vn -0 0.99999994 0
vn -0 0.99999994 0
vn -0 0.99999994 0
vn -0.7802108 -0.57199806 0.25315896
vn -0.7802108 -0.57199806 0.25315896
vn -0.7802108 -0.57199806 0.25315896
vn -0 -1 0
vn -0 -1 0
vn -0 -1 0
vn -0.6810418 -0.6406203 0.35466582
vn -0.6810418 -0.6406203 0.35466582
vn -0.6810418 -0.6406203 0.35466582
vn -0 1 0
vn -0 1 0
vn -0 1 0
vn 0 -0.9948485 0.101373
vn 0 -0.9948485 0.101373
vn 0 -0.9948485 0.101373
vn 0 -0.5809371 0.8139484
vn 0 -0.5809371 0.8139484
vn 0 -0.5809371 0.8139484
vn 0 -0.9948485 0.101373
vn 0 -0.9948485 0.101373
vn 0 -0.9948485 0.101373
vn 0 -0.5809371 0.8139484
vn 0 -0.5809371 0.8139484
vn 0 -0.5809371 0.8139484
f 1//1 2//2 3//3
f 4//4 5//5 6//6
f 7//7 8//8 9//9
f 10//10 11//11 12//12
f 13//13 14//14 15//15
f 16//16 17//17 18//18
f 19//19 20//20 21//21
f 22//22 23//23 24//24
f 25//25 26//26 27//27
f 28//28 29//29 30//30
f 31//31 32//32 33//33
f 34//34 35//35 36//36
f 37//37 38//38 39//39
f 40//40 41//41 42//42
f 43//43 44//44 45//45
f 46//46 47//47 48//48
f 49//49 50//50 51//51
f 52//52 53//53 54//54
f 55//55 56//56 57//57
f 58//58 59//59 60//60
f 61//61 62//62 63//63
f 64//64 65//65 66//66
f 67//67 68//68 69//69
f 70//70 71//71 72//72
f 73//73 74//74 75//75
f 76//76 77//77 78//78
