# Exported from SharpOpenGl procedural mesh
o nexar_bomber_veteran_54
# vertices 363
v -0.7407763 0.08499305 -1.6735997
v 0.7407763 0.08499305 -1.6735997
v 0 0.26560327 -1.3175794
v -0.7407763 0.08499305 -1.6735997
v 0 0.26560327 -1.3175794
v 0.38165355 0.1460524 -0.8824435
v 0.7407763 0.08499305 -1.6735997
v 2.504874 0.1460524 -0.8824435
v 1.4432638 0.45641378 -1.3175794
v -0.7407763 0 -1.6735997
v 0.38165355 0 -0.8824435
v 0.7407763 0 -1.6735997
v 0.7407763 0 -1.6735997
v 0.38165355 0 -0.8824435
v 2.504874 0 -0.8824435
v 0.38165355 0.1460524 -0.8824435
v 2.504874 0.1460524 -0.8824435
v 1.4432638 0.45641378 -0.5264232
v 0.38165355 0.1460524 -0.8824435
v 1.4432638 0.45641378 -0.5264232
v 0.7160677 0.18378918 -0.091287255
v 2.504874 0.1460524 -0.8824435
v 3.2358603 0.18378918 -0.091287255
v 1.9759641 0.5743412 -0.5264232
v 0.38165355 0 -0.8824435
v 0.7160677 0 -0.091287255
v 2.504874 0 -0.8824435
v 2.504874 0 -0.8824435
v 0.7160677 0 -0.091287255
v 3.2358603 0 -0.091287255
v 0.7160677 0.18378918 -0.091287255
v 3.2358603 0.18378918 -0.091287255
v 1.9759641 0.5743412 0.26473302
v 0.7160677 0.18378918 -0.091287255
v 1.9759641 0.5743412 0.26473302
v 0.0021207333 0.18378918 0.6998689
v 3.2358603 0.18378918 -0.091287255
v 2.5219135 0.18378918 0.6998689
v 1.2620171 0.5743412 0.26473302
v 0.7160677 0 -0.091287255
v 0.0021207333 0 0.6998689
v 3.2358603 0 -0.091287255
v 3.2358603 0 -0.091287255
v 0.0021207333 0 0.6998689
v 2.5219135 0 0.6998689
v 0.0021207333 0.18378918 0.6998689
v 2.5219135 0.18378918 0.6998689
v 1.2620171 0.5743412 1.0558892
v 0.0021207333 0.18378918 0.6998689
v 1.2620171 0.5743412 1.0558892
v -1.4657065 0.14605239 1.4910252
v 2.5219135 0.18378918 0.6998689
v 0.9694196 0.14605239 1.4910252
v -0.24814342 0.45641375 1.0558892
v 0.0021207333 0 0.6998689
v -1.4657065 0 1.4910252
v 2.5219135 0 0.6998689
v 2.5219135 0 0.6998689
v -1.4657065 0 1.4910252
v 0.9694196 0 1.4910252
v -1.4657065 0.14605239 1.4910252
v 0.9694196 0.14605239 1.4910252
v -0.24814342 0.45641375 1.8470454
v -1.4657065 0.14605239 1.4910252
v -0.24814342 0.45641375 1.8470454
v -2.342525 0.084993035 2.2821813
v 0.9694196 0.14605239 1.4910252
v -0.8609726 0.084993035 2.2821813
v -1.6017488 0.26560324 1.8470454
v -1.4657065 0 1.4910252
v -2.342525 0 2.2821813
v 0.9694196 0 1.4910252
v 0.9694196 0 1.4910252
v -2.342525 0 2.2821813
v -0.8609726 0 2.2821813
v 1.3402202 0.11046021 -1.5214542
v 1.3402202 0.44184083 -1.5214542
v 2.6804407 0.16939586 -1.5214542
v -1.3402205 0.11046019 -1.5214542
v -2.6804407 0.04234896 -1.5214542
v -1.3402205 0.44184077 -1.5214542
v -0.2615286 0.11046021 1.6735998
v -0.2615286 0.44184083 1.6735998
v 1.0786918 0.16939586 1.6735998
v -2.9419694 0.11046019 1.6735998
v -4.2821894 0.04234896 1.6735998
v -2.9419694 0.44184077 1.6735998
v -0.30459556 0.090659246 0.09128725
v 0.30459556 0.090659246 0.09128725
v 0 0.28331015 0.2556043
v -0.30459556 0.090659246 0.09128725
v 0 0.28331015 0.2556043
v 0.53304213 0.12276773 0.45643628
v 0.30459556 0.090659246 0.09128725
v 1.0508547 0.12276773 0.45643628
v 0.7919484 0.38364917 0.2556043
v -0.30459556 0 0.09128725
v 0.53304213 0 0.45643628
v 0.30459556 0 0.09128725
v 0.30459556 0 0.09128725
v 0.53304213 0 0.45643628
v 1.0508547 0 0.45643628
v 0.53304213 0.12276773 0.45643628
v 1.0508547 0.12276773 0.45643628
v 0.7919484 0.38364917 0.62075335
v 0.53304213 0.12276773 0.45643628
v 0.7919484 0.38364917 0.62075335
v -0.21321696 0.15487622 0.8215853
v 1.0508547 0.12276773 0.45643628
v 0.21321681 0.15487622 0.8215853
v -6.9234325E-08 0.4839882 0.62075335
v 0.53304213 0 0.45643628
v -0.21321696 0 0.8215853
v 1.0508547 0 0.45643628
v 1.0508547 0 0.45643628
v -0.21321696 0 0.8215853
v 0.21321681 0 0.8215853
v -0.7919484 0 -0.060858168
v 0.7919484 0 -0.060858168
v 0 0.059022952 0.1825745
v 1.2183822 0.2478964 0.121716335
v 1.5534374 0.16526426 0.121716335
v 1.2183822 0.16526426 0.2724911
v 1.2183822 0.16526426 0.121716335
v 1.5534374 0.13634302 0.121716335
v 1.2183822 0.13634302 0.2724911
v 1.2183822 0.2478964 0.121716335
v 1.2183822 0.16526426 0.2724911
v 0.8833271 0.16526426 0.12171632
v 1.2183822 0.16526426 0.121716335
v 1.2183822 0.13634302 0.2724911
v 0.8833271 0.13634302 0.12171632
v 1.2183822 0.2478964 0.121716335
v 0.8833271 0.16526426 0.12171632
v 1.2183822 0.16526426 -0.029058442
v 1.2183822 0.16526426 0.121716335
v 0.8833271 0.13634302 0.12171632
v 1.2183822 0.13634302 -0.029058442
v 1.2183822 0.2478964 0.121716335
v 1.2183822 0.16526426 -0.029058442
v 1.5534374 0.16526426 0.121716365
v 1.2183822 0.16526426 0.121716335
v 1.2183822 0.13634302 -0.029058442
v 1.5534374 0.13634302 0.121716365
v -0.30459556 0.14165507 1.8257451
v 0.30459556 0.14165507 1.8257451
v 0 0.21248263 2.0083196
v -0.42643377 0 -1.460596
v -0.42643377 0 -1.1563052
v 0.42643377 0 -1.1563052
v -0.42643377 0 -1.460596
v 0.42643377 0 -1.1563052
v 0.42643377 0 -1.460596
v -0.42643377 0.07082754 -1.460596
v 0.42643377 0.07082754 -1.1563052
v -0.42643377 0.07082754 -1.1563052
v -0.42643377 0.07082754 -1.460596
v 0.42643377 0.07082754 -1.460596
v 0.42643377 0.07082754 -1.1563052
v -0.42643377 0 -1.460596
v -0.42643377 0.07082754 -1.460596
v -0.42643377 0.07082754 -1.1563052
v -0.42643377 0 -1.460596
v -0.42643377 0.07082754 -1.1563052
v -0.42643377 0 -1.1563052
v 0.42643377 0 -1.460596
v 0.42643377 0 -1.1563052
v 0.42643377 0.07082754 -1.1563052
v 0.42643377 0 -1.460596
v 0.42643377 0.07082754 -1.1563052
v 0.42643377 0.07082754 -1.460596
v -0.18275732 0.25970098 0.24343267
v 0.18275732 0.25970098 0.24343267
v 0 0.29511476 0.365149
v -1.4806727 0.062129423 -1.8140416
v -2.0898638 0 -3.154262
v -0.87148166 0 -3.154262
v 0 0.062129423 -1.8140416
v -0.60919106 0 -3.154262
v 0.60919106 0 -3.154262
v 1.4806727 0.062129423 -1.8140416
v 0.87148166 0 -3.154262
v 2.0898638 0 -3.154262
v -1.2768431 0.13979122 -0.117034934
v -1.2133857 0.108726494 -0.093627945
v -1.2768431 0.093194135 -0.08192445
v -1.223962 0.1475574 0.10240557
v -1.1605046 0.11649268 0.12581256
v -1.223962 0.09901877 0.13751605
v -1.1710807 0.15532357 0.32184607
v -1.1076233 0.124258846 0.34525305
v -1.1710807 0.1048434 0.35695654
v -1.1181996 0.16308975 0.5412866
v -1.0547422 0.13202503 0.56469357
v -1.1181996 0.11066804 0.57639706
v -1.0653183 0.17085592 0.7607271
v -1.001861 0.13979122 0.7841341
v -1.0653183 0.11649267 0.7958376
v 1.2768431 0.13979122 -0.117034934
v 1.2133857 0.108726494 -0.093627945
v 1.2768431 0.093194135 -0.08192445
v 1.223962 0.1475574 0.10240557
v 1.1605046 0.11649268 0.12581256
v 1.223962 0.09901877 0.13751605
v 1.1710807 0.15532357 0.32184607
v 1.1076233 0.124258846 0.34525305
v 1.1710807 0.1048434 0.35695654
v 1.1181996 0.16308975 0.5412866
v 1.0547422 0.13202503 0.56469357
v 1.1181996 0.11066804 0.57639706
v 1.0653183 0.17085592 0.7607271
v 1.001861 0.13979122 0.7841341
v 1.0653183 0.11649267 0.7958376
v -0.72687894 0.3572442 -0.17555241
v 0.72687894 0.3572442 -0.17555241
v 0.05 0.40384126 -0.15799718
v -0.6105404 0.36501038 0.073146835
v 0.6105404 0.36501038 0.073146835
v 0.05 0.4116074 0.09070207
v -0.4942018 0.37277657 0.32184607
v 0.4942018 0.37277657 0.32184607
v 0.05 0.4193736 0.3394013
v -0.37786326 0.38054276 0.5705453
v 0.37786326 0.38054276 0.5705453
v 0.05 0.42713976 0.58810055
v -0.26152468 0.3883089 0.81924456
v 0.26152468 0.3883089 0.81924456
v 0.05 0.43490598 0.8367998
v -0.9230135 0.031064712 -0.17555241
v 1.0230135 0.031064712 -0.17555241
v 0.05 0.093194135 -0.15214542
v -0.7576012 0.031064712 0.2633286
v 0.8576012 0.031064712 0.2633286
v 0.05 0.100960314 0.2867356
v -0.59218895 0.031064712 0.70220965
v 0.692189 0.031064712 0.70220965
v 0.05 0.108726494 0.72561663
v -0.76918393 0.15532357 0.058517467
v -0.7057265 0.18638827 0.0877762
v -0.76918393 0.124258846 0.093627945
v -0.726879 0.13979122 0.07022096
v -0.76918393 0.17085592 0.08192445
v -0.7480315 0.108726494 0.0877762
v -0.76918393 0.15532357 0.23406987
v -0.7057265 0.18638827 0.2633286
v -0.76918393 0.124258846 0.26918036
v -0.76918393 0.15532357 0.40962228
v -0.7057265 0.18638827 0.438881
v -0.76918393 0.124258846 0.44473276
v -0.726879 0.13979122 0.42132577
v -0.76918393 0.17085592 0.43302926
v -0.7480315 0.108726494 0.438881
v 0.76918393 0.15532357 0.058517467
v 0.7057265 0.18638827 0.0877762
v 0.76918393 0.124258846 0.093627945
v 0.726879 0.13979122 0.07022096
v 0.76918393 0.17085592 0.08192445
v 0.7480315 0.108726494 0.0877762
v 0.76918393 0.15532357 0.23406987
v 0.7057265 0.18638827 0.2633286
v 0.76918393 0.124258846 0.26918036
v 0.76918393 0.15532357 0.40962228
v 0.7057265 0.18638827 0.438881
v 0.76918393 0.124258846 0.44473276
v 0.726879 0.13979122 0.42132577
v 0.76918393 0.17085592 0.43302926
v 0.7480315 0.108726494 0.438881
v -0.5576592 0.34171185 -0.058517467
v 0.5576592 0.34171185 -0.058517467
v 0.05 0.37277654 -0.040962227
v -0.38843948 0.3572442 0.3218461
v 0.38843948 0.3572442 0.3218461
v 0.05 0.3883089 0.33940133
v -0.21921973 0.37277654 0.70220965
v 0.21921973 0.37277654 0.70220965
v 0.05 0.40384126 0.7197649
v -0.16152468 0.031064712 -0.29258737
v 0.26152468 0.031064712 -0.29258737
v 0.05 0.07766178 -0.23406987
v -0.5076592 0.031064712 -0.35110483
v -0.25382963 0.031064712 -0.35110483
v -0.38074443 0.07766178 -0.23406987
v -0.1269148 0.031064712 -0.35110483
v 0.1269148 0.031064712 -0.35110483
v 0 0.07766178 -0.23406987
v 0.25382963 0.031064712 -0.35110483
v 0.5076592 0.031064712 -0.35110483
v 0.38074443 0.07766178 -0.23406987
v -0.42304936 0.031064712 0.17555241
v 0.42304936 0.031064712 0.17555241
v 0 0.07766178 0.29258737
v -0.33843946 0.031064712 0.058517467
v 0.33843946 0.031064712 0.058517467
v 0 0.0698956 0.07607271
v -0.29190406 0.037277658 0.18725592
v 0.29190406 0.037277658 0.18725592
v 0 0.076108545 0.20481116
v -0.24536861 0.0434906 0.31599435
v 0.24536861 0.0434906 0.31599435
v 0 0.082321495 0.3335496
v -0.19883318 0.04970354 0.4447328
v 0.19883318 0.04970354 0.4447328
v 0 0.08853443 0.46228802
v -0.15229777 0.05591648 0.57347125
v 0.15229777 0.05591648 0.57347125
v 0 0.09474737 0.5910265
v -0.10576233 0.062129423 0.70220965
v 0.10576233 0.062129423 0.70220965
v 0 0.100960314 0.7197649
v -0.29613456 0.046597067 0.17555241
v 0.29613456 0.046597067 0.17555241
v 0 0.093194135 0.19310765
v -0.23972796 0.046597067 0.3218461
v 0.23972796 0.046597067 0.3218461
v 0 0.093194135 0.33940133
v -0.18332139 0.046597067 0.46813974
v 0.18332139 0.046597067 0.46813974
v 0 0.093194135 0.48569497
v -0.12691481 0.046597067 0.61443347
v 0.12691481 0.046597067 0.61443347
v 0 0.093194135 0.6319887
v -0.21152468 0.34171185 -0.058517467
v 0.21152468 0.34171185 -0.058517467
v 0 0.3883089 -0.0438881
v -0.17979598 0.3533611 0.10240558
v 0.17979598 0.3533611 0.10240558
v 0 0.39995816 0.11703494
v -0.14806728 0.36501038 0.26332864
v 0.14806728 0.36501038 0.26332864
v 0 0.41160744 0.277958
v -0.11633857 0.37665963 0.42425168
v 0.11633857 0.37665963 0.42425168
v 0 0.4232567 0.43888104
v -0.084609866 0.3883089 0.58517474
v 0.084609866 0.3883089 0.58517474
v 0 0.43490598 0.5998041
v -0.21152468 0.046597067 -0.23406987
v 0.21152468 0.046597067 -0.23406987
v 0 0.093194135 -0.2194405
v -0.21152468 0.046597067 -0.3218461
v 0.21152468 0.046597067 -0.3218461
v 0 0.093194135 -0.30721673
v -0.0869148 0.17085592 2.6379676
v 0.16691479 0.17085592 2.6379676
v 0.04 0.34171185 2.867356
v -0.0234574 0.31064713 2.7813354
v 0.1034574 0.31064713 2.7813354
v 0.04 0.37277654 2.867356
v -0.12921974 0.68590885 0.35110483
v 0.20921972 0.68590885 0.35110483
v 0.04 0.7455531 0.46813974
v -1.5629777 0.27958244 0.40962228
v -1.5629777 0.32617947 0.5266573
v -1.4995203 0.31064713 0.6436922
v 1.5629777 0.27958244 0.40962228
v 1.5629777 0.32617947 0.5266573
v 1.4995203 0.31064713 0.6436922
v -0.044609867 0.34171185 2.9247031
v 0.124609865 0.34171185 2.9247031
v 0.04 0.40384126 3.0393972
v -0.2138296 0.046597067 -0.46813974
v 0.2938296 0.046597067 -0.46813974
v 0.04 0.108726494 -0.3511048
vn 0 -0.8918068 0.4524164
vn 0 -0.8918068 0.4524164
vn 0 -0.8918068 0.4524164
vn 0.44461694 -0.6842955 -0.5779752
vn 0.44461694 -0.6842955 -0.5779752
vn 0.44461694 -0.6842955 -0.5779752
vn -0.40375552 -0.10724337 0.90855944
vn -0.40375552 -0.10724337 0.90855944
vn -0.40375552 -0.10724337 0.90855944
vn 0 1 0
vn 0 1 0
vn 0 1 0
vn 0 1 -0
vn 0 1 -0
vn 0 1 -0
vn 0 -0.7537887 0.65711683
vn 0 -0.7537887 0.65711683
vn 0 -0.7537887 0.65711683
vn 0.30542067 -0.948518 -0.08385571
vn 0.30542067 -0.948518 -0.08385571
vn 0.30542067 -0.948518 -0.08385571
vn -0.3953633 -0.8246 0.40462673
vn -0.3953633 -0.8246 0.40462673
vn -0.3953633 -0.8246 0.40462673
vn 0 1 0
vn 0 1 0
vn 0 1 0
vn 0 1 -0
vn 0 1 -0
vn 0 1 -0
vn 0 -0.67368025 0.739023
vn 0 -0.67368025 0.739023
vn 0 -0.67368025 0.739023
vn 0.23437032 -0.94886196 0.21149802
vn 0.23437032 -0.94886196 0.21149802
vn 0.23437032 -0.94886196 0.21149802
vn -0.22519568 -0.95288455 -0.20321873
vn -0.22519568 -0.95288455 -0.20321873
vn -0.22519568 -0.95288455 -0.20321873
vn 0 1 -0
vn 0 1 -0
vn 0 1 -0
vn 0 1 0
vn 0 1 0
vn 0 1 0
vn 0 -0.6736803 0.7390229
vn 0 -0.6736803 0.7390229
vn 0 -0.6736803 0.7390229
vn 0.19662976 -0.9265776 0.3206098
vn 0.19662976 -0.9265776 0.3206098
vn 0.19662976 -0.9265776 0.3206098
vn -0.13191555 -0.94353837 -0.30386433
vn -0.13191555 -0.94353837 -0.30386433
vn -0.13191555 -0.94353837 -0.30386433
vn 0 1 -0
vn 0 1 -0
vn 0 1 -0
vn 0 0.99999994 0
vn 0 0.99999994 0
vn 0 0.99999994 0
vn 0 -0.75378877 0.6571169
vn 0 -0.75378877 0.6571169
vn 0 -0.75378877 0.6571169
vn 0.20278232 -0.9676581 0.15005726
vn 0.20278232 -0.9676581 0.15005726
vn 0.20278232 -0.9676581 0.15005726
vn -0.080923826 -0.9618178 -0.26145324
vn -0.080923826 -0.9618178 -0.26145324
vn -0.080923826 -0.9618178 -0.26145324
vn 0 0.99999994 -0
vn 0 0.99999994 -0
vn 0 0.99999994 -0
vn 0 1 0
vn 0 1 0
vn 0 1 0
vn 0 0 -1
vn 0 0 -1
vn 0 0 -1
vn -0 0 -1
vn -0 0 -1
vn -0 0 -1
vn 0 0 -1
vn 0 0 -1
vn 0 0 -1
vn -0 0 -1
vn -0 0 -1
vn -0 0 -1
vn 0 -0.64894015 0.7608395
vn 0 -0.64894015 0.7608395
vn 0 -0.64894015 0.7608395
vn 0.38948265 0.15811089 -0.9073611
vn 0.38948265 0.15811089 -0.9073611
vn 0.38948265 0.15811089 -0.9073611
vn -0.4352155 0.2367727 0.8686347
vn -0.4352155 0.2367727 0.8686347
vn -0.4352155 0.2367727 0.8686347
vn 0 0.99999994 0
vn 0 0.99999994 0
vn 0 0.99999994 0
vn 0 1 0
vn 0 1 0
vn 0 1 0
vn 0 -0.5329489 0.8461474
vn 0 -0.5329489 0.8461474
vn 0 -0.5329489 0.8461474
vn 0.28972322 -0.6991973 0.65359277
vn 0.28972322 -0.6991973 0.65359277
vn 0.28972322 -0.6991973 0.65359277
vn -0.32819074 -0.6378075 -0.69677293
vn -0.32819074 -0.6378075 -0.69677293
vn -0.32819074 -0.6378075 -0.69677293
vn 0 1 -0
vn 0 1 -0
vn 0 1 -0
vn 0 1 0
vn 0 1 0
vn 0 1 0
vn 0 -0.97184193 0.23563386
vn 0 -0.97184193 0.23563386
vn 0 -0.97184193 0.23563386
vn -0.21138528 -0.8571207 -0.46974516
vn -0.21138528 -0.8571207 -0.46974516
vn -0.21138528 -0.8571207 -0.46974516
vn -0.08446944 -0.97858566 -0.18770991
vn -0.08446944 -0.97858566 -0.18770991
vn -0.08446944 -0.97858566 -0.18770991
vn 0.2113853 -0.8571207 -0.46974516
vn 0.2113853 -0.8571207 -0.46974516
vn 0.2113853 -0.8571207 -0.46974516
vn 0.084469445 -0.97858566 -0.18770991
vn 0.084469445 -0.97858566 -0.18770991
vn 0.084469445 -0.97858566 -0.18770991
vn 0.21138524 -0.8571206 0.46974507
vn 0.21138524 -0.8571206 0.46974507
vn 0.21138524 -0.8571206 0.46974507
vn 0.08446942 -0.97858566 0.18770988
vn 0.08446942 -0.97858566 0.18770988
vn 0.08446942 -0.97858566 0.18770988
vn -0.2113853 -0.8571206 0.46974507
vn -0.2113853 -0.8571206 0.46974507
vn -0.2113853 -0.8571206 0.46974507
vn -0.08446945 -0.97858566 0.18770988
vn -0.08446945 -0.97858566 0.18770988
vn -0.08446945 -0.97858566 0.18770988
vn 0 -0.93230385 0.36167592
vn 0 -0.93230385 0.36167592
vn 0 -0.93230385 0.36167592
vn 0 1 0
vn 0 1 0
vn 0 1 0
vn 0 1 0
vn 0 1 0
vn 0 1 0
vn 0 -1 0
vn 0 -1 0
vn 0 -1 0
vn 0 -1 0
vn 0 -1 0
vn 0 -1 0
vn 1 0 0
vn 1 0 0
vn 1 0 0
vn 1 0 0
vn 1 0 0
vn 1 0 0
vn -1 0 0
vn -1 0 0
vn -1 0 0
vn -1 0 0
vn -1 0 0
vn -1 0 0
vn 0 -0.96018386 0.2793687
vn 0 -0.96018386 0.2793687
vn 0 -0.96018386 0.2793687
vn 0 -0.9989271 0.04630788
vn 0 -0.9989271 0.04630788
vn 0 -0.9989271 0.04630788
vn 0 -0.9989271 0.04630788
vn 0 -0.9989271 0.04630788
vn 0 -0.9989271 0.04630788
vn 0 -0.9989271 0.04630788
vn 0 -0.9989271 0.04630788
vn 0 -0.9989271 0.04630788
vn 0 -0.60178286 -0.79865974
vn 0 -0.60178286 -0.79865974
vn 0 -0.60178286 -0.79865974
vn 0.011953972 -0.5860498 -0.8101869
vn 0.011953972 -0.5860498 -0.8101869
vn 0.011953972 -0.5860498 -0.8101869
vn 0.023287313 -0.57084215 -0.82072955
vn 0.023287313 -0.57084215 -0.82072955
vn 0.023287313 -0.57084215 -0.82072955
vn 0.03403266 -0.5561615 -0.83037716
vn 0.03403266 -0.5561615 -0.83037716
vn 0.03403266 -0.5561615 -0.83037716
vn 0.044221956 -0.54200417 -0.8392115
vn 0.044221956 -0.54200417 -0.8392115
vn 0.044221956 -0.54200417 -0.8392115
vn 0 0.60178286 0.79865974
vn 0 0.60178286 0.79865974
vn 0 0.60178286 0.79865974
vn 0.011953972 0.5860498 0.8101869
vn 0.011953972 0.5860498 0.8101869
vn 0.011953972 0.5860498 0.8101869
vn 0.023287313 0.57084215 0.82072955
vn 0.023287313 0.57084215 0.82072955
vn 0.023287313 0.57084215 0.82072955
vn 0.03403266 0.5561615 0.83037716
vn 0.03403266 0.5561615 0.83037716
vn 0.03403266 0.5561615 0.83037716
vn 0.044221956 0.54200417 0.8392115
vn 0.044221956 0.54200417 0.8392115
vn 0.044221956 0.54200417 0.8392115
vn 0 -0.35255513 0.935791
vn 0 -0.35255513 0.935791
vn 0 -0.35255513 0.935791
vn 0 -0.3525553 0.93579096
vn 0 -0.3525553 0.93579096
vn 0 -0.3525553 0.93579096
vn 0 -0.3525553 0.9357909
vn 0 -0.3525553 0.9357909
vn 0 -0.3525553 0.9357909
vn 0 -0.35255554 0.93579096
vn 0 -0.35255554 0.93579096
vn 0 -0.35255554 0.93579096
vn 0 -0.35255513 0.935791
vn 0 -0.35255513 0.935791
vn 0 -0.35255513 0.935791
vn 0 -0.35255525 0.93579096
vn 0 -0.35255525 0.93579096
vn 0 -0.35255525 0.93579096
vn 0 -0.31755158 0.94824094
vn 0 -0.31755158 0.94824094
vn 0 -0.31755158 0.94824094
vn 0 -0.28857428 0.95745754
vn 0 -0.28857428 0.95745754
vn 0 -0.28857428 0.95745754
vn 0.55785257 -0.62157446 -0.5499508
vn 0.55785257 -0.62157446 -0.5499508
vn 0.55785257 -0.62157446 -0.5499508
vn 0.40822816 0.22237518 0.88538074
vn 0.40822816 0.22237518 0.88538074
vn 0.40822816 0.22237518 0.88538074
vn 0.55785257 -0.62157446 -0.5499506
vn 0.55785257 -0.62157446 -0.5499506
vn 0.55785257 -0.62157446 -0.5499506
vn 0.5578525 -0.6215744 -0.5499508
vn 0.5578525 -0.6215744 -0.5499508
vn 0.5578525 -0.6215744 -0.5499508
vn 0.40822816 0.22237518 0.88538074
vn 0.40822816 0.22237518 0.88538074
vn 0.40822816 0.22237518 0.88538074
vn 0.55785257 0.62157446 0.5499508
vn 0.55785257 0.62157446 0.5499508
vn 0.55785257 0.62157446 0.5499508
vn 0.40822816 -0.22237518 -0.88538074
vn 0.40822816 -0.22237518 -0.88538074
vn 0.40822816 -0.22237518 -0.88538074
vn 0.55785257 0.62157446 0.5499506
vn 0.55785257 0.62157446 0.5499506
vn 0.55785257 0.62157446 0.5499506
vn 0.5578525 0.6215744 0.5499508
vn 0.5578525 0.6215744 0.5499508
vn 0.5578525 0.6215744 0.5499508
vn 0.40822816 -0.22237518 -0.88538074
vn 0.40822816 -0.22237518 -0.88538074
vn 0.40822816 -0.22237518 -0.88538074
vn 0 -0.49199218 0.87059957
vn 0 -0.49199218 0.87059957
vn 0 -0.49199218 0.87059957
vn 0 -0.4919918 0.87059987
vn 0 -0.4919918 0.87059987
vn 0 -0.4919918 0.87059987
vn 0 -0.4919918 0.87059987
vn 0 -0.4919918 0.87059987
vn 0 -0.4919918 0.87059987
vn 0 -0.7822814 0.62292516
vn 0 -0.7822814 0.62292516
vn 0 -0.7822814 0.62292516
vn 0 -0.9290693 0.3699058
vn 0 -0.9290693 0.3699058
vn 0 -0.9290693 0.3699058
vn 0 -0.9290693 0.36990577
vn 0 -0.9290693 0.36990577
vn 0 -0.9290693 0.36990577
vn 0 -0.9290693 0.3699058
vn 0 -0.9290693 0.3699058
vn 0 -0.9290693 0.3699058
vn 0 -0.9290692 0.36990577
vn 0 -0.9290692 0.36990577
vn 0 -0.9290692 0.36990577
vn 0 -0.41195136 0.9112059
vn 0 -0.41195136 0.9112059
vn 0 -0.41195136 0.9112059
vn 0 -0.41195133 0.9112059
vn 0 -0.41195133 0.9112059
vn 0 -0.41195133 0.9112059
vn 0 -0.41195127 0.9112059
vn 0 -0.41195127 0.9112059
vn 0 -0.41195127 0.9112059
vn 0 -0.4119513 0.91120595
vn 0 -0.4119513 0.91120595
vn 0 -0.4119513 0.91120595
vn 0 -0.41195127 0.9112059
vn 0 -0.41195127 0.9112059
vn 0 -0.41195127 0.9112059
vn 0 -0.41195127 0.9112059
vn 0 -0.41195127 0.9112059
vn 0 -0.41195127 0.9112059
vn 0 -0.3525551 0.9357911
vn 0 -0.3525551 0.9357911
vn 0 -0.3525551 0.9357911
vn 0 -0.35255507 0.935791
vn 0 -0.35255507 0.935791
vn 0 -0.35255507 0.935791
vn 0 -0.35255513 0.9357911
vn 0 -0.35255513 0.9357911
vn 0 -0.35255513 0.9357911
vn 0 -0.3525551 0.9357911
vn 0 -0.3525551 0.9357911
vn 0 -0.3525551 0.9357911
vn 0 -0.29953915 0.954084
vn 0 -0.29953915 0.954084
vn 0 -0.29953915 0.954084
vn 0 -0.2995391 0.954084
vn 0 -0.2995391 0.954084
vn 0 -0.2995391 0.954084
vn 0 -0.29953912 0.95408404
vn 0 -0.29953912 0.95408404
vn 0 -0.29953912 0.95408404
vn 0 -0.29953906 0.954084
vn 0 -0.29953906 0.954084
vn 0 -0.29953906 0.954084
vn 0 -0.29953915 0.9540841
vn 0 -0.29953915 0.9540841
vn 0 -0.29953915 0.9540841
vn 0 -0.29953906 0.95408404
vn 0 -0.29953906 0.95408404
vn 0 -0.29953906 0.95408404
vn 0 -0.29953906 0.95408404
vn 0 -0.29953906 0.95408404
vn 0 -0.29953906 0.95408404
vn 0 -0.80198497 0.5973443
vn 0 -0.80198497 0.5973443
vn 0 -0.80198497 0.5973443
vn 0 -0.81066424 0.5855112
vn 0 -0.81066424 0.5855112
vn 0 -0.81066424 0.5855112
vn 0 -0.89096975 0.45406276
vn 0 -0.89096975 0.45406276
vn 0 -0.89096975 0.45406276
vn 0.6728895 0.6872726 -0.27363494
vn 0.6728895 0.6872726 -0.27363494
vn 0.6728895 0.6872726 -0.27363494
vn 0.6728895 -0.6872726 0.27363494
vn 0.6728895 -0.6872726 0.27363494
vn 0.6728895 -0.6872726 0.27363494
vn 0 -0.879281 0.4763035
vn 0 -0.879281 0.4763035
vn 0 -0.879281 0.4763035
vn 0 -0.88325757 0.46888807
vn 0 -0.88325757 0.46888807
vn 0 -0.88325757 0.46888807
f 1//1 2//2 3//3
f 4//4 5//5 6//6
f 7//7 8//8 9//9
f 10//10 11//11 12//12
f 13//13 14//14 15//15
f 16//16 17//17 18//18
f 19//19 20//20 21//21
f 22//22 23//23 24//24
f 25//25 26//26 27//27
f 28//28 29//29 30//30
f 31//31 32//32 33//33
f 34//34 35//35 36//36
f 37//37 38//38 39//39
f 40//40 41//41 42//42
f 43//43 44//44 45//45
f 46//46 47//47 48//48
f 49//49 50//50 51//51
f 52//52 53//53 54//54
f 55//55 56//56 57//57
f 58//58 59//59 60//60
f 61//61 62//62 63//63
f 64//64 65//65 66//66
f 67//67 68//68 69//69
f 70//70 71//71 72//72
f 73//73 74//74 75//75
f 76//76 77//77 78//78
f 79//79 80//80 81//81
f 82//82 83//83 84//84
f 85//85 86//86 87//87
f 88//88 89//89 90//90
f 91//91 92//92 93//93
f 94//94 95//95 96//96
f 97//97 98//98 99//99
f 100//100 101//101 102//102
f 103//103 104//104 105//105
f 106//106 107//107 108//108
f 109//109 110//110 111//111
f 112//112 113//113 114//114
f 115//115 116//116 117//117
f 118//118 119//119 120//120
f 121//121 122//122 123//123
f 124//124 125//125 126//126
f 127//127 128//128 129//129
f 130//130 131//131 132//132
f 133//133 134//134 135//135
f 136//136 137//137 138//138
f 139//139 140//140 141//141
f 142//142 143//143 144//144
f 145//145 146//146 147//147
f 148//148 149//149 150//150
f 151//151 152//152 153//153
f 154//154 155//155 156//156
f 157//157 158//158 159//159
f 160//160 161//161 162//162
f 163//163 164//164 165//165
f 166//166 167//167 168//168
f 169//169 170//170 171//171
f 172//172 173//173 174//174
f 175//175 176//176 177//177
f 178//178 179//179 180//180
f 181//181 182//182 183//183
f 184//184 185//185 186//186
f 187//187 188//188 189//189
f 190//190 191//191 192//192
f 193//193 194//194 195//195
f 196//196 197//197 198//198
f 199//199 200//200 201//201
f 202//202 203//203 204//204
f 205//205 206//206 207//207
f 208//208 209//209 210//210
f 211//211 212//212 213//213
f 214//214 215//215 216//216
f 217//217 218//218 219//219
f 220//220 221//221 222//222
f 223//223 224//224 225//225
f 226//226 227//227 228//228
f 229//229 230//230 231//231
f 232//232 233//233 234//234
f 235//235 236//236 237//237
f 238//238 239//239 240//240
f 241//241 242//242 243//243
f 244//244 245//245 246//246
f 247//247 248//248 249//249
f 250//250 251//251 252//252
f 253//253 254//254 255//255
f 256//256 257//257 258//258
f 259//259 260//260 261//261
f 262//262 263//263 264//264
f 265//265 266//266 267//267
f 268//268 269//269 270//270
f 271//271 272//272 273//273
f 274//274 275//275 276//276
f 277//277 278//278 279//279
f 280//280 281//281 282//282
f 283//283 284//284 285//285
f 286//286 287//287 288//288
f 289//289 290//290 291//291
f 292//292 293//293 294//294
f 295//295 296//296 297//297
f 298//298 299//299 300//300
f 301//301 302//302 303//303
f 304//304 305//305 306//306
f 307//307 308//308 309//309
f 310//310 311//311 312//312
f 313//313 314//314 315//315
f 316//316 317//317 318//318
f 319//319 320//320 321//321
f 322//322 323//323 324//324
f 325//325 326//326 327//327
f 328//328 329//329 330//330
f 331//331 332//332 333//333
f 334//334 335//335 336//336
f 337//337 338//338 339//339
f 340//340 341//341 342//342
f 343//343 344//344 345//345
f 346//346 347//347 348//348
f 349//349 350//350 351//351
f 352//352 353//353 354//354
f 355//355 356//356 357//357
f 358//358 359//359 360//360
f 361//361 362//362 363//363
