# Exported from SharpOpenGl procedural mesh
o nexar_bomber_mk1_07
# vertices 363
v -0.5516147 0.07883997 -1.2740769
v 0.5516147 0.07883997 -1.2740769
v 0 0.24637492 -1.003046
v -0.5516147 0.07883997 -1.2740769
v 0 0.24637492 -1.003046
v 0.28419608 0.13547894 -0.671786
v 0.5516147 0.07883997 -1.2740769
v 1.8652396 0.13547894 -0.671786
v 1.0747179 0.4233717 -1.003046
v -0.5516147 0 -1.2740769
v 0.28419608 0 -0.671786
v 0.5516147 0 -1.2740769
v 0.5516147 0 -1.2740769
v 0.28419608 0 -0.671786
v 1.8652396 0 -0.671786
v 0.28419608 0.13547894 -0.671786
v 1.8652396 0.13547894 -0.671786
v 1.0747179 0.4233717 -0.4007551
v 0.28419608 0.13547894 -0.671786
v 1.0747179 0.4233717 -0.4007551
v 0.5332156 0.17048375 -0.06949508
v 1.8652396 0.13547894 -0.671786
v 2.4095645 0.17048375 -0.06949508
v 1.47139 0.53276175 -0.4007551
v 0.28419608 0 -0.671786
v 0.5332156 0 -0.06949508
v 1.8652396 0 -0.671786
v 1.8652396 0 -0.671786
v 0.5332156 0 -0.06949508
v 2.4095645 0 -0.06949508
v 0.5332156 0.17048375 -0.06949508
v 2.4095645 0.17048375 -0.06949508
v 1.47139 0.53276175 0.20153585
v 0.5332156 0.17048375 -0.06949508
v 1.47139 0.53276175 0.20153585
v 0.0015791655 0.17048374 0.5327959
v 2.4095645 0.17048375 -0.06949508
v 1.877928 0.17048374 0.5327959
v 0.9397536 0.5327617 0.20153585
v 0.5332156 0 -0.06949508
v 0.0015791655 0 0.5327959
v 2.4095645 0 -0.06949508
v 2.4095645 0 -0.06949508
v 0.0015791655 0 0.5327959
v 1.877928 0 0.5327959
v 0.0015791655 0.17048374 0.5327959
v 1.877928 0.17048374 0.5327959
v 0.9397536 0.5327617 0.8038268
v 0.0015791655 0.17048374 0.5327959
v 0.9397536 0.5327617 0.8038268
v -1.0914297 0.13547893 1.1350868
v 1.877928 0.17048374 0.5327959
v 0.7218727 0.13547893 1.1350868
v -0.18477853 0.42337167 0.8038268
v 0.0015791655 0 0.5327959
v -1.0914297 0 1.1350868
v 1.877928 0 0.5327959
v 1.877928 0 0.5327959
v -1.0914297 0 1.1350868
v 0.7218727 0 1.1350868
v -1.0914297 0.13547893 1.1350868
v 0.7218727 0.13547893 1.1350868
v -0.18477853 0.42337167 1.4061177
v -1.0914297 0.13547893 1.1350868
v -0.18477853 0.42337167 1.4061177
v -1.7443476 0.078839965 1.7373776
v 0.7218727 0.13547893 1.1350868
v -0.6411181 0.078839965 1.7373776
v -1.1927328 0.24637489 1.4061177
v -1.0914297 0 1.1350868
v -1.7443476 0 1.7373776
v 0.7218727 0 1.1350868
v 0.7218727 0 1.1350868
v -1.7443476 0 1.7373776
v -0.6411181 0 1.7373776
v 0.99798715 0.10246344 -1.1582518
v 0.99798715 0.40985376 -1.1582518
v 1.9959744 0.15713245 -1.1582518
v -0.99798733 0.10246343 -1.1582518
v -1.9959744 0.039283108 -1.1582518
v -0.99798733 0.40985373 -1.1582518
v -0.19474566 0.10246344 1.2740769
v -0.19474566 0.40985376 1.2740769
v 0.8032416 0.15713245 1.2740769
v -2.19072 0.10246343 1.2740769
v -3.1887074 0.039283108 1.2740769
v -2.19072 0.40985373 1.2740769
v -0.22681527 0.08409597 0.069495104
v 0.22681527 0.08409597 0.069495104
v 0 0.26279992 0.1945863
v -0.22681527 0.08409597 0.069495104
v 0 0.26279992 0.1945863
v 0.39692673 0.11387996 0.34747556
v 0.22681527 0.08409597 0.069495104
v 0.78251266 0.11387996 0.34747556
v 0.5897197 0.35587487 0.1945863
v -0.22681527 0 0.069495104
v 0.39692673 0 0.34747556
v 0.22681527 0 0.069495104
v 0.22681527 0 0.069495104
v 0.39692673 0 0.34747556
v 0.78251266 0 0.34747556
v 0.39692673 0.11387996 0.34747556
v 0.78251266 0.11387996 0.34747556
v 0.5897197 0.35587487 0.47256672
v 0.39692673 0.11387996 0.34747556
v 0.5897197 0.35587487 0.47256672
v -0.15877073 0.14366396 0.625456
v 0.78251266 0.11387996 0.34747556
v 0.15877064 0.14366396 0.625456
v -5.1554935E-08 0.44894987 0.47256672
v 0.39692673 0 0.34747556
v -0.15877073 0 0.625456
v 0.78251266 0 0.34747556
v 0.78251266 0 0.34747556
v -0.15877073 0 0.625456
v 0.15877064 0 0.625456
v -0.5897197 0 -0.04633007
v 0.5897197 0 -0.04633007
v 0 0.054749984 0.13899021
v 0.9072611 0.22994994 0.09266014
v 1.1567578 0.15329996 0.09266014
v 0.9072611 0.15329996 0.2049337
v 0.9072611 0.15329996 0.09266014
v 1.1567578 0.12647247 0.09266014
v 0.9072611 0.12647247 0.2049337
v 0.9072611 0.22994994 0.09266014
v 0.9072611 0.15329996 0.2049337
v 0.65776426 0.15329996 0.09266013
v 0.9072611 0.15329996 0.09266014
v 0.9072611 0.12647247 0.2049337
v 0.65776426 0.12647247 0.09266013
v 0.9072611 0.22994994 0.09266014
v 0.65776426 0.15329996 0.09266013
v 0.9072611 0.15329996 -0.019613422
v 0.9072611 0.15329996 0.09266014
v 0.65776426 0.12647247 0.09266013
v 0.9072611 0.12647247 -0.019613422
v 0.9072611 0.22994994 0.09266014
v 0.9072611 0.15329996 -0.019613422
v 1.1567578 0.15329996 0.09266016
v 0.9072611 0.15329996 0.09266014
v 0.9072611 0.12647247 -0.019613422
v 1.1567578 0.12647247 0.09266016
v -0.22681527 0.13139996 1.3899021
v 0.22681527 0.13139996 1.3899021
v 0 0.19709995 1.5288924
v -0.3175414 0 -1.1119217
v -0.3175414 0 -0.8802713
v 0.3175414 0 -0.8802713
v -0.3175414 0 -1.1119217
v 0.3175414 0 -0.8802713
v 0.3175414 0 -1.1119217
v -0.3175414 0.06569998 -1.1119217
v 0.3175414 0.06569998 -0.8802713
v -0.3175414 0.06569998 -0.8802713
v -0.3175414 0.06569998 -1.1119217
v 0.3175414 0.06569998 -1.1119217
v 0.3175414 0.06569998 -0.8802713
v -0.3175414 0 -1.1119217
v -0.3175414 0.06569998 -1.1119217
v -0.3175414 0.06569998 -0.8802713
v -0.3175414 0 -1.1119217
v -0.3175414 0.06569998 -0.8802713
v -0.3175414 0 -0.8802713
v 0.3175414 0 -1.1119217
v 0.3175414 0 -0.8802713
v 0.3175414 0.06569998 -0.8802713
v 0.3175414 0 -1.1119217
v 0.3175414 0.06569998 -0.8802713
v 0.3175414 0.06569998 -1.1119217
v -0.13608916 0.24089992 0.18532027
v 0.13608916 0.24089992 0.18532027
v 0 0.27374992 0.27798042
v -1.1025742 0.05763156 -1.3809925
v -1.5562048 0 -2.3789797
v -0.64894366 0 -2.3789797
v 0 0.05763156 -1.3809925
v -0.45363054 0 -2.3789797
v 0.45363054 0 -2.3789797
v 1.1025742 0.05763156 -1.3809925
v 0.64894366 0 -2.3789797
v 1.5562048 0 -2.3789797
v -0.9635615 0.129671 -0.089096285
v -0.9163083 0.10085523 -0.07127702
v -0.9635615 0.086447336 -0.0623674
v -0.92418385 0.13687496 0.07795926
v -0.87693065 0.108059175 0.095778525
v -0.92418385 0.091850296 0.10468815
v -0.88480616 0.1440789 0.24501482
v -0.83755296 0.11526312 0.26283407
v -0.88480616 0.09725325 0.2717437
v -0.8454285 0.15128285 0.41207036
v -0.79817533 0.12246706 0.42988962
v -0.8454285 0.102656215 0.43879926
v -0.8060509 0.15848678 0.5791259
v -0.7587977 0.129671 0.59694517
v -0.8060509 0.10805917 0.60585475
v 0.9635615 0.129671 -0.089096285
v 0.9163083 0.10085523 -0.07127702
v 0.9635615 0.086447336 -0.0623674
v 0.92418385 0.13687496 0.07795926
v 0.87693065 0.108059175 0.095778525
v 0.92418385 0.091850296 0.10468815
v 0.88480616 0.1440789 0.24501482
v 0.83755296 0.11526312 0.26283407
v 0.88480616 0.09725325 0.2717437
v 0.8454285 0.15128285 0.41207036
v 0.79817533 0.12246706 0.42988962
v 0.8454285 0.102656215 0.43879926
v 0.8060509 0.15848678 0.5791259
v 0.7587977 0.129671 0.59694517
v 0.8060509 0.10805917 0.60585475
v -0.55403394 0.33138147 -0.13364443
v 0.55403394 0.33138147 -0.13364443
v 0.05 0.37460512 -0.12027999
v -0.46740308 0.3385854 0.055685192
v 0.46740308 0.3385854 0.055685192
v 0.05 0.38180906 0.069049634
v -0.38077226 0.34578937 0.24501482
v 0.38077226 0.34578937 0.24501482
v 0.05 0.389013 0.25837925
v -0.29414144 0.3529933 0.43434444
v 0.29414144 0.3529933 0.43434444
v 0.05 0.39621693 0.44770887
v -0.20751059 0.36019725 0.62367404
v 0.20751059 0.36019725 0.62367404
v 0.05 0.40342093 0.63703847
v -0.67454875 0.02881578 -0.13364443
v 0.77454877 0.02881578 -0.13364443
v 0.05 0.086447336 -0.115825176
v -0.55137545 0.02881578 0.20046666
v 0.6513755 0.02881578 0.20046666
v 0.05 0.09365128 0.21828592
v -0.4282022 0.02881578 0.5345777
v 0.52820224 0.02881578 0.5345777
v 0.05 0.10085523 0.552397
v -0.58553606 0.1440789 0.044548143
v -0.5382829 0.17289467 0.066822216
v -0.58553606 0.11526312 0.07127703
v -0.55403394 0.129671 0.053457774
v -0.58553606 0.15848678 0.062367402
v -0.569785 0.10085523 0.066822216
v -0.58553606 0.1440789 0.17819257
v -0.5382829 0.17289467 0.20046665
v -0.58553606 0.11526312 0.20492145
v -0.58553606 0.1440789 0.31183702
v -0.5382829 0.17289467 0.3341111
v -0.58553606 0.11526312 0.33856592
v -0.55403394 0.129671 0.32074666
v -0.58553606 0.15848678 0.32965627
v -0.569785 0.10085523 0.3341111
v 0.58553606 0.1440789 0.044548143
v 0.5382829 0.17289467 0.066822216
v 0.58553606 0.11526312 0.07127703
v 0.55403394 0.129671 0.053457774
v 0.58553606 0.15848678 0.062367402
v 0.569785 0.10085523 0.066822216
v 0.58553606 0.1440789 0.17819257
v 0.5382829 0.17289467 0.20046665
v 0.58553606 0.11526312 0.20492145
v 0.58553606 0.1440789 0.31183702
v 0.5382829 0.17289467 0.3341111
v 0.58553606 0.11526312 0.33856592
v 0.55403394 0.129671 0.32074666
v 0.58553606 0.15848678 0.32965627
v 0.569785 0.10085523 0.3341111
v -0.42802545 0.31697357 -0.044548143
v 0.42802545 0.31697357 -0.044548143
v 0.05 0.34578934 -0.0311837
v -0.30201697 0.33138147 0.2450148
v 0.30201697 0.33138147 0.2450148
v 0.05 0.36019725 0.25837925
v -0.17600848 0.34578934 0.5345777
v 0.17600848 0.34578934 0.5345777
v 0.05 0.37460512 0.54794216
v -0.10751061 0.02881578 -0.22274072
v 0.2075106 0.02881578 -0.22274072
v 0.05 0.07203945 -0.17819257
v -0.37802544 0.02881578 -0.26728886
v -0.18901274 0.02881578 -0.26728886
v -0.2835191 0.07203945 -0.17819257
v -0.09450636 0.02881578 -0.26728886
v 0.09450636 0.02881578 -0.26728886
v 0 0.07203945 -0.17819257
v 0.18901274 0.02881578 -0.26728886
v 0.37802544 0.02881578 -0.26728886
v 0.2835191 0.07203945 -0.17819257
v -0.31502122 0.02881578 0.13364443
v 0.31502122 0.02881578 0.13364443
v 0 0.07203945 0.22274072
v -0.25201696 0.02881578 0.044548143
v 0.25201696 0.02881578 0.044548143
v 0 0.0648355 0.057912588
v -0.21736462 0.034578934 0.14255406
v 0.21736462 0.034578934 0.14255406
v 0 0.07059866 0.15591851
v -0.18271229 0.040342093 0.24055997
v 0.18271229 0.040342093 0.24055997
v 0 0.07636182 0.2539244
v -0.14805996 0.046105243 0.33856592
v 0.14805996 0.046105243 0.33856592
v 0 0.08212496 0.35193035
v -0.11340763 0.0518684 0.4365718
v 0.11340763 0.0518684 0.4365718
v 0 0.08788812 0.44993624
v -0.0787553 0.05763156 0.5345777
v 0.0787553 0.05763156 0.5345777
v 0 0.09365128 0.54794216
v -0.22051485 0.043223668 0.13364443
v 0.22051485 0.043223668 0.13364443
v 0 0.086447336 0.14700888
v -0.178512 0.043223668 0.24501479
v 0.178512 0.043223668 0.24501479
v 0 0.086447336 0.25837922
v -0.1365092 0.043223668 0.35638514
v 0.1365092 0.043223668 0.35638514
v 0 0.086447336 0.36974958
v -0.09450637 0.043223668 0.46775553
v 0.09450637 0.043223668 0.46775553
v 0 0.086447336 0.48111996
v -0.15751061 0.31697357 -0.044548143
v 0.15751061 0.31697357 -0.044548143
v 0 0.36019725 -0.033411108
v -0.13388401 0.32777947 0.077959254
v 0.13388401 0.32777947 0.077959254
v 0 0.37100315 0.08909629
v -0.110257424 0.3385854 0.20046666
v 0.110257424 0.3385854 0.20046666
v 0 0.3818091 0.2116037
v -0.08663083 0.3493913 0.32297406
v 0.08663083 0.3493913 0.32297406
v 0 0.392615 0.3341111
v -0.06300424 0.36019725 0.44548145
v 0.06300424 0.36019725 0.44548145
v 0 0.40342093 0.4566185
v -0.15751061 0.043223668 -0.17819257
v 0.15751061 0.043223668 -0.17819257
v 0 0.086447336 -0.16705553
v -0.15751061 0.043223668 -0.24501479
v 0.15751061 0.043223668 -0.24501479
v 0 0.086447336 -0.23387775
v -0.05450636 0.15848678 2.0082304
v 0.13450636 0.15848678 2.0082304
v 0.04 0.31697357 2.1828592
v -0.007253181 0.2881578 2.1173735
v 0.08725318 0.2881578 2.1173735
v 0.04 0.34578934 2.1828592
v -0.08600848 0.6362524 0.26728886
v 0.16600847 0.6362524 0.26728886
v 0.04 0.6915787 0.35638514
v -1.1740763 0.259342 0.31183702
v -1.1740763 0.30256566 0.40093333
v -1.1268232 0.2881578 0.49002957
v 1.1740763 0.259342 0.31183702
v 1.1740763 0.30256566 0.40093333
v 1.1268232 0.2881578 0.49002957
v -0.023004241 0.31697357 2.2265162
v 0.10300424 0.31697357 2.2265162
v 0.04 0.37460512 2.3138306
v -0.14901271 0.043223668 -0.35638514
v 0.22901273 0.043223668 -0.35638514
v 0.04 0.10085523 -0.26728886
vn 0 -0.8506107 0.5257961
vn 0 -0.8506107 0.5257961
vn 0 -0.8506107 0.5257961
vn 0.49127963 -0.606977 -0.6246785
vn 0.49127963 -0.606977 -0.6246785
vn 0.49127963 -0.606977 -0.6246785
vn -0.4120324 -0.087855354 0.90692383
vn -0.4120324 -0.087855354 0.90692383
vn -0.4120324 -0.087855354 0.90692383
vn 0 0.99999994 0
vn 0 0.99999994 0
vn 0 0.99999994 0
vn 0 0.99999994 -0
vn 0 0.99999994 -0
vn 0 0.99999994 -0
vn 0 -0.6854626 0.72810775
vn 0 -0.6854626 0.72810775
vn 0 -0.6854626 0.72810775
vn 0.3704345 -0.92351574 -0.09948335
vn 0.3704345 -0.92351574 -0.09948335
vn 0.3704345 -0.92351574 -0.09948335
vn -0.45617864 -0.7637787 0.4566652
vn -0.45617864 -0.7637787 0.4566652
vn -0.45617864 -0.7637787 0.4566652
vn 0 1 0
vn 0 1 0
vn 0 1 0
vn 0 1 -0
vn 0 1 -0
vn 0 1 -0
vn 0 -0.5990411 0.8007182
vn 0 -0.5990411 0.8007182
vn 0 -0.5990411 0.8007182
vn 0.28465003 -0.9251183 0.2512578
vn 0.28465003 -0.9251183 0.2512578
vn 0.28465003 -0.9251183 0.2512578
vn -0.2740273 -0.9308074 -0.24188127
vn -0.2740273 -0.9308074 -0.24188127
vn -0.2740273 -0.9308074 -0.24188127
vn 0 1 -0
vn 0 1 -0
vn 0 1 -0
vn 0 1 0
vn 0 1 0
vn 0 1 0
vn 0 -0.5990411 0.8007182
vn 0 -0.5990411 0.8007182
vn 0 -0.5990411 0.8007182
vn 0.23666674 -0.895273 0.37745878
vn 0.23666674 -0.895273 0.37745878
vn 0.23666674 -0.895273 0.37745878
vn -0.1600357 -0.9188952 -0.360583
vn -0.1600357 -0.9188952 -0.360583
vn -0.1600357 -0.9188952 -0.360583
vn 0 1 -0
vn 0 1 -0
vn 0 1 -0
vn 0 1 0
vn 0 1 0
vn 0 1 0
vn 0 -0.6854626 0.7281078
vn 0 -0.6854626 0.7281078
vn 0 -0.6854626 0.7281078
vn 0.24846627 -0.95179844 0.1798453
vn 0.24846627 -0.95179844 0.1798453
vn 0.24846627 -0.95179844 0.1798453
vn -0.099004395 -0.94461876 -0.31287926
vn -0.099004395 -0.94461876 -0.31287926
vn -0.099004395 -0.94461876 -0.31287926
vn 0 1 -0
vn 0 1 -0
vn 0 1 -0
vn 0 1 0
vn 0 1 0
vn 0 1 0
vn 0 0 -1
vn 0 0 -1
vn 0 0 -1
vn -0 0 -1
vn -0 0 -1
vn -0 0 -1
vn 0 0 -1
vn 0 0 -1
vn 0 0 -1
vn -0 0 -1
vn -0 0 -1
vn -0 0 -1
vn 0 -0.57345754 0.8192353
vn 0 -0.57345754 0.8192353
vn 0 -0.57345754 0.8192353
vn 0.39844424 0.12984568 -0.907955
vn 0.39844424 0.12984568 -0.907955
vn 0.39844424 0.12984568 -0.907955
vn -0.447122 0.19527161 0.872898
vn -0.447122 0.19527161 0.872898
vn -0.447122 0.19527161 0.872898
vn 0 1 0
vn 0 1 0
vn 0 1 0
vn 0 1 0
vn 0 1 0
vn 0 1 0
vn 0 -0.45919523 0.8883354
vn 0 -0.45919523 0.8883354
vn 0 -0.45919523 0.8883354
vn 0.32237244 -0.6245396 0.71135527
vn 0.32237244 -0.6245396 0.71135527
vn 0.32237244 -0.6245396 0.71135527
vn -0.35929236 -0.5605275 -0.74613535
vn -0.35929236 -0.5605275 -0.74613535
vn -0.35929236 -0.5605275 -0.74613535
vn 0 1 -0
vn 0 1 -0
vn 0 1 -0
vn 0 1 0
vn 0 1 0
vn 0 1 0
vn 0 -0.95902294 0.28332835
vn 0 -0.95902294 0.28332835
vn 0 -0.95902294 0.28332835
vn -0.2459343 -0.8005196 -0.54652053
vn -0.2459343 -0.8005196 -0.54652053
vn -0.2459343 -0.8005196 -0.54652053
vn -0.10401494 -0.9673434 -0.23114425
vn -0.10401494 -0.9673434 -0.23114425
vn -0.10401494 -0.9673434 -0.23114425
vn 0.24593426 -0.8005196 -0.54652053
vn 0.24593426 -0.8005196 -0.54652053
vn 0.24593426 -0.8005196 -0.54652053
vn 0.104014926 -0.96734345 -0.23114426
vn 0.104014926 -0.96734345 -0.23114426
vn 0.104014926 -0.96734345 -0.23114426
vn 0.24593423 -0.80051965 0.5465206
vn 0.24593423 -0.80051965 0.5465206
vn 0.24593423 -0.80051965 0.5465206
vn 0.1040149 -0.9673434 0.23114426
vn 0.1040149 -0.9673434 0.23114426
vn 0.1040149 -0.9673434 0.23114426
vn -0.24593435 -0.8005195 0.54652053
vn -0.24593435 -0.8005195 0.54652053
vn -0.24593435 -0.8005195 0.54652053
vn -0.104014955 -0.96734333 0.23114425
vn -0.104014955 -0.96734333 0.23114425
vn -0.104014955 -0.96734333 0.23114425
vn 0 -0.90408355 0.42735565
vn 0 -0.90408355 0.42735565
vn 0 -0.90408355 0.42735565
vn 0 1 0
vn 0 1 0
vn 0 1 0
vn 0 1 0
vn 0 1 0
vn 0 1 0
vn 0 -1 0
vn 0 -1 0
vn 0 -1 0
vn 0 -1 0
vn 0 -1 0
vn 0 -1 0
vn 1 0 0
vn 1 0 0
vn 1 0 0
vn 1 0 0
vn 1 0 0
vn 1 0 0
vn -1 0 0
vn -1 0 0
vn -1 0 0
vn -1 0 0
vn -1 0 0
vn -1 0 0
vn 0 -0.942522 0.33414415
vn 0 -0.942522 0.33414415
vn 0 -0.942522 0.33414415
vn 0 -0.9983368 0.05765175
vn 0 -0.9983368 0.05765175
vn 0 -0.9983368 0.05765175
vn 0 -0.99833673 0.057651747
vn 0 -0.99833673 0.057651747
vn 0 -0.99833673 0.057651747
vn 0 -0.9983368 0.05765175
vn 0 -0.9983368 0.05765175
vn 0 -0.9983368 0.05765175
vn 1.4543257E-07 -0.52594733 -0.85051715
vn 1.4543257E-07 -0.52594733 -0.85051715
vn 1.4543257E-07 -0.52594733 -0.85051715
vn 0.012969643 -0.51043224 -0.8598201
vn 0.012969643 -0.51043224 -0.8598201
vn 0.012969643 -0.51043224 -0.8598201
vn 0.02518439 -0.4955816 -0.86819625
vn 0.02518439 -0.4955816 -0.86819625
vn 0.02518439 -0.4955816 -0.86819625
vn 0.036693715 -0.48137644 -0.87574553
vn 0.036693715 -0.48137644 -0.87574553
vn 0.036693715 -0.48137644 -0.87574553
vn 0.0475456 -0.4677945 -0.8825575
vn 0.0475456 -0.4677945 -0.8825575
vn 0.0475456 -0.4677945 -0.8825575
vn 1.4543257E-07 0.52594733 0.85051715
vn 1.4543257E-07 0.52594733 0.85051715
vn 1.4543257E-07 0.52594733 0.85051715
vn 0.012969643 0.51043224 0.8598201
vn 0.012969643 0.51043224 0.8598201
vn 0.012969643 0.51043224 0.8598201
vn 0.02518439 0.4955816 0.86819625
vn 0.02518439 0.4955816 0.86819625
vn 0.02518439 0.4955816 0.86819625
vn 0.036693715 0.48137644 0.87574553
vn 0.036693715 0.48137644 0.87574553
vn 0.036693715 0.48137644 0.87574553
vn 0.0475456 0.4677945 0.8825575
vn 0.0475456 0.4677945 0.8825575
vn 0.0475456 0.4677945 0.8825575
vn 0 -0.29539514 0.9553752
vn 0 -0.29539514 0.9553752
vn 0 -0.29539514 0.9553752
vn 0 -0.2953951 0.95537513
vn 0 -0.2953951 0.95537513
vn 0 -0.2953951 0.95537513
vn 0 -0.2953952 0.9553752
vn 0 -0.2953952 0.9553752
vn 0 -0.2953952 0.9553752
vn 0 -0.29539517 0.95537513
vn 0 -0.29539517 0.95537513
vn 0 -0.29539517 0.95537513
vn 0 -0.29539478 0.95537525
vn 0 -0.29539478 0.95537525
vn 0 -0.29539478 0.95537525
vn 0 -0.29539502 0.9553752
vn 0 -0.29539502 0.9553752
vn 0 -0.29539502 0.9553752
vn 0 -0.26501116 0.9642453
vn 0 -0.26501116 0.9642453
vn 0 -0.26501116 0.9642453
vn 0 -0.24011783 0.9707437
vn 0 -0.24011783 0.9707437
vn 0 -0.24011783 0.9707437
vn 0.6052371 -0.54135853 -0.58362573
vn 0.6052371 -0.54135853 -0.58362573
vn 0.6052371 -0.54135853 -0.58362573
vn 0.41915745 0.18329339 0.8892191
vn 0.41915745 0.18329339 0.8892191
vn 0.41915745 0.18329339 0.8892191
vn 0.6052372 -0.5413585 -0.58362573
vn 0.6052372 -0.5413585 -0.58362573
vn 0.6052372 -0.5413585 -0.58362573
vn 0.6052372 -0.54135865 -0.5836256
vn 0.6052372 -0.54135865 -0.5836256
vn 0.6052372 -0.54135865 -0.5836256
vn 0.4191571 0.1832934 0.88921916
vn 0.4191571 0.1832934 0.88921916
vn 0.4191571 0.1832934 0.88921916
vn 0.6052371 0.54135853 0.58362573
vn 0.6052371 0.54135853 0.58362573
vn 0.6052371 0.54135853 0.58362573
vn 0.41915745 -0.18329339 -0.8892191
vn 0.41915745 -0.18329339 -0.8892191
vn 0.41915745 -0.18329339 -0.8892191
vn 0.6052372 0.5413585 0.58362573
vn 0.6052372 0.5413585 0.58362573
vn 0.6052372 0.5413585 0.58362573
vn 0.6052372 0.54135865 0.5836256
vn 0.6052372 0.54135865 0.5836256
vn 0.6052372 0.54135865 0.5836256
vn 0.4191571 -0.1832934 -0.88921916
vn 0.4191571 -0.1832934 -0.88921916
vn 0.4191571 -0.1832934 -0.88921916
vn 0 -0.42074066 0.90718096
vn 0 -0.42074066 0.90718096
vn 0 -0.42074066 0.90718096
vn 0 -0.42074078 0.90718085
vn 0 -0.42074078 0.90718085
vn 0 -0.42074078 0.90718085
vn 0 -0.42074046 0.9071811
vn 0 -0.42074046 0.9071811
vn 0 -0.42074046 0.9071811
vn 0 -0.71769536 0.6963572
vn 0 -0.71769536 0.6963572
vn 0 -0.71769536 0.6963572
vn 0 -0.8997131 0.4364817
vn 0 -0.8997131 0.4364817
vn 0 -0.8997131 0.4364817
vn 0 -0.89971316 0.4364817
vn 0 -0.89971316 0.4364817
vn 0 -0.89971316 0.4364817
vn 0 -0.8997131 0.4364817
vn 0 -0.8997131 0.4364817
vn 0 -0.8997131 0.4364817
vn 0 -0.8997131 0.4364817
vn 0 -0.8997131 0.4364817
vn 0 -0.8997131 0.4364817
vn 0 -0.34785917 0.93754673
vn 0 -0.34785917 0.93754673
vn 0 -0.34785917 0.93754673
vn 0 -0.3478593 0.9375468
vn 0 -0.3478593 0.9375468
vn 0 -0.3478593 0.9375468
vn 0 -0.3478589 0.9375469
vn 0 -0.3478589 0.9375469
vn 0 -0.3478589 0.9375469
vn 0 -0.347859 0.93754685
vn 0 -0.347859 0.93754685
vn 0 -0.347859 0.93754685
vn 0 -0.34785897 0.93754685
vn 0 -0.34785897 0.93754685
vn 0 -0.34785897 0.93754685
vn 0 -0.347859 0.93754685
vn 0 -0.347859 0.93754685
vn 0 -0.347859 0.93754685
vn 0 -0.29539517 0.9553752
vn 0 -0.29539517 0.9553752
vn 0 -0.29539517 0.9553752
vn 0 -0.29539487 0.9553752
vn 0 -0.29539487 0.9553752
vn 0 -0.29539487 0.9553752
vn 0 -0.29539487 0.95537525
vn 0 -0.29539487 0.95537525
vn 0 -0.29539487 0.95537525
vn 0 -0.2953949 0.95537525
vn 0 -0.2953949 0.95537525
vn 0 -0.2953949 0.95537525
vn 0 -0.24951118 0.96837187
vn 0 -0.24951118 0.96837187
vn 0 -0.24951118 0.96837187
vn 0 -0.24951127 0.96837187
vn 0 -0.24951127 0.96837187
vn 0 -0.24951127 0.96837187
vn 0 -0.24951126 0.9683719
vn 0 -0.24951126 0.9683719
vn 0 -0.24951126 0.9683719
vn 0 -0.24951126 0.96837187
vn 0 -0.24951126 0.96837187
vn 0 -0.24951126 0.96837187
vn 0 -0.24951127 0.9683718
vn 0 -0.24951127 0.9683718
vn 0 -0.24951127 0.9683718
vn 0 -0.24951132 0.96837187
vn 0 -0.24951132 0.96837187
vn 0 -0.24951132 0.96837187
vn 0 -0.24951132 0.96837187
vn 0 -0.24951132 0.96837187
vn 0 -0.24951132 0.96837187
vn 0 -0.74050254 0.6720536
vn 0 -0.74050254 0.6720536
vn 0 -0.74050254 0.6720536
vn 0 -0.7506901 0.66065454
vn 0 -0.7506901 0.66065454
vn 0 -0.7506901 0.66065454
vn 0 -0.84953266 0.5275359
vn 0 -0.84953266 0.5275359
vn 0 -0.84953266 0.5275359
vn 0.7391228 0.6060205 -0.29400116
vn 0.7391228 0.6060205 -0.29400116
vn 0.7391228 0.6060205 -0.29400116
vn 0.7391228 -0.6060205 0.29400116
vn 0.7391228 -0.6060205 0.29400116
vn 0.7391228 -0.6060205 0.29400116
vn 0 -0.83459157 0.55086935
vn 0 -0.83459157 0.55086935
vn 0 -0.83459157 0.55086935
vn 0 -0.8396517 0.54312533
vn 0 -0.8396517 0.54312533
vn 0 -0.8396517 0.54312533
f 1//1 2//2 3//3
f 4//4 5//5 6//6
f 7//7 8//8 9//9
f 10//10 11//11 12//12
f 13//13 14//14 15//15
f 16//16 17//17 18//18
f 19//19 20//20 21//21
f 22//22 23//23 24//24
f 25//25 26//26 27//27
f 28//28 29//29 30//30
f 31//31 32//32 33//33
f 34//34 35//35 36//36
f 37//37 38//38 39//39
f 40//40 41//41 42//42
f 43//43 44//44 45//45
f 46//46 47//47 48//48
f 49//49 50//50 51//51
f 52//52 53//53 54//54
f 55//55 56//56 57//57
f 58//58 59//59 60//60
f 61//61 62//62 63//63
f 64//64 65//65 66//66
f 67//67 68//68 69//69
f 70//70 71//71 72//72
f 73//73 74//74 75//75
f 76//76 77//77 78//78
f 79//79 80//80 81//81
f 82//82 83//83 84//84
f 85//85 86//86 87//87
f 88//88 89//89 90//90
f 91//91 92//92 93//93
f 94//94 95//95 96//96
f 97//97 98//98 99//99
f 100//100 101//101 102//102
f 103//103 104//104 105//105
f 106//106 107//107 108//108
f 109//109 110//110 111//111
f 112//112 113//113 114//114
f 115//115 116//116 117//117
f 118//118 119//119 120//120
f 121//121 122//122 123//123
f 124//124 125//125 126//126
f 127//127 128//128 129//129
f 130//130 131//131 132//132
f 133//133 134//134 135//135
f 136//136 137//137 138//138
f 139//139 140//140 141//141
f 142//142 143//143 144//144
f 145//145 146//146 147//147
f 148//148 149//149 150//150
f 151//151 152//152 153//153
f 154//154 155//155 156//156
f 157//157 158//158 159//159
f 160//160 161//161 162//162
f 163//163 164//164 165//165
f 166//166 167//167 168//168
f 169//169 170//170 171//171
f 172//172 173//173 174//174
f 175//175 176//176 177//177
f 178//178 179//179 180//180
f 181//181 182//182 183//183
f 184//184 185//185 186//186
f 187//187 188//188 189//189
f 190//190 191//191 192//192
f 193//193 194//194 195//195
f 196//196 197//197 198//198
f 199//199 200//200 201//201
f 202//202 203//203 204//204
f 205//205 206//206 207//207
f 208//208 209//209 210//210
f 211//211 212//212 213//213
f 214//214 215//215 216//216
f 217//217 218//218 219//219
f 220//220 221//221 222//222
f 223//223 224//224 225//225
f 226//226 227//227 228//228
f 229//229 230//230 231//231
f 232//232 233//233 234//234
f 235//235 236//236 237//237
f 238//238 239//239 240//240
f 241//241 242//242 243//243
f 244//244 245//245 246//246
f 247//247 248//248 249//249
f 250//250 251//251 252//252
f 253//253 254//254 255//255
f 256//256 257//257 258//258
f 259//259 260//260 261//261
f 262//262 263//263 264//264
f 265//265 266//266 267//267
f 268//268 269//269 270//270
f 271//271 272//272 273//273
f 274//274 275//275 276//276
f 277//277 278//278 279//279
f 280//280 281//281 282//282
f 283//283 284//284 285//285
f 286//286 287//287 288//288
f 289//289 290//290 291//291
f 292//292 293//293 294//294
f 295//295 296//296 297//297
f 298//298 299//299 300//300
f 301//301 302//302 303//303
f 304//304 305//305 306//306
f 307//307 308//308 309//309
f 310//310 311//311 312//312
f 313//313 314//314 315//315
f 316//316 317//317 318//318
f 319//319 320//320 321//321
f 322//322 323//323 324//324
f 325//325 326//326 327//327
f 328//328 329//329 330//330
f 331//331 332//332 333//333
f 334//334 335//335 336//336
f 337//337 338//338 339//339
f 340//340 341//341 342//342
f 343//343 344//344 345//345
f 346//346 347//347 348//348
f 349//349 350//350 351//351
f 352//352 353//353 354//354
f 355//355 356//356 357//357
f 358//358 359//359 360//360
f 361//361 362//362 363//363
