# Exported from SharpOpenGl procedural mesh
o nexar_gunship_elite_53
# vertices 336
v -0.7740183 0.11421888 -1.8107979
v 0.7740183 0.11421888 -1.8107979
v 0 0.356934 -1.425592
v -0.7740183 0.11421888 -1.8107979
v 0 0.356934 -1.425592
v 0.47633576 0.1962742 -0.95478445
v 0.7740183 0.11421888 -1.8107979
v 2.6948347 0.1962742 -0.95478445
v 1.5855852 0.6133569 -1.425592
v -0.7740183 0 -1.8107979
v 0.47633576 0 -0.95478445
v 0.7740183 0 -1.8107979
v 0.7740183 0 -1.8107979
v 0.47633576 0 -0.95478445
v 2.6948347 0 -0.95478445
v 0.47633576 0.1962742 -0.95478445
v 2.6948347 0.1962742 -0.95478445
v 1.5855852 0.6133569 -0.5695784
v 0.47633576 0.1962742 -0.95478445
v 1.5855852 0.6133569 -0.5695784
v 0.85438216 0.24698721 -0.098770976
v 2.6948347 0.1962742 -0.95478445
v 3.4872494 0.24698721 -0.098770976
v 2.1708157 0.771835 -0.5695784
v 0.47633576 0 -0.95478445
v 0.85438216 0 -0.098770976
v 2.6948347 0 -0.95478445
v 2.6948347 0 -0.95478445
v 0.85438216 0 -0.098770976
v 3.4872494 0 -0.098770976
v 0.85438216 0.24698721 -0.098770976
v 3.4872494 0.24698721 -0.098770976
v 2.1708157 0.771835 0.28643516
v 0.85438216 0.24698721 -0.098770976
v 2.1708157 0.771835 0.28643516
v 0.07003212 0.24698718 0.7572427
v 3.4872494 0.24698721 -0.098770976
v 2.7028992 0.24698718 0.7572427
v 1.3864657 0.77183497 0.28643516
v 0.85438216 0 -0.098770976
v 0.07003212 0 0.7572427
v 3.4872494 0 -0.098770976
v 3.4872494 0 -0.098770976
v 0.07003212 0 0.7572427
v 2.7028992 0 0.7572427
v 0.07003212 0.24698718 0.7572427
v 2.7028992 0.24698718 0.7572427
v 1.3864657 0.77183497 1.1424487
v 0.07003212 0.24698718 0.7572427
v 1.3864657 0.77183497 1.1424487
v -1.5448136 0.1962742 1.613256
v 2.7028992 0.24698718 0.7572427
v 0.99958754 0.1962742 1.613256
v -0.27261305 0.6133569 1.1424487
v 0.07003212 0 0.7572427
v -1.5448136 0 1.613256
v 2.7028992 0 0.7572427
v 2.7028992 0 0.7572427
v -1.5448136 0 1.613256
v 0.99958754 0 1.613256
v -1.5448136 0.1962742 1.613256
v 0.99958754 0.1962742 1.613256
v -0.27261305 0.6133569 1.9984621
v -1.5448136 0.1962742 1.613256
v -0.27261305 0.6133569 1.9984621
v -2.533717 0.11421887 2.4692695
v 0.99958754 0.1962742 1.613256
v -0.9856805 0.11421887 2.4692695
v -1.7596987 0.35693398 1.9984621
v -1.5448136 0 1.613256
v -2.533717 0 2.4692695
v 0.99958754 0 1.613256
v 0.99958754 0 1.613256
v -2.533717 0 2.4692695
v -0.9856805 0 2.4692695
v 1.6004137 0.14844322 -1.6461799
v 1.6004137 0.5937729 -1.6461799
v 3.2008276 0.22764458 -1.6461799
v -1.600414 0.14844319 -1.6461799
v -3.2008276 0.056911137 -1.6461799
v -1.600414 0.59377277 -1.6461799
v -0.15928507 0.14844322 1.8107979
v -0.15928507 0.5937729 1.8107979
v 1.4411288 0.22764458 1.8107979
v -3.3601127 0.14844319 1.8107979
v -4.9605265 0.056911137 1.8107979
v -3.3601127 0.59377277 1.8107979
v -0.50922257 0 0.658472
v 0.50922257 0 0.658472
v 0 0.06345493 1.2510967
v -0.3637304 0 0.92186075
v 0.3637304 0 0.92186075
v 0 0.06345493 1.4486383
v -1.5276676 0.015863733 0.13169439
v -1.5276676 0.015863733 0.39508316
v -1.0184451 0.015863733 0.39508316
v -1.5276676 0.015863733 0.13169439
v -1.0184451 0.015863733 0.39508316
v -1.0184451 0.015863733 0.13169439
v -1.5276676 0.07931867 0.13169439
v -1.0184451 0.07931867 0.39508316
v -1.5276676 0.07931867 0.39508316
v -1.5276676 0.07931867 0.13169439
v -1.0184451 0.07931867 0.13169439
v -1.0184451 0.07931867 0.39508316
v -1.5276676 0.015863733 0.13169439
v -1.5276676 0.07931867 0.13169439
v -1.5276676 0.07931867 0.39508316
v -1.5276676 0.015863733 0.13169439
v -1.5276676 0.07931867 0.39508316
v -1.5276676 0.015863733 0.39508316
v -1.0184451 0.015863733 0.13169439
v -1.0184451 0.015863733 0.39508316
v -1.0184451 0.07931867 0.39508316
v -1.0184451 0.015863733 0.13169439
v -1.0184451 0.07931867 0.39508316
v -1.0184451 0.07931867 0.13169439
v 1.0184451 0.015863733 0.13169439
v 1.0184451 0.015863733 0.39508316
v 1.5276676 0.015863733 0.39508316
v 1.0184451 0.015863733 0.13169439
v 1.5276676 0.015863733 0.39508316
v 1.5276676 0.015863733 0.13169439
v 1.0184451 0.07931867 0.13169439
v 1.5276676 0.07931867 0.39508316
v 1.0184451 0.07931867 0.39508316
v 1.0184451 0.07931867 0.13169439
v 1.5276676 0.07931867 0.13169439
v 1.5276676 0.07931867 0.39508316
v 1.0184451 0.015863733 0.13169439
v 1.0184451 0.07931867 0.13169439
v 1.0184451 0.07931867 0.39508316
v 1.0184451 0.015863733 0.13169439
v 1.0184451 0.07931867 0.39508316
v 1.0184451 0.015863733 0.39508316
v 1.5276676 0.015863733 0.13169439
v 1.5276676 0.015863733 0.39508316
v 1.5276676 0.07931867 0.39508316
v 1.5276676 0.015863733 0.13169439
v 1.5276676 0.07931867 0.39508316
v 1.5276676 0.07931867 0.13169439
v -0.3637304 0.17450108 1.8437215
v 0.3637304 0.17450108 1.8437215
v 0 0.25381973 2.041263
v -0.43647647 0 -1.4486383
v -0.43647647 0 -1.1194024
v 0.43647647 0 -1.1194024
v -0.43647647 0 -1.4486383
v 0.43647647 0 -1.1194024
v 0.43647647 0 -1.4486383
v -0.43647647 0.095182404 -1.4486383
v 0.43647647 0.095182404 -1.1194024
v -0.43647647 0.095182404 -1.1194024
v -0.43647647 0.095182404 -1.4486383
v 0.43647647 0.095182404 -1.4486383
v 0.43647647 0.095182404 -1.1194024
v -0.43647647 0 -1.4486383
v -0.43647647 0.095182404 -1.4486383
v -0.43647647 0.095182404 -1.1194024
v -0.43647647 0 -1.4486383
v -0.43647647 0.095182404 -1.1194024
v -0.43647647 0 -1.1194024
v 0.43647647 0 -1.4486383
v 0.43647647 0 -1.1194024
v 0.43647647 0.095182404 -1.1194024
v 0.43647647 0 -1.4486383
v 0.43647647 0.095182404 -1.1194024
v 0.43647647 0.095182404 -1.4486383
v -0.1818652 0.34900215 0.19754158
v 0.1818652 0.34900215 0.19754158
v 0 0.39659336 0.329236
v -2.24657 0.08574991 -1.9440602
v -2.9847288 0 -3.5680094
v -1.5084114 0 -3.5680094
v -0.7488567 0.08574991 -1.9440602
v -1.4870155 0 -3.5680094
v -0.010697961 0 -3.5680094
v 0.7488567 0.08574991 -1.9440602
v 0.010697961 0 -3.5680094
v 1.4870155 0 -3.5680094
v 2.24657 0.08574991 -1.9440602
v 1.5084114 0 -3.5680094
v 2.9847288 0 -3.5680094
v -1.9756316 0.19293731 -0.12542324
v -1.895397 0.15006235 -0.100338586
v -1.9756316 0.12862487 -0.08779626
v -1.654693 0.21437478 0.18813486
v -1.5744584 0.17149982 0.21321951
v -1.654693 0.14470297 0.22576183
v -1.3337543 0.23581226 0.50169295
v -1.2535197 0.19293731 0.5267776
v -1.3337543 0.16078107 0.53931993
v 1.9756316 0.19293731 -0.12542324
v 1.895397 0.15006235 -0.100338586
v 1.9756316 0.12862487 -0.08779626
v 1.654693 0.21437478 0.18813486
v 1.5744584 0.17149982 0.21321951
v 1.654693 0.14470297 0.22576183
v 1.3337543 0.23581226 0.50169295
v 1.2535197 0.19293731 0.5267776
v 1.3337543 0.16078107 0.53931993
v -0.9058362 0.49306202 -0.18813486
v 0.9058362 0.49306202 -0.18813486
v 0.05 0.5573744 -0.16932137
v -0.61164254 0.5144995 0.15677904
v 0.61164254 0.5144995 0.15677904
v 0.05 0.5788119 0.17559253
v -0.31744882 0.53593695 0.50169295
v 0.31744882 0.53593695 0.50169295
v 0.05 0.6002494 0.52050644
v -0.4314079 0.021437477 0.3135581
v 0.5314079 0.021437477 0.3135581
v 0.05 0.10718739 0.3449139
v -0.859326 0.042874955 -0.18813486
v 0.959326 0.042874955 -0.18813486
v 0.05 0.12862487 -0.16305022
v -0.7047406 0.042874955 0.18813486
v 0.8047406 0.042874955 0.18813486
v 0.05 0.1393436 0.21321951
v -0.5501552 0.042874955 0.5644046
v 0.65015525 0.042874955 0.5644046
v 0.05 0.15006235 0.5894893
v -1.0128158 0.21437478 0.06271162
v -0.9325812 0.25724974 0.094067425
v -1.0128158 0.17149982 0.10033859
v -1.0128158 0.21437478 0.25084648
v -0.9325812 0.25724974 0.28220227
v -1.0128158 0.17149982 0.28847346
v -1.0128158 0.21437478 0.43898135
v -0.9325812 0.25724974 0.47033715
v -1.0128158 0.17149982 0.47660834
v 1.0128158 0.21437478 0.06271162
v 0.9325812 0.25724974 0.094067425
v 1.0128158 0.17149982 0.10033859
v 1.0128158 0.21437478 0.25084648
v 0.9325812 0.25724974 0.28220227
v 1.0128158 0.17149982 0.28847346
v 1.0128158 0.21437478 0.43898135
v 0.9325812 0.25724974 0.47033715
v 1.0128158 0.17149982 0.47660834
v -0.6918772 0.47162452 -0.06271162
v 0.6918772 0.47162452 -0.06271162
v 0.05 0.5144995 -0.04389813
v -0.47791812 0.49306202 0.28220227
v 0.47791812 0.49306202 0.28220227
v 0.05 0.53593695 0.30101576
v -0.26395905 0.5144995 0.6271162
v 0.26395905 0.5144995 0.6271162
v 0.05 0.5573744 0.6459297
v -0.21744885 0.042874955 -0.3135581
v 0.31744885 0.042874955 -0.3135581
v 0.05 0.10718739 -0.25084648
v -0.6418772 0.042874955 -0.37626973
v -0.32093862 0.042874955 -0.37626973
v -0.4814079 0.10718739 -0.25084648
v -0.1604693 0.042874955 -0.37626973
v 0.1604693 0.042874955 -0.37626973
v 0 0.10718739 -0.25084648
v 0.32093862 0.042874955 -0.37626973
v 0.6418772 0.042874955 -0.37626973
v 0.4814079 0.10718739 -0.25084648
v -0.37442836 0.021437477 1.0033859
v 0.37442836 0.021437477 1.0033859
v 0 0.08574991 1.1915208
v -0.37442836 0.032156218 0.18813486
v 0.37442836 0.032156218 0.18813486
v 0 0.09646866 0.21321951
v -0.37442836 0.032156218 0.31355807
v 0.37442836 0.032156218 0.31355807
v 0 0.09646866 0.33864272
v -0.37442836 0.032156218 0.43898135
v 0.37442836 0.032156218 0.43898135
v 0 0.09646866 0.464066
v -0.37442836 0.032156218 0.56440455
v 0.37442836 0.032156218 0.56440455
v 0 0.09646866 0.5894892
v -0.37442836 0.032156218 0.6898278
v 0.37442836 0.032156218 0.6898278
v 0 0.09646866 0.7149125
v -0.37442836 0.032156218 0.81525105
v 0.37442836 0.032156218 0.81525105
v 0 0.09646866 0.8403357
v -0.26744884 0.49306202 0.06271162
v 0.26744884 0.49306202 0.06271162
v 0 0.5573745 0.078389525
v -0.23535497 0.501637 0.17559254
v 0.23535497 0.501637 0.17559254
v 0 0.56594944 0.19127044
v -0.2032611 0.510212 0.28847346
v 0.2032611 0.510212 0.28847346
v 0 0.57452446 0.30415136
v -0.17116724 0.51878697 0.4013544
v 0.17116724 0.51878697 0.4013544
v 0 0.5830994 0.4170323
v -0.13907339 0.527362 0.5142353
v 0.13907339 0.527362 0.5142353
v 0 0.59167445 0.52991325
v -0.10697953 0.53593695 0.6271162
v 0.10697953 0.53593695 0.6271162
v 0 0.6002494 0.64279413
v -0.909326 0.10718739 0.12542324
v -0.82909137 0.15006235 0.14423673
v -0.909326 0.064312436 0.15050788
v -0.909326 0.10718739 0.31355807
v -0.82909137 0.15006235 0.33237156
v -0.909326 0.064312436 0.33864272
v 0.909326 0.10718739 0.12542324
v 0.82909137 0.15006235 0.14423673
v 0.909326 0.064312436 0.15050788
v 0.909326 0.10718739 0.31355807
v 0.82909137 0.15006235 0.33237156
v 0.909326 0.064312436 0.33864272
v -0.21395905 0.064312436 -0.25084648
v 0.21395905 0.064312436 -0.25084648
v 0 0.12862487 -0.18813486
v -0.120469294 0.23581226 2.82704
v 0.20046929 0.23581226 2.82704
v 0.04 0.47162452 3.0728695
v -0.040234648 0.42874956 2.9806836
v 0.120234646 0.42874956 2.9806836
v 0.04 0.5144995 3.0728695
v -0.17395905 0.94667906 0.37626973
v 0.25395906 0.94667906 0.37626973
v 0.04 1.028999 0.50169295
v -2.2330804 0.38587463 0.43898135
v -2.2330804 0.45018703 0.5644046
v -2.1528459 0.42874956 0.6898278
v 2.2330804 0.38587463 0.43898135
v 2.2330804 0.45018703 0.5644046
v 2.1528459 0.42874956 0.6898278
v -0.06697953 0.47162452 3.134327
v 0.14697953 0.47162452 3.134327
v 0.04 0.5573744 3.2572415
v -0.2809386 0.064312436 -0.50169295
v 0.36093858 0.064312436 -0.50169295
v 0.04 0.15006235 -0.3762697
vn 0 -0.84605646 0.5330932
vn 0 -0.84605646 0.5330932
vn 0 -0.84605646 0.5330932
vn 0.5056897 -0.5193741 -0.68886036
vn 0.5056897 -0.5193741 -0.68886036
vn 0.5056897 -0.5193741 -0.68886036
vn -0.4049732 -0.04626159 0.9131575
vn -0.4049732 -0.04626159 0.9131575
vn -0.4049732 -0.04626159 0.9131575
vn 0 1 0
vn 0 1 0
vn 0 1 0
vn 0 1 -0
vn 0 1 -0
vn 0 1 -0
vn 0 -0.67847663 0.734622
vn 0 -0.67847663 0.734622
vn 0 -0.67847663 0.734622
vn 0.38449603 -0.9158665 -0.11554839
vn 0.38449603 -0.9158665 -0.11554839
vn 0.38449603 -0.9158665 -0.11554839
vn -0.467333 -0.74453825 0.4767206
vn -0.467333 -0.74453825 0.4767206
vn -0.467333 -0.74453825 0.4767206
vn 0 1 0
vn 0 1 0
vn 0 1 0
vn 0 1 -0
vn 0 1 -0
vn 0 1 -0
vn 0 -0.591681 0.8061722
vn 0 -0.591681 0.8061722
vn 0 -0.591681 0.8061722
vn 0.2891996 -0.9198613 0.2649884
vn 0.2891996 -0.9198613 0.2649884
vn 0.2891996 -0.9198613 0.2649884
vn -0.27810487 -0.9261334 -0.25482264
vn -0.27810487 -0.9261334 -0.25482264
vn -0.27810487 -0.9261334 -0.25482264
vn 0 1 -0
vn 0 1 -0
vn 0 1 -0
vn 0 1 0
vn 0 1 0
vn 0 1 0
vn 0 -0.5916808 0.8061723
vn 0 -0.5916808 0.8061723
vn 0 -0.5916808 0.8061723
vn 0.23775256 -0.88695157 0.39596784
vn 0.23775256 -0.88695157 0.39596784
vn 0.23775256 -0.88695157 0.39596784
vn -0.16089955 -0.91325617 -0.37426525
vn -0.16089955 -0.91325617 -0.37426525
vn -0.16089955 -0.91325617 -0.37426525
vn 0 1 -0
vn 0 1 -0
vn 0 1 -0
vn 0 1 0
vn 0 1 0
vn 0 1 0
vn 0 -0.67847675 0.734622
vn 0 -0.67847675 0.734622
vn 0 -0.67847675 0.734622
vn 0.2505143 -0.9475282 0.19857709
vn 0.2505143 -0.9475282 0.19857709
vn 0.2505143 -0.9475282 0.19857709
vn -0.09971171 -0.94164 -0.32151484
vn -0.09971171 -0.94164 -0.32151484
vn -0.09971171 -0.94164 -0.32151484
vn 0 1 -0
vn 0 1 -0
vn 0 1 -0
vn 0 1 0
vn 0 1 0
vn 0 1 0
vn 0 0 -1
vn 0 0 -1
vn 0 0 -1
vn -0 0 -1
vn -0 0 -1
vn -0 0 -1
vn 0 0 -1
vn 0 0 -1
vn 0 0 -1
vn -0 0 -1
vn -0 0 -1
vn -0 0 -1
vn 0 -0.9943163 0.10646582
vn 0 -0.9943163 0.10646582
vn 0 -0.9943163 0.10646582
vn 0 -0.9928229 0.119594134
vn 0 -0.9928229 0.119594134
vn 0 -0.9928229 0.119594134
vn 0 1 0
vn 0 1 0
vn 0 1 0
vn 0 1 0
vn 0 1 0
vn 0 1 0
vn 0 -1 0
vn 0 -1 0
vn 0 -1 0
vn 0 -1 0
vn 0 -1 0
vn 0 -1 0
vn 1 0 0
vn 1 0 0
vn 1 0 0
vn 1 0 0
vn 1 0 0
vn 1 0 0
vn -1 0 0
vn -1 0 0
vn -1 0 0
vn -1 0 0
vn -1 0 0
vn -1 0 0
vn 0 1 0
vn 0 1 0
vn 0 1 0
vn 0 1 0
vn 0 1 0
vn 0 1 0
vn 0 -1 0
vn 0 -1 0
vn 0 -1 0
vn 0 -1 0
vn 0 -1 0
vn 0 -1 0
vn 1 0 0
vn 1 0 0
vn 1 0 0
vn 1 0 0
vn 1 0 0
vn 1 0 0
vn -1 0 0
vn -1 0 0
vn -1 0 0
vn -1 0 0
vn -1 0 0
vn -1 0 0
vn 0 -0.9279866 0.37261343
vn 0 -0.9279866 0.37261343
vn 0 -0.9279866 0.37261343
vn 0 1 0
vn 0 1 0
vn 0 1 0
vn 0 1 0
vn 0 1 0
vn 0 1 0
vn 0 -1 0
vn 0 -1 0
vn 0 -1 0
vn 0 -1 0
vn 0 -1 0
vn 0 -1 0
vn 1 0 0
vn 1 0 0
vn 1 0 0
vn 1 0 0
vn 1 0 0
vn 1 0 0
vn -1 0 0
vn -1 0 0
vn -1 0 0
vn -1 0 0
vn -1 0 0
vn -1 0 0
vn 0 -0.9404742 0.33986485
vn 0 -0.9404742 0.33986485
vn 0 -0.9404742 0.33986485
vn 0 -0.99860877 0.052729856
vn 0 -0.99860877 0.052729856
vn 0 -0.99860877 0.052729856
vn 0 -0.99860877 0.052729864
vn 0 -0.99860877 0.052729864
vn 0 -0.99860877 0.052729864
vn 0 -0.99860877 0.052729864
vn 0 -0.99860877 0.052729864
vn 0 -0.99860877 0.052729864
vn 0 -0.99860877 0.052729856
vn 0 -0.99860877 0.052729856
vn 0 -0.99860877 0.052729856
vn 1.947279E-08 -0.5049859 -0.8631276
vn 1.947279E-08 -0.5049859 -0.8631276
vn 1.947279E-08 -0.5049859 -0.8631276
vn 0.021155838 -0.4750835 -0.8796863
vn 0.021155838 -0.4750835 -0.8796863
vn 0.021155838 -0.4750835 -0.8796863
vn 0.039892625 -0.44791806 -0.8931842
vn 0.039892625 -0.44791806 -0.8931842
vn 0.039892625 -0.44791806 -0.8931842
vn 1.947279E-08 0.5049859 0.8631276
vn 1.947279E-08 0.5049859 0.8631276
vn 1.947279E-08 0.5049859 0.8631276
vn 0.021155838 0.4750835 0.8796863
vn 0.021155838 0.4750835 0.8796863
vn 0.021155838 0.4750835 0.8796863
vn 0.039892625 0.44791806 0.8931842
vn 0.039892625 0.44791806 0.8931842
vn 0.039892625 0.44791806 0.8931842
vn 0 -0.2807661 0.95977616
vn 0 -0.2807661 0.95977616
vn 0 -0.2807661 0.95977616
vn 0 -0.28076613 0.9597763
vn 0 -0.28076613 0.9597763
vn 0 -0.28076613 0.9597763
vn 0 -0.2807659 0.95977634
vn 0 -0.2807659 0.95977634
vn 0 -0.2807659 0.95977634
vn 0 -0.3434258 0.9391798
vn 0 -0.3434258 0.9391798
vn 0 -0.3434258 0.9391798
vn 0 -0.28076583 0.9597763
vn 0 -0.28076583 0.9597763
vn 0 -0.28076583 0.9597763
vn 0 -0.2516601 0.96781564
vn 0 -0.2516601 0.96781564
vn 0 -0.2516601 0.96781564
vn 0 -0.2278695 0.9736917
vn 0 -0.2278695 0.9736917
vn 0 -0.2278695 0.9736917
vn 0.5427457 -0.5540043 -0.63127357
vn 0.5427457 -0.5540043 -0.63127357
vn 0.5427457 -0.5540043 -0.63127357
vn 0.54274565 -0.55400443 -0.6312735
vn 0.54274565 -0.55400443 -0.6312735
vn 0.54274565 -0.55400443 -0.6312735
vn 0.54274565 -0.55400443 -0.6312735
vn 0.54274565 -0.55400443 -0.6312735
vn 0.54274565 -0.55400443 -0.6312735
vn 0.5427457 0.5540043 0.63127357
vn 0.5427457 0.5540043 0.63127357
vn 0.5427457 0.5540043 0.63127357
vn 0.54274565 0.55400443 0.6312735
vn 0.54274565 0.55400443 0.6312735
vn 0.54274565 0.55400443 0.6312735
vn 0.54274565 0.55400443 0.6312735
vn 0.54274565 0.55400443 0.6312735
vn 0.54274565 0.55400443 0.6312735
vn 0 -0.40181693 0.91572
vn 0 -0.40181693 0.91572
vn 0 -0.40181693 0.91572
vn 0 -0.40181723 0.91571987
vn 0 -0.40181723 0.91571987
vn 0 -0.40181723 0.91571987
vn 0 -0.40181723 0.9157198
vn 0 -0.40181723 0.9157198
vn 0 -0.40181723 0.9157198
vn 0 -0.6981401 0.71596116
vn 0 -0.6981401 0.71596116
vn 0 -0.6981401 0.71596116
vn 0 -0.8898381 0.45627627
vn 0 -0.8898381 0.45627627
vn 0 -0.8898381 0.45627627
vn 0 -0.88983816 0.45627627
vn 0 -0.88983816 0.45627627
vn 0 -0.88983816 0.45627627
vn 0 -0.8898381 0.45627627
vn 0 -0.8898381 0.45627627
vn 0 -0.8898381 0.45627627
vn 0 -0.9462403 0.32346475
vn 0 -0.9462403 0.32346475
vn 0 -0.9462403 0.32346475
vn 0 -0.36338034 0.9316408
vn 0 -0.36338034 0.9316408
vn 0 -0.36338034 0.9316408
vn 0 -0.36338034 0.9316408
vn 0 -0.36338034 0.9316408
vn 0 -0.36338034 0.9316408
vn 0 -0.36338034 0.9316408
vn 0 -0.36338034 0.9316408
vn 0 -0.36338034 0.9316408
vn 0 -0.36338073 0.93164074
vn 0 -0.36338073 0.93164074
vn 0 -0.36338073 0.93164074
vn 0 -0.36338073 0.93164074
vn 0 -0.36338073 0.93164074
vn 0 -0.36338073 0.93164074
vn 0 -0.36338073 0.93164074
vn 0 -0.36338073 0.93164074
vn 0 -0.36338073 0.93164074
vn 0 -0.23684126 0.9715484
vn 0 -0.23684126 0.9715484
vn 0 -0.23684126 0.9715484
vn 0 -0.23684119 0.97154844
vn 0 -0.23684119 0.97154844
vn 0 -0.23684119 0.97154844
vn 0 -0.23684119 0.97154844
vn 0 -0.23684119 0.97154844
vn 0 -0.23684119 0.97154844
vn 0 -0.23684114 0.9715484
vn 0 -0.23684114 0.9715484
vn 0 -0.23684114 0.9715484
vn 0 -0.2368416 0.9715483
vn 0 -0.2368416 0.9715483
vn 0 -0.2368416 0.9715483
vn 0 -0.2368416 0.97154826
vn 0 -0.2368416 0.97154826
vn 0 -0.2368416 0.97154826
vn 0.42701653 -0.45663038 -0.7804777
vn 0.42701653 -0.45663038 -0.7804777
vn 0.42701653 -0.45663038 -0.7804777
vn 0.42701653 -0.45663038 -0.7804777
vn 0.42701653 -0.45663038 -0.7804777
vn 0.42701653 -0.45663038 -0.7804777
vn 0.42701653 0.45663038 0.7804777
vn 0.42701653 0.45663038 0.7804777
vn 0.42701653 0.45663038 0.7804777
vn 0.42701653 0.45663038 0.7804777
vn 0.42701653 0.45663038 0.7804777
vn 0.42701653 0.45663038 0.7804777
vn 0 -0.69814 0.7159613
vn 0 -0.69814 0.7159613
vn 0 -0.69814 0.7159613
vn 0 -0.72165734 0.6922505
vn 0 -0.72165734 0.6922505
vn 0 -0.72165734 0.6922505
vn 0 -0.73220444 0.68108493
vn 0 -0.73220444 0.68108493
vn 0 -0.73220444 0.68108493
vn 0 -0.83601457 0.54870737
vn 0 -0.83601457 0.54870737
vn 0 -0.83601457 0.54870737
vn 0.6891324 0.64480835 -0.33063382
vn 0.6891324 0.64480835 -0.33063382
vn 0.6891324 0.64480835 -0.33063382
vn 0.6891324 -0.64480835 0.33063382
vn 0.6891324 -0.64480835 0.33063382
vn 0.6891324 -0.64480835 0.33063382
vn 0 -0.82014084 0.5721616
vn 0 -0.82014084 0.5721616
vn 0 -0.82014084 0.5721616
vn 0 -0.8255096 0.564388
vn 0 -0.8255096 0.564388
vn 0 -0.8255096 0.564388
f 1//1 2//2 3//3
f 4//4 5//5 6//6
f 7//7 8//8 9//9
f 10//10 11//11 12//12
f 13//13 14//14 15//15
f 16//16 17//17 18//18
f 19//19 20//20 21//21
f 22//22 23//23 24//24
f 25//25 26//26 27//27
f 28//28 29//29 30//30
f 31//31 32//32 33//33
f 34//34 35//35 36//36
f 37//37 38//38 39//39
f 40//40 41//41 42//42
f 43//43 44//44 45//45
f 46//46 47//47 48//48
f 49//49 50//50 51//51
f 52//52 53//53 54//54
f 55//55 56//56 57//57
f 58//58 59//59 60//60
f 61//61 62//62 63//63
f 64//64 65//65 66//66
f 67//67 68//68 69//69
f 70//70 71//71 72//72
f 73//73 74//74 75//75
f 76//76 77//77 78//78
f 79//79 80//80 81//81
f 82//82 83//83 84//84
f 85//85 86//86 87//87
f 88//88 89//89 90//90
f 91//91 92//92 93//93
f 94//94 95//95 96//96
f 97//97 98//98 99//99
f 100//100 101//101 102//102
f 103//103 104//104 105//105
f 106//106 107//107 108//108
f 109//109 110//110 111//111
f 112//112 113//113 114//114
f 115//115 116//116 117//117
f 118//118 119//119 120//120
f 121//121 122//122 123//123
f 124//124 125//125 126//126
f 127//127 128//128 129//129
f 130//130 131//131 132//132
f 133//133 134//134 135//135
f 136//136 137//137 138//138
f 139//139 140//140 141//141
f 142//142 143//143 144//144
f 145//145 146//146 147//147
f 148//148 149//149 150//150
f 151//151 152//152 153//153
f 154//154 155//155 156//156
f 157//157 158//158 159//159
f 160//160 161//161 162//162
f 163//163 164//164 165//165
f 166//166 167//167 168//168
f 169//169 170//170 171//171
f 172//172 173//173 174//174
f 175//175 176//176 177//177
f 178//178 179//179 180//180
f 181//181 182//182 183//183
f 184//184 185//185 186//186
f 187//187 188//188 189//189
f 190//190 191//191 192//192
f 193//193 194//194 195//195
f 196//196 197//197 198//198
f 199//199 200//200 201//201
f 202//202 203//203 204//204
f 205//205 206//206 207//207
f 208//208 209//209 210//210
f 211//211 212//212 213//213
f 214//214 215//215 216//216
f 217//217 218//218 219//219
f 220//220 221//221 222//222
f 223//223 224//224 225//225
f 226//226 227//227 228//228
f 229//229 230//230 231//231
f 232//232 233//233 234//234
f 235//235 236//236 237//237
f 238//238 239//239 240//240
f 241//241 242//242 243//243
f 244//244 245//245 246//246
f 247//247 248//248 249//249
f 250//250 251//251 252//252
f 253//253 254//254 255//255
f 256//256 257//257 258//258
f 259//259 260//260 261//261
f 262//262 263//263 264//264
f 265//265 266//266 267//267
f 268//268 269//269 270//270
f 271//271 272//272 273//273
f 274//274 275//275 276//276
f 277//277 278//278 279//279
f 280//280 281//281 282//282
f 283//283 284//284 285//285
f 286//286 287//287 288//288
f 289//289 290//290 291//291
f 292//292 293//293 294//294
f 295//295 296//296 297//297
f 298//298 299//299 300//300
f 301//301 302//302 303//303
f 304//304 305//305 306//306
f 307//307 308//308 309//309
f 310//310 311//311 312//312
f 313//313 314//314 315//315
f 316//316 317//317 318//318
f 319//319 320//320 321//321
f 322//322 323//323 324//324
f 325//325 326//326 327//327
f 328//328 329//329 330//330
f 331//331 332//332 333//333
f 334//334 335//335 336//336
