# Exported from SharpOpenGl procedural mesh
o nexar_gunship_mk3_40
# vertices 336
v -0.7114596 0.12341486 -1.778176
v 0.7114596 0.12341486 -1.778176
v 0 0.38567144 -1.3999095
v -0.7114596 0.12341486 -1.778176
v 0 0.38567144 -1.3999095
v 0.4378369 0.21207662 -0.93758374
v 0.7114596 0.12341486 -1.778176
v 2.4770293 0.21207662 -0.93758374
v 1.4574331 0.66273946 -1.3999095
v -0.7114596 0 -1.778176
v 0.4378369 0 -0.93758374
v 0.7114596 0 -1.778176
v 0.7114596 0 -1.778176
v 0.4378369 0 -0.93758374
v 2.4770293 0 -0.93758374
v 0.4378369 0.21207662 -0.93758374
v 2.4770293 0.21207662 -0.93758374
v 1.4574331 0.66273946 -0.55931723
v 0.4378369 0.21207662 -0.93758374
v 1.4574331 0.66273946 -0.55931723
v 0.78532803 0.2668726 -0.09699154
v 2.4770293 0.21207662 -0.93758374
v 3.205398 0.2668726 -0.09699154
v 1.9953631 0.8339769 -0.55931723
v 0.4378369 0 -0.93758374
v 0.78532803 0 -0.09699154
v 2.4770293 0 -0.93758374
v 2.4770293 0 -0.93758374
v 0.78532803 0 -0.09699154
v 3.205398 0 -0.09699154
v 0.78532803 0.2668726 -0.09699154
v 3.205398 0.2668726 -0.09699154
v 1.9953631 0.8339769 0.28127497
v 0.78532803 0.2668726 -0.09699154
v 1.9953631 0.8339769 0.28127497
v 0.06437194 0.26687258 0.7436007
v 3.205398 0.2668726 -0.09699154
v 2.4844422 0.26687258 0.7436007
v 1.274407 0.83397686 0.28127497
v 0.78532803 0 -0.09699154
v 0.06437194 0 0.7436007
v 3.205398 0 -0.09699154
v 3.205398 0 -0.09699154
v 0.06437194 0 0.7436007
v 2.4844422 0 0.7436007
v 0.06437194 0.26687258 0.7436007
v 2.4844422 0.26687258 0.7436007
v 1.274407 0.83397686 1.1218672
v 0.06437194 0.26687258 0.7436007
v 1.274407 0.83397686 1.1218672
v -1.4199568 0.2120766 1.5841929
v 2.4844422 0.26687258 0.7436007
v 0.9187976 0.2120766 1.5841929
v -0.25057957 0.6627394 1.1218672
v 0.06437194 0 0.7436007
v -1.4199568 0 1.5841929
v 2.4844422 0 0.7436007
v 2.4844422 0 0.7436007
v -1.4199568 0 1.5841929
v 0.9187976 0 1.5841929
v -1.4199568 0.2120766 1.5841929
v 0.9187976 0.2120766 1.5841929
v -0.25057957 0.6627394 1.9624593
v -1.4199568 0.2120766 1.5841929
v -0.25057957 0.6627394 1.9624593
v -2.3289337 0.123414844 2.4247851
v 0.9187976 0.2120766 1.5841929
v -0.90601456 0.123414844 2.4247851
v -1.6174741 0.3856714 1.9624593
v -1.4199568 0 1.5841929
v -2.3289337 0 2.4247851
v 0.9187976 0 1.5841929
v 0.9187976 0 1.5841929
v -2.3289337 0 2.4247851
v -0.90601456 0 2.4247851
v 1.4710629 0.16039467 -1.6165235
v 1.4710629 0.6415787 -1.6165235
v 2.942126 0.2459727 -1.6165235
v -1.4710631 0.16039465 -1.6165235
v -2.942126 0.061493162 -1.6165235
v -1.4710631 0.6415786 -1.6165235
v -0.14641118 0.16039467 1.7781761
v -0.14641118 0.6415787 1.7781761
v 1.324652 0.2459727 1.7781761
v -3.0885372 0.16039465 1.7781761
v -4.5596 0.061493162 1.7781761
v -3.0885372 0.6415786 1.7781761
v -0.46806553 0 0.6466094
v 0.46806553 0 0.6466094
v 0 0.06856381 1.2285578
v -0.33433253 0 0.9052532
v 0.33433253 0 0.9052532
v 0 0.06856381 1.4225407
v -1.4041965 0.017140953 0.12932187
v -1.4041965 0.017140953 0.38796562
v -0.93613106 0.017140953 0.38796562
v -1.4041965 0.017140953 0.12932187
v -0.93613106 0.017140953 0.38796562
v -0.93613106 0.017140953 0.12932187
v -1.4041965 0.085704766 0.12932187
v -0.93613106 0.085704766 0.38796562
v -1.4041965 0.085704766 0.38796562
v -1.4041965 0.085704766 0.12932187
v -0.93613106 0.085704766 0.12932187
v -0.93613106 0.085704766 0.38796562
v -1.4041965 0.017140953 0.12932187
v -1.4041965 0.085704766 0.12932187
v -1.4041965 0.085704766 0.38796562
v -1.4041965 0.017140953 0.12932187
v -1.4041965 0.085704766 0.38796562
v -1.4041965 0.017140953 0.38796562
v -0.93613106 0.017140953 0.12932187
v -0.93613106 0.017140953 0.38796562
v -0.93613106 0.085704766 0.38796562
v -0.93613106 0.017140953 0.12932187
v -0.93613106 0.085704766 0.38796562
v -0.93613106 0.085704766 0.12932187
v 0.93613106 0.017140953 0.12932187
v 0.93613106 0.017140953 0.38796562
v 1.4041965 0.017140953 0.38796562
v 0.93613106 0.017140953 0.12932187
v 1.4041965 0.017140953 0.38796562
v 1.4041965 0.017140953 0.12932187
v 0.93613106 0.085704766 0.12932187
v 1.4041965 0.085704766 0.38796562
v 0.93613106 0.085704766 0.38796562
v 0.93613106 0.085704766 0.12932187
v 1.4041965 0.085704766 0.12932187
v 1.4041965 0.085704766 0.38796562
v 0.93613106 0.017140953 0.12932187
v 0.93613106 0.085704766 0.12932187
v 0.93613106 0.085704766 0.38796562
v 0.93613106 0.017140953 0.12932187
v 0.93613106 0.085704766 0.38796562
v 0.93613106 0.017140953 0.38796562
v 1.4041965 0.017140953 0.12932187
v 1.4041965 0.017140953 0.38796562
v 1.4041965 0.085704766 0.38796562
v 1.4041965 0.017140953 0.12932187
v 1.4041965 0.085704766 0.38796562
v 1.4041965 0.085704766 0.12932187
v -0.33433253 0.18855049 1.8105063
v 0.33433253 0.18855049 1.8105063
v 0 0.27425525 2.0044892
v -0.401199 0 -1.4225407
v -0.401199 0 -1.099236
v 0.401199 0 -1.099236
v -0.401199 0 -1.4225407
v 0.401199 0 -1.099236
v 0.401199 0 -1.4225407
v -0.401199 0.10284572 -1.4225407
v 0.401199 0.10284572 -1.099236
v -0.401199 0.10284572 -1.099236
v -0.401199 0.10284572 -1.4225407
v 0.401199 0.10284572 -1.4225407
v 0.401199 0.10284572 -1.099236
v -0.401199 0 -1.4225407
v -0.401199 0.10284572 -1.4225407
v -0.401199 0.10284572 -1.099236
v -0.401199 0 -1.4225407
v -0.401199 0.10284572 -1.099236
v -0.401199 0 -1.099236
v 0.401199 0 -1.4225407
v 0.401199 0 -1.099236
v 0.401199 0.10284572 -1.099236
v 0.401199 0 -1.4225407
v 0.401199 0.10284572 -1.099236
v 0.401199 0.10284572 -1.4225407
v -0.16716626 0.37710097 0.19398281
v 0.16716626 0.37710097 0.19398281
v 0 0.42852384 0.3233047
v -2.0649948 0.092653796 -1.9090374
v -2.743493 0 -3.4017339
v -1.3864965 0 -3.4017339
v -0.68833166 0.092653796 -1.9090374
v -1.36683 0 -3.4017339
v -0.009833336 0 -3.4017339
v 0.68833166 0.092653796 -1.9090374
v 0.009833336 0 -3.4017339
v 1.36683 0 -3.4017339
v 2.0649948 0.092653796 -1.9090374
v 1.3864965 0 -3.4017339
v 2.743493 0 -3.4017339
v -1.8199956 0.20847106 -0.1231637
v -1.7462459 0.16214415 -0.09853096
v -1.8199956 0.1389807 -0.08621459
v -1.5249964 0.2316345 0.18474555
v -1.4512466 0.18530759 0.20937829
v -1.5249964 0.15635328 0.22169466
v -1.229997 0.25479794 0.4926548
v -1.1562473 0.20847106 0.51728755
v -1.229997 0.17372586 0.5296039
v 1.8199956 0.20847106 -0.1231637
v 1.7462459 0.16214415 -0.09853096
v 1.8199956 0.1389807 -0.08621459
v 1.5249964 0.2316345 0.18474555
v 1.4512466 0.18530759 0.20937829
v 1.5249964 0.15635328 0.22169466
v 1.229997 0.25479794 0.4926548
v 1.1562473 0.20847106 0.51728755
v 1.229997 0.17372586 0.5296039
v -0.83666474 0.53275937 -0.18474555
v 0.83666474 0.53275937 -0.18474555
v 0.05 0.6022497 -0.166271
v -0.5662487 0.5559228 0.15395463
v 0.5662487 0.5559228 0.15395463
v 0.05 0.6254131 0.17242917
v -0.29583272 0.57908624 0.4926548
v 0.29583272 0.57908624 0.4926548
v 0.05 0.6485766 0.5111294
v -0.3924989 0.023163449 0.30790925
v 0.49249893 0.023163449 0.30790925
v 0.05 0.11581725 0.33870018
v -0.7858313 0.046326898 -0.18474555
v 0.8858313 0.046326898 -0.18474555
v 0.05 0.1389807 -0.16011281
v -0.64374 0.046326898 0.18474555
v 0.74374 0.046326898 0.18474555
v 0.05 0.15056242 0.20937829
v -0.50164866 0.046326898 0.55423665
v 0.6016487 0.046326898 0.55423665
v 0.05 0.16214415 0.5788694
v -0.93499786 0.2316345 0.06158185
v -0.861248 0.2779614 0.092372775
v -0.93499786 0.18530759 0.09853096
v -0.93499786 0.2316345 0.2463274
v -0.861248 0.2779614 0.27711833
v -0.93499786 0.18530759 0.2832765
v -0.93499786 0.2316345 0.43107295
v -0.861248 0.2779614 0.46186388
v -0.93499786 0.18530759 0.46802205
v 0.93499786 0.2316345 0.06158185
v 0.861248 0.2779614 0.092372775
v 0.93499786 0.18530759 0.09853096
v 0.93499786 0.2316345 0.2463274
v 0.861248 0.2779614 0.27711833
v 0.93499786 0.18530759 0.2832765
v 0.93499786 0.2316345 0.43107295
v 0.861248 0.2779614 0.46186388
v 0.93499786 0.18530759 0.46802205
v -0.63999856 0.5095959 -0.06158185
v 0.63999856 0.5095959 -0.06158185
v 0.05 0.5559228 -0.043107294
v -0.44333237 0.53275937 0.27711833
v 0.44333237 0.53275937 0.27711833
v 0.05 0.57908624 0.29559287
v -0.24666618 0.5559228 0.6158185
v 0.24666618 0.5559228 0.6158185
v 0.05 0.6022497 0.6342931
v -0.19583273 0.046326898 -0.30790925
v 0.29583272 0.046326898 -0.30790925
v 0.05 0.11581725 -0.2463274
v -0.58999854 0.046326898 -0.3694911
v -0.2949993 0.046326898 -0.3694911
v -0.44249892 0.11581725 -0.2463274
v -0.14749964 0.046326898 -0.3694911
v 0.14749964 0.046326898 -0.3694911
v 0 0.11581725 -0.2463274
v 0.2949993 0.046326898 -0.3694911
v 0.58999854 0.046326898 -0.3694911
v 0.44249892 0.11581725 -0.2463274
v -0.34416583 0.023163449 0.9853096
v 0.34416583 0.023163449 0.9853096
v 0 0.092653796 1.1700552
v -0.34416583 0.034745175 0.18474555
v 0.34416583 0.034745175 0.18474555
v 0 0.10423553 0.20937829
v -0.34416583 0.034745175 0.30790922
v 0.34416583 0.034745175 0.30790922
v 0 0.10423553 0.33254197
v -0.34416583 0.034745175 0.43107295
v 0.34416583 0.034745175 0.43107295
v 0 0.10423553 0.4557057
v -0.34416583 0.034745175 0.55423665
v 0.34416583 0.034745175 0.55423665
v 0 0.10423553 0.5788694
v -0.34416583 0.034745175 0.67740035
v 0.34416583 0.034745175 0.67740035
v 0 0.10423553 0.7020331
v -0.34416583 0.034745175 0.80056405
v 0.34416583 0.034745175 0.80056405
v 0 0.10423553 0.8251968
v -0.24583273 0.53275937 0.06158185
v 0.24583273 0.53275937 0.06158185
v 0 0.60224974 0.07697731
v -0.2163328 0.54202473 0.17242917
v 0.2163328 0.54202473 0.17242917
v 0 0.6115151 0.18782464
v -0.18683288 0.5512901 0.2832765
v 0.18683288 0.5512901 0.2832765
v 0 0.62078047 0.29867196
v -0.15733294 0.56055546 0.39412385
v 0.15733294 0.56055546 0.39412385
v 0 0.63004583 0.4095193
v -0.12783301 0.5698209 0.50497115
v 0.12783301 0.5698209 0.50497115
v 0 0.63931125 0.5203666
v -0.09833309 0.57908624 0.6158185
v 0.09833309 0.57908624 0.6158185
v 0 0.6485766 0.63121396
v -0.8358313 0.11581725 0.1231637
v -0.76208144 0.16214415 0.14163825
v -0.8358313 0.06949035 0.14779644
v -0.8358313 0.11581725 0.30790922
v -0.76208144 0.16214415 0.32638377
v -0.8358313 0.06949035 0.33254197
v 0.8358313 0.11581725 0.1231637
v 0.76208144 0.16214415 0.14163825
v 0.8358313 0.06949035 0.14779644
v 0.8358313 0.11581725 0.30790922
v 0.76208144 0.16214415 0.32638377
v 0.8358313 0.06949035 0.33254197
v -0.19666618 0.06949035 -0.2463274
v 0.19666618 0.06949035 -0.2463274
v 0 0.1389807 -0.18474555
v -0.10749964 0.25479794 2.77611
v 0.18749964 0.25479794 2.77611
v 0.04 0.5095959 3.0175107
v -0.03374982 0.463269 2.9269855
v 0.11374982 0.463269 2.9269855
v 0.04 0.5559228 3.0175107
v -0.15666619 1.022898 0.3694911
v 0.23666617 1.022898 0.3694911
v 0.04 1.1118456 0.4926548
v -2.0558283 0.41694212 0.43107295
v -2.0558283 0.48643243 0.55423665
v -1.9820786 0.463269 0.67740035
v 2.0558283 0.41694212 0.43107295
v 2.0558283 0.48643243 0.55423665
v 1.9820786 0.463269 0.67740035
v -0.05833309 0.5095959 3.0778608
v 0.13833308 0.5095959 3.0778608
v 0.04 0.6022497 3.1985612
v -0.25499928 0.06949035 -0.4926548
v 0.33499926 0.06949035 -0.4926548
v 0.04 0.16214415 -0.3694911
vn 0 -0.82180583 0.56976765
vn 0 -0.82180583 0.56976765
vn 0 -0.82180583 0.56976765
vn 0.5431878 -0.47458652 -0.6926143
vn 0.5431878 -0.47458652 -0.6926143
vn 0.5431878 -0.47458652 -0.6926143
vn -0.4277946 -0.041571785 0.9029194
vn -0.4277946 -0.041571785 0.9029194
vn -0.4277946 -0.041571785 0.9029194
vn 0 1 0
vn 0 1 0
vn 0 1 0
vn 0 1 -0
vn 0 1 -0
vn 0 1 -0
vn 0 -0.64290273 0.76594776
vn 0 -0.64290273 0.76594776
vn 0 -0.64290273 0.76594776
vn 0.43915722 -0.88987654 -0.12353383
vn 0.43915722 -0.88987654 -0.12353383
vn 0.43915722 -0.88987654 -0.12353383
vn -0.51650006 -0.70000386 0.493176
vn -0.51650006 -0.70000386 0.493176
vn -0.51650006 -0.70000386 0.493176
vn 0 1 0
vn 0 1 0
vn 0 1 0
vn 0 1 -0
vn 0 1 -0
vn 0 1 -0
vn 0 -0.55490017 0.8319169
vn 0 -0.55490017 0.8319169
vn 0 -0.55490017 0.8319169
vn 0.33228445 -0.89909196 0.2849925
vn 0.33228445 -0.89909196 0.2849925
vn 0.33228445 -0.89909196 0.2849925
vn -0.3200751 -0.9067471 -0.27452075
vn -0.3200751 -0.9067471 -0.27452075
vn -0.3200751 -0.9067471 -0.27452075
vn 0 1 -0
vn 0 1 -0
vn 0 1 -0
vn 0 1 0
vn 0 1 0
vn 0 1 0
vn 0 -0.5549002 0.8319169
vn 0 -0.5549002 0.8319169
vn 0 -0.5549002 0.8319169
vn 0.2721488 -0.86367565 0.4242632
vn 0.2721488 -0.86367565 0.4242632
vn 0.2721488 -0.86367565 0.4242632
vn -0.18552098 -0.8957779 -0.4039354
vn -0.18552098 -0.8957779 -0.4039354
vn -0.18552098 -0.8957779 -0.4039354
vn 0 1 -0
vn 0 1 -0
vn 0 1 -0
vn 0 1 0
vn 0 1 0
vn 0 1 0
vn 0 -0.64290273 0.7659478
vn 0 -0.64290273 0.7659478
vn 0 -0.64290273 0.7659478
vn 0.2898449 -0.9325984 0.21505848
vn 0.2898449 -0.9325984 0.21505848
vn 0.2898449 -0.9325984 0.21505848
vn -0.11574219 -0.9298222 -0.34933397
vn -0.11574219 -0.9298222 -0.34933397
vn -0.11574219 -0.9298222 -0.34933397
vn 0 1 -0
vn 0 1 -0
vn 0 1 -0
vn 0 1 0
vn 0 1 0
vn 0 1 0
vn 0 0 -1
vn 0 0 -1
vn 0 0 -1
vn -0 0 -1
vn -0 0 -1
vn -0 0 -1
vn 0 0 -1
vn 0 0 -1
vn 0 0 -1
vn -0 0 -1
vn -0 0 -1
vn -0 0 -1
vn 0 -0.9931309 0.11700838
vn 0 -0.9931309 0.11700838
vn 0 -0.9931309 0.11700838
vn 0 -0.99132997 0.13139571
vn 0 -0.99132997 0.13139571
vn 0 -0.99132997 0.13139571
vn 0 1 0
vn 0 1 0
vn 0 1 0
vn 0 1 0
vn 0 1 0
vn 0 1 0
vn 0 -1 0
vn 0 -1 0
vn 0 -1 0
vn 0 -1 0
vn 0 -1 0
vn 0 -1 0
vn 1 0 0
vn 1 0 0
vn 1 0 0
vn 1 0 0
vn 1 0 0
vn 1 0 0
vn -1 0 0
vn -1 0 0
vn -1 0 0
vn -1 0 0
vn -1 0 0
vn -1 0 0
vn 0 1 0
vn 0 1 0
vn 0 1 0
vn 0 1 0
vn 0 1 0
vn 0 1 0
vn 0 -1 0
vn 0 -1 0
vn 0 -1 0
vn 0 -1 0
vn 0 -1 0
vn 0 -1 0
vn 1 0 0
vn 1 0 0
vn 1 0 0
vn 1 0 0
vn 1 0 0
vn 1 0 0
vn -1 0 0
vn -1 0 0
vn -1 0 0
vn -1 0 0
vn -1 0 0
vn -1 0 0
vn 0 -0.91470164 0.40412998
vn 0 -0.91470164 0.40412998
vn 0 -0.91470164 0.40412998
vn 0 1 0
vn 0 1 0
vn 0 1 0
vn 0 1 0
vn 0 1 0
vn 0 1 0
vn 0 -1 0
vn 0 -1 0
vn 0 -1 0
vn 0 -1 0
vn 0 -1 0
vn 0 -1 0
vn 1 0 0
vn 1 0 0
vn 1 0 0
vn 1 0 0
vn 1 0 0
vn 1 0 0
vn -1 0 0
vn -1 0 0
vn -1 0 0
vn -1 0 0
vn -1 0 0
vn -1 0 0
vn 0 -0.9292327 0.36949506
vn 0 -0.9292327 0.36949506
vn 0 -0.9292327 0.36949506
vn 0 -0.9980791 0.061952196
vn 0 -0.9980791 0.061952196
vn 0 -0.9980791 0.061952196
vn 0 -0.9980791 0.06195219
vn 0 -0.9980791 0.06195219
vn 0 -0.9980791 0.06195219
vn 0 -0.9980791 0.06195219
vn 0 -0.9980791 0.06195219
vn 0 -0.9980791 0.06195219
vn 0 -0.9980791 0.061952196
vn 0 -0.9980791 0.061952196
vn 0 -0.9980791 0.061952196
vn -6.016999E-08 -0.46947587 -0.8829453
vn -6.016999E-08 -0.46947587 -0.8829453
vn -6.016999E-08 -0.46947587 -0.8829453
vn 0.023058105 -0.4404876 -0.8974625
vn 0.023058105 -0.4404876 -0.8974625
vn 0.023058105 -0.4404876 -0.8974625
vn 0.04337773 -0.4143254 -0.90909445
vn 0.04337773 -0.4143254 -0.90909445
vn 0.04337773 -0.4143254 -0.90909445
vn -6.016999E-08 0.46947587 0.8829453
vn -6.016999E-08 0.46947587 0.8829453
vn -6.016999E-08 0.46947587 0.8829453
vn 0.023058105 0.4404876 0.8974625
vn 0.023058105 0.4404876 0.8974625
vn 0.023058105 0.4404876 0.8974625
vn 0.04337773 0.4143254 0.90909445
vn 0.04337773 0.4143254 0.90909445
vn 0.04337773 0.4143254 0.90909445
vn 0 -0.25693285 0.9664293
vn 0 -0.25693285 0.9664293
vn 0 -0.25693285 0.9664293
vn 0 -0.25693288 0.9664293
vn 0 -0.25693288 0.9664293
vn 0 -0.25693288 0.9664293
vn 0 -0.25693306 0.9664293
vn 0 -0.25693306 0.9664293
vn 0 -0.25693306 0.9664293
vn 0 -0.31536418 0.9489708
vn 0 -0.31536418 0.9489708
vn 0 -0.31536418 0.9489708
vn 0 -0.25693277 0.9664293
vn 0 -0.25693277 0.9664293
vn 0 -0.25693277 0.9664293
vn 0 -0.22998343 0.97319454
vn 0 -0.22998343 0.97319454
vn 0 -0.22998343 0.97319454
vn 0 -0.20803319 0.9781218
vn 0 -0.20803319 0.9781218
vn 0 -0.20803319 0.9781218
vn 0.5832802 -0.5064815 -0.635028
vn 0.5832802 -0.5064815 -0.635028
vn 0.5832802 -0.5064815 -0.635028
vn 0.5832802 -0.50648147 -0.6350282
vn 0.5832802 -0.50648147 -0.6350282
vn 0.5832802 -0.50648147 -0.6350282
vn 0.5832802 -0.50648147 -0.6350282
vn 0.5832802 -0.50648147 -0.6350282
vn 0.5832802 -0.50648147 -0.6350282
vn 0.5832802 0.5064815 0.635028
vn 0.5832802 0.5064815 0.635028
vn 0.5832802 0.5064815 0.635028
vn 0.5832802 0.50648147 0.6350282
vn 0.5832802 0.50648147 0.6350282
vn 0.5832802 0.50648147 0.6350282
vn 0.5832802 0.50648147 0.6350282
vn 0.5832802 0.50648147 0.6350282
vn 0.5832802 0.50648147 0.6350282
vn 0 -0.37041876 0.92886484
vn 0 -0.37041876 0.92886484
vn 0 -0.37041876 0.92886484
vn 0 -0.37041906 0.9288647
vn 0 -0.37041906 0.9288647
vn 0 -0.37041906 0.9288647
vn 0 -0.37041956 0.92886454
vn 0 -0.37041956 0.92886454
vn 0 -0.37041956 0.92886454
vn 0 -0.66323584 0.74841034
vn 0 -0.66323584 0.74841034
vn 0 -0.66323584 0.74841034
vn 0 -0.8709379 0.49139297
vn 0 -0.8709379 0.49139297
vn 0 -0.8709379 0.49139297
vn 0 -0.8709379 0.49139297
vn 0 -0.8709379 0.49139297
vn 0 -0.8709379 0.49139297
vn 0 -0.8709379 0.49139297
vn 0 -0.8709379 0.49139297
vn 0 -0.8709379 0.49139297
vn 0 -0.9359776 0.3520594
vn 0 -0.9359776 0.3520594
vn 0 -0.9359776 0.3520594
vn 0 -0.33410704 0.9425351
vn 0 -0.33410704 0.9425351
vn 0 -0.33410704 0.9425351
vn 0 -0.33410722 0.9425351
vn 0 -0.33410722 0.9425351
vn 0 -0.33410722 0.9425351
vn 0 -0.33410722 0.9425351
vn 0 -0.33410722 0.9425351
vn 0 -0.33410722 0.9425351
vn 0 -0.33410722 0.9425351
vn 0 -0.33410722 0.9425351
vn 0 -0.33410722 0.9425351
vn 0 -0.33410722 0.9425351
vn 0 -0.33410722 0.9425351
vn 0 -0.33410722 0.9425351
vn 0 -0.33410722 0.9425351
vn 0 -0.33410722 0.9425351
vn 0 -0.33410722 0.9425351
vn 0 -0.21630327 0.9763263
vn 0 -0.21630327 0.9763263
vn 0 -0.21630327 0.9763263
vn 0 -0.21630326 0.9763263
vn 0 -0.21630326 0.9763263
vn 0 -0.21630326 0.9763263
vn 0 -0.21630327 0.9763263
vn 0 -0.21630327 0.9763263
vn 0 -0.21630327 0.9763263
vn 0 -0.21630324 0.9763262
vn 0 -0.21630324 0.9763262
vn 0 -0.21630324 0.9763262
vn 0 -0.21630326 0.9763262
vn 0 -0.21630326 0.9763262
vn 0 -0.21630326 0.9763262
vn 0 -0.21630324 0.9763262
vn 0 -0.21630324 0.9763262
vn 0 -0.21630324 0.9763262
vn 0.45861384 -0.41719294 -0.78461665
vn 0.45861384 -0.41719294 -0.78461665
vn 0.45861384 -0.41719294 -0.78461665
vn 0.45861396 -0.41719317 -0.7846166
vn 0.45861396 -0.41719317 -0.7846166
vn 0.45861396 -0.41719317 -0.7846166
vn 0.45861384 0.41719294 0.78461665
vn 0.45861384 0.41719294 0.78461665
vn 0.45861384 0.41719294 0.78461665
vn 0.45861396 0.41719317 0.7846166
vn 0.45861396 0.41719317 0.7846166
vn 0.45861396 0.41719317 0.7846166
vn 0 -0.6632359 0.7484104
vn 0 -0.6632359 0.7484104
vn 0 -0.6632359 0.7484104
vn 0 -0.68776447 0.72593385
vn 0 -0.68776447 0.72593385
vn 0 -0.68776447 0.72593385
vn 0 -0.6988425 0.7152755
vn 0 -0.6988425 0.7152755
vn 0 -0.6988425 0.7152755
vn 0 -0.8106915 0.58547366
vn 0 -0.8106915 0.58547366
vn 0 -0.8106915 0.58547366
vn 0.73816156 0.5875558 -0.33150545
vn 0.73816156 0.5875558 -0.33150545
vn 0.73816156 0.5875558 -0.33150545
vn 0.73816156 -0.5875558 0.33150545
vn 0.73816156 -0.5875558 0.33150545
vn 0.73816156 -0.5875558 0.33150545
vn 0 -0.79323536 0.6089152
vn 0 -0.79323536 0.6089152
vn 0 -0.79323536 0.6089152
vn 0 -0.79912394 0.60116637
vn 0 -0.79912394 0.60116637
vn 0 -0.79912394 0.60116637
f 1//1 2//2 3//3
f 4//4 5//5 6//6
f 7//7 8//8 9//9
f 10//10 11//11 12//12
f 13//13 14//14 15//15
f 16//16 17//17 18//18
f 19//19 20//20 21//21
f 22//22 23//23 24//24
f 25//25 26//26 27//27
f 28//28 29//29 30//30
f 31//31 32//32 33//33
f 34//34 35//35 36//36
f 37//37 38//38 39//39
f 40//40 41//41 42//42
f 43//43 44//44 45//45
f 46//46 47//47 48//48
f 49//49 50//50 51//51
f 52//52 53//53 54//54
f 55//55 56//56 57//57
f 58//58 59//59 60//60
f 61//61 62//62 63//63
f 64//64 65//65 66//66
f 67//67 68//68 69//69
f 70//70 71//71 72//72
f 73//73 74//74 75//75
f 76//76 77//77 78//78
f 79//79 80//80 81//81
f 82//82 83//83 84//84
f 85//85 86//86 87//87
f 88//88 89//89 90//90
f 91//91 92//92 93//93
f 94//94 95//95 96//96
f 97//97 98//98 99//99
f 100//100 101//101 102//102
f 103//103 104//104 105//105
f 106//106 107//107 108//108
f 109//109 110//110 111//111
f 112//112 113//113 114//114
f 115//115 116//116 117//117
f 118//118 119//119 120//120
f 121//121 122//122 123//123
f 124//124 125//125 126//126
f 127//127 128//128 129//129
f 130//130 131//131 132//132
f 133//133 134//134 135//135
f 136//136 137//137 138//138
f 139//139 140//140 141//141
f 142//142 143//143 144//144
f 145//145 146//146 147//147
f 148//148 149//149 150//150
f 151//151 152//152 153//153
f 154//154 155//155 156//156
f 157//157 158//158 159//159
f 160//160 161//161 162//162
f 163//163 164//164 165//165
f 166//166 167//167 168//168
f 169//169 170//170 171//171
f 172//172 173//173 174//174
f 175//175 176//176 177//177
f 178//178 179//179 180//180
f 181//181 182//182 183//183
f 184//184 185//185 186//186
f 187//187 188//188 189//189
f 190//190 191//191 192//192
f 193//193 194//194 195//195
f 196//196 197//197 198//198
f 199//199 200//200 201//201
f 202//202 203//203 204//204
f 205//205 206//206 207//207
f 208//208 209//209 210//210
f 211//211 212//212 213//213
f 214//214 215//215 216//216
f 217//217 218//218 219//219
f 220//220 221//221 222//222
f 223//223 224//224 225//225
f 226//226 227//227 228//228
f 229//229 230//230 231//231
f 232//232 233//233 234//234
f 235//235 236//236 237//237
f 238//238 239//239 240//240
f 241//241 242//242 243//243
f 244//244 245//245 246//246
f 247//247 248//248 249//249
f 250//250 251//251 252//252
f 253//253 254//254 255//255
f 256//256 257//257 258//258
f 259//259 260//260 261//261
f 262//262 263//263 264//264
f 265//265 266//266 267//267
f 268//268 269//269 270//270
f 271//271 272//272 273//273
f 274//274 275//275 276//276
f 277//277 278//278 279//279
f 280//280 281//281 282//282
f 283//283 284//284 285//285
f 286//286 287//287 288//288
f 289//289 290//290 291//291
f 292//292 293//293 294//294
f 295//295 296//296 297//297
f 298//298 299//299 300//300
f 301//301 302//302 303//303
f 304//304 305//305 306//306
f 307//307 308//308 309//309
f 310//310 311//311 312//312
f 313//313 314//314 315//315
f 316//316 317//317 318//318
f 319//319 320//320 321//321
f 322//322 323//323 324//324
f 325//325 326//326 327//327
f 328//328 329//329 330//330
f 331//331 332//332 333//333
f 334//334 335//335 336//336
