# Exported from SharpOpenGl procedural mesh
o nexar_destroyer_prototype_55
# vertices 264
v -2.5541267 0.7761875 -3.8155966
v 2.5541267 0.7761875 -3.8155966
v 2.5541267 0.7761875 -3.7355967
v -2.5541267 0.7761875 -3.8155966
v 2.5541267 0.7761875 -3.7355967
v -2.5541267 0.7761875 -3.7355967
v -2.5541267 -0.038809374 -3.8155966
v 2.5541267 -0.038809374 -3.7355967
v 2.5541267 -0.038809374 -3.8155966
v -2.5541267 -0.038809374 -3.8155966
v -2.5541267 -0.038809374 -3.7355967
v 2.5541267 -0.038809374 -3.7355967
v -2.5541267 0.7761875 -3.8155966
v -2.5541267 -0.038809374 -3.8155966
v -2.5541267 0.6597594 -3.8155966
v 2.5541267 0.7761875 -3.8155966
v 2.5541267 -0.038809374 -3.8155966
v 2.5541267 0.6597594 -3.8155966
v -2.5541267 0.7761875 -3.8155966
v -2.5541267 0.7761875 -2.289358
v -2.5541267 0.6597594 -3.5866609
v 2.5541267 0.7761875 -3.8155966
v 2.5541267 0.7761875 -2.289358
v 2.5541267 0.6597594 -3.5866609
v -2.5541267 -0.038809374 -3.8155966
v -2.5541267 -0.038809374 -2.289358
v -2.5541267 -0.032987967 -3.5866609
v 2.5541267 -0.038809374 -3.8155966
v 2.5541267 -0.038809374 -2.289358
v 2.5541267 -0.032987967 -3.5866609
v -2.5541267 0.7761875 -3.8155966
v 2.5541267 -0.038809374 -2.289358
v -2.5541267 0.6597594 -3.5866609
v 2.5541267 0.7761875 -3.8155966
v -2.5541267 -0.038809374 -2.289358
v 2.5541267 0.6597594 -3.5866609
v -2.5541267 0.7761875 -2.289358
v 2.5541267 0.7761875 -2.289358
v 2.5541267 0.7761875 -2.209358
v -2.5541267 0.7761875 -2.289358
v 2.5541267 0.7761875 -2.209358
v -2.5541267 0.7761875 -2.209358
v -2.5541267 -0.038809374 -2.289358
v 2.5541267 -0.038809374 -2.209358
v 2.5541267 -0.038809374 -2.289358
v -2.5541267 -0.038809374 -2.289358
v -2.5541267 -0.038809374 -2.209358
v 2.5541267 -0.038809374 -2.209358
v -2.5541267 0.7761875 -2.289358
v -2.5541267 -0.038809374 -2.289358
v -2.5541267 0.6597594 -2.289358
v 2.5541267 0.7761875 -2.289358
v 2.5541267 -0.038809374 -2.289358
v 2.5541267 0.6597594 -2.289358
v -2.5541267 0.7761875 -2.289358
v -2.5541267 0.7761875 -0.7631192
v -2.5541267 0.6597594 -2.0604222
v 2.5541267 0.7761875 -2.289358
v 2.5541267 0.7761875 -0.7631192
v 2.5541267 0.6597594 -2.0604222
v -2.5541267 -0.038809374 -2.289358
v -2.5541267 -0.038809374 -0.7631192
v -2.5541267 -0.032987967 -2.0604222
v 2.5541267 -0.038809374 -2.289358
v 2.5541267 -0.038809374 -0.7631192
v 2.5541267 -0.032987967 -2.0604222
v -2.5541267 0.7761875 -2.289358
v 2.5541267 -0.038809374 -0.7631192
v -2.5541267 0.6597594 -2.0604222
v 2.5541267 0.7761875 -2.289358
v -2.5541267 -0.038809374 -0.7631192
v 2.5541267 0.6597594 -2.0604222
v -2.5541267 0.7761875 -0.7631192
v 2.5541267 0.7761875 -0.7631192
v 2.5541267 0.7761875 -0.68311924
v -2.5541267 0.7761875 -0.7631192
v 2.5541267 0.7761875 -0.68311924
v -2.5541267 0.7761875 -0.68311924
v -2.5541267 -0.038809374 -0.7631192
v 2.5541267 -0.038809374 -0.68311924
v 2.5541267 -0.038809374 -0.7631192
v -2.5541267 -0.038809374 -0.7631192
v -2.5541267 -0.038809374 -0.68311924
v 2.5541267 -0.038809374 -0.68311924
v -2.5541267 0.7761875 -0.7631192
v -2.5541267 -0.038809374 -0.7631192
v -2.5541267 0.6597594 -0.7631192
v 2.5541267 0.7761875 -0.7631192
v 2.5541267 -0.038809374 -0.7631192
v 2.5541267 0.6597594 -0.7631192
v -2.5541267 0.7761875 -0.7631192
v -2.5541267 0.7761875 0.7631197
v -2.5541267 0.6597594 -0.5341834
v 2.5541267 0.7761875 -0.7631192
v 2.5541267 0.7761875 0.7631197
v 2.5541267 0.6597594 -0.5341834
v -2.5541267 -0.038809374 -0.7631192
v -2.5541267 -0.038809374 0.7631197
v -2.5541267 -0.032987967 -0.5341834
v 2.5541267 -0.038809374 -0.7631192
v 2.5541267 -0.038809374 0.7631197
v 2.5541267 -0.032987967 -0.5341834
v -2.5541267 0.7761875 -0.7631192
v 2.5541267 -0.038809374 0.7631197
v -2.5541267 0.6597594 -0.5341834
v 2.5541267 0.7761875 -0.7631192
v -2.5541267 -0.038809374 0.7631197
v 2.5541267 0.6597594 -0.5341834
v -2.5541267 0.7761875 0.7631197
v 2.5541267 0.7761875 0.7631197
v 2.5541267 0.7761875 0.8431197
v -2.5541267 0.7761875 0.7631197
v 2.5541267 0.7761875 0.8431197
v -2.5541267 0.7761875 0.8431197
v -2.5541267 -0.038809374 0.7631197
v 2.5541267 -0.038809374 0.8431197
v 2.5541267 -0.038809374 0.7631197
v -2.5541267 -0.038809374 0.7631197
v -2.5541267 -0.038809374 0.8431197
v 2.5541267 -0.038809374 0.8431197
v -2.5541267 0.7761875 0.7631197
v -2.5541267 -0.038809374 0.7631197
v -2.5541267 0.6597594 0.7631197
v 2.5541267 0.7761875 0.7631197
v 2.5541267 -0.038809374 0.7631197
v 2.5541267 0.6597594 0.7631197
v -2.5541267 0.7761875 0.7631197
v -2.5541267 0.7761875 2.2893581
v -2.5541267 0.6597594 0.9920555
v 2.5541267 0.7761875 0.7631197
v 2.5541267 0.7761875 2.2893581
v 2.5541267 0.6597594 0.9920555
v -2.5541267 -0.038809374 0.7631197
v -2.5541267 -0.038809374 2.2893581
v -2.5541267 -0.032987967 0.9920555
v 2.5541267 -0.038809374 0.7631197
v 2.5541267 -0.038809374 2.2893581
v 2.5541267 -0.032987967 0.9920555
v -2.5541267 0.7761875 0.7631197
v 2.5541267 -0.038809374 2.2893581
v -2.5541267 0.6597594 0.9920555
v 2.5541267 0.7761875 0.7631197
v -2.5541267 -0.038809374 2.2893581
v 2.5541267 0.6597594 0.9920555
v -2.5541267 0.7761875 2.2893581
v 2.5541267 0.7761875 2.2893581
v 2.5541267 0.7761875 2.369358
v -2.5541267 0.7761875 2.2893581
v 2.5541267 0.7761875 2.369358
v -2.5541267 0.7761875 2.369358
v -2.5541267 -0.038809374 2.2893581
v 2.5541267 -0.038809374 2.369358
v 2.5541267 -0.038809374 2.2893581
v -2.5541267 -0.038809374 2.2893581
v -2.5541267 -0.038809374 2.369358
v 2.5541267 -0.038809374 2.369358
v -2.5541267 0.7761875 2.2893581
v -2.5541267 -0.038809374 2.2893581
v -2.5541267 0.6597594 2.2893581
v 2.5541267 0.7761875 2.2893581
v 2.5541267 -0.038809374 2.2893581
v 2.5541267 0.6597594 2.2893581
v -2.5541267 0.7761875 2.2893581
v -2.5541267 0.7761875 3.8155966
v -2.5541267 0.6597594 2.5182939
v 2.5541267 0.7761875 2.2893581
v 2.5541267 0.7761875 3.8155966
v 2.5541267 0.6597594 2.5182939
v -2.5541267 -0.038809374 2.2893581
v -2.5541267 -0.038809374 3.8155966
v -2.5541267 -0.032987967 2.5182939
v 2.5541267 -0.038809374 2.2893581
v 2.5541267 -0.038809374 3.8155966
v 2.5541267 -0.032987967 2.5182939
v -2.5541267 0.7761875 2.2893581
v 2.5541267 -0.038809374 3.8155966
v -2.5541267 0.6597594 2.5182939
v 2.5541267 0.7761875 2.2893581
v -2.5541267 -0.038809374 3.8155966
v 2.5541267 0.6597594 2.5182939
v -2.5541267 0.7761875 3.8155966
v 2.5541267 0.7761875 3.8155966
v 2.5541267 0.7761875 3.8955965
v -2.5541267 0.7761875 3.8155966
v 2.5541267 0.7761875 3.8955965
v -2.5541267 0.7761875 3.8955965
v -2.5541267 -0.038809374 3.8155966
v 2.5541267 -0.038809374 3.8955965
v 2.5541267 -0.038809374 3.8155966
v -2.5541267 -0.038809374 3.8155966
v -2.5541267 -0.038809374 3.8955965
v 2.5541267 -0.038809374 3.8955965
v -2.5541267 0.7761875 3.8155966
v -2.5541267 -0.038809374 3.8155966
v -2.5541267 0.6597594 3.8155966
v 2.5541267 0.7761875 3.8155966
v 2.5541267 -0.038809374 3.8155966
v 2.5541267 0.6597594 3.8155966
v -2.5541267 0.7761875 -3.2893076
v 2.5541267 0.7761875 3.2893076
v -2.5541267 0.6597594 -2.3025153
v -2.5541267 -0.07761875 -3.2893076
v 2.5541267 -0.07761875 3.2893076
v -2.5541267 -0.065975934 -2.3025153
v -2.5541267 0.7761875 -3.2893076
v -2.5541267 -0.07761875 3.2893076
v -2.5541267 0.6597594 -2.3025153
v 2.5541267 0.7761875 -3.2893076
v 2.5541267 -0.07761875 3.2893076
v 2.5541267 0.6597594 -2.3025153
v -0.5619079 -0.015523749 -0.5262892
v 0.5619079 -0.015523749 -0.5262892
v 0.5619079 0.34928435 -0.5262892
v -0.5619079 -0.015523749 -0.5262892
v 0.5619079 0.34928435 -0.5262892
v -0.5619079 0.34928435 -0.5262892
v -0.5619079 -0.015523749 0.7894338
v 0.5619079 0.34928435 0.7894338
v 0.5619079 -0.015523749 0.7894338
v -0.5619079 -0.015523749 0.7894338
v -0.5619079 0.34928435 0.7894338
v 0.5619079 0.34928435 0.7894338
v -0.5619079 -0.015523749 -0.5262892
v -0.5619079 -0.015523749 0.7894338
v 0.5619079 -0.015523749 0.7894338
v -0.5619079 -0.015523749 -0.5262892
v 0.5619079 -0.015523749 0.7894338
v 0.5619079 -0.015523749 -0.5262892
v -0.5619079 0.34928435 -0.5262892
v 0.5619079 0.34928435 0.7894338
v -0.5619079 0.34928435 0.7894338
v -0.5619079 0.34928435 -0.5262892
v 0.5619079 0.34928435 -0.5262892
v 0.5619079 0.34928435 0.7894338
v -0.5619079 -0.015523749 -0.5262892
v -0.5619079 0.34928435 -0.5262892
v -0.5619079 0.34928435 0.7894338
v -0.5619079 -0.015523749 -0.5262892
v -0.5619079 0.34928435 0.7894338
v -0.5619079 -0.015523749 0.7894338
v 0.5619079 -0.015523749 -0.5262892
v 0.5619079 -0.015523749 0.7894338
v 0.5619079 0.34928435 0.7894338
v 0.5619079 -0.015523749 -0.5262892
v 0.5619079 0.34928435 0.7894338
v 0.5619079 0.34928435 -0.5262892
v 1.4047698 0.6985687 2.3025153
v -0.51082534 0.23285626 -1.6446538
v 1.4047698 0.59378344 1.7104399
v -0.8428619 0.38809374 2.9603767
v 0.76623803 -0.038809374 -2.3025153
v -0.8428619 0.3298797 2.170943
v -1.7302148 0.08624305 -4.0787416
v -2.3481488 0 -5.438196
v -1.112281 0 -5.438196
v -0.5767383 0.08624305 -4.0787416
v -1.1946721 0 -5.438196
v 0.04119557 0 -5.438196
v 0.5767383 0.08624305 -4.0787416
v -0.04119557 0 -5.438196
v 1.1946721 0 -5.438196
v 1.7302148 0.08624305 -4.0787416
v 1.112281 0 -5.438196
v 2.3481488 0 -5.438196
vn 0 -1 0
vn 0 -1 0
vn 0 -1 0
vn 0 -1 0
vn 0 -1 0
vn 0 -1 0
vn 0 1 0
vn 0 1 0
vn 0 1 0
vn 0 1 0
vn 0 1 0
vn 0 1 0
vn 0 1 0
vn 0 1 0
vn 0 1 0
vn 0 1 0
vn 0 1 0
vn 0 1 0
vn 1 0 -0
vn 1 0 -0
vn 1 0 -0
vn 1 0 -0
vn 1 0 -0
vn 1 0 -0
vn -1 0 0
vn -1 0 0
vn -1 0 0
vn -1 0 0
vn -1 0 0
vn -1 0 0
vn -0.0067717973 -0.89133304 -0.4532984
vn -0.0067717973 -0.89133304 -0.4532984
vn -0.0067717973 -0.89133304 -0.4532984
vn -0.0067717973 0.89133304 0.4532984
vn -0.0067717973 0.89133304 0.4532984
vn -0.0067717973 0.89133304 0.4532984
vn 0 -1 0
vn 0 -1 0
vn 0 -1 0
vn 0 -1 0
vn 0 -1 0
vn 0 -1 0
vn 0 1 0
vn 0 1 0
vn 0 1 0
vn 0 1 0
vn 0 1 0
vn 0 1 0
vn 0 1 0
vn 0 1 0
vn 0 1 0
vn 0 1 0
vn 0 1 0
vn 0 1 0
vn 1 0 -0
vn 1 0 -0
vn 1 0 -0
vn 1 0 -0
vn 1 0 -0
vn 1 0 -0
vn -1 0 0
vn -1 0 0
vn -1 0 0
vn -1 0 0
vn -1 0 0
vn -1 0 0
vn -0.0067717973 -0.89133304 -0.4532984
vn -0.0067717973 -0.89133304 -0.4532984
vn -0.0067717973 -0.89133304 -0.4532984
vn -0.0067717973 0.89133304 0.4532984
vn -0.0067717973 0.89133304 0.4532984
vn -0.0067717973 0.89133304 0.4532984
vn 0 -1 0
vn 0 -1 0
vn 0 -1 0
vn 0 -1 0
vn 0 -1 0
vn 0 -1 0
vn 0 1 0
vn 0 1 0
vn 0 1 0
vn 0 1 0
vn 0 1 0
vn 0 1 0
vn 0 1 0
vn 0 1 0
vn 0 1 0
vn 0 1 0
vn 0 1 0
vn 0 1 0
vn 1 0 -0
vn 1 0 -0
vn 1 0 -0
vn 1 0 -0
vn 1 0 -0
vn 1 0 -0
vn -1 0 0
vn -1 0 0
vn -1 0 0
vn -1 0 0
vn -1 0 0
vn -1 0 0
vn -0.006771852 -0.89133316 -0.4532982
vn -0.006771852 -0.89133316 -0.4532982
vn -0.006771852 -0.89133316 -0.4532982
vn -0.006771852 0.89133316 0.4532982
vn -0.006771852 0.89133316 0.4532982
vn -0.006771852 0.89133316 0.4532982
vn 0 -1 0
vn 0 -1 0
vn 0 -1 0
vn 0 -1 0
vn 0 -1 0
vn 0 -1 0
vn 0 1 0
vn 0 1 0
vn 0 1 0
vn 0 1 0
vn 0 1 0
vn 0 1 0
vn 0 1 0
vn 0 1 0
vn 0 1 0
vn 0 1 0
vn 0 1 0
vn 0 1 0
vn 1 0 -0
vn 1 0 -0
vn 1 0 -0
vn 1 0 -0
vn 1 0 -0
vn 1 0 -0
vn -1 0 0
vn -1 0 0
vn -1 0 0
vn -1 0 0
vn -1 0 0
vn -1 0 0
vn -0.0067718653 -0.89133316 -0.45329836
vn -0.0067718653 -0.89133316 -0.45329836
vn -0.0067718653 -0.89133316 -0.45329836
vn -0.0067718653 0.89133316 0.45329836
vn -0.0067718653 0.89133316 0.45329836
vn -0.0067718653 0.89133316 0.45329836
vn 0 -1 0
vn 0 -1 0
vn 0 -1 0
vn 0 -1 0
vn 0 -1 0
vn 0 -1 0
vn 0 1 0
vn 0 1 0
vn 0 1 0
vn 0 1 0
vn 0 1 0
vn 0 1 0
vn 0 1 0
vn 0 1 0
vn 0 1 0
vn 0 1 0
vn 0 1 0
vn 0 1 0
vn 1 0 -0
vn 1 0 -0
vn 1 0 -0
vn 1 0 -0
vn 1 0 -0
vn 1 0 -0
vn -1 0 0
vn -1 0 0
vn -1 0 0
vn -1 0 0
vn -1 0 0
vn -1 0 0
vn -0.00677182 -0.89133304 -0.4532984
vn -0.00677182 -0.89133304 -0.4532984
vn -0.00677182 -0.89133304 -0.4532984
vn -0.00677182 0.89133304 0.4532984
vn -0.00677182 0.89133304 0.4532984
vn -0.00677182 0.89133304 0.4532984
vn 0 -1 0
vn 0 -1 0
vn 0 -1 0
vn 0 -1 0
vn 0 -1 0
vn 0 -1 0
vn 0 1 0
vn 0 1 0
vn 0 1 0
vn 0 1 0
vn 0 1 0
vn 0 1 0
vn 0 1 0
vn 0 1 0
vn 0 1 0
vn 0 1 0
vn 0 1 0
vn 0 1 0
vn 0.14921166 -0.98199385 -0.11586192
vn 0.14921166 -0.98199385 -0.11586192
vn 0.14921166 -0.98199385 -0.11586192
vn -0.015191964 -0.99981505 0.011796464
vn -0.015191964 -0.99981505 0.011796464
vn -0.015191964 -0.99981505 0.011796464
vn -1 0 0
vn -1 0 0
vn -1 0 0
vn -1 0 0
vn -1 0 0
vn -1 0 0
vn 0 0 1
vn 0 0 1
vn 0 0 1
vn 0 0 1
vn 0 0 1
vn 0 0 1
vn 0 0 -1
vn 0 0 -1
vn 0 0 -1
vn 0 0 -1
vn 0 0 -1
vn 0 0 -1
vn 0 0.99999994 0
vn 0 0.99999994 0
vn 0 0.99999994 0
vn 0 0.99999994 0
vn 0 0.99999994 0
vn 0 0.99999994 0
vn 0 -0.99999994 0
vn 0 -0.99999994 0
vn 0 -0.99999994 0
vn 0 -0.99999994 0
vn 0 -0.99999994 0
vn 0 -0.99999994 0
vn 1 0 0
vn 1 0 0
vn 1 0 0
vn 1 0 0
vn 1 0 0
vn 1 0 0
vn -1 0 0
vn -1 0 0
vn -1 0 0
vn -1 0 0
vn -1 0 0
vn -1 0 0
vn -0.11884955 -0.97771835 0.17303622
vn -0.11884955 -0.97771835 0.17303622
vn -0.11884955 -0.97771835 0.17303622
vn 0.024046503 0.99700385 -0.07352057
vn 0.024046503 0.99700385 -0.07352057
vn 0.024046503 0.99700385 -0.07352057
vn 0 -0.9979938 0.06331217
vn 0 -0.9979938 0.06331217
vn 0 -0.9979938 0.06331217
vn 0 -0.99799377 0.06331217
vn 0 -0.99799377 0.06331217
vn 0 -0.99799377 0.06331217
vn 0 -0.99799377 0.06331217
vn 0 -0.99799377 0.06331217
vn 0 -0.99799377 0.06331217
vn 0 -0.9979938 0.06331217
vn 0 -0.9979938 0.06331217
vn 0 -0.9979938 0.06331217
f 1//1 2//2 3//3
f 4//4 5//5 6//6
f 7//7 8//8 9//9
f 10//10 11//11 12//12
f 13//13 14//14 15//15
f 16//16 17//17 18//18
f 19//19 20//20 21//21
f 22//22 23//23 24//24
f 25//25 26//26 27//27
f 28//28 29//29 30//30
f 31//31 32//32 33//33
f 34//34 35//35 36//36
f 37//37 38//38 39//39
f 40//40 41//41 42//42
f 43//43 44//44 45//45
f 46//46 47//47 48//48
f 49//49 50//50 51//51
f 52//52 53//53 54//54
f 55//55 56//56 57//57
f 58//58 59//59 60//60
f 61//61 62//62 63//63
f 64//64 65//65 66//66
f 67//67 68//68 69//69
f 70//70 71//71 72//72
f 73//73 74//74 75//75
f 76//76 77//77 78//78
f 79//79 80//80 81//81
f 82//82 83//83 84//84
f 85//85 86//86 87//87
f 88//88 89//89 90//90
f 91//91 92//92 93//93
f 94//94 95//95 96//96
f 97//97 98//98 99//99
f 100//100 101//101 102//102
f 103//103 104//104 105//105
f 106//106 107//107 108//108
f 109//109 110//110 111//111
f 112//112 113//113 114//114
f 115//115 116//116 117//117
f 118//118 119//119 120//120
f 121//121 122//122 123//123
f 124//124 125//125 126//126
f 127//127 128//128 129//129
f 130//130 131//131 132//132
f 133//133 134//134 135//135
f 136//136 137//137 138//138
f 139//139 140//140 141//141
f 142//142 143//143 144//144
f 145//145 146//146 147//147
f 148//148 149//149 150//150
f 151//151 152//152 153//153
f 154//154 155//155 156//156
f 157//157 158//158 159//159
f 160//160 161//161 162//162
f 163//163 164//164 165//165
f 166//166 167//167 168//168
f 169//169 170//170 171//171
f 172//172 173//173 174//174
f 175//175 176//176 177//177
f 178//178 179//179 180//180
f 181//181 182//182 183//183
f 184//184 185//185 186//186
f 187//187 188//188 189//189
f 190//190 191//191 192//192
f 193//193 194//194 195//195
f 196//196 197//197 198//198
f 199//199 200//200 201//201
f 202//202 203//203 204//204
f 205//205 206//206 207//207
f 208//208 209//209 210//210
f 211//211 212//212 213//213
f 214//214 215//215 216//216
f 217//217 218//218 219//219
f 220//220 221//221 222//222
f 223//223 224//224 225//225
f 226//226 227//227 228//228
f 229//229 230//230 231//231
f 232//232 233//233 234//234
f 235//235 236//236 237//237
f 238//238 239//239 240//240
f 241//241 242//242 243//243
f 244//244 245//245 246//246
f 247//247 248//248 249//249
f 250//250 251//251 252//252
f 253//253 254//254 255//255
f 256//256 257//257 258//258
f 259//259 260//260 261//261
f 262//262 263//263 264//264
