# Exported from SharpOpenGl procedural mesh
o nexar_hero_mk3_50
# vertices 264
v -1.8945342 0.6966588 -2.7659342
v 1.8945342 0.6966588 -2.7659342
v 1.8945342 0.6966588 -2.6859343
v -1.8945342 0.6966588 -2.7659342
v 1.8945342 0.6966588 -2.6859343
v -1.8945342 0.6966588 -2.6859343
v -1.8945342 -0.03483294 -2.7659342
v 1.8945342 -0.03483294 -2.6859343
v 1.8945342 -0.03483294 -2.7659342
v -1.8945342 -0.03483294 -2.7659342
v -1.8945342 -0.03483294 -2.6859343
v 1.8945342 -0.03483294 -2.6859343
v -1.8945342 0.6966588 -2.7659342
v -1.8945342 -0.03483294 -2.7659342
v -1.8945342 0.59216 -2.7659342
v 1.8945342 0.6966588 -2.7659342
v 1.8945342 -0.03483294 -2.7659342
v 1.8945342 0.59216 -2.7659342
v -1.8945342 0.6966588 -2.7659342
v -1.8945342 0.6966588 -1.6595606
v -1.8945342 0.59216 -2.5999782
v 1.8945342 0.6966588 -2.7659342
v 1.8945342 0.6966588 -1.6595606
v 1.8945342 0.59216 -2.5999782
v -1.8945342 -0.03483294 -2.7659342
v -1.8945342 -0.03483294 -1.6595606
v -1.8945342 -0.029608 -2.5999782
v 1.8945342 -0.03483294 -2.7659342
v 1.8945342 -0.03483294 -1.6595606
v 1.8945342 -0.029608 -2.5999782
v -1.8945342 0.6966588 -2.7659342
v 1.8945342 -0.03483294 -1.6595606
v -1.8945342 0.59216 -2.5999782
v 1.8945342 0.6966588 -2.7659342
v -1.8945342 -0.03483294 -1.6595606
v 1.8945342 0.59216 -2.5999782
v -1.8945342 0.6966588 -1.6595606
v 1.8945342 0.6966588 -1.6595606
v 1.8945342 0.6966588 -1.5795605
v -1.8945342 0.6966588 -1.6595606
v 1.8945342 0.6966588 -1.5795605
v -1.8945342 0.6966588 -1.5795605
v -1.8945342 -0.03483294 -1.6595606
v 1.8945342 -0.03483294 -1.5795605
v 1.8945342 -0.03483294 -1.6595606
v -1.8945342 -0.03483294 -1.6595606
v -1.8945342 -0.03483294 -1.5795605
v 1.8945342 -0.03483294 -1.5795605
v -1.8945342 0.6966588 -1.6595606
v -1.8945342 -0.03483294 -1.6595606
v -1.8945342 0.59216 -1.6595606
v 1.8945342 0.6966588 -1.6595606
v 1.8945342 -0.03483294 -1.6595606
v 1.8945342 0.59216 -1.6595606
v -1.8945342 0.6966588 -1.6595606
v -1.8945342 0.6966588 -0.5531869
v -1.8945342 0.59216 -1.4936045
v 1.8945342 0.6966588 -1.6595606
v 1.8945342 0.6966588 -0.5531869
v 1.8945342 0.59216 -1.4936045
v -1.8945342 -0.03483294 -1.6595606
v -1.8945342 -0.03483294 -0.5531869
v -1.8945342 -0.029608 -1.4936045
v 1.8945342 -0.03483294 -1.6595606
v 1.8945342 -0.03483294 -0.5531869
v 1.8945342 -0.029608 -1.4936045
v -1.8945342 0.6966588 -1.6595606
v 1.8945342 -0.03483294 -0.5531869
v -1.8945342 0.59216 -1.4936045
v 1.8945342 0.6966588 -1.6595606
v -1.8945342 -0.03483294 -0.5531869
v 1.8945342 0.59216 -1.4936045
v -1.8945342 0.6966588 -0.5531869
v 1.8945342 0.6966588 -0.5531869
v 1.8945342 0.6966588 -0.4731869
v -1.8945342 0.6966588 -0.5531869
v 1.8945342 0.6966588 -0.4731869
v -1.8945342 0.6966588 -0.4731869
v -1.8945342 -0.03483294 -0.5531869
v 1.8945342 -0.03483294 -0.4731869
v 1.8945342 -0.03483294 -0.5531869
v -1.8945342 -0.03483294 -0.5531869
v -1.8945342 -0.03483294 -0.4731869
v 1.8945342 -0.03483294 -0.4731869
v -1.8945342 0.6966588 -0.5531869
v -1.8945342 -0.03483294 -0.5531869
v -1.8945342 0.59216 -0.5531869
v 1.8945342 0.6966588 -0.5531869
v 1.8945342 -0.03483294 -0.5531869
v 1.8945342 0.59216 -0.5531869
v -1.8945342 0.6966588 -0.5531869
v -1.8945342 0.6966588 0.5531869
v -1.8945342 0.59216 -0.3872308
v 1.8945342 0.6966588 -0.5531869
v 1.8945342 0.6966588 0.5531869
v 1.8945342 0.59216 -0.3872308
v -1.8945342 -0.03483294 -0.5531869
v -1.8945342 -0.03483294 0.5531869
v -1.8945342 -0.029608 -0.3872308
v 1.8945342 -0.03483294 -0.5531869
v 1.8945342 -0.03483294 0.5531869
v 1.8945342 -0.029608 -0.3872308
v -1.8945342 0.6966588 -0.5531869
v 1.8945342 -0.03483294 0.5531869
v -1.8945342 0.59216 -0.3872308
v 1.8945342 0.6966588 -0.5531869
v -1.8945342 -0.03483294 0.5531869
v 1.8945342 0.59216 -0.3872308
v -1.8945342 0.6966588 0.5531869
v 1.8945342 0.6966588 0.5531869
v 1.8945342 0.6966588 0.6331869
v -1.8945342 0.6966588 0.5531869
v 1.8945342 0.6966588 0.6331869
v -1.8945342 0.6966588 0.6331869
v -1.8945342 -0.03483294 0.5531869
v 1.8945342 -0.03483294 0.6331869
v 1.8945342 -0.03483294 0.5531869
v -1.8945342 -0.03483294 0.5531869
v -1.8945342 -0.03483294 0.6331869
v 1.8945342 -0.03483294 0.6331869
v -1.8945342 0.6966588 0.5531869
v -1.8945342 -0.03483294 0.5531869
v -1.8945342 0.59216 0.5531869
v 1.8945342 0.6966588 0.5531869
v 1.8945342 -0.03483294 0.5531869
v 1.8945342 0.59216 0.5531869
v -1.8945342 0.6966588 0.5531869
v -1.8945342 0.6966588 1.6595604
v -1.8945342 0.59216 0.7191429
v 1.8945342 0.6966588 0.5531869
v 1.8945342 0.6966588 1.6595604
v 1.8945342 0.59216 0.7191429
v -1.8945342 -0.03483294 0.5531869
v -1.8945342 -0.03483294 1.6595604
v -1.8945342 -0.029608 0.7191429
v 1.8945342 -0.03483294 0.5531869
v 1.8945342 -0.03483294 1.6595604
v 1.8945342 -0.029608 0.7191429
v -1.8945342 0.6966588 0.5531869
v 1.8945342 -0.03483294 1.6595604
v -1.8945342 0.59216 0.7191429
v 1.8945342 0.6966588 0.5531869
v -1.8945342 -0.03483294 1.6595604
v 1.8945342 0.59216 0.7191429
v -1.8945342 0.6966588 1.6595604
v 1.8945342 0.6966588 1.6595604
v 1.8945342 0.6966588 1.7395605
v -1.8945342 0.6966588 1.6595604
v 1.8945342 0.6966588 1.7395605
v -1.8945342 0.6966588 1.7395605
v -1.8945342 -0.03483294 1.6595604
v 1.8945342 -0.03483294 1.7395605
v 1.8945342 -0.03483294 1.6595604
v -1.8945342 -0.03483294 1.6595604
v -1.8945342 -0.03483294 1.7395605
v 1.8945342 -0.03483294 1.7395605
v -1.8945342 0.6966588 1.6595604
v -1.8945342 -0.03483294 1.6595604
v -1.8945342 0.59216 1.6595604
v 1.8945342 0.6966588 1.6595604
v 1.8945342 -0.03483294 1.6595604
v 1.8945342 0.59216 1.6595604
v -1.8945342 0.6966588 1.6595604
v -1.8945342 0.6966588 2.7659342
v -1.8945342 0.59216 1.8255165
v 1.8945342 0.6966588 1.6595604
v 1.8945342 0.6966588 2.7659342
v 1.8945342 0.59216 1.8255165
v -1.8945342 -0.03483294 1.6595604
v -1.8945342 -0.03483294 2.7659342
v -1.8945342 -0.029608 1.8255165
v 1.8945342 -0.03483294 1.6595604
v 1.8945342 -0.03483294 2.7659342
v 1.8945342 -0.029608 1.8255165
v -1.8945342 0.6966588 1.6595604
v 1.8945342 -0.03483294 2.7659342
v -1.8945342 0.59216 1.8255165
v 1.8945342 0.6966588 1.6595604
v -1.8945342 -0.03483294 2.7659342
v 1.8945342 0.59216 1.8255165
v -1.8945342 0.6966588 2.7659342
v 1.8945342 0.6966588 2.7659342
v 1.8945342 0.6966588 2.8459342
v -1.8945342 0.6966588 2.7659342
v 1.8945342 0.6966588 2.8459342
v -1.8945342 0.6966588 2.8459342
v -1.8945342 -0.03483294 2.7659342
v 1.8945342 -0.03483294 2.8459342
v 1.8945342 -0.03483294 2.7659342
v -1.8945342 -0.03483294 2.7659342
v -1.8945342 -0.03483294 2.8459342
v 1.8945342 -0.03483294 2.8459342
v -1.8945342 0.6966588 2.7659342
v -1.8945342 -0.03483294 2.7659342
v -1.8945342 0.59216 2.7659342
v 1.8945342 0.6966588 2.7659342
v 1.8945342 -0.03483294 2.7659342
v 1.8945342 0.59216 2.7659342
v -1.8945342 0.6966588 -2.384426
v 1.8945342 0.6966588 2.384426
v -1.8945342 0.59216 -1.6690983
v -1.8945342 -0.06966588 -2.384426
v 1.8945342 -0.06966588 2.384426
v -1.8945342 -0.059216 -1.6690983
v -1.8945342 0.6966588 -2.384426
v -1.8945342 -0.06966588 2.384426
v -1.8945342 0.59216 -1.6690983
v 1.8945342 0.6966588 -2.384426
v 1.8945342 -0.06966588 2.384426
v 1.8945342 0.59216 -1.6690983
v -0.41679752 -0.013933175 -0.38150817
v 0.41679752 -0.013933175 -0.38150817
v 0.41679752 0.31349644 -0.38150817
v -0.41679752 -0.013933175 -0.38150817
v 0.41679752 0.31349644 -0.38150817
v -0.41679752 0.31349644 -0.38150817
v -0.41679752 -0.013933175 0.5722622
v 0.41679752 0.31349644 0.5722622
v 0.41679752 -0.013933175 0.5722622
v -0.41679752 -0.013933175 0.5722622
v -0.41679752 0.31349644 0.5722622
v 0.41679752 0.31349644 0.5722622
v -0.41679752 -0.013933175 -0.38150817
v -0.41679752 -0.013933175 0.5722622
v 0.41679752 -0.013933175 0.5722622
v -0.41679752 -0.013933175 -0.38150817
v 0.41679752 -0.013933175 0.5722622
v 0.41679752 -0.013933175 -0.38150817
v -0.41679752 0.31349644 -0.38150817
v 0.41679752 0.31349644 0.5722622
v -0.41679752 0.31349644 0.5722622
v -0.41679752 0.31349644 -0.38150817
v 0.41679752 0.31349644 -0.38150817
v 0.41679752 0.31349644 0.5722622
v -0.41679752 -0.013933175 -0.38150817
v -0.41679752 0.31349644 -0.38150817
v -0.41679752 0.31349644 0.5722622
v -0.41679752 -0.013933175 -0.38150817
v -0.41679752 0.31349644 0.5722622
v -0.41679752 -0.013933175 0.5722622
v 0.41679752 -0.013933175 -0.38150817
v 0.41679752 -0.013933175 0.5722622
v 0.41679752 0.31349644 0.5722622
v 0.41679752 -0.013933175 -0.38150817
v 0.41679752 0.31349644 0.5722622
v 0.41679752 0.31349644 -0.38150817
v 1.0419939 0.6269929 1.6690983
v -0.37890685 0.20899765 -1.192213
v 1.0419939 0.53294396 1.2399015
v -0.62519634 0.3483294 2.1459835
v 0.56836027 -0.03483294 -1.6690983
v -0.62519634 0.29608 1.5737212
v -1.2833941 0.077406526 -2.9566884
v -1.7234149 0 -3.924734
v -0.8433733 0 -3.924734
v -0.42779803 0.077406526 -2.9566884
v -0.86781883 0 -3.924734
v 0.012222797 0 -3.924734
v 0.42779803 0.077406526 -2.9566884
v -0.012222797 0 -3.924734
v 0.86781883 0 -3.924734
v 1.2833941 0.077406526 -2.9566884
v 0.8433733 0 -3.924734
v 1.7234149 0 -3.924734
vn 0 -1 0
vn 0 -1 0
vn 0 -1 0
vn 0 -1 0
vn 0 -1 0
vn 0 -1 0
vn 0 1 0
vn 0 1 0
vn 0 1 0
vn 0 1 0
vn 0 1 0
vn 0 1 0
vn 0 1 0
vn 0 1 0
vn 0 1 0
vn 0 1 0
vn 0 1 0
vn 0 1 0
vn 1 0 -0
vn 1 0 -0
vn 1 0 -0
vn 1 0 -0
vn 1 0 -0
vn 1 0 -0
vn -1 0 0
vn -1 0 0
vn -1 0 0
vn -1 0 0
vn -1 0 0
vn -1 0 0
vn -0.007779019 -0.8461889 -0.53282624
vn -0.007779019 -0.8461889 -0.53282624
vn -0.007779019 -0.8461889 -0.53282624
vn -0.007779019 0.8461889 0.53282624
vn -0.007779019 0.8461889 0.53282624
vn -0.007779019 0.8461889 0.53282624
vn 0 -1 0
vn 0 -1 0
vn 0 -1 0
vn 0 -1 0
vn 0 -1 0
vn 0 -1 0
vn 0 1 0
vn 0 1 0
vn 0 1 0
vn 0 1 0
vn 0 1 0
vn 0 1 0
vn 0 1 0
vn 0 1 0
vn 0 1 0
vn 0 1 0
vn 0 1 0
vn 0 1 0
vn 1 0 -0
vn 1 0 -0
vn 1 0 -0
vn 1 0 -0
vn 1 0 -0
vn 1 0 -0
vn -1 0 0
vn -1 0 0
vn -1 0 0
vn -1 0 0
vn -1 0 0
vn -1 0 0
vn -0.007779019 -0.8461889 -0.53282624
vn -0.007779019 -0.8461889 -0.53282624
vn -0.007779019 -0.8461889 -0.53282624
vn -0.007779019 0.8461889 0.53282624
vn -0.007779019 0.8461889 0.53282624
vn -0.007779019 0.8461889 0.53282624
vn 0 -1 0
vn 0 -1 0
vn 0 -1 0
vn 0 -1 0
vn 0 -1 0
vn 0 -1 0
vn 0 1 0
vn 0 1 0
vn 0 1 0
vn 0 1 0
vn 0 1 0
vn 0 1 0
vn 0 1 0
vn 0 1 0
vn 0 1 0
vn 0 1 0
vn 0 1 0
vn 0 1 0
vn 1 0 -0
vn 1 0 -0
vn 1 0 -0
vn 1 0 -0
vn 1 0 -0
vn 1 0 -0
vn -1 0 0
vn -1 0 0
vn -1 0 0
vn -1 0 0
vn -1 0 0
vn -1 0 0
vn -0.007779068 -0.84618896 -0.5328261
vn -0.007779068 -0.84618896 -0.5328261
vn -0.007779068 -0.84618896 -0.5328261
vn -0.007779068 0.84618896 0.5328261
vn -0.007779068 0.84618896 0.5328261
vn -0.007779068 0.84618896 0.5328261
vn 0 -1 0
vn 0 -1 0
vn 0 -1 0
vn 0 -1 0
vn 0 -1 0
vn 0 -1 0
vn 0 1 0
vn 0 1 0
vn 0 1 0
vn 0 1 0
vn 0 1 0
vn 0 1 0
vn 0 1 0
vn 0 1 0
vn 0 1 0
vn 0 1 0
vn 0 1 0
vn 0 1 0
vn 0.99999994 0 -0
vn 0.99999994 0 -0
vn 0.99999994 0 -0
vn 0.99999994 0 -0
vn 0.99999994 0 -0
vn 0.99999994 0 -0
vn -0.99999994 0 0
vn -0.99999994 0 0
vn -0.99999994 0 0
vn -0.99999994 0 0
vn -0.99999994 0 0
vn -0.99999994 0 0
vn -0.007779039 -0.8461889 -0.53282624
vn -0.007779039 -0.8461889 -0.53282624
vn -0.007779039 -0.8461889 -0.53282624
vn -0.007779039 0.8461889 0.53282624
vn -0.007779039 0.8461889 0.53282624
vn -0.007779039 0.8461889 0.53282624
vn 0 -1 0
vn 0 -1 0
vn 0 -1 0
vn 0 -1 0
vn 0 -1 0
vn 0 -1 0
vn 0 1 0
vn 0 1 0
vn 0 1 0
vn 0 1 0
vn 0 1 0
vn 0 1 0
vn 0 1 0
vn 0 1 0
vn 0 1 0
vn 0 1 0
vn 0 1 0
vn 0 1 0
vn 1 0 -0
vn 1 0 -0
vn 1 0 -0
vn 1 0 -0
vn 1 0 -0
vn 1 0 -0
vn -1 0 0
vn -1 0 0
vn -1 0 0
vn -1 0 0
vn -1 0 0
vn -1 0 0
vn -0.007779009 -0.8461889 -0.53282624
vn -0.007779009 -0.8461889 -0.53282624
vn -0.007779009 -0.8461889 -0.53282624
vn -0.007779009 0.8461889 0.53282624
vn -0.007779009 0.8461889 0.53282624
vn -0.007779009 0.8461889 0.53282624
vn 0 -1 0
vn 0 -1 0
vn 0 -1 0
vn 0 -1 0
vn 0 -1 0
vn 0 -1 0
vn 0 1 0
vn 0 1 0
vn 0 1 0
vn 0 1 0
vn 0 1 0
vn 0 1 0
vn 0 1 0
vn 0 1 0
vn 0 1 0
vn 0 1 0
vn 0 1 0
vn 0 1 0
vn 0.1789911 -0.9735177 -0.1422165
vn 0.1789911 -0.9735177 -0.1422165
vn 0.1789911 -0.9735177 -0.1422165
vn -0.018380944 -0.9997244 0.01460449
vn -0.018380944 -0.9997244 0.01460449
vn -0.018380944 -0.9997244 0.01460449
vn -1 0 0
vn -1 0 0
vn -1 0 0
vn -1 0 0
vn -1 0 0
vn -1 0 0
vn 0 0 1
vn 0 0 1
vn 0 0 1
vn 0 0 1
vn 0 0 1
vn 0 0 1
vn 0 0 -1
vn 0 0 -1
vn 0 0 -1
vn 0 0 -1
vn 0 0 -1
vn 0 0 -1
vn 0 1 0
vn 0 1 0
vn 0 1 0
vn 0 1 0
vn 0 1 0
vn 0 1 0
vn 0 -1 0
vn 0 -1 0
vn 0 -1 0
vn 0 -1 0
vn 0 -1 0
vn 0 -1 0
vn 1 0 0
vn 1 0 0
vn 1 0 0
vn 1 0 0
vn 1 0 0
vn 1 0 0
vn -1 0 0
vn -1 0 0
vn -1 0 0
vn -1 0 0
vn -1 0 0
vn -1 0 0
vn -0.14221855 -0.96689385 0.2118733
vn -0.14221855 -0.96689385 0.2118733
vn -0.14221855 -0.96689385 0.2118733
vn 0.029051071 0.9954374 -0.09088666
vn 0.029051071 0.9954374 -0.09088666
vn 0.029051071 0.9954374 -0.09088666
vn 0 -0.9968183 0.079707235
vn 0 -0.9968183 0.079707235
vn 0 -0.9968183 0.079707235
vn 0 -0.9968183 0.079707235
vn 0 -0.9968183 0.079707235
vn 0 -0.9968183 0.079707235
vn 0 -0.9968183 0.079707235
vn 0 -0.9968183 0.079707235
vn 0 -0.9968183 0.079707235
vn 0 -0.9968183 0.079707235
vn 0 -0.9968183 0.079707235
vn 0 -0.9968183 0.079707235
f 1//1 2//2 3//3
f 4//4 5//5 6//6
f 7//7 8//8 9//9
f 10//10 11//11 12//12
f 13//13 14//14 15//15
f 16//16 17//17 18//18
f 19//19 20//20 21//21
f 22//22 23//23 24//24
f 25//25 26//26 27//27
f 28//28 29//29 30//30
f 31//31 32//32 33//33
f 34//34 35//35 36//36
f 37//37 38//38 39//39
f 40//40 41//41 42//42
f 43//43 44//44 45//45
f 46//46 47//47 48//48
f 49//49 50//50 51//51
f 52//52 53//53 54//54
f 55//55 56//56 57//57
f 58//58 59//59 60//60
f 61//61 62//62 63//63
f 64//64 65//65 66//66
f 67//67 68//68 69//69
f 70//70 71//71 72//72
f 73//73 74//74 75//75
f 76//76 77//77 78//78
f 79//79 80//80 81//81
f 82//82 83//83 84//84
f 85//85 86//86 87//87
f 88//88 89//89 90//90
f 91//91 92//92 93//93
f 94//94 95//95 96//96
f 97//97 98//98 99//99
f 100//100 101//101 102//102
f 103//103 104//104 105//105
f 106//106 107//107 108//108
f 109//109 110//110 111//111
f 112//112 113//113 114//114
f 115//115 116//116 117//117
f 118//118 119//119 120//120
f 121//121 122//122 123//123
f 124//124 125//125 126//126
f 127//127 128//128 129//129
f 130//130 131//131 132//132
f 133//133 134//134 135//135
f 136//136 137//137 138//138
f 139//139 140//140 141//141
f 142//142 143//143 144//144
f 145//145 146//146 147//147
f 148//148 149//149 150//150
f 151//151 152//152 153//153
f 154//154 155//155 156//156
f 157//157 158//158 159//159
f 160//160 161//161 162//162
f 163//163 164//164 165//165
f 166//166 167//167 168//168
f 169//169 170//170 171//171
f 172//172 173//173 174//174
f 175//175 176//176 177//177
f 178//178 179//179 180//180
f 181//181 182//182 183//183
f 184//184 185//185 186//186
f 187//187 188//188 189//189
f 190//190 191//191 192//192
f 193//193 194//194 195//195
f 196//196 197//197 198//198
f 199//199 200//200 201//201
f 202//202 203//203 204//204
f 205//205 206//206 207//207
f 208//208 209//209 210//210
f 211//211 212//212 213//213
f 214//214 215//215 216//216
f 217//217 218//218 219//219
f 220//220 221//221 222//222
f 223//223 224//224 225//225
f 226//226 227//227 228//228
f 229//229 230//230 231//231
f 232//232 233//233 234//234
f 235//235 236//236 237//237
f 238//238 239//239 240//240
f 241//241 242//242 243//243
f 244//244 245//245 246//246
f 247//247 248//248 249//249
f 250//250 251//251 252//252
f 253//253 254//254 255//255
f 256//256 257//257 258//258
f 259//259 260//260 261//261
f 262//262 263//263 264//264
