# Exported from SharpOpenGl procedural mesh
o nexar_gunship_elite_53
# vertices 336
v -0.91223586 0.12663397 -1.6566875
v 0.91223586 0.12663397 -1.6566875
v 0 0.39573118 -1.3042649
v -0.91223586 0.12663397 -1.6566875
v 0 0.39573118 -1.3042649
v 0.561396 0.21760835 -0.87352616
v 0.91223586 0.12663397 -1.6566875
v 3.1760554 0.21760835 -0.87352616
v 1.8687257 0.6800261 -1.3042649
v -0.91223586 0 -1.6566875
v 0.561396 0 -0.87352616
v 0.91223586 0 -1.6566875
v 0.91223586 0 -1.6566875
v 0.561396 0 -0.87352616
v 3.1760554 0 -0.87352616
v 0.561396 0.21760835 -0.87352616
v 3.1760554 0.21760835 -0.87352616
v 1.8687257 0.6800261 -0.52110356
v 0.561396 0.21760835 -0.87352616
v 1.8687257 0.6800261 -0.52110356
v 1.0069504 0.27383363 -0.090364814
v 3.1760554 0.21760835 -0.87352616
v 4.1099725 0.27383363 -0.090364814
v 2.5584614 0.8557301 -0.52110356
v 0.561396 0 -0.87352616
v 1.0069504 0 -0.090364814
v 3.1760554 0 -0.87352616
v 3.1760554 0 -0.87352616
v 1.0069504 0 -0.090364814
v 4.1099725 0 -0.090364814
v 1.0069504 0.27383363 -0.090364814
v 4.1099725 0.27383363 -0.090364814
v 2.5584614 0.8557301 0.26205787
v 1.0069504 0.27383363 -0.090364814
v 2.5584614 0.8557301 0.26205787
v 0.08253789 0.2738336 0.6927967
v 4.1099725 0.27383363 -0.090364814
v 3.18556 0.2738336 0.6927967
v 1.6340489 0.85573006 0.26205787
v 1.0069504 0 -0.090364814
v 0.08253789 0 0.6927967
v 4.1099725 0 -0.090364814
v 4.1099725 0 -0.090364814
v 0.08253789 0 0.6927967
v 3.18556 0 0.6927967
v 0.08253789 0.2738336 0.6927967
v 3.18556 0.2738336 0.6927967
v 1.6340489 0.85573006 1.0452192
v 0.08253789 0.2738336 0.6927967
v 1.6340489 0.85573006 1.0452192
v -1.8206732 0.21760833 1.4759579
v 3.18556 0.2738336 0.6927967
v 1.1780853 0.21760833 1.4759579
v -0.32129398 0.68002605 1.0452192
v 0.08253789 0 0.6927967
v -1.8206732 0 1.4759579
v 3.18556 0 0.6927967
v 3.18556 0 0.6927967
v -1.8206732 0 1.4759579
v 1.1780853 0 1.4759579
v -1.8206732 0.21760833 1.4759579
v 1.1780853 0.21760833 1.4759579
v -0.32129398 0.68002605 1.8283805
v -1.8206732 0.21760833 1.4759579
v -0.32129398 0.68002605 1.8283805
v -2.9861665 0.12663396 2.2591193
v 1.1780853 0.21760833 1.4759579
v -1.161695 0.12663396 2.2591193
v -2.0739307 0.39573112 1.8283805
v -1.8206732 0 1.4759579
v -2.9861665 0 2.2591193
v 1.1780853 0 1.4759579
v 1.1780853 0 1.4759579
v -2.9861665 0 2.2591193
v -1.161695 0 2.2591193
v 1.8862019 0.16457835 -1.5060796
v 1.8862019 0.6583134 -1.5060796
v 3.772404 0.25238857 -1.5060796
v -1.8862022 0.16457833 -1.5060796
v -3.772404 0.06309713 -1.5060796
v -1.8862022 0.65831333 -1.5060796
v -0.18772888 0.16457835 1.6566874
v -0.18772888 0.6583134 1.6566874
v 1.6984732 0.25238857 1.6566874
v -3.960133 0.16457833 1.6566874
v -5.8463345 0.06309713 1.6566874
v -3.960133 0.65831333 1.6566874
v -0.6001552 0 0.60243183
v 0.6001552 0 0.60243183
v 0 0.07035221 1.1446204
v -0.4286823 0 0.84340453
v 0.4286823 0 0.84340453
v 0 0.07035221 1.32535
v -1.8004655 0.017588053 0.120486364
v -1.8004655 0.017588053 0.36145908
v -1.2003103 0.017588053 0.36145908
v -1.8004655 0.017588053 0.120486364
v -1.2003103 0.017588053 0.36145908
v -1.2003103 0.017588053 0.120486364
v -1.8004655 0.08794027 0.120486364
v -1.2003103 0.08794027 0.36145908
v -1.8004655 0.08794027 0.36145908
v -1.8004655 0.08794027 0.120486364
v -1.2003103 0.08794027 0.120486364
v -1.2003103 0.08794027 0.36145908
v -1.8004655 0.017588053 0.120486364
v -1.8004655 0.08794027 0.120486364
v -1.8004655 0.08794027 0.36145908
v -1.8004655 0.017588053 0.120486364
v -1.8004655 0.08794027 0.36145908
v -1.8004655 0.017588053 0.36145908
v -1.2003103 0.017588053 0.120486364
v -1.2003103 0.017588053 0.36145908
v -1.2003103 0.08794027 0.36145908
v -1.2003103 0.017588053 0.120486364
v -1.2003103 0.08794027 0.36145908
v -1.2003103 0.08794027 0.120486364
v 1.2003103 0.017588053 0.120486364
v 1.2003103 0.017588053 0.36145908
v 1.8004655 0.017588053 0.36145908
v 1.2003103 0.017588053 0.120486364
v 1.8004655 0.017588053 0.36145908
v 1.8004655 0.017588053 0.120486364
v 1.2003103 0.08794027 0.120486364
v 1.8004655 0.08794027 0.36145908
v 1.2003103 0.08794027 0.36145908
v 1.2003103 0.08794027 0.120486364
v 1.8004655 0.08794027 0.120486364
v 1.8004655 0.08794027 0.36145908
v 1.2003103 0.017588053 0.120486364
v 1.2003103 0.08794027 0.120486364
v 1.2003103 0.08794027 0.36145908
v 1.2003103 0.017588053 0.120486364
v 1.2003103 0.08794027 0.36145908
v 1.2003103 0.017588053 0.36145908
v 1.8004655 0.017588053 0.120486364
v 1.8004655 0.017588053 0.36145908
v 1.8004655 0.08794027 0.36145908
v 1.8004655 0.017588053 0.120486364
v 1.8004655 0.08794027 0.36145908
v 1.8004655 0.08794027 0.120486364
v -0.4286823 0.19346859 1.6868091
v 0.4286823 0.19346859 1.6868091
v 0 0.28140885 1.8675387
v -0.5144187 0 -1.32535
v -0.5144187 0 -1.0241342
v 0.5144187 0 -1.0241342
v -0.5144187 0 -1.32535
v 0.5144187 0 -1.0241342
v 0.5144187 0 -1.32535
v -0.5144187 0.10552832 -1.32535
v 0.5144187 0.10552832 -1.0241342
v -0.5144187 0.10552832 -1.0241342
v -0.5144187 0.10552832 -1.32535
v 0.5144187 0.10552832 -1.32535
v 0.5144187 0.10552832 -1.0241342
v -0.5144187 0 -1.32535
v -0.5144187 0.10552832 -1.32535
v -0.5144187 0.10552832 -1.0241342
v -0.5144187 0 -1.32535
v -0.5144187 0.10552832 -1.0241342
v -0.5144187 0 -1.0241342
v 0.5144187 0 -1.32535
v 0.5144187 0 -1.0241342
v 0.5144187 0.10552832 -1.0241342
v 0.5144187 0 -1.32535
v 0.5144187 0.10552832 -1.0241342
v 0.5144187 0.10552832 -1.32535
v -0.21434115 0.38693717 0.18072954
v 0.21434115 0.38693717 0.18072954
v 0 0.43970132 0.30121592
v -2.6477435 0.09507055 -1.7786083
v -3.5177162 0 -3.6925483
v -1.7777708 0 -3.6925483
v -0.8825812 0.09507055 -1.7786083
v -1.7525539 0 -3.6925483
v -0.012608409 0 -3.6925483
v 0.8825812 0.09507055 -1.7786083
v 0.012608409 0 -3.6925483
v 1.7525539 0 -3.6925483
v 2.6477435 0.09507055 -1.7786083
v 1.7777708 0 -3.6925483
v 3.5177162 0 -3.6925483
v -2.3194945 0.21390875 -0.114748925
v -2.2249322 0.16637346 -0.09179914
v -2.3194945 0.14260583 -0.08032425
v -1.9412453 0.23767638 0.1721234
v -1.846683 0.1901411 0.19507319
v -1.9412453 0.16043155 0.20654808
v -1.5629961 0.26144403 0.45899573
v -1.4684339 0.21390875 0.4819455
v -1.5629961 0.17825727 0.49342042
v 2.3194945 0.21390875 -0.114748925
v 2.2249322 0.16637346 -0.09179914
v 2.3194945 0.14260583 -0.08032425
v 1.9412453 0.23767638 0.1721234
v 1.846683 0.1901411 0.19507319
v 1.9412453 0.16043155 0.20654808
v 1.5629961 0.26144403 0.45899573
v 1.4684339 0.21390875 0.4819455
v 1.5629961 0.17825727 0.49342042
v -1.0586641 0.5466557 -0.17212339
v 1.0586641 0.5466557 -0.17212339
v 0.05 0.61795855 -0.15491104
v -0.7119359 0.57042336 0.14343615
v 0.7119359 0.57042336 0.14343615
v 0.05 0.6417262 0.1606485
v -0.36520755 0.59419096 0.4589957
v 0.36520755 0.59419096 0.4589957
v 0.05 0.66549385 0.47620803
v -0.5173736 0.023767637 0.28687233
v 0.61737365 0.023767637 0.28687233
v 0.05 0.11883819 0.31555957
v -1.0217057 0.047535274 -0.17212339
v 1.1217057 0.047535274 -0.17212339
v 0.05 0.14260583 -0.1491736
v -0.83951575 0.047535274 0.17212339
v 0.93951577 0.047535274 0.17212339
v 0.05 0.15448964 0.19507317
v -0.6573258 0.047535274 0.5163702
v 0.7573258 0.047535274 0.5163702
v 0.05 0.16637346 0.53932
v -1.1847472 0.23767638 0.057374462
v -1.0901849 0.28521165 0.086061694
v -1.1847472 0.1901411 0.09179914
v -1.1847472 0.23767638 0.22949785
v -1.0901849 0.28521165 0.2581851
v -1.1847472 0.1901411 0.2639225
v -1.1847472 0.23767638 0.40162125
v -1.0901849 0.28521165 0.4303085
v -1.1847472 0.1901411 0.43604594
v 1.1847472 0.23767638 0.057374462
v 1.0901849 0.28521165 0.086061694
v 1.1847472 0.1901411 0.09179914
v 1.1847472 0.23767638 0.22949785
v 1.0901849 0.28521165 0.2581851
v 1.1847472 0.1901411 0.2639225
v 1.1847472 0.23767638 0.40162125
v 1.0901849 0.28521165 0.4303085
v 1.1847472 0.1901411 0.43604594
v -0.8064981 0.52288806 -0.057374462
v 0.8064981 0.52288806 -0.057374462
v 0.05 0.5704233 -0.040162124
v -0.5543321 0.5466557 0.2581851
v 0.5543321 0.5466557 0.2581851
v 0.05 0.59419096 0.27539742
v -0.30216604 0.5704233 0.57374465
v 0.30216604 0.5704233 0.57374465
v 0.05 0.61795855 0.590957
v -0.26520756 0.047535274 -0.28687233
v 0.36520758 0.047535274 -0.28687233
v 0.05 0.11883819 -0.22949785
v -0.75649816 0.047535274 -0.34424677
v -0.3782491 0.047535274 -0.34424677
v -0.56737363 0.11883819 -0.22949785
v -0.18912452 0.047535274 -0.34424677
v 0.18912452 0.047535274 -0.34424677
v 0 0.11883819 -0.22949785
v 0.3782491 0.047535274 -0.34424677
v 0.75649816 0.047535274 -0.34424677
v 0.56737363 0.11883819 -0.22949785
v -0.4412906 0.023767637 0.9179914
v 0.4412906 0.023767637 0.9179914
v 0 0.09507055 1.0901148
v -0.4412906 0.035651457 0.17212339
v 0.4412906 0.035651457 0.17212339
v 0 0.10695437 0.19507317
v -0.4412906 0.035651457 0.2868723
v 0.4412906 0.035651457 0.2868723
v 0 0.10695437 0.30982208
v -0.4412906 0.035651457 0.40162125
v 0.4412906 0.035651457 0.40162125
v 0 0.10695437 0.42457104
v -0.4412906 0.035651457 0.5163701
v 0.4412906 0.035651457 0.5163701
v 0 0.10695437 0.53931993
v -0.4412906 0.035651457 0.6311191
v 0.4412906 0.035651457 0.6311191
v 0 0.10695437 0.6540689
v -0.4412906 0.035651457 0.74586797
v 0.4412906 0.035651457 0.74586797
v 0 0.10695437 0.7688178
v -0.31520757 0.5466557 0.057374462
v 0.31520757 0.5466557 0.057374462
v 0 0.6179586 0.07171808
v -0.27738264 0.5561627 0.1606485
v 0.27738264 0.5561627 0.1606485
v 0 0.6274656 0.17499211
v -0.23955773 0.5656698 0.26392254
v 0.23955773 0.5656698 0.26392254
v 0 0.63697267 0.27826616
v -0.20173281 0.57517684 0.36719656
v 0.20173281 0.57517684 0.36719656
v 0 0.6464797 0.38154018
v -0.16390792 0.5846839 0.4704706
v 0.16390792 0.5846839 0.4704706
v 0 0.6559868 0.48481423
v -0.12608302 0.59419096 0.57374465
v 0.12608302 0.59419096 0.57374465
v 0 0.66549385 0.5880883
v -1.0717057 0.11883819 0.114748925
v -0.9771434 0.16637346 0.13196126
v -1.0717057 0.07130291 0.13769871
v -1.0717057 0.11883819 0.2868723
v -0.9771434 0.16637346 0.30408463
v -1.0717057 0.07130291 0.30982208
v 1.0717057 0.11883819 0.114748925
v 0.9771434 0.16637346 0.13196126
v 1.0717057 0.07130291 0.13769871
v 1.0717057 0.11883819 0.2868723
v 0.9771434 0.16637346 0.30408463
v 1.0717057 0.07130291 0.30982208
v -0.25216603 0.07130291 -0.22949785
v 0.25216603 0.07130291 -0.22949785
v 0 0.14260583 -0.17212339
v -0.14912453 0.26144403 2.5864408
v 0.22912452 0.26144403 2.5864408
v 0.04 0.52288806 2.8113487
v -0.054562263 0.47535276 2.7270083
v 0.13456225 0.47535276 2.7270083
v 0.04 0.5704233 2.8113487
v -0.21216604 1.0495789 0.34424677
v 0.29216602 1.0495789 0.34424677
v 0.04 1.1408466 0.4589957
v -2.624702 0.4278175 0.40162125
v -2.624702 0.49912038 0.5163702
v -2.5301397 0.47535276 0.6311191
v 2.624702 0.4278175 0.40162125
v 2.624702 0.49912038 0.5163702
v 2.5301397 0.47535276 0.6311191
v -0.08608302 0.52288806 2.8675756
v 0.16608301 0.52288806 2.8675756
v 0.04 0.61795855 2.9800293
v -0.33824906 0.07130291 -0.4589957
v 0.41824904 0.07130291 -0.4589957
v 0.04 0.16637346 -0.34424677
vn 0 -0.7947956 0.60687727
vn 0 -0.7947956 0.60687727
vn 0 -0.7947956 0.60687727
vn 0.43554905 -0.47552824 -0.76431006
vn 0.43554905 -0.47552824 -0.76431006
vn 0.43554905 -0.47552824 -0.76431006
vn -0.3252628 -0.0394978 0.9447984
vn -0.3252628 -0.0394978 0.9447984
vn -0.3252628 -0.0394978 0.9447984
vn 0 1 0
vn 0 1 0
vn 0 1 0
vn 0 1 -0
vn 0 1 -0
vn 0 1 -0
vn 0 -0.6061567 0.79534525
vn 0 -0.6061567 0.79534525
vn 0 -0.6061567 0.79534525
vn 0.36366063 -0.92083156 -0.14078398
vn 0.36366063 -0.92083156 -0.14078398
vn 0.36366063 -0.92083156 -0.14078398
vn -0.42276567 -0.71598494 0.555549
vn -0.42276567 -0.71598494 0.555549
vn -0.42276567 -0.71598494 0.555549
vn 0 1 0
vn 0 1 0
vn 0 1 0
vn 0 1 -0
vn 0 1 -0
vn 0 1 -0
vn 0 -0.51804173 0.85535544
vn 0 -0.51804173 0.85535544
vn 0 -0.51804173 0.85535544
vn 0.26894137 -0.90933913 0.31744757
vn 0.26894137 -0.90933913 0.31744757
vn 0.26894137 -0.90933913 0.31744757
vn -0.2588455 -0.916324 -0.3055309
vn -0.2588455 -0.916324 -0.3055309
vn -0.2588455 -0.916324 -0.3055309
vn 0 1 -0
vn 0 1 -0
vn 0 1 -0
vn 0 1 0
vn 0 1 0
vn 0 1 0
vn 0 -0.5180415 0.8553555
vn 0 -0.5180415 0.8553555
vn 0 -0.5180415 0.8553555
vn 0.21652499 -0.8586702 0.46454525
vn 0.21652499 -0.8586702 0.46454525
vn 0.21652499 -0.8586702 0.46454525
vn -0.14683041 -0.8859259 -0.43997294
vn -0.14683041 -0.8859259 -0.43997294
vn -0.14683041 -0.8859259 -0.43997294
vn 0 1 -0
vn 0 1 -0
vn 0 1 -0
vn 0 1 0
vn 0 1 0
vn 0 1 0
vn 0 -0.6061567 0.7953451
vn 0 -0.6061567 0.7953451
vn 0 -0.6061567 0.7953451
vn 0.23434664 -0.94224083 0.23929888
vn 0.23434664 -0.94224083 0.23929888
vn 0.23434664 -0.94224083 0.23929888
vn -0.09165775 -0.92013514 -0.3807232
vn -0.09165775 -0.92013514 -0.3807232
vn -0.09165775 -0.92013514 -0.3807232
vn 0 1 -0
vn 0 1 -0
vn 0 1 -0
vn 0 1 0
vn 0 1 0
vn 0 1 0
vn 0 0 -1
vn 0 0 -1
vn 0 0 -1
vn -0 0 -1
vn -0 0 -1
vn -0 0 -1
vn 0 0 -1
vn 0 0 -1
vn 0 0 -1
vn -0 0 -1
vn -0 0 -1
vn -0 0 -1
vn 0 -0.9916865 0.12867725
vn 0 -0.9916865 0.12867725
vn 0 -0.9916865 0.12867725
vn 0 -0.98951286 0.14444458
vn 0 -0.98951286 0.14444458
vn 0 -0.98951286 0.14444458
vn 0 1 0
vn 0 1 0
vn 0 1 0
vn 0 1 0
vn 0 1 0
vn 0 1 0
vn 0 -1 0
vn 0 -1 0
vn 0 -1 0
vn 0 -1 0
vn 0 -1 0
vn 0 -1 0
vn 1 0 0
vn 1 0 0
vn 1 0 0
vn 1 0 0
vn 1 0 0
vn 1 0 0
vn -1 0 0
vn -1 0 0
vn -1 0 0
vn -1 0 0
vn -1 0 0
vn -1 0 0
vn 0 1 0
vn 0 1 0
vn 0 1 0
vn 0 1 0
vn 0 1 0
vn 0 1 0
vn 0 -1 0
vn 0 -1 0
vn 0 -1 0
vn 0 -1 0
vn 0 -1 0
vn 0 -1 0
vn 1 0 0
vn 1 0 0
vn 1 0 0
vn 1 0 0
vn 1 0 0
vn 1 0 0
vn -1 0 0
vn -1 0 0
vn -1 0 0
vn -1 0 0
vn -1 0 0
vn -1 0 0
vn 0 -0.89920044 0.4375371
vn 0 -0.89920044 0.4375371
vn 0 -0.89920044 0.4375371
vn 0 1 0
vn 0 1 0
vn 0 1 0
vn 0 1 0
vn 0 1 0
vn 0 1 0
vn 0 -1 0
vn 0 -1 0
vn 0 -1 0
vn 0 -1 0
vn 0 -1 0
vn 0 -1 0
vn 1 0 0
vn 1 0 0
vn 1 0 0
vn 1 0 0
vn 1 0 0
vn 1 0 0
vn -1 0 0
vn -1 0 0
vn -1 0 0
vn -1 0 0
vn -1 0 0
vn -1 0 0
vn 0 -0.9160139 0.4011465
vn 0 -0.9160139 0.4011465
vn 0 -0.9160139 0.4011465
vn 0 -0.99876857 0.049611524
vn 0 -0.99876857 0.049611524
vn 0 -0.99876857 0.049611524
vn 0 -0.9987686 0.049611527
vn 0 -0.9987686 0.049611527
vn 0 -0.9987686 0.049611527
vn 0 -0.9987686 0.049611527
vn 0 -0.9987686 0.049611527
vn 0 -0.9987686 0.049611527
vn 0 -0.99876857 0.049611524
vn 0 -0.99876857 0.049611524
vn 0 -0.99876857 0.049611524
vn -1.5548457E-08 -0.43477547 -0.90053886
vn -1.5548457E-08 -0.43477547 -0.90053886
vn -1.5548457E-08 -0.43477547 -0.90053886
vn 0.017049622 -0.40700373 -0.9132674
vn 0.017049622 -0.40700373 -0.9132674
vn 0.017049622 -0.40700373 -0.9132674
vn 0.032019474 -0.38218024 -0.92353284
vn 0.032019474 -0.38218024 -0.92353284
vn 0.032019474 -0.38218024 -0.92353284
vn -1.5548457E-08 0.43477547 0.90053886
vn -1.5548457E-08 0.43477547 0.90053886
vn -1.5548457E-08 0.43477547 0.90053886
vn 0.017049622 0.40700373 0.9132674
vn 0.017049622 0.40700373 0.9132674
vn 0.017049622 0.40700373 0.9132674
vn 0.032019474 0.38218024 0.92353284
vn 0.032019474 0.38218024 0.92353284
vn 0.032019474 0.38218024 0.92353284
vn 0 -0.23465754 0.97207814
vn 0 -0.23465754 0.97207814
vn 0 -0.23465754 0.97207814
vn 0 -0.23465751 0.9720781
vn 0 -0.23465751 0.9720781
vn 0 -0.23465751 0.9720781
vn 0 -0.23465712 0.97207814
vn 0 -0.23465712 0.97207814
vn 0 -0.23465712 0.97207814
vn 0 -0.28888178 0.95736474
vn 0 -0.28888178 0.95736474
vn 0 -0.28888178 0.95736474
vn 0 -0.23465715 0.9720782
vn 0 -0.23465715 0.9720782
vn 0 -0.23465715 0.9720782
vn 0 -0.20979995 0.9777443
vn 0 -0.20979995 0.9777443
vn 0 -0.20979995 0.9777443
vn 0 -0.18961474 0.9818586
vn 0 -0.18961474 0.9818586
vn 0 -0.18961474 0.9818586
vn 0.47552362 -0.51597977 -0.7124902
vn 0.47552362 -0.51597977 -0.7124902
vn 0.47552362 -0.51597977 -0.7124902
vn 0.47552368 -0.5159796 -0.71249026
vn 0.47552368 -0.5159796 -0.71249026
vn 0.47552368 -0.5159796 -0.71249026
vn 0.47552377 -0.5159799 -0.71249
vn 0.47552377 -0.5159799 -0.71249
vn 0.47552377 -0.5159799 -0.71249
vn 0.47552362 0.51597977 0.7124902
vn 0.47552362 0.51597977 0.7124902
vn 0.47552362 0.51597977 0.7124902
vn 0.47552368 0.5159796 0.71249026
vn 0.47552368 0.5159796 0.71249026
vn 0.47552368 0.5159796 0.71249026
vn 0.47552377 0.5159799 0.71249
vn 0.47552377 0.5159799 0.71249
vn 0.47552377 0.5159799 0.71249
vn 0 -0.34046388 0.94025755
vn 0 -0.34046388 0.94025755
vn 0 -0.34046388 0.94025755
vn 0 -0.34046376 0.9402576
vn 0 -0.34046376 0.9402576
vn 0 -0.34046376 0.9402576
vn 0 -0.34046376 0.9402576
vn 0 -0.34046376 0.9402576
vn 0 -0.34046376 0.9402576
vn 0 -0.62690544 0.7790954
vn 0 -0.62690544 0.7790954
vn 0 -0.62690544 0.7790954
vn 0 -0.84937656 0.5277873
vn 0 -0.84937656 0.5277873
vn 0 -0.84937656 0.5277873
vn 0 -0.84937656 0.5277873
vn 0 -0.84937656 0.5277873
vn 0 -0.84937656 0.5277873
vn 0 -0.84937656 0.5277873
vn 0 -0.84937656 0.5277873
vn 0 -0.84937656 0.5277873
vn 0 -0.9238661 0.38271573
vn 0 -0.9238661 0.38271573
vn 0 -0.9238661 0.38271573
vn 0 -0.30638412 0.95190793
vn 0 -0.30638412 0.95190793
vn 0 -0.30638412 0.95190793
vn 0 -0.30638412 0.95190793
vn 0 -0.30638412 0.95190793
vn 0 -0.30638412 0.95190793
vn 0 -0.30638412 0.95190793
vn 0 -0.30638412 0.95190793
vn 0 -0.30638412 0.95190793
vn 0 -0.3063845 0.9519079
vn 0 -0.3063845 0.9519079
vn 0 -0.3063845 0.9519079
vn 0 -0.3063845 0.9519079
vn 0 -0.3063845 0.9519079
vn 0 -0.3063845 0.9519079
vn 0 -0.3063845 0.9519079
vn 0 -0.3063845 0.9519079
vn 0 -0.3063845 0.9519079
vn 0 -0.19721384 0.9803605
vn 0 -0.19721384 0.9803605
vn 0 -0.19721384 0.9803605
vn 0 -0.19721384 0.98036045
vn 0 -0.19721384 0.98036045
vn 0 -0.19721384 0.98036045
vn 0 -0.19721384 0.98036045
vn 0 -0.19721384 0.98036045
vn 0 -0.19721384 0.98036045
vn 0 -0.19721384 0.98036045
vn 0 -0.19721384 0.98036045
vn 0 -0.19721384 0.98036045
vn 0 -0.19721386 0.9803605
vn 0 -0.19721386 0.9803605
vn 0 -0.19721386 0.9803605
vn 0 -0.19721386 0.98036057
vn 0 -0.19721386 0.98036057
vn 0 -0.19721386 0.98036057
vn 0.3572355 -0.40608653 -0.84111625
vn 0.3572355 -0.40608653 -0.84111625
vn 0.3572355 -0.40608653 -0.84111625
vn 0.3572355 -0.40608653 -0.84111625
vn 0.3572355 -0.40608653 -0.84111625
vn 0.3572355 -0.40608653 -0.84111625
vn 0.3572355 0.40608653 0.84111625
vn 0.3572355 0.40608653 0.84111625
vn 0.3572355 0.40608653 0.84111625
vn 0.3572355 0.40608653 0.84111625
vn 0.3572355 0.40608653 0.84111625
vn 0.3572355 0.40608653 0.84111625
vn 0 -0.6269054 0.7790954
vn 0 -0.6269054 0.7790954
vn 0 -0.6269054 0.7790954
vn 0 -0.6521493 0.7580906
vn 0 -0.6521493 0.7580906
vn 0 -0.6521493 0.7580906
vn 0 -0.66363025 0.7480607
vn 0 -0.66363025 0.7480607
vn 0 -0.66363025 0.7480607
vn 0 -0.7826338 0.6224824
vn 0 -0.7826338 0.6224824
vn 0 -0.7826338 0.6224824
vn 0.6493867 0.64591545 -0.40136012
vn 0.6493867 0.64591545 -0.40136012
vn 0.6493867 0.64591545 -0.40136012
vn 0.6493867 -0.64591545 0.40136012
vn 0.6493867 -0.64591545 0.40136012
vn 0.6493867 -0.64591545 0.40136012
vn 0 -0.763663 0.6456151
vn 0 -0.763663 0.6456151
vn 0 -0.763663 0.6456151
vn 0 -0.7700451 0.63798946
vn 0 -0.7700451 0.63798946
vn 0 -0.7700451 0.63798946
f 1//1 2//2 3//3
f 4//4 5//5 6//6
f 7//7 8//8 9//9
f 10//10 11//11 12//12
f 13//13 14//14 15//15
f 16//16 17//17 18//18
f 19//19 20//20 21//21
f 22//22 23//23 24//24
f 25//25 26//26 27//27
f 28//28 29//29 30//30
f 31//31 32//32 33//33
f 34//34 35//35 36//36
f 37//37 38//38 39//39
f 40//40 41//41 42//42
f 43//43 44//44 45//45
f 46//46 47//47 48//48
f 49//49 50//50 51//51
f 52//52 53//53 54//54
f 55//55 56//56 57//57
f 58//58 59//59 60//60
f 61//61 62//62 63//63
f 64//64 65//65 66//66
f 67//67 68//68 69//69
f 70//70 71//71 72//72
f 73//73 74//74 75//75
f 76//76 77//77 78//78
f 79//79 80//80 81//81
f 82//82 83//83 84//84
f 85//85 86//86 87//87
f 88//88 89//89 90//90
f 91//91 92//92 93//93
f 94//94 95//95 96//96
f 97//97 98//98 99//99
f 100//100 101//101 102//102
f 103//103 104//104 105//105
f 106//106 107//107 108//108
f 109//109 110//110 111//111
f 112//112 113//113 114//114
f 115//115 116//116 117//117
f 118//118 119//119 120//120
f 121//121 122//122 123//123
f 124//124 125//125 126//126
f 127//127 128//128 129//129
f 130//130 131//131 132//132
f 133//133 134//134 135//135
f 136//136 137//137 138//138
f 139//139 140//140 141//141
f 142//142 143//143 144//144
f 145//145 146//146 147//147
f 148//148 149//149 150//150
f 151//151 152//152 153//153
f 154//154 155//155 156//156
f 157//157 158//158 159//159
f 160//160 161//161 162//162
f 163//163 164//164 165//165
f 166//166 167//167 168//168
f 169//169 170//170 171//171
f 172//172 173//173 174//174
f 175//175 176//176 177//177
f 178//178 179//179 180//180
f 181//181 182//182 183//183
f 184//184 185//185 186//186
f 187//187 188//188 189//189
f 190//190 191//191 192//192
f 193//193 194//194 195//195
f 196//196 197//197 198//198
f 199//199 200//200 201//201
f 202//202 203//203 204//204
f 205//205 206//206 207//207
f 208//208 209//209 210//210
f 211//211 212//212 213//213
f 214//214 215//215 216//216
f 217//217 218//218 219//219
f 220//220 221//221 222//222
f 223//223 224//224 225//225
f 226//226 227//227 228//228
f 229//229 230//230 231//231
f 232//232 233//233 234//234
f 235//235 236//236 237//237
f 238//238 239//239 240//240
f 241//241 242//242 243//243
f 244//244 245//245 246//246
f 247//247 248//248 249//249
f 250//250 251//251 252//252
f 253//253 254//254 255//255
f 256//256 257//257 258//258
f 259//259 260//260 261//261
f 262//262 263//263 264//264
f 265//265 266//266 267//267
f 268//268 269//269 270//270
f 271//271 272//272 273//273
f 274//274 275//275 276//276
f 277//277 278//278 279//279
f 280//280 281//281 282//282
f 283//283 284//284 285//285
f 286//286 287//287 288//288
f 289//289 290//290 291//291
f 292//292 293//293 294//294
f 295//295 296//296 297//297
f 298//298 299//299 300//300
f 301//301 302//302 303//303
f 304//304 305//305 306//306
f 307//307 308//308 309//309
f 310//310 311//311 312//312
f 313//313 314//314 315//315
f 316//316 317//317 318//318
f 319//319 320//320 321//321
f 322//322 323//323 324//324
f 325//325 326//326 327//327
f 328//328 329//329 330//330
f 331//331 332//332 333//333
f 334//334 335//335 336//336
