# Exported from SharpOpenGl procedural mesh
o nexar_corvette_mk1_04
# vertices 330
v -0.3684271 0.058126792 -0.99749047
v 0.3684271 0.058126792 -0.99749047
v 0 0.18164623 -0.78529704
v -0.3684271 0.058126792 -0.99749047
v 0 0.18164623 -0.78529704
v 0.26711923 0.09988533 -0.52594954
v 0.3684271 0.058126792 -0.99749047
v 1.3231087 0.09988533 -0.52594954
v 0.7951139 0.31214166 -0.78529704
v -0.3684271 0 -0.99749047
v 0.26711923 0 -0.52594954
v 0.3684271 0 -0.99749047
v 0.3684271 0 -0.99749047
v 0.26711923 0 -0.52594954
v 1.3231087 0 -0.52594954
v 0.26711923 0.09988533 -0.52594954
v 1.3231087 0.09988533 -0.52594954
v 0.7951139 0.31214166 -0.3137561
v 0.26711923 0.09988533 -0.52594954
v 0.7951139 0.31214166 -0.3137561
v 0.461973 0.12569351 -0.05440861
v 1.3231087 0.09988533 -0.52594954
v 1.7151988 0.12569351 -0.05440861
v 1.0885859 0.39279225 -0.3137561
v 0.26711923 0 -0.52594954
v 0.461973 0 -0.05440861
v 1.3231087 0 -0.52594954
v 1.3231087 0 -0.52594954
v 0.461973 0 -0.05440861
v 1.7151988 0 -0.05440861
v 0.461973 0.12569351 -0.05440861
v 1.7151988 0.12569351 -0.05440861
v 1.0885859 0.39279225 0.1577848
v 0.461973 0.12569351 -0.05440861
v 1.0885859 0.39279225 0.1577848
v 0.06864977 0.12569351 0.41713232
v 1.7151988 0.12569351 -0.05440861
v 1.3218755 0.12569351 0.41713232
v 0.6952626 0.39279225 0.1577848
v 0.461973 0 -0.05440861
v 0.06864977 0 0.41713232
v 1.7151988 0 -0.05440861
v 1.7151988 0 -0.05440861
v 0.06864977 0 0.41713232
v 1.3218755 0 0.41713232
v 0.06864977 0.12569351 0.41713232
v 1.3218755 0.12569351 0.41713232
v 0.6952626 0.39279225 0.62932575
v 0.06864977 0.12569351 0.41713232
v 0.6952626 0.39279225 0.62932575
v -0.7422639 0.09988532 0.88867325
v 1.3218755 0.12569351 0.41713232
v 0.46885264 0.09988532 0.88867325
v -0.13670564 0.31214163 0.62932575
v 0.06864977 0 0.41713232
v -0.7422639 0 0.88867325
v 1.3218755 0 0.41713232
v 1.3218755 0 0.41713232
v -0.7422639 0 0.88867325
v 0.46885264 0 0.88867325
v -0.7422639 0.09988532 0.88867325
v 0.46885264 0.09988532 0.88867325
v -0.13670564 0.31214163 1.1008667
v -0.7422639 0.09988532 0.88867325
v -0.13670564 0.31214163 1.1008667
v -1.2508526 0.05812679 1.3602142
v 0.46885264 0.09988532 0.88867325
v -0.5139985 0.05812679 1.3602142
v -0.88242555 0.18164621 1.1008667
v -0.7422639 0 0.88867325
v -1.2508526 0 1.3602142
v 0.46885264 0 0.88867325
v 0.46885264 0 0.88867325
v -1.2508526 0 1.3602142
v -0.5139985 0 1.3602142
v 0.8203842 0.0755438 -0.9068095
v 0.8203842 0.3021752 -0.9068095
v 1.6407685 0.11584993 -0.9068095
v -0.8203844 0.07554378 -0.9068095
v -1.6407685 0.028962476 -0.9068095
v -0.8203844 0.30217513 -0.9068095
v -0.062041342 0.0755438 0.99749047
v -0.062041342 0.3021752 0.99749047
v 0.758343 0.11584993 0.99749047
v -1.7028099 0.07554378 0.99749047
v -2.523194 0.028962476 0.99749047
v -1.7028099 0.30217513 0.99749047
v 0.55935293 0.27448764 0.50781333
v -0.22374116 0.12917066 -0.32645145
v 0.55935293 0.25252864 0.21582067
v 0.55935293 0.27448764 0.50781333
v 0.55935293 0.25252864 0.21582067
v -0.22374116 0.12917066 -0.32645145
v -0.14916077 0.1210975 1.1244438
v 0.14916077 0.1210975 1.1244438
v 0 0.19375598 1.233261
v -0.8576745 0.016146332 0.03627238
v -0.8576745 0.016146332 0.1813619
v -0.5966431 0.016146332 0.1813619
v -0.8576745 0.016146332 0.03627238
v -0.5966431 0.016146332 0.1813619
v -0.5966431 0.016146332 0.03627238
v -0.8576745 0.056512162 0.03627238
v -0.5966431 0.056512162 0.1813619
v -0.8576745 0.056512162 0.1813619
v -0.8576745 0.056512162 0.03627238
v -0.5966431 0.056512162 0.03627238
v -0.5966431 0.056512162 0.1813619
v -0.8576745 0.016146332 0.03627238
v -0.8576745 0.056512162 0.03627238
v -0.8576745 0.056512162 0.1813619
v -0.8576745 0.016146332 0.03627238
v -0.8576745 0.056512162 0.1813619
v -0.8576745 0.016146332 0.1813619
v -0.5966431 0.016146332 0.03627238
v -0.5966431 0.016146332 0.1813619
v -0.5966431 0.056512162 0.1813619
v -0.5966431 0.016146332 0.03627238
v -0.5966431 0.056512162 0.1813619
v -0.5966431 0.056512162 0.03627238
v -0.18645097 0 -0.79799235
v -0.18645097 0 -0.6166305
v 0.18645097 0 -0.6166305
v -0.18645097 0 -0.79799235
v 0.18645097 0 -0.6166305
v 0.18645097 0 -0.79799235
v -0.18645097 0.048438996 -0.79799235
v 0.18645097 0.048438996 -0.6166305
v -0.18645097 0.048438996 -0.6166305
v -0.18645097 0.048438996 -0.79799235
v 0.18645097 0.048438996 -0.79799235
v 0.18645097 0.048438996 -0.6166305
v -0.18645097 0 -0.79799235
v -0.18645097 0.048438996 -0.79799235
v -0.18645097 0.048438996 -0.6166305
v -0.18645097 0 -0.79799235
v -0.18645097 0.048438996 -0.6166305
v -0.18645097 0 -0.6166305
v 0.18645097 0 -0.79799235
v 0.18645097 0 -0.6166305
v 0.18645097 0.048438996 -0.6166305
v 0.18645097 0 -0.79799235
v 0.18645097 0.048438996 -0.6166305
v 0.18645097 0.048438996 -0.79799235
v -0.07458039 0.20182915 0.25390667
v 0.07458039 0.20182915 0.25390667
v 0 0.22604865 0.32645145
v -1.0525458 0.04140085 -1.1023959
v -1.4134187 0 -1.8963162
v -0.6916729 0 -1.8963162
v 0 0.04140085 -1.1023959
v -0.36087283 0 -1.8963162
v 0.36087283 0 -1.8963162
v 1.0525458 0.04140085 -1.1023959
v 0.6916729 0 -1.8963162
v 1.4134187 0 -1.8963162
v -1.1326185 0.09315192 -0.07112232
v -1.0875094 0.072451495 -0.056897856
v -1.1326185 0.06210128 -0.04978562
v -0.9521822 0.10350213 0.124464065
v -0.9070731 0.0828017 0.13868853
v -0.9521822 0.06986393 0.14580075
v -0.7717457 0.113852344 0.32005045
v -0.7266366 0.09315192 0.33427492
v -0.7717457 0.07762659 0.34138715
v 1.1326185 0.09315192 -0.07112232
v 1.0875094 0.072451495 -0.056897856
v 1.1326185 0.06210128 -0.04978562
v 0.9521822 0.10350213 0.124464065
v 0.9070731 0.0828017 0.13868853
v 0.9521822 0.06986393 0.14580075
v 0.7717457 0.113852344 0.32005045
v 0.7266366 0.09315192 0.33427492
v 0.7717457 0.07762659 0.34138715
v -0.53116375 0.2380549 -0.10668347
v 0.53116375 0.2380549 -0.10668347
v 0.05 0.26910552 -0.096015126
v -0.36576372 0.24840513 0.106683485
v 0.36576372 0.24840513 0.106683485
v 0.05 0.27945572 0.11735183
v -0.20036367 0.25875533 0.32005045
v 0.20036367 0.25875533 0.32005045
v 0.05 0.28980598 0.3307188
v -0.43116376 0.020700425 -0.10668347
v 0.53116375 0.020700425 -0.10668347
v 0.05 0.06210128 -0.09245901
v -0.3766319 0.020700425 0.04741489
v 0.4766319 0.020700425 0.04741489
v 0.05 0.06555135 0.061639354
v -0.32209995 0.020700425 0.20151326
v 0.42209998 0.020700425 0.20151326
v 0.05 0.069001414 0.21573773
v -0.26756808 0.020700425 0.3556116
v 0.3675681 0.020700425 0.3556116
v 0.05 0.072451495 0.36983606
v -0.50109106 0.10350213 0.03556116
v -0.45598197 0.12420256 0.05334174
v -0.50109106 0.0828017 0.056897856
v -0.50109106 0.10350213 0.14224464
v -0.45598197 0.12420256 0.16002521
v -0.50109106 0.0828017 0.16358133
v -0.50109106 0.10350213 0.24892811
v -0.45598197 0.12420256 0.2667087
v -0.50109106 0.0828017 0.2702648
v 0.50109106 0.10350213 0.03556116
v 0.45598197 0.12420256 0.05334174
v 0.50109106 0.0828017 0.056897856
v 0.50109106 0.10350213 0.14224464
v 0.45598197 0.12420256 0.16002521
v 0.50109106 0.0828017 0.16358133
v 0.50109106 0.10350213 0.24892811
v 0.45598197 0.12420256 0.2667087
v 0.50109106 0.0828017 0.2702648
v -0.41087285 0.22770469 -0.03556116
v 0.41087285 0.22770469 -0.03556116
v 0.05 0.24840511 -0.02489281
v -0.33067888 0.23460482 0.10668348
v 0.33067888 0.23460482 0.10668348
v 0.05 0.25530523 0.11735182
v -0.2504849 0.24150497 0.24892811
v 0.2504849 0.24150497 0.24892811
v 0.05 0.2622054 0.25959647
v -0.17029095 0.24840511 0.39117277
v 0.17029095 0.24840511 0.39117277
v 0.05 0.26910552 0.4018411
v -0.10036369 0.020700425 -0.1778058
v 0.20036368 0.020700425 -0.1778058
v 0.05 0.051751066 -0.14224464
v -0.36087286 0.020700425 -0.21336694
v -0.18043643 0.020700425 -0.21336694
v -0.27065465 0.051751066 -0.14224464
v -0.09021821 0.020700425 -0.21336694
v 0.09021821 0.020700425 -0.21336694
v 0 0.051751066 -0.14224464
v 0.18043643 0.020700425 -0.21336694
v 0.36087286 0.020700425 -0.21336694
v 0.27065465 0.051751066 -0.14224464
v -0.48116377 0.051751066 0.24892811
v -0.4210183 0.072451495 0.32005045
v -0.48116377 0.04140085 0.3556116
v 0.48116377 0.051751066 0.24892811
v 0.4210183 0.072451495 0.32005045
v 0.48116377 0.04140085 0.3556116
v -0.45109108 0.09315192 0.03556116
v -0.405982 0.113852344 0.046229508
v -0.45109108 0.072451495 0.04978562
v -0.45109108 0.09315192 0.14224464
v -0.405982 0.113852344 0.15291299
v -0.45109108 0.072451495 0.1564691
v -0.45109108 0.09315192 0.24892811
v -0.405982 0.113852344 0.25959647
v -0.45109108 0.072451495 0.26315257
v -0.45109108 0.09315192 0.35561156
v -0.405982 0.113852344 0.3662799
v -0.45109108 0.072451495 0.36983603
v 0.45109108 0.09315192 0.03556116
v 0.405982 0.113852344 0.046229508
v 0.45109108 0.072451495 0.04978562
v 0.45109108 0.09315192 0.14224464
v 0.405982 0.113852344 0.15291299
v 0.45109108 0.072451495 0.1564691
v 0.45109108 0.09315192 0.24892811
v 0.405982 0.113852344 0.25959647
v 0.45109108 0.072451495 0.26315257
v 0.45109108 0.09315192 0.35561156
v 0.405982 0.113852344 0.3662799
v 0.45109108 0.072451495 0.36983603
v -0.07518184 0.24840511 0.03556116
v 0.07518184 0.24840511 0.03556116
v 0 0.27945575 0.04445145
v -0.07518184 0.24840511 0.10668347
v 0.07518184 0.24840511 0.10668347
v 0 0.27945575 0.115573764
v -0.07518184 0.24840511 0.17780578
v 0.07518184 0.24840511 0.17780578
v 0 0.27945575 0.18669607
v -0.07518184 0.24840511 0.24892811
v 0.07518184 0.24840511 0.24892811
v 0 0.27945575 0.2578184
v -0.07518184 0.24840511 0.32005042
v 0.07518184 0.24840511 0.32005042
v 0 0.27945575 0.32894072
v -0.07518184 0.24840511 0.3911727
v 0.07518184 0.24840511 0.3911727
v 0 0.27945575 0.400063
v -0.07518184 0.24840511 0.46229506
v 0.07518184 0.24840511 0.46229506
v 0 0.27945575 0.47118536
v -0.07518184 0.24840511 0.5334174
v 0.07518184 0.24840511 0.5334174
v 0 0.27945575 0.5423077
v -0.07518184 0.24840511 0.6045397
v 0.07518184 0.24840511 0.6045397
v 0 0.27945575 0.61342996
v -0.09021821 0.25875533 0.32005045
v 0.09021821 0.25875533 0.32005045
v 0 0.28980598 0.39117274
v -0.09021821 0.17595363 0.85346776
v 0.09021821 0.17595363 0.85346776
v 0 0.20700426 0.9245901
v -0.12029094 0.03105064 -0.14224464
v 0.12029094 0.03105064 -0.14224464
v 0 0.06210128 -0.10668347
v -0.6315274 0.113852344 0.9245901
v -0.58641833 0.13455276 0.99571246
v -0.6315274 0.09315192 1.0312736
v 0.6315274 0.113852344 0.9245901
v 0.58641833 0.13455276 0.99571246
v 0.6315274 0.09315192 1.0312736
v -0.05021821 0.113852344 1.6030971
v 0.13021821 0.113852344 1.6030971
v 0.04 0.22770469 1.7424968
v -0.0051091053 0.20700426 1.690222
v 0.0851091 0.20700426 1.690222
v 0.04 0.24840511 1.7424968
v -0.08029094 0.4570654 0.21336694
v 0.16029094 0.4570654 0.21336694
v 0.04 0.49681023 0.28448927
v -1.2128366 0.18630384 0.24892811
v -1.2128366 0.21735446 0.32005045
v -1.1677275 0.20700426 0.39117274
v 1.2128366 0.18630384 0.24892811
v 1.2128366 0.21735446 0.32005045
v 1.1677275 0.20700426 0.39117274
v -0.020145472 0.22770469 1.7773467
v 0.100145474 0.22770469 1.7773467
v 0.04 0.26910552 1.8470466
v -0.14043641 0.03105064 -0.28448927
v 0.22043642 0.03105064 -0.28448927
v 0.04 0.072451495 -0.21336696
vn 0 -0.8642395 0.50308055
vn 0 -0.8642395 0.50308055
vn 0 -0.8642395 0.50308055
vn 0.55443823 -0.43639693 -0.7086296
vn 0.55443823 -0.43639693 -0.7086296
vn 0.55443823 -0.43639693 -0.7086296
vn -0.44265077 -0.005494757 0.89667726
vn -0.44265077 -0.005494757 0.89667726
vn -0.44265077 -0.005494757 0.89667726
vn 0 1 0
vn 0 1 0
vn 0 1 0
vn 0 1 -0
vn 0 1 -0
vn 0 1 -0
vn 0 -0.707002 0.70721155
vn 0 -0.707002 0.70721155
vn 0 -0.707002 0.70721155
vn 0.41163233 -0.9033275 -0.12065733
vn 0.41163233 -0.9033275 -0.12065733
vn 0.41163233 -0.9033275 -0.12065733
vn -0.5021871 -0.7336845 0.45772833
vn -0.5021871 -0.7336845 0.45772833
vn -0.5021871 -0.7336845 0.45772833
vn 0 1 0
vn 0 1 0
vn 0 1 0
vn 0 1 -0
vn 0 1 -0
vn 0 1 -0
vn 0 -0.62203604 0.7829886
vn 0 -0.62203604 0.7829886
vn 0 -0.62203604 0.7829886
vn 0.30502868 -0.9177265 0.25443152
vn 0.30502868 -0.9177265 0.25443152
vn 0.30502868 -0.9177265 0.25443152
vn -0.29290956 -0.92439735 -0.2443227
vn -0.29290956 -0.92439735 -0.2443227
vn -0.29290956 -0.92439735 -0.2443227
vn 0 1 -0
vn 0 1 -0
vn 0 1 -0
vn 0 1 0
vn 0 1 0
vn 0 1 0
vn 0 -0.62203604 0.7829886
vn 0 -0.62203604 0.7829886
vn 0 -0.62203604 0.7829886
vn 0.25014424 -0.8898923 0.38147032
vn 0.25014424 -0.8898923 0.38147032
vn 0.25014424 -0.8898923 0.38147032
vn -0.1693244 -0.9187863 -0.35659638
vn -0.1693244 -0.9187863 -0.35659638
vn -0.1693244 -0.9187863 -0.35659638
vn 0 1 -0
vn 0 1 -0
vn 0 1 -0
vn 0 1 0
vn 0 1 0
vn 0 1 0
vn 0 -0.707002 0.70721155
vn 0 -0.707002 0.70721155
vn 0 -0.707002 0.70721155
vn 0.26154667 -0.94456977 0.19844687
vn 0.26154667 -0.94456977 0.19844687
vn 0.26154667 -0.94456977 0.19844687
vn -0.10480268 -0.94741946 -0.30234548
vn -0.10480268 -0.94741946 -0.30234548
vn -0.10480268 -0.94741946 -0.30234548
vn 0 1 -0
vn 0 1 -0
vn 0 1 -0
vn 0 1 0
vn 0 1 0
vn 0 1 0
vn 0 0 -0.99999994
vn 0 0 -0.99999994
vn 0 0 -0.99999994
vn -0 0 -1
vn -0 0 -1
vn -0 0 -1
vn 0 0 -0.99999994
vn 0 0 -0.99999994
vn 0 0 -0.99999994
vn -0 0 -1
vn -0 0 -1
vn -0 0 -1
vn 0.10457611 -0.9917164 0.074581005
vn 0.10457611 -0.9917164 0.074581005
vn 0.10457611 -0.9917164 0.074581005
vn -0.10457611 0.9917164 -0.074581005
vn -0.10457611 0.9917164 -0.074581005
vn -0.10457611 0.9917164 -0.074581005
vn 0 -0.8316491 0.5553015
vn 0 -0.8316491 0.5553015
vn 0 -0.8316491 0.5553015
vn 0 0.99999994 0
vn 0 0.99999994 0
vn 0 0.99999994 0
vn 0 0.99999994 0
vn 0 0.99999994 0
vn 0 0.99999994 0
vn 0 -0.99999994 0
vn 0 -0.99999994 0
vn 0 -0.99999994 0
vn 0 -0.99999994 0
vn 0 -0.99999994 0
vn 0 -0.99999994 0
vn 1 0 0
vn 1 0 0
vn 1 0 0
vn 1 0 0
vn 1 0 0
vn 1 0 0
vn -1 0 0
vn -1 0 0
vn -1 0 0
vn -1 0 0
vn -1 0 0
vn -1 0 0
vn 0 1 0
vn 0 1 0
vn 0 1 0
vn 0 1 0
vn 0 1 0
vn 0 1 0
vn 0 -1 0
vn 0 -1 0
vn 0 -1 0
vn 0 -1 0
vn 0 -1 0
vn 0 -1 0
vn 1 0 0
vn 1 0 0
vn 1 0 0
vn 1 0 0
vn 1 0 0
vn 1 0 0
vn -1 0 0
vn -1 0 0
vn -1 0 0
vn -1 0 0
vn -1 0 0
vn -1 0 0
vn 0 -0.94853455 0.3166738
vn 0 -0.94853455 0.3166738
vn 0 -0.94853455 0.3166738
vn 0 -0.998643 0.052076597
vn 0 -0.998643 0.052076597
vn 0 -0.998643 0.052076597
vn 0 -0.9986431 0.052076604
vn 0 -0.9986431 0.052076604
vn 0 -0.9986431 0.052076604
vn 0 -0.998643 0.052076597
vn 0 -0.998643 0.052076597
vn 0 -0.998643 0.052076597
vn 0 -0.5663374 -0.82417345
vn 0 -0.5663374 -0.82417345
vn 0 -0.5663374 -0.82417345
vn 0.020479284 -0.5355218 -0.844273
vn 0.020479284 -0.5355218 -0.844273
vn 0.020479284 -0.5355218 -0.844273
vn 0.03878626 -0.507123 -0.8610005
vn 0.03878626 -0.507123 -0.8610005
vn 0.03878626 -0.507123 -0.8610005
vn 0 0.5663374 0.82417345
vn 0 0.5663374 0.82417345
vn 0 0.5663374 0.82417345
vn 0.020479284 0.5355218 0.844273
vn 0.020479284 0.5355218 0.844273
vn 0.020479284 0.5355218 0.844273
vn 0.03878626 0.507123 0.8610005
vn 0.03878626 0.507123 0.8610005
vn 0.03878626 0.507123 0.8610005
vn 0 -0.32493523 0.9457363
vn 0 -0.32493523 0.9457363
vn 0 -0.32493523 0.9457363
vn 0 -0.3249355 0.9457362
vn 0 -0.3249355 0.9457362
vn 0 -0.3249355 0.9457362
vn 0 -0.32493472 0.9457364
vn 0 -0.32493472 0.9457364
vn 0 -0.32493472 0.9457364
vn 0 -0.32493508 0.9457362
vn 0 -0.32493508 0.9457362
vn 0 -0.32493508 0.9457362
vn 0 -0.30231023 0.9532096
vn 0 -0.30231023 0.9532096
vn 0 -0.30231023 0.9532096
vn 0 -0.28250074 0.95926714
vn 0 -0.28250074 0.95926714
vn 0 -0.28250074 0.95926714
vn 0 -0.26503393 0.9642391
vn 0 -0.26503393 0.9642391
vn 0 -0.26503393 0.9642391
vn 0.51690567 -0.61440486 -0.5960832
vn 0.51690567 -0.61440486 -0.5960832
vn 0.51690567 -0.61440486 -0.5960832
vn 0.5169056 -0.61440486 -0.59608334
vn 0.5169056 -0.61440486 -0.59608334
vn 0.5169056 -0.61440486 -0.59608334
vn 0.5169057 -0.61440474 -0.5960832
vn 0.5169057 -0.61440474 -0.5960832
vn 0.5169057 -0.61440474 -0.5960832
vn 0.51690567 0.61440486 0.5960832
vn 0.51690567 0.61440486 0.5960832
vn 0.51690567 0.61440486 0.5960832
vn 0.5169056 0.61440486 0.59608334
vn 0.5169056 0.61440486 0.59608334
vn 0.5169056 0.61440486 0.59608334
vn 0.5169057 0.61440474 0.5960832
vn 0.5169057 0.61440474 0.5960832
vn 0.5169057 0.61440474 0.5960832
vn 0 -0.45810905 0.888896
vn 0 -0.45810905 0.888896
vn 0 -0.45810905 0.888896
vn 0 -0.4581092 0.88889587
vn 0 -0.4581092 0.88889587
vn 0 -0.4581092 0.88889587
vn 0 -0.45810917 0.88889587
vn 0 -0.45810917 0.88889587
vn 0 -0.45810917 0.88889587
vn 0 -0.4581089 0.888896
vn 0 -0.4581089 0.888896
vn 0 -0.4581089 0.888896
vn 0 -0.7532625 0.6577199
vn 0 -0.7532625 0.6577199
vn 0 -0.7532625 0.6577199
vn 0 -0.91646636 0.40011173
vn 0 -0.91646636 0.40011173
vn 0 -0.91646636 0.40011173
vn 0 -0.91646636 0.40011176
vn 0 -0.91646636 0.40011176
vn 0 -0.91646636 0.40011176
vn 0 -0.91646636 0.40011173
vn 0 -0.91646636 0.40011173
vn 0 -0.91646636 0.40011173
vn 0.41546604 -0.9053579 -0.087836
vn 0.41546604 -0.9053579 -0.087836
vn 0.41546604 -0.9053579 -0.087836
vn 0.41546604 0.9053579 0.087836
vn 0.41546604 0.9053579 0.087836
vn 0.41546604 0.9053579 0.087836
vn 0.4140013 -0.5155235 -0.7502256
vn 0.4140013 -0.5155235 -0.7502256
vn 0.4140013 -0.5155235 -0.7502256
vn 0.41400138 -0.5155236 -0.7502254
vn 0.41400138 -0.5155236 -0.7502254
vn 0.41400138 -0.5155236 -0.7502254
vn 0.41400132 -0.5155233 -0.7502257
vn 0.41400132 -0.5155233 -0.7502257
vn 0.41400132 -0.5155233 -0.7502257
vn 0.41400123 -0.5155237 -0.75022554
vn 0.41400123 -0.5155237 -0.75022554
vn 0.41400123 -0.5155237 -0.75022554
vn 0.4140013 0.5155235 0.7502256
vn 0.4140013 0.5155235 0.7502256
vn 0.4140013 0.5155235 0.7502256
vn 0.41400138 0.5155236 0.7502254
vn 0.41400138 0.5155236 0.7502254
vn 0.41400138 0.5155236 0.7502254
vn 0.41400132 0.5155233 0.7502257
vn 0.41400132 0.5155233 0.7502257
vn 0.41400132 0.5155233 0.7502257
vn 0.41400123 0.5155237 0.75022554
vn 0.41400123 0.5155237 0.75022554
vn 0.41400123 0.5155237 0.75022554
vn 0 -0.2752558 0.96137106
vn 0 -0.2752558 0.96137106
vn 0 -0.2752558 0.96137106
vn 0 -0.27525586 0.961371
vn 0 -0.27525586 0.961371
vn 0 -0.27525586 0.961371
vn 0 -0.27525568 0.96137106
vn 0 -0.27525568 0.96137106
vn 0 -0.27525568 0.96137106
vn 0 -0.27525568 0.96137106
vn 0 -0.27525568 0.96137106
vn 0 -0.27525568 0.96137106
vn 0 -0.2752561 0.961371
vn 0 -0.2752561 0.961371
vn 0 -0.2752561 0.961371
vn 0 -0.2752561 0.961371
vn 0 -0.2752561 0.961371
vn 0 -0.2752561 0.961371
vn 0 -0.2752561 0.961371
vn 0 -0.2752561 0.961371
vn 0 -0.2752561 0.961371
vn 0 -0.27525523 0.9613711
vn 0 -0.27525523 0.9613711
vn 0 -0.27525523 0.9613711
vn 0 -0.27525523 0.9613711
vn 0 -0.27525523 0.9613711
vn 0 -0.27525523 0.9613711
vn 0 -0.9164663 0.4001119
vn 0 -0.9164663 0.4001119
vn 0 -0.9164663 0.4001119
vn 0 -0.9164665 0.40011147
vn 0 -0.9164665 0.40011147
vn 0 -0.9164665 0.40011147
vn 0 -0.75326264 0.6577199
vn 0 -0.75326264 0.6577199
vn 0 -0.75326264 0.6577199
vn 0.6004219 -0.7850416 -0.15232623
vn 0.6004219 -0.7850416 -0.15232623
vn 0.6004219 -0.7850416 -0.15232623
vn 0.6004219 0.7850416 0.15232623
vn 0.6004219 0.7850416 0.15232623
vn 0.6004219 0.7850416 0.15232623
vn 0 -0.7745071 0.63256526
vn 0 -0.7745071 0.63256526
vn 0 -0.7745071 0.63256526
vn 0 -0.7839245 0.62085605
vn 0 -0.7839245 0.62085605
vn 0 -0.7839245 0.62085605
vn 0 -0.87294346 0.48782128
vn 0 -0.87294346 0.48782128
vn 0 -0.87294346 0.48782128
vn 0.64369684 0.701354 -0.30619746
vn 0.64369684 0.701354 -0.30619746
vn 0.64369684 0.701354 -0.30619746
vn 0.64369684 -0.701354 0.30619746
vn 0.64369684 -0.701354 0.30619746
vn 0.64369684 -0.701354 0.30619746
vn 0 -0.85976523 0.5106895
vn 0 -0.85976523 0.5106895
vn 0 -0.85976523 0.5106895
vn 0 -0.8642395 0.5030806
vn 0 -0.8642395 0.5030806
vn 0 -0.8642395 0.5030806
f 1//1 2//2 3//3
f 4//4 5//5 6//6
f 7//7 8//8 9//9
f 10//10 11//11 12//12
f 13//13 14//14 15//15
f 16//16 17//17 18//18
f 19//19 20//20 21//21
f 22//22 23//23 24//24
f 25//25 26//26 27//27
f 28//28 29//29 30//30
f 31//31 32//32 33//33
f 34//34 35//35 36//36
f 37//37 38//38 39//39
f 40//40 41//41 42//42
f 43//43 44//44 45//45
f 46//46 47//47 48//48
f 49//49 50//50 51//51
f 52//52 53//53 54//54
f 55//55 56//56 57//57
f 58//58 59//59 60//60
f 61//61 62//62 63//63
f 64//64 65//65 66//66
f 67//67 68//68 69//69
f 70//70 71//71 72//72
f 73//73 74//74 75//75
f 76//76 77//77 78//78
f 79//79 80//80 81//81
f 82//82 83//83 84//84
f 85//85 86//86 87//87
f 88//88 89//89 90//90
f 91//91 92//92 93//93
f 94//94 95//95 96//96
f 97//97 98//98 99//99
f 100//100 101//101 102//102
f 103//103 104//104 105//105
f 106//106 107//107 108//108
f 109//109 110//110 111//111
f 112//112 113//113 114//114
f 115//115 116//116 117//117
f 118//118 119//119 120//120
f 121//121 122//122 123//123
f 124//124 125//125 126//126
f 127//127 128//128 129//129
f 130//130 131//131 132//132
f 133//133 134//134 135//135
f 136//136 137//137 138//138
f 139//139 140//140 141//141
f 142//142 143//143 144//144
f 145//145 146//146 147//147
f 148//148 149//149 150//150
f 151//151 152//152 153//153
f 154//154 155//155 156//156
f 157//157 158//158 159//159
f 160//160 161//161 162//162
f 163//163 164//164 165//165
f 166//166 167//167 168//168
f 169//169 170//170 171//171
f 172//172 173//173 174//174
f 175//175 176//176 177//177
f 178//178 179//179 180//180
f 181//181 182//182 183//183
f 184//184 185//185 186//186
f 187//187 188//188 189//189
f 190//190 191//191 192//192
f 193//193 194//194 195//195
f 196//196 197//197 198//198
f 199//199 200//200 201//201
f 202//202 203//203 204//204
f 205//205 206//206 207//207
f 208//208 209//209 210//210
f 211//211 212//212 213//213
f 214//214 215//215 216//216
f 217//217 218//218 219//219
f 220//220 221//221 222//222
f 223//223 224//224 225//225
f 226//226 227//227 228//228
f 229//229 230//230 231//231
f 232//232 233//233 234//234
f 235//235 236//236 237//237
f 238//238 239//239 240//240
f 241//241 242//242 243//243
f 244//244 245//245 246//246
f 247//247 248//248 249//249
f 250//250 251//251 252//252
f 253//253 254//254 255//255
f 256//256 257//257 258//258
f 259//259 260//260 261//261
f 262//262 263//263 264//264
f 265//265 266//266 267//267
f 268//268 269//269 270//270
f 271//271 272//272 273//273
f 274//274 275//275 276//276
f 277//277 278//278 279//279
f 280//280 281//281 282//282
f 283//283 284//284 285//285
f 286//286 287//287 288//288
f 289//289 290//290 291//291
f 292//292 293//293 294//294
f 295//295 296//296 297//297
f 298//298 299//299 300//300
f 301//301 302//302 303//303
f 304//304 305//305 306//306
f 307//307 308//308 309//309
f 310//310 311//311 312//312
f 313//313 314//314 315//315
f 316//316 317//317 318//318
f 319//319 320//320 321//321
f 322//322 323//323 324//324
f 325//325 326//326 327//327
f 328//328 329//329 330//330
