# Exported from SharpOpenGl procedural mesh
o nexar_bomber_mk3_41
# vertices 363
v -0.6349039 0.08950055 -1.3754152
v 0.6349039 0.08950055 -1.3754152
v 0 0.27968922 -1.0828269
v -0.6349039 0.08950055 -1.3754152
v 0 0.27968922 -1.0828269
v 0.32710725 0.15379812 -0.72521895
v 0.6349039 0.08950055 -1.3754152
v 2.1468751 0.15379812 -0.72521895
v 1.2369912 0.48061913 -1.0828269
v -0.6349039 0 -1.3754152
v 0.32710725 0 -0.72521895
v 0.6349039 0 -1.3754152
v 0.6349039 0 -1.3754152
v 0.32710725 0 -0.72521895
v 2.1468751 0 -0.72521895
v 0.32710725 0.15379812 -0.72521895
v 2.1468751 0.15379812 -0.72521895
v 1.2369912 0.48061913 -0.43263066
v 0.32710725 0.15379812 -0.72521895
v 1.2369912 0.48061913 -0.43263066
v 0.6137265 0.1935362 -0.0750227
v 2.1468751 0.15379812 -0.72521895
v 2.7733884 0.1935362 -0.0750227
v 1.6935574 0.60480064 -0.43263066
v 0.32710725 0 -0.72521895
v 0.6137265 0 -0.0750227
v 2.1468751 0 -0.72521895
v 2.1468751 0 -0.72521895
v 0.6137265 0 -0.0750227
v 2.7733884 0 -0.0750227
v 0.6137265 0.1935362 -0.0750227
v 2.7733884 0.1935362 -0.0750227
v 1.6935574 0.60480064 0.21756563
v 0.6137265 0.1935362 -0.0750227
v 1.6935574 0.60480064 0.21756563
v 0.0018174648 0.1935362 0.5751736
v 2.7733884 0.1935362 -0.0750227
v 2.1614792 0.1935362 0.5751736
v 1.0816483 0.60480064 0.21756563
v 0.6137265 0 -0.0750227
v 0.0018174648 0 0.5751736
v 2.7733884 0 -0.0750227
v 2.7733884 0 -0.0750227
v 0.0018174648 0 0.5751736
v 2.1614792 0 0.5751736
v 0.0018174648 0.1935362 0.5751736
v 2.1614792 0.1935362 0.5751736
v 1.0816483 0.60480064 0.8677619
v 0.0018174648 0.1935362 0.5751736
v 1.0816483 0.60480064 0.8677619
v -1.2562264 0.1537981 1.2253698
v 2.1614792 0.1935362 0.5751736
v 0.8308693 0.1537981 1.2253698
v -0.21267852 0.48061907 0.8677619
v 0.0018174648 0 0.5751736
v -1.2562264 0 1.2253698
v 2.1614792 0 0.5751736
v 2.1614792 0 0.5751736
v -1.2562264 0 1.2253698
v 0.8308693 0 1.2253698
v -1.2562264 0.1537981 1.2253698
v 0.8308693 0.1537981 1.2253698
v -0.21267852 0.48061907 1.5179582
v -1.2562264 0.1537981 1.2253698
v -0.21267852 0.48061907 1.5179582
v -2.0077293 0.08950054 1.8755661
v 0.8308693 0.1537981 1.2253698
v -0.73792154 0.08950054 1.8755661
v -1.3728254 0.2796892 1.5179582
v -1.2562264 0 1.2253698
v -2.0077293 0 1.8755661
v 0.8308693 0 1.2253698
v 0.8308693 0 1.2253698
v -2.0077293 0 1.8755661
v -0.73792154 0 1.8755661
v 1.1486747 0.11631832 -1.2503774
v 1.1486747 0.4652733 -1.2503774
v 2.2973497 0.17837957 -1.2503774
v -1.148675 0.11631831 -1.2503774
v -2.2973497 0.044594884 -1.2503774
v -1.148675 0.46527323 -1.2503774
v -0.22415066 0.11631832 1.3754151
v -0.22415066 0.4652733 1.3754151
v 0.9245243 0.17837957 1.3754151
v -2.5215003 0.11631831 1.3754151
v -3.670175 0.044594884 1.3754151
v -2.5215003 0.46527323 1.3754151
v -0.26106247 0.09546725 0.075022645
v 0.26106247 0.09546725 0.075022645
v 0 0.29833516 0.21006343
v -0.26106247 0.09546725 0.075022645
v 0 0.29833516 0.21006343
v 0.45685926 0.12927857 0.37511325
v 0.26106247 0.09546725 0.075022645
v 0.9006655 0.12927857 0.37511325
v 0.6787624 0.40399554 0.21006343
v -0.26106247 0 0.075022645
v 0.45685926 0 0.37511325
v 0.26106247 0 0.075022645
v 0.26106247 0 0.075022645
v 0.45685926 0 0.37511325
v 0.9006655 0 0.37511325
v 0.45685926 0.12927857 0.37511325
v 0.9006655 0.12927857 0.37511325
v 0.6787624 0.40399554 0.510154
v 0.45685926 0.12927857 0.37511325
v 0.6787624 0.40399554 0.510154
v -0.18274379 0.16308989 0.67520386
v 0.9006655 0.12927857 0.37511325
v 0.18274367 0.16308989 0.67520386
v -5.9339293E-08 0.5096559 0.510154
v 0.45685926 0 0.37511325
v -0.18274379 0 0.67520386
v 0.9006655 0 0.37511325
v 0.9006655 0 0.37511325
v -0.18274379 0 0.67520386
v 0.18274367 0 0.67520386
v -0.6787624 0 -0.050015096
v 0.6787624 0 -0.050015096
v 0 0.06215316 0.15004529
v 1.0442499 0.26104325 0.10003019
v 1.3314186 0.17402884 0.10003019
v 1.0442499 0.17402884 0.2292561
v 1.0442499 0.17402884 0.10003019
v 1.3314186 0.14357379 0.10003019
v 1.0442499 0.14357379 0.2292561
v 1.0442499 0.26104325 0.10003019
v 1.0442499 0.17402884 0.2292561
v 0.75708115 0.17402884 0.10003018
v 1.0442499 0.17402884 0.10003019
v 1.0442499 0.14357379 0.2292561
v 0.75708115 0.14357379 0.10003018
v 1.0442499 0.26104325 0.10003019
v 0.75708115 0.17402884 0.10003018
v 1.0442499 0.17402884 -0.029195718
v 1.0442499 0.17402884 0.10003019
v 0.75708115 0.14357379 0.10003018
v 1.0442499 0.14357379 -0.029195718
v 1.0442499 0.26104325 0.10003019
v 1.0442499 0.17402884 -0.029195718
v 1.3314186 0.17402884 0.10003021
v 1.0442499 0.17402884 0.10003019
v 1.0442499 0.14357379 -0.029195718
v 1.3314186 0.14357379 0.10003021
v -0.26106247 0.14916758 1.500453
v 0.26106247 0.14916758 1.500453
v 0 0.22375138 1.6504983
v -0.36548743 0 -1.2003623
v -0.36548743 0 -0.9502868
v 0.36548743 0 -0.9502868
v -0.36548743 0 -1.2003623
v 0.36548743 0 -0.9502868
v 0.36548743 0 -1.2003623
v -0.36548743 0.07458379 -1.2003623
v 0.36548743 0.07458379 -0.9502868
v -0.36548743 0.07458379 -0.9502868
v -0.36548743 0.07458379 -1.2003623
v 0.36548743 0.07458379 -1.2003623
v 0.36548743 0.07458379 -0.9502868
v -0.36548743 0 -1.2003623
v -0.36548743 0.07458379 -1.2003623
v -0.36548743 0.07458379 -0.9502868
v -0.36548743 0 -1.2003623
v -0.36548743 0.07458379 -0.9502868
v -0.36548743 0 -0.9502868
v 0.36548743 0 -1.2003623
v 0.36548743 0 -0.9502868
v 0.36548743 0.07458379 -0.9502868
v 0.36548743 0 -1.2003623
v 0.36548743 0.07458379 -0.9502868
v 0.36548743 0.07458379 -1.2003623
v -0.15663747 0.27347392 0.20006038
v 0.15663747 0.27347392 0.20006038
v 0 0.3107658 0.30009058
v -1.2690535 0.065424375 -1.4908347
v -1.7911783 0 -2.6395094
v -0.7469286 0 -2.6395094
v 0 0.065424375 -1.4908347
v -0.5221249 0 -2.6395094
v 0.5221249 0 -2.6395094
v 1.2690535 0.065424375 -1.4908347
v 0.7469286 0 -2.6395094
v 1.7911783 0 -2.6395094
v -1.1015013 0.14720486 -0.096182875
v -1.0471133 0.11449267 -0.076946296
v -1.1015013 0.09813657 -0.06732801
v -1.0561781 0.15538292 0.08416002
v -1.00179 0.12267072 0.1033966
v -1.0561781 0.1042701 0.113014884
v -1.0108547 0.16356096 0.2645029
v -0.95646673 0.13084875 0.28373948
v -1.0108547 0.110403635 0.2933578
v -0.96553147 0.17173901 0.4448458
v -0.9111435 0.1390268 0.46408236
v -0.96553147 0.116537176 0.47370067
v -0.9202081 0.17991704 0.6251887
v -0.8658201 0.14720486 0.6444253
v -0.9202081 0.1226707 0.65404356
v 1.1015013 0.14720486 -0.096182875
v 1.0471133 0.11449267 -0.076946296
v 1.1015013 0.09813657 -0.06732801
v 1.0561781 0.15538292 0.08416002
v 1.00179 0.12267072 0.1033966
v 1.0561781 0.1042701 0.113014884
v 1.0108547 0.16356096 0.2645029
v 0.95646673 0.13084875 0.28373948
v 1.0108547 0.110403635 0.2933578
v 0.96553147 0.17173901 0.4448458
v 0.9111435 0.1390268 0.46408236
v 0.96553147 0.116537176 0.47370067
v 0.9202081 0.17991704 0.6251887
v 0.8658201 0.14720486 0.6444253
v 0.9202081 0.1226707 0.65404356
v -0.63013875 0.3761902 -0.14427432
v 0.63013875 0.3761902 -0.14427432
v 0.05 0.42525846 -0.12984689
v -0.53042734 0.38436824 0.060114294
v 0.53042734 0.38436824 0.060114294
v 0.05 0.43343648 0.074541725
v -0.43071604 0.3925463 0.2645029
v 0.43071604 0.3925463 0.2645029
v 0.05 0.44161454 0.27893034
v -0.3310047 0.40072435 0.46889153
v 0.3310047 0.40072435 0.46889153
v 0.05 0.44979256 0.48331895
v -0.23129334 0.40890238 0.6732801
v 0.23129334 0.40890238 0.6732801
v 0.05 0.45797068 0.68770754
v -0.78394943 0.032712188 -0.14427432
v 0.88394946 0.032712188 -0.14427432
v 0.05 0.09813657 -0.12503774
v -0.642178 0.032712188 0.2164115
v 0.742178 0.032712188 0.2164115
v 0.05 0.106314614 0.23564808
v -0.5004066 0.032712188 0.5770973
v 0.60040665 0.032712188 0.5770973
v 0.05 0.11449267 0.59633386
v -0.66639745 0.16356096 0.048091438
v -0.61200947 0.19627313 0.072137155
v -0.66639745 0.13084875 0.0769463
v -0.63013875 0.14720486 0.057709727
v -0.66639745 0.17991704 0.06732801
v -0.6482681 0.11449267 0.072137155
v -0.66639745 0.16356096 0.19236575
v -0.61200947 0.19627313 0.21641147
v -0.66639745 0.13084875 0.22122061
v -0.66639745 0.16356096 0.3366401
v -0.61200947 0.19627313 0.3606858
v -0.66639745 0.13084875 0.36549497
v -0.63013875 0.14720486 0.34625837
v -0.66639745 0.17991704 0.35587665
v -0.6482681 0.11449267 0.3606858
v 0.66639745 0.16356096 0.048091438
v 0.61200947 0.19627313 0.072137155
v 0.66639745 0.13084875 0.0769463
v 0.63013875 0.14720486 0.057709727
v 0.66639745 0.17991704 0.06732801
v 0.6482681 0.11449267 0.072137155
v 0.66639745 0.16356096 0.19236575
v 0.61200947 0.19627313 0.21641147
v 0.66639745 0.13084875 0.22122061
v 0.66639745 0.16356096 0.3366401
v 0.61200947 0.19627313 0.3606858
v 0.66639745 0.13084875 0.36549497
v 0.63013875 0.14720486 0.34625837
v 0.66639745 0.17991704 0.35587665
v 0.6482681 0.11449267 0.3606858
v -0.48510405 0.35983407 -0.048091438
v 0.48510405 0.35983407 -0.048091438
v 0.05 0.39254627 -0.033664007
v -0.34006938 0.3761902 0.2645029
v 0.34006938 0.3761902 0.2645029
v 0.05 0.40890238 0.27893034
v -0.19503468 0.39254627 0.5770973
v 0.19503468 0.39254627 0.5770973
v 0.05 0.42525846 0.5915247
v -0.13129336 0.032712188 -0.2404572
v 0.23129335 0.032712188 -0.2404572
v 0.05 0.08178048 -0.19236575
v -0.43510407 0.032712188 -0.28854865
v -0.21755207 0.032712188 -0.28854865
v -0.32632807 0.08178048 -0.19236575
v -0.10877601 0.032712188 -0.28854865
v 0.10877601 0.032712188 -0.28854865
v 0 0.08178048 -0.19236575
v 0.21755207 0.032712188 -0.28854865
v 0.43510407 0.032712188 -0.28854865
v 0.32632807 0.08178048 -0.19236575
v -0.3625867 0.032712188 0.14427432
v 0.3625867 0.032712188 0.14427432
v 0 0.08178048 0.2404572
v -0.29006937 0.032712188 0.048091438
v 0.29006937 0.032712188 0.048091438
v 0 0.07360242 0.06251887
v -0.25018483 0.039254628 0.15389262
v 0.25018483 0.039254628 0.15389262
v 0 0.08014487 0.16832006
v -0.21030028 0.04579707 0.2596938
v 0.21030028 0.04579707 0.2596938
v 0 0.08668731 0.27412122
v -0.17041574 0.0523395 0.365495
v 0.17041574 0.0523395 0.365495
v 0 0.09322974 0.37992242
v -0.1305312 0.05888194 0.47129616
v 0.1305312 0.05888194 0.47129616
v 0 0.09977218 0.48572358
v -0.09064667 0.065424375 0.5770973
v 0.09064667 0.065424375 0.5770973
v 0 0.106314614 0.5915247
v -0.2538107 0.049068283 0.14427432
v 0.2538107 0.049068283 0.14427432
v 0 0.09813657 0.15870176
v -0.2054658 0.049068283 0.2645029
v 0.2054658 0.049068283 0.2645029
v 0 0.09813657 0.27893034
v -0.15712091 0.049068283 0.3847315
v 0.15712091 0.049068283 0.3847315
v 0 0.09813657 0.39915892
v -0.10877602 0.049068283 0.5049601
v 0.10877602 0.049068283 0.5049601
v 0 0.09813657 0.51938754
v -0.18129335 0.35983407 -0.048091438
v 0.18129335 0.35983407 -0.048091438
v 0 0.40890235 -0.036068577
v -0.15409936 0.37210116 0.084160015
v 0.15409936 0.37210116 0.084160015
v 0 0.42116943 0.096182875
v -0.12690535 0.38436824 0.21641147
v 0.12690535 0.38436824 0.21641147
v 0 0.4334365 0.22843432
v -0.09971134 0.3966353 0.34866294
v 0.09971134 0.3966353 0.34866294
v 0 0.44570357 0.3606858
v -0.07251734 0.40890238 0.48091438
v 0.07251734 0.40890238 0.48091438
v 0 0.45797065 0.49293724
v -0.18129335 0.049068283 -0.19236575
v 0.18129335 0.049068283 -0.19236575
v 0 0.09813657 -0.1803429
v -0.18129335 0.049068283 -0.2645029
v 0.18129335 0.049068283 -0.2645029
v 0 0.09813657 -0.25248006
v -0.06877601 0.17991704 2.167962
v 0.14877601 0.17991704 2.167962
v 0.04 0.35983407 2.3564806
v -0.014388006 0.3271219 2.2857862
v 0.09438801 0.3271219 2.2857862
v 0.04 0.39254627 2.3564806
v -0.10503469 0.72228515 0.28854865
v 0.18503469 0.72228515 0.28854865
v 0.04 0.78509253 0.3847315
v -1.3453122 0.29440972 0.3366401
v -1.3453122 0.343478 0.43282297
v -1.2909242 0.3271219 0.5290058
v 1.3453122 0.29440972 0.3366401
v 1.3453122 0.343478 0.43282297
v 1.2909242 0.3271219 0.5290058
v -0.032517344 0.35983407 2.4036102
v 0.11251734 0.35983407 2.4036102
v 0.04 0.42525846 2.4978693
v -0.17755201 0.049068283 -0.3847315
v 0.25755203 0.049068283 -0.3847315
v 0.04 0.11449267 -0.28854862
vn 0 -0.8384354 0.5450009
vn 0 -0.8384354 0.5450009
vn 0 -0.8384354 0.5450009
vn 0.47634783 -0.59670615 -0.6457822
vn 0.47634783 -0.59670615 -0.6457822
vn 0.47634783 -0.59670615 -0.6457822
vn -0.39060885 -0.08444484 0.9166754
vn -0.39060885 -0.08444484 0.9166754
vn -0.39060885 -0.08444484 0.9166754
vn 0 1 0
vn 0 1 0
vn 0 1 0
vn 0 1 -0
vn 0 1 -0
vn 0 1 -0
vn 0 -0.6670094 0.7450493
vn 0 -0.6670094 0.7450493
vn 0 -0.6670094 0.7450493
vn 0.36584997 -0.92475945 -0.104755245
vn 0.36584997 -0.92475945 -0.104755245
vn 0.36584997 -0.92475945 -0.104755245
vn -0.44628182 -0.75759107 0.47632805
vn -0.44628182 -0.75759107 0.47632805
vn -0.44628182 -0.75759107 0.47632805
vn 0 1 0
vn 0 1 0
vn 0 1 0
vn 0 1 -0
vn 0 1 -0
vn 0 1 -0
vn 0 -0.5796996 0.8148303
vn 0 -0.5796996 0.8148303
vn 0 -0.5796996 0.8148303
vn 0.28012303 -0.9230555 0.26362777
vn 0.28012303 -0.9230555 0.26362777
vn 0.28012303 -0.9230555 0.26362777
vn -0.26971325 -0.92888343 -0.25383103
vn -0.26971325 -0.92888343 -0.25383103
vn -0.26971325 -0.92888343 -0.25383103
vn 0 1 -0
vn 0 1 -0
vn 0 1 -0
vn 0 1 0
vn 0 1 0
vn 0 1 0
vn 0 -0.5796995 0.8148303
vn 0 -0.5796995 0.8148303
vn 0 -0.5796995 0.8148303
vn 0.23185764 -0.88926786 0.39426452
vn 0.23185764 -0.88926786 0.39426452
vn 0.23185764 -0.88926786 0.39426452
vn -0.15682168 -0.91295266 -0.37672862
vn -0.15682168 -0.91295266 -0.37672862
vn -0.15682168 -0.91295266 -0.37672862
vn 0 1 -0
vn 0 1 -0
vn 0 1 -0
vn 0 1 0
vn 0 1 0
vn 0 1 0
vn 0 -0.6670095 0.7450491
vn 0 -0.6670095 0.7450491
vn 0 -0.6670095 0.7450491
vn 0.24484797 -0.9509704 0.18895659
vn 0.24484797 -0.9509704 0.18895659
vn 0.24484797 -0.9509704 0.18895659
vn -0.09715858 -0.9398883 -0.32736886
vn -0.09715858 -0.9398883 -0.32736886
vn -0.09715858 -0.9398883 -0.32736886
vn 0 1 -0
vn 0 1 -0
vn 0 1 -0
vn 0 1 0
vn 0 1 0
vn 0 1 0
vn 0 0 -1
vn 0 0 -1
vn 0 0 -1
vn -0 0 -0.99999994
vn -0 0 -0.99999994
vn -0 0 -0.99999994
vn 0 0 -1
vn 0 0 -1
vn 0 0 -1
vn -0 0 -0.99999994
vn -0 0 -0.99999994
vn -0 0 -0.99999994
vn 0 -0.5541191 0.8324373
vn 0 -0.5541191 0.8324373
vn 0 -0.5541191 0.8324373
vn 0.37764046 0.12477612 -0.91750664
vn 0.37764046 0.12477612 -0.91750664
vn 0.37764046 0.12477612 -0.91750664
vn -0.42529663 0.18832055 0.8852447
vn -0.42529663 0.18832055 0.8852447
vn -0.42529663 0.18832055 0.8852447
vn 0 1 0
vn 0 1 0
vn 0 1 0
vn 0 1 0
vn 0 1 0
vn 0 1 0
vn 0 -0.44114617 0.8974353
vn 0 -0.44114617 0.8974353
vn 0 -0.44114617 0.8974353
vn 0.31018618 -0.60928065 0.7297682
vn 0.31018618 -0.60928065 0.7297682
vn 0.31018618 -0.60928065 0.7297682
vn -0.34494326 -0.54561913 -0.76374996
vn -0.34494326 -0.54561913 -0.76374996
vn -0.34494326 -0.54561913 -0.76374996
vn 0 1 -0
vn 0 1 -0
vn 0 1 -0
vn 0 0.99999994 0
vn 0 0.99999994 0
vn 0 0.99999994 0
vn 0 -0.95497566 0.2966842
vn 0 -0.95497566 0.2966842
vn 0 -0.95497566 0.2966842
vn -0.24375834 -0.8044619 -0.5416853
vn -0.24375834 -0.8044619 -0.5416853
vn -0.24375834 -0.8044619 -0.5416853
vn -0.10267931 -0.9681904 -0.22817628
vn -0.10267931 -0.9681904 -0.22817628
vn -0.10267931 -0.9681904 -0.22817628
vn 0.24375835 -0.8044619 -0.5416853
vn 0.24375835 -0.8044619 -0.5416853
vn 0.24375835 -0.8044619 -0.5416853
vn 0.10267933 -0.9681904 -0.22817628
vn 0.10267933 -0.9681904 -0.22817628
vn 0.10267933 -0.9681904 -0.22817628
vn 0.2437583 -0.8044619 0.5416853
vn 0.2437583 -0.8044619 0.5416853
vn 0.2437583 -0.8044619 0.5416853
vn 0.1026793 -0.9681904 0.22817628
vn 0.1026793 -0.9681904 0.22817628
vn 0.1026793 -0.9681904 0.22817628
vn -0.24375837 -0.8044619 0.5416853
vn -0.24375837 -0.8044619 0.5416853
vn -0.24375837 -0.8044619 0.5416853
vn -0.10267933 -0.9681904 0.22817628
vn -0.10267933 -0.9681904 0.22817628
vn -0.10267933 -0.9681904 0.22817628
vn 0 -0.8954723 0.44511718
vn 0 -0.8954723 0.44511718
vn 0 -0.8954723 0.44511718
vn 0 1 0
vn 0 1 0
vn 0 1 0
vn 0 1 0
vn 0 1 0
vn 0 1 0
vn 0 -1 0
vn 0 -1 0
vn 0 -1 0
vn 0 -1 0
vn 0 -1 0
vn 0 -1 0
vn 1 0 0
vn 1 0 0
vn 1 0 0
vn 1 0 0
vn 1 0 0
vn 1 0 0
vn -1 0 0
vn -1 0 0
vn -1 0 0
vn -1 0 0
vn -1 0 0
vn -1 0 0
vn 0 -0.9370032 0.34932065
vn 0 -0.9370032 0.34932065
vn 0 -0.9370032 0.34932065
vn 0 -0.9983819 0.05686424
vn 0 -0.9983819 0.05686424
vn 0 -0.9983819 0.05686424
vn 0 -0.9983819 0.05686424
vn 0 -0.9983819 0.05686424
vn 0 -0.9983819 0.05686424
vn 0 -0.9983819 0.05686424
vn 0 -0.9983819 0.05686424
vn 0 -0.9983819 0.05686424
vn 1.1280681E-07 -0.5069048 -0.8620021
vn 1.1280681E-07 -0.5069048 -0.8620021
vn 1.1280681E-07 -0.5069048 -0.8620021
vn 0.012319217 -0.49156812 -0.87075204
vn 0.012319217 -0.49156812 -0.87075204
vn 0.012319217 -0.49156812 -0.87075204
vn 0.023904163 -0.47693056 -0.87861586
vn 0.023904163 -0.47693056 -0.87861586
vn 0.023904163 -0.47693056 -0.87861586
vn 0.03480652 -0.46296558 -0.8856926
vn 0.03480652 -0.46296558 -0.8856926
vn 0.03480652 -0.46296558 -0.8856926
vn 0.04507402 -0.44964495 -0.8920694
vn 0.04507402 -0.44964495 -0.8920694
vn 0.04507402 -0.44964495 -0.8920694
vn 1.1280681E-07 0.5069048 0.8620021
vn 1.1280681E-07 0.5069048 0.8620021
vn 1.1280681E-07 0.5069048 0.8620021
vn 0.012319217 0.49156812 0.87075204
vn 0.012319217 0.49156812 0.87075204
vn 0.012319217 0.49156812 0.87075204
vn 0.023904163 0.47693056 0.87861586
vn 0.023904163 0.47693056 0.87861586
vn 0.023904163 0.47693056 0.87861586
vn 0.03480652 0.46296558 0.8856926
vn 0.03480652 0.46296558 0.8856926
vn 0.03480652 0.46296558 0.8856926
vn 0.04507402 0.44964495 0.8920694
vn 0.04507402 0.44964495 0.8920694
vn 0.04507402 0.44964495 0.8920694
vn 0 -0.28208703 0.95938885
vn 0 -0.28208703 0.95938885
vn 0 -0.28208703 0.95938885
vn 0 -0.28208703 0.9593888
vn 0 -0.28208703 0.9593888
vn 0 -0.28208703 0.9593888
vn 0 -0.28208694 0.95938885
vn 0 -0.28208694 0.95938885
vn 0 -0.28208694 0.95938885
vn 0 -0.2820871 0.95938885
vn 0 -0.2820871 0.95938885
vn 0 -0.2820871 0.95938885
vn 0 -0.2820866 0.959389
vn 0 -0.2820866 0.959389
vn 0 -0.2820866 0.959389
vn 0 -0.28208688 0.95938885
vn 0 -0.28208688 0.95938885
vn 0 -0.28208688 0.95938885
vn 0 -0.25286427 0.9675017
vn 0 -0.25286427 0.9675017
vn 0 -0.25286427 0.9675017
vn 0 -0.22897276 0.9734328
vn 0 -0.22897276 0.9734328
vn 0 -0.22897276 0.9734328
vn 0.58931047 -0.53443646 -0.6058804
vn 0.58931047 -0.53443646 -0.6058804
vn 0.58931047 -0.53443646 -0.6058804
vn 0.39801213 0.17646512 0.90024793
vn 0.39801213 0.17646512 0.90024793
vn 0.39801213 0.17646512 0.90024793
vn 0.58931047 -0.5344364 -0.6058804
vn 0.58931047 -0.5344364 -0.6058804
vn 0.58931047 -0.5344364 -0.6058804
vn 0.58931035 -0.5344366 -0.60588026
vn 0.58931035 -0.5344366 -0.60588026
vn 0.58931035 -0.5344366 -0.60588026
vn 0.39801204 0.17646512 0.90024805
vn 0.39801204 0.17646512 0.90024805
vn 0.39801204 0.17646512 0.90024805
vn 0.58931047 0.53443646 0.6058804
vn 0.58931047 0.53443646 0.6058804
vn 0.58931047 0.53443646 0.6058804
vn 0.39801213 -0.17646512 -0.90024793
vn 0.39801213 -0.17646512 -0.90024793
vn 0.39801213 -0.17646512 -0.90024793
vn 0.58931047 0.5344364 0.6058804
vn 0.58931047 0.5344364 0.6058804
vn 0.58931047 0.5344364 0.6058804
vn 0.58931035 0.5344366 0.60588026
vn 0.58931035 0.5344366 0.60588026
vn 0.58931035 0.5344366 0.60588026
vn 0.39801204 -0.17646512 -0.90024805
vn 0.39801204 -0.17646512 -0.90024805
vn 0.39801204 -0.17646512 -0.90024805
vn 0 -0.40353674 0.91496336
vn 0 -0.40353674 0.91496336
vn 0 -0.40353674 0.91496336
vn 0 -0.4035366 0.9149635
vn 0 -0.4035366 0.9149635
vn 0 -0.4035366 0.9149635
vn 0 -0.40353662 0.91496354
vn 0 -0.40353662 0.91496354
vn 0 -0.40353662 0.91496354
vn 0 -0.69996214 0.7141798
vn 0 -0.69996214 0.7141798
vn 0 -0.69996214 0.7141798
vn 0 -0.89077914 0.4544364
vn 0 -0.89077914 0.4544364
vn 0 -0.89077914 0.4544364
vn 0 -0.89077926 0.45443645
vn 0 -0.89077926 0.45443645
vn 0 -0.89077926 0.45443645
vn 0 -0.89077914 0.4544364
vn 0 -0.89077914 0.4544364
vn 0 -0.89077914 0.4544364
vn 0 -0.89077914 0.45443648
vn 0 -0.89077914 0.45443648
vn 0 -0.89077914 0.45443648
vn 0 -0.33272964 0.94302225
vn 0 -0.33272964 0.94302225
vn 0 -0.33272964 0.94302225
vn 0 -0.33272964 0.94302225
vn 0 -0.33272964 0.94302225
vn 0 -0.33272964 0.94302225
vn 0 -0.33272937 0.94302243
vn 0 -0.33272937 0.94302243
vn 0 -0.33272937 0.94302243
vn 0 -0.33272937 0.9430223
vn 0 -0.33272937 0.9430223
vn 0 -0.33272937 0.9430223
vn 0 -0.33272937 0.9430224
vn 0 -0.33272937 0.9430224
vn 0 -0.33272937 0.9430224
vn 0 -0.33272934 0.9430223
vn 0 -0.33272934 0.9430223
vn 0 -0.33272934 0.9430223
vn 0 -0.28208697 0.9593888
vn 0 -0.28208697 0.9593888
vn 0 -0.28208697 0.9593888
vn 0 -0.2820867 0.9593889
vn 0 -0.2820867 0.9593889
vn 0 -0.2820867 0.9593889
vn 0 -0.28208667 0.9593889
vn 0 -0.28208667 0.9593889
vn 0 -0.28208667 0.9593889
vn 0 -0.2820867 0.9593889
vn 0 -0.2820867 0.9593889
vn 0 -0.2820867 0.9593889
vn 0 -0.23798338 0.97126925
vn 0 -0.23798338 0.97126925
vn 0 -0.23798338 0.97126925
vn 0 -0.23798339 0.9712692
vn 0 -0.23798339 0.9712692
vn 0 -0.23798339 0.9712692
vn 0 -0.23798327 0.9712693
vn 0 -0.23798327 0.9712693
vn 0 -0.23798327 0.9712693
vn 0 -0.23798326 0.97126925
vn 0 -0.23798326 0.97126925
vn 0 -0.23798326 0.97126925
vn 0 -0.23798327 0.97126925
vn 0 -0.23798327 0.97126925
vn 0 -0.23798327 0.97126925
vn 0 -0.23798321 0.9712693
vn 0 -0.23798321 0.9712693
vn 0 -0.23798321 0.9712693
vn 0 -0.23798321 0.9712693
vn 0 -0.23798321 0.9712693
vn 0 -0.23798321 0.9712693
vn 0 -0.72341776 0.6904106
vn 0 -0.72341776 0.6904106
vn 0 -0.72341776 0.6904106
vn 0 -0.7339338 0.6792209
vn 0 -0.7339338 0.6792209
vn 0 -0.7339338 0.6792209
vn 0 -0.83729416 0.54675287
vn 0 -0.83729416 0.54675287
vn 0 -0.83729416 0.54675287
vn 0.7310887 0.60776293 -0.3100539
vn 0.7310887 0.60776293 -0.3100539
vn 0.7310887 0.60776293 -0.3100539
vn 0.7310887 -0.60776293 0.3100539
vn 0.7310887 -0.60776293 0.3100539
vn 0.7310887 -0.60776293 0.3100539
vn 0 -0.8215058 0.57020015
vn 0 -0.8215058 0.57020015
vn 0 -0.8215058 0.57020015
vn 0 -0.82684654 0.56242776
vn 0 -0.82684654 0.56242776
vn 0 -0.82684654 0.56242776
f 1//1 2//2 3//3
f 4//4 5//5 6//6
f 7//7 8//8 9//9
f 10//10 11//11 12//12
f 13//13 14//14 15//15
f 16//16 17//17 18//18
f 19//19 20//20 21//21
f 22//22 23//23 24//24
f 25//25 26//26 27//27
f 28//28 29//29 30//30
f 31//31 32//32 33//33
f 34//34 35//35 36//36
f 37//37 38//38 39//39
f 40//40 41//41 42//42
f 43//43 44//44 45//45
f 46//46 47//47 48//48
f 49//49 50//50 51//51
f 52//52 53//53 54//54
f 55//55 56//56 57//57
f 58//58 59//59 60//60
f 61//61 62//62 63//63
f 64//64 65//65 66//66
f 67//67 68//68 69//69
f 70//70 71//71 72//72
f 73//73 74//74 75//75
f 76//76 77//77 78//78
f 79//79 80//80 81//81
f 82//82 83//83 84//84
f 85//85 86//86 87//87
f 88//88 89//89 90//90
f 91//91 92//92 93//93
f 94//94 95//95 96//96
f 97//97 98//98 99//99
f 100//100 101//101 102//102
f 103//103 104//104 105//105
f 106//106 107//107 108//108
f 109//109 110//110 111//111
f 112//112 113//113 114//114
f 115//115 116//116 117//117
f 118//118 119//119 120//120
f 121//121 122//122 123//123
f 124//124 125//125 126//126
f 127//127 128//128 129//129
f 130//130 131//131 132//132
f 133//133 134//134 135//135
f 136//136 137//137 138//138
f 139//139 140//140 141//141
f 142//142 143//143 144//144
f 145//145 146//146 147//147
f 148//148 149//149 150//150
f 151//151 152//152 153//153
f 154//154 155//155 156//156
f 157//157 158//158 159//159
f 160//160 161//161 162//162
f 163//163 164//164 165//165
f 166//166 167//167 168//168
f 169//169 170//170 171//171
f 172//172 173//173 174//174
f 175//175 176//176 177//177
f 178//178 179//179 180//180
f 181//181 182//182 183//183
f 184//184 185//185 186//186
f 187//187 188//188 189//189
f 190//190 191//191 192//192
f 193//193 194//194 195//195
f 196//196 197//197 198//198
f 199//199 200//200 201//201
f 202//202 203//203 204//204
f 205//205 206//206 207//207
f 208//208 209//209 210//210
f 211//211 212//212 213//213
f 214//214 215//215 216//216
f 217//217 218//218 219//219
f 220//220 221//221 222//222
f 223//223 224//224 225//225
f 226//226 227//227 228//228
f 229//229 230//230 231//231
f 232//232 233//233 234//234
f 235//235 236//236 237//237
f 238//238 239//239 240//240
f 241//241 242//242 243//243
f 244//244 245//245 246//246
f 247//247 248//248 249//249
f 250//250 251//251 252//252
f 253//253 254//254 255//255
f 256//256 257//257 258//258
f 259//259 260//260 261//261
f 262//262 263//263 264//264
f 265//265 266//266 267//267
f 268//268 269//269 270//270
f 271//271 272//272 273//273
f 274//274 275//275 276//276
f 277//277 278//278 279//279
f 280//280 281//281 282//282
f 283//283 284//284 285//285
f 286//286 287//287 288//288
f 289//289 290//290 291//291
f 292//292 293//293 294//294
f 295//295 296//296 297//297
f 298//298 299//299 300//300
f 301//301 302//302 303//303
f 304//304 305//305 306//306
f 307//307 308//308 309//309
f 310//310 311//311 312//312
f 313//313 314//314 315//315
f 316//316 317//317 318//318
f 319//319 320//320 321//321
f 322//322 323//323 324//324
f 325//325 326//326 327//327
f 328//328 329//329 330//330
f 331//331 332//332 333//333
f 334//334 335//335 336//336
f 337//337 338//338 339//339
f 340//340 341//341 342//342
f 343//343 344//344 345//345
f 346//346 347//347 348//348
f 349//349 350//350 351//351
f 352//352 353//353 354//354
f 355//355 356//356 357//357
f 358//358 359//359 360//360
f 361//361 362//362 363//363
