# Exported from SharpOpenGl procedural mesh
o drone_swarm
# vertices 309
v -0.08706814 -0.002414101 -0.2503662
v -0.08706814 -0.002414101 0.25837794
v 0.08706814 -0.002414101 0.25837794
v -0.08706814 -0.002414101 -0.2503662
v 0.08706814 -0.002414101 0.25837794
v 0.08706814 -0.002414101 -0.2503662
v -0.08706814 0.015691657 -0.2503662
v 0.08706814 0.015691657 0.25837794
v -0.08706814 0.015691657 0.25837794
v -0.08706814 0.015691657 -0.2503662
v 0.08706814 0.015691657 -0.2503662
v 0.08706814 0.015691657 0.25837794
v -0.08706814 0.0064376025 -0.2503662
v 0.08706814 0.0064376025 -0.2503662
v -0.08706814 0.0064376025 -0.19694808
v -0.08706814 0.0064376025 -0.2503662
v 0.08706814 0.0064376025 -0.19694808
v 0.08706814 0.0064376025 -0.2503662
v -0.047887478 0.0010058754 -0.2503662
v 0.047887478 0.0010058754 -0.2503662
v -0.047887478 -0.0016094006 -0.19694808
v 0.047887478 0.0010058754 -0.2503662
v 0.047887478 -0.0016094006 -0.19694808
v -0.047887478 -0.0016094006 -0.19694808
v -0.08706814 0.0064376025 -0.08078483
v 0.08706814 0.0064376025 -0.08078483
v -0.08706814 0.0064376025 -0.027366698
v -0.08706814 0.0064376025 -0.08078483
v 0.08706814 0.0064376025 -0.027366698
v 0.08706814 0.0064376025 -0.08078483
v -0.047887478 0.0010058754 -0.08078483
v 0.047887478 0.0010058754 -0.08078483
v -0.047887478 -0.0016094006 -0.027366698
v 0.047887478 0.0010058754 -0.08078483
v 0.047887478 -0.0016094006 -0.027366698
v -0.047887478 -0.0016094006 -0.027366698
v -0.08706814 0.0064376025 0.088796556
v 0.08706814 0.0064376025 0.088796556
v -0.08706814 0.0064376025 0.14221469
v -0.08706814 0.0064376025 0.088796556
v 0.08706814 0.0064376025 0.14221469
v 0.08706814 0.0064376025 0.088796556
v -0.047887478 0.0010058754 0.088796556
v 0.047887478 0.0010058754 0.088796556
v -0.047887478 -0.0016094006 0.14221469
v 0.047887478 0.0010058754 0.088796556
v 0.047887478 -0.0016094006 0.14221469
v -0.047887478 -0.0016094006 0.14221469
v -0.08706814 0.0064376025 0.2583779
v 0.08706814 0.0064376025 0.2583779
v -0.08706814 0.0064376025 0.31179604
v -0.08706814 0.0064376025 0.2583779
v 0.08706814 0.0064376025 0.31179604
v 0.08706814 0.0064376025 0.2583779
v -0.047887478 0.0010058754 0.2583779
v 0.047887478 0.0010058754 0.2583779
v -0.047887478 -0.0016094006 0.31179604
v 0.047887478 0.0010058754 0.2583779
v 0.047887478 -0.0016094006 0.31179604
v -0.047887478 -0.0016094006 0.31179604
v 0 0.051730737 0.07510986
v 0.18284309 0.051730737 0.07510986
v -7.992325E-09 0.051730737 0.25795296
v 0 0.0071848244 0.07510986
v -7.992325E-09 0.0071848244 0.25795296
v 0.18284309 0.0071848244 0.07510986
v 0 0.051730737 0.07510986
v -7.992325E-09 0.051730737 0.25795296
v -0.18284309 0.051730737 0.07510985
v 0 0.0071848244 0.07510986
v -0.18284309 0.0071848244 0.07510985
v -7.992325E-09 0.0071848244 0.25795296
v 0 0.051730737 0.07510986
v -0.18284309 0.051730737 0.07510985
v 2.180382E-09 0.051730737 -0.10773323
v 0 0.0071848244 0.07510986
v 2.180382E-09 0.0071848244 -0.10773323
v -0.18284309 0.0071848244 0.07510985
v 0 0.051730737 0.07510986
v 2.180382E-09 0.051730737 -0.10773323
v 0.18284309 0.051730737 0.07510989
v 0 0.0071848244 0.07510986
v 0.18284309 0.0071848244 0.07510989
v 2.180382E-09 0.0071848244 -0.10773323
v -0.16542946 0.04454591 -0.06259155
v -0.008706793 0.04454591 -0.06259155
v -0.16542946 0.04454591 0.09413111
v -0.16542946 0.0057478594 -0.06259155
v -0.16542946 0.0057478594 0.09413111
v -0.008706793 0.0057478594 -0.06259155
v -0.16542946 0.04454591 -0.06259155
v -0.16542946 0.04454591 0.09413111
v -0.32215214 0.04454591 -0.06259157
v -0.16542946 0.0057478594 -0.06259155
v -0.32215214 0.0057478594 -0.06259157
v -0.16542946 0.0057478594 0.09413111
v -0.16542946 0.04454591 -0.06259155
v -0.32215214 0.04454591 -0.06259157
v -0.16542946 0.04454591 -0.21931422
v -0.16542946 0.0057478594 -0.06259155
v -0.16542946 0.0057478594 -0.21931422
v -0.32215214 0.0057478594 -0.06259157
v -0.16542946 0.04454591 -0.06259155
v -0.16542946 0.04454591 -0.21931422
v -0.008706793 0.04454591 -0.06259152
v -0.16542946 0.0057478594 -0.06259155
v -0.008706793 0.0057478594 -0.06259152
v -0.16542946 0.0057478594 -0.21931422
v 0.15672266 0.043108944 -0.08762817
v 0.30473852 0.043108944 -0.08762817
v 0.15672266 0.043108944 0.06038767
v 0.15672266 0.0057478594 -0.08762817
v 0.15672266 0.0057478594 0.06038767
v 0.30473852 0.0057478594 -0.08762817
v 0.15672266 0.043108944 -0.08762817
v 0.15672266 0.043108944 0.06038767
v 0.008706823 0.043108944 -0.087628186
v 0.15672266 0.0057478594 -0.08762817
v 0.008706823 0.0057478594 -0.087628186
v 0.15672266 0.0057478594 0.06038767
v 0.15672266 0.043108944 -0.08762817
v 0.008706823 0.043108944 -0.087628186
v 0.15672266 0.043108944 -0.23564401
v 0.15672266 0.0057478594 -0.08762817
v 0.15672266 0.0057478594 -0.23564401
v 0.008706823 0.0057478594 -0.087628186
v 0.15672266 0.043108944 -0.08762817
v 0.15672266 0.043108944 -0.23564401
v 0.30473852 0.043108944 -0.08762815
v 0.15672266 0.0057478594 -0.08762817
v 0.30473852 0.0057478594 -0.08762815
v 0.15672266 0.0057478594 -0.23564401
v -0.017413627 0.051730737 -0.01251831
v 0.017413627 0.051730737 -0.01251831
v 0 0.057478596 -0.0074609127
v -0.034827255 0.010058754 0.25236914
v 0.034827255 0.010058754 0.25236914
v 0 0.028739298 0.30043945
v -0.0130602205 0.025865369 0.28842187
v 0.0130602205 0.025865369 0.28842187
v 0 0.033050194 0.30043945
v -0.4353407 0.031697754 -0.08317814
v -0.528628 0 -0.13168752
v -0.3420534 0 -0.13168752
v 0.4353407 0.031697754 -0.08317814
v 0.3420534 0 -0.13168752
v 0.528628 0 -0.13168752
v -0.41979283 0.033810936 -0.027726047
v -0.39647102 0.027471386 -0.022180837
v -0.41979283 0.02324502 -0.019408233
v -0.3990623 0.036628515 0.013863027
v -0.37574047 0.030288965 0.019408237
v -0.3990623 0.025358202 0.02218084
v -0.3783318 0.039446093 0.0554521
v -0.35500997 0.033106543 0.06099731
v -0.3783318 0.027471386 0.063769914
v -0.35760128 0.042263668 0.09704117
v -0.33427948 0.035924118 0.10258637
v -0.35760128 0.02958457 0.10535898
v 0.41979283 0.033810936 -0.027726047
v 0.39647102 0.027471386 -0.022180837
v 0.41979283 0.02324502 -0.019408233
v 0.3990623 0.036628515 0.013863027
v 0.37574047 0.030288965 0.019408237
v 0.3990623 0.025358202 0.02218084
v 0.3783318 0.039446093 0.0554521
v 0.35500997 0.033106543 0.06099731
v 0.3783318 0.027471386 0.063769914
v 0.35760128 0.042263668 0.09704117
v 0.33427948 0.035924118 0.10258637
v 0.35760128 0.02958457 0.10535898
v -0.108835176 0.0063395505 -0.04158907
v 0.108835176 0.0063395505 -0.04158907
v 0 0.031697754 -0.03604386
v -0.08924484 0.010565918 -0.044361673
v 0.08924484 0.010565918 -0.044361673
v 0 0.021554474 -0.04158907
v -0.093598254 0.0063395505 0.04158907
v 0.093598254 0.0063395505 0.04158907
v 0 0.031697754 0.04713428
v -0.07675057 0.010565918 0.038816467
v 0.07675057 0.010565918 0.038816467
v 0 0.021554474 0.04158907
v -0.07836133 0.0063395505 0.124767214
v 0.07836133 0.0063395505 0.124767214
v 0 0.031697754 0.13031243
v -0.064256296 0.010565918 0.12199461
v 0.064256296 0.010565918 0.12199461
v 0 0.021554474 0.124767214
v -0.124383055 0.050716404 -0.013863023
v -0.10106123 0.05916914 -0.0069315117
v -0.124383055 0.04226367 -0.005545209
v -0.124383055 0.050716404 0.055452093
v -0.10106123 0.05916914 0.062383607
v -0.124383055 0.04226367 0.06376991
v -0.124383055 0.050716404 0.124767214
v -0.10106123 0.05916914 0.13169873
v -0.124383055 0.04226367 0.13308503
v 0.124383055 0.050716404 -0.013863023
v 0.10106123 0.05916914 -0.0069315117
v 0.124383055 0.04226367 -0.005545209
v 0.124383055 0.050716404 0.055452093
v 0.10106123 0.05916914 0.062383607
v 0.124383055 0.04226367 0.06376991
v 0.124383055 0.050716404 0.124767214
v 0.10106123 0.05916914 0.13169873
v 0.124383055 0.04226367 0.13308503
v -0.023321822 0.09298008 -0.013863023
v 0.023321822 0.09298008 -0.013863023
v 0 0.11199874 -0.0103972675
v -0.023321822 0.11833828 0.055452097
v 0.023321822 0.11833828 0.055452097
v 0 0.13735694 0.058917854
v -0.023321822 0.14369649 0.124767214
v 0.023321822 0.14369649 0.124767214
v 0 0.16482833 0.12823297
v -0.031095764 0.07184824 -0.013863023
v 0.031095764 0.07184824 -0.013863023
v 0 0.08452734 -0.009704117
v -0.031095764 0.07184824 0.09704116
v 0.031095764 0.07184824 0.09704116
v 0 0.08452734 0.10120007
v -0.1710267 0.038037308 0.055452093
v -0.14770488 0.033810936 0.060997304
v -0.1710267 0.02958457 0.06376991
v -0.1710267 0.040573124 0.020794533
v -0.14770488 0.036346756 0.026339743
v -0.1710267 0.032120388 0.029112346
v -0.1710267 0.043108948 -0.013863027
v -0.14770488 0.03888258 -0.008317817
v -0.1710267 0.03465621 -0.005545213
v 0.1710267 0.038037308 0.055452093
v 0.14770488 0.033810936 0.060997304
v 0.1710267 0.02958457 0.06376991
v 0.1710267 0.040573124 0.020794533
v 0.14770488 0.036346756 0.026339743
v 0.1710267 0.032120388 0.029112346
v 0.1710267 0.043108948 -0.013863027
v 0.14770488 0.03888258 -0.008317817
v 0.1710267 0.03465621 -0.005545213
v -0.023321822 0.10143281 -0.013863023
v 0.023321822 0.10143281 -0.013863023
v 0 0.114111915 -0.0103972675
v -0.023321822 0.10777236 0.048520584
v 0.023321822 0.10777236 0.048520584
v 0 0.120451465 0.05198634
v -0.023321822 0.11411191 0.11090419
v 0.023321822 0.11411191 0.11090419
v 0 0.12679102 0.114369944
v -0.062191527 0.012679101 -0.124767214
v 0.062191527 0.012679101 -0.124767214
v 0 0.025358202 -0.09704117
v -0.21767035 0.021131836 0.06931512
v -0.19434853 0.012679101 0.08317814
v -0.21767035 0.008452734 0.07624663
v 0.21767035 0.021131836 0.06931512
v 0.19434853 0.012679101 0.08317814
v 0.21767035 0.008452734 0.07624663
v -0.038869705 0.14792284 0.04158907
v 0.038869705 0.14792284 0.04158907
v 0 0.16060194 0.055452093
v -0.027208794 0.08452734 -0.013863023
v 0.027208794 0.08452734 -0.013863023
v 0 0.10143281 -0.0103972675
v -0.027208794 0.09157129 0.02772605
v 0.027208794 0.09157129 0.02772605
v 0 0.10847676 0.031191807
v -0.027208794 0.09861524 0.06931512
v 0.027208794 0.09861524 0.06931512
v 0 0.11552071 0.07278088
v -0.027208794 0.10565918 0.11090419
v 0.027208794 0.10565918 0.11090419
v 0 0.12256464 0.114369944
v -0.046643645 0.06762187 0.04158907
v 0.046643645 0.06762187 0.04158907
v 0 0.08030097 0.045747977
v -0.046643645 0.06762187 0.060073104
v 0.046643645 0.06762187 0.060073104
v 0 0.08030097 0.064232014
v -0.046643645 0.06762187 0.07855713
v 0.046643645 0.06762187 0.07855713
v 0 0.08030097 0.08271604
v -0.046643645 0.06762187 0.09704117
v 0.046643645 0.06762187 0.09704117
v 0 0.08030097 0.101200074
v -0.046643645 0.04649004 0.6249451
v 0.046643645 0.04649004 0.6249451
v 0 0.09298008 0.67928815
v -0.023321822 0.08452734 0.6589095
v 0.023321822 0.08452734 0.6589095
v 0 0.10143281 0.67928815
v -0.062191527 0.18663637 0.08317814
v 0.062191527 0.18663637 0.08317814
v 0 0.20286562 0.11090419
v -0.046643645 0.08875371 -0.013863023
v -0.7696202 0.08875371 0.027726047
v -0.046643645 0.20286562 0.06931512
v 0.046643645 0.08875371 -0.013863023
v 0.7696202 0.08875371 0.027726047
v 0.046643645 0.20286562 0.06931512
v -0.09328729 0.012679101 -0.11090419
v 0.09328729 0.012679101 -0.11090419
v 0 0.02958457 -0.08317814
v -0.6841068 0.038037308 0.027726047
v -0.660785 0.04649004 0.04158907
v -0.6841068 0.02958457 0.055452093
v 0.6841068 0.038037308 0.027726047
v 0.660785 0.04649004 0.04158907
v 0.6841068 0.02958457 0.055452093
vn 0 1 0
vn 0 1 0
vn 0 1 0
vn 0 1 0
vn 0 1 0
vn 0 1 0
vn 0 -1 0
vn 0 -1 0
vn 0 -1 0
vn 0 -1 0
vn 0 -1 0
vn 0 -1 0
vn 0 -1 0
vn 0 -1 0
vn 0 -1 0
vn 0 1 0
vn 0 1 0
vn 0 1 0
vn 0 -0.99880373 -0.04890002
vn 0 -0.99880373 -0.04890002
vn 0 -0.99880373 -0.04890002
vn 0 -0.99880373 -0.04890002
vn 0 -0.99880373 -0.04890002
vn 0 -0.99880373 -0.04890002
vn 0 -1 0
vn 0 -1 0
vn 0 -1 0
vn 0 1 0
vn 0 1 0
vn 0 1 0
vn 0 -0.99880373 -0.04890002
vn 0 -0.99880373 -0.04890002
vn 0 -0.99880373 -0.04890002
vn 0 -0.99880373 -0.04890002
vn 0 -0.99880373 -0.04890002
vn 0 -0.99880373 -0.04890002
vn 0 -1 0
vn 0 -1 0
vn 0 -1 0
vn 0 1 0
vn 0 1 0
vn 0 1 0
vn 0 -0.99880373 -0.04890002
vn 0 -0.99880373 -0.04890002
vn 0 -0.99880373 -0.04890002
vn 0 -0.99880373 -0.04890002
vn 0 -0.99880373 -0.04890002
vn 0 -0.99880373 -0.04890002
vn 0 -1 0
vn 0 -1 0
vn 0 -1 0
vn 0 1 0
vn 0 1 0
vn 0 1 0
vn 0 -0.99880373 -0.04890002
vn 0 -0.99880373 -0.04890002
vn 0 -0.99880373 -0.04890002
vn 0 -0.99880373 -0.04890002
vn 0 -0.99880373 -0.04890002
vn 0 -0.99880373 -0.04890002
vn 0 -1 0
vn 0 -1 0
vn 0 -1 0
vn 0 1 -0
vn 0 1 -0
vn 0 1 -0
vn -0 -1 0
vn -0 -1 0
vn -0 -1 0
vn 0 1 0
vn 0 1 0
vn 0 1 0
vn 0 -1 -0
vn 0 -1 -0
vn 0 -1 -0
vn 0 1 0
vn 0 1 0
vn 0 1 0
vn 0 -1 0
vn 0 -1 0
vn 0 -1 0
vn -0 1 0
vn -0 1 0
vn -0 1 0
vn 0 -1 0
vn 0 -1 0
vn 0 -1 0
vn 0 1 0
vn 0 1 0
vn 0 1 0
vn -0 -0.99999994 0
vn -0 -0.99999994 0
vn -0 -0.99999994 0
vn 0 0.99999994 -0
vn 0 0.99999994 -0
vn 0 0.99999994 -0
vn 0 -0.99999994 -0
vn 0 -0.99999994 -0
vn 0 -0.99999994 -0
vn 0 0.99999994 0
vn 0 0.99999994 0
vn 0 0.99999994 0
vn 0 -1 0
vn 0 -1 0
vn 0 -1 0
vn -0 1 0
vn -0 1 0
vn -0 1 0
vn 0 -1 0
vn 0 -1 0
vn 0 -1 0
vn 0 1 0
vn 0 1 0
vn 0 1 0
vn -0 -1 0
vn -0 -1 0
vn -0 -1 0
vn 0 1 -0
vn 0 1 -0
vn 0 1 -0
vn 0 -1 -0
vn 0 -1 -0
vn 0 -1 -0
vn 0 1 0
vn 0 1 0
vn 0 1 0
vn 0 -1 0
vn 0 -1 0
vn 0 -1 0
vn -0 1 0
vn -0 1 0
vn -0 1 0
vn 0 -0.660575 0.75076
vn 0 -0.660575 0.75076
vn 0 -0.660575 0.75076
vn 0 -0.93209285 0.36221942
vn 0 -0.93209285 0.36221942
vn 0 -0.93209285 0.36221942
vn 0 -0.8583023 0.51314443
vn 0 -0.8583023 0.51314443
vn 0 -0.8583023 0.51314443
vn 0 -0.83712703 0.5470086
vn 0 -0.83712703 0.5470086
vn 0 -0.83712703 0.5470086
vn 0 -0.83712703 0.5470086
vn 0 -0.83712703 0.5470086
vn 0 -0.83712703 0.5470086
vn 0.018679233 -0.6184501 -0.7856021
vn 0.018679233 -0.6184501 -0.7856021
vn 0.018679233 -0.6184501 -0.7856021
vn 0.029878715 -0.5935525 -0.80424047
vn 0.029878715 -0.5935525 -0.80424047
vn 0.029878715 -0.5935525 -0.80424047
vn 0.04017245 -0.5700299 -0.8206413
vn 0.04017245 -0.5700299 -0.8206413
vn 0.04017245 -0.5700299 -0.8206413
vn 0.04964036 -0.54784906 -0.83510315
vn 0.04964036 -0.54784906 -0.83510315
vn 0.04964036 -0.54784906 -0.83510315
vn 0.018679233 0.6184501 0.7856021
vn 0.018679233 0.6184501 0.7856021
vn 0.018679233 0.6184501 0.7856021
vn 0.029878715 0.5935525 0.80424047
vn 0.029878715 0.5935525 0.80424047
vn 0.029878715 0.5935525 0.80424047
vn 0.04017245 0.5700299 0.8206413
vn 0.04017245 0.5700299 0.8206413
vn 0.04017245 0.5700299 0.8206413
vn 0.04964036 0.54784906 0.83510315
vn 0.04964036 0.54784906 0.83510315
vn 0.04964036 0.54784906 0.83510315
vn 0 -0.21362713 0.97691524
vn 0 -0.21362713 0.97691524
vn 0 -0.21362713 0.97691524
vn 0 -0.24464978 0.9696115
vn 0 -0.24464978 0.9696115
vn 0 -0.24464978 0.9696115
vn 0 -0.21362716 0.9769153
vn 0 -0.21362716 0.9769153
vn 0 -0.21362716 0.9769153
vn 0 -0.24464981 0.9696116
vn 0 -0.24464981 0.9696116
vn 0 -0.24464981 0.9696116
vn 0 -0.21362728 0.9769153
vn 0 -0.21362728 0.9769153
vn 0 -0.21362728 0.9769153
vn 0 -0.24465011 0.96961147
vn 0 -0.24465011 0.96961147
vn 0 -0.24465011 0.96961147
vn 0.42243168 -0.6357412 -0.64605314
vn 0.42243168 -0.6357412 -0.64605314
vn 0.42243168 -0.6357412 -0.64605314
vn 0.42243177 -0.6357411 -0.6460532
vn 0.42243177 -0.6357411 -0.6460532
vn 0.42243177 -0.6357411 -0.6460532
vn 0.42243177 -0.6357411 -0.6460532
vn 0.42243177 -0.6357411 -0.6460532
vn 0.42243177 -0.6357411 -0.6460532
vn 0.42243168 0.6357412 0.64605314
vn 0.42243168 0.6357412 0.64605314
vn 0.42243168 0.6357412 0.64605314
vn 0.42243177 0.6357411 0.6460532
vn 0.42243177 0.6357411 0.6460532
vn 0.42243177 0.6357411 0.6460532
vn 0.42243177 0.6357411 0.6460532
vn 0.42243177 0.6357411 0.6460532
vn 0.42243177 0.6357411 0.6460532
vn 0 -0.1792769 0.9837986
vn 0 -0.1792769 0.9837986
vn 0 -0.1792769 0.9837986
vn 0 -0.17927694 0.9837986
vn 0 -0.17927694 0.9837986
vn 0 -0.17927694 0.9837986
vn 0 -0.16184415 0.98681635
vn 0 -0.16184415 0.98681635
vn 0 -0.16184415 0.98681635
vn 0 -0.31167415 0.950189
vn 0 -0.31167415 0.950189
vn 0 -0.31167415 0.950189
vn 0 -0.31167415 0.950189
vn 0 -0.31167415 0.950189
vn 0 -0.31167415 0.950189
vn 0.042330798 -0.70076644 -0.7121337
vn 0.042330798 -0.70076644 -0.7121337
vn 0.042330798 -0.70076644 -0.7121337
vn 0.04233088 -0.7007665 -0.7121336
vn 0.04233088 -0.7007665 -0.7121336
vn 0.04233088 -0.7007665 -0.7121336
vn 0.04233087 -0.7007666 -0.7121336
vn 0.04233087 -0.7007666 -0.7121336
vn 0.04233087 -0.7007666 -0.7121336
vn 0.042330798 0.70076644 0.7121337
vn 0.042330798 0.70076644 0.7121337
vn 0.042330798 0.70076644 0.7121337
vn 0.04233088 0.7007665 0.7121336
vn 0.04233088 0.7007665 0.7121336
vn 0.04233088 0.7007665 0.7121336
vn 0.04233087 0.7007666 0.7121336
vn 0.04233087 0.7007666 0.7121336
vn 0.04233087 0.7007666 0.7121336
vn 0 -0.26367092 0.96461266
vn 0 -0.26367092 0.96461266
vn 0 -0.26367092 0.96461266
vn 0 -0.26367098 0.96461266
vn 0 -0.26367098 0.96461266
vn 0 -0.26367098 0.96461266
vn 0 -0.26367098 0.96461266
vn 0 -0.26367098 0.96461266
vn 0 -0.26367098 0.96461266
vn 0 -0.90942067 0.4158774
vn 0 -0.90942067 0.4158774
vn 0 -0.90942067 0.4158774
vn 0.3284259 -0.45307735 -0.8287685
vn 0.3284259 -0.45307735 -0.8287685
vn 0.3284259 -0.45307735 -0.8287685
vn 0.3284259 0.45307735 0.8287685
vn 0.3284259 0.45307735 0.8287685
vn 0.3284259 0.45307735 0.8287685
vn 0 -0.7379139 0.67489487
vn 0 -0.7379139 0.67489487
vn 0 -0.7379139 0.67489487
vn 0 -0.20083116 0.9796258
vn 0 -0.20083116 0.9796258
vn 0 -0.20083116 0.9796258
vn 0 -0.20083115 0.97962594
vn 0 -0.20083115 0.97962594
vn 0 -0.20083115 0.97962594
vn 0 -0.20083115 0.97962594
vn 0 -0.20083115 0.97962594
vn 0 -0.20083115 0.97962594
vn 0 -0.2008312 0.9796258
vn 0 -0.2008312 0.9796258
vn 0 -0.2008312 0.9796258
vn 0 -0.31167412 0.95018905
vn 0 -0.31167412 0.95018905
vn 0 -0.31167412 0.95018905
vn 0 -0.3116744 0.95018893
vn 0 -0.3116744 0.95018893
vn 0 -0.3116744 0.95018893
vn 0 -0.31167412 0.95018905
vn 0 -0.31167412 0.95018905
vn 0 -0.31167412 0.95018905
vn 0 -0.31167412 0.95018905
vn 0 -0.31167412 0.95018905
vn 0 -0.31167412 0.95018905
vn 0 -0.7598761 0.6500679
vn 0 -0.7598761 0.6500679
vn 0 -0.7598761 0.6500679
vn 0 -0.7696448 0.6384723
vn 0 -0.7696448 0.6384723
vn 0 -0.7696448 0.6384723
vn 0 -0.8630232 0.5051644
vn 0 -0.8630232 0.5051644
vn 0 -0.8630232 0.5051644
vn -0.04643583 0.5884052 -0.8072317
vn -0.04643583 0.5884052 -0.8072317
vn -0.04643583 0.5884052 -0.8072317
vn -0.04643583 -0.5884052 0.8072317
vn -0.04643583 -0.5884052 0.8072317
vn -0.04643583 -0.5884052 0.8072317
vn 0 -0.8538052 0.5205927
vn 0 -0.8538052 0.5205927
vn 0 -0.8538052 0.5205927
vn 0.46137288 -0.8486445 -0.2587231
vn 0.46137288 -0.8486445 -0.2587231
vn 0.46137288 -0.8486445 -0.2587231
vn 0.46137288 0.8486445 0.2587231
vn 0.46137288 0.8486445 0.2587231
vn 0.46137288 0.8486445 0.2587231
f 1//1 2//2 3//3
f 4//4 5//5 6//6
f 7//7 8//8 9//9
f 10//10 11//11 12//12
f 13//13 14//14 15//15
f 16//16 17//17 18//18
f 19//19 20//20 21//21
f 22//22 23//23 24//24
f 25//25 26//26 27//27
f 28//28 29//29 30//30
f 31//31 32//32 33//33
f 34//34 35//35 36//36
f 37//37 38//38 39//39
f 40//40 41//41 42//42
f 43//43 44//44 45//45
f 46//46 47//47 48//48
f 49//49 50//50 51//51
f 52//52 53//53 54//54
f 55//55 56//56 57//57
f 58//58 59//59 60//60
f 61//61 62//62 63//63
f 64//64 65//65 66//66
f 67//67 68//68 69//69
f 70//70 71//71 72//72
f 73//73 74//74 75//75
f 76//76 77//77 78//78
f 79//79 80//80 81//81
f 82//82 83//83 84//84
f 85//85 86//86 87//87
f 88//88 89//89 90//90
f 91//91 92//92 93//93
f 94//94 95//95 96//96
f 97//97 98//98 99//99
f 100//100 101//101 102//102
f 103//103 104//104 105//105
f 106//106 107//107 108//108
f 109//109 110//110 111//111
f 112//112 113//113 114//114
f 115//115 116//116 117//117
f 118//118 119//119 120//120
f 121//121 122//122 123//123
f 124//124 125//125 126//126
f 127//127 128//128 129//129
f 130//130 131//131 132//132
f 133//133 134//134 135//135
f 136//136 137//137 138//138
f 139//139 140//140 141//141
f 142//142 143//143 144//144
f 145//145 146//146 147//147
f 148//148 149//149 150//150
f 151//151 152//152 153//153
f 154//154 155//155 156//156
f 157//157 158//158 159//159
f 160//160 161//161 162//162
f 163//163 164//164 165//165
f 166//166 167//167 168//168
f 169//169 170//170 171//171
f 172//172 173//173 174//174
f 175//175 176//176 177//177
f 178//178 179//179 180//180
f 181//181 182//182 183//183
f 184//184 185//185 186//186
f 187//187 188//188 189//189
f 190//190 191//191 192//192
f 193//193 194//194 195//195
f 196//196 197//197 198//198
f 199//199 200//200 201//201
f 202//202 203//203 204//204
f 205//205 206//206 207//207
f 208//208 209//209 210//210
f 211//211 212//212 213//213
f 214//214 215//215 216//216
f 217//217 218//218 219//219
f 220//220 221//221 222//222
f 223//223 224//224 225//225
f 226//226 227//227 228//228
f 229//229 230//230 231//231
f 232//232 233//233 234//234
f 235//235 236//236 237//237
f 238//238 239//239 240//240
f 241//241 242//242 243//243
f 244//244 245//245 246//246
f 247//247 248//248 249//249
f 250//250 251//251 252//252
f 253//253 254//254 255//255
f 256//256 257//257 258//258
f 259//259 260//260 261//261
f 262//262 263//263 264//264
f 265//265 266//266 267//267
f 268//268 269//269 270//270
f 271//271 272//272 273//273
f 274//274 275//275 276//276
f 277//277 278//278 279//279
f 280//280 281//281 282//282
f 283//283 284//284 285//285
f 286//286 287//287 288//288
f 289//289 290//290 291//291
f 292//292 293//293 294//294
f 295//295 296//296 297//297
f 298//298 299//299 300//300
f 301//301 302//302 303//303
f 304//304 305//305 306//306
f 307//307 308//308 309//309
