# Exported from SharpOpenGl procedural mesh
o eva_astronaut
# vertices 15
v 0 1.08 0
v -0.3 0.42000002 0
v 0.3 0.42000002 0
v -0.3 0.42000002 0
v 0 0.060000002 0.24000001
v 0.3 0.42000002 0
v -0.21600002 0 0
v 0.21600002 0 0
v 0 0.060000002 -0.18
v -0.21600002 0 0
v 0 0.060000002 -0.18
v 0.21600002 0 0
v 0.42000002 0.54 0.120000005
v 0.66 0.66 0.18
v 0.42000002 0.3 0.120000005
vn 0 0 1
vn 0 0 1
vn 0 0 1
vn -0 0.5547002 0.8320503
vn -0 0.5547002 0.8320503
vn -0 0.5547002 0.8320503
vn -0 0.94868326 0.31622773
vn -0 0.94868326 0.31622773
vn -0 0.94868326 0.31622773
vn 0 -0.94868326 -0.31622773
vn 0 -0.94868326 -0.31622773
vn 0 -0.94868326 -0.31622773
vn 0.24253562 0 -0.9701425
vn 0.24253562 0 -0.9701425
vn 0.24253562 0 -0.9701425
f 1//1 2//2 3//3
f 4//4 5//5 6//6
f 7//7 8//8 9//9
f 10//10 11//11 12//12
f 13//13 14//14 15//15
