# Exported from SharpOpenGl procedural mesh
o mining_drone
# vertices 12
v 0 0.8 0
v -0.8 0 0
v 0 0 0.8
v 0 0.8 0
v 0 0 0.8
v 0.8 0 0
v 0 -0.8 0
v -0.8 0 0
v 0 0 -0.8
v 0 -0.8 0
v 0 0 -0.8
v 0.8 0 0
vn -0.57735026 0.57735026 0.57735026
vn -0.57735026 0.57735026 0.57735026
vn -0.57735026 0.57735026 0.57735026
vn 0.57735026 0.57735026 0.57735026
vn 0.57735026 0.57735026 0.57735026
vn 0.57735026 0.57735026 0.57735026
vn -0.57735026 -0.57735026 -0.57735026
vn -0.57735026 -0.57735026 -0.57735026
vn -0.57735026 -0.57735026 -0.57735026
vn 0.57735026 -0.57735026 -0.57735026
vn 0.57735026 -0.57735026 -0.57735026
vn 0.57735026 -0.57735026 -0.57735026
f 1//1 2//2 3//3
f 4//4 5//5 6//6
f 7//7 8//8 9//9
f 10//10 11//11 12//12
