# Exported from SharpOpenGl procedural mesh
o resource_node
# vertices 24
v 0 2.4 0
v -2 0 0
v 0 0 2
v 0 2.4 0
v 0 0 2
v 2 0 0
v 0 2.4 0
v 2 0 0
v 0 0 -2
v 0 2.4 0
v 0 0 -2
v -2 0 0
v 0 -0.5 0
v 0 0 2
v -2 0 0
v 0 -0.5 0
v 2 0 0
v 0 0 2
v 0 -0.5 0
v 0 0 -2
v 2 0 0
v 0 -0.5 0
v -2 0 0
v 0 0 -2
vn -0.60920775 0.5076731 0.60920775
vn -0.60920775 0.5076731 0.60920775
vn -0.60920775 0.5076731 0.60920775
vn 0.60920775 0.5076731 0.60920775
vn 0.60920775 0.5076731 0.60920775
vn 0.60920775 0.5076731 0.60920775
vn 0.60920775 0.5076731 -0.60920775
vn 0.60920775 0.5076731 -0.60920775
vn 0.60920775 0.5076731 -0.60920775
vn -0.60920775 0.5076731 -0.60920775
vn -0.60920775 0.5076731 -0.60920775
vn -0.60920775 0.5076731 -0.60920775
vn -0.23570228 -0.9428091 0.23570228
vn -0.23570228 -0.9428091 0.23570228
vn -0.23570228 -0.9428091 0.23570228
vn 0.23570228 -0.9428091 0.23570228
vn 0.23570228 -0.9428091 0.23570228
vn 0.23570228 -0.9428091 0.23570228
vn 0.23570228 -0.9428091 -0.23570228
vn 0.23570228 -0.9428091 -0.23570228
vn 0.23570228 -0.9428091 -0.23570228
vn -0.23570228 -0.9428091 -0.23570228
vn -0.23570228 -0.9428091 -0.23570228
vn -0.23570228 -0.9428091 -0.23570228
f 1//1 2//2 3//3
f 4//4 5//5 6//6
f 7//7 8//8 9//9
f 10//10 11//11 12//12
f 13//13 14//14 15//15
f 16//16 17//17 18//18
f 19//19 20//20 21//21
f 22//22 23//23 24//24
