# Exported from SharpOpenGl procedural mesh
o team_aura_disc
# vertices 96
v 0 0.08 0
v 1 0.08 0
v 0.98078525 0.08 0.19509032
v 0 0.08 0
v 0.98078525 0.08 0.19509032
v 0.9238795 0.08 0.38268346
v 0 0.08 0
v 0.9238795 0.08 0.38268346
v 0.8314696 0.08 0.55557024
v 0 0.08 0
v 0.8314696 0.08 0.55557024
v 0.70710677 0.08 0.70710677
v 0 0.08 0
v 0.70710677 0.08 0.70710677
v 0.5555702 0.08 0.83146966
v 0 0.08 0
v 0.5555702 0.08 0.83146966
v 0.38268343 0.08 0.9238795
v 0 0.08 0
v 0.38268343 0.08 0.9238795
v 0.19509023 0.08 0.9807853
v 0 0.08 0
v 0.19509023 0.08 0.9807853
v -4.371139E-08 0.08 1
v 0 0.08 0
v -4.371139E-08 0.08 1
v -0.19509032 0.08 0.98078525
v 0 0.08 0
v -0.19509032 0.08 0.98078525
v -0.38268352 0.08 0.9238795
v 0 0.08 0
v -0.38268352 0.08 0.9238795
v -0.55557036 0.08 0.83146954
v 0 0.08 0
v -0.55557036 0.08 0.83146954
v -0.70710677 0.08 0.70710677
v 0 0.08 0
v -0.70710677 0.08 0.70710677
v -0.83146966 0.08 0.5555702
v 0 0.08 0
v -0.83146966 0.08 0.5555702
v -0.9238796 0.08 0.38268328
v 0 0.08 0
v -0.9238796 0.08 0.38268328
v -0.9807853 0.08 0.19509031
v 0 0.08 0
v -0.9807853 0.08 0.19509031
v -1 0.08 -8.742278E-08
v 0 0.08 0
v -1 0.08 -8.742278E-08
v -0.98078525 0.08 -0.19509049
v 0 0.08 0
v -0.98078525 0.08 -0.19509049
v -0.9238795 0.08 -0.38268343
v 0 0.08 0
v -0.9238795 0.08 -0.38268343
v -0.83146954 0.08 -0.5555703
v 0 0.08 0
v -0.83146954 0.08 -0.5555703
v -0.70710665 0.08 -0.7071069
v 0 0.08 0
v -0.70710665 0.08 -0.7071069
v -0.55557 0.08 -0.8314698
v 0 0.08 0
v -0.55557 0.08 -0.8314698
v -0.38268313 0.08 -0.9238797
v 0 0.08 0
v -0.38268313 0.08 -0.9238797
v -0.19509038 0.08 -0.98078525
v 0 0.08 0
v -0.19509038 0.08 -0.98078525
v 1.1924881E-08 0.08 -1
v 0 0.08 0
v 1.1924881E-08 0.08 -1
v 0.19509041 0.08 -0.98078525
v 0 0.08 0
v 0.19509041 0.08 -0.98078525
v 0.3826836 0.08 -0.92387944
v 0 0.08 0
v 0.3826836 0.08 -0.92387944
v 0.5555704 0.08 -0.8314695
v 0 0.08 0
v 0.5555704 0.08 -0.8314695
v 0.707107 0.08 -0.70710653
v 0 0.08 0
v 0.707107 0.08 -0.70710653
v 0.8314696 0.08 -0.5555703
v 0 0.08 0
v 0.8314696 0.08 -0.5555703
v 0.92387956 0.08 -0.38268343
v 0 0.08 0
v 0.92387956 0.08 -0.38268343
v 0.9807853 0.08 -0.19509023
v 0 0.08 0
v 0.9807853 0.08 -0.19509023
v 1 0.08 1.7484555E-07
vn 0 -0.99999994 0
vn 0 -0.99999994 0
vn 0 -0.99999994 0
vn 0 -1 0
vn 0 -1 0
vn 0 -1 0
vn 0 -0.99999994 0
vn 0 -0.99999994 0
vn 0 -0.99999994 0
vn 0 -1 0
vn 0 -1 0
vn 0 -1 0
vn 0 -1 0
vn 0 -1 0
vn 0 -1 0
vn 0 -1 0
vn 0 -1 0
vn 0 -1 0
vn 0 -1 0
vn 0 -1 0
vn 0 -1 0
vn 0 -1 0
vn 0 -1 0
vn 0 -1 0
vn 0 -1 0
vn 0 -1 0
vn 0 -1 0
vn 0 -0.99999994 0
vn 0 -0.99999994 0
vn 0 -0.99999994 0
vn 0 -0.99999994 0
vn 0 -0.99999994 0
vn 0 -0.99999994 0
vn 0 -1 0
vn 0 -1 0
vn 0 -1 0
vn 0 -1 0
vn 0 -1 0
vn 0 -1 0
vn 0 -1 0
vn 0 -1 0
vn 0 -1 0
vn 0 -1 0
vn 0 -1 0
vn 0 -1 0
vn -0 -1 0
vn -0 -1 0
vn -0 -1 0
vn 0 -1 0
vn 0 -1 0
vn 0 -1 0
vn 0 -0.99999994 0
vn 0 -0.99999994 0
vn 0 -0.99999994 0
vn 0 -0.99999994 0
vn 0 -0.99999994 0
vn 0 -0.99999994 0
vn 0 -1 0
vn 0 -1 0
vn 0 -1 0
vn 0 -1 0
vn 0 -1 0
vn 0 -1 0
vn 0 -0.99999994 0
vn 0 -0.99999994 0
vn 0 -0.99999994 0
vn 0 -1 0
vn 0 -1 0
vn 0 -1 0
vn 0 -1 -0
vn 0 -1 -0
vn 0 -1 -0
vn 0 -1 0
vn 0 -1 0
vn 0 -1 0
vn 0 -1 0
vn 0 -1 0
vn 0 -1 0
vn 0 -1 0
vn 0 -1 0
vn 0 -1 0
vn 0 -0.99999994 0
vn 0 -0.99999994 0
vn 0 -0.99999994 0
vn 0 -1 0
vn 0 -1 0
vn 0 -1 0
vn 0 -0.99999994 0
vn 0 -0.99999994 0
vn 0 -0.99999994 0
vn 0 -1 0
vn 0 -1 0
vn 0 -1 0
vn 0 -0.99999994 0
vn 0 -0.99999994 0
vn 0 -0.99999994 0
f 1//1 2//2 3//3
f 4//4 5//5 6//6
f 7//7 8//8 9//9
f 10//10 11//11 12//12
f 13//13 14//14 15//15
f 16//16 17//17 18//18
f 19//19 20//20 21//21
f 22//22 23//23 24//24
f 25//25 26//26 27//27
f 28//28 29//29 30//30
f 31//31 32//32 33//33
f 34//34 35//35 36//36
f 37//37 38//38 39//39
f 40//40 41//41 42//42
f 43//43 44//44 45//45
f 46//46 47//47 48//48
f 49//49 50//50 51//51
f 52//52 53//53 54//54
f 55//55 56//56 57//57
f 58//58 59//59 60//60
f 61//61 62//62 63//63
f 64//64 65//65 66//66
f 67//67 68//68 69//69
f 70//70 71//71 72//72
f 73//73 74//74 75//75
f 76//76 77//77 78//78
f 79//79 80//80 81//81
f 82//82 83//83 84//84
f 85//85 86//86 87//87
f 88//88 89//89 90//90
f 91//91 92//92 93//93
f 94//94 95//95 96//96
