# Exported from SharpOpenGl procedural mesh
o sensor_array
# vertices 66
v 0 2.3265004 0
v -0.33840004 0 0
v 0.33840004 0 0
v -1.9035002 0.33840004 0
v 1.9035002 0.33840004 0
v 0 2.3265004 0
v -1.4805001 0.50760007 -0.84600013
v 1.4805001 0.50760007 -0.84600013
v 0 1.9035002 0.6345001
v -1.4805001 0.50760007 0.84600013
v 0 1.9035002 0.6345001
v 1.4805001 0.50760007 0.84600013
v 4.277 0.34216 0
v 3.4601657 0.34216 2.5139575
v 3.7637599 0 0
v 3.4601657 0.34216 2.5139575
v 1.3216655 0.34216 4.067669
v 3.0449457 0 2.2122827
v 1.3216655 0.34216 4.067669
v -1.3216659 0.34216 4.0676684
v 1.1630657 0 3.5795486
v -1.3216659 0.34216 4.0676684
v -3.460166 0.34216 2.5139573
v -1.163066 0 3.5795481
v -3.460166 0.34216 2.5139573
v -4.277 0.34216 -3.739072E-07
v -3.044946 0 2.2122824
v -4.277 0.34216 -3.739072E-07
v -3.4601655 0.34216 -2.513958
v -3.7637599 0 -3.2903833E-07
v -3.4601655 0.34216 -2.513958
v -1.3216642 0.34216 -4.067669
v -3.0449457 0 -2.212283
v -1.3216642 0.34216 -4.067669
v 1.3216662 0.34216 -4.0676684
v -1.1630645 0 -3.5795486
v 1.3216662 0.34216 -4.0676684
v 3.4601655 0.34216 -2.5139577
v 1.1630663 0 -3.5795481
v 3.4601655 0.34216 -2.5139577
v 4.277 0.34216 7.478144E-07
v 3.0449457 0 -2.212283
v 4.7376003 0.7896 0
v 4.9350004 1.0528 0
v 4.7376003 1.0528 0.1974
v 2.3688002 0.7896 4.1028824
v 2.5662003 1.0528 4.1028824
v 2.3688002 1.0528 4.3002825
v -2.3688006 0.7896 4.1028824
v -2.1714005 1.0528 4.1028824
v -2.3688006 1.0528 4.3002825
v -4.7376003 0.7896 -4.141742E-07
v -4.5402 1.0528 -4.141742E-07
v -4.7376003 1.0528 0.19739959
v -2.3688 0.7896 -4.1028824
v -2.1713998 1.0528 -4.1028824
v -2.3688 1.0528 -3.9054823
v 2.368802 0.7896 -4.1028814
v 2.5662022 1.0528 -4.1028814
v 2.368802 1.0528 -3.9054813
v -1.1515001 2.3030002 0
v -0.1645 1.8424001 -0.65800005
v -1.1515001 2.7636 0.65800005
v 1.1515001 2.3030002 0
v 2.1385002 1.8424001 -0.65800005
v 1.1515001 2.7636 0.65800005
vn 0 0 0.99999994
vn 0 0 0.99999994
vn 0 0 0.99999994
vn 0 0 1
vn 0 0 1
vn 0 0 1
vn 0 -0.72758937 0.68601286
vn 0 -0.72758937 0.68601286
vn 0 -0.72758937 0.68601286
vn 0 -0.1498054 -0.9887155
vn 0 -0.1498054 -0.9887155
vn 0 -0.1498054 -0.9887155
vn 0.5459044 -0.8188567 0.17737508
vn 0.5459044 -0.8188567 0.17737508
vn 0.5459044 -0.8188567 0.17737508
vn 0.3373875 -0.8188567 0.46437404
vn 0.3373875 -0.8188567 0.46437404
vn 0.3373875 -0.8188567 0.46437404
vn -1.0354491E-07 -0.8188567 0.5739979
vn -1.0354491E-07 -0.8188567 0.5739979
vn -1.0354491E-07 -0.8188567 0.5739979
vn -0.33738747 -0.8188567 0.46437404
vn -0.33738747 -0.8188567 0.46437404
vn -0.33738747 -0.8188567 0.46437404
vn -0.5459044 -0.8188567 0.17737502
vn -0.5459044 -0.8188567 0.17737502
vn -0.5459044 -0.8188567 0.17737502
vn -0.5459044 -0.8188567 -0.17737511
vn -0.5459044 -0.8188567 -0.17737511
vn -0.5459044 -0.8188567 -0.17737511
vn -0.33738732 -0.81885684 -0.46437418
vn -0.33738732 -0.81885684 -0.46437418
vn -0.33738732 -0.81885684 -0.46437418
vn 1.0354494E-07 -0.8188567 -0.57399786
vn 1.0354494E-07 -0.8188567 -0.57399786
vn 1.0354494E-07 -0.8188567 -0.57399786
vn 0.3373875 -0.81885684 -0.46437404
vn 0.3373875 -0.81885684 -0.46437404
vn 0.3373875 -0.81885684 -0.46437404
vn 0.5459046 -0.81885666 -0.17737511
vn 0.5459046 -0.81885666 -0.17737511
vn 0.5459046 -0.81885666 -0.17737511
vn 0.6246948 -0.46852127 0.6246952
vn 0.6246948 -0.46852127 0.6246952
vn 0.6246948 -0.46852127 0.6246952
vn 0.624695 -0.4685214 0.624695
vn 0.624695 -0.4685214 0.624695
vn 0.624695 -0.4685214 0.624695
vn 0.624695 -0.4685214 0.624695
vn 0.624695 -0.4685214 0.624695
vn 0.624695 -0.4685214 0.624695
vn 0.6246948 -0.46852127 0.6246952
vn 0.6246948 -0.46852127 0.6246952
vn 0.6246948 -0.46852127 0.6246952
vn 0.624695 -0.4685214 0.624695
vn 0.624695 -0.4685214 0.624695
vn 0.624695 -0.4685214 0.624695
vn 0.624695 -0.4685214 0.624695
vn 0.624695 -0.4685214 0.624695
vn 0.624695 -0.4685214 0.624695
vn -2.2556159E-07 -0.819232 0.5734622
vn -2.2556159E-07 -0.819232 0.5734622
vn -2.2556159E-07 -0.819232 0.5734622
vn -2.2556159E-07 -0.819232 0.5734622
vn -2.2556159E-07 -0.819232 0.5734622
vn -2.2556159E-07 -0.819232 0.5734622
f 1//1 2//2 3//3
f 4//4 5//5 6//6
f 7//7 8//8 9//9
f 10//10 11//11 12//12
f 13//13 14//14 15//15
f 16//16 17//17 18//18
f 19//19 20//20 21//21
f 22//22 23//23 24//24
f 25//25 26//26 27//27
f 28//28 29//29 30//30
f 31//31 32//32 33//33
f 34//34 35//35 36//36
f 37//37 38//38 39//39
f 40//40 41//41 42//42
f 43//43 44//44 45//45
f 46//46 47//47 48//48
f 49//49 50//50 51//51
f 52//52 53//53 54//54
f 55//55 56//56 57//57
f 58//58 59//59 60//60
f 61//61 62//62 63//63
f 64//64 65//65 66//66
