# Exported from SharpOpenGl procedural mesh
o shipyard_small
# vertices 78
v -5.17 0 -3.1020002
v 5.17 0 -3.1020002
v 5.17 0 3.1020002
v -5.17 0 -3.1020002
v 5.17 0 3.1020002
v -5.17 0 3.1020002
v -4.653 0.77550006 -2.585
v 4.653 0.77550006 -2.585
v 4.653 0.77550006 2.585
v -4.653 0.77550006 -2.585
v 4.653 0.77550006 2.585
v -4.653 0.77550006 2.585
v 0 0 -2.8435001
v 0.4136 3.619 -2.8435001
v 0 3.619 2.8435001
v 0.4136 3.619 -2.8435001
v 0.4136 3.619 2.8435001
v 0 3.619 2.8435001
v -1.8095 0.8272 -1.8095
v 1.8095 0.8272 -1.8095
v 0 1.8095 -1.1891
v -1.8095 0.8272 -0.36189997
v 1.8095 0.8272 -0.36189997
v 0 1.8095 0.25850004
v 0 1.1374 2.068
v -0.6204001 0.45496002 2.56432
v 0.6204001 0.45496002 2.56432
v 4.277 0.34216 0
v 3.4601657 0.34216 2.5139575
v 3.7637599 0 0
v 3.4601657 0.34216 2.5139575
v 1.3216655 0.34216 4.067669
v 3.0449457 0 2.2122827
v 1.3216655 0.34216 4.067669
v -1.3216659 0.34216 4.0676684
v 1.1630657 0 3.5795486
v -1.3216659 0.34216 4.0676684
v -3.460166 0.34216 2.5139573
v -1.163066 0 3.5795481
v -3.460166 0.34216 2.5139573
v -4.277 0.34216 -3.739072E-07
v -3.044946 0 2.2122824
v -4.277 0.34216 -3.739072E-07
v -3.4601655 0.34216 -2.513958
v -3.7637599 0 -3.2903833E-07
v -3.4601655 0.34216 -2.513958
v -1.3216642 0.34216 -4.067669
v -3.0449457 0 -2.212283
v -1.3216642 0.34216 -4.067669
v 1.3216662 0.34216 -4.0676684
v -1.1630645 0 -3.5795486
v 1.3216662 0.34216 -4.0676684
v 3.4601655 0.34216 -2.5139577
v 1.1630663 0 -3.5795481
v 3.4601655 0.34216 -2.5139577
v 4.277 0.34216 7.478144E-07
v 3.0449457 0 -2.212283
v 4.7376003 0.7896 0
v 4.9350004 1.0528 0
v 4.7376003 1.0528 0.1974
v 2.3688002 0.7896 4.1028824
v 2.5662003 1.0528 4.1028824
v 2.3688002 1.0528 4.3002825
v -2.3688006 0.7896 4.1028824
v -2.1714005 1.0528 4.1028824
v -2.3688006 1.0528 4.3002825
v -4.7376003 0.7896 -4.141742E-07
v -4.5402 1.0528 -4.141742E-07
v -4.7376003 1.0528 0.19739959
v -2.3688 0.7896 -4.1028824
v -2.1713998 1.0528 -4.1028824
v -2.3688 1.0528 -3.9054823
v 2.368802 0.7896 -4.1028814
v 2.5662022 1.0528 -4.1028814
v 2.368802 1.0528 -3.9054813
v 0 0.9870001 -2.6320002
v 0.32900003 3.6190002 -2.9610002
v 0 3.2900002 1.9740002
vn 0 -1 0
vn 0 -1 0
vn 0 -1 0
vn 0 -1 0
vn 0 -1 0
vn 0 -1 0
vn 0 -1 0
vn 0 -1 0
vn 0 -1 0
vn 0 -1 0
vn 0 -1 0
vn 0 -1 0
vn 0.99094903 -0.11325133 0.07206903
vn 0.99094903 -0.11325133 0.07206903
vn 0.99094903 -0.11325133 0.07206903
vn 0 -1 0
vn 0 -1 0
vn 0 -1 0
vn 0 -0.533993 0.84548897
vn 0 -0.533993 0.84548897
vn 0 -0.533993 0.84548897
vn 0 -0.53399295 0.84548885
vn 0 -0.53399295 0.84548885
vn 0 -0.53399295 0.84548885
vn 0 0.58817166 0.80873615
vn 0 0.58817166 0.80873615
vn 0 0.58817166 0.80873615
vn 0.5459044 -0.8188567 0.17737508
vn 0.5459044 -0.8188567 0.17737508
vn 0.5459044 -0.8188567 0.17737508
vn 0.3373875 -0.8188567 0.46437404
vn 0.3373875 -0.8188567 0.46437404
vn 0.3373875 -0.8188567 0.46437404
vn -1.0354491E-07 -0.8188567 0.5739979
vn -1.0354491E-07 -0.8188567 0.5739979
vn -1.0354491E-07 -0.8188567 0.5739979
vn -0.33738747 -0.8188567 0.46437404
vn -0.33738747 -0.8188567 0.46437404
vn -0.33738747 -0.8188567 0.46437404
vn -0.5459044 -0.8188567 0.17737502
vn -0.5459044 -0.8188567 0.17737502
vn -0.5459044 -0.8188567 0.17737502
vn -0.5459044 -0.8188567 -0.17737511
vn -0.5459044 -0.8188567 -0.17737511
vn -0.5459044 -0.8188567 -0.17737511
vn -0.33738732 -0.81885684 -0.46437418
vn -0.33738732 -0.81885684 -0.46437418
vn -0.33738732 -0.81885684 -0.46437418
vn 1.0354494E-07 -0.8188567 -0.57399786
vn 1.0354494E-07 -0.8188567 -0.57399786
vn 1.0354494E-07 -0.8188567 -0.57399786
vn 0.3373875 -0.81885684 -0.46437404
vn 0.3373875 -0.81885684 -0.46437404
vn 0.3373875 -0.81885684 -0.46437404
vn 0.5459046 -0.81885666 -0.17737511
vn 0.5459046 -0.81885666 -0.17737511
vn 0.5459046 -0.81885666 -0.17737511
vn 0.6246948 -0.46852127 0.6246952
vn 0.6246948 -0.46852127 0.6246952
vn 0.6246948 -0.46852127 0.6246952
vn 0.624695 -0.4685214 0.624695
vn 0.624695 -0.4685214 0.624695
vn 0.624695 -0.4685214 0.624695
vn 0.624695 -0.4685214 0.624695
vn 0.624695 -0.4685214 0.624695
vn 0.624695 -0.4685214 0.624695
vn 0.6246948 -0.46852127 0.6246952
vn 0.6246948 -0.46852127 0.6246952
vn 0.6246948 -0.46852127 0.6246952
vn 0.624695 -0.4685214 0.624695
vn 0.624695 -0.4685214 0.624695
vn 0.624695 -0.4685214 0.624695
vn 0.624695 -0.4685214 0.624695
vn 0.624695 -0.4685214 0.624695
vn 0.624695 -0.4685214 0.624695
vn 0.9914602 -0.11664239 0.05832119
vn 0.9914602 -0.11664239 0.05832119
vn 0.9914602 -0.11664239 0.05832119
f 1//1 2//2 3//3
f 4//4 5//5 6//6
f 7//7 8//8 9//9
f 10//10 11//11 12//12
f 13//13 14//14 15//15
f 16//16 17//17 18//18
f 19//19 20//20 21//21
f 22//22 23//23 24//24
f 25//25 26//26 27//27
f 28//28 29//29 30//30
f 31//31 32//32 33//33
f 34//34 35//35 36//36
f 37//37 38//38 39//39
f 40//40 41//41 42//42
f 43//43 44//44 45//45
f 46//46 47//47 48//48
f 49//49 50//50 51//51
f 52//52 53//53 54//54
f 55//55 56//56 57//57
f 58//58 59//59 60//60
f 61//61 62//62 63//63
f 64//64 65//65 66//66
f 67//67 68//68 69//69
f 70//70 71//71 72//72
f 73//73 74//74 75//75
f 76//76 77//77 78//78
