# Exported from SharpOpenGl procedural mesh
o terran_destroyer_mk2_25
# vertices 225
v -2.4712412 0 -2.384587
v 2.4712412 0 -2.384587
v 2.4712412 0.5642839 -2.384587
v -2.4712412 0 -2.384587
v 2.4712412 0.5642839 -2.384587
v -2.4712412 0.5642839 -2.384587
v -2.4712412 0 2.1461282
v 2.4712412 0.5642839 2.1461282
v 2.4712412 0 2.1461282
v -2.4712412 0 2.1461282
v -2.4712412 0.5642839 2.1461282
v 2.4712412 0.5642839 2.1461282
v -2.4712412 0 -2.384587
v -2.4712412 0 2.1461282
v 2.4712412 0 2.1461282
v -2.4712412 0 -2.384587
v 2.4712412 0 2.1461282
v 2.4712412 0 -2.384587
v -2.4712412 0.5642839 -2.384587
v 2.4712412 0.5642839 2.1461282
v -2.4712412 0.5642839 2.1461282
v -2.4712412 0.5642839 -2.384587
v 2.4712412 0.5642839 -2.384587
v 2.4712412 0.5642839 2.1461282
v -2.4712412 0 -2.384587
v -2.4712412 0.5642839 -2.384587
v -2.4712412 0.5642839 2.1461282
v -2.4712412 0 -2.384587
v -2.4712412 0.5642839 2.1461282
v -2.4712412 0 2.1461282
v 2.4712412 0 -2.384587
v 2.4712412 0 2.1461282
v 2.4712412 0.5642839 2.1461282
v 2.4712412 0 -2.384587
v 2.4712412 0.5642839 2.1461282
v 2.4712412 0.5642839 -2.384587
v -1.7298689 0.5642839 0.09538348
v 1.7298689 0.5642839 0.09538348
v 1.7298689 0.97467214 0.09538348
v -1.7298689 0.5642839 0.09538348
v 1.7298689 0.97467214 0.09538348
v -1.7298689 0.97467214 0.09538348
v -1.7298689 0.5642839 1.8122861
v 1.7298689 0.97467214 1.8122861
v 1.7298689 0.5642839 1.8122861
v -1.7298689 0.5642839 1.8122861
v -1.7298689 0.97467214 1.8122861
v 1.7298689 0.97467214 1.8122861
v -1.7298689 0.5642839 0.09538348
v -1.7298689 0.5642839 1.8122861
v 1.7298689 0.5642839 1.8122861
v -1.7298689 0.5642839 0.09538348
v 1.7298689 0.5642839 1.8122861
v 1.7298689 0.5642839 0.09538348
v -1.7298689 0.97467214 0.09538348
v 1.7298689 0.97467214 1.8122861
v -1.7298689 0.97467214 1.8122861
v -1.7298689 0.97467214 0.09538348
v 1.7298689 0.97467214 0.09538348
v 1.7298689 0.97467214 1.8122861
v -1.7298689 0.5642839 0.09538348
v -1.7298689 0.97467214 0.09538348
v -1.7298689 0.97467214 1.8122861
v -1.7298689 0.5642839 0.09538348
v -1.7298689 0.97467214 1.8122861
v -1.7298689 0.5642839 1.8122861
v 1.7298689 0.5642839 0.09538348
v 1.7298689 0.5642839 1.8122861
v 1.7298689 0.97467214 1.8122861
v 1.7298689 0.5642839 0.09538348
v 1.7298689 0.97467214 1.8122861
v 1.7298689 0.97467214 0.09538348
v -1.0873462 0.97467214 0.57230085
v 1.0873462 0.97467214 0.57230085
v 1.0873462 1.2824633 0.57230085
v -1.0873462 0.97467214 0.57230085
v 1.0873462 1.2824633 0.57230085
v -1.0873462 1.2824633 0.57230085
v -1.0873462 0.97467214 1.3353688
v 1.0873462 1.2824633 1.3353688
v 1.0873462 0.97467214 1.3353688
v -1.0873462 0.97467214 1.3353688
v -1.0873462 1.2824633 1.3353688
v 1.0873462 1.2824633 1.3353688
v -1.0873462 0.97467214 0.57230085
v -1.0873462 0.97467214 1.3353688
v 1.0873462 0.97467214 1.3353688
v -1.0873462 0.97467214 0.57230085
v 1.0873462 0.97467214 1.3353688
v 1.0873462 0.97467214 0.57230085
v -1.0873462 1.2824633 0.57230085
v 1.0873462 1.2824633 1.3353688
v -1.0873462 1.2824633 1.3353688
v -1.0873462 1.2824633 0.57230085
v 1.0873462 1.2824633 0.57230085
v 1.0873462 1.2824633 1.3353688
v -1.0873462 0.97467214 0.57230085
v -1.0873462 1.2824633 0.57230085
v -1.0873462 1.2824633 1.3353688
v -1.0873462 0.97467214 0.57230085
v -1.0873462 1.2824633 1.3353688
v -1.0873462 0.97467214 1.3353688
v 1.0873462 0.97467214 0.57230085
v 1.0873462 0.97467214 1.3353688
v 1.0873462 1.2824633 1.3353688
v 1.0873462 0.97467214 0.57230085
v 1.0873462 1.2824633 1.3353688
v 1.0873462 1.2824633 0.57230085
v -3.0643392 0.20519415 -0.38153392
v -1.8781433 0.20519415 -0.38153392
v -1.8781433 0.51298535 -0.38153392
v -3.0643392 0.20519415 -0.38153392
v -1.8781433 0.51298535 -0.38153392
v -3.0643392 0.51298535 -0.38153392
v -3.0643392 0.20519415 0.57230085
v -1.8781433 0.51298535 0.57230085
v -1.8781433 0.20519415 0.57230085
v -3.0643392 0.20519415 0.57230085
v -3.0643392 0.51298535 0.57230085
v -1.8781433 0.51298535 0.57230085
v -3.0643392 0.20519415 -0.38153392
v -3.0643392 0.20519415 0.57230085
v -1.8781433 0.20519415 0.57230085
v -3.0643392 0.20519415 -0.38153392
v -1.8781433 0.20519415 0.57230085
v -1.8781433 0.20519415 -0.38153392
v -3.0643392 0.51298535 -0.38153392
v -1.8781433 0.51298535 0.57230085
v -3.0643392 0.51298535 0.57230085
v -3.0643392 0.51298535 -0.38153392
v -1.8781433 0.51298535 -0.38153392
v -1.8781433 0.51298535 0.57230085
v -3.0643392 0.20519415 -0.38153392
v -3.0643392 0.51298535 -0.38153392
v -3.0643392 0.51298535 0.57230085
v -3.0643392 0.20519415 -0.38153392
v -3.0643392 0.51298535 0.57230085
v -3.0643392 0.20519415 0.57230085
v -1.8781433 0.20519415 -0.38153392
v -1.8781433 0.20519415 0.57230085
v -1.8781433 0.51298535 0.57230085
v -1.8781433 0.20519415 -0.38153392
v -1.8781433 0.51298535 0.57230085
v -1.8781433 0.51298535 -0.38153392
v 1.8781433 0.20519415 -0.38153392
v 3.0643392 0.20519415 -0.38153392
v 3.0643392 0.51298535 -0.38153392
v 1.8781433 0.20519415 -0.38153392
v 3.0643392 0.51298535 -0.38153392
v 1.8781433 0.51298535 -0.38153392
v 1.8781433 0.20519415 0.57230085
v 3.0643392 0.51298535 0.57230085
v 3.0643392 0.20519415 0.57230085
v 1.8781433 0.20519415 0.57230085
v 1.8781433 0.51298535 0.57230085
v 3.0643392 0.51298535 0.57230085
v 1.8781433 0.20519415 -0.38153392
v 1.8781433 0.20519415 0.57230085
v 3.0643392 0.20519415 0.57230085
v 1.8781433 0.20519415 -0.38153392
v 3.0643392 0.20519415 0.57230085
v 3.0643392 0.20519415 -0.38153392
v 1.8781433 0.51298535 -0.38153392
v 3.0643392 0.51298535 0.57230085
v 1.8781433 0.51298535 0.57230085
v 1.8781433 0.51298535 -0.38153392
v 3.0643392 0.51298535 -0.38153392
v 3.0643392 0.51298535 0.57230085
v 1.8781433 0.20519415 -0.38153392
v 1.8781433 0.51298535 -0.38153392
v 1.8781433 0.51298535 0.57230085
v 1.8781433 0.20519415 -0.38153392
v 1.8781433 0.51298535 0.57230085
v 1.8781433 0.20519415 0.57230085
v 3.0643392 0.20519415 -0.38153392
v 3.0643392 0.20519415 0.57230085
v 3.0643392 0.51298535 0.57230085
v 3.0643392 0.20519415 -0.38153392
v 3.0643392 0.51298535 0.57230085
v 3.0643392 0.51298535 -0.38153392
v -0.7413724 0.35908973 2.003053
v 0.7413724 0.35908973 2.003053
v 0.7413724 0.6668809 2.003053
v -0.7413724 0.35908973 2.003053
v 0.7413724 0.6668809 2.003053
v -0.7413724 0.6668809 2.003053
v -0.7413724 0.35908973 2.766121
v 0.7413724 0.6668809 2.766121
v 0.7413724 0.35908973 2.766121
v -0.7413724 0.35908973 2.766121
v -0.7413724 0.6668809 2.766121
v 0.7413724 0.6668809 2.766121
v -0.7413724 0.35908973 2.003053
v -0.7413724 0.35908973 2.766121
v 0.7413724 0.35908973 2.766121
v -0.7413724 0.35908973 2.003053
v 0.7413724 0.35908973 2.766121
v 0.7413724 0.35908973 2.003053
v -0.7413724 0.6668809 2.003053
v 0.7413724 0.6668809 2.766121
v -0.7413724 0.6668809 2.766121
v -0.7413724 0.6668809 2.003053
v 0.7413724 0.6668809 2.003053
v 0.7413724 0.6668809 2.766121
v -0.7413724 0.35908973 2.003053
v -0.7413724 0.6668809 2.003053
v -0.7413724 0.6668809 2.766121
v -0.7413724 0.35908973 2.003053
v -0.7413724 0.6668809 2.766121
v -0.7413724 0.35908973 2.766121
v 0.7413724 0.35908973 2.003053
v 0.7413724 0.35908973 2.766121
v 0.7413724 0.6668809 2.766121
v 0.7413724 0.35908973 2.003053
v 0.7413724 0.6668809 2.766121
v 0.7413724 0.6668809 2.003053
v -1.4415573 0.08639753 -3.2854311
v -2.0593677 0 -4.6446137
v -0.823747 0 -4.6446137
v 0 0.08639753 -3.2854311
v -0.6178103 0 -4.6446137
v 0.6178103 0 -4.6446137
v 1.4415573 0.08639753 -3.2854311
v 0.823747 0 -4.6446137
v 2.0593677 0 -4.6446137
vn 0 0 1
vn 0 0 1
vn 0 0 1
vn 0 0 1
vn 0 0 1
vn 0 0 1
vn 0 0 -1
vn 0 0 -1
vn 0 0 -1
vn 0 0 -1
vn 0 0 -1
vn 0 0 -1
vn 0 1 0
vn 0 1 0
vn 0 1 0
vn 0 1 0
vn 0 1 0
vn 0 1 0
vn 0 -1 0
vn 0 -1 0
vn 0 -1 0
vn 0 -1 0
vn 0 -1 0
vn 0 -1 0
vn 1 0 0
vn 1 0 0
vn 1 0 0
vn 1 0 0
vn 1 0 0
vn 1 0 0
vn -1 0 0
vn -1 0 0
vn -1 0 0
vn -1 0 0
vn -1 0 0
vn -1 0 0
vn 0 0 1
vn 0 0 1
vn 0 0 1
vn 0 0 1
vn 0 0 1
vn 0 0 1
vn 0 0 -1
vn 0 0 -1
vn 0 0 -1
vn 0 0 -1
vn 0 0 -1
vn 0 0 -1
vn 0 1 0
vn 0 1 0
vn 0 1 0
vn 0 1 0
vn 0 1 0
vn 0 1 0
vn 0 -1 0
vn 0 -1 0
vn 0 -1 0
vn 0 -1 0
vn 0 -1 0
vn 0 -1 0
vn 0.99999994 0 0
vn 0.99999994 0 0
vn 0.99999994 0 0
vn 0.99999994 0 0
vn 0.99999994 0 0
vn 0.99999994 0 0
vn -0.99999994 0 0
vn -0.99999994 0 0
vn -0.99999994 0 0
vn -0.99999994 0 0
vn -0.99999994 0 0
vn -0.99999994 0 0
vn 0 0 1
vn 0 0 1
vn 0 0 1
vn 0 0 1
vn 0 0 1
vn 0 0 1
vn 0 0 -1
vn 0 0 -1
vn 0 0 -1
vn 0 0 -1
vn 0 0 -1
vn 0 0 -1
vn 0 0.99999994 0
vn 0 0.99999994 0
vn 0 0.99999994 0
vn 0 0.99999994 0
vn 0 0.99999994 0
vn 0 0.99999994 0
vn 0 -0.99999994 0
vn 0 -0.99999994 0
vn 0 -0.99999994 0
vn 0 -0.99999994 0
vn 0 -0.99999994 0
vn 0 -0.99999994 0
vn 1 0 0
vn 1 0 0
vn 1 0 0
vn 1 0 0
vn 1 0 0
vn 1 0 0
vn -1 0 0
vn -1 0 0
vn -1 0 0
vn -1 0 0
vn -1 0 0
vn -1 0 0
vn 0 0 1
vn 0 0 1
vn 0 0 1
vn 0 0 1
vn 0 0 1
vn 0 0 1
vn 0 0 -1
vn 0 0 -1
vn 0 0 -1
vn 0 0 -1
vn 0 0 -1
vn 0 0 -1
vn 0 1 0
vn 0 1 0
vn 0 1 0
vn 0 1 0
vn 0 1 0
vn 0 1 0
vn 0 -1 0
vn 0 -1 0
vn 0 -1 0
vn 0 -1 0
vn 0 -1 0
vn 0 -1 0
vn 1 0 0
vn 1 0 0
vn 1 0 0
vn 1 0 0
vn 1 0 0
vn 1 0 0
vn -1 0 0
vn -1 0 0
vn -1 0 0
vn -1 0 0
vn -1 0 0
vn -1 0 0
vn 0 0 1
vn 0 0 1
vn 0 0 1
vn 0 0 1
vn 0 0 1
vn 0 0 1
vn 0 0 -1
vn 0 0 -1
vn 0 0 -1
vn 0 0 -1
vn 0 0 -1
vn 0 0 -1
vn 0 1 0
vn 0 1 0
vn 0 1 0
vn 0 1 0
vn 0 1 0
vn 0 1 0
vn 0 -1 0
vn 0 -1 0
vn 0 -1 0
vn 0 -1 0
vn 0 -1 0
vn 0 -1 0
vn 1 0 0
vn 1 0 0
vn 1 0 0
vn 1 0 0
vn 1 0 0
vn 1 0 0
vn -1 0 0
vn -1 0 0
vn -1 0 0
vn -1 0 0
vn -1 0 0
vn -1 0 0
vn 0 0 0.99999994
vn 0 0 0.99999994
vn 0 0 0.99999994
vn 0 0 0.99999994
vn 0 0 0.99999994
vn 0 0 0.99999994
vn 0 0 -0.99999994
vn 0 0 -0.99999994
vn 0 0 -0.99999994
vn 0 0 -0.99999994
vn 0 0 -0.99999994
vn 0 0 -0.99999994
vn 0 1 0
vn 0 1 0
vn 0 1 0
vn 0 1 0
vn 0 1 0
vn 0 1 0
vn 0 -1 0
vn 0 -1 0
vn 0 -1 0
vn 0 -1 0
vn 0 -1 0
vn 0 -1 0
vn 1 0 0
vn 1 0 0
vn 1 0 0
vn 1 0 0
vn 1 0 0
vn 1 0 0
vn -1 0 0
vn -1 0 0
vn -1 0 0
vn -1 0 0
vn -1 0 0
vn -1 0 0
vn 0 -0.99798584 0.06343777
vn 0 -0.99798584 0.06343777
vn 0 -0.99798584 0.06343777
vn 0 -0.99798584 0.06343777
vn 0 -0.99798584 0.06343777
vn 0 -0.99798584 0.06343777
vn 0 -0.99798584 0.06343777
vn 0 -0.99798584 0.06343777
vn 0 -0.99798584 0.06343777
f 1//1 2//2 3//3
f 4//4 5//5 6//6
f 7//7 8//8 9//9
f 10//10 11//11 12//12
f 13//13 14//14 15//15
f 16//16 17//17 18//18
f 19//19 20//20 21//21
f 22//22 23//23 24//24
f 25//25 26//26 27//27
f 28//28 29//29 30//30
f 31//31 32//32 33//33
f 34//34 35//35 36//36
f 37//37 38//38 39//39
f 40//40 41//41 42//42
f 43//43 44//44 45//45
f 46//46 47//47 48//48
f 49//49 50//50 51//51
f 52//52 53//53 54//54
f 55//55 56//56 57//57
f 58//58 59//59 60//60
f 61//61 62//62 63//63
f 64//64 65//65 66//66
f 67//67 68//68 69//69
f 70//70 71//71 72//72
f 73//73 74//74 75//75
f 76//76 77//77 78//78
f 79//79 80//80 81//81
f 82//82 83//83 84//84
f 85//85 86//86 87//87
f 88//88 89//89 90//90
f 91//91 92//92 93//93
f 94//94 95//95 96//96
f 97//97 98//98 99//99
f 100//100 101//101 102//102
f 103//103 104//104 105//105
f 106//106 107//107 108//108
f 109//109 110//110 111//111
f 112//112 113//113 114//114
f 115//115 116//116 117//117
f 118//118 119//119 120//120
f 121//121 122//122 123//123
f 124//124 125//125 126//126
f 127//127 128//128 129//129
f 130//130 131//131 132//132
f 133//133 134//134 135//135
f 136//136 137//137 138//138
f 139//139 140//140 141//141
f 142//142 143//143 144//144
f 145//145 146//146 147//147
f 148//148 149//149 150//150
f 151//151 152//152 153//153
f 154//154 155//155 156//156
f 157//157 158//158 159//159
f 160//160 161//161 162//162
f 163//163 164//164 165//165
f 166//166 167//167 168//168
f 169//169 170//170 171//171
f 172//172 173//173 174//174
f 175//175 176//176 177//177
f 178//178 179//179 180//180
f 181//181 182//182 183//183
f 184//184 185//185 186//186
f 187//187 188//188 189//189
f 190//190 191//191 192//192
f 193//193 194//194 195//195
f 196//196 197//197 198//198
f 199//199 200//200 201//201
f 202//202 203//203 204//204
f 205//205 206//206 207//207
f 208//208 209//209 210//210
f 211//211 212//212 213//213
f 214//214 215//215 216//216
f 217//217 218//218 219//219
f 220//220 221//221 222//222
f 223//223 224//224 225//225
