# Exported from SharpOpenGl procedural mesh
o terran_scout_mk3_34
# vertices 150
v -0.6777443 0 -0.8635881
v 0.6777443 0 -0.8635881
v 0.6777443 0.14122993 -0.8635881
v -0.6777443 0 -0.8635881
v 0.6777443 0.14122993 -0.8635881
v -0.6777443 0.14122993 -0.8635881
v -0.6777443 0 0.77722925
v 0.6777443 0.14122993 0.77722925
v 0.6777443 0 0.77722925
v -0.6777443 0 0.77722925
v -0.6777443 0.14122993 0.77722925
v 0.6777443 0.14122993 0.77722925
v -0.6777443 0 -0.8635881
v -0.6777443 0 0.77722925
v 0.6777443 0 0.77722925
v -0.6777443 0 -0.8635881
v 0.6777443 0 0.77722925
v 0.6777443 0 -0.8635881
v -0.6777443 0.14122993 -0.8635881
v 0.6777443 0.14122993 0.77722925
v -0.6777443 0.14122993 0.77722925
v -0.6777443 0.14122993 -0.8635881
v 0.6777443 0.14122993 -0.8635881
v 0.6777443 0.14122993 0.77722925
v -0.6777443 0 -0.8635881
v -0.6777443 0.14122993 -0.8635881
v -0.6777443 0.14122993 0.77722925
v -0.6777443 0 -0.8635881
v -0.6777443 0.14122993 0.77722925
v -0.6777443 0 0.77722925
v 0.6777443 0 -0.8635881
v 0.6777443 0 0.77722925
v 0.6777443 0.14122993 0.77722925
v 0.6777443 0 -0.8635881
v 0.6777443 0.14122993 0.77722925
v 0.6777443 0.14122993 -0.8635881
v -0.47442102 0.14122993 0.03454352
v 0.47442102 0.14122993 0.03454352
v 0.47442102 0.24394257 0.03454352
v -0.47442102 0.14122993 0.03454352
v 0.47442102 0.24394257 0.03454352
v -0.47442102 0.24394257 0.03454352
v -0.47442102 0.14122993 0.65632695
v 0.47442102 0.24394257 0.65632695
v 0.47442102 0.14122993 0.65632695
v -0.47442102 0.14122993 0.65632695
v -0.47442102 0.24394257 0.65632695
v 0.47442102 0.24394257 0.65632695
v -0.47442102 0.14122993 0.03454352
v -0.47442102 0.14122993 0.65632695
v 0.47442102 0.14122993 0.65632695
v -0.47442102 0.14122993 0.03454352
v 0.47442102 0.14122993 0.65632695
v 0.47442102 0.14122993 0.03454352
v -0.47442102 0.24394257 0.03454352
v 0.47442102 0.24394257 0.65632695
v -0.47442102 0.24394257 0.65632695
v -0.47442102 0.24394257 0.03454352
v 0.47442102 0.24394257 0.03454352
v 0.47442102 0.24394257 0.65632695
v -0.47442102 0.14122993 0.03454352
v -0.47442102 0.24394257 0.03454352
v -0.47442102 0.24394257 0.65632695
v -0.47442102 0.14122993 0.03454352
v -0.47442102 0.24394257 0.65632695
v -0.47442102 0.14122993 0.65632695
v 0.47442102 0.14122993 0.03454352
v 0.47442102 0.14122993 0.65632695
v 0.47442102 0.24394257 0.65632695
v 0.47442102 0.14122993 0.03454352
v 0.47442102 0.24394257 0.65632695
v 0.47442102 0.24394257 0.03454352
v -0.2982075 0.24394257 0.20726115
v 0.2982075 0.24394257 0.20726115
v 0.2982075 0.3209771 0.20726115
v -0.2982075 0.24394257 0.20726115
v 0.2982075 0.3209771 0.20726115
v -0.2982075 0.3209771 0.20726115
v -0.2982075 0.24394257 0.48360935
v 0.2982075 0.3209771 0.48360935
v 0.2982075 0.24394257 0.48360935
v -0.2982075 0.24394257 0.48360935
v -0.2982075 0.3209771 0.48360935
v 0.2982075 0.3209771 0.48360935
v -0.2982075 0.24394257 0.20726115
v -0.2982075 0.24394257 0.48360935
v 0.2982075 0.24394257 0.48360935
v -0.2982075 0.24394257 0.20726115
v 0.2982075 0.24394257 0.48360935
v 0.2982075 0.24394257 0.20726115
v -0.2982075 0.3209771 0.20726115
v 0.2982075 0.3209771 0.48360935
v -0.2982075 0.3209771 0.48360935
v -0.2982075 0.3209771 0.20726115
v 0.2982075 0.3209771 0.20726115
v 0.2982075 0.3209771 0.48360935
v -0.2982075 0.24394257 0.20726115
v -0.2982075 0.3209771 0.20726115
v -0.2982075 0.3209771 0.48360935
v -0.2982075 0.24394257 0.20726115
v -0.2982075 0.3209771 0.48360935
v -0.2982075 0.24394257 0.48360935
v 0.2982075 0.24394257 0.20726115
v 0.2982075 0.24394257 0.48360935
v 0.2982075 0.3209771 0.48360935
v 0.2982075 0.24394257 0.20726115
v 0.2982075 0.3209771 0.48360935
v 0.2982075 0.3209771 0.20726115
v -0.2033233 0.08987358 0.725414
v 0.2033233 0.08987358 0.725414
v 0.2033233 0.16690807 0.725414
v -0.2033233 0.08987358 0.725414
v 0.2033233 0.16690807 0.725414
v -0.2033233 0.16690807 0.725414
v -0.2033233 0.08987358 1.0017622
v 0.2033233 0.16690807 1.0017622
v 0.2033233 0.08987358 1.0017622
v -0.2033233 0.08987358 1.0017622
v -0.2033233 0.16690807 1.0017622
v 0.2033233 0.16690807 1.0017622
v -0.2033233 0.08987358 0.725414
v -0.2033233 0.08987358 1.0017622
v 0.2033233 0.08987358 1.0017622
v -0.2033233 0.08987358 0.725414
v 0.2033233 0.08987358 1.0017622
v 0.2033233 0.08987358 0.725414
v -0.2033233 0.16690807 0.725414
v 0.2033233 0.16690807 1.0017622
v -0.2033233 0.16690807 1.0017622
v -0.2033233 0.16690807 0.725414
v 0.2033233 0.16690807 0.725414
v 0.2033233 0.16690807 1.0017622
v -0.2033233 0.08987358 0.725414
v -0.2033233 0.16690807 0.725414
v -0.2033233 0.16690807 1.0017622
v -0.2033233 0.08987358 0.725414
v -0.2033233 0.16690807 1.0017622
v -0.2033233 0.08987358 1.0017622
v 0.2033233 0.08987358 0.725414
v 0.2033233 0.08987358 1.0017622
v 0.2033233 0.16690807 1.0017622
v 0.2033233 0.08987358 0.725414
v 0.2033233 0.16690807 1.0017622
v 0.2033233 0.16690807 0.725414
v -0.31628066 0.021623718 -1.1898324
v -0.41116488 0 -1.3985777
v -0.22139646 0 -1.3985777
v 0.31628066 0.021623718 -1.1898324
v 0.22139646 0 -1.3985777
v 0.41116488 0 -1.3985777
vn 0 0 1
vn 0 0 1
vn 0 0 1
vn 0 0 1
vn 0 0 1
vn 0 0 1
vn 0 0 -1
vn 0 0 -1
vn 0 0 -1
vn 0 0 -1
vn 0 0 -1
vn 0 0 -1
vn 0 1 0
vn 0 1 0
vn 0 1 0
vn 0 1 0
vn 0 1 0
vn 0 1 0
vn 0 -1 0
vn 0 -1 0
vn 0 -1 0
vn 0 -1 0
vn 0 -1 0
vn 0 -1 0
vn 1 0 0
vn 1 0 0
vn 1 0 0
vn 1 0 0
vn 1 0 0
vn 1 0 0
vn -1 0 0
vn -1 0 0
vn -1 0 0
vn -1 0 0
vn -1 0 0
vn -1 0 0
vn 0 0 1
vn 0 0 1
vn 0 0 1
vn 0 0 1
vn 0 0 1
vn 0 0 1
vn 0 0 -1
vn 0 0 -1
vn 0 0 -1
vn 0 0 -1
vn 0 0 -1
vn 0 0 -1
vn 0 1 0
vn 0 1 0
vn 0 1 0
vn 0 1 0
vn 0 1 0
vn 0 1 0
vn 0 -1 0
vn 0 -1 0
vn 0 -1 0
vn 0 -1 0
vn 0 -1 0
vn 0 -1 0
vn 1 0 0
vn 1 0 0
vn 1 0 0
vn 1 0 0
vn 1 0 0
vn 1 0 0
vn -1 0 0
vn -1 0 0
vn -1 0 0
vn -1 0 0
vn -1 0 0
vn -1 0 0
vn 0 0 1
vn 0 0 1
vn 0 0 1
vn 0 0 1
vn 0 0 1
vn 0 0 1
vn 0 0 -1
vn 0 0 -1
vn 0 0 -1
vn 0 0 -1
vn 0 0 -1
vn 0 0 -1
vn 0 1 0
vn 0 1 0
vn 0 1 0
vn 0 1 0
vn 0 1 0
vn 0 1 0
vn 0 -1 0
vn 0 -1 0
vn 0 -1 0
vn 0 -1 0
vn 0 -1 0
vn 0 -1 0
vn 1 0 0
vn 1 0 0
vn 1 0 0
vn 1 0 0
vn 1 0 0
vn 1 0 0
vn -1 0 0
vn -1 0 0
vn -1 0 0
vn -1 0 0
vn -1 0 0
vn -1 0 0
vn 0 0 1
vn 0 0 1
vn 0 0 1
vn 0 0 1
vn 0 0 1
vn 0 0 1
vn 0 0 -1
vn 0 0 -1
vn 0 0 -1
vn 0 0 -1
vn 0 0 -1
vn 0 0 -1
vn 0 1 0
vn 0 1 0
vn 0 1 0
vn 0 1 0
vn 0 1 0
vn 0 1 0
vn 0 -1 0
vn 0 -1 0
vn 0 -1 0
vn 0 -1 0
vn 0 -1 0
vn 0 -1 0
vn 0.99999994 0 0
vn 0.99999994 0 0
vn 0.99999994 0 0
vn 0.99999994 0 0
vn 0.99999994 0 0
vn 0.99999994 0 0
vn -0.99999994 0 0
vn -0.99999994 0 0
vn -0.99999994 0 0
vn -0.99999994 0 0
vn -0.99999994 0 0
vn -0.99999994 0 0
vn 0 -0.9946774 0.10303767
vn 0 -0.9946774 0.10303767
vn 0 -0.9946774 0.10303767
vn 0 -0.9946774 0.10303767
vn 0 -0.9946774 0.10303767
vn 0 -0.9946774 0.10303767
f 1//1 2//2 3//3
f 4//4 5//5 6//6
f 7//7 8//8 9//9
f 10//10 11//11 12//12
f 13//13 14//14 15//15
f 16//16 17//17 18//18
f 19//19 20//20 21//21
f 22//22 23//23 24//24
f 25//25 26//26 27//27
f 28//28 29//29 30//30
f 31//31 32//32 33//33
f 34//34 35//35 36//36
f 37//37 38//38 39//39
f 40//40 41//41 42//42
f 43//43 44//44 45//45
f 46//46 47//47 48//48
f 49//49 50//50 51//51
f 52//52 53//53 54//54
f 55//55 56//56 57//57
f 58//58 59//59 60//60
f 61//61 62//62 63//63
f 64//64 65//65 66//66
f 67//67 68//68 69//69
f 70//70 71//71 72//72
f 73//73 74//74 75//75
f 76//76 77//77 78//78
f 79//79 80//80 81//81
f 82//82 83//83 84//84
f 85//85 86//86 87//87
f 88//88 89//89 90//90
f 91//91 92//92 93//93
f 94//94 95//95 96//96
f 97//97 98//98 99//99
f 100//100 101//101 102//102
f 103//103 104//104 105//105
f 106//106 107//107 108//108
f 109//109 110//110 111//111
f 112//112 113//113 114//114
f 115//115 116//116 117//117
f 118//118 119//119 120//120
f 121//121 122//122 123//123
f 124//124 125//125 126//126
f 127//127 128//128 129//129
f 130//130 131//131 132//132
f 133//133 134//134 135//135
f 136//136 137//137 138//138
f 139//139 140//140 141//141
f 142//142 143//143 144//144
f 145//145 146//146 147//147
f 148//148 149//149 150//150
