# Exported from SharpOpenGl procedural mesh
o aetherian_carrier_mk1_10
# vertices 162
v 2.5958498 0.5059022 0.30685458
v 2.3387797 0.6376038 0.43333685
v 0 1.7200674 0.76713645
v 2.5958498 0.5059022 0.30685458
v 0 0.101180434 0
v 2.3387797 0.6376038 0.43333685
v 2.3387797 0.6376038 0.43333685
v 1.6184858 0.7432203 0.53476775
v 0 1.7200674 0.76713645
v 2.3387797 0.6376038 0.43333685
v 0 0.101180434 0
v 1.6184858 0.7432203 0.53476775
v 1.6184858 0.7432203 0.53476775
v 0.577631 0.80183303 0.5910576
v 0 1.7200674 0.76713645
v 1.6184858 0.7432203 0.53476775
v 0 0.101180434 0
v 0.577631 0.80183303 0.5910576
v 0.577631 0.80183303 0.5910576
v -0.57763094 0.80183303 0.5910576
v 0 1.7200674 0.76713645
v 0.577631 0.80183303 0.5910576
v 0 0.101180434 0
v -0.57763094 0.80183303 0.5910576
v -0.57763094 0.80183303 0.5910576
v -1.6184863 0.7432203 0.5347677
v 0 1.7200674 0.76713645
v -0.57763094 0.80183303 0.5910576
v 0 0.101180434 0
v -1.6184863 0.7432203 0.5347677
v -1.6184863 0.7432203 0.5347677
v -2.3387797 0.6376038 0.43333685
v 0 1.7200674 0.76713645
v -1.6184863 0.7432203 0.5347677
v 0 0.101180434 0
v -2.3387797 0.6376038 0.43333685
v -2.3387797 0.6376038 0.43333685
v -2.5958498 0.5059022 0.30685455
v 0 1.7200674 0.76713645
v -2.3387797 0.6376038 0.43333685
v 0 0.101180434 0
v -2.5958498 0.5059022 0.30685455
v -2.5958498 0.5059022 0.30685455
v -2.3387797 0.37420052 0.18037231
v 0 1.7200674 0.76713645
v -2.5958498 0.5059022 0.30685455
v 0 0.101180434 0
v -2.3387797 0.37420052 0.18037231
v -2.3387797 0.37420052 0.18037231
v -1.6184853 0.26858395 0.07894139
v 0 1.7200674 0.76713645
v -2.3387797 0.37420052 0.18037231
v 0 0.101180434 0
v -1.6184853 0.26858395 0.07894139
v -1.6184853 0.26858395 0.07894139
v -0.5776299 0.20997122 0.022651494
v 0 1.7200674 0.76713645
v -1.6184853 0.26858395 0.07894139
v 0 0.101180434 0
v -0.5776299 0.20997122 0.022651494
v -0.5776299 0.20997122 0.022651494
v 0.57763237 0.20997131 0.022651553
v 0 1.7200674 0.76713645
v -0.5776299 0.20997122 0.022651494
v 0 0.101180434 0
v 0.57763237 0.20997131 0.022651553
v 0.57763237 0.20997131 0.022651553
v 1.6184856 0.26858395 0.07894139
v 0 1.7200674 0.76713645
v 0.57763237 0.20997131 0.022651553
v 0 0.101180434 0
v 1.6184856 0.26858395 0.07894139
v 1.6184856 0.26858395 0.07894139
v 2.3387797 0.37420052 0.18037231
v 0 1.7200674 0.76713645
v 1.6184856 0.26858395 0.07894139
v 0 0.101180434 0
v 2.3387797 0.37420052 0.18037231
v 2.3387797 0.37420052 0.18037231
v 2.5958498 0.50590223 0.30685464
v 0 1.7200674 0.76713645
v 2.3387797 0.37420052 0.18037231
v 0 0.101180434 0
v 2.5958498 0.50590223 0.30685464
v -2.3486261 1.2748735 -0.46028185
v -1.236119 0.70826304 -0.46028185
v -1.7923727 0.70826304 0.021447897
v -2.3486261 1.2748735 -0.46028185
v -1.7923727 0.70826304 0.021447897
v -2.9048798 0.70826304 0.021447837
v -2.3486261 1.2748735 -0.46028185
v -2.9048798 0.70826304 0.021447837
v -3.4611332 0.70826304 -0.4602819
v -2.3486261 1.2748735 -0.46028185
v -3.4611332 0.70826304 -0.4602819
v -2.9048796 0.70826304 -0.9420116
v -2.3486261 1.2748735 -0.46028185
v -2.9048796 0.70826304 -0.9420116
v -1.7923722 0.70826304 -0.9420115
v -2.3486261 1.2748735 -0.46028185
v -1.7923722 0.70826304 -0.9420115
v -1.236119 0.70826304 -0.46028176
v 0 1.2748735 0.23014098
v 1.1125071 0.70826304 0.23014098
v 0.5562535 0.70826304 0.71187073
v 0 1.2748735 0.23014098
v 0.5562535 0.70826304 0.71187073
v -0.5562536 0.70826304 0.7118707
v 0 1.2748735 0.23014098
v -0.5562536 0.70826304 0.7118707
v -1.1125071 0.70826304 0.23014094
v 0 1.2748735 0.23014098
v -1.1125071 0.70826304 0.23014094
v -0.55625343 0.70826304 -0.25158876
v 0 1.2748735 0.23014098
v -0.55625343 0.70826304 -0.25158876
v 0.55625397 0.70826304 -0.2515886
v 0 1.2748735 0.23014098
v 0.55625397 0.70826304 -0.2515886
v 1.1125071 0.70826304 0.23014109
v 2.3486261 1.2748735 0.9205638
v 3.4611332 0.70826304 0.9205638
v 2.9048796 0.70826304 1.4022936
v 2.3486261 1.2748735 0.9205638
v 2.9048796 0.70826304 1.4022936
v 1.7923725 0.70826304 1.4022934
v 2.3486261 1.2748735 0.9205638
v 1.7923725 0.70826304 1.4022934
v 1.236119 0.70826304 0.92056376
v 2.3486261 1.2748735 0.9205638
v 1.236119 0.70826304 0.92056376
v 1.7923727 0.70826304 0.43883407
v 2.3486261 1.2748735 0.9205638
v 1.7923727 0.70826304 0.43883407
v 2.90488 0.70826304 0.43883422
v 2.3486261 1.2748735 0.9205638
v 2.90488 0.70826304 0.43883422
v 3.4611332 0.70826304 0.92056394
v 0 1.1129848 2.1096253
v -1.3597308 0.40472174 1.3424888
v 1.3597308 0.40472174 1.3424888
v 0 1.1129848 2.1096253
v 0 0.70826304 2.7616913
v -0.7416714 0.5059022 1.6109865
v -2.0601983 0.11991755 -2.7024126
v -3.0490935 0 -4.877982
v -1.0713031 0 -4.877982
v -2.0601983 0.4946599 -2.207965
v -2.6535354 0.11991755 -2.7024126
v -1.4668612 0.11991755 -2.7024126
v 0 0.11991755 -2.7024126
v -0.9888952 0 -4.877982
v 0.9888952 0 -4.877982
v 0 0.4946599 -2.207965
v -0.5933371 0.11991755 -2.7024126
v 0.5933371 0.11991755 -2.7024126
v 2.0601983 0.11991755 -2.7024126
v 1.0713031 0 -4.877982
v 3.0490935 0 -4.877982
v 2.0601983 0.4946599 -2.207965
v 1.4668612 0.11991755 -2.7024126
v 2.6535354 0.11991755 -2.7024126
vn -0.4013847 -0.9068538 0.12847768
vn -0.4013847 -0.9068538 0.12847768
vn -0.4013847 -0.9068538 0.12847768
vn -0.017843334 0.6742236 -0.7383117
vn -0.017843334 0.6742236 -0.7383117
vn -0.017843334 0.6742236 -0.7383117
vn -0.13858259 0.0059665837 -0.9903329
vn -0.13858259 0.0059665837 -0.9903329
vn -0.13858259 0.0059665837 -0.9903329
vn -0.010307142 0.6551756 -0.7554063
vn -0.010307142 0.6551756 -0.7554063
vn -0.010307142 0.6551756 -0.7554063
vn -0.04424008 0.16122912 -0.985925
vn -0.04424008 0.16122912 -0.985925
vn -0.04424008 0.16122912 -0.985925
vn -0.004791507 0.64709324 -0.7623958
vn -0.004791507 0.64709324 -0.7623958
vn -0.004791507 0.64709324 -0.7623958
vn 0 0.18832684 -0.9821064
vn 0 0.18832684 -0.9821064
vn 0 0.18832684 -0.9821064
vn 0 0.6447957 -0.76435494
vn 0 0.6447957 -0.76435494
vn 0 0.6447957 -0.76435494
vn 0.044240106 0.16122909 -0.98592496
vn 0.044240106 0.16122909 -0.98592496
vn 0.044240106 0.16122909 -0.98592496
vn 0.004791549 0.6470933 -0.76239574
vn 0.004791549 0.6470933 -0.76239574
vn 0.004791549 0.6470933 -0.76239574
vn 0.13858259 0.005966561 -0.99033296
vn 0.13858259 0.005966561 -0.99033296
vn 0.13858259 0.005966561 -0.99033296
vn 0.010307112 0.6551755 -0.7554064
vn 0.010307112 0.6551755 -0.7554064
vn 0.010307112 0.6551755 -0.7554064
vn 0.40138468 -0.9068538 0.12847763
vn 0.40138468 -0.9068538 0.12847763
vn 0.40138468 -0.9068538 0.12847763
vn 0.017843366 0.67422366 -0.73831165
vn 0.017843366 0.67422366 -0.73831165
vn 0.017843366 0.67422366 -0.73831165
vn 0.11656571 -0.5601318 0.8201614
vn 0.11656571 -0.5601318 0.8201614
vn 0.11656571 -0.5601318 0.8201614
vn 0.031253 0.7233952 -0.68972635
vn 0.031253 0.7233952 -0.68972635
vn 0.031253 0.7233952 -0.68972635
vn 0.053785253 -0.47613236 0.87772727
vn 0.053785253 -0.47613236 0.87772727
vn 0.053785253 -0.47613236 0.87772727
vn 0.07271812 0.9028658 -0.42372802
vn 0.07271812 0.9028658 -0.42372802
vn 0.07271812 0.9028658 -0.42372802
vn 0.023010949 -0.4491374 0.8931663
vn 0.023010949 -0.4491374 0.8931663
vn 0.023010949 -0.4491374 0.8931663
vn 0.05993362 0.11168833 0.9919343
vn 0.05993362 0.11168833 0.9919343
vn 0.05993362 0.11168833 0.9919343
vn -1.2054516E-08 -0.44218734 0.8969227
vn -1.2054516E-08 -0.44218734 0.8969227
vn -1.2054516E-08 -0.44218734 0.8969227
vn -3.4735375E-08 -0.2038401 0.9790041
vn -3.4735375E-08 -0.2038401 0.9790041
vn -3.4735375E-08 -0.2038401 0.9790041
vn -0.02301098 -0.4491375 0.89316636
vn -0.02301098 -0.4491375 0.89316636
vn -0.02301098 -0.4491375 0.89316636
vn -0.059933748 0.11168976 0.9919341
vn -0.059933748 0.11168976 0.9919341
vn -0.059933748 0.11168976 0.9919341
vn -0.053785276 -0.47613233 0.87772727
vn -0.053785276 -0.47613233 0.87772727
vn -0.053785276 -0.47613233 0.87772727
vn -0.07271809 0.9028656 -0.42372835
vn -0.07271809 0.9028656 -0.42372835
vn -0.07271809 0.9028656 -0.42372835
vn -0.11656581 -0.5601319 0.8201613
vn -0.11656581 -0.5601319 0.8201613
vn -0.11656581 -0.5601319 0.8201613
vn -0.03125302 0.7233953 -0.6897263
vn -0.03125302 0.7233953 -0.6897263
vn -0.03125302 0.7233953 -0.6897263
vn -0.40198457 -0.7892736 -0.46417183
vn -0.40198457 -0.7892736 -0.46417183
vn -0.40198457 -0.7892736 -0.46417183
vn 7.203958E-08 -0.647735 -0.7618658
vn 7.203958E-08 -0.647735 -0.7618658
vn 7.203958E-08 -0.647735 -0.7618658
vn 0.40198457 -0.7892737 -0.4641717
vn 0.40198457 -0.7892737 -0.4641717
vn 0.40198457 -0.7892737 -0.4641717
vn 0.40198457 -0.78927356 0.46417186
vn 0.40198457 -0.78927356 0.46417186
vn 0.40198457 -0.78927356 0.46417186
vn -1.0805934E-07 -0.6477349 0.7618658
vn -1.0805934E-07 -0.6477349 0.7618658
vn -1.0805934E-07 -0.6477349 0.7618658
vn -0.40198466 -0.7892738 0.4641716
vn -0.40198466 -0.7892738 0.4641716
vn -0.40198466 -0.7892738 0.4641716
vn -0.40198457 -0.7892736 -0.4641718
vn -0.40198457 -0.7892736 -0.4641718
vn -0.40198457 -0.7892736 -0.4641718
vn 7.203958E-08 -0.647735 -0.7618658
vn 7.203958E-08 -0.647735 -0.7618658
vn 7.203958E-08 -0.647735 -0.7618658
vn 0.40198463 -0.78927374 -0.46417183
vn 0.40198463 -0.78927374 -0.46417183
vn 0.40198463 -0.78927374 -0.46417183
vn 0.40198454 -0.7892736 0.46417183
vn 0.40198454 -0.7892736 0.46417183
vn 0.40198454 -0.7892736 0.46417183
vn -1.0805934E-07 -0.6477349 0.7618658
vn -1.0805934E-07 -0.6477349 0.7618658
vn -1.0805934E-07 -0.6477349 0.7618658
vn -0.4019847 -0.78927374 0.4641716
vn -0.4019847 -0.78927374 0.4641716
vn -0.4019847 -0.78927374 0.4641716
vn -0.40198457 -0.7892736 -0.46417183
vn -0.40198457 -0.7892736 -0.46417183
vn -0.40198457 -0.7892736 -0.46417183
vn 1.08059375E-07 -0.6477349 -0.7618658
vn 1.08059375E-07 -0.6477349 -0.7618658
vn 1.08059375E-07 -0.6477349 -0.7618658
vn 0.40198457 -0.78927374 -0.46417177
vn 0.40198457 -0.78927374 -0.46417177
vn 0.40198457 -0.78927374 -0.46417177
vn 0.40198457 -0.78927356 0.46417186
vn 0.40198457 -0.78927356 0.46417186
vn 0.40198457 -0.78927356 0.46417186
vn -1.0805935E-07 -0.6477349 0.76186585
vn -1.0805935E-07 -0.6477349 0.76186585
vn -1.0805935E-07 -0.6477349 0.76186585
vn -0.4019847 -0.78927374 0.46417162
vn -0.4019847 -0.78927374 0.46417162
vn -0.4019847 -0.78927374 0.46417162
vn 0 -0.7347381 0.678351
vn 0 -0.7347381 0.678351
vn 0 -0.7347381 0.678351
vn 0.7241421 -0.58595854 -0.36369044
vn 0.7241421 -0.58595854 -0.36369044
vn 0.7241421 -0.58595854 -0.36369044
vn 0 -0.9984844 0.055036534
vn 0 -0.9984844 0.055036534
vn 0 -0.9984844 0.055036534
vn 0 -0.7969674 0.60402226
vn 0 -0.7969674 0.60402226
vn 0 -0.7969674 0.60402226
vn 0 -0.9984844 0.055036534
vn 0 -0.9984844 0.055036534
vn 0 -0.9984844 0.055036534
vn 0 -0.7969674 0.6040223
vn 0 -0.7969674 0.6040223
vn 0 -0.7969674 0.6040223
vn 0 -0.9984844 0.055036534
vn 0 -0.9984844 0.055036534
vn 0 -0.9984844 0.055036534
vn 0 -0.7969674 0.60402226
vn 0 -0.7969674 0.60402226
vn 0 -0.7969674 0.60402226
f 1//1 2//2 3//3
f 4//4 5//5 6//6
f 7//7 8//8 9//9
f 10//10 11//11 12//12
f 13//13 14//14 15//15
f 16//16 17//17 18//18
f 19//19 20//20 21//21
f 22//22 23//23 24//24
f 25//25 26//26 27//27
f 28//28 29//29 30//30
f 31//31 32//32 33//33
f 34//34 35//35 36//36
f 37//37 38//38 39//39
f 40//40 41//41 42//42
f 43//43 44//44 45//45
f 46//46 47//47 48//48
f 49//49 50//50 51//51
f 52//52 53//53 54//54
f 55//55 56//56 57//57
f 58//58 59//59 60//60
f 61//61 62//62 63//63
f 64//64 65//65 66//66
f 67//67 68//68 69//69
f 70//70 71//71 72//72
f 73//73 74//74 75//75
f 76//76 77//77 78//78
f 79//79 80//80 81//81
f 82//82 83//83 84//84
f 85//85 86//86 87//87
f 88//88 89//89 90//90
f 91//91 92//92 93//93
f 94//94 95//95 96//96
f 97//97 98//98 99//99
f 100//100 101//101 102//102
f 103//103 104//104 105//105
f 106//106 107//107 108//108
f 109//109 110//110 111//111
f 112//112 113//113 114//114
f 115//115 116//116 117//117
f 118//118 119//119 120//120
f 121//121 122//122 123//123
f 124//124 125//125 126//126
f 127//127 128//128 129//129
f 130//130 131//131 132//132
f 133//133 134//134 135//135
f 136//136 137//137 138//138
f 139//139 140//140 141//141
f 142//142 143//143 144//144
f 145//145 146//146 147//147
f 148//148 149//149 150//150
f 151//151 152//152 153//153
f 154//154 155//155 156//156
f 157//157 158//158 159//159
f 160//160 161//161 162//162
