# Exported from SharpOpenGl procedural mesh
o aetherian_transport_mk2_30
# vertices 165
v 2.5102851 0.3762159 0.29896015
v 2.0308633 0.5088964 0.4658983
v 0 1.2791342 0.7474004
v 2.5102851 0.3762159 0.29896015
v 0 0.07524318 0
v 2.0308633 0.5088964 0.4658983
v 2.0308633 0.5088964 0.4658983
v 0.7757207 0.59089744 0.56907177
v 0 1.2791342 0.7474004
v 2.0308633 0.5088964 0.4658983
v 0 0.07524318 0
v 0.7757207 0.59089744 0.56907177
v 0.7757207 0.59089744 0.56907177
v -0.77572083 0.59089744 0.56907177
v 0 1.2791342 0.7474004
v 0.7757207 0.59089744 0.56907177
v 0 0.07524318 0
v -0.77572083 0.59089744 0.56907177
v -0.77572083 0.59089744 0.56907177
v -2.0308635 0.5088964 0.46589828
v 0 1.2791342 0.7474004
v -0.77572083 0.59089744 0.56907177
v 0 0.07524318 0
v -2.0308635 0.5088964 0.46589828
v -2.0308635 0.5088964 0.46589828
v -2.5102851 0.37621588 0.29896012
v 0 1.2791342 0.7474004
v -2.0308635 0.5088964 0.46589828
v 0 0.07524318 0
v -2.5102851 0.37621588 0.29896012
v -2.5102851 0.37621588 0.29896012
v -2.0308633 0.24353538 0.13202196
v 0 1.2791342 0.7474004
v -2.5102851 0.37621588 0.29896012
v 0 0.07524318 0
v -2.0308633 0.24353538 0.13202196
v -2.0308633 0.24353538 0.13202196
v -0.7757199 0.16153432 0.028848499
v 0 1.2791342 0.7474004
v -2.0308633 0.24353538 0.13202196
v 0 0.07524318 0
v -0.7757199 0.16153432 0.028848499
v -0.7757199 0.16153432 0.028848499
v 0.7757211 0.16153435 0.028848559
v 0 1.2791342 0.7474004
v -0.7757199 0.16153432 0.028848499
v 0 0.07524318 0
v 0.7757211 0.16153435 0.028848559
v 0.7757211 0.16153435 0.028848559
v 2.0308633 0.24353538 0.13202198
v 0 1.2791342 0.7474004
v 0.7757211 0.16153435 0.028848559
v 0 0.07524318 0
v 2.0308633 0.24353538 0.13202198
v 2.0308633 0.24353538 0.13202198
v 2.5102851 0.37621593 0.2989602
v 0 1.2791342 0.7474004
v 2.0308633 0.24353538 0.13202198
v 0 0.07524318 0
v 2.5102851 0.37621593 0.2989602
v -3.4068155 0.9480641 -0.44844022
v -2.3309789 0.5267023 -0.44844022
v -2.8688974 0.5267023 0.017410696
v -3.4068155 0.9480641 -0.44844022
v -2.8688974 0.5267023 0.017410696
v -3.9447339 0.5267023 0.017410666
v -3.4068155 0.9480641 -0.44844022
v -3.9447339 0.5267023 0.017410666
v -4.482652 0.5267023 -0.44844028
v -3.4068155 0.9480641 -0.44844022
v -4.482652 0.5267023 -0.44844028
v -3.9447336 0.5267023 -0.91429114
v -3.4068155 0.9480641 -0.44844022
v -3.9447336 0.5267023 -0.91429114
v -2.868897 0.5267023 -0.914291
v -3.4068155 0.9480641 -0.44844022
v -2.868897 0.5267023 -0.914291
v -2.3309789 0.5267023 -0.44844013
v -1.1356052 0.9480641 0.22422013
v -0.059768677 0.5267023 0.22422013
v -0.597687 0.5267023 0.69007105
v -1.1356052 0.9480641 0.22422013
v -0.597687 0.5267023 0.69007105
v -1.6735235 0.5267023 0.690071
v -1.1356052 0.9480641 0.22422013
v -1.6735235 0.5267023 0.690071
v -2.2114418 0.5267023 0.22422008
v -1.1356052 0.9480641 0.22422013
v -2.2114418 0.5267023 0.22422008
v -1.6735234 0.5267023 -0.2416308
v -1.1356052 0.9480641 0.22422013
v -1.6735234 0.5267023 -0.2416308
v -0.5976866 0.5267023 -0.24163064
v -1.1356052 0.9480641 0.22422013
v -0.5976866 0.5267023 -0.24163064
v -0.059768677 0.5267023 0.22422022
v 1.1356052 0.9480641 0.8968805
v 2.2114418 0.5267023 0.8968805
v 1.6735234 0.5267023 1.3627315
v 1.1356052 0.9480641 0.8968805
v 1.6735234 0.5267023 1.3627315
v 0.5976869 0.5267023 1.3627315
v 1.1356052 0.9480641 0.8968805
v 0.5976869 0.5267023 1.3627315
v 0.059768677 0.5267023 0.89688045
v 1.1356052 0.9480641 0.8968805
v 0.059768677 0.5267023 0.89688045
v 0.59768707 0.5267023 0.4310296
v 1.1356052 0.9480641 0.8968805
v 0.59768707 0.5267023 0.4310296
v 1.6735239 0.5267023 0.43102974
v 1.1356052 0.9480641 0.8968805
v 1.6735239 0.5267023 0.43102974
v 2.2114418 0.5267023 0.8968806
v 3.4068155 0.9480641 1.5695411
v 4.482652 0.5267023 1.5695411
v 3.9447336 0.5267023 2.035392
v 3.4068155 0.9480641 1.5695411
v 3.9447336 0.5267023 2.035392
v 2.8688972 0.5267023 2.035392
v 3.4068155 0.9480641 1.5695411
v 2.8688972 0.5267023 2.035392
v 2.3309789 0.5267023 1.5695411
v 3.4068155 0.9480641 1.5695411
v 2.3309789 0.5267023 1.5695411
v 2.8688974 0.5267023 1.1036901
v 3.4068155 0.9480641 1.5695411
v 2.8688974 0.5267023 1.1036901
v 3.944734 0.5267023 1.1036904
v 3.4068155 0.9480641 1.5695411
v 3.944734 0.5267023 1.1036904
v 4.482652 0.5267023 1.5695412
v 0 0.827675 2.055351
v -1.3149112 0.30097273 1.3079506
v 1.3149112 0.30097273 1.3079506
v 0 0.827675 2.055351
v 0 0.5267023 2.6906414
v -0.71722436 0.3762159 1.5695407
v -2.3907478 0.0891771 -2.6328876
v -3.1421256 0 -4.285919
v -1.6393698 0 -4.285919
v -2.3907478 0.36785555 -2.2571986
v -2.8415747 0.0891771 -2.6328876
v -1.939921 0.0891771 -2.6328876
v -0.79691595 0.0891771 -2.6328876
v -1.5482938 0 -4.285919
v -0.04553801 0 -4.285919
v -0.79691595 0.36785555 -2.2571986
v -1.2477428 0.0891771 -2.6328876
v -0.34608915 0.0891771 -2.6328876
v 0.79691595 0.0891771 -2.6328876
v 0.04553801 0 -4.285919
v 1.5482938 0 -4.285919
v 0.79691595 0.36785555 -2.2571986
v 0.34608915 0.0891771 -2.6328876
v 1.2477428 0.0891771 -2.6328876
v 2.3907478 0.0891771 -2.6328876
v 1.6393698 0 -4.285919
v 3.1421256 0 -4.285919
v 2.3907478 0.36785555 -2.2571986
v 1.939921 0.0891771 -2.6328876
v 2.8415747 0.0891771 -2.6328876
v 0 0.42359123 -0.21232966
v -0.39845797 0.15605994 -0.5538651
v 0.39845797 0.15605994 -0.5538651
vn -0.37266955 -0.8335957 -0.40772003
vn -0.37266955 -0.8335957 -0.40772003
vn -0.37266955 -0.8335957 -0.40772003
vn -0.01433783 0.762311 -0.64705205
vn -0.01433783 0.762311 -0.64705205
vn -0.01433783 0.762311 -0.64705205
vn -0.069184035 0.17643557 -0.9818778
vn -0.069184035 0.17643557 -0.9818778
vn -0.069184035 0.17643557 -0.9818778
vn -0.006132944 0.745162 -0.6668553
vn -0.006132944 0.745162 -0.6668553
vn -0.006132944 0.745162 -0.6668553
vn 0 0.25082627 -0.96803206
vn 0 0.25082627 -0.96803206
vn 0 0.25082627 -0.96803206
vn 0 0.7410304 -0.67147154
vn 0 0.7410304 -0.67147154
vn 0 0.7410304 -0.67147154
vn 0.06918406 0.17643553 -0.9818778
vn 0.06918406 0.17643553 -0.9818778
vn 0.06918406 0.17643553 -0.9818778
vn 0.0061329575 0.7451621 -0.6668553
vn 0.0061329575 0.7451621 -0.6668553
vn 0.0061329575 0.7451621 -0.6668553
vn 0.37266964 -0.8335962 -0.40771902
vn 0.37266964 -0.8335962 -0.40771902
vn 0.37266964 -0.8335962 -0.40771902
vn 0.014337812 0.762311 -0.6470521
vn 0.014337812 0.762311 -0.6470521
vn 0.014337812 0.762311 -0.6470521
vn 0.09136851 -0.6350015 0.7670887
vn 0.09136851 -0.6350015 0.7670887
vn 0.09136851 -0.6350015 0.7670887
vn 0.031638358 0.8247371 -0.5646306
vn 0.031638358 0.8247371 -0.5646306
vn 0.031638358 0.8247371 -0.5646306
vn 0.03193405 -0.5561207 0.8304878
vn 0.03193405 -0.5561207 0.8304878
vn 0.03193405 -0.5561207 0.8304878
vn 0.103868976 0.696311 0.71018475
vn 0.103868976 0.696311 0.71018475
vn 0.103868976 0.696311 0.71018475
vn -2.1927274E-08 -0.5408081 0.841146
vn -2.1927274E-08 -0.5408081 0.841146
vn -2.1927274E-08 -0.5408081 0.841146
vn -3.034593E-08 -0.31706652 0.94840324
vn -3.034593E-08 -0.31706652 0.94840324
vn -3.034593E-08 -0.31706652 0.94840324
vn -0.031934064 -0.55612075 0.8304878
vn -0.031934064 -0.55612075 0.8304878
vn -0.031934064 -0.55612075 0.8304878
vn -0.103869006 0.6963124 0.71018326
vn -0.103869006 0.6963124 0.71018326
vn -0.103869006 0.6963124 0.71018326
vn -0.09136852 -0.63500154 0.76708865
vn -0.09136852 -0.63500154 0.76708865
vn -0.09136852 -0.63500154 0.76708865
vn -0.03163834 0.824737 -0.5646307
vn -0.03163834 0.824737 -0.5646307
vn -0.03163834 0.824737 -0.5646307
vn -0.3361016 -0.85814714 -0.38809687
vn -0.3361016 -0.85814714 -0.38809687
vn -0.3361016 -0.85814714 -0.38809687
vn 2.2050365E-08 -0.74163264 -0.6708062
vn 2.2050365E-08 -0.74163264 -0.6708062
vn 2.2050365E-08 -0.74163264 -0.6708062
vn 0.33610162 -0.85814714 -0.3880967
vn 0.33610162 -0.85814714 -0.3880967
vn 0.33610162 -0.85814714 -0.3880967
vn 0.3361016 -0.85814714 0.38809693
vn 0.3361016 -0.85814714 0.38809693
vn 0.3361016 -0.85814714 0.38809693
vn -8.8201446E-08 -0.7416327 0.6708063
vn -8.8201446E-08 -0.7416327 0.6708063
vn -8.8201446E-08 -0.7416327 0.6708063
vn -0.33610165 -0.8581472 0.3880966
vn -0.33610165 -0.8581472 0.3880966
vn -0.33610165 -0.8581472 0.3880966
vn -0.33610165 -0.85814714 -0.38809675
vn -0.33610165 -0.85814714 -0.38809675
vn -0.33610165 -0.85814714 -0.38809675
vn 4.4100727E-08 -0.74163276 -0.6708062
vn 4.4100727E-08 -0.74163276 -0.6708062
vn 4.4100727E-08 -0.74163276 -0.6708062
vn 0.33610165 -0.8581471 -0.3880967
vn 0.33610165 -0.8581471 -0.3880967
vn 0.33610165 -0.8581471 -0.3880967
vn 0.33610162 -0.85814714 0.38809675
vn 0.33610162 -0.85814714 0.38809675
vn 0.33610162 -0.85814714 0.38809675
vn -1.1025179E-07 -0.7416326 0.6708062
vn -1.1025179E-07 -0.7416326 0.6708062
vn -1.1025179E-07 -0.7416326 0.6708062
vn -0.33610174 -0.8581473 0.3880966
vn -0.33610174 -0.8581473 0.3880966
vn -0.33610174 -0.8581473 0.3880966
vn -0.33610165 -0.85814714 -0.38809675
vn -0.33610165 -0.85814714 -0.38809675
vn -0.33610165 -0.85814714 -0.38809675
vn 0 -0.74163276 -0.6708062
vn 0 -0.74163276 -0.6708062
vn 0 -0.74163276 -0.6708062
vn 0.3361017 -0.85814726 -0.38809666
vn 0.3361017 -0.85814726 -0.38809666
vn 0.3361017 -0.85814726 -0.38809666
vn 0.33610162 -0.8581471 0.3880968
vn 0.33610162 -0.8581471 0.3880968
vn 0.33610162 -0.8581471 0.3880968
vn -1.1025179E-07 -0.7416326 0.6708063
vn -1.1025179E-07 -0.7416326 0.6708063
vn -1.1025179E-07 -0.7416326 0.6708063
vn -0.33610174 -0.8581473 0.38809657
vn -0.33610174 -0.8581473 0.38809657
vn -0.33610174 -0.8581473 0.38809657
vn -0.3361016 -0.85814714 -0.38809687
vn -0.3361016 -0.85814714 -0.38809687
vn -0.3361016 -0.85814714 -0.38809687
vn 0 -0.7416327 -0.6708062
vn 0 -0.7416327 -0.6708062
vn 0 -0.7416327 -0.6708062
vn 0.3361016 -0.85814714 -0.3880967
vn 0.3361016 -0.85814714 -0.3880967
vn 0.3361016 -0.85814714 -0.3880967
vn 0.3361016 -0.85814714 0.38809687
vn 0.3361016 -0.85814714 0.38809687
vn 0.3361016 -0.85814714 0.38809687
vn -1.3230218E-07 -0.74163264 0.6708063
vn -1.3230218E-07 -0.74163264 0.6708063
vn -1.3230218E-07 -0.74163264 0.6708063
vn -0.33610165 -0.8581472 0.3880967
vn -0.33610165 -0.8581472 0.3880967
vn -0.33610165 -0.8581472 0.3880967
vn 0 -0.8174182 0.5760447
vn 0 -0.8174182 0.5760447
vn 0 -0.8174182 0.5760447
vn 0.65153503 -0.6855732 -0.3247945
vn 0.65153503 -0.6855732 -0.3247945
vn 0.65153503 -0.6855732 -0.3247945
vn 0 -0.998548 0.053869274
vn 0 -0.998548 0.053869274
vn 0 -0.998548 0.053869274
vn 0 -0.80315787 0.5957661
vn 0 -0.80315787 0.5957661
vn 0 -0.80315787 0.5957661
vn 0 -0.998548 0.05386928
vn 0 -0.998548 0.05386928
vn 0 -0.998548 0.05386928
vn 0 -0.80315787 0.5957661
vn 0 -0.80315787 0.5957661
vn 0 -0.80315787 0.5957661
vn 0 -0.998548 0.05386928
vn 0 -0.998548 0.05386928
vn 0 -0.998548 0.05386928
vn 0 -0.80315787 0.5957661
vn 0 -0.80315787 0.5957661
vn 0 -0.80315787 0.5957661
vn 0 -0.998548 0.053869274
vn 0 -0.998548 0.053869274
vn 0 -0.998548 0.053869274
vn 0 -0.80315787 0.5957661
vn 0 -0.80315787 0.5957661
vn 0 -0.80315787 0.5957661
vn 0 -0.7872334 0.6166552
vn 0 -0.7872334 0.6166552
vn 0 -0.7872334 0.6166552
f 1//1 2//2 3//3
f 4//4 5//5 6//6
f 7//7 8//8 9//9
f 10//10 11//11 12//12
f 13//13 14//14 15//15
f 16//16 17//17 18//18
f 19//19 20//20 21//21
f 22//22 23//23 24//24
f 25//25 26//26 27//27
f 28//28 29//29 30//30
f 31//31 32//32 33//33
f 34//34 35//35 36//36
f 37//37 38//38 39//39
f 40//40 41//41 42//42
f 43//43 44//44 45//45
f 46//46 47//47 48//48
f 49//49 50//50 51//51
f 52//52 53//53 54//54
f 55//55 56//56 57//57
f 58//58 59//59 60//60
f 61//61 62//62 63//63
f 64//64 65//65 66//66
f 67//67 68//68 69//69
f 70//70 71//71 72//72
f 73//73 74//74 75//75
f 76//76 77//77 78//78
f 79//79 80//80 81//81
f 82//82 83//83 84//84
f 85//85 86//86 87//87
f 88//88 89//89 90//90
f 91//91 92//92 93//93
f 94//94 95//95 96//96
f 97//97 98//98 99//99
f 100//100 101//101 102//102
f 103//103 104//104 105//105
f 106//106 107//107 108//108
f 109//109 110//110 111//111
f 112//112 113//113 114//114
f 115//115 116//116 117//117
f 118//118 119//119 120//120
f 121//121 122//122 123//123
f 124//124 125//125 126//126
f 127//127 128//128 129//129
f 130//130 131//131 132//132
f 133//133 134//134 135//135
f 136//136 137//137 138//138
f 139//139 140//140 141//141
f 142//142 143//143 144//144
f 145//145 146//146 147//147
f 148//148 149//149 150//150
f 151//151 152//152 153//153
f 154//154 155//155 156//156
f 157//157 158//158 159//159
f 160//160 161//161 162//162
f 163//163 164//164 165//165
