# Exported from SharpOpenGl procedural mesh
o aetherian_cruiser_mk1_09
# vertices 144
v 2.0898256 0.49350077 0.3430315
v 1.6907045 0.66754425 0.5345789
v 0 1.6779027 0.85757875
v 2.0898256 0.49350077 0.3430315
v 0 0.09870016 0
v 1.6907045 0.66754425 0.5345789
v 1.6907045 0.66754425 0.5345789
v 0.6457916 0.77510905 0.65296173
v 0 1.6779027 0.85757875
v 1.6907045 0.66754425 0.5345789
v 0 0.09870016 0
v 0.6457916 0.77510905 0.65296173
v 0.6457916 0.77510905 0.65296173
v -0.6457917 0.77510905 0.65296173
v 0 1.6779027 0.85757875
v 0.6457916 0.77510905 0.65296173
v 0 0.09870016 0
v -0.6457917 0.77510905 0.65296173
v -0.6457917 0.77510905 0.65296173
v -1.6907046 0.66754425 0.5345789
v 0 1.6779027 0.85757875
v -0.6457917 0.77510905 0.65296173
v 0 0.09870016 0
v -1.6907046 0.66754425 0.5345789
v -1.6907046 0.66754425 0.5345789
v -2.0898256 0.49350074 0.34303147
v 0 1.6779027 0.85757875
v -1.6907046 0.66754425 0.5345789
v 0 0.09870016 0
v -2.0898256 0.49350074 0.34303147
v -2.0898256 0.49350074 0.34303147
v -1.6907043 0.31945723 0.15148404
v 0 1.6779027 0.85757875
v -2.0898256 0.49350074 0.34303147
v 0 0.09870016 0
v -1.6907043 0.31945723 0.15148404
v -1.6907043 0.31945723 0.15148404
v -0.64579093 0.21189246 0.03310123
v 0 1.6779027 0.85757875
v -1.6907043 0.31945723 0.15148404
v 0 0.09870016 0
v -0.64579093 0.21189246 0.03310123
v -0.64579093 0.21189246 0.03310123
v 0.6457919 0.21189249 0.03310126
v 0 1.6779027 0.85757875
v -0.64579093 0.21189246 0.03310123
v 0 0.09870016 0
v 0.6457919 0.21189249 0.03310126
v 0.6457919 0.21189249 0.03310126
v 1.6907043 0.31945726 0.15148406
v 0 1.6779027 0.85757875
v 0.6457919 0.21189249 0.03310126
v 0 0.09870016 0
v 1.6907043 0.31945726 0.15148406
v 1.6907043 0.31945726 0.15148406
v 2.0898256 0.49350083 0.34303156
v 0 1.6779027 0.85757875
v 1.6907043 0.31945726 0.15148406
v 0 0.09870016 0
v 2.0898256 0.49350083 0.34303156
v -1.8907948 1.2436218 -0.5145472
v -0.9951551 0.69090104 -0.5145472
v -1.4429749 0.69090104 -0.12672386
v -1.8907948 1.2436218 -0.5145472
v -1.4429749 0.69090104 -0.12672386
v -2.3386147 0.69090104 -0.12672389
v -1.8907948 1.2436218 -0.5145472
v -2.3386147 0.69090104 -0.12672389
v -2.7864344 0.69090104 -0.5145473
v -1.8907948 1.2436218 -0.5145472
v -2.7864344 0.69090104 -0.5145473
v -2.3386145 0.69090104 -0.9023706
v -1.8907948 1.2436218 -0.5145472
v -2.3386145 0.69090104 -0.9023706
v -1.4429746 0.69090104 -0.90237045
v -1.8907948 1.2436218 -0.5145472
v -1.4429746 0.69090104 -0.90237045
v -0.9951551 0.69090104 -0.51454717
v 0 1.2436218 0.25727367
v 0.89563966 0.69090104 0.25727367
v 0.4478198 0.69090104 0.645097
v 0 1.2436218 0.25727367
v 0.4478198 0.69090104 0.645097
v -0.4478199 0.69090104 0.645097
v 0 1.2436218 0.25727367
v -0.4478199 0.69090104 0.645097
v -0.89563966 0.69090104 0.25727364
v 0 1.2436218 0.25727367
v -0.89563966 0.69090104 0.25727364
v -0.44781974 0.69090104 -0.1305497
v 0 1.2436218 0.25727367
v -0.44781974 0.69090104 -0.1305497
v 0.44782016 0.69090104 -0.13054958
v 0 1.2436218 0.25727367
v 0.44782016 0.69090104 -0.13054958
v 0.89563966 0.69090104 0.25727376
v 1.8907948 1.2436218 1.0290946
v 2.7864344 0.69090104 1.0290946
v 2.3386145 0.69090104 1.4169179
v 1.8907948 1.2436218 1.0290946
v 2.3386145 0.69090104 1.4169179
v 1.4429748 0.69090104 1.4169179
v 1.8907948 1.2436218 1.0290946
v 1.4429748 0.69090104 1.4169179
v 0.9951551 0.69090104 1.0290946
v 1.8907948 1.2436218 1.0290946
v 0.9951551 0.69090104 1.0290946
v 1.442975 0.69090104 0.64127123
v 1.8907948 1.2436218 1.0290946
v 1.442975 0.69090104 0.64127123
v 2.338615 0.69090104 0.64127135
v 1.8907948 1.2436218 1.0290946
v 2.338615 0.69090104 0.64127135
v 2.7864344 0.69090104 1.0290947
v 0 1.0857017 2.3583417
v -1.0946707 0.39480063 1.5007628
v 1.0946707 0.39480063 1.5007628
v 0 1.0857017 2.3583417
v 0 0.69090104 3.0872836
v -0.59709305 0.49350077 1.8009154
v -1.9903104 0.11697795 -3.0210161
v -2.7580016 0 -4.7099366
v -1.2226193 0 -4.7099366
v -1.9903104 0.48253408 -2.6371706
v -2.450925 0.11697795 -3.0210161
v -1.5296957 0.11697795 -3.0210161
v -0.66343683 0.11697795 -3.0210161
v -1.431128 0 -4.7099366
v 0.104254365 0 -4.7099366
v -0.66343683 0.48253408 -2.6371706
v -1.1240516 0.11697795 -3.0210161
v -0.20282209 0.11697795 -3.0210161
v 0.66343683 0.11697795 -3.0210161
v -0.104254365 0 -4.7099366
v 1.431128 0 -4.7099366
v 0.66343683 0.48253408 -2.6371706
v 0.20282209 0.11697795 -3.0210161
v 1.1240516 0.11697795 -3.0210161
v 1.9903104 0.11697795 -3.0210161
v 1.2226193 0 -4.7099366
v 2.7580016 0 -4.7099366
v 1.9903104 0.48253408 -2.6371706
v 1.5296957 0.11697795 -3.0210161
v 2.450925 0.11697795 -3.0210161
vn -0.52375543 -0.74352646 -0.4157506
vn -0.52375543 -0.74352646 -0.4157506
vn -0.52375543 -0.74352646 -0.4157506
vn -0.02126352 0.71749705 -0.69623697
vn -0.02126352 0.71749705 -0.69623697
vn -0.02126352 0.71749705 -0.69623697
vn -0.095497735 0.15456451 -0.9833565
vn -0.095497735 0.15456451 -0.9833565
vn -0.095497735 0.15456451 -0.9833565
vn -0.009064322 0.6989646 -0.7150988
vn -0.009064322 0.6989646 -0.7150988
vn -0.009064322 0.6989646 -0.7150988
vn 0 0.22104241 -0.97526425
vn 0 0.22104241 -0.97526425
vn 0 0.22104241 -0.97526425
vn 0 0.6945269 -0.7194667
vn 0 0.6945269 -0.7194667
vn 0 0.6945269 -0.7194667
vn 0.095497735 0.15456447 -0.9833565
vn 0.095497735 0.15456447 -0.9833565
vn 0.095497735 0.15456447 -0.9833565
vn 0.009064326 0.69896454 -0.7150988
vn 0.009064326 0.69896454 -0.7150988
vn 0.009064326 0.69896454 -0.7150988
vn 0.52375555 -0.74352694 -0.41574976
vn 0.52375555 -0.74352694 -0.41574976
vn 0.52375555 -0.74352694 -0.41574976
vn 0.021263525 0.71749705 -0.69623697
vn 0.021263525 0.71749705 -0.69623697
vn 0.021263525 0.71749705 -0.69623697
vn 0.13180761 -0.5813732 0.8028897
vn 0.13180761 -0.5813732 0.8028897
vn 0.13180761 -0.5813732 0.8028897
vn 0.047545638 0.78659075 -0.6156414
vn 0.047545638 0.78659075 -0.6156414
vn 0.047545638 0.78659075 -0.6156414
vn 0.045682278 -0.5048929 0.86197233
vn 0.045682278 -0.5048929 0.86197233
vn 0.045682278 -0.5048929 0.86197233
vn 0.15125364 0.64351636 0.7503392
vn 0.15125364 0.64351636 0.7503392
vn 0.15125364 0.64351636 0.7503392
vn -8.801041E-09 -0.49019206 0.87161446
vn -8.801041E-09 -0.49019206 0.87161446
vn -8.801041E-09 -0.49019206 0.87161446
vn -1.5670274E-08 -0.2806784 0.95980185
vn -1.5670274E-08 -0.2806784 0.95980185
vn -1.5670274E-08 -0.2806784 0.95980185
vn -0.045682304 -0.5048929 0.8619724
vn -0.045682304 -0.5048929 0.8619724
vn -0.045682304 -0.5048929 0.8619724
vn -0.15125377 0.6435185 0.7503375
vn -0.15125377 0.6435185 0.7503375
vn -0.15125377 0.6435185 0.7503375
vn -0.13180763 -0.58137333 0.80288976
vn -0.13180763 -0.58137333 0.80288976
vn -0.13180763 -0.58137333 0.80288976
vn -0.047545638 0.78659075 -0.6156414
vn -0.047545638 0.78659075 -0.6156414
vn -0.047545638 0.78659075 -0.6156414
vn -0.4490543 -0.7276564 -0.5185232
vn -0.4490543 -0.7276564 -0.5185232
vn -0.4490543 -0.7276564 -0.5185232
vn 4.9280885E-08 -0.5743753 -0.81859213
vn 4.9280885E-08 -0.5743753 -0.81859213
vn 4.9280885E-08 -0.5743753 -0.81859213
vn 0.44905436 -0.72765654 -0.51852316
vn 0.44905436 -0.72765654 -0.51852316
vn 0.44905436 -0.72765654 -0.51852316
vn 0.44905424 -0.7276564 0.5185234
vn 0.44905424 -0.7276564 0.5185234
vn 0.44905424 -0.7276564 0.5185234
vn -9.856177E-08 -0.5743752 0.8185922
vn -9.856177E-08 -0.5743752 0.8185922
vn -9.856177E-08 -0.5743752 0.8185922
vn -0.4490544 -0.72765654 0.51852304
vn -0.4490544 -0.72765654 0.51852304
vn -0.4490544 -0.72765654 0.51852304
vn -0.4490543 -0.7276565 -0.5185233
vn -0.4490543 -0.7276565 -0.5185233
vn -0.4490543 -0.7276565 -0.5185233
vn 0 -0.5743752 -0.81859213
vn 0 -0.5743752 -0.81859213
vn 0 -0.5743752 -0.81859213
vn 0.44905433 -0.7276565 -0.5185232
vn 0.44905433 -0.7276565 -0.5185232
vn 0.44905433 -0.7276565 -0.5185232
vn 0.44905427 -0.7276564 0.5185233
vn 0.44905427 -0.7276564 0.5185233
vn 0.44905427 -0.7276564 0.5185233
vn -1.232022E-07 -0.5743752 0.81859213
vn -1.232022E-07 -0.5743752 0.81859213
vn -1.232022E-07 -0.5743752 0.81859213
vn -0.44905445 -0.7276566 0.51852304
vn -0.44905445 -0.7276566 0.51852304
vn -0.44905445 -0.7276566 0.51852304
vn -0.44905424 -0.72765636 -0.51852334
vn -0.44905424 -0.72765636 -0.51852334
vn -0.44905424 -0.72765636 -0.51852334
vn 0 -0.5743753 -0.8185921
vn 0 -0.5743753 -0.8185921
vn 0 -0.5743753 -0.8185921
vn 0.4490543 -0.7276565 -0.51852316
vn 0.4490543 -0.7276565 -0.51852316
vn 0.4490543 -0.7276565 -0.51852316
vn 0.44905424 -0.72765636 0.51852334
vn 0.44905424 -0.72765636 0.51852334
vn 0.44905424 -0.72765636 0.51852334
vn -9.856177E-08 -0.5743752 0.8185922
vn -9.856177E-08 -0.5743752 0.8185922
vn -9.856177E-08 -0.5743752 0.8185922
vn -0.44905445 -0.7276566 0.51852304
vn -0.44905445 -0.7276566 0.51852304
vn -0.44905445 -0.7276566 0.51852304
vn 0 -0.7787213 0.62737006
vn 0 -0.7787213 0.62737006
vn 0 -0.7787213 0.62737006
vn 0.7963669 -0.531821 -0.28803846
vn 0.7963669 -0.531821 -0.28803846
vn 0.7963669 -0.531821 -0.28803846
vn 0 -0.99761 0.06909642
vn 0 -0.99761 0.06909642
vn 0 -0.99761 0.06909642
vn 0 -0.7241484 0.6896442
vn 0 -0.7241484 0.6896442
vn 0 -0.7241484 0.6896442
vn 0 -0.99761 0.06909643
vn 0 -0.99761 0.06909643
vn 0 -0.99761 0.06909643
vn 0 -0.72414833 0.68964416
vn 0 -0.72414833 0.68964416
vn 0 -0.72414833 0.68964416
vn 0 -0.99761 0.06909643
vn 0 -0.99761 0.06909643
vn 0 -0.99761 0.06909643
vn 0 -0.72414833 0.68964416
vn 0 -0.72414833 0.68964416
vn 0 -0.72414833 0.68964416
vn 0 -0.99761 0.06909642
vn 0 -0.99761 0.06909642
vn 0 -0.99761 0.06909642
vn 0 -0.7241484 0.6896442
vn 0 -0.7241484 0.6896442
vn 0 -0.7241484 0.6896442
f 1//1 2//2 3//3
f 4//4 5//5 6//6
f 7//7 8//8 9//9
f 10//10 11//11 12//12
f 13//13 14//14 15//15
f 16//16 17//17 18//18
f 19//19 20//20 21//21
f 22//22 23//23 24//24
f 25//25 26//26 27//27
f 28//28 29//29 30//30
f 31//31 32//32 33//33
f 34//34 35//35 36//36
f 37//37 38//38 39//39
f 40//40 41//41 42//42
f 43//43 44//44 45//45
f 46//46 47//47 48//48
f 49//49 50//50 51//51
f 52//52 53//53 54//54
f 55//55 56//56 57//57
f 58//58 59//59 60//60
f 61//61 62//62 63//63
f 64//64 65//65 66//66
f 67//67 68//68 69//69
f 70//70 71//71 72//72
f 73//73 74//74 75//75
f 76//76 77//77 78//78
f 79//79 80//80 81//81
f 82//82 83//83 84//84
f 85//85 86//86 87//87
f 88//88 89//89 90//90
f 91//91 92//92 93//93
f 94//94 95//95 96//96
f 97//97 98//98 99//99
f 100//100 101//101 102//102
f 103//103 104//104 105//105
f 106//106 107//107 108//108
f 109//109 110//110 111//111
f 112//112 113//113 114//114
f 115//115 116//116 117//117
f 118//118 119//119 120//120
f 121//121 122//122 123//123
f 124//124 125//125 126//126
f 127//127 128//128 129//129
f 130//130 131//131 132//132
f 133//133 134//134 135//135
f 136//136 137//137 138//138
f 139//139 140//140 141//141
f 142//142 143//143 144//144
