# Exported from SharpOpenGl procedural mesh
o aetherian_miner_mk1_12
# vertices 159
v 1.0311941 0.19255912 0.1466992
v 0.83425355 0.26046917 0.22861545
v 0 0.65470105 0.36674803
v 1.0311941 0.19255912 0.1466992
v 0 0.038511824 0
v 0.83425355 0.26046917 0.22861545
v 0.83425355 0.26046917 0.22861545
v 0.31865647 0.3024399 0.2792425
v 0 0.65470105 0.36674803
v 0.83425355 0.26046917 0.22861545
v 0 0.038511824 0
v 0.31865647 0.3024399 0.2792425
v 0.31865647 0.3024399 0.2792425
v -0.31865653 0.3024399 0.27924246
v 0 0.65470105 0.36674803
v 0.31865647 0.3024399 0.2792425
v 0 0.038511824 0
v -0.31865653 0.3024399 0.27924246
v -0.31865653 0.3024399 0.27924246
v -0.8342536 0.26046917 0.22861543
v 0 0.65470105 0.36674803
v -0.31865653 0.3024399 0.27924246
v 0 0.038511824 0
v -0.8342536 0.26046917 0.22861543
v -0.8342536 0.26046917 0.22861543
v -1.0311941 0.19255911 0.14669919
v 0 0.65470105 0.36674803
v -0.8342536 0.26046917 0.22861543
v 0 0.038511824 0
v -1.0311941 0.19255911 0.14669919
v -1.0311941 0.19255911 0.14669919
v -0.8342535 0.12464906 0.06478294
v 0 0.65470105 0.36674803
v -1.0311941 0.19255911 0.14669919
v 0 0.038511824 0
v -0.8342535 0.12464906 0.06478294
v -0.8342535 0.12464906 0.06478294
v -0.31865615 0.08267834 0.014155924
v 0 0.65470105 0.36674803
v -0.8342535 0.12464906 0.06478294
v 0 0.038511824 0
v -0.31865615 0.08267834 0.014155924
v -0.31865615 0.08267834 0.014155924
v 0.31865662 0.082678355 0.014155939
v 0 0.65470105 0.36674803
v -0.31865615 0.08267834 0.014155924
v 0 0.038511824 0
v 0.31865662 0.082678355 0.014155939
v 0.31865662 0.082678355 0.014155939
v 0.8342535 0.12464906 0.06478295
v 0 0.65470105 0.36674803
v 0.31865662 0.082678355 0.014155939
v 0 0.038511824 0
v 0.8342535 0.12464906 0.06478295
v 0.8342535 0.12464906 0.06478295
v 1.0311941 0.19255914 0.14669923
v 0 0.65470105 0.36674803
v 0.8342535 0.12464906 0.06478295
v 0 0.038511824 0
v 1.0311941 0.19255914 0.14669923
v -1.3994777 0.48524898 -0.22004882
v -0.9575374 0.26958278 -0.22004882
v -1.1785076 0.26958278 -0.028683022
v -1.3994777 0.48524898 -0.22004882
v -1.1785076 0.26958278 -0.028683022
v -1.6204479 0.26958278 -0.028683037
v -1.3994777 0.48524898 -0.22004882
v -1.6204479 0.26958278 -0.028683037
v -1.841418 0.26958278 -0.22004883
v -1.3994777 0.48524898 -0.22004882
v -1.841418 0.26958278 -0.22004883
v -1.6204479 0.26958278 -0.41141462
v -1.3994777 0.48524898 -0.22004882
v -1.6204479 0.26958278 -0.41141462
v -1.1785073 0.26958278 -0.41141456
v -1.3994777 0.48524898 -0.22004882
v -1.1785073 0.26958278 -0.41141456
v -0.9575374 0.26958278 -0.22004877
v -0.46649256 0.48524898 0.11002442
v -0.024552226 0.26958278 0.11002442
v -0.24552241 0.26958278 0.30139023
v -0.46649256 0.48524898 0.11002442
v -0.24552241 0.26958278 0.30139023
v -0.68746275 0.26958278 0.3013902
v -0.46649256 0.48524898 0.11002442
v -0.68746275 0.26958278 0.3013902
v -0.9084329 0.26958278 0.1100244
v -0.46649256 0.48524898 0.11002442
v -0.9084329 0.26958278 0.1100244
v -0.6874627 0.26958278 -0.08134137
v -0.46649256 0.48524898 0.11002442
v -0.6874627 0.26958278 -0.08134137
v -0.24552223 0.26958278 -0.08134131
v -0.46649256 0.48524898 0.11002442
v -0.24552223 0.26958278 -0.08134131
v -0.024552226 0.26958278 0.11002446
v 0.46649256 0.48524898 0.44009766
v 0.9084329 0.26958278 0.44009766
v 0.6874627 0.26958278 0.63146347
v 0.46649256 0.48524898 0.44009766
v 0.6874627 0.26958278 0.63146347
v 0.24552236 0.26958278 0.6314634
v 0.46649256 0.48524898 0.44009766
v 0.24552236 0.26958278 0.6314634
v 0.024552226 0.26958278 0.44009763
v 0.46649256 0.48524898 0.44009766
v 0.024552226 0.26958278 0.44009763
v 0.24552244 0.26958278 0.24873187
v 0.46649256 0.48524898 0.44009766
v 0.24552244 0.26958278 0.24873187
v 0.6874629 0.26958278 0.24873193
v 0.46649256 0.48524898 0.44009766
v 0.6874629 0.26958278 0.24873193
v 0.9084329 0.26958278 0.4400977
v 1.3994777 0.48524898 0.7701708
v 1.841418 0.26958278 0.7701708
v 1.6204479 0.26958278 0.9615366
v 1.3994777 0.48524898 0.7701708
v 1.6204479 0.26958278 0.9615366
v 1.1785076 0.26958278 0.9615366
v 1.3994777 0.48524898 0.7701708
v 1.1785076 0.26958278 0.9615366
v 0.9575374 0.26958278 0.7701708
v 1.3994777 0.48524898 0.7701708
v 0.9575374 0.26958278 0.7701708
v 1.1785076 0.26958278 0.578805
v 1.3994777 0.48524898 0.7701708
v 1.1785076 0.26958278 0.578805
v 1.6204481 0.26958278 0.5788051
v 1.3994777 0.48524898 0.7701708
v 1.6204481 0.26958278 0.5788051
v 1.841418 0.26958278 0.77017087
v 0 0.4236301 1.0085571
v -0.5401493 0.1540473 0.64180905
v 0.5401493 0.1540473 0.64180905
v 0 0.4236301 1.0085571
v 0 0.26958278 1.320293
v -0.2946269 0.19255912 0.7701708
v -0.8184081 0.045643643 -1.2919532
v -1.0709454 0 -1.8475354
v -0.56587076 0 -1.8475354
v -0.8184081 0.18828003 -1.1656846
v -0.96993047 0.045643643 -1.2919532
v -0.6668857 0.045643643 -1.2919532
v 0 0.045643643 -1.2919532
v -0.25253734 0 -1.8475354
v 0.25253734 0 -1.8475354
v 0 0.18828003 -1.1656846
v -0.15152241 0.045643643 -1.2919532
v 0.15152241 0.045643643 -1.2919532
v 0.8184081 0.045643643 -1.2919532
v 0.56587076 0 -1.8475354
v 1.0709454 0 -1.8475354
v 0.8184081 0.18828003 -1.1656846
v 0.6668857 0.045643643 -1.2919532
v 0.96993047 0.045643643 -1.2919532
v 0 0.2168073 0.16670364
v -0.16368161 0.07987638 0.026405111
v 0.16368161 0.07987638 0.026405111
vn -0.4444785 -0.7979446 -0.4070912
vn -0.4444785 -0.7979446 -0.4070912
vn -0.4444785 -0.7979446 -0.4070912
vn -0.017543381 0.74860483 -0.66278416
vn -0.017543381 0.74860483 -0.66278416
vn -0.017543381 0.74860483 -0.66278416
vn -0.082662 0.16919084 -0.9821107
vn -0.082662 0.16919084 -0.9821107
vn -0.082662 0.16919084 -0.9821107
vn -0.0074961465 0.73099035 -0.68234664
vn -0.0074961465 0.73099035 -0.68234664
vn -0.0074961465 0.73099035 -0.68234664
vn 4.5383164E-08 0.241084 -0.9705042
vn 4.5383164E-08 0.241084 -0.9705042
vn 4.5383164E-08 0.241084 -0.9705042
vn 3.2121008E-08 0.7267544 -0.68689734
vn 3.2121008E-08 0.7267544 -0.68689734
vn 3.2121008E-08 0.7267544 -0.68689734
vn 0.08266198 0.16919093 -0.9821107
vn 0.08266198 0.16919093 -0.9821107
vn 0.08266198 0.16919093 -0.9821107
vn 0.0074961376 0.7309903 -0.68234676
vn 0.0074961376 0.7309903 -0.68234676
vn 0.0074961376 0.7309903 -0.68234676
vn 0.44447848 -0.7979449 -0.40709057
vn 0.44447848 -0.7979449 -0.40709057
vn 0.44447848 -0.7979449 -0.40709057
vn 0.017543366 0.7486049 -0.6627843
vn 0.017543366 0.7486049 -0.6627843
vn 0.017543366 0.7486049 -0.6627843
vn 0.110762894 -0.6178216 0.7784781
vn 0.110762894 -0.6178216 0.7784781
vn 0.110762894 -0.6178216 0.7784781
vn 0.03886863 0.8131885 -0.5807011
vn 0.03886863 0.8131885 -0.5807011
vn 0.03886863 0.8131885 -0.5807011
vn 0.03862373 -0.53983366 0.84088504
vn 0.03862373 -0.53983366 0.84088504
vn 0.03862373 -0.53983366 0.84088504
vn 0.12627883 0.67942 0.7228016
vn 0.12627883 0.67942 0.7228016
vn 0.12627883 0.67942 0.7228016
vn -7.635207E-09 -0.52472126 0.851274
vn -7.635207E-09 -0.52472126 0.851274
vn -7.635207E-09 -0.52472126 0.851274
vn -1.5129151E-08 -0.30521858 0.9522824
vn -1.5129151E-08 -0.30521858 0.9522824
vn -1.5129151E-08 -0.30521858 0.9522824
vn -0.038623758 -0.53983384 0.8408851
vn -0.038623758 -0.53983384 0.8408851
vn -0.038623758 -0.53983384 0.8408851
vn -0.1262789 0.67942166 0.7228
vn -0.1262789 0.67942166 0.7228
vn -0.1262789 0.67942166 0.7228
vn -0.110762954 -0.6178215 0.77847797
vn -0.110762954 -0.6178215 0.77847797
vn -0.110762954 -0.6178215 0.77847797
vn -0.038868614 0.81318843 -0.58070123
vn -0.038868614 0.81318843 -0.58070123
vn -0.038868614 0.81318843 -0.58070123
vn -0.39125538 -0.80175525 -0.45178273
vn -0.39125538 -0.80175525 -0.45178273
vn -0.39125538 -0.80175525 -0.45178273
vn 2.9235489E-08 -0.6637097 -0.74799025
vn 2.9235489E-08 -0.6637097 -0.74799025
vn 2.9235489E-08 -0.6637097 -0.74799025
vn 0.3912554 -0.80175525 -0.45178276
vn 0.3912554 -0.80175525 -0.45178276
vn 0.3912554 -0.80175525 -0.45178276
vn 0.39125538 -0.8017553 0.45178273
vn 0.39125538 -0.8017553 0.45178273
vn 0.39125538 -0.8017553 0.45178273
vn -1.16941884E-07 -0.66370964 0.74799025
vn -1.16941884E-07 -0.66370964 0.74799025
vn -1.16941884E-07 -0.66370964 0.74799025
vn -0.3912555 -0.8017554 0.45178238
vn -0.3912555 -0.8017554 0.45178238
vn -0.3912555 -0.8017554 0.45178238
vn -0.39125538 -0.8017553 -0.45178276
vn -0.39125538 -0.8017553 -0.45178276
vn -0.39125538 -0.8017553 -0.45178276
vn 5.8470977E-08 -0.66370976 -0.7479903
vn 5.8470977E-08 -0.66370976 -0.7479903
vn 5.8470977E-08 -0.66370976 -0.7479903
vn 0.39125538 -0.8017553 -0.45178273
vn 0.39125538 -0.8017553 -0.45178273
vn 0.39125538 -0.8017553 -0.45178273
vn 0.39125535 -0.80175525 0.45178288
vn 0.39125535 -0.80175525 0.45178288
vn 0.39125535 -0.80175525 0.45178288
vn -1.16941926E-07 -0.66370964 0.7479903
vn -1.16941926E-07 -0.66370964 0.7479903
vn -1.16941926E-07 -0.66370964 0.7479903
vn -0.39125544 -0.80175537 0.45178258
vn -0.39125544 -0.80175537 0.45178258
vn -0.39125544 -0.80175537 0.45178258
vn -0.39125538 -0.8017553 -0.45178282
vn -0.39125538 -0.8017553 -0.45178282
vn -0.39125538 -0.8017553 -0.45178282
vn 1.16941955E-07 -0.6637097 -0.74799025
vn 1.16941955E-07 -0.6637097 -0.74799025
vn 1.16941955E-07 -0.6637097 -0.74799025
vn 0.39125538 -0.80175525 -0.45178276
vn 0.39125538 -0.80175525 -0.45178276
vn 0.39125538 -0.80175525 -0.45178276
vn 0.39125532 -0.80175525 0.45178288
vn 0.39125532 -0.80175525 0.45178288
vn 0.39125532 -0.80175525 0.45178288
vn -1.1694191E-07 -0.66370964 0.7479903
vn -1.1694191E-07 -0.66370964 0.7479903
vn -1.1694191E-07 -0.66370964 0.7479903
vn -0.39125547 -0.8017554 0.45178255
vn -0.39125547 -0.8017554 0.45178255
vn -0.39125547 -0.8017554 0.45178255
vn -0.39125538 -0.80175525 -0.45178276
vn -0.39125538 -0.80175525 -0.45178276
vn -0.39125538 -0.80175525 -0.45178276
vn 0 -0.6637097 -0.74799037
vn 0 -0.6637097 -0.74799037
vn 0 -0.6637097 -0.74799037
vn 0.39125538 -0.80175525 -0.45178276
vn 0.39125538 -0.80175525 -0.45178276
vn 0.39125538 -0.80175525 -0.45178276
vn 0.39125538 -0.80175525 0.45178276
vn 0.39125538 -0.80175525 0.45178276
vn 0.39125538 -0.80175525 0.45178276
vn -1.169419E-07 -0.6637096 0.7479903
vn -1.169419E-07 -0.6637096 0.7479903
vn -1.169419E-07 -0.6637096 0.7479903
vn -0.39125547 -0.8017554 0.4517824
vn -0.39125547 -0.8017554 0.4517824
vn -0.39125547 -0.8017554 0.4517824
vn 0 -0.80574 0.5922694
vn 0 -0.80574 0.5922694
vn 0 -0.80574 0.5922694
vn 0.7279011 -0.61472213 -0.30377093
vn 0.7279011 -0.61472213 -0.30377093
vn 0.7279011 -0.61472213 -0.30377093
vn 0 -0.9966423 0.08187877
vn 0 -0.9966423 0.08187877
vn 0 -0.9966423 0.08187877
vn 0 -0.6628398 0.74876136
vn 0 -0.6628398 0.74876136
vn 0 -0.6628398 0.74876136
vn 0 -0.99664223 0.081878774
vn 0 -0.99664223 0.081878774
vn 0 -0.99664223 0.081878774
vn 0 -0.6628398 0.7487614
vn 0 -0.6628398 0.7487614
vn 0 -0.6628398 0.7487614
vn 0 -0.9966423 0.08187877
vn 0 -0.9966423 0.08187877
vn 0 -0.9966423 0.08187877
vn 0 -0.6628398 0.74876136
vn 0 -0.6628398 0.74876136
vn 0 -0.6628398 0.74876136
vn 0 -0.7156434 0.69846576
vn 0 -0.7156434 0.69846576
vn 0 -0.7156434 0.69846576
f 1//1 2//2 3//3
f 4//4 5//5 6//6
f 7//7 8//8 9//9
f 10//10 11//11 12//12
f 13//13 14//14 15//15
f 16//16 17//17 18//18
f 19//19 20//20 21//21
f 22//22 23//23 24//24
f 25//25 26//26 27//27
f 28//28 29//29 30//30
f 31//31 32//32 33//33
f 34//34 35//35 36//36
f 37//37 38//38 39//39
f 40//40 41//41 42//42
f 43//43 44//44 45//45
f 46//46 47//47 48//48
f 49//49 50//50 51//51
f 52//52 53//53 54//54
f 55//55 56//56 57//57
f 58//58 59//59 60//60
f 61//61 62//62 63//63
f 64//64 65//65 66//66
f 67//67 68//68 69//69
f 70//70 71//71 72//72
f 73//73 74//74 75//75
f 76//76 77//77 78//78
f 79//79 80//80 81//81
f 82//82 83//83 84//84
f 85//85 86//86 87//87
f 88//88 89//89 90//90
f 91//91 92//92 93//93
f 94//94 95//95 96//96
f 97//97 98//98 99//99
f 100//100 101//101 102//102
f 103//103 104//104 105//105
f 106//106 107//107 108//108
f 109//109 110//110 111//111
f 112//112 113//113 114//114
f 115//115 116//116 117//117
f 118//118 119//119 120//120
f 121//121 122//122 123//123
f 124//124 125//125 126//126
f 127//127 128//128 129//129
f 130//130 131//131 132//132
f 133//133 134//134 135//135
f 136//136 137//137 138//138
f 139//139 140//140 141//141
f 142//142 143//143 144//144
f 145//145 146//146 147//147
f 148//148 149//149 150//150
f 151//151 152//152 153//153
f 154//154 155//155 156//156
f 157//157 158//158 159//159
