# Exported from SharpOpenGl procedural mesh
o aetherian_support_mk2_32
# vertices 156
v 1.8096204 0.41338903 0.2310929
v 1.4640137 0.5591794 0.36013424
v 0 1.4055227 0.57773226
v 1.8096204 0.41338903 0.2310929
v 0 0.082677804 0
v 1.4640137 0.5591794 0.36013424
v 1.4640137 0.5591794 0.36013424
v 0.5592034 0.6492828 0.4398862
v 0 1.4055227 0.57773226
v 1.4640137 0.5591794 0.36013424
v 0 0.082677804 0
v 0.5592034 0.6492828 0.4398862
v 0.5592034 0.6492828 0.4398862
v -0.5592035 0.6492828 0.43988618
v 0 1.4055227 0.57773226
v 0.5592034 0.6492828 0.4398862
v 0 0.082677804 0
v -0.5592035 0.6492828 0.43988618
v -0.5592035 0.6492828 0.43988618
v -1.4640138 0.5591794 0.36013424
v 0 1.4055227 0.57773226
v -0.5592035 0.6492828 0.43988618
v 0 0.082677804 0
v -1.4640138 0.5591794 0.36013424
v -1.4640138 0.5591794 0.36013424
v -1.8096204 0.413389 0.23109289
v 0 1.4055227 0.57773226
v -1.4640138 0.5591794 0.36013424
v 0 0.082677804 0
v -1.8096204 0.413389 0.23109289
v -1.8096204 0.413389 0.23109289
v -1.4640136 0.2675986 0.10205153
v 0 1.4055227 0.57773226
v -1.8096204 0.413389 0.23109289
v 0 0.082677804 0
v -1.4640136 0.2675986 0.10205153
v -1.4640136 0.2675986 0.10205153
v -0.5592028 0.17749521 0.022299588
v 0 1.4055227 0.57773226
v -1.4640136 0.2675986 0.10205153
v 0 0.082677804 0
v -0.5592028 0.17749521 0.022299588
v -0.5592028 0.17749521 0.022299588
v 0.5592037 0.17749523 0.022299618
v 0 1.4055227 0.57773226
v -0.5592028 0.17749521 0.022299588
v 0 0.082677804 0
v 0.5592037 0.17749523 0.022299618
v 0.5592037 0.17749523 0.022299618
v 1.4640136 0.26759863 0.10205154
v 0 1.4055227 0.57773226
v 0.5592037 0.17749523 0.022299618
v 0 0.082677804 0
v 1.4640136 0.26759863 0.10205154
v 1.4640136 0.26759863 0.10205154
v 1.8096204 0.41338906 0.23109294
v 0 1.4055227 0.57773226
v 1.4640136 0.26759863 0.10205154
v 0 0.082677804 0
v 1.8096204 0.41338906 0.23109294
v -2.4559133 1.0417404 -0.34663936
v -1.6803617 0.57874465 -0.34663936
v -2.0681376 0.57874465 -0.01081565
v -2.4559133 1.0417404 -0.34663936
v -2.0681376 0.57874465 -0.01081565
v -2.8436892 0.57874465 -0.01081568
v -2.4559133 1.0417404 -0.34663936
v -2.8436892 0.57874465 -0.01081568
v -3.2314649 0.57874465 -0.3466394
v -2.4559133 1.0417404 -0.34663936
v -3.2314649 0.57874465 -0.3466394
v -2.843689 0.57874465 -0.68246305
v -2.4559133 1.0417404 -0.34663936
v -2.843689 0.57874465 -0.68246305
v -2.0681372 0.57874465 -0.682463
v -2.4559133 1.0417404 -0.34663936
v -2.0681372 0.57874465 -0.682463
v -1.6803617 0.57874465 -0.3466393
v -0.8186378 1.0417404 0.17331973
v -0.04308617 0.57874465 0.17331973
v -0.430862 0.57874465 0.5091435
v -0.8186378 1.0417404 0.17331973
v -0.430862 0.57874465 0.5091435
v -1.2064136 0.57874465 0.5091434
v -0.8186378 1.0417404 0.17331973
v -1.2064136 0.57874465 0.5091434
v -1.5941894 0.57874465 0.1733197
v -0.8186378 1.0417404 0.17331973
v -1.5941894 0.57874465 0.1733197
v -1.2064135 0.57874465 -0.16250399
v -0.8186378 1.0417404 0.17331973
v -1.2064135 0.57874465 -0.16250399
v -0.4308617 0.57874465 -0.1625039
v -0.8186378 1.0417404 0.17331973
v -0.4308617 0.57874465 -0.1625039
v -0.04308617 0.57874465 0.1733198
v 0.8186378 1.0417404 0.6932788
v 1.5941894 0.57874465 0.6932788
v 1.2064135 0.57874465 1.0291026
v 0.8186378 1.0417404 0.6932788
v 1.2064135 0.57874465 1.0291026
v 0.43086192 0.57874465 1.0291024
v 0.8186378 1.0417404 0.6932788
v 0.43086192 0.57874465 1.0291024
v 0.04308617 0.57874465 0.69327873
v 0.8186378 1.0417404 0.6932788
v 0.04308617 0.57874465 0.69327873
v 0.43086204 0.57874465 0.35745507
v 0.8186378 1.0417404 0.6932788
v 0.43086204 0.57874465 0.35745507
v 1.2064139 0.57874465 0.35745516
v 0.8186378 1.0417404 0.6932788
v 1.2064139 0.57874465 0.35745516
v 1.5941894 0.57874465 0.69327885
v 2.4559133 1.0417404 1.2132378
v 3.2314649 0.57874465 1.2132378
v 2.843689 0.57874465 1.5490615
v 2.4559133 1.0417404 1.2132378
v 2.843689 0.57874465 1.5490615
v 2.0681374 0.57874465 1.5490614
v 2.4559133 1.0417404 1.2132378
v 2.0681374 0.57874465 1.5490614
v 1.6803617 0.57874465 1.2132378
v 2.4559133 1.0417404 1.2132378
v 1.6803617 0.57874465 1.2132378
v 2.0681376 0.57874465 0.87741405
v 2.4559133 1.0417404 1.2132378
v 2.0681376 0.57874465 0.87741405
v 2.8436894 0.57874465 0.8774141
v 2.4559133 1.0417404 1.2132378
v 2.8436894 0.57874465 0.8774141
v 3.2314649 0.57874465 1.2132379
v 0 0.9094559 1.5887638
v -0.94789636 0.33071122 1.0110315
v 0.94789636 0.33071122 1.0110315
v 0 0.9094559 1.5887638
v 0 0.57874465 2.0798364
v -0.5170344 0.41338903 1.2132378
v -1.4362067 0.09798851 -2.0351932
v -1.9286205 0 -3.1185036
v -0.94379294 0 -3.1185036
v -1.4362067 0.4042026 -1.7889863
v -1.7316549 0.09798851 -2.0351932
v -1.1407585 0.09798851 -2.0351932
v 0 0.09798851 -2.0351932
v -0.49241373 0 -3.1185036
v 0.49241373 0 -3.1185036
v 0 0.4042026 -1.7889863
v -0.29544824 0.09798851 -2.0351932
v 0.29544824 0.09798851 -2.0351932
v 1.4362067 0.09798851 -2.0351932
v 0.94379294 0 -3.1185036
v 1.9286205 0 -3.1185036
v 1.4362067 0.4042026 -1.7889863
v 1.1407585 0.09798851 -2.0351932
v 1.7316549 0.09798851 -2.0351932
vn -0.48826778 -0.7165268 -0.49818057
vn -0.48826778 -0.7165268 -0.49818057
vn -0.48826778 -0.7165268 -0.49818057
vn -0.018290957 0.63801086 -0.7698101
vn -0.018290957 0.63801086 -0.7698101
vn -0.018290957 0.63801086 -0.7698101
vn -0.074747786 0.12506075 -0.98932934
vn -0.074747786 0.12506075 -0.98932934
vn -0.074747786 0.12506075 -0.98932934
vn -0.0077527096 0.6179842 -0.78615236
vn -0.0077527096 0.6179842 -0.78615236
vn -0.0077527096 0.6179842 -0.78615236
vn 2.6215174E-08 0.17932352 -0.9837901
vn 2.6215174E-08 0.17932352 -0.9837901
vn 2.6215174E-08 0.17932352 -0.9837901
vn 2.1048477E-08 0.6132397 -0.78989685
vn 2.1048477E-08 0.6132397 -0.78989685
vn 2.1048477E-08 0.6132397 -0.78989685
vn 0.074747756 0.12506084 -0.9893294
vn 0.074747756 0.12506084 -0.9893294
vn 0.074747756 0.12506084 -0.9893294
vn 0.0077526933 0.61798406 -0.78615236
vn 0.0077526933 0.61798406 -0.78615236
vn 0.0077526933 0.61798406 -0.78615236
vn 0.48826793 -0.71652734 -0.49817973
vn 0.48826793 -0.71652734 -0.49817973
vn 0.48826793 -0.71652734 -0.49817973
vn 0.01829095 0.63801086 -0.76981014
vn 0.01829095 0.63801086 -0.76981014
vn 0.01829095 0.63801086 -0.76981014
vn 0.10970335 -0.50019664 0.8589345
vn 0.10970335 -0.50019664 0.8589345
vn 0.10970335 -0.50019664 0.8589345
vn 0.041867845 0.71601987 -0.6968232
vn 0.041867845 0.71601987 -0.6968232
vn 0.041867845 0.71601987 -0.6968232
vn 0.037274193 -0.42585918 0.9040213
vn 0.037274193 -0.42585918 0.9040213
vn 0.037274193 -0.42585918 0.9040213
vn 0.12803525 0.56310475 0.8164068
vn 0.12803525 0.56310475 0.8164068
vn 0.12803525 0.56310475 0.8164068
vn -1.8788484E-08 -0.4121041 0.9111368
vn -1.8788484E-08 -0.4121041 0.9111368
vn -1.8788484E-08 -0.4121041 0.9111368
vn -2.288913E-08 -0.22893839 0.973441
vn -2.288913E-08 -0.22893839 0.973441
vn -2.288913E-08 -0.22893839 0.973441
vn -0.037274204 -0.42585918 0.90402126
vn -0.037274204 -0.42585918 0.90402126
vn -0.037274204 -0.42585918 0.90402126
vn -0.12803544 0.56310725 0.81640506
vn -0.12803544 0.56310725 0.81640506
vn -0.12803544 0.56310725 0.81640506
vn -0.10970338 -0.50019664 0.8589345
vn -0.10970338 -0.50019664 0.8589345
vn -0.10970338 -0.50019664 0.8589345
vn -0.041867863 0.7160199 -0.6968232
vn -0.041867863 0.7160199 -0.6968232
vn -0.041867863 0.7160199 -0.6968232
vn -0.44111535 -0.73890024 -0.50935626
vn -0.44111535 -0.73890024 -0.50935626
vn -0.44111535 -0.73890024 -0.50935626
vn 3.3592386E-08 -0.5871415 -0.8094843
vn 3.3592386E-08 -0.5871415 -0.8094843
vn 3.3592386E-08 -0.5871415 -0.8094843
vn 0.4411154 -0.7389003 -0.509356
vn 0.4411154 -0.7389003 -0.509356
vn 0.4411154 -0.7389003 -0.509356
vn 0.4411153 -0.73890024 0.50935626
vn 0.4411153 -0.73890024 0.50935626
vn 0.4411153 -0.73890024 0.50935626
vn -6.718476E-08 -0.58714145 0.8094844
vn -6.718476E-08 -0.58714145 0.8094844
vn -6.718476E-08 -0.58714145 0.8094844
vn -0.44111544 -0.7389004 0.5093558
vn -0.44111544 -0.7389004 0.5093558
vn -0.44111544 -0.7389004 0.5093558
vn -0.44111535 -0.73890024 -0.5093561
vn -0.44111535 -0.73890024 -0.5093561
vn -0.44111535 -0.73890024 -0.5093561
vn 6.718477E-08 -0.5871416 -0.80948436
vn 6.718477E-08 -0.5871416 -0.80948436
vn 6.718477E-08 -0.5871416 -0.80948436
vn 0.44111538 -0.7389003 -0.5093561
vn 0.44111538 -0.7389003 -0.5093561
vn 0.44111538 -0.7389003 -0.5093561
vn 0.44111526 -0.73890024 0.5093562
vn 0.44111526 -0.73890024 0.5093562
vn 0.44111526 -0.73890024 0.5093562
vn -1.00777136E-07 -0.58714145 0.8094844
vn -1.00777136E-07 -0.58714145 0.8094844
vn -1.00777136E-07 -0.58714145 0.8094844
vn -0.44111544 -0.7389004 0.50935596
vn -0.44111544 -0.7389004 0.50935596
vn -0.44111544 -0.7389004 0.50935596
vn -0.44111535 -0.7389003 -0.50935614
vn -0.44111535 -0.7389003 -0.50935614
vn -0.44111535 -0.7389003 -0.50935614
vn 1.3436954E-07 -0.5871416 -0.8094843
vn 1.3436954E-07 -0.5871416 -0.8094843
vn 1.3436954E-07 -0.5871416 -0.8094843
vn 0.44111538 -0.7389003 -0.5093561
vn 0.44111538 -0.7389003 -0.5093561
vn 0.44111538 -0.7389003 -0.5093561
vn 0.4411153 -0.7389003 0.50935626
vn 0.4411153 -0.7389003 0.50935626
vn 0.4411153 -0.7389003 0.50935626
vn -1.0077713E-07 -0.58714145 0.8094843
vn -1.0077713E-07 -0.58714145 0.8094843
vn -1.0077713E-07 -0.58714145 0.8094843
vn -0.44111544 -0.7389004 0.50935596
vn -0.44111544 -0.7389004 0.50935596
vn -0.44111544 -0.7389004 0.50935596
vn -0.44111535 -0.7389003 -0.50935614
vn -0.44111535 -0.7389003 -0.50935614
vn -0.44111535 -0.7389003 -0.50935614
vn 1.3436954E-07 -0.5871415 -0.8094843
vn 1.3436954E-07 -0.5871415 -0.8094843
vn 1.3436954E-07 -0.5871415 -0.8094843
vn 0.4411154 -0.7389003 -0.5093561
vn 0.4411154 -0.7389003 -0.5093561
vn 0.4411154 -0.7389003 -0.5093561
vn 0.44111535 -0.73890024 0.50935626
vn 0.44111535 -0.73890024 0.50935626
vn 0.44111535 -0.73890024 0.50935626
vn -6.718475E-08 -0.58714145 0.8094843
vn -6.718475E-08 -0.58714145 0.8094843
vn -6.718475E-08 -0.58714145 0.8094843
vn -0.44111553 -0.7389004 0.5093557
vn -0.44111553 -0.7389004 0.5093557
vn -0.44111553 -0.7389004 0.5093557
vn 0 -0.70648754 0.70772547
vn 0 -0.70648754 0.70772547
vn 0 -0.70648754 0.70772547
vn 0.76861835 -0.5306027 -0.3573327
vn 0.76861835 -0.5306027 -0.3573327
vn 0.76861835 -0.5306027 -0.3573327
vn 0 -0.995934 0.09008507
vn 0 -0.995934 0.09008507
vn 0 -0.995934 0.09008507
vn 0 -0.62661064 0.77933246
vn 0 -0.62661064 0.77933246
vn 0 -0.62661064 0.77933246
vn 0 -0.99593407 0.090085074
vn 0 -0.99593407 0.090085074
vn 0 -0.99593407 0.090085074
vn 0 -0.62661064 0.77933246
vn 0 -0.62661064 0.77933246
vn 0 -0.62661064 0.77933246
vn 0 -0.995934 0.09008507
vn 0 -0.995934 0.09008507
vn 0 -0.995934 0.09008507
vn 0 -0.62661064 0.77933246
vn 0 -0.62661064 0.77933246
vn 0 -0.62661064 0.77933246
f 1//1 2//2 3//3
f 4//4 5//5 6//6
f 7//7 8//8 9//9
f 10//10 11//11 12//12
f 13//13 14//14 15//15
f 16//16 17//17 18//18
f 19//19 20//20 21//21
f 22//22 23//23 24//24
f 25//25 26//26 27//27
f 28//28 29//29 30//30
f 31//31 32//32 33//33
f 34//34 35//35 36//36
f 37//37 38//38 39//39
f 40//40 41//41 42//42
f 43//43 44//44 45//45
f 46//46 47//47 48//48
f 49//49 50//50 51//51
f 52//52 53//53 54//54
f 55//55 56//56 57//57
f 58//58 59//59 60//60
f 61//61 62//62 63//63
f 64//64 65//65 66//66
f 67//67 68//68 69//69
f 70//70 71//71 72//72
f 73//73 74//74 75//75
f 76//76 77//77 78//78
f 79//79 80//80 81//81
f 82//82 83//83 84//84
f 85//85 86//86 87//87
f 88//88 89//89 90//90
f 91//91 92//92 93//93
f 94//94 95//95 96//96
f 97//97 98//98 99//99
f 100//100 101//101 102//102
f 103//103 104//104 105//105
f 106//106 107//107 108//108
f 109//109 110//110 111//111
f 112//112 113//113 114//114
f 115//115 116//116 117//117
f 118//118 119//119 120//120
f 121//121 122//122 123//123
f 124//124 125//125 126//126
f 127//127 128//128 129//129
f 130//130 131//131 132//132
f 133//133 134//134 135//135
f 136//136 137//137 138//138
f 139//139 140//140 141//141
f 142//142 143//143 144//144
f 145//145 146//146 147//147
f 148//148 149//149 150//150
f 151//151 152//152 153//153
f 154//154 155//155 156//156
