# Exported from SharpOpenGl procedural mesh
o aetherian_destroyer_mk1_08
# vertices 138
v 1.2705388 0.32160577 0.32414675
v 1.0278875 0.43502685 0.505149
v 0 1.0934596 0.81036687
v 1.2705388 0.32160577 0.32414675
v 0 0.06432115 0
v 1.0278875 0.43502685 0.505149
v 1.0278875 0.43502685 0.505149
v 0.39261806 0.5051249 0.6170145
v 0 1.0934596 0.81036687
v 1.0278875 0.43502685 0.505149
v 0 0.06432115 0
v 0.39261806 0.5051249 0.6170145
v 0.39261806 0.5051249 0.6170145
v -0.39261812 0.5051249 0.6170145
v 0 1.0934596 0.81036687
v 0.39261806 0.5051249 0.6170145
v 0 0.06432115 0
v -0.39261812 0.5051249 0.6170145
v -0.39261812 0.5051249 0.6170145
v -1.0278876 0.43502682 0.505149
v 0 1.0934596 0.81036687
v -0.39261812 0.5051249 0.6170145
v 0 0.06432115 0
v -1.0278876 0.43502682 0.505149
v -1.0278876 0.43502682 0.505149
v -1.2705388 0.32160574 0.32414672
v 0 1.0934596 0.81036687
v -1.0278876 0.43502682 0.505149
v 0 0.06432115 0
v -1.2705388 0.32160574 0.32414672
v -1.2705388 0.32160574 0.32414672
v -1.0278875 0.20818466 0.14314444
v 0 1.0934596 0.81036687
v -1.2705388 0.32160574 0.32414672
v 0 0.06432115 0
v -1.0278875 0.20818466 0.14314444
v -1.0278875 0.20818466 0.14314444
v -0.39261764 0.13808659 0.03127891
v 0 1.0934596 0.81036687
v -1.0278875 0.20818466 0.14314444
v 0 0.06432115 0
v -0.39261764 0.13808659 0.03127891
v -0.39261764 0.13808659 0.03127891
v 0.39261824 0.13808662 0.031278938
v 0 1.0934596 0.81036687
v -0.39261764 0.13808659 0.03127891
v 0 0.06432115 0
v 0.39261824 0.13808662 0.031278938
v 0.39261824 0.13808662 0.031278938
v 1.0278875 0.20818469 0.14314447
v 0 1.0934596 0.81036687
v 0.39261824 0.13808662 0.031278938
v 0 0.06432115 0
v 1.0278875 0.20818469 0.14314447
v 1.0278875 0.20818469 0.14314447
v 1.2705388 0.3216058 0.3241468
v 0 1.0934596 0.81036687
v 1.0278875 0.20818469 0.14314447
v 0 0.06432115 0
v 1.2705388 0.3216058 0.3241468
v -1.1495351 0.8104465 -0.48622015
v -0.60501844 0.45024806 -0.48622015
v -0.8772768 0.45024806 -0.25043753
v -1.1495351 0.8104465 -0.48622015
v -0.8772768 0.45024806 -0.25043753
v -1.4217935 0.45024806 -0.25043756
v -1.1495351 0.8104465 -0.48622015
v -1.4217935 0.45024806 -0.25043756
v -1.6940517 0.45024806 -0.48622018
v -1.1495351 0.8104465 -0.48622015
v -1.6940517 0.45024806 -0.48622018
v -1.4217933 0.45024806 -0.72200274
v -1.1495351 0.8104465 -0.48622015
v -1.4217933 0.45024806 -0.72200274
v -0.87727654 0.45024806 -0.72200274
v -1.1495351 0.8104465 -0.48622015
v -0.87727654 0.45024806 -0.72200274
v -0.60501844 0.45024806 -0.4862201
v 0 0.8104465 0.24311009
v 0.5445166 0.45024806 0.24311009
v 0.27225828 0.45024806 0.4788927
v 0 0.8104465 0.24311009
v 0.27225828 0.45024806 0.4788927
v -0.27225834 0.45024806 0.47889268
v 0 0.8104465 0.24311009
v -0.27225834 0.45024806 0.47889268
v -0.5445166 0.45024806 0.24311006
v 0 0.8104465 0.24311009
v -0.5445166 0.45024806 0.24311006
v -0.27225825 0.45024806 0.007327467
v 0 0.8104465 0.24311009
v -0.27225825 0.45024806 0.007327467
v 0.27225852 0.45024806 0.007327527
v 0 0.8104465 0.24311009
v 0.27225852 0.45024806 0.007327527
v 0.5445166 0.45024806 0.24311014
v 1.1495351 0.8104465 0.97244036
v 1.6940517 0.45024806 0.97244036
v 1.4217933 0.45024806 1.208223
v 1.1495351 0.8104465 0.97244036
v 1.4217933 0.45024806 1.208223
v 0.8772767 0.45024806 1.208223
v 1.1495351 0.8104465 0.97244036
v 0.8772767 0.45024806 1.208223
v 0.60501844 0.45024806 0.97244036
v 1.1495351 0.8104465 0.97244036
v 0.60501844 0.45024806 0.97244036
v 0.8772768 0.45024806 0.73665774
v 1.1495351 0.8104465 0.97244036
v 0.8772768 0.45024806 0.73665774
v 1.4217936 0.45024806 0.7366578
v 1.1495351 0.8104465 0.97244036
v 1.4217936 0.45024806 0.7366578
v 1.6940517 0.45024806 0.9724404
v 0 0.7075327 2.2285092
v -0.6655203 0.2572846 1.4181421
v 0.6655203 0.2572846 1.4181421
v 0 0.7075327 2.2285092
v 0 0.45024806 2.917321
v -0.36301106 0.32160577 1.7017704
v -1.0083642 0.07623248 -2.8547018
v -1.4405203 0 -3.8054452
v -0.5762081 0 -3.8054452
v -1.0083642 0.31445897 -2.6386237
v -1.2676579 0.07623248 -2.8547018
v -0.7490705 0.07623248 -2.8547018
v 0 0.07623248 -2.8547018
v -0.43215606 0 -3.8054452
v 0.43215606 0 -3.8054452
v 0 0.31445897 -2.6386237
v -0.25929365 0.07623248 -2.8547018
v 0.25929365 0.07623248 -2.8547018
v 1.0083642 0.07623248 -2.8547018
v 0.5762081 0 -3.8054452
v 1.4405203 0 -3.8054452
v 1.0083642 0.31445897 -2.6386237
v 0.7490705 0.07623248 -2.8547018
v 1.2676579 0.07623248 -2.8547018
vn -0.57593274 -0.7627491 -0.29413477
vn -0.57593274 -0.7627491 -0.29413477
vn -0.57593274 -0.7627491 -0.29413477
vn -0.02639127 0.83078223 -0.5559715
vn -0.02639127 0.83078223 -0.5559715
vn -0.02639127 0.83078223 -0.5559715
vn -0.14560036 0.21984732 -0.9646076
vn -0.14560036 0.21984732 -0.9646076
vn -0.14560036 0.21984732 -0.9646076
vn -0.011357421 0.817036 -0.5764749
vn -0.011357421 0.817036 -0.5764749
vn -0.011357421 0.817036 -0.5764749
vn 0 0.31221506 -0.95001143
vn 0 0.31221506 -0.95001143
vn 0 0.31221506 -0.95001143
vn 0 0.8136841 -0.5813073
vn 0 0.8136841 -0.5813073
vn 0 0.8136841 -0.5813073
vn 0.14560035 0.21984734 -0.9646076
vn 0.14560035 0.21984734 -0.9646076
vn 0.14560035 0.21984734 -0.9646076
vn 0.011357384 0.8170359 -0.5764749
vn 0.011357384 0.8170359 -0.5764749
vn 0.011357384 0.8170359 -0.5764749
vn 0.57593274 -0.7627493 -0.29413402
vn 0.57593274 -0.7627493 -0.29413402
vn 0.57593274 -0.7627493 -0.29413402
vn 0.026391283 0.8307823 -0.55597144
vn 0.026391283 0.8307823 -0.55597144
vn 0.026391283 0.8307823 -0.55597144
vn 0.17331396 -0.71316487 0.67923343
vn 0.17331396 -0.71316487 0.67923343
vn 0.17331396 -0.71316487 0.67923343
vn 0.056923732 0.8785638 -0.47422075
vn 0.056923732 0.8785638 -0.47422075
vn 0.056923732 0.8785638 -0.47422075
vn 0.06266042 -0.6460807 0.7606927
vn 0.06266042 -0.6460807 0.7606927
vn 0.06266042 -0.6460807 0.7606927
vn 0.19266085 0.7646965 0.61491555
vn 0.19266085 0.7646965 0.61491555
vn 0.19266085 0.7646965 0.61491555
vn -5.4273066E-09 -0.63198286 0.7749823
vn -5.4273066E-09 -0.63198286 0.7749823
vn -5.4273066E-09 -0.63198286 0.7749823
vn -2.0125348E-08 -0.39038578 0.9206513
vn -2.0125348E-08 -0.39038578 0.9206513
vn -2.0125348E-08 -0.39038578 0.9206513
vn -0.062660486 -0.6460808 0.76069266
vn -0.062660486 -0.6460808 0.76069266
vn -0.062660486 -0.6460808 0.76069266
vn -0.19266082 0.7646981 0.61491346
vn -0.19266082 0.7646981 0.61491346
vn -0.19266082 0.7646981 0.61491346
vn -0.17331399 -0.7131649 0.67923343
vn -0.17331399 -0.7131649 0.67923343
vn -0.17331399 -0.7131649 0.67923343
vn -0.05692375 0.8785638 -0.4742207
vn -0.05692375 0.8785638 -0.4742207
vn -0.05692375 0.8785638 -0.4742207
vn -0.46531212 -0.7034183 -0.5372961
vn -0.46531212 -0.7034183 -0.5372961
vn -0.46531212 -0.7034183 -0.5372961
vn 6.3566546E-08 -0.5476858 -0.8366841
vn 6.3566546E-08 -0.5476858 -0.8366841
vn 6.3566546E-08 -0.5476858 -0.8366841
vn 0.46531212 -0.70341843 -0.5372961
vn 0.46531212 -0.70341843 -0.5372961
vn 0.46531212 -0.70341843 -0.5372961
vn 0.46531203 -0.70341825 0.53729635
vn 0.46531203 -0.70341825 0.53729635
vn 0.46531203 -0.70341825 0.53729635
vn 0 -0.54768574 0.8366841
vn 0 -0.54768574 0.8366841
vn 0 -0.54768574 0.8366841
vn -0.4653123 -0.70341855 0.5372958
vn -0.4653123 -0.70341855 0.5372958
vn -0.4653123 -0.70341855 0.5372958
vn -0.46531212 -0.7034183 -0.5372961
vn -0.46531212 -0.7034183 -0.5372961
vn -0.46531212 -0.7034183 -0.5372961
vn 6.356655E-08 -0.54768574 -0.83668405
vn 6.356655E-08 -0.54768574 -0.83668405
vn 6.356655E-08 -0.54768574 -0.83668405
vn 0.46531215 -0.70341843 -0.5372961
vn 0.46531215 -0.70341843 -0.5372961
vn 0.46531215 -0.70341843 -0.5372961
vn 0.46531215 -0.7034183 0.5372963
vn 0.46531215 -0.7034183 0.5372963
vn 0.46531215 -0.7034183 0.5372963
vn -9.5349804E-08 -0.54768574 0.83668417
vn -9.5349804E-08 -0.54768574 0.83668417
vn -9.5349804E-08 -0.54768574 0.83668417
vn -0.46531227 -0.7034185 0.5372959
vn -0.46531227 -0.7034185 0.5372959
vn -0.46531227 -0.7034185 0.5372959
vn -0.46531206 -0.7034183 -0.53729624
vn -0.46531206 -0.7034183 -0.53729624
vn -0.46531206 -0.7034183 -0.53729624
vn 0 -0.5476858 -0.83668405
vn 0 -0.5476858 -0.83668405
vn 0 -0.5476858 -0.83668405
vn 0.46531218 -0.70341843 -0.5372961
vn 0.46531218 -0.70341843 -0.5372961
vn 0.46531218 -0.70341843 -0.5372961
vn 0.46531212 -0.7034183 0.5372961
vn 0.46531212 -0.7034183 0.5372961
vn 0.46531212 -0.7034183 0.5372961
vn -9.53498E-08 -0.54768574 0.8366841
vn -9.53498E-08 -0.54768574 0.8366841
vn -9.53498E-08 -0.54768574 0.8366841
vn -0.46531224 -0.7034185 0.53729594
vn -0.46531224 -0.7034185 0.53729594
vn -0.46531224 -0.7034185 0.53729594
vn 0 -0.87413704 0.48567933
vn 0 -0.87413704 0.48567933
vn 0 -0.87413704 0.48567933
vn 0.832671 -0.5187612 -0.19376744
vn 0.832671 -0.5187612 -0.19376744
vn 0.832671 -0.5187612 -0.19376744
vn 0 -0.9968009 0.079925455
vn 0 -0.9968009 0.079925455
vn 0 -0.9968009 0.079925455
vn 0 -0.6718357 0.74070024
vn 0 -0.6718357 0.74070024
vn 0 -0.6718357 0.74070024
vn 0 -0.9968008 0.07992544
vn 0 -0.9968008 0.07992544
vn 0 -0.9968008 0.07992544
vn 0 -0.67183566 0.74070024
vn 0 -0.67183566 0.74070024
vn 0 -0.67183566 0.74070024
vn 0 -0.9968009 0.079925455
vn 0 -0.9968009 0.079925455
vn 0 -0.9968009 0.079925455
vn 0 -0.6718357 0.74070024
vn 0 -0.6718357 0.74070024
vn 0 -0.6718357 0.74070024
f 1//1 2//2 3//3
f 4//4 5//5 6//6
f 7//7 8//8 9//9
f 10//10 11//11 12//12
f 13//13 14//14 15//15
f 16//16 17//17 18//18
f 19//19 20//20 21//21
f 22//22 23//23 24//24
f 25//25 26//26 27//27
f 28//28 29//29 30//30
f 31//31 32//32 33//33
f 34//34 35//35 36//36
f 37//37 38//38 39//39
f 40//40 41//41 42//42
f 43//43 44//44 45//45
f 46//46 47//47 48//48
f 49//49 50//50 51//51
f 52//52 53//53 54//54
f 55//55 56//56 57//57
f 58//58 59//59 60//60
f 61//61 62//62 63//63
f 64//64 65//65 66//66
f 67//67 68//68 69//69
f 70//70 71//71 72//72
f 73//73 74//74 75//75
f 76//76 77//77 78//78
f 79//79 80//80 81//81
f 82//82 83//83 84//84
f 85//85 86//86 87//87
f 88//88 89//89 90//90
f 91//91 92//92 93//93
f 94//94 95//95 96//96
f 97//97 98//98 99//99
f 100//100 101//101 102//102
f 103//103 104//104 105//105
f 106//106 107//107 108//108
f 109//109 110//110 111//111
f 112//112 113//113 114//114
f 115//115 116//116 117//117
f 118//118 119//119 120//120
f 121//121 122//122 123//123
f 124//124 125//125 126//126
f 127//127 128//128 129//129
f 130//130 131//131 132//132
f 133//133 134//134 135//135
f 136//136 137//137 138//138
