# Exported from SharpOpenGl procedural mesh
o aetherian_transport_eclipse_61
# vertices 168
v 2.5187747 0.35468704 0.31011564
v 2.0377316 0.47977492 0.48328298
v 0 1.205936 0.77528906
v 2.5187747 0.35468704 0.31011564
v 0 0.07093741 0
v 2.0377316 0.47977492 0.48328298
v 2.0377316 0.47977492 0.48328298
v 0.77834415 0.5570835 0.5903063
v 0 1.205936 0.77528906
v 2.0377316 0.47977492 0.48328298
v 0 0.07093741 0
v 0.77834415 0.5570835 0.5903063
v 0.77834415 0.5570835 0.5903063
v -0.7783443 0.5570835 0.5903063
v 0 1.205936 0.77528906
v 0.77834415 0.5570835 0.5903063
v 0 0.07093741 0
v -0.7783443 0.5570835 0.5903063
v -0.7783443 0.5570835 0.5903063
v -2.0377316 0.4797749 0.48328295
v 0 1.205936 0.77528906
v -0.7783443 0.5570835 0.5903063
v 0 0.07093741 0
v -2.0377316 0.4797749 0.48328295
v -2.0377316 0.4797749 0.48328295
v -2.5187747 0.354687 0.3101156
v 0 1.205936 0.77528906
v -2.0377316 0.4797749 0.48328295
v 0 0.07093741 0
v -2.5187747 0.354687 0.3101156
v -2.5187747 0.354687 0.3101156
v -2.0377314 0.22959912 0.13694827
v 0 1.205936 0.77528906
v -2.5187747 0.354687 0.3101156
v 0 0.07093741 0
v -2.0377314 0.22959912 0.13694827
v -2.0377314 0.22959912 0.13694827
v -0.7783433 0.15229055 0.029924959
v 0 1.205936 0.77528906
v -2.0377314 0.22959912 0.13694827
v 0 0.07093741 0
v -0.7783433 0.15229055 0.029924959
v -0.7783433 0.15229055 0.029924959
v 0.7783445 0.1522906 0.029925019
v 0 1.205936 0.77528906
v -0.7783433 0.15229055 0.029924959
v 0 0.07093741 0
v 0.7783445 0.1522906 0.029925019
v 0.7783445 0.1522906 0.029925019
v 2.0377314 0.22959913 0.13694829
v 0 1.205936 0.77528906
v 0.7783445 0.1522906 0.029925019
v 0 0.07093741 0
v 2.0377314 0.22959913 0.13694829
v 2.0377314 0.22959913 0.13694829
v 2.5187747 0.35468706 0.3101157
v 0 1.205936 0.77528906
v 2.0377314 0.22959913 0.13694829
v 0 0.07093741 0
v 2.5187747 0.35468706 0.3101157
v -3.4183373 0.89381135 -0.46517345
v -2.3388624 0.49656186 -0.46517345
v -2.8786 0.49656186 0.0022529662
v -3.4183373 0.89381135 -0.46517345
v -2.8786 0.49656186 0.0022529662
v -3.958075 0.49656186 0.0022529364
v -3.4183373 0.89381135 -0.46517345
v -3.958075 0.49656186 0.0022529364
v -4.4978123 0.49656186 -0.4651735
v -3.4183373 0.89381135 -0.46517345
v -4.4978123 0.49656186 -0.4651735
v -3.9580748 0.49656186 -0.9325999
v -3.4183373 0.89381135 -0.46517345
v -3.9580748 0.49656186 -0.9325999
v -2.8785994 0.49656186 -0.9325998
v -3.4183373 0.89381135 -0.46517345
v -2.8785994 0.49656186 -0.9325998
v -2.3388624 0.49656186 -0.46517336
v -1.1394458 0.89381135 0.23258677
v -0.059970737 0.49656186 0.23258677
v -0.5997083 0.49656186 0.70001316
v -1.1394458 0.89381135 0.23258677
v -0.5997083 0.49656186 0.70001316
v -1.6791834 0.49656186 0.70001316
v -1.1394458 0.89381135 0.23258677
v -1.6791834 0.49656186 0.70001316
v -2.2189207 0.49656186 0.23258673
v -1.1394458 0.89381135 0.23258677
v -2.2189207 0.49656186 0.23258673
v -1.6791832 0.49656186 -0.23483965
v -1.1394458 0.89381135 0.23258677
v -1.6791832 0.49656186 -0.23483965
v -0.5997079 0.49656186 -0.23483953
v -1.1394458 0.89381135 0.23258677
v -0.5997079 0.49656186 -0.23483953
v -0.059970737 0.49656186 0.23258686
v 1.1394458 0.89381135 0.93034697
v 2.2189207 0.49656186 0.93034697
v 1.6791832 0.49656186 1.3977734
v 1.1394458 0.89381135 0.93034697
v 1.6791832 0.49656186 1.3977734
v 0.5997082 0.49656186 1.3977734
v 1.1394458 0.89381135 0.93034697
v 0.5997082 0.49656186 1.3977734
v 0.059970737 0.49656186 0.9303469
v 1.1394458 0.89381135 0.93034697
v 0.059970737 0.49656186 0.9303469
v 0.5997084 0.49656186 0.46292055
v 1.1394458 0.89381135 0.93034697
v 0.5997084 0.49656186 0.46292055
v 1.6791837 0.49656186 0.46292067
v 1.1394458 0.89381135 0.93034697
v 1.6791837 0.49656186 0.46292067
v 2.2189207 0.49656186 0.9303471
v 3.4183373 0.89381135 1.6281071
v 4.4978123 0.49656186 1.6281071
v 3.9580748 0.49656186 2.0955334
v 3.4183373 0.89381135 1.6281071
v 3.9580748 0.49656186 2.0955334
v 2.8785996 0.49656186 2.0955334
v 3.4183373 0.89381135 1.6281071
v 2.8785996 0.49656186 2.0955334
v 2.3388624 0.49656186 1.6281071
v 3.4183373 0.89381135 1.6281071
v 2.3388624 0.49656186 1.6281071
v 2.8786 0.49656186 1.1606807
v 3.4183373 0.89381135 1.6281071
v 2.8786 0.49656186 1.1606807
v 3.9580753 0.49656186 1.1606808
v 3.4183373 0.89381135 1.6281071
v 3.9580753 0.49656186 1.1606808
v 4.4978123 0.49656186 1.6281072
v 0 0.78031147 2.132045
v -1.3193583 0.28374964 1.356756
v 1.3193583 0.28374964 1.356756
v 0 0.78031147 2.132045
v 0 0.49656186 2.791041
v -0.71965 0.35468704 1.6281071
v -2.3988335 0.08407396 -2.731132
v -3.1527526 0 -4.3897543
v -1.6449144 0 -4.3897543
v -2.3988335 0.3468051 -2.3541725
v -2.851185 0.08407396 -2.731132
v -1.9464821 0.08407396 -2.731132
v -0.79961115 0.08407396 -2.731132
v -1.5535302 0 -4.3897543
v -0.045692027 0 -4.3897543
v -0.79961115 0.3468051 -2.3541725
v -1.2519627 0.08407396 -2.731132
v -0.34725967 0.08407396 -2.731132
v 0.79961115 0.08407396 -2.731132
v 0.045692027 0 -4.3897543
v 1.5535302 0 -4.3897543
v 0.79961115 0.3468051 -2.3541725
v 0.34725967 0.08407396 -2.731132
v 1.2519627 0.08407396 -2.731132
v 2.3988335 0.08407396 -2.731132
v 1.6449144 0 -4.3897543
v 3.1527526 0 -4.3897543
v 2.3988335 0.3468051 -2.3541725
v 1.9464821 0.08407396 -2.731132
v 2.851185 0.08407396 -2.731132
v -0.6282659 0.39935133 -0.22025259
v -1.0280715 0.14712943 -0.5629431
v -0.22846034 0.14712943 -0.5629431
v 0.6282659 0.39935133 -0.6200582
v 0.22846034 0.14712943 -0.96274865
v 1.0280715 0.14712943 -0.96274865
vn -0.3583501 -0.8530949 -0.37922856
vn -0.3583501 -0.8530949 -0.37922856
vn -0.3583501 -0.8530949 -0.37922856
vn -0.013991149 0.7916986 -0.61075175
vn -0.013991149 0.7916986 -0.61075175
vn -0.013991149 0.7916986 -0.61075175
vn -0.071278736 0.19346313 -0.9785149
vn -0.071278736 0.19346313 -0.9785149
vn -0.071278736 0.19346313 -0.9785149
vn -0.005999226 0.7757764 -0.63097954
vn -0.005999226 0.7757764 -0.63097954
vn -0.005999226 0.7757764 -0.63097954
vn 0 0.27416798 -0.9616818
vn 0 0.27416798 -0.9616818
vn 0 0.27416798 -0.9616818
vn 0 0.7719228 -0.6357162
vn 0 0.7719228 -0.6357162
vn 0 0.7719228 -0.6357162
vn 0.07127876 0.19346307 -0.9785149
vn 0.07127876 0.19346307 -0.9785149
vn 0.07127876 0.19346307 -0.9785149
vn 0.005999226 0.7757764 -0.63097954
vn 0.005999226 0.7757764 -0.63097954
vn 0.005999226 0.7757764 -0.63097954
vn 0.3583501 -0.8530949 -0.37922868
vn 0.3583501 -0.8530949 -0.37922868
vn 0.3583501 -0.8530949 -0.37922868
vn 0.013991139 0.7916986 -0.61075175
vn 0.013991139 0.7916986 -0.61075175
vn 0.013991139 0.7916986 -0.61075175
vn 0.09066216 -0.6705982 0.73625976
vn 0.09066216 -0.6705982 0.73625976
vn 0.09066216 -0.6705982 0.73625976
vn 0.030589549 0.84865856 -0.5280558
vn 0.030589549 0.84865856 -0.5280558
vn 0.030589549 0.84865856 -0.5280558
vn 0.031987585 -0.59286326 0.8046676
vn 0.031987585 -0.59286326 0.8046676
vn 0.031987585 -0.59286326 0.8046676
vn 0.102251686 0.72953504 0.6762569
vn 0.102251686 0.72953504 0.6762569
vn 0.102251686 0.72953504 0.6762569
vn -1.4674024E-08 -0.57751775 0.8163781
vn -1.4674024E-08 -0.57751775 0.8163781
vn -1.4674024E-08 -0.57751775 0.8163781
vn -2.6021498E-08 -0.34522554 0.9385197
vn -2.6021498E-08 -0.34522554 0.9385197
vn -2.6021498E-08 -0.34522554 0.9385197
vn -0.0319876 -0.5928633 0.80466765
vn -0.0319876 -0.5928633 0.80466765
vn -0.0319876 -0.5928633 0.80466765
vn -0.10225171 0.7295361 0.67625564
vn -0.10225171 0.7295361 0.67625564
vn -0.10225171 0.7295361 0.67625564
vn -0.09066218 -0.6705982 0.7362597
vn -0.09066218 -0.6705982 0.7362597
vn -0.09066218 -0.6705982 0.7362597
vn -0.03058956 0.8486587 -0.5280557
vn -0.03058956 0.8486587 -0.5280557
vn -0.03058956 0.8486587 -0.5280557
vn -0.3207923 -0.8717122 -0.370419
vn -0.3207923 -0.8717122 -0.370419
vn -0.3207923 -0.8717122 -0.370419
vn 2.2503158E-08 -0.76198995 -0.64758885
vn 2.2503158E-08 -0.76198995 -0.64758885
vn 2.2503158E-08 -0.76198995 -0.64758885
vn 0.3207923 -0.87171215 -0.3704188
vn 0.3207923 -0.87171215 -0.3704188
vn 0.3207923 -0.87171215 -0.3704188
vn 0.32079226 -0.8717122 0.370419
vn 0.32079226 -0.8717122 0.370419
vn 0.32079226 -0.8717122 0.370419
vn -6.750946E-08 -0.76198995 0.6475889
vn -6.750946E-08 -0.76198995 0.6475889
vn -6.750946E-08 -0.76198995 0.6475889
vn -0.32079235 -0.8717123 0.37041873
vn -0.32079235 -0.8717123 0.37041873
vn -0.32079235 -0.8717123 0.37041873
vn -0.32079223 -0.87171215 -0.370419
vn -0.32079223 -0.87171215 -0.370419
vn -0.32079223 -0.87171215 -0.370419
vn 0 -0.76199 -0.6475889
vn 0 -0.76199 -0.6475889
vn 0 -0.76199 -0.6475889
vn 0.32079232 -0.87171227 -0.37041894
vn 0.32079232 -0.87171227 -0.37041894
vn 0.32079232 -0.87171227 -0.37041894
vn 0.32079226 -0.8717122 0.370419
vn 0.32079226 -0.8717122 0.370419
vn 0.32079226 -0.8717122 0.370419
vn -6.750946E-08 -0.76198995 0.64758885
vn -6.750946E-08 -0.76198995 0.64758885
vn -6.750946E-08 -0.76198995 0.64758885
vn -0.3207923 -0.87171227 0.3704188
vn -0.3207923 -0.87171227 0.3704188
vn -0.3207923 -0.87171227 0.3704188
vn -0.3207923 -0.8717122 -0.370419
vn -0.3207923 -0.8717122 -0.370419
vn -0.3207923 -0.8717122 -0.370419
vn 0 -0.76199 -0.6475889
vn 0 -0.76199 -0.6475889
vn 0 -0.76199 -0.6475889
vn 0.3207923 -0.8717122 -0.3704189
vn 0.3207923 -0.8717122 -0.3704189
vn 0.3207923 -0.8717122 -0.3704189
vn 0.32079223 -0.8717122 0.3704191
vn 0.32079223 -0.8717122 0.3704191
vn 0.32079223 -0.8717122 0.3704191
vn -6.750946E-08 -0.76198995 0.64758885
vn -6.750946E-08 -0.76198995 0.64758885
vn -6.750946E-08 -0.76198995 0.64758885
vn -0.32079235 -0.8717122 0.37041873
vn -0.32079235 -0.8717122 0.37041873
vn -0.32079235 -0.8717122 0.37041873
vn -0.32079226 -0.8717121 -0.37041906
vn -0.32079226 -0.8717121 -0.37041906
vn -0.32079226 -0.8717121 -0.37041906
vn 0 -0.7619899 -0.64758897
vn 0 -0.7619899 -0.64758897
vn 0 -0.7619899 -0.64758897
vn 0.32079226 -0.8717121 -0.3704189
vn 0.32079226 -0.8717121 -0.3704189
vn 0.32079226 -0.8717121 -0.3704189
vn 0.3207923 -0.8717122 0.370419
vn 0.3207923 -0.8717122 0.370419
vn 0.3207923 -0.8717122 0.370419
vn -6.750946E-08 -0.76198995 0.6475889
vn -6.750946E-08 -0.76198995 0.6475889
vn -6.750946E-08 -0.76198995 0.6475889
vn -0.32079235 -0.8717122 0.37041873
vn -0.32079235 -0.8717122 0.37041873
vn -0.32079235 -0.8717122 0.37041873
vn 0 -0.8420856 0.539344
vn 0 -0.8420856 0.539344
vn 0 -0.8420856 0.539344
vn 0.63414925 -0.7101756 -0.30578652
vn 0.63414925 -0.7101756 -0.30578652
vn 0.63414925 -0.7101756 -0.30578652
vn 0 -0.9987177 0.050624035
vn 0 -0.9987177 0.050624035
vn 0 -0.9987177 0.050624035
vn 0 -0.82039636 0.5717952
vn 0 -0.82039636 0.5717952
vn 0 -0.82039636 0.5717952
vn 0 -0.9987177 0.050624035
vn 0 -0.9987177 0.050624035
vn 0 -0.9987177 0.050624035
vn 0 -0.82039636 0.5717952
vn 0 -0.82039636 0.5717952
vn 0 -0.82039636 0.5717952
vn 0 -0.9987177 0.050624035
vn 0 -0.9987177 0.050624035
vn 0 -0.9987177 0.050624035
vn 0 -0.82039636 0.5717952
vn 0 -0.82039636 0.5717952
vn 0 -0.82039636 0.5717952
vn 0 -0.9987177 0.050624035
vn 0 -0.9987177 0.050624035
vn 0 -0.9987177 0.050624035
vn 0 -0.82039636 0.5717952
vn 0 -0.82039636 0.5717952
vn 0 -0.82039636 0.5717952
vn 0 -0.8053778 0.59276193
vn 0 -0.8053778 0.59276193
vn 0 -0.8053778 0.59276193
vn 0 -0.80537766 0.59276193
vn 0 -0.80537766 0.59276193
vn 0 -0.80537766 0.59276193
f 1//1 2//2 3//3
f 4//4 5//5 6//6
f 7//7 8//8 9//9
f 10//10 11//11 12//12
f 13//13 14//14 15//15
f 16//16 17//17 18//18
f 19//19 20//20 21//21
f 22//22 23//23 24//24
f 25//25 26//26 27//27
f 28//28 29//29 30//30
f 31//31 32//32 33//33
f 34//34 35//35 36//36
f 37//37 38//38 39//39
f 40//40 41//41 42//42
f 43//43 44//44 45//45
f 46//46 47//47 48//48
f 49//49 50//50 51//51
f 52//52 53//53 54//54
f 55//55 56//56 57//57
f 58//58 59//59 60//60
f 61//61 62//62 63//63
f 64//64 65//65 66//66
f 67//67 68//68 69//69
f 70//70 71//71 72//72
f 73//73 74//74 75//75
f 76//76 77//77 78//78
f 79//79 80//80 81//81
f 82//82 83//83 84//84
f 85//85 86//86 87//87
f 88//88 89//89 90//90
f 91//91 92//92 93//93
f 94//94 95//95 96//96
f 97//97 98//98 99//99
f 100//100 101//101 102//102
f 103//103 104//104 105//105
f 106//106 107//107 108//108
f 109//109 110//110 111//111
f 112//112 113//113 114//114
f 115//115 116//116 117//117
f 118//118 119//119 120//120
f 121//121 122//122 123//123
f 124//124 125//125 126//126
f 127//127 128//128 129//129
f 130//130 131//131 132//132
f 133//133 134//134 135//135
f 136//136 137//137 138//138
f 139//139 140//140 141//141
f 142//142 143//143 144//144
f 145//145 146//146 147//147
f 148//148 149//149 150//150
f 151//151 152//152 153//153
f 154//154 155//155 156//156
f 157//157 158//158 159//159
f 160//160 161//161 162//162
f 163//163 164//164 165//165
f 166//166 167//167 168//168
