# Exported from SharpOpenGl procedural mesh
o aetherian_interceptor_mk3_36
# vertices 138
v 0.6152765 0.12022339 0.17648186
v 0.49776918 0.1626227 0.27502862
v 0 0.40875953 0.44120467
v 0.6152765 0.12022339 0.17648186
v 0 0.024044678 0
v 0.49776918 0.1626227 0.27502862
v 0.49776918 0.1626227 0.27502862
v 0.19013089 0.18882693 0.33593386
v 0 0.40875953 0.44120467
v 0.49776918 0.1626227 0.27502862
v 0 0.024044678 0
v 0.19013089 0.18882693 0.33593386
v 0.19013089 0.18882693 0.33593386
v -0.19013092 0.18882693 0.33593386
v 0 0.40875953 0.44120467
v 0.19013089 0.18882693 0.33593386
v 0 0.024044678 0
v -0.19013092 0.18882693 0.33593386
v -0.19013092 0.18882693 0.33593386
v -0.4977692 0.1626227 0.2750286
v 0 0.40875953 0.44120467
v -0.19013092 0.18882693 0.33593386
v 0 0.024044678 0
v -0.4977692 0.1626227 0.2750286
v -0.4977692 0.1626227 0.2750286
v -0.6152765 0.12022338 0.17648184
v 0 0.40875953 0.44120467
v -0.4977692 0.1626227 0.2750286
v 0 0.024044678 0
v -0.6152765 0.12022338 0.17648184
v -0.6152765 0.12022338 0.17648184
v -0.49776912 0.077824056 0.077935085
v 0 0.40875953 0.44120467
v -0.6152765 0.12022338 0.17648184
v 0 0.024044678 0
v -0.49776912 0.077824056 0.077935085
v -0.49776912 0.077824056 0.077935085
v -0.19013068 0.051619835 0.017029837
v 0 0.40875953 0.44120467
v -0.49776912 0.077824056 0.077935085
v 0 0.024044678 0
v -0.19013068 0.051619835 0.017029837
v -0.19013068 0.051619835 0.017029837
v 0.19013098 0.051619843 0.017029852
v 0 0.40875953 0.44120467
v -0.19013068 0.051619835 0.017029837
v 0 0.024044678 0
v 0.19013098 0.051619843 0.017029852
v 0.19013098 0.051619843 0.017029852
v 0.49776912 0.07782406 0.07793509
v 0 0.40875953 0.44120467
v 0.19013098 0.051619843 0.017029852
v 0 0.024044678 0
v 0.49776912 0.07782406 0.07793509
v 0.49776912 0.07782406 0.07793509
v 0.6152765 0.1202234 0.17648189
v 0 0.40875953 0.44120467
v 0.49776912 0.07782406 0.07793509
v 0 0.024044678 0
v 0.6152765 0.1202234 0.17648189
v -0.5566788 0.30296296 -0.2647228
v -0.2929888 0.16831274 -0.2647228
v -0.4248338 0.16831274 -0.1505417
v -0.5566788 0.30296296 -0.2647228
v -0.4248338 0.16831274 -0.1505417
v -0.68852377 0.16831274 -0.1505417
v -0.5566788 0.30296296 -0.2647228
v -0.68852377 0.16831274 -0.1505417
v -0.82036877 0.16831274 -0.2647228
v -0.5566788 0.30296296 -0.2647228
v -0.82036877 0.16831274 -0.2647228
v -0.6885237 0.16831274 -0.3789039
v -0.5566788 0.30296296 -0.2647228
v -0.6885237 0.16831274 -0.3789039
v -0.42483371 0.16831274 -0.37890387
v -0.5566788 0.30296296 -0.2647228
v -0.42483371 0.16831274 -0.37890387
v -0.2929888 0.16831274 -0.26472276
v 0 0.30296296 0.13236141
v 0.26368997 0.16831274 0.13236141
v 0.13184497 0.16831274 0.24654251
v 0 0.30296296 0.13236141
v 0.13184497 0.16831274 0.24654251
v -0.131845 0.16831274 0.24654251
v 0 0.30296296 0.13236141
v -0.131845 0.16831274 0.24654251
v -0.26368997 0.16831274 0.1323614
v 0 0.30296296 0.13236141
v -0.26368997 0.16831274 0.1323614
v -0.13184495 0.16831274 0.018180303
v 0 0.30296296 0.13236141
v -0.13184495 0.16831274 0.018180303
v 0.13184507 0.16831274 0.018180333
v 0 0.30296296 0.13236141
v 0.13184507 0.16831274 0.018180333
v 0.26368997 0.16831274 0.13236144
v 0.5566788 0.30296296 0.52944565
v 0.82036877 0.16831274 0.52944565
v 0.68852377 0.16831274 0.64362675
v 0.5566788 0.30296296 0.52944565
v 0.68852377 0.16831274 0.64362675
v 0.42483377 0.16831274 0.64362675
v 0.5566788 0.30296296 0.52944565
v 0.42483377 0.16831274 0.64362675
v 0.2929888 0.16831274 0.52944565
v 0.5566788 0.30296296 0.52944565
v 0.2929888 0.16831274 0.52944565
v 0.42483383 0.16831274 0.41526455
v 0.5566788 0.30296296 0.52944565
v 0.42483383 0.16831274 0.41526455
v 0.6885238 0.16831274 0.41526458
v 0.5566788 0.30296296 0.52944565
v 0.6885238 0.16831274 0.41526458
v 0.82036877 0.16831274 0.52944565
v 0 0.26449147 1.2133127
v -0.3222877 0.09617871 0.77210814
v 0.3222877 0.09617871 0.77210814
v 0 0.26449147 1.2133127
v 0 0.16831274 1.5883368
v -0.17579329 0.12022339 0.9265297
v -0.48831475 0.028497394 -1.5542436
v -0.6389947 0 -1.8857394
v -0.3376348 0 -1.8857394
v -0.48831475 0.11755176 -1.4789035
v -0.5787227 0.028497394 -1.5542436
v -0.39790678 0.028497394 -1.5542436
v 0 0.028497394 -1.5542436
v -0.15067996 0 -1.8857394
v 0.15067996 0 -1.8857394
v 0 0.11755176 -1.4789035
v -0.09040798 0.028497394 -1.5542436
v 0.09040798 0.028497394 -1.5542436
v 0.48831475 0.028497394 -1.5542436
v 0.3376348 0 -1.8857394
v 0.6389947 0 -1.8857394
v 0.48831475 0.11755176 -1.4789035
v 0.39790678 0.028497394 -1.5542436
v 0.5787227 0.028497394 -1.5542436
vn -0.49089372 -0.8421988 -0.22299013
vn -0.49089372 -0.8421988 -0.22299013
vn -0.49089372 -0.8421988 -0.22299013
vn -0.022276824 0.9084422 -0.41741627
vn -0.022276824 0.9084422 -0.41741627
vn -0.022276824 0.9084422 -0.41741627
vn -0.15901157 0.31103182 -0.937003
vn -0.15901157 0.31103182 -0.937003
vn -0.15901157 0.31103182 -0.937003
vn -0.009656548 0.8999141 -0.4359604
vn -0.009656548 0.8999141 -0.4359604
vn -0.009656548 0.8999141 -0.4359604
vn 0 0.43174136 -0.9019975
vn 0 0.43174136 -0.9019975
vn 0 0.43174136 -0.9019975
vn 0 0.89780575 -0.44039163
vn 0 0.89780575 -0.44039163
vn 0 0.89780575 -0.44039163
vn 0.15901168 0.31103176 -0.937003
vn 0.15901168 0.31103176 -0.937003
vn 0.15901168 0.31103176 -0.937003
vn 0.009656579 0.899914 -0.43596035
vn 0.009656579 0.899914 -0.43596035
vn 0.009656579 0.899914 -0.43596035
vn 0.49089372 -0.8421989 -0.2229899
vn 0.49089372 -0.8421989 -0.2229899
vn 0.49089372 -0.8421989 -0.2229899
vn 0.022276787 0.90844226 -0.4174164
vn 0.022276787 0.90844226 -0.4174164
vn 0.022276787 0.90844226 -0.4174164
vn 0.15510643 -0.82680607 0.54067904
vn 0.15510643 -0.82680607 0.54067904
vn 0.15510643 -0.82680607 0.54067904
vn 0.046846654 0.9366468 -0.34712824
vn 0.046846654 0.9366468 -0.34712824
vn 0.046846654 0.9366468 -0.34712824
vn 0.05812325 -0.7763553 0.6276098
vn 0.05812325 -0.7763553 0.6276098
vn 0.05812325 -0.7763553 0.6276098
vn 0.16784334 0.8630119 0.47648627
vn 0.16784334 0.8630119 0.47648627
vn 0.16784334 0.8630119 0.47648627
vn -1.025082E-08 -0.76496464 0.64407223
vn -1.025082E-08 -0.76496464 0.64407223
vn -1.025082E-08 -0.76496464 0.64407223
vn -2.3045573E-08 -0.52545106 0.8508238
vn -2.3045573E-08 -0.52545106 0.8508238
vn -2.3045573E-08 -0.52545106 0.8508238
vn -0.058123287 -0.7763553 0.62760985
vn -0.058123287 -0.7763553 0.62760985
vn -0.058123287 -0.7763553 0.62760985
vn -0.16784315 0.8630132 0.47648388
vn -0.16784315 0.8630132 0.47648388
vn -0.16784315 0.8630132 0.47648388
vn -0.15510644 -0.826806 0.540679
vn -0.15510644 -0.826806 0.540679
vn -0.15510644 -0.826806 0.540679
vn -0.04684665 0.9366468 -0.3471282
vn -0.04684665 0.9366468 -0.3471282
vn -0.04684665 0.9366468 -0.3471282
vn -0.40263695 -0.78849727 -0.46492517
vn -0.40263695 -0.78849727 -0.46492517
vn -0.40263695 -0.78849727 -0.46492517
vn 0 -0.6467549 -0.7626979
vn 0 -0.6467549 -0.7626979
vn 0 -0.6467549 -0.7626979
vn 0.40263695 -0.7884973 -0.46492517
vn 0.40263695 -0.7884973 -0.46492517
vn 0.40263695 -0.7884973 -0.46492517
vn 0.40263692 -0.7884973 0.46492532
vn 0.40263692 -0.7884973 0.46492532
vn 0.40263692 -0.7884973 0.46492532
vn -8.0022474E-08 -0.64675486 0.7626979
vn -8.0022474E-08 -0.64675486 0.7626979
vn -8.0022474E-08 -0.64675486 0.7626979
vn -0.40263706 -0.7884974 0.46492496
vn -0.40263706 -0.7884974 0.46492496
vn -0.40263706 -0.7884974 0.46492496
vn -0.40263695 -0.78849727 -0.46492517
vn -0.40263695 -0.78849727 -0.46492517
vn -0.40263695 -0.78849727 -0.46492517
vn 0 -0.6467549 -0.7626979
vn 0 -0.6467549 -0.7626979
vn 0 -0.6467549 -0.7626979
vn 0.402637 -0.7884973 -0.46492505
vn 0.402637 -0.7884973 -0.46492505
vn 0.402637 -0.7884973 -0.46492505
vn 0.40263692 -0.78849727 0.4649252
vn 0.40263692 -0.78849727 0.4649252
vn 0.40263692 -0.78849727 0.4649252
vn -8.002247E-08 -0.64675486 0.762698
vn -8.002247E-08 -0.64675486 0.762698
vn -8.002247E-08 -0.64675486 0.762698
vn -0.4026371 -0.78849745 0.4649249
vn -0.4026371 -0.78849745 0.4649249
vn -0.4026371 -0.78849745 0.4649249
vn -0.40263695 -0.7884973 -0.46492517
vn -0.40263695 -0.7884973 -0.46492517
vn -0.40263695 -0.7884973 -0.46492517
vn 0 -0.6467549 -0.7626979
vn 0 -0.6467549 -0.7626979
vn 0 -0.6467549 -0.7626979
vn 0.402637 -0.7884974 -0.46492514
vn 0.402637 -0.7884974 -0.46492514
vn 0.402637 -0.7884974 -0.46492514
vn 0.40263695 -0.78849727 0.46492526
vn 0.40263695 -0.78849727 0.46492526
vn 0.40263695 -0.78849727 0.46492526
vn -8.0022474E-08 -0.64675486 0.7626979
vn -8.0022474E-08 -0.64675486 0.7626979
vn -8.0022474E-08 -0.64675486 0.7626979
vn -0.40263698 -0.7884973 0.46492505
vn -0.40263698 -0.7884973 0.46492505
vn -0.40263698 -0.7884973 0.46492505
vn 0 -0.93432224 0.35642955
vn 0 -0.93432224 0.35642955
vn 0 -0.93432224 0.35642955
vn 0.7682758 -0.6200528 -0.15901883
vn 0.7682758 -0.6200528 -0.15901883
vn 0.7682758 -0.6200528 -0.15901883
vn 0 -0.99632525 0.08565015
vn 0 -0.99632525 0.08565015
vn 0 -0.99632525 0.08565015
vn 0 -0.645874 0.763444
vn 0 -0.645874 0.763444
vn 0 -0.645874 0.763444
vn 0 -0.9963253 0.08565015
vn 0 -0.9963253 0.08565015
vn 0 -0.9963253 0.08565015
vn 0 -0.645874 0.763444
vn 0 -0.645874 0.763444
vn 0 -0.645874 0.763444
vn 0 -0.99632525 0.08565015
vn 0 -0.99632525 0.08565015
vn 0 -0.99632525 0.08565015
vn 0 -0.645874 0.763444
vn 0 -0.645874 0.763444
vn 0 -0.645874 0.763444
f 1//1 2//2 3//3
f 4//4 5//5 6//6
f 7//7 8//8 9//9
f 10//10 11//11 12//12
f 13//13 14//14 15//15
f 16//16 17//17 18//18
f 19//19 20//20 21//21
f 22//22 23//23 24//24
f 25//25 26//26 27//27
f 28//28 29//29 30//30
f 31//31 32//32 33//33
f 34//34 35//35 36//36
f 37//37 38//38 39//39
f 40//40 41//41 42//42
f 43//43 44//44 45//45
f 46//46 47//47 48//48
f 49//49 50//50 51//51
f 52//52 53//53 54//54
f 55//55 56//56 57//57
f 58//58 59//59 60//60
f 61//61 62//62 63//63
f 64//64 65//65 66//66
f 67//67 68//68 69//69
f 70//70 71//71 72//72
f 73//73 74//74 75//75
f 76//76 77//77 78//78
f 79//79 80//80 81//81
f 82//82 83//83 84//84
f 85//85 86//86 87//87
f 88//88 89//89 90//90
f 91//91 92//92 93//93
f 94//94 95//95 96//96
f 97//97 98//98 99//99
f 100//100 101//101 102//102
f 103//103 104//104 105//105
f 106//106 107//107 108//108
f 109//109 110//110 111//111
f 112//112 113//113 114//114
f 115//115 116//116 117//117
f 118//118 119//119 120//120
f 121//121 122//122 123//123
f 124//124 125//125 126//126
f 127//127 128//128 129//129
f 130//130 131//131 132//132
f 133//133 134//134 135//135
f 136//136 137//137 138//138
