# Exported from SharpOpenGl procedural mesh
o aetherian_bomber_mk1_07
# vertices 138
v 1.7306048 0.22821987 0.17944993
v 1.4000887 0.30870643 0.27965406
v 0 0.7759476 0.44862485
v 1.7306048 0.22821987 0.17944993
v 0 0.045643974 0
v 1.4000887 0.30870643 0.27965406
v 1.4000887 0.30870643 0.27965406
v 0.5347862 0.35844988 0.3415836
v 0 0.7759476 0.44862485
v 1.4000887 0.30870643 0.27965406
v 0 0.045643974 0
v 0.5347862 0.35844988 0.3415836
v 0.5347862 0.35844988 0.3415836
v -0.53478634 0.35844988 0.3415836
v 0 0.7759476 0.44862485
v 0.5347862 0.35844988 0.3415836
v 0 0.045643974 0
v -0.53478634 0.35844988 0.3415836
v -0.53478634 0.35844988 0.3415836
v -1.4000888 0.30870643 0.27965403
v 0 0.7759476 0.44862485
v -0.53478634 0.35844988 0.3415836
v 0 0.045643974 0
v -1.4000888 0.30870643 0.27965403
v -1.4000888 0.30870643 0.27965403
v -1.7306048 0.22821985 0.17944992
v 0 0.7759476 0.44862485
v -1.4000888 0.30870643 0.27965403
v 0 0.045643974 0
v -1.7306048 0.22821985 0.17944992
v -1.7306048 0.22821985 0.17944992
v -1.4000885 0.14773329 0.07924578
v 0 0.7759476 0.44862485
v -1.7306048 0.22821985 0.17944992
v 0 0.045643974 0
v -1.4000885 0.14773329 0.07924578
v -1.4000885 0.14773329 0.07924578
v -0.5347857 0.09798986 0.017316237
v 0 0.7759476 0.44862485
v -1.4000885 0.14773329 0.07924578
v 0 0.045643974 0
v -0.5347857 0.09798986 0.017316237
v -0.5347857 0.09798986 0.017316237
v 0.5347865 0.09798987 0.017316252
v 0 0.7759476 0.44862485
v -0.5347857 0.09798986 0.017316237
v 0 0.045643974 0
v 0.5347865 0.09798987 0.017316252
v 0.5347865 0.09798987 0.017316252
v 1.4000885 0.1477333 0.0792458
v 0 0.7759476 0.44862485
v 0.5347865 0.09798987 0.017316252
v 0 0.045643974 0
v 1.4000885 0.1477333 0.0792458
v 1.4000885 0.1477333 0.0792458
v 1.7306048 0.2282199 0.17944996
v 0 0.7759476 0.44862485
v 1.4000885 0.1477333 0.0792458
v 0 0.045643974 0
v 1.7306048 0.2282199 0.17944996
v -1.5657853 0.5751141 -0.2691749
v -0.82409745 0.3195078 -0.2691749
v -1.1949414 0.3195078 0.051985353
v -1.5657853 0.5751141 -0.2691749
v -1.1949414 0.3195078 0.051985353
v -1.9366293 0.3195078 0.051985353
v -1.5657853 0.5751141 -0.2691749
v -1.9366293 0.3195078 0.051985353
v -2.3074732 0.3195078 -0.26917493
v -1.5657853 0.5751141 -0.2691749
v -2.3074732 0.3195078 -0.26917493
v -1.9366292 0.3195078 -0.59033513
v -1.5657853 0.5751141 -0.2691749
v -1.9366292 0.3195078 -0.59033513
v -1.194941 0.3195078 -0.5903351
v -1.5657853 0.5751141 -0.2691749
v -1.194941 0.3195078 -0.5903351
v -0.82409745 0.3195078 -0.26917484
v 0 0.5751141 0.13458747
v 0.74168783 0.3195078 0.13458747
v 0.3708439 0.3195078 0.45574772
v 0 0.5751141 0.13458747
v 0.3708439 0.3195078 0.45574772
v -0.37084395 0.3195078 0.45574772
v 0 0.5751141 0.13458747
v -0.37084395 0.3195078 0.45574772
v -0.74168783 0.3195078 0.13458744
v 0 0.5751141 0.13458747
v -0.74168783 0.3195078 0.13458744
v -0.37084386 0.3195078 -0.18657279
v 0 0.5751141 0.13458747
v -0.37084386 0.3195078 -0.18657279
v 0.3708442 0.3195078 -0.1865727
v 0 0.5751141 0.13458747
v 0.3708442 0.3195078 -0.1865727
v 0.74168783 0.3195078 0.13458753
v 1.5657853 0.5751141 0.53834987
v 2.3074732 0.3195078 0.53834987
v 1.9366292 0.3195078 0.8595101
v 1.5657853 0.5751141 0.53834987
v 1.9366292 0.3195078 0.8595101
v 1.1949413 0.3195078 0.8595101
v 1.5657853 0.5751141 0.53834987
v 1.1949413 0.3195078 0.8595101
v 0.82409745 0.3195078 0.5383498
v 1.5657853 0.5751141 0.53834987
v 0.82409745 0.3195078 0.5383498
v 1.1949414 0.3195078 0.21718961
v 1.5657853 0.5751141 0.53834987
v 1.1949414 0.3195078 0.21718961
v 1.9366295 0.3195078 0.2171897
v 1.5657853 0.5751141 0.53834987
v 1.9366295 0.3195078 0.2171897
v 2.3074732 0.3195078 0.5383499
v 0 0.5020837 1.2337184
v -0.9065073 0.1825759 0.7850935
v 0.9065073 0.1825759 0.7850935
v 0 0.5020837 1.2337184
v 0 0.3195078 1.6150495
v -0.49445853 0.22821987 0.94211215
v -1.3734958 0.05409656 -1.580383
v -1.9385912 0 -2.8235931
v -0.80840033 0 -2.8235931
v -1.3734958 0.22314832 -1.2978352
v -1.7125531 0.05409656 -1.580383
v -1.0344385 0.05409656 -1.580383
v 0 0.05409656 -1.580383
v -0.5650955 0 -2.8235931
v 0.5650955 0 -2.8235931
v 0 0.22314832 -1.2978352
v -0.3390573 0.05409656 -1.580383
v 0.3390573 0.05409656 -1.580383
v 1.3734958 0.05409656 -1.580383
v 0.80840033 0 -2.8235931
v 1.9385912 0 -2.8235931
v 1.3734958 0.22314832 -1.2978352
v 1.0344385 0.05409656 -1.580383
v 1.7125531 0.05409656 -1.580383
vn -0.33257413 -0.84543186 -0.4178989
vn -0.33257413 -0.84543186 -0.4178989
vn -0.33257413 -0.84543186 -0.4178989
vn -0.012560383 0.7589448 -0.65103376
vn -0.012560383 0.7589448 -0.65103376
vn -0.012560383 0.7589448 -0.65103376
vn -0.06029121 0.1747403 -0.9827669
vn -0.06029121 0.1747403 -0.9827669
vn -0.06029121 0.1747403 -0.9827669
vn -0.0053710453 0.74165344 -0.6707617
vn -0.0053710453 0.74165344 -0.6707617
vn -0.0053710453 0.74165344 -0.6707617
vn 0 0.24835478 -0.9686692
vn 0 0.24835478 -0.9686692
vn 0 0.24835478 -0.9686692
vn 0 0.73749006 -0.675358
vn 0 0.73749006 -0.675358
vn 0 0.73749006 -0.675358
vn 0.06029125 0.17474025 -0.9827669
vn 0.06029125 0.17474025 -0.9827669
vn 0.06029125 0.17474025 -0.9827669
vn 0.005371064 0.7416535 -0.67076164
vn 0.005371064 0.7416535 -0.67076164
vn 0.005371064 0.7416535 -0.67076164
vn 0.3325741 -0.8454322 -0.41789806
vn 0.3325741 -0.8454322 -0.41789806
vn 0.3325741 -0.8454322 -0.41789806
vn 0.012560363 0.75894475 -0.6510338
vn 0.012560363 0.75894475 -0.6510338
vn 0.012560363 0.75894475 -0.6510338
vn 0.079970896 -0.6316388 0.77112716
vn 0.079970896 -0.6316388 0.77112716
vn 0.079970896 -0.6316388 0.77112716
vn 0.027747987 0.8220374 -0.56875706
vn 0.027747987 0.8220374 -0.56875706
vn 0.027747987 0.8220374 -0.56875706
vn 0.027897868 -0.5521344 0.8332882
vn 0.027897868 -0.5521344 0.8332882
vn 0.027897868 -0.5521344 0.8332882
vn 0.09101772 0.6934283 0.7147538
vn 0.09101772 0.6934283 0.7147538
vn 0.09101772 0.6934283 0.7147538
vn -4.2765116E-09 -0.5367701 0.84372854
vn -4.2765116E-09 -0.5367701 0.84372854
vn -4.2765116E-09 -0.5367701 0.84372854
vn -8.851419E-09 -0.31406596 0.94940114
vn -8.851419E-09 -0.31406596 0.94940114
vn -8.851419E-09 -0.31406596 0.94940114
vn -0.027897893 -0.55213445 0.83328825
vn -0.027897893 -0.55213445 0.83328825
vn -0.027897893 -0.55213445 0.83328825
vn -0.09101776 0.6934308 0.7147514
vn -0.09101776 0.6934308 0.7147514
vn -0.09101776 0.6934308 0.7147514
vn -0.0799709 -0.63163894 0.77112705
vn -0.0799709 -0.63163894 0.77112705
vn -0.0799709 -0.63163894 0.77112705
vn -0.027747978 0.8220372 -0.5687571
vn -0.027747978 0.8220372 -0.5687571
vn -0.027747978 0.8220372 -0.5687571
vn -0.3049534 -0.88487744 -0.35212988
vn -0.3049534 -0.88487744 -0.35212988
vn -0.3049534 -0.88487744 -0.35212988
vn 0 -0.7824374 -0.6227293
vn 0 -0.7824374 -0.6227293
vn 0 -0.7824374 -0.6227293
vn 0.30495337 -0.88487744 -0.35212976
vn 0.30495337 -0.88487744 -0.35212976
vn 0.30495337 -0.88487744 -0.35212976
vn 0.30495334 -0.8848774 0.35212994
vn 0.30495334 -0.8848774 0.35212994
vn 0.30495334 -0.8848774 0.35212994
vn -4.894706E-08 -0.7824373 0.62272936
vn -4.894706E-08 -0.7824373 0.62272936
vn -4.894706E-08 -0.7824373 0.62272936
vn -0.30495343 -0.88487744 0.3521296
vn -0.30495343 -0.88487744 0.3521296
vn -0.30495343 -0.88487744 0.3521296
vn -0.3049534 -0.88487744 -0.35212988
vn -0.3049534 -0.88487744 -0.35212988
vn -0.3049534 -0.88487744 -0.35212988
vn 0 -0.7824374 -0.62272924
vn 0 -0.7824374 -0.62272924
vn 0 -0.7824374 -0.62272924
vn 0.30495337 -0.8848774 -0.35212976
vn 0.30495337 -0.8848774 -0.35212976
vn 0.30495337 -0.8848774 -0.35212976
vn 0.30495337 -0.8848774 0.3521299
vn 0.30495337 -0.8848774 0.3521299
vn 0.30495337 -0.8848774 0.3521299
vn -7.3420594E-08 -0.7824373 0.6227293
vn -7.3420594E-08 -0.7824373 0.6227293
vn -7.3420594E-08 -0.7824373 0.6227293
vn -0.30495343 -0.88487744 0.35212967
vn -0.30495343 -0.88487744 0.35212967
vn -0.30495343 -0.88487744 0.35212967
vn -0.30495334 -0.8848774 -0.35212985
vn -0.30495334 -0.8848774 -0.35212985
vn -0.30495334 -0.8848774 -0.35212985
vn 0 -0.7824374 -0.6227293
vn 0 -0.7824374 -0.6227293
vn 0 -0.7824374 -0.6227293
vn 0.3049534 -0.8848774 -0.35212973
vn 0.3049534 -0.8848774 -0.35212973
vn 0.3049534 -0.8848774 -0.35212973
vn 0.30495334 -0.8848774 0.35212988
vn 0.30495334 -0.8848774 0.35212988
vn 0.30495334 -0.8848774 0.35212988
vn -7.3420594E-08 -0.7824374 0.62272936
vn -7.3420594E-08 -0.7824374 0.62272936
vn -7.3420594E-08 -0.7824374 0.62272936
vn -0.3049534 -0.88487744 0.35212964
vn -0.3049534 -0.88487744 0.35212964
vn -0.3049534 -0.88487744 0.35212964
vn 0 -0.81453854 0.58010924
vn 0 -0.81453854 0.58010924
vn 0 -0.81453854 0.58010924
vn 0.6021628 -0.7200928 -0.34477022
vn 0.6021628 -0.7200928 -0.34477022
vn 0.6021628 -0.7200928 -0.34477022
vn 0 -0.9990546 0.043472473
vn 0 -0.9990546 0.043472473
vn 0 -0.9990546 0.043472473
vn 0 -0.85813123 0.5134304
vn 0 -0.85813123 0.5134304
vn 0 -0.85813123 0.5134304
vn 0 -0.9990546 0.043472473
vn 0 -0.9990546 0.043472473
vn 0 -0.9990546 0.043472473
vn 0 -0.85813123 0.5134304
vn 0 -0.85813123 0.5134304
vn 0 -0.85813123 0.5134304
vn 0 -0.9990546 0.043472473
vn 0 -0.9990546 0.043472473
vn 0 -0.9990546 0.043472473
vn 0 -0.85813123 0.5134304
vn 0 -0.85813123 0.5134304
vn 0 -0.85813123 0.5134304
f 1//1 2//2 3//3
f 4//4 5//5 6//6
f 7//7 8//8 9//9
f 10//10 11//11 12//12
f 13//13 14//14 15//15
f 16//16 17//17 18//18
f 19//19 20//20 21//21
f 22//22 23//23 24//24
f 25//25 26//26 27//27
f 28//28 29//29 30//30
f 31//31 32//32 33//33
f 34//34 35//35 36//36
f 37//37 38//38 39//39
f 40//40 41//41 42//42
f 43//43 44//44 45//45
f 46//46 47//47 48//48
f 49//49 50//50 51//51
f 52//52 53//53 54//54
f 55//55 56//56 57//57
f 58//58 59//59 60//60
f 61//61 62//62 63//63
f 64//64 65//65 66//66
f 67//67 68//68 69//69
f 70//70 71//71 72//72
f 73//73 74//74 75//75
f 76//76 77//77 78//78
f 79//79 80//80 81//81
f 82//82 83//83 84//84
f 85//85 86//86 87//87
f 88//88 89//89 90//90
f 91//91 92//92 93//93
f 94//94 95//95 96//96
f 97//97 98//98 99//99
f 100//100 101//101 102//102
f 103//103 104//104 105//105
f 106//106 107//107 108//108
f 109//109 110//110 111//111
f 112//112 113//113 114//114
f 115//115 116//116 117//117
f 118//118 119//119 120//120
f 121//121 122//122 123//123
f 124//124 125//125 126//126
f 127//127 128//128 129//129
f 130//130 131//131 132//132
f 133//133 134//134 135//135
f 136//136 137//137 138//138
