# Exported from SharpOpenGl procedural mesh
o aetherian_bomber_prototype_55
# vertices 144
v 1.8850071 0.28229445 0.18635637
v 1.5250028 0.38185155 0.29041702
v 0 0.95980114 0.4658909
v 1.8850071 0.28229445 0.18635637
v 0 0.05645889 0
v 1.5250028 0.38185155 0.29041702
v 1.5250028 0.38185155 0.29041702
v 0.5824992 0.44338125 0.35473004
v 0 0.95980114 0.4658909
v 1.5250028 0.38185155 0.29041702
v 0 0.05645889 0
v 0.5824992 0.44338125 0.35473004
v 0.5824992 0.44338125 0.35473004
v -0.5824993 0.44338125 0.35473
v 0 0.95980114 0.4658909
v 0.5824992 0.44338125 0.35473004
v 0 0.05645889 0
v -0.5824993 0.44338125 0.35473
v -0.5824993 0.44338125 0.35473
v -1.525003 0.38185155 0.29041702
v 0 0.95980114 0.4658909
v -0.5824993 0.44338125 0.35473
v 0 0.05645889 0
v -1.525003 0.38185155 0.29041702
v -1.525003 0.38185155 0.29041702
v -1.8850071 0.28229445 0.18635635
v 0 0.95980114 0.4658909
v -1.525003 0.38185155 0.29041702
v 0 0.05645889 0
v -1.8850071 0.28229445 0.18635635
v -1.8850071 0.28229445 0.18635635
v -1.5250027 0.18273732 0.08229569
v 0 0.95980114 0.4658909
v -1.8850071 0.28229445 0.18635635
v 0 0.05645889 0
v -1.5250027 0.18273732 0.08229569
v -1.5250027 0.18273732 0.08229569
v -0.5824986 0.12120764 0.017982677
v 0 0.95980114 0.4658909
v -1.5250027 0.18273732 0.08229569
v 0 0.05645889 0
v -0.5824986 0.12120764 0.017982677
v -0.5824986 0.12120764 0.017982677
v 0.5824995 0.121207654 0.017982706
v 0 0.95980114 0.4658909
v -0.5824986 0.12120764 0.017982677
v 0 0.05645889 0
v 0.5824995 0.121207654 0.017982706
v 0.5824995 0.121207654 0.017982706
v 1.5250027 0.18273732 0.0822957
v 0 0.95980114 0.4658909
v 0.5824995 0.121207654 0.017982706
v 0 0.05645889 0
v 1.5250027 0.18273732 0.0822957
v 1.5250027 0.18273732 0.0822957
v 1.8850071 0.28229448 0.1863564
v 0 0.95980114 0.4658909
v 1.5250027 0.18273732 0.0822957
v 0 0.05645889 0
v 1.8850071 0.28229448 0.1863564
v -1.7054827 0.71138203 -0.27953455
v -0.89762247 0.39521223 -0.27953455
v -1.3015527 0.39521223 0.07027921
v -1.7054827 0.71138203 -0.27953455
v -1.3015527 0.39521223 0.07027921
v -2.109413 0.39521223 0.07027921
v -1.7054827 0.71138203 -0.27953455
v -2.109413 0.39521223 0.07027921
v -2.5133429 0.39521223 -0.27953458
v -1.7054827 0.71138203 -0.27953455
v -2.5133429 0.39521223 -0.27953458
v -2.1094127 0.39521223 -0.6293483
v -1.7054827 0.71138203 -0.27953455
v -2.1094127 0.39521223 -0.6293483
v -1.3015523 0.39521223 -0.6293482
v -1.7054827 0.71138203 -0.27953455
v -1.3015523 0.39521223 -0.6293482
v -0.89762247 0.39521223 -0.2795345
v 0 0.71138203 0.13976732
v 0.80786026 0.39521223 0.13976732
v 0.4039301 0.39521223 0.48958108
v 0 0.71138203 0.13976732
v 0.4039301 0.39521223 0.48958108
v -0.4039302 0.39521223 0.48958108
v 0 0.71138203 0.13976732
v -0.4039302 0.39521223 0.48958108
v -0.80786026 0.39521223 0.13976729
v 0 0.71138203 0.13976732
v -0.80786026 0.39521223 0.13976729
v -0.40393007 0.39521223 -0.21004644
v 0 0.71138203 0.13976732
v -0.40393007 0.39521223 -0.21004644
v 0.40393043 0.39521223 -0.21004635
v 0 0.71138203 0.13976732
v 0.40393043 0.39521223 -0.21004635
v 0.80786026 0.39521223 0.1397674
v 1.7054827 0.71138203 0.55906916
v 2.5133429 0.39521223 0.55906916
v 2.109413 0.39521223 0.9088829
v 1.7054827 0.71138203 0.55906916
v 2.109413 0.39521223 0.9088829
v 1.3015525 0.39521223 0.9088829
v 1.7054827 0.71138203 0.55906916
v 1.3015525 0.39521223 0.9088829
v 0.89762247 0.39521223 0.5590691
v 1.7054827 0.71138203 0.55906916
v 0.89762247 0.39521223 0.5590691
v 1.3015527 0.39521223 0.2092554
v 1.7054827 0.71138203 0.55906916
v 1.3015527 0.39521223 0.2092554
v 2.1094131 0.39521223 0.20925549
v 1.7054827 0.71138203 0.55906916
v 2.1094131 0.39521223 0.20925549
v 2.5133429 0.39521223 0.5590692
v 0 0.6210478 1.2812
v -0.98738474 0.22583556 0.8153091
v 0.98738474 0.22583556 0.8153091
v 0 0.6210478 1.2812
v 0 0.39521223 1.6772075
v -0.5385735 0.28229445 0.9783709
v -1.795245 0.06691424 -1.6412067
v -2.4107575 0 -2.9953346
v -1.1797324 0 -2.9953346
v -1.795245 0.27602124 -1.3334504
v -2.1645527 0.06691424 -1.6412067
v -1.4259374 0.06691424 -1.6412067
v -0.598415 0.06691424 -1.6412067
v -1.2139276 0 -2.9953346
v 0.017097592 0 -2.9953346
v -0.598415 0.27602124 -1.3334504
v -0.9677226 0.06691424 -1.6412067
v -0.22910744 0.06691424 -1.6412067
v 0.598415 0.06691424 -1.6412067
v -0.017097592 0 -2.9953346
v 1.2139276 0 -2.9953346
v 0.598415 0.27602124 -1.3334504
v 0.22910744 0.06691424 -1.6412067
v 0.9677226 0.06691424 -1.6412067
v 1.795245 0.06691424 -1.6412067
v 1.1797324 0 -2.9953346
v 2.4107575 0 -2.9953346
v 1.795245 0.27602124 -1.3334504
v 1.4259374 0.06691424 -1.6412067
v 2.1645527 0.06691424 -1.6412067
vn -0.35926065 -0.8042036 -0.47348523
vn -0.35926065 -0.8042036 -0.47348523
vn -0.35926065 -0.8042036 -0.47348523
vn -0.013144776 0.69940156 -0.714608
vn -0.013144776 0.69940156 -0.714608
vn -0.013144776 0.69940156 -0.714608
vn -0.057753485 0.14739516 -0.9873901
vn -0.057753485 0.14739516 -0.9873901
vn -0.057753485 0.14739516 -0.9873901
vn -0.0055951467 0.6803306 -0.732884
vn -0.0055951467 0.6803306 -0.732884
vn -0.0055951467 0.6803306 -0.732884
vn 2.5008612E-08 0.21043302 -0.97760826
vn 2.5008612E-08 0.21043302 -0.97760826
vn 2.5008612E-08 0.21043302 -0.97760826
vn 1.885621E-08 0.6757776 -0.73710555
vn 1.885621E-08 0.6757776 -0.73710555
vn 1.885621E-08 0.6757776 -0.73710555
vn 0.057753444 0.14739524 -0.9873901
vn 0.057753444 0.14739524 -0.9873901
vn 0.057753444 0.14739524 -0.9873901
vn 0.005595134 0.6803306 -0.73288405
vn 0.005595134 0.6803306 -0.73288405
vn 0.005595134 0.6803306 -0.73288405
vn 0.35926062 -0.80420405 -0.47348455
vn 0.35926062 -0.80420405 -0.47348455
vn 0.35926062 -0.80420405 -0.47348455
vn 0.013144789 0.6994017 -0.7146081
vn 0.013144789 0.6994017 -0.7146081
vn 0.013144789 0.6994017 -0.7146081
vn 0.081201725 -0.5647659 0.8212465
vn 0.081201725 -0.5647659 0.8212465
vn 0.081201725 -0.5647659 0.8212465
vn 0.029569129 0.77137417 -0.6356945
vn 0.029569129 0.77137417 -0.6356945
vn 0.029569129 0.77137417 -0.6356945
vn 0.02788347 -0.4859446 0.87354475
vn 0.02788347 -0.4859446 0.87354475
vn 0.02788347 -0.4859446 0.87354475
vn 0.09372113 0.62875235 0.77193713
vn 0.09372113 0.62875235 0.77193713
vn 0.09372113 0.62875235 0.77193713
vn -1.653844E-08 -0.47112727 0.88206524
vn -1.653844E-08 -0.47112727 0.88206524
vn -1.653844E-08 -0.47112727 0.88206524
vn -2.122566E-08 -0.26760137 0.96352965
vn -2.122566E-08 -0.26760137 0.96352965
vn -2.122566E-08 -0.26760137 0.96352965
vn -0.027883476 -0.48594457 0.8735447
vn -0.027883476 -0.48594457 0.8735447
vn -0.027883476 -0.48594457 0.8735447
vn -0.09372119 0.6287542 0.7719356
vn -0.09372119 0.6287542 0.7719356
vn -0.09372119 0.6287542 0.7719356
vn -0.08120176 -0.5647658 0.82124645
vn -0.08120176 -0.5647658 0.82124645
vn -0.08120176 -0.5647658 0.82124645
vn -0.029569134 0.7713742 -0.6356945
vn -0.029569134 0.7713742 -0.6356945
vn -0.029569134 0.7713742 -0.6356945
vn -0.33591658 -0.8583162 -0.3878831
vn -0.33591658 -0.8583162 -0.3878831
vn -0.33591658 -0.8583162 -0.3878831
vn 0 -0.74188215 -0.67053026
vn 0 -0.74188215 -0.67053026
vn 0 -0.74188215 -0.67053026
vn 0.3359167 -0.85831624 -0.387883
vn 0.3359167 -0.85831624 -0.387883
vn 0.3359167 -0.85831624 -0.387883
vn 0.33591658 -0.8583162 0.3878832
vn 0.33591658 -0.8583162 0.3878832
vn 0.33591658 -0.8583162 0.3878832
vn -5.8677703E-08 -0.7418821 0.6705303
vn -5.8677703E-08 -0.7418821 0.6705303
vn -5.8677703E-08 -0.7418821 0.6705303
vn -0.33591667 -0.8583163 0.3878829
vn -0.33591667 -0.8583163 0.3878829
vn -0.33591667 -0.8583163 0.3878829
vn -0.33591658 -0.8583162 -0.3878831
vn -0.33591658 -0.8583162 -0.3878831
vn -0.33591658 -0.8583162 -0.3878831
vn 0 -0.74188215 -0.67053026
vn 0 -0.74188215 -0.67053026
vn 0 -0.74188215 -0.67053026
vn 0.33591664 -0.8583163 -0.38788304
vn 0.33591664 -0.8583163 -0.38788304
vn 0.33591664 -0.8583163 -0.38788304
vn 0.33591658 -0.8583163 0.38788313
vn 0.33591658 -0.8583163 0.38788313
vn 0.33591658 -0.8583163 0.38788313
vn -7.823692E-08 -0.7418821 0.6705303
vn -7.823692E-08 -0.7418821 0.6705303
vn -7.823692E-08 -0.7418821 0.6705303
vn -0.33591667 -0.8583163 0.3878829
vn -0.33591667 -0.8583163 0.3878829
vn -0.33591667 -0.8583163 0.3878829
vn -0.33591667 -0.85831624 -0.387883
vn -0.33591667 -0.85831624 -0.387883
vn -0.33591667 -0.85831624 -0.387883
vn 0 -0.74188215 -0.6705303
vn 0 -0.74188215 -0.6705303
vn 0 -0.74188215 -0.6705303
vn 0.3359166 -0.85831624 -0.38788298
vn 0.3359166 -0.85831624 -0.38788298
vn 0.3359166 -0.85831624 -0.38788298
vn 0.33591655 -0.8583162 0.38788313
vn 0.33591655 -0.8583162 0.38788313
vn 0.33591655 -0.8583162 0.38788313
vn -7.823692E-08 -0.7418821 0.6705303
vn -7.823692E-08 -0.7418821 0.6705303
vn -7.823692E-08 -0.7418821 0.6705303
vn -0.33591667 -0.8583162 0.3878828
vn -0.33591667 -0.8583162 0.3878828
vn -0.33591667 -0.8583162 0.3878828
vn 0 -0.7625811 0.64689255
vn 0 -0.7625811 0.64689255
vn 0 -0.7625811 0.64689255
vn 0.636349 -0.6700948 -0.38214245
vn 0.636349 -0.6700948 -0.38214245
vn 0.636349 -0.6700948 -0.38214245
vn 0 -0.99878126 0.04935478
vn 0 -0.99878126 0.04935478
vn 0 -0.99878126 0.04935478
vn 0 -0.8271355 0.56200254
vn 0 -0.8271355 0.56200254
vn 0 -0.8271355 0.56200254
vn 0 -0.9987813 0.049354784
vn 0 -0.9987813 0.049354784
vn 0 -0.9987813 0.049354784
vn 0 -0.8271355 0.5620026
vn 0 -0.8271355 0.5620026
vn 0 -0.8271355 0.5620026
vn 0 -0.9987813 0.049354784
vn 0 -0.9987813 0.049354784
vn 0 -0.9987813 0.049354784
vn 0 -0.8271355 0.5620026
vn 0 -0.8271355 0.5620026
vn 0 -0.8271355 0.5620026
vn 0 -0.99878126 0.04935478
vn 0 -0.99878126 0.04935478
vn 0 -0.99878126 0.04935478
vn 0 -0.8271355 0.56200254
vn 0 -0.8271355 0.56200254
vn 0 -0.8271355 0.56200254
f 1//1 2//2 3//3
f 4//4 5//5 6//6
f 7//7 8//8 9//9
f 10//10 11//11 12//12
f 13//13 14//14 15//15
f 16//16 17//17 18//18
f 19//19 20//20 21//21
f 22//22 23//23 24//24
f 25//25 26//26 27//27
f 28//28 29//29 30//30
f 31//31 32//32 33//33
f 34//34 35//35 36//36
f 37//37 38//38 39//39
f 40//40 41//41 42//42
f 43//43 44//44 45//45
f 46//46 47//47 48//48
f 49//49 50//50 51//51
f 52//52 53//53 54//54
f 55//55 56//56 57//57
f 58//58 59//59 60//60
f 61//61 62//62 63//63
f 64//64 65//65 66//66
f 67//67 68//68 69//69
f 70//70 71//71 72//72
f 73//73 74//74 75//75
f 76//76 77//77 78//78
f 79//79 80//80 81//81
f 82//82 83//83 84//84
f 85//85 86//86 87//87
f 88//88 89//89 90//90
f 91//91 92//92 93//93
f 94//94 95//95 96//96
f 97//97 98//98 99//99
f 100//100 101//101 102//102
f 103//103 104//104 105//105
f 106//106 107//107 108//108
f 109//109 110//110 111//111
f 112//112 113//113 114//114
f 115//115 116//116 117//117
f 118//118 119//119 120//120
f 121//121 122//122 123//123
f 124//124 125//125 126//126
f 127//127 128//128 129//129
f 130//130 131//131 132//132
f 133//133 134//134 135//135
f 136//136 137//137 138//138
f 139//139 140//140 141//141
f 142//142 143//143 144//144
