# Exported from SharpOpenGl procedural mesh
o aetherian_freighter_mk3_48
# vertices 153
v 3.801015 0.5375861 0.46927634
v 3.0750856 0.7271772 0.73131835
v 0 1.8277928 1.1731908
v 3.801015 0.5375861 0.46927634
v 0 0.10751722 0
v 3.0750856 0.7271772 0.73131835
v 3.0750856 0.7271772 0.73131835
v 1.1745781 0.84435093 0.8932693
v 0 1.8277928 1.1731908
v 3.0750856 0.7271772 0.73131835
v 0 0.10751722 0
v 1.1745781 0.84435093 0.8932693
v 1.1745781 0.84435093 0.8932693
v -1.1745783 0.84435093 0.8932692
v 0 1.8277928 1.1731908
v 1.1745781 0.84435093 0.8932693
v 0 0.10751722 0
v -1.1745783 0.84435093 0.8932692
v -1.1745783 0.84435093 0.8932692
v -3.0750859 0.7271772 0.73131835
v 0 1.8277928 1.1731908
v -1.1745783 0.84435093 0.8932692
v 0 0.10751722 0
v -3.0750859 0.7271772 0.73131835
v -3.0750859 0.7271772 0.73131835
v -3.801015 0.5375861 0.4692763
v 0 1.8277928 1.1731908
v -3.0750859 0.7271772 0.73131835
v 0 0.10751722 0
v -3.801015 0.5375861 0.4692763
v -3.801015 0.5375861 0.4692763
v -3.0750854 0.34799492 0.20723426
v 0 1.8277928 1.1731908
v -3.801015 0.5375861 0.4692763
v 0 0.10751722 0
v -3.0750854 0.34799492 0.20723426
v -3.0750854 0.34799492 0.20723426
v -1.1745769 0.23082119 0.045283407
v 0 1.8277928 1.1731908
v -3.0750854 0.34799492 0.20723426
v 0 0.10751722 0
v -1.1745769 0.23082119 0.045283407
v -1.1745769 0.23082119 0.045283407
v 1.1745787 0.23082122 0.045283467
v 0 1.8277928 1.1731908
v -1.1745769 0.23082119 0.045283407
v 0 0.10751722 0
v 1.1745787 0.23082122 0.045283467
v 1.1745787 0.23082122 0.045283467
v 3.0750854 0.34799498 0.2072343
v 0 1.8277928 1.1731908
v 1.1745787 0.23082122 0.045283467
v 0 0.10751722 0
v 3.0750854 0.34799498 0.2072343
v 3.0750854 0.34799498 0.2072343
v 3.801015 0.53758615 0.46927643
v 0 1.8277928 1.1731908
v 3.0750854 0.34799498 0.2072343
v 0 0.10751722 0
v 3.801015 0.53758615 0.46927643
v -3.4390135 1.354717 -0.7039145
v -1.810007 0.7526205 -0.7039145
v -2.6245103 0.7526205 0.0014660358
v -3.4390135 1.354717 -0.7039145
v -2.6245103 0.7526205 0.0014660358
v -4.2535167 0.7526205 0.0014659762
v -3.4390135 1.354717 -0.7039145
v -4.2535167 0.7526205 0.0014659762
v -5.06802 0.7526205 -0.7039146
v -3.4390135 1.354717 -0.7039145
v -5.06802 0.7526205 -0.7039146
v -4.2535167 0.7526205 -1.4092951
v -3.4390135 1.354717 -0.7039145
v -4.2535167 0.7526205 -1.4092951
v -2.6245096 0.7526205 -1.4092948
v -3.4390135 1.354717 -0.7039145
v -2.6245096 0.7526205 -1.4092948
v -1.810007 0.7526205 -0.7039144
v 0 1.354717 0.35195732
v 1.6290065 0.7526205 0.35195732
v 0.8145032 0.7526205 1.0573379
v 0 1.354717 0.35195732
v 0.8145032 0.7526205 1.0573379
v -0.8145034 0.7526205 1.0573378
v 0 1.354717 0.35195732
v -0.8145034 0.7526205 1.0573378
v -1.6290065 0.7526205 0.35195726
v 0 1.354717 0.35195732
v -1.6290065 0.7526205 0.35195726
v -0.81450313 0.7526205 -0.35342324
v 0 1.354717 0.35195732
v -0.81450313 0.7526205 -0.35342324
v 0.81450385 0.7526205 -0.353423
v 0 1.354717 0.35195732
v 0.81450385 0.7526205 -0.353423
v 1.6290065 0.7526205 0.35195747
v 3.4390135 1.354717 1.4078292
v 5.06802 0.7526205 1.4078292
v 4.2535167 0.7526205 2.1132097
v 3.4390135 1.354717 1.4078292
v 4.2535167 0.7526205 2.1132097
v 2.62451 0.7526205 2.1132097
v 3.4390135 1.354717 1.4078292
v 2.62451 0.7526205 2.1132097
v 1.810007 0.7526205 1.407829
v 3.4390135 1.354717 1.4078292
v 1.810007 0.7526205 1.407829
v 2.6245103 0.7526205 0.7024486
v 3.4390135 1.354717 1.4078292
v 2.6245103 0.7526205 0.7024486
v 4.253517 0.7526205 0.70244884
v 3.4390135 1.354717 1.4078292
v 4.253517 0.7526205 0.70244884
v 5.06802 0.7526205 1.4078293
v 0 1.1826894 3.226275
v -1.9910078 0.43006888 2.053084
v 1.9910078 0.43006888 2.053084
v 0 1.1826894 3.226275
v 0 0.7526205 4.2234874
v -1.0860043 0.5375861 2.4637008
v -3.6200142 0.1274278 -4.1328316
v -4.964591 0 -7.0909004
v -2.2754376 0 -7.0909004
v -3.6200142 0.5256397 -3.4605432
v -4.42676 0.1274278 -4.1328316
v -2.8132682 0.1274278 -4.1328316
v -1.2066714 0.1274278 -4.1328316
v -2.551248 0 -7.0909004
v 0.13790524 0 -7.0909004
v -1.2066714 0.5256397 -3.4605432
v -2.0134172 0.1274278 -4.1328316
v -0.39992535 0.1274278 -4.1328316
v 1.2066714 0.1274278 -4.1328316
v -0.13790524 0 -7.0909004
v 2.551248 0 -7.0909004
v 1.2066714 0.5256397 -3.4605432
v 0.39992535 0.1274278 -4.1328316
v 2.0134172 0.1274278 -4.1328316
v 3.6200142 0.1274278 -4.1328316
v 2.2754376 0 -7.0909004
v 4.964591 0 -7.0909004
v 3.6200142 0.5256397 -3.4605432
v 2.8132682 0.1274278 -4.1328316
v 4.42676 0.1274278 -4.1328316
v -1.8961979 0.60528207 -0.33329287
v -2.4995337 0.22299866 -0.85043776
v -1.2928622 0.22299866 -0.85043776
v 0 0.60528207 -0.9366286
v -0.6033357 0.22299866 -1.4537735
v 0.6033357 0.22299866 -1.4537735
v 1.8961979 0.60528207 -1.5399642
v 1.2928622 0.22299866 -2.057109
v 2.4995337 0.22299866 -2.057109
vn -0.35962984 -0.85241866 -0.37953767
vn -0.35962984 -0.85241866 -0.37953767
vn -0.35962984 -0.85241866 -0.37953767
vn -0.014043795 0.7912231 -0.6113663
vn -0.014043795 0.7912231 -0.6113663
vn -0.014043795 0.7912231 -0.6113663
vn -0.071478404 0.19316143 -0.9785599
vn -0.071478404 0.19316143 -0.9785599
vn -0.071478404 0.19316143 -0.9785599
vn -0.0060215886 0.77527976 -0.6315894
vn -0.0060215886 0.77527976 -0.6315894
vn -0.0060215886 0.77527976 -0.6315894
vn 4.880698E-08 0.27376094 -0.9617978
vn 4.880698E-08 0.27376094 -0.9617978
vn 4.880698E-08 0.27376094 -0.9617978
vn 3.229066E-08 0.7714213 -0.6363247
vn 3.229066E-08 0.7714213 -0.6363247
vn 3.229066E-08 0.7714213 -0.6363247
vn 0.07147834 0.1931616 -0.9785599
vn 0.07147834 0.1931616 -0.9785599
vn 0.07147834 0.1931616 -0.9785599
vn 0.006021558 0.77527964 -0.6315894
vn 0.006021558 0.77527964 -0.6315894
vn 0.006021558 0.77527964 -0.6315894
vn 0.35962972 -0.8524189 -0.3795369
vn 0.35962972 -0.8524189 -0.3795369
vn 0.35962972 -0.8524189 -0.3795369
vn 0.014043805 0.79122317 -0.6113663
vn 0.014043805 0.79122317 -0.6113663
vn 0.014043805 0.79122317 -0.6113663
vn 0.090975456 -0.6699899 0.7367747
vn 0.090975456 -0.6699899 0.7367747
vn 0.090975456 -0.6699899 0.7367747
vn 0.03070921 0.84827447 -0.5286656
vn 0.03070921 0.84827447 -0.5286656
vn 0.03070921 0.84827447 -0.5286656
vn 0.0320937 -0.59224385 0.8051194
vn 0.0320937 -0.59224385 0.8051194
vn 0.0320937 -0.59224385 0.8051194
vn 0.102618024 0.7289647 0.67681617
vn 0.102618024 0.7289647 0.67681617
vn 0.102618024 0.7289647 0.67681617
vn -1.3406112E-08 -0.5768994 0.8168152
vn -1.3406112E-08 -0.5768994 0.8168152
vn -1.3406112E-08 -0.5768994 0.8168152
vn -1.9443945E-08 -0.34473762 0.9386992
vn -1.9443945E-08 -0.34473762 0.9386992
vn -1.9443945E-08 -0.34473762 0.9386992
vn -0.0320937 -0.5922439 0.8051194
vn -0.0320937 -0.5922439 0.8051194
vn -0.0320937 -0.5922439 0.8051194
vn -0.102618076 0.72896683 0.6768137
vn -0.102618076 0.72896683 0.6768137
vn -0.102618076 0.72896683 0.6768137
vn -0.0909755 -0.66998994 0.7367746
vn -0.0909755 -0.66998994 0.7367746
vn -0.0909755 -0.66998994 0.7367746
vn -0.030709255 0.8482745 -0.5286654
vn -0.030709255 0.8482745 -0.5286654
vn -0.030709255 0.8482745 -0.5286654
vn -0.32185516 -0.8707976 -0.3716463
vn -0.32185516 -0.8707976 -0.3716463
vn -0.32185516 -0.8707976 -0.3716463
vn 3.945367E-08 -0.76059514 -0.6492264
vn 3.945367E-08 -0.76059514 -0.6492264
vn 3.945367E-08 -0.76059514 -0.6492264
vn 0.32185516 -0.87079746 -0.3716463
vn 0.32185516 -0.87079746 -0.3716463
vn 0.32185516 -0.87079746 -0.3716463
vn 0.32185516 -0.8707975 0.3716463
vn 0.32185516 -0.8707975 0.3716463
vn 0.32185516 -0.8707975 0.3716463
vn -9.863414E-08 -0.76059514 0.6492265
vn -9.863414E-08 -0.76059514 0.6492265
vn -9.863414E-08 -0.76059514 0.6492265
vn -0.32185516 -0.8707975 0.37164605
vn -0.32185516 -0.8707975 0.37164605
vn -0.32185516 -0.8707975 0.37164605
vn -0.32185516 -0.8707976 -0.3716463
vn -0.32185516 -0.8707976 -0.3716463
vn -0.32185516 -0.8707976 -0.3716463
vn 5.91805E-08 -0.76059514 -0.6492265
vn 5.91805E-08 -0.76059514 -0.6492265
vn 5.91805E-08 -0.76059514 -0.6492265
vn 0.32185516 -0.8707975 -0.37164629
vn 0.32185516 -0.8707975 -0.37164629
vn 0.32185516 -0.8707975 -0.37164629
vn 0.32185513 -0.87079746 0.3716463
vn 0.32185513 -0.87079746 0.3716463
vn 0.32185513 -0.87079746 0.3716463
vn -9.8634146E-08 -0.76059514 0.6492265
vn -9.8634146E-08 -0.76059514 0.6492265
vn -9.8634146E-08 -0.76059514 0.6492265
vn -0.32185516 -0.8707975 0.37164608
vn -0.32185516 -0.8707975 0.37164608
vn -0.32185516 -0.8707975 0.37164608
vn -0.3218552 -0.8707975 -0.3716463
vn -0.3218552 -0.8707975 -0.3716463
vn -0.3218552 -0.8707975 -0.3716463
vn 0 -0.76059514 -0.6492264
vn 0 -0.76059514 -0.6492264
vn 0 -0.76059514 -0.6492264
vn 0.3218552 -0.8707976 -0.37164617
vn 0.3218552 -0.8707976 -0.37164617
vn 0.3218552 -0.8707976 -0.37164617
vn 0.32185516 -0.8707975 0.37164634
vn 0.32185516 -0.8707975 0.37164634
vn 0.32185516 -0.8707975 0.37164634
vn -9.863416E-08 -0.76059514 0.64922655
vn -9.863416E-08 -0.76059514 0.64922655
vn -9.863416E-08 -0.76059514 0.64922655
vn -0.3218552 -0.8707976 0.37164617
vn -0.3218552 -0.8707976 0.37164617
vn -0.3218552 -0.8707976 0.37164617
vn 0 -0.8416917 0.5399585
vn 0 -0.8416917 0.5399585
vn 0 -0.8416917 0.5399585
vn 0.6357053 -0.70882255 -0.3056947
vn 0.6357053 -0.70882255 -0.3056947
vn 0.6357053 -0.70882255 -0.3056947
vn 0 -0.9990734 0.04303812
vn 0 -0.9990734 0.04303812
vn 0 -0.9990734 0.04303812
vn 0 -0.8603933 0.5096308
vn 0 -0.8603933 0.5096308
vn 0 -0.8603933 0.5096308
vn 0 -0.9990734 0.04303812
vn 0 -0.9990734 0.04303812
vn 0 -0.9990734 0.04303812
vn 0 -0.86039317 0.50963074
vn 0 -0.86039317 0.50963074
vn 0 -0.86039317 0.50963074
vn 0 -0.9990734 0.04303812
vn 0 -0.9990734 0.04303812
vn 0 -0.9990734 0.04303812
vn 0 -0.86039317 0.50963074
vn 0 -0.86039317 0.50963074
vn 0 -0.86039317 0.50963074
vn 0 -0.9990734 0.04303812
vn 0 -0.9990734 0.04303812
vn 0 -0.9990734 0.04303812
vn 0 -0.8603933 0.5096308
vn 0 -0.8603933 0.5096308
vn 0 -0.8603933 0.5096308
vn 0 -0.80414206 0.5944371
vn 0 -0.80414206 0.5944371
vn 0 -0.80414206 0.5944371
vn 0 -0.80414206 0.5944371
vn 0 -0.80414206 0.5944371
vn 0 -0.80414206 0.5944371
vn 0 -0.80414206 0.5944371
vn 0 -0.80414206 0.5944371
vn 0 -0.80414206 0.5944371
f 1//1 2//2 3//3
f 4//4 5//5 6//6
f 7//7 8//8 9//9
f 10//10 11//11 12//12
f 13//13 14//14 15//15
f 16//16 17//17 18//18
f 19//19 20//20 21//21
f 22//22 23//23 24//24
f 25//25 26//26 27//27
f 28//28 29//29 30//30
f 31//31 32//32 33//33
f 34//34 35//35 36//36
f 37//37 38//38 39//39
f 40//40 41//41 42//42
f 43//43 44//44 45//45
f 46//46 47//47 48//48
f 49//49 50//50 51//51
f 52//52 53//53 54//54
f 55//55 56//56 57//57
f 58//58 59//59 60//60
f 61//61 62//62 63//63
f 64//64 65//65 66//66
f 67//67 68//68 69//69
f 70//70 71//71 72//72
f 73//73 74//74 75//75
f 76//76 77//77 78//78
f 79//79 80//80 81//81
f 82//82 83//83 84//84
f 85//85 86//86 87//87
f 88//88 89//89 90//90
f 91//91 92//92 93//93
f 94//94 95//95 96//96
f 97//97 98//98 99//99
f 100//100 101//101 102//102
f 103//103 104//104 105//105
f 106//106 107//107 108//108
f 109//109 110//110 111//111
f 112//112 113//113 114//114
f 115//115 116//116 117//117
f 118//118 119//119 120//120
f 121//121 122//122 123//123
f 124//124 125//125 126//126
f 127//127 128//128 129//129
f 130//130 131//131 132//132
f 133//133 134//134 135//135
f 136//136 137//137 138//138
f 139//139 140//140 141//141
f 142//142 143//143 144//144
f 145//145 146//146 147//147
f 148//148 149//149 150//150
f 151//151 152//152 153//153
