# Exported from SharpOpenGl procedural mesh
o aetherian_fighter_mk1_01
# vertices 138
v 0.6366517 0.13603461 0.13218412
v 0.51506203 0.18401009 0.2059952
v 0 0.46251768 0.3304603
v 0.6366517 0.13603461 0.13218412
v 0 0.027206922 0
v 0.51506203 0.18401009 0.2059952
v 0.51506203 0.18401009 0.2059952
v 0.19673619 0.21366057 0.25161296
v 0 0.46251768 0.3304603
v 0.51506203 0.18401009 0.2059952
v 0 0.027206922 0
v 0.19673619 0.21366057 0.25161296
v 0.19673619 0.21366057 0.25161296
v -0.19673622 0.21366057 0.25161296
v 0 0.46251768 0.3304603
v 0.19673619 0.21366057 0.25161296
v 0 0.027206922 0
v -0.19673622 0.21366057 0.25161296
v -0.19673622 0.21366057 0.25161296
v -0.5150621 0.18401009 0.2059952
v 0 0.46251768 0.3304603
v -0.19673622 0.21366057 0.25161296
v 0 0.027206922 0
v -0.5150621 0.18401009 0.2059952
v -0.5150621 0.18401009 0.2059952
v -0.6366517 0.13603461 0.1321841
v 0 0.46251768 0.3304603
v -0.5150621 0.18401009 0.2059952
v 0 0.027206922 0
v -0.6366517 0.13603461 0.1321841
v -0.6366517 0.13603461 0.1321841
v -0.51506203 0.08805911 0.05837302
v 0 0.46251768 0.3304603
v -0.6366517 0.13603461 0.1321841
v 0 0.027206922 0
v -0.51506203 0.08805911 0.05837302
v -0.51506203 0.08805911 0.05837302
v -0.19673598 0.05840864 0.012755267
v 0 0.46251768 0.3304603
v -0.51506203 0.08805911 0.05837302
v 0 0.027206922 0
v -0.19673598 0.05840864 0.012755267
v -0.19673598 0.05840864 0.012755267
v 0.19673628 0.058408648 0.012755282
v 0 0.46251768 0.3304603
v -0.19673598 0.05840864 0.012755267
v 0 0.027206922 0
v 0.19673628 0.058408648 0.012755282
v 0.19673628 0.058408648 0.012755282
v 0.51506203 0.08805911 0.058373034
v 0 0.46251768 0.3304603
v 0.19673628 0.058408648 0.012755282
v 0 0.027206922 0
v 0.51506203 0.08805911 0.058373034
v 0.51506203 0.08805911 0.058373034
v 0.6366517 0.13603462 0.13218413
v 0 0.46251768 0.3304603
v 0.51506203 0.08805911 0.058373034
v 0 0.027206922 0
v 0.6366517 0.13603462 0.13218413
v -0.5760182 0.3428072 -0.19827618
v -0.30316746 0.19044845 -0.19827618
v -0.43959284 0.19044845 -0.08012833
v -0.5760182 0.3428072 -0.19827618
v -0.43959284 0.19044845 -0.08012833
v -0.7124436 0.19044845 -0.080128334
v -0.5760182 0.3428072 -0.19827618
v -0.7124436 0.19044845 -0.080128334
v -0.84886897 0.19044845 -0.19827619
v -0.5760182 0.3428072 -0.19827618
v -0.84886897 0.19044845 -0.19827619
v -0.7124436 0.19044845 -0.316424
v -0.5760182 0.3428072 -0.19827618
v -0.7124436 0.19044845 -0.316424
v -0.43959272 0.19044845 -0.31642398
v -0.5760182 0.3428072 -0.19827618
v -0.43959272 0.19044845 -0.31642398
v -0.30316746 0.19044845 -0.19827615
v 0 0.3428072 0.099138126
v 0.27285075 0.19044845 0.099138126
v 0.13642536 0.19044845 0.21728598
v 0 0.3428072 0.099138126
v 0.13642536 0.19044845 0.21728598
v -0.13642539 0.19044845 0.21728596
v 0 0.3428072 0.099138126
v -0.13642539 0.19044845 0.21728596
v -0.27285075 0.19044845 0.09913811
v 0 0.3428072 0.099138126
v -0.27285075 0.19044845 0.09913811
v -0.13642535 0.19044845 -0.019009724
v 0 0.3428072 0.099138126
v -0.13642535 0.19044845 -0.019009724
v 0.13642548 0.19044845 -0.019009687
v 0 0.3428072 0.099138126
v 0.13642548 0.19044845 -0.019009687
v 0.27285075 0.19044845 0.09913815
v 0.5760182 0.3428072 0.39655244
v 0.84886897 0.19044845 0.39655244
v 0.7124436 0.19044845 0.5147003
v 0.5760182 0.3428072 0.39655244
v 0.7124436 0.19044845 0.5147003
v 0.43959284 0.19044845 0.5147003
v 0.5760182 0.3428072 0.39655244
v 0.43959284 0.19044845 0.5147003
v 0.30316746 0.19044845 0.39655244
v 0.5760182 0.3428072 0.39655244
v 0.30316746 0.19044845 0.39655244
v 0.43959287 0.19044845 0.2784046
v 0.5760182 0.3428072 0.39655244
v 0.43959287 0.19044845 0.2784046
v 0.7124437 0.19044845 0.27840462
v 0.5760182 0.3428072 0.39655244
v 0.7124437 0.19044845 0.27840462
v 0.84886897 0.19044845 0.39655247
v 0 0.29927614 0.90876585
v -0.33348423 0.10882769 0.57830554
v 0.33348423 0.10882769 0.57830554
v 0 0.29927614 0.90876585
v 0 0.19044845 1.1896572
v -0.18190049 0.13603461 0.6939666
v -0.5052792 0.03224524 -1.1641216
v -0.652532 0 -1.4880778
v -0.3580264 0 -1.4880778
v -0.5052792 0.13301161 -1.0904952
v -0.59363085 0.03224524 -1.1641216
v -0.41692752 0.03224524 -1.1641216
v 0 0.03224524 -1.1641216
v -0.1472528 0 -1.4880778
v 0.1472528 0 -1.4880778
v 0 0.13301161 -1.0904952
v -0.08835168 0.03224524 -1.1641216
v 0.08835168 0.03224524 -1.1641216
v 0.5052792 0.03224524 -1.1641216
v 0.3580264 0 -1.4880778
v 0.652532 0 -1.4880778
v 0.5052792 0.13301161 -1.0904952
v 0.41692752 0.03224524 -1.1641216
v 0.59363085 0.03224524 -1.1641216
vn -0.5092965 -0.7990407 -0.31961092
vn -0.5092965 -0.7990407 -0.31961092
vn -0.5092965 -0.7990407 -0.31961092
vn -0.02202309 0.82128406 -0.5700943
vn -0.02202309 0.82128406 -0.5700943
vn -0.02202309 0.82128406 -0.5700943
vn -0.11912241 0.21307895 -0.96974593
vn -0.11912241 0.21307895 -0.96974593
vn -0.11912241 0.21307895 -0.96974593
vn -0.009468677 0.8069359 -0.590563
vn -0.009468677 0.8069359 -0.590563
vn -0.009468677 0.8069359 -0.590563
vn 0 0.30203998 -0.95329523
vn 0 0.30203998 -0.95329523
vn 0 0.30203998 -0.95329523
vn 0 0.80344474 -0.5953795
vn 0 0.80344474 -0.5953795
vn 0 0.80344474 -0.5953795
vn 0.1191224 0.2130789 -0.96974593
vn 0.1191224 0.2130789 -0.96974593
vn 0.1191224 0.2130789 -0.96974593
vn 0.0094686765 0.8069359 -0.590563
vn 0.0094686765 0.8069359 -0.590563
vn 0.0094686765 0.8069359 -0.590563
vn 0.5092964 -0.799041 -0.31961012
vn 0.5092964 -0.799041 -0.31961012
vn 0.5092964 -0.799041 -0.31961012
vn 0.022023108 0.8212841 -0.5700942
vn 0.022023108 0.8212841 -0.5700942
vn 0.022023108 0.8212841 -0.5700942
vn 0.14440732 -0.70393765 0.69542664
vn 0.14440732 -0.70393765 0.69542664
vn 0.14440732 -0.70393765 0.69542664
vn 0.04766812 0.87155855 -0.4879688
vn 0.04766812 0.87155855 -0.4879688
vn 0.04766812 0.87155855 -0.4879688
vn 0.05179705 -0.63268405 0.77267575
vn 0.05179705 -0.63268405 0.77267575
vn 0.05179705 -0.63268405 0.77267575
vn 0.16118473 0.75789243 0.6321539
vn 0.16118473 0.75789243 0.6321539
vn 0.16118473 0.75789243 0.6321539
vn -1.8068695E-08 -0.61805105 0.78613794
vn -1.8068695E-08 -0.61805105 0.78613794
vn -1.8068695E-08 -0.61805105 0.78613794
vn -2.7889666E-08 -0.37840238 0.9256412
vn -2.7889666E-08 -0.37840238 0.9256412
vn -2.7889666E-08 -0.37840238 0.9256412
vn -0.05179711 -0.6326841 0.7726758
vn -0.05179711 -0.6326841 0.7726758
vn -0.05179711 -0.6326841 0.7726758
vn -0.16118473 0.7578944 0.63215154
vn -0.16118473 0.7578944 0.63215154
vn -0.16118473 0.7578944 0.63215154
vn -0.14440733 -0.7039377 0.6954267
vn -0.14440733 -0.7039377 0.6954267
vn -0.14440733 -0.7039377 0.6954267
vn -0.047668085 0.8715584 -0.48796883
vn -0.047668085 0.8715584 -0.48796883
vn -0.047668085 0.8715584 -0.48796883
vn -0.42484185 -0.76082546 -0.49056506
vn -0.42484185 -0.76082546 -0.49056506
vn -0.42484185 -0.76082546 -0.49056506
vn 3.540759E-08 -0.61279786 -0.79023963
vn 3.540759E-08 -0.61279786 -0.79023963
vn 3.540759E-08 -0.61279786 -0.79023963
vn 0.42484182 -0.76082546 -0.49056503
vn 0.42484182 -0.76082546 -0.49056503
vn 0.42484182 -0.76082546 -0.49056503
vn 0.42484185 -0.7608254 0.49056515
vn 0.42484185 -0.7608254 0.49056515
vn 0.42484185 -0.7608254 0.49056515
vn -1.0622274E-07 -0.6127978 0.79023975
vn -1.0622274E-07 -0.6127978 0.79023975
vn -1.0622274E-07 -0.6127978 0.79023975
vn -0.42484194 -0.7608256 0.49056482
vn -0.42484194 -0.7608256 0.49056482
vn -0.42484194 -0.7608256 0.49056482
vn -0.42484182 -0.76082534 -0.49056506
vn -0.42484182 -0.76082534 -0.49056506
vn -0.42484182 -0.76082534 -0.49056506
vn 3.5407595E-08 -0.61279786 -0.79023975
vn 3.5407595E-08 -0.61279786 -0.79023975
vn 3.5407595E-08 -0.61279786 -0.79023975
vn 0.42484185 -0.76082546 -0.49056497
vn 0.42484185 -0.76082546 -0.49056497
vn 0.42484185 -0.76082546 -0.49056497
vn 0.42484182 -0.76082534 0.49056515
vn 0.42484182 -0.76082534 0.49056515
vn 0.42484182 -0.76082534 0.49056515
vn -1.0622276E-07 -0.6127978 0.7902398
vn -1.0622276E-07 -0.6127978 0.7902398
vn -1.0622276E-07 -0.6127978 0.7902398
vn -0.42484194 -0.7608256 0.49056482
vn -0.42484194 -0.7608256 0.49056482
vn -0.42484194 -0.7608256 0.49056482
vn -0.42484185 -0.76082546 -0.49056506
vn -0.42484185 -0.76082546 -0.49056506
vn -0.42484185 -0.76082546 -0.49056506
vn 0 -0.61279786 -0.79023963
vn 0 -0.61279786 -0.79023963
vn 0 -0.61279786 -0.79023963
vn 0.42484185 -0.76082546 -0.49056506
vn 0.42484185 -0.76082546 -0.49056506
vn 0.42484185 -0.76082546 -0.49056506
vn 0.42484182 -0.76082534 0.49056512
vn 0.42484182 -0.76082534 0.49056512
vn 0.42484182 -0.76082534 0.49056512
vn -1.0622276E-07 -0.61279786 0.7902398
vn -1.0622276E-07 -0.61279786 0.7902398
vn -1.0622276E-07 -0.61279786 0.7902398
vn -0.42484194 -0.7608256 0.4905648
vn -0.42484194 -0.7608256 0.4905648
vn -0.42484194 -0.7608256 0.4905648
vn 0 -0.8664145 0.49932563
vn 0 -0.8664145 0.49932563
vn 0 -0.8664145 0.49932563
vn 0.7841088 -0.57870734 -0.2242126
vn 0.7841088 -0.57870734 -0.2242126
vn 0.7841088 -0.57870734 -0.2242126
vn 0 -0.99508286 0.09904639
vn 0 -0.99508286 0.09904639
vn 0 -0.99508286 0.09904639
vn 0 -0.58996147 0.80743146
vn 0 -0.58996147 0.80743146
vn 0 -0.58996147 0.80743146
vn 0 -0.99508286 0.09904639
vn 0 -0.99508286 0.09904639
vn 0 -0.99508286 0.09904639
vn 0 -0.58996135 0.8074314
vn 0 -0.58996135 0.8074314
vn 0 -0.58996135 0.8074314
vn 0 -0.99508286 0.09904639
vn 0 -0.99508286 0.09904639
vn 0 -0.99508286 0.09904639
vn 0 -0.58996147 0.80743146
vn 0 -0.58996147 0.80743146
vn 0 -0.58996147 0.80743146
f 1//1 2//2 3//3
f 4//4 5//5 6//6
f 7//7 8//8 9//9
f 10//10 11//11 12//12
f 13//13 14//14 15//15
f 16//16 17//17 18//18
f 19//19 20//20 21//21
f 22//22 23//23 24//24
f 25//25 26//26 27//27
f 28//28 29//29 30//30
f 31//31 32//32 33//33
f 34//34 35//35 36//36
f 37//37 38//38 39//39
f 40//40 41//41 42//42
f 43//43 44//44 45//45
f 46//46 47//47 48//48
f 49//49 50//50 51//51
f 52//52 53//53 54//54
f 55//55 56//56 57//57
f 58//58 59//59 60//60
f 61//61 62//62 63//63
f 64//64 65//65 66//66
f 67//67 68//68 69//69
f 70//70 71//71 72//72
f 73//73 74//74 75//75
f 76//76 77//77 78//78
f 79//79 80//80 81//81
f 82//82 83//83 84//84
f 85//85 86//86 87//87
f 88//88 89//89 90//90
f 91//91 92//92 93//93
f 94//94 95//95 96//96
f 97//97 98//98 99//99
f 100//100 101//101 102//102
f 103//103 104//104 105//105
f 106//106 107//107 108//108
f 109//109 110//110 111//111
f 112//112 113//113 114//114
f 115//115 116//116 117//117
f 118//118 119//119 120//120
f 121//121 122//122 123//123
f 124//124 125//125 126//126
f 127//127 128//128 129//129
f 130//130 131//131 132//132
f 133//133 134//134 135//135
f 136//136 137//137 138//138
