# Exported from SharpOpenGl procedural mesh
o aetherian_interceptor_mk1_02
# vertices 144
v 0.4352713 0.08889436 0.13459498
v 0.3521419 0.12024483 0.20975228
v 0 0.30224082 0.33648744
v 0.4352713 0.08889436 0.13459498
v 0 0.017778872 0
v 0.3521419 0.12024483 0.20975228
v 0.3521419 0.12024483 0.20975228
v 0.13450621 0.1396205 0.25620204
v 0 0.30224082 0.33648744
v 0.3521419 0.12024483 0.20975228
v 0 0.017778872 0
v 0.13450621 0.1396205 0.25620204
v 0.13450621 0.1396205 0.25620204
v -0.13450624 0.1396205 0.25620204
v 0 0.30224082 0.33648744
v 0.13450621 0.1396205 0.25620204
v 0 0.017778872 0
v -0.13450624 0.1396205 0.25620204
v -0.13450624 0.1396205 0.25620204
v -0.35214192 0.12024483 0.20975226
v 0 0.30224082 0.33648744
v -0.13450624 0.1396205 0.25620204
v 0 0.017778872 0
v -0.35214192 0.12024483 0.20975226
v -0.35214192 0.12024483 0.20975226
v -0.4352713 0.08889435 0.13459496
v 0 0.30224082 0.33648744
v -0.35214192 0.12024483 0.20975226
v 0 0.017778872 0
v -0.4352713 0.08889435 0.13459496
v -0.4352713 0.08889435 0.13459496
v -0.35214186 0.057543878 0.05943767
v 0 0.30224082 0.33648744
v -0.4352713 0.08889435 0.13459496
v 0 0.017778872 0
v -0.35214186 0.057543878 0.05943767
v -0.35214186 0.057543878 0.05943767
v -0.13450608 0.038168214 0.012987897
v 0 0.30224082 0.33648744
v -0.35214186 0.057543878 0.05943767
v 0 0.017778872 0
v -0.13450608 0.038168214 0.012987897
v -0.13450608 0.038168214 0.012987897
v 0.13450629 0.038168225 0.012987919
v 0 0.30224082 0.33648744
v -0.13450608 0.038168214 0.012987897
v 0 0.017778872 0
v 0.13450629 0.038168225 0.012987919
v 0.13450629 0.038168225 0.012987919
v 0.35214186 0.057543878 0.05943767
v 0 0.30224082 0.33648744
v 0.13450629 0.038168225 0.012987919
v 0 0.017778872 0
v 0.35214186 0.057543878 0.05943767
v 0.35214186 0.057543878 0.05943767
v 0.4352713 0.08889437 0.134595
v 0 0.30224082 0.33648744
v 0.35214186 0.057543878 0.05943767
v 0 0.017778872 0
v 0.4352713 0.08889437 0.134595
v -0.3938169 0.22401378 -0.20189247
v -0.20727204 0.1244521 -0.20189247
v -0.30054447 0.1244521 -0.12111617
v -0.3938169 0.22401378 -0.20189247
v -0.30054447 0.1244521 -0.12111617
v -0.48708934 0.1244521 -0.121116176
v -0.3938169 0.22401378 -0.20189247
v -0.48708934 0.1244521 -0.121116176
v -0.5803617 0.1244521 -0.20189248
v -0.3938169 0.22401378 -0.20189247
v -0.5803617 0.1244521 -0.20189248
v -0.4870893 0.1244521 -0.28266877
v -0.3938169 0.22401378 -0.20189247
v -0.4870893 0.1244521 -0.28266877
v -0.30054438 0.1244521 -0.28266874
v -0.3938169 0.22401378 -0.20189247
v -0.30054438 0.1244521 -0.28266874
v -0.20727204 0.1244521 -0.20189245
v 0 0.22401378 0.10094625
v 0.18654485 0.1244521 0.10094625
v 0.09327242 0.1244521 0.18172255
v 0 0.22401378 0.10094625
v 0.09327242 0.1244521 0.18172255
v -0.09327243 0.1244521 0.18172254
v 0 0.22401378 0.10094625
v -0.09327243 0.1244521 0.18172254
v -0.18654485 0.1244521 0.10094624
v 0 0.22401378 0.10094625
v -0.18654485 0.1244521 0.10094624
v -0.09327241 0.1244521 0.020169951
v 0 0.22401378 0.10094625
v -0.09327241 0.1244521 0.020169951
v 0.09327249 0.1244521 0.020169973
v 0 0.22401378 0.10094625
v 0.09327249 0.1244521 0.020169973
v 0.18654485 0.1244521 0.10094626
v 0.3938169 0.22401378 0.40378496
v 0.5803617 0.1244521 0.40378496
v 0.4870893 0.1244521 0.48456126
v 0.3938169 0.22401378 0.40378496
v 0.4870893 0.1244521 0.48456126
v 0.30054444 0.1244521 0.48456126
v 0.3938169 0.22401378 0.40378496
v 0.30054444 0.1244521 0.48456126
v 0.20727204 0.1244521 0.40378496
v 0.3938169 0.22401378 0.40378496
v 0.20727204 0.1244521 0.40378496
v 0.30054447 0.1244521 0.32300866
v 0.3938169 0.22401378 0.40378496
v 0.30054447 0.1244521 0.32300866
v 0.4870894 0.1244521 0.3230087
v 0.3938169 0.22401378 0.40378496
v 0.4870894 0.1244521 0.3230087
v 0.5803617 0.1244521 0.403785
v 0 0.1955676 0.92534053
v -0.22799926 0.07111549 0.58885306
v 0.22799926 0.07111549 0.58885306
v 0 0.1955676 0.92534053
v 0 0.1244521 1.2113549
v -0.12436323 0.08889436 0.7066237
v -0.4145441 0.021071255 -1.1853535
v -0.5211412 0 -1.419867
v -0.30794704 0 -1.419867
v -0.4145441 0.08691893 -1.132055
v -0.47850233 0.021071255 -1.1853535
v -0.35058588 0.021071255 -1.1853535
v -0.13818137 0.021071255 -1.1853535
v -0.24477842 0 -1.419867
v -0.031584315 0 -1.419867
v -0.13818137 0.08691893 -1.132055
v -0.20213962 0.021071255 -1.1853535
v -0.07422314 0.021071255 -1.1853535
v 0.13818137 0.021071255 -1.1853535
v 0.031584315 0 -1.419867
v 0.24477842 0 -1.419867
v 0.13818137 0.08691893 -1.132055
v 0.07422314 0.021071255 -1.1853535
v 0.20213962 0.021071255 -1.1853535
v 0.4145441 0.021071255 -1.1853535
v 0.30794704 0 -1.419867
v 0.5211412 0 -1.419867
v 0.4145441 0.08691893 -1.132055
v 0.35058588 0.021071255 -1.1853535
v 0.47850233 0.021071255 -1.1853535
vn -0.5082001 -0.8341928 -0.21413808
vn -0.5082001 -0.8341928 -0.21413808
vn -0.5082001 -0.8341928 -0.21413808
vn -0.023405729 0.9132098 -0.40681693
vn -0.023405729 0.9132098 -0.40681693
vn -0.023405729 0.9132098 -0.40681693
vn -0.17054819 0.319174 -0.93222386
vn -0.17054819 0.319174 -0.93222386
vn -0.17054819 0.319174 -0.93222386
vn -0.010150962 0.9050884 -0.42510232
vn -0.010150962 0.9050884 -0.42510232
vn -0.010150962 0.9050884 -0.42510232
vn 0 0.4426875 -0.89667594
vn 0 0.4426875 -0.89667594
vn 0 0.4426875 -0.89667594
vn 0 0.90307844 -0.4294757
vn 0 0.90307844 -0.4294757
vn 0 0.90307844 -0.4294757
vn 0.17054826 0.3191739 -0.9322238
vn 0.17054826 0.3191739 -0.9322238
vn 0.17054826 0.3191739 -0.9322238
vn 0.010150987 0.90508837 -0.42510226
vn 0.010150987 0.90508837 -0.42510226
vn 0.010150987 0.90508837 -0.42510226
vn 0.5082 -0.8341929 -0.2141376
vn 0.5082 -0.8341929 -0.2141376
vn 0.5082 -0.8341929 -0.2141376
vn 0.023405703 0.91320986 -0.40681696
vn 0.023405703 0.91320986 -0.40681696
vn 0.023405703 0.91320986 -0.40681696
vn 0.16337259 -0.83321565 0.52826244
vn 0.16337259 -0.83321565 0.52826244
vn 0.16337259 -0.83321565 0.52826244
vn 0.049136747 0.9399572 -0.33773693
vn 0.049136747 0.9399572 -0.33773693
vn 0.049136747 0.9399572 -0.33773693
vn 0.061471317 -0.7855748 0.61570567
vn 0.061471317 -0.7855748 0.61570567
vn 0.061471317 -0.7855748 0.61570567
vn 0.17640342 0.8678096 0.4645302
vn 0.17640342 0.8678096 0.4645302
vn 0.17640342 0.8678096 0.4645302
vn -2.0358954E-08 -0.77467144 0.63236403
vn -2.0358954E-08 -0.77467144 0.63236403
vn -2.0358954E-08 -0.77467144 0.63236403
vn -4.775851E-08 -0.53725433 0.8434203
vn -4.775851E-08 -0.53725433 0.8434203
vn -4.775851E-08 -0.53725433 0.8434203
vn -0.061471347 -0.78557485 0.6157057
vn -0.061471347 -0.78557485 0.6157057
vn -0.061471347 -0.78557485 0.6157057
vn -0.17640331 0.8678105 0.46452874
vn -0.17640331 0.8678105 0.46452874
vn -0.17640331 0.8678105 0.46452874
vn -0.16337262 -0.83321553 0.5282623
vn -0.16337262 -0.83321553 0.5282623
vn -0.16337262 -0.83321553 0.5282623
vn -0.049136754 0.9399571 -0.33773687
vn -0.049136754 0.9399571 -0.33773687
vn -0.049136754 0.9399571 -0.33773687
vn -0.41366342 -0.77506506 -0.47765735
vn -0.41366342 -0.77506506 -0.47765735
vn -0.41366342 -0.77506506 -0.47765735
vn 3.8940463E-08 -0.6300401 -0.7765626
vn 3.8940463E-08 -0.6300401 -0.7765626
vn 3.8940463E-08 -0.6300401 -0.7765626
vn 0.41366357 -0.7750652 -0.47765723
vn 0.41366357 -0.7750652 -0.47765723
vn 0.41366357 -0.7750652 -0.47765723
vn 0.41366345 -0.77506524 0.47765738
vn 0.41366345 -0.77506524 0.47765738
vn 0.41366345 -0.77506524 0.47765738
vn -1.557618E-07 -0.63004005 0.7765626
vn -1.557618E-07 -0.63004005 0.7765626
vn -1.557618E-07 -0.63004005 0.7765626
vn -0.41366354 -0.7750652 0.47765705
vn -0.41366354 -0.7750652 0.47765705
vn -0.41366354 -0.7750652 0.47765705
vn -0.41366348 -0.7750651 -0.47765735
vn -0.41366348 -0.7750651 -0.47765735
vn -0.41366348 -0.7750651 -0.47765735
vn 7.788093E-08 -0.6300401 -0.7765626
vn 7.788093E-08 -0.6300401 -0.7765626
vn 7.788093E-08 -0.6300401 -0.7765626
vn 0.41366348 -0.7750652 -0.47765735
vn 0.41366348 -0.7750652 -0.47765735
vn 0.41366348 -0.7750652 -0.47765735
vn 0.41366342 -0.7750652 0.47765747
vn 0.41366342 -0.7750652 0.47765747
vn 0.41366342 -0.7750652 0.47765747
vn -1.1682138E-07 -0.6300401 0.77656263
vn -1.1682138E-07 -0.6300401 0.77656263
vn -1.1682138E-07 -0.6300401 0.77656263
vn -0.41366354 -0.7750652 0.47765714
vn -0.41366354 -0.7750652 0.47765714
vn -0.41366354 -0.7750652 0.47765714
vn -0.41366354 -0.7750652 -0.47765735
vn -0.41366354 -0.7750652 -0.47765735
vn -0.41366354 -0.7750652 -0.47765735
vn 0 -0.6300401 -0.7765625
vn 0 -0.6300401 -0.7765625
vn 0 -0.6300401 -0.7765625
vn 0.41366354 -0.77506524 -0.4776573
vn 0.41366354 -0.77506524 -0.4776573
vn 0.41366354 -0.77506524 -0.4776573
vn 0.41366348 -0.7750651 0.47765735
vn 0.41366348 -0.7750651 0.47765735
vn 0.41366348 -0.7750651 0.47765735
vn -1.557618E-07 -0.63004005 0.7765626
vn -1.557618E-07 -0.63004005 0.7765626
vn -1.557618E-07 -0.63004005 0.7765626
vn -0.41366357 -0.77506524 0.47765696
vn -0.41366357 -0.77506524 0.47765696
vn -0.41366357 -0.77506524 0.47765696
vn 0 -0.9379056 0.34689054
vn 0 -0.9379056 0.34689054
vn 0 -0.9379056 0.34689054
vn 0.78251255 -0.6042369 -0.15023935
vn 0.78251255 -0.6042369 -0.15023935
vn 0.78251255 -0.6042369 -0.15023935
vn 0 -0.99598765 0.089490406
vn 0 -0.99598765 0.089490406
vn 0 -0.99598765 0.089490406
vn 0 -0.62914985 0.7772841
vn 0 -0.62914985 0.7772841
vn 0 -0.62914985 0.7772841
vn 0 -0.9959878 0.08949041
vn 0 -0.9959878 0.08949041
vn 0 -0.9959878 0.08949041
vn 0 -0.62914985 0.7772841
vn 0 -0.62914985 0.7772841
vn 0 -0.62914985 0.7772841
vn 0 -0.9959878 0.08949041
vn 0 -0.9959878 0.08949041
vn 0 -0.9959878 0.08949041
vn 0 -0.62914985 0.7772841
vn 0 -0.62914985 0.7772841
vn 0 -0.62914985 0.7772841
vn 0 -0.99598765 0.089490406
vn 0 -0.99598765 0.089490406
vn 0 -0.99598765 0.089490406
vn 0 -0.62914985 0.7772841
vn 0 -0.62914985 0.7772841
vn 0 -0.62914985 0.7772841
f 1//1 2//2 3//3
f 4//4 5//5 6//6
f 7//7 8//8 9//9
f 10//10 11//11 12//12
f 13//13 14//14 15//15
f 16//16 17//17 18//18
f 19//19 20//20 21//21
f 22//22 23//23 24//24
f 25//25 26//26 27//27
f 28//28 29//29 30//30
f 31//31 32//32 33//33
f 34//34 35//35 36//36
f 37//37 38//38 39//39
f 40//40 41//41 42//42
f 43//43 44//44 45//45
f 46//46 47//47 48//48
f 49//49 50//50 51//51
f 52//52 53//53 54//54
f 55//55 56//56 57//57
f 58//58 59//59 60//60
f 61//61 62//62 63//63
f 64//64 65//65 66//66
f 67//67 68//68 69//69
f 70//70 71//71 72//72
f 73//73 74//74 75//75
f 76//76 77//77 78//78
f 79//79 80//80 81//81
f 82//82 83//83 84//84
f 85//85 86//86 87//87
f 88//88 89//89 90//90
f 91//91 92//92 93//93
f 94//94 95//95 96//96
f 97//97 98//98 99//99
f 100//100 101//101 102//102
f 103//103 104//104 105//105
f 106//106 107//107 108//108
f 109//109 110//110 111//111
f 112//112 113//113 114//114
f 115//115 116//116 117//117
f 118//118 119//119 120//120
f 121//121 122//122 123//123
f 124//124 125//125 126//126
f 127//127 128//128 129//129
f 130//130 131//131 132//132
f 133//133 134//134 135//135
f 136//136 137//137 138//138
f 139//139 140//140 141//141
f 142//142 143//143 144//144
