# Exported from SharpOpenGl procedural mesh
o aetherian_carrier_mk2_27
# vertices 168
v 2.8324559 0.49813277 0.36503336
v 2.5519545 0.6278118 0.5154963
v 0 1.6936514 0.9125835
v 2.8324559 0.49813277 0.36503336
v 0 0.099626556 0
v 2.5519545 0.6278118 0.5154963
v 2.5519545 0.6278118 0.5154963
v 1.7660073 0.7318063 0.6361582
v 0 1.6936514 0.9125835
v 2.5519545 0.6278118 0.5154963
v 0 0.099626556 0
v 1.7660073 0.7318063 0.6361582
v 1.7660073 0.7318063 0.6361582
v 0.63028085 0.7895189 0.7031205
v 0 1.6936514 0.9125835
v 1.7660073 0.7318063 0.6361582
v 0 0.099626556 0
v 0.63028085 0.7895189 0.7031205
v 0.63028085 0.7895189 0.7031205
v -0.6302808 0.7895189 0.7031205
v 0 1.6936514 0.9125835
v 0.63028085 0.7895189 0.7031205
v 0 0.099626556 0
v -0.6302808 0.7895189 0.7031205
v -0.6302808 0.7895189 0.7031205
v -1.7660079 0.7318063 0.63615817
v 0 1.6936514 0.9125835
v -0.6302808 0.7895189 0.7031205
v 0 0.099626556 0
v -1.7660079 0.7318063 0.63615817
v -1.7660079 0.7318063 0.63615817
v -2.5519545 0.6278118 0.5154963
v 0 1.6936514 0.9125835
v -1.7660079 0.7318063 0.63615817
v 0 0.099626556 0
v -2.5519545 0.6278118 0.5154963
v -2.5519545 0.6278118 0.5154963
v -2.8324559 0.49813274 0.36503333
v 0 1.6936514 0.9125835
v -2.5519545 0.6278118 0.5154963
v 0 0.099626556 0
v -2.8324559 0.49813274 0.36503333
v -2.8324559 0.49813274 0.36503333
v -2.5519545 0.36845374 0.2145704
v 0 1.6936514 0.9125835
v -2.8324559 0.49813274 0.36503333
v 0 0.099626556 0
v -2.5519545 0.36845374 0.2145704
v -2.5519545 0.36845374 0.2145704
v -1.7660068 0.2644592 0.09390843
v 0 1.6936514 0.9125835
v -2.5519545 0.36845374 0.2145704
v 0 0.099626556 0
v -1.7660068 0.2644592 0.09390843
v -1.7660068 0.2644592 0.09390843
v -0.6302796 0.20674661 0.026946157
v 0 1.6936514 0.9125835
v -1.7660068 0.2644592 0.09390843
v 0 0.099626556 0
v -0.6302796 0.20674661 0.026946157
v -0.6302796 0.20674661 0.026946157
v 0.63028234 0.20674667 0.026946217
v 0 1.6936514 0.9125835
v -0.6302796 0.20674661 0.026946157
v 0 0.099626556 0
v 0.63028234 0.20674667 0.026946217
v 0.63028234 0.20674667 0.026946217
v 1.766007 0.2644592 0.09390843
v 0 1.6936514 0.9125835
v 0.63028234 0.20674667 0.026946217
v 0 0.099626556 0
v 1.766007 0.2644592 0.09390843
v 1.766007 0.2644592 0.09390843
v 2.5519545 0.36845374 0.2145704
v 0 1.6936514 0.9125835
v 1.766007 0.2644592 0.09390843
v 0 0.099626556 0
v 2.5519545 0.36845374 0.2145704
v 2.5519545 0.36845374 0.2145704
v 2.8324559 0.49813282 0.36503342
v 0 1.6936514 0.9125835
v 2.5519545 0.36845374 0.2145704
v 0 0.099626556 0
v 2.8324559 0.49813282 0.36503342
v -2.5626981 1.2552946 -0.5475501
v -1.3487884 0.69738585 -0.5475501
v -1.9557433 0.69738585 -0.02191174
v -2.5626981 1.2552946 -0.5475501
v -1.9557433 0.69738585 -0.02191174
v -3.169653 0.69738585 -0.02191174
v -2.5626981 1.2552946 -0.5475501
v -3.169653 0.69738585 -0.02191174
v -3.776608 0.69738585 -0.54755014
v -2.5626981 1.2552946 -0.5475501
v -3.776608 0.69738585 -0.54755014
v -3.169653 0.69738585 -1.0731884
v -2.5626981 1.2552946 -0.5475501
v -3.169653 0.69738585 -1.0731884
v -1.9557428 0.69738585 -1.0731883
v -2.5626981 1.2552946 -0.5475501
v -1.9557428 0.69738585 -1.0731883
v -1.3487884 0.69738585 -0.54754996
v 0 1.2552946 0.27377504
v 1.2139097 0.69738585 0.27377504
v 0.6069548 0.69738585 0.7994134
v 0 1.2552946 0.27377504
v 0.6069548 0.69738585 0.7994134
v -0.60695493 0.69738585 0.7994134
v 0 1.2552946 0.27377504
v -0.60695493 0.69738585 0.7994134
v -1.2139097 0.69738585 0.27377498
v 0 1.2552946 0.27377504
v -1.2139097 0.69738585 0.27377498
v -0.60695475 0.69738585 -0.2518633
v 0 1.2552946 0.27377504
v -0.60695475 0.69738585 -0.2518633
v 0.6069553 0.69738585 -0.25186318
v 0 1.2552946 0.27377504
v 0.6069553 0.69738585 -0.25186318
v 1.2139097 0.69738585 0.27377516
v 2.5626981 1.2552946 1.0951002
v 3.776608 0.69738585 1.0951002
v 3.169653 0.69738585 1.6207385
v 2.5626981 1.2552946 1.0951002
v 3.169653 0.69738585 1.6207385
v 1.9557432 0.69738585 1.6207385
v 2.5626981 1.2552946 1.0951002
v 1.9557432 0.69738585 1.6207385
v 1.3487884 0.69738585 1.0951002
v 2.5626981 1.2552946 1.0951002
v 1.3487884 0.69738585 1.0951002
v 1.9557433 0.69738585 0.5694618
v 2.5626981 1.2552946 1.0951002
v 1.9557433 0.69738585 0.5694618
v 3.1696534 0.69738585 0.56946194
v 2.5626981 1.2552946 1.0951002
v 3.1696534 0.69738585 0.56946194
v 3.776608 0.69738585 1.0951003
v 0 1.0958921 2.5096045
v -1.4836674 0.39850622 1.597021
v 1.4836674 0.39850622 1.597021
v 0 1.0958921 2.5096045
v 0 0.69738585 3.2853005
v -0.8092731 0.49813277 1.9164252
v -2.6975772 0.118075915 -3.2147827
v -3.776608 0 -5.5886507
v -1.6185464 0 -5.5886507
v -2.6975772 0.48706314 -2.6752672
v -3.3449957 0.118075915 -3.2147827
v -2.0501587 0.118075915 -3.2147827
v -0.8991924 0.118075915 -3.2147827
v -1.9782233 0 -5.5886507
v 0.17983848 0 -5.5886507
v -0.8991924 0.48706314 -2.6752672
v -1.546611 0.118075915 -3.2147827
v -0.25177383 0.118075915 -3.2147827
v 0.8991924 0.118075915 -3.2147827
v -0.17983848 0 -5.5886507
v 1.9782233 0 -5.5886507
v 0.8991924 0.48706314 -2.6752672
v 0.25177383 0.118075915 -3.2147827
v 1.546611 0.118075915 -3.2147827
v 2.6975772 0.118075915 -3.2147827
v 1.6185464 0 -5.5886507
v 3.776608 0 -5.5886507
v 2.6975772 0.48706314 -2.6752672
v 2.0501587 0.118075915 -3.2147827
v 3.3449957 0.118075915 -3.2147827
vn -0.36873794 -0.92320746 0.10826015
vn -0.36873794 -0.92320746 0.10826015
vn -0.36873794 -0.92320746 0.10826015
vn -0.017692117 0.7408199 -0.6714707
vn -0.017692117 0.7408199 -0.6714707
vn -0.017692117 0.7408199 -0.6714707
vn -0.15081212 0.0071955966 -0.98853624
vn -0.15081212 0.0071955966 -0.98853624
vn -0.15081212 0.0071955966 -0.98853624
vn -0.010269521 0.7233929 -0.6903602
vn -0.010269521 0.7233929 -0.6903602
vn -0.010269521 0.7233929 -0.6903602
vn -0.04793737 0.1936005 -0.97990865
vn -0.04793737 0.1936005 -0.97990865
vn -0.04793737 0.1936005 -0.97990865
vn -0.0047837114 0.7159215 -0.69816434
vn -0.0047837114 0.7159215 -0.69816434
vn -0.0047837114 0.7159215 -0.69816434
vn 0 0.2256952 -0.974198
vn 0 0.2256952 -0.974198
vn 0 0.2256952 -0.974198
vn 0 0.71378934 -0.7003604
vn 0 0.71378934 -0.7003604
vn 0 0.71378934 -0.7003604
vn 0.0479374 0.1936005 -0.9799086
vn 0.0479374 0.1936005 -0.9799086
vn 0.0479374 0.1936005 -0.9799086
vn 0.004783747 0.7159216 -0.69816434
vn 0.004783747 0.7159216 -0.69816434
vn 0.004783747 0.7159216 -0.69816434
vn 0.1508122 0.00719545 -0.9885362
vn 0.1508122 0.00719545 -0.9885362
vn 0.1508122 0.00719545 -0.9885362
vn 0.010269497 0.72339284 -0.69036025
vn 0.010269497 0.72339284 -0.69036025
vn 0.010269497 0.72339284 -0.69036025
vn 0.36873788 -0.92320746 0.10826052
vn 0.36873788 -0.92320746 0.10826052
vn 0.36873788 -0.92320746 0.10826052
vn 0.017692108 0.7408199 -0.6714707
vn 0.017692108 0.7408199 -0.6714707
vn 0.017692108 0.7408199 -0.6714707
vn 0.11867227 -0.63193655 0.7658805
vn 0.11867227 -0.63193655 0.7658805
vn 0.11867227 -0.63193655 0.7658805
vn 0.03058958 0.78462505 -0.6192155
vn 0.03058958 0.78462505 -0.6192155
vn 0.03058958 0.78462505 -0.6192155
vn 0.05578903 -0.54729086 0.83508104
vn 0.05578903 -0.54729086 0.83508104
vn 0.05578903 -0.54729086 0.83508104
vn 0.06759303 0.93000907 -0.36126763
vn 0.06759303 0.93000907 -0.36126763
vn 0.06759303 0.93000907 -0.36126763
vn 0.02399807 -0.5190708 0.85439426
vn 0.02399807 -0.5190708 0.85439426
vn 0.02399807 -0.5190708 0.85439426
vn 0.06513268 0.13450567 0.9887699
vn 0.06513268 0.13450567 0.9887699
vn 0.06513268 0.13450567 0.9887699
vn -1.6427366E-08 -0.5117291 0.8591469
vn -1.6427366E-08 -0.5117291 0.8591469
vn -1.6427366E-08 -0.5117291 0.8591469
vn -3.4320575E-08 -0.24395123 0.96978754
vn -3.4320575E-08 -0.24395123 0.96978754
vn -3.4320575E-08 -0.24395123 0.96978754
vn -0.023998102 -0.51907086 0.8543942
vn -0.023998102 -0.51907086 0.8543942
vn -0.023998102 -0.51907086 0.8543942
vn -0.06513286 0.13450778 0.9887696
vn -0.06513286 0.13450778 0.9887696
vn -0.06513286 0.13450778 0.9887696
vn -0.05578905 -0.5472908 0.83508104
vn -0.05578905 -0.5472908 0.83508104
vn -0.05578905 -0.5472908 0.83508104
vn -0.067593 0.93000895 -0.36126786
vn -0.067593 0.93000895 -0.36126786
vn -0.067593 0.93000895 -0.36126786
vn -0.11867229 -0.63193655 0.7658805
vn -0.11867229 -0.63193655 0.7658805
vn -0.11867229 -0.63193655 0.7658805
vn -0.030589579 0.78462505 -0.6192155
vn -0.030589579 0.78462505 -0.6192155
vn -0.030589579 0.78462505 -0.6192155
vn -0.37615436 -0.8184447 -0.43434566
vn -0.37615436 -0.8184447 -0.43434566
vn -0.37615436 -0.8184447 -0.43434566
vn 0 -0.6857436 -0.7278432
vn 0 -0.6857436 -0.7278432
vn 0 -0.6857436 -0.7278432
vn 0.37615433 -0.8184447 -0.43434566
vn 0.37615433 -0.8184447 -0.43434566
vn 0.37615433 -0.8184447 -0.43434566
vn 0.37615433 -0.8184447 0.43434572
vn 0.37615433 -0.8184447 0.43434572
vn 0.37615433 -0.8184447 0.43434572
vn -9.6085884E-08 -0.6857435 0.7278432
vn -9.6085884E-08 -0.6857435 0.7278432
vn -9.6085884E-08 -0.6857435 0.7278432
vn -0.3761544 -0.8184448 0.4343454
vn -0.3761544 -0.8184448 0.4343454
vn -0.3761544 -0.8184448 0.4343454
vn -0.37615436 -0.8184447 -0.43434566
vn -0.37615436 -0.8184447 -0.43434566
vn -0.37615436 -0.8184447 -0.43434566
vn 0 -0.6857436 -0.7278432
vn 0 -0.6857436 -0.7278432
vn 0 -0.6857436 -0.7278432
vn 0.3761544 -0.8184448 -0.43434557
vn 0.3761544 -0.8184448 -0.43434557
vn 0.3761544 -0.8184448 -0.43434557
vn 0.37615436 -0.8184447 0.43434572
vn 0.37615436 -0.8184447 0.43434572
vn 0.37615436 -0.8184447 0.43434572
vn -9.6085884E-08 -0.6857435 0.7278432
vn -9.6085884E-08 -0.6857435 0.7278432
vn -9.6085884E-08 -0.6857435 0.7278432
vn -0.3761544 -0.8184448 0.4343454
vn -0.3761544 -0.8184448 0.4343454
vn -0.3761544 -0.8184448 0.4343454
vn -0.37615433 -0.8184447 -0.4343457
vn -0.37615433 -0.8184447 -0.4343457
vn -0.37615433 -0.8184447 -0.4343457
vn 0 -0.6857436 -0.7278432
vn 0 -0.6857436 -0.7278432
vn 0 -0.6857436 -0.7278432
vn 0.3761544 -0.8184448 -0.43434563
vn 0.3761544 -0.8184448 -0.43434563
vn 0.3761544 -0.8184448 -0.43434563
vn 0.37615436 -0.8184447 0.43434566
vn 0.37615436 -0.8184447 0.43434566
vn 0.37615436 -0.8184447 0.43434566
vn -9.6085884E-08 -0.6857435 0.7278432
vn -9.6085884E-08 -0.6857435 0.7278432
vn -9.6085884E-08 -0.6857435 0.7278432
vn -0.37615436 -0.8184448 0.43434542
vn -0.37615436 -0.8184448 0.43434542
vn -0.37615436 -0.8184448 0.43434542
vn 0 -0.79455614 0.6071907
vn 0 -0.79455614 0.6071907
vn 0 -0.79455614 0.6071907
vn 0.70424396 -0.63149714 -0.32442543
vn 0.70424396 -0.63149714 -0.32442543
vn 0.70424396 -0.63149714 -0.32442543
vn 0 -0.9987653 0.049678467
vn 0 -0.9987653 0.049678467
vn 0 -0.9987653 0.049678467
vn 0 -0.82541776 0.56452245
vn 0 -0.82541776 0.56452245
vn 0 -0.82541776 0.56452245
vn 0 -0.99876523 0.049678456
vn 0 -0.99876523 0.049678456
vn 0 -0.99876523 0.049678456
vn 0 -0.82541776 0.56452245
vn 0 -0.82541776 0.56452245
vn 0 -0.82541776 0.56452245
vn 0 -0.99876523 0.049678456
vn 0 -0.99876523 0.049678456
vn 0 -0.99876523 0.049678456
vn 0 -0.82541776 0.56452245
vn 0 -0.82541776 0.56452245
vn 0 -0.82541776 0.56452245
vn 0 -0.9987653 0.049678467
vn 0 -0.9987653 0.049678467
vn 0 -0.9987653 0.049678467
vn 0 -0.82541776 0.56452245
vn 0 -0.82541776 0.56452245
vn 0 -0.82541776 0.56452245
f 1//1 2//2 3//3
f 4//4 5//5 6//6
f 7//7 8//8 9//9
f 10//10 11//11 12//12
f 13//13 14//14 15//15
f 16//16 17//17 18//18
f 19//19 20//20 21//21
f 22//22 23//23 24//24
f 25//25 26//26 27//27
f 28//28 29//29 30//30
f 31//31 32//32 33//33
f 34//34 35//35 36//36
f 37//37 38//38 39//39
f 40//40 41//41 42//42
f 43//43 44//44 45//45
f 46//46 47//47 48//48
f 49//49 50//50 51//51
f 52//52 53//53 54//54
f 55//55 56//56 57//57
f 58//58 59//59 60//60
f 61//61 62//62 63//63
f 64//64 65//65 66//66
f 67//67 68//68 69//69
f 70//70 71//71 72//72
f 73//73 74//74 75//75
f 76//76 77//77 78//78
f 79//79 80//80 81//81
f 82//82 83//83 84//84
f 85//85 86//86 87//87
f 88//88 89//89 90//90
f 91//91 92//92 93//93
f 94//94 95//95 96//96
f 97//97 98//98 99//99
f 100//100 101//101 102//102
f 103//103 104//104 105//105
f 106//106 107//107 108//108
f 109//109 110//110 111//111
f 112//112 113//113 114//114
f 115//115 116//116 117//117
f 118//118 119//119 120//120
f 121//121 122//122 123//123
f 124//124 125//125 126//126
f 127//127 128//128 129//129
f 130//130 131//131 132//132
f 133//133 134//134 135//135
f 136//136 137//137 138//138
f 139//139 140//140 141//141
f 142//142 143//143 144//144
f 145//145 146//146 147//147
f 148//148 149//149 150//150
f 151//151 152//152 153//153
f 154//154 155//155 156//156
f 157//157 158//158 159//159
f 160//160 161//161 162//162
f 163//163 164//164 165//165
f 166//166 167//167 168//168
