# Exported from SharpOpenGl procedural mesh
o aetherian_dreadnought_mk3_45
# vertices 162
v 4.1467204 1.0187383 0.6051509
v 3.7360659 1.2839466 0.8545878
v 0 3.4637103 1.5128772
v 4.1467204 1.0187383 0.6051509
v 0 0.20374766 0
v 3.7360659 1.2839466 0.8545878
v 3.7360659 1.2839466 0.8545878
v 2.5854378 1.4966273 1.0546206
v 0 3.4637103 1.5128772
v 3.7360659 1.2839466 0.8545878
v 0 0.20374766 0
v 2.5854378 1.4966273 1.0546206
v 2.5854378 1.4966273 1.0546206
v 0.9227323 1.6146561 1.1656305
v 0 3.4637103 1.5128772
v 2.5854378 1.4966273 1.0546206
v 0 0.20374766 0
v 0.9227323 1.6146561 1.1656305
v 0.9227323 1.6146561 1.1656305
v -0.9227322 1.6146561 1.1656305
v 0 3.4637103 1.5128772
v 0.9227323 1.6146561 1.1656305
v 0 0.20374766 0
v -0.9227322 1.6146561 1.1656305
v -0.9227322 1.6146561 1.1656305
v -2.5854385 1.4966272 1.0546205
v 0 3.4637103 1.5128772
v -0.9227322 1.6146561 1.1656305
v 0 0.20374766 0
v -2.5854385 1.4966272 1.0546205
v -2.5854385 1.4966272 1.0546205
v -3.7360659 1.2839468 0.8545878
v 0 3.4637103 1.5128772
v -2.5854385 1.4966272 1.0546205
v 0 0.20374766 0
v -3.7360659 1.2839468 0.8545878
v -3.7360659 1.2839468 0.8545878
v -4.1467204 1.0187383 0.6051508
v 0 3.4637103 1.5128772
v -3.7360659 1.2839468 0.8545878
v 0 0.20374766 0
v -4.1467204 1.0187383 0.6051508
v -4.1467204 1.0187383 0.6051508
v -3.7360659 0.7535299 0.355714
v 0 3.4637103 1.5128772
v -4.1467204 1.0187383 0.6051508
v 0 0.20374766 0
v -3.7360659 0.7535299 0.355714
v -3.7360659 0.7535299 0.355714
v -2.585437 0.5408492 0.15568107
v 0 3.4637103 1.5128772
v -3.7360659 0.7535299 0.355714
v 0 0.20374766 0
v -2.585437 0.5408492 0.15568107
v -2.585437 0.5408492 0.15568107
v -0.9227305 0.42282033 0.044671237
v 0 3.4637103 1.5128772
v -2.585437 0.5408492 0.15568107
v 0 0.20374766 0
v -0.9227305 0.42282033 0.044671237
v -0.9227305 0.42282033 0.044671237
v 0.92273444 0.4228205 0.044671357
v 0 3.4637103 1.5128772
v -0.9227305 0.42282033 0.044671237
v 0 0.20374766 0
v 0.92273444 0.4228205 0.044671357
v 0.92273444 0.4228205 0.044671357
v 2.5854373 0.5408492 0.15568107
v 0 3.4637103 1.5128772
v 0.92273444 0.4228205 0.044671357
v 0 0.20374766 0
v 2.5854373 0.5408492 0.15568107
v 2.5854373 0.5408492 0.15568107
v 3.7360659 0.7535299 0.355714
v 0 3.4637103 1.5128772
v 2.5854373 0.5408492 0.15568107
v 0 0.20374766 0
v 3.7360659 0.7535299 0.355714
v 3.7360659 0.7535299 0.355714
v 4.1467204 1.0187384 0.605151
v 0 3.4637103 1.5128772
v 3.7360659 0.7535299 0.355714
v 0 0.20374766 0
v 4.1467204 1.0187384 0.605151
v -3.7517948 2.5672204 -0.9077263
v -1.9746288 1.4262335 -0.9077263
v -2.8632119 1.4262335 -0.1381908
v -3.7517948 2.5672204 -0.9077263
v -2.8632119 1.4262335 -0.1381908
v -4.640378 1.4262335 -0.13819087
v -3.7517948 2.5672204 -0.9077263
v -4.640378 1.4262335 -0.13819087
v -5.5289607 1.4262335 -0.90772635
v -3.7517948 2.5672204 -0.9077263
v -5.5289607 1.4262335 -0.90772635
v -4.6403775 1.4262335 -1.6772618
v -3.7517948 2.5672204 -0.9077263
v -4.6403775 1.4262335 -1.6772618
v -2.8632112 1.4262335 -1.6772616
v -3.7517948 2.5672204 -0.9077263
v -2.8632112 1.4262335 -1.6772616
v -1.9746288 1.4262335 -0.9077261
v 0 2.5672204 0.45386326
v 1.777166 1.4262335 0.45386326
v 0.88858294 1.4262335 1.2233987
v 0 2.5672204 0.45386326
v 0.88858294 1.4262335 1.2233987
v -0.8885831 1.4262335 1.2233987
v 0 2.5672204 0.45386326
v -0.8885831 1.4262335 1.2233987
v -1.777166 1.4262335 0.45386317
v 0 2.5672204 0.45386326
v -1.777166 1.4262335 0.45386317
v -0.8885828 1.4262335 -0.31567222
v 0 2.5672204 0.45386326
v -0.8885828 1.4262335 -0.31567222
v 0.88858366 1.4262335 -0.31567204
v 0 2.5672204 0.45386326
v 0.88858366 1.4262335 -0.31567204
v 1.777166 1.4262335 0.4538634
v 3.7517948 2.5672204 1.8154528
v 5.5289607 1.4262335 1.8154528
v 4.640378 1.4262335 2.5849884
v 3.7517948 2.5672204 1.8154528
v 4.640378 1.4262335 2.5849884
v 2.8632116 1.4262335 2.584988
v 3.7517948 2.5672204 1.8154528
v 2.8632116 1.4262335 2.584988
v 1.9746288 1.4262335 1.8154527
v 3.7517948 2.5672204 1.8154528
v 1.9746288 1.4262335 1.8154527
v 2.863212 1.4262335 1.0459173
v 3.7517948 2.5672204 1.8154528
v 2.863212 1.4262335 1.0459173
v 4.6403785 1.4262335 1.0459175
v 3.7517948 2.5672204 1.8154528
v 4.6403785 1.4262335 1.0459175
v 5.5289607 1.4262335 1.8154529
v 0 2.2412243 4.1604123
v -2.1720917 0.81499064 2.647535
v 2.1720917 0.81499064 2.647535
v 0 2.2412243 4.1604123
v 0 1.4262335 5.446358
v -1.1847773 1.0187383 3.177042
v -3.2910483 0.24147871 -5.3294535
v -4.9835873 0 -9.05304
v -1.5985091 0 -9.05304
v -3.2910483 0.9960997 -4.483184
v -4.306572 0.24147871 -5.3294535
v -2.2755246 0.24147871 -5.3294535
v 0 0.24147871 -5.3294535
v -1.6925392 0 -9.05304
v 1.6925392 0 -9.05304
v 0 0.9960997 -4.483184
v -1.0155236 0.24147871 -5.3294535
v 1.0155236 0.24147871 -5.3294535
v 3.2910483 0.24147871 -5.3294535
v 1.5985091 0 -9.05304
v 4.9835873 0 -9.05304
v 3.2910483 0.9960997 -4.483184
v 2.2755246 0.24147871 -5.3294535
v 4.306572 0.24147871 -5.3294535
vn -0.48339725 -0.86638254 0.12533268
vn -0.48339725 -0.86638254 0.12533268
vn -0.48339725 -0.86638254 0.12533268
vn -0.022234078 0.66646284 -0.74520665
vn -0.022234078 0.66646284 -0.74520665
vn -0.022234078 0.66646284 -0.74520665
vn -0.17023149 0.0058142073 -0.9853869
vn -0.17023149 0.0058142073 -0.9853869
vn -0.17023149 0.0058142073 -0.9853869
vn -0.012837355 0.6473294 -0.7621023
vn -0.012837355 0.6473294 -0.7621023
vn -0.012837355 0.6473294 -0.7621023
vn -0.0546173 0.15790151 -0.98594326
vn -0.0546173 0.15790151 -0.98594326
vn -0.0546173 0.15790151 -0.98594326
vn -0.0059666107 0.63921815 -0.7690024
vn -0.0059666107 0.63921815 -0.7690024
vn -0.0059666107 0.63921815 -0.7690024
vn 0 0.18457049 -0.9828193
vn 0 0.18457049 -0.9828193
vn 0 0.18457049 -0.9828193
vn 0 0.63691306 -0.77093565
vn 0 0.63691306 -0.77093565
vn 0 0.63691306 -0.77093565
vn 0.054617327 0.15790151 -0.98594326
vn 0.054617327 0.15790151 -0.98594326
vn 0.054617327 0.15790151 -0.98594326
vn 0.0059666135 0.639218 -0.7690024
vn 0.0059666135 0.639218 -0.7690024
vn 0.0059666135 0.639218 -0.7690024
vn 0.17023152 0.005814211 -0.98538697
vn 0.17023152 0.005814211 -0.98538697
vn 0.17023152 0.005814211 -0.98538697
vn 0.0128374025 0.6473294 -0.76210225
vn 0.0128374025 0.6473294 -0.76210225
vn 0.0128374025 0.6473294 -0.76210225
vn 0.48339716 -0.8663826 0.12533343
vn 0.48339716 -0.8663826 0.12533343
vn 0.48339716 -0.8663826 0.12533343
vn 0.022234071 0.6664628 -0.7452067
vn 0.022234071 0.6664628 -0.7452067
vn 0.022234071 0.6664628 -0.7452067
vn 0.14431773 -0.55013347 0.8225118
vn 0.14431773 -0.55013347 0.8225118
vn 0.14431773 -0.55013347 0.8225118
vn 0.038992472 0.715968 -0.6970433
vn 0.038992472 0.715968 -0.6970433
vn 0.038992472 0.715968 -0.6970433
vn 0.066659085 -0.46811527 0.88114965
vn 0.066659085 -0.46811527 0.88114965
vn 0.066659085 -0.46811527 0.88114965
vn 0.09117759 0.8980435 -0.43035406
vn 0.09117759 0.8980435 -0.43035406
vn 0.09117759 0.8980435 -0.43035406
vn 0.028521845 -0.44162318 0.8967471
vn 0.028521845 -0.44162318 0.8967471
vn 0.028521845 -0.44162318 0.8967471
vn 0.07393983 0.10930611 0.99125427
vn 0.07393983 0.10930611 0.99125427
vn 0.07393983 0.10930611 0.99125427
vn -1.6041561E-08 -0.43479466 0.90052956
vn -1.6041561E-08 -0.43479466 0.90052956
vn -1.6041561E-08 -0.43479466 0.90052956
vn -4.393405E-08 -0.19979928 0.9798369
vn -4.393405E-08 -0.19979928 0.9798369
vn -4.393405E-08 -0.19979928 0.9798369
vn -0.028521894 -0.44162324 0.89674723
vn -0.028521894 -0.44162324 0.89674723
vn -0.028521894 -0.44162324 0.89674723
vn -0.07394002 0.10930764 0.99125415
vn -0.07394002 0.10930764 0.99125415
vn -0.07394002 0.10930764 0.99125415
vn -0.0666591 -0.46811518 0.8811496
vn -0.0666591 -0.46811518 0.8811496
vn -0.0666591 -0.46811518 0.8811496
vn -0.09117754 0.89804345 -0.4303543
vn -0.09117754 0.89804345 -0.4303543
vn -0.09117754 0.89804345 -0.4303543
vn -0.14431782 -0.5501336 0.8225117
vn -0.14431782 -0.5501336 0.8225117
vn -0.14431782 -0.5501336 0.8225117
vn -0.038992506 0.7159682 -0.69704324
vn -0.038992506 0.7159682 -0.69704324
vn -0.038992506 0.7159682 -0.69704324
vn -0.4583803 -0.71395904 -0.5292919
vn -0.4583803 -0.71395904 -0.5292919
vn -0.4583803 -0.71395904 -0.5292919
vn 4.8740272E-08 -0.55915797 -0.8290611
vn 4.8740272E-08 -0.55915797 -0.8290611
vn 4.8740272E-08 -0.55915797 -0.8290611
vn 0.45838034 -0.713959 -0.52929187
vn 0.45838034 -0.713959 -0.52929187
vn 0.45838034 -0.713959 -0.52929187
vn 0.4583803 -0.71395904 0.52929205
vn 0.4583803 -0.71395904 0.52929205
vn 0.4583803 -0.71395904 0.52929205
vn -1.2185066E-07 -0.5591579 0.8290612
vn -1.2185066E-07 -0.5591579 0.8290612
vn -1.2185066E-07 -0.5591579 0.8290612
vn -0.45838043 -0.71395916 0.5292917
vn -0.45838043 -0.71395916 0.5292917
vn -0.45838043 -0.71395916 0.5292917
vn -0.4583803 -0.71395904 -0.529292
vn -0.4583803 -0.71395904 -0.529292
vn -0.4583803 -0.71395904 -0.529292
vn 0 -0.5591579 -0.8290611
vn 0 -0.5591579 -0.8290611
vn 0 -0.5591579 -0.8290611
vn 0.45838037 -0.7139591 -0.52929187
vn 0.45838037 -0.7139591 -0.52929187
vn 0.45838037 -0.7139591 -0.52929187
vn 0.45838025 -0.713959 0.529292
vn 0.45838025 -0.713959 0.529292
vn 0.45838025 -0.713959 0.529292
vn -9.748053E-08 -0.55915797 0.8290612
vn -9.748053E-08 -0.55915797 0.8290612
vn -9.748053E-08 -0.55915797 0.8290612
vn -0.45838043 -0.71395916 0.5292917
vn -0.45838043 -0.71395916 0.5292917
vn -0.45838043 -0.71395916 0.5292917
vn -0.4583804 -0.7139591 -0.52929187
vn -0.4583804 -0.7139591 -0.52929187
vn -0.4583804 -0.7139591 -0.52929187
vn 1.2185068E-07 -0.55915797 -0.82906115
vn 1.2185068E-07 -0.55915797 -0.82906115
vn 1.2185068E-07 -0.55915797 -0.82906115
vn 0.45838037 -0.71395904 -0.5292919
vn 0.45838037 -0.71395904 -0.5292919
vn 0.45838037 -0.71395904 -0.5292919
vn 0.45838028 -0.71395904 0.52929205
vn 0.45838028 -0.71395904 0.52929205
vn 0.45838028 -0.71395904 0.52929205
vn -1.2185066E-07 -0.5591579 0.8290612
vn -1.2185066E-07 -0.5591579 0.8290612
vn -1.2185066E-07 -0.5591579 0.8290612
vn -0.45838046 -0.71395916 0.52929175
vn -0.45838046 -0.71395916 0.52929175
vn -0.45838046 -0.71395916 0.52929175
vn 0 -0.7276358 0.68596363
vn 0 -0.7276358 0.68596363
vn 0 -0.7276358 0.68596363
vn 0.79617554 -0.5110708 -0.32390007
vn 0.79617554 -0.5110708 -0.32390007
vn 0.79617554 -0.5110708 -0.32390007
vn 0 -0.99790376 0.06471518
vn 0 -0.99790376 0.06471518
vn 0 -0.99790376 0.06471518
vn 0 -0.7463655 0.6655362
vn 0 -0.7463655 0.6655362
vn 0 -0.7463655 0.6655362
vn 0 -0.99790376 0.06471517
vn 0 -0.99790376 0.06471517
vn 0 -0.99790376 0.06471517
vn 0 -0.74636555 0.6655363
vn 0 -0.74636555 0.6655363
vn 0 -0.74636555 0.6655363
vn 0 -0.99790376 0.06471518
vn 0 -0.99790376 0.06471518
vn 0 -0.99790376 0.06471518
vn 0 -0.7463655 0.6655362
vn 0 -0.7463655 0.6655362
vn 0 -0.7463655 0.6655362
f 1//1 2//2 3//3
f 4//4 5//5 6//6
f 7//7 8//8 9//9
f 10//10 11//11 12//12
f 13//13 14//14 15//15
f 16//16 17//17 18//18
f 19//19 20//20 21//21
f 22//22 23//23 24//24
f 25//25 26//26 27//27
f 28//28 29//29 30//30
f 31//31 32//32 33//33
f 34//34 35//35 36//36
f 37//37 38//38 39//39
f 40//40 41//41 42//42
f 43//43 44//44 45//45
f 46//46 47//47 48//48
f 49//49 50//50 51//51
f 52//52 53//53 54//54
f 55//55 56//56 57//57
f 58//58 59//59 60//60
f 61//61 62//62 63//63
f 64//64 65//65 66//66
f 67//67 68//68 69//69
f 70//70 71//71 72//72
f 73//73 74//74 75//75
f 76//76 77//77 78//78
f 79//79 80//80 81//81
f 82//82 83//83 84//84
f 85//85 86//86 87//87
f 88//88 89//89 90//90
f 91//91 92//92 93//93
f 94//94 95//95 96//96
f 97//97 98//98 99//99
f 100//100 101//101 102//102
f 103//103 104//104 105//105
f 106//106 107//107 108//108
f 109//109 110//110 111//111
f 112//112 113//113 114//114
f 115//115 116//116 117//117
f 118//118 119//119 120//120
f 121//121 122//122 123//123
f 124//124 125//125 126//126
f 127//127 128//128 129//129
f 130//130 131//131 132//132
f 133//133 134//134 135//135
f 136//136 137//137 138//138
f 139//139 140//140 141//141
f 142//142 143//143 144//144
f 145//145 146//146 147//147
f 148//148 149//149 150//150
f 151//151 152//152 153//153
f 154//154 155//155 156//156
f 157//157 158//158 159//159
f 160//160 161//161 162//162
