# Exported from SharpOpenGl procedural mesh
o aetherian_cruiser_mk2_26
# vertices 144
v 2.0786605 0.46768296 0.35347462
v 1.6816716 0.6326212 0.55085343
v 0 1.5901221 0.88368654
v 2.0786605 0.46768296 0.35347462
v 0 0.09353659 0
v 1.6816716 0.6326212 0.55085343
v 1.6816716 0.6326212 0.55085343
v 0.6423414 0.7345587 0.67284024
v 0 1.5901221 0.88368654
v 1.6816716 0.6326212 0.55085343
v 0 0.09353659 0
v 0.6423414 0.7345587 0.67284024
v 0.6423414 0.7345587 0.67284024
v -0.6423415 0.7345587 0.67284024
v 0 1.5901221 0.88368654
v 0.6423414 0.7345587 0.67284024
v 0 0.09353659 0
v -0.6423415 0.7345587 0.67284024
v -0.6423415 0.7345587 0.67284024
v -1.6816719 0.6326212 0.55085343
v 0 1.5901221 0.88368654
v -0.6423415 0.7345587 0.67284024
v 0 0.09353659 0
v -1.6816719 0.6326212 0.55085343
v -1.6816719 0.6326212 0.55085343
v -2.0786605 0.46768293 0.3534746
v 0 1.5901221 0.88368654
v -1.6816719 0.6326212 0.55085343
v 0 0.09353659 0
v -2.0786605 0.46768293 0.3534746
v -2.0786605 0.46768293 0.3534746
v -1.6816715 0.30274463 0.15609576
v 0 1.5901221 0.88368654
v -2.0786605 0.46768293 0.3534746
v 0 0.09353659 0
v -1.6816715 0.30274463 0.15609576
v -1.6816715 0.30274463 0.15609576
v -0.6423407 0.20080718 0.034108967
v 0 1.5901221 0.88368654
v -1.6816715 0.30274463 0.15609576
v 0 0.09353659 0
v -0.6423407 0.20080718 0.034108967
v -0.6423407 0.20080718 0.034108967
v 0.6423417 0.20080721 0.034108996
v 0 1.5901221 0.88368654
v -0.6423407 0.20080718 0.034108967
v 0 0.09353659 0
v 0.6423417 0.20080721 0.034108996
v 0.6423417 0.20080721 0.034108996
v 1.6816715 0.30274466 0.15609579
v 0 1.5901221 0.88368654
v 0.6423417 0.20080721 0.034108996
v 0 0.09353659 0
v 1.6816715 0.30274466 0.15609579
v 1.6816715 0.30274466 0.15609579
v 2.0786605 0.46768302 0.35347468
v 0 1.5901221 0.88368654
v 1.6816715 0.30274466 0.15609579
v 0 0.09353659 0
v 2.0786605 0.46768302 0.35347468
v -1.880693 1.178561 -0.5302119
v -0.98983836 0.6547561 -0.5302119
v -1.4352657 0.6547561 -0.14446056
v -1.880693 1.178561 -0.5302119
v -1.4352657 0.6547561 -0.14446056
v -2.3261204 0.6547561 -0.14446059
v -1.880693 1.178561 -0.5302119
v -2.3261204 0.6547561 -0.14446059
v -2.7715476 0.6547561 -0.530212
v -1.880693 1.178561 -0.5302119
v -2.7715476 0.6547561 -0.530212
v -2.3261201 0.6547561 -0.9159633
v -1.880693 1.178561 -0.5302119
v -2.3261201 0.6547561 -0.9159633
v -1.4352653 0.6547561 -0.9159632
v -1.880693 1.178561 -0.5302119
v -1.4352653 0.6547561 -0.9159632
v -0.98983836 0.6547561 -0.53021187
v 0 1.178561 0.26510602
v 0.8908546 0.6547561 0.26510602
v 0.44542727 0.6547561 0.6508574
v 0 1.178561 0.26510602
v 0.44542727 0.6547561 0.6508574
v -0.44542736 0.6547561 0.6508573
v 0 1.178561 0.26510602
v -0.44542736 0.6547561 0.6508573
v -0.8908546 0.6547561 0.265106
v 0 1.178561 0.26510602
v -0.8908546 0.6547561 0.265106
v -0.4454272 0.6547561 -0.120645344
v 0 1.178561 0.26510602
v -0.4454272 0.6547561 -0.120645344
v 0.44542763 0.6547561 -0.120645255
v 0 1.178561 0.26510602
v 0.44542763 0.6547561 -0.120645255
v 0.8908546 0.6547561 0.2651061
v 1.880693 1.178561 1.060424
v 2.7715476 0.6547561 1.060424
v 2.3261201 0.6547561 1.4461753
v 1.880693 1.178561 1.060424
v 2.3261201 0.6547561 1.4461753
v 1.4352655 0.6547561 1.4461753
v 1.880693 1.178561 1.060424
v 1.4352655 0.6547561 1.4461753
v 0.98983836 0.6547561 1.060424
v 1.880693 1.178561 1.060424
v 0.98983836 0.6547561 1.060424
v 1.4352658 0.6547561 0.6746726
v 1.880693 1.178561 1.060424
v 1.4352658 0.6547561 0.6746726
v 2.3261206 0.6547561 0.6746727
v 1.880693 1.178561 1.060424
v 2.3261206 0.6547561 0.6746727
v 2.7715476 0.6547561 1.0604241
v 0 1.0289025 2.430138
v -1.0888222 0.37414637 1.5464514
v 1.0888222 0.37414637 1.5464514
v 0 1.0289025 2.430138
v 0 0.6547561 3.1812718
v -0.593903 0.46768296 1.8557417
v -1.9796767 0.11085818 -3.1129868
v -2.7432663 0 -4.792884
v -1.2160871 0 -4.792884
v -1.9796767 0.45729 -2.731192
v -2.4378304 0.11085818 -3.1129868
v -1.521523 0.11085818 -3.1129868
v -0.65989226 0.11085818 -3.1129868
v -1.423482 0 -4.792884
v 0.10369736 0 -4.792884
v -0.65989226 0.45729 -2.731192
v -1.118046 0.11085818 -3.1129868
v -0.20173848 0.11085818 -3.1129868
v 0.65989226 0.11085818 -3.1129868
v -0.10369736 0 -4.792884
v 1.423482 0 -4.792884
v 0.65989226 0.45729 -2.731192
v 0.20173848 0.11085818 -3.1129868
v 1.118046 0.11085818 -3.1129868
v 1.9796767 0.11085818 -3.1129868
v 1.2160871 0 -4.792884
v 2.7432663 0 -4.792884
v 1.9796767 0.45729 -2.731192
v 1.521523 0.11085818 -3.1129868
v 2.4378304 0.11085818 -3.1129868
vn -0.5125101 -0.763625 -0.39269596
vn -0.5125101 -0.763625 -0.39269596
vn -0.5125101 -0.763625 -0.39269596
vn -0.021062149 0.7459287 -0.6656927
vn -0.021062149 0.7459287 -0.6656927
vn -0.021062149 0.7459287 -0.6656927
vn -0.09868607 0.16764179 -0.9808962
vn -0.09868607 0.16764179 -0.9808962
vn -0.09868607 0.16764179 -0.9808962
vn -0.008998289 0.7282655 -0.685236
vn -0.008998289 0.7282655 -0.685236
vn -0.008998289 0.7282655 -0.685236
vn 0 0.23928234 -0.97095
vn 0 0.23928234 -0.97095
vn 0 0.23928234 -0.97095
vn 0 0.7240187 -0.68978035
vn 0 0.7240187 -0.68978035
vn 0 0.7240187 -0.68978035
vn 0.09868607 0.1676418 -0.98089623
vn 0.09868607 0.1676418 -0.98089623
vn 0.09868607 0.1676418 -0.98089623
vn 0.008998292 0.7282656 -0.685236
vn 0.008998292 0.7282656 -0.685236
vn 0.008998292 0.7282656 -0.685236
vn 0.51251024 -0.7636256 -0.39269468
vn 0.51251024 -0.7636256 -0.39269468
vn 0.51251024 -0.7636256 -0.39269468
vn 0.021062141 0.74592876 -0.6656927
vn 0.021062141 0.74592876 -0.6656927
vn 0.021062141 0.74592876 -0.6656927
vn 0.13244893 -0.6131587 0.7787771
vn 0.13244893 -0.6131587 0.7787771
vn 0.13244893 -0.6131587 0.7787771
vn 0.04669004 0.810722 -0.58356655
vn 0.04669004 0.810722 -0.58356655
vn 0.04669004 0.810722 -0.58356655
vn 0.04625983 -0.53661805 0.84255624
vn 0.04625983 -0.53661805 0.84255624
vn 0.04625983 -0.53661805 0.84255624
vn 0.1509789 0.6741857 0.7229655
vn 0.1509789 0.6741857 0.7229655
vn 0.1509789 0.6741857 0.7229655
vn -7.688681E-09 -0.5216967 0.85313106
vn -7.688681E-09 -0.5216967 0.85313106
vn -7.688681E-09 -0.5216967 0.85313106
vn -1.5077955E-08 -0.30302155 0.95298374
vn -1.5077955E-08 -0.30302155 0.95298374
vn -1.5077955E-08 -0.30302155 0.95298374
vn -0.046259865 -0.5366181 0.8425563
vn -0.046259865 -0.5366181 0.8425563
vn -0.046259865 -0.5366181 0.8425563
vn -0.150979 0.6741878 0.7229634
vn -0.150979 0.6741878 0.7229634
vn -0.150979 0.6741878 0.7229634
vn -0.13244894 -0.61315876 0.7787771
vn -0.13244894 -0.61315876 0.7787771
vn -0.13244894 -0.61315876 0.7787771
vn -0.046690024 0.810722 -0.5835666
vn -0.046690024 0.810722 -0.5835666
vn -0.046690024 0.810722 -0.5835666
vn -0.43744344 -0.74397653 -0.50511616
vn -0.43744344 -0.74397653 -0.50511616
vn -0.43744344 -0.74397653 -0.50511616
vn 2.5713009E-08 -0.5929896 -0.80521
vn 2.5713009E-08 -0.5929896 -0.80521
vn 2.5713009E-08 -0.5929896 -0.80521
vn 0.4374435 -0.74397653 -0.50511605
vn 0.4374435 -0.74397653 -0.50511605
vn 0.4374435 -0.74397653 -0.50511605
vn 0.43744338 -0.7439765 0.5051163
vn 0.43744338 -0.7439765 0.5051163
vn 0.43744338 -0.7439765 0.5051163
vn -1.0285203E-07 -0.5929896 0.8052101
vn -1.0285203E-07 -0.5929896 0.8052101
vn -1.0285203E-07 -0.5929896 0.8052101
vn -0.43744346 -0.74397653 0.50511587
vn -0.43744346 -0.74397653 0.50511587
vn -0.43744346 -0.74397653 0.50511587
vn -0.4374434 -0.7439764 -0.50511616
vn -0.4374434 -0.7439764 -0.50511616
vn -0.4374434 -0.7439764 -0.50511616
vn 5.1426024E-08 -0.5929897 -0.80521005
vn 5.1426024E-08 -0.5929897 -0.80521005
vn 5.1426024E-08 -0.5929897 -0.80521005
vn 0.43744346 -0.7439765 -0.50511616
vn 0.43744346 -0.7439765 -0.50511616
vn 0.43744346 -0.7439765 -0.50511616
vn 0.43744338 -0.7439764 0.5051162
vn 0.43744338 -0.7439764 0.5051162
vn 0.43744338 -0.7439764 0.5051162
vn -7.713902E-08 -0.5929897 0.8052101
vn -7.713902E-08 -0.5929897 0.8052101
vn -7.713902E-08 -0.5929897 0.8052101
vn -0.43744355 -0.74397653 0.50511587
vn -0.43744355 -0.74397653 0.50511587
vn -0.43744355 -0.74397653 0.50511587
vn -0.4374434 -0.7439764 -0.5051162
vn -0.4374434 -0.7439764 -0.5051162
vn -0.4374434 -0.7439764 -0.5051162
vn 0 -0.5929897 -0.80521
vn 0 -0.5929897 -0.80521
vn 0 -0.5929897 -0.80521
vn 0.43744344 -0.74397653 -0.50511605
vn 0.43744344 -0.74397653 -0.50511605
vn 0.43744344 -0.74397653 -0.50511605
vn 0.4374434 -0.7439764 0.5051162
vn 0.4374434 -0.7439764 0.5051162
vn 0.4374434 -0.7439764 0.5051162
vn -1.0285203E-07 -0.5929896 0.8052101
vn -1.0285203E-07 -0.5929896 0.8052101
vn -1.0285203E-07 -0.5929896 0.8052101
vn -0.43744355 -0.7439766 0.50511587
vn -0.43744355 -0.7439766 0.50511587
vn -0.43744355 -0.7439766 0.50511587
vn 0 -0.8034817 0.5953294
vn 0 -0.8034817 0.5953294
vn 0 -0.8034817 0.5953294
vn 0.78733665 -0.55185205 -0.2748824
vn 0.78733665 -0.55185205 -0.2748824
vn 0.78733665 -0.55185205 -0.2748824
vn 0 -0.9978296 0.06584784
vn 0 -0.9978296 0.06584784
vn 0 -0.9978296 0.06584784
vn 0 -0.74057144 0.67197764
vn 0 -0.74057144 0.67197764
vn 0 -0.74057144 0.67197764
vn 0 -0.9978297 0.06584784
vn 0 -0.9978297 0.06584784
vn 0 -0.9978297 0.06584784
vn 0 -0.7405714 0.67197764
vn 0 -0.7405714 0.67197764
vn 0 -0.7405714 0.67197764
vn 0 -0.9978297 0.06584784
vn 0 -0.9978297 0.06584784
vn 0 -0.9978297 0.06584784
vn 0 -0.7405714 0.67197764
vn 0 -0.7405714 0.67197764
vn 0 -0.7405714 0.67197764
vn 0 -0.9978296 0.06584784
vn 0 -0.9978296 0.06584784
vn 0 -0.9978296 0.06584784
vn 0 -0.74057144 0.67197764
vn 0 -0.74057144 0.67197764
vn 0 -0.74057144 0.67197764
f 1//1 2//2 3//3
f 4//4 5//5 6//6
f 7//7 8//8 9//9
f 10//10 11//11 12//12
f 13//13 14//14 15//15
f 16//16 17//17 18//18
f 19//19 20//20 21//21
f 22//22 23//23 24//24
f 25//25 26//26 27//27
f 28//28 29//29 30//30
f 31//31 32//32 33//33
f 34//34 35//35 36//36
f 37//37 38//38 39//39
f 40//40 41//41 42//42
f 43//43 44//44 45//45
f 46//46 47//47 48//48
f 49//49 50//50 51//51
f 52//52 53//53 54//54
f 55//55 56//56 57//57
f 58//58 59//59 60//60
f 61//61 62//62 63//63
f 64//64 65//65 66//66
f 67//67 68//68 69//69
f 70//70 71//71 72//72
f 73//73 74//74 75//75
f 76//76 77//77 78//78
f 79//79 80//80 81//81
f 82//82 83//83 84//84
f 85//85 86//86 87//87
f 88//88 89//89 90//90
f 91//91 92//92 93//93
f 94//94 95//95 96//96
f 97//97 98//98 99//99
f 100//100 101//101 102//102
f 103//103 104//104 105//105
f 106//106 107//107 108//108
f 109//109 110//110 111//111
f 112//112 113//113 114//114
f 115//115 116//116 117//117
f 118//118 119//119 120//120
f 121//121 122//122 123//123
f 124//124 125//125 126//126
f 127//127 128//128 129//129
f 130//130 131//131 132//132
f 133//133 134//134 135//135
f 136//136 137//137 138//138
f 139//139 140//140 141//141
f 142//142 143//143 144//144
