# Exported from SharpOpenGl procedural mesh
o aetherian_destroyer_ace_56
# vertices 144
v 1.5518278 0.32616106 0.39380676
v 1.255455 0.44118866 0.6137069
v 0 1.1089476 0.98451686
v 1.5518278 0.32616106 0.39380676
v 0 0.06523221 0
v 1.255455 0.44118866 0.6137069
v 1.255455 0.44118866 0.6137069
v 0.47954112 0.5122796 0.7496126
v 0 1.1089476 0.98451686
v 1.255455 0.44118866 0.6137069
v 0 0.06523221 0
v 0.47954112 0.5122796 0.7496126
v 0.47954112 0.5122796 0.7496126
v -0.4795412 0.5122796 0.74961257
v 0 1.1089476 0.98451686
v 0.47954112 0.5122796 0.7496126
v 0 0.06523221 0
v -0.4795412 0.5122796 0.74961257
v -0.4795412 0.5122796 0.74961257
v -1.2554551 0.44118863 0.6137068
v 0 1.1089476 0.98451686
v -0.4795412 0.5122796 0.74961257
v 0 0.06523221 0
v -1.2554551 0.44118863 0.6137068
v -1.2554551 0.44118863 0.6137068
v -1.5518278 0.32616103 0.39380673
v 0 1.1089476 0.98451686
v -1.2554551 0.44118863 0.6137068
v 0 0.06523221 0
v -1.5518278 0.32616103 0.39380673
v -1.5518278 0.32616103 0.39380673
v -1.255455 0.21113344 0.1739066
v 0 1.1089476 0.98451686
v -1.5518278 0.32616103 0.39380673
v 0 0.06523221 0
v -1.255455 0.21113344 0.1739066
v -1.255455 0.21113344 0.1739066
v -0.47954062 0.14004248 0.038000852
v 0 1.1089476 0.98451686
v -1.255455 0.21113344 0.1739066
v 0 0.06523221 0
v -0.47954062 0.14004248 0.038000852
v -0.47954062 0.14004248 0.038000852
v 0.47954136 0.1400425 0.03800091
v 0 1.1089476 0.98451686
v -0.47954062 0.14004248 0.038000852
v 0 0.06523221 0
v 0.47954136 0.1400425 0.03800091
v 0.47954136 0.1400425 0.03800091
v 1.255455 0.21113345 0.17390662
v 0 1.1089476 0.98451686
v 0.47954136 0.1400425 0.03800091
v 0 0.06523221 0
v 1.255455 0.21113345 0.17390662
v 1.255455 0.21113345 0.17390662
v 1.5518278 0.3261611 0.39380682
v 0 1.1089476 0.98451686
v 1.255455 0.21113345 0.17390662
v 0 0.06523221 0
v 1.5518278 0.3261611 0.39380682
v -1.4040347 0.8219259 -0.5907101
v -0.73896563 0.45662546 -0.5907101
v -1.0715002 0.45662546 -0.30272672
v -1.4040347 0.8219259 -0.5907101
v -1.0715002 0.45662546 -0.30272672
v -1.7365693 0.45662546 -0.30272675
v -1.4040347 0.8219259 -0.5907101
v -1.7365693 0.45662546 -0.30272675
v -2.0691037 0.45662546 -0.5907101
v -1.4040347 0.8219259 -0.5907101
v -2.0691037 0.45662546 -0.5907101
v -1.7365692 0.45662546 -0.87869346
v -1.4040347 0.8219259 -0.5907101
v -1.7365692 0.45662546 -0.87869346
v -1.0715 0.45662546 -0.8786934
v -1.4040347 0.8219259 -0.5907101
v -1.0715 0.45662546 -0.8786934
v -0.73896563 0.45662546 -0.59071004
v 0 0.8219259 0.29535514
v 0.6650691 0.45662546 0.29535514
v 0.33253452 0.45662546 0.5833385
v 0 0.8219259 0.29535514
v 0.33253452 0.45662546 0.5833385
v -0.33253458 0.45662546 0.5833385
v 0 0.8219259 0.29535514
v -0.33253458 0.45662546 0.5833385
v -0.6650691 0.45662546 0.2953551
v 0 0.8219259 0.29535514
v -0.6650691 0.45662546 0.2953551
v -0.3325345 0.45662546 0.0073717535
v 0 0.8219259 0.29535514
v -0.3325345 0.45662546 0.0073717535
v 0.3325348 0.45662546 0.007371843
v 0 0.8219259 0.29535514
v 0.3325348 0.45662546 0.007371843
v 0.6650691 0.45662546 0.2953552
v 1.4040347 0.8219259 1.1814203
v 2.0691037 0.45662546 1.1814203
v 1.7365693 0.45662546 1.4694037
v 1.4040347 0.8219259 1.1814203
v 1.7365693 0.45662546 1.4694037
v 1.0715002 0.45662546 1.4694037
v 1.4040347 0.8219259 1.1814203
v 1.0715002 0.45662546 1.4694037
v 0.73896563 0.45662546 1.1814203
v 1.4040347 0.8219259 1.1814203
v 0.73896563 0.45662546 1.1814203
v 1.0715003 0.45662546 0.8934369
v 1.4040347 0.8219259 1.1814203
v 1.0715003 0.45662546 0.8934369
v 1.7365695 0.45662546 0.893437
v 1.4040347 0.8219259 1.1814203
v 1.7365695 0.45662546 0.893437
v 2.0691037 0.45662546 1.1814203
v 0 0.71755433 2.7074215
v -0.8128622 0.26092884 1.7229046
v 0.8128622 0.26092884 1.7229046
v 0 0.71755433 2.7074215
v 0 0.45662546 3.544261
v -0.44337937 0.32616106 2.0674853
v -1.4779313 0.077312246 -3.4681845
v -2.005764 0 -4.6294165
v -0.95009863 0 -4.6294165
v -1.4779313 0.31891304 -3.2042682
v -1.7946309 0.077312246 -3.4681845
v -1.1612316 0.077312246 -3.4681845
v -0.49264377 0.077312246 -3.4681845
v -1.0204763 0 -4.6294165
v 0.035188854 0 -4.6294165
v -0.49264377 0.31891304 -3.2042682
v -0.80934334 0.077312246 -3.4681845
v -0.17594418 0.077312246 -3.4681845
v 0.49264377 0.077312246 -3.4681845
v -0.035188854 0 -4.6294165
v 1.0204763 0 -4.6294165
v 0.49264377 0.31891304 -3.2042682
v 0.17594418 0.077312246 -3.4681845
v 0.80934334 0.077312246 -3.4681845
v 1.4779313 0.077312246 -3.4681845
v 0.95009863 0 -4.6294165
v 2.005764 0 -4.6294165
v 1.4779313 0.31891304 -3.2042682
v 1.1612316 0.077312246 -3.4681845
v 1.7946309 0.077312246 -3.4681845
vn -0.5124768 -0.8173937 -0.26312548
vn -0.5124768 -0.8173937 -0.26312548
vn -0.5124768 -0.8173937 -0.26312548
vn -0.02302134 0.8727803 -0.4875701
vn -0.02302134 0.8727803 -0.4875701
vn -0.02302134 0.8727803 -0.4875701
vn -0.14334336 0.26066536 -0.95472836
vn -0.14334336 0.26066536 -0.95472836
vn -0.14334336 0.26066536 -0.95472836
vn -0.009944914 0.86160827 -0.50747645
vn -0.009944914 0.86160827 -0.50747645
vn -0.009944914 0.86160827 -0.50747645
vn 5.7827474E-08 0.36632636 -0.93048644
vn 5.7827474E-08 0.36632636 -0.93048644
vn 5.7827474E-08 0.36632636 -0.93048644
vn 3.183213E-08 0.8588648 -0.51220226
vn 3.183213E-08 0.8588648 -0.51220226
vn 3.183213E-08 0.8588648 -0.51220226
vn 0.14334331 0.26066545 -0.9547283
vn 0.14334331 0.26066545 -0.9547283
vn 0.14334331 0.26066545 -0.9547283
vn 0.009944889 0.86160827 -0.50747645
vn 0.009944889 0.86160827 -0.50747645
vn 0.009944889 0.86160827 -0.50747645
vn 0.5124768 -0.8173939 -0.2631251
vn 0.5124768 -0.8173939 -0.2631251
vn 0.5124768 -0.8173939 -0.2631251
vn 0.023021324 0.87278026 -0.48757014
vn 0.023021324 0.87278026 -0.48757014
vn 0.023021324 0.87278026 -0.48757014
vn 0.15601657 -0.77316904 0.6147101
vn 0.15601657 -0.77316904 0.6147101
vn 0.15601657 -0.77316904 0.6147101
vn 0.04899072 0.9106281 -0.41031277
vn 0.04899072 0.9106281 -0.41031277
vn 0.04899072 0.9106281 -0.41031277
vn 0.057339266 -0.712021 0.69981307
vn 0.057339266 -0.712021 0.69981307
vn 0.057339266 -0.712021 0.69981307
vn 0.17113143 0.8180357 0.54911894
vn 0.17113143 0.8180357 0.54911894
vn 0.17113143 0.8180357 0.54911894
vn -3.3598532E-08 -0.6987938 0.7153232
vn -3.3598532E-08 -0.6987938 0.7153232
vn -3.3598532E-08 -0.6987938 0.7153232
vn -4.8372467E-08 -0.45288453 0.89156926
vn -4.8372467E-08 -0.45288453 0.89156926
vn -4.8372467E-08 -0.45288453 0.89156926
vn -0.057339303 -0.71202105 0.6998131
vn -0.057339303 -0.71202105 0.6998131
vn -0.057339303 -0.71202105 0.6998131
vn -0.17113128 0.8180374 0.54911643
vn -0.17113128 0.8180374 0.54911643
vn -0.17113128 0.8180374 0.54911643
vn -0.15601657 -0.773169 0.61471003
vn -0.15601657 -0.773169 0.61471003
vn -0.15601657 -0.773169 0.61471003
vn -0.0489907 0.910628 -0.41031283
vn -0.0489907 0.910628 -0.41031283
vn -0.0489907 0.910628 -0.41031283
vn -0.42077956 -0.7660749 -0.48587433
vn -0.42077956 -0.7660749 -0.48587433
vn -0.42077956 -0.7660749 -0.48587433
vn 4.8166598E-08 -0.6190989 -0.785313
vn 4.8166598E-08 -0.6190989 -0.785313
vn 4.8166598E-08 -0.6190989 -0.785313
vn 0.42077965 -0.7660749 -0.48587433
vn 0.42077965 -0.7660749 -0.48587433
vn 0.42077965 -0.7660749 -0.48587433
vn 0.4207796 -0.76607484 0.48587444
vn 0.4207796 -0.76607484 0.48587444
vn 0.4207796 -0.76607484 0.48587444
vn -7.224989E-08 -0.61909884 0.78531307
vn -7.224989E-08 -0.61909884 0.78531307
vn -7.224989E-08 -0.61909884 0.78531307
vn -0.42077965 -0.76607496 0.48587415
vn -0.42077965 -0.76607496 0.48587415
vn -0.42077965 -0.76607496 0.48587415
vn -0.42077953 -0.76607484 -0.48587444
vn -0.42077953 -0.76607484 -0.48587444
vn -0.42077953 -0.76607484 -0.48587444
vn 0 -0.6190989 -0.78531307
vn 0 -0.6190989 -0.78531307
vn 0 -0.6190989 -0.78531307
vn 0.42077956 -0.7660749 -0.48587435
vn 0.42077956 -0.7660749 -0.48587435
vn 0.42077956 -0.7660749 -0.48587435
vn 0.42077953 -0.76607484 0.4858744
vn 0.42077953 -0.76607484 0.4858744
vn 0.42077953 -0.76607484 0.4858744
vn -1.2041647E-07 -0.6190989 0.78531307
vn -1.2041647E-07 -0.6190989 0.78531307
vn -1.2041647E-07 -0.6190989 0.78531307
vn -0.42077965 -0.76607496 0.48587415
vn -0.42077965 -0.76607496 0.48587415
vn -0.42077965 -0.76607496 0.48587415
vn -0.42077962 -0.7660749 -0.4858742
vn -0.42077962 -0.7660749 -0.4858742
vn -0.42077962 -0.7660749 -0.4858742
vn 0 -0.6190989 -0.7853129
vn 0 -0.6190989 -0.7853129
vn 0 -0.6190989 -0.7853129
vn 0.4207796 -0.76607496 -0.48587433
vn 0.4207796 -0.76607496 -0.48587433
vn 0.4207796 -0.76607496 -0.48587433
vn 0.42077953 -0.76607484 0.48587444
vn 0.42077953 -0.76607484 0.48587444
vn 0.42077953 -0.76607484 0.48587444
vn -1.4449978E-07 -0.61909884 0.78531307
vn -1.4449978E-07 -0.61909884 0.78531307
vn -1.4449978E-07 -0.61909884 0.78531307
vn -0.4207797 -0.766075 0.48587415
vn -0.4207797 -0.766075 0.48587415
vn -0.4207797 -0.766075 0.48587415
vn 0 -0.9071749 0.42075375
vn 0 -0.9071749 0.42075375
vn 0 -0.9071749 0.42075375
vn 0.7862327 -0.58991927 -0.18393849
vn 0.7862327 -0.58991927 -0.18393849
vn 0.7862327 -0.58991927 -0.18393849
vn 0 -0.99779105 0.06643071
vn 0 -0.99779105 0.06643071
vn 0 -0.99779105 0.06643071
vn 0 -0.7376029 0.67523485
vn 0 -0.7376029 0.67523485
vn 0 -0.7376029 0.67523485
vn 0 -0.997791 0.0664307
vn 0 -0.997791 0.0664307
vn 0 -0.997791 0.0664307
vn 0 -0.73760283 0.6752348
vn 0 -0.73760283 0.6752348
vn 0 -0.73760283 0.6752348
vn 0 -0.997791 0.0664307
vn 0 -0.997791 0.0664307
vn 0 -0.997791 0.0664307
vn 0 -0.73760283 0.6752348
vn 0 -0.73760283 0.6752348
vn 0 -0.73760283 0.6752348
vn 0 -0.99779105 0.06643071
vn 0 -0.99779105 0.06643071
vn 0 -0.99779105 0.06643071
vn 0 -0.7376029 0.67523485
vn 0 -0.7376029 0.67523485
vn 0 -0.7376029 0.67523485
f 1//1 2//2 3//3
f 4//4 5//5 6//6
f 7//7 8//8 9//9
f 10//10 11//11 12//12
f 13//13 14//14 15//15
f 16//16 17//17 18//18
f 19//19 20//20 21//21
f 22//22 23//23 24//24
f 25//25 26//26 27//27
f 28//28 29//29 30//30
f 31//31 32//32 33//33
f 34//34 35//35 36//36
f 37//37 38//38 39//39
f 40//40 41//41 42//42
f 43//43 44//44 45//45
f 46//46 47//47 48//48
f 49//49 50//50 51//51
f 52//52 53//53 54//54
f 55//55 56//56 57//57
f 58//58 59//59 60//60
f 61//61 62//62 63//63
f 64//64 65//65 66//66
f 67//67 68//68 69//69
f 70//70 71//71 72//72
f 73//73 74//74 75//75
f 76//76 77//77 78//78
f 79//79 80//80 81//81
f 82//82 83//83 84//84
f 85//85 86//86 87//87
f 88//88 89//89 90//90
f 91//91 92//92 93//93
f 94//94 95//95 96//96
f 97//97 98//98 99//99
f 100//100 101//101 102//102
f 103//103 104//104 105//105
f 106//106 107//107 108//108
f 109//109 110//110 111//111
f 112//112 113//113 114//114
f 115//115 116//116 117//117
f 118//118 119//119 120//120
f 121//121 122//122 123//123
f 124//124 125//125 126//126
f 127//127 128//128 129//129
f 130//130 131//131 132//132
f 133//133 134//134 135//135
f 136//136 137//137 138//138
f 139//139 140//140 141//141
f 142//142 143//143 144//144
