# Exported from SharpOpenGl procedural mesh
o aetherian_fighter_mk3_35
# vertices 144
v 0.75382525 0.14850025 0.1578058
v 0.60985744 0.200872 0.24592394
v 0 0.5049009 0.3945145
v 0.75382525 0.14850025 0.1578058
v 0 0.02970005 0
v 0.60985744 0.200872 0.24592394
v 0.60985744 0.200872 0.24592394
v 0.2329448 0.23323953 0.30038393
v 0 0.5049009 0.3945145
v 0.60985744 0.200872 0.24592394
v 0 0.02970005 0
v 0.2329448 0.23323953 0.30038393
v 0.2329448 0.23323953 0.30038393
v -0.23294485 0.23323953 0.30038393
v 0 0.5049009 0.3945145
v 0.2329448 0.23323953 0.30038393
v 0 0.02970005 0
v -0.23294485 0.23323953 0.30038393
v -0.23294485 0.23323953 0.30038393
v -0.6098575 0.200872 0.24592392
v 0 0.5049009 0.3945145
v -0.23294485 0.23323953 0.30038393
v 0 0.02970005 0
v -0.6098575 0.200872 0.24592392
v -0.6098575 0.200872 0.24592392
v -0.75382525 0.14850023 0.15780579
v 0 0.5049009 0.3945145
v -0.6098575 0.200872 0.24592392
v 0 0.02970005 0
v -0.75382525 0.14850023 0.15780579
v -0.75382525 0.14850023 0.15780579
v -0.6098574 0.09612848 0.06968765
v 0 0.5049009 0.3945145
v -0.75382525 0.14850023 0.15780579
v 0 0.02970005 0
v -0.6098574 0.09612848 0.06968765
v -0.6098574 0.09612848 0.06968765
v -0.23294455 0.06376096 0.015227661
v 0 0.5049009 0.3945145
v -0.6098574 0.09612848 0.06968765
v 0 0.02970005 0
v -0.23294455 0.06376096 0.015227661
v -0.23294455 0.06376096 0.015227661
v 0.2329449 0.06376097 0.015227675
v 0 0.5049009 0.3945145
v -0.23294455 0.06376096 0.015227661
v 0 0.02970005 0
v 0.2329449 0.06376097 0.015227675
v 0.2329449 0.06376097 0.015227675
v 0.6098574 0.09612849 0.069687665
v 0 0.5049009 0.3945145
v 0.2329449 0.06376097 0.015227675
v 0 0.02970005 0
v 0.6098574 0.09612849 0.069687665
v 0.6098574 0.09612849 0.069687665
v 0.75382525 0.14850026 0.15780583
v 0 0.5049009 0.3945145
v 0.6098574 0.09612849 0.069687665
v 0 0.02970005 0
v 0.75382525 0.14850026 0.15780583
v -0.6820324 0.3742206 -0.2367087
v -0.3589644 0.20790035 -0.2367087
v -0.5204984 0.20790035 -0.09681615
v -0.6820324 0.3742206 -0.2367087
v -0.5204984 0.20790035 -0.09681615
v -0.8435664 0.20790035 -0.09681615
v -0.6820324 0.3742206 -0.2367087
v -0.8435664 0.20790035 -0.09681615
v -1.0051004 0.20790035 -0.23670872
v -0.6820324 0.3742206 -0.2367087
v -1.0051004 0.20790035 -0.23670872
v -0.84356636 0.20790035 -0.37660125
v -0.6820324 0.3742206 -0.2367087
v -0.84356636 0.20790035 -0.37660125
v -0.5204983 0.20790035 -0.37660122
v -0.6820324 0.3742206 -0.2367087
v -0.5204983 0.20790035 -0.37660122
v -0.3589644 0.20790035 -0.23670867
v 0 0.3742206 0.11835438
v 0.323068 0.20790035 0.11835438
v 0.16153398 0.20790035 0.25824693
v 0 0.3742206 0.11835438
v 0.16153398 0.20790035 0.25824693
v -0.16153401 0.20790035 0.25824693
v 0 0.3742206 0.11835438
v -0.16153401 0.20790035 0.25824693
v -0.323068 0.20790035 0.118354365
v 0 0.3742206 0.11835438
v -0.323068 0.20790035 0.118354365
v -0.16153397 0.20790035 -0.021538168
v 0 0.3742206 0.11835438
v -0.16153397 0.20790035 -0.021538168
v 0.16153412 0.20790035 -0.021538138
v 0 0.3742206 0.11835438
v 0.16153412 0.20790035 -0.021538138
v 0.323068 0.20790035 0.11835441
v 0.6820324 0.3742206 0.47341746
v 1.0051004 0.20790035 0.47341746
v 0.8435664 0.20790035 0.61331
v 0.6820324 0.3742206 0.47341746
v 0.8435664 0.20790035 0.61331
v 0.5204984 0.20790035 0.61331
v 0.6820324 0.3742206 0.47341746
v 0.5204984 0.20790035 0.61331
v 0.3589644 0.20790035 0.47341746
v 0.6820324 0.3742206 0.47341746
v 0.3589644 0.20790035 0.47341746
v 0.52049845 0.20790035 0.3335249
v 0.6820324 0.3742206 0.47341746
v 0.52049845 0.20790035 0.3335249
v 0.84356654 0.20790035 0.33352494
v 0.6820324 0.3742206 0.47341746
v 0.84356654 0.20790035 0.33352494
v 1.0051004 0.20790035 0.4734175
v 0 0.32670057 1.0849149
v -0.39486086 0.1188002 0.69040036
v 0.39486086 0.1188002 0.69040036
v 0 0.32670057 1.0849149
v 0 0.20790035 1.4202523
v -0.21537864 0.14850025 0.8284804
v -0.7179288 0.03520006 -1.389767
v -0.89228296 0 -1.7733462
v -0.5435747 0 -1.7733462
v -0.7179288 0.14520025 -1.30259
v -0.8225413 0.03520006 -1.389767
v -0.61331636 0.03520006 -1.389767
v -0.23930962 0.03520006 -1.389767
v -0.41366377 0 -1.7733462
v -0.06495547 0 -1.7733462
v -0.23930962 0.14520025 -1.30259
v -0.3439221 0.03520006 -1.389767
v -0.13469714 0.03520006 -1.389767
v 0.23930962 0.03520006 -1.389767
v 0.06495547 0 -1.7733462
v 0.41366377 0 -1.7733462
v 0.23930962 0.14520025 -1.30259
v 0.13469714 0.03520006 -1.389767
v 0.3439221 0.03520006 -1.389767
v 0.7179288 0.03520006 -1.389767
v 0.5435747 0 -1.7733462
v 0.89228296 0 -1.7733462
v 0.7179288 0.14520025 -1.30259
v 0.61331636 0.03520006 -1.389767
v 0.8225413 0.03520006 -1.389767
vn -0.48318434 -0.8222466 -0.30073825
vn -0.48318434 -0.8222466 -0.30073825
vn -0.48318434 -0.8222466 -0.30073825
vn -0.0208684 0.8441028 -0.5357753
vn -0.0208684 0.8441028 -0.5357753
vn -0.0208684 0.8441028 -0.5357753
vn -0.119562164 0.23197003 -0.96534705
vn -0.119562164 0.23197003 -0.96534705
vn -0.119562164 0.23197003 -0.96534705
vn -0.008990431 0.83104056 -0.5561392
vn -0.008990431 0.83104056 -0.5561392
vn -0.008990431 0.83104056 -0.5561392
vn 0 0.32740235 -0.9448849
vn 0 0.32740235 -0.9448849
vn 0 0.32740235 -0.9448849
vn 0 0.8278501 -0.5609493
vn 0 0.8278501 -0.5609493
vn 0 0.8278501 -0.5609493
vn 0.1195622 0.23196995 -0.96534705
vn 0.1195622 0.23196995 -0.96534705
vn 0.1195622 0.23196995 -0.96534705
vn 0.008990455 0.83104056 -0.5561392
vn 0.008990455 0.83104056 -0.5561392
vn 0.008990455 0.83104056 -0.5561392
vn 0.4831843 -0.8222469 -0.30073747
vn 0.4831843 -0.8222469 -0.30073747
vn 0.4831843 -0.8222469 -0.30073747
vn 0.020868365 0.8441026 -0.5357753
vn 0.020868365 0.8441026 -0.5357753
vn 0.020868365 0.8441026 -0.5357753
vn 0.13898498 -0.7348584 0.66382694
vn 0.13898498 -0.7348584 0.66382694
vn 0.13898498 -0.7348584 0.66382694
vn 0.0448392 0.88923585 -0.45524615
vn 0.0448392 0.88923585 -0.45524615
vn 0.0448392 0.88923585 -0.45524615
vn 0.050288606 -0.66625786 0.7440239
vn 0.050288606 -0.66625786 0.7440239
vn 0.050288606 -0.66625786 0.7440239
vn 0.15404524 0.7856391 0.5992005
vn 0.15404524 0.7856391 0.5992005
vn 0.15404524 0.7856391 0.5992005
vn -3.4005017E-09 -0.65194684 0.7582646
vn -3.4005017E-09 -0.65194684 0.7582646
vn -3.4005017E-09 -0.65194684 0.7582646
vn -1.6145018E-08 -0.40814024 0.9129193
vn -1.6145018E-08 -0.40814024 0.9129193
vn -1.6145018E-08 -0.40814024 0.9129193
vn -0.050288644 -0.66625786 0.74402386
vn -0.050288644 -0.66625786 0.74402386
vn -0.050288644 -0.66625786 0.74402386
vn -0.15404524 0.785641 0.59919804
vn -0.15404524 0.785641 0.59919804
vn -0.15404524 0.785641 0.59919804
vn -0.13898501 -0.7348585 0.66382694
vn -0.13898501 -0.7348585 0.66382694
vn -0.13898501 -0.7348585 0.66382694
vn -0.044839203 0.8892359 -0.4552461
vn -0.044839203 0.8892359 -0.4552461
vn -0.044839203 0.8892359 -0.4552461
vn -0.40467504 -0.7860591 -0.46727842
vn -0.40467504 -0.7860591 -0.46727842
vn -0.40467504 -0.7860591 -0.46727842
vn 0 -0.643687 -0.76528883
vn 0 -0.643687 -0.76528883
vn 0 -0.643687 -0.76528883
vn 0.40467507 -0.7860591 -0.46727833
vn 0.40467507 -0.7860591 -0.46727833
vn 0.40467507 -0.7860591 -0.46727833
vn 0.404675 -0.78605896 0.46727854
vn 0.404675 -0.78605896 0.46727854
vn 0.404675 -0.78605896 0.46727854
vn -7.958616E-08 -0.643687 0.76528883
vn -7.958616E-08 -0.643687 0.76528883
vn -7.958616E-08 -0.643687 0.76528883
vn -0.4046752 -0.7860592 0.46727824
vn -0.4046752 -0.7860592 0.46727824
vn -0.4046752 -0.7860592 0.46727824
vn -0.40467504 -0.7860591 -0.4672785
vn -0.40467504 -0.7860591 -0.4672785
vn -0.40467504 -0.7860591 -0.4672785
vn 0 -0.64368707 -0.7652888
vn 0 -0.64368707 -0.7652888
vn 0 -0.64368707 -0.7652888
vn 0.40467507 -0.78605914 -0.46727842
vn 0.40467507 -0.78605914 -0.46727842
vn 0.40467507 -0.78605914 -0.46727842
vn 0.404675 -0.786059 0.46727854
vn 0.404675 -0.786059 0.46727854
vn 0.404675 -0.786059 0.46727854
vn -7.958616E-08 -0.643687 0.76528883
vn -7.958616E-08 -0.643687 0.76528883
vn -7.958616E-08 -0.643687 0.76528883
vn -0.4046752 -0.7860592 0.46727827
vn -0.4046752 -0.7860592 0.46727827
vn -0.4046752 -0.7860592 0.46727827
vn -0.40467507 -0.7860591 -0.4672785
vn -0.40467507 -0.7860591 -0.4672785
vn -0.40467507 -0.7860591 -0.4672785
vn 0 -0.643687 -0.7652889
vn 0 -0.643687 -0.7652889
vn 0 -0.643687 -0.7652889
vn 0.40467504 -0.7860591 -0.4672785
vn 0.40467504 -0.7860591 -0.4672785
vn 0.40467504 -0.7860591 -0.4672785
vn 0.404675 -0.786059 0.46727854
vn 0.404675 -0.786059 0.46727854
vn 0.404675 -0.786059 0.46727854
vn -7.958616E-08 -0.643687 0.76528883
vn -7.958616E-08 -0.643687 0.76528883
vn -7.958616E-08 -0.643687 0.76528883
vn -0.4046752 -0.78605914 0.46727818
vn -0.4046752 -0.78605914 0.46727818
vn -0.4046752 -0.78605914 0.46727818
vn 0 -0.8846768 0.46620494
vn 0 -0.8846768 0.46620494
vn 0 -0.8846768 0.46620494
vn 0.7622123 -0.6101681 -0.2161647
vn 0.7622123 -0.6101681 -0.2161647
vn 0.7622123 -0.6101681 -0.2161647
vn 0 -0.9958158 0.09138343
vn 0 -0.9958158 0.09138343
vn 0 -0.9958158 0.09138343
vn 0 -0.6211126 0.7837213
vn 0 -0.6211126 0.7837213
vn 0 -0.6211126 0.7837213
vn 0 -0.9958159 0.09138343
vn 0 -0.9958159 0.09138343
vn 0 -0.9958159 0.09138343
vn 0 -0.6211125 0.78372127
vn 0 -0.6211125 0.78372127
vn 0 -0.6211125 0.78372127
vn 0 -0.9958159 0.09138343
vn 0 -0.9958159 0.09138343
vn 0 -0.9958159 0.09138343
vn 0 -0.6211125 0.78372127
vn 0 -0.6211125 0.78372127
vn 0 -0.6211125 0.78372127
vn 0 -0.9958158 0.09138343
vn 0 -0.9958158 0.09138343
vn 0 -0.9958158 0.09138343
vn 0 -0.6211126 0.7837213
vn 0 -0.6211126 0.7837213
vn 0 -0.6211126 0.7837213
f 1//1 2//2 3//3
f 4//4 5//5 6//6
f 7//7 8//8 9//9
f 10//10 11//11 12//12
f 13//13 14//14 15//15
f 16//16 17//17 18//18
f 19//19 20//20 21//21
f 22//22 23//23 24//24
f 25//25 26//26 27//27
f 28//28 29//29 30//30
f 31//31 32//32 33//33
f 34//34 35//35 36//36
f 37//37 38//38 39//39
f 40//40 41//41 42//42
f 43//43 44//44 45//45
f 46//46 47//47 48//48
f 49//49 50//50 51//51
f 52//52 53//53 54//54
f 55//55 56//56 57//57
f 58//58 59//59 60//60
f 61//61 62//62 63//63
f 64//64 65//65 66//66
f 67//67 68//68 69//69
f 70//70 71//71 72//72
f 73//73 74//74 75//75
f 76//76 77//77 78//78
f 79//79 80//80 81//81
f 82//82 83//83 84//84
f 85//85 86//86 87//87
f 88//88 89//89 90//90
f 91//91 92//92 93//93
f 94//94 95//95 96//96
f 97//97 98//98 99//99
f 100//100 101//101 102//102
f 103//103 104//104 105//105
f 106//106 107//107 108//108
f 109//109 110//110 111//111
f 112//112 113//113 114//114
f 115//115 116//116 117//117
f 118//118 119//119 120//120
f 121//121 122//122 123//123
f 124//124 125//125 126//126
f 127//127 128//128 129//129
f 130//130 131//131 132//132
f 133//133 134//134 135//135
f 136//136 137//137 138//138
f 139//139 140//140 141//141
f 142//142 143//143 144//144
