# Exported from SharpOpenGl procedural mesh
o aetherian_carrier_bulwark_58
# vertices 168
v 2.7515373 0.4867878 0.32299873
v 2.4790494 0.6135134 0.45613545
v 0 1.6550785 0.8074968
v 2.7515373 0.4867878 0.32299873
v 0 0.09735756 0
v 2.4790494 0.6135134 0.45613545
v 2.4790494 0.6135134 0.45613545
v 1.7155554 0.7151394 0.5629028
v 0 1.6550785 0.8074968
v 2.4790494 0.6135134 0.45613545
v 0 0.09735756 0
v 1.7155554 0.7151394 0.5629028
v 1.7155554 0.7151394 0.5629028
v 0.61227477 0.7715376 0.6221542
v 0 1.6550785 0.8074968
v 1.7155554 0.7151394 0.5629028
v 0 0.09735756 0
v 0.61227477 0.7715376 0.6221542
v 0.61227477 0.7715376 0.6221542
v -0.6122747 0.7715376 0.6221542
v 0 1.6550785 0.8074968
v 0.61227477 0.7715376 0.6221542
v 0 0.09735756 0
v -0.6122747 0.7715376 0.6221542
v -0.6122747 0.7715376 0.6221542
v -1.7155559 0.7151394 0.56290275
v 0 1.6550785 0.8074968
v -0.6122747 0.7715376 0.6221542
v 0 0.09735756 0
v -1.7155559 0.7151394 0.56290275
v -1.7155559 0.7151394 0.56290275
v -2.4790494 0.6135134 0.45613545
v 0 1.6550785 0.8074968
v -1.7155559 0.7151394 0.56290275
v 0 0.09735756 0
v -2.4790494 0.6135134 0.45613545
v -2.4790494 0.6135134 0.45613545
v -2.7515373 0.48678777 0.3229987
v 0 1.6550785 0.8074968
v -2.4790494 0.6135134 0.45613545
v 0 0.09735756 0
v -2.7515373 0.48678777 0.3229987
v -2.7515373 0.48678777 0.3229987
v -2.4790494 0.36006218 0.18986203
v 0 1.6550785 0.8074968
v -2.7515373 0.48678777 0.3229987
v 0 0.09735756 0
v -2.4790494 0.36006218 0.18986203
v -2.4790494 0.36006218 0.18986203
v -1.715555 0.25843614 0.08309464
v 0 1.6550785 0.8074968
v -2.4790494 0.36006218 0.18986203
v 0 0.09735756 0
v -1.715555 0.25843614 0.08309464
v -1.715555 0.25843614 0.08309464
v -0.6122736 0.20203796 0.023843259
v 0 1.6550785 0.8074968
v -1.715555 0.25843614 0.08309464
v 0 0.09735756 0
v -0.6122736 0.20203796 0.023843259
v -0.6122736 0.20203796 0.023843259
v 0.6122762 0.20203802 0.023843318
v 0 1.6550785 0.8074968
v -0.6122736 0.20203796 0.023843259
v 0 0.09735756 0
v 0.6122762 0.20203802 0.023843318
v 0.6122762 0.20203802 0.023843318
v 1.7155551 0.25843614 0.08309464
v 0 1.6550785 0.8074968
v 0.6122762 0.20203802 0.023843318
v 0 0.09735756 0
v 1.7155551 0.25843614 0.08309464
v 1.7155551 0.25843614 0.08309464
v 2.4790494 0.36006218 0.18986203
v 0 1.6550785 0.8074968
v 1.7155551 0.25843614 0.08309464
v 0 0.09735756 0
v 2.4790494 0.36006218 0.18986203
v 2.4790494 0.36006218 0.18986203
v 2.7515373 0.48678786 0.3229988
v 0 1.6550785 0.8074968
v 2.4790494 0.36006218 0.18986203
v 0 0.09735756 0
v 2.7515373 0.48678786 0.3229988
v -2.4894862 1.2267052 -0.48449808
v -1.3102559 0.6815029 -0.48449808
v -1.8998711 0.6815029 0.026123643
v -2.4894862 1.2267052 -0.48449808
v -1.8998711 0.6815029 0.026123643
v -3.0791016 0.6815029 0.026123643
v -2.4894862 1.2267052 -0.48449808
v -3.0791016 0.6815029 0.026123643
v -3.6687164 0.6815029 -0.48449814
v -2.4894862 1.2267052 -0.48449808
v -3.6687164 0.6815029 -0.48449814
v -3.0791013 0.6815029 -0.9951198
v -2.4894862 1.2267052 -0.48449808
v -3.0791013 0.6815029 -0.9951198
v -1.8998706 0.6815029 -0.9951197
v -2.4894862 1.2267052 -0.48449808
v -1.8998706 0.6815029 -0.9951197
v -1.3102559 0.6815029 -0.484498
v 0 1.2267052 0.24224907
v 1.1792303 0.6815029 0.24224907
v 0.5896151 0.6815029 0.7528708
v 0 1.2267052 0.24224907
v 0.5896151 0.6815029 0.7528708
v -0.5896152 0.6815029 0.7528708
v 0 1.2267052 0.24224907
v -0.5896152 0.6815029 0.7528708
v -1.1792303 0.6815029 0.24224903
v 0 1.2267052 0.24224907
v -1.1792303 0.6815029 0.24224903
v -0.58961505 0.6815029 -0.26837265
v 0 1.2267052 0.24224907
v -0.58961505 0.6815029 -0.26837265
v 0.5896156 0.6815029 -0.26837254
v 0 1.2267052 0.24224907
v 0.5896156 0.6815029 -0.26837254
v 1.1792303 0.6815029 0.24224918
v 2.4894862 1.2267052 0.9689962
v 3.6687164 0.6815029 0.9689962
v 3.0791013 0.6815029 1.479618
v 2.4894862 1.2267052 0.9689962
v 3.0791013 0.6815029 1.479618
v 1.899871 0.6815029 1.479618
v 2.4894862 1.2267052 0.9689962
v 1.899871 0.6815029 1.479618
v 1.3102559 0.6815029 0.96899617
v 2.4894862 1.2267052 0.9689962
v 1.3102559 0.6815029 0.96899617
v 1.8998711 0.6815029 0.4583745
v 2.4894862 1.2267052 0.9689962
v 1.8998711 0.6815029 0.4583745
v 3.0791018 0.6815029 0.45837462
v 2.4894862 1.2267052 0.9689962
v 3.0791018 0.6815029 0.45837462
v 3.6687164 0.6815029 0.96899635
v 0 1.0709332 2.2206163
v -1.4412814 0.38943025 1.4131194
v 1.4412814 0.38943025 1.4131194
v 0 1.0709332 2.2206163
v 0 0.6815029 2.9069886
v -0.78615355 0.4867878 1.6957433
v -2.6205118 0.11538673 -2.8445911
v -3.6687164 0 -5.1506414
v -1.5723071 0 -5.1506414
v -2.6205118 0.47597027 -2.320489
v -3.2494345 0.11538673 -2.8445911
v -1.991589 0.11538673 -2.8445911
v -0.873504 0.11538673 -2.8445911
v -1.9217086 0 -5.1506414
v 0.17470068 0 -5.1506414
v -0.873504 0.47597027 -2.320489
v -1.5024269 0.11538673 -2.8445911
v -0.24458116 0.11538673 -2.8445911
v 0.873504 0.11538673 -2.8445911
v -0.17470068 0 -5.1506414
v 1.9217086 0 -5.1506414
v 0.873504 0.47597027 -2.320489
v 0.24458116 0.11538673 -2.8445911
v 1.5024269 0.11538673 -2.8445911
v 2.6205118 0.11538673 -2.8445911
v 1.5723071 0 -5.1506414
v 3.6687164 0 -5.1506414
v 2.6205118 0.47597027 -2.320489
v 1.991589 0.11538673 -2.8445911
v 3.2494345 0.11538673 -2.8445911
vn -0.37016004 -0.92127407 0.119312674
vn -0.37016004 -0.92127407 0.119312674
vn -0.37016004 -0.92127407 0.119312674
vn -0.016976606 0.70664597 -0.7073636
vn -0.016976606 0.70664597 -0.7073636
vn -0.016976606 0.70664597 -0.7073636
vn -0.13763765 0.006527903 -0.99046123
vn -0.13763765 0.006527903 -0.99046123
vn -0.13763765 0.006527903 -0.99046123
vn -0.009829007 0.6882565 -0.72540087
vn -0.009829007 0.6882565 -0.72540087
vn -0.009829007 0.6882565 -0.72540087
vn -0.043821428 0.17592865 -0.98342705
vn -0.043821428 0.17592865 -0.98342705
vn -0.043821428 0.17592865 -0.98342705
vn -0.0045735585 0.68041545 -0.73281235
vn -0.0045735585 0.68041545 -0.73281235
vn -0.0045735585 0.68041545 -0.73281235
vn 0 0.20530401 -0.97869825
vn 0 0.20530401 -0.97869825
vn 0 0.20530401 -0.97869825
vn 0 0.6781825 -0.7348935
vn 0 0.6781825 -0.7348935
vn 0 0.6781825 -0.7348935
vn 0.043821458 0.17592865 -0.9834271
vn 0.043821458 0.17592865 -0.9834271
vn 0.043821458 0.17592865 -0.9834271
vn 0.0045735915 0.68041545 -0.7328123
vn 0.0045735915 0.68041545 -0.7328123
vn 0.0045735915 0.68041545 -0.7328123
vn 0.13763765 0.006527881 -0.99046105
vn 0.13763765 0.006527881 -0.99046105
vn 0.13763765 0.006527881 -0.99046105
vn 0.009828975 0.68825644 -0.72540087
vn 0.009828975 0.68825644 -0.72540087
vn 0.009828975 0.68825644 -0.72540087
vn 0.37016007 -0.92127407 0.11931274
vn 0.37016007 -0.92127407 0.11931274
vn 0.37016007 -0.92127407 0.11931274
vn 0.01697661 0.7066461 -0.7073636
vn 0.01697661 0.7066461 -0.7073636
vn 0.01697661 0.7066461 -0.7073636
vn 0.11235107 -0.59472907 0.7960367
vn 0.11235107 -0.59472907 0.7960367
vn 0.11235107 -0.59472907 0.7960367
vn 0.029552253 0.7535246 -0.65675527
vn 0.029552253 0.7535246 -0.65675527
vn 0.029552253 0.7535246 -0.65675527
vn 0.052260093 -0.50963247 0.85880363
vn 0.052260093 -0.50963247 0.85880363
vn 0.052260093 -0.50963247 0.85880363
vn 0.06703998 0.91693133 -0.39337346
vn 0.06703998 0.91693133 -0.39337346
vn 0.06703998 0.91693133 -0.39337346
vn 0.022410823 -0.48186514 0.8759587
vn 0.022410823 -0.48186514 0.8759587
vn 0.022410823 -0.48186514 0.8759587
vn 0.059445795 0.12203348 0.9907442
vn 0.059445795 0.12203348 0.9907442
vn 0.059445795 0.12203348 0.9907442
vn -1.9736163E-08 -0.47468528 0.8801556
vn -1.9736163E-08 -0.47468528 0.8801556
vn -1.9736163E-08 -0.47468528 0.8801556
vn -3.6649325E-08 -0.22208413 0.9750275
vn -3.6649325E-08 -0.22208413 0.9750275
vn -3.6649325E-08 -0.22208413 0.9750275
vn -0.02241085 -0.48186523 0.8759587
vn -0.02241085 -0.48186523 0.8759587
vn -0.02241085 -0.48186523 0.8759587
vn -0.059445944 0.12203529 0.99074394
vn -0.059445944 0.12203529 0.99074394
vn -0.059445944 0.12203529 0.99074394
vn -0.0522601 -0.5096324 0.85880363
vn -0.0522601 -0.5096324 0.85880363
vn -0.0522601 -0.5096324 0.85880363
vn -0.06703997 0.9169312 -0.3933734
vn -0.06703997 0.9169312 -0.3933734
vn -0.06703997 0.9169312 -0.3933734
vn -0.11235109 -0.5947291 0.7960368
vn -0.11235109 -0.5947291 0.7960368
vn -0.11235109 -0.5947291 0.7960368
vn -0.029552242 0.7535245 -0.65675527
vn -0.029552242 0.7535245 -0.65675527
vn -0.029552242 0.7535245 -0.65675527
vn -0.3776526 -0.81683326 -0.4360757
vn -0.3776526 -0.81683326 -0.4360757
vn -0.3776526 -0.81683326 -0.4360757
vn 0 -0.6835809 -0.72987473
vn 0 -0.6835809 -0.72987473
vn 0 -0.6835809 -0.72987473
vn 0.37765267 -0.8168334 -0.43607554
vn 0.37765267 -0.8168334 -0.43607554
vn 0.37765267 -0.8168334 -0.43607554
vn 0.37765262 -0.81683326 0.4360757
vn 0.37765262 -0.81683326 0.4360757
vn 0.37765262 -0.81683326 0.4360757
vn -6.7666235E-08 -0.68358094 0.7298748
vn -6.7666235E-08 -0.68358094 0.7298748
vn -6.7666235E-08 -0.68358094 0.7298748
vn -0.37765265 -0.8168333 0.43607545
vn -0.37765265 -0.8168333 0.43607545
vn -0.37765265 -0.8168333 0.43607545
vn -0.3776526 -0.81683326 -0.4360757
vn -0.3776526 -0.81683326 -0.4360757
vn -0.3776526 -0.81683326 -0.4360757
vn 0 -0.6835809 -0.72987473
vn 0 -0.6835809 -0.72987473
vn 0 -0.6835809 -0.72987473
vn 0.37765262 -0.81683326 -0.43607563
vn 0.37765262 -0.81683326 -0.43607563
vn 0.37765262 -0.81683326 -0.43607563
vn 0.37765253 -0.81683326 0.43607575
vn 0.37765253 -0.81683326 0.43607575
vn 0.37765253 -0.81683326 0.43607575
vn -6.7666235E-08 -0.6835809 0.7298748
vn -6.7666235E-08 -0.6835809 0.7298748
vn -6.7666235E-08 -0.6835809 0.7298748
vn -0.37765265 -0.8168333 0.43607545
vn -0.37765265 -0.8168333 0.43607545
vn -0.37765265 -0.8168333 0.43607545
vn -0.37765262 -0.81683326 -0.43607566
vn -0.37765262 -0.81683326 -0.43607566
vn -0.37765262 -0.81683326 -0.43607566
vn 0 -0.6835809 -0.72987473
vn 0 -0.6835809 -0.72987473
vn 0 -0.6835809 -0.72987473
vn 0.37765262 -0.8168333 -0.43607563
vn 0.37765262 -0.8168333 -0.43607563
vn 0.37765262 -0.8168333 -0.43607563
vn 0.3776526 -0.81683326 0.43607575
vn 0.3776526 -0.81683326 0.43607575
vn 0.3776526 -0.81683326 0.43607575
vn -6.7666235E-08 -0.68358094 0.7298748
vn -6.7666235E-08 -0.68358094 0.7298748
vn -6.7666235E-08 -0.68358094 0.7298748
vn -0.37765267 -0.8168333 0.43607542
vn -0.37765267 -0.8168333 0.43607542
vn -0.37765267 -0.8168333 0.43607542
vn 0 -0.7642088 0.64496905
vn 0 -0.7642088 0.64496905
vn 0 -0.7642088 0.64496905
vn 0.6983703 -0.62251747 -0.35320076
vn 0.6983703 -0.62251747 -0.35320076
vn 0.6983703 -0.62251747 -0.35320076
vn 0 -0.9987505 0.049974
vn 0 -0.9987505 0.049974
vn 0 -0.9987505 0.049974
vn 0 -0.82384866 0.5668098
vn 0 -0.82384866 0.5668098
vn 0 -0.82384866 0.5668098
vn 0 -0.9987505 0.049974
vn 0 -0.9987505 0.049974
vn 0 -0.9987505 0.049974
vn 0 -0.8238488 0.56680983
vn 0 -0.8238488 0.56680983
vn 0 -0.8238488 0.56680983
vn 0 -0.9987505 0.049974
vn 0 -0.9987505 0.049974
vn 0 -0.9987505 0.049974
vn 0 -0.8238488 0.56680983
vn 0 -0.8238488 0.56680983
vn 0 -0.8238488 0.56680983
vn 0 -0.9987505 0.049974
vn 0 -0.9987505 0.049974
vn 0 -0.9987505 0.049974
vn 0 -0.82384866 0.5668098
vn 0 -0.82384866 0.5668098
vn 0 -0.82384866 0.5668098
f 1//1 2//2 3//3
f 4//4 5//5 6//6
f 7//7 8//8 9//9
f 10//10 11//11 12//12
f 13//13 14//14 15//15
f 16//16 17//17 18//18
f 19//19 20//20 21//21
f 22//22 23//23 24//24
f 25//25 26//26 27//27
f 28//28 29//29 30//30
f 31//31 32//32 33//33
f 34//34 35//35 36//36
f 37//37 38//38 39//39
f 40//40 41//41 42//42
f 43//43 44//44 45//45
f 46//46 47//47 48//48
f 49//49 50//50 51//51
f 52//52 53//53 54//54
f 55//55 56//56 57//57
f 58//58 59//59 60//60
f 61//61 62//62 63//63
f 64//64 65//65 66//66
f 67//67 68//68 69//69
f 70//70 71//71 72//72
f 73//73 74//74 75//75
f 76//76 77//77 78//78
f 79//79 80//80 81//81
f 82//82 83//83 84//84
f 85//85 86//86 87//87
f 88//88 89//89 90//90
f 91//91 92//92 93//93
f 94//94 95//95 96//96
f 97//97 98//98 99//99
f 100//100 101//101 102//102
f 103//103 104//104 105//105
f 106//106 107//107 108//108
f 109//109 110//110 111//111
f 112//112 113//113 114//114
f 115//115 116//116 117//117
f 118//118 119//119 120//120
f 121//121 122//122 123//123
f 124//124 125//125 126//126
f 127//127 128//128 129//129
f 130//130 131//131 132//132
f 133//133 134//134 135//135
f 136//136 137//137 138//138
f 139//139 140//140 141//141
f 142//142 143//143 144//144
f 145//145 146//146 147//147
f 148//148 149//149 150//150
f 151//151 152//152 153//153
f 154//154 155//155 156//156
f 157//157 158//158 159//159
f 160//160 161//161 162//162
f 163//163 164//164 165//165
f 166//166 167//167 168//168
