# Exported from SharpOpenGl procedural mesh
o aetherian_destroyer_mk1_08
# vertices 138
v 1.1117215 0.28140506 0.28362837
v 0.8994016 0.3806485 0.44200534
v 0 0.9567772 0.7090709
v 1.1117215 0.28140506 0.28362837
v 0 0.05628101 0
v 0.8994016 0.3806485 0.44200534
v 0.8994016 0.3806485 0.44200534
v 0.34354082 0.44198436 0.53988767
v 0 0.9567772 0.7090709
v 0.8994016 0.3806485 0.44200534
v 0 0.05628101 0
v 0.34354082 0.44198436 0.53988767
v 0.34354082 0.44198436 0.53988767
v -0.34354088 0.44198433 0.53988767
v 0 0.9567772 0.7090709
v 0.34354082 0.44198436 0.53988767
v 0 0.05628101 0
v -0.34354088 0.44198433 0.53988767
v -0.34354088 0.44198433 0.53988767
v -0.89940166 0.3806485 0.4420053
v 0 0.9567772 0.7090709
v -0.34354088 0.44198433 0.53988767
v 0 0.05628101 0
v -0.89940166 0.3806485 0.4420053
v -0.89940166 0.3806485 0.4420053
v -1.1117215 0.28140506 0.28362834
v 0 0.9567772 0.7090709
v -0.89940166 0.3806485 0.4420053
v 0 0.05628101 0
v -1.1117215 0.28140506 0.28362834
v -1.1117215 0.28140506 0.28362834
v -0.89940155 0.1821616 0.1252514
v 0 0.9567772 0.7090709
v -1.1117215 0.28140506 0.28362834
v 0 0.05628101 0
v -0.89940155 0.1821616 0.1252514
v -0.89940155 0.1821616 0.1252514
v -0.34354046 0.12082578 0.027369052
v 0 0.9567772 0.7090709
v -0.89940155 0.1821616 0.1252514
v 0 0.05628101 0
v -0.34354046 0.12082578 0.027369052
v -0.34354046 0.12082578 0.027369052
v 0.343541 0.1208258 0.027369082
v 0 0.9567772 0.7090709
v -0.34354046 0.12082578 0.027369052
v 0 0.05628101 0
v 0.343541 0.1208258 0.027369082
v 0.343541 0.1208258 0.027369082
v 0.89940155 0.1821616 0.1252514
v 0 0.9567772 0.7090709
v 0.343541 0.1208258 0.027369082
v 0 0.05628101 0
v 0.89940155 0.1821616 0.1252514
v 0.89940155 0.1821616 0.1252514
v 1.1117215 0.2814051 0.28362843
v 0 0.9567772 0.7090709
v 0.89940155 0.1821616 0.1252514
v 0 0.05628101 0
v 1.1117215 0.2814051 0.28362843
v -1.0058433 0.7091408 -0.42544258
v -0.52939117 0.3939671 -0.42544258
v -0.7676172 0.3939671 -0.21913277
v -1.0058433 0.7091408 -0.42544258
v -0.7676172 0.3939671 -0.21913277
v -1.2440693 0.3939671 -0.21913278
v -1.0058433 0.7091408 -0.42544258
v -1.2440693 0.3939671 -0.21913278
v -1.4822954 0.3939671 -0.4254426
v -1.0058433 0.7091408 -0.42544258
v -1.4822954 0.3939671 -0.4254426
v -1.2440693 0.3939671 -0.6317524
v -1.0058433 0.7091408 -0.42544258
v -1.2440693 0.3939671 -0.6317524
v -0.7676171 0.3939671 -0.6317523
v -1.0058433 0.7091408 -0.42544258
v -0.7676171 0.3939671 -0.6317523
v -0.52939117 0.3939671 -0.42544255
v 0 0.7091408 0.21272135
v 0.47645208 0.3939671 0.21272135
v 0.23822603 0.3939671 0.41903114
v 0 0.7091408 0.21272135
v 0.23822603 0.3939671 0.41903114
v -0.23822607 0.3939671 0.41903114
v 0 0.7091408 0.21272135
v -0.23822607 0.3939671 0.41903114
v -0.47645208 0.3939671 0.21272133
v 0 0.7091408 0.21272135
v -0.47645208 0.3939671 0.21272133
v -0.238226 0.3939671 0.0064115375
v 0 0.7091408 0.21272135
v -0.238226 0.3939671 0.0064115375
v 0.2382262 0.3939671 0.006411597
v 0 0.7091408 0.21272135
v 0.2382262 0.3939671 0.006411597
v 0.47645208 0.3939671 0.21272139
v 1.0058433 0.7091408 0.8508853
v 1.4822954 0.3939671 0.8508853
v 1.2440693 0.3939671 1.0571951
v 1.0058433 0.7091408 0.8508853
v 1.2440693 0.3939671 1.0571951
v 0.7676172 0.3939671 1.0571951
v 1.0058433 0.7091408 0.8508853
v 0.7676172 0.3939671 1.0571951
v 0.52939117 0.3939671 0.8508853
v 1.0058433 0.7091408 0.8508853
v 0.52939117 0.3939671 0.8508853
v 0.7676173 0.3939671 0.6445755
v 1.0058433 0.7091408 0.8508853
v 0.7676173 0.3939671 0.6445755
v 1.2440695 0.3939671 0.64457554
v 1.0058433 0.7091408 0.8508853
v 1.2440695 0.3939671 0.64457554
v 1.4822954 0.3939671 0.85088533
v 0 0.61909115 1.9499452
v -0.5823303 0.22512405 1.2408742
v 0.5823303 0.22512405 1.2408742
v 0 0.61909115 1.9499452
v 0 0.3939671 2.5526557
v -0.3176347 0.28140506 1.489049
v -0.8823187 0.06670342 -2.4978638
v -1.2604553 0 -3.3297644
v -0.5041821 0 -3.3297644
v -0.8823187 0.2751516 -2.3087955
v -1.1092006 0.06670342 -2.4978638
v -0.65543675 0.06670342 -2.4978638
v 0 0.06670342 -2.4978638
v -0.37813658 0 -3.3297644
v 0.37813658 0 -3.3297644
v 0 0.2751516 -2.3087955
v -0.22688195 0.06670342 -2.4978638
v 0.22688195 0.06670342 -2.4978638
v 0.8823187 0.06670342 -2.4978638
v 0.5041821 0 -3.3297644
v 1.2604553 0 -3.3297644
v 0.8823187 0.2751516 -2.3087955
v 0.65543675 0.06670342 -2.4978638
v 1.1092006 0.06670342 -2.4978638
vn -0.57593286 -0.7627491 -0.2941347
vn -0.57593286 -0.7627491 -0.2941347
vn -0.57593286 -0.7627491 -0.2941347
vn -0.026391296 0.83078223 -0.5559715
vn -0.026391296 0.83078223 -0.5559715
vn -0.026391296 0.83078223 -0.5559715
vn -0.14560035 0.21984725 -0.9646075
vn -0.14560035 0.21984725 -0.9646075
vn -0.14560035 0.21984725 -0.9646075
vn -0.011357372 0.8170358 -0.57647496
vn -0.011357372 0.8170358 -0.57647496
vn -0.011357372 0.8170358 -0.57647496
vn -1.3542394E-08 0.31221494 -0.95001143
vn -1.3542394E-08 0.31221494 -0.95001143
vn -1.3542394E-08 0.31221494 -0.95001143
vn -3.5293727E-08 0.8136841 -0.5813073
vn -3.5293727E-08 0.8136841 -0.5813073
vn -3.5293727E-08 0.8136841 -0.5813073
vn 0.14560042 0.21984714 -0.96460754
vn 0.14560042 0.21984714 -0.96460754
vn 0.14560042 0.21984714 -0.96460754
vn 0.011357436 0.8170358 -0.5764749
vn 0.011357436 0.8170358 -0.5764749
vn 0.011357436 0.8170358 -0.5764749
vn 0.57593274 -0.7627492 -0.2941344
vn 0.57593274 -0.7627492 -0.2941344
vn 0.57593274 -0.7627492 -0.2941344
vn 0.026391312 0.8307823 -0.55597156
vn 0.026391312 0.8307823 -0.55597156
vn 0.026391312 0.8307823 -0.55597156
vn 0.17331386 -0.7131648 0.6792336
vn 0.17331386 -0.7131648 0.6792336
vn 0.17331386 -0.7131648 0.6792336
vn 0.056923717 0.8785637 -0.47422093
vn 0.056923717 0.8785637 -0.47422093
vn 0.056923717 0.8785637 -0.47422093
vn 0.062660456 -0.6460807 0.76069283
vn 0.062660456 -0.6460807 0.76069283
vn 0.062660456 -0.6460807 0.76069283
vn 0.19266091 0.764696 0.6149161
vn 0.19266091 0.764696 0.6149161
vn 0.19266091 0.764696 0.6149161
vn -1.9908843E-08 -0.63198286 0.7749824
vn -1.9908843E-08 -0.63198286 0.7749824
vn -1.9908843E-08 -0.63198286 0.7749824
vn -3.1466932E-08 -0.39038587 0.9206513
vn -3.1466932E-08 -0.39038587 0.9206513
vn -3.1466932E-08 -0.39038587 0.9206513
vn -0.062660486 -0.6460807 0.7606928
vn -0.062660486 -0.6460807 0.7606928
vn -0.062660486 -0.6460807 0.7606928
vn -0.19266081 0.764698 0.6149136
vn -0.19266081 0.764698 0.6149136
vn -0.19266081 0.764698 0.6149136
vn -0.173314 -0.71316487 0.67923355
vn -0.173314 -0.71316487 0.67923355
vn -0.173314 -0.71316487 0.67923355
vn -0.056923736 0.87856376 -0.47422084
vn -0.056923736 0.87856376 -0.47422084
vn -0.056923736 0.87856376 -0.47422084
vn -0.46531215 -0.7034184 -0.53729624
vn -0.46531215 -0.7034184 -0.53729624
vn -0.46531215 -0.7034184 -0.53729624
vn 0 -0.54768574 -0.8366841
vn 0 -0.54768574 -0.8366841
vn 0 -0.54768574 -0.8366841
vn 0.4653122 -0.7034184 -0.53729624
vn 0.4653122 -0.7034184 -0.53729624
vn 0.4653122 -0.7034184 -0.53729624
vn 0.46531215 -0.7034184 0.5372963
vn 0.46531215 -0.7034184 0.5372963
vn 0.46531215 -0.7034184 0.5372963
vn -1.2453849E-07 -0.5476857 0.8366841
vn -1.2453849E-07 -0.5476857 0.8366841
vn -1.2453849E-07 -0.5476857 0.8366841
vn -0.46531218 -0.7034184 0.5372961
vn -0.46531218 -0.7034184 0.5372961
vn -0.46531218 -0.7034184 0.5372961
vn -0.4653122 -0.7034184 -0.53729624
vn -0.4653122 -0.7034184 -0.53729624
vn -0.4653122 -0.7034184 -0.53729624
vn 0 -0.54768574 -0.83668417
vn 0 -0.54768574 -0.83668417
vn 0 -0.54768574 -0.83668417
vn 0.46531227 -0.7034184 -0.5372962
vn 0.46531227 -0.7034184 -0.5372962
vn 0.46531227 -0.7034184 -0.5372962
vn 0.4653121 -0.7034183 0.5372963
vn 0.4653121 -0.7034183 0.5372963
vn 0.4653121 -0.7034183 0.5372963
vn -8.302566E-08 -0.5476857 0.8366841
vn -8.302566E-08 -0.5476857 0.8366841
vn -8.302566E-08 -0.5476857 0.8366841
vn -0.4653123 -0.7034184 0.537296
vn -0.4653123 -0.7034184 0.537296
vn -0.4653123 -0.7034184 0.537296
vn -0.46531215 -0.7034183 -0.53729624
vn -0.46531215 -0.7034183 -0.53729624
vn -0.46531215 -0.7034183 -0.53729624
vn 0 -0.54768574 -0.8366841
vn 0 -0.54768574 -0.8366841
vn 0 -0.54768574 -0.8366841
vn 0.46531215 -0.7034183 -0.53729624
vn 0.46531215 -0.7034183 -0.53729624
vn 0.46531215 -0.7034183 -0.53729624
vn 0.4653121 -0.70341825 0.5372963
vn 0.4653121 -0.70341825 0.5372963
vn 0.4653121 -0.70341825 0.5372963
vn -1.2453852E-07 -0.5476857 0.83668417
vn -1.2453852E-07 -0.5476857 0.83668417
vn -1.2453852E-07 -0.5476857 0.83668417
vn -0.46531224 -0.7034184 0.53729606
vn -0.46531224 -0.7034184 0.53729606
vn -0.46531224 -0.7034184 0.53729606
vn 0 -0.874137 0.48567942
vn 0 -0.874137 0.48567942
vn 0 -0.874137 0.48567942
vn 0.8326709 -0.51876134 -0.19376744
vn 0.8326709 -0.51876134 -0.19376744
vn 0.8326709 -0.51876134 -0.19376744
vn 0 -0.9968009 0.07992545
vn 0 -0.9968009 0.07992545
vn 0 -0.9968009 0.07992545
vn 0 -0.6718357 0.74070024
vn 0 -0.6718357 0.74070024
vn 0 -0.6718357 0.74070024
vn 0 -0.9968009 0.07992545
vn 0 -0.9968009 0.07992545
vn 0 -0.9968009 0.07992545
vn 0 -0.67183566 0.7407002
vn 0 -0.67183566 0.7407002
vn 0 -0.67183566 0.7407002
vn 0 -0.9968009 0.07992545
vn 0 -0.9968009 0.07992545
vn 0 -0.9968009 0.07992545
vn 0 -0.6718357 0.74070024
vn 0 -0.6718357 0.74070024
vn 0 -0.6718357 0.74070024
f 1//1 2//2 3//3
f 4//4 5//5 6//6
f 7//7 8//8 9//9
f 10//10 11//11 12//12
f 13//13 14//14 15//15
f 16//16 17//17 18//18
f 19//19 20//20 21//21
f 22//22 23//23 24//24
f 25//25 26//26 27//27
f 28//28 29//29 30//30
f 31//31 32//32 33//33
f 34//34 35//35 36//36
f 37//37 38//38 39//39
f 40//40 41//41 42//42
f 43//43 44//44 45//45
f 46//46 47//47 48//48
f 49//49 50//50 51//51
f 52//52 53//53 54//54
f 55//55 56//56 57//57
f 58//58 59//59 60//60
f 61//61 62//62 63//63
f 64//64 65//65 66//66
f 67//67 68//68 69//69
f 70//70 71//71 72//72
f 73//73 74//74 75//75
f 76//76 77//77 78//78
f 79//79 80//80 81//81
f 82//82 83//83 84//84
f 85//85 86//86 87//87
f 88//88 89//89 90//90
f 91//91 92//92 93//93
f 94//94 95//95 96//96
f 97//97 98//98 99//99
f 100//100 101//101 102//102
f 103//103 104//104 105//105
f 106//106 107//107 108//108
f 109//109 110//110 111//111
f 112//112 113//113 114//114
f 115//115 116//116 117//117
f 118//118 119//119 120//120
f 121//121 122//122 123//123
f 124//124 125//125 126//126
f 127//127 128//128 129//129
f 130//130 131//131 132//132
f 133//133 134//134 135//135
f 136//136 137//137 138//138
