# Exported from SharpOpenGl procedural mesh
o aetherian_cruiser_mk1_09
# vertices 144
v 1.8285977 0.43181315 0.30015257
v 1.4793667 0.5841012 0.46775657
v 0 1.4681648 0.75038147
v 1.8285977 0.43181315 0.30015257
v 0 0.08636263 0
v 1.4793667 0.5841012 0.46775657
v 1.4793667 0.5841012 0.46775657
v 0.5650677 0.6782204 0.5713415
v 0 1.4681648 0.75038147
v 1.4793667 0.5841012 0.46775657
v 0 0.08636263 0
v 0.5650677 0.6782204 0.5713415
v 0.5650677 0.6782204 0.5713415
v -0.5650678 0.6782204 0.5713415
v 0 1.4681648 0.75038147
v 0.5650677 0.6782204 0.5713415
v 0 0.08636263 0
v -0.5650678 0.6782204 0.5713415
v -0.5650678 0.6782204 0.5713415
v -1.4793667 0.5841012 0.46775657
v 0 1.4681648 0.75038147
v -0.5650678 0.6782204 0.5713415
v 0 0.08636263 0
v -1.4793667 0.5841012 0.46775657
v -1.4793667 0.5841012 0.46775657
v -1.8285977 0.43181312 0.30015254
v 0 1.4681648 0.75038147
v -1.4793667 0.5841012 0.46775657
v 0 0.08636263 0
v -1.8285977 0.43181312 0.30015254
v -1.8285977 0.43181312 0.30015254
v -1.4793665 0.27952507 0.13254854
v 0 1.4681648 0.75038147
v -1.8285977 0.43181312 0.30015254
v 0 0.08636263 0
v -1.4793665 0.27952507 0.13254854
v -1.4793665 0.27952507 0.13254854
v -0.5650671 0.1854059 0.028963596
v 0 1.4681648 0.75038147
v -1.4793665 0.27952507 0.13254854
v 0 0.08636263 0
v -0.5650671 0.1854059 0.028963596
v -0.5650671 0.1854059 0.028963596
v 0.565068 0.18540592 0.028963625
v 0 1.4681648 0.75038147
v -0.5650671 0.1854059 0.028963596
v 0 0.08636263 0
v 0.565068 0.18540592 0.028963625
v 0.565068 0.18540592 0.028963625
v 1.4793665 0.2795251 0.13254856
v 0 1.4681648 0.75038147
v 0.565068 0.18540592 0.028963625
v 0 0.08636263 0
v 1.4793665 0.2795251 0.13254856
v 1.4793665 0.2795251 0.13254856
v 1.8285977 0.4318132 0.30015263
v 0 1.4681648 0.75038147
v 1.4793665 0.2795251 0.13254856
v 0 0.08636263 0
v 1.8285977 0.4318132 0.30015263
v -1.6544455 1.0881691 -0.45022887
v -0.87076074 0.6045384 -0.45022887
v -1.2626032 0.6045384 -0.110883385
v -1.6544455 1.0881691 -0.45022887
v -1.2626032 0.6045384 -0.110883385
v -2.046288 0.6045384 -0.110883415
v -1.6544455 1.0881691 -0.45022887
v -2.046288 0.6045384 -0.110883415
v -2.4381304 0.6045384 -0.4502289
v -1.6544455 1.0881691 -0.45022887
v -2.4381304 0.6045384 -0.4502289
v -2.0462878 0.6045384 -0.7895744
v -1.6544455 1.0881691 -0.45022887
v -2.0462878 0.6045384 -0.7895744
v -1.2626028 0.6045384 -0.78957427
v -1.6544455 1.0881691 -0.45022887
v -1.2626028 0.6045384 -0.78957427
v -0.87076074 0.6045384 -0.4502288
v 0 1.0881691 0.22511446
v 0.7836848 0.6045384 0.22511446
v 0.39184237 0.6045384 0.5644599
v 0 1.0881691 0.22511446
v 0.39184237 0.6045384 0.5644599
v -0.39184245 0.6045384 0.5644599
v 0 1.0881691 0.22511446
v -0.39184245 0.6045384 0.5644599
v -0.7836848 0.6045384 0.22511443
v 0 1.0881691 0.22511446
v -0.7836848 0.6045384 0.22511443
v -0.39184234 0.6045384 -0.11423102
v 0 1.0881691 0.22511446
v -0.39184234 0.6045384 -0.11423102
v 0.39184266 0.6045384 -0.11423093
v 0 1.0881691 0.22511446
v 0.39184266 0.6045384 -0.11423093
v 0.7836848 0.6045384 0.22511454
v 1.6544455 1.0881691 0.9004578
v 2.4381304 0.6045384 0.9004578
v 2.046288 0.6045384 1.2398033
v 1.6544455 1.0881691 0.9004578
v 2.046288 0.6045384 1.2398033
v 1.262603 0.6045384 1.2398033
v 1.6544455 1.0881691 0.9004578
v 1.262603 0.6045384 1.2398033
v 0.87076074 0.6045384 0.90045774
v 1.6544455 1.0881691 0.9004578
v 0.87076074 0.6045384 0.90045774
v 1.2626032 0.6045384 0.5611123
v 1.6544455 1.0881691 0.9004578
v 1.2626032 0.6045384 0.5611123
v 2.0462883 0.6045384 0.5611124
v 1.6544455 1.0881691 0.9004578
v 2.0462883 0.6045384 0.5611124
v 2.4381304 0.6045384 0.90045786
v 0 0.94998896 2.063549
v -0.9578369 0.34545052 1.3131676
v 0.9578369 0.34545052 1.3131676
v 0 0.94998896 2.063549
v 0 0.6045384 2.7013733
v -0.52245647 0.43181315 1.575801
v -1.7415216 0.1023557 -2.6433895
v -2.4132514 0 -4.121195
v -1.0697918 0 -4.121195
v -1.7415216 0.4222173 -2.3075247
v -2.1445594 0.1023557 -2.6433895
v -1.3384837 0.1023557 -2.6433895
v -0.5805072 0.1023557 -2.6433895
v -1.2522371 0 -4.121195
v 0.091222584 0 -4.121195
v -0.5805072 0.4222173 -2.3075247
v -0.9835451 0.1023557 -2.6433895
v -0.17746931 0.1023557 -2.6433895
v 0.5805072 0.1023557 -2.6433895
v -0.091222584 0 -4.121195
v 1.2522371 0 -4.121195
v 0.5805072 0.4222173 -2.3075247
v 0.17746931 0.1023557 -2.6433895
v 0.9835451 0.1023557 -2.6433895
v 1.7415216 0.1023557 -2.6433895
v 1.0697918 0 -4.121195
v 2.4132514 0 -4.121195
v 1.7415216 0.4222173 -2.3075247
v 1.3384837 0.1023557 -2.6433895
v 2.1445594 0.1023557 -2.6433895
vn -0.5237554 -0.74352676 -0.4157501
vn -0.5237554 -0.74352676 -0.4157501
vn -0.5237554 -0.74352676 -0.4157501
vn -0.02126351 0.717497 -0.69623697
vn -0.02126351 0.717497 -0.69623697
vn -0.02126351 0.717497 -0.69623697
vn -0.09549769 0.15456462 -0.98335654
vn -0.09549769 0.15456462 -0.98335654
vn -0.09549769 0.15456462 -0.98335654
vn -0.009064316 0.6989646 -0.71509886
vn -0.009064316 0.6989646 -0.71509886
vn -0.009064316 0.6989646 -0.71509886
vn 0 0.22104247 -0.9752642
vn 0 0.22104247 -0.9752642
vn 0 0.22104247 -0.9752642
vn 0 0.694527 -0.7194667
vn 0 0.694527 -0.7194667
vn 0 0.694527 -0.7194667
vn 0.0954977 0.15456457 -0.9833565
vn 0.0954977 0.15456457 -0.9833565
vn 0.0954977 0.15456457 -0.9833565
vn 0.009064321 0.6989646 -0.7150989
vn 0.009064321 0.6989646 -0.7150989
vn 0.009064321 0.6989646 -0.7150989
vn 0.52375543 -0.7435269 -0.41574997
vn 0.52375543 -0.7435269 -0.41574997
vn 0.52375543 -0.7435269 -0.41574997
vn 0.021263506 0.717497 -0.6962369
vn 0.021263506 0.717497 -0.6962369
vn 0.021263506 0.717497 -0.6962369
vn 0.1318076 -0.5813734 0.8028897
vn 0.1318076 -0.5813734 0.8028897
vn 0.1318076 -0.5813734 0.8028897
vn 0.047545638 0.7865908 -0.6156414
vn 0.047545638 0.7865908 -0.6156414
vn 0.047545638 0.7865908 -0.6156414
vn 0.045682255 -0.50489277 0.8619724
vn 0.045682255 -0.50489277 0.8619724
vn 0.045682255 -0.50489277 0.8619724
vn 0.15125361 0.64351565 0.75033987
vn 0.15125361 0.64351565 0.75033987
vn 0.15125361 0.64351565 0.75033987
vn -1.0058331E-08 -0.4901921 0.8716144
vn -1.0058331E-08 -0.4901921 0.8716144
vn -1.0058331E-08 -0.4901921 0.8716144
vn -1.790888E-08 -0.2806786 0.95980185
vn -1.790888E-08 -0.2806786 0.95980185
vn -1.790888E-08 -0.2806786 0.95980185
vn -0.04568228 -0.5048929 0.86197233
vn -0.04568228 -0.5048929 0.86197233
vn -0.04568228 -0.5048929 0.86197233
vn -0.15125374 0.64351803 0.75033784
vn -0.15125374 0.64351803 0.75033784
vn -0.15125374 0.64351803 0.75033784
vn -0.13180763 -0.5813734 0.80288965
vn -0.13180763 -0.5813734 0.80288965
vn -0.13180763 -0.5813734 0.80288965
vn -0.047545657 0.7865908 -0.6156414
vn -0.047545657 0.7865908 -0.6156414
vn -0.047545657 0.7865908 -0.6156414
vn -0.4490543 -0.7276564 -0.5185233
vn -0.4490543 -0.7276564 -0.5185233
vn -0.4490543 -0.7276564 -0.5185233
vn 3.2183433E-08 -0.5743753 -0.8185922
vn 3.2183433E-08 -0.5743753 -0.8185922
vn 3.2183433E-08 -0.5743753 -0.8185922
vn 0.44905433 -0.7276565 -0.5185232
vn 0.44905433 -0.7276565 -0.5185232
vn 0.44905433 -0.7276565 -0.5185232
vn 0.44905418 -0.7276564 0.51852334
vn 0.44905418 -0.7276564 0.51852334
vn 0.44905418 -0.7276564 0.51852334
vn -1.287337E-07 -0.5743752 0.81859213
vn -1.287337E-07 -0.5743752 0.81859213
vn -1.287337E-07 -0.5743752 0.81859213
vn -0.44905436 -0.72765654 0.5185229
vn -0.44905436 -0.72765654 0.5185229
vn -0.44905436 -0.72765654 0.5185229
vn -0.4490543 -0.7276564 -0.5185233
vn -0.4490543 -0.7276564 -0.5185233
vn -0.4490543 -0.7276564 -0.5185233
vn 0 -0.5743753 -0.8185922
vn 0 -0.5743753 -0.8185922
vn 0 -0.5743753 -0.8185922
vn 0.44905433 -0.7276564 -0.51852316
vn 0.44905433 -0.7276564 -0.51852316
vn 0.44905433 -0.7276564 -0.51852316
vn 0.44905424 -0.7276564 0.5185233
vn 0.44905424 -0.7276564 0.5185233
vn 0.44905424 -0.7276564 0.5185233
vn -9.655028E-08 -0.5743752 0.81859213
vn -9.655028E-08 -0.5743752 0.81859213
vn -9.655028E-08 -0.5743752 0.81859213
vn -0.44905436 -0.72765654 0.51852304
vn -0.44905436 -0.72765654 0.51852304
vn -0.44905436 -0.72765654 0.51852304
vn -0.4490543 -0.72765654 -0.51852316
vn -0.4490543 -0.72765654 -0.51852316
vn -0.4490543 -0.72765654 -0.51852316
vn 0 -0.5743753 -0.818592
vn 0 -0.5743753 -0.818592
vn 0 -0.5743753 -0.818592
vn 0.4490544 -0.72765654 -0.51852304
vn 0.4490544 -0.72765654 -0.51852304
vn 0.4490544 -0.72765654 -0.51852304
vn 0.44905424 -0.7276564 0.5185233
vn 0.44905424 -0.7276564 0.5185233
vn 0.44905424 -0.7276564 0.5185233
vn -1.2873369E-07 -0.5743752 0.8185922
vn -1.2873369E-07 -0.5743752 0.8185922
vn -1.2873369E-07 -0.5743752 0.8185922
vn -0.44905436 -0.72765654 0.51852304
vn -0.44905436 -0.72765654 0.51852304
vn -0.44905436 -0.72765654 0.51852304
vn 0 -0.7787212 0.6273701
vn 0 -0.7787212 0.6273701
vn 0 -0.7787212 0.6273701
vn 0.7963669 -0.53182113 -0.28803843
vn 0.7963669 -0.53182113 -0.28803843
vn 0.7963669 -0.53182113 -0.28803843
vn 0 -0.9976099 0.06909642
vn 0 -0.9976099 0.06909642
vn 0 -0.9976099 0.06909642
vn 0 -0.72414833 0.6896443
vn 0 -0.72414833 0.6896443
vn 0 -0.72414833 0.6896443
vn 0 -0.9976099 0.06909642
vn 0 -0.9976099 0.06909642
vn 0 -0.9976099 0.06909642
vn 0 -0.72414833 0.6896444
vn 0 -0.72414833 0.6896444
vn 0 -0.72414833 0.6896444
vn 0 -0.9976099 0.06909642
vn 0 -0.9976099 0.06909642
vn 0 -0.9976099 0.06909642
vn 0 -0.72414833 0.6896444
vn 0 -0.72414833 0.6896444
vn 0 -0.72414833 0.6896444
vn 0 -0.9976099 0.06909642
vn 0 -0.9976099 0.06909642
vn 0 -0.9976099 0.06909642
vn 0 -0.72414833 0.6896443
vn 0 -0.72414833 0.6896443
vn 0 -0.72414833 0.6896443
f 1//1 2//2 3//3
f 4//4 5//5 6//6
f 7//7 8//8 9//9
f 10//10 11//11 12//12
f 13//13 14//14 15//15
f 16//16 17//17 18//18
f 19//19 20//20 21//21
f 22//22 23//23 24//24
f 25//25 26//26 27//27
f 28//28 29//29 30//30
f 31//31 32//32 33//33
f 34//34 35//35 36//36
f 37//37 38//38 39//39
f 40//40 41//41 42//42
f 43//43 44//44 45//45
f 46//46 47//47 48//48
f 49//49 50//50 51//51
f 52//52 53//53 54//54
f 55//55 56//56 57//57
f 58//58 59//59 60//60
f 61//61 62//62 63//63
f 64//64 65//65 66//66
f 67//67 68//68 69//69
f 70//70 71//71 72//72
f 73//73 74//74 75//75
f 76//76 77//77 78//78
f 79//79 80//80 81//81
f 82//82 83//83 84//84
f 85//85 86//86 87//87
f 88//88 89//89 90//90
f 91//91 92//92 93//93
f 94//94 95//95 96//96
f 97//97 98//98 99//99
f 100//100 101//101 102//102
f 103//103 104//104 105//105
f 106//106 107//107 108//108
f 109//109 110//110 111//111
f 112//112 113//113 114//114
f 115//115 116//116 117//117
f 118//118 119//119 120//120
f 121//121 122//122 123//123
f 124//124 125//125 126//126
f 127//127 128//128 129//129
f 130//130 131//131 132//132
f 133//133 134//134 135//135
f 136//136 137//137 138//138
f 139//139 140//140 141//141
f 142//142 143//143 144//144
