# Exported from SharpOpenGl procedural mesh
o aetherian_frigate_mk2_22
# vertices 138
v 1.356112 0.31039047 0.28243586
v 1.0971177 0.41985625 0.44014692
v 0 1.0553277 0.7060897
v 1.356112 0.31039047 0.28243586
v 0 0.062078096 0
v 1.0971177 0.41985625 0.44014692
v 1.0971177 0.41985625 0.44014692
v 0.41906163 0.48750982 0.53761774
v 0 1.0553277 0.7060897
v 1.0971177 0.41985625 0.44014692
v 0 0.062078096 0
v 0.41906163 0.48750982 0.53761774
v 0.41906163 0.48750982 0.53761774
v -0.41906172 0.4875098 0.5376177
v 0 1.0553277 0.7060897
v 0.41906163 0.48750982 0.53761774
v 0 0.062078096 0
v -0.41906172 0.4875098 0.5376177
v -0.41906172 0.4875098 0.5376177
v -1.0971178 0.41985622 0.44014692
v 0 1.0553277 0.7060897
v -0.41906172 0.4875098 0.5376177
v 0 0.062078096 0
v -1.0971178 0.41985622 0.44014692
v -1.0971178 0.41985622 0.44014692
v -1.356112 0.31039044 0.28243583
v 0 1.0553277 0.7060897
v -1.0971178 0.41985622 0.44014692
v 0 0.062078096 0
v -1.356112 0.31039044 0.28243583
v -1.356112 0.31039044 0.28243583
v -1.0971175 0.20092468 0.124724776
v 0 1.0553277 0.7060897
v -1.356112 0.31039044 0.28243583
v 0 0.062078096 0
v -1.0971175 0.20092468 0.124724776
v -1.0971175 0.20092468 0.124724776
v -0.41906118 0.13327111 0.027253985
v 0 1.0553277 0.7060897
v -1.0971175 0.20092468 0.124724776
v 0 0.062078096 0
v -0.41906118 0.13327111 0.027253985
v -0.41906118 0.13327111 0.027253985
v 0.41906184 0.13327116 0.027254015
v 0 1.0553277 0.7060897
v -0.41906118 0.13327111 0.027253985
v 0 0.062078096 0
v 0.41906184 0.13327116 0.027254015
v 0.41906184 0.13327116 0.027254015
v 1.0971175 0.2009247 0.12472479
v 0 1.0553277 0.7060897
v 0.41906184 0.13327116 0.027254015
v 0 0.062078096 0
v 1.0971175 0.2009247 0.12472479
v 1.0971175 0.2009247 0.12472479
v 1.356112 0.3103905 0.28243592
v 0 1.0553277 0.7060897
v 1.0971175 0.2009247 0.12472479
v 0 0.062078096 0
v 1.356112 0.3103905 0.28243592
v -1.2269585 0.782184 -0.4236538
v -0.6457676 0.43454665 -0.4236538
v -0.9363631 0.43454665 -0.17199075
v -1.2269585 0.782184 -0.4236538
v -0.9363631 0.43454665 -0.17199075
v -1.517554 0.43454665 -0.17199078
v -1.2269585 0.782184 -0.4236538
v -1.517554 0.43454665 -0.17199078
v -1.8081493 0.43454665 -0.42365384
v -1.2269585 0.782184 -0.4236538
v -1.8081493 0.43454665 -0.42365384
v -1.5175539 0.43454665 -0.6753169
v -1.2269585 0.782184 -0.4236538
v -1.5175539 0.43454665 -0.6753169
v -0.93636286 0.43454665 -0.6753168
v -1.2269585 0.782184 -0.4236538
v -0.93636286 0.43454665 -0.6753168
v -0.6457676 0.43454665 -0.42365375
v 0 0.782184 0.21182695
v 0.5811909 0.43454665 0.21182695
v 0.2905954 0.43454665 0.46349
v 0 0.782184 0.21182695
v 0.2905954 0.43454665 0.46349
v -0.29059547 0.43454665 0.46348998
v 0 0.782184 0.21182695
v -0.29059547 0.43454665 0.46348998
v -0.5811909 0.43454665 0.21182692
v 0 0.782184 0.21182695
v -0.5811909 0.43454665 0.21182692
v -0.29059538 0.43454665 -0.03983611
v 0 0.782184 0.21182695
v -0.29059538 0.43454665 -0.03983611
v 0.29059565 0.43454665 -0.03983602
v 0 0.782184 0.21182695
v 0.29059565 0.43454665 -0.03983602
v 0.5811909 0.43454665 0.211827
v 1.2269585 0.782184 0.8473077
v 1.8081493 0.43454665 0.8473077
v 1.5175539 0.43454665 1.0989708
v 1.2269585 0.782184 0.8473077
v 1.5175539 0.43454665 1.0989708
v 0.93636304 0.43454665 1.0989707
v 1.2269585 0.782184 0.8473077
v 0.93636304 0.43454665 1.0989707
v 0.6457676 0.43454665 0.8473077
v 1.2269585 0.782184 0.8473077
v 0.6457676 0.43454665 0.8473077
v 0.9363631 0.43454665 0.5956446
v 1.2269585 0.782184 0.8473077
v 0.9363631 0.43454665 0.5956446
v 1.5175542 0.43454665 0.5956447
v 1.2269585 0.782184 0.8473077
v 1.5175542 0.43454665 0.5956447
v 1.8081493 0.43454665 0.84730774
v 0 0.68285906 1.9417467
v -0.7103444 0.24831238 1.235657
v 0.7103444 0.24831238 1.235657
v 0 0.68285906 1.9417467
v 0 0.43454665 2.541923
v -0.3874606 0.31039047 1.4827883
v -1.0762794 0.07357404 -2.4873614
v -1.4821905 0 -3.3803658
v -0.6703683 0 -3.3803658
v -1.0762794 0.3034929 -2.284406
v -1.3198261 0.07357404 -2.4873614
v -0.83273274 0.07357404 -2.4873614
v 0 0.07357404 -2.4873614
v -0.40591112 0 -3.3803658
v 0.40591112 0 -3.3803658
v 0 0.3034929 -2.284406
v -0.24354668 0.07357404 -2.4873614
v 0.24354668 0.07357404 -2.4873614
v 1.0762794 0.07357404 -2.4873614
v 0.6703683 0 -3.3803658
v 1.4821905 0 -3.3803658
v 1.0762794 0.3034929 -2.284406
v 0.83273274 0.07357404 -2.4873614
v 1.3198261 0.07357404 -2.4873614
vn -0.53175104 -0.77882755 -0.33266884
vn -0.53175104 -0.77882755 -0.33266884
vn -0.53175104 -0.77882755 -0.33266884
vn -0.023069743 0.8031431 -0.5953395
vn -0.023069743 0.8031431 -0.5953395
vn -0.023069743 0.8031431 -0.5953395
vn -0.11982242 0.20008723 -0.9724236
vn -0.11982242 0.20008723 -0.9724236
vn -0.11982242 0.20008723 -0.9724236
vn -0.009903205 0.78787875 -0.6157508
vn -0.009903205 0.78787875 -0.6157508
vn -0.009903205 0.78787875 -0.6157508
vn 5.8064735E-08 0.28444478 -0.95869243
vn 5.8064735E-08 0.28444478 -0.95869243
vn 5.8064735E-08 0.28444478 -0.95869243
vn 1.6246764E-08 0.7841752 -0.6205395
vn 1.6246764E-08 0.7841752 -0.6205395
vn 1.6246764E-08 0.7841752 -0.6205395
vn 0.1198223 0.20008738 -0.97242355
vn 0.1198223 0.20008738 -0.97242355
vn 0.1198223 0.20008738 -0.97242355
vn 0.009903166 0.7878787 -0.61575085
vn 0.009903166 0.7878787 -0.61575085
vn 0.009903166 0.7878787 -0.61575085
vn 0.5317511 -0.77882785 -0.33266813
vn 0.5317511 -0.77882785 -0.33266813
vn 0.5317511 -0.77882785 -0.33266813
vn 0.02306976 0.8031431 -0.5953394
vn 0.02306976 0.8031431 -0.5953394
vn 0.02306976 0.8031431 -0.5953394
vn 0.14947557 -0.6802207 0.71760494
vn 0.14947557 -0.6802207 0.71760494
vn 0.14947557 -0.6802207 0.71760494
vn 0.050220985 0.85721177 -0.51250935
vn 0.050220985 0.85721177 -0.51250935
vn 0.050220985 0.85721177 -0.51250935
vn 0.05328666 -0.607624 0.7924352
vn 0.05328666 -0.607624 0.7924352
vn 0.05328666 -0.607624 0.7924352
vn 0.16770792 0.7361601 0.6556998
vn 0.16770792 0.7361601 0.6556998
vn 0.16770792 0.7361601 0.6556998
vn 2.987456E-09 -0.5928738 0.8052953
vn 2.987456E-09 -0.5928738 0.8052953
vn 2.987456E-09 -0.5928738 0.8052953
vn -1.4139155E-08 -0.35751662 0.9339067
vn -1.4139155E-08 -0.35751662 0.9339067
vn -1.4139155E-08 -0.35751662 0.9339067
vn -0.05328671 -0.607624 0.7924352
vn -0.05328671 -0.607624 0.7924352
vn -0.05328671 -0.607624 0.7924352
vn -0.16770798 0.7361617 0.6556982
vn -0.16770798 0.7361617 0.6556982
vn -0.16770798 0.7361617 0.6556982
vn -0.14947568 -0.6802208 0.71760494
vn -0.14947568 -0.6802208 0.71760494
vn -0.14947568 -0.6802208 0.71760494
vn -0.050220996 0.8572118 -0.5125093
vn -0.050220996 0.8572118 -0.5125093
vn -0.050220996 0.8572118 -0.5125093
vn -0.44158173 -0.73824996 -0.50989467
vn -0.44158173 -0.73824996 -0.50989467
vn -0.44158173 -0.73824996 -0.50989467
vn 5.974106E-08 -0.58639616 -0.8100244
vn 5.974106E-08 -0.58639616 -0.8100244
vn 5.974106E-08 -0.58639616 -0.8100244
vn 0.44158182 -0.7382501 -0.50989443
vn 0.44158182 -0.7382501 -0.50989443
vn 0.44158182 -0.7382501 -0.50989443
vn 0.4415818 -0.73824996 0.5098946
vn 0.4415818 -0.73824996 0.5098946
vn 0.4415818 -0.73824996 0.5098946
vn -8.961158E-08 -0.58639616 0.81002444
vn -8.961158E-08 -0.58639616 0.81002444
vn -8.961158E-08 -0.58639616 0.81002444
vn -0.44158185 -0.7382501 0.50989443
vn -0.44158185 -0.7382501 0.50989443
vn -0.44158185 -0.7382501 0.50989443
vn -0.44158173 -0.73824996 -0.50989467
vn -0.44158173 -0.73824996 -0.50989467
vn -0.44158173 -0.73824996 -0.50989467
vn 5.974107E-08 -0.5863961 -0.8100244
vn 5.974107E-08 -0.5863961 -0.8100244
vn 5.974107E-08 -0.5863961 -0.8100244
vn 0.44158173 -0.73825 -0.5098946
vn 0.44158173 -0.73825 -0.5098946
vn 0.44158173 -0.73825 -0.5098946
vn 0.4415817 -0.7382499 0.5098947
vn 0.4415817 -0.7382499 0.5098947
vn 0.4415817 -0.7382499 0.5098947
vn -1.1948211E-07 -0.5863961 0.81002444
vn -1.1948211E-07 -0.5863961 0.81002444
vn -1.1948211E-07 -0.5863961 0.81002444
vn -0.4415818 -0.73825 0.50989443
vn -0.4415818 -0.73825 0.50989443
vn -0.4415818 -0.73825 0.50989443
vn -0.44158176 -0.73825 -0.50989455
vn -0.44158176 -0.73825 -0.50989455
vn -0.44158176 -0.73825 -0.50989455
vn 1.4935267E-07 -0.5863961 -0.8100244
vn 1.4935267E-07 -0.5863961 -0.8100244
vn 1.4935267E-07 -0.5863961 -0.8100244
vn 0.4415817 -0.73824996 -0.5098947
vn 0.4415817 -0.73824996 -0.5098947
vn 0.4415817 -0.73824996 -0.5098947
vn 0.44158173 -0.73825 0.50989467
vn 0.44158173 -0.73825 0.50989467
vn 0.44158173 -0.73825 0.50989467
vn -1.4935264E-07 -0.5863962 0.81002444
vn -1.4935264E-07 -0.5863962 0.81002444
vn -1.4935264E-07 -0.5863962 0.81002444
vn -0.4415819 -0.7382501 0.5098944
vn -0.4415819 -0.7382501 0.5098944
vn -0.4415819 -0.7382501 0.5098944
vn 0 -0.8516422 0.5241236
vn 0 -0.8516422 0.5241236
vn 0 -0.8516422 0.5241236
vn 0.8016753 -0.5523519 -0.22852589
vn 0.8016753 -0.5523519 -0.22852589
vn 0.8016753 -0.5523519 -0.22852589
vn 0 -0.9966232 0.08211112
vn 0 -0.9966232 0.08211112
vn 0 -0.9966232 0.08211112
vn 0 -0.66177917 0.74969894
vn 0 -0.66177917 0.74969894
vn 0 -0.66177917 0.74969894
vn 0 -0.9966232 0.08211112
vn 0 -0.9966232 0.08211112
vn 0 -0.9966232 0.08211112
vn 0 -0.6617791 0.74969894
vn 0 -0.6617791 0.74969894
vn 0 -0.6617791 0.74969894
vn 0 -0.9966232 0.08211112
vn 0 -0.9966232 0.08211112
vn 0 -0.9966232 0.08211112
vn 0 -0.66177917 0.74969894
vn 0 -0.66177917 0.74969894
vn 0 -0.66177917 0.74969894
f 1//1 2//2 3//3
f 4//4 5//5 6//6
f 7//7 8//8 9//9
f 10//10 11//11 12//12
f 13//13 14//14 15//15
f 16//16 17//17 18//18
f 19//19 20//20 21//21
f 22//22 23//23 24//24
f 25//25 26//26 27//27
f 28//28 29//29 30//30
f 31//31 32//32 33//33
f 34//34 35//35 36//36
f 37//37 38//38 39//39
f 40//40 41//41 42//42
f 43//43 44//44 45//45
f 46//46 47//47 48//48
f 49//49 50//50 51//51
f 52//52 53//53 54//54
f 55//55 56//56 57//57
f 58//58 59//59 60//60
f 61//61 62//62 63//63
f 64//64 65//65 66//66
f 67//67 68//68 69//69
f 70//70 71//71 72//72
f 73//73 74//74 75//75
f 76//76 77//77 78//78
f 79//79 80//80 81//81
f 82//82 83//83 84//84
f 85//85 86//86 87//87
f 88//88 89//89 90//90
f 91//91 92//92 93//93
f 94//94 95//95 96//96
f 97//97 98//98 99//99
f 100//100 101//101 102//102
f 103//103 104//104 105//105
f 106//106 107//107 108//108
f 109//109 110//110 111//111
f 112//112 113//113 114//114
f 115//115 116//116 117//117
f 118//118 119//119 120//120
f 121//121 122//122 123//123
f 124//124 125//125 126//126
f 127//127 128//128 129//129
f 130//130 131//131 132//132
f 133//133 134//134 135//135
f 136//136 137//137 138//138
