# Exported from SharpOpenGl procedural mesh
o aetherian_cruiser_phantom_57
# vertices 144
v 2.1377327 0.47970307 0.38809818
v 1.7294621 0.6488805 0.60481066
v 0 1.6309905 0.9702454
v 2.1377327 0.47970307 0.38809818
v 0 0.09594061 0
v 1.7294621 0.6488805 0.60481066
v 1.7294621 0.6488805 0.60481066
v 0.6605957 0.75343794 0.73874635
v 0 1.6309905 0.9702454
v 1.7294621 0.6488805 0.60481066
v 0 0.09594061 0
v 0.6605957 0.75343794 0.73874635
v 0.6605957 0.75343794 0.73874635
v -0.66059583 0.7534379 0.7387463
v 0 1.6309905 0.9702454
v 0.6605957 0.75343794 0.73874635
v 0 0.09594061 0
v -0.66059583 0.7534379 0.7387463
v -0.66059583 0.7534379 0.7387463
v -1.7294623 0.6488805 0.60481066
v 0 1.6309905 0.9702454
v -0.66059583 0.7534379 0.7387463
v 0 0.09594061 0
v -1.7294623 0.6488805 0.60481066
v -1.7294623 0.6488805 0.60481066
v -2.1377327 0.47970304 0.38809815
v 0 1.6309905 0.9702454
v -1.7294623 0.6488805 0.60481066
v 0 0.09594061 0
v -2.1377327 0.47970304 0.38809815
v -2.1377327 0.47970304 0.38809815
v -1.729462 0.3105256 0.17138566
v 0 1.6309905 0.9702454
v -2.1377327 0.47970304 0.38809815
v 0 0.09594061 0
v -1.729462 0.3105256 0.17138566
v -1.729462 0.3105256 0.17138566
v -0.660595 0.2059682 0.037449986
v 0 1.6309905 0.9702454
v -1.729462 0.3105256 0.17138566
v 0 0.09594061 0
v -0.660595 0.2059682 0.037449986
v -0.660595 0.2059682 0.037449986
v 0.660596 0.20596823 0.037450045
v 0 1.6309905 0.9702454
v -0.660595 0.2059682 0.037449986
v 0 0.09594061 0
v 0.660596 0.20596823 0.037450045
v 0.660596 0.20596823 0.037450045
v 1.729462 0.3105256 0.17138568
v 0 1.6309905 0.9702454
v 0.660596 0.20596823 0.037450045
v 0 0.09594061 0
v 1.729462 0.3105256 0.17138568
v 1.729462 0.3105256 0.17138568
v 2.1377327 0.47970313 0.38809824
v 0 1.6309905 0.9702454
v 1.729462 0.3105256 0.17138568
v 0 0.09594061 0
v 2.1377327 0.47970313 0.38809824
v -1.9341391 1.2088518 -0.58214724
v -1.0179679 0.6715843 -0.58214724
v -1.4760535 0.6715843 -0.18543342
v -1.9341391 1.2088518 -0.58214724
v -1.4760535 0.6715843 -0.18543342
v -2.3922248 0.6715843 -0.18543345
v -1.9341391 1.2088518 -0.58214724
v -2.3922248 0.6715843 -0.18543345
v -2.8503103 0.6715843 -0.5821473
v -1.9341391 1.2088518 -0.58214724
v -2.8503103 0.6715843 -0.5821473
v -2.3922248 0.6715843 -0.9788611
v -1.9341391 1.2088518 -0.58214724
v -2.3922248 0.6715843 -0.9788611
v -1.4760532 0.6715843 -0.978861
v -1.9341391 1.2088518 -0.58214724
v -1.4760532 0.6715843 -0.978861
v -1.0179679 0.6715843 -0.5821472
v 0 1.2088518 0.29107368
v 0.91617125 0.6715843 0.29107368
v 0.4580856 0.6715843 0.68778753
v 0 1.2088518 0.29107368
v 0.4580856 0.6715843 0.68778753
v -0.4580857 0.6715843 0.6877875
v 0 1.2088518 0.29107368
v -0.4580857 0.6715843 0.6877875
v -0.91617125 0.6715843 0.29107365
v 0 1.2088518 0.29107368
v -0.91617125 0.6715843 0.29107365
v -0.45808554 0.6715843 -0.10564014
v 0 1.2088518 0.29107368
v -0.45808554 0.6715843 -0.10564014
v 0.45808595 0.6715843 -0.105640024
v 0 1.2088518 0.29107368
v 0.45808595 0.6715843 -0.105640024
v 0.91617125 0.6715843 0.29107377
v 1.9341391 1.2088518 1.1642946
v 2.8503103 0.6715843 1.1642946
v 2.3922248 0.6715843 1.5610085
v 1.9341391 1.2088518 1.1642946
v 2.3922248 0.6715843 1.5610085
v 1.4760535 0.6715843 1.5610085
v 1.9341391 1.2088518 1.1642946
v 1.4760535 0.6715843 1.5610085
v 1.0179679 0.6715843 1.1642946
v 1.9341391 1.2088518 1.1642946
v 1.0179679 0.6715843 1.1642946
v 1.4760536 0.6715843 0.76758075
v 1.9341391 1.2088518 1.1642946
v 1.4760536 0.6715843 0.76758075
v 2.392225 0.6715843 0.76758087
v 1.9341391 1.2088518 1.1642946
v 2.392225 0.6715843 0.76758087
v 2.8503103 0.6715843 1.1642947
v 0 1.0553467 2.668175
v -1.1197648 0.38376245 1.6979295
v 1.1197648 0.38376245 1.6979295
v 0 1.0553467 2.668175
v 0 0.6715843 3.4928837
v -0.6107808 0.47970307 2.0375154
v -2.035936 0.113707386 -3.41791
v -2.8212256 0 -5.1455474
v -1.2506465 0 -5.1455474
v -2.035936 0.469043 -3.0252652
v -2.5071099 0.113707386 -3.41791
v -1.5647624 0.113707386 -3.41791
v -0.6786454 0.113707386 -3.41791
v -1.463935 0 -5.1455474
v 0.10664427 0 -5.1455474
v -0.6786454 0.469043 -3.0252652
v -1.1498191 0.113707386 -3.41791
v -0.20747158 0.113707386 -3.41791
v 0.6786454 0.113707386 -3.41791
v -0.10664427 0 -5.1455474
v 1.463935 0 -5.1455474
v 0.6786454 0.469043 -3.0252652
v 0.20747158 0.113707386 -3.41791
v 1.1498191 0.113707386 -3.41791
v 2.035936 0.113707386 -3.41791
v 1.2506465 0 -5.1455474
v 2.8212256 0 -5.1455474
v 2.035936 0.469043 -3.0252652
v 1.5647624 0.113707386 -3.41791
v 2.5071099 0.113707386 -3.41791
vn -0.516613 -0.7717772 -0.37077063
vn -0.516613 -0.7717772 -0.37077063
vn -0.516613 -0.7717772 -0.37077063
vn -0.02162525 0.76790005 -0.64020455
vn -0.02162525 0.76790005 -0.64020455
vn -0.02162525 0.76790005 -0.64020455
vn -0.105071984 0.17896256 -0.9782291
vn -0.105071984 0.17896256 -0.9782291
vn -0.105071984 0.17896256 -0.9782291
vn -0.009255337 0.7510544 -0.6601755
vn -0.009255337 0.7510544 -0.6601755
vn -0.009255337 0.7510544 -0.6601755
vn 3.2114475E-08 0.25507465 -0.9669213
vn 3.2114475E-08 0.25507465 -0.9669213
vn 3.2114475E-08 0.25507465 -0.9669213
vn -3.7063983E-09 0.74699044 -0.66483474
vn -3.7063983E-09 0.74699044 -0.66483474
vn -3.7063983E-09 0.74699044 -0.66483474
vn 0.10507193 0.1789626 -0.97822917
vn 0.10507193 0.1789626 -0.97822917
vn 0.10507193 0.1789626 -0.97822917
vn 0.009255351 0.7510544 -0.66017544
vn 0.009255351 0.7510544 -0.66017544
vn 0.009255351 0.7510544 -0.66017544
vn 0.516613 -0.7717776 -0.37076998
vn 0.516613 -0.7717776 -0.37076998
vn 0.516613 -0.7717776 -0.37076998
vn 0.02162526 0.7679001 -0.64020455
vn 0.02162526 0.7679001 -0.64020455
vn 0.02162526 0.7679001 -0.64020455
vn 0.13752012 -0.6383215 0.75738615
vn 0.13752012 -0.6383215 0.75738615
vn 0.13752012 -0.6383215 0.75738615
vn 0.04761022 0.82889 -0.557382
vn 0.04761022 0.82889 -0.557382
vn 0.04761022 0.82889 -0.557382
vn 0.048375122 -0.56264204 0.825284
vn 0.048375122 -0.56264204 0.825284
vn 0.048375122 -0.56264204 0.825284
vn 0.15586345 0.69784135 0.699088
vn 0.15586345 0.69784135 0.699088
vn 0.15586345 0.69784135 0.699088
vn -2.5392442E-08 -0.5476812 0.83668715
vn -2.5392442E-08 -0.5476812 0.83668715
vn -2.5392442E-08 -0.5476812 0.83668715
vn -3.5439925E-08 -0.3222161 0.9466662
vn -3.5439925E-08 -0.3222161 0.9466662
vn -3.5439925E-08 -0.3222161 0.9466662
vn -0.04837515 -0.5626421 0.82528394
vn -0.04837515 -0.5626421 0.82528394
vn -0.04837515 -0.5626421 0.82528394
vn -0.15586348 0.6978428 0.6990865
vn -0.15586348 0.6978428 0.6990865
vn -0.15586348 0.6978428 0.6990865
vn -0.13752012 -0.63832146 0.75738615
vn -0.13752012 -0.63832146 0.75738615
vn -0.13752012 -0.63832146 0.75738615
vn -0.047610186 0.82888985 -0.55738205
vn -0.047610186 0.82888985 -0.55738205
vn -0.047610186 0.82888985 -0.55738205
vn -0.4368027 -0.74485433 -0.5043762
vn -0.4368027 -0.74485433 -0.5043762
vn -0.4368027 -0.74485433 -0.5043762
vn 2.4353277E-08 -0.5940066 -0.80446017
vn 2.4353277E-08 -0.5940066 -0.80446017
vn 2.4353277E-08 -0.5940066 -0.80446017
vn 0.43680272 -0.74485433 -0.5043762
vn 0.43680272 -0.74485433 -0.5043762
vn 0.43680272 -0.74485433 -0.5043762
vn 0.43680266 -0.74485433 0.5043762
vn 0.43680266 -0.74485433 0.5043762
vn 0.43680266 -0.74485433 0.5043762
vn -9.741308E-08 -0.5940066 0.80446017
vn -9.741308E-08 -0.5940066 0.80446017
vn -9.741308E-08 -0.5940066 0.80446017
vn -0.43680274 -0.74485445 0.504376
vn -0.43680274 -0.74485445 0.504376
vn -0.43680274 -0.74485445 0.504376
vn -0.43680266 -0.7448544 -0.50437623
vn -0.43680266 -0.7448544 -0.50437623
vn -0.43680266 -0.7448544 -0.50437623
vn 4.8706553E-08 -0.5940066 -0.8044601
vn 4.8706553E-08 -0.5940066 -0.8044601
vn 4.8706553E-08 -0.5940066 -0.8044601
vn 0.4368027 -0.74485433 -0.50437623
vn 0.4368027 -0.74485433 -0.50437623
vn 0.4368027 -0.74485433 -0.50437623
vn 0.43680266 -0.7448544 0.50437635
vn 0.43680266 -0.7448544 0.50437635
vn 0.43680266 -0.7448544 0.50437635
vn -9.7413086E-08 -0.5940066 0.80446017
vn -9.7413086E-08 -0.5940066 0.80446017
vn -9.7413086E-08 -0.5940066 0.80446017
vn -0.4368028 -0.7448545 0.50437605
vn -0.4368028 -0.7448545 0.50437605
vn -0.4368028 -0.7448545 0.50437605
vn -0.43680272 -0.7448544 -0.5043762
vn -0.43680272 -0.7448544 -0.5043762
vn -0.43680272 -0.7448544 -0.5043762
vn 0 -0.59400666 -0.8044601
vn 0 -0.59400666 -0.8044601
vn 0 -0.59400666 -0.8044601
vn 0.43680272 -0.7448544 -0.5043762
vn 0.43680272 -0.7448544 -0.5043762
vn 0.43680272 -0.7448544 -0.5043762
vn 0.43680266 -0.74485433 0.50437623
vn 0.43680266 -0.74485433 0.50437623
vn 0.43680266 -0.74485433 0.50437623
vn -9.7413086E-08 -0.5940066 0.80446017
vn -9.7413086E-08 -0.5940066 0.80446017
vn -9.7413086E-08 -0.5940066 0.80446017
vn -0.43680283 -0.7448545 0.504376
vn -0.43680283 -0.7448545 0.504376
vn -0.43680283 -0.7448545 0.504376
vn 0 -0.8222414 0.5691388
vn 0 -0.8222414 0.5691388
vn 0 -0.8222414 0.5691388
vn 0.7903663 -0.55544305 -0.25846478
vn 0.7903663 -0.55544305 -0.25846478
vn 0.7903663 -0.55544305 -0.25846478
vn 0 -0.9978411 0.06567461
vn 0 -0.9978411 0.06567461
vn 0 -0.9978411 0.06567461
vn 0 -0.7414555 0.6710021
vn 0 -0.7414555 0.6710021
vn 0 -0.7414555 0.6710021
vn 0 -0.9978411 0.06567461
vn 0 -0.9978411 0.06567461
vn 0 -0.9978411 0.06567461
vn 0 -0.7414555 0.6710021
vn 0 -0.7414555 0.6710021
vn 0 -0.7414555 0.6710021
vn 0 -0.9978411 0.06567461
vn 0 -0.9978411 0.06567461
vn 0 -0.9978411 0.06567461
vn 0 -0.7414555 0.6710021
vn 0 -0.7414555 0.6710021
vn 0 -0.7414555 0.6710021
vn 0 -0.9978411 0.06567461
vn 0 -0.9978411 0.06567461
vn 0 -0.9978411 0.06567461
vn 0 -0.7414555 0.6710021
vn 0 -0.7414555 0.6710021
vn 0 -0.7414555 0.6710021
f 1//1 2//2 3//3
f 4//4 5//5 6//6
f 7//7 8//8 9//9
f 10//10 11//11 12//12
f 13//13 14//14 15//15
f 16//16 17//17 18//18
f 19//19 20//20 21//21
f 22//22 23//23 24//24
f 25//25 26//26 27//27
f 28//28 29//29 30//30
f 31//31 32//32 33//33
f 34//34 35//35 36//36
f 37//37 38//38 39//39
f 40//40 41//41 42//42
f 43//43 44//44 45//45
f 46//46 47//47 48//48
f 49//49 50//50 51//51
f 52//52 53//53 54//54
f 55//55 56//56 57//57
f 58//58 59//59 60//60
f 61//61 62//62 63//63
f 64//64 65//65 66//66
f 67//67 68//68 69//69
f 70//70 71//71 72//72
f 73//73 74//74 75//75
f 76//76 77//77 78//78
f 79//79 80//80 81//81
f 82//82 83//83 84//84
f 85//85 86//86 87//87
f 88//88 89//89 90//90
f 91//91 92//92 93//93
f 94//94 95//95 96//96
f 97//97 98//98 99//99
f 100//100 101//101 102//102
f 103//103 104//104 105//105
f 106//106 107//107 108//108
f 109//109 110//110 111//111
f 112//112 113//113 114//114
f 115//115 116//116 117//117
f 118//118 119//119 120//120
f 121//121 122//122 123//123
f 124//124 125//125 126//126
f 127//127 128//128 129//129
f 130//130 131//131 132//132
f 133//133 134//134 135//135
f 136//136 137//137 138//138
f 139//139 140//140 141//141
f 142//142 143//143 144//144
