# Exported from SharpOpenGl procedural mesh
o aetherian_frigate_mk3_39
# vertices 144
v 1.5037477 0.3324052 0.29888585
v 1.2165575 0.44963494 0.46578252
v 0 1.1301777 0.7472147
v 1.5037477 0.3324052 0.29888585
v 0 0.06648105 0
v 1.2165575 0.44963494 0.46578252
v 1.2165575 0.44963494 0.46578252
v 0.46468356 0.5220869 0.5689303
v 0 1.1301777 0.7472147
v 1.2165575 0.44963494 0.46578252
v 0 0.06648105 0
v 0.46468356 0.5220869 0.5689303
v 0.46468356 0.5220869 0.5689303
v -0.46468365 0.52208686 0.56893027
v 0 1.1301777 0.7472147
v 0.46468356 0.5220869 0.5689303
v 0 0.06648105 0
v -0.46468365 0.52208686 0.56893027
v -0.46468365 0.52208686 0.56893027
v -1.2165575 0.44963494 0.4657825
v 0 1.1301777 0.7472147
v -0.46468365 0.52208686 0.56893027
v 0 0.06648105 0
v -1.2165575 0.44963494 0.4657825
v -1.2165575 0.44963494 0.4657825
v -1.5037477 0.33240518 0.29888582
v 0 1.1301777 0.7472147
v -1.2165575 0.44963494 0.4657825
v 0 0.06648105 0
v -1.5037477 0.33240518 0.29888582
v -1.5037477 0.33240518 0.29888582
v -1.2165574 0.21517545 0.13198917
v 0 1.1301777 0.7472147
v -1.5037477 0.33240518 0.29888582
v 0 0.06648105 0
v -1.2165574 0.21517545 0.13198917
v -1.2165574 0.21517545 0.13198917
v -0.46468306 0.14272349 0.028841347
v 0 1.1301777 0.7472147
v -1.2165574 0.21517545 0.13198917
v 0 0.06648105 0
v -0.46468306 0.14272349 0.028841347
v -0.46468306 0.14272349 0.028841347
v 0.4646838 0.14272353 0.028841406
v 0 1.1301777 0.7472147
v -0.46468306 0.14272349 0.028841347
v 0 0.06648105 0
v 0.4646838 0.14272353 0.028841406
v 0.4646838 0.14272353 0.028841406
v 1.2165574 0.21517548 0.13198917
v 0 1.1301777 0.7472147
v 0.4646838 0.14272353 0.028841406
v 0 0.06648105 0
v 1.2165574 0.21517548 0.13198917
v 1.2165574 0.21517548 0.13198917
v 1.5037477 0.33240524 0.2988859
v 0 1.1301777 0.7472147
v 1.2165574 0.21517548 0.13198917
v 0 0.06648105 0
v 1.5037477 0.33240524 0.2988859
v -1.3605337 0.83766115 -0.4483288
v -0.71607035 0.4653673 -0.4483288
v -1.0383021 0.4653673 -0.16926795
v -1.3605337 0.83766115 -0.4483288
v -1.0383021 0.4653673 -0.16926795
v -1.6827655 0.4653673 -0.16926798
v -1.3605337 0.83766115 -0.4483288
v -1.6827655 0.4653673 -0.16926798
v -2.004997 0.4653673 -0.44832882
v -1.3605337 0.83766115 -0.4483288
v -2.004997 0.4653673 -0.44832882
v -1.6827654 0.4653673 -0.72738963
v -1.3605337 0.83766115 -0.4483288
v -1.6827654 0.4653673 -0.72738963
v -1.0383018 0.4653673 -0.7273896
v -1.3605337 0.83766115 -0.4483288
v -1.0383018 0.4653673 -0.7273896
v -0.71607035 0.4653673 -0.44832873
v 0 0.83766115 0.22416443
v 0.64446336 0.4653673 0.22416443
v 0.32223165 0.4653673 0.50322527
v 0 0.83766115 0.22416443
v 0.32223165 0.4653673 0.50322527
v -0.3222317 0.4653673 0.5032252
v 0 0.83766115 0.22416443
v -0.3222317 0.4653673 0.5032252
v -0.64446336 0.4653673 0.2241644
v 0 0.83766115 0.22416443
v -0.64446336 0.4653673 0.2241644
v -0.32223162 0.4653673 -0.054896414
v 0 0.83766115 0.22416443
v -0.32223162 0.4653673 -0.054896414
v 0.32223192 0.4653673 -0.054896325
v 0 0.83766115 0.22416443
v 0.32223192 0.4653673 -0.054896325
v 0.64446336 0.4653673 0.22416449
v 1.3605337 0.83766115 0.89665765
v 2.004997 0.4653673 0.89665765
v 1.6827654 0.4653673 1.1757185
v 1.3605337 0.83766115 0.89665765
v 1.6827654 0.4653673 1.1757185
v 1.038302 0.4653673 1.1757184
v 1.3605337 0.83766115 0.89665765
v 1.038302 0.4653673 1.1757184
v 0.71607035 0.4653673 0.89665765
v 1.3605337 0.83766115 0.89665765
v 0.71607035 0.4653673 0.89665765
v 1.0383021 0.4653673 0.6175968
v 1.3605337 0.83766115 0.89665765
v 1.0383021 0.4653673 0.6175968
v 1.6827656 0.4653673 0.61759686
v 1.3605337 0.83766115 0.89665765
v 1.6827656 0.4653673 0.61759686
v 2.004997 0.4653673 0.8966577
v 0 0.7312915 2.0548403
v -0.7876774 0.2659242 1.3076257
v 0.7876774 0.2659242 1.3076257
v 0 0.7312915 2.0548403
v 0 0.4653673 2.6899729
v -0.4296422 0.3324052 1.5691507
v -1.4321407 0.07879235 -2.6322334
v -1.8822421 0 -3.6224566
v -0.98203933 0 -3.6224566
v -1.4321407 0.32501844 -2.4071827
v -1.7022016 0.07879235 -2.6322334
v -1.1620798 0.07879235 -2.6322334
v -0.47738025 0.07879235 -2.6322334
v -0.92748165 0 -3.6224566
v -0.02727887 0 -3.6224566
v -0.47738025 0.32501844 -2.4071827
v -0.74744105 0.07879235 -2.6322334
v -0.20731941 0.07879235 -2.6322334
v 0.47738025 0.07879235 -2.6322334
v 0.02727887 0 -3.6224566
v 0.92748165 0 -3.6224566
v 0.47738025 0.32501844 -2.4071827
v 0.20731941 0.07879235 -2.6322334
v 0.74744105 0.07879235 -2.6322334
v 1.4321407 0.07879235 -2.6322334
v 0.98203933 0 -3.6224566
v 1.8822421 0 -3.6224566
v 1.4321407 0.32501844 -2.4071827
v 1.1620798 0.07879235 -2.6322334
v 1.7022016 0.07879235 -2.6322334
vn -0.51780725 -0.78527373 -0.3394419
vn -0.51780725 -0.78527373 -0.3394419
vn -0.51780725 -0.78527373 -0.3394419
vn -0.02218619 0.7997471 -0.5999269
vn -0.02218619 0.7997471 -0.5999269
vn -0.02218619 0.7997471 -0.5999269
vn -0.11447938 0.19793801 -0.9735065
vn -0.11447938 0.19793801 -0.9735065
vn -0.11447938 0.19793801 -0.9735065
vn -0.009520926 0.78430426 -0.6203034
vn -0.009520926 0.78430426 -0.6203034
vn -0.009520926 0.78430426 -0.6203034
vn 4.3500137E-08 0.28134438 -0.9596069
vn 4.3500137E-08 0.28134438 -0.9596069
vn 4.3500137E-08 0.28134438 -0.9596069
vn -9.97157E-09 0.78055984 -0.6250811
vn -9.97157E-09 0.78055984 -0.6250811
vn -9.97157E-09 0.78055984 -0.6250811
vn 0.114479356 0.1979381 -0.97350657
vn 0.114479356 0.1979381 -0.97350657
vn 0.114479356 0.1979381 -0.97350657
vn 0.0095209535 0.78430426 -0.62030333
vn 0.0095209535 0.78430426 -0.62030333
vn 0.0095209535 0.78430426 -0.62030333
vn 0.51780725 -0.7852738 -0.33944175
vn 0.51780725 -0.7852738 -0.33944175
vn 0.51780725 -0.7852738 -0.33944175
vn 0.022186171 0.79974705 -0.59992695
vn 0.022186171 0.79974705 -0.59992695
vn 0.022186171 0.79974705 -0.59992695
vn 0.14357972 -0.6765388 0.7222743
vn 0.14357972 -0.6765388 0.7222743
vn 0.14357972 -0.6765388 0.7222743
vn 0.048353788 0.85458195 -0.5170605
vn 0.048353788 0.85458195 -0.5170605
vn 0.048353788 0.85458195 -0.5170605
vn 0.051082954 -0.60313207 0.7960039
vn 0.051082954 -0.60313207 0.7960039
vn 0.051082954 -0.60313207 0.7960039
vn 0.1612876 0.73306024 0.660764
vn 0.1612876 0.73306024 0.660764
vn 0.1612876 0.73306024 0.660764
vn -2.356497E-08 -0.58829206 0.80864847
vn -2.356497E-08 -0.58829206 0.80864847
vn -2.356497E-08 -0.58829206 0.80864847
vn -4.2967244E-08 -0.35381562 0.93531513
vn -4.2967244E-08 -0.35381562 0.93531513
vn -4.2967244E-08 -0.35381562 0.93531513
vn -0.051082943 -0.6031321 0.79600394
vn -0.051082943 -0.6031321 0.79600394
vn -0.051082943 -0.6031321 0.79600394
vn -0.16128764 0.7330615 0.66076255
vn -0.16128764 0.7330615 0.66076255
vn -0.16128764 0.7330615 0.66076255
vn -0.1435798 -0.6765389 0.7222742
vn -0.1435798 -0.6765389 0.7222742
vn -0.1435798 -0.6765389 0.7222742
vn -0.048353836 0.8545821 -0.5170604
vn -0.048353836 0.8545821 -0.5170604
vn -0.048353836 0.8545821 -0.5170604
vn -0.4331519 -0.7498123 -0.50016075
vn -0.4331519 -0.7498123 -0.50016075
vn -0.4331519 -0.7498123 -0.50016075
vn 4.96953E-08 -0.5997805 -0.80016464
vn 4.96953E-08 -0.5997805 -0.80016464
vn 4.96953E-08 -0.5997805 -0.80016464
vn 0.433152 -0.7498124 -0.5001606
vn 0.433152 -0.7498124 -0.5001606
vn 0.433152 -0.7498124 -0.5001606
vn 0.43315193 -0.7498123 0.5001607
vn 0.43315193 -0.7498123 0.5001607
vn 0.43315193 -0.7498123 0.5001607
vn -7.454293E-08 -0.5997805 0.8001646
vn -7.454293E-08 -0.5997805 0.8001646
vn -7.454293E-08 -0.5997805 0.8001646
vn -0.43315205 -0.74981254 0.5001605
vn -0.43315205 -0.74981254 0.5001605
vn -0.43315205 -0.74981254 0.5001605
vn -0.4331519 -0.7498123 -0.50016075
vn -0.4331519 -0.7498123 -0.50016075
vn -0.4331519 -0.7498123 -0.50016075
vn 7.4542946E-08 -0.5997804 -0.8001646
vn 7.4542946E-08 -0.5997804 -0.8001646
vn 7.4542946E-08 -0.5997804 -0.8001646
vn 0.4331519 -0.74981236 -0.5001607
vn 0.4331519 -0.74981236 -0.5001607
vn 0.4331519 -0.74981236 -0.5001607
vn 0.43315193 -0.74981236 0.5001609
vn 0.43315193 -0.74981236 0.5001609
vn 0.43315193 -0.74981236 0.5001609
vn -1.2423823E-07 -0.5997804 0.8001646
vn -1.2423823E-07 -0.5997804 0.8001646
vn -1.2423823E-07 -0.5997804 0.8001646
vn -0.43315205 -0.7498125 0.5001606
vn -0.43315205 -0.7498125 0.5001606
vn -0.43315205 -0.7498125 0.5001606
vn -0.43315196 -0.74981236 -0.50016063
vn -0.43315196 -0.74981236 -0.50016063
vn -0.43315196 -0.74981236 -0.50016063
vn 1.4908589E-07 -0.5997805 -0.80016464
vn 1.4908589E-07 -0.5997805 -0.80016464
vn 1.4908589E-07 -0.5997805 -0.80016464
vn 0.43315196 -0.7498125 -0.5001607
vn 0.43315196 -0.7498125 -0.5001607
vn 0.43315196 -0.7498125 -0.5001607
vn 0.4331519 -0.7498123 0.50016075
vn 0.4331519 -0.7498123 0.50016075
vn 0.4331519 -0.7498123 0.50016075
vn -7.454293E-08 -0.5997805 0.8001646
vn -7.454293E-08 -0.5997805 0.8001646
vn -7.454293E-08 -0.5997805 0.8001646
vn -0.43315205 -0.7498125 0.50016046
vn -0.43315205 -0.7498125 0.50016046
vn -0.43315205 -0.7498125 0.50016046
vn 0 -0.8488355 0.528657
vn 0 -0.8488355 0.528657
vn 0 -0.8488355 0.528657
vn 0.79102206 -0.5643206 -0.23627588
vn 0.79102206 -0.5643206 -0.23627588
vn 0.79102206 -0.5643206 -0.23627588
vn 0 -0.99684924 0.07931958
vn 0 -0.99684924 0.07931958
vn 0 -0.99684924 0.07931958
vn 0 -0.6746544 0.7381337
vn 0 -0.6746544 0.7381337
vn 0 -0.6746544 0.7381337
vn 0 -0.99684924 0.07931959
vn 0 -0.99684924 0.07931959
vn 0 -0.99684924 0.07931959
vn 0 -0.6746544 0.7381337
vn 0 -0.6746544 0.7381337
vn 0 -0.6746544 0.7381337
vn 0 -0.99684924 0.07931959
vn 0 -0.99684924 0.07931959
vn 0 -0.99684924 0.07931959
vn 0 -0.6746544 0.7381337
vn 0 -0.6746544 0.7381337
vn 0 -0.6746544 0.7381337
vn 0 -0.99684924 0.07931958
vn 0 -0.99684924 0.07931958
vn 0 -0.99684924 0.07931958
vn 0 -0.6746544 0.7381337
vn 0 -0.6746544 0.7381337
vn 0 -0.6746544 0.7381337
f 1//1 2//2 3//3
f 4//4 5//5 6//6
f 7//7 8//8 9//9
f 10//10 11//11 12//12
f 13//13 14//14 15//15
f 16//16 17//17 18//18
f 19//19 20//20 21//21
f 22//22 23//23 24//24
f 25//25 26//26 27//27
f 28//28 29//29 30//30
f 31//31 32//32 33//33
f 34//34 35//35 36//36
f 37//37 38//38 39//39
f 40//40 41//41 42//42
f 43//43 44//44 45//45
f 46//46 47//47 48//48
f 49//49 50//50 51//51
f 52//52 53//53 54//54
f 55//55 56//56 57//57
f 58//58 59//59 60//60
f 61//61 62//62 63//63
f 64//64 65//65 66//66
f 67//67 68//68 69//69
f 70//70 71//71 72//72
f 73//73 74//74 75//75
f 76//76 77//77 78//78
f 79//79 80//80 81//81
f 82//82 83//83 84//84
f 85//85 86//86 87//87
f 88//88 89//89 90//90
f 91//91 92//92 93//93
f 94//94 95//95 96//96
f 97//97 98//98 99//99
f 100//100 101//101 102//102
f 103//103 104//104 105//105
f 106//106 107//107 108//108
f 109//109 110//110 111//111
f 112//112 113//113 114//114
f 115//115 116//116 117//117
f 118//118 119//119 120//120
f 121//121 122//122 123//123
f 124//124 125//125 126//126
f 127//127 128//128 129//129
f 130//130 131//131 132//132
f 133//133 134//134 135//135
f 136//136 137//137 138//138
f 139//139 140//140 141//141
f 142//142 143//143 144//144
