# Exported from SharpOpenGl procedural mesh
o aetherian_cruiser_mk3_43
# vertices 138
v 2.4186873 0.54916 0.39851475
v 1.9567592 0.7428329 0.6210438
v 0 1.8671441 0.99628687
v 2.4186873 0.54916 0.39851475
v 0 0.109832 0
v 1.9567592 0.7428329 0.6210438
v 1.9567592 0.7428329 0.6210438
v 0.7474154 0.8625294 0.7585743
v 0 1.8671441 0.99628687
v 1.9567592 0.7428329 0.6210438
v 0 0.109832 0
v 0.7474154 0.8625294 0.7585743
v 0.7474154 0.8625294 0.7585743
v -0.7474156 0.86252934 0.75857425
v 0 1.8671441 0.99628687
v 0.7474154 0.8625294 0.7585743
v 0 0.109832 0
v -0.7474156 0.86252934 0.75857425
v -0.7474156 0.86252934 0.75857425
v -1.9567593 0.7428329 0.62104374
v 0 1.8671441 0.99628687
v -0.7474156 0.86252934 0.75857425
v 0 0.109832 0
v -1.9567593 0.7428329 0.62104374
v -1.9567593 0.7428329 0.62104374
v -2.4186873 0.54916 0.39851472
v 0 1.8671441 0.99628687
v -1.9567593 0.7428329 0.62104374
v 0 0.109832 0
v -2.4186873 0.54916 0.39851472
v -2.4186873 0.54916 0.39851472
v -1.9567591 0.35548705 0.17598566
v 0 1.8671441 0.99628687
v -2.4186873 0.54916 0.39851472
v 0 0.109832 0
v -1.9567591 0.35548705 0.17598566
v -1.9567591 0.35548705 0.17598566
v -0.74741465 0.23579064 0.03845516
v 0 1.8671441 0.99628687
v -1.9567591 0.35548705 0.17598566
v 0 0.109832 0
v -0.74741465 0.23579064 0.03845516
v -0.74741465 0.23579064 0.03845516
v 0.7474158 0.23579067 0.038455218
v 0 1.8671441 0.99628687
v -0.74741465 0.23579064 0.03845516
v 0 0.109832 0
v 0.7474158 0.23579067 0.038455218
v 0.7474158 0.23579067 0.038455218
v 1.9567591 0.3554871 0.1759857
v 0 1.8671441 0.99628687
v 0.7474158 0.23579067 0.038455218
v 0 0.109832 0
v 1.9567591 0.3554871 0.1759857
v 1.9567591 0.3554871 0.1759857
v 2.4186873 0.54916006 0.3985148
v 0 1.8671441 0.99628687
v 1.9567591 0.3554871 0.1759857
v 0 0.109832 0
v 2.4186873 0.54916006 0.3985148
v -2.1883361 1.3838832 -0.5977721
v -1.1517558 0.768824 -0.5977721
v -1.6700461 0.768824 -0.14891964
v -2.1883361 1.3838832 -0.5977721
v -1.6700461 0.768824 -0.14891964
v -2.7066264 0.768824 -0.14891967
v -2.1883361 1.3838832 -0.5977721
v -2.7066264 0.768824 -0.14891967
v -3.2249165 0.768824 -0.5977722
v -2.1883361 1.3838832 -0.5977721
v -3.2249165 0.768824 -0.5977722
v -2.7066262 0.768824 -1.0466247
v -2.1883361 1.3838832 -0.5977721
v -2.7066262 0.768824 -1.0466247
v -1.6700456 0.768824 -1.0466244
v -2.1883361 1.3838832 -0.5977721
v -1.6700456 0.768824 -1.0466244
v -1.1517558 0.768824 -0.597772
v 0 1.3838832 0.29888612
v 1.0365803 0.768824 0.29888612
v 0.5182901 0.768824 0.7477386
v 0 1.3838832 0.29888612
v 0.5182901 0.768824 0.7477386
v -0.5182902 0.768824 0.7477386
v 0 1.3838832 0.29888612
v -0.5182902 0.768824 0.7477386
v -1.0365803 0.768824 0.29888606
v 0 1.3838832 0.29888612
v -1.0365803 0.768824 0.29888606
v -0.51829004 0.768824 -0.14996636
v 0 1.3838832 0.29888612
v -0.51829004 0.768824 -0.14996636
v 0.5182905 0.768824 -0.14996624
v 0 1.3838832 0.29888612
v 0.5182905 0.768824 -0.14996624
v 1.0365803 0.768824 0.2988862
v 2.1883361 1.3838832 1.1955444
v 3.2249165 0.768824 1.1955444
v 2.7066262 0.768824 1.6443968
v 2.1883361 1.3838832 1.1955444
v 2.7066262 0.768824 1.6443968
v 1.6700459 0.768824 1.6443968
v 2.1883361 1.3838832 1.1955444
v 1.6700459 0.768824 1.6443968
v 1.1517558 0.768824 1.1955444
v 2.1883361 1.3838832 1.1955444
v 1.1517558 0.768824 1.1955444
v 1.6700461 0.768824 0.7466919
v 2.1883361 1.3838832 1.1955444
v 1.6700461 0.768824 0.7466919
v 2.7066267 0.768824 0.746692
v 2.1883361 1.3838832 1.1955444
v 2.7066267 0.768824 0.746692
v 3.2249165 0.768824 1.1955445
v 0 1.208152 2.739789
v -1.2669315 0.439328 1.743502
v 1.2669315 0.439328 1.743502
v 0 1.208152 2.739789
v 0 0.768824 3.586633
v -0.6910535 0.54916 2.0922024
v -1.9195933 0.13017125 -3.509647
v -2.8080907 0 -5.464341
v -1.0310959 0 -5.464341
v -1.9195933 0.5369564 -3.0653982
v -2.4526918 0.13017125 -3.509647
v -1.3864949 0.13017125 -3.509647
v 0 0.13017125 -3.509647
v -0.8884975 0 -5.464341
v 0.8884975 0 -5.464341
v 0 0.5369564 -3.0653982
v -0.5330985 0.13017125 -3.509647
v 0.5330985 0.13017125 -3.509647
v 1.9195933 0.13017125 -3.509647
v 1.0310959 0 -5.464341
v 2.8080907 0 -5.464341
v 1.9195933 0.5369564 -3.0653982
v 1.3864949 0.13017125 -3.509647
v 2.4526918 0.13017125 -3.509647
vn -0.5126293 -0.7568851 -0.40538406
vn -0.5126293 -0.7568851 -0.40538406
vn -0.5126293 -0.7568851 -0.40538406
vn -0.020866416 0.7323039 -0.6806581
vn -0.020866416 0.7323039 -0.6806581
vn -0.020866416 0.7323039 -0.6806581
vn -0.09575305 0.16118628 -0.9822679
vn -0.09575305 0.16118628 -0.9822679
vn -0.09575305 0.16118628 -0.9822679
vn -0.008905083 0.7141961 -0.699889
vn -0.008905083 0.7141961 -0.699889
vn -0.008905083 0.7141961 -0.699889
vn 2.9620928E-08 0.23026232 -0.9731286
vn 2.9620928E-08 0.23026232 -0.9731286
vn 2.9620928E-08 0.23026232 -0.9731286
vn -2.1928319E-10 0.7098511 -0.70435166
vn -2.1928319E-10 0.7098511 -0.70435166
vn -2.1928319E-10 0.7098511 -0.70435166
vn 0.09575309 0.16118628 -0.9822679
vn 0.09575309 0.16118628 -0.9822679
vn 0.09575309 0.16118628 -0.9822679
vn 0.00890511 0.71419615 -0.69988894
vn 0.00890511 0.71419615 -0.69988894
vn 0.00890511 0.71419615 -0.69988894
vn 0.5126293 -0.7568853 -0.40538368
vn 0.5126293 -0.7568853 -0.40538368
vn 0.5126293 -0.7568853 -0.40538368
vn 0.020866413 0.732304 -0.68065816
vn 0.020866413 0.732304 -0.68065816
vn 0.020866413 0.732304 -0.68065816
vn 0.13033208 -0.5978945 0.7909082
vn 0.13033208 -0.5978945 0.7909082
vn 0.13033208 -0.5978945 0.7909082
vn 0.046450384 0.79925674 -0.59919214
vn 0.046450384 0.79925674 -0.59919214
vn 0.046450384 0.79925674 -0.59919214
vn 0.045338098 -0.5211627 0.85225224
vn 0.045338098 -0.5211627 0.85225224
vn 0.045338098 -0.5211627 0.85225224
vn 0.14906317 0.6596028 0.7366847
vn 0.14906317 0.6596028 0.7366847
vn 0.14906317 0.6596028 0.7366847
vn -2.4290676E-08 -0.5063178 0.86234695
vn -2.4290676E-08 -0.5063178 0.86234695
vn -2.4290676E-08 -0.5063178 0.86234695
vn -3.231466E-08 -0.29199508 0.9564199
vn -3.231466E-08 -0.29199508 0.9564199
vn -3.231466E-08 -0.29199508 0.9564199
vn -0.04533811 -0.52116275 0.8522523
vn -0.04533811 -0.52116275 0.8522523
vn -0.04533811 -0.52116275 0.8522523
vn -0.14906327 0.65960497 0.73668265
vn -0.14906327 0.65960497 0.73668265
vn -0.14906327 0.65960497 0.73668265
vn -0.13033213 -0.5978945 0.7909081
vn -0.13033213 -0.5978945 0.7909081
vn -0.13033213 -0.5978945 0.7909081
vn -0.046450425 0.7992567 -0.59919196
vn -0.046450425 0.7992567 -0.59919196
vn -0.046450425 0.7992567 -0.59919196
vn -0.43964285 -0.7409451 -0.507656
vn -0.43964285 -0.7409451 -0.507656
vn -0.43964285 -0.7409451 -0.507656
vn 0 -0.5894909 -0.8077751
vn 0 -0.5894909 -0.8077751
vn 0 -0.5894909 -0.8077751
vn 0.43964294 -0.74094516 -0.50765574
vn 0.43964294 -0.74094516 -0.50765574
vn 0.43964294 -0.74094516 -0.50765574
vn 0.43964282 -0.74094504 0.50765586
vn 0.43964282 -0.74094504 0.50765586
vn 0.43964282 -0.74094504 0.50765586
vn -1.8879503E-07 -0.5894909 0.8077751
vn -1.8879503E-07 -0.5894909 0.8077751
vn -1.8879503E-07 -0.5894909 0.8077751
vn -0.43964297 -0.74094516 0.5076557
vn -0.43964297 -0.74094516 0.5076557
vn -0.43964297 -0.74094516 0.5076557
vn -0.43964285 -0.7409451 -0.5076559
vn -0.43964285 -0.7409451 -0.5076559
vn -0.43964285 -0.7409451 -0.5076559
vn 0 -0.58949083 -0.807775
vn 0 -0.58949083 -0.807775
vn 0 -0.58949083 -0.807775
vn 0.43964294 -0.7409452 -0.5076558
vn 0.43964294 -0.7409452 -0.5076558
vn 0.43964294 -0.7409452 -0.5076558
vn 0.43964282 -0.7409451 0.507656
vn 0.43964282 -0.7409451 0.507656
vn 0.43964282 -0.7409451 0.507656
vn -7.551801E-08 -0.5894909 0.8077751
vn -7.551801E-08 -0.5894909 0.8077751
vn -7.551801E-08 -0.5894909 0.8077751
vn -0.43964294 -0.74094516 0.5076556
vn -0.43964294 -0.74094516 0.5076556
vn -0.43964294 -0.74094516 0.5076556
vn -0.43964282 -0.74094504 -0.507656
vn -0.43964282 -0.74094504 -0.507656
vn -0.43964282 -0.74094504 -0.507656
vn 0 -0.58949083 -0.8077751
vn 0 -0.58949083 -0.8077751
vn 0 -0.58949083 -0.8077751
vn 0.4396429 -0.74094516 -0.50765586
vn 0.4396429 -0.74094516 -0.50765586
vn 0.4396429 -0.74094516 -0.50765586
vn 0.43964285 -0.7409451 0.507656
vn 0.43964285 -0.7409451 0.507656
vn 0.43964285 -0.7409451 0.507656
vn -7.551801E-08 -0.5894909 0.8077751
vn -7.551801E-08 -0.5894909 0.8077751
vn -7.551801E-08 -0.5894909 0.8077751
vn -0.43964294 -0.74094516 0.5076556
vn -0.43964294 -0.74094516 0.5076556
vn -0.43964294 -0.74094516 0.5076556
vn 0 -0.7916824 0.6109329
vn 0 -0.7916824 0.6109329
vn 0 -0.7916824 0.6109329
vn 0.78755987 -0.54700905 -0.28377888
vn 0.78755987 -0.54700905 -0.28377888
vn 0.78755987 -0.54700905 -0.28377888
vn 0 -0.9977899 0.066447
vn 0 -0.9977899 0.066447
vn 0 -0.9977899 0.066447
vn 0 -0.7375202 0.67532516
vn 0 -0.7375202 0.67532516
vn 0 -0.7375202 0.67532516
vn 0 -0.99779004 0.066447005
vn 0 -0.99779004 0.066447005
vn 0 -0.99779004 0.066447005
vn 0 -0.73752016 0.6753251
vn 0 -0.73752016 0.6753251
vn 0 -0.73752016 0.6753251
vn 0 -0.9977899 0.066447
vn 0 -0.9977899 0.066447
vn 0 -0.9977899 0.066447
vn 0 -0.7375202 0.67532516
vn 0 -0.7375202 0.67532516
vn 0 -0.7375202 0.67532516
f 1//1 2//2 3//3
f 4//4 5//5 6//6
f 7//7 8//8 9//9
f 10//10 11//11 12//12
f 13//13 14//14 15//15
f 16//16 17//17 18//18
f 19//19 20//20 21//21
f 22//22 23//23 24//24
f 25//25 26//26 27//27
f 28//28 29//29 30//30
f 31//31 32//32 33//33
f 34//34 35//35 36//36
f 37//37 38//38 39//39
f 40//40 41//41 42//42
f 43//43 44//44 45//45
f 46//46 47//47 48//48
f 49//49 50//50 51//51
f 52//52 53//53 54//54
f 55//55 56//56 57//57
f 58//58 59//59 60//60
f 61//61 62//62 63//63
f 64//64 65//65 66//66
f 67//67 68//68 69//69
f 70//70 71//71 72//72
f 73//73 74//74 75//75
f 76//76 77//77 78//78
f 79//79 80//80 81//81
f 82//82 83//83 84//84
f 85//85 86//86 87//87
f 88//88 89//89 90//90
f 91//91 92//92 93//93
f 94//94 95//95 96//96
f 97//97 98//98 99//99
f 100//100 101//101 102//102
f 103//103 104//104 105//105
f 106//106 107//107 108//108
f 109//109 110//110 111//111
f 112//112 113//113 114//114
f 115//115 116//116 117//117
f 118//118 119//119 120//120
f 121//121 122//122 123//123
f 124//124 125//125 126//126
f 127//127 128//128 129//129
f 130//130 131//131 132//132
f 133//133 134//134 135//135
f 136//136 137//137 138//138
