# Exported from SharpOpenGl procedural mesh
o aetherian_gunship_mk2_23
# vertices 138
v 2.0295072 0.3827824 0.267286
v 1.6419058 0.5177787 0.41653743
v 0 1.3014601 0.66821504
v 2.0295072 0.3827824 0.267286
v 0 0.07655648 0
v 1.6419058 0.5177787 0.41653743
v 1.6419058 0.5177787 0.41653743
v 0.62715214 0.601211 0.5087799
v 0 1.3014601 0.66821504
v 1.6419058 0.5177787 0.41653743
v 0 0.07655648 0
v 0.62715214 0.601211 0.5087799
v 0.62715214 0.601211 0.5087799
v -0.62715226 0.601211 0.5087799
v 0 1.3014601 0.66821504
v 0.62715214 0.601211 0.5087799
v 0 0.07655648 0
v -0.62715226 0.601211 0.5087799
v -0.62715226 0.601211 0.5087799
v -1.6419059 0.5177787 0.4165374
v 0 1.3014601 0.66821504
v -0.62715226 0.601211 0.5087799
v 0 0.07655648 0
v -1.6419059 0.5177787 0.4165374
v -1.6419059 0.5177787 0.4165374
v -2.0295072 0.38278237 0.26728597
v 0 1.3014601 0.66821504
v -1.6419059 0.5177787 0.4165374
v 0 0.07655648 0
v -2.0295072 0.38278237 0.26728597
v -2.0295072 0.38278237 0.26728597
v -1.6419057 0.24778606 0.11803454
v 0 1.3014601 0.66821504
v -2.0295072 0.38278237 0.26728597
v 0 0.07655648 0
v -1.6419057 0.24778606 0.11803454
v -1.6419057 0.24778606 0.11803454
v -0.6271515 0.16435374 0.025792077
v 0 1.3014601 0.66821504
v -1.6419057 0.24778606 0.11803454
v 0 0.07655648 0
v -0.6271515 0.16435374 0.025792077
v -0.6271515 0.16435374 0.025792077
v 0.62715244 0.16435379 0.025792137
v 0 1.3014601 0.66821504
v -0.6271515 0.16435374 0.025792077
v 0 0.07655648 0
v 0.62715244 0.16435379 0.025792137
v 0.62715244 0.16435379 0.025792137
v 1.6419057 0.24778607 0.11803456
v 0 1.3014601 0.66821504
v 0.62715244 0.16435379 0.025792137
v 0 0.07655648 0
v 1.6419057 0.24778607 0.11803456
v 1.6419057 0.24778607 0.11803456
v 2.0295072 0.38278243 0.26728603
v 0 1.3014601 0.66821504
v 1.6419057 0.24778607 0.11803456
v 0 0.07655648 0
v 2.0295072 0.38278243 0.26728603
v -1.8362207 0.96461165 -0.400929
v -0.9664319 0.53589535 -0.400929
v -1.4013264 0.53589535 -0.024299383
v -1.8362207 0.96461165 -0.400929
v -1.4013264 0.53589535 -0.024299383
v -2.2711153 0.53589535 -0.024299413
v -1.8362207 0.96461165 -0.400929
v -2.2711153 0.53589535 -0.024299413
v -2.7060096 0.53589535 -0.40092903
v -1.8362207 0.96461165 -0.400929
v -2.7060096 0.53589535 -0.40092903
v -2.271115 0.53589535 -0.7775586
v -1.8362207 0.96461165 -0.400929
v -2.271115 0.53589535 -0.7775586
v -1.4013261 0.53589535 -0.77755857
v -1.8362207 0.96461165 -0.400929
v -1.4013261 0.53589535 -0.77755857
v -0.9664319 0.53589535 -0.4009289
v 0 0.96461165 0.20046458
v 0.8697888 0.53589535 0.20046458
v 0.43489438 0.53589535 0.5770942
v 0 0.96461165 0.20046458
v 0.43489438 0.53589535 0.5770942
v -0.43489447 0.53589535 0.5770942
v 0 0.96461165 0.20046458
v -0.43489447 0.53589535 0.5770942
v -0.8697888 0.53589535 0.20046453
v 0 0.96461165 0.20046458
v -0.8697888 0.53589535 0.20046453
v -0.43489432 0.53589535 -0.17616504
v 0 0.96461165 0.20046458
v -0.43489432 0.53589535 -0.17616504
v 0.4348947 0.53589535 -0.17616495
v 0 0.96461165 0.20046458
v 0.4348947 0.53589535 -0.17616495
v 0.8697888 0.53589535 0.20046465
v 1.8362207 0.96461165 0.8018582
v 2.7060096 0.53589535 0.8018582
v 2.271115 0.53589535 1.1784878
v 1.8362207 0.96461165 0.8018582
v 2.271115 0.53589535 1.1784878
v 1.4013263 0.53589535 1.1784878
v 1.8362207 0.96461165 0.8018582
v 1.4013263 0.53589535 1.1784878
v 0.9664319 0.53589535 0.8018581
v 1.8362207 0.96461165 0.8018582
v 0.9664319 0.53589535 0.8018581
v 1.4013264 0.53589535 0.42522857
v 1.8362207 0.96461165 0.8018582
v 1.4013264 0.53589535 0.42522857
v 2.2711155 0.53589535 0.42522866
v 1.8362207 0.96461165 0.8018582
v 2.2711155 0.53589535 0.42522866
v 2.7060096 0.53589535 0.80185825
v 0 0.8421213 1.8375914
v -1.0630752 0.30622593 1.1693763
v 1.0630752 0.30622593 1.1693763
v 0 0.8421213 1.8375914
v 0 0.53589535 2.4055743
v -0.5798592 0.3827824 1.4032515
v -1.61072 0.0907336 -2.3539393
v -2.2458038 0 -3.751124
v -0.9756361 0 -3.751124
v -1.61072 0.3742761 -2.0363975
v -1.9917704 0.0907336 -2.3539393
v -1.2296697 0.0907336 -2.3539393
v 0 0.0907336 -2.3539393
v -0.6350839 0 -3.751124
v 0.6350839 0 -3.751124
v 0 0.3742761 -2.0363975
v -0.38105038 0.0907336 -2.3539393
v 0.38105038 0.0907336 -2.3539393
v 1.61072 0.0907336 -2.3539393
v 0.9756361 0 -3.751124
v 2.2458038 0 -3.751124
v 1.61072 0.3742761 -2.0363975
v 1.2296697 0.0907336 -2.3539393
v 1.9917704 0.0907336 -2.3539393
vn -0.44117036 -0.7841346 -0.43646467
vn -0.44117036 -0.7841346 -0.43646467
vn -0.44117036 -0.7841346 -0.43646467
vn -0.017022023 0.7191383 -0.6946585
vn -0.017022023 0.7191383 -0.6946585
vn -0.017022023 0.7191383 -0.6946585
vn -0.076738566 0.15550594 -0.9848498
vn -0.076738566 0.15550594 -0.9848498
vn -0.076738566 0.15550594 -0.9848498
vn -0.0072566248 0.7006013 -0.7135161
vn -0.0072566248 0.7006013 -0.7135161
vn -0.0072566248 0.7006013 -0.7135161
vn 0 0.22200191 -0.9750462
vn 0 0.22200191 -0.9750462
vn 0 0.22200191 -0.9750462
vn 0 0.69616276 -0.71788394
vn 0 0.69616276 -0.71788394
vn 0 0.69616276 -0.71788394
vn 0.0767386 0.15550594 -0.9848498
vn 0.0767386 0.15550594 -0.9848498
vn 0.0767386 0.15550594 -0.9848498
vn 0.0072566383 0.7006013 -0.7135161
vn 0.0072566383 0.7006013 -0.7135161
vn 0.0072566383 0.7006013 -0.7135161
vn 0.44117042 -0.78413516 -0.43646386
vn 0.44117042 -0.78413516 -0.43646386
vn 0.44117042 -0.78413516 -0.43646386
vn 0.017022004 0.71913826 -0.6946585
vn 0.017022004 0.71913826 -0.6946585
vn 0.017022004 0.71913826 -0.6946585
vn 0.10591937 -0.5849335 0.80413544
vn 0.10591937 -0.5849335 0.80413544
vn 0.10591937 -0.5849335 0.80413544
vn 0.038055755 0.78826976 -0.6141518
vn 0.038055755 0.78826976 -0.6141518
vn 0.038055755 0.78826976 -0.6141518
vn 0.036623895 -0.50679517 0.86128825
vn 0.036623895 -0.50679517 0.86128825
vn 0.036623895 -0.50679517 0.86128825
vn 0.12162325 0.64786816 0.7519805
vn 0.12162325 0.64786816 0.7519805
vn 0.12162325 0.64786816 0.7519805
vn -2.384277E-08 -0.49188933 0.87065774
vn -2.384277E-08 -0.49188933 0.87065774
vn -2.384277E-08 -0.49188933 0.87065774
vn -3.5547995E-08 -0.28185827 0.9594561
vn -3.5547995E-08 -0.28185827 0.9594561
vn -3.5547995E-08 -0.28185827 0.9594561
vn -0.036623903 -0.50679517 0.8612882
vn -0.036623903 -0.50679517 0.8612882
vn -0.036623903 -0.50679517 0.8612882
vn -0.1216233 0.6478694 0.7519794
vn -0.1216233 0.6478694 0.7519794
vn -0.1216233 0.6478694 0.7519794
vn -0.105919376 -0.58493346 0.80413544
vn -0.105919376 -0.58493346 0.80413544
vn -0.105919376 -0.58493346 0.80413544
vn -0.038055763 0.7882697 -0.6141519
vn -0.038055763 0.7882697 -0.6141519
vn -0.038055763 0.7882697 -0.6141519
vn -0.39376637 -0.79888165 -0.45468235
vn -0.39376637 -0.79888165 -0.45468235
vn -0.39376637 -0.79888165 -0.45468235
vn 3.0021496E-08 -0.65999484 -0.75127006
vn 3.0021496E-08 -0.65999484 -0.75127006
vn 3.0021496E-08 -0.65999484 -0.75127006
vn 0.3937664 -0.79888177 -0.4546822
vn 0.3937664 -0.79888177 -0.4546822
vn 0.3937664 -0.79888177 -0.4546822
vn 0.39376634 -0.79888177 0.4546824
vn 0.39376634 -0.79888177 0.4546824
vn 0.39376634 -0.79888177 0.4546824
vn -3.0021496E-08 -0.65999484 0.7512702
vn -3.0021496E-08 -0.65999484 0.7512702
vn -3.0021496E-08 -0.65999484 0.7512702
vn -0.39376655 -0.7988818 0.45468208
vn -0.39376655 -0.7988818 0.45468208
vn -0.39376655 -0.7988818 0.45468208
vn -0.3937664 -0.79888177 -0.45468232
vn -0.3937664 -0.79888177 -0.45468232
vn -0.3937664 -0.79888177 -0.45468232
vn 0 -0.65999484 -0.75127006
vn 0 -0.65999484 -0.75127006
vn 0 -0.65999484 -0.75127006
vn 0.3937664 -0.79888177 -0.45468217
vn 0.3937664 -0.79888177 -0.45468217
vn 0.3937664 -0.79888177 -0.45468217
vn 0.39376637 -0.79888165 0.4546824
vn 0.39376637 -0.79888165 0.4546824
vn 0.39376637 -0.79888165 0.4546824
vn -6.004299E-08 -0.65999484 0.7512702
vn -6.004299E-08 -0.65999484 0.7512702
vn -6.004299E-08 -0.65999484 0.7512702
vn -0.3937665 -0.7988818 0.45468205
vn -0.3937665 -0.7988818 0.45468205
vn -0.3937665 -0.7988818 0.45468205
vn -0.39376634 -0.79888165 -0.4546824
vn -0.39376634 -0.79888165 -0.4546824
vn -0.39376634 -0.79888165 -0.4546824
vn 0 -0.6599949 -0.7512701
vn 0 -0.6599949 -0.7512701
vn 0 -0.6599949 -0.7512701
vn 0.39376646 -0.79888177 -0.45468226
vn 0.39376646 -0.79888177 -0.45468226
vn 0.39376646 -0.79888177 -0.45468226
vn 0.39376634 -0.79888165 0.4546824
vn 0.39376634 -0.79888165 0.4546824
vn 0.39376634 -0.79888165 0.4546824
vn -6.0042986E-08 -0.6599949 0.7512702
vn -6.0042986E-08 -0.6599949 0.7512702
vn -6.0042986E-08 -0.6599949 0.7512702
vn -0.3937665 -0.7988818 0.45468205
vn -0.3937665 -0.7988818 0.45468205
vn -0.3937665 -0.7988818 0.45468205
vn 0 -0.78011477 0.6256366
vn 0 -0.78011477 0.6256366
vn 0 -0.78011477 0.6256366
vn 0.72503567 -0.6062171 -0.32683977
vn 0.72503567 -0.6062171 -0.32683977
vn 0.72503567 -0.6062171 -0.32683977
vn 0 -0.99789804 0.06480381
vn 0 -0.99789804 0.06480381
vn 0 -0.99789804 0.06480381
vn 0 -0.7459108 0.6660459
vn 0 -0.7459108 0.6660459
vn 0 -0.7459108 0.6660459
vn 0 -0.99789804 0.06480381
vn 0 -0.99789804 0.06480381
vn 0 -0.99789804 0.06480381
vn 0 -0.7459108 0.66604584
vn 0 -0.7459108 0.66604584
vn 0 -0.7459108 0.66604584
vn 0 -0.99789804 0.06480381
vn 0 -0.99789804 0.06480381
vn 0 -0.99789804 0.06480381
vn 0 -0.7459108 0.6660459
vn 0 -0.7459108 0.6660459
vn 0 -0.7459108 0.6660459
f 1//1 2//2 3//3
f 4//4 5//5 6//6
f 7//7 8//8 9//9
f 10//10 11//11 12//12
f 13//13 14//14 15//15
f 16//16 17//17 18//18
f 19//19 20//20 21//21
f 22//22 23//23 24//24
f 25//25 26//26 27//27
f 28//28 29//29 30//30
f 31//31 32//32 33//33
f 34//34 35//35 36//36
f 37//37 38//38 39//39
f 40//40 41//41 42//42
f 43//43 44//44 45//45
f 46//46 47//47 48//48
f 49//49 50//50 51//51
f 52//52 53//53 54//54
f 55//55 56//56 57//57
f 58//58 59//59 60//60
f 61//61 62//62 63//63
f 64//64 65//65 66//66
f 67//67 68//68 69//69
f 70//70 71//71 72//72
f 73//73 74//74 75//75
f 76//76 77//77 78//78
f 79//79 80//80 81//81
f 82//82 83//83 84//84
f 85//85 86//86 87//87
f 88//88 89//89 90//90
f 91//91 92//92 93//93
f 94//94 95//95 96//96
f 97//97 98//98 99//99
f 100//100 101//101 102//102
f 103//103 104//104 105//105
f 106//106 107//107 108//108
f 109//109 110//110 111//111
f 112//112 113//113 114//114
f 115//115 116//116 117//117
f 118//118 119//119 120//120
f 121//121 122//122 123//123
f 124//124 125//125 126//126
f 127//127 128//128 129//129
f 130//130 131//131 132//132
f 133//133 134//134 135//135
f 136//136 137//137 138//138
