# Exported from SharpOpenGl procedural mesh
o aetherian_bomber_mk3_41
# vertices 144
v 1.9641644 0.29055154 0.213785
v 1.5890424 0.3930207 0.33316168
v 0 0.9878753 0.53446245
v 1.9641644 0.29055154 0.213785
v 0 0.058110308 0
v 1.5890424 0.3930207 0.33316168
v 1.5890424 0.3930207 0.33316168
v 0.6069601 0.45635012 0.40694052
v 0 0.9878753 0.53446245
v 1.5890424 0.3930207 0.33316168
v 0 0.058110308 0
v 0.6069601 0.45635012 0.40694052
v 0.6069601 0.45635012 0.40694052
v -0.60696024 0.4563501 0.40694052
v 0 0.9878753 0.53446245
v 0.6069601 0.45635012 0.40694052
v 0 0.058110308 0
v -0.60696024 0.4563501 0.40694052
v -0.60696024 0.4563501 0.40694052
v -1.5890425 0.3930207 0.33316165
v 0 0.9878753 0.53446245
v -0.60696024 0.4563501 0.40694052
v 0 0.058110308 0
v -1.5890425 0.3930207 0.33316165
v -1.5890425 0.3930207 0.33316165
v -1.9641644 0.2905515 0.21378498
v 0 0.9878753 0.53446245
v -1.5890425 0.3930207 0.33316165
v 0 0.058110308 0
v -1.9641644 0.2905515 0.21378498
v -1.9641644 0.2905515 0.21378498
v -1.5890423 0.18808237 0.09440828
v 0 0.9878753 0.53446245
v -1.9641644 0.2905515 0.21378498
v 0 0.058110308 0
v -1.5890423 0.18808237 0.09440828
v -1.5890423 0.18808237 0.09440828
v -0.60695946 0.12475297 0.020629436
v 0 0.9878753 0.53446245
v -1.5890423 0.18808237 0.09440828
v 0 0.058110308 0
v -0.60695946 0.12475297 0.020629436
v -0.60695946 0.12475297 0.020629436
v 0.6069604 0.12475298 0.020629466
v 0 0.9878753 0.53446245
v -0.60695946 0.12475297 0.020629436
v 0 0.058110308 0
v 0.6069604 0.12475298 0.020629466
v 0.6069604 0.12475298 0.020629466
v 1.5890423 0.18808238 0.094408296
v 0 0.9878753 0.53446245
v 0.6069604 0.12475298 0.020629466
v 0 0.058110308 0
v 1.5890423 0.18808238 0.094408296
v 1.5890423 0.18808238 0.094408296
v 1.9641644 0.29055157 0.21378502
v 0 0.9878753 0.53446245
v 1.5890423 0.18808238 0.094408296
v 0 0.058110308 0
v 1.9641644 0.29055157 0.21378502
v -1.777101 0.7321899 -0.3206775
v -0.93531626 0.40677217 -0.3206775
v -1.3562087 0.40677217 0.043826044
v -1.777101 0.7321899 -0.3206775
v -1.3562087 0.40677217 0.043826044
v -2.1979935 0.40677217 0.043826014
v -1.777101 0.7321899 -0.3206775
v -2.1979935 0.40677217 0.043826014
v -2.6188858 0.40677217 -0.32067752
v -1.777101 0.7321899 -0.3206775
v -2.6188858 0.40677217 -0.32067752
v -2.1979933 0.40677217 -0.685181
v -1.777101 0.7321899 -0.3206775
v -2.1979933 0.40677217 -0.685181
v -1.3562083 0.40677217 -0.6851809
v -1.777101 0.7321899 -0.3206775
v -1.3562083 0.40677217 -0.6851809
v -0.93531626 0.40677217 -0.32067743
v 0 0.7321899 0.16033879
v 0.8417848 0.40677217 0.16033879
v 0.42089236 0.40677217 0.5248423
v 0 0.7321899 0.16033879
v 0.42089236 0.40677217 0.5248423
v -0.42089245 0.40677217 0.52484226
v 0 0.7321899 0.16033879
v -0.42089245 0.40677217 0.52484226
v -0.8417848 0.40677217 0.16033876
v 0 0.7321899 0.16033879
v -0.8417848 0.40677217 0.16033876
v -0.4208923 0.40677217 -0.20416474
v 0 0.7321899 0.16033879
v -0.4208923 0.40677217 -0.20416474
v 0.4208927 0.40677217 -0.20416462
v 0 0.7321899 0.16033879
v 0.4208927 0.40677217 -0.20416462
v 0.8417848 0.40677217 0.16033886
v 1.777101 0.7321899 0.64135504
v 2.6188858 0.40677217 0.64135504
v 2.1979933 0.40677217 1.0058585
v 1.777101 0.7321899 0.64135504
v 2.1979933 0.40677217 1.0058585
v 1.3562086 0.40677217 1.0058585
v 1.777101 0.7321899 0.64135504
v 1.3562086 0.40677217 1.0058585
v 0.93531626 0.40677217 0.641355
v 1.777101 0.7321899 0.64135504
v 0.93531626 0.40677217 0.641355
v 1.3562088 0.40677217 0.2768515
v 1.777101 0.7321899 0.64135504
v 1.3562088 0.40677217 0.2768515
v 2.1979938 0.40677217 0.27685162
v 1.777101 0.7321899 0.64135504
v 2.1979938 0.40677217 0.27685162
v 2.6188858 0.40677217 0.6413551
v 0 0.6392134 1.4697719
v -1.028848 0.23244123 0.93530935
v 1.028848 0.23244123 0.93530935
v 0 0.6392134 1.4697719
v 0 0.40677217 1.9240651
v -0.56118983 0.29055154 1.1223712
v -1.8706326 0.068871476 -1.8827657
v -2.5119925 0 -3.2937572
v -1.2292728 0 -3.2937572
v -1.8706326 0.28409484 -1.5620857
v -2.2554486 0.068871476 -1.8827657
v -1.4858167 0.068871476 -1.8827657
v -0.6235443 0.068871476 -1.8827657
v -1.264904 0 -3.2937572
v 0.01781553 0 -3.2937572
v -0.6235443 0.28409484 -1.5620857
v -1.0083601 0.068871476 -1.8827657
v -0.23872837 0.068871476 -1.8827657
v 0.6235443 0.068871476 -1.8827657
v -0.01781553 0 -3.2937572
v 1.264904 0 -3.2937572
v 0.6235443 0.28409484 -1.5620857
v 0.23872837 0.068871476 -1.8827657
v 1.0083601 0.068871476 -1.8827657
v 1.8706326 0.068871476 -1.8827657
v 1.2292728 0 -3.2937572
v 2.5119925 0 -3.2937572
v 1.8706326 0.28409484 -1.5620857
v 1.4858167 0.068871476 -1.8827657
v 2.2554486 0.068871476 -1.8827657
vn -0.36348617 -0.82373655 -0.43512744
vn -0.36348617 -0.82373655 -0.43512744
vn -0.36348617 -0.82373655 -0.43512744
vn -0.013683341 0.7370714 -0.67567635
vn -0.013683341 0.7370714 -0.67567635
vn -0.013683341 0.7370714 -0.67567635
vn -0.06339476 0.16379572 -0.98445517
vn -0.06339476 0.16379572 -0.98445517
vn -0.06339476 0.16379572 -0.98445517
vn -0.0058411346 0.71903497 -0.69494927
vn -0.0058411346 0.71903497 -0.69494927
vn -0.0058411346 0.71903497 -0.69494927
vn -5.727544E-09 0.23329666 -0.97240555
vn -5.727544E-09 0.23329666 -0.97240555
vn -5.727544E-09 0.23329666 -0.97240555
vn -1.7546371E-08 0.71470594 -0.699425
vn -1.7546371E-08 0.71470594 -0.699425
vn -1.7546371E-08 0.71470594 -0.699425
vn 0.0633948 0.16379564 -0.9844552
vn 0.0633948 0.16379564 -0.9844552
vn 0.0633948 0.16379564 -0.9844552
vn 0.0058411737 0.719035 -0.6949492
vn 0.0058411737 0.719035 -0.6949492
vn 0.0058411737 0.719035 -0.6949492
vn 0.3634862 -0.82373697 -0.43512663
vn 0.3634862 -0.82373697 -0.43512663
vn 0.3634862 -0.82373697 -0.43512663
vn 0.013683324 0.73707134 -0.6756764
vn 0.013683324 0.73707134 -0.6756764
vn 0.013683324 0.73707134 -0.6756764
vn 0.086077034 -0.60608584 0.7907279
vn 0.086077034 -0.60608584 0.7907279
vn 0.086077034 -0.60608584 0.7907279
vn 0.030431725 0.80370563 -0.5942485
vn 0.030431725 0.80370563 -0.5942485
vn 0.030431725 0.80370563 -0.5942485
vn 0.029853787 -0.52672416 0.849512
vn 0.029853787 -0.52672416 0.849512
vn 0.029853787 -0.52672416 0.849512
vn 0.09848582 0.6688975 0.7368017
vn 0.09848582 0.6688975 0.7368017
vn 0.09848582 0.6688975 0.7368017
vn -1.481609E-08 -0.5115351 0.8592623
vn -1.481609E-08 -0.5115351 0.8592623
vn -1.481609E-08 -0.5115351 0.8592623
vn -1.9822634E-08 -0.29570937 0.955278
vn -1.9822634E-08 -0.29570937 0.955278
vn -1.9822634E-08 -0.29570937 0.955278
vn -0.029853791 -0.5267241 0.84951186
vn -0.029853791 -0.5267241 0.84951186
vn -0.029853791 -0.5267241 0.84951186
vn -0.098485924 0.66889983 0.7367996
vn -0.098485924 0.66889983 0.7367996
vn -0.098485924 0.66889983 0.7367996
vn -0.08607702 -0.6060859 0.790728
vn -0.08607702 -0.6060859 0.790728
vn -0.08607702 -0.6060859 0.790728
vn -0.030431712 0.8037056 -0.5942486
vn -0.030431712 0.8037056 -0.5942486
vn -0.030431712 0.8037056 -0.5942486
vn -0.33287546 -0.86107635 -0.38437143
vn -0.33287546 -0.86107635 -0.38437143
vn -0.33287546 -0.86107635 -0.38437143
vn 1.8113763E-08 -0.7459701 -0.6659795
vn 1.8113763E-08 -0.7459701 -0.6659795
vn 1.8113763E-08 -0.7459701 -0.6659795
vn 0.33287552 -0.86107635 -0.38437143
vn 0.33287552 -0.86107635 -0.38437143
vn 0.33287552 -0.86107635 -0.38437143
vn 0.33287546 -0.8610763 0.38437158
vn 0.33287546 -0.8610763 0.38437158
vn 0.33287546 -0.8610763 0.38437158
vn -9.0568804E-08 -0.7459701 0.6659795
vn -9.0568804E-08 -0.7459701 0.6659795
vn -9.0568804E-08 -0.7459701 0.6659795
vn -0.33287555 -0.8610764 0.38437128
vn -0.33287555 -0.8610764 0.38437128
vn -0.33287555 -0.8610764 0.38437128
vn -0.33287546 -0.86107635 -0.38437143
vn -0.33287546 -0.86107635 -0.38437143
vn -0.33287546 -0.86107635 -0.38437143
vn 5.434129E-08 -0.74596995 -0.6659795
vn 5.434129E-08 -0.74596995 -0.6659795
vn 5.434129E-08 -0.74596995 -0.6659795
vn 0.3328755 -0.86107635 -0.38437143
vn 0.3328755 -0.86107635 -0.38437143
vn 0.3328755 -0.86107635 -0.38437143
vn 0.33287543 -0.8610763 0.3843715
vn 0.33287543 -0.8610763 0.3843715
vn 0.33287543 -0.8610763 0.3843715
vn -9.0568804E-08 -0.7459701 0.6659795
vn -9.0568804E-08 -0.7459701 0.6659795
vn -9.0568804E-08 -0.7459701 0.6659795
vn -0.33287555 -0.8610764 0.38437128
vn -0.33287555 -0.8610764 0.38437128
vn -0.33287555 -0.8610764 0.38437128
vn -0.3328755 -0.8610763 -0.3843716
vn -0.3328755 -0.8610763 -0.3843716
vn -0.3328755 -0.8610763 -0.3843716
vn 0 -0.7459701 -0.66597956
vn 0 -0.7459701 -0.66597956
vn 0 -0.7459701 -0.66597956
vn 0.33287552 -0.86107635 -0.38437137
vn 0.33287552 -0.86107635 -0.38437137
vn 0.33287552 -0.86107635 -0.38437137
vn 0.3328754 -0.8610763 0.38437158
vn 0.3328754 -0.8610763 0.38437158
vn 0.3328754 -0.8610763 0.38437158
vn -9.0568804E-08 -0.7459701 0.6659795
vn -9.0568804E-08 -0.7459701 0.6659795
vn -9.0568804E-08 -0.7459701 0.6659795
vn -0.33287555 -0.8610764 0.38437128
vn -0.33287555 -0.8610764 0.38437128
vn -0.33287555 -0.8610764 0.38437128
vn 0 -0.7957456 0.6056311
vn 0 -0.7957456 0.6056311
vn 0 -0.7957456 0.6056311
vn 0.64096963 -0.68331707 -0.3496223
vn 0.64096963 -0.68331707 -0.3496223
vn 0.64096963 -0.68331707 -0.3496223
vn 0 -0.99881095 0.048752658
vn 0 -0.99881095 0.048752658
vn 0 -0.99881095 0.048752658
vn 0 -0.8303293 0.5572731
vn 0 -0.8303293 0.5572731
vn 0 -0.8303293 0.5572731
vn 0 -0.99881095 0.048752654
vn 0 -0.99881095 0.048752654
vn 0 -0.99881095 0.048752654
vn 0 -0.8303293 0.55727303
vn 0 -0.8303293 0.55727303
vn 0 -0.8303293 0.55727303
vn 0 -0.99881095 0.048752654
vn 0 -0.99881095 0.048752654
vn 0 -0.99881095 0.048752654
vn 0 -0.8303293 0.55727303
vn 0 -0.8303293 0.55727303
vn 0 -0.8303293 0.55727303
vn 0 -0.99881095 0.048752658
vn 0 -0.99881095 0.048752658
vn 0 -0.99881095 0.048752658
vn 0 -0.8303293 0.5572731
vn 0 -0.8303293 0.5572731
vn 0 -0.8303293 0.5572731
f 1//1 2//2 3//3
f 4//4 5//5 6//6
f 7//7 8//8 9//9
f 10//10 11//11 12//12
f 13//13 14//14 15//15
f 16//16 17//17 18//18
f 19//19 20//20 21//21
f 22//22 23//23 24//24
f 25//25 26//26 27//27
f 28//28 29//29 30//30
f 31//31 32//32 33//33
f 34//34 35//35 36//36
f 37//37 38//38 39//39
f 40//40 41//41 42//42
f 43//43 44//44 45//45
f 46//46 47//47 48//48
f 49//49 50//50 51//51
f 52//52 53//53 54//54
f 55//55 56//56 57//57
f 58//58 59//59 60//60
f 61//61 62//62 63//63
f 64//64 65//65 66//66
f 67//67 68//68 69//69
f 70//70 71//71 72//72
f 73//73 74//74 75//75
f 76//76 77//77 78//78
f 79//79 80//80 81//81
f 82//82 83//83 84//84
f 85//85 86//86 87//87
f 88//88 89//89 90//90
f 91//91 92//92 93//93
f 94//94 95//95 96//96
f 97//97 98//98 99//99
f 100//100 101//101 102//102
f 103//103 104//104 105//105
f 106//106 107//107 108//108
f 109//109 110//110 111//111
f 112//112 113//113 114//114
f 115//115 116//116 117//117
f 118//118 119//119 120//120
f 121//121 122//122 123//123
f 124//124 125//125 126//126
f 127//127 128//128 129//129
f 130//130 131//131 132//132
f 133//133 134//134 135//135
f 136//136 137//137 138//138
f 139//139 140//140 141//141
f 142//142 143//143 144//144
