# Exported from SharpOpenGl procedural mesh
o aetherian_gunship_mk1_06
# vertices 144
v 1.8934474 0.3391784 0.20412455
v 1.5318311 0.45879686 0.3181069
v 0 1.1532066 0.5103114
v 1.8934474 0.3391784 0.20412455
v 0 0.06783568 0
v 1.5318311 0.45879686 0.3181069
v 1.5318311 0.45879686 0.3181069
v 0.5851074 0.5327251 0.38855186
v 0 1.1532066 0.5103114
v 1.5318311 0.45879686 0.3181069
v 0 0.06783568 0
v 0.5851074 0.5327251 0.38855186
v 0.5851074 0.5327251 0.38855186
v -0.5851075 0.5327251 0.38855183
v 0 1.1532066 0.5103114
v 0.5851074 0.5327251 0.38855186
v 0 0.06783568 0
v -0.5851075 0.5327251 0.38855183
v -0.5851075 0.5327251 0.38855183
v -1.5318313 0.45879686 0.3181069
v 0 1.1532066 0.5103114
v -0.5851075 0.5327251 0.38855183
v 0 0.06783568 0
v -1.5318313 0.45879686 0.3181069
v -1.5318313 0.45879686 0.3181069
v -1.8934474 0.33917838 0.20412454
v 0 1.1532066 0.5103114
v -1.5318313 0.45879686 0.3181069
v 0 0.06783568 0
v -1.8934474 0.33917838 0.20412454
v -1.8934474 0.33917838 0.20412454
v -1.531831 0.21955994 0.0901422
v 0 1.1532066 0.5103114
v -1.8934474 0.33917838 0.20412454
v 0 0.06783568 0
v -1.531831 0.21955994 0.0901422
v -1.531831 0.21955994 0.0901422
v -0.5851068 0.14563169 0.019697249
v 0 1.1532066 0.5103114
v -1.531831 0.21955994 0.0901422
v 0 0.06783568 0
v -0.5851068 0.14563169 0.019697249
v -0.5851068 0.14563169 0.019697249
v 0.5851077 0.1456317 0.019697264
v 0 1.1532066 0.5103114
v -0.5851068 0.14563169 0.019697249
v 0 0.06783568 0
v 0.5851077 0.1456317 0.019697264
v 0.5851077 0.1456317 0.019697264
v 1.531831 0.21955997 0.09014221
v 0 1.1532066 0.5103114
v 0.5851077 0.1456317 0.019697264
v 0 0.06783568 0
v 1.531831 0.21955997 0.09014221
v 1.531831 0.21955997 0.09014221
v 1.8934474 0.33917844 0.20412458
v 0 1.1532066 0.5103114
v 1.531831 0.21955997 0.09014221
v 0 0.06783568 0
v 1.8934474 0.33917844 0.20412458
v -1.7131191 0.8547296 -0.30618685
v -0.9016416 0.47484976 -0.30618685
v -1.3073804 0.47484976 0.045193255
v -1.7131191 0.8547296 -0.30618685
v -1.3073804 0.47484976 0.045193255
v -2.1188579 0.47484976 0.045193225
v -1.7131191 0.8547296 -0.30618685
v -2.1188579 0.47484976 0.045193225
v -2.5245967 0.47484976 -0.30618688
v -1.7131191 0.8547296 -0.30618685
v -2.5245967 0.47484976 -0.30618688
v -2.1188579 0.47484976 -0.65756696
v -1.7131191 0.8547296 -0.30618685
v -2.1188579 0.47484976 -0.65756696
v -1.3073801 0.47484976 -0.65756685
v -1.7131191 0.8547296 -0.30618685
v -1.3073801 0.47484976 -0.65756685
v -0.9016416 0.47484976 -0.3061868
v 0 0.8547296 0.15309343
v 0.81147754 0.47484976 0.15309343
v 0.40573874 0.47484976 0.50447357
v 0 0.8547296 0.15309343
v 0.40573874 0.47484976 0.50447357
v -0.40573883 0.47484976 0.5044735
v 0 0.8547296 0.15309343
v -0.40573883 0.47484976 0.5044735
v -0.81147754 0.47484976 0.1530934
v 0 0.8547296 0.15309343
v -0.81147754 0.47484976 0.1530934
v -0.4057387 0.47484976 -0.19828668
v 0 0.8547296 0.15309343
v -0.4057387 0.47484976 -0.19828668
v 0.40573907 0.47484976 -0.19828656
v 0 0.8547296 0.15309343
v 0.40573907 0.47484976 -0.19828656
v 0.81147754 0.47484976 0.1530935
v 1.7131191 0.8547296 0.6123737
v 2.5245967 0.47484976 0.6123737
v 2.1188579 0.47484976 0.9637538
v 1.7131191 0.8547296 0.6123737
v 2.1188579 0.47484976 0.9637538
v 1.3073803 0.47484976 0.9637538
v 1.7131191 0.8547296 0.6123737
v 1.3073803 0.47484976 0.9637538
v 0.9016416 0.47484976 0.61237365
v 1.7131191 0.8547296 0.6123737
v 0.9016416 0.47484976 0.61237365
v 1.3073804 0.47484976 0.2609936
v 1.7131191 0.8547296 0.6123737
v 1.3073804 0.47484976 0.2609936
v 2.1188583 0.47484976 0.26099372
v 1.7131191 0.8547296 0.6123737
v 2.1188583 0.47484976 0.26099372
v 2.5245967 0.47484976 0.61237377
v 0 0.7461925 1.4033564
v -0.9918058 0.27134272 0.89304495
v 0.9918058 0.27134272 0.89304495
v 0 0.7461925 1.4033564
v 0 0.47484976 1.8371211
v -0.540985 0.3391784 1.071654
v -1.8032833 0.080397844 -1.797688
v -2.3957906 0 -3.1012044
v -1.210776 0 -3.1012044
v -1.8032833 0.3316411 -1.5014343
v -2.1587877 0.080397844 -1.797688
v -1.4477789 0.080397844 -1.797688
v -0.6010945 0.080397844 -1.797688
v -1.1936018 0 -3.1012044
v -0.008587122 0 -3.1012044
v -0.6010945 0.3316411 -1.5014343
v -0.9565989 0.080397844 -1.797688
v -0.24559006 0.080397844 -1.797688
v 0.6010945 0.080397844 -1.797688
v 0.008587122 0 -3.1012044
v 1.1936018 0 -3.1012044
v 0.6010945 0.3316411 -1.5014343
v 0.24559006 0.080397844 -1.797688
v 0.9565989 0.080397844 -1.797688
v 1.8032833 0.080397844 -1.797688
v 1.210776 0 -3.1012044
v 2.3957906 0 -3.1012044
v 1.8032833 0.3316411 -1.5014343
v 1.4477789 0.080397844 -1.797688
v 2.1587877 0.080397844 -1.797688
vn -0.4095149 -0.7663736 -0.49494347
vn -0.4095149 -0.7663736 -0.49494347
vn -0.4095149 -0.7663736 -0.49494347
vn -0.01496518 0.6656868 -0.7460811
vn -0.01496518 0.6656868 -0.7460811
vn -0.01496518 0.6656868 -0.7460811
vn -0.06307393 0.13457656 -0.98889375
vn -0.06307393 0.13457656 -0.98889375
vn -0.06307393 0.13457656 -0.98889375
vn -0.006354765 0.6459818 -0.76332635
vn -0.006354765 0.6459818 -0.76332635
vn -0.006354765 0.6459818 -0.76332635
vn 2.4990769E-08 0.19256148 -0.9812849
vn 2.4990769E-08 0.19256148 -0.9812849
vn 2.4990769E-08 0.19256148 -0.9812849
vn 1.9540922E-08 0.641298 -0.76729184
vn 1.9540922E-08 0.641298 -0.76729184
vn 1.9540922E-08 0.641298 -0.76729184
vn 0.06307389 0.13457662 -0.98889375
vn 0.06307389 0.13457662 -0.98889375
vn 0.06307389 0.13457662 -0.98889375
vn 0.006354745 0.6459818 -0.7633264
vn 0.006354745 0.6459818 -0.7633264
vn 0.006354745 0.6459818 -0.7633264
vn 0.409515 -0.7663742 -0.49494255
vn 0.409515 -0.7663742 -0.49494255
vn 0.409515 -0.7663742 -0.49494255
vn 0.014965172 0.6656868 -0.7460812
vn 0.014965172 0.6656868 -0.7460812
vn 0.014965172 0.6656868 -0.7460812
vn 0.09097367 -0.52897257 0.8437486
vn 0.09097367 -0.52897257 0.8437486
vn 0.09097367 -0.52897257 0.8437486
vn 0.033994563 0.74139607 -0.67020607
vn 0.033994563 0.74139607 -0.67020607
vn 0.033994563 0.74139607 -0.67020607
vn 0.031028643 -0.45208198 0.8914365
vn 0.031028643 -0.45208198 0.8914365
vn 0.031028643 -0.45208198 0.8914365
vn 0.10569841 0.59282255 0.79836667
vn 0.10569841 0.59282255 0.79836667
vn 0.10569841 0.59282255 0.79836667
vn -5.8739875E-09 -0.43778503 0.8990796
vn -5.8739875E-09 -0.43778503 0.8990796
vn -5.8739875E-09 -0.43778503 0.8990796
vn -9.218745E-09 -0.24544604 0.96941024
vn -9.218745E-09 -0.24544604 0.96941024
vn -9.218745E-09 -0.24544604 0.96941024
vn -0.031028664 -0.452082 0.89143646
vn -0.031028664 -0.452082 0.89143646
vn -0.031028664 -0.452082 0.89143646
vn -0.10569855 0.59282523 0.7983646
vn -0.10569855 0.59282523 0.7983646
vn -0.10569855 0.59282523 0.7983646
vn -0.09097369 -0.5289726 0.8437487
vn -0.09097369 -0.5289726 0.8437487
vn -0.09097369 -0.5289726 0.8437487
vn -0.033994563 0.74139607 -0.67020607
vn -0.033994563 0.74139607 -0.67020607
vn -0.033994563 0.74139607 -0.67020607
vn -0.38079175 -0.8134255 -0.4397005
vn -0.38079175 -0.8134255 -0.4397005
vn -0.38079175 -0.8134255 -0.4397005
vn 3.5486025E-08 -0.67903286 -0.7341079
vn 3.5486025E-08 -0.67903286 -0.7341079
vn 3.5486025E-08 -0.67903286 -0.7341079
vn 0.38079175 -0.8134255 -0.4397005
vn 0.38079175 -0.8134255 -0.4397005
vn 0.38079175 -0.8134255 -0.4397005
vn 0.38079172 -0.8134255 0.4397005
vn 0.38079172 -0.8134255 0.4397005
vn 0.38079172 -0.8134255 0.4397005
vn -1.0645803E-07 -0.6790329 0.7341079
vn -1.0645803E-07 -0.6790329 0.7341079
vn -1.0645803E-07 -0.6790329 0.7341079
vn -0.38079184 -0.8134256 0.43970028
vn -0.38079184 -0.8134256 0.43970028
vn -0.38079184 -0.8134256 0.43970028
vn -0.38079175 -0.81342554 -0.43970042
vn -0.38079175 -0.81342554 -0.43970042
vn -0.38079175 -0.81342554 -0.43970042
vn 7.097203E-08 -0.6790329 -0.73410785
vn 7.097203E-08 -0.6790329 -0.73410785
vn 7.097203E-08 -0.6790329 -0.73410785
vn 0.38079178 -0.8134256 -0.43970042
vn 0.38079178 -0.8134256 -0.43970042
vn 0.38079178 -0.8134256 -0.43970042
vn 0.38079172 -0.8134255 0.4397005
vn 0.38079172 -0.8134255 0.4397005
vn 0.38079172 -0.8134255 0.4397005
vn -1.0645803E-07 -0.6790329 0.7341079
vn -1.0645803E-07 -0.6790329 0.7341079
vn -1.0645803E-07 -0.6790329 0.7341079
vn -0.38079184 -0.8134256 0.43970028
vn -0.38079184 -0.8134256 0.43970028
vn -0.38079184 -0.8134256 0.43970028
vn -0.38079175 -0.8134255 -0.4397005
vn -0.38079175 -0.8134255 -0.4397005
vn -0.38079175 -0.8134255 -0.4397005
vn 0 -0.6790329 -0.7341079
vn 0 -0.6790329 -0.7341079
vn 0 -0.6790329 -0.7341079
vn 0.3807918 -0.81342554 -0.43970034
vn 0.3807918 -0.81342554 -0.43970034
vn 0.3807918 -0.81342554 -0.43970034
vn 0.3807917 -0.8134255 0.43970054
vn 0.3807917 -0.8134255 0.43970054
vn 0.3807917 -0.8134255 0.43970054
vn -1.0645801E-07 -0.67903286 0.7341079
vn -1.0645801E-07 -0.67903286 0.7341079
vn -1.0645801E-07 -0.67903286 0.7341079
vn -0.38079184 -0.8134256 0.43970013
vn -0.38079184 -0.8134256 0.43970013
vn -0.38079184 -0.8134256 0.43970013
vn 0 -0.7320856 0.6812127
vn 0 -0.7320856 0.6812127
vn 0 -0.7320856 0.6812127
vn 0.6936601 -0.6106634 -0.38200223
vn 0.6936601 -0.6106634 -0.38200223
vn 0.6936601 -0.6106634 -0.38200223
vn 0 -0.9981033 0.06156068
vn 0 -0.9981033 0.06156068
vn 0 -0.9981033 0.06156068
vn 0 -0.762666 0.6467926
vn 0 -0.762666 0.6467926
vn 0 -0.762666 0.6467926
vn 0 -0.9981033 0.061560683
vn 0 -0.9981033 0.061560683
vn 0 -0.9981033 0.061560683
vn 0 -0.762666 0.6467926
vn 0 -0.762666 0.6467926
vn 0 -0.762666 0.6467926
vn 0 -0.9981033 0.061560683
vn 0 -0.9981033 0.061560683
vn 0 -0.9981033 0.061560683
vn 0 -0.762666 0.6467926
vn 0 -0.762666 0.6467926
vn 0 -0.762666 0.6467926
vn 0 -0.9981033 0.06156068
vn 0 -0.9981033 0.06156068
vn 0 -0.9981033 0.06156068
vn 0 -0.762666 0.6467926
vn 0 -0.762666 0.6467926
vn 0 -0.762666 0.6467926
f 1//1 2//2 3//3
f 4//4 5//5 6//6
f 7//7 8//8 9//9
f 10//10 11//11 12//12
f 13//13 14//14 15//15
f 16//16 17//17 18//18
f 19//19 20//20 21//21
f 22//22 23//23 24//24
f 25//25 26//26 27//27
f 28//28 29//29 30//30
f 31//31 32//32 33//33
f 34//34 35//35 36//36
f 37//37 38//38 39//39
f 40//40 41//41 42//42
f 43//43 44//44 45//45
f 46//46 47//47 48//48
f 49//49 50//50 51//51
f 52//52 53//53 54//54
f 55//55 56//56 57//57
f 58//58 59//59 60//60
f 61//61 62//62 63//63
f 64//64 65//65 66//66
f 67//67 68//68 69//69
f 70//70 71//71 72//72
f 73//73 74//74 75//75
f 76//76 77//77 78//78
f 79//79 80//80 81//81
f 82//82 83//83 84//84
f 85//85 86//86 87//87
f 88//88 89//89 90//90
f 91//91 92//92 93//93
f 94//94 95//95 96//96
f 97//97 98//98 99//99
f 100//100 101//101 102//102
f 103//103 104//104 105//105
f 106//106 107//107 108//108
f 109//109 110//110 111//111
f 112//112 113//113 114//114
f 115//115 116//116 117//117
f 118//118 119//119 120//120
f 121//121 122//122 123//123
f 124//124 125//125 126//126
f 127//127 128//128 129//129
f 130//130 131//131 132//132
f 133//133 134//134 135//135
f 136//136 137//137 138//138
f 139//139 140//140 141//141
f 142//142 143//143 144//144
