# Exported from SharpOpenGl procedural mesh
o aetherian_dreadnought_mk1_11
# vertices 162
v 3.2961888 0.7639158 0.48794755
v 2.9697635 0.9627862 0.68907446
v 0 2.5973136 1.2198689
v 3.2961888 0.7639158 0.48794755
v 0 0.15278316 0
v 2.9697635 0.9627862 0.68907446
v 2.9697635 0.9627862 0.68907446
v 2.05514 1.1222678 0.8503657
v 0 2.5973136 1.2198689
v 2.9697635 0.9627862 0.68907446
v 0 0.15278316 0
v 2.05514 1.1222678 0.8503657
v 2.05514 1.1222678 0.8503657
v 0.73347116 1.2107735 0.93987554
v 0 2.5973136 1.2198689
v 2.05514 1.1222678 0.8503657
v 0 0.15278316 0
v 0.73347116 1.2107735 0.93987554
v 0.73347116 1.2107735 0.93987554
v -0.73347104 1.2107735 0.93987554
v 0 2.5973136 1.2198689
v 0.73347116 1.2107735 0.93987554
v 0 0.15278316 0
v -0.73347104 1.2107735 0.93987554
v -0.73347104 1.2107735 0.93987554
v -2.0551407 1.1222677 0.85036564
v 0 2.5973136 1.2198689
v -0.73347104 1.2107735 0.93987554
v 0 0.15278316 0
v -2.0551407 1.1222677 0.85036564
v -2.0551407 1.1222677 0.85036564
v -2.9697635 0.9627862 0.6890745
v 0 2.5973136 1.2198689
v -2.0551407 1.1222677 0.85036564
v 0 0.15278316 0
v -2.9697635 0.9627862 0.6890745
v -2.9697635 0.9627862 0.6890745
v -3.2961888 0.7639157 0.48794752
v 0 2.5973136 1.2198689
v -2.9697635 0.9627862 0.6890745
v 0 0.15278316 0
v -3.2961888 0.7639157 0.48794752
v -3.2961888 0.7639157 0.48794752
v -2.9697635 0.56504536 0.28682065
v 0 2.5973136 1.2198689
v -3.2961888 0.7639157 0.48794752
v 0 0.15278316 0
v -2.9697635 0.56504536 0.28682065
v -2.9697635 0.56504536 0.28682065
v -2.0551395 0.40556365 0.12552935
v 0 2.5973136 1.2198689
v -2.9697635 0.56504536 0.28682065
v 0 0.15278316 0
v -2.0551395 0.40556365 0.12552935
v -2.0551395 0.40556365 0.12552935
v -0.7334697 0.31705803 0.036019504
v 0 2.5973136 1.2198689
v -2.0551395 0.40556365 0.12552935
v 0 0.15278316 0
v -0.7334697 0.31705803 0.036019504
v -0.7334697 0.31705803 0.036019504
v 0.7334729 0.31705812 0.036019593
v 0 2.5973136 1.2198689
v -0.7334697 0.31705803 0.036019504
v 0 0.15278316 0
v 0.7334729 0.31705812 0.036019593
v 0.7334729 0.31705812 0.036019593
v 2.0551398 0.40556365 0.12552935
v 0 2.5973136 1.2198689
v 0.7334729 0.31705812 0.036019593
v 0 0.15278316 0
v 2.0551398 0.40556365 0.12552935
v 2.0551398 0.40556365 0.12552935
v 2.9697635 0.56504536 0.28682065
v 0 2.5973136 1.2198689
v 2.0551398 0.40556365 0.12552935
v 0 0.15278316 0
v 2.9697635 0.56504536 0.28682065
v 2.9697635 0.56504536 0.28682065
v 3.2961888 0.76391584 0.48794764
v 0 2.5973136 1.2198689
v 2.9697635 0.56504536 0.28682065
v 0 0.15278316 0
v 3.2961888 0.76391584 0.48794764
v -2.9822662 1.9250678 -0.7319214
v -1.5696138 1.0694821 -0.7319214
v -2.27594 1.0694821 -0.12022489
v -2.9822662 1.9250678 -0.7319214
v -2.27594 1.0694821 -0.12022489
v -3.6885924 1.0694821 -0.12022495
v -2.9822662 1.9250678 -0.7319214
v -3.6885924 1.0694821 -0.12022495
v -4.3949184 1.0694821 -0.73192143
v -2.9822662 1.9250678 -0.7319214
v -4.3949184 1.0694821 -0.73192143
v -3.6885922 1.0694821 -1.3436179
v -2.9822662 1.9250678 -0.7319214
v -3.6885922 1.0694821 -1.3436179
v -2.2759395 1.0694821 -1.3436177
v -2.9822662 1.9250678 -0.7319214
v -2.2759395 1.0694821 -1.3436177
v -1.5696138 1.0694821 -0.73192126
v 0 1.9250678 0.36596078
v 1.4126524 1.0694821 0.36596078
v 0.7063261 1.0694821 0.97765726
v 0 1.9250678 0.36596078
v 0.7063261 1.0694821 0.97765726
v -0.70632625 1.0694821 0.9776572
v 0 1.9250678 0.36596078
v -0.70632625 1.0694821 0.9776572
v -1.4126524 1.0694821 0.36596072
v 0 1.9250678 0.36596078
v -1.4126524 1.0694821 0.36596072
v -0.70632607 1.0694821 -0.2457357
v 0 1.9250678 0.36596078
v -0.70632607 1.0694821 -0.2457357
v 0.70632666 1.0694821 -0.24573553
v 0 1.9250678 0.36596078
v 0.70632666 1.0694821 -0.24573553
v 1.4126524 1.0694821 0.3659609
v 2.9822662 1.9250678 1.4638429
v 4.3949184 1.0694821 1.4638429
v 3.6885924 1.0694821 2.0755394
v 2.9822662 1.9250678 1.4638429
v 3.6885924 1.0694821 2.0755394
v 2.27594 1.0694821 2.0755394
v 2.9822662 1.9250678 1.4638429
v 2.27594 1.0694821 2.0755394
v 1.5696138 1.0694821 1.4638427
v 2.9822662 1.9250678 1.4638429
v 1.5696138 1.0694821 1.4638427
v 2.2759402 1.0694821 0.8521464
v 2.9822662 1.9250678 1.4638429
v 2.2759402 1.0694821 0.8521464
v 3.688593 1.0694821 0.85214657
v 2.9822662 1.9250678 1.4638429
v 3.688593 1.0694821 0.85214657
v 4.3949184 1.0694821 1.463843
v 0 1.6806147 3.3546398
v -1.7265751 0.6111326 2.1347706
v 1.7265751 0.6111326 2.1347706
v 0 1.6806147 3.3546398
v 0 1.0694821 4.3915286
v -0.9417682 0.7639158 2.5617247
v -2.616023 0.18107633 -4.2972655
v -3.9614062 0 -7.2571087
v -1.2706398 0 -7.2571087
v -2.616023 0.7469399 -3.624574
v -3.423253 0.18107633 -4.2972655
v -1.8087931 0.18107633 -4.2972655
v 0 0.18107633 -4.2972655
v -1.3453833 0 -7.2571087
v 1.3453833 0 -7.2571087
v 0 0.7469399 -3.624574
v -0.80723 0.18107633 -4.2972655
v 0.80723 0.18107633 -4.2972655
v 2.616023 0.18107633 -4.2972655
v 1.2706398 0 -7.2571087
v 3.9614062 0 -7.2571087
v 2.616023 0.7469399 -3.624574
v 1.8087931 0.18107633 -4.2972655
v 3.423253 0.18107633 -4.2972655
vn -0.46250015 -0.87870294 0.11821529
vn -0.46250015 -0.87870294 0.11821529
vn -0.46250015 -0.87870294 0.11821529
vn -0.021809554 0.69299275 -0.7206145
vn -0.021809554 0.69299275 -0.7206145
vn -0.021809554 0.69299275 -0.7206145
vn -0.1726071 0.0062493733 -0.98497087
vn -0.1726071 0.0062493733 -0.98497087
vn -0.1726071 0.0062493733 -0.98497087
vn -0.012615555 0.6743404 -0.7383129
vn -0.012615555 0.6743404 -0.7383129
vn -0.012615555 0.6743404 -0.7383129
vn -0.055292867 0.16945331 -0.98398596
vn -0.055292867 0.16945331 -0.98398596
vn -0.055292867 0.16945331 -0.98398596
vn -0.0058679692 0.6664018 -0.74556965
vn -0.0058679692 0.6664018 -0.74556965
vn -0.0058679692 0.6664018 -0.74556965
vn 0 0.19794117 -0.9802139
vn 0 0.19794117 -0.9802139
vn 0 0.19794117 -0.9802139
vn 0 0.6641426 -0.74760586
vn 0 0.6641426 -0.74760586
vn 0 0.6641426 -0.74760586
vn 0.05529286 0.1694533 -0.9839859
vn 0.05529286 0.1694533 -0.9839859
vn 0.05529286 0.1694533 -0.9839859
vn 0.0058679427 0.66640186 -0.7455697
vn 0.0058679427 0.66640186 -0.7455697
vn 0.0058679427 0.66640186 -0.7455697
vn 0.17260711 0.0062493207 -0.98497087
vn 0.17260711 0.0062493207 -0.98497087
vn 0.17260711 0.0062493207 -0.98497087
vn 0.012615549 0.67434037 -0.73831284
vn 0.012615549 0.67434037 -0.73831284
vn 0.012615549 0.67434037 -0.73831284
vn 0.46250015 -0.8787029 0.11821547
vn 0.46250015 -0.8787029 0.11821547
vn 0.46250015 -0.8787029 0.11821547
vn 0.02180957 0.69299287 -0.7206145
vn 0.02180957 0.69299287 -0.7206145
vn 0.02180957 0.69299287 -0.7206145
vn 0.14300904 -0.57787806 0.8034957
vn 0.14300904 -0.57787806 0.8034957
vn 0.14300904 -0.57787806 0.8034957
vn 0.038057704 0.7407641 -0.6706863
vn 0.038057704 0.7407641 -0.6706863
vn 0.038057704 0.7407641 -0.6706863
vn 0.06648501 -0.49492756 0.866387
vn 0.06648501 -0.49492756 0.866387
vn 0.06648501 -0.49492756 0.866387
vn 0.087150805 0.9099242 -0.40551513
vn 0.087150805 0.9099242 -0.40551513
vn 0.087150805 0.9099242 -0.40551513
vn 0.028500743 -0.4677943 0.88337773
vn 0.028500743 -0.4677943 0.88337773
vn 0.028500743 -0.4677943 0.88337773
vn 0.07492745 0.11741682 0.990252
vn 0.07492745 0.11741682 0.990252
vn 0.07492745 0.11741682 0.990252
vn -2.6008951E-08 -0.46077555 0.88751674
vn -2.6008951E-08 -0.46077555 0.88751674
vn -2.6008951E-08 -0.46077555 0.88751674
vn -4.647999E-08 -0.21417584 0.9767951
vn -4.647999E-08 -0.21417584 0.9767951
vn -4.647999E-08 -0.21417584 0.9767951
vn -0.028500777 -0.46779433 0.8833777
vn -0.028500777 -0.46779433 0.8833777
vn -0.028500777 -0.46779433 0.8833777
vn -0.07492765 0.11741857 0.99025184
vn -0.07492765 0.11741857 0.99025184
vn -0.07492765 0.11741857 0.99025184
vn -0.06648504 -0.49492761 0.86638695
vn -0.06648504 -0.49492761 0.86638695
vn -0.06648504 -0.49492761 0.86638695
vn -0.08715077 0.9099242 -0.40551528
vn -0.08715077 0.9099242 -0.40551528
vn -0.08715077 0.9099242 -0.40551528
vn -0.14300907 -0.5778781 0.8034957
vn -0.14300907 -0.5778781 0.8034957
vn -0.14300907 -0.5778781 0.8034957
vn -0.038057704 0.7407641 -0.67068636
vn -0.038057704 0.7407641 -0.67068636
vn -0.038057704 0.7407641 -0.67068636
vn -0.44457865 -0.7340411 -0.5133551
vn -0.44457865 -0.7340411 -0.5133551
vn -0.44457865 -0.7340411 -0.5133551
vn 4.0116966E-08 -0.58159316 -0.8134799
vn 4.0116966E-08 -0.58159316 -0.8134799
vn 4.0116966E-08 -0.58159316 -0.8134799
vn 0.44457865 -0.73404104 -0.5133551
vn 0.44457865 -0.73404104 -0.5133551
vn 0.44457865 -0.73404104 -0.5133551
vn 0.44457865 -0.7340411 0.5133552
vn 0.44457865 -0.7340411 0.5133552
vn 0.44457865 -0.7340411 0.5133552
vn -1.6046782E-07 -0.5815931 0.81347984
vn -1.6046782E-07 -0.5815931 0.81347984
vn -1.6046782E-07 -0.5815931 0.81347984
vn -0.44457874 -0.7340412 0.5133549
vn -0.44457874 -0.7340412 0.5133549
vn -0.44457874 -0.7340412 0.5133549
vn -0.44457865 -0.7340411 -0.51335514
vn -0.44457865 -0.7340411 -0.51335514
vn -0.44457865 -0.7340411 -0.51335514
vn 4.011697E-08 -0.58159316 -0.81347984
vn 4.011697E-08 -0.58159316 -0.81347984
vn 4.011697E-08 -0.58159316 -0.81347984
vn 0.44457865 -0.7340411 -0.5133551
vn 0.44457865 -0.7340411 -0.5133551
vn 0.44457865 -0.7340411 -0.5133551
vn 0.4445786 -0.73404104 0.5133552
vn 0.4445786 -0.73404104 0.5133552
vn 0.4445786 -0.73404104 0.5133552
vn -1.2035088E-07 -0.5815931 0.8134799
vn -1.2035088E-07 -0.5815931 0.8134799
vn -1.2035088E-07 -0.5815931 0.8134799
vn -0.44457874 -0.7340412 0.51335496
vn -0.44457874 -0.7340412 0.51335496
vn -0.44457874 -0.7340412 0.51335496
vn -0.44457865 -0.73404104 -0.5133551
vn -0.44457865 -0.73404104 -0.5133551
vn -0.44457865 -0.73404104 -0.5133551
vn 0 -0.58159316 -0.8134798
vn 0 -0.58159316 -0.8134798
vn 0 -0.58159316 -0.8134798
vn 0.44457874 -0.73404115 -0.5133551
vn 0.44457874 -0.73404115 -0.5133551
vn 0.44457874 -0.73404115 -0.5133551
vn 0.44457853 -0.73404104 0.5133552
vn 0.44457853 -0.73404104 0.5133552
vn 0.44457853 -0.73404104 0.5133552
vn -1.2035088E-07 -0.58159304 0.8134799
vn -1.2035088E-07 -0.58159304 0.8134799
vn -1.2035088E-07 -0.58159304 0.8134799
vn -0.44457877 -0.7340412 0.5133549
vn -0.44457877 -0.7340412 0.5133549
vn -0.44457877 -0.7340412 0.5133549
vn 0 -0.75193584 0.6592362
vn 0 -0.75193584 0.6592362
vn 0 -0.75193584 0.6592362
vn 0.7847409 -0.53397757 -0.31472144
vn 0.7847409 -0.53397757 -0.31472144
vn 0.7847409 -0.53397757 -0.31472144
vn 0 -0.9981339 0.061063513
vn 0 -0.9981339 0.061063513
vn 0 -0.9981339 0.061063513
vn 0 -0.765255 0.64372724
vn 0 -0.765255 0.64372724
vn 0 -0.765255 0.64372724
vn 0 -0.99813396 0.061063517
vn 0 -0.99813396 0.061063517
vn 0 -0.99813396 0.061063517
vn 0 -0.765255 0.64372724
vn 0 -0.765255 0.64372724
vn 0 -0.765255 0.64372724
vn 0 -0.9981339 0.061063513
vn 0 -0.9981339 0.061063513
vn 0 -0.9981339 0.061063513
vn 0 -0.765255 0.64372724
vn 0 -0.765255 0.64372724
vn 0 -0.765255 0.64372724
f 1//1 2//2 3//3
f 4//4 5//5 6//6
f 7//7 8//8 9//9
f 10//10 11//11 12//12
f 13//13 14//14 15//15
f 16//16 17//17 18//18
f 19//19 20//20 21//21
f 22//22 23//23 24//24
f 25//25 26//26 27//27
f 28//28 29//29 30//30
f 31//31 32//32 33//33
f 34//34 35//35 36//36
f 37//37 38//38 39//39
f 40//40 41//41 42//42
f 43//43 44//44 45//45
f 46//46 47//47 48//48
f 49//49 50//50 51//51
f 52//52 53//53 54//54
f 55//55 56//56 57//57
f 58//58 59//59 60//60
f 61//61 62//62 63//63
f 64//64 65//65 66//66
f 67//67 68//68 69//69
f 70//70 71//71 72//72
f 73//73 74//74 75//75
f 76//76 77//77 78//78
f 79//79 80//80 81//81
f 82//82 83//83 84//84
f 85//85 86//86 87//87
f 88//88 89//89 90//90
f 91//91 92//92 93//93
f 94//94 95//95 96//96
f 97//97 98//98 99//99
f 100//100 101//101 102//102
f 103//103 104//104 105//105
f 106//106 107//107 108//108
f 109//109 110//110 111//111
f 112//112 113//113 114//114
f 115//115 116//116 117//117
f 118//118 119//119 120//120
f 121//121 122//122 123//123
f 124//124 125//125 126//126
f 127//127 128//128 129//129
f 130//130 131//131 132//132
f 133//133 134//134 135//135
f 136//136 137//137 138//138
f 139//139 140//140 141//141
f 142//142 143//143 144//144
f 145//145 146//146 147//147
f 148//148 149//149 150//150
f 151//151 152//152 153//153
f 154//154 155//155 156//156
f 157//157 158//158 159//159
f 160//160 161//161 162//162
