# Exported from SharpOpenGl procedural mesh
o aetherian_carrier_mk1_10
# vertices 162
v 2.9852273 0.5817875 0.3528828
v 2.689597 0.7332444 0.49833742
v 0 1.9780777 0.882207
v 2.9852273 0.5817875 0.3528828
v 0 0.116357505 0
v 2.689597 0.7332444 0.49833742
v 2.689597 0.7332444 0.49833742
v 1.8612587 0.8547034 0.61498296
v 0 1.9780777 0.882207
v 2.689597 0.7332444 0.49833742
v 0 0.116357505 0
v 1.8612587 0.8547034 0.61498296
v 1.8612587 0.8547034 0.61498296
v 0.6642757 0.92210805 0.67971635
v 0 1.9780777 0.882207
v 1.8612587 0.8547034 0.61498296
v 0 0.116357505 0
v 0.6642757 0.92210805 0.67971635
v 0.6642757 0.92210805 0.67971635
v -0.66427565 0.92210805 0.67971635
v 0 1.9780777 0.882207
v 0.6642757 0.92210805 0.67971635
v 0 0.116357505 0
v -0.66427565 0.92210805 0.67971635
v -0.66427565 0.92210805 0.67971635
v -1.8612593 0.85470337 0.61498296
v 0 1.9780777 0.882207
v -0.66427565 0.92210805 0.67971635
v 0 0.116357505 0
v -1.8612593 0.85470337 0.61498296
v -1.8612593 0.85470337 0.61498296
v -2.689597 0.7332444 0.49833745
v 0 1.9780777 0.882207
v -1.8612593 0.85470337 0.61498296
v 0 0.116357505 0
v -2.689597 0.7332444 0.49833745
v -2.689597 0.7332444 0.49833745
v -2.9852273 0.58178747 0.35288277
v 0 1.9780777 0.882207
v -2.689597 0.7332444 0.49833745
v 0 0.116357505 0
v -2.9852273 0.58178747 0.35288277
v -2.9852273 0.58178747 0.35288277
v -2.689597 0.43033063 0.20742819
v 0 1.9780777 0.882207
v -2.9852273 0.58178747 0.35288277
v 0 0.116357505 0
v -2.689597 0.43033063 0.20742819
v -2.689597 0.43033063 0.20742819
v -1.8612583 0.3088716 0.09078261
v 0 1.9780777 0.882207
v -2.689597 0.43033063 0.20742819
v 0 0.116357505 0
v -1.8612583 0.3088716 0.09078261
v -1.8612583 0.3088716 0.09078261
v -0.6642744 0.24146694 0.026049227
v 0 1.9780777 0.882207
v -1.8612583 0.3088716 0.09078261
v 0 0.116357505 0
v -0.6642744 0.24146694 0.026049227
v -0.6642744 0.24146694 0.026049227
v 0.66427726 0.241467 0.026049316
v 0 1.9780777 0.882207
v -0.6642744 0.24146694 0.026049227
v 0 0.116357505 0
v 0.66427726 0.241467 0.026049316
v 0.66427726 0.241467 0.026049316
v 1.8612584 0.3088716 0.09078261
v 0 1.9780777 0.882207
v 0.66427726 0.241467 0.026049316
v 0 0.116357505 0
v 1.8612584 0.3088716 0.09078261
v 1.8612584 0.3088716 0.09078261
v 2.689597 0.43033063 0.20742819
v 0 1.9780777 0.882207
v 1.8612584 0.3088716 0.09078261
v 0 0.116357505 0
v 2.689597 0.43033063 0.20742819
v 2.689597 0.43033063 0.20742819
v 2.9852273 0.5817876 0.35288286
v 0 1.9780777 0.882207
v 2.689597 0.43033063 0.20742819
v 0 0.116357505 0
v 2.9852273 0.5817876 0.35288286
v -2.7009199 1.4661045 -0.5293242
v -1.4215367 0.81450254 -0.5293242
v -2.0612283 0.81450254 0.024664998
v -2.7009199 1.4661045 -0.5293242
v -2.0612283 0.81450254 0.024664998
v -3.3406115 0.81450254 0.024664998
v -2.7009199 1.4661045 -0.5293242
v -3.3406115 0.81450254 0.024664998
v -3.980303 0.81450254 -0.52932423
v -2.7009199 1.4661045 -0.5293242
v -3.980303 0.81450254 -0.52932423
v -3.3406115 0.81450254 -1.0833133
v -2.7009199 1.4661045 -0.5293242
v -3.3406115 0.81450254 -1.0833133
v -2.0612278 0.81450254 -1.0833132
v -2.7009199 1.4661045 -0.5293242
v -2.0612278 0.81450254 -1.0833132
v -1.4215367 0.81450254 -0.52932405
v 0 1.4661045 0.26466215
v 1.2793832 0.81450254 0.26466215
v 0.63969153 0.81450254 0.8186513
v 0 1.4661045 0.26466215
v 0.63969153 0.81450254 0.8186513
v -0.63969165 0.81450254 0.8186513
v 0 1.4661045 0.26466215
v -0.63969165 0.81450254 0.8186513
v -1.2793832 0.81450254 0.2646621
v 0 1.4661045 0.26466215
v -1.2793832 0.81450254 0.2646621
v -0.6396915 0.81450254 -0.28932703
v 0 1.4661045 0.26466215
v -0.6396915 0.81450254 -0.28932703
v 0.63969207 0.81450254 -0.2893269
v 0 1.4661045 0.26466215
v 0.63969207 0.81450254 -0.2893269
v 1.2793832 0.81450254 0.26466227
v 2.7009199 1.4661045 1.0586485
v 3.980303 0.81450254 1.0586485
v 3.3406115 0.81450254 1.6126376
v 2.7009199 1.4661045 1.0586485
v 3.3406115 0.81450254 1.6126376
v 2.0612283 0.81450254 1.6126376
v 2.7009199 1.4661045 1.0586485
v 2.0612283 0.81450254 1.6126376
v 1.4215367 0.81450254 1.0586485
v 2.7009199 1.4661045 1.0586485
v 1.4215367 0.81450254 1.0586485
v 2.0612283 0.81450254 0.5046593
v 2.7009199 1.4661045 1.0586485
v 2.0612283 0.81450254 0.5046593
v 3.340612 0.81450254 0.5046594
v 2.7009199 1.4661045 1.0586485
v 3.340612 0.81450254 0.5046594
v 3.980303 0.81450254 1.0586486
v 0 1.2799326 2.4260693
v -1.5636905 0.46543002 1.5438622
v 1.5636905 0.46543002 1.5438622
v 0 1.2799326 2.4260693
v 0 0.81450254 3.1759453
v -0.8529221 0.5817875 1.8526347
v -2.3692281 0.13790518 -3.1077747
v -3.5064576 0 -5.609679
v -1.2319987 0 -5.609679
v -2.3692281 0.56885886 -2.53916
v -3.051566 0.13790518 -3.1077747
v -1.6868904 0.13790518 -3.1077747
v 0 0.13790518 -3.1077747
v -1.1372294 0 -5.609679
v 1.1372294 0 -5.609679
v 0 0.56885886 -2.53916
v -0.6823377 0.13790518 -3.1077747
v 0.6823377 0.13790518 -3.1077747
v 2.3692281 0.13790518 -3.1077747
v 1.2319987 0 -5.609679
v 3.5064576 0 -5.609679
v 2.3692281 0.56885886 -2.53916
v 1.6868904 0.13790518 -3.1077747
v 3.051566 0.13790518 -3.1077747
vn -0.40138462 -0.9068538 0.1284782
vn -0.40138462 -0.9068538 0.1284782
vn -0.40138462 -0.9068538 0.1284782
vn -0.017843338 0.67422354 -0.7383117
vn -0.017843338 0.67422354 -0.7383117
vn -0.017843338 0.67422354 -0.7383117
vn -0.13858257 0.0059665926 -0.99033296
vn -0.13858257 0.0059665926 -0.99033296
vn -0.13858257 0.0059665926 -0.99033296
vn -0.010307142 0.6551756 -0.7554063
vn -0.010307142 0.6551756 -0.7554063
vn -0.010307142 0.6551756 -0.7554063
vn -0.044240125 0.16122901 -0.985925
vn -0.044240125 0.16122901 -0.985925
vn -0.044240125 0.16122901 -0.985925
vn -0.004791527 0.6470933 -0.76239574
vn -0.004791527 0.6470933 -0.76239574
vn -0.004791527 0.6470933 -0.76239574
vn 0 0.18832676 -0.9821064
vn 0 0.18832676 -0.9821064
vn 0 0.18832676 -0.9821064
vn 0 0.6447957 -0.7643549
vn 0 0.6447957 -0.7643549
vn 0 0.6447957 -0.7643549
vn 0.04424009 0.16122901 -0.98592496
vn 0.04424009 0.16122901 -0.98592496
vn 0.04424009 0.16122901 -0.98592496
vn 0.004791497 0.6470933 -0.7623958
vn 0.004791497 0.6470933 -0.7623958
vn 0.004791497 0.6470933 -0.7623958
vn 0.13858266 0.0059663667 -0.9903329
vn 0.13858266 0.0059663667 -0.9903329
vn 0.13858266 0.0059663667 -0.9903329
vn 0.010307152 0.6551757 -0.75540626
vn 0.010307152 0.6551757 -0.75540626
vn 0.010307152 0.6551757 -0.75540626
vn 0.40138456 -0.9068538 0.12847851
vn 0.40138456 -0.9068538 0.12847851
vn 0.40138456 -0.9068538 0.12847851
vn 0.017843332 0.67422354 -0.73831165
vn 0.017843332 0.67422354 -0.73831165
vn 0.017843332 0.67422354 -0.73831165
vn 0.116565846 -0.56013197 0.8201613
vn 0.116565846 -0.56013197 0.8201613
vn 0.116565846 -0.56013197 0.8201613
vn 0.031253047 0.7233954 -0.6897262
vn 0.031253047 0.7233954 -0.6897262
vn 0.031253047 0.7233954 -0.6897262
vn 0.05378527 -0.4761324 0.87772727
vn 0.05378527 -0.4761324 0.87772727
vn 0.05378527 -0.4761324 0.87772727
vn 0.072718166 0.90286595 -0.4237276
vn 0.072718166 0.90286595 -0.4237276
vn 0.072718166 0.90286595 -0.4237276
vn 0.02301094 -0.44913742 0.89316624
vn 0.02301094 -0.44913742 0.89316624
vn 0.02301094 -0.44913742 0.89316624
vn 0.059933625 0.11168826 0.9919343
vn 0.059933625 0.11168826 0.9919343
vn 0.059933625 0.11168826 0.9919343
vn -4.052136E-08 -0.44218743 0.89692265
vn -4.052136E-08 -0.44218743 0.89692265
vn -4.052136E-08 -0.44218743 0.89692265
vn -5.6738454E-08 -0.20384024 0.97900414
vn -5.6738454E-08 -0.20384024 0.97900414
vn -5.6738454E-08 -0.20384024 0.97900414
vn -0.023010952 -0.44913745 0.89316636
vn -0.023010952 -0.44913745 0.89316636
vn -0.023010952 -0.44913745 0.89316636
vn -0.059933737 0.11168945 0.99193424
vn -0.059933737 0.11168945 0.99193424
vn -0.059933737 0.11168945 0.99193424
vn -0.053785272 -0.4761323 0.8777272
vn -0.053785272 -0.4761323 0.8777272
vn -0.053785272 -0.4761323 0.8777272
vn -0.07271817 0.9028659 -0.42372772
vn -0.07271817 0.9028659 -0.42372772
vn -0.07271817 0.9028659 -0.42372772
vn -0.11656584 -0.56013197 0.8201613
vn -0.11656584 -0.56013197 0.8201613
vn -0.11656584 -0.56013197 0.8201613
vn -0.03125302 0.72339535 -0.68972623
vn -0.03125302 0.72339535 -0.68972623
vn -0.03125302 0.72339535 -0.68972623
vn -0.40198454 -0.7892737 -0.4641718
vn -0.40198454 -0.7892737 -0.4641718
vn -0.40198454 -0.7892737 -0.4641718
vn 0 -0.6477349 -0.7618657
vn 0 -0.6477349 -0.7618657
vn 0 -0.6477349 -0.7618657
vn 0.40198457 -0.78927374 -0.4641718
vn 0.40198457 -0.78927374 -0.4641718
vn 0.40198457 -0.78927374 -0.4641718
vn 0.40198454 -0.7892737 0.46417183
vn 0.40198454 -0.7892737 0.46417183
vn 0.40198454 -0.7892737 0.46417183
vn -5.447226E-08 -0.64773494 0.7618658
vn -5.447226E-08 -0.64773494 0.7618658
vn -5.447226E-08 -0.64773494 0.7618658
vn -0.4019847 -0.7892738 0.4641716
vn -0.4019847 -0.7892738 0.4641716
vn -0.4019847 -0.7892738 0.4641716
vn -0.40198454 -0.7892737 -0.46417186
vn -0.40198454 -0.7892737 -0.46417186
vn -0.40198454 -0.7892737 -0.46417186
vn 0 -0.647735 -0.76186574
vn 0 -0.647735 -0.76186574
vn 0 -0.647735 -0.76186574
vn 0.40198457 -0.78927374 -0.46417174
vn 0.40198457 -0.78927374 -0.46417174
vn 0.40198457 -0.78927374 -0.46417174
vn 0.4019845 -0.7892736 0.4641719
vn 0.4019845 -0.7892736 0.4641719
vn 0.4019845 -0.7892736 0.4641719
vn -5.4472267E-08 -0.64773494 0.7618658
vn -5.4472267E-08 -0.64773494 0.7618658
vn -5.4472267E-08 -0.64773494 0.7618658
vn -0.4019847 -0.7892738 0.4641716
vn -0.4019847 -0.7892738 0.4641716
vn -0.4019847 -0.7892738 0.4641716
vn -0.40198454 -0.7892737 -0.4641718
vn -0.40198454 -0.7892737 -0.4641718
vn -0.40198454 -0.7892737 -0.4641718
vn 0 -0.6477349 -0.7618657
vn 0 -0.6477349 -0.7618657
vn 0 -0.6477349 -0.7618657
vn 0.40198454 -0.7892737 -0.4641718
vn 0.40198454 -0.7892737 -0.4641718
vn 0.40198454 -0.7892737 -0.4641718
vn 0.40198454 -0.7892737 0.4641718
vn 0.40198454 -0.7892737 0.4641718
vn 0.40198454 -0.7892737 0.4641718
vn -5.447226E-08 -0.64773494 0.7618658
vn -5.447226E-08 -0.64773494 0.7618658
vn -5.447226E-08 -0.64773494 0.7618658
vn -0.4019847 -0.7892738 0.4641716
vn -0.4019847 -0.7892738 0.4641716
vn -0.4019847 -0.7892738 0.4641716
vn 0 -0.734738 0.678351
vn 0 -0.734738 0.678351
vn 0 -0.734738 0.678351
vn 0.7241421 -0.58595854 -0.36369044
vn 0.7241421 -0.58595854 -0.36369044
vn 0.7241421 -0.58595854 -0.36369044
vn 0 -0.9984844 0.05503654
vn 0 -0.9984844 0.05503654
vn 0 -0.9984844 0.05503654
vn 0 -0.79696727 0.6040223
vn 0 -0.79696727 0.6040223
vn 0 -0.79696727 0.6040223
vn 0 -0.9984844 0.05503654
vn 0 -0.9984844 0.05503654
vn 0 -0.9984844 0.05503654
vn 0 -0.7969673 0.6040223
vn 0 -0.7969673 0.6040223
vn 0 -0.7969673 0.6040223
vn 0 -0.9984844 0.05503654
vn 0 -0.9984844 0.05503654
vn 0 -0.9984844 0.05503654
vn 0 -0.79696727 0.6040223
vn 0 -0.79696727 0.6040223
vn 0 -0.79696727 0.6040223
f 1//1 2//2 3//3
f 4//4 5//5 6//6
f 7//7 8//8 9//9
f 10//10 11//11 12//12
f 13//13 14//14 15//15
f 16//16 17//17 18//18
f 19//19 20//20 21//21
f 22//22 23//23 24//24
f 25//25 26//26 27//27
f 28//28 29//29 30//30
f 31//31 32//32 33//33
f 34//34 35//35 36//36
f 37//37 38//38 39//39
f 40//40 41//41 42//42
f 43//43 44//44 45//45
f 46//46 47//47 48//48
f 49//49 50//50 51//51
f 52//52 53//53 54//54
f 55//55 56//56 57//57
f 58//58 59//59 60//60
f 61//61 62//62 63//63
f 64//64 65//65 66//66
f 67//67 68//68 69//69
f 70//70 71//71 72//72
f 73//73 74//74 75//75
f 76//76 77//77 78//78
f 79//79 80//80 81//81
f 82//82 83//83 84//84
f 85//85 86//86 87//87
f 88//88 89//89 90//90
f 91//91 92//92 93//93
f 94//94 95//95 96//96
f 97//97 98//98 99//99
f 100//100 101//101 102//102
f 103//103 104//104 105//105
f 106//106 107//107 108//108
f 109//109 110//110 111//111
f 112//112 113//113 114//114
f 115//115 116//116 117//117
f 118//118 119//119 120//120
f 121//121 122//122 123//123
f 124//124 125//125 126//126
f 127//127 128//128 129//129
f 130//130 131//131 132//132
f 133//133 134//134 135//135
f 136//136 137//137 138//138
f 139//139 140//140 141//141
f 142//142 143//143 144//144
f 145//145 146//146 147//147
f 148//148 149//149 150//150
f 151//151 152//152 153//153
f 154//154 155//155 156//156
f 157//157 158//158 159//159
f 160//160 161//161 162//162
