# Exported from SharpOpenGl procedural mesh
o aetherian_scout_mk1_00
# vertices 144
v 0.35827935 0.087846115 0.11926342
v 0.28985408 0.11882691 0.18585964
v 0 0.2986768 0.29815856
v 0.35827935 0.087846115 0.11926342
v 0 0.017569223 0
v 0.28985408 0.11882691 0.18585964
v 0.28985408 0.11882691 0.18585964
v 0.1107144 0.13797408 0.22701836
v 0 0.2986768 0.29815856
v 0.28985408 0.11882691 0.18585964
v 0 0.017569223 0
v 0.1107144 0.13797408 0.22701836
v 0.1107144 0.13797408 0.22701836
v -0.11071442 0.13797408 0.22701836
v 0 0.2986768 0.29815856
v 0.1107144 0.13797408 0.22701836
v 0 0.017569223 0
v -0.11071442 0.13797408 0.22701836
v -0.11071442 0.13797408 0.22701836
v -0.2898541 0.1188269 0.18585962
v 0 0.2986768 0.29815856
v -0.11071442 0.13797408 0.22701836
v 0 0.017569223 0
v -0.2898541 0.1188269 0.18585962
v -0.2898541 0.1188269 0.18585962
v -0.35827935 0.08784611 0.11926341
v 0 0.2986768 0.29815856
v -0.2898541 0.1188269 0.18585962
v 0 0.017569223 0
v -0.35827935 0.08784611 0.11926341
v -0.35827935 0.08784611 0.11926341
v -0.28985405 0.05686532 0.052667186
v 0 0.2986768 0.29815856
v -0.35827935 0.08784611 0.11926341
v 0 0.017569223 0
v -0.28985405 0.05686532 0.052667186
v -0.28985405 0.05686532 0.052667186
v -0.11071428 0.037718136 0.011508457
v 0 0.2986768 0.29815856
v -0.28985405 0.05686532 0.052667186
v 0 0.017569223 0
v -0.11071428 0.037718136 0.011508457
v -0.11071428 0.037718136 0.011508457
v 0.11071445 0.037718143 0.01150848
v 0 0.2986768 0.29815856
v -0.11071428 0.037718136 0.011508457
v 0 0.017569223 0
v 0.11071445 0.037718143 0.01150848
v 0.11071445 0.037718143 0.01150848
v 0.28985405 0.05686532 0.052667193
v 0 0.2986768 0.29815856
v 0.11071445 0.037718143 0.01150848
v 0 0.017569223 0
v 0.28985405 0.05686532 0.052667193
v 0.28985405 0.05686532 0.052667193
v 0.35827935 0.08784612 0.11926344
v 0 0.2986768 0.29815856
v 0.28985405 0.05686532 0.052667193
v 0 0.017569223 0
v 0.35827935 0.08784612 0.11926344
v -0.3241575 0.22137222 -0.17889513
v -0.1706092 0.12298456 -0.17889513
v -0.24738336 0.12298456 -0.11240676
v -0.3241575 0.22137222 -0.17889513
v -0.24738336 0.12298456 -0.11240676
v -0.40093166 0.12298456 -0.11240677
v -0.3241575 0.22137222 -0.17889513
v -0.40093166 0.12298456 -0.11240677
v -0.4777058 0.12298456 -0.17889513
v -0.3241575 0.22137222 -0.17889513
v -0.4777058 0.12298456 -0.17889513
v -0.40093166 0.12298456 -0.2453835
v -0.3241575 0.22137222 -0.17889513
v -0.40093166 0.12298456 -0.2453835
v -0.2473833 0.12298456 -0.24538347
v -0.3241575 0.22137222 -0.17889513
v -0.2473833 0.12298456 -0.24538347
v -0.1706092 0.12298456 -0.17889512
v 0 0.22137222 0.08944757
v 0.1535483 0.12298456 0.08944757
v 0.07677414 0.12298456 0.15593594
v 0 0.22137222 0.08944757
v 0.07677414 0.12298456 0.15593594
v -0.07677416 0.12298456 0.15593594
v 0 0.22137222 0.08944757
v -0.07677416 0.12298456 0.15593594
v -0.1535483 0.12298456 0.089447565
v 0 0.22137222 0.08944757
v -0.1535483 0.12298456 0.089447565
v -0.076774135 0.12298456 0.022959203
v 0 0.22137222 0.08944757
v -0.076774135 0.12298456 0.022959203
v 0.0767742 0.12298456 0.022959225
v 0 0.22137222 0.08944757
v 0.0767742 0.12298456 0.022959225
v 0.1535483 0.12298456 0.08944759
v 0.3241575 0.22137222 0.3577903
v 0.4777058 0.12298456 0.3577903
v 0.40093166 0.12298456 0.42427868
v 0.3241575 0.22137222 0.3577903
v 0.40093166 0.12298456 0.42427868
v 0.24738336 0.12298456 0.42427865
v 0.3241575 0.22137222 0.3577903
v 0.24738336 0.12298456 0.42427865
v 0.1706092 0.12298456 0.3577903
v 0.3241575 0.22137222 0.3577903
v 0.1706092 0.12298456 0.3577903
v 0.24738337 0.12298456 0.2913019
v 0.3241575 0.22137222 0.3577903
v 0.24738337 0.12298456 0.2913019
v 0.40093172 0.12298456 0.29130194
v 0.3241575 0.22137222 0.3577903
v 0.40093172 0.12298456 0.29130194
v 0.4777058 0.12298456 0.3577903
v 0 0.19326146 0.81993604
v -0.18767013 0.07027689 0.52177745
v 0.18767013 0.07027689 0.52177745
v 0 0.19326146 0.81993604
v 0 0.12298456 1.0733708
v -0.10236552 0.087846115 0.62613297
v -0.3412184 0.020822782 -1.0503314
v -0.4094621 0 -1.2004675
v -0.27297473 0 -1.2004675
v -0.3412184 0.08589397 -1.0162095
v -0.38216463 0.020822782 -1.0503314
v -0.3002722 0.020822782 -1.0503314
v -0.113739476 0.020822782 -1.0503314
v -0.18198316 0 -1.2004675
v -0.045495793 0 -1.2004675
v -0.113739476 0.08589397 -1.0162095
v -0.15468569 0.020822782 -1.0503314
v -0.07279326 0.020822782 -1.0503314
v 0.113739476 0.020822782 -1.0503314
v 0.045495793 0 -1.2004675
v 0.18198316 0 -1.2004675
v 0.113739476 0.08589397 -1.0162095
v 0.07279326 0.020822782 -1.0503314
v 0.15468569 0.020822782 -1.0503314
v 0.3412184 0.020822782 -1.0503314
v 0.27297473 0 -1.2004675
v 0.4094621 0 -1.2004675
v 0.3412184 0.08589397 -1.0162095
v 0.3002722 0.020822782 -1.0503314
v 0.38216463 0.020822782 -1.0503314
vn -0.5751919 -0.7864258 -0.22514142
vn -0.5751919 -0.7864258 -0.22514142
vn -0.5751919 -0.7864258 -0.22514142
vn -0.027546689 0.8952238 -0.44476452
vn -0.027546689 0.8952238 -0.44476452
vn -0.027546689 0.8952238 -0.44476452
vn -0.18502131 0.28841347 -0.93945974
vn -0.18502131 0.28841347 -0.93945974
vn -0.18502131 0.28841347 -0.93945974
vn -0.0119268345 0.88576895 -0.46397313
vn -0.0119268345 0.88576895 -0.46397313
vn -0.0119268345 0.88576895 -0.46397313
vn 0 0.40479234 -0.9144087
vn 0 0.40479234 -0.9144087
vn 0 0.40479234 -0.9144087
vn 0 0.8834358 -0.46855226
vn 0 0.8834358 -0.46855226
vn 0 0.8834358 -0.46855226
vn 0.18502137 0.28841347 -0.9394598
vn 0.18502137 0.28841347 -0.9394598
vn 0.18502137 0.28841347 -0.9394598
vn 0.011926833 0.88576895 -0.46397316
vn 0.011926833 0.88576895 -0.46397316
vn 0.011926833 0.88576895 -0.46397316
vn 0.5751919 -0.786426 -0.225141
vn 0.5751919 -0.786426 -0.225141
vn 0.5751919 -0.786426 -0.225141
vn 0.027546685 0.89522386 -0.44476455
vn 0.027546685 0.89522386 -0.44476455
vn 0.027546685 0.89522386 -0.44476455
vn 0.18875253 -0.8018338 0.5669524
vn 0.18875253 -0.8018338 0.5669524
vn 0.18875253 -0.8018338 0.5669524
vn 0.058158454 0.9266752 -0.3713366
vn 0.058158454 0.9266752 -0.3713366
vn 0.058158454 0.9266752 -0.3713366
vn 0.07055611 -0.75104016 0.65647584
vn 0.07055611 -0.75104016 0.65647584
vn 0.07055611 -0.75104016 0.65647584
vn 0.20509093 0.8403829 0.5016914
vn 0.20509093 0.8403829 0.5016914
vn 0.20509093 0.8403829 0.5016914
vn -4.307276E-08 -0.7394678 0.67319185
vn -4.307276E-08 -0.7394678 0.67319185
vn -4.307276E-08 -0.7394678 0.67319185
vn -7.0964774E-08 -0.49597007 0.8683396
vn -7.0964774E-08 -0.49597007 0.8683396
vn -7.0964774E-08 -0.49597007 0.8683396
vn -0.07055616 -0.75104016 0.65647584
vn -0.07055616 -0.75104016 0.65647584
vn -0.07055616 -0.75104016 0.65647584
vn -0.20509079 0.8403839 0.50168973
vn -0.20509079 0.8403839 0.50168973
vn -0.20509079 0.8403839 0.50168973
vn -0.18875256 -0.80183375 0.5669524
vn -0.18875256 -0.80183375 0.5669524
vn -0.18875256 -0.80183375 0.5669524
vn -0.05815842 0.9266751 -0.37133667
vn -0.05815842 0.9266751 -0.37133667
vn -0.05815842 0.9266751 -0.37133667
vn -0.45791897 -0.71464944 -0.52875924
vn -0.45791897 -0.71464944 -0.52875924
vn -0.45791897 -0.71464944 -0.52875924
vn 2.5538933E-08 -0.55991656 -0.8285491
vn 2.5538933E-08 -0.55991656 -0.8285491
vn 2.5538933E-08 -0.55991656 -0.8285491
vn 0.457919 -0.7146494 -0.5287593
vn 0.457919 -0.7146494 -0.5287593
vn 0.457919 -0.7146494 -0.5287593
vn 0.45791897 -0.71464944 0.52875924
vn 0.45791897 -0.71464944 0.52875924
vn 0.45791897 -0.71464944 0.52875924
vn -1.5323353E-07 -0.55991644 0.828549
vn -1.5323353E-07 -0.55991644 0.828549
vn -1.5323353E-07 -0.55991644 0.828549
vn -0.4579191 -0.7146495 0.52875906
vn -0.4579191 -0.7146495 0.52875906
vn -0.4579191 -0.7146495 0.52875906
vn -0.45791897 -0.71464944 -0.5287593
vn -0.45791897 -0.71464944 -0.5287593
vn -0.45791897 -0.71464944 -0.5287593
vn 0 -0.55991656 -0.828549
vn 0 -0.55991656 -0.828549
vn 0 -0.55991656 -0.828549
vn 0.45791906 -0.7146495 -0.5287592
vn 0.45791906 -0.7146495 -0.5287592
vn 0.45791906 -0.7146495 -0.5287592
vn 0.4579189 -0.7146494 0.52875936
vn 0.4579189 -0.7146494 0.52875936
vn 0.4579189 -0.7146494 0.52875936
vn -1.021557E-07 -0.55991644 0.828549
vn -1.021557E-07 -0.55991644 0.828549
vn -1.021557E-07 -0.55991644 0.828549
vn -0.4579191 -0.7146495 0.528759
vn -0.4579191 -0.7146495 0.528759
vn -0.4579191 -0.7146495 0.528759
vn -0.45791906 -0.7146495 -0.5287592
vn -0.45791906 -0.7146495 -0.5287592
vn -0.45791906 -0.7146495 -0.5287592
vn 1.7877252E-07 -0.55991656 -0.828549
vn 1.7877252E-07 -0.55991656 -0.828549
vn 1.7877252E-07 -0.55991656 -0.828549
vn 0.457919 -0.71464944 -0.52875936
vn 0.457919 -0.71464944 -0.52875936
vn 0.457919 -0.71464944 -0.52875936
vn 0.457919 -0.71464944 0.52875924
vn 0.457919 -0.71464944 0.52875924
vn 0.457919 -0.71464944 0.52875924
vn -1.7877248E-07 -0.55991656 0.8285491
vn -1.7877248E-07 -0.55991656 0.8285491
vn -1.7877248E-07 -0.55991656 0.8285491
vn -0.45791903 -0.7146495 0.528759
vn -0.45791903 -0.7146495 0.528759
vn -0.45791903 -0.7146495 0.528759
vn 0 -0.9244449 0.3813154
vn 0 -0.9244449 0.3813154
vn 0 -0.9244449 0.3813154
vn 0.8317512 -0.5349618 -0.14834373
vn 0.8317512 -0.5349618 -0.14834373
vn 0.8317512 -0.5349618 -0.14834373
vn 0 -0.99051875 0.13737771
vn 0 -0.99051875 0.13737771
vn 0 -0.99051875 0.13737771
vn 0 -0.4644017 0.8856247
vn 0 -0.4644017 0.8856247
vn 0 -0.4644017 0.8856247
vn 0 -0.99051875 0.13737771
vn 0 -0.99051875 0.13737771
vn 0 -0.99051875 0.13737771
vn 0 -0.4644017 0.8856247
vn 0 -0.4644017 0.8856247
vn 0 -0.4644017 0.8856247
vn 0 -0.99051875 0.13737771
vn 0 -0.99051875 0.13737771
vn 0 -0.99051875 0.13737771
vn 0 -0.4644017 0.8856247
vn 0 -0.4644017 0.8856247
vn 0 -0.4644017 0.8856247
vn 0 -0.99051875 0.13737771
vn 0 -0.99051875 0.13737771
vn 0 -0.99051875 0.13737771
vn 0 -0.4644017 0.8856247
vn 0 -0.4644017 0.8856247
vn 0 -0.4644017 0.8856247
f 1//1 2//2 3//3
f 4//4 5//5 6//6
f 7//7 8//8 9//9
f 10//10 11//11 12//12
f 13//13 14//14 15//15
f 16//16 17//17 18//18
f 19//19 20//20 21//21
f 22//22 23//23 24//24
f 25//25 26//26 27//27
f 28//28 29//29 30//30
f 31//31 32//32 33//33
f 34//34 35//35 36//36
f 37//37 38//38 39//39
f 40//40 41//41 42//42
f 43//43 44//44 45//45
f 46//46 47//47 48//48
f 49//49 50//50 51//51
f 52//52 53//53 54//54
f 55//55 56//56 57//57
f 58//58 59//59 60//60
f 61//61 62//62 63//63
f 64//64 65//65 66//66
f 67//67 68//68 69//69
f 70//70 71//71 72//72
f 73//73 74//74 75//75
f 76//76 77//77 78//78
f 79//79 80//80 81//81
f 82//82 83//83 84//84
f 85//85 86//86 87//87
f 88//88 89//89 90//90
f 91//91 92//92 93//93
f 94//94 95//95 96//96
f 97//97 98//98 99//99
f 100//100 101//101 102//102
f 103//103 104//104 105//105
f 106//106 107//107 108//108
f 109//109 110//110 111//111
f 112//112 113//113 114//114
f 115//115 116//116 117//117
f 118//118 119//119 120//120
f 121//121 122//122 123//123
f 124//124 125//125 126//126
f 127//127 128//128 129//129
f 130//130 131//131 132//132
f 133//133 134//134 135//135
f 136//136 137//137 138//138
f 139//139 140//140 141//141
f 142//142 143//143 144//144
