# Exported from SharpOpenGl procedural mesh
o aetherian_dreadnought_spear_59
# vertices 168
v 4.077543 0.9667183 0.63660485
v 3.673739 1.2183844 0.8990067
v 0 3.2868423 1.5915121
v 4.077543 0.9667183 0.63660485
v 0 0.19334367 0
v 3.673739 1.2183844 0.8990067
v 3.673739 1.2183844 0.8990067
v 2.5423064 1.4202049 1.1094366
v 0 3.2868423 1.5915121
v 3.673739 1.2183844 0.8990067
v 0 0.19334367 0
v 2.5423064 1.4202049 1.1094366
v 2.5423064 1.4202049 1.1094366
v 0.9073388 1.5322068 1.2262166
v 0 3.2868423 1.5915121
v 2.5423064 1.4202049 1.1094366
v 0 0.19334367 0
v 0.9073388 1.5322068 1.2262166
v 0.9073388 1.5322068 1.2262166
v -0.9073387 1.5322068 1.2262166
v 0 3.2868423 1.5915121
v 0.9073388 1.5322068 1.2262166
v 0 0.19334367 0
v -0.9073387 1.5322068 1.2262166
v -0.9073387 1.5322068 1.2262166
v -2.5423071 1.4202048 1.1094365
v 0 3.2868423 1.5915121
v -0.9073387 1.5322068 1.2262166
v 0 0.19334367 0
v -2.5423071 1.4202048 1.1094365
v -2.5423071 1.4202048 1.1094365
v -3.673739 1.2183844 0.8990067
v 0 3.2868423 1.5915121
v -2.5423071 1.4202048 1.1094365
v 0 0.19334367 0
v -3.673739 1.2183844 0.8990067
v -3.673739 1.2183844 0.8990067
v -4.077543 0.96671826 0.6366048
v 0 3.2868423 1.5915121
v -3.673739 1.2183844 0.8990067
v 0 0.19334367 0
v -4.077543 0.96671826 0.6366048
v -4.077543 0.96671826 0.6366048
v -3.673739 0.71505225 0.37420297
v 0 3.2868423 1.5915121
v -4.077543 0.96671826 0.6366048
v 0 0.19334367 0
v -3.673739 0.71505225 0.37420297
v -3.673739 0.71505225 0.37420297
v -2.5423057 0.51323175 0.16377297
v 0 3.2868423 1.5915121
v -3.673739 0.71505225 0.37420297
v 0 0.19334367 0
v -2.5423057 0.51323175 0.16377297
v -2.5423057 0.51323175 0.16377297
v -0.90733707 0.4012298 0.046993136
v 0 3.2868423 1.5915121
v -2.5423057 0.51323175 0.16377297
v 0 0.19334367 0
v -0.90733707 0.4012298 0.046993136
v -0.90733707 0.4012298 0.046993136
v 0.90734094 0.40122998 0.046993315
v 0 3.2868423 1.5915121
v -0.90733707 0.4012298 0.046993136
v 0 0.19334367 0
v 0.90734094 0.40122998 0.046993315
v 0.90734094 0.40122998 0.046993315
v 2.542306 0.51323175 0.16377297
v 0 3.2868423 1.5915121
v 0.90734094 0.40122998 0.046993315
v 0 0.19334367 0
v 2.542306 0.51323175 0.16377297
v 2.542306 0.51323175 0.16377297
v 3.673739 0.71505225 0.37420297
v 0 3.2868423 1.5915121
v 2.542306 0.51323175 0.16377297
v 0 0.19334367 0
v 3.673739 0.71505225 0.37420297
v 3.673739 0.71505225 0.37420297
v 4.077543 0.96671844 0.63660496
v 0 3.2868423 1.5915121
v 3.673739 0.71505225 0.37420297
v 0 0.19334367 0
v 4.077543 0.96671844 0.63660496
v -3.6892052 2.43613 -0.95490724
v -1.9416867 1.3534056 -0.95490724
v -2.815446 1.3534056 -0.19820952
v -3.6892052 2.43613 -0.95490724
v -2.815446 1.3534056 -0.19820952
v -4.5629644 1.3534056 -0.19820958
v -3.6892052 2.43613 -0.95490724
v -4.5629644 1.3534056 -0.19820958
v -5.4367237 1.3534056 -0.9549073
v -3.6892052 2.43613 -0.95490724
v -5.4367237 1.3534056 -0.9549073
v -4.5629644 1.3534056 -1.711605
v -3.6892052 2.43613 -0.95490724
v -4.5629644 1.3534056 -1.711605
v -2.8154454 1.3534056 -1.7116047
v -3.6892052 2.43613 -0.95490724
v -2.8154454 1.3534056 -1.7116047
v -1.9416867 1.3534056 -0.95490706
v 0 2.43613 0.47745377
v 1.7475184 1.3534056 0.47745377
v 0.87375915 1.3534056 1.2341515
v 0 2.43613 0.47745377
v 0.87375915 1.3534056 1.2341515
v -0.8737593 1.3534056 1.2341514
v 0 2.43613 0.47745377
v -0.8737593 1.3534056 1.2341514
v -1.7475184 1.3534056 0.47745368
v 0 2.43613 0.47745377
v -1.7475184 1.3534056 0.47745368
v -0.87375903 1.3534056 -0.27924395
v 0 2.43613 0.47745377
v -0.87375903 1.3534056 -0.27924395
v 0.8737598 1.3534056 -0.2792437
v 0 2.43613 0.47745377
v 0.8737598 1.3534056 -0.2792437
v 1.7475184 1.3534056 0.47745392
v 3.6892052 2.43613 1.9098148
v 5.4367237 1.3534056 1.9098148
v 4.5629644 1.3534056 2.6665125
v 3.6892052 2.43613 1.9098148
v 4.5629644 1.3534056 2.6665125
v 2.815446 1.3534056 2.6665125
v 3.6892052 2.43613 1.9098148
v 2.815446 1.3534056 2.6665125
v 1.9416867 1.3534056 1.9098147
v 3.6892052 2.43613 1.9098148
v 1.9416867 1.3534056 1.9098147
v 2.8154461 1.3534056 1.1531172
v 3.6892052 2.43613 1.9098148
v 2.8154461 1.3534056 1.1531172
v 4.562965 1.3534056 1.1531174
v 3.6892052 2.43613 1.9098148
v 4.562965 1.3534056 1.1531174
v 5.4367237 1.3534056 1.909815
v 0 2.1267803 4.3766584
v -2.1358557 0.7733747 2.7851462
v 2.1358557 0.7733747 2.7851462
v 0 2.1267803 4.3766584
v 0 1.3534056 5.729444
v -1.1650122 0.9667183 3.3421752
v -3.883374 0.22914805 -5.6064634
v -5.547677 0 -9.267931
v -2.219071 0 -9.267931
v -3.883374 0.94523567 -4.774312
v -4.881956 0.22914805 -5.6064634
v -2.884792 0.22914805 -5.6064634
v -1.294458 0.22914805 -5.6064634
v -2.9587612 0 -9.267931
v 0.36984515 0 -9.267931
v -1.294458 0.94523567 -4.774312
v -2.29304 0.22914805 -5.6064634
v -0.2958761 0.22914805 -5.6064634
v 1.294458 0.22914805 -5.6064634
v -0.36984515 0 -9.267931
v 2.9587612 0 -9.267931
v 1.294458 0.94523567 -4.774312
v 0.2958761 0.22914805 -5.6064634
v 2.29304 0.22914805 -5.6064634
v 3.883374 0.22914805 -5.6064634
v 2.219071 0 -9.267931
v 5.547677 0 -9.267931
v 3.883374 0.94523567 -4.774312
v 2.884792 0.22914805 -5.6064634
v 4.881956 0.22914805 -5.6064634
vn -0.47098705 -0.8747239 0.11414543
vn -0.47098705 -0.8747239 0.11414543
vn -0.47098705 -0.8747239 0.11414543
vn -0.022661334 0.7038814 -0.709956
vn -0.022661334 0.7038814 -0.709956
vn -0.022661334 0.7038814 -0.709956
vn -0.18173695 0.0064320727 -0.98332614
vn -0.18173695 0.0064320727 -0.98332614
vn -0.18173695 0.0064320727 -0.98332614
vn -0.013118673 0.68548137 -0.72797203
vn -0.013118673 0.68548137 -0.72797203
vn -0.013118673 0.68548137 -0.72797203
vn -0.058252428 0.17451222 -0.98293036
vn -0.058252428 0.17451222 -0.98293036
vn -0.058252428 0.17451222 -0.98293036
vn -0.0061040944 0.67763686 -0.7353713
vn -0.0061040944 0.67763686 -0.7353713
vn -0.0061040944 0.67763686 -0.7353713
vn 0 0.20381866 -0.9790086
vn 0 0.20381866 -0.9790086
vn 0 0.20381866 -0.9790086
vn 0 0.6754029 -0.73744893
vn 0 0.6754029 -0.73744893
vn 0 0.6754029 -0.73744893
vn 0.058252458 0.17451224 -0.9829304
vn 0.058252458 0.17451224 -0.9829304
vn 0.058252458 0.17451224 -0.9829304
vn 0.0061040935 0.67763674 -0.73537135
vn 0.0061040935 0.67763674 -0.73537135
vn 0.0061040935 0.67763674 -0.73537135
vn 0.18173699 0.0064320783 -0.98332614
vn 0.18173699 0.0064320783 -0.98332614
vn 0.18173699 0.0064320783 -0.98332614
vn 0.0131186815 0.68548137 -0.72797203
vn 0.0131186815 0.68548137 -0.72797203
vn 0.0131186815 0.68548137 -0.72797203
vn 0.47098705 -0.874724 0.11414562
vn 0.47098705 -0.874724 0.11414562
vn 0.47098705 -0.874724 0.11414562
vn 0.02266133 0.7038813 -0.709956
vn 0.02266133 0.7038813 -0.709956
vn 0.02266133 0.7038813 -0.709956
vn 0.14909847 -0.5889494 0.79429734
vn 0.14909847 -0.5889494 0.79429734
vn 0.14909847 -0.5889494 0.79429734
vn 0.03945956 0.7507958 -0.6593547
vn 0.03945956 0.7507958 -0.6593547
vn 0.03945956 0.7507958 -0.6593547
vn 0.0695679 -0.5062425 0.85958064
vn 0.0695679 -0.5062425 0.85958064
vn 0.0695679 -0.5062425 0.85958064
vn 0.08957462 0.91422 -0.39519393
vn 0.08957462 0.91422 -0.39519393
vn 0.08957462 0.91422 -0.39519393
vn 0.029852422 -0.4789719 0.87732244
vn 0.029852422 -0.4789719 0.87732244
vn 0.029852422 -0.4789719 0.87732244
vn 0.078963585 0.1209621 0.9895115
vn 0.078963585 0.1209621 0.9895115
vn 0.078963585 0.1209621 0.9895115
vn -4.0375653E-08 -0.47190207 0.881651
vn -4.0375653E-08 -0.47190207 0.881651
vn -4.0375653E-08 -0.47190207 0.881651
vn -7.4386016E-08 -0.22048935 0.9753894
vn -7.4386016E-08 -0.22048935 0.9753894
vn -7.4386016E-08 -0.22048935 0.9753894
vn -0.029852448 -0.4789719 0.87732255
vn -0.029852448 -0.4789719 0.87732255
vn -0.029852448 -0.4789719 0.87732255
vn -0.07896371 0.12096314 0.9895114
vn -0.07896371 0.12096314 0.9895114
vn -0.07896371 0.12096314 0.9895114
vn -0.069567904 -0.5062426 0.8595806
vn -0.069567904 -0.5062426 0.8595806
vn -0.069567904 -0.5062426 0.8595806
vn -0.08957457 0.9142199 -0.39519402
vn -0.08957457 0.9142199 -0.39519402
vn -0.08957457 0.9142199 -0.39519402
vn -0.1490985 -0.5889494 0.7942973
vn -0.1490985 -0.5889494 0.7942973
vn -0.1490985 -0.5889494 0.7942973
vn -0.039459564 0.7507958 -0.6593546
vn -0.039459564 0.7507958 -0.6593546
vn -0.039459564 0.7507958 -0.6593546
vn -0.44999722 -0.726296 -0.51961195
vn -0.44999722 -0.726296 -0.51961195
vn -0.44999722 -0.726296 -0.51961195
vn 2.582112E-08 -0.57284766 -0.8196618
vn 2.582112E-08 -0.57284766 -0.8196618
vn 2.582112E-08 -0.57284766 -0.8196618
vn 0.44999722 -0.726296 -0.519612
vn 0.44999722 -0.726296 -0.519612
vn 0.44999722 -0.726296 -0.519612
vn 0.4499972 -0.726296 0.519612
vn 0.4499972 -0.726296 0.519612
vn 0.4499972 -0.726296 0.519612
vn -1.0328446E-07 -0.57284766 0.81966186
vn -1.0328446E-07 -0.57284766 0.81966186
vn -1.0328446E-07 -0.57284766 0.81966186
vn -0.44999734 -0.72629607 0.51961184
vn -0.44999734 -0.72629607 0.51961184
vn -0.44999734 -0.72629607 0.51961184
vn -0.44999722 -0.726296 -0.519612
vn -0.44999722 -0.726296 -0.519612
vn -0.44999722 -0.726296 -0.519612
vn 5.1642242E-08 -0.57284766 -0.81966186
vn 5.1642242E-08 -0.57284766 -0.81966186
vn 5.1642242E-08 -0.57284766 -0.81966186
vn 0.44999725 -0.726296 -0.51961195
vn 0.44999725 -0.726296 -0.51961195
vn 0.44999725 -0.726296 -0.51961195
vn 0.44999716 -0.72629595 0.5196121
vn 0.44999716 -0.72629595 0.5196121
vn 0.44999716 -0.72629595 0.5196121
vn -1.03284464E-07 -0.57284766 0.81966186
vn -1.03284464E-07 -0.57284766 0.81966186
vn -1.03284464E-07 -0.57284766 0.81966186
vn -0.44999734 -0.72629607 0.5196118
vn -0.44999734 -0.72629607 0.5196118
vn -0.44999734 -0.72629607 0.5196118
vn -0.4499972 -0.726296 -0.519612
vn -0.4499972 -0.726296 -0.519612
vn -0.4499972 -0.726296 -0.519612
vn 0 -0.57284766 -0.8196618
vn 0 -0.57284766 -0.8196618
vn 0 -0.57284766 -0.8196618
vn 0.44999725 -0.726296 -0.51961195
vn 0.44999725 -0.726296 -0.51961195
vn 0.44999725 -0.726296 -0.51961195
vn 0.44999716 -0.72629595 0.51961213
vn 0.44999716 -0.72629595 0.51961213
vn 0.44999716 -0.72629595 0.51961213
vn -1.0328448E-07 -0.5728476 0.8196619
vn -1.0328448E-07 -0.5728476 0.8196619
vn -1.0328448E-07 -0.5728476 0.8196619
vn -0.44999725 -0.72629607 0.5196119
vn -0.44999725 -0.72629607 0.5196119
vn -0.44999725 -0.72629607 0.5196119
vn 0 -0.7617928 0.6478208
vn 0 -0.7617928 0.6478208
vn 0 -0.7617928 0.6478208
vn 0.7937891 -0.52799994 -0.30185255
vn 0.7937891 -0.52799994 -0.30185255
vn 0.7937891 -0.52799994 -0.30185255
vn 0 -0.99804735 0.062461462
vn 0 -0.99804735 0.062461462
vn 0 -0.99804735 0.062461462
vn 0 -0.7579882 0.65226835
vn 0 -0.7579882 0.65226835
vn 0 -0.7579882 0.65226835
vn 0 -0.9980475 0.062461466
vn 0 -0.9980475 0.062461466
vn 0 -0.9980475 0.062461466
vn 0 -0.7579882 0.65226835
vn 0 -0.7579882 0.65226835
vn 0 -0.7579882 0.65226835
vn 0 -0.9980475 0.062461466
vn 0 -0.9980475 0.062461466
vn 0 -0.9980475 0.062461466
vn 0 -0.7579882 0.65226835
vn 0 -0.7579882 0.65226835
vn 0 -0.7579882 0.65226835
vn 0 -0.99804735 0.062461462
vn 0 -0.99804735 0.062461462
vn 0 -0.99804735 0.062461462
vn 0 -0.7579882 0.65226835
vn 0 -0.7579882 0.65226835
vn 0 -0.7579882 0.65226835
f 1//1 2//2 3//3
f 4//4 5//5 6//6
f 7//7 8//8 9//9
f 10//10 11//11 12//12
f 13//13 14//14 15//15
f 16//16 17//17 18//18
f 19//19 20//20 21//21
f 22//22 23//23 24//24
f 25//25 26//26 27//27
f 28//28 29//29 30//30
f 31//31 32//32 33//33
f 34//34 35//35 36//36
f 37//37 38//38 39//39
f 40//40 41//41 42//42
f 43//43 44//44 45//45
f 46//46 47//47 48//48
f 49//49 50//50 51//51
f 52//52 53//53 54//54
f 55//55 56//56 57//57
f 58//58 59//59 60//60
f 61//61 62//62 63//63
f 64//64 65//65 66//66
f 67//67 68//68 69//69
f 70//70 71//71 72//72
f 73//73 74//74 75//75
f 76//76 77//77 78//78
f 79//79 80//80 81//81
f 82//82 83//83 84//84
f 85//85 86//86 87//87
f 88//88 89//89 90//90
f 91//91 92//92 93//93
f 94//94 95//95 96//96
f 97//97 98//98 99//99
f 100//100 101//101 102//102
f 103//103 104//104 105//105
f 106//106 107//107 108//108
f 109//109 110//110 111//111
f 112//112 113//113 114//114
f 115//115 116//116 117//117
f 118//118 119//119 120//120
f 121//121 122//122 123//123
f 124//124 125//125 126//126
f 127//127 128//128 129//129
f 130//130 131//131 132//132
f 133//133 134//134 135//135
f 136//136 137//137 138//138
f 139//139 140//140 141//141
f 142//142 143//143 144//144
f 145//145 146//146 147//147
f 148//148 149//149 150//150
f 151//151 152//152 153//153
f 154//154 155//155 156//156
f 157//157 158//158 159//159
f 160//160 161//161 162//162
f 163//163 164//164 165//165
f 166//166 167//167 168//168
