# Exported from SharpOpenGl procedural mesh
o aetherian_corvette_mk1_04
# vertices 138
v 0.9315079 0.18379304 0.18791603
v 0.7536057 0.24861154 0.29284757
v 0 0.62489635 0.46979004
v 0.9315079 0.18379304 0.18791603
v 0 0.03675861 0
v 0.7536057 0.24861154 0.29284757
v 0.7536057 0.24861154 0.29284757
v 0.28785175 0.28867158 0.35769886
v 0 0.62489635 0.46979004
v 0.7536057 0.24861154 0.29284757
v 0 0.03675861 0
v 0.28785175 0.28867158 0.35769886
v 0.28785175 0.28867158 0.35769886
v -0.2878518 0.28867158 0.35769886
v 0 0.62489635 0.46979004
v 0.28785175 0.28867158 0.35769886
v 0 0.03675861 0
v -0.2878518 0.28867158 0.35769886
v -0.2878518 0.28867158 0.35769886
v -0.7536058 0.24861154 0.29284757
v 0 0.62489635 0.46979004
v -0.2878518 0.28867158 0.35769886
v 0 0.03675861 0
v -0.7536058 0.24861154 0.29284757
v -0.7536058 0.24861154 0.29284757
v -0.9315079 0.18379302 0.18791601
v 0 0.62489635 0.46979004
v -0.7536058 0.24861154 0.29284757
v 0 0.03675861 0
v -0.9315079 0.18379302 0.18791601
v -0.9315079 0.18379302 0.18791601
v -0.75360566 0.11897452 0.08298444
v 0 0.62489635 0.46979004
v -0.9315079 0.18379302 0.18791601
v 0 0.03675861 0
v -0.75360566 0.11897452 0.08298444
v -0.75360566 0.11897452 0.08298444
v -0.28785145 0.078914486 0.018133178
v 0 0.62489635 0.46979004
v -0.75360566 0.11897452 0.08298444
v 0 0.03675861 0
v -0.28785145 0.078914486 0.018133178
v -0.28785145 0.078914486 0.018133178
v 0.2878519 0.07891449 0.018133208
v 0 0.62489635 0.46979004
v -0.28785145 0.078914486 0.018133178
v 0 0.03675861 0
v 0.2878519 0.07891449 0.018133208
v 0.2878519 0.07891449 0.018133208
v 0.75360566 0.11897453 0.082984455
v 0 0.62489635 0.46979004
v 0.2878519 0.07891449 0.018133208
v 0 0.03675861 0
v 0.75360566 0.11897453 0.082984455
v 0.75360566 0.11897453 0.082984455
v 0.9315079 0.18379305 0.18791606
v 0 0.62489635 0.46979004
v 0.75360566 0.11897453 0.082984455
v 0 0.03675861 0
v 0.9315079 0.18379305 0.18791606
v -0.84279287 0.46315843 -0.28187403
v -0.44357517 0.25731024 -0.28187403
v -0.64318407 0.25731024 -0.10900769
v -0.84279287 0.46315843 -0.28187403
v -0.64318407 0.25731024 -0.10900769
v -1.0424018 0.25731024 -0.1090077
v -0.84279287 0.46315843 -0.28187403
v -1.0424018 0.25731024 -0.1090077
v -1.2420106 0.25731024 -0.28187406
v -0.84279287 0.46315843 -0.28187403
v -1.2420106 0.25731024 -0.28187406
v -1.0424017 0.25731024 -0.45474038
v -0.84279287 0.46315843 -0.28187403
v -1.0424017 0.25731024 -0.45474038
v -0.6431839 0.25731024 -0.45474035
v -0.84279287 0.46315843 -0.28187403
v -0.6431839 0.25731024 -0.45474035
v -0.44357517 0.25731024 -0.281874
v 0 0.46315843 0.14093706
v 0.3992177 0.25731024 0.14093706
v 0.19960883 0.25731024 0.3138034
v 0 0.46315843 0.14093706
v 0.19960883 0.25731024 0.3138034
v -0.19960888 0.25731024 0.31380337
v 0 0.46315843 0.14093706
v -0.19960888 0.25731024 0.31380337
v -0.3992177 0.25731024 0.14093705
v 0 0.46315843 0.14093706
v -0.3992177 0.25731024 0.14093705
v -0.19960882 0.25731024 -0.031929284
v 0 0.46315843 0.14093706
v -0.19960882 0.25731024 -0.031929284
v 0.199609 0.25731024 -0.03192924
v 0 0.46315843 0.14093706
v 0.199609 0.25731024 -0.03192924
v 0.3992177 0.25731024 0.14093709
v 0.84279287 0.46315843 0.5637481
v 1.2420106 0.25731024 0.5637481
v 1.0424017 0.25731024 0.73661447
v 0.84279287 0.46315843 0.5637481
v 1.0424017 0.25731024 0.73661447
v 0.643184 0.25731024 0.73661447
v 0.84279287 0.46315843 0.5637481
v 0.643184 0.25731024 0.73661447
v 0.44357517 0.25731024 0.5637481
v 0.84279287 0.46315843 0.5637481
v 0.44357517 0.25731024 0.5637481
v 0.64318407 0.25731024 0.39088178
v 0.84279287 0.46315843 0.5637481
v 0.64318407 0.25731024 0.39088178
v 1.0424019 0.25731024 0.39088184
v 0.84279287 0.46315843 0.5637481
v 1.0424019 0.25731024 0.39088184
v 1.2420106 0.25731024 0.5637482
v 0 0.40434468 1.2919227
v -0.4879327 0.14703444 0.82213265
v 0.4879327 0.14703444 0.82213265
v 0 0.40434468 1.2919227
v 0 0.25731024 1.6912444
v -0.2661451 0.18379304 0.98655915
v -0.739292 0.043565754 -1.6549424
v -0.9927636 0 -2.2125797
v -0.48582047 0 -2.2125797
v -0.739292 0.17970873 -1.5282066
v -0.89137495 0.043565754 -1.6549424
v -0.5872091 0.043565754 -1.6549424
v 0 0.043565754 -1.6549424
v -0.25347155 0 -2.2125797
v 0.25347155 0 -2.2125797
v 0 0.17970873 -1.5282066
v -0.15208293 0.043565754 -1.6549424
v 0.15208293 0.043565754 -1.6549424
v 0.739292 0.043565754 -1.6549424
v 0.48582047 0 -2.2125797
v 0.9927636 0 -2.2125797
v 0.739292 0.17970873 -1.5282066
v 0.5872091 0.043565754 -1.6549424
v 0.89137495 0.043565754 -1.6549424
vn -0.4820248 -0.8189787 -0.31132945
vn -0.4820248 -0.8189787 -0.31132945
vn -0.4820248 -0.8189787 -0.31132945
vn -0.02066472 0.8345451 -0.5505519
vn -0.02066472 0.8345451 -0.5505519
vn -0.02066472 0.8345451 -0.5505519
vn -0.11550778 0.22374986 -0.9677779
vn -0.11550778 0.22374986 -0.9677779
vn -0.11550778 0.22374986 -0.9677779
vn -0.008894967 0.8209157 -0.57098
vn -0.008894967 0.8209157 -0.57098
vn -0.008894967 0.8209157 -0.57098
vn 0 0.31626904 -0.9486695
vn 0 0.31626904 -0.9486695
vn 0 0.31626904 -0.9486695
vn 0 0.8175924 -0.5757976
vn 0 0.8175924 -0.5757976
vn 0 0.8175924 -0.5757976
vn 0.11550779 0.22374986 -0.9677779
vn 0.11550779 0.22374986 -0.9677779
vn 0.11550779 0.22374986 -0.9677779
vn 0.00889497 0.8209157 -0.57097995
vn 0.00889497 0.8209157 -0.57097995
vn 0.00889497 0.8209157 -0.57097995
vn 0.48202473 -0.81897897 -0.3113287
vn 0.48202473 -0.81897897 -0.3113287
vn 0.48202473 -0.81897897 -0.3113287
vn 0.02066472 0.83454514 -0.5505519
vn 0.02066472 0.83454514 -0.5505519
vn 0.02066472 0.83454514 -0.5505519
vn 0.13680288 -0.7221792 0.67804295
vn 0.13680288 -0.7221792 0.67804295
vn 0.13680288 -0.7221792 0.67804295
vn 0.044541083 0.88192976 -0.4692717
vn 0.044541083 0.88192976 -0.4692717
vn 0.044541083 0.88192976 -0.4692717
vn 0.04928516 -0.65193284 0.7566733
vn 0.04928516 -0.65193284 0.7566733
vn 0.04928516 -0.65193284 0.7566733
vn 0.15210752 0.77453226 0.61397314
vn 0.15210752 0.77453226 0.61397314
vn 0.15210752 0.77453226 0.61397314
vn -3.163853E-08 -0.63740844 0.7705262
vn -3.163853E-08 -0.63740844 0.7705262
vn -3.163853E-08 -0.63740844 0.7705262
vn -4.2440245E-08 -0.39514115 0.91862047
vn -4.2440245E-08 -0.39514115 0.91862047
vn -4.2440245E-08 -0.39514115 0.91862047
vn -0.04928518 -0.65193284 0.75667334
vn -0.04928518 -0.65193284 0.75667334
vn -0.04928518 -0.65193284 0.75667334
vn -0.1521075 0.77453417 0.6139709
vn -0.1521075 0.77453417 0.6139709
vn -0.1521075 0.77453417 0.6139709
vn -0.1368029 -0.7221792 0.67804295
vn -0.1368029 -0.7221792 0.67804295
vn -0.1368029 -0.7221792 0.67804295
vn -0.044541076 0.88192976 -0.46927166
vn -0.044541076 0.88192976 -0.46927166
vn -0.044541076 0.88192976 -0.46927166
vn -0.40506995 -0.7855842 -0.4677346
vn -0.40506995 -0.7855842 -0.4677346
vn -0.40506995 -0.7855842 -0.4677346
vn 3.4714635E-08 -0.6430914 -0.76578945
vn 3.4714635E-08 -0.6430914 -0.76578945
vn 3.4714635E-08 -0.6430914 -0.76578945
vn 0.40507007 -0.78558445 -0.4677344
vn 0.40507007 -0.78558445 -0.4677344
vn 0.40507007 -0.78558445 -0.4677344
vn 0.4050699 -0.7855843 0.46773466
vn 0.4050699 -0.7855843 0.46773466
vn 0.4050699 -0.7855843 0.46773466
vn -3.471463E-08 -0.64309144 0.76578945
vn -3.471463E-08 -0.64309144 0.76578945
vn -3.471463E-08 -0.64309144 0.76578945
vn -0.4050701 -0.78558445 0.4677343
vn -0.4050701 -0.78558445 0.4677343
vn -0.4050701 -0.78558445 0.4677343
vn -0.40506998 -0.7855843 -0.46773458
vn -0.40506998 -0.7855843 -0.46773458
vn -0.40506998 -0.7855843 -0.46773458
vn 3.471464E-08 -0.64309144 -0.76578945
vn 3.471464E-08 -0.64309144 -0.76578945
vn 3.471464E-08 -0.64309144 -0.76578945
vn 0.40507 -0.7855843 -0.46773452
vn 0.40507 -0.7855843 -0.46773452
vn 0.40507 -0.7855843 -0.46773452
vn 0.40506995 -0.7855843 0.4677346
vn 0.40506995 -0.7855843 0.4677346
vn 0.40506995 -0.7855843 0.4677346
vn -6.9429255E-08 -0.6430914 0.7657894
vn -6.9429255E-08 -0.6430914 0.7657894
vn -6.9429255E-08 -0.6430914 0.7657894
vn -0.4050701 -0.7855844 0.4677343
vn -0.4050701 -0.7855844 0.4677343
vn -0.4050701 -0.7855844 0.4677343
vn -0.40506995 -0.78558433 -0.4677346
vn -0.40506995 -0.78558433 -0.4677346
vn -0.40506995 -0.78558433 -0.4677346
vn 0 -0.64309144 -0.7657894
vn 0 -0.64309144 -0.7657894
vn 0 -0.64309144 -0.7657894
vn 0.40506998 -0.7855843 -0.46773452
vn 0.40506998 -0.7855843 -0.46773452
vn 0.40506998 -0.7855843 -0.46773452
vn 0.40506995 -0.7855842 0.4677346
vn 0.40506995 -0.7855842 0.4677346
vn 0.40506995 -0.7855842 0.4677346
vn -1.0414388E-07 -0.6430914 0.7657894
vn -1.0414388E-07 -0.6430914 0.7657894
vn -1.0414388E-07 -0.6430914 0.7657894
vn -0.4050701 -0.7855845 0.46773422
vn -0.4050701 -0.7855845 0.46773422
vn -0.4050701 -0.7855845 0.46773422
vn 0 -0.87706137 0.48037818
vn 0 -0.87706137 0.48037818
vn 0 -0.87706137 0.48037818
vn 0.7612931 -0.60847056 -0.22404525
vn 0.7612931 -0.60847056 -0.22404525
vn 0.7612931 -0.60847056 -0.22404525
vn 0 -0.99696213 0.077888265
vn 0 -0.99696213 0.077888265
vn 0 -0.99696213 0.077888265
vn 0 -0.6813667 0.73194224
vn 0 -0.6813667 0.73194224
vn 0 -0.6813667 0.73194224
vn 0 -0.99696213 0.077888265
vn 0 -0.99696213 0.077888265
vn 0 -0.99696213 0.077888265
vn 0 -0.6813667 0.73194224
vn 0 -0.6813667 0.73194224
vn 0 -0.6813667 0.73194224
vn 0 -0.99696213 0.077888265
vn 0 -0.99696213 0.077888265
vn 0 -0.99696213 0.077888265
vn 0 -0.6813667 0.73194224
vn 0 -0.6813667 0.73194224
vn 0 -0.6813667 0.73194224
f 1//1 2//2 3//3
f 4//4 5//5 6//6
f 7//7 8//8 9//9
f 10//10 11//11 12//12
f 13//13 14//14 15//15
f 16//16 17//17 18//18
f 19//19 20//20 21//21
f 22//22 23//23 24//24
f 25//25 26//26 27//27
f 28//28 29//29 30//30
f 31//31 32//32 33//33
f 34//34 35//35 36//36
f 37//37 38//38 39//39
f 40//40 41//41 42//42
f 43//43 44//44 45//45
f 46//46 47//47 48//48
f 49//49 50//50 51//51
f 52//52 53//53 54//54
f 55//55 56//56 57//57
f 58//58 59//59 60//60
f 61//61 62//62 63//63
f 64//64 65//65 66//66
f 67//67 68//68 69//69
f 70//70 71//71 72//72
f 73//73 74//74 75//75
f 76//76 77//77 78//78
f 79//79 80//80 81//81
f 82//82 83//83 84//84
f 85//85 86//86 87//87
f 88//88 89//89 90//90
f 91//91 92//92 93//93
f 94//94 95//95 96//96
f 97//97 98//98 99//99
f 100//100 101//101 102//102
f 103//103 104//104 105//105
f 106//106 107//107 108//108
f 109//109 110//110 111//111
f 112//112 113//113 114//114
f 115//115 116//116 117//117
f 118//118 119//119 120//120
f 121//121 122//122 123//123
f 124//124 125//125 126//126
f 127//127 128//128 129//129
f 130//130 131//131 132//132
f 133//133 134//134 135//135
f 136//136 137//137 138//138
