# Exported from SharpOpenGl procedural mesh
o vesper_destroyer_mk3_42
# vertices 117
v -0.4849405 0.25945714 -4.5545273
v 0.4849405 0.25945714 -4.5545273
v 0 0.53374046 -3.7036586
v -0.4849405 0.25945714 -4.5545273
v 0 0.53374046 -3.7036586
v -0.68332523 0.25945714 -2.6637082
v 0.4849405 0.25945714 -4.5545273
v 0.68332523 0.25945714 -2.6637082
v 0 0.53374046 -3.7036586
v -0.4849405 0 -4.5545273
v -0.68332523 0 -2.6637082
v 0.4849405 0 -4.5545273
v 0.4849405 0 -4.5545273
v -0.68332523 0 -2.6637082
v 0.68332523 0 -2.6637082
v -0.68332523 0.25945714 -2.6637082
v 0.68332523 0.25945714 -2.6637082
v 0 0.53374046 -1.8128397
v -0.68332523 0.25945714 -2.6637082
v 0 0.53374046 -1.8128397
v -0.82855296 0.25945714 -0.7728894
v 0.68332523 0.25945714 -2.6637082
v 0.82855296 0.25945714 -0.7728894
v 0 0.53374046 -1.8128397
v -0.68332523 0 -2.6637082
v -0.82855296 0 -0.7728894
v 0.68332523 0 -2.6637082
v 0.68332523 0 -2.6637082
v -0.82855296 0 -0.7728894
v 0.82855296 0 -0.7728894
v -0.82855296 0.25945714 -0.7728894
v 0.82855296 0.25945714 -0.7728894
v 0 0.53374046 0.07797909
v -0.82855296 0.25945714 -0.7728894
v 0 0.53374046 0.07797909
v -0.88171 0.25945714 1.1179295
v 0.82855296 0.25945714 -0.7728894
v 0.88171 0.25945714 1.1179295
v 0 0.53374046 0.07797909
v -0.82855296 0 -0.7728894
v -0.88171 0 1.1179295
v 0.82855296 0 -0.7728894
v 0.82855296 0 -0.7728894
v -0.88171 0 1.1179295
v 0.88171 0 1.1179295
v -0.88171 0.25945714 1.1179295
v 0.88171 0.25945714 1.1179295
v 0 0.53374046 1.968798
v -0.88171 0.25945714 1.1179295
v 0 0.53374046 1.968798
v -0.82855296 0.25945714 3.0087485
v 0.88171 0.25945714 1.1179295
v 0.82855296 0.25945714 3.0087485
v 0 0.53374046 1.968798
v -0.88171 0 1.1179295
v -0.82855296 0 3.0087485
v 0.88171 0 1.1179295
v 0.88171 0 1.1179295
v -0.82855296 0 3.0087485
v 0.82855296 0 3.0087485
v -0.82855296 0.25945714 3.0087485
v 0.82855296 0.25945714 3.0087485
v 0 0.53374046 3.8596168
v -0.82855296 0.25945714 3.0087485
v 0 0.53374046 3.8596168
v -0.6327086 0.25945714 4.8995667
v 0.82855296 0.25945714 3.0087485
v 0.6327086 0.25945714 4.8995667
v 0 0.53374046 3.8596168
v -0.82855296 0 3.0087485
v -0.6327086 0 4.8995667
v 0.82855296 0 3.0087485
v 0.82855296 0 3.0087485
v -0.6327086 0 4.8995667
v 0.6327086 0 4.8995667
v -0.6327086 0.25945714 4.8995667
v 0.6327086 0.25945714 4.8995667
v 0 0.53374046 5.7504354
v -0.6327086 0.25945714 4.8995667
v 0 0.53374046 5.7504354
v -0 0.25945714 6.790386
v 0.6327086 0.25945714 4.8995667
v 0 0.25945714 6.790386
v 0 0.53374046 5.7504354
v -0.6327086 0 4.8995667
v -0 0 6.790386
v 0.6327086 0 4.8995667
v 0.6327086 0 4.8995667
v -0 0 6.790386
v 0 0 6.790386
v 0 0.57821876 -3.6091177
v -0.0705368 0.4596098 -3.714923
v 0.0705368 0.4596098 -3.714923
v 0 0.57821876 -1.7182989
v -0.0705368 0.4596098 -1.8241041
v 0.0705368 0.4596098 -1.8241041
v 0 0.57821876 0.17251968
v -0.0705368 0.4596098 0.06671449
v 0.0705368 0.4596098 0.06671449
v 0 0.57821876 2.0633388
v -0.0705368 0.4596098 1.9575336
v 0.0705368 0.4596098 1.9575336
v 0 0.57821876 3.9541578
v -0.0705368 0.4596098 3.8483527
v 0.0705368 0.4596098 3.8483527
v -0.37031817 0.20756571 -1.2421438
v 0.37031817 0.20756571 -1.2421438
v 0 0.31134856 -2.3186684
v -0.53206635 0.082367346 -4.4645166
v -0.76009476 0 -4.9661794
v -0.3040379 0 -4.9661794
v 0 0.082367346 -4.4645166
v -0.22802845 0 -4.9661794
v 0.22802845 0 -4.9661794
v 0.53206635 0.082367346 -4.4645166
v 0.3040379 0 -4.9661794
v 0.76009476 0 -4.9661794
vn 0 -0.9517708 0.30680978
vn 0 -0.9517708 0.30680978
vn 0 -0.9517708 0.30680978
vn 0.43057984 -0.90142125 0.045176435
vn 0.43057984 -0.90142125 0.045176435
vn 0.43057984 -0.90142125 0.045176435
vn -0.43057984 -0.90142125 0.045176435
vn -0.43057984 -0.90142125 0.045176435
vn -0.43057984 -0.90142125 0.045176435
vn 0 0.99999994 -0
vn 0 0.99999994 -0
vn 0 0.99999994 -0
vn 0 1 -0
vn 0 1 -0
vn 0 1 -0
vn 0 -0.95177084 0.3068099
vn 0 -0.95177084 0.3068099
vn 0 -0.95177084 0.3068099
vn 0.3438783 -0.9386426 0.02641219
vn 0.3438783 -0.9386426 0.02641219
vn 0.3438783 -0.9386426 0.02641219
vn -0.3438783 -0.9386426 0.02641219
vn -0.3438783 -0.9386426 0.02641219
vn -0.3438783 -0.9386426 0.02641219
vn 0 0.99999994 -0
vn 0 0.99999994 -0
vn 0 0.99999994 -0
vn 0 1 -0
vn 0 1 -0
vn 0 1 -0
vn 0 -0.95177084 0.30680987
vn 0 -0.95177084 0.30680987
vn 0 -0.95177084 0.30680987
vn 0.30627504 -0.95190406 0.008610382
vn 0.30627504 -0.95190406 0.008610382
vn 0.30627504 -0.95190406 0.008610382
vn -0.30627504 -0.95190406 0.008610382
vn -0.30627504 -0.95190406 0.008610382
vn -0.30627504 -0.95190406 0.008610382
vn 0 1 -0
vn 0 1 -0
vn 0 1 -0
vn 0 0.99999994 -0
vn 0 0.99999994 -0
vn 0 0.99999994 -0
vn 0 -0.95177084 0.30680984
vn 0 -0.95177084 0.30680984
vn 0 -0.95177084 0.30680984
vn 0.30455378 -0.95245665 -0.00856199
vn 0.30455378 -0.95245665 -0.00856199
vn 0.30455378 -0.95245665 -0.00856199
vn -0.30455378 -0.95245665 -0.00856199
vn -0.30455378 -0.95245665 -0.00856199
vn -0.30455378 -0.95245665 -0.00856199
vn 0 1 0
vn 0 1 0
vn 0 1 0
vn 0 0.99999994 0
vn 0 0.99999994 0
vn 0 0.99999994 0
vn 0 -0.9517708 0.30680996
vn 0 -0.9517708 0.30680996
vn 0 -0.9517708 0.30680996
vn 0.34714833 -0.93712074 -0.035956413
vn 0.34714833 -0.93712074 -0.035956413
vn 0.34714833 -0.93712074 -0.035956413
vn -0.34714833 -0.93712074 -0.035956413
vn -0.34714833 -0.93712074 -0.035956413
vn -0.34714833 -0.93712074 -0.035956413
vn 0 1 0
vn 0 1 0
vn 0 1 0
vn 0 1 0
vn 0 1 0
vn 0 1 0
vn 0 -0.9517709 0.3068098
vn 0 -0.9517709 0.3068098
vn 0 -0.9517709 0.3068098
vn 0.6061573 -0.7690462 -0.20283318
vn 0.6061573 -0.7690462 -0.20283318
vn 0.6061573 -0.7690462 -0.20283318
vn -0.6061573 -0.7690462 -0.20283318
vn -0.6061573 -0.7690462 -0.20283318
vn -0.6061573 -0.7690462 -0.20283318
vn 0 0.99999994 0
vn 0 0.99999994 0
vn 0 0.99999994 0
vn 0 1 0
vn 0 1 0
vn 0 1 0
vn 0 -0.6656807 0.7462367
vn 0 -0.6656807 0.7462367
vn 0 -0.6656807 0.7462367
vn 0 -0.6656807 0.7462367
vn 0 -0.6656807 0.7462367
vn 0 -0.6656807 0.7462367
vn 0 -0.6656808 0.74623656
vn 0 -0.6656808 0.74623656
vn 0 -0.6656808 0.74623656
vn 0 -0.6656807 0.7462367
vn 0 -0.6656807 0.7462367
vn 0 -0.6656807 0.7462367
vn 0 -0.6656807 0.7462367
vn 0 -0.6656807 0.7462367
vn 0 -0.6656807 0.7462367
vn -0 0.99538517 0.095960565
vn -0 0.99538517 0.095960565
vn -0 0.99538517 0.095960565
vn 0 -0.98678756 0.16201936
vn 0 -0.98678756 0.16201936
vn 0 -0.98678756 0.16201936
vn 0 -0.9867876 0.16201936
vn 0 -0.9867876 0.16201936
vn 0 -0.9867876 0.16201936
vn 0 -0.98678756 0.16201936
vn 0 -0.98678756 0.16201936
vn 0 -0.98678756 0.16201936
f 1//1 2//2 3//3
f 4//4 5//5 6//6
f 7//7 8//8 9//9
f 10//10 11//11 12//12
f 13//13 14//14 15//15
f 16//16 17//17 18//18
f 19//19 20//20 21//21
f 22//22 23//23 24//24
f 25//25 26//26 27//27
f 28//28 29//29 30//30
f 31//31 32//32 33//33
f 34//34 35//35 36//36
f 37//37 38//38 39//39
f 40//40 41//41 42//42
f 43//43 44//44 45//45
f 46//46 47//47 48//48
f 49//49 50//50 51//51
f 52//52 53//53 54//54
f 55//55 56//56 57//57
f 58//58 59//59 60//60
f 61//61 62//62 63//63
f 64//64 65//65 66//66
f 67//67 68//68 69//69
f 70//70 71//71 72//72
f 73//73 74//74 75//75
f 76//76 77//77 78//78
f 79//79 80//80 81//81
f 82//82 83//83 84//84
f 85//85 86//86 87//87
f 88//88 89//89 90//90
f 91//91 92//92 93//93
f 94//94 95//95 96//96
f 97//97 98//98 99//99
f 100//100 101//101 102//102
f 103//103 104//104 105//105
f 106//106 107//107 108//108
f 109//109 110//110 111//111
f 112//112 113//113 114//114
f 115//115 116//116 117//117
