# Exported from SharpOpenGl procedural mesh
o vesper_fighter_mk1_01
# vertices 117
v -0.19651575 0.09899193 -1.6451921
v 0.19651575 0.09899193 -1.6451921
v 0 0.20364055 -1.3378403
v -0.19651575 0.09899193 -1.6451921
v 0 0.20364055 -1.3378403
v -0.27690855 0.09899193 -0.9621881
v 0.19651575 0.09899193 -1.6451921
v 0.27690855 0.09899193 -0.9621881
v 0 0.20364055 -1.3378403
v -0.19651575 0 -1.6451921
v -0.27690855 0 -0.9621881
v 0.19651575 0 -1.6451921
v 0.19651575 0 -1.6451921
v -0.27690855 0 -0.9621881
v 0.27690855 0 -0.9621881
v -0.27690855 0.09899193 -0.9621881
v 0.27690855 0.09899193 -0.9621881
v 0 0.20364055 -0.6548363
v -0.27690855 0.09899193 -0.9621881
v 0 0.20364055 -0.6548363
v -0.33576018 0.09899193 -0.2791841
v 0.27690855 0.09899193 -0.9621881
v 0.33576018 0.09899193 -0.2791841
v 0 0.20364055 -0.6548363
v -0.27690855 0 -0.9621881
v -0.33576018 0 -0.2791841
v 0.27690855 0 -0.9621881
v 0.27690855 0 -0.9621881
v -0.33576018 0 -0.2791841
v 0.33576018 0 -0.2791841
v -0.33576018 0.09899193 -0.2791841
v 0.33576018 0.09899193 -0.2791841
v 0 0.20364055 0.028167635
v -0.33576018 0.09899193 -0.2791841
v 0 0.20364055 0.028167635
v -0.35730135 0.09899193 0.4038198
v 0.33576018 0.09899193 -0.2791841
v 0.35730135 0.09899193 0.4038198
v 0 0.20364055 0.028167635
v -0.33576018 0 -0.2791841
v -0.35730135 0 0.4038198
v 0.33576018 0 -0.2791841
v 0.33576018 0 -0.2791841
v -0.35730135 0 0.4038198
v 0.35730135 0 0.4038198
v -0.35730135 0.09899193 0.4038198
v 0.35730135 0.09899193 0.4038198
v 0 0.20364055 0.7111716
v -0.35730135 0.09899193 0.4038198
v 0 0.20364055 0.7111716
v -0.33576018 0.09899193 1.0868239
v 0.35730135 0.09899193 0.4038198
v 0.33576018 0.09899193 1.0868239
v 0 0.20364055 0.7111716
v -0.35730135 0 0.4038198
v -0.33576018 0 1.0868239
v 0.35730135 0 0.4038198
v 0.35730135 0 0.4038198
v -0.33576018 0 1.0868239
v 0.33576018 0 1.0868239
v -0.33576018 0.09899193 1.0868239
v 0.33576018 0.09899193 1.0868239
v 0 0.20364055 1.3941755
v -0.33576018 0.09899193 1.0868239
v 0 0.20364055 1.3941755
v -0.25639683 0.09899193 1.7698276
v 0.33576018 0.09899193 1.0868239
v 0.25639683 0.09899193 1.7698276
v 0 0.20364055 1.3941755
v -0.33576018 0 1.0868239
v -0.25639683 0 1.7698276
v 0.33576018 0 1.0868239
v 0.33576018 0 1.0868239
v -0.25639683 0 1.7698276
v 0.25639683 0 1.7698276
v -0.25639683 0.09899193 1.7698276
v 0.25639683 0.09899193 1.7698276
v 0 0.20364055 2.0771794
v -0.25639683 0.09899193 1.7698276
v 0 0.20364055 2.0771794
v -0 0.09899193 2.4528317
v 0.25639683 0.09899193 1.7698276
v 0 0.09899193 2.4528317
v 0 0.20364055 2.0771794
v -0.25639683 0 1.7698276
v -0 0 2.4528317
v 0.25639683 0 1.7698276
v 0.25639683 0 1.7698276
v -0 0 2.4528317
v 0 0 2.4528317
v 0 0.22061057 -1.3036902
v -0.028584108 0.17535713 -1.3465663
v 0.028584108 0.17535713 -1.3465663
v 0 0.22061057 -0.6206862
v -0.028584108 0.17535713 -0.66356236
v 0.028584108 0.17535713 -0.66356236
v 0 0.22061057 0.06231773
v -0.028584108 0.17535713 0.019441567
v 0.028584108 0.17535713 0.019441567
v 0 0.22061057 0.74532175
v -0.028584108 0.17535713 0.70244557
v 0.028584108 0.17535713 0.70244557
v 0 0.22061057 1.4283257
v -0.028584108 0.17535713 1.3854495
v 0.028584108 0.17535713 1.3854495
v -0.15006657 0.07919354 -0.44868878
v 0.15006657 0.07919354 -0.44868878
v 0 0.11879031 -0.83755237
v -0.21561289 0.03142601 -1.6126784
v -0.27844864 0 -1.7509171
v -0.15277714 0 -1.7509171
v 0 0.03142601 -1.6126784
v -0.06283575 0 -1.7509171
v 0.06283575 0 -1.7509171
v 0.21561289 0.03142601 -1.6126784
v 0.15277714 0 -1.7509171
v 0.27844864 0 -1.7509171
vn 0 -0.94663286 0.32231405
vn 0 -0.94663286 0.32231405
vn 0 -0.94663286 0.32231405
vn 0.40968215 -0.9109529 0.048221517
vn 0.40968215 -0.9109529 0.048221517
vn 0.40968215 -0.9109529 0.048221517
vn -0.40968215 -0.9109529 0.048221517
vn -0.40968215 -0.9109529 0.048221517
vn -0.40968215 -0.9109529 0.048221517
vn 0 1 -0
vn 0 1 -0
vn 0 1 -0
vn 0 1 -0
vn 0 1 -0
vn 0 1 -0
vn 0 -0.9466328 0.32231405
vn 0 -0.9466328 0.32231405
vn 0 -0.9466328 0.32231405
vn 0.32594773 -0.94497055 0.028085565
vn 0.32594773 -0.94497055 0.028085565
vn 0.32594773 -0.94497055 0.028085565
vn -0.32594773 -0.94497055 0.028085565
vn -0.32594773 -0.94497055 0.028085565
vn -0.32594773 -0.94497055 0.028085565
vn 0 1 -0
vn 0 1 -0
vn 0 1 -0
vn 0 1 -0
vn 0 1 -0
vn 0 1 -0
vn 0 -0.9466328 0.32231414
vn 0 -0.9466328 0.32231414
vn 0 -0.9466328 0.32231414
vn 0.2899082 -0.9570108 0.0091433795
vn 0.2899082 -0.9570108 0.0091433795
vn 0.2899082 -0.9570108 0.0091433795
vn -0.2899082 -0.9570108 0.0091433795
vn -0.2899082 -0.9570108 0.0091433795
vn -0.2899082 -0.9570108 0.0091433795
vn 0 1 -0
vn 0 1 -0
vn 0 1 -0
vn 0 1 -0
vn 0 1 -0
vn 0 1 -0
vn 0 -0.9466328 0.32231405
vn 0 -0.9466328 0.32231405
vn 0 -0.9466328 0.32231405
vn 0.2882615 -0.9575086 -0.009091442
vn 0.2882615 -0.9575086 -0.009091442
vn 0.2882615 -0.9575086 -0.009091442
vn -0.2882615 -0.9575086 -0.009091442
vn -0.2882615 -0.9575086 -0.009091442
vn -0.2882615 -0.9575086 -0.009091442
vn 0 0.99999994 0
vn 0 0.99999994 0
vn 0 0.99999994 0
vn 0 1 0
vn 0 1 0
vn 0 1 0
vn 0 -0.9466327 0.32231423
vn 0 -0.9466327 0.32231423
vn 0 -0.9466327 0.32231423
vn 0.32907853 -0.94352806 -0.038238112
vn 0.32907853 -0.94352806 -0.038238112
vn 0.32907853 -0.94352806 -0.038238112
vn -0.32907853 -0.94352806 -0.038238112
vn -0.32907853 -0.94352806 -0.038238112
vn -0.32907853 -0.94352806 -0.038238112
vn 0 0.99999994 0
vn 0 0.99999994 0
vn 0 0.99999994 0
vn 0 1 0
vn 0 1 0
vn 0 1 0
vn 0 -0.9466328 0.32231408
vn 0 -0.9466328 0.32231408
vn 0 -0.9466328 0.32231408
vn 0.5815538 -0.78366745 -0.21831281
vn 0.5815538 -0.78366745 -0.21831281
vn 0.5815538 -0.78366745 -0.21831281
vn -0.5815538 -0.78366745 -0.21831281
vn -0.5815538 -0.78366745 -0.21831281
vn -0.5815538 -0.78366745 -0.21831281
vn 0 1 0
vn 0 1 0
vn 0 1 0
vn 0 1 0
vn 0 1 0
vn 0 1 0
vn 0 -0.6877822 0.72591704
vn 0 -0.6877822 0.72591704
vn 0 -0.6877822 0.72591704
vn 0 -0.6877827 0.72591656
vn 0 -0.6877827 0.72591656
vn 0 -0.6877827 0.72591656
vn 0 -0.6877826 0.7259168
vn 0 -0.6877826 0.7259168
vn 0 -0.6877826 0.7259168
vn 0 -0.6877827 0.72591656
vn 0 -0.6877827 0.72591656
vn 0 -0.6877827 0.72591656
vn 0 -0.6877822 0.72591704
vn 0 -0.6877822 0.72591704
vn 0 -0.6877822 0.72591704
vn -0 0.99485564 0.10130306
vn -0 0.99485564 0.10130306
vn -0 0.99485564 0.10130306
vn 0 -0.9751205 0.22167563
vn 0 -0.9751205 0.22167563
vn 0 -0.9751205 0.22167563
vn 0 -0.9751205 0.22167563
vn 0 -0.9751205 0.22167563
vn 0 -0.9751205 0.22167563
vn 0 -0.9751205 0.22167563
vn 0 -0.9751205 0.22167563
vn 0 -0.9751205 0.22167563
f 1//1 2//2 3//3
f 4//4 5//5 6//6
f 7//7 8//8 9//9
f 10//10 11//11 12//12
f 13//13 14//14 15//15
f 16//16 17//17 18//18
f 19//19 20//20 21//21
f 22//22 23//23 24//24
f 25//25 26//26 27//27
f 28//28 29//29 30//30
f 31//31 32//32 33//33
f 34//34 35//35 36//36
f 37//37 38//38 39//39
f 40//40 41//41 42//42
f 43//43 44//44 45//45
f 46//46 47//47 48//48
f 49//49 50//50 51//51
f 52//52 53//53 54//54
f 55//55 56//56 57//57
f 58//58 59//59 60//60
f 61//61 62//62 63//63
f 64//64 65//65 66//66
f 67//67 68//68 69//69
f 70//70 71//71 72//72
f 73//73 74//74 75//75
f 76//76 77//77 78//78
f 79//79 80//80 81//81
f 82//82 83//83 84//84
f 85//85 86//86 87//87
f 88//88 89//89 90//90
f 91//91 92//92 93//93
f 94//94 95//95 96//96
f 97//97 98//98 99//99
f 100//100 101//101 102//102
f 103//103 104//104 105//105
f 106//106 107//107 108//108
f 109//109 110//110 111//111
f 112//112 113//113 114//114
f 115//115 116//116 117//117
