# Exported from SharpOpenGl procedural mesh
o vesper_interceptor_mk2_19
# vertices 225
v -0.14491701 0.08669339 -1.5093236
v 0.14491701 0.08669339 -1.5093236
v 0 0.1783407 -1.1851621
v -0.14491701 0.08669339 -1.5093236
v 0 0.1783407 -1.1851621
v -0.21737552 0.08669339 -0.78896457
v 0.14491701 0.08669339 -1.5093236
v 0.21737552 0.08669339 -0.78896457
v 0 0.1783407 -1.1851621
v -0.14491701 0 -1.5093236
v -0.21737552 0 -0.78896457
v 0.14491701 0 -1.5093236
v 0.14491701 0 -1.5093236
v -0.21737552 0 -0.78896457
v 0.21737552 0 -0.78896457
v -0.14491701 0 -1.5093236
v -0.14491701 0.08669339 -1.5093236
v -0.21737552 0.08669339 -0.78896457
v -0.14491701 0 -1.5093236
v -0.21737552 0.08669339 -0.78896457
v -0.21737552 0 -0.78896457
v 0.14491701 0 -1.5093236
v 0.21737552 0.08669339 -0.78896457
v 0.14491701 0.08669339 -1.5093236
v 0.14491701 0 -1.5093236
v 0.21737552 0 -0.78896457
v 0.21737552 0.08669339 -0.78896457
v -0.21737552 0.08669339 -0.78896457
v 0.21737552 0.08669339 -0.78896457
v 0 0.1783407 -0.464803
v -0.21737552 0.08669339 -0.78896457
v 0 0.1783407 -0.464803
v -0.27041885 0.08669339 -0.06860554
v 0.21737552 0.08669339 -0.78896457
v 0.27041885 0.08669339 -0.06860554
v 0 0.1783407 -0.464803
v -0.21737552 0 -0.78896457
v -0.27041885 0 -0.06860554
v 0.21737552 0 -0.78896457
v 0.21737552 0 -0.78896457
v -0.27041885 0 -0.06860554
v 0.27041885 0 -0.06860554
v -0.21737552 0 -0.78896457
v -0.21737552 0.08669339 -0.78896457
v -0.27041885 0.08669339 -0.06860554
v -0.21737552 0 -0.78896457
v -0.27041885 0.08669339 -0.06860554
v -0.27041885 0 -0.06860554
v 0.21737552 0 -0.78896457
v 0.27041885 0.08669339 -0.06860554
v 0.21737552 0.08669339 -0.78896457
v 0.21737552 0 -0.78896457
v 0.27041885 0 -0.06860554
v 0.27041885 0.08669339 -0.06860554
v -0.27041885 0.08669339 -0.06860554
v 0.27041885 0.08669339 -0.06860554
v 0 0.1783407 0.255556
v -0.27041885 0.08669339 -0.06860554
v 0 0.1783407 0.255556
v -0.28983402 0.08669339 0.6517534
v 0.27041885 0.08669339 -0.06860554
v 0.28983402 0.08669339 0.6517534
v 0 0.1783407 0.255556
v -0.27041885 0 -0.06860554
v -0.28983402 0 0.6517534
v 0.27041885 0 -0.06860554
v 0.27041885 0 -0.06860554
v -0.28983402 0 0.6517534
v 0.28983402 0 0.6517534
v -0.27041885 0 -0.06860554
v -0.27041885 0.08669339 -0.06860554
v -0.28983402 0.08669339 0.6517534
v -0.27041885 0 -0.06860554
v -0.28983402 0.08669339 0.6517534
v -0.28983402 0 0.6517534
v 0.27041885 0 -0.06860554
v 0.28983402 0.08669339 0.6517534
v 0.27041885 0.08669339 -0.06860554
v 0.27041885 0 -0.06860554
v 0.28983402 0 0.6517534
v 0.28983402 0.08669339 0.6517534
v -0.28983402 0.08669339 0.6517534
v 0.28983402 0.08669339 0.6517534
v 0 0.1783407 0.975915
v -0.28983402 0.08669339 0.6517534
v 0 0.1783407 0.975915
v -0.27041882 0.08669339 1.3721125
v 0.28983402 0.08669339 0.6517534
v 0.27041882 0.08669339 1.3721125
v 0 0.1783407 0.975915
v -0.28983402 0 0.6517534
v -0.27041882 0 1.3721125
v 0.28983402 0 0.6517534
v 0.28983402 0 0.6517534
v -0.27041882 0 1.3721125
v 0.27041882 0 1.3721125
v -0.28983402 0 0.6517534
v -0.28983402 0.08669339 0.6517534
v -0.27041882 0.08669339 1.3721125
v -0.28983402 0 0.6517534
v -0.27041882 0.08669339 1.3721125
v -0.27041882 0 1.3721125
v 0.28983402 0 0.6517534
v 0.27041882 0.08669339 1.3721125
v 0.28983402 0.08669339 0.6517534
v 0.28983402 0 0.6517534
v 0.27041882 0 1.3721125
v 0.27041882 0.08669339 1.3721125
v -0.27041882 0.08669339 1.3721125
v 0.27041882 0.08669339 1.3721125
v 0 0.1783407 1.696274
v -0.27041882 0.08669339 1.3721125
v 0 0.1783407 1.696274
v -0.21737555 0.08669339 2.0924714
v 0.27041882 0.08669339 1.3721125
v 0.21737555 0.08669339 2.0924714
v 0 0.1783407 1.696274
v -0.27041882 0 1.3721125
v -0.21737555 0 2.0924714
v 0.27041882 0 1.3721125
v 0.27041882 0 1.3721125
v -0.21737555 0 2.0924714
v 0.21737555 0 2.0924714
v -0.27041882 0 1.3721125
v -0.27041882 0.08669339 1.3721125
v -0.21737555 0.08669339 2.0924714
v -0.27041882 0 1.3721125
v -0.21737555 0.08669339 2.0924714
v -0.21737555 0 2.0924714
v 0.27041882 0 1.3721125
v 0.21737555 0.08669339 2.0924714
v 0.27041882 0.08669339 1.3721125
v 0.27041882 0 1.3721125
v 0.21737555 0 2.0924714
v 0.21737555 0.08669339 2.0924714
v -0.21737555 0.08669339 2.0924714
v 0.21737555 0.08669339 2.0924714
v 0 0.1783407 2.416633
v -0.21737555 0.08669339 2.0924714
v 0 0.1783407 2.416633
v -0 0.08669339 2.8128304
v 0.21737555 0.08669339 2.0924714
v 0 0.08669339 2.8128304
v 0 0.1783407 2.416633
v -0.21737555 0 2.0924714
v -0 0 2.8128304
v 0.21737555 0 2.0924714
v 0.21737555 0 2.0924714
v -0 0 2.8128304
v 0 0 2.8128304
v -0.21737555 0 2.0924714
v -0.21737555 0.08669339 2.0924714
v -0 0.08669339 2.8128304
v -0.21737555 0 2.0924714
v -0 0.08669339 2.8128304
v -0 0 2.8128304
v 0.21737555 0 2.0924714
v 0 0.08669339 2.8128304
v 0.21737555 0.08669339 2.0924714
v 0.21737555 0 2.0924714
v 0 0 2.8128304
v 0 0.08669339 2.8128304
v -0.10566866 0 2.8128304
v 0.10566866 0 2.8128304
v 0 0.1515896 2.9500418
v -0.10566866 0 -1.5093236
v 0 0.05201604 -1.612232
v 0.10566866 0 -1.5093236
v 0 0.1932024 -1.149144
v -0.030191047 0.15357114 -1.1914115
v 0.030191047 0.15357114 -1.1914115
v 0 0.1932024 -0.4287851
v -0.030191047 0.15357114 -0.47105256
v 0.030191047 0.15357114 -0.47105256
v 0 0.1932024 0.29157388
v -0.030191047 0.15357114 0.24930641
v 0.030191047 0.15357114 0.24930641
v 0 0.1932024 1.0119328
v -0.030191047 0.15357114 0.9696654
v 0.030191047 0.15357114 0.9696654
v 0 0.1932024 1.7322919
v -0.030191047 0.15357114 1.6900245
v 0.030191047 0.15357114 1.6900245
v -0.12680238 0.06935471 -0.7313358
v 0.12680238 0.06935471 -0.7313358
v 0 0.11889379 -1.1635513
v -0.14574988 0.02677788 -0.4365812
v -0.20196769 0 -0.46750098
v -0.08953208 0 -0.46750098
v 0.14574988 0.02677788 -0.4365812
v 0.08953208 0 -0.46750098
v 0.20196769 0 -0.46750098
v -0.0986918 0.016736176 -0.34776807
v 0.0986918 0.016736176 -0.34776807
v 0 0.07363917 -0.25421494
v -0.11014358 0.016736176 0.08182788
v 0.11014358 0.016736176 0.08182788
v 0 0.07363917 0.17538099
v -0.11451776 0.016736176 0.51142377
v 0.11451776 0.016736176 0.51142377
v 0 0.07363917 0.6049769
v -0.11014358 0.016736176 0.9410196
v 0.11014358 0.016736176 0.9410196
v 0 0.07363917 1.0345727
v -0.0986918 0.016736176 1.3706155
v 0.0986918 0.016736176 1.3706155
v 0 0.07363917 1.4641685
v 0 0.18409793 -0.03409486
v -0.03643747 0.14058387 -0.17442453
v 0.03643747 0.14058387 -0.17442453
v 0 0.18409793 0.3409492
v -0.03643747 0.14058387 0.20061953
v 0.03643747 0.14058387 0.20061953
v 0 0.18409793 0.7159932
v -0.03643747 0.14058387 0.57566357
v 0.03643747 0.14058387 0.57566357
v 0 0.18409793 1.0910374
v -0.03643747 0.14058387 0.95070773
v 0.03643747 0.14058387 0.95070773
v 0 0.18409793 1.4660814
v -0.03643747 0.14058387 1.3257517
v 0.03643747 0.14058387 1.3257517
v -0.07287494 0 -1.1120346
v 0.07287494 0 -1.1120346
v 0 0.016736176 -1.2523643
vn 0 -0.9622811 0.27205718
vn 0 -0.9622811 0.27205718
vn 0 -0.9622811 0.27205718
vn 0.45824373 -0.88763064 0.046093203
vn 0.45824373 -0.88763064 0.046093203
vn 0.45824373 -0.88763064 0.046093203
vn -0.45824373 -0.88763064 0.046093203
vn -0.45824373 -0.88763064 0.046093203
vn -0.45824373 -0.88763064 0.046093203
vn 0 1 -0
vn 0 1 -0
vn 0 1 -0
vn 0 1 -0
vn 0 1 -0
vn 0 1 -0
vn 0.99497914 -0 0.10008162
vn 0.99497914 -0 0.10008162
vn 0.99497914 -0 0.10008162
vn 0.99497914 0 0.10008162
vn 0.99497914 0 0.10008162
vn 0.99497914 0 0.10008162
vn -0.99497914 0 0.10008162
vn -0.99497914 0 0.10008162
vn -0.99497914 0 0.10008162
vn -0.99497914 0 0.10008162
vn -0.99497914 0 0.10008162
vn -0.99497914 0 0.10008162
vn 0 -0.9622811 0.27205715
vn 0 -0.9622811 0.27205715
vn 0 -0.9622811 0.27205715
vn 0.35500902 -0.93449724 0.02614094
vn 0.35500902 -0.93449724 0.02614094
vn 0.35500902 -0.93449724 0.02614094
vn -0.35500902 -0.93449724 0.02614094
vn -0.35500902 -0.93449724 0.02614094
vn -0.35500902 -0.93449724 0.02614094
vn 0 1 -0
vn 0 1 -0
vn 0 1 -0
vn 0 1 -0
vn 0 1 -0
vn 0 1 -0
vn 0.99729985 -0 0.07343576
vn 0.99729985 -0 0.07343576
vn 0.99729985 -0 0.07343576
vn 0.99729985 0 0.07343576
vn 0.99729985 0 0.07343576
vn 0.99729985 0 0.07343576
vn -0.99729985 0 0.07343576
vn -0.99729985 0 0.07343576
vn -0.99729985 0 0.07343576
vn -0.99729985 0 0.07343576
vn -0.99729985 0 0.07343576
vn -0.99729985 0 0.07343576
vn 0 -0.9622811 0.2720572
vn 0 -0.9622811 0.2720572
vn 0 -0.9622811 0.2720572
vn 0.31191105 -0.95007414 0.00840665
vn 0.31191105 -0.95007414 0.00840665
vn 0.31191105 -0.95007414 0.00840665
vn -0.31191105 -0.95007414 0.00840665
vn -0.31191105 -0.95007414 0.00840665
vn -0.31191105 -0.95007414 0.00840665
vn 0 1 -0
vn 0 1 -0
vn 0 1 -0
vn 0 1 -0
vn 0 1 -0
vn 0 1 -0
vn 0.99963695 -0 0.026942292
vn 0.99963695 -0 0.026942292
vn 0.99963695 -0 0.026942292
vn 0.99963695 0 0.026942292
vn 0.99963695 0 0.026942292
vn 0.99963695 0 0.026942292
vn -0.99963695 0 0.026942292
vn -0.99963695 0 0.026942292
vn -0.99963695 0 0.026942292
vn -0.99963695 0 0.026942292
vn -0.99963695 0 0.026942292
vn -0.99963695 0 0.026942292
vn 0 -0.96228105 0.27205712
vn 0 -0.96228105 0.27205712
vn 0 -0.96228105 0.27205712
vn 0.3099645 -0.95071137 -0.008354199
vn 0.3099645 -0.95071137 -0.008354199
vn 0.3099645 -0.95071137 -0.008354199
vn -0.3099645 -0.95071137 -0.008354199
vn -0.3099645 -0.95071137 -0.008354199
vn -0.3099645 -0.95071137 -0.008354199
vn 0 1 0
vn 0 1 0
vn 0 1 0
vn 0 1 0
vn 0 1 0
vn 0 1 0
vn 0.999637 0 -0.026942331
vn 0.999637 0 -0.026942331
vn 0.999637 0 -0.026942331
vn 0.999637 0 -0.026942331
vn 0.999637 0 -0.026942331
vn 0.999637 0 -0.026942331
vn -0.999637 0 -0.026942331
vn -0.999637 0 -0.026942331
vn -0.999637 0 -0.026942331
vn -0.999637 0 -0.026942331
vn -0.999637 0 -0.026942331
vn -0.999637 0 -0.026942331
vn 0 -0.9622811 0.2720572
vn 0 -0.9622811 0.2720572
vn 0 -0.9622811 0.2720572
vn 0.3483119 -0.93702775 -0.02564778
vn 0.3483119 -0.93702775 -0.02564778
vn 0.3483119 -0.93702775 -0.02564778
vn -0.3483119 -0.93702775 -0.02564778
vn -0.3483119 -0.93702775 -0.02564778
vn -0.3483119 -0.93702775 -0.02564778
vn 0 0.99999994 0
vn 0 0.99999994 0
vn 0 0.99999994 0
vn 0 1 0
vn 0 1 0
vn 0 1 0
vn 0.99729985 0 -0.073435694
vn 0.99729985 0 -0.073435694
vn 0.99729985 0 -0.073435694
vn 0.99729985 0 -0.073435694
vn 0.99729985 0 -0.073435694
vn 0.99729985 0 -0.073435694
vn -0.99729985 0 -0.073435694
vn -0.99729985 0 -0.073435694
vn -0.99729985 0 -0.073435694
vn -0.99729985 0 -0.073435694
vn -0.99729985 0 -0.073435694
vn -0.99729985 0 -0.073435694
vn 0 -0.9622811 0.27205718
vn 0 -0.9622811 0.27205718
vn 0 -0.9622811 0.27205718
vn 0.5983783 -0.7806018 -0.18056662
vn 0.5983783 -0.7806018 -0.18056662
vn 0.5983783 -0.7806018 -0.18056662
vn -0.5983783 -0.7806018 -0.18056662
vn -0.5983783 -0.7806018 -0.18056662
vn -0.5983783 -0.7806018 -0.18056662
vn 0 1 0
vn 0 1 0
vn 0 1 0
vn 0 1 0
vn 0 1 0
vn 0 1 0
vn 0.9573613 0 -0.28889334
vn 0.9573613 0 -0.28889334
vn 0.9573613 0 -0.28889334
vn 0.9573613 0 -0.28889334
vn 0.9573613 0 -0.28889334
vn 0.9573613 0 -0.28889334
vn -0.9573613 0 -0.28889334
vn -0.9573613 0 -0.28889334
vn -0.9573613 0 -0.28889334
vn -0.9573613 0 -0.28889334
vn -0.9573613 0 -0.28889334
vn -0.9573613 0 -0.28889334
vn 0 -0.6710715 0.7413927
vn 0 -0.6710715 0.7413927
vn 0 -0.6710715 0.7413927
vn 0 -0.8924696 -0.45110744
vn 0 -0.8924696 -0.45110744
vn 0 -0.8924696 -0.45110744
vn 0 -0.72948956 0.683992
vn 0 -0.72948956 0.683992
vn 0 -0.72948956 0.683992
vn 0 -0.7294898 0.68399173
vn 0 -0.7294898 0.68399173
vn 0 -0.7294898 0.68399173
vn 0 -0.7294898 0.68399173
vn 0 -0.7294898 0.68399173
vn 0 -0.7294898 0.68399173
vn 0 -0.72948956 0.683992
vn 0 -0.72948956 0.683992
vn 0 -0.72948956 0.683992
vn 0 -0.72948956 0.683992
vn 0 -0.72948956 0.683992
vn 0 -0.72948956 0.683992
vn -0 0.9934955 0.11387109
vn -0 0.9934955 0.11387109
vn -0 0.9934955 0.11387109
vn 0 -0.7559222 0.6546615
vn 0 -0.7559222 0.6546615
vn 0 -0.7559222 0.6546615
vn 0 -0.7559222 0.6546615
vn 0 -0.7559222 0.6546615
vn 0 -0.7559222 0.6546615
vn 0 -0.8543705 0.5196645
vn 0 -0.8543705 0.5196645
vn 0 -0.8543705 0.5196645
vn 0 -0.8543704 0.51966447
vn 0 -0.8543704 0.51966447
vn 0 -0.8543704 0.51966447
vn 0 -0.8543704 0.51966447
vn 0 -0.8543704 0.51966447
vn 0 -0.8543704 0.51966447
vn 0 -0.8543704 0.51966447
vn 0 -0.8543704 0.51966447
vn 0 -0.8543704 0.51966447
vn 0 -0.8543703 0.5196647
vn 0 -0.8543703 0.5196647
vn 0 -0.8543703 0.5196647
vn 0 -0.9551346 0.2961724
vn 0 -0.9551346 0.2961724
vn 0 -0.9551346 0.2961724
vn 0 -0.9551346 0.2961724
vn 0 -0.9551346 0.2961724
vn 0 -0.9551346 0.2961724
vn 0 -0.9551345 0.29617244
vn 0 -0.9551345 0.29617244
vn 0 -0.9551345 0.29617244
vn 0 -0.9551345 0.29617244
vn 0 -0.9551345 0.29617244
vn 0 -0.9551345 0.29617244
vn 0 -0.9551345 0.29617232
vn 0 -0.9551345 0.29617232
vn 0 -0.9551345 0.29617232
vn -0 0.99296314 0.118424
vn -0 0.99296314 0.118424
vn -0 0.99296314 0.118424
f 1//1 2//2 3//3
f 4//4 5//5 6//6
f 7//7 8//8 9//9
f 10//10 11//11 12//12
f 13//13 14//14 15//15
f 16//16 17//17 18//18
f 19//19 20//20 21//21
f 22//22 23//23 24//24
f 25//25 26//26 27//27
f 28//28 29//29 30//30
f 31//31 32//32 33//33
f 34//34 35//35 36//36
f 37//37 38//38 39//39
f 40//40 41//41 42//42
f 43//43 44//44 45//45
f 46//46 47//47 48//48
f 49//49 50//50 51//51
f 52//52 53//53 54//54
f 55//55 56//56 57//57
f 58//58 59//59 60//60
f 61//61 62//62 63//63
f 64//64 65//65 66//66
f 67//67 68//68 69//69
f 70//70 71//71 72//72
f 73//73 74//74 75//75
f 76//76 77//77 78//78
f 79//79 80//80 81//81
f 82//82 83//83 84//84
f 85//85 86//86 87//87
f 88//88 89//89 90//90
f 91//91 92//92 93//93
f 94//94 95//95 96//96
f 97//97 98//98 99//99
f 100//100 101//101 102//102
f 103//103 104//104 105//105
f 106//106 107//107 108//108
f 109//109 110//110 111//111
f 112//112 113//113 114//114
f 115//115 116//116 117//117
f 118//118 119//119 120//120
f 121//121 122//122 123//123
f 124//124 125//125 126//126
f 127//127 128//128 129//129
f 130//130 131//131 132//132
f 133//133 134//134 135//135
f 136//136 137//137 138//138
f 139//139 140//140 141//141
f 142//142 143//143 144//144
f 145//145 146//146 147//147
f 148//148 149//149 150//150
f 151//151 152//152 153//153
f 154//154 155//155 156//156
f 157//157 158//158 159//159
f 160//160 161//161 162//162
f 163//163 164//164 165//165
f 166//166 167//167 168//168
f 169//169 170//170 171//171
f 172//172 173//173 174//174
f 175//175 176//176 177//177
f 178//178 179//179 180//180
f 181//181 182//182 183//183
f 184//184 185//185 186//186
f 187//187 188//188 189//189
f 190//190 191//191 192//192
f 193//193 194//194 195//195
f 196//196 197//197 198//198
f 199//199 200//200 201//201
f 202//202 203//203 204//204
f 205//205 206//206 207//207
f 208//208 209//209 210//210
f 211//211 212//212 213//213
f 214//214 215//215 216//216
f 217//217 218//218 219//219
f 220//220 221//221 222//222
f 223//223 224//224 225//225
