# Exported from SharpOpenGl procedural mesh
o vesper_drone_elite_53
# vertices 117
v -0.16413534 0.059596468 -0.8742978
v 0.16413534 0.059596468 -0.8742978
v 0 0.122598454 -0.7109631
v -0.16413534 0.059596468 -0.8742978
v 0 0.122598454 -0.7109631
v -0.2312816 0.059596468 -0.51133174
v 0.16413534 0.059596468 -0.8742978
v 0.2312816 0.059596468 -0.51133174
v 0 0.122598454 -0.7109631
v -0.16413534 0 -0.8742978
v -0.2312816 0 -0.51133174
v 0.16413534 0 -0.8742978
v 0.16413534 0 -0.8742978
v -0.2312816 0 -0.51133174
v 0.2312816 0 -0.51133174
v -0.2312816 0.059596468 -0.51133174
v 0.2312816 0.059596468 -0.51133174
v 0 0.122598454 -0.347997
v -0.2312816 0.059596468 -0.51133174
v 0 0.122598454 -0.347997
v -0.2804361 0.059596468 -0.14836568
v 0.2312816 0.059596468 -0.51133174
v 0.2804361 0.059596468 -0.14836568
v 0 0.122598454 -0.347997
v -0.2312816 0 -0.51133174
v -0.2804361 0 -0.14836568
v 0.2312816 0 -0.51133174
v 0.2312816 0 -0.51133174
v -0.2804361 0 -0.14836568
v 0.2804361 0 -0.14836568
v -0.2804361 0.059596468 -0.14836568
v 0.2804361 0.059596468 -0.14836568
v 0 0.122598454 0.014969051
v -0.2804361 0.059596468 -0.14836568
v 0 0.122598454 0.014969051
v -0.29842788 0.059596468 0.21460038
v 0.2804361 0.059596468 -0.14836568
v 0.29842788 0.059596468 0.21460038
v 0 0.122598454 0.014969051
v -0.2804361 0 -0.14836568
v -0.29842788 0 0.21460038
v 0.2804361 0 -0.14836568
v 0.2804361 0 -0.14836568
v -0.29842788 0 0.21460038
v 0.29842788 0 0.21460038
v -0.29842788 0.059596468 0.21460038
v 0.29842788 0.059596468 0.21460038
v 0 0.122598454 0.3779351
v -0.29842788 0.059596468 0.21460038
v 0 0.122598454 0.3779351
v -0.2804361 0.059596468 0.57756644
v 0.29842788 0.059596468 0.21460038
v 0.2804361 0.059596468 0.57756644
v 0 0.122598454 0.3779351
v -0.29842788 0 0.21460038
v -0.2804361 0 0.57756644
v 0.29842788 0 0.21460038
v 0.29842788 0 0.21460038
v -0.2804361 0 0.57756644
v 0.2804361 0 0.57756644
v -0.2804361 0.059596468 0.57756644
v 0.2804361 0.059596468 0.57756644
v 0 0.122598454 0.7409012
v -0.2804361 0.059596468 0.57756644
v 0 0.122598454 0.7409012
v -0.21414967 0.059596468 0.9405325
v 0.2804361 0.059596468 0.57756644
v 0.21414967 0.059596468 0.9405325
v 0 0.122598454 0.7409012
v -0.2804361 0 0.57756644
v -0.21414967 0 0.9405325
v 0.2804361 0 0.57756644
v 0.2804361 0 0.57756644
v -0.21414967 0 0.9405325
v 0.21414967 0 0.9405325
v -0.21414967 0.059596468 0.9405325
v 0.21414967 0.059596468 0.9405325
v 0 0.122598454 1.1038672
v -0.21414967 0.059596468 0.9405325
v 0 0.122598454 1.1038672
v -0 0.059596468 1.3034985
v 0.21414967 0.059596468 0.9405325
v 0 0.059596468 1.3034985
v 0 0.122598454 1.1038672
v -0.21414967 0 0.9405325
v -0 0 1.3034985
v 0.21414967 0 0.9405325
v 0.21414967 0 0.9405325
v -0 0 1.3034985
v 0 0 1.3034985
v 0 0.13281499 -0.69281477
v -0.02387423 0.10557089 -0.72862613
v 0.02387423 0.10557089 -0.72862613
v 0 0.13281499 -0.3298487
v -0.02387423 0.10557089 -0.36566004
v 0.02387423 0.10557089 -0.36566004
v 0 0.13281499 0.033117354
v -0.02387423 0.10557089 -0.002693992
v 0.02387423 0.10557089 -0.002693992
v 0 0.13281499 0.3960834
v -0.02387423 0.10557089 0.36027208
v 0.02387423 0.10557089 0.36027208
v 0 0.13281499 0.7590495
v -0.02387423 0.10557089 0.7232381
v 0.02387423 0.10557089 0.7232381
v -0.21610294 0.018919513 -0.8570191
v -0.2469748 0 -0.9249372
v -0.18523109 0 -0.9249372
v -0.072034314 0.018919513 -0.8570191
v -0.10290617 0 -0.9249372
v -0.041162465 0 -0.9249372
v 0.072034314 0.018919513 -0.8570191
v 0.041162465 0 -0.9249372
v 0.10290617 0 -0.9249372
v 0.21610294 0.018919513 -0.8570191
v 0.18523109 0 -0.9249372
v 0.2469748 0 -0.9249372
vn 0 -0.93299896 0.35987929
vn 0 -0.93299896 0.35987929
vn 0 -0.93299896 0.35987929
vn 0.3078677 -0.949723 0.056953434
vn 0.3078677 -0.949723 0.056953434
vn 0.3078677 -0.949723 0.056953434
vn -0.3078677 -0.949723 0.056953434
vn -0.3078677 -0.949723 0.056953434
vn -0.3078677 -0.949723 0.056953434
vn 0 1 -0
vn 0 1 -0
vn 0 1 -0
vn 0 1 -0
vn 0 1 -0
vn 0 1 -0
vn 0 -0.93299884 0.35987929
vn 0 -0.93299884 0.35987929
vn 0 -0.93299884 0.35987929
vn 0.24115135 -0.9699379 0.032657806
vn 0.24115135 -0.9699379 0.032657806
vn 0.24115135 -0.9699379 0.032657806
vn -0.24115135 -0.9699379 0.032657806
vn -0.24115135 -0.9699379 0.032657806
vn -0.24115135 -0.9699379 0.032657806
vn 0 1 -0
vn 0 1 -0
vn 0 1 -0
vn 0 1 -0
vn 0 1 -0
vn 0 1 -0
vn 0 -0.93299884 0.35987929
vn 0 -0.93299884 0.35987929
vn 0 -0.93299884 0.35987929
vn 0.21331502 -0.9769262 0.010573763
vn 0.21331502 -0.9769262 0.010573763
vn 0.21331502 -0.9769262 0.010573763
vn -0.21331502 -0.9769262 0.010573763
vn -0.21331502 -0.9769262 0.010573763
vn -0.21331502 -0.9769262 0.010573763
vn 0 1 -0
vn 0 1 -0
vn 0 1 -0
vn 0 1 -0
vn 0 1 -0
vn 0 1 -0
vn 0 -0.9329989 0.3598793
vn 0 -0.9329989 0.3598793
vn 0 -0.9329989 0.3598793
vn 0.2120529 -0.9772017 -0.010511202
vn 0.2120529 -0.9772017 -0.010511202
vn 0.2120529 -0.9772017 -0.010511202
vn -0.2120529 -0.9772017 -0.010511202
vn -0.2120529 -0.9772017 -0.010511202
vn -0.2120529 -0.9772017 -0.010511202
vn 0 1 0
vn 0 1 0
vn 0 1 0
vn 0 1 0
vn 0 1 0
vn 0 1 0
vn 0 -0.93299884 0.35987929
vn 0 -0.93299884 0.35987929
vn 0 -0.93299884 0.35987929
vn 0.24356958 -0.9688629 -0.04448173
vn 0.24356958 -0.9688629 -0.04448173
vn 0.24356958 -0.9688629 -0.04448173
vn -0.24356958 -0.9688629 -0.04448173
vn -0.24356958 -0.9688629 -0.04448173
vn -0.24356958 -0.9688629 -0.04448173
vn 0 1 0
vn 0 1 0
vn 0 1 0
vn 0 1 0
vn 0 1 0
vn 0 1 0
vn 0 -0.93299884 0.3598794
vn 0 -0.93299884 0.3598794
vn 0 -0.93299884 0.3598794
vn 0.45439827 -0.84949833 -0.26809463
vn 0.45439827 -0.84949833 -0.26809463
vn 0.45439827 -0.84949833 -0.26809463
vn -0.45439827 -0.84949833 -0.26809463
vn -0.45439827 -0.84949833 -0.26809463
vn -0.45439827 -0.84949833 -0.26809463
vn 0 1 0
vn 0 1 0
vn 0 1 0
vn 0 1 0
vn 0 1 0
vn 0 1 0
vn 0 -0.7958681 0.60547006
vn 0 -0.7958681 0.60547006
vn 0 -0.7958681 0.60547006
vn 0 -0.7958679 0.6054704
vn 0 -0.7958679 0.6054704
vn 0 -0.7958679 0.6054704
vn 0 -0.7958679 0.60547024
vn 0 -0.7958679 0.60547024
vn 0 -0.7958679 0.60547024
vn 0 -0.7958679 0.6054704
vn 0 -0.7958679 0.6054704
vn 0 -0.7958679 0.6054704
vn 0 -0.7958681 0.60547006
vn 0 -0.7958681 0.60547006
vn 0 -0.7958681 0.60547006
vn 0 -0.9633224 0.26834676
vn 0 -0.9633224 0.26834676
vn 0 -0.9633224 0.26834676
vn 0 -0.9633224 0.26834673
vn 0 -0.9633224 0.26834673
vn 0 -0.9633224 0.26834673
vn 0 -0.9633224 0.26834673
vn 0 -0.9633224 0.26834673
vn 0 -0.9633224 0.26834673
vn 0 -0.9633224 0.26834676
vn 0 -0.9633224 0.26834676
vn 0 -0.9633224 0.26834676
f 1//1 2//2 3//3
f 4//4 5//5 6//6
f 7//7 8//8 9//9
f 10//10 11//11 12//12
f 13//13 14//14 15//15
f 16//16 17//17 18//18
f 19//19 20//20 21//21
f 22//22 23//23 24//24
f 25//25 26//26 27//27
f 28//28 29//29 30//30
f 31//31 32//32 33//33
f 34//34 35//35 36//36
f 37//37 38//38 39//39
f 40//40 41//41 42//42
f 43//43 44//44 45//45
f 46//46 47//47 48//48
f 49//49 50//50 51//51
f 52//52 53//53 54//54
f 55//55 56//56 57//57
f 58//58 59//59 60//60
f 61//61 62//62 63//63
f 64//64 65//65 66//66
f 67//67 68//68 69//69
f 70//70 71//71 72//72
f 73//73 74//74 75//75
f 76//76 77//77 78//78
f 79//79 80//80 81//81
f 82//82 83//83 84//84
f 85//85 86//86 87//87
f 88//88 89//89 90//90
f 91//91 92//92 93//93
f 94//94 95//95 96//96
f 97//97 98//98 99//99
f 100//100 101//101 102//102
f 103//103 104//104 105//105
f 106//106 107//107 108//108
f 109//109 110//110 111//111
f 112//112 113//113 114//114
f 115//115 116//116 117//117
