# Exported from SharpOpenGl procedural mesh
o vesper_frigate_prototype_55
# vertices 114
v -0.46881732 0.2038824 -3.6003478
v 0.46881732 0.2038824 -3.6003478
v 0 0.41941524 -2.9277375
v -0.46881732 0.2038824 -3.6003478
v 0 0.41941524 -2.9277375
v -0.6606062 0.2038824 -2.105658
v 0.46881732 0.2038824 -3.6003478
v 0.6606062 0.2038824 -2.105658
v 0 0.41941524 -2.9277375
v -0.46881732 0 -3.6003478
v -0.6606062 0 -2.105658
v 0.46881732 0 -3.6003478
v 0.46881732 0 -3.6003478
v -0.6606062 0 -2.105658
v 0.6606062 0 -2.105658
v -0.6606062 0.2038824 -2.105658
v 0.6606062 0.2038824 -2.105658
v 0 0.41941524 -1.4330475
v -0.6606062 0.2038824 -2.105658
v 0 0.41941524 -1.4330475
v -0.8010055 0.2038824 -0.6109681
v 0.6606062 0.2038824 -2.105658
v 0.8010055 0.2038824 -0.6109681
v 0 0.41941524 -1.4330475
v -0.6606062 0 -2.105658
v -0.8010055 0 -0.6109681
v 0.6606062 0 -2.105658
v 0.6606062 0 -2.105658
v -0.8010055 0 -0.6109681
v 0.8010055 0 -0.6109681
v -0.8010055 0.2038824 -0.6109681
v 0.8010055 0.2038824 -0.6109681
v 0 0.41941524 0.06164223
v -0.8010055 0.2038824 -0.6109681
v 0 0.41941524 0.06164223
v -0.8523951 0.2038824 0.8837216
v 0.8010055 0.2038824 -0.6109681
v 0.8523951 0.2038824 0.8837216
v 0 0.41941524 0.06164223
v -0.8010055 0 -0.6109681
v -0.8523951 0 0.8837216
v 0.8010055 0 -0.6109681
v 0.8010055 0 -0.6109681
v -0.8523951 0 0.8837216
v 0.8523951 0 0.8837216
v -0.8523951 0.2038824 0.8837216
v 0.8523951 0.2038824 0.8837216
v 0 0.41941524 1.5563321
v -0.8523951 0.2038824 0.8837216
v 0 0.41941524 1.5563321
v -0.8010055 0.2038824 2.3784115
v 0.8523951 0.2038824 0.8837216
v 0.8010055 0.2038824 2.3784115
v 0 0.41941524 1.5563321
v -0.8523951 0 0.8837216
v -0.8010055 0 2.3784115
v 0.8523951 0 0.8837216
v 0.8523951 0 0.8837216
v -0.8010055 0 2.3784115
v 0.8010055 0 2.3784115
v -0.8010055 0.2038824 2.3784115
v 0.8010055 0.2038824 2.3784115
v 0 0.41941524 3.0510218
v -0.8010055 0.2038824 2.3784115
v 0 0.41941524 3.0510218
v -0.6116725 0.2038824 3.873101
v 0.8010055 0.2038824 2.3784115
v 0.6116725 0.2038824 3.873101
v 0 0.41941524 3.0510218
v -0.8010055 0 2.3784115
v -0.6116725 0 3.873101
v 0.8010055 0 2.3784115
v 0.8010055 0 2.3784115
v -0.6116725 0 3.873101
v 0.6116725 0 3.873101
v -0.6116725 0.2038824 3.873101
v 0.6116725 0.2038824 3.873101
v 0 0.41941524 4.5457115
v -0.6116725 0.2038824 3.873101
v 0 0.41941524 4.5457115
v -0 0.2038824 5.367791
v 0.6116725 0.2038824 3.873101
v 0 0.2038824 5.367791
v 0 0.41941524 4.5457115
v -0.6116725 0 3.873101
v -0 0 5.367791
v 0.6116725 0 3.873101
v 0.6116725 0 3.873101
v -0 0 5.367791
v 0 0 5.367791
v 0 0.45436648 -2.8530028
v -0.06819161 0.3611631 -2.9552903
v 0.06819161 0.3611631 -2.9552903
v 0 0.45436648 -1.3583131
v -0.06819161 0.3611631 -1.4606005
v 0.06819161 0.3611631 -1.4606005
v 0 0.45436648 0.13637662
v -0.06819161 0.3611631 0.034089208
v 0.06819161 0.3611631 0.034089208
v 0 0.45436648 1.6310661
v -0.06819161 0.3611631 1.5287787
v 0.06819161 0.3611631 1.5287787
v 0 0.45436648 3.125756
v -0.06819161 0.3611631 3.0234685
v 0.06819161 0.3611631 3.0234685
v -0.35800594 0.16310592 -0.98191303
v 0.35800594 0.16310592 -0.98191303
v 0 0.24465887 -1.8329043
v -0.4115011 0.064724565 -3.5291946
v -0.6054945 0 -3.95598
v -0.21750773 0 -3.95598
v 0.4115011 0.064724565 -3.5291946
v 0.21750773 0 -3.95598
v 0.6054945 0 -3.95598
vn 0 -0.95230174 0.30515784
vn 0 -0.95230174 0.30515784
vn 0 -0.95230174 0.30515784
vn 0.3615488 -0.9311983 0.0463916
vn 0.3615488 -0.9311983 0.0463916
vn 0.3615488 -0.9311983 0.0463916
vn -0.3615488 -0.9311983 0.0463916
vn -0.3615488 -0.9311983 0.0463916
vn -0.3615488 -0.9311983 0.0463916
vn 0 1 -0
vn 0 1 -0
vn 0 1 -0
vn 0 1 -0
vn 0 1 -0
vn 0 1 -0
vn 0 -0.9523018 0.30515772
vn 0 -0.9523018 0.30515772
vn 0 -0.9523018 0.30515772
vn 0.2852975 -0.95806426 0.026798576
vn 0.2852975 -0.95806426 0.026798576
vn 0.2852975 -0.95806426 0.026798576
vn -0.2852975 -0.95806426 0.026798576
vn -0.2852975 -0.95806426 0.026798576
vn -0.2852975 -0.95806426 0.026798576
vn 0 1 -0
vn 0 1 -0
vn 0 1 -0
vn 0 0.99999994 -0
vn 0 0.99999994 -0
vn 0 0.99999994 -0
vn 0 -0.95230186 0.30515784
vn 0 -0.95230186 0.30515784
vn 0 -0.95230186 0.30515784
vn 0.2530082 -0.967425 0.008698795
vn 0.2530082 -0.967425 0.008698795
vn 0.2530082 -0.967425 0.008698795
vn -0.2530082 -0.967425 0.008698795
vn -0.2530082 -0.967425 0.008698795
vn -0.2530082 -0.967425 0.008698795
vn 0 1 -0
vn 0 1 -0
vn 0 1 -0
vn 0 1 -0
vn 0 1 -0
vn 0 1 -0
vn 0 -0.95230174 0.30515775
vn 0 -0.95230174 0.30515775
vn 0 -0.95230174 0.30515775
vn 0.25153992 -0.9678083 -0.008648313
vn 0.25153992 -0.9678083 -0.008648313
vn 0.25153992 -0.9678083 -0.008648313
vn -0.25153992 -0.9678083 -0.008648313
vn -0.25153992 -0.9678083 -0.008648313
vn -0.25153992 -0.9678083 -0.008648313
vn 0 1 0
vn 0 1 0
vn 0 1 0
vn 0 0.99999994 0
vn 0 0.99999994 0
vn 0 0.99999994 0
vn 0 -0.95230174 0.30515784
vn 0 -0.95230174 0.30515784
vn 0 -0.95230174 0.30515784
vn 0.2881266 -0.9568966 -0.03649712
vn 0.2881266 -0.9568966 -0.03649712
vn 0.2881266 -0.9568966 -0.03649712
vn -0.2881266 -0.9568966 -0.03649712
vn -0.2881266 -0.9568966 -0.03649712
vn -0.2881266 -0.9568966 -0.03649712
vn 0 1 0
vn 0 1 0
vn 0 1 0
vn 0 1 0
vn 0 1 0
vn 0 1 0
vn 0 -0.95230186 0.30515778
vn 0 -0.95230186 0.30515778
vn 0 -0.95230186 0.30515778
vn 0.5267682 -0.8222196 -0.21556953
vn 0.5267682 -0.8222196 -0.21556953
vn 0.5267682 -0.8222196 -0.21556953
vn -0.5267682 -0.8222196 -0.21556953
vn -0.5267682 -0.8222196 -0.21556953
vn -0.5267682 -0.8222196 -0.21556953
vn 0 1 0
vn 0 1 0
vn 0 1 0
vn 0 1 0
vn 0 1 0
vn 0 1 0
vn 0 -0.73916733 0.6735218
vn 0 -0.73916733 0.6735218
vn 0 -0.73916733 0.6735218
vn 0 -0.7391669 0.6735222
vn 0 -0.7391669 0.6735222
vn 0 -0.7391669 0.6735222
vn 0 -0.7391669 0.6735222
vn 0 -0.7391669 0.6735222
vn 0 -0.7391669 0.6735222
vn 0 -0.7391669 0.6735222
vn 0 -0.7391669 0.6735222
vn 0 -0.7391669 0.6735222
vn 0 -0.73916733 0.6735218
vn 0 -0.73916733 0.6735218
vn 0 -0.73916733 0.6735218
vn -0 0.9954394 0.09539583
vn -0 0.9954394 0.09539583
vn -0 0.9954394 0.09539583
vn 0 -0.98869485 0.14994149
vn 0 -0.98869485 0.14994149
vn 0 -0.98869485 0.14994149
vn 0 -0.98869485 0.14994149
vn 0 -0.98869485 0.14994149
vn 0 -0.98869485 0.14994149
f 1//1 2//2 3//3
f 4//4 5//5 6//6
f 7//7 8//8 9//9
f 10//10 11//11 12//12
f 13//13 14//14 15//15
f 16//16 17//17 18//18
f 19//19 20//20 21//21
f 22//22 23//23 24//24
f 25//25 26//26 27//27
f 28//28 29//29 30//30
f 31//31 32//32 33//33
f 34//34 35//35 36//36
f 37//37 38//38 39//39
f 40//40 41//41 42//42
f 43//43 44//44 45//45
f 46//46 47//47 48//48
f 49//49 50//50 51//51
f 52//52 53//53 54//54
f 55//55 56//56 57//57
f 58//58 59//59 60//60
f 61//61 62//62 63//63
f 64//64 65//65 66//66
f 67//67 68//68 69//69
f 70//70 71//71 72//72
f 73//73 74//74 75//75
f 76//76 77//77 78//78
f 79//79 80//80 81//81
f 82//82 83//83 84//84
f 85//85 86//86 87//87
f 88//88 89//89 90//90
f 91//91 92//92 93//93
f 94//94 95//95 96//96
f 97//97 98//98 99//99
f 100//100 101//101 102//102
f 103//103 104//104 105//105
f 106//106 107//107 108//108
f 109//109 110//110 111//111
f 112//112 113//113 114//114
