# Exported from SharpOpenGl procedural mesh
o vesper_cruiser_mk3_43
# vertices 225
v -0.6447476 0.47106534 -4.5610366
v 0.6447476 0.47106534 -4.5610366
v 0 0.96904874 -3.5814505
v -0.6447476 0.47106534 -4.5610366
v 0 0.96904874 -3.5814505
v -0.96712136 0.47106534 -2.3841782
v 0.6447476 0.47106534 -4.5610366
v 0.96712136 0.47106534 -2.3841782
v 0 0.96904874 -3.5814505
v -0.6447476 0 -4.5610366
v -0.96712136 0 -2.3841782
v 0.6447476 0 -4.5610366
v 0.6447476 0 -4.5610366
v -0.96712136 0 -2.3841782
v 0.96712136 0 -2.3841782
v -0.6447476 0 -4.5610366
v -0.6447476 0.47106534 -4.5610366
v -0.96712136 0.47106534 -2.3841782
v -0.6447476 0 -4.5610366
v -0.96712136 0.47106534 -2.3841782
v -0.96712136 0 -2.3841782
v 0.6447476 0 -4.5610366
v 0.96712136 0.47106534 -2.3841782
v 0.6447476 0.47106534 -4.5610366
v 0.6447476 0 -4.5610366
v 0.96712136 0 -2.3841782
v 0.96712136 0.47106534 -2.3841782
v -0.96712136 0.47106534 -2.3841782
v 0.96712136 0.47106534 -2.3841782
v 0 0.96904874 -1.4045919
v -0.96712136 0.47106534 -2.3841782
v 0 0.96904874 -1.4045919
v -1.2031155 0.47106534 -0.20731974
v 0.96712136 0.47106534 -2.3841782
v 1.2031155 0.47106534 -0.20731974
v 0 0.96904874 -1.4045919
v -0.96712136 0 -2.3841782
v -1.2031155 0 -0.20731974
v 0.96712136 0 -2.3841782
v 0.96712136 0 -2.3841782
v -1.2031155 0 -0.20731974
v 1.2031155 0 -0.20731974
v -0.96712136 0 -2.3841782
v -0.96712136 0.47106534 -2.3841782
v -1.2031155 0.47106534 -0.20731974
v -0.96712136 0 -2.3841782
v -1.2031155 0.47106534 -0.20731974
v -1.2031155 0 -0.20731974
v 0.96712136 0 -2.3841782
v 1.2031155 0.47106534 -0.20731974
v 0.96712136 0.47106534 -2.3841782
v 0.96712136 0 -2.3841782
v 1.2031155 0 -0.20731974
v 1.2031155 0.47106534 -0.20731974
v -1.2031155 0.47106534 -0.20731974
v 1.2031155 0.47106534 -0.20731974
v 0 0.96904874 0.7722663
v -1.2031155 0.47106534 -0.20731974
v 0 0.96904874 0.7722663
v -1.2894952 0.47106534 1.9695382
v 1.2031155 0.47106534 -0.20731974
v 1.2894952 0.47106534 1.9695382
v 0 0.96904874 0.7722663
v -1.2031155 0 -0.20731974
v -1.2894952 0 1.9695382
v 1.2031155 0 -0.20731974
v 1.2031155 0 -0.20731974
v -1.2894952 0 1.9695382
v 1.2894952 0 1.9695382
v -1.2031155 0 -0.20731974
v -1.2031155 0.47106534 -0.20731974
v -1.2894952 0.47106534 1.9695382
v -1.2031155 0 -0.20731974
v -1.2894952 0.47106534 1.9695382
v -1.2894952 0 1.9695382
v 1.2031155 0 -0.20731974
v 1.2894952 0.47106534 1.9695382
v 1.2031155 0.47106534 -0.20731974
v 1.2031155 0 -0.20731974
v 1.2894952 0 1.9695382
v 1.2894952 0.47106534 1.9695382
v -1.2894952 0.47106534 1.9695382
v 1.2894952 0.47106534 1.9695382
v 0 0.96904874 2.9491248
v -1.2894952 0.47106534 1.9695382
v 0 0.96904874 2.9491248
v -1.2031153 0.47106534 4.146397
v 1.2894952 0.47106534 1.9695382
v 1.2031153 0.47106534 4.146397
v 0 0.96904874 2.9491248
v -1.2894952 0 1.9695382
v -1.2031153 0 4.146397
v 1.2894952 0 1.9695382
v 1.2894952 0 1.9695382
v -1.2031153 0 4.146397
v 1.2031153 0 4.146397
v -1.2894952 0 1.9695382
v -1.2894952 0.47106534 1.9695382
v -1.2031153 0.47106534 4.146397
v -1.2894952 0 1.9695382
v -1.2031153 0.47106534 4.146397
v -1.2031153 0 4.146397
v 1.2894952 0 1.9695382
v 1.2031153 0.47106534 4.146397
v 1.2894952 0.47106534 1.9695382
v 1.2894952 0 1.9695382
v 1.2031153 0 4.146397
v 1.2031153 0.47106534 4.146397
v -1.2031153 0.47106534 4.146397
v 1.2031153 0.47106534 4.146397
v 0 0.96904874 5.1259828
v -1.2031153 0.47106534 4.146397
v 0 0.96904874 5.1259828
v -0.9671214 0.47106534 6.323254
v 1.2031153 0.47106534 4.146397
v 0.9671214 0.47106534 6.323254
v 0 0.96904874 5.1259828
v -1.2031153 0 4.146397
v -0.9671214 0 6.323254
v 1.2031153 0 4.146397
v 1.2031153 0 4.146397
v -0.9671214 0 6.323254
v 0.9671214 0 6.323254
v -1.2031153 0 4.146397
v -1.2031153 0.47106534 4.146397
v -0.9671214 0.47106534 6.323254
v -1.2031153 0 4.146397
v -0.9671214 0.47106534 6.323254
v -0.9671214 0 6.323254
v 1.2031153 0 4.146397
v 0.9671214 0.47106534 6.323254
v 1.2031153 0.47106534 4.146397
v 1.2031153 0 4.146397
v 0.9671214 0 6.323254
v 0.9671214 0.47106534 6.323254
v -0.9671214 0.47106534 6.323254
v 0.9671214 0.47106534 6.323254
v 0 0.96904874 7.30284
v -0.9671214 0.47106534 6.323254
v 0 0.96904874 7.30284
v -0 0.47106534 8.500113
v 0.9671214 0.47106534 6.323254
v 0 0.47106534 8.500113
v 0 0.96904874 7.30284
v -0.9671214 0 6.323254
v -0 0 8.500113
v 0.9671214 0 6.323254
v 0.9671214 0 6.323254
v -0 0 8.500113
v 0 0 8.500113
v -0.9671214 0 6.323254
v -0.9671214 0.47106534 6.323254
v -0 0.47106534 8.500113
v -0.9671214 0 6.323254
v -0 0.47106534 8.500113
v -0 0 8.500113
v 0.9671214 0 6.323254
v 0 0.47106534 8.500113
v 0.9671214 0.47106534 6.323254
v 0.9671214 0 6.323254
v 0 0 8.500113
v 0 0.47106534 8.500113
v -0.47012845 0 8.5001135
v 0.47012845 0 8.5001135
v 0 0.8236914 8.914753
v -0.47012845 0 -4.5610366
v 0 0.2826392 -4.8720164
v 0.47012845 0 -4.5610366
v 0 1.0498028 -3.4726074
v -0.13432242 0.83445865 -3.6606588
v 0.13432242 0.83445865 -3.6606588
v 0 1.0498028 -1.2957492
v -0.13432242 0.83445865 -1.4838005
v 0.13432242 0.83445865 -1.4838005
v 0 1.0498028 0.88110876
v -0.13432242 0.83445865 0.69305736
v 0.13432242 0.83445865 0.69305736
v 0 1.0498028 3.0579672
v -0.13432242 0.83445865 2.8699157
v 0.13432242 0.83445865 2.8699157
v 0 1.0498028 5.2348256
v -0.13432242 0.83445865 5.0467744
v 0.13432242 0.83445865 5.0467744
v -0.56415415 0.37685227 -2.2100296
v 0.56415415 0.37685227 -2.2100296
v 0 0.64603245 -3.5161448
v -0.6484531 0.1455028 -1.3193082
v -1.0236295 0 -1.5256553
v -0.27327666 0 -1.5256553
v 0.6484531 0.1455028 -1.3193082
v 0.27327666 0 -1.5256553
v 1.0236295 0 -1.5256553
v -0.43908784 0.09093925 -1.2816136
v 0.43908784 0.09093925 -1.2816136
v 0 0.40013272 -0.9989047
v -0.49003774 0.09093925 0.3015561
v 0.49003774 0.09093925 0.3015561
v 0 0.40013272 0.584265
v -0.50949883 0.09093925 1.8847258
v 0.50949883 0.09093925 1.8847258
v 0 0.40013272 2.1674347
v -0.49003774 0.09093925 3.4678953
v 0.49003774 0.09093925 3.4678953
v 0 0.40013272 3.7506042
v -0.43908784 0.09093925 5.0510654
v 0.43908784 0.09093925 5.0510654
v 0 0.40013272 5.3337746
v 0 1.0003318 -0.12564826
v -0.16211328 0.76388973 -0.5497116
v 0.16211328 0.76388973 -0.5497116
v 0 1.0003318 1.2564842
v -0.16211328 0.76388973 0.8324208
v 0.16211328 0.76388973 0.8324208
v 0 1.0003318 2.6386166
v -0.16211328 0.76388973 2.214553
v 0.16211328 0.76388973 2.214553
v 0 1.0003318 4.020749
v -0.16211328 0.76388973 3.5966856
v 0.16211328 0.76388973 3.5966856
v 0 1.0003318 5.402881
v -0.16211328 0.76388973 4.978818
v 0.16211328 0.76388973 4.978818
v -0.32422656 0 -4.0050426
v 0.32422656 0 -4.0050426
v 0 0.09093925 -4.429106
vn 0 -0.891426 0.45316625
vn 0 -0.891426 0.45316625
vn 0 -0.891426 0.45316625
vn 0.531688 -0.84327227 0.07873836
vn 0.531688 -0.84327227 0.07873836
vn 0.531688 -0.84327227 0.07873836
vn -0.531688 -0.84327227 0.07873836
vn -0.531688 -0.84327227 0.07873836
vn -0.531688 -0.84327227 0.07873836
vn 0 1 -0
vn 0 1 -0
vn 0 1 -0
vn 0 1 -0
vn 0 1 -0
vn 0 1 -0
vn 0.9892116 -0 0.14649361
vn 0.9892116 -0 0.14649361
vn 0.9892116 -0 0.14649361
vn 0.9892116 0 0.14649361
vn 0.9892116 0 0.14649361
vn 0.9892116 0 0.14649361
vn -0.9892116 0 0.14649361
vn -0.9892116 0 0.14649361
vn -0.9892116 0 0.14649361
vn -0.9892116 0 0.14649361
vn -0.9892116 0 0.14649361
vn -0.9892116 0 0.14649361
vn 0 -0.8914261 0.45316622
vn 0 -0.8914261 0.45316622
vn 0 -0.8914261 0.45316622
vn 0.42043528 -0.9061769 0.04557956
vn 0.42043528 -0.9061769 0.04557956
vn 0.42043528 -0.9061769 0.04557956
vn -0.42043528 -0.9061769 0.04557956
vn -0.42043528 -0.9061769 0.04557956
vn -0.42043528 -0.9061769 0.04557956
vn 0 1 -0
vn 0 1 -0
vn 0 1 -0
vn 0 1 -0
vn 0 1 -0
vn 0 1 -0
vn 0.9941749 -0 0.10777891
vn 0.9941749 -0 0.10777891
vn 0.9941749 -0 0.10777891
vn 0.9941749 0 0.10777891
vn 0.9941749 0 0.10777891
vn 0.9941749 0 0.10777891
vn -0.9941749 0 0.10777891
vn -0.9941749 0 0.10777891
vn -0.9941749 0 0.10777891
vn -0.9941749 0 0.10777891
vn -0.9941749 0 0.10777891
vn -0.9941749 0 0.10777891
vn 0 -0.891426 0.45316625
vn 0 -0.891426 0.45316625
vn 0 -0.891426 0.45316625
vn 0.37211588 -0.92806876 0.014765907
vn 0.37211588 -0.92806876 0.014765907
vn 0.37211588 -0.92806876 0.014765907
vn -0.37211588 -0.92806876 0.014765907
vn -0.37211588 -0.92806876 0.014765907
vn -0.37211588 -0.92806876 0.014765907
vn 0 0.99999994 -0
vn 0 0.99999994 -0
vn 0 0.99999994 -0
vn 0 0.99999994 -0
vn 0 0.99999994 -0
vn 0 0.99999994 -0
vn 0.9992136 -0 0.039649732
vn 0.9992136 -0 0.039649732
vn 0.9992136 -0 0.039649732
vn 0.9992136 0 0.039649732
vn 0.9992136 0 0.039649732
vn 0.9992136 0 0.039649732
vn -0.9992136 0 0.039649732
vn -0.9992136 0 0.039649732
vn -0.9992136 0 0.039649732
vn -0.9992136 0 0.039649732
vn -0.9992136 0 0.039649732
vn -0.9992136 0 0.039649732
vn 0 -0.89142615 0.4531661
vn 0 -0.89142615 0.4531661
vn 0 -0.89142615 0.4531661
vn 0.369899 -0.92895603 -0.014677954
vn 0.369899 -0.92895603 -0.014677954
vn 0.369899 -0.92895603 -0.014677954
vn -0.369899 -0.92895603 -0.014677954
vn -0.369899 -0.92895603 -0.014677954
vn -0.369899 -0.92895603 -0.014677954
vn 0 1 0
vn 0 1 0
vn 0 1 0
vn 0 1 0
vn 0 1 0
vn 0 1 0
vn 0.99921376 0 -0.039649773
vn 0.99921376 0 -0.039649773
vn 0.99921376 0 -0.039649773
vn 0.99921376 0 -0.039649773
vn 0.99921376 0 -0.039649773
vn 0.99921376 0 -0.039649773
vn -0.99921376 0 -0.039649773
vn -0.99921376 0 -0.039649773
vn -0.99921376 0 -0.039649773
vn -0.99921376 0 -0.039649773
vn -0.99921376 0 -0.039649773
vn -0.99921376 0 -0.039649773
vn 0 -0.89142597 0.45316643
vn 0 -0.89142597 0.45316643
vn 0 -0.89142597 0.45316643
vn 0.41296485 -0.9096459 -0.044769682
vn 0.41296485 -0.9096459 -0.044769682
vn 0.41296485 -0.9096459 -0.044769682
vn -0.41296485 -0.9096459 -0.044769682
vn -0.41296485 -0.9096459 -0.044769682
vn -0.41296485 -0.9096459 -0.044769682
vn 0 0.99999994 0
vn 0 0.99999994 0
vn 0 0.99999994 0
vn 0 1 0
vn 0 1 0
vn 0 1 0
vn 0.99417496 0 -0.1077789
vn 0.99417496 0 -0.1077789
vn 0.99417496 0 -0.1077789
vn 0.99417496 0 -0.1077789
vn 0.99417496 0 -0.1077789
vn 0.99417496 0 -0.1077789
vn -0.99417496 0 -0.1077789
vn -0.99417496 0 -0.1077789
vn -0.99417496 0 -0.1077789
vn -0.99417496 0 -0.1077789
vn -0.99417496 0 -0.1077789
vn -0.99417496 0 -0.1077789
vn 0 -0.8914261 0.45316625
vn 0 -0.8914261 0.45316625
vn 0 -0.8914261 0.45316625
vn 0.65395725 -0.698519 -0.29053614
vn 0.65395725 -0.698519 -0.29053614
vn 0.65395725 -0.698519 -0.29053614
vn -0.65395725 -0.698519 -0.29053614
vn -0.65395725 -0.698519 -0.29053614
vn -0.65395725 -0.698519 -0.29053614
vn 0 1 0
vn 0 1 0
vn 0 1 0
vn 0 1 0
vn 0 1 0
vn 0 1 0
vn 0.9138694 0 -0.4060083
vn 0.9138694 0 -0.4060083
vn 0.9138694 0 -0.4060083
vn 0.9138694 0 -0.4060083
vn 0.9138694 0 -0.4060083
vn 0.9138694 0 -0.4060083
vn -0.9138694 0 -0.4060083
vn -0.9138694 0 -0.4060083
vn -0.9138694 0 -0.4060083
vn -0.9138694 0 -0.4060083
vn -0.9138694 0 -0.4060083
vn -0.9138694 0 -0.4060083
vn 0 -0.44963562 0.8932121
vn 0 -0.44963562 0.8932121
vn 0 -0.44963562 0.8932121
vn 0 -0.74002266 -0.67258185
vn 0 -0.74002266 -0.67258185
vn 0 -0.74002266 -0.67258185
vn 0 -0.6577621 0.75322574
vn 0 -0.6577621 0.75322574
vn 0 -0.6577621 0.75322574
vn 0 -0.6577619 0.753226
vn 0 -0.6577619 0.753226
vn 0 -0.6577619 0.753226
vn 0 -0.657762 0.7532259
vn 0 -0.657762 0.7532259
vn 0 -0.657762 0.7532259
vn 0 -0.6577621 0.75322574
vn 0 -0.6577621 0.75322574
vn 0 -0.6577621 0.75322574
vn 0 -0.6577616 0.7532262
vn 0 -0.6577616 0.7532262
vn 0 -0.6577616 0.7532262
vn -0 0.9794165 0.20185013
vn -0 0.9794165 0.20185013
vn -0 0.9794165 0.20185013
vn 0 -0.8172551 0.5762761
vn 0 -0.8172551 0.5762761
vn 0 -0.8172551 0.5762761
vn 0 -0.8172551 0.5762761
vn 0 -0.8172551 0.5762761
vn 0 -0.8172551 0.5762761
vn 0 -0.6747922 0.7380077
vn 0 -0.6747922 0.7380077
vn 0 -0.6747922 0.7380077
vn 0 -0.67479223 0.7380078
vn 0 -0.67479223 0.7380078
vn 0 -0.67479223 0.7380078
vn 0 -0.67479223 0.7380078
vn 0 -0.67479223 0.7380078
vn 0 -0.67479223 0.7380078
vn 0 -0.67479223 0.7380078
vn 0 -0.67479223 0.7380078
vn 0 -0.67479223 0.7380078
vn 0 -0.6747926 0.7380075
vn 0 -0.6747926 0.7380075
vn 0 -0.6747926 0.7380075
vn 0 -0.87341195 0.48698217
vn 0 -0.87341195 0.48698217
vn 0 -0.87341195 0.48698217
vn 0 -0.87341195 0.48698217
vn 0 -0.87341195 0.48698217
vn 0 -0.87341195 0.48698217
vn 0 -0.873412 0.4869821
vn 0 -0.873412 0.4869821
vn 0 -0.873412 0.4869821
vn 0 -0.873412 0.4869821
vn 0 -0.873412 0.4869821
vn 0 -0.873412 0.4869821
vn 0 -0.87341183 0.4869823
vn 0 -0.87341183 0.4869823
vn 0 -0.87341183 0.4869823
vn -0 0.97777015 0.20968005
vn -0 0.97777015 0.20968005
vn -0 0.97777015 0.20968005
f 1//1 2//2 3//3
f 4//4 5//5 6//6
f 7//7 8//8 9//9
f 10//10 11//11 12//12
f 13//13 14//14 15//15
f 16//16 17//17 18//18
f 19//19 20//20 21//21
f 22//22 23//23 24//24
f 25//25 26//26 27//27
f 28//28 29//29 30//30
f 31//31 32//32 33//33
f 34//34 35//35 36//36
f 37//37 38//38 39//39
f 40//40 41//41 42//42
f 43//43 44//44 45//45
f 46//46 47//47 48//48
f 49//49 50//50 51//51
f 52//52 53//53 54//54
f 55//55 56//56 57//57
f 58//58 59//59 60//60
f 61//61 62//62 63//63
f 64//64 65//65 66//66
f 67//67 68//68 69//69
f 70//70 71//71 72//72
f 73//73 74//74 75//75
f 76//76 77//77 78//78
f 79//79 80//80 81//81
f 82//82 83//83 84//84
f 85//85 86//86 87//87
f 88//88 89//89 90//90
f 91//91 92//92 93//93
f 94//94 95//95 96//96
f 97//97 98//98 99//99
f 100//100 101//101 102//102
f 103//103 104//104 105//105
f 106//106 107//107 108//108
f 109//109 110//110 111//111
f 112//112 113//113 114//114
f 115//115 116//116 117//117
f 118//118 119//119 120//120
f 121//121 122//122 123//123
f 124//124 125//125 126//126
f 127//127 128//128 129//129
f 130//130 131//131 132//132
f 133//133 134//134 135//135
f 136//136 137//137 138//138
f 139//139 140//140 141//141
f 142//142 143//143 144//144
f 145//145 146//146 147//147
f 148//148 149//149 150//150
f 151//151 152//152 153//153
f 154//154 155//155 156//156
f 157//157 158//158 159//159
f 160//160 161//161 162//162
f 163//163 164//164 165//165
f 166//166 167//167 168//168
f 169//169 170//170 171//171
f 172//172 173//173 174//174
f 175//175 176//176 177//177
f 178//178 179//179 180//180
f 181//181 182//182 183//183
f 184//184 185//185 186//186
f 187//187 188//188 189//189
f 190//190 191//191 192//192
f 193//193 194//194 195//195
f 196//196 197//197 198//198
f 199//199 200//200 201//201
f 202//202 203//203 204//204
f 205//205 206//206 207//207
f 208//208 209//209 210//210
f 211//211 212//212 213//213
f 214//214 215//215 216//216
f 217//217 218//218 219//219
f 220//220 221//221 222//222
f 223//223 224//224 225//225
