# Exported from SharpOpenGl procedural mesh
o vesper_support_mk1_15
# vertices 222
v -0.41453165 0.3007001 -1.8912812
v 0.41453165 0.3007001 -1.8912812
v 0 0.6185831 -1.4850856
v -0.41453165 0.3007001 -1.8912812
v 0 0.6185831 -1.4850856
v -0.6217975 0.3007001 -0.9886243
v 0.41453165 0.3007001 -1.8912812
v 0.6217975 0.3007001 -0.9886243
v 0 0.6185831 -1.4850856
v -0.41453165 0 -1.8912812
v -0.6217975 0 -0.9886243
v 0.41453165 0 -1.8912812
v 0.41453165 0 -1.8912812
v -0.6217975 0 -0.9886243
v 0.6217975 0 -0.9886243
v -0.41453165 0 -1.8912812
v -0.41453165 0.3007001 -1.8912812
v -0.6217975 0.3007001 -0.9886243
v -0.41453165 0 -1.8912812
v -0.6217975 0.3007001 -0.9886243
v -0.6217975 0 -0.9886243
v 0.41453165 0 -1.8912812
v 0.6217975 0.3007001 -0.9886243
v 0.41453165 0.3007001 -1.8912812
v 0.41453165 0 -1.8912812
v 0.6217975 0 -0.9886243
v 0.6217975 0.3007001 -0.9886243
v -0.6217975 0.3007001 -0.9886243
v 0.6217975 0.3007001 -0.9886243
v 0 0.6185831 -0.58242863
v -0.6217975 0.3007001 -0.9886243
v 0 0.6185831 -0.58242863
v -0.77352667 0.3007001 -0.0859673
v 0.6217975 0.3007001 -0.9886243
v 0.77352667 0.3007001 -0.0859673
v 0 0.6185831 -0.58242863
v -0.6217975 0 -0.9886243
v -0.77352667 0 -0.0859673
v 0.6217975 0 -0.9886243
v 0.6217975 0 -0.9886243
v -0.77352667 0 -0.0859673
v 0.77352667 0 -0.0859673
v -0.6217975 0 -0.9886243
v -0.6217975 0.3007001 -0.9886243
v -0.77352667 0.3007001 -0.0859673
v -0.6217975 0 -0.9886243
v -0.77352667 0.3007001 -0.0859673
v -0.77352667 0 -0.0859673
v 0.6217975 0 -0.9886243
v 0.77352667 0.3007001 -0.0859673
v 0.6217975 0.3007001 -0.9886243
v 0.6217975 0 -0.9886243
v 0.77352667 0 -0.0859673
v 0.77352667 0.3007001 -0.0859673
v -0.77352667 0.3007001 -0.0859673
v 0.77352667 0.3007001 -0.0859673
v 0 0.6185831 0.3202283
v -0.77352667 0.3007001 -0.0859673
v 0 0.6185831 0.3202283
v -0.8290633 0.3007001 0.8166896
v 0.77352667 0.3007001 -0.0859673
v 0.8290633 0.3007001 0.8166896
v 0 0.6185831 0.3202283
v -0.77352667 0 -0.0859673
v -0.8290633 0 0.8166896
v 0.77352667 0 -0.0859673
v 0.77352667 0 -0.0859673
v -0.8290633 0 0.8166896
v 0.8290633 0 0.8166896
v -0.77352667 0 -0.0859673
v -0.77352667 0.3007001 -0.0859673
v -0.8290633 0.3007001 0.8166896
v -0.77352667 0 -0.0859673
v -0.8290633 0.3007001 0.8166896
v -0.8290633 0 0.8166896
v 0.77352667 0 -0.0859673
v 0.8290633 0.3007001 0.8166896
v 0.77352667 0.3007001 -0.0859673
v 0.77352667 0 -0.0859673
v 0.8290633 0 0.8166896
v 0.8290633 0.3007001 0.8166896
v -0.8290633 0.3007001 0.8166896
v 0.8290633 0.3007001 0.8166896
v 0 0.6185831 1.2228853
v -0.8290633 0.3007001 0.8166896
v 0 0.6185831 1.2228853
v -0.7735266 0.3007001 1.7193466
v 0.8290633 0.3007001 0.8166896
v 0.7735266 0.3007001 1.7193466
v 0 0.6185831 1.2228853
v -0.8290633 0 0.8166896
v -0.7735266 0 1.7193466
v 0.8290633 0 0.8166896
v 0.8290633 0 0.8166896
v -0.7735266 0 1.7193466
v 0.7735266 0 1.7193466
v -0.8290633 0 0.8166896
v -0.8290633 0.3007001 0.8166896
v -0.7735266 0.3007001 1.7193466
v -0.8290633 0 0.8166896
v -0.7735266 0.3007001 1.7193466
v -0.7735266 0 1.7193466
v 0.8290633 0 0.8166896
v 0.7735266 0.3007001 1.7193466
v 0.8290633 0.3007001 0.8166896
v 0.8290633 0 0.8166896
v 0.7735266 0 1.7193466
v 0.7735266 0.3007001 1.7193466
v -0.7735266 0.3007001 1.7193466
v 0.7735266 0.3007001 1.7193466
v 0 0.6185831 2.1255422
v -0.7735266 0.3007001 1.7193466
v 0 0.6185831 2.1255422
v -0.6217975 0.3007001 2.6220036
v 0.7735266 0.3007001 1.7193466
v 0.6217975 0.3007001 2.6220036
v 0 0.6185831 2.1255422
v -0.7735266 0 1.7193466
v -0.6217975 0 2.6220036
v 0.7735266 0 1.7193466
v 0.7735266 0 1.7193466
v -0.6217975 0 2.6220036
v 0.6217975 0 2.6220036
v -0.7735266 0 1.7193466
v -0.7735266 0.3007001 1.7193466
v -0.6217975 0.3007001 2.6220036
v -0.7735266 0 1.7193466
v -0.6217975 0.3007001 2.6220036
v -0.6217975 0 2.6220036
v 0.7735266 0 1.7193466
v 0.6217975 0.3007001 2.6220036
v 0.7735266 0.3007001 1.7193466
v 0.7735266 0 1.7193466
v 0.6217975 0 2.6220036
v 0.6217975 0.3007001 2.6220036
v -0.6217975 0.3007001 2.6220036
v 0.6217975 0.3007001 2.6220036
v 0 0.6185831 3.0281992
v -0.6217975 0.3007001 2.6220036
v 0 0.6185831 3.0281992
v -0 0.3007001 3.5246606
v 0.6217975 0.3007001 2.6220036
v 0 0.3007001 3.5246606
v 0 0.6185831 3.0281992
v -0.6217975 0 2.6220036
v -0 0 3.5246606
v 0.6217975 0 2.6220036
v -0.6217975 0 2.6220036
v -0.6217975 0.3007001 2.6220036
v -0 0.3007001 3.5246606
v -0.6217975 0 2.6220036
v -0 0.3007001 3.5246606
v -0 0 3.5246606
v 0.6217975 0 2.6220036
v 0 0.3007001 3.5246606
v 0.6217975 0.3007001 2.6220036
v 0.6217975 0 2.6220036
v 0 0 3.5246606
v 0 0.3007001 3.5246606
v -0.30226266 0 3.5246606
v 0.30226266 0 3.5246606
v 0 0.52579564 3.6965952
v -0.30226266 0 -1.8912812
v 0 0.18042007 -2.0202322
v 0.30226266 0 -1.8912812
v 0 0.6701316 -1.4399527
v -0.08636077 0.53266877 -1.5608578
v 0.08636077 0.53266877 -1.5608578
v 0 0.6701316 -0.5372958
v -0.08636077 0.53266877 -0.65820086
v 0.08636077 0.53266877 -0.65820086
v 0 0.6701316 0.3653611
v -0.08636077 0.53266877 0.24445602
v 0.08636077 0.53266877 0.24445602
v 0 0.6701316 1.2680179
v -0.08636077 0.53266877 1.1471128
v 0.08636077 0.53266877 1.1471128
v 0 0.6701316 2.1706753
v -0.08636077 0.53266877 2.04977
v 0.08636077 0.53266877 2.04977
v -0.3627152 0.24056008 -0.9164117
v 0.3627152 0.24056008 -0.9164117
v 0 0.41238868 -1.4580059
v -0.41691405 0.09288033 -0.4689127
v -0.5955915 0 -0.561825
v -0.2382366 0 -0.561825
v 0.41691405 0.09288033 -0.4689127
v 0.2382366 0 -0.561825
v 0.5955915 0 -0.561825
v -0.28230554 0.05805021 -0.53143436
v 0.28230554 0.05805021 -0.53143436
v 0 0.25542092 -0.41420618
v -0.31506306 0.05805021 0.12504345
v 0.31506306 0.05805021 0.12504345
v 0 0.25542092 0.24227163
v -0.32757533 0.05805021 0.7815212
v 0.32757533 0.05805021 0.7815212
v 0 0.25542092 0.89874935
v -0.31506306 0.05805021 1.437999
v 0.31506306 0.05805021 1.437999
v 0 0.25542092 1.5552272
v -0.28230554 0.05805021 2.0944767
v 0.28230554 0.05805021 2.0944767
v 0 0.25542092 2.211705
v 0 0.6385523 -0.052101314
v -0.10422851 0.48762175 -0.22794358
v 0.10422851 0.48762175 -0.22794358
v 0 0.6385523 0.5210143
v -0.10422851 0.48762175 0.345172
v 0.10422851 0.48762175 0.345172
v 0 0.6385523 1.0941298
v -0.10422851 0.48762175 0.9182875
v 0.10422851 0.48762175 0.9182875
v 0 0.6385523 1.6672454
v -0.10422851 0.48762175 1.4914031
v 0.10422851 0.48762175 1.4914031
v 0 0.6385523 2.2403607
v -0.10422851 0.48762175 2.0645185
v 0.10422851 0.48762175 2.0645185
v -0.20845702 0 -1.6607325
v 0.20845702 0 -1.6607325
v 0 0.05805021 -1.8365748
vn 0 -0.78751373 0.6162972
vn 0 -0.78751373 0.6162972
vn 0 -0.78751373 0.6162972
vn 0.52671266 -0.8413956 0.12094245
vn 0.52671266 -0.8413956 0.12094245
vn 0.52671266 -0.8413956 0.12094245
vn -0.52671266 -0.8413956 0.12094245
vn -0.52671266 -0.8413956 0.12094245
vn -0.52671266 -0.8413956 0.12094245
vn 0 1 -0
vn 0 1 -0
vn 0 1 -0
vn 0 1 -0
vn 0 1 -0
vn 0 1 -0
vn 0.9746365 -0 0.22379363
vn 0.9746365 -0 0.22379363
vn 0.9746365 -0 0.22379363
vn 0.9746365 0 0.22379363
vn 0.9746365 0 0.22379363
vn 0.9746365 0 0.22379363
vn -0.9746365 0 0.22379363
vn -0.9746365 0 0.22379363
vn -0.9746365 0 0.22379363
vn -0.9746365 0 0.22379363
vn -0.9746365 0 0.22379363
vn -0.9746365 0 0.22379363
vn 0 -0.78751373 0.6162971
vn 0 -0.78751373 0.6162971
vn 0 -0.78751373 0.6162971
vn 0.41736153 -0.9060285 0.07015502
vn 0.41736153 -0.9060285 0.07015502
vn 0.41736153 -0.9060285 0.07015502
vn -0.41736153 -0.9060285 0.07015502
vn -0.41736153 -0.9060285 0.07015502
vn -0.41736153 -0.9060285 0.07015502
vn 0 1 -0
vn 0 1 -0
vn 0 1 -0
vn 0 1 -0
vn 0 1 -0
vn 0 1 -0
vn 0.9861651 -0 0.1657662
vn 0.9861651 -0 0.1657662
vn 0.9861651 -0 0.1657662
vn 0.9861651 0 0.1657662
vn 0.9861651 0 0.1657662
vn 0.9861651 0 0.1657662
vn -0.9861651 0 0.1657662
vn -0.9861651 0 0.1657662
vn -0.9861651 0 0.1657662
vn -0.9861651 0 0.1657662
vn -0.9861651 0 0.1657662
vn -0.9861651 0 0.1657662
vn 0 -0.7875137 0.6162971
vn 0 -0.7875137 0.6162971
vn 0 -0.7875137 0.6162971
vn 0.36976555 -0.9288466 0.022750098
vn 0.36976555 -0.9288466 0.022750098
vn 0.36976555 -0.9288466 0.022750098
vn -0.36976555 -0.9288466 0.022750098
vn -0.36976555 -0.9288466 0.022750098
vn -0.36976555 -0.9288466 0.022750098
vn 0 1 -0
vn 0 1 -0
vn 0 1 -0
vn 0 1 -0
vn 0 1 -0
vn 0 1 -0
vn 0.9981126 -0 0.061409608
vn 0.9981126 -0 0.061409608
vn 0.9981126 -0 0.061409608
vn 0.9981126 0 0.061409608
vn 0.9981126 0 0.061409608
vn 0.9981126 0 0.061409608
vn -0.9981126 0 0.061409608
vn -0.9981126 0 0.061409608
vn -0.9981126 0 0.061409608
vn -0.9981126 0 0.061409608
vn -0.9981126 0 0.061409608
vn -0.9981126 0 0.061409608
vn 0 -0.78751373 0.6162972
vn 0 -0.78751373 0.6162972
vn 0 -0.78751373 0.6162972
vn 0.36755902 -0.9297252 -0.022614358
vn 0.36755902 -0.9297252 -0.022614358
vn 0.36755902 -0.9297252 -0.022614358
vn -0.36755902 -0.9297252 -0.022614358
vn -0.36755902 -0.9297252 -0.022614358
vn -0.36755902 -0.9297252 -0.022614358
vn 0 1 0
vn 0 1 0
vn 0 1 0
vn 0 1 0
vn 0 1 0
vn 0 1 0
vn 0.99811274 0 -0.06140968
vn 0.99811274 0 -0.06140968
vn 0.99811274 0 -0.06140968
vn 0.99811274 0 -0.06140968
vn 0.99811274 0 -0.06140968
vn 0.99811274 0 -0.06140968
vn -0.99811274 0 -0.06140968
vn -0.99811274 0 -0.06140968
vn -0.99811274 0 -0.06140968
vn -0.99811274 0 -0.06140968
vn -0.99811274 0 -0.06140968
vn -0.99811274 0 -0.06140968
vn 0 -0.7875136 0.61629725
vn 0 -0.7875136 0.61629725
vn 0 -0.7875136 0.61629725
vn 0.40994802 -0.90950215 -0.06890885
vn 0.40994802 -0.90950215 -0.06890885
vn 0.40994802 -0.90950215 -0.06890885
vn -0.40994802 -0.90950215 -0.06890885
vn -0.40994802 -0.90950215 -0.06890885
vn -0.40994802 -0.90950215 -0.06890885
vn 0 1 0
vn 0 1 0
vn 0 1 0
vn 0 1 0
vn 0 1 0
vn 0 1 0
vn 0.9861651 0 -0.16576613
vn 0.9861651 0 -0.16576613
vn 0.9861651 0 -0.16576613
vn 0.9861651 0 -0.16576613
vn 0.9861651 0 -0.16576613
vn 0.9861651 0 -0.16576613
vn -0.9861651 0 -0.16576613
vn -0.9861651 0 -0.16576613
vn -0.9861651 0 -0.16576613
vn -0.9861651 0 -0.16576613
vn -0.9861651 0 -0.16576613
vn -0.9861651 0 -0.16576613
vn 0 -0.78751373 0.6162971
vn 0 -0.78751373 0.6162971
vn 0 -0.78751373 0.6162971
vn 0.61640006 -0.6631428 -0.42460868
vn 0.61640006 -0.6631428 -0.42460868
vn 0.61640006 -0.6631428 -0.42460868
vn -0.61640006 -0.6631428 -0.42460868
vn -0.61640006 -0.6631428 -0.42460868
vn -0.61640006 -0.6631428 -0.42460868
vn 0 1 0
vn 0 1 0
vn 0 1 0
vn 0.8235216 0 -0.5672849
vn 0.8235216 0 -0.5672849
vn 0.8235216 0 -0.5672849
vn 0.8235216 0 -0.5672849
vn 0.8235216 0 -0.5672849
vn 0.8235216 0 -0.5672849
vn -0.8235216 0 -0.5672849
vn -0.8235216 0 -0.5672849
vn -0.8235216 0 -0.5672849
vn -0.8235216 0 -0.5672849
vn -0.8235216 0 -0.5672849
vn -0.8235216 0 -0.5672849
vn 0 -0.31080398 0.950474
vn 0 -0.31080398 0.950474
vn 0 -0.31080398 0.950474
vn 0 -0.58147544 -0.8135639
vn 0 -0.58147544 -0.8135639
vn 0 -0.58147544 -0.8135639
vn 0 -0.6604362 0.75088227
vn 0 -0.6604362 0.75088227
vn 0 -0.6604362 0.75088227
vn 0 -0.6604362 0.75088227
vn 0 -0.6604362 0.75088227
vn 0 -0.6604362 0.75088227
vn 0 -0.66043633 0.75088215
vn 0 -0.66043633 0.75088215
vn 0 -0.66043633 0.75088215
vn 0 -0.6604362 0.75088227
vn 0 -0.6604362 0.75088227
vn 0 -0.6604362 0.75088227
vn 0 -0.6604366 0.75088185
vn 0 -0.6604366 0.75088185
vn 0 -0.6604366 0.75088185
vn -0 0.9531781 0.30240956
vn -0 0.9531781 0.30240956
vn -0 0.9531781 0.30240956
vn 0 -0.7072284 0.7069852
vn 0 -0.7072284 0.7069852
vn 0 -0.7072284 0.7069852
vn 0 -0.7072284 0.7069852
vn 0 -0.7072284 0.7069852
vn 0 -0.7072284 0.7069852
vn 0 -0.5106654 0.8597796
vn 0 -0.5106654 0.8597796
vn 0 -0.5106654 0.8597796
vn 0 -0.51066536 0.85977954
vn 0 -0.51066536 0.85977954
vn 0 -0.51066536 0.85977954
vn 0 -0.51066524 0.8597796
vn 0 -0.51066524 0.8597796
vn 0 -0.51066524 0.8597796
vn 0 -0.5106653 0.8597796
vn 0 -0.5106653 0.8597796
vn 0 -0.5106653 0.8597796
vn 0 -0.5106657 0.85977936
vn 0 -0.5106657 0.85977936
vn 0 -0.5106657 0.85977936
vn 0 -0.7588116 0.65131015
vn 0 -0.7588116 0.65131015
vn 0 -0.7588116 0.65131015
vn 0 -0.7588116 0.6513101
vn 0 -0.7588116 0.6513101
vn 0 -0.7588116 0.6513101
vn 0 -0.7588116 0.6513101
vn 0 -0.7588116 0.6513101
vn 0 -0.7588116 0.6513101
vn 0 -0.7588116 0.6513101
vn 0 -0.7588116 0.6513101
vn 0 -0.7588116 0.6513101
vn 0 -0.7588116 0.6513101
vn 0 -0.7588116 0.6513101
vn 0 -0.7588116 0.6513101
vn -0 0.9495929 0.31348583
vn -0 0.9495929 0.31348583
vn -0 0.9495929 0.31348583
f 1//1 2//2 3//3
f 4//4 5//5 6//6
f 7//7 8//8 9//9
f 10//10 11//11 12//12
f 13//13 14//14 15//15
f 16//16 17//17 18//18
f 19//19 20//20 21//21
f 22//22 23//23 24//24
f 25//25 26//26 27//27
f 28//28 29//29 30//30
f 31//31 32//32 33//33
f 34//34 35//35 36//36
f 37//37 38//38 39//39
f 40//40 41//41 42//42
f 43//43 44//44 45//45
f 46//46 47//47 48//48
f 49//49 50//50 51//51
f 52//52 53//53 54//54
f 55//55 56//56 57//57
f 58//58 59//59 60//60
f 61//61 62//62 63//63
f 64//64 65//65 66//66
f 67//67 68//68 69//69
f 70//70 71//71 72//72
f 73//73 74//74 75//75
f 76//76 77//77 78//78
f 79//79 80//80 81//81
f 82//82 83//83 84//84
f 85//85 86//86 87//87
f 88//88 89//89 90//90
f 91//91 92//92 93//93
f 94//94 95//95 96//96
f 97//97 98//98 99//99
f 100//100 101//101 102//102
f 103//103 104//104 105//105
f 106//106 107//107 108//108
f 109//109 110//110 111//111
f 112//112 113//113 114//114
f 115//115 116//116 117//117
f 118//118 119//119 120//120
f 121//121 122//122 123//123
f 124//124 125//125 126//126
f 127//127 128//128 129//129
f 130//130 131//131 132//132
f 133//133 134//134 135//135
f 136//136 137//137 138//138
f 139//139 140//140 141//141
f 142//142 143//143 144//144
f 145//145 146//146 147//147
f 148//148 149//149 150//150
f 151//151 152//152 153//153
f 154//154 155//155 156//156
f 157//157 158//158 159//159
f 160//160 161//161 162//162
f 163//163 164//164 165//165
f 166//166 167//167 168//168
f 169//169 170//170 171//171
f 172//172 173//173 174//174
f 175//175 176//176 177//177
f 178//178 179//179 180//180
f 181//181 182//182 183//183
f 184//184 185//185 186//186
f 187//187 188//188 189//189
f 190//190 191//191 192//192
f 193//193 194//194 195//195
f 196//196 197//197 198//198
f 199//199 200//200 201//201
f 202//202 203//203 204//204
f 205//205 206//206 207//207
f 208//208 209//209 210//210
f 211//211 212//212 213//213
f 214//214 215//215 216//216
f 217//217 218//218 219//219
f 220//220 221//221 222//222
