# Exported from SharpOpenGl procedural mesh
o vesper_destroyer_bulwark_58
# vertices 114
v -0.66017956 0.306067 -6.1358633
v 0.66017956 0.306067 -6.1358633
v 0 0.6296236 -4.9895725
v -0.66017956 0.306067 -6.1358633
v 0 0.6296236 -4.9895725
v -0.93025297 0.306067 -3.5885503
v 0.66017956 0.306067 -6.1358633
v 0.93025297 0.306067 -3.5885503
v 0 0.6296236 -4.9895725
v -0.66017956 0 -6.1358633
v -0.93025297 0 -3.5885503
v 0.66017956 0 -6.1358633
v 0.66017956 0 -6.1358633
v -0.93025297 0 -3.5885503
v 0.93025297 0 -3.5885503
v -0.93025297 0.306067 -3.5885503
v 0.93025297 0.306067 -3.5885503
v 0 0.6296236 -2.4422596
v -0.93025297 0.306067 -3.5885503
v 0 0.6296236 -2.4422596
v -1.1279606 0.306067 -1.0412374
v 0.93025297 0.306067 -3.5885503
v 1.1279606 0.306067 -1.0412374
v 0 0.6296236 -2.4422596
v -0.93025297 0 -3.5885503
v -1.1279606 0 -1.0412374
v 0.93025297 0 -3.5885503
v 0.93025297 0 -3.5885503
v -1.1279606 0 -1.0412374
v 1.1279606 0 -1.0412374
v -1.1279606 0.306067 -1.0412374
v 1.1279606 0.306067 -1.0412374
v 0 0.6296236 0.105053306
v -1.1279606 0.306067 -1.0412374
v 0 0.6296236 0.105053306
v -1.2003264 0.306067 1.5060754
v 1.1279606 0.306067 -1.0412374
v 1.2003264 0.306067 1.5060754
v 0 0.6296236 0.105053306
v -1.1279606 0 -1.0412374
v -1.2003264 0 1.5060754
v 1.1279606 0 -1.0412374
v 1.1279606 0 -1.0412374
v -1.2003264 0 1.5060754
v 1.2003264 0 1.5060754
v -1.2003264 0.306067 1.5060754
v 1.2003264 0.306067 1.5060754
v 0 0.6296236 2.6523662
v -1.2003264 0.306067 1.5060754
v 0 0.6296236 2.6523662
v -1.1279606 0.306067 4.0533886
v 1.2003264 0.306067 1.5060754
v 1.1279606 0.306067 4.0533886
v 0 0.6296236 2.6523662
v -1.2003264 0 1.5060754
v -1.1279606 0 4.0533886
v 1.2003264 0 1.5060754
v 1.2003264 0 1.5060754
v -1.1279606 0 4.0533886
v 1.1279606 0 4.0533886
v -1.1279606 0.306067 4.0533886
v 1.1279606 0.306067 4.0533886
v 0 0.6296236 5.1996794
v -1.1279606 0.306067 4.0533886
v 0 0.6296236 5.1996794
v -0.8613454 0.306067 6.6007013
v 1.1279606 0.306067 4.0533886
v 0.8613454 0.306067 6.6007013
v 0 0.6296236 5.1996794
v -1.1279606 0 4.0533886
v -0.8613454 0 6.6007013
v 1.1279606 0 4.0533886
v 1.1279606 0 4.0533886
v -0.8613454 0 6.6007013
v 0.8613454 0 6.6007013
v -0.8613454 0.306067 6.6007013
v 0.8613454 0.306067 6.6007013
v 0 0.6296236 7.746992
v -0.8613454 0.306067 6.6007013
v 0 0.6296236 7.746992
v -0 0.306067 9.148014
v 0.8613454 0.306067 6.6007013
v 0 0.306067 9.148014
v 0 0.6296236 7.746992
v -0.8613454 0 6.6007013
v -0 0 9.148014
v 0.8613454 0 6.6007013
v 0.8613454 0 6.6007013
v -0 0 9.148014
v 0 0 9.148014
v 0 0.68209213 -4.862207
v -0.096026115 0.5421758 -5.006246
v 0.096026115 0.5421758 -5.006246
v 0 0.68209213 -2.314894
v -0.096026115 0.5421758 -2.458933
v 0.096026115 0.5421758 -2.458933
v 0 0.68209213 0.23241901
v -0.096026115 0.5421758 0.088379845
v 0.096026115 0.5421758 0.088379845
v 0 0.68209213 2.7797318
v -0.096026115 0.5421758 2.6356926
v 0.096026115 0.5421758 2.6356926
v 0 0.68209213 5.3270445
v -0.096026115 0.5421758 5.1830053
v 0.096026115 0.5421758 5.1830053
v -0.5041371 0.2448536 -1.6734172
v 0.5041371 0.2448536 -1.6734172
v 0 0.3672804 -3.123712
v -0.57946795 0.097164124 -6.014601
v -0.8898972 0 -6.6975455
v -0.2690387 0 -6.6975455
v 0.57946795 0.097164124 -6.014601
v 0.2690387 0 -6.6975455
v 0.8898972 0 -6.6975455
vn 0 -0.96239614 0.27164978
vn 0 -0.96239614 0.27164978
vn 0 -0.96239614 0.27164978
vn 0.38212794 -0.9232209 0.0405143
vn 0.38212794 -0.9232209 0.0405143
vn 0.38212794 -0.9232209 0.0405143
vn -0.38212794 -0.9232209 0.0405143
vn -0.38212794 -0.9232209 0.0405143
vn -0.38212794 -0.9232209 0.0405143
vn 0 1 -0
vn 0 1 -0
vn 0 1 -0
vn 0 1 -0
vn 0 1 -0
vn 0 1 -0
vn 0 -0.96239626 0.27164978
vn 0 -0.96239626 0.27164978
vn 0 -0.96239626 0.27164978
vn 0.30249086 -0.9528631 0.023477579
vn 0.30249086 -0.9528631 0.023477579
vn 0.30249086 -0.9528631 0.023477579
vn -0.30249086 -0.9528631 0.023477579
vn -0.30249086 -0.9528631 0.023477579
vn -0.30249086 -0.9528631 0.023477579
vn 0 1 -0
vn 0 1 -0
vn 0 1 -0
vn 0 1 -0
vn 0 1 -0
vn 0 1 -0
vn 0 -0.96239614 0.2716498
vn 0 -0.96239614 0.2716498
vn 0 -0.96239614 0.2716498
vn 0.26855174 -0.963235 0.0076292097
vn 0.26855174 -0.963235 0.0076292097
vn 0.26855174 -0.963235 0.0076292097
vn -0.26855174 -0.963235 0.0076292097
vn -0.26855174 -0.963235 0.0076292097
vn -0.26855174 -0.963235 0.0076292097
vn 0 1 -0
vn 0 1 -0
vn 0 1 -0
vn 0 1 -0
vn 0 1 -0
vn 0 1 -0
vn 0 -0.9623962 0.27164978
vn 0 -0.9623962 0.27164978
vn 0 -0.9623962 0.27164978
vn 0.2670066 -0.9636649 -0.0075853136
vn 0.2670066 -0.9636649 -0.0075853136
vn 0.2670066 -0.9636649 -0.0075853136
vn -0.2670066 -0.9636649 -0.0075853136
vn -0.2670066 -0.9636649 -0.0075853136
vn -0.2670066 -0.9636649 -0.0075853136
vn 0 1 0
vn 0 1 0
vn 0 1 0
vn 0 1 0
vn 0 1 0
vn 0 1 0
vn 0 -0.96239614 0.27164978
vn 0 -0.96239614 0.27164978
vn 0 -0.96239614 0.27164978
vn 0.30547777 -0.9516623 -0.03197291
vn 0.30547777 -0.9516623 -0.03197291
vn 0.30547777 -0.9516623 -0.03197291
vn -0.30547777 -0.9516623 -0.03197291
vn -0.30547777 -0.9516623 -0.03197291
vn -0.30547777 -0.9516623 -0.03197291
vn 0 1 0
vn 0 1 0
vn 0 1 0
vn 0 1 0
vn 0 1 0
vn 0 1 0
vn 0 -0.96239614 0.27164978
vn 0 -0.96239614 0.27164978
vn 0 -0.96239614 0.27164978
vn 0.554009 -0.8111601 -0.18733199
vn 0.554009 -0.8111601 -0.18733199
vn 0.554009 -0.8111601 -0.18733199
vn -0.554009 -0.8111601 -0.18733199
vn -0.554009 -0.8111601 -0.18733199
vn -0.554009 -0.8111601 -0.18733199
vn 0 1 0
vn 0 1 0
vn 0 1 0
vn 0 1 0
vn 0 1 0
vn 0 1 0
vn 0 -0.7172979 0.6967666
vn 0 -0.7172979 0.6967666
vn 0 -0.7172979 0.6967666
vn 0 -0.7172979 0.6967666
vn 0 -0.7172979 0.6967666
vn 0 -0.7172979 0.6967666
vn 0 -0.717298 0.6967666
vn 0 -0.717298 0.6967666
vn 0 -0.717298 0.6967666
vn 0 -0.7172979 0.6967666
vn 0 -0.7172979 0.6967666
vn 0 -0.7172979 0.6967666
vn 0 -0.7172979 0.6967666
vn 0 -0.7172979 0.6967666
vn 0 -0.7172979 0.6967666
vn -0 0.9964561 0.08411594
vn -0 0.9964561 0.08411594
vn -0 0.9964561 0.08411594
vn 0 -0.9900304 0.14085402
vn 0 -0.9900304 0.14085402
vn 0 -0.9900304 0.14085402
vn 0 -0.9900304 0.14085402
vn 0 -0.9900304 0.14085402
vn 0 -0.9900304 0.14085402
f 1//1 2//2 3//3
f 4//4 5//5 6//6
f 7//7 8//8 9//9
f 10//10 11//11 12//12
f 13//13 14//14 15//15
f 16//16 17//17 18//18
f 19//19 20//20 21//21
f 22//22 23//23 24//24
f 25//25 26//26 27//27
f 28//28 29//29 30//30
f 31//31 32//32 33//33
f 34//34 35//35 36//36
f 37//37 38//38 39//39
f 40//40 41//41 42//42
f 43//43 44//44 45//45
f 46//46 47//47 48//48
f 49//49 50//50 51//51
f 52//52 53//53 54//54
f 55//55 56//56 57//57
f 58//58 59//59 60//60
f 61//61 62//62 63//63
f 64//64 65//65 66//66
f 67//67 68//68 69//69
f 70//70 71//71 72//72
f 73//73 74//74 75//75
f 76//76 77//77 78//78
f 79//79 80//80 81//81
f 82//82 83//83 84//84
f 85//85 86//86 87//87
f 88//88 89//89 90//90
f 91//91 92//92 93//93
f 94//94 95//95 96//96
f 97//97 98//98 99//99
f 100//100 101//101 102//102
f 103//103 104//104 105//105
f 106//106 107//107 108//108
f 109//109 110//110 111//111
f 112//112 113//113 114//114
