# Exported from SharpOpenGl procedural mesh
o vesper_carrier_storm_60
# vertices 156
v -1.0398401 0.46581602 -4.6248584
v 1.0398401 0.46581602 -4.6248584
v 0 0.95825016 -3.9768527
v -1.0398401 0.46581602 -4.6248584
v 0 0.95825016 -3.9768527
v -1.3654188 0.46581602 -3.1848457
v 1.0398401 0.46581602 -4.6248584
v 1.3654188 0.46581602 -3.1848457
v 0 0.95825016 -3.9768527
v -1.0398401 0 -4.6248584
v -1.3654188 0 -3.1848457
v 1.0398401 0 -4.6248584
v 1.0398401 0 -4.6248584
v -1.3654188 0 -3.1848457
v 1.3654188 0 -3.1848457
v -1.3654188 0.46581602 -3.1848457
v 1.3654188 0.46581602 -3.1848457
v 0 0.95825016 -2.53684
v -1.3654188 0.46581602 -3.1848457
v 0 0.95825016 -2.53684
v -1.6414311 0.46581602 -1.744833
v 1.3654188 0.46581602 -3.1848457
v 1.6414311 0.46581602 -1.744833
v 0 0.95825016 -2.53684
v -1.3654188 0 -3.1848457
v -1.6414311 0 -1.744833
v 1.3654188 0 -3.1848457
v 1.3654188 0 -3.1848457
v -1.6414311 0 -1.744833
v 1.6414311 0 -1.744833
v -1.6414311 0.46581602 -1.744833
v 1.6414311 0.46581602 -1.744833
v 0 0.95825016 -1.0968274
v -1.6414311 0.46581602 -1.744833
v 0 0.95825016 -1.0968274
v -1.8258567 0.46581602 -0.30482054
v 1.6414311 0.46581602 -1.744833
v 1.8258567 0.46581602 -0.30482054
v 0 0.95825016 -1.0968274
v -1.6414311 0 -1.744833
v -1.8258567 0 -0.30482054
v 1.6414311 0 -1.744833
v 1.6414311 0 -1.744833
v -1.8258567 0 -0.30482054
v 1.8258567 0 -0.30482054
v -1.8258567 0.46581602 -0.30482054
v 1.8258567 0.46581602 -0.30482054
v 0 0.95825016 0.34318525
v -1.8258567 0.46581602 -0.30482054
v 0 0.95825016 0.34318525
v -1.8906183 0.46581602 1.1351924
v 1.8258567 0.46581602 -0.30482054
v 1.8906183 0.46581602 1.1351924
v 0 0.95825016 0.34318525
v -1.8258567 0 -0.30482054
v -1.8906183 0 1.1351924
v 1.8258567 0 -0.30482054
v 1.8258567 0 -0.30482054
v -1.8906183 0 1.1351924
v 1.8906183 0 1.1351924
v -1.8906183 0.46581602 1.1351924
v 1.8906183 0.46581602 1.1351924
v 0 0.95825016 1.7831981
v -1.8906183 0.46581602 1.1351924
v 0 0.95825016 1.7831981
v -1.8258567 0.46581602 2.5752053
v 1.8906183 0.46581602 1.1351924
v 1.8258567 0.46581602 2.5752053
v 0 0.95825016 1.7831981
v -1.8906183 0 1.1351924
v -1.8258567 0 2.5752053
v 1.8906183 0 1.1351924
v 1.8906183 0 1.1351924
v -1.8258567 0 2.5752053
v 1.8258567 0 2.5752053
v -1.8258567 0.46581602 2.5752053
v 1.8258567 0.46581602 2.5752053
v 0 0.95825016 3.2232108
v -1.8258567 0.46581602 2.5752053
v 0 0.95825016 3.2232108
v -1.6414311 0.46581602 4.0152173
v 1.8258567 0.46581602 2.5752053
v 1.6414311 0.46581602 4.0152173
v 0 0.95825016 3.2232108
v -1.8258567 0 2.5752053
v -1.6414311 0 4.0152173
v 1.8258567 0 2.5752053
v 1.8258567 0 2.5752053
v -1.6414311 0 4.0152173
v 1.6414311 0 4.0152173
v -1.6414311 0.46581602 4.0152173
v 1.6414311 0.46581602 4.0152173
v 0 0.95825016 4.6632233
v -1.6414311 0.46581602 4.0152173
v 0 0.95825016 4.6632233
v -0.9482074 0.46581602 5.45523
v 1.6414311 0.46581602 4.0152173
v 0.9482074 0.46581602 5.45523
v 0 0.95825016 4.6632233
v -1.6414311 0 4.0152173
v -0.9482074 0 5.45523
v 1.6414311 0 4.0152173
v 1.6414311 0 4.0152173
v -0.9482074 0 5.45523
v 0.9482074 0 5.45523
v -0.9482074 0.46581602 5.45523
v 0.9482074 0.46581602 5.45523
v 0 0.95825016 6.103236
v -0.9482074 0.46581602 5.45523
v 0 0.95825016 6.103236
v -0 0.46581602 6.895243
v 0.9482074 0.46581602 5.45523
v 0 0.46581602 6.895243
v 0 0.95825016 6.103236
v -0.9482074 0 5.45523
v -0 0 6.895243
v 0.9482074 0 5.45523
v 0.9482074 0 5.45523
v -0 0 6.895243
v 0 0 6.895243
v 0 1.0381043 -3.904852
v -0.15124947 0.82515985 -4.1317263
v 0.15124947 0.82515985 -4.1317263
v 0 1.0381043 -2.4648395
v -0.15124947 0.82515985 -2.6917136
v 0.15124947 0.82515985 -2.6917136
v 0 1.0381043 -1.0248265
v -0.15124947 0.82515985 -1.2517008
v 0.15124947 0.82515985 -1.2517008
v 0 1.0381043 0.41518593
v -0.15124947 0.82515985 0.18831174
v 0.15124947 0.82515985 0.18831174
v 0 1.0381043 1.8551989
v -0.15124947 0.82515985 1.6283246
v 0.15124947 0.82515985 1.6283246
v 0 1.0381043 3.2952113
v -0.15124947 0.82515985 3.0683372
v 0.15124947 0.82515985 3.0683372
v 0 1.0381043 4.7352242
v -0.15124947 0.82515985 4.50835
v 0.15124947 0.82515985 4.50835
v -0.7940597 0.37265283 -1.2613251
v 0.7940597 0.37265283 -1.2613251
v 0 0.5589792 -2.3544734
v -1.3690685 0.1478781 -4.5334578
v -1.9166958 0 -5.7382383
v -0.8214411 0 -5.7382383
v -0.45635617 0.1478781 -4.5334578
v -1.0039835 0 -5.7382383
v 0.09127122 0 -5.7382383
v 0.45635617 0.1478781 -4.5334578
v -0.09127122 0 -5.7382383
v 1.0039835 0 -5.7382383
v 1.3690685 0.1478781 -4.5334578
v 0.8214411 0 -5.7382383
v 1.9166958 0 -5.7382383
vn 0 -0.79619193 0.6050442
vn 0 -0.79619193 0.6050442
vn 0 -0.79619193 0.6050442
vn 0.3819368 -0.9201453 0.08635374
vn 0.3819368 -0.9201453 0.08635374
vn 0.3819368 -0.9201453 0.08635374
vn -0.3819368 -0.9201453 0.08635374
vn -0.3819368 -0.9201453 0.08635374
vn -0.3819368 -0.9201453 0.08635374
vn 0 1 -0
vn 0 1 -0
vn 0 1 -0
vn 0 1 -0
vn 0 1 -0
vn 0 1 -0
vn 0 -0.7961919 0.6050441
vn 0 -0.7961919 0.6050441
vn 0 -0.7961919 0.6050441
vn 0.3133042 -0.9477522 0.06005212
vn 0.3133042 -0.9477522 0.06005212
vn 0.3133042 -0.9477522 0.06005212
vn -0.3133042 -0.9477522 0.06005212
vn -0.3133042 -0.9477522 0.06005212
vn -0.3133042 -0.9477522 0.06005212
vn 0 1 -0
vn 0 1 -0
vn 0 1 -0
vn 0 0.99999994 -0
vn 0 0.99999994 -0
vn 0 0.99999994 -0
vn 0 -0.7961919 0.60504425
vn 0 -0.7961919 0.60504425
vn 0 -0.7961919 0.60504425
vn 0.27441847 -0.96096796 0.035145383
vn 0.27441847 -0.96096796 0.035145383
vn 0.27441847 -0.96096796 0.035145383
vn -0.27441847 -0.96096796 0.035145383
vn -0.27441847 -0.96096796 0.035145383
vn -0.27441847 -0.96096796 0.035145383
vn 0 1 -0
vn 0 1 -0
vn 0 1 -0
vn 0 1 -0
vn 0 1 -0
vn 0 1 -0
vn 0 -0.796192 0.6050442
vn 0 -0.796192 0.6050442
vn 0 -0.796192 0.6050442
vn 0.25655946 -0.9664596 0.011538238
vn 0.25655946 -0.9664596 0.011538238
vn 0.25655946 -0.9664596 0.011538238
vn -0.25655946 -0.9664596 0.011538238
vn -0.25655946 -0.9664596 0.011538238
vn -0.25655946 -0.9664596 0.011538238
vn 0 1 -0
vn 0 1 -0
vn 0 1 -0
vn 0 1 -0
vn 0 1 -0
vn 0 1 -0
vn 0 -0.7961919 0.6050441
vn 0 -0.7961919 0.6050441
vn 0 -0.7961919 0.6050441
vn 0.25572547 -0.966681 -0.011500731
vn 0.25572547 -0.966681 -0.011500731
vn 0.25572547 -0.966681 -0.011500731
vn -0.25572547 -0.966681 -0.011500731
vn -0.25572547 -0.966681 -0.011500731
vn -0.25572547 -0.966681 -0.011500731
vn 0 1 0
vn 0 1 0
vn 0 1 0
vn 0 0.99999994 0
vn 0 0.99999994 0
vn 0 0.99999994 0
vn 0 -0.7961918 0.6050443
vn 0 -0.7961918 0.6050443
vn 0 -0.7961918 0.6050443
vn 0.27173364 -0.961743 -0.034801543
vn 0.27173364 -0.961743 -0.034801543
vn 0.27173364 -0.961743 -0.034801543
vn -0.27173364 -0.961743 -0.034801543
vn -0.27173364 -0.961743 -0.034801543
vn -0.27173364 -0.961743 -0.034801543
vn 0 1 0
vn 0 1 0
vn 0 1 0
vn 0 1 0
vn 0 1 0
vn 0 1 0
vn 0 -0.796192 0.605044
vn 0 -0.796192 0.605044
vn 0 -0.796192 0.605044
vn 0.34257945 -0.9249007 -0.16491812
vn 0.34257945 -0.9249007 -0.16491812
vn 0.34257945 -0.9249007 -0.16491812
vn -0.34257945 -0.9249007 -0.16491812
vn -0.34257945 -0.9249007 -0.16491812
vn -0.34257945 -0.9249007 -0.16491812
vn 0 1 0
vn 0 1 0
vn 0 1 0
vn 0 1 0
vn 0 1 0
vn 0 1 0
vn 0 -0.796192 0.605044
vn 0 -0.796192 0.605044
vn 0 -0.796192 0.605044
vn 0.6255895 -0.6625325 -0.4119328
vn 0.6255895 -0.6625325 -0.4119328
vn 0.6255895 -0.6625325 -0.4119328
vn -0.6255895 -0.6625325 -0.4119328
vn -0.6255895 -0.6625325 -0.4119328
vn -0.6255895 -0.6625325 -0.4119328
vn 0 1 0
vn 0 1 0
vn 0 1 0
vn 0 1 0
vn 0 1 0
vn 0 1 0
vn 0 -0.7291366 0.6843682
vn 0 -0.7291366 0.6843682
vn 0 -0.7291366 0.6843682
vn 0 -0.7291362 0.6843686
vn 0 -0.7291362 0.6843686
vn 0 -0.7291362 0.6843686
vn 0 -0.7291364 0.68436843
vn 0 -0.7291364 0.68436843
vn 0 -0.7291364 0.68436843
vn 0 -0.72913635 0.6843685
vn 0 -0.72913635 0.6843685
vn 0 -0.72913635 0.6843685
vn 0 -0.7291364 0.68436843
vn 0 -0.7291364 0.68436843
vn 0 -0.7291364 0.68436843
vn 0 -0.7291362 0.6843686
vn 0 -0.7291362 0.6843686
vn 0 -0.7291362 0.6843686
vn 0 -0.7291366 0.6843682
vn 0 -0.7291366 0.6843682
vn 0 -0.7291366 0.6843682
vn -0 0.9857826 0.16802599
vn -0 0.9857826 0.16802599
vn -0 0.9857826 0.16802599
vn 0 -0.99255115 0.12182846
vn 0 -0.99255115 0.12182846
vn 0 -0.99255115 0.12182846
vn 0 -0.99255115 0.12182846
vn 0 -0.99255115 0.12182846
vn 0 -0.99255115 0.12182846
vn 0 -0.99255115 0.12182846
vn 0 -0.99255115 0.12182846
vn 0 -0.99255115 0.12182846
vn 0 -0.99255115 0.12182846
vn 0 -0.99255115 0.12182846
vn 0 -0.99255115 0.12182846
f 1//1 2//2 3//3
f 4//4 5//5 6//6
f 7//7 8//8 9//9
f 10//10 11//11 12//12
f 13//13 14//14 15//15
f 16//16 17//17 18//18
f 19//19 20//20 21//21
f 22//22 23//23 24//24
f 25//25 26//26 27//27
f 28//28 29//29 30//30
f 31//31 32//32 33//33
f 34//34 35//35 36//36
f 37//37 38//38 39//39
f 40//40 41//41 42//42
f 43//43 44//44 45//45
f 46//46 47//47 48//48
f 49//49 50//50 51//51
f 52//52 53//53 54//54
f 55//55 56//56 57//57
f 58//58 59//59 60//60
f 61//61 62//62 63//63
f 64//64 65//65 66//66
f 67//67 68//68 69//69
f 70//70 71//71 72//72
f 73//73 74//74 75//75
f 76//76 77//77 78//78
f 79//79 80//80 81//81
f 82//82 83//83 84//84
f 85//85 86//86 87//87
f 88//88 89//89 90//90
f 91//91 92//92 93//93
f 94//94 95//95 96//96
f 97//97 98//98 99//99
f 100//100 101//101 102//102
f 103//103 104//104 105//105
f 106//106 107//107 108//108
f 109//109 110//110 111//111
f 112//112 113//113 114//114
f 115//115 116//116 117//117
f 118//118 119//119 120//120
f 121//121 122//122 123//123
f 124//124 125//125 126//126
f 127//127 128//128 129//129
f 130//130 131//131 132//132
f 133//133 134//134 135//135
f 136//136 137//137 138//138
f 139//139 140//140 141//141
f 142//142 143//143 144//144
f 145//145 146//146 147//147
f 148//148 149//149 150//150
f 151//151 152//152 153//153
f 154//154 155//155 156//156
