# Exported from SharpOpenGl procedural mesh
o vesper_destroyer_bulwark_58
# vertices 339
v -0.37176254 0 -3.0125396
v 0.37176254 0 -3.0125396
v 0.37176254 0.3886565 -3.0125396
v -0.37176254 0 -3.0125396
v 0.37176254 0.3886565 -3.0125396
v -0.37176254 0.3886565 -3.0125396
v -0.37176254 0 4.330526
v 0.37176254 0.3886565 4.330526
v 0.37176254 0 4.330526
v -0.37176254 0 4.330526
v -0.37176254 0.3886565 4.330526
v 0.37176254 0.3886565 4.330526
v -0.17609806 0.53440267 0.18828373
v 0.17609806 0.53440267 0.18828373
v 0.17609806 0.7044399 0.18828373
v -0.17609806 0.53440267 0.18828373
v 0.17609806 0.7044399 0.18828373
v -0.17609806 0.7044399 0.18828373
v -0.17609806 0.53440267 1.6945536
v 0.17609806 0.7044399 1.6945536
v 0.17609806 0.53440267 1.6945536
v -0.17609806 0.53440267 1.6945536
v -0.17609806 0.7044399 1.6945536
v 0.17609806 0.7044399 1.6945536
v -0.17609806 0.53440267 0.18828373
v -0.17609806 0.53440267 1.6945536
v 0.17609806 0.53440267 1.6945536
v -0.17609806 0.53440267 0.18828373
v 0.17609806 0.53440267 1.6945536
v 0.17609806 0.53440267 0.18828373
v -0.17609806 0.7044399 0.18828373
v 0.17609806 0.7044399 1.6945536
v -0.17609806 0.7044399 1.6945536
v -0.17609806 0.7044399 0.18828373
v 0.17609806 0.7044399 0.18828373
v 0.17609806 0.7044399 1.6945536
v -0.1173987 0.7044399 0.56485116
v 0.1173987 0.7044399 0.56485116
v 0.1173987 0.8987682 0.56485116
v -0.1173987 0.7044399 0.56485116
v 0.1173987 0.8987682 0.56485116
v -0.1173987 0.8987682 0.56485116
v -0.1173987 0.7044399 1.3179861
v 0.1173987 0.8987682 1.3179861
v 0.1173987 0.7044399 1.3179861
v -0.1173987 0.7044399 1.3179861
v -0.1173987 0.8987682 1.3179861
v 0.1173987 0.8987682 1.3179861
v -0.1173987 0.7044399 0.56485116
v -0.1173987 0.7044399 1.3179861
v 0.1173987 0.7044399 1.3179861
v -0.1173987 0.7044399 0.56485116
v 0.1173987 0.7044399 1.3179861
v 0.1173987 0.7044399 0.56485116
v -0.1173987 0.8987682 0.56485116
v 0.1173987 0.8987682 1.3179861
v -0.1173987 0.8987682 1.3179861
v -0.1173987 0.8987682 0.56485116
v 0.1173987 0.8987682 0.56485116
v 0.1173987 0.8987682 1.3179861
v -0.1173987 0.7044399 0.56485116
v -0.1173987 0.8987682 0.56485116
v -0.1173987 0.8987682 1.3179861
v -0.1173987 0.7044399 0.56485116
v -0.1173987 0.8987682 1.3179861
v -0.1173987 0.7044399 1.3179861
v 0.1173987 0.7044399 0.56485116
v 0.1173987 0.7044399 1.3179861
v 0.1173987 0.8987682 1.3179861
v 0.1173987 0.7044399 0.56485116
v 0.1173987 0.8987682 1.3179861
v 0.1173987 0.8987682 0.56485116
v -0.25436383 0.17003722 8.002059
v 0.25436383 0.17003722 8.002059
v 0 0.5586937 8.947243
v -0.17609805 0 8.002059
v 0 0.17003722 8.574441
v 0.17609805 0 8.002059
v -1.8783792 0.19432825 3.3891072
v -1.6631482 0.29149237 -0.28242558
v -0.2739303 0.19432825 0.18828373
v -0.2739303 0 0.18828373
v -1.6631482 0.29149237 -0.28242558
v -1.6631482 0 -0.28242558
v -0.2739303 0 0.18828373
v -1.6631482 0 -0.28242558
v -0.2739303 0 3.3891072
v 1.8783792 0.19432825 3.3891072
v 1.6631482 0.29149237 -0.28242558
v 0.2739303 0.19432825 0.18828373
v 0.2739303 0 0.18828373
v 1.6631482 0.29149237 -0.28242558
v 1.6631482 0 -0.28242558
v 0.2739303 0 0.18828373
v 1.6631482 0 -0.28242558
v 0.2739303 0 3.3891072
v -1.6631482 0.29149237 -0.28242558
v -1.6435817 0.32792893 -0.47070932
v -1.6631482 0.24291031 -0.37656745
v 1.6631482 0.29149237 -0.28242558
v 1.6435817 0.32792893 -0.47070932
v 1.6631482 0.24291031 -0.37656745
v -0.1173987 0.097164124 6.7782145
v 0.1173987 0.097164124 6.7782145
v 0.1173987 0.21861929 6.7782145
v -0.1173987 0.097164124 6.7782145
v 0.1173987 0.21861929 6.7782145
v -0.1173987 0.21861929 6.7782145
v -0.1173987 0.097164124 8.284484
v 0.1173987 0.21861929 8.284484
v 0.1173987 0.097164124 8.284484
v -0.1173987 0.097164124 8.284484
v -0.1173987 0.21861929 8.284484
v 0.1173987 0.21861929 8.284484
v -0.0391329 0.7044399 4.5188093
v 0.0391329 0.7044399 4.5188093
v 0.0391329 0.8016041 4.5188093
v -0.0391329 0.7044399 4.5188093
v 0.0391329 0.8016041 4.5188093
v -0.0391329 0.8016041 4.5188093
v -0.0391329 0.7044399 5.2719445
v 0.0391329 0.8016041 5.2719445
v 0.0391329 0.7044399 5.2719445
v -0.0391329 0.7044399 5.2719445
v -0.0391329 0.8016041 5.2719445
v 0.0391329 0.8016041 5.2719445
v -0.048916128 0.65585786 1.6945536
v 0.048916128 0.65585786 1.6945536
v 0 0.728731 1.7698671
v -0.048916128 0.70443994 3.5773907
v 0.048916128 0.70443994 3.5773907
v 0 0.77731305 3.6527042
v -0.048916128 0.75302196 5.460228
v 0.048916128 0.75302196 5.460228
v 0 0.8258951 5.5355415
v 0 0.69229436 -1.459199
v -0.0782658 0.5161844 -1.7886955
v 0.0782658 0.5161844 -1.7886955
v 0 0.7165854 0.89434767
v -0.0782658 0.5283299 0.56485116
v 0.0782658 0.5283299 0.56485116
v 0 0.7408765 3.247894
v -0.0782658 0.5404754 2.9183974
v 0.0782658 0.5404754 2.9183974
v 0 0.7651675 5.6014414
v -0.0782658 0.55262095 5.271945
v 0.0782658 0.55262095 5.271945
v -0.29349676 0 -2.824256
v -0.13696516 0 -2.824256
v -0.13696516 0.21861929 -2.824256
v -0.29349676 0 -2.824256
v -0.13696516 0.21861929 -2.824256
v -0.29349676 0.21861929 -2.824256
v -0.29349676 0 -1.5062698
v -0.13696516 0.21861929 -1.5062698
v -0.13696516 0 -1.5062698
v -0.29349676 0 -1.5062698
v -0.29349676 0.21861929 -1.5062698
v -0.13696516 0.21861929 -1.5062698
v -0.25827715 0.024291031 -3.0125396
v -0.17218477 0.024291031 -3.0125396
v -0.17218477 0.14574619 -3.0125396
v -0.25827715 0.024291031 -3.0125396
v -0.17218477 0.14574619 -3.0125396
v -0.25827715 0.14574619 -3.0125396
v -0.25827715 0.024291031 -1.8828373
v -0.17218477 0.14574619 -1.8828373
v -0.17218477 0.024291031 -1.8828373
v -0.25827715 0.024291031 -1.8828373
v -0.25827715 0.14574619 -1.8828373
v -0.17218477 0.14574619 -1.8828373
v 0.13696516 0 -2.824256
v 0.29349676 0 -2.824256
v 0.29349676 0.21861929 -2.824256
v 0.13696516 0 -2.824256
v 0.29349676 0.21861929 -2.824256
v 0.13696516 0.21861929 -2.824256
v 0.13696516 0 -1.5062698
v 0.29349676 0.21861929 -1.5062698
v 0.29349676 0 -1.5062698
v 0.13696516 0 -1.5062698
v 0.13696516 0.21861929 -1.5062698
v 0.29349676 0.21861929 -1.5062698
v 0.17218477 0.024291031 -3.0125396
v 0.25827715 0.024291031 -3.0125396
v 0.25827715 0.14574619 -3.0125396
v 0.17218477 0.024291031 -3.0125396
v 0.25827715 0.14574619 -3.0125396
v 0.17218477 0.14574619 -3.0125396
v 0.17218477 0.024291031 -1.8828373
v 0.25827715 0.14574619 -1.8828373
v 0.25827715 0.024291031 -1.8828373
v 0.17218477 0.024291031 -1.8828373
v 0.17218477 0.14574619 -1.8828373
v 0.25827715 0.14574619 -1.8828373
v -0.0782658 0.75302196 0.56485116
v 0.0782658 0.75302196 0.56485116
v 0.0782658 0.8987682 0.56485116
v -0.0782658 0.75302196 0.56485116
v 0.0782658 0.8987682 0.56485116
v -0.0782658 0.8987682 0.56485116
v -0.0782658 0.75302196 1.1297023
v 0.0782658 0.8987682 1.1297023
v 0.0782658 0.75302196 1.1297023
v -0.0782658 0.75302196 1.1297023
v -0.0782658 0.8987682 1.1297023
v 0.0782658 0.8987682 1.1297023
v -0.0782658 0.75302196 0.56485116
v -0.0782658 0.75302196 1.1297023
v 0.0782658 0.75302196 1.1297023
v -0.0782658 0.75302196 0.56485116
v 0.0782658 0.75302196 1.1297023
v 0.0782658 0.75302196 0.56485116
v -0.0782658 0.8987682 0.56485116
v 0.0782658 0.8987682 1.1297023
v -0.0782658 0.8987682 1.1297023
v -0.0782658 0.8987682 0.56485116
v 0.0782658 0.8987682 0.56485116
v 0.0782658 0.8987682 1.1297023
v -0.0782658 0.75302196 0.56485116
v -0.0782658 0.8987682 0.56485116
v -0.0782658 0.8987682 1.1297023
v -0.0782658 0.75302196 0.56485116
v -0.0782658 0.8987682 1.1297023
v -0.0782658 0.75302196 1.1297023
v 0.0782658 0.75302196 0.56485116
v 0.0782658 0.75302196 1.1297023
v 0.0782658 0.8987682 1.1297023
v 0.0782658 0.75302196 0.56485116
v 0.0782658 0.8987682 1.1297023
v 0.0782658 0.8987682 0.56485116
v 0 0.6801489 0.7531349
v -0.097832255 0.53440267 0.56485116
v 0.097832255 0.53440267 0.56485116
v 0 0.6983671 2.165263
v -0.097832255 0.5465482 1.9769793
v 0.097832255 0.5465482 1.9769793
v 0 0.7165854 3.5773911
v -0.097832255 0.5586937 3.3891075
v 0.097832255 0.5586937 3.3891075
v 0 0.73480374 4.989519
v -0.097832255 0.5708392 4.801235
v 0.097832255 0.5708392 4.801235
v 0 0.75302196 6.401647
v -0.097832255 0.58298475 6.213363
v 0.097832255 0.58298475 6.213363
v -1.9370786 0.21861929 1.8828373
v -1.8979456 0.19432825 1.9393225
v -1.9370786 0.17003722 1.9769791
v -1.9370786 0.24291031 3.2008235
v -1.8979456 0.21861927 3.2573087
v -1.9370786 0.19432825 3.2949655
v -1.9370786 0.26720133 4.51881
v -1.8979456 0.2429103 4.575295
v -1.9370786 0.21861929 4.6129518
v -1.9370786 0.2914924 5.836796
v -1.8979456 0.26720133 5.893281
v -1.9370786 0.24291031 5.930938
v 1.9370786 0.21861929 1.8828373
v 1.8979456 0.19432825 1.9393225
v 1.9370786 0.17003722 1.9769791
v 1.9370786 0.24291031 3.2008235
v 1.8979456 0.21861927 3.2573087
v 1.9370786 0.19432825 3.2949655
v 1.9370786 0.26720133 4.51881
v 1.8979456 0.2429103 4.575295
v 1.9370786 0.21861929 4.6129518
v 1.9370786 0.2914924 5.836796
v 1.8979456 0.26720133 5.893281
v 1.9370786 0.24291031 5.930938
v -0.021523096 0.53440267 7.531349
v 0.021523096 0.53440267 7.531349
v 0 0.6801489 7.7196326
v -0.025436386 0.6072758 1.6945536
v 0.025436386 0.6072758 1.6945536
v 0 0.6801489 1.7604529
v -0.025436386 0.6801489 4.142242
v 0.025436386 0.6801489 4.142242
v 0 0.75302196 4.2081413
v -1.7414141 0.26720133 1.3179861
v -1.7120644 0.31578338 1.6945536
v -1.7414141 0.21861929 1.5062698
v 1.7414141 0.26720133 1.3179861
v 1.7120644 0.31578338 1.6945536
v 1.7414141 0.21861929 1.5062698
v -0.29349676 0.060727578 -0.94141865
v 0.29349676 0.060727578 -0.94141865
v 0 0.17003722 -0.8472768
v -0.24458063 0.060727578 0.8472768
v 0.24458063 0.060727578 0.8472768
v 0 0.17003722 0.94141865
v -0.19566451 0.060727578 2.6359723
v 0.19566451 0.060727578 2.6359723
v 0 0.17003722 2.7301142
v -0.25436383 0.036436547 -0.56485116
v 0.25436383 0.036436547 -0.56485116
v 0 0.121455155 -0.48953766
v -0.1565316 0.036436547 1.8828374
v 0.1565316 0.036436547 1.8828374
v 0 0.121455155 1.9581509
v -0.33262965 0.24291031 0.7531349
v -0.29349676 0.29149237 0.84727675
v -0.33262965 0.19432825 0.86610514
v -0.33262965 0.24291031 2.2594047
v -0.29349676 0.29149237 2.3535466
v -0.33262965 0.19432825 2.372375
v 0.33262965 0.24291031 0.7531349
v 0.29349676 0.29149237 0.84727675
v 0.33262965 0.19432825 0.86610514
v 0.33262965 0.24291031 2.2594047
v 0.29349676 0.29149237 2.3535466
v 0.33262965 0.19432825 2.372375
v -0.13696516 0.6072758 0.94141865
v 0.13696516 0.6072758 0.94141865
v 0 0.6801489 1.0167321
v -0.110876545 0.63156676 2.4476886
v 0.110876545 0.63156676 2.4476886
v 0 0.7044399 2.5230021
v -0.08478795 0.65585786 3.9539583
v 0.08478795 0.65585786 3.9539583
v 0 0.728731 4.0292716
v -0.0391329 0.7044399 2.2594047
v 0.0391329 0.7044399 2.2594047
v 0 0.777313 2.3158898
v -0.0391329 0.7287309 3.5773907
v 0.0391329 0.7287309 3.5773907
v 0 0.801604 3.6338758
v -0.0391329 0.75302196 4.8953767
v 0.0391329 0.75302196 4.8953767
v 0 0.8258951 4.951862
v -0.50872767 0.17003722 6.401647
v -0.45981154 0.097164124 6.7782145
v -0.50872767 0.07287309 6.5899305
v 0.50872767 0.17003722 6.401647
v 0.45981154 0.097164124 6.7782145
v 0.50872767 0.07287309 6.5899305
v -0.05869935 0.9473502 0.7531349
v 0.05869935 0.9473502 0.7531349
v 0 1.0202233 1.0355605
vn 0 0 1
vn 0 0 1
vn 0 0 1
vn 0 0 1
vn 0 0 1
vn 0 0 1
vn 0 0 -1
vn 0 0 -1
vn 0 0 -1
vn 0 0 -1
vn 0 0 -1
vn 0 0 -1
vn 0 0 1
vn 0 0 1
vn 0 0 1
vn 0 0 1
vn 0 0 1
vn 0 0 1
vn 0 0 -1
vn 0 0 -1
vn 0 0 -1
vn 0 0 -1
vn 0 0 -1
vn 0 0 -1
vn 0 1 0
vn 0 1 0
vn 0 1 0
vn 0 1 0
vn 0 1 0
vn 0 1 0
vn 0 -1 0
vn 0 -1 0
vn 0 -1 0
vn 0 -1 0
vn 0 -1 0
vn 0 -1 0
vn 0 0 1
vn 0 0 1
vn 0 0 1
vn 0 0 1
vn 0 0 1
vn 0 0 1
vn 0 0 -1
vn 0 0 -1
vn 0 0 -1
vn 0 0 -1
vn 0 0 -1
vn 0 0 -1
vn 0 1 0
vn 0 1 0
vn 0 1 0
vn 0 1 0
vn 0 1 0
vn 0 1 0
vn 0 -1 0
vn 0 -1 0
vn 0 -1 0
vn 0 -1 0
vn 0 -1 0
vn 0 -1 0
vn 1 0 0
vn 1 0 0
vn 1 0 0
vn 1 0 0
vn 1 0 0
vn 1 0 0
vn -1 0 0
vn -1 0 0
vn -1 0 0
vn -1 0 0
vn -1 0 0
vn -1 0 0
vn 0 -0.92486286 0.3803006
vn 0 -0.92486286 0.3803006
vn 0 -0.92486286 0.3803006
vn 0 0.958596 -0.28476962
vn 0 0.958596 -0.28476962
vn 0 0.958596 -0.28476962
vn -0.05965393 -0.99777114 -0.029902207
vn -0.05965393 -0.99777114 -0.029902207
vn -0.05965393 -0.99777114 -0.029902207
vn -0.32090965 0 0.9471098
vn -0.32090965 0 0.9471098
vn -0.32090965 0 0.9471098
vn 0 1 -0
vn 0 1 -0
vn 0 1 -0
vn -0.05965393 0.99777114 0.029902207
vn -0.05965393 0.99777114 0.029902207
vn -0.05965393 0.99777114 0.029902207
vn -0.32090965 0 -0.9471098
vn -0.32090965 0 -0.9471098
vn -0.32090965 0 -0.9471098
vn 0 -1 0
vn 0 -1 0
vn 0 -1 0
vn -0.98669 0.14450516 -0.074572116
vn -0.98669 0.14450516 -0.074572116
vn -0.98669 0.14450516 -0.074572116
vn -0.98669 -0.14450516 0.074572116
vn -0.98669 -0.14450516 0.074572116
vn -0.98669 -0.14450516 0.074572116
vn 0 0 1
vn 0 0 1
vn 0 0 1
vn 0 0 1
vn 0 0 1
vn 0 0 1
vn 0 0 -1
vn 0 0 -1
vn 0 0 -1
vn 0 0 -1
vn 0 0 -1
vn 0 0 -1
vn 0 0 0.99999994
vn 0 0 0.99999994
vn 0 0 0.99999994
vn 0 0 0.99999994
vn 0 0 0.99999994
vn 0 0 0.99999994
vn 0 0 -0.99999994
vn 0 0 -0.99999994
vn 0 0 -0.99999994
vn 0 0 -0.99999994
vn 0 0 -0.99999994
vn 0 0 -0.99999994
vn 0 -0.718654 0.6953679
vn 0 -0.718654 0.6953679
vn 0 -0.718654 0.6953679
vn 0 -0.71865445 0.6953673
vn 0 -0.71865445 0.6953673
vn 0 -0.71865445 0.6953673
vn 0 -0.71865445 0.6953673
vn 0 -0.71865445 0.6953673
vn 0 -0.71865445 0.6953673
vn 0 -0.881932 0.47137684
vn 0 -0.881932 0.47137684
vn 0 -0.881932 0.47137684
vn 0 -0.86827517 0.49608284
vn 0 -0.86827517 0.49608284
vn 0 -0.86827517 0.49608284
vn 0 -0.85438514 0.51964027
vn 0 -0.85438514 0.51964027
vn 0 -0.85438514 0.51964027
vn 0 -0.8403336 0.5420696
vn 0 -0.8403336 0.5420696
vn 0 -0.8403336 0.5420696
vn 0 0 1
vn 0 0 1
vn 0 0 1
vn 0 0 1
vn 0 0 1
vn 0 0 1
vn 0 0 -1
vn 0 0 -1
vn 0 0 -1
vn 0 0 -1
vn 0 0 -1
vn 0 0 -1
vn 0 0 1
vn 0 0 1
vn 0 0 1
vn 0 0 1
vn 0 0 1
vn 0 0 1
vn 0 0 -1
vn 0 0 -1
vn 0 0 -1
vn 0 0 -1
vn 0 0 -1
vn 0 0 -1
vn 0 0 1
vn 0 0 1
vn 0 0 1
vn 0 0 1
vn 0 0 1
vn 0 0 1
vn 0 0 -1
vn 0 0 -1
vn 0 0 -1
vn 0 0 -1
vn 0 0 -1
vn 0 0 -1
vn 0 0 1
vn 0 0 1
vn 0 0 1
vn 0 0 1
vn 0 0 1
vn 0 0 1
vn 0 0 -1
vn 0 0 -1
vn 0 0 -1
vn 0 0 -1
vn 0 0 -1
vn 0 0 -1
vn 0 0 1
vn 0 0 1
vn 0 0 1
vn 0 0 1
vn 0 0 1
vn 0 0 1
vn 0 0 -1
vn 0 0 -1
vn 0 0 -1
vn 0 0 -1
vn 0 0 -1
vn 0 0 -1
vn 0 1 0
vn 0 1 0
vn 0 1 0
vn 0 1 0
vn 0 1 0
vn 0 1 0
vn 0 -1 0
vn 0 -1 0
vn 0 -1 0
vn 0 -1 0
vn 0 -1 0
vn 0 -1 0
vn 1 0 0
vn 1 0 0
vn 1 0 0
vn 1 0 0
vn 1 0 0
vn 1 0 0
vn -1 0 0
vn -1 0 0
vn -1 0 0
vn -1 0 0
vn -1 0 0
vn -1 0 0
vn 0 -0.790768 0.61211586
vn 0 -0.790768 0.61211586
vn 0 -0.790768 0.61211586
vn 0 -0.77845895 0.6276954
vn 0 -0.77845895 0.6276954
vn 0 -0.77845895 0.6276954
vn 0 -0.7662389 0.6425557
vn 0 -0.7662389 0.6425557
vn 0 -0.7662389 0.6425557
vn 0 -0.75413066 0.6567245
vn 0 -0.75413066 0.6567245
vn 0 -0.75413066 0.6567245
vn 0 -0.7421529 0.6702305
vn 0 -0.7421529 0.6702305
vn 0 -0.7421529 0.6702305
vn 0.10965772 -0.8832895 -0.4558231
vn 0.10965772 -0.8832895 -0.4558231
vn 0.10965772 -0.8832895 -0.4558231
vn 0.1096569 -0.8832899 -0.4558227
vn 0.1096569 -0.8832899 -0.4558227
vn 0.1096569 -0.8832899 -0.4558227
vn 0.109656684 -0.88329 -0.45582262
vn 0.109656684 -0.88329 -0.45582262
vn 0.109656684 -0.88329 -0.45582262
vn 0.1096566 -0.88328975 -0.4558229
vn 0.1096566 -0.88328975 -0.4558229
vn 0.1096566 -0.88328975 -0.4558229
vn 0.10965772 0.8832895 0.4558231
vn 0.10965772 0.8832895 0.4558231
vn 0.10965772 0.8832895 0.4558231
vn 0.1096569 0.8832899 0.4558227
vn 0.1096569 0.8832899 0.4558227
vn 0.1096569 0.8832899 0.4558227
vn 0.109656684 0.88329 0.45582262
vn 0.109656684 0.88329 0.45582262
vn 0.109656684 0.88329 0.45582262
vn 0.1096566 0.88328975 0.4558229
vn 0.1096566 0.88328975 0.4558229
vn 0.1096566 0.88328975 0.4558229
vn 0 -0.7907676 0.61211646
vn 0 -0.7907676 0.61211646
vn 0 -0.7907676 0.61211646
vn 0 -0.6707254 0.7417057
vn 0 -0.6707254 0.7417057
vn 0 -0.6707254 0.7417057
vn 0 -0.67072636 0.7417048
vn 0 -0.67072636 0.7417048
vn 0 -0.67072636 0.7417048
vn 0.9790512 -0.19715676 -0.050871532
vn 0.9790512 -0.19715676 -0.050871532
vn 0.9790512 -0.19715676 -0.050871532
vn 0.9790512 0.19715676 0.050871532
vn 0.9790512 0.19715676 0.050871532
vn 0.9790512 0.19715676 0.050871532
vn 0 -0.65257925 0.7577205
vn 0 -0.65257925 0.7577205
vn 0 -0.65257925 0.7577205
vn 0 -0.6525792 0.7577205
vn 0 -0.6525792 0.7577205
vn 0 -0.6525792 0.7577205
vn 0 -0.6525797 0.7577202
vn 0 -0.6525797 0.7577202
vn 0 -0.6525797 0.7577202
vn 0 -0.66309106 0.74853873
vn 0 -0.66309106 0.74853873
vn 0 -0.66309106 0.74853873
vn 0 -0.6630907 0.748539
vn 0 -0.6630907 0.748539
vn 0 -0.6630907 0.748539
vn 0.9021313 -0.39636418 -0.17045367
vn 0.9021313 -0.39636418 -0.17045367
vn 0.9021313 -0.39636418 -0.17045367
vn 0.9021314 -0.39636412 -0.17045344
vn 0.9021314 -0.39636412 -0.17045344
vn 0.9021314 -0.39636412 -0.17045344
vn 0.9021313 0.39636418 0.17045367
vn 0.9021313 0.39636418 0.17045367
vn 0.9021313 0.39636418 0.17045367
vn 0.9021314 0.39636412 0.17045344
vn 0.9021314 0.39636412 0.17045344
vn 0.9021314 0.39636412 0.17045344
vn 0 -0.718654 0.6953679
vn 0 -0.718654 0.6953679
vn 0 -0.718654 0.6953679
vn 0 -0.7186545 0.6953673
vn 0 -0.7186545 0.6953673
vn 0 -0.7186545 0.6953673
vn 0 -0.7186534 0.6953684
vn 0 -0.7186534 0.6953684
vn 0 -0.7186534 0.6953684
vn 0 -0.61262935 0.79037035
vn 0 -0.61262935 0.79037035
vn 0 -0.61262935 0.79037035
vn 0 -0.61262965 0.79037017
vn 0 -0.61262965 0.79037017
vn 0 -0.61262965 0.79037017
vn 0 -0.61262935 0.79037035
vn 0 -0.61262935 0.79037035
vn 0 -0.61262935 0.79037035
vn 0.910822 -0.36683333 -0.18930523
vn 0.910822 -0.36683333 -0.18930523
vn 0.910822 -0.36683333 -0.18930523
vn 0.910822 0.36683333 0.18930523
vn 0.910822 0.36683333 0.18930523
vn 0.910822 0.36683333 0.18930523
vn 0 -0.9682864 0.24984278
vn 0 -0.9682864 0.24984278
vn 0 -0.9682864 0.24984278
f 1//1 2//2 3//3
f 4//4 5//5 6//6
f 7//7 8//8 9//9
f 10//10 11//11 12//12
f 13//13 14//14 15//15
f 16//16 17//17 18//18
f 19//19 20//20 21//21
f 22//22 23//23 24//24
f 25//25 26//26 27//27
f 28//28 29//29 30//30
f 31//31 32//32 33//33
f 34//34 35//35 36//36
f 37//37 38//38 39//39
f 40//40 41//41 42//42
f 43//43 44//44 45//45
f 46//46 47//47 48//48
f 49//49 50//50 51//51
f 52//52 53//53 54//54
f 55//55 56//56 57//57
f 58//58 59//59 60//60
f 61//61 62//62 63//63
f 64//64 65//65 66//66
f 67//67 68//68 69//69
f 70//70 71//71 72//72
f 73//73 74//74 75//75
f 76//76 77//77 78//78
f 79//79 80//80 81//81
f 82//82 83//83 84//84
f 85//85 86//86 87//87
f 88//88 89//89 90//90
f 91//91 92//92 93//93
f 94//94 95//95 96//96
f 97//97 98//98 99//99
f 100//100 101//101 102//102
f 103//103 104//104 105//105
f 106//106 107//107 108//108
f 109//109 110//110 111//111
f 112//112 113//113 114//114
f 115//115 116//116 117//117
f 118//118 119//119 120//120
f 121//121 122//122 123//123
f 124//124 125//125 126//126
f 127//127 128//128 129//129
f 130//130 131//131 132//132
f 133//133 134//134 135//135
f 136//136 137//137 138//138
f 139//139 140//140 141//141
f 142//142 143//143 144//144
f 145//145 146//146 147//147
f 148//148 149//149 150//150
f 151//151 152//152 153//153
f 154//154 155//155 156//156
f 157//157 158//158 159//159
f 160//160 161//161 162//162
f 163//163 164//164 165//165
f 166//166 167//167 168//168
f 169//169 170//170 171//171
f 172//172 173//173 174//174
f 175//175 176//176 177//177
f 178//178 179//179 180//180
f 181//181 182//182 183//183
f 184//184 185//185 186//186
f 187//187 188//188 189//189
f 190//190 191//191 192//192
f 193//193 194//194 195//195
f 196//196 197//197 198//198
f 199//199 200//200 201//201
f 202//202 203//203 204//204
f 205//205 206//206 207//207
f 208//208 209//209 210//210
f 211//211 212//212 213//213
f 214//214 215//215 216//216
f 217//217 218//218 219//219
f 220//220 221//221 222//222
f 223//223 224//224 225//225
f 226//226 227//227 228//228
f 229//229 230//230 231//231
f 232//232 233//233 234//234
f 235//235 236//236 237//237
f 238//238 239//239 240//240
f 241//241 242//242 243//243
f 244//244 245//245 246//246
f 247//247 248//248 249//249
f 250//250 251//251 252//252
f 253//253 254//254 255//255
f 256//256 257//257 258//258
f 259//259 260//260 261//261
f 262//262 263//263 264//264
f 265//265 266//266 267//267
f 268//268 269//269 270//270
f 271//271 272//272 273//273
f 274//274 275//275 276//276
f 277//277 278//278 279//279
f 280//280 281//281 282//282
f 283//283 284//284 285//285
f 286//286 287//287 288//288
f 289//289 290//290 291//291
f 292//292 293//293 294//294
f 295//295 296//296 297//297
f 298//298 299//299 300//300
f 301//301 302//302 303//303
f 304//304 305//305 306//306
f 307//307 308//308 309//309
f 310//310 311//311 312//312
f 313//313 314//314 315//315
f 316//316 317//317 318//318
f 319//319 320//320 321//321
f 322//322 323//323 324//324
f 325//325 326//326 327//327
f 328//328 329//329 330//330
f 331//331 332//332 333//333
f 334//334 335//335 336//336
f 337//337 338//338 339//339
