# Exported from SharpOpenGl procedural mesh
o vesper_cruiser_mk3_43
# vertices 114
v -0.781395 0.45833382 -6.142138
v 0.781395 0.45833382 -6.142138
v 0 0.9428582 -4.9946747
v -0.781395 0.45833382 -6.142138
v 0 0.9428582 -4.9946747
v -1.1010566 0.45833382 -3.59222
v 0.781395 0.45833382 -6.142138
v 1.1010566 0.45833382 -3.59222
v 0 0.9428582 -4.9946747
v -0.781395 0 -6.142138
v -1.1010566 0 -3.59222
v 0.781395 0 -6.142138
v 0.781395 0 -6.142138
v -1.1010566 0 -3.59222
v 1.1010566 0 -3.59222
v -1.1010566 0.45833382 -3.59222
v 1.1010566 0.45833382 -3.59222
v 0 0.9428582 -2.444757
v -1.1010566 0.45833382 -3.59222
v 0 0.9428582 -2.444757
v -1.3350651 0.45833382 -1.0423021
v 1.1010566 0.45833382 -3.59222
v 1.3350651 0.45833382 -1.0423021
v 0 0.9428582 -2.444757
v -1.1010566 0 -3.59222
v -1.3350651 0 -1.0423021
v 1.1010566 0 -3.59222
v 1.1010566 0 -3.59222
v -1.3350651 0 -1.0423021
v 1.3350651 0 -1.0423021
v -1.3350651 0.45833382 -1.0423021
v 1.3350651 0.45833382 -1.0423021
v 0 0.9428582 0.10516083
v -1.3350651 0.45833382 -1.0423021
v 0 0.9428582 0.10516083
v -1.4207182 0.45833382 1.5076156
v 1.3350651 0.45833382 -1.0423021
v 1.4207182 0.45833382 1.5076156
v 0 0.9428582 0.10516083
v -1.3350651 0 -1.0423021
v -1.4207182 0 1.5076156
v 1.3350651 0 -1.0423021
v 1.3350651 0 -1.0423021
v -1.4207182 0 1.5076156
v 1.4207182 0 1.5076156
v -1.4207182 0.45833382 1.5076156
v 1.4207182 0.45833382 1.5076156
v 0 0.9428582 2.655079
v -1.4207182 0.45833382 1.5076156
v 0 0.9428582 2.655079
v -1.3350651 0.45833382 4.0575337
v 1.4207182 0.45833382 1.5076156
v 1.3350651 0.45833382 4.0575337
v 0 0.9428582 2.655079
v -1.4207182 0 1.5076156
v -1.3350651 0 4.0575337
v 1.4207182 0 1.5076156
v 1.4207182 0 1.5076156
v -1.3350651 0 4.0575337
v 1.3350651 0 4.0575337
v -1.3350651 0.45833382 4.0575337
v 1.3350651 0.45833382 4.0575337
v 0 0.9428582 5.2049966
v -1.3350651 0.45833382 4.0575337
v 0 0.9428582 5.2049966
v -1.019497 0.45833382 6.607451
v 1.3350651 0.45833382 4.0575337
v 1.019497 0.45833382 6.607451
v 0 0.9428582 5.2049966
v -1.3350651 0 4.0575337
v -1.019497 0 6.607451
v 1.3350651 0 4.0575337
v 1.3350651 0 4.0575337
v -1.019497 0 6.607451
v 1.019497 0 6.607451
v -1.019497 0.45833382 6.607451
v 1.019497 0.45833382 6.607451
v 0 0.9428582 7.7549143
v -1.019497 0.45833382 6.607451
v 0 0.9428582 7.7549143
v -0 0.45833382 9.15737
v 1.019497 0.45833382 6.607451
v 0 0.45833382 9.15737
v 0 0.9428582 7.7549143
v -1.019497 0 6.607451
v -0 0 9.15737
v 1.019497 0 6.607451
v 1.019497 0 6.607451
v -0 0 9.15737
v 0 0 9.15737
v 0 1.0214297 -4.867179
v -0.11365745 0.8119057 -5.037665
v 0.11365745 0.8119057 -5.037665
v 0 1.0214297 -2.3172612
v -0.11365745 0.8119057 -2.4877474
v 0.11365745 0.8119057 -2.4877474
v 0 1.0214297 0.23265648
v -0.11365745 0.8119057 0.062170297
v 0.11365745 0.8119057 0.062170297
v 0 1.0214297 2.7825742
v -0.11365745 0.8119057 2.612088
v 0.11365745 0.8119057 2.612088
v 0 1.0214297 5.3324924
v -0.11365745 0.8119057 5.1620064
v 0.11365745 0.8119057 5.1620064
v -0.5967016 0.36666706 -1.6751286
v 0.5967016 0.36666706 -1.6751286
v 0 0.5500006 -3.1269066
v -0.685864 0.1455028 -6.020752
v -1.0826852 0 -6.893759
v -0.2890427 0 -6.893759
v 0.685864 0.1455028 -6.020752
v 0.2890427 0 -6.893759
v 1.0826852 0 -6.893759
vn 0 -0.9212381 0.38899922
vn 0 -0.9212381 0.38899922
vn 0 -0.9212381 0.38899922
vn 0.4631294 -0.884387 0.058058597
vn 0.4631294 -0.884387 0.058058597
vn 0.4631294 -0.884387 0.058058597
vn -0.4631294 -0.884387 0.058058597
vn -0.4631294 -0.884387 0.058058597
vn -0.4631294 -0.884387 0.058058597
vn 0 1 -0
vn 0 1 -0
vn 0 1 -0
vn 0 1 -0
vn 0 1 -0
vn 0 1 -0
vn 0 -0.92123806 0.38899925
vn 0 -0.92123806 0.38899925
vn 0 -0.92123806 0.38899925
vn 0.3724856 -0.92740816 0.034183383
vn 0.3724856 -0.92740816 0.034183383
vn 0.3724856 -0.92740816 0.034183383
vn -0.3724856 -0.92740816 0.034183383
vn -0.3724856 -0.92740816 0.034183383
vn -0.3724856 -0.92740816 0.034183383
vn 0 1 -0
vn 0 1 -0
vn 0 1 -0
vn 0 0.99999994 -0
vn 0 0.99999994 -0
vn 0 0.99999994 -0
vn 0 -0.92123806 0.3889993
vn 0 -0.92123806 0.3889993
vn 0 -0.92123806 0.3889993
vn 0.33262914 -0.94299144 0.011173186
vn 0.33262914 -0.94299144 0.011173186
vn 0.33262914 -0.94299144 0.011173186
vn -0.33262914 -0.94299144 0.011173186
vn -0.33262914 -0.94299144 0.011173186
vn -0.33262914 -0.94299144 0.011173186
vn 0 1 -0
vn 0 1 -0
vn 0 1 -0
vn 0 1 -0
vn 0 1 -0
vn 0 1 -0
vn 0 -0.92123806 0.3889992
vn 0 -0.92123806 0.3889992
vn 0 -0.92123806 0.3889992
vn 0.3307943 -0.9436375 -0.011111551
vn 0.3307943 -0.9436375 -0.011111551
vn 0.3307943 -0.9436375 -0.011111551
vn -0.3307943 -0.9436375 -0.011111551
vn -0.3307943 -0.9436375 -0.011111551
vn -0.3307943 -0.9436375 -0.011111551
vn 0 1 0
vn 0 1 0
vn 0 1 0
vn 0 1 0
vn 0 1 0
vn 0 1 0
vn 0 -0.92123806 0.38899937
vn 0 -0.92123806 0.38899937
vn 0 -0.92123806 0.38899937
vn 0.37586576 -0.9255059 -0.04651572
vn 0.37586576 -0.9255059 -0.04651572
vn 0.37586576 -0.9255059 -0.04651572
vn -0.37586576 -0.9255059 -0.04651572
vn -0.37586576 -0.9255059 -0.04651572
vn -0.37586576 -0.9255059 -0.04651572
vn 0 1 0
vn 0 1 0
vn 0 1 0
vn 0 1 0
vn 0 1 0
vn 0 1 0
vn 0 -0.92123806 0.38899922
vn 0 -0.92123806 0.38899922
vn 0 -0.92123806 0.38899922
vn 0.6325674 -0.7320484 -0.25291026
vn 0.6325674 -0.7320484 -0.25291026
vn 0.6325674 -0.7320484 -0.25291026
vn -0.6325674 -0.7320484 -0.25291026
vn -0.6325674 -0.7320484 -0.25291026
vn -0.6325674 -0.7320484 -0.25291026
vn 0 1 0
vn 0 1 0
vn 0 1 0
vn 0 1 0
vn 0 1 0
vn 0 1 0
vn 0 -0.6311449 0.7756649
vn 0 -0.6311449 0.7756649
vn 0 -0.6311449 0.7756649
vn 0 -0.6311454 0.7756645
vn 0 -0.6311454 0.7756645
vn 0 -0.6311454 0.7756645
vn 0 -0.6311454 0.77566457
vn 0 -0.6311454 0.77566457
vn 0 -0.6311454 0.77566457
vn 0 -0.6311454 0.7756645
vn 0 -0.6311454 0.7756645
vn 0 -0.6311454 0.7756645
vn 0 -0.6311449 0.7756649
vn 0 -0.6311449 0.7756649
vn 0 -0.6311449 0.7756649
vn -0 0.99212044 0.12528703
vn -0 0.99212044 0.12528703
vn -0 0.99212044 0.12528703
vn 0 -0.98639363 0.16440082
vn 0 -0.98639363 0.16440082
vn 0 -0.98639363 0.16440082
vn 0 -0.98639363 0.16440082
vn 0 -0.98639363 0.16440082
vn 0 -0.98639363 0.16440082
f 1//1 2//2 3//3
f 4//4 5//5 6//6
f 7//7 8//8 9//9
f 10//10 11//11 12//12
f 13//13 14//14 15//15
f 16//16 17//17 18//18
f 19//19 20//20 21//21
f 22//22 23//23 24//24
f 25//25 26//26 27//27
f 28//28 29//29 30//30
f 31//31 32//32 33//33
f 34//34 35//35 36//36
f 37//37 38//38 39//39
f 40//40 41//41 42//42
f 43//43 44//44 45//45
f 46//46 47//47 48//48
f 49//49 50//50 51//51
f 52//52 53//53 54//54
f 55//55 56//56 57//57
f 58//58 59//59 60//60
f 61//61 62//62 63//63
f 64//64 65//65 66//66
f 67//67 68//68 69//69
f 70//70 71//71 72//72
f 73//73 74//74 75//75
f 76//76 77//77 78//78
f 79//79 80//80 81//81
f 82//82 83//83 84//84
f 85//85 86//86 87//87
f 88//88 89//89 90//90
f 91//91 92//92 93//93
f 94//94 95//95 96//96
f 97//97 98//98 99//99
f 100//100 101//101 102//102
f 103//103 104//104 105//105
f 106//106 107//107 108//108
f 109//109 110//110 111//111
f 112//112 113//113 114//114
