# Exported from SharpOpenGl procedural mesh
o vesper_destroyer_mk3_42
# vertices 360
v -0.31209293 0 -2.5565155
v 0.31209293 0 -2.5565155
v 0.31209293 0.3765364 -2.5565155
v -0.31209293 0 -2.5565155
v 0.31209293 0.3765364 -2.5565155
v -0.31209293 0.3765364 -2.5565155
v -0.31209293 0 3.6749911
v 0.31209293 0.3765364 3.6749911
v 0.31209293 0 3.6749911
v -0.31209293 0 3.6749911
v -0.31209293 0.3765364 3.6749911
v 0.31209293 0.3765364 3.6749911
v -0.1478335 0.51773757 0.15978222
v 0.1478335 0.51773757 0.15978222
v 0.1478335 0.6824722 0.15978222
v -0.1478335 0.51773757 0.15978222
v 0.1478335 0.6824722 0.15978222
v -0.1478335 0.6824722 0.15978222
v -0.1478335 0.51773757 1.43804
v 0.1478335 0.6824722 1.43804
v 0.1478335 0.51773757 1.43804
v -0.1478335 0.51773757 1.43804
v -0.1478335 0.6824722 1.43804
v 0.1478335 0.6824722 1.43804
v -0.1478335 0.51773757 0.15978222
v -0.1478335 0.51773757 1.43804
v 0.1478335 0.51773757 1.43804
v -0.1478335 0.51773757 0.15978222
v 0.1478335 0.51773757 1.43804
v 0.1478335 0.51773757 0.15978222
v -0.1478335 0.6824722 0.15978222
v 0.1478335 0.6824722 1.43804
v -0.1478335 0.6824722 1.43804
v -0.1478335 0.6824722 0.15978222
v 0.1478335 0.6824722 0.15978222
v 0.1478335 0.6824722 1.43804
v -0.09855566 0.6824722 0.47934663
v 0.09855566 0.6824722 0.47934663
v 0.09855566 0.8707405 0.47934663
v -0.09855566 0.6824722 0.47934663
v 0.09855566 0.8707405 0.47934663
v -0.09855566 0.8707405 0.47934663
v -0.09855566 0.6824722 1.1184756
v 0.09855566 0.8707405 1.1184756
v 0.09855566 0.6824722 1.1184756
v -0.09855566 0.6824722 1.1184756
v -0.09855566 0.8707405 1.1184756
v 0.09855566 0.8707405 1.1184756
v -0.09855566 0.6824722 0.47934663
v -0.09855566 0.6824722 1.1184756
v 0.09855566 0.6824722 1.1184756
v -0.09855566 0.6824722 0.47934663
v 0.09855566 0.6824722 1.1184756
v 0.09855566 0.6824722 0.47934663
v -0.09855566 0.8707405 0.47934663
v 0.09855566 0.8707405 1.1184756
v -0.09855566 0.8707405 1.1184756
v -0.09855566 0.8707405 0.47934663
v 0.09855566 0.8707405 0.47934663
v 0.09855566 0.8707405 1.1184756
v -0.09855566 0.6824722 0.47934663
v -0.09855566 0.8707405 0.47934663
v -0.09855566 0.8707405 1.1184756
v -0.09855566 0.6824722 0.47934663
v -0.09855566 0.8707405 1.1184756
v -0.09855566 0.6824722 1.1184756
v 0.09855566 0.6824722 0.47934663
v 0.09855566 0.6824722 1.1184756
v 0.09855566 0.8707405 1.1184756
v 0.09855566 0.6824722 0.47934663
v 0.09855566 0.8707405 1.1184756
v 0.09855566 0.8707405 0.47934663
v -0.21353726 0.16473468 6.7907443
v 0.21353726 0.16473468 6.7907443
v 0 0.5412711 7.5928507
v -0.14783348 0 6.7907443
v 0 0.16473468 7.276482
v 0.14783348 0 6.7907443
v -1.5768906 0.1882682 2.87608
v -1.3962052 0.2824023 -0.23967332
v -0.22996321 0.1882682 0.15978222
v -0.22996321 0 0.15978222
v -1.3962052 0.2824023 -0.23967332
v -1.3962052 0 -0.23967332
v -0.22996321 0 0.15978222
v -1.3962052 0 -0.23967332
v -0.22996321 0 2.87608
v 1.5768906 0.1882682 2.87608
v 1.3962052 0.2824023 -0.23967332
v 0.22996321 0.1882682 0.15978222
v 0.22996321 0 0.15978222
v 1.3962052 0.2824023 -0.23967332
v 1.3962052 0 -0.23967332
v 0.22996321 0 0.15978222
v 1.3962052 0 -0.23967332
v 0.22996321 0 2.87608
v -1.3962052 0.2824023 -0.23967332
v -1.3797792 0.31770262 -0.39945555
v -1.3962052 0.23533526 -0.31956443
v 1.3962052 0.2824023 -0.23967332
v 1.3797792 0.31770262 -0.39945555
v 1.3962052 0.23533526 -0.31956443
v -0.09855566 0.0941341 5.75216
v 0.09855566 0.0941341 5.75216
v 0.09855566 0.21180174 5.75216
v -0.09855566 0.0941341 5.75216
v 0.09855566 0.21180174 5.75216
v -0.09855566 0.21180174 5.75216
v -0.09855566 0.0941341 7.0304174
v 0.09855566 0.21180174 7.0304174
v 0.09855566 0.0941341 7.0304174
v -0.09855566 0.0941341 7.0304174
v -0.09855566 0.21180174 7.0304174
v 0.09855566 0.21180174 7.0304174
v -0.032851886 0.6824722 3.834773
v 0.032851886 0.6824722 3.834773
v 0.032851886 0.7766064 3.834773
v -0.032851886 0.6824722 3.834773
v 0.032851886 0.7766064 3.834773
v -0.032851886 0.7766064 3.834773
v -0.032851886 0.6824722 4.473902
v 0.032851886 0.7766064 4.473902
v 0.032851886 0.6824722 4.473902
v -0.032851886 0.6824722 4.473902
v -0.032851886 0.7766064 4.473902
v 0.032851886 0.7766064 4.473902
v -0.04106486 0.63540524 1.43804
v 0.04106486 0.63540524 1.43804
v 0 0.7060058 1.5019529
v -0.04106486 0.6824723 3.035862
v 0.04106486 0.6824723 3.035862
v 0 0.75307286 3.0997748
v -0.04106486 0.7295393 4.633684
v 0.04106486 0.7295393 4.633684
v 0 0.8001399 4.697597
v 0 0.67070544 -1.2383122
v -0.06570377 0.5000874 -1.5179311
v 0.06570377 0.5000874 -1.5179311
v 0 0.69423896 0.7589655
v -0.06570377 0.5118542 0.4793466
v 0.06570377 0.5118542 0.4793466
v 0 0.71777254 2.7562435
v -0.06570377 0.5236209 2.4766245
v 0.06570377 0.5236209 2.4766245
v 0 0.74130607 4.753521
v -0.06570377 0.5353877 4.473902
v 0.06570377 0.5353877 4.473902
v -0.24638915 0 -2.3967333
v -0.1149816 0 -2.3967333
v -0.1149816 0.21180174 -2.3967333
v -0.24638915 0 -2.3967333
v -0.1149816 0.21180174 -2.3967333
v -0.24638915 0.21180174 -2.3967333
v -0.24638915 0 -1.2782577
v -0.1149816 0.21180174 -1.2782577
v -0.1149816 0 -1.2782577
v -0.24638915 0 -1.2782577
v -0.24638915 0.21180174 -1.2782577
v -0.1149816 0.21180174 -1.2782577
v -0.24638915 0 -2.3967333
v -0.24638915 0.21180174 -2.3967333
v -0.24638915 0.21180174 -1.2782577
v -0.24638915 0 -2.3967333
v -0.24638915 0.21180174 -1.2782577
v -0.24638915 0 -1.2782577
v -0.1149816 0 -2.3967333
v -0.1149816 0 -1.2782577
v -0.1149816 0.21180174 -1.2782577
v -0.1149816 0 -2.3967333
v -0.1149816 0.21180174 -1.2782577
v -0.1149816 0.21180174 -2.3967333
v -0.21682245 0.023533525 -2.5565155
v -0.1445483 0.023533525 -2.5565155
v -0.1445483 0.14120115 -2.5565155
v -0.21682245 0.023533525 -2.5565155
v -0.1445483 0.14120115 -2.5565155
v -0.21682245 0.14120115 -2.5565155
v -0.21682245 0.023533525 -1.5978222
v -0.1445483 0.14120115 -1.5978222
v -0.1445483 0.023533525 -1.5978222
v -0.21682245 0.023533525 -1.5978222
v -0.21682245 0.14120115 -1.5978222
v -0.1445483 0.14120115 -1.5978222
v 0.1149816 0 -2.3967333
v 0.24638915 0 -2.3967333
v 0.24638915 0.21180174 -2.3967333
v 0.1149816 0 -2.3967333
v 0.24638915 0.21180174 -2.3967333
v 0.1149816 0.21180174 -2.3967333
v 0.1149816 0 -1.2782577
v 0.24638915 0.21180174 -1.2782577
v 0.24638915 0 -1.2782577
v 0.1149816 0 -1.2782577
v 0.1149816 0.21180174 -1.2782577
v 0.24638915 0.21180174 -1.2782577
v 0.1149816 0 -2.3967333
v 0.1149816 0.21180174 -2.3967333
v 0.1149816 0.21180174 -1.2782577
v 0.1149816 0 -2.3967333
v 0.1149816 0.21180174 -1.2782577
v 0.1149816 0 -1.2782577
v 0.24638915 0 -2.3967333
v 0.24638915 0 -1.2782577
v 0.24638915 0.21180174 -1.2782577
v 0.24638915 0 -2.3967333
v 0.24638915 0.21180174 -1.2782577
v 0.24638915 0.21180174 -2.3967333
v 0.1445483 0.023533525 -2.5565155
v 0.21682245 0.023533525 -2.5565155
v 0.21682245 0.14120115 -2.5565155
v 0.1445483 0.023533525 -2.5565155
v 0.21682245 0.14120115 -2.5565155
v 0.1445483 0.14120115 -2.5565155
v 0.1445483 0.023533525 -1.5978222
v 0.21682245 0.14120115 -1.5978222
v 0.21682245 0.023533525 -1.5978222
v 0.1445483 0.023533525 -1.5978222
v 0.1445483 0.14120115 -1.5978222
v 0.21682245 0.14120115 -1.5978222
v -0.06570377 0.7295393 0.47934663
v 0.06570377 0.7295393 0.47934663
v 0.06570377 0.8707405 0.47934663
v -0.06570377 0.7295393 0.47934663
v 0.06570377 0.8707405 0.47934663
v -0.06570377 0.8707405 0.47934663
v -0.06570377 0.7295393 0.95869327
v 0.06570377 0.8707405 0.95869327
v 0.06570377 0.7295393 0.95869327
v -0.06570377 0.7295393 0.95869327
v -0.06570377 0.8707405 0.95869327
v 0.06570377 0.8707405 0.95869327
v -0.06570377 0.7295393 0.47934663
v -0.06570377 0.7295393 0.95869327
v 0.06570377 0.7295393 0.95869327
v -0.06570377 0.7295393 0.47934663
v 0.06570377 0.7295393 0.95869327
v 0.06570377 0.7295393 0.47934663
v -0.06570377 0.8707405 0.47934663
v 0.06570377 0.8707405 0.95869327
v -0.06570377 0.8707405 0.95869327
v -0.06570377 0.8707405 0.47934663
v 0.06570377 0.8707405 0.47934663
v 0.06570377 0.8707405 0.95869327
v -0.06570377 0.7295393 0.47934663
v -0.06570377 0.8707405 0.47934663
v -0.06570377 0.8707405 0.95869327
v -0.06570377 0.7295393 0.47934663
v -0.06570377 0.8707405 0.95869327
v -0.06570377 0.7295393 0.95869327
v 0.06570377 0.7295393 0.47934663
v 0.06570377 0.7295393 0.95869327
v 0.06570377 0.8707405 0.95869327
v 0.06570377 0.7295393 0.47934663
v 0.06570377 0.8707405 0.95869327
v 0.06570377 0.8707405 0.47934663
v 0 0.6589387 0.63912886
v -0.08212972 0.51773757 0.47934663
v 0.08212972 0.51773757 0.47934663
v 0 0.67658883 1.8374956
v -0.08212972 0.5295043 1.6777134
v 0.08212972 0.5295043 1.6777134
v 0 0.69423896 3.0358624
v -0.08212972 0.5412711 2.8760803
v 0.08212972 0.5412711 2.8760803
v 0 0.71188915 4.234229
v -0.08212972 0.5530378 4.0744467
v 0.08212972 0.5530378 4.0744467
v 0 0.7295393 5.4325957
v -0.08212972 0.5648046 5.2728133
v 0.08212972 0.5648046 5.2728133
v -1.6261684 0.21180174 1.5978222
v -1.5933164 0.1882682 1.6457568
v -1.6261684 0.16473468 1.6777133
v -1.6261684 0.23533526 2.7162979
v -1.5933164 0.21180172 2.7642326
v -1.6261684 0.1882682 2.796189
v -1.6261684 0.25886878 3.8347735
v -1.5933164 0.23533525 3.8827083
v -1.6261684 0.21180174 3.9146647
v -1.6261684 0.2824023 4.953249
v -1.5933164 0.25886878 5.0011835
v -1.6261684 0.23533526 5.03314
v 1.6261684 0.21180174 1.5978222
v 1.5933164 0.1882682 1.6457568
v 1.6261684 0.16473468 1.6777133
v 1.6261684 0.23533526 2.7162979
v 1.5933164 0.21180172 2.7642326
v 1.6261684 0.1882682 2.796189
v 1.6261684 0.25886878 3.8347735
v 1.5933164 0.23533525 3.8827083
v 1.6261684 0.21180174 3.9146647
v 1.6261684 0.2824023 4.953249
v 1.5933164 0.25886878 5.0011835
v 1.6261684 0.23533526 5.03314
v -0.021353727 0.58833814 1.43804
v 0.021353727 0.58833814 1.43804
v 0 0.6589387 1.4939638
v -0.021353727 0.6589387 3.5152087
v 0.021353727 0.6589387 3.5152087
v 0 0.7295393 3.5711324
v -1.4619089 0.25886878 1.1184756
v -1.43727 0.30593583 1.43804
v -1.4619089 0.21180174 1.2782577
v 1.4619089 0.25886878 1.1184756
v 1.43727 0.30593583 1.43804
v 1.4619089 0.21180174 1.2782577
v -0.24638917 0.058833815 -0.7989111
v 0.24638917 0.058833815 -0.7989111
v 0 0.16473468 -0.71902
v -0.20532429 0.058833815 0.71902
v 0.20532429 0.058833815 0.71902
v 0 0.16473468 0.7989111
v -0.16425943 0.058833815 2.236951
v 0.16425943 0.058833815 2.236951
v 0 0.16473468 2.3168423
v -0.21353726 0.03530029 -0.47934663
v 0.21353726 0.03530029 -0.47934663
v 0 0.11766763 -0.41543373
v -0.13140754 0.03530029 1.5978223
v 0.13140754 0.03530029 1.5978223
v 0 0.11766763 1.6617352
v -0.27924103 0.23533526 0.63912886
v -0.24638914 0.2824023 0.71901995
v -0.27924103 0.1882682 0.7349982
v -0.27924103 0.23533526 1.9173865
v -0.24638914 0.2824023 1.9972776
v -0.27924103 0.1882682 2.0132558
v 0.27924103 0.23533526 0.63912886
v 0.24638914 0.2824023 0.71901995
v 0.27924103 0.1882682 0.7349982
v 0.27924103 0.23533526 1.9173865
v 0.24638914 0.2824023 1.9972776
v 0.27924103 0.1882682 2.0132558
v -0.11498161 0.58833814 0.7989111
v 0.11498161 0.58833814 0.7989111
v 0 0.6589387 0.86282396
v -0.09308034 0.61187166 2.077169
v 0.09308034 0.61187166 2.077169
v 0 0.6824722 2.1410818
v -0.071179084 0.63540524 3.3554265
v 0.071179084 0.63540524 3.3554265
v 0 0.7060058 3.4193394
v -0.032851886 0.6824722 1.9173865
v 0.032851886 0.6824722 1.9173865
v 0 0.7530728 1.9653212
v -0.032851886 0.7060057 3.035862
v 0.032851886 0.7060057 3.035862
v 0 0.7766063 3.0837967
v -0.032851886 0.7295393 4.1543374
v 0.032851886 0.7295393 4.1543374
v 0 0.8001399 4.202272
v -0.42707452 0.16473468 5.4325957
v -0.38600966 0.0941341 5.75216
v -0.42707452 0.07060058 5.5923777
v 0.42707452 0.16473468 5.4325957
v 0.38600966 0.0941341 5.75216
v 0.42707452 0.07060058 5.5923777
v -0.04927783 0.91780746 0.63912886
v 0.04927783 0.91780746 0.63912886
v 0 0.988408 0.8788022
vn 0 0 0.99999994
vn 0 0 0.99999994
vn 0 0 0.99999994
vn 0 0 0.99999994
vn 0 0 0.99999994
vn 0 0 0.99999994
vn 0 0 -0.99999994
vn 0 0 -0.99999994
vn 0 0 -0.99999994
vn 0 0 -0.99999994
vn 0 0 -0.99999994
vn 0 0 -0.99999994
vn 0 0 1
vn 0 0 1
vn 0 0 1
vn 0 0 1
vn 0 0 1
vn 0 0 1
vn 0 0 -1
vn 0 0 -1
vn 0 0 -1
vn 0 0 -1
vn 0 0 -1
vn 0 0 -1
vn 0 1 0
vn 0 1 0
vn 0 1 0
vn 0 1 0
vn 0 1 0
vn 0 1 0
vn 0 -1 0
vn 0 -1 0
vn 0 -1 0
vn 0 -1 0
vn 0 -1 0
vn 0 -1 0
vn 0 0 1
vn 0 0 1
vn 0 0 1
vn 0 0 1
vn 0 0 1
vn 0 0 1
vn 0 0 -1
vn 0 0 -1
vn 0 0 -1
vn 0 0 -1
vn 0 0 -1
vn 0 0 -1
vn 0 1 0
vn 0 1 0
vn 0 1 0
vn 0 1 0
vn 0 1 0
vn 0 1 0
vn 0 -1 0
vn 0 -1 0
vn 0 -1 0
vn 0 -1 0
vn 0 -1 0
vn 0 -1 0
vn 0.99999994 0 0
vn 0.99999994 0 0
vn 0.99999994 0 0
vn 0.99999994 0 0
vn 0.99999994 0 0
vn 0.99999994 0 0
vn -0.99999994 0 0
vn -0.99999994 0 0
vn -0.99999994 0 0
vn -0.99999994 0 0
vn -0.99999994 0 0
vn -0.99999994 0 0
vn 0 -0.9052207 0.42494187
vn 0 -0.9052207 0.42494187
vn 0 -0.9052207 0.42494187
vn 0 0.9470198 -0.32117534
vn 0 0.9470198 -0.32117534
vn 0 0.9470198 -0.32117534
vn -0.0687934 -0.9970476 -0.034112506
vn -0.0687934 -0.9970476 -0.034112506
vn -0.0687934 -0.9970476 -0.034112506
vn -0.3240348 0 0.94604516
vn -0.3240348 0 0.94604516
vn -0.3240348 0 0.94604516
vn 0 0.99999994 -0
vn 0 0.99999994 -0
vn 0 0.99999994 -0
vn -0.0687934 0.9970476 0.034112506
vn -0.0687934 0.9970476 0.034112506
vn -0.0687934 0.9970476 0.034112506
vn -0.3240348 0 -0.94604516
vn -0.3240348 0 -0.94604516
vn -0.3240348 0 -0.94604516
vn 0 -0.99999994 0
vn 0 -0.99999994 0
vn 0 -0.99999994 0
vn -0.98932594 0.12555112 -0.07396718
vn -0.98932594 0.12555112 -0.07396718
vn -0.98932594 0.12555112 -0.07396718
vn -0.98932594 -0.12555112 0.07396718
vn -0.98932594 -0.12555112 0.07396718
vn -0.98932594 -0.12555112 0.07396718
vn 0 0 1
vn 0 0 1
vn 0 0 1
vn 0 0 1
vn 0 0 1
vn 0 0 1
vn 0 0 -1
vn 0 0 -1
vn 0 0 -1
vn 0 0 -1
vn 0 0 -1
vn 0 0 -1
vn 0 0 1
vn 0 0 1
vn 0 0 1
vn 0 0 1
vn 0 0 1
vn 0 0 1
vn 0 0 -1
vn 0 0 -1
vn 0 0 -1
vn 0 0 -1
vn 0 0 -1
vn 0 0 -1
vn 0 -0.67112213 0.74134684
vn 0 -0.67112213 0.74134684
vn 0 -0.67112213 0.74134684
vn 0 -0.67112213 0.74134684
vn 0 -0.67112213 0.74134684
vn 0 -0.67112213 0.74134684
vn 0 -0.67112184 0.74134713
vn 0 -0.67112184 0.74134713
vn 0 -0.67112184 0.74134713
vn 0 -0.853635 0.5208717
vn 0 -0.853635 0.5208717
vn 0 -0.853635 0.5208717
vn 0 -0.83757687 0.5463196
vn 0 -0.83757687 0.5463196
vn 0 -0.83757687 0.5463196
vn 0 -0.8214088 0.5703399
vn 0 -0.8214088 0.5703399
vn 0 -0.8214088 0.5703399
vn 0 -0.805216 0.5929816
vn 0 -0.805216 0.5929816
vn 0 -0.805216 0.5929816
vn 0 0 1
vn 0 0 1
vn 0 0 1
vn 0 0 1
vn 0 0 1
vn 0 0 1
vn 0 0 -1
vn 0 0 -1
vn 0 0 -1
vn 0 0 -1
vn 0 0 -1
vn 0 0 -1
vn 1 0 0
vn 1 0 0
vn 1 0 0
vn 1 0 0
vn 1 0 0
vn 1 0 0
vn -1 0 0
vn -1 0 0
vn -1 0 0
vn -1 0 0
vn -1 0 0
vn -1 0 0
vn 0 0 1
vn 0 0 1
vn 0 0 1
vn 0 0 1
vn 0 0 1
vn 0 0 1
vn 0 0 -1
vn 0 0 -1
vn 0 0 -1
vn 0 0 -1
vn 0 0 -1
vn 0 0 -1
vn 0 0 1
vn 0 0 1
vn 0 0 1
vn 0 0 1
vn 0 0 1
vn 0 0 1
vn 0 0 -1
vn 0 0 -1
vn 0 0 -1
vn 0 0 -1
vn 0 0 -1
vn 0 0 -1
vn 1 0 0
vn 1 0 0
vn 1 0 0
vn 1 0 0
vn 1 0 0
vn 1 0 0
vn -1 0 0
vn -1 0 0
vn -1 0 0
vn -1 0 0
vn -1 0 0
vn -1 0 0
vn 0 0 1
vn 0 0 1
vn 0 0 1
vn 0 0 1
vn 0 0 1
vn 0 0 1
vn 0 0 -1
vn 0 0 -1
vn 0 0 -1
vn 0 0 -1
vn 0 0 -1
vn 0 0 -1
vn 0 0 1
vn 0 0 1
vn 0 0 1
vn 0 0 1
vn 0 0 1
vn 0 0 1
vn 0 0 -1
vn 0 0 -1
vn 0 0 -1
vn 0 0 -1
vn 0 0 -1
vn 0 0 -1
vn 0 1 0
vn 0 1 0
vn 0 1 0
vn 0 1 0
vn 0 1 0
vn 0 1 0
vn 0 -1 0
vn 0 -1 0
vn 0 -1 0
vn 0 -1 0
vn 0 -1 0
vn 0 -1 0
vn 1 0 0
vn 1 0 0
vn 1 0 0
vn 1 0 0
vn 1 0 0
vn 1 0 0
vn -1 0 0
vn -1 0 0
vn -1 0 0
vn -1 0 0
vn -1 0 0
vn -1 0 0
vn 0 -0.7493332 0.6621931
vn 0 -0.7493332 0.6621931
vn 0 -0.7493332 0.6621931
vn 0 -0.73573613 0.6772683
vn 0 -0.73573613 0.6772683
vn 0 -0.73573613 0.6772683
vn 0 -0.722342 0.691536
vn 0 -0.722342 0.691536
vn 0 -0.722342 0.691536
vn 0 -0.70917 0.70503753
vn 0 -0.70917 0.70503753
vn 0 -0.70917 0.70503753
vn 0 -0.696235 0.7178139
vn 0 -0.696235 0.7178139
vn 0 -0.696235 0.7178139
vn 0.122510664 -0.8551031 -0.5037757
vn 0.122510664 -0.8551031 -0.5037757
vn 0.122510664 -0.8551031 -0.5037757
vn 0.122511424 -0.8551033 -0.5037751
vn 0.122511424 -0.8551033 -0.5037751
vn 0.122511424 -0.8551033 -0.5037751
vn 0.12251119 -0.8551033 -0.50377494
vn 0.12251119 -0.8551033 -0.50377494
vn 0.12251119 -0.8551033 -0.50377494
vn 0.12250798 -0.8551036 -0.5037751
vn 0.12250798 -0.8551036 -0.5037751
vn 0.12250798 -0.8551036 -0.5037751
vn 0.122510664 0.8551031 0.5037757
vn 0.122510664 0.8551031 0.5037757
vn 0.122510664 0.8551031 0.5037757
vn 0.122511424 0.8551033 0.5037751
vn 0.122511424 0.8551033 0.5037751
vn 0.122511424 0.8551033 0.5037751
vn 0.12251119 0.8551033 0.50377494
vn 0.12251119 0.8551033 0.50377494
vn 0.12251119 0.8551033 0.50377494
vn 0.12250798 0.8551036 0.5037751
vn 0.12250798 0.8551036 0.5037751
vn 0.12250798 0.8551036 0.5037751
vn 0 -0.6209193 0.7838745
vn 0 -0.6209193 0.7838745
vn 0 -0.6209193 0.7838745
vn 0 -0.62091845 0.78387517
vn 0 -0.62091845 0.78387517
vn 0 -0.62091845 0.78387517
vn 0.9838545 -0.17167762 -0.05057109
vn 0.9838545 -0.17167762 -0.05057109
vn 0.9838545 -0.17167762 -0.05057109
vn 0.9838545 0.17167762 0.05057109
vn 0.9838545 0.17167762 0.05057109
vn 0.9838545 0.17167762 0.05057109
vn 0 -0.6022431 0.7983127
vn 0 -0.6022431 0.7983127
vn 0 -0.6022431 0.7983127
vn 0 -0.6022431 0.7983127
vn 0 -0.6022431 0.7983127
vn 0 -0.6022431 0.7983127
vn 0 -0.6022437 0.79831225
vn 0 -0.6022437 0.79831225
vn 0 -0.6022437 0.79831225
vn 0 -0.6130402 0.79005176
vn 0 -0.6130402 0.79005176
vn 0 -0.6130402 0.79005176
vn 0 -0.6130401 0.7900519
vn 0 -0.6130401 0.7900519
vn 0 -0.6130401 0.7900519
vn 0.9206208 -0.3504958 -0.1720759
vn 0.9206208 -0.3504958 -0.1720759
vn 0.9206208 -0.3504958 -0.1720759
vn 0.92062074 -0.3504957 -0.17207597
vn 0.92062074 -0.3504957 -0.17207597
vn 0.92062074 -0.3504957 -0.17207597
vn 0.9206208 0.3504958 0.1720759
vn 0.9206208 0.3504958 0.1720759
vn 0.9206208 0.3504958 0.1720759
vn 0.92062074 0.3504957 0.17207597
vn 0.92062074 0.3504957 0.17207597
vn 0.92062074 0.3504957 0.17207597
vn 0 -0.6711221 0.74134684
vn 0 -0.6711221 0.74134684
vn 0 -0.6711221 0.74134684
vn 0 -0.6711221 0.74134684
vn 0 -0.6711221 0.74134684
vn 0 -0.6711221 0.74134684
vn 0 -0.6711221 0.74134684
vn 0 -0.6711221 0.74134684
vn 0 -0.6711221 0.74134684
vn 0 -0.56171906 0.82732815
vn 0 -0.56171906 0.82732815
vn 0 -0.56171906 0.82732815
vn 0 -0.56171966 0.82732767
vn 0 -0.56171966 0.82732767
vn 0 -0.56171966 0.82732767
vn 0 -0.56171775 0.8273289
vn 0 -0.56171775 0.8273289
vn 0 -0.56171775 0.8273289
vn 0.9268534 -0.32346207 -0.1905648
vn 0.9268534 -0.32346207 -0.1905648
vn 0.9268534 -0.32346207 -0.1905648
vn 0.9268534 0.32346207 0.1905648
vn 0.9268534 0.32346207 0.1905648
vn 0.9268534 0.32346207 0.1905648
vn 0 -0.95924795 0.28256568
vn 0 -0.95924795 0.28256568
vn 0 -0.95924795 0.28256568
f 1//1 2//2 3//3
f 4//4 5//5 6//6
f 7//7 8//8 9//9
f 10//10 11//11 12//12
f 13//13 14//14 15//15
f 16//16 17//17 18//18
f 19//19 20//20 21//21
f 22//22 23//23 24//24
f 25//25 26//26 27//27
f 28//28 29//29 30//30
f 31//31 32//32 33//33
f 34//34 35//35 36//36
f 37//37 38//38 39//39
f 40//40 41//41 42//42
f 43//43 44//44 45//45
f 46//46 47//47 48//48
f 49//49 50//50 51//51
f 52//52 53//53 54//54
f 55//55 56//56 57//57
f 58//58 59//59 60//60
f 61//61 62//62 63//63
f 64//64 65//65 66//66
f 67//67 68//68 69//69
f 70//70 71//71 72//72
f 73//73 74//74 75//75
f 76//76 77//77 78//78
f 79//79 80//80 81//81
f 82//82 83//83 84//84
f 85//85 86//86 87//87
f 88//88 89//89 90//90
f 91//91 92//92 93//93
f 94//94 95//95 96//96
f 97//97 98//98 99//99
f 100//100 101//101 102//102
f 103//103 104//104 105//105
f 106//106 107//107 108//108
f 109//109 110//110 111//111
f 112//112 113//113 114//114
f 115//115 116//116 117//117
f 118//118 119//119 120//120
f 121//121 122//122 123//123
f 124//124 125//125 126//126
f 127//127 128//128 129//129
f 130//130 131//131 132//132
f 133//133 134//134 135//135
f 136//136 137//137 138//138
f 139//139 140//140 141//141
f 142//142 143//143 144//144
f 145//145 146//146 147//147
f 148//148 149//149 150//150
f 151//151 152//152 153//153
f 154//154 155//155 156//156
f 157//157 158//158 159//159
f 160//160 161//161 162//162
f 163//163 164//164 165//165
f 166//166 167//167 168//168
f 169//169 170//170 171//171
f 172//172 173//173 174//174
f 175//175 176//176 177//177
f 178//178 179//179 180//180
f 181//181 182//182 183//183
f 184//184 185//185 186//186
f 187//187 188//188 189//189
f 190//190 191//191 192//192
f 193//193 194//194 195//195
f 196//196 197//197 198//198
f 199//199 200//200 201//201
f 202//202 203//203 204//204
f 205//205 206//206 207//207
f 208//208 209//209 210//210
f 211//211 212//212 213//213
f 214//214 215//215 216//216
f 217//217 218//218 219//219
f 220//220 221//221 222//222
f 223//223 224//224 225//225
f 226//226 227//227 228//228
f 229//229 230//230 231//231
f 232//232 233//233 234//234
f 235//235 236//236 237//237
f 238//238 239//239 240//240
f 241//241 242//242 243//243
f 244//244 245//245 246//246
f 247//247 248//248 249//249
f 250//250 251//251 252//252
f 253//253 254//254 255//255
f 256//256 257//257 258//258
f 259//259 260//260 261//261
f 262//262 263//263 264//264
f 265//265 266//266 267//267
f 268//268 269//269 270//270
f 271//271 272//272 273//273
f 274//274 275//275 276//276
f 277//277 278//278 279//279
f 280//280 281//281 282//282
f 283//283 284//284 285//285
f 286//286 287//287 288//288
f 289//289 290//290 291//291
f 292//292 293//293 294//294
f 295//295 296//296 297//297
f 298//298 299//299 300//300
f 301//301 302//302 303//303
f 304//304 305//305 306//306
f 307//307 308//308 309//309
f 310//310 311//311 312//312
f 313//313 314//314 315//315
f 316//316 317//317 318//318
f 319//319 320//320 321//321
f 322//322 323//323 324//324
f 325//325 326//326 327//327
f 328//328 329//329 330//330
f 331//331 332//332 333//333
f 334//334 335//335 336//336
f 337//337 338//338 339//339
f 340//340 341//341 342//342
f 343//343 344//344 345//345
f 346//346 347//347 348//348
f 349//349 350//350 351//351
f 352//352 353//353 354//354
f 355//355 356//356 357//357
f 358//358 359//359 360//360
