# Exported from SharpOpenGl procedural mesh
o vesper_hero_mk2_33
# vertices 117
v -0.43032578 0.24258268 -3.6756616
v 0.43032578 0.24258268 -3.6756616
v 0 0.49902725 -2.9889812
v -0.43032578 0.24258268 -3.6756616
v 0 0.49902725 -2.9889812
v -0.6063681 0.24258268 -2.149705
v 0.43032578 0.24258268 -3.6756616
v 0.6063681 0.24258268 -2.149705
v 0 0.49902725 -2.9889812
v -0.43032578 0 -3.6756616
v -0.6063681 0 -2.149705
v 0.43032578 0 -3.6756616
v 0.43032578 0 -3.6756616
v -0.6063681 0 -2.149705
v 0.6063681 0 -2.149705
v -0.6063681 0.24258268 -2.149705
v 0.6063681 0.24258268 -2.149705
v 0 0.49902725 -1.4630246
v -0.6063681 0.24258268 -2.149705
v 0 0.49902725 -1.4630246
v -0.7352401 0.24258268 -0.62374854
v 0.6063681 0.24258268 -2.149705
v 0.7352401 0.24258268 -0.62374854
v 0 0.49902725 -1.4630246
v -0.6063681 0 -2.149705
v -0.7352401 0 -0.62374854
v 0.6063681 0 -2.149705
v 0.6063681 0 -2.149705
v -0.7352401 0 -0.62374854
v 0.7352401 0 -0.62374854
v -0.7352401 0.24258268 -0.62374854
v 0.7352401 0.24258268 -0.62374854
v 0 0.49902725 0.062931836
v -0.7352401 0.24258268 -0.62374854
v 0 0.49902725 0.062931836
v -0.7824105 0.24258268 0.90220785
v 0.7352401 0.24258268 -0.62374854
v 0.7824105 0.24258268 0.90220785
v 0 0.49902725 0.062931836
v -0.7352401 0 -0.62374854
v -0.7824105 0 0.90220785
v 0.7352401 0 -0.62374854
v 0.7352401 0 -0.62374854
v -0.7824105 0 0.90220785
v 0.7824105 0 0.90220785
v -0.7824105 0.24258268 0.90220785
v 0.7824105 0.24258268 0.90220785
v 0 0.49902725 1.5888883
v -0.7824105 0.24258268 0.90220785
v 0 0.49902725 1.5888883
v -0.7352401 0.24258268 2.4281645
v 0.7824105 0.24258268 0.90220785
v 0.7352401 0.24258268 2.4281645
v 0 0.49902725 1.5888883
v -0.7824105 0 0.90220785
v -0.7352401 0 2.4281645
v 0.7824105 0 0.90220785
v 0.7824105 0 0.90220785
v -0.7352401 0 2.4281645
v 0.7352401 0 2.4281645
v -0.7352401 0.24258268 2.4281645
v 0.7352401 0.24258268 2.4281645
v 0 0.49902725 3.1148448
v -0.7352401 0.24258268 2.4281645
v 0 0.49902725 3.1148448
v -0.56145203 0.24258268 3.9541206
v 0.7352401 0.24258268 2.4281645
v 0.56145203 0.24258268 3.9541206
v 0 0.49902725 3.1148448
v -0.7352401 0 2.4281645
v -0.56145203 0 3.9541206
v 0.7352401 0 2.4281645
v 0.7352401 0 2.4281645
v -0.56145203 0 3.9541206
v 0.56145203 0 3.9541206
v -0.56145203 0.24258268 3.9541206
v 0.56145203 0.24258268 3.9541206
v 0 0.49902725 4.640801
v -0.56145203 0.24258268 3.9541206
v 0 0.49902725 4.640801
v -0 0.24258268 5.4800773
v 0.56145203 0.24258268 3.9541206
v 0 0.24258268 5.4800773
v 0 0.49902725 4.640801
v -0.56145203 0 3.9541206
v -0 0 5.4800773
v 0.56145203 0 3.9541206
v 0.56145203 0 3.9541206
v -0 0 5.4800773
v 0 0 5.4800773
v 0 0.5406128 -2.9126832
v -0.06259284 0.4297179 -3.0065725
v 0.06259284 0.4297179 -3.0065725
v 0 0.5406128 -1.3867269
v -0.06259284 0.4297179 -1.4806161
v 0.06259284 0.4297179 -1.4806161
v 0 0.5406128 0.13922954
v -0.06259284 0.4297179 0.045340277
v 0.06259284 0.4297179 0.045340277
v 0 0.5406128 1.6651859
v -0.06259284 0.4297179 1.5712967
v 0.06259284 0.4297179 1.5712967
v 0 0.5406128 3.1911426
v -0.06259284 0.4297179 3.0972533
v 0.06259284 0.4297179 3.0972533
v -0.3286124 0.19406614 -1.0024532
v 0.3286124 0.19406614 -1.0024532
v 0 0.2910992 -1.8712459
v -0.47214428 0.07701037 -3.6030202
v -0.6663979 0 -4.0303783
v -0.27789062 0 -4.0303783
v 0 0.07701037 -3.6030202
v -0.19425365 0 -4.0303783
v 0.19425365 0 -4.0303783
v 0.47214428 0.07701037 -3.6030202
v 0.27789062 0 -4.0303783
v 0.6663979 0 -4.0303783
vn 0 -0.93680394 0.34985462
vn 0 -0.93680394 0.34985462
vn 0 -0.93680394 0.34985462
vn 0.44895375 -0.89205265 0.051793657
vn 0.44895375 -0.89205265 0.051793657
vn 0.44895375 -0.89205265 0.051793657
vn -0.44895375 -0.89205265 0.051793657
vn -0.44895375 -0.89205265 0.051793657
vn -0.44895375 -0.89205265 0.051793657
vn 0 0.99999994 -0
vn 0 0.99999994 -0
vn 0 0.99999994 -0
vn 0 1 -0
vn 0 1 -0
vn 0 1 -0
vn 0 -0.936804 0.34985465
vn 0 -0.936804 0.34985465
vn 0 -0.936804 0.34985465
vn 0.35993943 -0.93248034 0.030398052
vn 0.35993943 -0.93248034 0.030398052
vn 0.35993943 -0.93248034 0.030398052
vn -0.35993943 -0.93248034 0.030398052
vn -0.35993943 -0.93248034 0.030398052
vn -0.35993943 -0.93248034 0.030398052
vn 0 0.99999994 -0
vn 0 0.99999994 -0
vn 0 0.99999994 -0
vn 0 1 -0
vn 0 1 -0
vn 0 1 -0
vn 0 -0.93680406 0.34985465
vn 0 -0.93680406 0.34985465
vn 0 -0.93680406 0.34985465
vn 0.3210405 -0.9470135 0.009924012
vn 0.3210405 -0.9470135 0.009924012
vn 0.3210405 -0.9470135 0.009924012
vn -0.3210405 -0.9470135 0.009924012
vn -0.3210405 -0.9470135 0.009924012
vn -0.3210405 -0.9470135 0.009924012
vn 0 1 -0
vn 0 1 -0
vn 0 1 -0
vn 0 1 -0
vn 0 1 -0
vn 0 1 -0
vn 0 -0.936804 0.34985462
vn 0 -0.936804 0.34985462
vn 0 -0.936804 0.34985462
vn 0.31925452 -0.9476176 -0.009868802
vn 0.31925452 -0.9476176 -0.009868802
vn 0.31925452 -0.9476176 -0.009868802
vn -0.31925452 -0.9476176 -0.009868802
vn -0.31925452 -0.9476176 -0.009868802
vn -0.31925452 -0.9476176 -0.009868802
vn 0 1 0
vn 0 1 0
vn 0 1 0
vn 0 1 0
vn 0 1 0
vn 0 1 0
vn 0 -0.93680394 0.34985465
vn 0 -0.93680394 0.34985465
vn 0 -0.93680394 0.34985465
vn 0.36328095 -0.93076044 -0.041373335
vn 0.36328095 -0.93076044 -0.041373335
vn 0.36328095 -0.93076044 -0.041373335
vn -0.36328095 -0.93076044 -0.041373335
vn -0.36328095 -0.93076044 -0.041373335
vn -0.36328095 -0.93076044 -0.041373335
vn 0 1 0
vn 0 1 0
vn 0 1 0
vn 0 1 0
vn 0 1 0
vn 0 1 0
vn 0 -0.93680406 0.34985465
vn 0 -0.93680406 0.34985465
vn 0 -0.93680406 0.34985465
vn 0.6219269 -0.7488955 -0.22882834
vn 0.6219269 -0.7488955 -0.22882834
vn 0.6219269 -0.7488955 -0.22882834
vn -0.6219269 -0.7488955 -0.22882834
vn -0.6219269 -0.7488955 -0.22882834
vn -0.6219269 -0.7488955 -0.22882834
vn 0 0.99999994 0
vn 0 0.99999994 0
vn 0 0.99999994 0
vn 0 1 0
vn 0 1 0
vn 0 1 0
vn 0 -0.6461631 0.7631994
vn 0 -0.6461631 0.7631994
vn 0 -0.6461631 0.7631994
vn 0 -0.6461631 0.7631994
vn 0 -0.6461631 0.7631994
vn 0 -0.6461631 0.7631994
vn 0 -0.64616317 0.76319927
vn 0 -0.64616317 0.76319927
vn 0 -0.64616317 0.76319927
vn 0 -0.6461631 0.7631994
vn 0 -0.6461631 0.7631994
vn 0 -0.6461631 0.7631994
vn 0 -0.6461631 0.7631994
vn 0 -0.6461631 0.7631994
vn 0 -0.6461631 0.7631994
vn -0 0.9938208 0.1109971
vn -0 0.9938208 0.1109971
vn -0 0.9938208 0.1109971
vn 0 -0.9841488 0.1773446
vn 0 -0.9841488 0.1773446
vn 0 -0.9841488 0.1773446
vn 0 -0.9841488 0.1773446
vn 0 -0.9841488 0.1773446
vn 0 -0.9841488 0.1773446
vn 0 -0.9841488 0.1773446
vn 0 -0.9841488 0.1773446
vn 0 -0.9841488 0.1773446
f 1//1 2//2 3//3
f 4//4 5//5 6//6
f 7//7 8//8 9//9
f 10//10 11//11 12//12
f 13//13 14//14 15//15
f 16//16 17//17 18//18
f 19//19 20//20 21//21
f 22//22 23//23 24//24
f 25//25 26//26 27//27
f 28//28 29//29 30//30
f 31//31 32//32 33//33
f 34//34 35//35 36//36
f 37//37 38//38 39//39
f 40//40 41//41 42//42
f 43//43 44//44 45//45
f 46//46 47//47 48//48
f 49//49 50//50 51//51
f 52//52 53//53 54//54
f 55//55 56//56 57//57
f 58//58 59//59 60//60
f 61//61 62//62 63//63
f 64//64 65//65 66//66
f 67//67 68//68 69//69
f 70//70 71//71 72//72
f 73//73 74//74 75//75
f 76//76 77//77 78//78
f 79//79 80//80 81//81
f 82//82 83//83 84//84
f 85//85 86//86 87//87
f 88//88 89//89 90//90
f 91//91 92//92 93//93
f 94//94 95//95 96//96
f 97//97 98//98 99//99
f 100//100 101//101 102//102
f 103//103 104//104 105//105
f 106//106 107//107 108//108
f 109//109 110//110 111//111
f 112//112 113//113 114//114
f 115//115 116//116 117//117
