# Exported from SharpOpenGl procedural mesh
o vesper_destroyer_mk3_42
# vertices 228
v -0.45729822 0.30475917 -3.8667297
v 0.45729822 0.30475917 -3.8667297
v 0 0.62693316 -3.0362616
v -0.45729822 0.30475917 -3.8667297
v 0 0.62693316 -3.0362616
v -0.68594736 0.30475917 -2.021245
v 0.45729822 0.30475917 -3.8667297
v 0.68594736 0.30475917 -2.021245
v 0 0.62693316 -3.0362616
v -0.45729822 0 -3.8667297
v -0.68594736 0 -2.021245
v 0.45729822 0 -3.8667297
v 0.45729822 0 -3.8667297
v -0.68594736 0 -2.021245
v 0.68594736 0 -2.021245
v -0.45729822 0 -3.8667297
v -0.45729822 0.30475917 -3.8667297
v -0.68594736 0.30475917 -2.021245
v -0.45729822 0 -3.8667297
v -0.68594736 0.30475917 -2.021245
v -0.68594736 0 -2.021245
v 0.45729822 0 -3.8667297
v 0.68594736 0.30475917 -2.021245
v 0.45729822 0.30475917 -3.8667297
v 0.45729822 0 -3.8667297
v 0.68594736 0 -2.021245
v 0.68594736 0.30475917 -2.021245
v -0.68594736 0.30475917 -2.021245
v 0.68594736 0.30475917 -2.021245
v 0 0.62693316 -1.1907768
v -0.68594736 0.30475917 -2.021245
v 0 0.62693316 -1.1907768
v -0.8533302 0.30475917 -0.17576027
v 0.68594736 0.30475917 -2.021245
v 0.8533302 0.30475917 -0.17576027
v 0 0.62693316 -1.1907768
v -0.68594736 0 -2.021245
v -0.8533302 0 -0.17576027
v 0.68594736 0 -2.021245
v 0.68594736 0 -2.021245
v -0.8533302 0 -0.17576027
v 0.8533302 0 -0.17576027
v -0.68594736 0 -2.021245
v -0.68594736 0.30475917 -2.021245
v -0.8533302 0.30475917 -0.17576027
v -0.68594736 0 -2.021245
v -0.8533302 0.30475917 -0.17576027
v -0.8533302 0 -0.17576027
v 0.68594736 0 -2.021245
v 0.8533302 0.30475917 -0.17576027
v 0.68594736 0.30475917 -2.021245
v 0.68594736 0 -2.021245
v 0.8533302 0 -0.17576027
v 0.8533302 0.30475917 -0.17576027
v -0.8533302 0.30475917 -0.17576027
v 0.8533302 0.30475917 -0.17576027
v 0 0.62693316 0.65470785
v -0.8533302 0.30475917 -0.17576027
v 0 0.62693316 0.65470785
v -0.91459644 0.30475917 1.6697245
v 0.8533302 0.30475917 -0.17576027
v 0.91459644 0.30475917 1.6697245
v 0 0.62693316 0.65470785
v -0.8533302 0 -0.17576027
v -0.91459644 0 1.6697245
v 0.8533302 0 -0.17576027
v 0.8533302 0 -0.17576027
v -0.91459644 0 1.6697245
v 0.91459644 0 1.6697245
v -0.8533302 0 -0.17576027
v -0.8533302 0.30475917 -0.17576027
v -0.91459644 0.30475917 1.6697245
v -0.8533302 0 -0.17576027
v -0.91459644 0.30475917 1.6697245
v -0.91459644 0 1.6697245
v 0.8533302 0 -0.17576027
v 0.91459644 0.30475917 1.6697245
v 0.8533302 0.30475917 -0.17576027
v 0.8533302 0 -0.17576027
v 0.91459644 0 1.6697245
v 0.91459644 0.30475917 1.6697245
v -0.91459644 0.30475917 1.6697245
v 0.91459644 0.30475917 1.6697245
v 0 0.62693316 2.5001926
v -0.91459644 0.30475917 1.6697245
v 0 0.62693316 2.5001926
v -0.85333014 0.30475917 3.5152092
v 0.91459644 0.30475917 1.6697245
v 0.85333014 0.30475917 3.5152092
v 0 0.62693316 2.5001926
v -0.91459644 0 1.6697245
v -0.85333014 0 3.5152092
v 0.91459644 0 1.6697245
v 0.91459644 0 1.6697245
v -0.85333014 0 3.5152092
v 0.85333014 0 3.5152092
v -0.91459644 0 1.6697245
v -0.91459644 0.30475917 1.6697245
v -0.85333014 0.30475917 3.5152092
v -0.91459644 0 1.6697245
v -0.85333014 0.30475917 3.5152092
v -0.85333014 0 3.5152092
v 0.91459644 0 1.6697245
v 0.85333014 0.30475917 3.5152092
v 0.91459644 0.30475917 1.6697245
v 0.91459644 0 1.6697245
v 0.85333014 0 3.5152092
v 0.85333014 0.30475917 3.5152092
v -0.85333014 0.30475917 3.5152092
v 0.85333014 0.30475917 3.5152092
v 0 0.62693316 4.3456774
v -0.85333014 0.30475917 3.5152092
v 0 0.62693316 4.3456774
v -0.68594736 0.30475917 5.360694
v 0.85333014 0.30475917 3.5152092
v 0.68594736 0.30475917 5.360694
v 0 0.62693316 4.3456774
v -0.85333014 0 3.5152092
v -0.68594736 0 5.360694
v 0.85333014 0 3.5152092
v 0.85333014 0 3.5152092
v -0.68594736 0 5.360694
v 0.68594736 0 5.360694
v -0.85333014 0 3.5152092
v -0.85333014 0.30475917 3.5152092
v -0.68594736 0.30475917 5.360694
v -0.85333014 0 3.5152092
v -0.68594736 0.30475917 5.360694
v -0.68594736 0 5.360694
v 0.85333014 0 3.5152092
v 0.68594736 0.30475917 5.360694
v 0.85333014 0.30475917 3.5152092
v 0.85333014 0 3.5152092
v 0.68594736 0 5.360694
v 0.68594736 0.30475917 5.360694
v -0.68594736 0.30475917 5.360694
v 0.68594736 0.30475917 5.360694
v 0 0.62693316 6.191162
v -0.68594736 0.30475917 5.360694
v 0 0.62693316 6.191162
v -0 0.30475917 7.2061787
v 0.68594736 0.30475917 5.360694
v 0 0.30475917 7.2061787
v 0 0.62693316 6.191162
v -0.68594736 0 5.360694
v -0 0 7.2061787
v 0.68594736 0 5.360694
v 0.68594736 0 5.360694
v -0 0 7.2061787
v 0 0 7.2061787
v -0.68594736 0 5.360694
v -0.68594736 0.30475917 5.360694
v -0 0.30475917 7.2061787
v -0.68594736 0 5.360694
v -0 0.30475917 7.2061787
v -0 0 7.2061787
v 0.68594736 0 5.360694
v 0 0.30475917 7.2061787
v 0.68594736 0.30475917 5.360694
v 0.68594736 0 5.360694
v 0 0 7.2061787
v 0 0.30475917 7.2061787
v -0.33344662 0 7.206178
v 0.33344662 0 7.206178
v 0 0.5328932 7.557699
v -0.33344662 0 -3.8667297
v 0 0.18285552 -4.13037
v 0.33344662 0 -3.8667297
v 0 0.6791775 -2.9439874
v -0.09527047 0.5398591 -3.077366
v 0.09527047 0.5398591 -3.077366
v 0 0.6791775 -1.0985026
v -0.09527047 0.5398591 -1.2318813
v 0.09527047 0.5398591 -1.2318813
v 0 0.6791775 0.7469821
v -0.09527047 0.5398591 0.6136035
v 0.09527047 0.5398591 0.6136035
v 0 0.6791775 2.5924668
v -0.09527047 0.5398591 2.459088
v 0.09527047 0.5398591 2.459088
v 0 0.6791775 4.437952
v -0.09527047 0.5398591 4.3045735
v 0.09527047 0.5398591 4.3045735
v -0.40013593 0.24380733 -1.8736061
v 0.40013593 0.24380733 -1.8736061
v 0 0.41795543 -2.980897
v -0.574908 0.0941341 -1.1184756
v -0.82129717 0 -1.2539896
v -0.32851887 0 -1.2539896
v 0 0.0941341 -1.1184756
v -0.24638915 0 -1.2539896
v 0.24638915 0 -1.2539896
v 0.574908 0.0941341 -1.1184756
v 0.32851887 0 -1.2539896
v 0.82129717 0 -1.2539896
v -0.31143054 0.058833815 -1.086519
v 0.31143054 0.058833815 -1.086519
v 0 0.25886878 -0.8468457
v -0.34756762 0.058833815 0.2556517
v 0.34756762 0.058833815 0.2556517
v 0 0.25886878 0.49532503
v -0.36137074 0.058833815 1.5978224
v 0.36137074 0.058833815 1.5978224
v 0 0.25886878 1.8374958
v -0.34756762 0.058833815 2.9399931
v 0.34756762 0.058833815 2.9399931
v 0 0.25886878 3.1796665
v -0.31143054 0.058833815 4.2821636
v 0.31143054 0.058833815 4.2821636
v 0 0.25886878 4.5218368
v 0 0.647172 -0.10652137
v -0.11498161 0.494204 -0.46603137
v 0.11498161 0.494204 -0.46603137
v 0 0.647172 1.065215
v -0.11498161 0.494204 0.705705
v 0.11498161 0.494204 0.705705
v 0 0.647172 2.2369514
v -0.11498161 0.494204 1.8774414
v 0.11498161 0.494204 1.8774414
v 0 0.647172 3.4086876
v -0.11498161 0.494204 3.0491776
v 0.11498161 0.494204 3.0491776
v 0 0.647172 4.580424
v -0.11498161 0.494204 4.220914
v 0.11498161 0.494204 4.220914
v -0.22996321 0 -3.3953722
v 0.22996321 0 -3.3953722
v 0 0.058833815 -3.7548823
vn 0 -0.9323025 0.36167982
vn 0 -0.9323025 0.36167982
vn 0 -0.9323025 0.36167982
vn 0.49759784 -0.8652141 0.06165064
vn 0.49759784 -0.8652141 0.06165064
vn 0.49759784 -0.8652141 0.06165064
vn -0.49759784 -0.8652141 0.06165064
vn -0.49759784 -0.8652141 0.06165064
vn -0.49759784 -0.8652141 0.06165064
vn 0 1 -0
vn 0 1 -0
vn 0 1 -0
vn 0 1 -0
vn 0 1 -0
vn 0 1 -0
vn 0.99241203 -0 0.1229564
vn 0.99241203 -0 0.1229564
vn 0.99241203 -0 0.1229564
vn 0.99241203 0 0.1229564
vn 0.99241203 0 0.1229564
vn 0.99241203 0 0.1229564
vn -0.99241203 0 0.1229564
vn -0.99241203 0 0.1229564
vn -0.99241203 0 0.1229564
vn -0.99241203 0 0.1229564
vn -0.99241203 0 0.1229564
vn -0.99241203 0 0.1229564
vn 0 -0.9323024 0.36167982
vn 0 -0.9323024 0.36167982
vn 0 -0.9323024 0.36167982
vn 0.38949767 -0.9203497 0.03532688
vn 0.38949767 -0.9203497 0.03532688
vn 0.38949767 -0.9203497 0.03532688
vn -0.38949767 -0.9203497 0.03532688
vn -0.38949767 -0.9203497 0.03532688
vn -0.38949767 -0.9203497 0.03532688
vn 0 1 -0
vn 0 1 -0
vn 0 1 -0
vn 0 1 -0
vn 0 1 -0
vn 0 1 -0
vn 0.9959121 -0 0.09032781
vn 0.9959121 -0 0.09032781
vn 0.9959121 -0 0.09032781
vn 0.9959121 0 0.09032781
vn 0.9959121 0 0.09032781
vn 0.9959121 0 0.09032781
vn -0.9959121 0 0.09032781
vn -0.9959121 0 0.09032781
vn -0.9959121 0 0.09032781
vn -0.9959121 0 0.09032781
vn -0.9959121 0 0.09032781
vn -0.9959121 0 0.09032781
vn 0 -0.93230236 0.36167985
vn 0 -0.93230236 0.36167985
vn 0 -0.93230236 0.36167985
vn 0.34345904 -0.9390984 0.011402123
vn 0.34345904 -0.9390984 0.011402123
vn 0.34345904 -0.9390984 0.011402123
vn -0.34345904 -0.9390984 0.011402123
vn -0.34345904 -0.9390984 0.011402123
vn -0.34345904 -0.9390984 0.011402123
vn 0 1 -0
vn 0 1 -0
vn 0 1 -0
vn 0 1 -0
vn 0 1 -0
vn 0 1 -0
vn 0.99944943 -0 0.033179633
vn 0.99944943 -0 0.033179633
vn 0.99944943 -0 0.033179633
vn 0.99944943 0 0.033179633
vn 0.99944943 0 0.033179633
vn 0.99944943 0 0.033179633
vn -0.99944943 0 0.033179633
vn -0.99944943 0 0.033179633
vn -0.99944943 0 0.033179633
vn -0.99944943 0 0.033179633
vn -0.99944943 0 0.033179633
vn -0.99944943 0 0.033179633
vn 0 -0.9323025 0.36167982
vn 0 -0.9323025 0.36167982
vn 0 -0.9323025 0.36167982
vn 0.3413644 -0.93986267 -0.011332598
vn 0.3413644 -0.93986267 -0.011332598
vn 0.3413644 -0.93986267 -0.011332598
vn -0.3413644 -0.93986267 -0.011332598
vn -0.3413644 -0.93986267 -0.011332598
vn -0.3413644 -0.93986267 -0.011332598
vn 0 1 0
vn 0 1 0
vn 0 1 0
vn 0 1 0
vn 0 1 0
vn 0 1 0
vn 0.99944943 0 -0.033179667
vn 0.99944943 0 -0.033179667
vn 0.99944943 0 -0.033179667
vn 0.99944943 0 -0.033179667
vn 0.99944943 0 -0.033179667
vn 0.99944943 0 -0.033179667
vn -0.99944943 0 -0.033179667
vn -0.99944943 0 -0.033179667
vn -0.99944943 0 -0.033179667
vn -0.99944943 0 -0.033179667
vn -0.99944943 0 -0.033179667
vn -0.99944943 0 -0.033179667
vn 0 -0.93230236 0.3616798
vn 0 -0.93230236 0.3616798
vn 0 -0.93230236 0.3616798
vn 0.38236463 -0.92336047 -0.034679916
vn 0.38236463 -0.92336047 -0.034679916
vn 0.38236463 -0.92336047 -0.034679916
vn -0.38236463 -0.92336047 -0.034679916
vn -0.38236463 -0.92336047 -0.034679916
vn -0.38236463 -0.92336047 -0.034679916
vn 0 1 0
vn 0 1 0
vn 0 1 0
vn 0 1 0
vn 0 1 0
vn 0 1 0
vn 0.9959121 0 -0.09032777
vn 0.9959121 0 -0.09032777
vn 0.9959121 0 -0.09032777
vn 0.9959121 0 -0.09032777
vn 0.9959121 0 -0.09032777
vn 0.9959121 0 -0.09032777
vn -0.9959121 0 -0.09032777
vn -0.9959121 0 -0.09032777
vn -0.9959121 0 -0.09032777
vn -0.9959121 0 -0.09032777
vn -0.9959121 0 -0.09032777
vn -0.9959121 0 -0.09032777
vn 0 -0.9323024 0.36167982
vn 0 -0.9323024 0.36167982
vn 0 -0.9323024 0.36167982
vn 0.63126576 -0.7392226 -0.23463489
vn 0.63126576 -0.7392226 -0.23463489
vn 0.63126576 -0.7392226 -0.23463489
vn -0.63126576 -0.7392226 -0.23463489
vn -0.63126576 -0.7392226 -0.23463489
vn -0.63126576 -0.7392226 -0.23463489
vn 0 1 0
vn 0 1 0
vn 0 1 0
vn 0 1 0
vn 0 1 0
vn 0 1 0
vn 0.9373453 0 -0.34840143
vn 0.9373453 0 -0.34840143
vn 0.9373453 0 -0.34840143
vn 0.9373453 0 -0.34840143
vn 0.9373453 0 -0.34840143
vn 0.9373453 0 -0.34840143
vn -0.9373453 0 -0.34840143
vn -0.9373453 0 -0.34840143
vn -0.9373453 0 -0.34840143
vn -0.9373453 0 -0.34840143
vn -0.9373453 0 -0.34840143
vn -0.9373453 0 -0.34840143
vn 0 -0.55063653 0.8347451
vn 0 -0.55063653 0.8347451
vn 0 -0.55063653 0.8347451
vn 0 -0.82170284 -0.56991607
vn 0 -0.82170284 -0.56991607
vn 0 -0.82170284 -0.56991607
vn 0 -0.69154114 0.72233707
vn 0 -0.69154114 0.72233707
vn 0 -0.69154114 0.72233707
vn 0 -0.6915408 0.7223373
vn 0 -0.6915408 0.7223373
vn 0 -0.6915408 0.7223373
vn 0 -0.6915408 0.7223373
vn 0 -0.6915408 0.7223373
vn 0 -0.6915408 0.7223373
vn 0 -0.69154114 0.72233707
vn 0 -0.69154114 0.72233707
vn 0 -0.69154114 0.72233707
vn 0 -0.6915406 0.7223377
vn 0 -0.6915406 0.7223377
vn 0 -0.6915406 0.7223377
vn -0 0.98785734 0.1553643
vn -0 0.98785734 0.1553643
vn -0 0.98785734 0.1553643
vn 0 -0.8212929 0.57050675
vn 0 -0.8212929 0.57050675
vn 0 -0.8212929 0.57050675
vn 0 -0.8212929 0.57050675
vn 0 -0.8212929 0.57050675
vn 0 -0.8212929 0.57050675
vn 0 -0.8212929 0.57050675
vn 0 -0.8212929 0.57050675
vn 0 -0.8212929 0.57050675
vn 0 -0.7677371 0.640765
vn 0 -0.7677371 0.640765
vn 0 -0.7677371 0.640765
vn 0 -0.76773703 0.64076495
vn 0 -0.76773703 0.64076495
vn 0 -0.76773703 0.64076495
vn 0 -0.7677372 0.6407649
vn 0 -0.7677372 0.6407649
vn 0 -0.7677372 0.6407649
vn 0 -0.76773715 0.6407649
vn 0 -0.76773715 0.6407649
vn 0 -0.76773715 0.6407649
vn 0 -0.76773685 0.6407653
vn 0 -0.76773685 0.6407653
vn 0 -0.76773685 0.6407653
vn 0 -0.9201685 0.39152262
vn 0 -0.9201685 0.39152262
vn 0 -0.9201685 0.39152262
vn 0 -0.9201685 0.39152262
vn 0 -0.9201685 0.39152262
vn 0 -0.9201685 0.39152262
vn 0 -0.92016846 0.39152268
vn 0 -0.92016846 0.39152268
vn 0 -0.92016846 0.39152268
vn 0 -0.92016846 0.39152268
vn 0 -0.92016846 0.39152268
vn 0 -0.92016846 0.39152268
vn 0 -0.92016846 0.39152268
vn 0 -0.92016846 0.39152268
vn 0 -0.92016846 0.39152268
vn -0 0.9868725 0.16150162
vn -0 0.9868725 0.16150162
vn -0 0.9868725 0.16150162
f 1//1 2//2 3//3
f 4//4 5//5 6//6
f 7//7 8//8 9//9
f 10//10 11//11 12//12
f 13//13 14//14 15//15
f 16//16 17//17 18//18
f 19//19 20//20 21//21
f 22//22 23//23 24//24
f 25//25 26//26 27//27
f 28//28 29//29 30//30
f 31//31 32//32 33//33
f 34//34 35//35 36//36
f 37//37 38//38 39//39
f 40//40 41//41 42//42
f 43//43 44//44 45//45
f 46//46 47//47 48//48
f 49//49 50//50 51//51
f 52//52 53//53 54//54
f 55//55 56//56 57//57
f 58//58 59//59 60//60
f 61//61 62//62 63//63
f 64//64 65//65 66//66
f 67//67 68//68 69//69
f 70//70 71//71 72//72
f 73//73 74//74 75//75
f 76//76 77//77 78//78
f 79//79 80//80 81//81
f 82//82 83//83 84//84
f 85//85 86//86 87//87
f 88//88 89//89 90//90
f 91//91 92//92 93//93
f 94//94 95//95 96//96
f 97//97 98//98 99//99
f 100//100 101//101 102//102
f 103//103 104//104 105//105
f 106//106 107//107 108//108
f 109//109 110//110 111//111
f 112//112 113//113 114//114
f 115//115 116//116 117//117
f 118//118 119//119 120//120
f 121//121 122//122 123//123
f 124//124 125//125 126//126
f 127//127 128//128 129//129
f 130//130 131//131 132//132
f 133//133 134//134 135//135
f 136//136 137//137 138//138
f 139//139 140//140 141//141
f 142//142 143//143 144//144
f 145//145 146//146 147//147
f 148//148 149//149 150//150
f 151//151 152//152 153//153
f 154//154 155//155 156//156
f 157//157 158//158 159//159
f 160//160 161//161 162//162
f 163//163 164//164 165//165
f 166//166 167//167 168//168
f 169//169 170//170 171//171
f 172//172 173//173 174//174
f 175//175 176//176 177//177
f 178//178 179//179 180//180
f 181//181 182//182 183//183
f 184//184 185//185 186//186
f 187//187 188//188 189//189
f 190//190 191//191 192//192
f 193//193 194//194 195//195
f 196//196 197//197 198//198
f 199//199 200//200 201//201
f 202//202 203//203 204//204
f 205//205 206//206 207//207
f 208//208 209//209 210//210
f 211//211 212//212 213//213
f 214//214 215//215 216//216
f 217//217 218//218 219//219
f 220//220 221//221 222//222
f 223//223 224//224 225//225
f 226//226 227//227 228//228
