# Exported from SharpOpenGl procedural mesh
o vesper_freighter_mk1_14
# vertices 117
v -0.97924644 0.3867603 -5.017417
v 0.97924644 0.3867603 -5.017417
v 0 0.7956212 -4.0800724
v -0.97924644 0.3867603 -5.017417
v 0 0.7956212 -4.0800724
v -1.3798472 0.3867603 -2.9344287
v 0.97924644 0.3867603 -5.017417
v 1.3798472 0.3867603 -2.9344287
v 0 0.7956212 -4.0800724
v -0.97924644 0 -5.017417
v -1.3798472 0 -2.9344287
v 0.97924644 0 -5.017417
v 0.97924644 0 -5.017417
v -1.3798472 0 -2.9344287
v 1.3798472 0 -2.9344287
v -1.3798472 0.3867603 -2.9344287
v 1.3798472 0.3867603 -2.9344287
v 0 0.7956212 -1.997084
v -1.3798472 0.3867603 -2.9344287
v 0 0.7956212 -1.997084
v -1.6731075 0.3867603 -0.8514404
v 1.3798472 0.3867603 -2.9344287
v 1.6731075 0.3867603 -0.8514404
v 0 0.7956212 -1.997084
v -1.3798472 0 -2.9344287
v -1.6731075 0 -0.8514404
v 1.3798472 0 -2.9344287
v 1.3798472 0 -2.9344287
v -1.6731075 0 -0.8514404
v 1.6731075 0 -0.8514404
v -1.6731075 0.3867603 -0.8514404
v 1.6731075 0.3867603 -0.8514404
v 0 0.7956212 0.08590406
v -1.6731075 0.3867603 -0.8514404
v 0 0.7956212 0.08590406
v -1.7804481 0.3867603 1.2315474
v 1.6731075 0.3867603 -0.8514404
v 1.7804481 0.3867603 1.2315474
v 0 0.7956212 0.08590406
v -1.6731075 0 -0.8514404
v -1.7804481 0 1.2315474
v 1.6731075 0 -0.8514404
v 1.6731075 0 -0.8514404
v -1.7804481 0 1.2315474
v 1.7804481 0 1.2315474
v -1.7804481 0.3867603 1.2315474
v 1.7804481 0.3867603 1.2315474
v 0 0.7956212 2.1688924
v -1.7804481 0.3867603 1.2315474
v 0 0.7956212 2.1688924
v -1.6731075 0.3867603 3.314536
v 1.7804481 0.3867603 1.2315474
v 1.6731075 0.3867603 3.314536
v 0 0.7956212 2.1688924
v -1.7804481 0 1.2315474
v -1.6731075 0 3.314536
v 1.7804481 0 1.2315474
v 1.7804481 0 1.2315474
v -1.6731075 0 3.314536
v 1.6731075 0 3.314536
v -1.6731075 0.3867603 3.314536
v 1.6731075 0.3867603 3.314536
v 0 0.7956212 4.25188
v -1.6731075 0.3867603 3.314536
v 0 0.7956212 4.25188
v -1.2776364 0.3867603 5.397523
v 1.6731075 0.3867603 3.314536
v 1.2776364 0.3867603 5.397523
v 0 0.7956212 4.25188
v -1.6731075 0 3.314536
v -1.2776364 0 5.397523
v 1.6731075 0 3.314536
v 1.6731075 0 3.314536
v -1.2776364 0 5.397523
v 1.2776364 0 5.397523
v -1.2776364 0.3867603 5.397523
v 1.2776364 0.3867603 5.397523
v 0 0.7956212 6.334868
v -1.2776364 0.3867603 5.397523
v 0 0.7956212 6.334868
v -0 0.3867603 7.4805117
v 1.2776364 0.3867603 5.397523
v 0 0.3867603 7.4805117
v 0 0.7956212 6.334868
v -1.2776364 0 5.397523
v -0 0 7.4805117
v 1.2776364 0 5.397523
v 1.2776364 0 5.397523
v -0 0 7.4805117
v 0 0 7.4805117
v 0 0.861923 -3.9759228
v -0.14243585 0.68511826 -4.1895766
v 0.14243585 0.68511826 -4.1895766
v 0 0.861923 -1.8929348
v -0.14243585 0.68511826 -2.1065886
v 0.14243585 0.68511826 -2.1065886
v 0 0.861923 0.19005299
v -0.14243585 0.68511826 -0.023600772
v 0.14243585 0.68511826 -0.023600772
v 0 0.861923 2.2730412
v -0.14243585 0.68511826 2.0593874
v 0.14243585 0.68511826 2.0593874
v 0 0.861923 4.3560295
v -0.14243585 0.68511826 4.142376
v 0.14243585 0.68511826 4.142376
v -0.7477882 0.30940825 -1.3683864
v 0.7477882 0.30940825 -1.3683864
v 0 0.46411237 -2.5543213
v -0.8595267 0.122781046 -4.9182587
v -1.3384058 0 -5.9717927
v -0.38064757 0 -5.9717927
v 0.8595267 0.122781046 -4.9182587
v 0.38064757 0 -5.9717927
v 1.3384058 0 -5.9717927
v 0 0.58321 -0.39663374
v -0.21488167 0.21486683 -0.58081806
v 0.21488167 0.21486683 -0.58081806
vn 0 -0.9165975 0.39981124
vn 0 -0.9165975 0.39981124
vn 0 -0.9165975 0.39981124
vn 0.331867 -0.9411645 0.063824736
vn 0.331867 -0.9411645 0.063824736
vn 0.331867 -0.9411645 0.063824736
vn -0.331867 -0.9411645 0.063824736
vn -0.331867 -0.9411645 0.063824736
vn -0.331867 -0.9411645 0.063824736
vn 0 1 -0
vn 0 1 -0
vn 0 1 -0
vn 0 1 -0
vn 0 1 -0
vn 0 1 -0
vn 0 -0.91659755 0.3998112
vn 0 -0.91659755 0.3998112
vn 0 -0.91659755 0.3998112
vn 0.26088905 -0.96466976 0.03673012
vn 0.26088905 -0.96466976 0.03673012
vn 0.26088905 -0.96466976 0.03673012
vn -0.26088905 -0.96466976 0.03673012
vn -0.26088905 -0.96466976 0.03673012
vn -0.26088905 -0.96466976 0.03673012
vn 0 1 -0
vn 0 1 -0
vn 0 1 -0
vn 0 1 -0
vn 0 1 -0
vn 0 1 -0
vn 0 -0.91659755 0.3998113
vn 0 -0.91659755 0.3998113
vn 0 -0.91659755 0.3998113
vn 0.2310699 -0.9728643 0.011907498
vn 0.2310699 -0.9728643 0.011907498
vn 0.2310699 -0.9728643 0.011907498
vn -0.2310699 -0.9728643 0.011907498
vn -0.2310699 -0.9728643 0.011907498
vn -0.2310699 -0.9728643 0.011907498
vn 0 1 -0
vn 0 1 -0
vn 0 1 -0
vn 0 1 -0
vn 0 1 -0
vn 0 1 -0
vn 0 -0.91659755 0.39981106
vn 0 -0.91659755 0.39981106
vn 0 -0.91659755 0.39981106
vn 0.22971395 -0.9731862 -0.011837618
vn 0.22971395 -0.9731862 -0.011837618
vn 0.22971395 -0.9731862 -0.011837618
vn -0.22971395 -0.9731862 -0.011837618
vn -0.22971395 -0.9731862 -0.011837618
vn -0.22971395 -0.9731862 -0.011837618
vn 0 1 0
vn 0 1 0
vn 0 1 0
vn 0 1 0
vn 0 1 0
vn 0 1 0
vn 0 -0.91659737 0.39981142
vn 0 -0.91659737 0.39981142
vn 0 -0.91659737 0.39981142
vn 0.2634441 -0.9633771 -0.05001689
vn 0.2634441 -0.9633771 -0.05001689
vn 0.2634441 -0.9633771 -0.05001689
vn -0.2634441 -0.9633771 -0.05001689
vn -0.2634441 -0.9633771 -0.05001689
vn -0.2634441 -0.9633771 -0.05001689
vn 0 1 0
vn 0 1 0
vn 0 1 0
vn 0 0.99999994 0
vn 0 0.99999994 0
vn 0 0.99999994 0
vn 0 -0.9165976 0.39981106
vn 0 -0.9165976 0.39981106
vn 0 -0.9165976 0.39981106
vn 0.48056543 -0.8259369 -0.29476294
vn 0.48056543 -0.8259369 -0.29476294
vn 0.48056543 -0.8259369 -0.29476294
vn -0.48056543 -0.8259369 -0.29476294
vn -0.48056543 -0.8259369 -0.29476294
vn -0.48056543 -0.8259369 -0.29476294
vn 0 1 0
vn 0 1 0
vn 0 1 0
vn 0 1 0
vn 0 1 0
vn 0 1 0
vn 0 -0.77041596 0.63754153
vn 0 -0.77041596 0.63754153
vn 0 -0.77041596 0.63754153
vn 0 -0.77041596 0.63754153
vn 0 -0.77041596 0.63754153
vn 0 -0.77041596 0.63754153
vn 0 -0.7704159 0.63754165
vn 0 -0.7704159 0.63754165
vn 0 -0.7704159 0.63754165
vn 0 -0.77041596 0.63754153
vn 0 -0.77041596 0.63754153
vn 0 -0.77041596 0.63754153
vn 0 -0.7704156 0.637542
vn 0 -0.7704156 0.637542
vn 0 -0.7704156 0.637542
vn -0 0.9915986 0.12935314
vn -0 0.9915986 0.12935314
vn -0 0.9915986 0.12935314
vn 0 -0.9932773 0.11575861
vn 0 -0.9932773 0.11575861
vn 0 -0.9932773 0.11575861
vn 0 -0.9932773 0.11575861
vn 0 -0.9932773 0.11575861
vn 0 -0.9932773 0.11575861
vn 0 -0.4472383 0.8944148
vn 0 -0.4472383 0.8944148
vn 0 -0.4472383 0.8944148
f 1//1 2//2 3//3
f 4//4 5//5 6//6
f 7//7 8//8 9//9
f 10//10 11//11 12//12
f 13//13 14//14 15//15
f 16//16 17//17 18//18
f 19//19 20//20 21//21
f 22//22 23//23 24//24
f 25//25 26//26 27//27
f 28//28 29//29 30//30
f 31//31 32//32 33//33
f 34//34 35//35 36//36
f 37//37 38//38 39//39
f 40//40 41//41 42//42
f 43//43 44//44 45//45
f 46//46 47//47 48//48
f 49//49 50//50 51//51
f 52//52 53//53 54//54
f 55//55 56//56 57//57
f 58//58 59//59 60//60
f 61//61 62//62 63//63
f 64//64 65//65 66//66
f 67//67 68//68 69//69
f 70//70 71//71 72//72
f 73//73 74//74 75//75
f 76//76 77//77 78//78
f 79//79 80//80 81//81
f 82//82 83//83 84//84
f 85//85 86//86 87//87
f 88//88 89//89 90//90
f 91//91 92//92 93//93
f 94//94 95//95 96//96
f 97//97 98//98 99//99
f 100//100 101//101 102//102
f 103//103 104//104 105//105
f 106//106 107//107 108//108
f 109//109 110//110 111//111
f 112//112 113//113 114//114
f 115//115 116//116 117//117
