# Exported from SharpOpenGl procedural mesh
o vesper_bomber_phantom_57
# vertices 228
v -0.55376166 0.22306994 -2.0488346
v 0.55376166 0.22306994 -2.0488346
v 0 0.45888674 -1.6088008
v -0.55376166 0.22306994 -2.0488346
v 0 0.45888674 -1.6088008
v -0.8306425 0.22306994 -1.0709817
v 0.55376166 0.22306994 -2.0488346
v 0.8306425 0.22306994 -1.0709817
v 0 0.45888674 -1.6088008
v -0.55376166 0 -2.0488346
v -0.8306425 0 -1.0709817
v 0.55376166 0 -2.0488346
v 0.55376166 0 -2.0488346
v -0.8306425 0 -1.0709817
v 0.8306425 0 -1.0709817
v -0.55376166 0 -2.0488346
v -0.55376166 0.22306994 -2.0488346
v -0.8306425 0.22306994 -1.0709817
v -0.55376166 0 -2.0488346
v -0.8306425 0.22306994 -1.0709817
v -0.8306425 0 -1.0709817
v 0.55376166 0 -2.0488346
v 0.8306425 0.22306994 -1.0709817
v 0.55376166 0.22306994 -2.0488346
v 0.55376166 0 -2.0488346
v 0.8306425 0 -1.0709817
v 0.8306425 0.22306994 -1.0709817
v -0.8306425 0.22306994 -1.0709817
v 0.8306425 0.22306994 -1.0709817
v 0 0.45888674 -0.63094795
v -0.8306425 0.22306994 -1.0709817
v 0 0.45888674 -0.63094795
v -1.0333334 0.22306994 -0.09312892
v 0.8306425 0.22306994 -1.0709817
v 1.0333334 0.22306994 -0.09312892
v 0 0.45888674 -0.63094795
v -0.8306425 0 -1.0709817
v -1.0333334 0 -0.09312892
v 0.8306425 0 -1.0709817
v 0.8306425 0 -1.0709817
v -1.0333334 0 -0.09312892
v 1.0333334 0 -0.09312892
v -0.8306425 0 -1.0709817
v -0.8306425 0.22306994 -1.0709817
v -1.0333334 0.22306994 -0.09312892
v -0.8306425 0 -1.0709817
v -1.0333334 0.22306994 -0.09312892
v -1.0333334 0 -0.09312892
v 0.8306425 0 -1.0709817
v 1.0333334 0.22306994 -0.09312892
v 0.8306425 0.22306994 -1.0709817
v 0.8306425 0 -1.0709817
v 1.0333334 0 -0.09312892
v 1.0333334 0.22306994 -0.09312892
v -1.0333334 0.22306994 -0.09312892
v 1.0333334 0.22306994 -0.09312892
v 0 0.45888674 0.34690484
v -1.0333334 0.22306994 -0.09312892
v 0 0.45888674 0.34690484
v -1.1075233 0.22306994 0.8847239
v 1.0333334 0.22306994 -0.09312892
v 1.1075233 0.22306994 0.8847239
v 0 0.45888674 0.34690484
v -1.0333334 0 -0.09312892
v -1.1075233 0 0.8847239
v 1.0333334 0 -0.09312892
v 1.0333334 0 -0.09312892
v -1.1075233 0 0.8847239
v 1.1075233 0 0.8847239
v -1.0333334 0 -0.09312892
v -1.0333334 0.22306994 -0.09312892
v -1.1075233 0.22306994 0.8847239
v -1.0333334 0 -0.09312892
v -1.1075233 0.22306994 0.8847239
v -1.1075233 0 0.8847239
v 1.0333334 0 -0.09312892
v 1.1075233 0.22306994 0.8847239
v 1.0333334 0.22306994 -0.09312892
v 1.0333334 0 -0.09312892
v 1.1075233 0 0.8847239
v 1.1075233 0.22306994 0.8847239
v -1.1075233 0.22306994 0.8847239
v 1.1075233 0.22306994 0.8847239
v 0 0.45888674 1.3247577
v -1.1075233 0.22306994 0.8847239
v 0 0.45888674 1.3247577
v -1.0333333 0.22306994 1.8625767
v 1.1075233 0.22306994 0.8847239
v 1.0333333 0.22306994 1.8625767
v 0 0.45888674 1.3247577
v -1.1075233 0 0.8847239
v -1.0333333 0 1.8625767
v 1.1075233 0 0.8847239
v 1.1075233 0 0.8847239
v -1.0333333 0 1.8625767
v 1.0333333 0 1.8625767
v -1.1075233 0 0.8847239
v -1.1075233 0.22306994 0.8847239
v -1.0333333 0.22306994 1.8625767
v -1.1075233 0 0.8847239
v -1.0333333 0.22306994 1.8625767
v -1.0333333 0 1.8625767
v 1.1075233 0 0.8847239
v 1.0333333 0.22306994 1.8625767
v 1.1075233 0.22306994 0.8847239
v 1.1075233 0 0.8847239
v 1.0333333 0 1.8625767
v 1.0333333 0.22306994 1.8625767
v -1.0333333 0.22306994 1.8625767
v 1.0333333 0.22306994 1.8625767
v 0 0.45888674 2.3026104
v -1.0333333 0.22306994 1.8625767
v 0 0.45888674 2.3026104
v -0.8306426 0.22306994 2.8404295
v 1.0333333 0.22306994 1.8625767
v 0.8306426 0.22306994 2.8404295
v 0 0.45888674 2.3026104
v -1.0333333 0 1.8625767
v -0.8306426 0 2.8404295
v 1.0333333 0 1.8625767
v 1.0333333 0 1.8625767
v -0.8306426 0 2.8404295
v 0.8306426 0 2.8404295
v -1.0333333 0 1.8625767
v -1.0333333 0.22306994 1.8625767
v -0.8306426 0.22306994 2.8404295
v -1.0333333 0 1.8625767
v -0.8306426 0.22306994 2.8404295
v -0.8306426 0 2.8404295
v 1.0333333 0 1.8625767
v 0.8306426 0.22306994 2.8404295
v 1.0333333 0.22306994 1.8625767
v 1.0333333 0 1.8625767
v 0.8306426 0 2.8404295
v 0.8306426 0.22306994 2.8404295
v -0.8306426 0.22306994 2.8404295
v 0.8306426 0.22306994 2.8404295
v 0 0.45888674 3.2804632
v -0.8306426 0.22306994 2.8404295
v 0 0.45888674 3.2804632
v -0 0.22306994 3.8182824
v 0.8306426 0.22306994 2.8404295
v 0 0.22306994 3.8182824
v 0 0.45888674 3.2804632
v -0.8306426 0 2.8404295
v -0 0 3.8182824
v 0.8306426 0 2.8404295
v 0.8306426 0 2.8404295
v -0 0 3.8182824
v 0 0 3.8182824
v -0.8306426 0 2.8404295
v -0.8306426 0.22306994 2.8404295
v -0 0.22306994 3.8182824
v -0.8306426 0 2.8404295
v -0 0.22306994 3.8182824
v -0 0 3.8182824
v 0.8306426 0 2.8404295
v 0 0.22306994 3.8182824
v 0.8306426 0.22306994 2.8404295
v 0.8306426 0 2.8404295
v 0 0 3.8182824
v 0 0.22306994 3.8182824
v -0.40378457 0 3.8182826
v 0.40378457 0 3.8182826
v 0 0.39005375 4.0045404
v -0.40378457 0 -2.0488346
v 0 0.13384196 -2.1885278
v 0.40378457 0 -2.0488346
v 0 0.4971273 -1.5599082
v -0.11536702 0.39515248 -1.721422
v 0.11536702 0.39515248 -1.721422
v 0 0.4971273 -0.58205533
v -0.11536702 0.39515248 -0.74356914
v 0.11536702 0.39515248 -0.74356914
v 0 0.4971273 0.3957975
v -0.11536702 0.39515248 0.23428367
v 0.11536702 0.39515248 0.23428367
v 0 0.4971273 1.3736503
v -0.11536702 0.39515248 1.2121365
v 0.11536702 0.39515248 1.2121365
v 0 0.4971273 2.3515031
v -0.11536702 0.39515248 2.1899893
v 0.11536702 0.39515248 2.1899893
v -0.48454148 0.17845595 -0.9927535
v 0.48454148 0.17845595 -0.9927535
v 0 0.30592448 -1.5794652
v -0.6961803 0.06890191 -0.5926381
v -0.98260874 0 -0.75017375
v -0.40975183 0 -0.75017375
v 0 0.06890191 -0.5926381
v -0.28642845 0 -0.75017375
v 0.28642845 0 -0.75017375
v 0.6961803 0.06890191 -0.5926381
v 0.40975183 0 -0.75017375
v 0.98260874 0 -0.75017375
v -0.37712434 0.043063696 -0.5757055
v 0.37712434 0.043063696 -0.5757055
v 0 0.18948026 -0.44871166
v -0.42088425 0.043063696 0.13546026
v 0.42088425 0.043063696 0.13546026
v 0 0.18948026 0.26245412
v -0.43759903 0.043063696 0.8466259
v 0.43759903 0.043063696 0.8466259
v 0 0.18948026 0.9736198
v -0.42088425 0.043063696 1.5577916
v 0.42088425 0.043063696 1.5577916
v 0 0.18948026 1.6847855
v -0.37712434 0.043063696 2.2689571
v 0.37712434 0.043063696 2.2689571
v 0 0.18948026 2.395951
v 0 0.47370064 -0.056441665
v -0.13923606 0.36173502 -0.24693248
v 0.13923606 0.36173502 -0.24693248
v 0 0.47370064 0.5644173
v -0.13923606 0.36173502 0.3739265
v 0.13923606 0.36173502 0.3739265
v 0 0.47370064 1.1852763
v -0.13923606 0.36173502 0.9947854
v 0.13923606 0.36173502 0.9947854
v 0 0.47370064 1.8061352
v -0.13923606 0.36173502 1.6156443
v 0.13923606 0.36173502 1.6156443
v 0 0.47370064 2.426994
v -0.13923606 0.36173502 2.2365034
v 0.13923606 0.36173502 2.2365034
v -0.27847213 0 -1.7990799
v 0.27847213 0 -1.7990799
v 0 0.043063696 -1.9895706
vn 0 -0.8814096 0.4723528
vn 0 -0.8814096 0.4723528
vn 0 -0.8814096 0.4723528
vn 0.32694435 -0.9404985 0.09257491
vn 0.32694435 -0.9404985 0.09257491
vn 0.32694435 -0.9404985 0.09257491
vn -0.32694435 -0.9404985 0.09257491
vn -0.32694435 -0.9404985 0.09257491
vn -0.32694435 -0.9404985 0.09257491
vn 0 1 -0
vn 0 1 -0
vn 0 1 -0
vn 0 0.99999994 -0
vn 0 0.99999994 -0
vn 0 0.99999994 -0
vn 0.96217245 -0 0.27244094
vn 0.96217245 -0 0.27244094
vn 0.96217245 -0 0.27244094
vn 0.96217245 0 0.27244094
vn 0.96217245 0 0.27244094
vn 0.96217245 0 0.27244094
vn -0.96217245 0 0.27244094
vn -0.96217245 0 0.27244094
vn -0.96217245 0 0.27244094
vn -0.96217245 0 0.27244094
vn -0.96217245 0 0.27244094
vn -0.96217245 0 0.27244094
vn 0 -0.8814096 0.47235274
vn 0 -0.8814096 0.47235274
vn 0 -0.8814096 0.47235274
vn 0.2475008 -0.96752846 0.051302366
vn 0.2475008 -0.96752846 0.051302366
vn 0.2475008 -0.96752846 0.051302366
vn -0.2475008 -0.96752846 0.051302366
vn -0.2475008 -0.96752846 0.051302366
vn -0.2475008 -0.96752846 0.051302366
vn 0 0.99999994 -0
vn 0 0.99999994 -0
vn 0 0.99999994 -0
vn 0 1 -0
vn 0 1 -0
vn 0 1 -0
vn 0.9791855 -0 0.20296715
vn 0.9791855 -0 0.20296715
vn 0.9791855 -0 0.20296715
vn 0.9791855 0 0.20296715
vn 0.9791855 0 0.20296715
vn 0.9791855 0 0.20296715
vn -0.9791855 0 0.20296715
vn -0.9791855 0 0.20296715
vn -0.9791855 0 0.20296715
vn -0.9791855 0 0.20296715
vn -0.9791855 0 0.20296715
vn -0.9791855 0 0.20296715
vn 0 -0.8814095 0.4723528
vn 0 -0.8814095 0.4723528
vn 0 -0.8814095 0.4723528
vn 0.21582688 -0.9762943 0.016374832
vn 0.21582688 -0.9762943 0.016374832
vn 0.21582688 -0.9762943 0.016374832
vn -0.21582688 -0.9762943 0.016374832
vn -0.21582688 -0.9762943 0.016374832
vn -0.21582688 -0.9762943 0.016374832
vn 0 1 -0
vn 0 1 -0
vn 0 1 -0
vn 0 1 -0
vn 0 1 -0
vn 0 1 -0
vn 0.9971342 -0 0.075652786
vn 0.9971342 -0 0.075652786
vn 0.9971342 -0 0.075652786
vn 0.9971342 0 0.075652786
vn 0.9971342 0 0.075652786
vn 0.9971342 0 0.075652786
vn -0.9971342 0 0.075652786
vn -0.9971342 0 0.075652786
vn -0.9971342 0 0.075652786
vn -0.9971342 0 0.075652786
vn -0.9971342 0 0.075652786
vn -0.9971342 0 0.075652786
vn 0 -0.8814096 0.4723528
vn 0 -0.8814096 0.4723528
vn 0 -0.8814096 0.4723528
vn 0.21440533 -0.9766093 -0.016267003
vn 0.21440533 -0.9766093 -0.016267003
vn 0.21440533 -0.9766093 -0.016267003
vn -0.21440533 -0.9766093 -0.016267003
vn -0.21440533 -0.9766093 -0.016267003
vn -0.21440533 -0.9766093 -0.016267003
vn 0 1 0
vn 0 1 0
vn 0 1 0
vn 0 1 0
vn 0 1 0
vn 0 1 0
vn 0.9971342 0 -0.075652905
vn 0.9971342 0 -0.075652905
vn 0.9971342 0 -0.075652905
vn 0.9971342 0 -0.075652905
vn 0.9971342 0 -0.075652905
vn 0.9971342 0 -0.075652905
vn -0.9971342 0 -0.075652905
vn -0.9971342 0 -0.075652905
vn -0.9971342 0 -0.075652905
vn -0.9971342 0 -0.075652905
vn -0.9971342 0 -0.075652905
vn -0.9971342 0 -0.075652905
vn 0 -0.88140947 0.47235286
vn 0 -0.88140947 0.47235286
vn 0 -0.88140947 0.47235286
vn 0.242506 -0.9688468 -0.05026699
vn 0.242506 -0.9688468 -0.05026699
vn 0.242506 -0.9688468 -0.05026699
vn -0.242506 -0.9688468 -0.05026699
vn -0.242506 -0.9688468 -0.05026699
vn -0.242506 -0.9688468 -0.05026699
vn 0 1 0
vn 0 1 0
vn 0 1 0
vn 0 1 0
vn 0 1 0
vn 0 1 0
vn 0.9791855 0 -0.20296697
vn 0.9791855 0 -0.20296697
vn 0.9791855 0 -0.20296697
vn 0.9791855 0 -0.20296697
vn 0.9791855 0 -0.20296697
vn 0.9791855 0 -0.20296697
vn -0.9791855 0 -0.20296697
vn -0.9791855 0 -0.20296697
vn -0.9791855 0 -0.20296697
vn -0.9791855 0 -0.20296697
vn -0.9791855 0 -0.20296697
vn -0.9791855 0 -0.20296697
vn 0 -0.8814095 0.4723529
vn 0 -0.8814095 0.4723529
vn 0 -0.8814095 0.4723529
vn 0.4273817 -0.82797676 -0.3630418
vn 0.4273817 -0.82797676 -0.3630418
vn 0.4273817 -0.82797676 -0.3630418
vn -0.4273817 -0.82797676 -0.3630418
vn -0.4273817 -0.82797676 -0.3630418
vn -0.4273817 -0.82797676 -0.3630418
vn 0 1 0
vn 0 1 0
vn 0 1 0
vn 0 1 0
vn 0 1 0
vn 0 1 0
vn 0.76214397 0 -0.64740753
vn 0.76214397 0 -0.64740753
vn 0.76214397 0 -0.64740753
vn 0.76214397 0 -0.64740753
vn 0.76214397 0 -0.64740753
vn 0.76214397 0 -0.64740753
vn -0.76214397 0 -0.64740753
vn -0.76214397 0 -0.64740753
vn -0.76214397 0 -0.64740753
vn -0.76214397 0 -0.64740753
vn -0.76214397 0 -0.64740753
vn -0.76214397 0 -0.64740753
vn 0 -0.43091014 0.90239483
vn 0 -0.43091014 0.90239483
vn 0 -0.43091014 0.90239483
vn 0 -0.7220676 -0.6918225
vn 0 -0.7220676 -0.6918225
vn 0 -0.7220676 -0.6918225
vn 0 -0.845569 0.5338661
vn 0 -0.845569 0.5338661
vn 0 -0.845569 0.5338661
vn 0 -0.845569 0.5338661
vn 0 -0.845569 0.5338661
vn 0 -0.845569 0.5338661
vn 0 -0.8455691 0.5338661
vn 0 -0.8455691 0.5338661
vn 0 -0.8455691 0.5338661
vn 0 -0.845569 0.5338661
vn 0 -0.845569 0.5338661
vn 0 -0.845569 0.5338661
vn 0 -0.845569 0.5338661
vn 0 -0.845569 0.5338661
vn 0 -0.845569 0.5338661
vn -0 0.9772031 0.21230641
vn -0 0.9772031 0.21230641
vn -0 0.9772031 0.21230641
vn 0 -0.91619986 0.40072146
vn 0 -0.91619986 0.40072146
vn 0 -0.91619986 0.40072146
vn 0 -0.91619986 0.40072146
vn 0 -0.91619986 0.40072146
vn 0 -0.91619986 0.40072146
vn 0 -0.91619986 0.40072146
vn 0 -0.91619986 0.40072146
vn 0 -0.91619986 0.40072146
vn 0 -0.65522367 0.7554349
vn 0 -0.65522367 0.7554349
vn 0 -0.65522367 0.7554349
vn 0 -0.6552237 0.75543493
vn 0 -0.6552237 0.75543493
vn 0 -0.6552237 0.75543493
vn 0 -0.6552238 0.7554348
vn 0 -0.6552238 0.7554348
vn 0 -0.6552238 0.7554348
vn 0 -0.65522385 0.7554349
vn 0 -0.65522385 0.7554349
vn 0 -0.65522385 0.7554349
vn 0 -0.6552237 0.7554348
vn 0 -0.6552237 0.7554348
vn 0 -0.6552237 0.7554348
vn 0 -0.8621078 0.5067249
vn 0 -0.8621078 0.5067249
vn 0 -0.8621078 0.5067249
vn 0 -0.8621078 0.5067249
vn 0 -0.8621078 0.5067249
vn 0 -0.8621078 0.5067249
vn 0 -0.8621079 0.50672483
vn 0 -0.8621079 0.50672483
vn 0 -0.8621079 0.50672483
vn 0 -0.8621079 0.50672483
vn 0 -0.8621079 0.50672483
vn 0 -0.8621079 0.50672483
vn 0 -0.8621077 0.5067251
vn 0 -0.8621077 0.5067251
vn 0 -0.8621077 0.5067251
vn -0 0.9753864 0.22050282
vn -0 0.9753864 0.22050282
vn -0 0.9753864 0.22050282
f 1//1 2//2 3//3
f 4//4 5//5 6//6
f 7//7 8//8 9//9
f 10//10 11//11 12//12
f 13//13 14//14 15//15
f 16//16 17//17 18//18
f 19//19 20//20 21//21
f 22//22 23//23 24//24
f 25//25 26//26 27//27
f 28//28 29//29 30//30
f 31//31 32//32 33//33
f 34//34 35//35 36//36
f 37//37 38//38 39//39
f 40//40 41//41 42//42
f 43//43 44//44 45//45
f 46//46 47//47 48//48
f 49//49 50//50 51//51
f 52//52 53//53 54//54
f 55//55 56//56 57//57
f 58//58 59//59 60//60
f 61//61 62//62 63//63
f 64//64 65//65 66//66
f 67//67 68//68 69//69
f 70//70 71//71 72//72
f 73//73 74//74 75//75
f 76//76 77//77 78//78
f 79//79 80//80 81//81
f 82//82 83//83 84//84
f 85//85 86//86 87//87
f 88//88 89//89 90//90
f 91//91 92//92 93//93
f 94//94 95//95 96//96
f 97//97 98//98 99//99
f 100//100 101//101 102//102
f 103//103 104//104 105//105
f 106//106 107//107 108//108
f 109//109 110//110 111//111
f 112//112 113//113 114//114
f 115//115 116//116 117//117
f 118//118 119//119 120//120
f 121//121 122//122 123//123
f 124//124 125//125 126//126
f 127//127 128//128 129//129
f 130//130 131//131 132//132
f 133//133 134//134 135//135
f 136//136 137//137 138//138
f 139//139 140//140 141//141
f 142//142 143//143 144//144
f 145//145 146//146 147//147
f 148//148 149//149 150//150
f 151//151 152//152 153//153
f 154//154 155//155 156//156
f 157//157 158//158 159//159
f 160//160 161//161 162//162
f 163//163 164//164 165//165
f 166//166 167//167 168//168
f 169//169 170//170 171//171
f 172//172 173//173 174//174
f 175//175 176//176 177//177
f 178//178 179//179 180//180
f 181//181 182//182 183//183
f 184//184 185//185 186//186
f 187//187 188//188 189//189
f 190//190 191//191 192//192
f 193//193 194//194 195//195
f 196//196 197//197 198//198
f 199//199 200//200 201//201
f 202//202 203//203 204//204
f 205//205 206//206 207//207
f 208//208 209//209 210//210
f 211//211 212//212 213//213
f 214//214 215//215 216//216
f 217//217 218//218 219//219
f 220//220 221//221 222//222
f 223//223 224//224 225//225
f 226//226 227//227 228//228
