# Exported from SharpOpenGl procedural mesh
o vesper_miner_mk2_29
# vertices 126
v -0.33408505 0.16405354 -1.8052208
v 0.33408505 0.16405354 -1.8052208
v 0 0.3374816 -1.4679728
v -0.33408505 0.16405354 -1.8052208
v 0 0.3374816 -1.4679728
v -0.4707562 0.16405354 -1.0557806
v 0.33408505 0.16405354 -1.8052208
v 0.4707562 0.16405354 -1.0557806
v 0 0.3374816 -1.4679728
v -0.33408505 0 -1.8052208
v -0.4707562 0 -1.0557806
v 0.33408505 0 -1.8052208
v 0.33408505 0 -1.8052208
v -0.4707562 0 -1.0557806
v 0.4707562 0 -1.0557806
v -0.4707562 0.16405354 -1.0557806
v 0.4707562 0.16405354 -1.0557806
v 0 0.3374816 -0.71853256
v -0.4707562 0.16405354 -1.0557806
v 0 0.3374816 -0.71853256
v -0.57080644 0.16405354 -0.30634046
v 0.4707562 0.16405354 -1.0557806
v 0.57080644 0.16405354 -0.30634046
v 0 0.3374816 -0.71853256
v -0.4707562 0 -1.0557806
v -0.57080644 0 -0.30634046
v 0.4707562 0 -1.0557806
v 0.4707562 0 -1.0557806
v -0.57080644 0 -0.30634046
v 0.57080644 0 -0.30634046
v -0.57080644 0.16405354 -0.30634046
v 0.57080644 0.16405354 -0.30634046
v 0 0.3374816 0.03090763
v -0.57080644 0.16405354 -0.30634046
v 0 0.3374816 0.03090763
v -0.60742736 0.16405354 0.44309974
v 0.57080644 0.16405354 -0.30634046
v 0.60742736 0.16405354 0.44309974
v 0 0.3374816 0.03090763
v -0.57080644 0 -0.30634046
v -0.60742736 0 0.44309974
v 0.57080644 0 -0.30634046
v 0.57080644 0 -0.30634046
v -0.60742736 0 0.44309974
v 0.60742736 0 0.44309974
v -0.60742736 0.16405354 0.44309974
v 0.60742736 0.16405354 0.44309974
v 0 0.3374816 0.7803478
v -0.60742736 0.16405354 0.44309974
v 0 0.3374816 0.7803478
v -0.57080644 0.16405354 1.1925399
v 0.60742736 0.16405354 0.44309974
v 0.57080644 0.16405354 1.1925399
v 0 0.3374816 0.7803478
v -0.60742736 0 0.44309974
v -0.57080644 0 1.1925399
v 0.60742736 0 0.44309974
v 0.60742736 0 0.44309974
v -0.57080644 0 1.1925399
v 0.57080644 0 1.1925399
v -0.57080644 0.16405354 1.1925399
v 0.57080644 0.16405354 1.1925399
v 0 0.3374816 1.529788
v -0.57080644 0.16405354 1.1925399
v 0 0.3374816 1.529788
v -0.43588543 0.16405354 1.9419801
v 0.57080644 0.16405354 1.1925399
v 0.43588543 0.16405354 1.9419801
v 0 0.3374816 1.529788
v -0.57080644 0 1.1925399
v -0.43588543 0 1.9419801
v 0.57080644 0 1.1925399
v 0.57080644 0 1.1925399
v -0.43588543 0 1.9419801
v 0.43588543 0 1.9419801
v -0.43588543 0.16405354 1.9419801
v 0.43588543 0.16405354 1.9419801
v 0 0.3374816 2.2792282
v -0.43588543 0.16405354 1.9419801
v 0 0.3374816 2.2792282
v -0 0.16405354 2.6914203
v 0.43588543 0.16405354 1.9419801
v 0 0.16405354 2.6914203
v 0 0.3374816 2.2792282
v -0.43588543 0 1.9419801
v -0 0 2.6914203
v 0.43588543 0 1.9419801
v 0.43588543 0 1.9419801
v -0 0 2.6914203
v 0 0 2.6914203
v 0 0.36560503 -1.4305007
v -0.048594188 0.29060912 -1.503392
v 0.048594188 0.29060912 -1.503392
v 0 0.36560503 -0.68106055
v -0.048594188 0.29060912 -0.75395185
v 0.048594188 0.29060912 -0.75395185
v 0 0.36560503 0.06837964
v -0.048594188 0.29060912 -0.0045116395
v 0.048594188 0.29060912 -0.0045116395
v 0 0.36560503 0.81781983
v -0.048594188 0.29060912 0.74492854
v 0.048594188 0.29060912 0.74492854
v 0 0.36560503 1.56726
v -0.048594188 0.29060912 1.4943688
v 0.048594188 0.29060912 1.4943688
v -0.25511947 0.13124283 -0.49233297
v 0.25511947 0.13124283 -0.49233297
v 0 0.19686425 -0.9190215
v -0.36655098 0.052080486 -1.7695445
v -0.47965813 0 -2.0183802
v -0.25344384 0 -2.0183802
v 0 0.052080486 -1.7695445
v -0.11310715 0 -2.0183802
v 0.11310715 0 -2.0183802
v 0.36655098 0.052080486 -1.7695445
v 0.25344384 0 -2.0183802
v 0.47965813 0 -2.0183802
v -0.23040348 0.24738231 0.22832832
v -0.30371368 0.09114085 0.16549101
v -0.15709329 0.09114085 0.16549101
v 0 0.24738231 0.15501812
v -0.0733102 0.09114085 0.09218081
v 0.0733102 0.09114085 0.09218081
v 0.23040348 0.24738231 0.081707925
v 0.15709329 0.09114085 0.018870614
v 0.30371368 0.09114085 0.018870614
vn 0 -0.8893027 0.45731917
vn 0 -0.8893027 0.45731917
vn 0 -0.8893027 0.45731917
vn 0.4004437 -0.9134068 0.07302664
vn 0.4004437 -0.9134068 0.07302664
vn 0.4004437 -0.9134068 0.07302664
vn -0.4004437 -0.9134068 0.07302664
vn -0.4004437 -0.9134068 0.07302664
vn -0.4004437 -0.9134068 0.07302664
vn 0 1 -0
vn 0 1 -0
vn 0 1 -0
vn 0 1 -0
vn 0 1 -0
vn 0 1 -0
vn 0 -0.8893026 0.45731917
vn 0 -0.8893026 0.45731917
vn 0 -0.8893026 0.45731917
vn 0.31842244 -0.9469953 0.042509384
vn 0.31842244 -0.9469953 0.042509384
vn 0.31842244 -0.9469953 0.042509384
vn -0.31842244 -0.9469953 0.042509384
vn -0.31842244 -0.9469953 0.042509384
vn -0.31842244 -0.9469953 0.042509384
vn 0 1 -0
vn 0 1 -0
vn 0 1 -0
vn 0 1 -0
vn 0 1 -0
vn 0 1 -0
vn 0 -0.8893026 0.45731917
vn 0 -0.8893026 0.45731917
vn 0 -0.8893026 0.45731917
vn 0.28318653 -0.95896506 0.013837729
vn 0.28318653 -0.95896506 0.013837729
vn 0.28318653 -0.95896506 0.013837729
vn -0.28318653 -0.95896506 0.013837729
vn -0.28318653 -0.95896506 0.013837729
vn -0.28318653 -0.95896506 0.013837729
vn 0 1 -0
vn 0 1 -0
vn 0 1 -0
vn 0 1 -0
vn 0 1 -0
vn 0 1 -0
vn 0 -0.8893026 0.45731914
vn 0 -0.8893026 0.45731914
vn 0 -0.8893026 0.45731914
vn 0.28157148 -0.9594416 -0.013758809
vn 0.28157148 -0.9594416 -0.013758809
vn 0.28157148 -0.9594416 -0.013758809
vn -0.28157148 -0.9594416 -0.013758809
vn -0.28157148 -0.9594416 -0.013758809
vn -0.28157148 -0.9594416 -0.013758809
vn 0 1 0
vn 0 1 0
vn 0 1 0
vn 0 1 0
vn 0 1 0
vn 0 1 0
vn 0 -0.8893026 0.45731917
vn 0 -0.8893026 0.45731917
vn 0 -0.8893026 0.45731917
vn 0.32135823 -0.9451889 -0.05785382
vn 0.32135823 -0.9451889 -0.05785382
vn 0.32135823 -0.9451889 -0.05785382
vn -0.32135823 -0.9451889 -0.05785382
vn -0.32135823 -0.9451889 -0.05785382
vn -0.32135823 -0.9451889 -0.05785382
vn 0 1 0
vn 0 1 0
vn 0 1 0
vn 0 1 0
vn 0 1 0
vn 0 1 0
vn 0 -0.8893026 0.4573192
vn 0 -0.8893026 0.4573192
vn 0 -0.8893026 0.4573192
vn 0.55477303 -0.7668864 -0.32266414
vn 0.55477303 -0.7668864 -0.32266414
vn 0.55477303 -0.7668864 -0.32266414
vn -0.55477303 -0.7668864 -0.32266414
vn -0.55477303 -0.7668864 -0.32266414
vn -0.55477303 -0.7668864 -0.32266414
vn 0 1 0
vn 0 1 0
vn 0 1 0
vn 0 1 0
vn 0 1 0
vn 0 1 0
vn 0 -0.6969729 0.7170974
vn 0 -0.6969729 0.7170974
vn 0 -0.6969729 0.7170974
vn 0 -0.6969732 0.7170971
vn 0 -0.6969732 0.7170971
vn 0 -0.6969732 0.7170971
vn 0 -0.69697315 0.71709716
vn 0 -0.69697315 0.71709716
vn 0 -0.69697315 0.71709716
vn 0 -0.6969732 0.7170971
vn 0 -0.6969732 0.7170971
vn 0 -0.6969732 0.7170971
vn 0 -0.6969729 0.7170974
vn 0 -0.6969729 0.7170974
vn 0 -0.6969729 0.7170974
vn -0 0.9883797 0.15200521
vn -0 0.9883797 0.15200521
vn -0 0.9883797 0.15200521
vn 0 -0.9787917 0.20485787
vn 0 -0.9787917 0.20485787
vn 0 -0.9787917 0.20485787
vn 0 -0.9787918 0.20485789
vn 0 -0.9787918 0.20485789
vn 0 -0.9787918 0.20485789
vn 0 -0.9787917 0.20485787
vn 0 -0.9787917 0.20485787
vn 0 -0.9787917 0.20485787
vn 0 -0.37313414 0.92777735
vn 0 -0.37313414 0.92777735
vn 0 -0.37313414 0.92777735
vn 0 -0.37313423 0.92777735
vn 0 -0.37313423 0.92777735
vn 0 -0.37313423 0.92777735
vn 0 -0.37313423 0.92777735
vn 0 -0.37313423 0.92777735
vn 0 -0.37313423 0.92777735
f 1//1 2//2 3//3
f 4//4 5//5 6//6
f 7//7 8//8 9//9
f 10//10 11//11 12//12
f 13//13 14//14 15//15
f 16//16 17//17 18//18
f 19//19 20//20 21//21
f 22//22 23//23 24//24
f 25//25 26//26 27//27
f 28//28 29//29 30//30
f 31//31 32//32 33//33
f 34//34 35//35 36//36
f 37//37 38//38 39//39
f 40//40 41//41 42//42
f 43//43 44//44 45//45
f 46//46 47//47 48//48
f 49//49 50//50 51//51
f 52//52 53//53 54//54
f 55//55 56//56 57//57
f 58//58 59//59 60//60
f 61//61 62//62 63//63
f 64//64 65//65 66//66
f 67//67 68//68 69//69
f 70//70 71//71 72//72
f 73//73 74//74 75//75
f 76//76 77//77 78//78
f 79//79 80//80 81//81
f 82//82 83//83 84//84
f 85//85 86//86 87//87
f 88//88 89//89 90//90
f 91//91 92//92 93//93
f 94//94 95//95 96//96
f 97//97 98//98 99//99
f 100//100 101//101 102//102
f 103//103 104//104 105//105
f 106//106 107//107 108//108
f 109//109 110//110 111//111
f 112//112 113//113 114//114
f 115//115 116//116 117//117
f 118//118 119//119 120//120
f 121//121 122//122 123//123
f 124//124 125//125 126//126
