# Exported from SharpOpenGl procedural mesh
o vesper_carrier_mk3_44
# vertices 291
v -0.8784575 0.46787754 -3.3436944
v 0.8784575 0.46787754 -3.3436944
v 0 0.962491 -2.8050938
v -0.8784575 0.46787754 -3.3436944
v 0 0.962491 -2.8050938
v -1.2146287 0.46787754 -2.1468039
v 0.8784575 0.46787754 -3.3436944
v 1.2146287 0.46787754 -2.1468039
v 0 0.962491 -2.8050938
v -0.8784575 0 -3.3436944
v -1.2146287 0 -2.1468039
v 0.8784575 0 -3.3436944
v 0.8784575 0 -3.3436944
v -1.2146287 0 -2.1468039
v 1.2146287 0 -2.1468039
v -0.8784575 0 -3.3436944
v -0.8784575 0.46787754 -3.3436944
v -1.2146287 0.46787754 -2.1468039
v -0.8784575 0 -3.3436944
v -1.2146287 0.46787754 -2.1468039
v -1.2146287 0 -2.1468039
v 0.8784575 0 -3.3436944
v 1.2146287 0.46787754 -2.1468039
v 0.8784575 0.46787754 -3.3436944
v 0.8784575 0 -3.3436944
v 1.2146287 0 -2.1468039
v 1.2146287 0.46787754 -2.1468039
v -1.2146287 0.46787754 -2.1468039
v 1.2146287 0.46787754 -2.1468039
v 0 0.962491 -1.6082032
v -1.2146287 0.46787754 -2.1468039
v 0 0.962491 -1.6082032
v -1.4996207 0.46787754 -0.94991326
v 1.2146287 0.46787754 -2.1468039
v 1.4996207 0.46787754 -0.94991326
v 0 0.962491 -1.6082032
v -1.2146287 0 -2.1468039
v -1.4996207 0 -0.94991326
v 1.2146287 0 -2.1468039
v 1.2146287 0 -2.1468039
v -1.4996207 0 -0.94991326
v 1.4996207 0 -0.94991326
v -1.2146287 0 -2.1468039
v -1.2146287 0.46787754 -2.1468039
v -1.4996207 0.46787754 -0.94991326
v -1.2146287 0 -2.1468039
v -1.4996207 0.46787754 -0.94991326
v -1.4996207 0 -0.94991326
v 1.2146287 0 -2.1468039
v 1.4996207 0.46787754 -0.94991326
v 1.2146287 0.46787754 -2.1468039
v 1.2146287 0 -2.1468039
v 1.4996207 0 -0.94991326
v 1.4996207 0.46787754 -0.94991326
v -1.4996207 0.46787754 -0.94991326
v 1.4996207 0.46787754 -0.94991326
v 0 0.962491 -0.41131252
v -1.4996207 0.46787754 -0.94991326
v 0 0.962491 -0.41131252
v -1.6900464 0.46787754 0.24697733
v 1.4996207 0.46787754 -0.94991326
v 1.6900464 0.46787754 0.24697733
v 0 0.962491 -0.41131252
v -1.4996207 0 -0.94991326
v -1.6900464 0 0.24697733
v 1.4996207 0 -0.94991326
v 1.4996207 0 -0.94991326
v -1.6900464 0 0.24697733
v 1.6900464 0 0.24697733
v -1.4996207 0 -0.94991326
v -1.4996207 0.46787754 -0.94991326
v -1.6900464 0.46787754 0.24697733
v -1.4996207 0 -0.94991326
v -1.6900464 0.46787754 0.24697733
v -1.6900464 0 0.24697733
v 1.4996207 0 -0.94991326
v 1.6900464 0.46787754 0.24697733
v 1.4996207 0.46787754 -0.94991326
v 1.4996207 0 -0.94991326
v 1.6900464 0 0.24697733
v 1.6900464 0.46787754 0.24697733
v -1.6900464 0.46787754 0.24697733
v 1.6900464 0.46787754 0.24697733
v 0 0.962491 0.7855781
v -1.6900464 0.46787754 0.24697733
v 0 0.962491 0.7855781
v -1.756915 0.46787754 1.4438679
v 1.6900464 0.46787754 0.24697733
v 1.756915 0.46787754 1.4438679
v 0 0.962491 0.7855781
v -1.6900464 0 0.24697733
v -1.756915 0 1.4438679
v 1.6900464 0 0.24697733
v 1.6900464 0 0.24697733
v -1.756915 0 1.4438679
v 1.756915 0 1.4438679
v -1.6900464 0 0.24697733
v -1.6900464 0.46787754 0.24697733
v -1.756915 0.46787754 1.4438679
v -1.6900464 0 0.24697733
v -1.756915 0.46787754 1.4438679
v -1.756915 0 1.4438679
v 1.6900464 0 0.24697733
v 1.756915 0.46787754 1.4438679
v 1.6900464 0.46787754 0.24697733
v 1.6900464 0 0.24697733
v 1.756915 0 1.4438679
v 1.756915 0.46787754 1.4438679
v -1.756915 0.46787754 1.4438679
v 1.756915 0.46787754 1.4438679
v 0 0.962491 1.9824688
v -1.756915 0.46787754 1.4438679
v 0 0.962491 1.9824688
v -1.6900464 0.46787754 2.6407588
v 1.756915 0.46787754 1.4438679
v 1.6900464 0.46787754 2.6407588
v 0 0.962491 1.9824688
v -1.756915 0 1.4438679
v -1.6900464 0 2.6407588
v 1.756915 0 1.4438679
v 1.756915 0 1.4438679
v -1.6900464 0 2.6407588
v 1.6900464 0 2.6407588
v -1.756915 0 1.4438679
v -1.756915 0.46787754 1.4438679
v -1.6900464 0.46787754 2.6407588
v -1.756915 0 1.4438679
v -1.6900464 0.46787754 2.6407588
v -1.6900464 0 2.6407588
v 1.756915 0 1.4438679
v 1.6900464 0.46787754 2.6407588
v 1.756915 0.46787754 1.4438679
v 1.756915 0 1.4438679
v 1.6900464 0 2.6407588
v 1.6900464 0.46787754 2.6407588
v -1.6900464 0.46787754 2.6407588
v 1.6900464 0.46787754 2.6407588
v 0 0.962491 3.1793594
v -1.6900464 0.46787754 2.6407588
v 0 0.962491 3.1793594
v -1.4996207 0.46787754 3.837649
v 1.6900464 0.46787754 2.6407588
v 1.4996207 0.46787754 3.837649
v 0 0.962491 3.1793594
v -1.6900464 0 2.6407588
v -1.4996207 0 3.837649
v 1.6900464 0 2.6407588
v 1.6900464 0 2.6407588
v -1.4996207 0 3.837649
v 1.4996207 0 3.837649
v -1.6900464 0 2.6407588
v -1.6900464 0.46787754 2.6407588
v -1.4996207 0.46787754 3.837649
v -1.6900464 0 2.6407588
v -1.4996207 0.46787754 3.837649
v -1.4996207 0 3.837649
v 1.6900464 0 2.6407588
v 1.4996207 0.46787754 3.837649
v 1.6900464 0.46787754 2.6407588
v 1.6900464 0 2.6407588
v 1.4996207 0 3.837649
v 1.4996207 0.46787754 3.837649
v -1.4996207 0.46787754 3.837649
v 1.4996207 0.46787754 3.837649
v 0 0.962491 4.37625
v -1.4996207 0.46787754 3.837649
v 0 0.962491 4.37625
v -0.9489285 0.46787754 5.034539
v 1.4996207 0.46787754 3.837649
v 0.9489285 0.46787754 5.034539
v 0 0.962491 4.37625
v -1.4996207 0 3.837649
v -0.9489285 0 5.034539
v 1.4996207 0 3.837649
v 1.4996207 0 3.837649
v -0.9489285 0 5.034539
v 0.9489285 0 5.034539
v -1.4996207 0 3.837649
v -1.4996207 0.46787754 3.837649
v -0.9489285 0.46787754 5.034539
v -1.4996207 0 3.837649
v -0.9489285 0.46787754 5.034539
v -0.9489285 0 5.034539
v 1.4996207 0 3.837649
v 0.9489285 0.46787754 5.034539
v 1.4996207 0.46787754 3.837649
v 1.4996207 0 3.837649
v 0.9489285 0 5.034539
v 0.9489285 0.46787754 5.034539
v -0.9489285 0.46787754 5.034539
v 0.9489285 0.46787754 5.034539
v 0 0.962491 5.57314
v -0.9489285 0.46787754 5.034539
v 0 0.962491 5.57314
v -0 0.46787754 6.23143
v 0.9489285 0.46787754 5.034539
v 0 0.46787754 6.23143
v 0 0.962491 5.57314
v -0.9489285 0 5.034539
v -0 0 6.23143
v 0.9489285 0 5.034539
v 0.9489285 0 5.034539
v -0 0 6.23143
v 0 0 6.23143
v -0.9489285 0 5.034539
v -0.9489285 0.46787754 5.034539
v -0 0.46787754 6.23143
v -0.9489285 0 5.034539
v -0 0.46787754 6.23143
v -0 0 6.23143
v 0.9489285 0 5.034539
v 0 0.46787754 6.23143
v 0.9489285 0.46787754 5.034539
v 0.9489285 0 5.034539
v 0 0 6.23143
v 0 0.46787754 6.23143
v -0.6405419 0 6.2314305
v 0.6405419 0 6.2314305
v 0 0.8181174 6.535403
v -0.6405419 0 -3.3436944
v 0 0.28072652 -3.5716736
v 0.6405419 0 -3.3436944
v 0 1.0426985 -2.7452493
v -0.183012 0.82881165 -3.001466
v 0.183012 0.82881165 -3.001466
v 0 1.0426985 -1.5483586
v -0.183012 0.82881165 -1.8045753
v 0.183012 0.82881165 -1.8045753
v 0 1.0426985 -0.35146785
v -0.183012 0.82881165 -0.6076846
v 0.183012 0.82881165 -0.6076846
v 0 1.0426985 0.8454225
v -0.183012 0.82881165 0.58920574
v 0.183012 0.82881165 0.58920574
v 0 1.0426985 2.0423133
v -0.183012 0.82881165 1.7860966
v 0.183012 0.82881165 1.7860966
v 0 1.0426985 3.2392037
v -0.183012 0.82881165 2.982987
v 0.183012 0.82881165 2.982987
v 0 1.0426985 4.4360943
v -0.183012 0.82881165 4.1798773
v 0.183012 0.82881165 4.1798773
v -0.7686503 0.37430203 -1.6201719
v 0.7686503 0.37430203 -1.6201719
v 0 0.6416606 -2.5776844
v -0.8835061 0.14451815 -0.96718436
v -1.4136097 0 -1.2587414
v -0.35340244 0 -1.2587414
v 0.8835061 0.14451815 -0.96718436
v 0.35340244 0 -1.2587414
v 1.4136097 0 -1.2587414
v -0.58624077 0.09032385 -1.1053535
v 0.58624077 0.09032385 -1.1053535
v 0 0.39742494 -0.89809966
v -0.64191 0.09032385 -0.27633834
v 0.64191 0.09032385 -0.27633834
v 0 0.39742494 -0.069084555
v -0.6804343 0.09032385 0.5526768
v 0.6804343 0.09032385 0.5526768
v 0 0.39742494 0.7599306
v -0.6941834 0.09032385 1.381692
v 0.6941834 0.09032385 1.381692
v 0 0.39742494 1.5889459
v -0.6804343 0.09032385 2.2107072
v 0.6804343 0.09032385 2.2107072
v 0 0.39742494 2.417961
v -0.64190996 0.09032385 3.0397224
v 0.64190996 0.09032385 3.0397224
v 0 0.39742494 3.2469761
v -0.58624077 0.09032385 3.8687372
v 0.58624077 0.09032385 3.8687372
v 0 0.39742494 4.075991
v 0 0.99356234 -0.09211266
v -0.22087653 0.7587203 -0.40299335
v 0.22087653 0.7587203 -0.40299335
v 0 0.99356234 0.92112815
v -0.22087653 0.7587203 0.6102475
v 0.22087653 0.7587203 0.6102475
v 0 0.99356234 1.9343687
v -0.22087653 0.7587203 1.6234881
v 0.22087653 0.7587203 1.6234881
v 0 0.99356234 2.94761
v -0.22087653 0.7587203 2.6367292
v 0.22087653 0.7587203 2.6367292
v 0 0.99356234 3.9608502
v -0.22087653 0.7587203 3.6499696
v 0.22087653 0.7587203 3.6499696
v -0.44175306 0 -2.9360952
v 0.44175306 0 -2.9360952
v 0 0.09032385 -3.246976
vn 0 -0.7365435 0.67639035
vn 0 -0.7365435 0.67639035
vn 0 -0.7365435 0.67639035
vn 0.42980704 -0.89481425 0.1207201
vn 0.42980704 -0.89481425 0.1207201
vn 0.42980704 -0.89481425 0.1207201
vn -0.42980704 -0.89481425 0.1207201
vn -0.42980704 -0.89481425 0.1207201
vn -0.42980704 -0.89481425 0.1207201
vn 0 1 -0
vn 0 1 -0
vn 0 1 -0
vn 0 1 -0
vn 0 1 -0
vn 0 1 -0
vn 0.9627461 -0 0.27040693
vn 0.9627461 -0 0.27040693
vn 0.9627461 -0 0.27040693
vn 0.9627461 0 0.27040693
vn 0.9627461 0 0.27040693
vn 0.9627461 0 0.27040693
vn -0.9627461 0 0.27040693
vn -0.9627461 0 0.27040693
vn -0.9627461 0 0.27040693
vn -0.9627461 0 0.27040693
vn -0.9627461 0 0.27040693
vn -0.9627461 0 0.27040693
vn 0 -0.73654336 0.67639023
vn 0 -0.73654336 0.67639023
vn 0 -0.73654336 0.67639023
vn 0.34446087 -0.93521094 0.08201968
vn 0.34446087 -0.93521094 0.08201968
vn 0.34446087 -0.93521094 0.08201968
vn -0.34446087 -0.93521094 0.08201968
vn -0.34446087 -0.93521094 0.08201968
vn -0.34446087 -0.93521094 0.08201968
vn 0 1 -0
vn 0 1 -0
vn 0 1 -0
vn 0 1 -0
vn 0 1 -0
vn 0 1 -0
vn 0.97280294 -0 0.2316344
vn 0.97280294 -0 0.2316344
vn 0.97280294 -0 0.2316344
vn 0.97280294 0 0.2316344
vn 0.97280294 0 0.2316344
vn 0.97280294 0 0.2316344
vn -0.97280294 0 0.2316344
vn -0.97280294 0 0.2316344
vn -0.97280294 0 0.2316344
vn -0.97280294 0 0.2316344
vn -0.97280294 0 0.2316344
vn -0.97280294 0 0.2316344
vn 0 -0.7365434 0.67639023
vn 0 -0.7365434 0.67639023
vn 0 -0.7365434 0.67639023
vn 0.2975041 -0.95354646 0.047333017
vn 0.2975041 -0.95354646 0.047333017
vn 0.2975041 -0.95354646 0.047333017
vn -0.2975041 -0.95354646 0.047333017
vn -0.2975041 -0.95354646 0.047333017
vn -0.2975041 -0.95354646 0.047333017
vn 0 1 -0
vn 0 1 -0
vn 0 1 -0
vn 0 1 -0
vn 0 1 -0
vn 0 1 -0
vn 0.98757887 -0 0.15712419
vn 0.98757887 -0 0.15712419
vn 0.98757887 -0 0.15712419
vn 0.98757887 0 0.15712419
vn 0.98757887 0 0.15712419
vn 0.98757887 0 0.15712419
vn -0.98757887 0 0.15712419
vn -0.98757887 0 0.15712419
vn -0.98757887 0 0.15712419
vn -0.98757887 0 0.15712419
vn -0.98757887 0 0.15712419
vn -0.98757887 0 0.15712419
vn 0 -0.7365434 0.67639023
vn 0 -0.7365434 0.67639023
vn 0 -0.7365434 0.67639023
vn 0.27631262 -0.96094376 0.015437188
vn 0.27631262 -0.96094376 0.015437188
vn 0.27631262 -0.96094376 0.015437188
vn -0.27631262 -0.96094376 0.015437188
vn -0.27631262 -0.96094376 0.015437188
vn -0.27631262 -0.96094376 0.015437188
vn 0 1 -0
vn 0 1 -0
vn 0 1 -0
vn 0 1 -0
vn 0 1 -0
vn 0 1 -0
vn 0.998443 -0 0.055781566
vn 0.998443 -0 0.055781566
vn 0.998443 -0 0.055781566
vn 0.998443 0 0.055781566
vn 0.998443 0 0.055781566
vn 0.998443 0 0.055781566
vn -0.998443 0 0.055781566
vn -0.998443 0 0.055781566
vn -0.998443 0 0.055781566
vn -0.998443 0 0.055781566
vn -0.998443 0 0.055781566
vn -0.998443 0 0.055781566
vn 0 -0.73654354 0.6763901
vn 0 -0.73654354 0.6763901
vn 0 -0.73654354 0.6763901
vn 0.2753242 -0.9612284 -0.015381962
vn 0.2753242 -0.9612284 -0.015381962
vn 0.2753242 -0.9612284 -0.015381962
vn -0.2753242 -0.9612284 -0.015381962
vn -0.2753242 -0.9612284 -0.015381962
vn -0.2753242 -0.9612284 -0.015381962
vn 0 1 0
vn 0 1 0
vn 0 1 0
vn 0 1 0
vn 0 1 0
vn 0 1 0
vn 0.99844307 0 -0.055781554
vn 0.99844307 0 -0.055781554
vn 0.99844307 0 -0.055781554
vn 0.99844307 0 -0.055781554
vn 0.99844307 0 -0.055781554
vn 0.99844307 0 -0.055781554
vn -0.99844307 0 -0.055781554
vn -0.99844307 0 -0.055781554
vn -0.99844307 0 -0.055781554
vn -0.99844307 0 -0.055781554
vn -0.99844307 0 -0.055781554
vn -0.99844307 0 -0.055781554
vn 0 -0.7365434 0.67639035
vn 0 -0.7365434 0.67639035
vn 0 -0.7365434 0.67639035
vn 0.29428822 -0.95456916 -0.046821382
vn 0.29428822 -0.95456916 -0.046821382
vn 0.29428822 -0.95456916 -0.046821382
vn -0.29428822 -0.95456916 -0.046821382
vn -0.29428822 -0.95456916 -0.046821382
vn -0.29428822 -0.95456916 -0.046821382
vn 0 1 0
vn 0 1 0
vn 0 1 0
vn 0 1 0
vn 0 1 0
vn 0 1 0
vn 0.98757887 0 -0.15712422
vn 0.98757887 0 -0.15712422
vn 0.98757887 0 -0.15712422
vn 0.98757887 0 -0.15712422
vn 0.98757887 0 -0.15712422
vn 0.98757887 0 -0.15712422
vn -0.98757887 0 -0.15712422
vn -0.98757887 0 -0.15712422
vn -0.98757887 0 -0.15712422
vn -0.98757887 0 -0.15712422
vn -0.98757887 0 -0.15712422
vn -0.98757887 0 -0.15712422
vn 0 -0.7365434 0.6763903
vn 0 -0.7365434 0.6763903
vn 0 -0.7365434 0.6763903
vn 0.36233154 -0.917019 -0.16670968
vn 0.36233154 -0.917019 -0.16670968
vn 0.36233154 -0.917019 -0.16670968
vn -0.36233154 -0.917019 -0.16670968
vn -0.36233154 -0.917019 -0.16670968
vn -0.36233154 -0.917019 -0.16670968
vn 0 1 0
vn 0 1 0
vn 0 1 0
vn 0 1 0
vn 0 1 0
vn 0 1 0
vn 0.9084551 0 -0.41798255
vn 0.9084551 0 -0.41798255
vn 0.9084551 0 -0.41798255
vn 0.9084551 0 -0.41798255
vn 0.9084551 0 -0.41798255
vn 0.9084551 0 -0.41798255
vn -0.9084551 0 -0.41798255
vn -0.9084551 0 -0.41798255
vn -0.9084551 0 -0.41798255
vn -0.9084551 0 -0.41798255
vn -0.9084551 0 -0.41798255
vn -0.9084551 0 -0.41798255
vn 0 -0.73654354 0.6763901
vn 0 -0.73654354 0.6763901
vn 0 -0.73654354 0.6763901
vn 0.60390174 -0.63723046 -0.4787902
vn 0.60390174 -0.63723046 -0.4787902
vn 0.60390174 -0.63723046 -0.4787902
vn -0.60390174 -0.63723046 -0.4787902
vn -0.60390174 -0.63723046 -0.4787902
vn -0.60390174 -0.63723046 -0.4787902
vn 0 1 0
vn 0 1 0
vn 0 1 0
vn 0 1 0
vn 0 1 0
vn 0 1 0
vn 0.78360283 0 -0.6212622
vn 0.78360283 0 -0.6212622
vn 0.78360283 0 -0.6212622
vn 0.78360283 0 -0.6212622
vn 0.78360283 0 -0.6212622
vn 0.78360283 0 -0.6212622
vn -0.78360283 0 -0.6212622
vn -0.78360283 0 -0.6212622
vn -0.78360283 0 -0.6212622
vn -0.78360283 0 -0.6212622
vn -0.78360283 0 -0.6212622
vn -0.78360283 0 -0.6212622
vn 0 -0.34828728 0.9373879
vn 0 -0.34828728 0.9373879
vn 0 -0.34828728 0.9373879
vn 0 -0.6304075 -0.77626437
vn 0 -0.6304075 -0.77626437
vn 0 -0.6304075 -0.77626437
vn 0 -0.76767147 0.6408435
vn 0 -0.76767147 0.6408435
vn 0 -0.76767147 0.6408435
vn 0 -0.76767147 0.6408435
vn 0 -0.76767147 0.6408435
vn 0 -0.76767147 0.6408435
vn 0 -0.76767147 0.6408435
vn 0 -0.76767147 0.6408435
vn 0 -0.76767147 0.6408435
vn 0 -0.76767147 0.6408435
vn 0 -0.76767147 0.6408435
vn 0 -0.76767147 0.6408435
vn 0 -0.76767147 0.6408435
vn 0 -0.76767147 0.6408435
vn 0 -0.76767147 0.6408435
vn 0 -0.76767147 0.6408435
vn 0 -0.76767147 0.6408435
vn 0 -0.76767147 0.6408435
vn 0 -0.76767176 0.6408431
vn 0 -0.76767176 0.6408431
vn 0 -0.76767176 0.6408431
vn -0 0.96315837 0.268935
vn -0 0.96315837 0.268935
vn -0 0.96315837 0.268935
vn 0 -0.89597106 0.44411236
vn 0 -0.89597106 0.44411236
vn 0 -0.89597106 0.44411236
vn 0 -0.89597106 0.44411236
vn 0 -0.89597106 0.44411236
vn 0 -0.89597106 0.44411236
vn 0 -0.5593998 0.828898
vn 0 -0.5593998 0.828898
vn 0 -0.5593998 0.828898
vn 0 -0.5593998 0.8288981
vn 0 -0.5593998 0.8288981
vn 0 -0.5593998 0.8288981
vn 0 -0.5593998 0.82889795
vn 0 -0.5593998 0.82889795
vn 0 -0.5593998 0.82889795
vn 0 -0.5593998 0.828898
vn 0 -0.5593998 0.828898
vn 0 -0.5593998 0.828898
vn 0 -0.55939955 0.82889813
vn 0 -0.55939955 0.82889813
vn 0 -0.55939955 0.82889813
vn 0 -0.55939955 0.8288981
vn 0 -0.55939955 0.8288981
vn 0 -0.55939955 0.8288981
vn 0 -0.55939996 0.82889783
vn 0 -0.55939996 0.82889783
vn 0 -0.55939996 0.82889783
vn 0 -0.79792356 0.6027586
vn 0 -0.79792356 0.6027586
vn 0 -0.79792356 0.6027586
vn 0 -0.7979235 0.60275865
vn 0 -0.7979235 0.60275865
vn 0 -0.7979235 0.60275865
vn 0 -0.7979235 0.60275865
vn 0 -0.7979235 0.60275865
vn 0 -0.7979235 0.60275865
vn 0 -0.7979235 0.60275865
vn 0 -0.7979235 0.60275865
vn 0 -0.7979235 0.60275865
vn 0 -0.7979235 0.60275865
vn 0 -0.7979235 0.60275865
vn 0 -0.7979235 0.60275865
vn -0 0.96028984 0.2790044
vn -0 0.96028984 0.2790044
vn -0 0.96028984 0.2790044
f 1//1 2//2 3//3
f 4//4 5//5 6//6
f 7//7 8//8 9//9
f 10//10 11//11 12//12
f 13//13 14//14 15//15
f 16//16 17//17 18//18
f 19//19 20//20 21//21
f 22//22 23//23 24//24
f 25//25 26//26 27//27
f 28//28 29//29 30//30
f 31//31 32//32 33//33
f 34//34 35//35 36//36
f 37//37 38//38 39//39
f 40//40 41//41 42//42
f 43//43 44//44 45//45
f 46//46 47//47 48//48
f 49//49 50//50 51//51
f 52//52 53//53 54//54
f 55//55 56//56 57//57
f 58//58 59//59 60//60
f 61//61 62//62 63//63
f 64//64 65//65 66//66
f 67//67 68//68 69//69
f 70//70 71//71 72//72
f 73//73 74//74 75//75
f 76//76 77//77 78//78
f 79//79 80//80 81//81
f 82//82 83//83 84//84
f 85//85 86//86 87//87
f 88//88 89//89 90//90
f 91//91 92//92 93//93
f 94//94 95//95 96//96
f 97//97 98//98 99//99
f 100//100 101//101 102//102
f 103//103 104//104 105//105
f 106//106 107//107 108//108
f 109//109 110//110 111//111
f 112//112 113//113 114//114
f 115//115 116//116 117//117
f 118//118 119//119 120//120
f 121//121 122//122 123//123
f 124//124 125//125 126//126
f 127//127 128//128 129//129
f 130//130 131//131 132//132
f 133//133 134//134 135//135
f 136//136 137//137 138//138
f 139//139 140//140 141//141
f 142//142 143//143 144//144
f 145//145 146//146 147//147
f 148//148 149//149 150//150
f 151//151 152//152 153//153
f 154//154 155//155 156//156
f 157//157 158//158 159//159
f 160//160 161//161 162//162
f 163//163 164//164 165//165
f 166//166 167//167 168//168
f 169//169 170//170 171//171
f 172//172 173//173 174//174
f 175//175 176//176 177//177
f 178//178 179//179 180//180
f 181//181 182//182 183//183
f 184//184 185//185 186//186
f 187//187 188//188 189//189
f 190//190 191//191 192//192
f 193//193 194//194 195//195
f 196//196 197//197 198//198
f 199//199 200//200 201//201
f 202//202 203//203 204//204
f 205//205 206//206 207//207
f 208//208 209//209 210//210
f 211//211 212//212 213//213
f 214//214 215//215 216//216
f 217//217 218//218 219//219
f 220//220 221//221 222//222
f 223//223 224//224 225//225
f 226//226 227//227 228//228
f 229//229 230//230 231//231
f 232//232 233//233 234//234
f 235//235 236//236 237//237
f 238//238 239//239 240//240
f 241//241 242//242 243//243
f 244//244 245//245 246//246
f 247//247 248//248 249//249
f 250//250 251//251 252//252
f 253//253 254//254 255//255
f 256//256 257//257 258//258
f 259//259 260//260 261//261
f 262//262 263//263 264//264
f 265//265 266//266 267//267
f 268//268 269//269 270//270
f 271//271 272//272 273//273
f 274//274 275//275 276//276
f 277//277 278//278 279//279
f 280//280 281//281 282//282
f 283//283 284//284 285//285
f 286//286 287//287 288//288
f 289//289 290//290 291//291
