# Exported from SharpOpenGl procedural mesh
o vesper_transport_mk2_30
# vertices 231
v -0.6419623 0.27829117 -2.5671754
v 0.6419623 0.27829117 -2.5671754
v 0 0.57248473 -2.0158162
v -0.6419623 0.27829117 -2.5671754
v 0 0.57248473 -2.0158162
v -0.9629434 0.27829117 -1.3419325
v 0.6419623 0.27829117 -2.5671754
v 0.9629434 0.27829117 -1.3419325
v 0 0.57248473 -2.0158162
v -0.6419623 0 -2.5671754
v -0.9629434 0 -1.3419325
v 0.6419623 0 -2.5671754
v 0.6419623 0 -2.5671754
v -0.9629434 0 -1.3419325
v 0.9629434 0 -1.3419325
v -0.6419623 0 -2.5671754
v -0.6419623 0.27829117 -2.5671754
v -0.9629434 0.27829117 -1.3419325
v -0.6419623 0 -2.5671754
v -0.9629434 0.27829117 -1.3419325
v -0.9629434 0 -1.3419325
v 0.6419623 0 -2.5671754
v 0.9629434 0.27829117 -1.3419325
v 0.6419623 0.27829117 -2.5671754
v 0.6419623 0 -2.5671754
v 0.9629434 0 -1.3419325
v 0.9629434 0.27829117 -1.3419325
v -0.9629434 0.27829117 -1.3419325
v 0.9629434 0.27829117 -1.3419325
v 0 0.57248473 -0.79057324
v -0.9629434 0.27829117 -1.3419325
v 0 0.57248473 -0.79057324
v -1.1979179 0.27829117 -0.11668968
v 0.9629434 0.27829117 -1.3419325
v 1.1979179 0.27829117 -0.11668968
v 0 0.57248473 -0.79057324
v -0.9629434 0 -1.3419325
v -1.1979179 0 -0.11668968
v 0.9629434 0 -1.3419325
v 0.9629434 0 -1.3419325
v -1.1979179 0 -0.11668968
v 1.1979179 0 -0.11668968
v -0.9629434 0 -1.3419325
v -0.9629434 0.27829117 -1.3419325
v -1.1979179 0.27829117 -0.11668968
v -0.9629434 0 -1.3419325
v -1.1979179 0.27829117 -0.11668968
v -1.1979179 0 -0.11668968
v 0.9629434 0 -1.3419325
v 1.1979179 0.27829117 -0.11668968
v 0.9629434 0.27829117 -1.3419325
v 0.9629434 0 -1.3419325
v 1.1979179 0 -0.11668968
v 1.1979179 0.27829117 -0.11668968
v -1.1979179 0.27829117 -0.11668968
v 1.1979179 0.27829117 -0.11668968
v 0 0.57248473 0.4346695
v -1.1979179 0.27829117 -0.11668968
v 0 0.57248473 0.4346695
v -1.2839246 0.27829117 1.1085529
v 1.1979179 0.27829117 -0.11668968
v 1.2839246 0.27829117 1.1085529
v 0 0.57248473 0.4346695
v -1.1979179 0 -0.11668968
v -1.2839246 0 1.1085529
v 1.1979179 0 -0.11668968
v 1.1979179 0 -0.11668968
v -1.2839246 0 1.1085529
v 1.2839246 0 1.1085529
v -1.1979179 0 -0.11668968
v -1.1979179 0.27829117 -0.11668968
v -1.2839246 0.27829117 1.1085529
v -1.1979179 0 -0.11668968
v -1.2839246 0.27829117 1.1085529
v -1.2839246 0 1.1085529
v 1.1979179 0 -0.11668968
v 1.2839246 0.27829117 1.1085529
v 1.1979179 0.27829117 -0.11668968
v 1.1979179 0 -0.11668968
v 1.2839246 0 1.1085529
v 1.2839246 0.27829117 1.1085529
v -1.2839246 0.27829117 1.1085529
v 1.2839246 0.27829117 1.1085529
v 0 0.57248473 1.6599123
v -1.2839246 0.27829117 1.1085529
v 0 0.57248473 1.6599123
v -1.1979179 0.27829117 2.333796
v 1.2839246 0.27829117 1.1085529
v 1.1979179 0.27829117 2.333796
v 0 0.57248473 1.6599123
v -1.2839246 0 1.1085529
v -1.1979179 0 2.333796
v 1.2839246 0 1.1085529
v 1.2839246 0 1.1085529
v -1.1979179 0 2.333796
v 1.1979179 0 2.333796
v -1.2839246 0 1.1085529
v -1.2839246 0.27829117 1.1085529
v -1.1979179 0.27829117 2.333796
v -1.2839246 0 1.1085529
v -1.1979179 0.27829117 2.333796
v -1.1979179 0 2.333796
v 1.2839246 0 1.1085529
v 1.1979179 0.27829117 2.333796
v 1.2839246 0.27829117 1.1085529
v 1.2839246 0 1.1085529
v 1.1979179 0 2.333796
v 1.1979179 0.27829117 2.333796
v -1.1979179 0.27829117 2.333796
v 1.1979179 0.27829117 2.333796
v 0 0.57248473 2.885155
v -1.1979179 0.27829117 2.333796
v 0 0.57248473 2.885155
v -0.96294343 0.27829117 3.5590382
v 1.1979179 0.27829117 2.333796
v 0.96294343 0.27829117 3.5590382
v 0 0.57248473 2.885155
v -1.1979179 0 2.333796
v -0.96294343 0 3.5590382
v 1.1979179 0 2.333796
v 1.1979179 0 2.333796
v -0.96294343 0 3.5590382
v 0.96294343 0 3.5590382
v -1.1979179 0 2.333796
v -1.1979179 0.27829117 2.333796
v -0.96294343 0.27829117 3.5590382
v -1.1979179 0 2.333796
v -0.96294343 0.27829117 3.5590382
v -0.96294343 0 3.5590382
v 1.1979179 0 2.333796
v 0.96294343 0.27829117 3.5590382
v 1.1979179 0.27829117 2.333796
v 1.1979179 0 2.333796
v 0.96294343 0 3.5590382
v 0.96294343 0.27829117 3.5590382
v -0.96294343 0.27829117 3.5590382
v 0.96294343 0.27829117 3.5590382
v 0 0.57248473 4.1103973
v -0.96294343 0.27829117 3.5590382
v 0 0.57248473 4.1103973
v -0 0.27829117 4.7842813
v 0.96294343 0.27829117 3.5590382
v 0 0.27829117 4.7842813
v 0 0.57248473 4.1103973
v -0.96294343 0 3.5590382
v -0 0 4.7842813
v 0.96294343 0 3.5590382
v 0.96294343 0 3.5590382
v -0 0 4.7842813
v 0 0 4.7842813
v -0.96294343 0 3.5590382
v -0.96294343 0.27829117 3.5590382
v -0 0.27829117 4.7842813
v -0.96294343 0 3.5590382
v -0 0.27829117 4.7842813
v -0 0 4.7842813
v 0.96294343 0 3.5590382
v 0 0.27829117 4.7842813
v 0.96294343 0.27829117 3.5590382
v 0.96294343 0 3.5590382
v 0 0 4.7842813
v 0 0.27829117 4.7842813
v -0.46809748 0 4.7842813
v 0.46809748 0 4.7842813
v 0 0.48661202 5.0176606
v -0.46809748 0 -2.5671754
v 0 0.16697471 -2.7422101
v 0.46809748 0 -2.5671754
v 0 0.6201917 -1.954554
v -0.13374214 0.49297294 -2.141793
v 0.13374214 0.49297294 -2.141793
v 0 0.6201917 -0.7293112
v -0.13374214 0.49297294 -0.9165502
v 0.13374214 0.49297294 -0.9165502
v 0 0.6201917 0.4959314
v -0.13374214 0.49297294 0.3086924
v 0.13374214 0.49297294 0.3086924
v 0 0.6201917 1.7211742
v -0.13374214 0.49297294 1.5339352
v 0.13374214 0.49297294 1.5339352
v 0 0.6201917 2.9464173
v -0.13374214 0.49297294 2.7591784
v 0.13374214 0.49297294 2.7591784
v -0.561717 0.22263293 -1.2439132
v 0.561717 0.22263293 -1.2439132
v 0 0.38165644 -1.9790589
v -0.8070647 0.08595866 -0.74257135
v -1.1114434 0 -0.90997964
v -0.502686 0 -0.90997964
v 0 0.08595866 -0.74257135
v -0.3043787 0 -0.90997964
v 0.3043787 0 -0.90997964
v 0.8070647 0.08595866 -0.74257135
v 0.502686 0 -0.90997964
v 1.1114434 0 -0.90997964
v 0 0.40830365 -0.26520404
v -0.16141294 0.15042765 -0.403558
v 0.16141294 0.15042765 -0.403558
v -0.43719098 0.053724166 -0.72135496
v 0.43719098 0.053724166 -0.72135496
v 0 0.23638631 -0.56223255
v -0.4879208 0.053724166 0.16973066
v 0.4879208 0.053724166 0.16973066
v 0 0.23638631 0.32885307
v -0.5072978 0.053724166 1.0608163
v 0.5072978 0.053724166 1.0608163
v 0 0.23638631 1.2199388
v -0.4879208 0.053724166 1.9519019
v 0.4879208 0.053724166 1.9519019
v 0 0.23638631 2.1110244
v -0.43719098 0.053724166 2.8429875
v 0.43719098 0.053724166 2.8429875
v 0 0.23638631 3.00211
v 0 0.5909658 -0.07072103
v -0.16141294 0.45128295 -0.30940467
v 0.16141294 0.45128295 -0.30940467
v 0 0.5909658 0.7072109
v -0.16141294 0.45128295 0.46852726
v 0.16141294 0.45128295 0.46852726
v 0 0.5909658 1.4851428
v -0.16141294 0.45128295 1.2464591
v 0.16141294 0.45128295 1.2464591
v 0 0.5909658 2.2630749
v -0.16141294 0.45128295 2.0243912
v 0.16141294 0.45128295 2.0243912
v 0 0.5909658 3.0410066
v -0.16141294 0.45128295 2.8023229
v 0.16141294 0.45128295 2.8023229
v -0.32282588 0 -2.2542346
v 0.32282588 0 -2.2542346
v 0 0.053724166 -2.4929183
vn 0 -0.88226306 0.47075686
vn 0 -0.88226306 0.47075686
vn 0 -0.88226306 0.47075686
vn 0.34891737 -0.932685 0.09140709
vn 0.34891737 -0.932685 0.09140709
vn 0.34891737 -0.932685 0.09140709
vn -0.34891737 -0.932685 0.09140709
vn -0.34891737 -0.932685 0.09140709
vn -0.34891737 -0.932685 0.09140709
vn 0 1 -0
vn 0 1 -0
vn 0 1 -0
vn 0 1 -0
vn 0 1 -0
vn 0 1 -0
vn 0.9673559 -0 0.25342155
vn 0.9673559 -0 0.25342155
vn 0.9673559 -0 0.25342155
vn 0.9673559 0 0.25342155
vn 0.9673559 0 0.25342155
vn 0.9673559 0 0.25342155
vn -0.9673559 0 0.25342155
vn -0.9673559 0 0.25342155
vn -0.9673559 0 0.25342155
vn -0.9673559 0 0.25342155
vn -0.9673559 0 0.25342155
vn -0.9673559 0 0.25342155
vn 0 -0.882263 0.47075677
vn 0 -0.882263 0.47075677
vn 0 -0.882263 0.47075677
vn 0.26507002 -0.96288824 0.050834585
vn 0.26507002 -0.96288824 0.050834585
vn 0.26507002 -0.96288824 0.050834585
vn -0.26507002 -0.96288824 0.050834585
vn -0.26507002 -0.96288824 0.050834585
vn -0.26507002 -0.96288824 0.050834585
vn 0 1 -0
vn 0 1 -0
vn 0 1 -0
vn 0 1 -0
vn 0 1 -0
vn 0 1 -0
vn 0.98210275 -0 0.18834566
vn 0.98210275 -0 0.18834566
vn 0.98210275 -0 0.18834566
vn 0.98210275 0 0.18834566
vn 0.98210275 0 0.18834566
vn 0.98210275 0 0.18834566
vn -0.98210275 0 0.18834566
vn -0.98210275 0 0.18834566
vn -0.98210275 0 0.18834566
vn -0.98210275 0 0.18834566
vn -0.98210275 0 0.18834566
vn -0.98210275 0 0.18834566
vn 0 -0.882263 0.47075683
vn 0 -0.882263 0.47075683
vn 0 -0.882263 0.47075683
vn 0.23141132 -0.9727204 0.016244058
vn 0.23141132 -0.9727204 0.016244058
vn 0.23141132 -0.9727204 0.016244058
vn -0.23141132 -0.9727204 0.016244058
vn -0.23141132 -0.9727204 0.016244058
vn -0.23141132 -0.9727204 0.016244058
vn 0 1 -0
vn 0 1 -0
vn 0 1 -0
vn 0 1 -0
vn 0 1 -0
vn 0 1 -0
vn 0.99754536 -0 0.0700233
vn 0.99754536 -0 0.0700233
vn 0.99754536 -0 0.0700233
vn 0.99754536 0 0.0700233
vn 0.99754536 0 0.0700233
vn 0.99754536 0 0.0700233
vn -0.99754536 0 0.0700233
vn -0.99754536 0 0.0700233
vn -0.99754536 0 0.0700233
vn -0.99754536 0 0.0700233
vn -0.99754536 0 0.0700233
vn -0.99754536 0 0.0700233
vn 0 -0.88226306 0.47075668
vn 0 -0.88226306 0.47075668
vn 0 -0.88226306 0.47075668
vn 0.22989815 -0.9730809 -0.016137833
vn 0.22989815 -0.9730809 -0.016137833
vn 0.22989815 -0.9730809 -0.016137833
vn -0.22989815 -0.9730809 -0.016137833
vn -0.22989815 -0.9730809 -0.016137833
vn -0.22989815 -0.9730809 -0.016137833
vn 0 0.99999994 0
vn 0 0.99999994 0
vn 0 0.99999994 0
vn 0 1 0
vn 0 1 0
vn 0 1 0
vn 0.99754536 0 -0.07002326
vn 0.99754536 0 -0.07002326
vn 0.99754536 0 -0.07002326
vn 0.99754536 0 -0.07002326
vn 0.99754536 0 -0.07002326
vn 0.99754536 0 -0.07002326
vn -0.99754536 0 -0.07002326
vn -0.99754536 0 -0.07002326
vn -0.99754536 0 -0.07002326
vn -0.99754536 0 -0.07002326
vn -0.99754536 0 -0.07002326
vn -0.99754536 0 -0.07002326
vn 0 -0.8822629 0.470757
vn 0 -0.8822629 0.470757
vn 0 -0.8822629 0.470757
vn 0.25977027 -0.9643846 -0.049818225
vn 0.25977027 -0.9643846 -0.049818225
vn 0.25977027 -0.9643846 -0.049818225
vn -0.25977027 -0.9643846 -0.049818225
vn -0.25977027 -0.9643846 -0.049818225
vn -0.25977027 -0.9643846 -0.049818225
vn 0 1 0
vn 0 1 0
vn 0 1 0
vn 0 1 0
vn 0 1 0
vn 0 1 0
vn 0.9821028 0 -0.18834573
vn 0.9821028 0 -0.18834573
vn 0.9821028 0 -0.18834573
vn 0.9821028 0 -0.18834573
vn 0.9821028 0 -0.18834573
vn 0.9821028 0 -0.18834573
vn -0.9821028 0 -0.18834573
vn -0.9821028 0 -0.18834573
vn -0.9821028 0 -0.18834573
vn -0.9821028 0 -0.18834573
vn -0.9821028 0 -0.18834573
vn -0.9821028 0 -0.18834573
vn 0 -0.88226306 0.47075683
vn 0 -0.88226306 0.47075683
vn 0 -0.88226306 0.47075683
vn 0.4536776 -0.8167286 -0.35655442
vn 0.4536776 -0.8167286 -0.35655442
vn 0.4536776 -0.8167286 -0.35655442
vn -0.4536776 -0.8167286 -0.35655442
vn -0.4536776 -0.8167286 -0.35655442
vn -0.4536776 -0.8167286 -0.35655442
vn 0 1 0
vn 0 1 0
vn 0 1 0
vn 0 1 0
vn 0 1 0
vn 0 1 0
vn 0.7862397 0 -0.6179217
vn 0.7862397 0 -0.6179217
vn 0.7862397 0 -0.6179217
vn 0.7862397 0 -0.6179217
vn 0.7862397 0 -0.6179217
vn 0.7862397 0 -0.6179217
vn -0.7862397 0 -0.6179217
vn -0.7862397 0 -0.6179217
vn -0.7862397 0 -0.6179217
vn -0.7862397 0 -0.6179217
vn -0.7862397 0 -0.6179217
vn -0.7862397 0 -0.6179217
vn 0 -0.43243828 0.90166354
vn 0 -0.43243828 0.90166354
vn 0 -0.43243828 0.90166354
vn 0 -0.72357005 -0.69025093
vn 0 -0.72357005 -0.69025093
vn 0 -0.72357005 -0.69025093
vn 0 -0.82713974 0.5619964
vn 0 -0.82713974 0.5619964
vn 0 -0.82713974 0.5619964
vn 0 -0.8271396 0.5619966
vn 0 -0.8271396 0.5619966
vn 0 -0.8271396 0.5619966
vn 0 -0.8271396 0.5619966
vn 0 -0.8271396 0.5619966
vn 0 -0.8271396 0.5619966
vn 0 -0.82713974 0.5619964
vn 0 -0.82713974 0.5619964
vn 0 -0.82713974 0.5619964
vn 0 -0.82713944 0.56199664
vn 0 -0.82713944 0.56199664
vn 0 -0.82713944 0.56199664
vn -0 0.9773941 0.21142563
vn -0 0.9773941 0.21142563
vn -0 0.9773941 0.21142563
vn 0 -0.8895838 0.4567721
vn 0 -0.8895838 0.4567721
vn 0 -0.8895838 0.4567721
vn 0 -0.8895838 0.4567721
vn 0 -0.8895838 0.4567721
vn 0 -0.8895838 0.4567721
vn 0 -0.8895838 0.4567721
vn 0 -0.8895838 0.4567721
vn 0 -0.8895838 0.4567721
vn 0 -0.47276855 0.88118666
vn 0 -0.47276855 0.88118666
vn 0 -0.47276855 0.88118666
vn 0 -0.6568502 0.75402117
vn 0 -0.6568502 0.75402117
vn 0 -0.6568502 0.75402117
vn 0 -0.65685016 0.7540211
vn 0 -0.65685016 0.7540211
vn 0 -0.65685016 0.7540211
vn 0 -0.6568503 0.75402105
vn 0 -0.6568503 0.75402105
vn 0 -0.6568503 0.75402105
vn 0 -0.65685034 0.75402105
vn 0 -0.65685034 0.75402105
vn 0 -0.65685034 0.75402105
vn 0 -0.6568503 0.75402105
vn 0 -0.6568503 0.75402105
vn 0 -0.6568503 0.75402105
vn 0 -0.8630687 0.5050866
vn 0 -0.8630687 0.5050866
vn 0 -0.8630687 0.5050866
vn 0 -0.8630687 0.5050866
vn 0 -0.8630687 0.5050866
vn 0 -0.8630687 0.5050866
vn 0 -0.8630687 0.5050864
vn 0 -0.8630687 0.5050864
vn 0 -0.8630687 0.5050864
vn 0 -0.8630687 0.5050864
vn 0 -0.8630687 0.5050864
vn 0 -0.8630687 0.5050864
vn 0 -0.8630687 0.5050864
vn 0 -0.8630687 0.5050864
vn 0 -0.8630687 0.5050864
vn -0 0.975592 0.2195913
vn -0 0.975592 0.2195913
vn -0 0.975592 0.2195913
f 1//1 2//2 3//3
f 4//4 5//5 6//6
f 7//7 8//8 9//9
f 10//10 11//11 12//12
f 13//13 14//14 15//15
f 16//16 17//17 18//18
f 19//19 20//20 21//21
f 22//22 23//23 24//24
f 25//25 26//26 27//27
f 28//28 29//29 30//30
f 31//31 32//32 33//33
f 34//34 35//35 36//36
f 37//37 38//38 39//39
f 40//40 41//41 42//42
f 43//43 44//44 45//45
f 46//46 47//47 48//48
f 49//49 50//50 51//51
f 52//52 53//53 54//54
f 55//55 56//56 57//57
f 58//58 59//59 60//60
f 61//61 62//62 63//63
f 64//64 65//65 66//66
f 67//67 68//68 69//69
f 70//70 71//71 72//72
f 73//73 74//74 75//75
f 76//76 77//77 78//78
f 79//79 80//80 81//81
f 82//82 83//83 84//84
f 85//85 86//86 87//87
f 88//88 89//89 90//90
f 91//91 92//92 93//93
f 94//94 95//95 96//96
f 97//97 98//98 99//99
f 100//100 101//101 102//102
f 103//103 104//104 105//105
f 106//106 107//107 108//108
f 109//109 110//110 111//111
f 112//112 113//113 114//114
f 115//115 116//116 117//117
f 118//118 119//119 120//120
f 121//121 122//122 123//123
f 124//124 125//125 126//126
f 127//127 128//128 129//129
f 130//130 131//131 132//132
f 133//133 134//134 135//135
f 136//136 137//137 138//138
f 139//139 140//140 141//141
f 142//142 143//143 144//144
f 145//145 146//146 147//147
f 148//148 149//149 150//150
f 151//151 152//152 153//153
f 154//154 155//155 156//156
f 157//157 158//158 159//159
f 160//160 161//161 162//162
f 163//163 164//164 165//165
f 166//166 167//167 168//168
f 169//169 170//170 171//171
f 172//172 173//173 174//174
f 175//175 176//176 177//177
f 178//178 179//179 180//180
f 181//181 182//182 183//183
f 184//184 185//185 186//186
f 187//187 188//188 189//189
f 190//190 191//191 192//192
f 193//193 194//194 195//195
f 196//196 197//197 198//198
f 199//199 200//200 201//201
f 202//202 203//203 204//204
f 205//205 206//206 207//207
f 208//208 209//209 210//210
f 211//211 212//212 213//213
f 214//214 215//215 216//216
f 217//217 218//218 219//219
f 220//220 221//221 222//222
f 223//223 224//224 225//225
f 226//226 227//227 228//228
f 229//229 230//230 231//231
