# Exported from SharpOpenGl procedural mesh
o vesper_carrier_mk3_44
# vertices 150
v -0.9257713 0.3958541 -3.9138901
v 0.9257713 0.3958541 -3.9138901
v 0 0.8143285 -3.365501
v -0.9257713 0.3958541 -3.9138901
v 0 0.8143285 -3.365501
v -1.2156346 0.3958541 -2.6952472
v 0.9257713 0.3958541 -3.9138901
v 1.2156346 0.3958541 -2.6952472
v 0 0.8143285 -3.365501
v -0.9257713 0 -3.9138901
v -1.2156346 0 -2.6952472
v 0.9257713 0 -3.9138901
v 0.9257713 0 -3.9138901
v -1.2156346 0 -2.6952472
v 1.2156346 0 -2.6952472
v -1.2156346 0.3958541 -2.6952472
v 1.2156346 0.3958541 -2.6952472
v 0 0.8143285 -2.1468577
v -1.2156346 0.3958541 -2.6952472
v 0 0.8143285 -2.1468577
v -1.4613687 0.3958541 -1.476604
v 1.2156346 0.3958541 -2.6952472
v 1.4613687 0.3958541 -1.476604
v 0 0.8143285 -2.1468577
v -1.2156346 0 -2.6952472
v -1.4613687 0 -1.476604
v 1.2156346 0 -2.6952472
v 1.2156346 0 -2.6952472
v -1.4613687 0 -1.476604
v 1.4613687 0 -1.476604
v -1.4613687 0.3958541 -1.476604
v 1.4613687 0.3958541 -1.476604
v 0 0.8143285 -0.92821467
v -1.4613687 0.3958541 -1.476604
v 0 0.8143285 -0.92821467
v -1.6255631 0.3958541 -0.25796103
v 1.4613687 0.3958541 -1.476604
v 1.6255631 0.3958541 -0.25796103
v 0 0.8143285 -0.92821467
v -1.4613687 0 -1.476604
v -1.6255631 0 -0.25796103
v 1.4613687 0 -1.476604
v 1.4613687 0 -1.476604
v -1.6255631 0 -0.25796103
v 1.6255631 0 -0.25796103
v -1.6255631 0.3958541 -0.25796103
v 1.6255631 0.3958541 -0.25796103
v 0 0.8143285 0.2904284
v -1.6255631 0.3958541 -0.25796103
v 0 0.8143285 0.2904284
v -1.6832205 0.3958541 0.96068215
v 1.6255631 0.3958541 -0.25796103
v 1.6832205 0.3958541 0.96068215
v 0 0.8143285 0.2904284
v -1.6255631 0 -0.25796103
v -1.6832205 0 0.96068215
v 1.6255631 0 -0.25796103
v 1.6255631 0 -0.25796103
v -1.6832205 0 0.96068215
v 1.6832205 0 0.96068215
v -1.6832205 0.3958541 0.96068215
v 1.6832205 0.3958541 0.96068215
v 0 0.8143285 1.5090716
v -1.6832205 0.3958541 0.96068215
v 0 0.8143285 1.5090716
v -1.6255631 0.3958541 2.1793253
v 1.6832205 0.3958541 0.96068215
v 1.6255631 0.3958541 2.1793253
v 0 0.8143285 1.5090716
v -1.6832205 0 0.96068215
v -1.6255631 0 2.1793253
v 1.6832205 0 0.96068215
v 1.6832205 0 0.96068215
v -1.6255631 0 2.1793253
v 1.6255631 0 2.1793253
v -1.6255631 0.3958541 2.1793253
v 1.6255631 0.3958541 2.1793253
v 0 0.8143285 2.7277145
v -1.6255631 0.3958541 2.1793253
v 0 0.8143285 2.7277145
v -1.4613687 0.3958541 3.397968
v 1.6255631 0.3958541 2.1793253
v 1.4613687 0.3958541 3.397968
v 0 0.8143285 2.7277145
v -1.6255631 0 2.1793253
v -1.4613687 0 3.397968
v 1.6255631 0 2.1793253
v 1.6255631 0 2.1793253
v -1.4613687 0 3.397968
v 1.4613687 0 3.397968
v -1.4613687 0.3958541 3.397968
v 1.4613687 0.3958541 3.397968
v 0 0.8143285 3.9463577
v -1.4613687 0.3958541 3.397968
v 0 0.8143285 3.9463577
v -0.8441906 0.3958541 4.6166115
v 1.4613687 0.3958541 3.397968
v 0.8441906 0.3958541 4.6166115
v 0 0.8143285 3.9463577
v -1.4613687 0 3.397968
v -0.8441906 0 4.6166115
v 1.4613687 0 3.397968
v 1.4613687 0 3.397968
v -0.8441906 0 4.6166115
v 0.8441906 0 4.6166115
v -0.8441906 0.3958541 4.6166115
v 0.8441906 0.3958541 4.6166115
v 0 0.8143285 5.165001
v -0.8441906 0.3958541 4.6166115
v 0 0.8143285 5.165001
v -0 0.3958541 5.8352547
v 0.8441906 0.3958541 4.6166115
v 0 0.3958541 5.8352547
v 0 0.8143285 5.165001
v -0.8441906 0 4.6166115
v -0 0 5.8352547
v 0.8441906 0 4.6166115
v 0.8441906 0 4.6166115
v -0 0 5.8352547
v 0 0 5.8352547
v 0 0.8821891 -3.3045685
v -0.13465764 0.70122725 -3.506555
v 0.13465764 0.70122725 -3.506555
v 0 0.8821891 -2.0859256
v -0.13465764 0.70122725 -2.2879121
v 0.13465764 0.70122725 -2.2879121
v 0 0.8821891 -0.8672824
v -0.13465764 0.70122725 -1.0692688
v 0.13465764 0.70122725 -1.0692688
v 0 0.8821891 0.35136056
v -0.13465764 0.70122725 0.1493741
v 0.13465764 0.70122725 0.1493741
v 0 0.8821891 1.5700037
v -0.13465764 0.70122725 1.3680173
v 0.13465764 0.70122725 1.3680173
v 0 0.8821891 2.788647
v -0.13465764 0.70122725 2.5866604
v 0.13465764 0.70122725 2.5866604
v 0 0.8821891 4.00729
v -0.13465764 0.70122725 3.8053033
v 0.13465764 0.70122725 3.8053033
v -0.7069526 0.3166833 -1.0674247
v 0.7069526 0.3166833 -1.0674247
v 0 0.4750249 -1.9925258
v -0.8125892 0.12566796 -3.8365407
v -1.3001428 0 -4.9091587
v -0.32503572 0 -4.9091587
v 0.8125892 0.12566796 -3.8365407
v 0.32503572 0 -4.9091587
v 1.3001428 0 -4.9091587
vn 0 -0.7949744 0.60664296
vn 0 -0.7949744 0.60664296
vn 0 -0.7949744 0.60664296
vn 0.36694062 -0.9261408 0.08727955
vn 0.36694062 -0.9261408 0.08727955
vn 0.36694062 -0.9261408 0.08727955
vn -0.36694062 -0.9261408 0.08727955
vn -0.36694062 -0.9261408 0.08727955
vn -0.36694062 -0.9261408 0.08727955
vn 0 1 -0
vn 0 1 -0
vn 0 1 -0
vn 0 1 -0
vn 0 1 -0
vn 0 1 -0
vn 0 -0.7949745 0.6066427
vn 0 -0.7949745 0.6066427
vn 0 -0.7949745 0.6066427
vn 0.3003629 -0.95190006 0.060566876
vn 0.3003629 -0.95190006 0.060566876
vn 0.3003629 -0.95190006 0.060566876
vn -0.3003629 -0.95190006 0.060566876
vn -0.3003629 -0.95190006 0.060566876
vn -0.3003629 -0.95190006 0.060566876
vn 0 1 -0
vn 0 1 -0
vn 0 1 -0
vn 0 1 -0
vn 0 1 -0
vn 0 1 -0
vn 0 -0.79497445 0.60664284
vn 0 -0.79497445 0.60664284
vn 0 -0.79497445 0.60664284
vn 0.26281688 -0.96419567 0.03541076
vn 0.26281688 -0.96419567 0.03541076
vn 0.26281688 -0.96419567 0.03541076
vn -0.26281688 -0.96419567 0.03541076
vn -0.26281688 -0.96419567 0.03541076
vn -0.26281688 -0.96419567 0.03541076
vn 0 1 -0
vn 0 1 -0
vn 0 1 -0
vn 0 0.99999994 -0
vn 0 0.99999994 -0
vn 0 0.99999994 -0
vn 0 -0.79497457 0.6066428
vn 0 -0.79497457 0.6066428
vn 0 -0.79497457 0.6066428
vn 0.24560982 -0.9692991 0.011620477
vn 0.24560982 -0.9692991 0.011620477
vn 0.24560982 -0.9692991 0.011620477
vn -0.24560982 -0.9692991 0.011620477
vn -0.24560982 -0.9692991 0.011620477
vn -0.24560982 -0.9692991 0.011620477
vn 0 0.99999994 -0
vn 0 0.99999994 -0
vn 0 0.99999994 -0
vn 0 1 -0
vn 0 1 -0
vn 0 1 -0
vn 0 -0.7949746 0.60664284
vn 0 -0.7949746 0.60664284
vn 0 -0.7949746 0.60664284
vn 0.24480674 -0.9695027 -0.011582481
vn 0.24480674 -0.9695027 -0.011582481
vn 0.24480674 -0.9695027 -0.011582481
vn -0.24480674 -0.9695027 -0.011582481
vn -0.24480674 -0.9695027 -0.011582481
vn -0.24480674 -0.9695027 -0.011582481
vn 0 1 0
vn 0 1 0
vn 0 1 0
vn 0 1 0
vn 0 1 0
vn 0 1 0
vn 0 -0.7949744 0.6066429
vn 0 -0.7949744 0.6066429
vn 0 -0.7949744 0.6066429
vn 0.2602285 -0.9649102 -0.035062026
vn 0.2602285 -0.9649102 -0.035062026
vn 0.2602285 -0.9649102 -0.035062026
vn -0.2602285 -0.9649102 -0.035062026
vn -0.2602285 -0.9649102 -0.035062026
vn -0.2602285 -0.9649102 -0.035062026
vn 0 1 0
vn 0 1 0
vn 0 1 0
vn 0 1 0
vn 0 1 0
vn 0 1 0
vn 0 -0.7949746 0.6066426
vn 0 -0.7949746 0.6066426
vn 0 -0.7949746 0.6066426
vn 0.32867932 -0.92965657 -0.1664586
vn 0.32867932 -0.92965657 -0.1664586
vn 0.32867932 -0.92965657 -0.1664586
vn -0.32867932 -0.92965657 -0.1664586
vn -0.32867932 -0.92965657 -0.1664586
vn -0.32867932 -0.92965657 -0.1664586
vn 0 1 0
vn 0 1 0
vn 0 1 0
vn 0 1 0
vn 0 1 0
vn 0 1 0
vn 0 -0.7949745 0.60664284
vn 0 -0.7949745 0.60664284
vn 0 -0.7949745 0.60664284
vn 0.6073554 -0.6738717 -0.4207333
vn 0.6073554 -0.6738717 -0.4207333
vn 0.6073554 -0.6738717 -0.4207333
vn -0.6073554 -0.6738717 -0.4207333
vn -0.6073554 -0.6738717 -0.4207333
vn -0.6073554 -0.6738717 -0.4207333
vn 0 1 0
vn 0 1 0
vn 0 1 0
vn 0 1 0
vn 0 1 0
vn 0 1 0
vn 0 -0.74480677 0.66728014
vn 0 -0.74480677 0.66728014
vn 0 -0.74480677 0.66728014
vn 0 -0.74480677 0.66728014
vn 0 -0.74480677 0.66728014
vn 0 -0.74480677 0.66728014
vn 0 -0.74480665 0.66728044
vn 0 -0.74480665 0.66728044
vn 0 -0.74480665 0.66728044
vn 0 -0.74480665 0.6672803
vn 0 -0.74480665 0.6672803
vn 0 -0.74480665 0.6672803
vn 0 -0.74480665 0.66728044
vn 0 -0.74480665 0.66728044
vn 0 -0.74480665 0.66728044
vn 0 -0.74480677 0.66728014
vn 0 -0.74480677 0.66728014
vn 0 -0.74480677 0.66728014
vn 0 -0.74480677 0.66728014
vn 0 -0.74480677 0.66728014
vn 0 -0.74480677 0.66728014
vn -0 0.98566604 0.16870798
vn -0 0.98566604 0.16870798
vn -0 0.98566604 0.16870798
vn 0 -0.9932067 0.11636413
vn 0 -0.9932067 0.11636413
vn 0 -0.9932067 0.11636413
vn 0 -0.9932067 0.11636413
vn 0 -0.9932067 0.11636413
vn 0 -0.9932067 0.11636413
f 1//1 2//2 3//3
f 4//4 5//5 6//6
f 7//7 8//8 9//9
f 10//10 11//11 12//12
f 13//13 14//14 15//15
f 16//16 17//17 18//18
f 19//19 20//20 21//21
f 22//22 23//23 24//24
f 25//25 26//26 27//27
f 28//28 29//29 30//30
f 31//31 32//32 33//33
f 34//34 35//35 36//36
f 37//37 38//38 39//39
f 40//40 41//41 42//42
f 43//43 44//44 45//45
f 46//46 47//47 48//48
f 49//49 50//50 51//51
f 52//52 53//53 54//54
f 55//55 56//56 57//57
f 58//58 59//59 60//60
f 61//61 62//62 63//63
f 64//64 65//65 66//66
f 67//67 68//68 69//69
f 70//70 71//71 72//72
f 73//73 74//74 75//75
f 76//76 77//77 78//78
f 79//79 80//80 81//81
f 82//82 83//83 84//84
f 85//85 86//86 87//87
f 88//88 89//89 90//90
f 91//91 92//92 93//93
f 94//94 95//95 96//96
f 97//97 98//98 99//99
f 100//100 101//101 102//102
f 103//103 104//104 105//105
f 106//106 107//107 108//108
f 109//109 110//110 111//111
f 112//112 113//113 114//114
f 115//115 116//116 117//117
f 118//118 119//119 120//120
f 121//121 122//122 123//123
f 124//124 125//125 126//126
f 127//127 128//128 129//129
f 130//130 131//131 132//132
f 133//133 134//134 135//135
f 136//136 137//137 138//138
f 139//139 140//140 141//141
f 142//142 143//143 144//144
f 145//145 146//146 147//147
f 148//148 149//149 150//150
