# Exported from SharpOpenGl procedural mesh
o vesper_interceptor_mk1_02
# vertices 225
v -0.1292997 0.08343069 -1.4372275
v 0.1292997 0.08343069 -1.4372275
v 0 0.17162886 -1.1285503
v -0.1292997 0.08343069 -1.4372275
v 0 0.17162886 -1.1285503
v -0.19394954 0.08343069 -0.751278
v 0.1292997 0.08343069 -1.4372275
v 0.19394954 0.08343069 -0.751278
v 0 0.17162886 -1.1285503
v -0.1292997 0 -1.4372275
v -0.19394954 0 -0.751278
v 0.1292997 0 -1.4372275
v 0.1292997 0 -1.4372275
v -0.19394954 0 -0.751278
v 0.19394954 0 -0.751278
v -0.1292997 0 -1.4372275
v -0.1292997 0.08343069 -1.4372275
v -0.19394954 0.08343069 -0.751278
v -0.1292997 0 -1.4372275
v -0.19394954 0.08343069 -0.751278
v -0.19394954 0 -0.751278
v 0.1292997 0 -1.4372275
v 0.19394954 0.08343069 -0.751278
v 0.1292997 0.08343069 -1.4372275
v 0.1292997 0 -1.4372275
v 0.19394954 0 -0.751278
v 0.19394954 0.08343069 -0.751278
v -0.19394954 0.08343069 -0.751278
v 0.19394954 0.08343069 -0.751278
v 0 0.17162886 -0.44260073
v -0.19394954 0.08343069 -0.751278
v 0 0.17162886 -0.44260073
v -0.24127653 0.08343069 -0.06532848
v 0.19394954 0.08343069 -0.751278
v 0.24127653 0.08343069 -0.06532848
v 0 0.17162886 -0.44260073
v -0.19394954 0 -0.751278
v -0.24127653 0 -0.06532848
v 0.19394954 0 -0.751278
v 0.19394954 0 -0.751278
v -0.24127653 0 -0.06532848
v 0.24127653 0 -0.06532848
v -0.19394954 0 -0.751278
v -0.19394954 0.08343069 -0.751278
v -0.24127653 0.08343069 -0.06532848
v -0.19394954 0 -0.751278
v -0.24127653 0.08343069 -0.06532848
v -0.24127653 0 -0.06532848
v 0.19394954 0 -0.751278
v 0.24127653 0.08343069 -0.06532848
v 0.19394954 0.08343069 -0.751278
v 0.19394954 0 -0.751278
v 0.24127653 0 -0.06532848
v 0.24127653 0.08343069 -0.06532848
v -0.24127653 0.08343069 -0.06532848
v 0.24127653 0.08343069 -0.06532848
v 0 0.17162886 0.24334878
v -0.24127653 0.08343069 -0.06532848
v 0 0.17162886 0.24334878
v -0.2585994 0.08343069 0.62062097
v 0.24127653 0.08343069 -0.06532848
v 0.2585994 0.08343069 0.62062097
v 0 0.17162886 0.24334878
v -0.24127653 0 -0.06532848
v -0.2585994 0 0.62062097
v 0.24127653 0 -0.06532848
v 0.24127653 0 -0.06532848
v -0.2585994 0 0.62062097
v 0.2585994 0 0.62062097
v -0.24127653 0 -0.06532848
v -0.24127653 0.08343069 -0.06532848
v -0.2585994 0.08343069 0.62062097
v -0.24127653 0 -0.06532848
v -0.2585994 0.08343069 0.62062097
v -0.2585994 0 0.62062097
v 0.24127653 0 -0.06532848
v 0.2585994 0.08343069 0.62062097
v 0.24127653 0.08343069 -0.06532848
v 0.24127653 0 -0.06532848
v 0.2585994 0 0.62062097
v 0.2585994 0.08343069 0.62062097
v -0.2585994 0.08343069 0.62062097
v 0.2585994 0.08343069 0.62062097
v 0 0.17162886 0.9292983
v -0.2585994 0.08343069 0.62062097
v 0 0.17162886 0.9292983
v -0.24127652 0.08343069 1.3065705
v 0.2585994 0.08343069 0.62062097
v 0.24127652 0.08343069 1.3065705
v 0 0.17162886 0.9292983
v -0.2585994 0 0.62062097
v -0.24127652 0 1.3065705
v 0.2585994 0 0.62062097
v 0.2585994 0 0.62062097
v -0.24127652 0 1.3065705
v 0.24127652 0 1.3065705
v -0.2585994 0 0.62062097
v -0.2585994 0.08343069 0.62062097
v -0.24127652 0.08343069 1.3065705
v -0.2585994 0 0.62062097
v -0.24127652 0.08343069 1.3065705
v -0.24127652 0 1.3065705
v 0.2585994 0 0.62062097
v 0.24127652 0.08343069 1.3065705
v 0.2585994 0.08343069 0.62062097
v 0.2585994 0 0.62062097
v 0.24127652 0 1.3065705
v 0.24127652 0.08343069 1.3065705
v -0.24127652 0.08343069 1.3065705
v 0.24127652 0.08343069 1.3065705
v 0 0.17162886 1.6152477
v -0.24127652 0.08343069 1.3065705
v 0 0.17162886 1.6152477
v -0.19394955 0.08343069 1.9925199
v 0.24127652 0.08343069 1.3065705
v 0.19394955 0.08343069 1.9925199
v 0 0.17162886 1.6152477
v -0.24127652 0 1.3065705
v -0.19394955 0 1.9925199
v 0.24127652 0 1.3065705
v 0.24127652 0 1.3065705
v -0.19394955 0 1.9925199
v 0.19394955 0 1.9925199
v -0.24127652 0 1.3065705
v -0.24127652 0.08343069 1.3065705
v -0.19394955 0.08343069 1.9925199
v -0.24127652 0 1.3065705
v -0.19394955 0.08343069 1.9925199
v -0.19394955 0 1.9925199
v 0.24127652 0 1.3065705
v 0.19394955 0.08343069 1.9925199
v 0.24127652 0.08343069 1.3065705
v 0.24127652 0 1.3065705
v 0.19394955 0 1.9925199
v 0.19394955 0.08343069 1.9925199
v -0.19394955 0.08343069 1.9925199
v 0.19394955 0.08343069 1.9925199
v 0 0.17162886 2.301197
v -0.19394955 0.08343069 1.9925199
v 0 0.17162886 2.301197
v -0 0.08343069 2.6784694
v 0.19394955 0.08343069 1.9925199
v 0 0.08343069 2.6784694
v 0 0.17162886 2.301197
v -0.19394955 0 1.9925199
v -0 0 2.6784694
v 0.19394955 0 1.9925199
v 0.19394955 0 1.9925199
v -0 0 2.6784694
v 0 0 2.6784694
v -0.19394955 0 1.9925199
v -0.19394955 0.08343069 1.9925199
v -0 0.08343069 2.6784694
v -0.19394955 0 1.9925199
v -0 0.08343069 2.6784694
v -0 0 2.6784694
v 0.19394955 0 1.9925199
v 0 0.08343069 2.6784694
v 0.19394955 0.08343069 1.9925199
v 0.19394955 0 1.9925199
v 0 0 2.6784694
v 0 0.08343069 2.6784694
v -0.094281025 0 2.6784694
v 0.094281025 0 2.6784694
v 0 0.14588454 2.8091264
v -0.094281025 0 -1.4372275
v 0 0.050058417 -1.5352203
v 0.094281025 0 -1.4372275
v 0 0.18593125 -1.0942527
v -0.026937438 0.14779152 -1.1319652
v 0.026937438 0.14779152 -1.1319652
v 0 0.18593125 -0.40830326
v -0.026937438 0.14779152 -0.4460157
v 0.026937438 0.14779152 -0.4460157
v 0 0.18593125 0.27764618
v -0.026937438 0.14779152 0.23993377
v 0.026937438 0.14779152 0.23993377
v 0 0.18593125 0.9635956
v -0.026937438 0.14779152 0.92588323
v 0.026937438 0.14779152 0.92588323
v 0 0.18593125 1.6495452
v -0.026937438 0.14779152 1.6118327
v 0.026937438 0.14779152 1.6118327
v -0.11313723 0.06674456 -0.696402
v 0.11313723 0.06674456 -0.696402
v 0 0.11441924 -1.1079717
v -0.1300428 0.025770098 -0.41572693
v -0.18020217 0 -0.44331458
v -0.07988344 0 -0.44331458
v 0.1300428 0.025770098 -0.41572693
v 0.07988344 0 -0.44331458
v 0.18020217 0 -0.44331458
v -0.08805604 0.016106313 -0.3311562
v 0.08805604 0.016106313 -0.3311562
v 0 0.07086777 -0.24207185
v -0.098273695 0.016106313 0.07791913
v 0.098273695 0.016106313 0.07791913
v 0 0.07086777 0.16700348
v -0.10217649 0.016106313 0.4869944
v 0.10217649 0.016106313 0.4869944
v 0 0.07086777 0.5760787
v -0.098273695 0.016106313 0.8960697
v 0.098273695 0.016106313 0.8960697
v 0 0.07086777 0.98515403
v -0.08805604 0.016106313 1.305145
v 0.08805604 0.016106313 1.305145
v 0 0.07086777 1.3942294
v 0 0.17716944 -0.03246627
v -0.0325107 0.13529302 -0.16609278
v 0.0325107 0.13529302 -0.16609278
v 0 0.17716944 0.32466298
v -0.0325107 0.13529302 0.19103646
v 0.0325107 0.13529302 0.19103646
v 0 0.17716944 0.6817922
v -0.0325107 0.13529302 0.5481657
v 0.0325107 0.13529302 0.5481657
v 0 0.17716944 1.0389215
v -0.0325107 0.13529302 0.90529495
v 0.0325107 0.13529302 0.90529495
v 0 0.17716944 1.3960507
v -0.0325107 0.13529302 1.2624242
v 0.0325107 0.13529302 1.2624242
v -0.0650214 0 -1.0589159
v 0.0650214 0 -1.0589159
v 0 0.016106313 -1.1925423
vn 0 -0.96152 0.2747346
vn 0 -0.96152 0.2747346
vn 0 -0.96152 0.2747346
vn 0.48598582 -0.8727656 0.045803525
vn 0.48598582 -0.8727656 0.045803525
vn 0.48598582 -0.8727656 0.045803525
vn -0.48598582 -0.8727656 0.045803525
vn -0.48598582 -0.8727656 0.045803525
vn -0.48598582 -0.8727656 0.045803525
vn 0 1 -0
vn 0 1 -0
vn 0 1 -0
vn 0 1 -0
vn 0 1 -0
vn 0 1 -0
vn 0.99558794 -0 0.09383284
vn 0.99558794 -0 0.09383284
vn 0.99558794 -0 0.09383284
vn 0.99558794 0 0.09383284
vn 0.99558794 0 0.09383284
vn 0.99558794 0 0.09383284
vn -0.99558794 0 0.09383284
vn -0.99558794 0 0.09383284
vn -0.99558794 0 0.09383284
vn -0.99558794 0 0.09383284
vn -0.99558794 0 0.09383284
vn -0.99558794 0 0.09383284
vn 0 -0.9615201 0.27473456
vn 0 -0.9615201 0.27473456
vn 0 -0.9615201 0.27473456
vn 0.37902862 -0.9250154 0.026151033
vn 0.37902862 -0.9250154 0.026151033
vn 0.37902862 -0.9250154 0.026151033
vn -0.37902862 -0.9250154 0.026151033
vn -0.37902862 -0.9250154 0.026151033
vn -0.37902862 -0.9250154 0.026151033
vn 0 1 -0
vn 0 1 -0
vn 0 1 -0
vn 0 1 -0
vn 0 1 -0
vn 0 1 -0
vn 0.99762833 -0 0.068831235
vn 0.99762833 -0 0.068831235
vn 0.99762833 -0 0.068831235
vn 0.99762833 0 0.068831235
vn 0.99762833 0 0.068831235
vn 0.99762833 0 0.068831235
vn -0.99762833 0 0.068831235
vn -0.99762833 0 0.068831235
vn -0.99762833 0 0.068831235
vn -0.99762833 0 0.068831235
vn -0.99762833 0 0.068831235
vn -0.99762833 0 0.068831235
vn 0 -0.9615201 0.2747346
vn 0 -0.9615201 0.2747346
vn 0 -0.9615201 0.2747346
vn 0.33378562 -0.94261134 0.008429374
vn 0.33378562 -0.94261134 0.008429374
vn 0.33378562 -0.94261134 0.008429374
vn -0.33378562 -0.94261134 0.008429374
vn -0.33378562 -0.94261134 0.008429374
vn -0.33378562 -0.94261134 0.008429374
vn 0 1 -0
vn 0 1 -0
vn 0 1 -0
vn 0 1 -0
vn 0 1 -0
vn 0 1 -0
vn 0.9996813 -0 0.025245806
vn 0.9996813 -0 0.025245806
vn 0.9996813 -0 0.025245806
vn 0.9996813 0 0.025245806
vn 0.9996813 0 0.025245806
vn 0.9996813 0 0.025245806
vn -0.9996813 0 0.025245806
vn -0.9996813 0 0.025245806
vn -0.9996813 0 0.025245806
vn -0.9996813 0 0.025245806
vn -0.9996813 0 0.025245806
vn -0.9996813 0 0.025245806
vn 0 -0.9615202 0.27473453
vn 0 -0.9615202 0.27473453
vn 0 -0.9615202 0.27473453
vn 0.33173484 -0.9433354 -0.008377589
vn 0.33173484 -0.9433354 -0.008377589
vn 0.33173484 -0.9433354 -0.008377589
vn -0.33173484 -0.9433354 -0.008377589
vn -0.33173484 -0.9433354 -0.008377589
vn -0.33173484 -0.9433354 -0.008377589
vn 0 1 0
vn 0 1 0
vn 0 1 0
vn 0 1 0
vn 0 1 0
vn 0 1 0
vn 0.9996813 0 -0.025245823
vn 0.9996813 0 -0.025245823
vn 0.9996813 0 -0.025245823
vn 0.9996813 0 -0.025245823
vn 0.9996813 0 -0.025245823
vn 0.9996813 0 -0.025245823
vn -0.9996813 0 -0.025245823
vn -0.9996813 0 -0.025245823
vn -0.9996813 0 -0.025245823
vn -0.9996813 0 -0.025245823
vn -0.9996813 0 -0.025245823
vn -0.9996813 0 -0.025245823
vn 0 -0.96152 0.2747346
vn 0 -0.96152 0.2747346
vn 0 -0.96152 0.2747346
vn 0.37201878 -0.9278703 -0.025667379
vn 0.37201878 -0.9278703 -0.025667379
vn 0.37201878 -0.9278703 -0.025667379
vn -0.37201878 -0.9278703 -0.025667379
vn -0.37201878 -0.9278703 -0.025667379
vn -0.37201878 -0.9278703 -0.025667379
vn 0 1 0
vn 0 1 0
vn 0 1 0
vn 0 1 0
vn 0 1 0
vn 0 1 0
vn 0.9976284 0 -0.06883121
vn 0.9976284 0 -0.06883121
vn 0.9976284 0 -0.06883121
vn 0.9976284 0 -0.06883121
vn 0.9976284 0 -0.06883121
vn 0.9976284 0 -0.06883121
vn -0.9976284 0 -0.06883121
vn -0.9976284 0 -0.06883121
vn -0.9976284 0 -0.06883121
vn -0.9976284 0 -0.06883121
vn -0.9976284 0 -0.06883121
vn -0.9976284 0 -0.06883121
vn 0 -0.9615201 0.2747346
vn 0 -0.9615201 0.2747346
vn 0 -0.9615201 0.2747346
vn 0.6271174 -0.7584743 -0.17731497
vn 0.6271174 -0.7584743 -0.17731497
vn 0.6271174 -0.7584743 -0.17731497
vn -0.6271174 -0.7584743 -0.17731497
vn -0.6271174 -0.7584743 -0.17731497
vn -0.6271174 -0.7584743 -0.17731497
vn 0 1 0
vn 0 1 0
vn 0 1 0
vn 0 1 0
vn 0 1 0
vn 0 1 0
vn 0.9622748 0 -0.27207944
vn 0.9622748 0 -0.27207944
vn 0.9622748 0 -0.27207944
vn 0.9622748 0 -0.27207944
vn 0.9622748 0 -0.27207944
vn 0.9622748 0 -0.27207944
vn -0.9622748 0 -0.27207944
vn -0.9622748 0 -0.27207944
vn -0.9622748 0 -0.27207944
vn -0.9622748 0 -0.27207944
vn -0.9622748 0 -0.27207944
vn -0.9622748 0 -0.27207944
vn 0 -0.66715974 0.7449147
vn 0 -0.66715974 0.7449147
vn 0 -0.66715974 0.7449147
vn 0 -0.8905333 -0.45491812
vn 0 -0.8905333 -0.45491812
vn 0 -0.8905333 -0.45491812
vn 0 -0.7031125 0.71107864
vn 0 -0.7031125 0.71107864
vn 0 -0.7031125 0.71107864
vn 0 -0.7031122 0.7110789
vn 0 -0.7031122 0.7110789
vn 0 -0.7031122 0.7110789
vn 0 -0.70311207 0.71107906
vn 0 -0.70311207 0.71107906
vn 0 -0.70311207 0.71107906
vn 0 -0.703112 0.71107924
vn 0 -0.703112 0.71107924
vn 0 -0.703112 0.71107924
vn 0 -0.7031125 0.71107864
vn 0 -0.7031125 0.71107864
vn 0 -0.7031125 0.71107864
vn -0 0.9933578 0.11506682
vn -0 0.9933578 0.11506682
vn -0 0.9933578 0.11506682
vn 0 -0.7307695 0.6826243
vn 0 -0.7307695 0.6826243
vn 0 -0.7307695 0.6826243
vn 0 -0.7307695 0.6826243
vn 0 -0.7307695 0.6826243
vn 0 -0.7307695 0.6826243
vn 0 -0.8519129 0.52368337
vn 0 -0.8519129 0.52368337
vn 0 -0.8519129 0.52368337
vn 0 -0.851913 0.52368337
vn 0 -0.851913 0.52368337
vn 0 -0.851913 0.52368337
vn 0 -0.851913 0.5236835
vn 0 -0.851913 0.5236835
vn 0 -0.851913 0.5236835
vn 0 -0.851913 0.5236834
vn 0 -0.851913 0.5236834
vn 0 -0.851913 0.5236834
vn 0 -0.8519131 0.52368325
vn 0 -0.8519131 0.52368325
vn 0 -0.8519131 0.52368325
vn 0 -0.9542395 0.29904342
vn 0 -0.9542395 0.29904342
vn 0 -0.9542395 0.29904342
vn 0 -0.9542395 0.29904342
vn 0 -0.9542395 0.29904342
vn 0 -0.9542395 0.29904342
vn 0 -0.9542395 0.29904342
vn 0 -0.9542395 0.29904342
vn 0 -0.9542395 0.29904342
vn 0 -0.9542395 0.29904342
vn 0 -0.9542395 0.29904342
vn 0 -0.9542395 0.29904342
vn 0 -0.9542395 0.29904357
vn 0 -0.9542395 0.29904357
vn 0 -0.9542395 0.29904357
vn -0 0.9928141 0.11966623
vn -0 0.9928141 0.11966623
vn -0 0.9928141 0.11966623
f 1//1 2//2 3//3
f 4//4 5//5 6//6
f 7//7 8//8 9//9
f 10//10 11//11 12//12
f 13//13 14//14 15//15
f 16//16 17//17 18//18
f 19//19 20//20 21//21
f 22//22 23//23 24//24
f 25//25 26//26 27//27
f 28//28 29//29 30//30
f 31//31 32//32 33//33
f 34//34 35//35 36//36
f 37//37 38//38 39//39
f 40//40 41//41 42//42
f 43//43 44//44 45//45
f 46//46 47//47 48//48
f 49//49 50//50 51//51
f 52//52 53//53 54//54
f 55//55 56//56 57//57
f 58//58 59//59 60//60
f 61//61 62//62 63//63
f 64//64 65//65 66//66
f 67//67 68//68 69//69
f 70//70 71//71 72//72
f 73//73 74//74 75//75
f 76//76 77//77 78//78
f 79//79 80//80 81//81
f 82//82 83//83 84//84
f 85//85 86//86 87//87
f 88//88 89//89 90//90
f 91//91 92//92 93//93
f 94//94 95//95 96//96
f 97//97 98//98 99//99
f 100//100 101//101 102//102
f 103//103 104//104 105//105
f 106//106 107//107 108//108
f 109//109 110//110 111//111
f 112//112 113//113 114//114
f 115//115 116//116 117//117
f 118//118 119//119 120//120
f 121//121 122//122 123//123
f 124//124 125//125 126//126
f 127//127 128//128 129//129
f 130//130 131//131 132//132
f 133//133 134//134 135//135
f 136//136 137//137 138//138
f 139//139 140//140 141//141
f 142//142 143//143 144//144
f 145//145 146//146 147//147
f 148//148 149//149 150//150
f 151//151 152//152 153//153
f 154//154 155//155 156//156
f 157//157 158//158 159//159
f 160//160 161//161 162//162
f 163//163 164//164 165//165
f 166//166 167//167 168//168
f 169//169 170//170 171//171
f 172//172 173//173 174//174
f 175//175 176//176 177//177
f 178//178 179//179 180//180
f 181//181 182//182 183//183
f 184//184 185//185 186//186
f 187//187 188//188 189//189
f 190//190 191//191 192//192
f 193//193 194//194 195//195
f 196//196 197//197 198//198
f 199//199 200//200 201//201
f 202//202 203//203 204//204
f 205//205 206//206 207//207
f 208//208 209//209 210//210
f 211//211 212//212 213//213
f 214//214 215//215 216//216
f 217//217 218//218 219//219
f 220//220 221//221 222//222
f 223//223 224//224 225//225
