# Exported from SharpOpenGl procedural mesh
o vesper_frigate_mk3_39
# vertices 114
v -0.41579878 0.22768949 -3.5130167
v 0.41579878 0.22768949 -3.5130167
v 0 0.46838984 -2.8567214
v -0.41579878 0.22768949 -3.5130167
v 0 0.46838984 -2.8567214
v -0.5858983 0.22768949 -2.0545826
v 0.41579878 0.22768949 -3.5130167
v 0.5858983 0.22768949 -2.0545826
v 0 0.46838984 -2.8567214
v -0.41579878 0 -3.5130167
v -0.5858983 0 -2.0545826
v 0.41579878 0 -3.5130167
v 0.41579878 0 -3.5130167
v -0.5858983 0 -2.0545826
v 0.5858983 0 -2.0545826
v -0.5858983 0.22768949 -2.0545826
v 0.5858983 0.22768949 -2.0545826
v 0 0.46838984 -1.3982873
v -0.5858983 0.22768949 -2.0545826
v 0 0.46838984 -1.3982873
v -0.7104198 0.22768949 -0.5961485
v 0.5858983 0.22768949 -2.0545826
v 0.7104198 0.22768949 -0.5961485
v 0 0.46838984 -1.3982873
v -0.5858983 0 -2.0545826
v -0.7104198 0 -0.5961485
v 0.5858983 0 -2.0545826
v 0.5858983 0 -2.0545826
v -0.7104198 0 -0.5961485
v 0.7104198 0 -0.5961485
v -0.7104198 0.22768949 -0.5961485
v 0.7104198 0.22768949 -0.5961485
v 0 0.46838984 0.06014687
v -0.7104198 0.22768949 -0.5961485
v 0 0.46838984 0.06014687
v -0.7559978 0.22768949 0.8622856
v 0.7104198 0.22768949 -0.5961485
v 0.7559978 0.22768949 0.8622856
v 0 0.46838984 0.06014687
v -0.7104198 0 -0.5961485
v -0.7559978 0 0.8622856
v 0.7104198 0 -0.5961485
v 0.7104198 0 -0.5961485
v -0.7559978 0 0.8622856
v 0.7559978 0 0.8622856
v -0.7559978 0.22768949 0.8622856
v 0.7559978 0.22768949 0.8622856
v 0 0.46838984 1.5185809
v -0.7559978 0.22768949 0.8622856
v 0 0.46838984 1.5185809
v -0.7104198 0.22768949 2.3207197
v 0.7559978 0.22768949 0.8622856
v 0.7104198 0.22768949 2.3207197
v 0 0.46838984 1.5185809
v -0.7559978 0 0.8622856
v -0.7104198 0 2.3207197
v 0.7559978 0 0.8622856
v 0.7559978 0 0.8622856
v -0.7104198 0 2.3207197
v 0.7104198 0 2.3207197
v -0.7104198 0.22768949 2.3207197
v 0.7104198 0.22768949 2.3207197
v 0 0.46838984 2.977015
v -0.7104198 0.22768949 2.3207197
v 0 0.46838984 2.977015
v -0.5424984 0.22768949 3.7791538
v 0.7104198 0.22768949 2.3207197
v 0.5424984 0.22768949 3.7791538
v 0 0.46838984 2.977015
v -0.7104198 0 2.3207197
v -0.5424984 0 3.7791538
v 0.7104198 0 2.3207197
v 0.7104198 0 2.3207197
v -0.5424984 0 3.7791538
v 0.5424984 0 3.7791538
v -0.5424984 0.22768949 3.7791538
v 0.5424984 0.22768949 3.7791538
v 0 0.46838984 4.435449
v -0.5424984 0.22768949 3.7791538
v 0 0.46838984 4.435449
v -0 0.22768949 5.237588
v 0.5424984 0.22768949 3.7791538
v 0 0.22768949 5.237588
v 0 0.46838984 4.435449
v -0.5424984 0 3.7791538
v -0 0 5.237588
v 0.5424984 0 3.7791538
v 0.5424984 0 3.7791538
v -0 0 5.237588
v 0 0 5.237588
v 0 0.50742227 -2.7837996
v -0.06047982 0.4033357 -2.8745193
v 0.06047982 0.4033357 -2.8745193
v 0 0.50742227 -1.3253655
v -0.06047982 0.4033357 -1.4160852
v 0.06047982 0.4033357 -1.4160852
v 0 0.50742227 0.13306856
v -0.06047982 0.4033357 0.042348832
v 0.06047982 0.4033357 0.042348832
v 0 0.50742227 1.5915027
v -0.06047982 0.4033357 1.500783
v 0.06047982 0.4033357 1.500783
v 0 0.50742227 3.0499368
v -0.06047982 0.4033357 2.959217
v 0.06047982 0.4033357 2.959217
v -0.31751907 0.1821516 -0.9580955
v 0.31751907 0.1821516 -0.9580955
v 0 0.2732274 -1.7884448
v -0.36496446 0.072282374 -3.4435894
v -0.53701913 0 -3.8221097
v -0.19290979 0 -3.8221097
v 0.36496446 0.072282374 -3.4435894
v 0.19290979 0 -3.8221097
v 0.53701913 0 -3.8221097
vn 0 -0.93884915 0.34432873
vn 0 -0.93884915 0.34432873
vn 0 -0.93884915 0.34432873
vn 0.43863362 -0.8972087 0.05115854
vn 0.43863362 -0.8972087 0.05115854
vn 0.43863362 -0.8972087 0.05115854
vn -0.43863362 -0.8972087 0.05115854
vn -0.43863362 -0.8972087 0.05115854
vn -0.43863362 -0.8972087 0.05115854
vn 0 1 -0
vn 0 1 -0
vn 0 1 -0
vn 0 1 -0
vn 0 1 -0
vn 0 1 -0
vn 0 -0.9388491 0.34432867
vn 0 -0.9388491 0.34432867
vn 0 -0.9388491 0.34432867
vn 0.3509345 -0.9359206 0.02996288
vn 0.3509345 -0.9359206 0.02996288
vn 0.3509345 -0.9359206 0.02996288
vn -0.3509345 -0.9359206 0.02996288
vn -0.3509345 -0.9359206 0.02996288
vn -0.3509345 -0.9359206 0.02996288
vn 0 1 -0
vn 0 1 -0
vn 0 1 -0
vn 0 1 -0
vn 0 1 -0
vn 0 1 -0
vn 0 -0.93884915 0.3443287
vn 0 -0.93884915 0.3443287
vn 0 -0.93884915 0.3443287
vn 0.31276894 -0.94977903 0.009774445
vn 0.31276894 -0.94977903 0.009774445
vn 0.31276894 -0.94977903 0.009774445
vn -0.31276894 -0.94977903 0.009774445
vn -0.31276894 -0.94977903 0.009774445
vn -0.31276894 -0.94977903 0.009774445
vn 0 1 -0
vn 0 1 -0
vn 0 1 -0
vn 0 1 -0
vn 0 1 -0
vn 0 1 -0
vn 0 -0.93884915 0.34432873
vn 0 -0.93884915 0.34432873
vn 0 -0.93884915 0.34432873
vn 0.31101885 -0.9503539 -0.009719752
vn 0.31101885 -0.9503539 -0.009719752
vn 0.31101885 -0.9503539 -0.009719752
vn -0.31101885 -0.9503539 -0.009719752
vn -0.31101885 -0.9503539 -0.009719752
vn -0.31101885 -0.9503539 -0.009719752
vn 0 1 0
vn 0 1 0
vn 0 1 0
vn 0 1 0
vn 0 1 0
vn 0 1 0
vn 0 -0.93884915 0.34432873
vn 0 -0.93884915 0.34432873
vn 0 -0.93884915 0.34432873
vn 0.35422182 -0.93427175 -0.040784433
vn 0.35422182 -0.93427175 -0.040784433
vn 0.35422182 -0.93427175 -0.040784433
vn -0.35422182 -0.93427175 -0.040784433
vn -0.35422182 -0.93427175 -0.040784433
vn -0.35422182 -0.93427175 -0.040784433
vn 0 1 0
vn 0 1 0
vn 0 1 0
vn 0 0.99999994 0
vn 0 0.99999994 0
vn 0 0.99999994 0
vn 0 -0.93884915 0.34432873
vn 0 -0.93884915 0.34432873
vn 0 -0.93884915 0.34432873
vn 0.6114187 -0.7579197 -0.22743139
vn 0.6114187 -0.7579197 -0.22743139
vn 0.6114187 -0.7579197 -0.22743139
vn -0.6114187 -0.7579197 -0.22743139
vn -0.6114187 -0.7579197 -0.22743139
vn -0.6114187 -0.7579197 -0.22743139
vn 0 0.99999994 0
vn 0 0.99999994 0
vn 0 0.99999994 0
vn 0 1 0
vn 0 1 0
vn 0 1 0
vn 0 -0.65704274 0.7538532
vn 0 -0.65704274 0.7538532
vn 0 -0.65704274 0.7538532
vn 0 -0.65704274 0.7538532
vn 0 -0.65704274 0.7538532
vn 0 -0.65704274 0.7538532
vn 0 -0.6570429 0.75385314
vn 0 -0.6570429 0.75385314
vn 0 -0.6570429 0.75385314
vn 0 -0.65704274 0.7538532
vn 0 -0.65704274 0.7538532
vn 0 -0.65704274 0.7538532
vn 0 -0.65704274 0.7538532
vn 0 -0.65704274 0.7538532
vn 0 -0.65704274 0.7538532
vn -0 0.99403846 0.10902984
vn -0 0.99403846 0.10902984
vn -0 0.99403846 0.10902984
vn 0 -0.982251 0.18757102
vn 0 -0.982251 0.18757102
vn 0 -0.982251 0.18757102
vn 0 -0.982251 0.18757102
vn 0 -0.982251 0.18757102
vn 0 -0.982251 0.18757102
f 1//1 2//2 3//3
f 4//4 5//5 6//6
f 7//7 8//8 9//9
f 10//10 11//11 12//12
f 13//13 14//14 15//15
f 16//16 17//17 18//18
f 19//19 20//20 21//21
f 22//22 23//23 24//24
f 25//25 26//26 27//27
f 28//28 29//29 30//30
f 31//31 32//32 33//33
f 34//34 35//35 36//36
f 37//37 38//38 39//39
f 40//40 41//41 42//42
f 43//43 44//44 45//45
f 46//46 47//47 48//48
f 49//49 50//50 51//51
f 52//52 53//53 54//54
f 55//55 56//56 57//57
f 58//58 59//59 60//60
f 61//61 62//62 63//63
f 64//64 65//65 66//66
f 67//67 68//68 69//69
f 70//70 71//71 72//72
f 73//73 74//74 75//75
f 76//76 77//77 78//78
f 79//79 80//80 81//81
f 82//82 83//83 84//84
f 85//85 86//86 87//87
f 88//88 89//89 90//90
f 91//91 92//92 93//93
f 94//94 95//95 96//96
f 97//97 98//98 99//99
f 100//100 101//101 102//102
f 103//103 104//104 105//105
f 106//106 107//107 108//108
f 109//109 110//110 111//111
f 112//112 113//113 114//114
