# Exported from SharpOpenGl procedural mesh
o vesper_dreadnought_mk3_45
# vertices 294
v -1.1009983 0.80088395 -6.04263
v 1.1009983 0.80088395 -6.04263
v 0 1.6475328 -5.069286
v -1.1009983 0.80088395 -6.04263
v 0 1.6475328 -5.069286
v -1.5223322 0.80088395 -3.8796432
v 1.1009983 0.80088395 -6.04263
v 1.5223322 0.80088395 -3.8796432
v 0 1.6475328 -5.069286
v -1.1009983 0 -6.04263
v -1.5223322 0 -3.8796432
v 1.1009983 0 -6.04263
v 1.1009983 0 -6.04263
v -1.5223322 0 -3.8796432
v 1.5223322 0 -3.8796432
v -1.1009983 0 -6.04263
v -1.1009983 0.80088395 -6.04263
v -1.5223322 0.80088395 -3.8796432
v -1.1009983 0 -6.04263
v -1.5223322 0.80088395 -3.8796432
v -1.5223322 0 -3.8796432
v 1.1009983 0 -6.04263
v 1.5223322 0.80088395 -3.8796432
v 1.1009983 0.80088395 -6.04263
v 1.1009983 0 -6.04263
v 1.5223322 0 -3.8796432
v 1.5223322 0.80088395 -3.8796432
v -1.5223322 0.80088395 -3.8796432
v 1.5223322 0.80088395 -3.8796432
v 0 1.6475328 -2.906299
v -1.5223322 0.80088395 -3.8796432
v 0 1.6475328 -2.906299
v -1.8795216 0.80088395 -1.7166562
v 1.5223322 0.80088395 -3.8796432
v 1.8795216 0.80088395 -1.7166562
v 0 1.6475328 -2.906299
v -1.5223322 0 -3.8796432
v -1.8795216 0 -1.7166562
v 1.5223322 0 -3.8796432
v 1.5223322 0 -3.8796432
v -1.8795216 0 -1.7166562
v 1.8795216 0 -1.7166562
v -1.5223322 0 -3.8796432
v -1.5223322 0.80088395 -3.8796432
v -1.8795216 0.80088395 -1.7166562
v -1.5223322 0 -3.8796432
v -1.8795216 0.80088395 -1.7166562
v -1.8795216 0 -1.7166562
v 1.5223322 0 -3.8796432
v 1.8795216 0.80088395 -1.7166562
v 1.5223322 0.80088395 -3.8796432
v 1.5223322 0 -3.8796432
v 1.8795216 0 -1.7166562
v 1.8795216 0.80088395 -1.7166562
v -1.8795216 0.80088395 -1.7166562
v 1.8795216 0.80088395 -1.7166562
v 0 1.6475328 -0.743312
v -1.8795216 0.80088395 -1.7166562
v 0 1.6475328 -0.743312
v -2.1181881 0.80088395 0.44633102
v 1.8795216 0.80088395 -1.7166562
v 2.1181881 0.80088395 0.44633102
v 0 1.6475328 -0.743312
v -1.8795216 0 -1.7166562
v -2.1181881 0 0.44633102
v 1.8795216 0 -1.7166562
v 1.8795216 0 -1.7166562
v -2.1181881 0 0.44633102
v 2.1181881 0 0.44633102
v -1.8795216 0 -1.7166562
v -1.8795216 0.80088395 -1.7166562
v -2.1181881 0.80088395 0.44633102
v -1.8795216 0 -1.7166562
v -2.1181881 0.80088395 0.44633102
v -2.1181881 0 0.44633102
v 1.8795216 0 -1.7166562
v 2.1181881 0.80088395 0.44633102
v 1.8795216 0.80088395 -1.7166562
v 1.8795216 0 -1.7166562
v 2.1181881 0 0.44633102
v 2.1181881 0.80088395 0.44633102
v -2.1181881 0.80088395 0.44633102
v 2.1181881 0.80088395 0.44633102
v 0 1.6475328 1.4196751
v -2.1181881 0.80088395 0.44633102
v 0 1.6475328 1.4196751
v -2.2019966 0.80088395 2.6093178
v 2.1181881 0.80088395 0.44633102
v 2.2019966 0.80088395 2.6093178
v 0 1.6475328 1.4196751
v -2.1181881 0 0.44633102
v -2.2019966 0 2.6093178
v 2.1181881 0 0.44633102
v 2.1181881 0 0.44633102
v -2.2019966 0 2.6093178
v 2.2019966 0 2.6093178
v -2.1181881 0 0.44633102
v -2.1181881 0.80088395 0.44633102
v -2.2019966 0.80088395 2.6093178
v -2.1181881 0 0.44633102
v -2.2019966 0.80088395 2.6093178
v -2.2019966 0 2.6093178
v 2.1181881 0 0.44633102
v 2.2019966 0.80088395 2.6093178
v 2.1181881 0.80088395 0.44633102
v 2.1181881 0 0.44633102
v 2.2019966 0 2.6093178
v 2.2019966 0.80088395 2.6093178
v -2.2019966 0.80088395 2.6093178
v 2.2019966 0.80088395 2.6093178
v 0 1.6475328 3.5826619
v -2.2019966 0.80088395 2.6093178
v 0 1.6475328 3.5826619
v -2.1181881 0.80088395 4.7723045
v 2.2019966 0.80088395 2.6093178
v 2.1181881 0.80088395 4.7723045
v 0 1.6475328 3.5826619
v -2.2019966 0 2.6093178
v -2.1181881 0 4.7723045
v 2.2019966 0 2.6093178
v 2.2019966 0 2.6093178
v -2.1181881 0 4.7723045
v 2.1181881 0 4.7723045
v -2.2019966 0 2.6093178
v -2.2019966 0.80088395 2.6093178
v -2.1181881 0.80088395 4.7723045
v -2.2019966 0 2.6093178
v -2.1181881 0.80088395 4.7723045
v -2.1181881 0 4.7723045
v 2.2019966 0 2.6093178
v 2.1181881 0.80088395 4.7723045
v 2.2019966 0.80088395 2.6093178
v 2.2019966 0 2.6093178
v 2.1181881 0 4.7723045
v 2.1181881 0.80088395 4.7723045
v -2.1181881 0.80088395 4.7723045
v 2.1181881 0.80088395 4.7723045
v 0 1.6475328 5.745649
v -2.1181881 0.80088395 4.7723045
v 0 1.6475328 5.745649
v -1.8795216 0.80088395 6.9352922
v 2.1181881 0.80088395 4.7723045
v 1.8795216 0.80088395 6.9352922
v 0 1.6475328 5.745649
v -2.1181881 0 4.7723045
v -1.8795216 0 6.9352922
v 2.1181881 0 4.7723045
v 2.1181881 0 4.7723045
v -1.8795216 0 6.9352922
v 1.8795216 0 6.9352922
v -2.1181881 0 4.7723045
v -2.1181881 0.80088395 4.7723045
v -1.8795216 0.80088395 6.9352922
v -2.1181881 0 4.7723045
v -1.8795216 0.80088395 6.9352922
v -1.8795216 0 6.9352922
v 2.1181881 0 4.7723045
v 1.8795216 0.80088395 6.9352922
v 2.1181881 0.80088395 4.7723045
v 2.1181881 0 4.7723045
v 1.8795216 0 6.9352922
v 1.8795216 0.80088395 6.9352922
v -1.8795216 0.80088395 6.9352922
v 1.8795216 0.80088395 6.9352922
v 0 1.6475328 7.908636
v -1.8795216 0.80088395 6.9352922
v 0 1.6475328 7.908636
v -1.1893218 0.80088395 9.098279
v 1.8795216 0.80088395 6.9352922
v 1.1893218 0.80088395 9.098279
v 0 1.6475328 7.908636
v -1.8795216 0 6.9352922
v -1.1893218 0 9.098279
v 1.8795216 0 6.9352922
v 1.8795216 0 6.9352922
v -1.1893218 0 9.098279
v 1.1893218 0 9.098279
v -1.8795216 0 6.9352922
v -1.8795216 0.80088395 6.9352922
v -1.1893218 0.80088395 9.098279
v -1.8795216 0 6.9352922
v -1.1893218 0.80088395 9.098279
v -1.1893218 0 9.098279
v 1.8795216 0 6.9352922
v 1.1893218 0.80088395 9.098279
v 1.8795216 0.80088395 6.9352922
v 1.8795216 0 6.9352922
v 1.1893218 0 9.098279
v 1.1893218 0.80088395 9.098279
v -1.1893218 0.80088395 9.098279
v 1.1893218 0.80088395 9.098279
v 0 1.6475328 10.071623
v -1.1893218 0.80088395 9.098279
v 0 1.6475328 10.071623
v -0 0.80088395 11.261266
v 1.1893218 0.80088395 9.098279
v 0 0.80088395 11.261266
v 0 1.6475328 10.071623
v -1.1893218 0 9.098279
v -0 0 11.261266
v 1.1893218 0 9.098279
v 1.1893218 0 9.098279
v -0 0 11.261266
v 0 0 11.261266
v -1.1893218 0 9.098279
v -1.1893218 0.80088395 9.098279
v -0 0.80088395 11.261266
v -1.1893218 0 9.098279
v -0 0.80088395 11.261266
v -0 0 11.261266
v 1.1893218 0 9.098279
v 0 0.80088395 11.261266
v 1.1893218 0.80088395 9.098279
v 1.1893218 0 9.098279
v 0 0 11.261266
v 0 0.80088395 11.261266
v -0.80281126 0 11.261266
v 0.80281126 0 11.261266
v 0 1.4004029 11.8105955
v -0.80281126 0 -6.04263
v 0 0.48053038 -6.4546275
v 0.80281126 0 -6.04263
v 0 1.7848271 -4.961137
v -0.22937465 1.4187088 -5.2822614
v 0.22937465 1.4187088 -5.2822614
v 0 1.7848271 -2.7981496
v -0.22937465 1.4187088 -3.1192741
v 0.22937465 1.4187088 -3.1192741
v 0 1.7848271 -0.63516283
v -0.22937465 1.4187088 -0.9562873
v 0.22937465 1.4187088 -0.9562873
v 0 1.7848271 1.5278244
v -0.22937465 1.4187088 1.2066998
v 0.22937465 1.4187088 1.2066998
v 0 1.7848271 3.6908112
v -0.22937465 1.4187088 3.3696866
v 0.22937465 1.4187088 3.3696866
v 0 1.7848271 5.853798
v -0.22937465 1.4187088 5.5326734
v 0.22937465 1.4187088 5.5326734
v 0 1.7848271 8.016786
v -0.22937465 1.4187088 7.695661
v 0.22937465 1.4187088 7.695661
v -0.9633735 0.6407072 -2.9279287
v 0.9633735 0.6407072 -2.9279287
v 0 1.0983552 -4.6583185
v -1.3841574 0.24737729 -1.7478682
v -2.0960097 0 -2.139387
v -0.67230505 0 -2.139387
v 0 0.24737729 -1.7478682
v -0.7118524 0 -2.139387
v 0.7118524 0 -2.139387
v 1.3841574 0.24737729 -1.7478682
v 0.67230505 0 -2.139387
v 2.0960097 0 -2.139387
v -0.7347539 0.15461081 -1.9975636
v 0.7347539 0.15461081 -1.9975636
v 0 0.6802876 -1.6230204
v -0.8045259 0.15461081 -0.49939084
v 0.8045259 0.15461081 -0.49939084
v 0 0.6802876 -0.12484768
v -0.85280955 0.15461081 0.9987819
v 0.85280955 0.15461081 0.9987819
v 0 0.6802876 1.3733251
v -0.8700418 0.15461081 2.4969547
v 0.8700418 0.15461081 2.4969547
v 0 0.6802876 2.8714979
v -0.85280955 0.15461081 3.9951274
v 0.85280955 0.15461081 3.9951274
v 0 0.6802876 4.3696704
v -0.80452585 0.15461081 5.4933004
v 0.80452585 0.15461081 5.4933004
v 0 0.6802876 5.8678436
v -0.7347539 0.15461081 6.991473
v 0.7347539 0.15461081 6.991473
v 0 0.6802876 7.3660164
v 0 1.700719 -0.16646361
v -0.27683148 1.2987307 -0.7282784
v 0.27683148 1.2987307 -0.7282784
v 0 1.700719 1.6646364
v -0.27683148 1.2987307 1.1028216
v 0.27683148 1.2987307 1.1028216
v 0 1.700719 3.4957364
v -0.27683148 1.2987307 2.9339216
v 0.27683148 1.2987307 2.9339216
v 0 1.700719 5.3268366
v -0.27683148 1.2987307 4.765022
v 0.27683148 1.2987307 4.765022
v 0 1.700719 7.157936
v -0.27683148 1.2987307 6.5961213
v 0.27683148 1.2987307 6.5961213
v -0.55366296 0 -5.3060284
v 0.55366296 0 -5.3060284
v 0 0.15461081 -5.867843
vn 0 -0.75450474 0.6562946
vn 0 -0.75450474 0.6562946
vn 0 -0.75450474 0.6562946
vn 0.54541314 -0.83140653 0.10624246
vn 0.54541314 -0.83140653 0.10624246
vn 0.54541314 -0.83140653 0.10624246
vn -0.54541314 -0.83140653 0.10624246
vn -0.54541314 -0.83140653 0.10624246
vn -0.54541314 -0.83140653 0.10624246
vn 0 1 -0
vn 0 1 -0
vn 0 1 -0
vn 0 1 -0
vn 0 1 -0
vn 0 1 -0
vn 0.98155135 -0 0.19119896
vn 0.98155135 -0 0.19119896
vn 0.98155135 -0 0.19119896
vn 0.98155135 0 0.19119896
vn 0.98155135 0 0.19119896
vn 0.98155135 0 0.19119896
vn -0.98155135 0 0.19119896
vn -0.98155135 0 0.19119896
vn -0.98155135 0 0.19119896
vn -0.98155135 0 0.19119896
vn -0.98155135 0 0.19119896
vn -0.98155135 0 0.19119896
vn 0 -0.7545047 0.6562947
vn 0 -0.7545047 0.6562947
vn 0 -0.7545047 0.6562947
vn 0.44815198 -0.8908888 0.07400653
vn 0.44815198 -0.8908888 0.07400653
vn 0.44815198 -0.8908888 0.07400653
vn -0.44815198 -0.8908888 0.07400653
vn -0.44815198 -0.8908888 0.07400653
vn -0.44815198 -0.8908888 0.07400653
vn 0 0.99999994 -0
vn 0 0.99999994 -0
vn 0 0.99999994 -0
vn 0 1 -0
vn 0 1 -0
vn 0 1 -0
vn 0.9866375 -0 0.16293046
vn 0.9866375 -0 0.16293046
vn 0.9866375 -0 0.16293046
vn 0.9866375 0 0.16293046
vn 0.9866375 0 0.16293046
vn 0.9866375 0 0.16293046
vn -0.9866375 0 0.16293046
vn -0.9866375 0 0.16293046
vn -0.9866375 0 0.16293046
vn -0.9866375 0 0.16293046
vn -0.9866375 0 0.16293046
vn -0.9866375 0 0.16293046
vn 0 -0.7545047 0.6562946
vn 0 -0.7545047 0.6562946
vn 0 -0.7545047 0.6562946
vn 0.39163992 -0.91910326 0.043214004
vn 0.39163992 -0.91910326 0.043214004
vn 0.39163992 -0.91910326 0.043214004
vn -0.39163992 -0.91910326 0.043214004
vn -0.39163992 -0.91910326 0.043214004
vn -0.39163992 -0.91910326 0.043214004
vn 0 1 -0
vn 0 1 -0
vn 0 1 -0
vn 0 1 -0
vn 0 1 -0
vn 0 1 -0
vn 0.9939674 -0 0.10967553
vn 0.9939674 -0 0.10967553
vn 0.9939674 -0 0.10967553
vn 0.9939674 0 0.10967553
vn 0.9939674 0 0.10967553
vn 0.9939674 0 0.10967553
vn -0.9939674 0 0.10967553
vn -0.9939674 0 0.10967553
vn -0.9939674 0 0.10967553
vn -0.9939674 0 0.10967553
vn -0.9939674 0 0.10967553
vn -0.9939674 0 0.10967553
vn 0 -0.75450474 0.6562947
vn 0 -0.75450474 0.6562947
vn 0 -0.75450474 0.6562947
vn 0.36549875 -0.93070406 0.014161841
vn 0.36549875 -0.93070406 0.014161841
vn 0.36549875 -0.93070406 0.014161841
vn -0.36549875 -0.93070406 0.014161841
vn -0.36549875 -0.93070406 0.014161841
vn -0.36549875 -0.93070406 0.014161841
vn 0 1 -0
vn 0 1 -0
vn 0 1 -0
vn 0 1 -0
vn 0 1 -0
vn 0 1 -0
vn 0.9992502 -0 0.038717564
vn 0.9992502 -0 0.038717564
vn 0.9992502 -0 0.038717564
vn 0.9992502 0 0.038717564
vn 0.9992502 0 0.038717564
vn 0.9992502 0 0.038717564
vn -0.9992502 0 0.038717564
vn -0.9992502 0 0.038717564
vn -0.9992502 0 0.038717564
vn -0.9992502 0 0.038717564
vn -0.9992502 0 0.038717564
vn -0.9992502 0 0.038717564
vn 0 -0.7545047 0.6562947
vn 0 -0.7545047 0.6562947
vn 0 -0.7545047 0.6562947
vn 0.36427185 -0.93118566 -0.014114303
vn 0.36427185 -0.93118566 -0.014114303
vn 0.36427185 -0.93118566 -0.014114303
vn -0.36427185 -0.93118566 -0.014114303
vn -0.36427185 -0.93118566 -0.014114303
vn -0.36427185 -0.93118566 -0.014114303
vn 0 1 0
vn 0 1 0
vn 0 1 0
vn 0 1 0
vn 0 1 0
vn 0 1 0
vn 0.9992502 0 -0.038717564
vn 0.9992502 0 -0.038717564
vn 0.9992502 0 -0.038717564
vn 0.9992502 0 -0.038717564
vn 0.9992502 0 -0.038717564
vn 0.9992502 0 -0.038717564
vn -0.9992502 0 -0.038717564
vn -0.9992502 0 -0.038717564
vn -0.9992502 0 -0.038717564
vn -0.9992502 0 -0.038717564
vn -0.9992502 0 -0.038717564
vn -0.9992502 0 -0.038717564
vn 0 -0.7545048 0.65629464
vn 0 -0.7545048 0.65629464
vn 0 -0.7545048 0.65629464
vn 0.38770217 -0.92079145 -0.0427795
vn 0.38770217 -0.92079145 -0.0427795
vn 0.38770217 -0.92079145 -0.0427795
vn -0.38770217 -0.92079145 -0.0427795
vn -0.38770217 -0.92079145 -0.0427795
vn -0.38770217 -0.92079145 -0.0427795
vn 0 1 0
vn 0 1 0
vn 0 1 0
vn 0 1 0
vn 0 1 0
vn 0 1 0
vn 0.9939675 0 -0.109675504
vn 0.9939675 0 -0.109675504
vn 0.9939675 0 -0.109675504
vn 0.9939675 0 -0.109675504
vn 0.9939675 0 -0.109675504
vn 0.9939675 0 -0.109675504
vn -0.9939675 0 -0.109675504
vn -0.9939675 0 -0.109675504
vn -0.9939675 0 -0.109675504
vn -0.9939675 0 -0.109675504
vn -0.9939675 0 -0.109675504
vn -0.9939675 0 -0.109675504
vn 0 -0.75450456 0.65629476
vn 0 -0.75450456 0.65629476
vn 0 -0.75450456 0.65629476
vn 0.46953887 -0.8701063 -0.14982785
vn 0.46953887 -0.8701063 -0.14982785
vn 0.46953887 -0.8701063 -0.14982785
vn -0.46953887 -0.8701063 -0.14982785
vn -0.46953887 -0.8701063 -0.14982785
vn -0.46953887 -0.8701063 -0.14982785
vn 0 1 0
vn 0 1 0
vn 0 1 0
vn 0 1 0
vn 0 1 0
vn 0 1 0
vn 0.95267385 0 -0.30399415
vn 0.95267385 0 -0.30399415
vn 0.95267385 0 -0.30399415
vn 0.95267385 0 -0.30399415
vn 0.95267385 0 -0.30399415
vn 0.95267385 0 -0.30399415
vn -0.95267385 0 -0.30399415
vn -0.95267385 0 -0.30399415
vn -0.95267385 0 -0.30399415
vn -0.95267385 0 -0.30399415
vn -0.95267385 0 -0.30399415
vn -0.95267385 0 -0.30399415
vn 0 -0.75450456 0.65629476
vn 0 -0.75450456 0.65629476
vn 0 -0.75450456 0.65629476
vn 0.72561777 -0.56061757 -0.39898214
vn 0.72561777 -0.56061757 -0.39898214
vn 0.72561777 -0.56061757 -0.39898214
vn -0.72561777 -0.56061757 -0.39898214
vn -0.72561777 -0.56061757 -0.39898214
vn -0.72561777 -0.56061757 -0.39898214
vn 0 1 0
vn 0 1 0
vn 0 1 0
vn 0 1 0
vn 0 1 0
vn 0 1 0
vn 0.8762707 0 -0.48181888
vn 0.8762707 0 -0.48181888
vn 0.8762707 0 -0.48181888
vn 0.8762707 0 -0.48181888
vn 0.8762707 0 -0.48181888
vn 0.8762707 0 -0.48181888
vn -0.8762707 0 -0.48181888
vn -0.8762707 0 -0.48181888
vn -0.8762707 0 -0.48181888
vn -0.8762707 0 -0.48181888
vn -0.8762707 0 -0.48181888
vn -0.8762707 0 -0.48181888
vn 0 -0.36517522 0.93093884
vn 0 -0.36517522 0.93093884
vn 0 -0.36517522 0.93093884
vn 0 -0.65089536 -0.7591675
vn 0 -0.65089536 -0.7591675
vn 0 -0.65089536 -0.7591675
vn 0 -0.6594008 0.75179154
vn 0 -0.6594008 0.75179154
vn 0 -0.6594008 0.75179154
vn 0 -0.6594008 0.75179154
vn 0 -0.6594008 0.75179154
vn 0 -0.6594008 0.75179154
vn 0 -0.6594007 0.75179154
vn 0 -0.6594007 0.75179154
vn 0 -0.6594007 0.75179154
vn 0 -0.6594008 0.75179154
vn 0 -0.6594008 0.75179154
vn 0 -0.6594008 0.75179154
vn 0 -0.6594008 0.75179154
vn 0 -0.6594008 0.75179154
vn 0 -0.6594008 0.75179154
vn 0 -0.6594008 0.75179154
vn 0 -0.6594008 0.75179154
vn 0 -0.6594008 0.75179154
vn 0 -0.6594008 0.75179154
vn 0 -0.6594008 0.75179154
vn 0 -0.6594008 0.75179154
vn -0 0.96676 0.2556856
vn -0 0.96676 0.2556856
vn -0 0.96676 0.2556856
vn 0 -0.8453891 0.53415096
vn 0 -0.8453891 0.53415096
vn 0 -0.8453891 0.53415096
vn 0 -0.8453891 0.53415096
vn 0 -0.8453891 0.53415096
vn 0 -0.8453891 0.53415096
vn 0 -0.8453891 0.53415096
vn 0 -0.8453891 0.53415096
vn 0 -0.8453891 0.53415096
vn 0 -0.5802732 0.8144219
vn 0 -0.5802732 0.8144219
vn 0 -0.5802732 0.8144219
vn 0 -0.5802732 0.8144219
vn 0 -0.5802732 0.8144219
vn 0 -0.5802732 0.8144219
vn 0 -0.5802732 0.81442183
vn 0 -0.5802732 0.81442183
vn 0 -0.5802732 0.81442183
vn 0 -0.5802732 0.8144219
vn 0 -0.5802732 0.8144219
vn 0 -0.5802732 0.8144219
vn 0 -0.58027303 0.8144221
vn 0 -0.58027303 0.8144221
vn 0 -0.58027303 0.8144221
vn 0 -0.5802732 0.81442183
vn 0 -0.5802732 0.81442183
vn 0 -0.5802732 0.81442183
vn 0 -0.5802732 0.8144219
vn 0 -0.5802732 0.8144219
vn 0 -0.5802732 0.8144219
vn 0 -0.8132595 0.58190125
vn 0 -0.8132595 0.58190125
vn 0 -0.8132595 0.58190125
vn 0 -0.8132595 0.58190125
vn 0 -0.8132595 0.58190125
vn 0 -0.8132595 0.58190125
vn 0 -0.8132595 0.58190125
vn 0 -0.8132595 0.58190125
vn 0 -0.8132595 0.58190125
vn 0 -0.8132595 0.58190125
vn 0 -0.8132595 0.58190125
vn 0 -0.8132595 0.58190125
vn 0 -0.8132595 0.58190125
vn 0 -0.8132595 0.58190125
vn 0 -0.8132595 0.58190125
vn -0 0.9641564 0.26533476
vn -0 0.9641564 0.26533476
vn -0 0.9641564 0.26533476
f 1//1 2//2 3//3
f 4//4 5//5 6//6
f 7//7 8//8 9//9
f 10//10 11//11 12//12
f 13//13 14//14 15//15
f 16//16 17//17 18//18
f 19//19 20//20 21//21
f 22//22 23//23 24//24
f 25//25 26//26 27//27
f 28//28 29//29 30//30
f 31//31 32//32 33//33
f 34//34 35//35 36//36
f 37//37 38//38 39//39
f 40//40 41//41 42//42
f 43//43 44//44 45//45
f 46//46 47//47 48//48
f 49//49 50//50 51//51
f 52//52 53//53 54//54
f 55//55 56//56 57//57
f 58//58 59//59 60//60
f 61//61 62//62 63//63
f 64//64 65//65 66//66
f 67//67 68//68 69//69
f 70//70 71//71 72//72
f 73//73 74//74 75//75
f 76//76 77//77 78//78
f 79//79 80//80 81//81
f 82//82 83//83 84//84
f 85//85 86//86 87//87
f 88//88 89//89 90//90
f 91//91 92//92 93//93
f 94//94 95//95 96//96
f 97//97 98//98 99//99
f 100//100 101//101 102//102
f 103//103 104//104 105//105
f 106//106 107//107 108//108
f 109//109 110//110 111//111
f 112//112 113//113 114//114
f 115//115 116//116 117//117
f 118//118 119//119 120//120
f 121//121 122//122 123//123
f 124//124 125//125 126//126
f 127//127 128//128 129//129
f 130//130 131//131 132//132
f 133//133 134//134 135//135
f 136//136 137//137 138//138
f 139//139 140//140 141//141
f 142//142 143//143 144//144
f 145//145 146//146 147//147
f 148//148 149//149 150//150
f 151//151 152//152 153//153
f 154//154 155//155 156//156
f 157//157 158//158 159//159
f 160//160 161//161 162//162
f 163//163 164//164 165//165
f 166//166 167//167 168//168
f 169//169 170//170 171//171
f 172//172 173//173 174//174
f 175//175 176//176 177//177
f 178//178 179//179 180//180
f 181//181 182//182 183//183
f 184//184 185//185 186//186
f 187//187 188//188 189//189
f 190//190 191//191 192//192
f 193//193 194//194 195//195
f 196//196 197//197 198//198
f 199//199 200//200 201//201
f 202//202 203//203 204//204
f 205//205 206//206 207//207
f 208//208 209//209 210//210
f 211//211 212//212 213//213
f 214//214 215//215 216//216
f 217//217 218//218 219//219
f 220//220 221//221 222//222
f 223//223 224//224 225//225
f 226//226 227//227 228//228
f 229//229 230//230 231//231
f 232//232 233//233 234//234
f 235//235 236//236 237//237
f 238//238 239//239 240//240
f 241//241 242//242 243//243
f 244//244 245//245 246//246
f 247//247 248//248 249//249
f 250//250 251//251 252//252
f 253//253 254//254 255//255
f 256//256 257//257 258//258
f 259//259 260//260 261//261
f 262//262 263//263 264//264
f 265//265 266//266 267//267
f 268//268 269//269 270//270
f 271//271 272//272 273//273
f 274//274 275//275 276//276
f 277//277 278//278 279//279
f 280//280 281//281 282//282
f 283//283 284//284 285//285
f 286//286 287//287 288//288
f 289//289 290//290 291//291
f 292//292 293//293 294//294
