# Exported from SharpOpenGl procedural mesh
o vesper_destroyer_mk2_25
# vertices 117
v -0.463754 0.24421072 -4.9154115
v 0.463754 0.24421072 -4.9154115
v 0 0.5023764 -3.9971232
v -0.463754 0.24421072 -4.9154115
v 0 0.5023764 -3.9971232
v -0.6534715 0.24421072 -2.8747709
v 0.463754 0.24421072 -4.9154115
v 0.6534715 0.24421072 -2.8747709
v 0 0.5023764 -3.9971232
v -0.463754 0 -4.9154115
v -0.6534715 0 -2.8747709
v 0.463754 0 -4.9154115
v 0.463754 0 -4.9154115
v -0.6534715 0 -2.8747709
v 0.6534715 0 -2.8747709
v -0.6534715 0.24421072 -2.8747709
v 0.6534715 0.24421072 -2.8747709
v 0 0.5023764 -1.9564826
v -0.6534715 0.24421072 -2.8747709
v 0 0.5023764 -1.9564826
v -0.7923544 0.24421072 -0.8341303
v 0.6534715 0.24421072 -2.8747709
v 0.7923544 0.24421072 -0.8341303
v 0 0.5023764 -1.9564826
v -0.6534715 0 -2.8747709
v -0.7923544 0 -0.8341303
v 0.6534715 0 -2.8747709
v 0.6534715 0 -2.8747709
v -0.7923544 0 -0.8341303
v 0.7923544 0 -0.8341303
v -0.7923544 0.24421072 -0.8341303
v 0.7923544 0.24421072 -0.8341303
v 0 0.5023764 0.084157825
v -0.7923544 0.24421072 -0.8341303
v 0 0.5023764 0.084157825
v -0.84318906 0.24421072 1.2065101
v 0.7923544 0.24421072 -0.8341303
v 0.84318906 0.24421072 1.2065101
v 0 0.5023764 0.084157825
v -0.7923544 0 -0.8341303
v -0.84318906 0 1.2065101
v 0.7923544 0 -0.8341303
v 0.7923544 0 -0.8341303
v -0.84318906 0 1.2065101
v 0.84318906 0 1.2065101
v -0.84318906 0.24421072 1.2065101
v 0.84318906 0.24421072 1.2065101
v 0 0.5023764 2.1247983
v -0.84318906 0.24421072 1.2065101
v 0 0.5023764 2.1247983
v -0.7923544 0.24421072 3.247151
v 0.84318906 0.24421072 1.2065101
v 0.7923544 0.24421072 3.247151
v 0 0.5023764 2.1247983
v -0.84318906 0 1.2065101
v -0.7923544 0 3.247151
v 0.84318906 0 1.2065101
v 0.84318906 0 1.2065101
v -0.7923544 0 3.247151
v 0.7923544 0 3.247151
v -0.7923544 0.24421072 3.247151
v 0.7923544 0.24421072 3.247151
v 0 0.5023764 4.1654387
v -0.7923544 0.24421072 3.247151
v 0 0.5023764 4.1654387
v -0.60506624 0.24421072 5.287791
v 0.7923544 0.24421072 3.247151
v 0.60506624 0.24421072 5.287791
v 0 0.5023764 4.1654387
v -0.7923544 0 3.247151
v -0.60506624 0 5.287791
v 0.7923544 0 3.247151
v 0.7923544 0 3.247151
v -0.60506624 0 5.287791
v 0.60506624 0 5.287791
v -0.60506624 0.24421072 5.287791
v 0.60506624 0.24421072 5.287791
v 0 0.5023764 6.206079
v -0.60506624 0.24421072 5.287791
v 0 0.5023764 6.206079
v -0 0.24421072 7.3284316
v 0.60506624 0.24421072 5.287791
v 0 0.24421072 7.3284316
v 0 0.5023764 6.206079
v -0.60506624 0 5.287791
v -0 0 7.3284316
v 0.60506624 0 5.287791
v 0.60506624 0 5.287791
v -0 0 7.3284316
v 0 0 7.3284316
v 0 0.544241 -3.895091
v -0.06745512 0.43260184 -3.9962738
v 0.06745512 0.43260184 -3.9962738
v 0 0.544241 -1.8544507
v -0.06745512 0.43260184 -1.9556334
v 0.06745512 0.43260184 -1.9556334
v 0 0.544241 0.18618965
v -0.06745512 0.43260184 0.08500697
v 0.06745512 0.43260184 0.08500697
v 0 0.544241 2.22683
v -0.06745512 0.43260184 2.1256473
v 0.06745512 0.43260184 2.1256473
v 0 0.544241 4.267471
v -0.06745512 0.43260184 4.1662884
v 0.06745512 0.43260184 4.1662884
v -0.3541394 0.19536857 -1.3405669
v 0.3541394 0.19536857 -1.3405669
v 0 0.29305285 -2.5023913
v -0.508821 0.07752721 -4.818269
v -0.72688717 0 -5.298014
v -0.29075485 0 -5.298014
v 0 0.07752721 -4.818269
v -0.21806614 0 -5.298014
v 0.21806614 0 -5.298014
v 0.508821 0.07752721 -4.818269
v 0.29075485 0 -5.298014
v 0.72688717 0 -5.298014
vn 0 -0.9626791 0.27064562
vn 0 -0.9626791 0.27064562
vn 0 -0.9626791 0.27064562
vn 0.4251313 -0.9042683 0.039524283
vn 0.4251313 -0.9042683 0.039524283
vn 0.4251313 -0.9042683 0.039524283
vn -0.4251313 -0.9042683 0.039524283
vn -0.4251313 -0.9042683 0.039524283
vn -0.4251313 -0.9042683 0.039524283
vn 0 1 -0
vn 0 1 -0
vn 0 1 -0
vn 0 1 -0
vn 0 1 -0
vn 0 1 -0
vn 0 -0.9626791 0.27064565
vn 0 -0.9626791 0.27064565
vn 0 -0.9626791 0.27064565
vn 0.33911398 -0.9404622 0.02307958
vn 0.33911398 -0.9404622 0.02307958
vn 0.33911398 -0.9404622 0.02307958
vn -0.33911398 -0.9404622 0.02307958
vn -0.33911398 -0.9404622 0.02307958
vn -0.33911398 -0.9404622 0.02307958
vn 0 1 -0
vn 0 1 -0
vn 0 1 -0
vn 0 1 -0
vn 0 1 -0
vn 0 1 -0
vn 0 -0.962679 0.27064565
vn 0 -0.962679 0.27064565
vn 0 -0.962679 0.27064565
vn 0.30189326 -0.95331204 0.007520502
vn 0.30189326 -0.95331204 0.007520502
vn 0.30189326 -0.95331204 0.007520502
vn -0.30189326 -0.95331204 0.007520502
vn -0.30189326 -0.95331204 0.007520502
vn -0.30189326 -0.95331204 0.007520502
vn 0 0.99999994 -0
vn 0 0.99999994 -0
vn 0 0.99999994 -0
vn 0 1 -0
vn 0 1 -0
vn 0 1 -0
vn 0 -0.962679 0.2706456
vn 0 -0.962679 0.2706456
vn 0 -0.962679 0.2706456
vn 0.3001916 -0.9538497 -0.0074781105
vn 0.3001916 -0.9538497 -0.0074781105
vn 0.3001916 -0.9538497 -0.0074781105
vn -0.3001916 -0.9538497 -0.0074781105
vn -0.3001916 -0.9538497 -0.0074781105
vn -0.3001916 -0.9538497 -0.0074781105
vn 0 1 0
vn 0 1 0
vn 0 1 0
vn 0 0.99999994 0
vn 0 0.99999994 0
vn 0 0.99999994 0
vn 0 -0.96267897 0.27064574
vn 0 -0.96267897 0.27064574
vn 0 -0.96267897 0.27064574
vn 0.34237528 -0.9390377 -0.031422906
vn 0.34237528 -0.9390377 -0.031422906
vn 0.34237528 -0.9390377 -0.031422906
vn -0.34237528 -0.9390377 -0.031422906
vn -0.34237528 -0.9390377 -0.031422906
vn -0.34237528 -0.9390377 -0.031422906
vn 0 1 0
vn 0 1 0
vn 0 1 0
vn 0 1 0
vn 0 1 0
vn 0 1 0
vn 0 -0.96267897 0.2706456
vn 0 -0.96267897 0.2706456
vn 0 -0.96267897 0.2706456
vn 0.60307235 -0.7773858 -0.17881574
vn 0.60307235 -0.7773858 -0.17881574
vn 0.60307235 -0.7773858 -0.17881574
vn -0.60307235 -0.7773858 -0.17881574
vn -0.60307235 -0.7773858 -0.17881574
vn -0.60307235 -0.7773858 -0.17881574
vn 0 1 0
vn 0 1 0
vn 0 1 0
vn 0 1 0
vn 0 1 0
vn 0 1 0
vn 0 -0.67155474 0.74095494
vn 0 -0.67155474 0.74095494
vn 0 -0.67155474 0.74095494
vn 0 -0.67155474 0.74095494
vn 0 -0.67155474 0.74095494
vn 0 -0.67155474 0.74095494
vn 0 -0.67155474 0.740955
vn 0 -0.67155474 0.740955
vn 0 -0.67155474 0.740955
vn 0 -0.67155474 0.74095494
vn 0 -0.67155474 0.74095494
vn 0 -0.67155474 0.74095494
vn 0 -0.6715539 0.7409557
vn 0 -0.6715539 0.7409557
vn 0 -0.6715539 0.7409557
vn -0 0.99648404 0.08378273
vn -0 0.99648404 0.08378273
vn -0 0.99648404 0.08378273
vn 0 -0.98719287 0.1595311
vn 0 -0.98719287 0.1595311
vn 0 -0.98719287 0.1595311
vn 0 -0.9871929 0.15953112
vn 0 -0.9871929 0.15953112
vn 0 -0.9871929 0.15953112
vn 0 -0.98719287 0.1595311
vn 0 -0.98719287 0.1595311
vn 0 -0.98719287 0.1595311
f 1//1 2//2 3//3
f 4//4 5//5 6//6
f 7//7 8//8 9//9
f 10//10 11//11 12//12
f 13//13 14//14 15//15
f 16//16 17//17 18//18
f 19//19 20//20 21//21
f 22//22 23//23 24//24
f 25//25 26//26 27//27
f 28//28 29//29 30//30
f 31//31 32//32 33//33
f 34//34 35//35 36//36
f 37//37 38//38 39//39
f 40//40 41//41 42//42
f 43//43 44//44 45//45
f 46//46 47//47 48//48
f 49//49 50//50 51//51
f 52//52 53//53 54//54
f 55//55 56//56 57//57
f 58//58 59//59 60//60
f 61//61 62//62 63//63
f 64//64 65//65 66//66
f 67//67 68//68 69//69
f 70//70 71//71 72//72
f 73//73 74//74 75//75
f 76//76 77//77 78//78
f 79//79 80//80 81//81
f 82//82 83//83 84//84
f 85//85 86//86 87//87
f 88//88 89//89 90//90
f 91//91 92//92 93//93
f 94//94 95//95 96//96
f 97//97 98//98 99//99
f 100//100 101//101 102//102
f 103//103 104//104 105//105
f 106//106 107//107 108//108
f 109//109 110//110 111//111
f 112//112 113//113 114//114
f 115//115 116//116 117//117
