# Exported from SharpOpenGl procedural mesh
o vesper_dreadnought_eclipse_61
# vertices 153
v -1.369194 0.66081625 -7.844241
v 1.369194 0.66081625 -7.844241
v 0 1.3593935 -6.7451563
v -1.369194 0.66081625 -7.844241
v 0 1.3593935 -6.7451563
v -1.797895 0.66081625 -5.4018297
v 1.369194 0.66081625 -7.844241
v 1.797895 0.66081625 -5.4018297
v 0 1.3593935 -6.7451563
v -1.369194 0 -7.844241
v -1.797895 0 -5.4018297
v 1.369194 0 -7.844241
v 1.369194 0 -7.844241
v -1.797895 0 -5.4018297
v 1.797895 0 -5.4018297
v -1.797895 0.66081625 -5.4018297
v 1.797895 0.66081625 -5.4018297
v 0 1.3593935 -4.302745
v -1.797895 0.66081625 -5.4018297
v 0 1.3593935 -4.302745
v -2.16133 0.66081625 -2.9594183
v 1.797895 0.66081625 -5.4018297
v 2.16133 0.66081625 -2.9594183
v 0 1.3593935 -4.302745
v -1.797895 0 -5.4018297
v -2.16133 0 -2.9594183
v 1.797895 0 -5.4018297
v 1.797895 0 -5.4018297
v -2.16133 0 -2.9594183
v 2.16133 0 -2.9594183
v -2.16133 0.66081625 -2.9594183
v 2.16133 0.66081625 -2.9594183
v 0 1.3593935 -1.8603332
v -2.16133 0.66081625 -2.9594183
v 0 1.3593935 -1.8603332
v -2.4041696 0.66081625 -0.5170069
v 2.16133 0.66081625 -2.9594183
v 2.4041696 0.66081625 -0.5170069
v 0 1.3593935 -1.8603332
v -2.16133 0 -2.9594183
v -2.4041696 0 -0.5170069
v 2.16133 0 -2.9594183
v 2.16133 0 -2.9594183
v -2.4041696 0 -0.5170069
v 2.4041696 0 -0.5170069
v -2.4041696 0.66081625 -0.5170069
v 2.4041696 0.66081625 -0.5170069
v 0 1.3593935 0.5820782
v -2.4041696 0.66081625 -0.5170069
v 0 1.3593935 0.5820782
v -2.4894435 0.66081625 1.9254045
v 2.4041696 0.66081625 -0.5170069
v 2.4894435 0.66081625 1.9254045
v 0 1.3593935 0.5820782
v -2.4041696 0 -0.5170069
v -2.4894435 0 1.9254045
v 2.4041696 0 -0.5170069
v 2.4041696 0 -0.5170069
v -2.4894435 0 1.9254045
v 2.4894435 0 1.9254045
v -2.4894435 0.66081625 1.9254045
v 2.4894435 0.66081625 1.9254045
v 0 1.3593935 3.0244896
v -2.4894435 0.66081625 1.9254045
v 0 1.3593935 3.0244896
v -2.4041696 0.66081625 4.367816
v 2.4894435 0.66081625 1.9254045
v 2.4041696 0.66081625 4.367816
v 0 1.3593935 3.0244896
v -2.4894435 0 1.9254045
v -2.4041696 0 4.367816
v 2.4894435 0 1.9254045
v 2.4894435 0 1.9254045
v -2.4041696 0 4.367816
v 2.4041696 0 4.367816
v -2.4041696 0.66081625 4.367816
v 2.4041696 0.66081625 4.367816
v 0 1.3593935 5.466901
v -2.4041696 0.66081625 4.367816
v 0 1.3593935 5.466901
v -2.16133 0.66081625 6.8102274
v 2.4041696 0.66081625 4.367816
v 2.16133 0.66081625 6.8102274
v 0 1.3593935 5.466901
v -2.4041696 0 4.367816
v -2.16133 0 6.8102274
v 2.4041696 0 4.367816
v 2.4041696 0 4.367816
v -2.16133 0 6.8102274
v 2.16133 0 6.8102274
v -2.16133 0.66081625 6.8102274
v 2.16133 0.66081625 6.8102274
v 0 1.3593935 7.9093122
v -2.16133 0.66081625 6.8102274
v 0 1.3593935 7.9093122
v -1.2485379 0.66081625 9.252639
v 2.16133 0.66081625 6.8102274
v 1.2485379 0.66081625 9.252639
v 0 1.3593935 7.9093122
v -2.16133 0 6.8102274
v -1.2485379 0 9.252639
v 2.16133 0 6.8102274
v 2.16133 0 6.8102274
v -1.2485379 0 9.252639
v 1.2485379 0 9.252639
v -1.2485379 0.66081625 9.252639
v 1.2485379 0.66081625 9.252639
v 0 1.3593935 10.351724
v -1.2485379 0.66081625 9.252639
v 0 1.3593935 10.351724
v -0 0.66081625 11.69505
v 1.2485379 0.66081625 9.252639
v 0 0.66081625 11.69505
v 0 1.3593935 10.351724
v -1.2485379 0 9.252639
v -0 0 11.69505
v 1.2485379 0 9.252639
v 1.2485379 0 9.252639
v -0 0 11.69505
v 0 0 11.69505
v 0 1.4726762 -6.6230354
v -0.19915548 1.1705887 -6.9217687
v 0.19915548 1.1705887 -6.9217687
v 0 1.4726762 -4.180624
v -0.19915548 1.1705887 -4.4793572
v 0.19915548 1.1705887 -4.4793572
v 0 1.4726762 -1.7382126
v -0.19915548 1.1705887 -2.0369458
v 0.19915548 1.1705887 -2.0369458
v 0 1.4726762 0.70419884
v -0.19915548 1.1705887 0.40546563
v 0.19915548 1.1705887 0.40546563
v 0 1.4726762 3.1466103
v -0.19915548 1.1705887 2.847877
v 0.19915548 1.1705887 2.847877
v 0 1.4726762 5.5890217
v -0.19915548 1.1705887 5.2902884
v 0.19915548 1.1705887 5.2902884
v 0 1.4726762 8.031433
v -0.19915548 1.1705887 7.7327
v 0.19915548 1.1705887 7.7327
v -1.0455662 0.52865297 -2.1393385
v 1.0455662 0.52865297 -2.1393385
v 0 0.7929795 -3.9934318
v -1.5022504 0.20978291 -7.6892166
v -2.2748365 0 -9.388906
v -0.72966444 0 -9.388906
v 0 0.20978291 -7.6892166
v -0.772586 0 -9.388906
v 0.772586 0 -9.388906
v 1.5022504 0.20978291 -7.6892166
v 0.72966444 0 -9.388906
v 2.2748365 0 -9.388906
vn 0 -0.8439536 0.5364161
vn 0 -0.8439536 0.5364161
vn 0 -0.8439536 0.5364161
vn 0.40719485 -0.9105405 0.07147232
vn 0.40719485 -0.9105405 0.07147232
vn 0.40719485 -0.9105405 0.07147232
vn -0.40719485 -0.9105405 0.07147232
vn -0.40719485 -0.9105405 0.07147232
vn -0.40719485 -0.9105405 0.07147232
vn 0 1 -0
vn 0 1 -0
vn 0 1 -0
vn 0 1 -0
vn 0 1 -0
vn 0 1 -0
vn 0 -0.8439537 0.5364161
vn 0 -0.8439537 0.5364161
vn 0 -0.8439537 0.5364161
vn 0.33509374 -0.94086444 0.049862526
vn 0.33509374 -0.94086444 0.049862526
vn 0.33509374 -0.94086444 0.049862526
vn -0.33509374 -0.94086444 0.049862526
vn -0.33509374 -0.94086444 0.049862526
vn -0.33509374 -0.94086444 0.049862526
vn 0 1 -0
vn 0 1 -0
vn 0 1 -0
vn 0 1 -0
vn 0 1 -0
vn 0 1 -0
vn 0 -0.8439537 0.536416
vn 0 -0.8439537 0.536416
vn 0 -0.8439537 0.536416
vn 0.2939328 -0.9553792 0.029224608
vn 0.2939328 -0.9553792 0.029224608
vn 0.2939328 -0.9553792 0.029224608
vn -0.2939328 -0.9553792 0.029224608
vn -0.2939328 -0.9553792 0.029224608
vn -0.2939328 -0.9553792 0.029224608
vn 0 1 -0
vn 0 1 -0
vn 0 1 -0
vn 0 0.99999994 -0
vn 0 0.99999994 -0
vn 0 0.99999994 -0
vn 0 -0.84395367 0.536416
vn 0 -0.84395367 0.536416
vn 0 -0.84395367 0.536416
vn 0.27496603 -0.96140593 0.009600122
vn 0.27496603 -0.96140593 0.009600122
vn 0.27496603 -0.96140593 0.009600122
vn -0.27496603 -0.96140593 0.009600122
vn -0.27496603 -0.96140593 0.009600122
vn -0.27496603 -0.96140593 0.009600122
vn 0 0.99999994 -0
vn 0 0.99999994 -0
vn 0 0.99999994 -0
vn 0 1 -0
vn 0 1 -0
vn 0 1 -0
vn 0 -0.8439537 0.536416
vn 0 -0.8439537 0.536416
vn 0 -0.8439537 0.536416
vn 0.27408147 -0.9616589 -0.009569239
vn 0.27408147 -0.9616589 -0.009569239
vn 0.27408147 -0.9616589 -0.009569239
vn -0.27408147 -0.9616589 -0.009569239
vn -0.27408147 -0.9616589 -0.009569239
vn -0.27408147 -0.9616589 -0.009569239
vn 0 0.99999994 0
vn 0 0.99999994 0
vn 0 0.99999994 0
vn 0 0.99999994 0
vn 0 0.99999994 0
vn 0 0.99999994 0
vn 0 -0.84395367 0.5364161
vn 0 -0.84395367 0.5364161
vn 0 -0.84395367 0.5364161
vn 0.29108995 -0.95625776 -0.028941954
vn 0.29108995 -0.95625776 -0.028941954
vn 0.29108995 -0.95625776 -0.028941954
vn -0.29108995 -0.95625776 -0.028941954
vn -0.29108995 -0.95625776 -0.028941954
vn -0.29108995 -0.95625776 -0.028941954
vn 0 0.99999994 0
vn 0 0.99999994 0
vn 0 0.99999994 0
vn 0 1 0
vn 0 1 0
vn 0 1 0
vn 0 -0.84395367 0.5364161
vn 0 -0.84395367 0.5364161
vn 0 -0.84395367 0.5364161
vn 0.3671296 -0.91999483 -0.13720578
vn 0.3671296 -0.91999483 -0.13720578
vn 0.3671296 -0.91999483 -0.13720578
vn -0.3671296 -0.91999483 -0.13720578
vn -0.3671296 -0.91999483 -0.13720578
vn -0.3671296 -0.91999483 -0.13720578
vn 0 1 0
vn 0 1 0
vn 0 1 0
vn 0 0.99999994 0
vn 0 0.99999994 0
vn 0 0.99999994 0
vn 0 -0.84395367 0.5364161
vn 0 -0.84395367 0.5364161
vn 0 -0.84395367 0.5364161
vn 0.6700117 -0.6586163 -0.34250373
vn 0.6700117 -0.6586163 -0.34250373
vn 0.6700117 -0.6586163 -0.34250373
vn -0.6700117 -0.6586163 -0.34250373
vn -0.6700117 -0.6586163 -0.34250373
vn -0.6700117 -0.6586163 -0.34250373
vn 0 1 0
vn 0 1 0
vn 0 1 0
vn 0 1 0
vn 0 1 0
vn 0 1 0
vn 0 -0.70314825 0.71104324
vn 0 -0.70314825 0.71104324
vn 0 -0.70314825 0.71104324
vn 0 -0.70314825 0.71104324
vn 0 -0.70314825 0.71104324
vn 0 -0.70314825 0.71104324
vn 0 -0.70314825 0.71104324
vn 0 -0.70314825 0.71104324
vn 0 -0.70314825 0.71104324
vn 0 -0.70314825 0.7110433
vn 0 -0.70314825 0.7110433
vn 0 -0.70314825 0.7110433
vn 0 -0.70314825 0.71104324
vn 0 -0.70314825 0.71104324
vn 0 -0.70314825 0.71104324
vn 0 -0.70314825 0.71104324
vn 0 -0.70314825 0.71104324
vn 0 -0.70314825 0.71104324
vn 0 -0.70314825 0.71104324
vn 0 -0.70314825 0.71104324
vn 0 -0.70314825 0.71104324
vn -0 0.9899902 0.1411367
vn -0 0.9899902 0.1411367
vn -0 0.9899902 0.1411367
vn 0 -0.99246913 0.12249482
vn 0 -0.99246913 0.12249482
vn 0 -0.99246913 0.12249482
vn 0 -0.99246913 0.1224948
vn 0 -0.99246913 0.1224948
vn 0 -0.99246913 0.1224948
vn 0 -0.99246913 0.12249482
vn 0 -0.99246913 0.12249482
vn 0 -0.99246913 0.12249482
f 1//1 2//2 3//3
f 4//4 5//5 6//6
f 7//7 8//8 9//9
f 10//10 11//11 12//12
f 13//13 14//14 15//15
f 16//16 17//17 18//18
f 19//19 20//20 21//21
f 22//22 23//23 24//24
f 25//25 26//26 27//27
f 28//28 29//29 30//30
f 31//31 32//32 33//33
f 34//34 35//35 36//36
f 37//37 38//38 39//39
f 40//40 41//41 42//42
f 43//43 44//44 45//45
f 46//46 47//47 48//48
f 49//49 50//50 51//51
f 52//52 53//53 54//54
f 55//55 56//56 57//57
f 58//58 59//59 60//60
f 61//61 62//62 63//63
f 64//64 65//65 66//66
f 67//67 68//68 69//69
f 70//70 71//71 72//72
f 73//73 74//74 75//75
f 76//76 77//77 78//78
f 79//79 80//80 81//81
f 82//82 83//83 84//84
f 85//85 86//86 87//87
f 88//88 89//89 90//90
f 91//91 92//92 93//93
f 94//94 95//95 96//96
f 97//97 98//98 99//99
f 100//100 101//101 102//102
f 103//103 104//104 105//105
f 106//106 107//107 108//108
f 109//109 110//110 111//111
f 112//112 113//113 114//114
f 115//115 116//116 117//117
f 118//118 119//119 120//120
f 121//121 122//122 123//123
f 124//124 125//125 126//126
f 127//127 128//128 129//129
f 130//130 131//131 132//132
f 133//133 134//134 135//135
f 136//136 137//137 138//138
f 139//139 140//140 141//141
f 142//142 143//143 144//144
f 145//145 146//146 147//147
f 148//148 149//149 150//150
f 151//151 152//152 153//153
