# Exported from SharpOpenGl procedural mesh
o vesper_miner_sovereign_62
# vertices 240
v -0.3334407 0.17101239 -1.4988773
v 0.3334407 0.17101239 -1.4988773
v 0 0.35179693 -1.1769593
v -0.3334407 0.17101239 -1.4988773
v 0 0.35179693 -1.1769593
v -0.500161 0.17101239 -0.78350407
v 0.3334407 0.17101239 -1.4988773
v 0.500161 0.17101239 -0.78350407
v 0 0.35179693 -1.1769593
v -0.3334407 0 -1.4988773
v -0.500161 0 -0.78350407
v 0.3334407 0 -1.4988773
v 0.3334407 0 -1.4988773
v -0.500161 0 -0.78350407
v 0.500161 0 -0.78350407
v -0.3334407 0 -1.4988773
v -0.3334407 0.17101239 -1.4988773
v -0.500161 0.17101239 -0.78350407
v -0.3334407 0 -1.4988773
v -0.500161 0.17101239 -0.78350407
v -0.500161 0 -0.78350407
v 0.3334407 0 -1.4988773
v 0.500161 0.17101239 -0.78350407
v 0.3334407 0.17101239 -1.4988773
v 0.3334407 0 -1.4988773
v 0.500161 0 -0.78350407
v 0.500161 0.17101239 -0.78350407
v -0.500161 0.17101239 -0.78350407
v 0.500161 0.17101239 -0.78350407
v 0 0.35179693 -0.46158612
v -0.500161 0.17101239 -0.78350407
v 0 0.35179693 -0.46158612
v -0.62220883 0.17101239 -0.06813085
v 0.500161 0.17101239 -0.78350407
v 0.62220883 0.17101239 -0.06813085
v 0 0.35179693 -0.46158612
v -0.500161 0 -0.78350407
v -0.62220883 0 -0.06813085
v 0.500161 0 -0.78350407
v 0.500161 0 -0.78350407
v -0.62220883 0 -0.06813085
v 0.62220883 0 -0.06813085
v -0.500161 0 -0.78350407
v -0.500161 0.17101239 -0.78350407
v -0.62220883 0.17101239 -0.06813085
v -0.500161 0 -0.78350407
v -0.62220883 0.17101239 -0.06813085
v -0.62220883 0 -0.06813085
v 0.500161 0 -0.78350407
v 0.62220883 0.17101239 -0.06813085
v 0.500161 0.17101239 -0.78350407
v 0.500161 0 -0.78350407
v 0.62220883 0 -0.06813085
v 0.62220883 0.17101239 -0.06813085
v -0.62220883 0.17101239 -0.06813085
v 0.62220883 0.17101239 -0.06813085
v 0 0.35179693 0.25378707
v -0.62220883 0.17101239 -0.06813085
v 0 0.35179693 0.25378707
v -0.6668814 0.17101239 0.6472423
v 0.62220883 0.17101239 -0.06813085
v 0.6668814 0.17101239 0.6472423
v 0 0.35179693 0.25378707
v -0.62220883 0 -0.06813085
v -0.6668814 0 0.6472423
v 0.62220883 0 -0.06813085
v 0.62220883 0 -0.06813085
v -0.6668814 0 0.6472423
v 0.6668814 0 0.6472423
v -0.62220883 0 -0.06813085
v -0.62220883 0.17101239 -0.06813085
v -0.6668814 0.17101239 0.6472423
v -0.62220883 0 -0.06813085
v -0.6668814 0.17101239 0.6472423
v -0.6668814 0 0.6472423
v 0.62220883 0 -0.06813085
v 0.6668814 0.17101239 0.6472423
v 0.62220883 0.17101239 -0.06813085
v 0.62220883 0 -0.06813085
v 0.6668814 0 0.6472423
v 0.6668814 0.17101239 0.6472423
v -0.6668814 0.17101239 0.6472423
v 0.6668814 0.17101239 0.6472423
v 0 0.35179693 0.9691603
v -0.6668814 0.17101239 0.6472423
v 0 0.35179693 0.9691603
v -0.6222088 0.17101239 1.3626156
v 0.6668814 0.17101239 0.6472423
v 0.6222088 0.17101239 1.3626156
v 0 0.35179693 0.9691603
v -0.6668814 0 0.6472423
v -0.6222088 0 1.3626156
v 0.6668814 0 0.6472423
v 0.6668814 0 0.6472423
v -0.6222088 0 1.3626156
v 0.6222088 0 1.3626156
v -0.6668814 0 0.6472423
v -0.6668814 0.17101239 0.6472423
v -0.6222088 0.17101239 1.3626156
v -0.6668814 0 0.6472423
v -0.6222088 0.17101239 1.3626156
v -0.6222088 0 1.3626156
v 0.6668814 0 0.6472423
v 0.6222088 0.17101239 1.3626156
v 0.6668814 0.17101239 0.6472423
v 0.6668814 0 0.6472423
v 0.6222088 0 1.3626156
v 0.6222088 0.17101239 1.3626156
v -0.6222088 0.17101239 1.3626156
v 0.6222088 0.17101239 1.3626156
v 0 0.35179693 1.6845335
v -0.6222088 0.17101239 1.3626156
v 0 0.35179693 1.6845335
v -0.50016105 0.17101239 2.0779886
v 0.6222088 0.17101239 1.3626156
v 0.50016105 0.17101239 2.0779886
v 0 0.35179693 1.6845335
v -0.6222088 0 1.3626156
v -0.50016105 0 2.0779886
v 0.6222088 0 1.3626156
v 0.6222088 0 1.3626156
v -0.50016105 0 2.0779886
v 0.50016105 0 2.0779886
v -0.6222088 0 1.3626156
v -0.6222088 0.17101239 1.3626156
v -0.50016105 0.17101239 2.0779886
v -0.6222088 0 1.3626156
v -0.50016105 0.17101239 2.0779886
v -0.50016105 0 2.0779886
v 0.6222088 0 1.3626156
v 0.50016105 0.17101239 2.0779886
v 0.6222088 0.17101239 1.3626156
v 0.6222088 0 1.3626156
v 0.50016105 0 2.0779886
v 0.50016105 0.17101239 2.0779886
v -0.50016105 0.17101239 2.0779886
v 0.50016105 0.17101239 2.0779886
v 0 0.35179693 2.3999066
v -0.50016105 0.17101239 2.0779886
v 0 0.35179693 2.3999066
v -0 0.17101239 2.793362
v 0.50016105 0.17101239 2.0779886
v 0 0.17101239 2.793362
v 0 0.35179693 2.3999066
v -0.50016105 0 2.0779886
v -0 0 2.793362
v 0.50016105 0 2.0779886
v 0.50016105 0 2.0779886
v -0 0 2.793362
v 0 0 2.793362
v -0.50016105 0 2.0779886
v -0.50016105 0.17101239 2.0779886
v -0 0.17101239 2.793362
v -0.50016105 0 2.0779886
v -0 0.17101239 2.793362
v -0 0 2.793362
v 0.50016105 0 2.0779886
v 0 0.17101239 2.793362
v 0.50016105 0.17101239 2.0779886
v 0.50016105 0 2.0779886
v 0 0 2.793362
v 0 0.17101239 2.793362
v -0.24313384 0 2.7933621
v 0.24313384 0 2.7933621
v 0 0.29902738 2.9296236
v -0.24313384 0 -1.4988773
v 0 0.10260744 -1.6010735
v 0.24313384 0 -1.4988773
v 0 0.3811133 -1.1411906
v -0.069466814 0.30293623 -1.2384442
v 0.069466814 0.30293623 -1.2384442
v 0 0.3811133 -0.4258175
v -0.069466814 0.30293623 -0.52307105
v 0.069466814 0.30293623 -0.52307105
v 0 0.3811133 0.28955567
v -0.069466814 0.30293623 0.19230214
v 0.069466814 0.30293623 0.19230214
v 0 0.3811133 1.0049288
v -0.069466814 0.30293623 0.90767527
v 0.069466814 0.30293623 0.90767527
v 0 0.3811133 1.7203021
v -0.069466814 0.30293623 1.6230485
v 0.069466814 0.30293623 1.6230485
v -0.2917606 0.1368099 -0.7262742
v 0.2917606 0.1368099 -0.7262742
v 0 0.23453127 -1.1554981
v -0.50303555 0.052822355 -0.43355954
v -0.6323875 0 -0.50470316
v -0.37368357 0 -0.50470316
v -0.16767852 0.052822355 -0.43355954
v -0.2970305 0 -0.50470316
v -0.03832653 0 -0.50470316
v 0.16767852 0.052822355 -0.43355954
v 0.03832653 0 -0.50470316
v 0.2970305 0 -0.50470316
v 0.50303555 0.052822355 -0.43355954
v 0.37368357 0 -0.50470316
v 0.6323875 0 -0.50470316
v -0.26349482 0.2509062 0.2477483
v -0.3473341 0.09243912 0.17588608
v -0.17965555 0.09243912 0.17588608
v 0 0.2509062 0.16390905
v -0.08383926 0.09243912 0.09204683
v 0.08383926 0.09243912 0.09204683
v 0.26349482 0.2509062 0.08006978
v 0.17965555 0.09243912 0.00820756
v 0.3473341 0.09243912 0.00820756
v -0.22708073 0.033013973 -0.42117208
v 0.22708073 0.033013973 -0.42117208
v 0 0.14526148 -0.32826647
v -0.25343022 0.033013973 0.09909934
v 0.25343022 0.033013973 0.09909934
v 0 0.14526148 0.19200495
v -0.26349482 0.033013973 0.6193707
v 0.26349482 0.033013973 0.6193707
v 0 0.14526148 0.71227634
v -0.25343022 0.033013973 1.1396421
v 0.25343022 0.033013973 1.1396421
v 0 0.14526148 1.2325478
v -0.22708073 0.033013973 1.6599135
v 0.22708073 0.033013973 1.6599135
v 0 0.14526148 1.7528192
v 0 0.3631537 -0.041291386
v -0.08383926 0.27731737 -0.1806498
v 0.08383926 0.27731737 -0.1806498
v 0 0.3631537 0.41291383
v -0.08383926 0.27731737 0.2735554
v 0.08383926 0.27731737 0.2735554
v 0 0.3631537 0.86711895
v -0.08383926 0.27731737 0.72776055
v 0.08383926 0.27731737 0.72776055
v 0 0.3631537 1.3213242
v -0.08383926 0.27731737 1.1819658
v 0.08383926 0.27731737 1.1819658
v 0 0.3631537 1.7755293
v -0.08383926 0.27731737 1.6361709
v 0.08383926 0.27731737 1.6361709
v -0.16767852 0 -1.3161628
v 0.16767852 0 -1.3161628
v 0 0.033013973 -1.4555212
vn 0 -0.871916 0.4896555
vn 0 -0.871916 0.4896555
vn 0 -0.871916 0.4896555
vn 0.40293735 -0.9103972 0.093906
vn 0.40293735 -0.9103972 0.093906
vn 0.40293735 -0.9103972 0.093906
vn -0.40293735 -0.9103972 0.093906
vn -0.40293735 -0.9103972 0.093906
vn -0.40293735 -0.9103972 0.093906
vn 0 1 -0
vn 0 1 -0
vn 0 1 -0
vn 0 1 -0
vn 0 1 -0
vn 0 1 -0
vn 0.97390145 -0 0.22697122
vn 0.97390145 -0 0.22697122
vn 0.97390145 -0 0.22697122
vn 0.97390145 0 0.22697122
vn 0.97390145 0 0.22697122
vn 0.97390145 0 0.22697122
vn -0.97390145 0 0.22697122
vn -0.97390145 0 0.22697122
vn -0.97390145 0 0.22697122
vn -0.97390145 0 0.22697122
vn -0.97390145 0 0.22697122
vn -0.97390145 0 0.22697122
vn 0 -0.87191594 0.48965555
vn 0 -0.87191594 0.48965555
vn 0 -0.87191594 0.48965555
vn 0.30924767 -0.9495169 0.052759893
vn 0.30924767 -0.9495169 0.052759893
vn 0.30924767 -0.9495169 0.052759893
vn -0.30924767 -0.9495169 0.052759893
vn -0.30924767 -0.9495169 0.052759893
vn -0.30924767 -0.9495169 0.052759893
vn 0 1 -0
vn 0 1 -0
vn 0 1 -0
vn 0 1 -0
vn 0 1 -0
vn 0 1 -0
vn 0.98575675 -0 0.16817723
vn 0.98575675 -0 0.16817723
vn 0.98575675 -0 0.16817723
vn 0.98575675 0 0.16817723
vn 0.98575675 0 0.16817723
vn 0.98575675 0 0.16817723
vn -0.98575675 0 0.16817723
vn -0.98575675 0 0.16817723
vn -0.98575675 0 0.16817723
vn -0.98575675 0 0.16817723
vn -0.98575675 0 0.16817723
vn -0.98575675 0 0.16817723
vn 0 -0.87191594 0.48965564
vn 0 -0.87191594 0.48965564
vn 0 -0.87191594 0.48965564
vn 0.27089348 -0.9624607 0.01691635
vn 0.27089348 -0.9624607 0.01691635
vn 0.27089348 -0.9624607 0.01691635
vn -0.27089348 -0.9624607 0.01691635
vn -0.27089348 -0.9624607 0.01691635
vn -0.27089348 -0.9624607 0.01691635
vn 0 1 -0
vn 0 1 -0
vn 0 1 -0
vn 0 1 -0
vn 0 1 -0
vn 0 1 -0
vn 0.9980559 -0 0.062325098
vn 0.9980559 -0 0.062325098
vn 0.9980559 -0 0.062325098
vn 0.9980559 0 0.062325098
vn 0.9980559 0 0.062325098
vn 0.9980559 0 0.062325098
vn -0.9980559 0 0.062325098
vn -0.9980559 0 0.062325098
vn -0.9980559 0 0.062325098
vn -0.9980559 0 0.062325098
vn -0.9980559 0 0.062325098
vn -0.9980559 0 0.062325098
vn 0 -0.871916 0.4896555
vn 0 -0.871916 0.4896555
vn 0 -0.871916 0.4896555
vn 0.269159 -0.9629491 -0.016808055
vn 0.269159 -0.9629491 -0.016808055
vn 0.269159 -0.9629491 -0.016808055
vn -0.269159 -0.9629491 -0.016808055
vn -0.269159 -0.9629491 -0.016808055
vn -0.269159 -0.9629491 -0.016808055
vn 0 0.99999994 0
vn 0 0.99999994 0
vn 0 0.99999994 0
vn 0 0.99999994 0
vn 0 0.99999994 0
vn 0 0.99999994 0
vn 0.9980559 0 -0.062325165
vn 0.9980559 0 -0.062325165
vn 0.9980559 0 -0.062325165
vn 0.9980559 0 -0.062325165
vn 0.9980559 0 -0.062325165
vn 0.9980559 0 -0.062325165
vn -0.9980559 0 -0.062325165
vn -0.9980559 0 -0.062325165
vn -0.9980559 0 -0.062325165
vn -0.9980559 0 -0.062325165
vn -0.9980559 0 -0.062325165
vn -0.9980559 0 -0.062325165
vn 0 -0.87191594 0.48965564
vn 0 -0.87191594 0.48965564
vn 0 -0.87191594 0.48965564
vn 0.30323023 -0.95151204 -0.051733233
vn 0.30323023 -0.95151204 -0.051733233
vn 0.30323023 -0.95151204 -0.051733233
vn -0.30323023 -0.95151204 -0.051733233
vn -0.30323023 -0.95151204 -0.051733233
vn -0.30323023 -0.95151204 -0.051733233
vn 0 0.99999994 0
vn 0 0.99999994 0
vn 0 0.99999994 0
vn 0 1 0
vn 0 1 0
vn 0 1 0
vn 0.98575675 0 -0.1681771
vn 0.98575675 0 -0.1681771
vn 0.98575675 0 -0.1681771
vn 0.98575675 0 -0.1681771
vn 0.98575675 0 -0.1681771
vn 0.98575675 0 -0.1681771
vn -0.98575675 0 -0.1681771
vn -0.98575675 0 -0.1681771
vn -0.98575675 0 -0.1681771
vn -0.98575675 0 -0.1681771
vn -0.98575675 0 -0.1681771
vn -0.98575675 0 -0.1681771
vn 0 -0.87191606 0.48965555
vn 0 -0.87191606 0.48965555
vn 0 -0.87191606 0.48965555
vn 0.51270545 -0.7801519 -0.35846362
vn 0.51270545 -0.7801519 -0.35846362
vn 0.51270545 -0.7801519 -0.35846362
vn -0.51270545 -0.7801519 -0.35846362
vn -0.51270545 -0.7801519 -0.35846362
vn -0.51270545 -0.7801519 -0.35846362
vn 0 1 0
vn 0 1 0
vn 0 1 0
vn 0 1 0
vn 0 1 0
vn 0 1 0
vn 0.8195548 0 -0.5730007
vn 0.8195548 0 -0.5730007
vn 0.8195548 0 -0.5730007
vn 0.8195548 0 -0.5730007
vn 0.8195548 0 -0.5730007
vn 0.8195548 0 -0.5730007
vn -0.8195548 0 -0.5730007
vn -0.8195548 0 -0.5730007
vn -0.8195548 0 -0.5730007
vn -0.8195548 0 -0.5730007
vn -0.8195548 0 -0.5730007
vn -0.8195548 0 -0.5730007
vn 0 -0.41466013 0.9099764
vn 0 -0.41466013 0.9099764
vn 0 -0.41466013 0.9099764
vn 0 -0.70568556 -0.70852506
vn 0 -0.70568556 -0.70852506
vn 0 -0.70568556 -0.70852506
vn 0 -0.7794037 0.62652194
vn 0 -0.7794037 0.62652194
vn 0 -0.7794037 0.62652194
vn 0 -0.7794037 0.62652194
vn 0 -0.7794037 0.62652194
vn 0 -0.7794037 0.62652194
vn 0 -0.7794036 0.62652206
vn 0 -0.7794036 0.62652206
vn 0 -0.7794036 0.62652206
vn 0 -0.7794037 0.62652194
vn 0 -0.7794037 0.62652194
vn 0 -0.7794037 0.62652194
vn 0 -0.7794037 0.62652194
vn 0 -0.7794037 0.62652194
vn 0 -0.7794037 0.62652194
vn -0 0.975049 0.22198929
vn -0 0.975049 0.22198929
vn -0 0.975049 0.22198929
vn 0 -0.8028908 0.5961262
vn 0 -0.8028908 0.5961262
vn 0 -0.8028908 0.5961262
vn 0 -0.8028908 0.5961262
vn 0 -0.8028908 0.5961262
vn 0 -0.8028908 0.5961262
vn 0 -0.8028908 0.5961262
vn 0 -0.8028908 0.5961262
vn 0 -0.8028908 0.5961262
vn 0 -0.8028908 0.5961262
vn 0 -0.8028908 0.5961262
vn 0 -0.8028908 0.5961262
vn 0 -0.41300127 0.91073036
vn 0 -0.41300127 0.91073036
vn 0 -0.41300127 0.91073036
vn 0 -0.4130013 0.9107305
vn 0 -0.4130013 0.9107305
vn 0 -0.4130013 0.9107305
vn 0 -0.41300127 0.91073036
vn 0 -0.41300127 0.91073036
vn 0 -0.41300127 0.91073036
vn 0 -0.637613 0.77035683
vn 0 -0.637613 0.77035683
vn 0 -0.637613 0.77035683
vn 0 -0.637613 0.7703569
vn 0 -0.637613 0.7703569
vn 0 -0.637613 0.7703569
vn 0 -0.6376131 0.7703568
vn 0 -0.6376131 0.7703568
vn 0 -0.6376131 0.7703568
vn 0 -0.6376131 0.7703567
vn 0 -0.6376131 0.7703567
vn 0 -0.6376131 0.7703567
vn 0 -0.6376131 0.7703567
vn 0 -0.6376131 0.7703567
vn 0 -0.6376131 0.7703567
vn 0 -0.8514474 0.52443993
vn 0 -0.8514474 0.52443993
vn 0 -0.8514474 0.52443993
vn 0 -0.85144746 0.5244399
vn 0 -0.85144746 0.5244399
vn 0 -0.85144746 0.5244399
vn 0 -0.85144746 0.52444
vn 0 -0.85144746 0.52444
vn 0 -0.85144746 0.52444
vn 0 -0.85144746 0.52444
vn 0 -0.85144746 0.52444
vn 0 -0.85144746 0.52444
vn 0 -0.85144746 0.52444
vn 0 -0.85144746 0.52444
vn 0 -0.85144746 0.52444
vn -0 0.9730677 0.23051953
vn -0 0.9730677 0.23051953
vn -0 0.9730677 0.23051953
f 1//1 2//2 3//3
f 4//4 5//5 6//6
f 7//7 8//8 9//9
f 10//10 11//11 12//12
f 13//13 14//14 15//15
f 16//16 17//17 18//18
f 19//19 20//20 21//21
f 22//22 23//23 24//24
f 25//25 26//26 27//27
f 28//28 29//29 30//30
f 31//31 32//32 33//33
f 34//34 35//35 36//36
f 37//37 38//38 39//39
f 40//40 41//41 42//42
f 43//43 44//44 45//45
f 46//46 47//47 48//48
f 49//49 50//50 51//51
f 52//52 53//53 54//54
f 55//55 56//56 57//57
f 58//58 59//59 60//60
f 61//61 62//62 63//63
f 64//64 65//65 66//66
f 67//67 68//68 69//69
f 70//70 71//71 72//72
f 73//73 74//74 75//75
f 76//76 77//77 78//78
f 79//79 80//80 81//81
f 82//82 83//83 84//84
f 85//85 86//86 87//87
f 88//88 89//89 90//90
f 91//91 92//92 93//93
f 94//94 95//95 96//96
f 97//97 98//98 99//99
f 100//100 101//101 102//102
f 103//103 104//104 105//105
f 106//106 107//107 108//108
f 109//109 110//110 111//111
f 112//112 113//113 114//114
f 115//115 116//116 117//117
f 118//118 119//119 120//120
f 121//121 122//122 123//123
f 124//124 125//125 126//126
f 127//127 128//128 129//129
f 130//130 131//131 132//132
f 133//133 134//134 135//135
f 136//136 137//137 138//138
f 139//139 140//140 141//141
f 142//142 143//143 144//144
f 145//145 146//146 147//147
f 148//148 149//149 150//150
f 151//151 152//152 153//153
f 154//154 155//155 156//156
f 157//157 158//158 159//159
f 160//160 161//161 162//162
f 163//163 164//164 165//165
f 166//166 167//167 168//168
f 169//169 170//170 171//171
f 172//172 173//173 174//174
f 175//175 176//176 177//177
f 178//178 179//179 180//180
f 181//181 182//182 183//183
f 184//184 185//185 186//186
f 187//187 188//188 189//189
f 190//190 191//191 192//192
f 193//193 194//194 195//195
f 196//196 197//197 198//198
f 199//199 200//200 201//201
f 202//202 203//203 204//204
f 205//205 206//206 207//207
f 208//208 209//209 210//210
f 211//211 212//212 213//213
f 214//214 215//215 216//216
f 217//217 218//218 219//219
f 220//220 221//221 222//222
f 223//223 224//224 225//225
f 226//226 227//227 228//228
f 229//229 230//230 231//231
f 232//232 233//233 234//234
f 235//235 236//236 237//237
f 238//238 239//239 240//240
