# Exported from SharpOpenGl procedural mesh
o vesper_dreadnought_mk3_45
# vertices 153
v -1.1649026 0.68028766 -7.104476
v 1.1649026 0.68028766 -7.104476
v 0 1.3994489 -6.109042
v -1.1649026 0.68028766 -7.104476
v 0 1.3994489 -6.109042
v -1.5296389 0.68028766 -4.8924007
v 1.1649026 0.68028766 -7.104476
v 1.5296389 0.68028766 -4.8924007
v 0 1.3994489 -6.109042
v -1.1649026 0 -7.104476
v -1.5296389 0 -4.8924007
v 1.1649026 0 -7.104476
v 1.1649026 0 -7.104476
v -1.5296389 0 -4.8924007
v 1.5296389 0 -4.8924007
v -1.5296389 0.68028766 -4.8924007
v 1.5296389 0.68028766 -4.8924007
v 0 1.3994489 -3.8969667
v -1.5296389 0.68028766 -4.8924007
v 0 1.3994489 -3.8969667
v -1.8388474 0.68028766 -2.680325
v 1.5296389 0.68028766 -4.8924007
v 1.8388474 0.68028766 -2.680325
v 0 1.3994489 -3.8969667
v -1.5296389 0 -4.8924007
v -1.8388474 0 -2.680325
v 1.5296389 0 -4.8924007
v 1.5296389 0 -4.8924007
v -1.8388474 0 -2.680325
v 1.8388474 0 -2.680325
v -1.8388474 0.68028766 -2.680325
v 1.8388474 0.68028766 -2.680325
v 0 1.3994489 -1.684891
v -1.8388474 0.68028766 -2.680325
v 0 1.3994489 -1.684891
v -2.045454 0.68028766 -0.46824932
v 1.8388474 0.68028766 -2.680325
v 2.045454 0.68028766 -0.46824932
v 0 1.3994489 -1.684891
v -1.8388474 0 -2.680325
v -2.045454 0 -0.46824932
v 1.8388474 0 -2.680325
v 1.8388474 0 -2.680325
v -2.045454 0 -0.46824932
v 2.045454 0 -0.46824932
v -2.045454 0.68028766 -0.46824932
v 2.045454 0.68028766 -0.46824932
v 0 1.3994489 0.5271845
v -2.045454 0.68028766 -0.46824932
v 0 1.3994489 0.5271845
v -2.1180046 0.68028766 1.7438259
v 2.045454 0.68028766 -0.46824932
v 2.1180046 0.68028766 1.7438259
v 0 1.3994489 0.5271845
v -2.045454 0 -0.46824932
v -2.1180046 0 1.7438259
v 2.045454 0 -0.46824932
v 2.045454 0 -0.46824932
v -2.1180046 0 1.7438259
v 2.1180046 0 1.7438259
v -2.1180046 0.68028766 1.7438259
v 2.1180046 0.68028766 1.7438259
v 0 1.3994489 2.7392597
v -2.1180046 0.68028766 1.7438259
v 0 1.3994489 2.7392597
v -2.045454 0.68028766 3.9559011
v 2.1180046 0.68028766 1.7438259
v 2.045454 0.68028766 3.9559011
v 0 1.3994489 2.7392597
v -2.1180046 0 1.7438259
v -2.045454 0 3.9559011
v 2.1180046 0 1.7438259
v 2.1180046 0 1.7438259
v -2.045454 0 3.9559011
v 2.045454 0 3.9559011
v -2.045454 0.68028766 3.9559011
v 2.045454 0.68028766 3.9559011
v 0 1.3994489 4.9513354
v -2.045454 0.68028766 3.9559011
v 0 1.3994489 4.9513354
v -1.8388474 0.68028766 6.1679773
v 2.045454 0.68028766 3.9559011
v 1.8388474 0.68028766 6.1679773
v 0 1.3994489 4.9513354
v -2.045454 0 3.9559011
v -1.8388474 0 6.1679773
v 2.045454 0 3.9559011
v 2.045454 0 3.9559011
v -1.8388474 0 6.1679773
v 1.8388474 0 6.1679773
v -1.8388474 0.68028766 6.1679773
v 1.8388474 0.68028766 6.1679773
v 0 1.3994489 7.163411
v -1.8388474 0.68028766 6.1679773
v 0 1.3994489 7.163411
v -1.0622491 0.68028766 8.380053
v 1.8388474 0.68028766 6.1679773
v 1.0622491 0.68028766 8.380053
v 0 1.3994489 7.163411
v -1.8388474 0 6.1679773
v -1.0622491 0 8.380053
v 1.8388474 0 6.1679773
v 1.8388474 0 6.1679773
v -1.0622491 0 8.380053
v 1.0622491 0 8.380053
v -1.0622491 0.68028766 8.380053
v 1.0622491 0.68028766 8.380053
v 0 1.3994489 9.375486
v -1.0622491 0.68028766 8.380053
v 0 1.3994489 9.375486
v -0 0.68028766 10.592128
v 1.0622491 0.68028766 8.380053
v 0 0.68028766 10.592128
v 0 1.3994489 9.375486
v -1.0622491 0 8.380053
v -0 0 10.592128
v 1.0622491 0 8.380053
v 1.0622491 0 8.380053
v -0 0 10.592128
v 0 0 10.592128
v 0 1.5160695 -5.9984384
v -0.16944036 1.205081 -6.252599
v 0.16944036 1.205081 -6.252599
v 0 1.5160695 -3.7863626
v -0.16944036 1.205081 -4.040523
v 0.16944036 1.205081 -4.040523
v 0 1.5160695 -1.5742874
v -0.16944036 1.205081 -1.8284479
v 0.16944036 1.205081 -1.8284479
v 0 1.5160695 0.6377883
v -0.16944036 1.205081 0.38362774
v 0.16944036 1.205081 0.38362774
v 0 1.5160695 2.849864
v -0.16944036 1.205081 2.5957034
v 0.16944036 1.205081 2.5957034
v 0 1.5160695 5.0619392
v -0.16944036 1.205081 4.807779
v 0.16944036 1.205081 4.807779
v 0 1.5160695 7.2740145
v -0.16944036 1.205081 7.019854
v 0.16944036 1.205081 7.019854
v -0.8895619 0.5442301 -1.9375844
v 0.8895619 0.5442301 -1.9375844
v 0 0.81634516 -3.6168242
v -1.2781062 0.21596432 -6.9640713
v -1.935418 0 -8.410157
v -0.6207944 0 -8.410157
v 0 0.21596432 -6.9640713
v -0.6573118 0 -8.410157
v 0.6573118 0 -8.410157
v 1.2781062 0.21596432 -6.9640713
v 0.6207944 0 -8.410157
v 1.935418 0 -8.410157
vn 0 -0.81058776 0.5856173
vn 0 -0.81058776 0.5856173
vn 0 -0.81058776 0.5856173
vn 0.47445002 -0.8767995 0.07822933
vn 0.47445002 -0.8767995 0.07822933
vn 0.47445002 -0.8767995 0.07822933
vn -0.47445002 -0.8767995 0.07822933
vn -0.47445002 -0.8767995 0.07822933
vn -0.47445002 -0.8767995 0.07822933
vn 0 1 -0
vn 0 1 -0
vn 0 1 -0
vn 0 1 -0
vn 0 1 -0
vn 0 1 -0
vn 0 -0.81058776 0.5856172
vn 0 -0.81058776 0.5856172
vn 0 -0.81058776 0.5856172
vn 0.3951594 -0.9169504 0.055236198
vn 0.3951594 -0.9169504 0.055236198
vn 0.3951594 -0.9169504 0.055236198
vn -0.3951594 -0.9169504 0.055236198
vn -0.3951594 -0.9169504 0.055236198
vn -0.3951594 -0.9169504 0.055236198
vn 0 1 -0
vn 0 1 -0
vn 0 1 -0
vn 0 1 -0
vn 0 1 -0
vn 0 1 -0
vn 0 -0.81058776 0.58561724
vn 0 -0.81058776 0.58561724
vn 0 -0.81058776 0.58561724
vn 0.34869534 -0.9366701 0.032567948
vn 0.34869534 -0.9366701 0.032567948
vn 0.34869534 -0.9366701 0.032567948
vn -0.34869534 -0.9366701 0.032567948
vn -0.34869534 -0.9366701 0.032567948
vn -0.34869534 -0.9366701 0.032567948
vn 0 1 -0
vn 0 1 -0
vn 0 1 -0
vn 0 1 -0
vn 0 1 -0
vn 0 1 -0
vn 0 -0.8105877 0.5856173
vn 0 -0.8105877 0.5856173
vn 0 -0.8105877 0.5856173
vn 0.32701793 -0.94495726 0.010725371
vn 0.32701793 -0.94495726 0.010725371
vn 0.32701793 -0.94495726 0.010725371
vn -0.32701793 -0.94495726 0.010725371
vn -0.32701793 -0.94495726 0.010725371
vn -0.32701793 -0.94495726 0.010725371
vn 0 1 -0
vn 0 1 -0
vn 0 1 -0
vn 0 1 -0
vn 0 1 -0
vn 0 1 -0
vn 0 -0.81058776 0.5856173
vn 0 -0.81058776 0.5856173
vn 0 -0.81058776 0.5856173
vn 0.3260015 -0.94530886 -0.010692034
vn 0.3260015 -0.94530886 -0.010692034
vn 0.3260015 -0.94530886 -0.010692034
vn -0.3260015 -0.94530886 -0.010692034
vn -0.3260015 -0.94530886 -0.010692034
vn -0.3260015 -0.94530886 -0.010692034
vn 0 1 0
vn 0 1 0
vn 0 1 0
vn 0 1 0
vn 0 1 0
vn 0 1 0
vn 0 -0.8105879 0.58561707
vn 0 -0.8105879 0.58561707
vn 0 -0.8105879 0.58561707
vn 0.34545183 -0.9378817 -0.032265
vn 0.34545183 -0.9378817 -0.032265
vn 0.34545183 -0.9378817 -0.032265
vn -0.34545183 -0.9378817 -0.032265
vn -0.34545183 -0.9378817 -0.032265
vn -0.34545183 -0.9378817 -0.032265
vn 0 1 0
vn 0 1 0
vn 0 1 0
vn 0 1 0
vn 0 1 0
vn 0 1 0
vn 0 -0.81058764 0.58561724
vn 0 -0.81058764 0.58561724
vn 0 -0.81058764 0.58561724
vn 0.42984357 -0.8902033 -0.15090618
vn 0.42984357 -0.8902033 -0.15090618
vn 0.42984357 -0.8902033 -0.15090618
vn -0.42984357 -0.8902033 -0.15090618
vn -0.42984357 -0.8902033 -0.15090618
vn -0.42984357 -0.8902033 -0.15090618
vn 0 1 0
vn 0 1 0
vn 0 1 0
vn 0 1 0
vn 0 1 0
vn 0 1 0
vn 0 -0.81058764 0.58561724
vn 0 -0.81058764 0.58561724
vn 0 -0.81058764 0.58561724
vn 0.7272835 -0.59083545 -0.349245
vn 0.7272835 -0.59083545 -0.349245
vn 0.7272835 -0.59083545 -0.349245
vn -0.7272835 -0.59083545 -0.349245
vn -0.7272835 -0.59083545 -0.349245
vn -0.7272835 -0.59083545 -0.349245
vn 0 1 0
vn 0 1 0
vn 0 1 0
vn 0 1 0
vn 0 1 0
vn 0 1 0
vn 0 -0.632813 0.7743047
vn 0 -0.632813 0.7743047
vn 0 -0.632813 0.7743047
vn 0 -0.632813 0.7743047
vn 0 -0.632813 0.7743047
vn 0 -0.632813 0.7743047
vn 0 -0.6328131 0.7743045
vn 0 -0.6328131 0.7743045
vn 0 -0.6328131 0.7743045
vn 0 -0.63281316 0.77430445
vn 0 -0.63281316 0.77430445
vn 0 -0.63281316 0.77430445
vn 0 -0.63281333 0.7743044
vn 0 -0.63281333 0.7743044
vn 0 -0.63281333 0.7743044
vn 0 -0.632813 0.7743047
vn 0 -0.632813 0.7743047
vn 0 -0.632813 0.7743047
vn 0 -0.632813 0.7743047
vn 0 -0.632813 0.7743047
vn 0 -0.632813 0.7743047
vn -0 0.9871234 0.15995997
vn -0 0.9871234 0.15995997
vn -0 0.9871234 0.15995997
vn 0 -0.9890314 0.14770594
vn 0 -0.9890314 0.14770594
vn 0 -0.9890314 0.14770594
vn 0 -0.9890314 0.14770594
vn 0 -0.9890314 0.14770594
vn 0 -0.9890314 0.14770594
vn 0 -0.9890314 0.14770594
vn 0 -0.9890314 0.14770594
vn 0 -0.9890314 0.14770594
f 1//1 2//2 3//3
f 4//4 5//5 6//6
f 7//7 8//8 9//9
f 10//10 11//11 12//12
f 13//13 14//14 15//15
f 16//16 17//17 18//18
f 19//19 20//20 21//21
f 22//22 23//23 24//24
f 25//25 26//26 27//27
f 28//28 29//29 30//30
f 31//31 32//32 33//33
f 34//34 35//35 36//36
f 37//37 38//38 39//39
f 40//40 41//41 42//42
f 43//43 44//44 45//45
f 46//46 47//47 48//48
f 49//49 50//50 51//51
f 52//52 53//53 54//54
f 55//55 56//56 57//57
f 58//58 59//59 60//60
f 61//61 62//62 63//63
f 64//64 65//65 66//66
f 67//67 68//68 69//69
f 70//70 71//71 72//72
f 73//73 74//74 75//75
f 76//76 77//77 78//78
f 79//79 80//80 81//81
f 82//82 83//83 84//84
f 85//85 86//86 87//87
f 88//88 89//89 90//90
f 91//91 92//92 93//93
f 94//94 95//95 96//96
f 97//97 98//98 99//99
f 100//100 101//101 102//102
f 103//103 104//104 105//105
f 106//106 107//107 108//108
f 109//109 110//110 111//111
f 112//112 113//113 114//114
f 115//115 116//116 117//117
f 118//118 119//119 120//120
f 121//121 122//122 123//123
f 124//124 125//125 126//126
f 127//127 128//128 129//129
f 130//130 131//131 132//132
f 133//133 134//134 135//135
f 136//136 137//137 138//138
f 139//139 140//140 141//141
f 142//142 143//143 144//144
f 145//145 146//146 147//147
f 148//148 149//149 150//150
f 151//151 152//152 153//153
