# Exported from SharpOpenGl procedural mesh
o vesper_cruiser_mk1_09
# vertices 117
v -0.61323863 0.3533104 -4.33638
v 0.61323863 0.3533104 -4.33638
v 0 0.72681 -3.5262654
v -0.61323863 0.3533104 -4.33638
v 0 0.72681 -3.5262654
v -0.8641089 0.3533104 -2.5361252
v 0.61323863 0.3533104 -4.33638
v 0.8641089 0.3533104 -2.5361252
v 0 0.72681 -3.5262654
v -0.61323863 0 -4.33638
v -0.8641089 0 -2.5361252
v 0.61323863 0 -4.33638
v 0.61323863 0 -4.33638
v -0.8641089 0 -2.5361252
v 0.8641089 0 -2.5361252
v -0.8641089 0.3533104 -2.5361252
v 0.8641089 0.3533104 -2.5361252
v 0 0.72681 -1.7260106
v -0.8641089 0.3533104 -2.5361252
v 0 0.72681 -1.7260106
v -1.0477588 0.3533104 -0.7358706
v 0.8641089 0.3533104 -2.5361252
v 1.0477588 0.3533104 -0.7358706
v 0 0.72681 -1.7260106
v -0.8641089 0 -2.5361252
v -1.0477588 0 -0.7358706
v 0.8641089 0 -2.5361252
v 0.8641089 0 -2.5361252
v -1.0477588 0 -0.7358706
v 1.0477588 0 -0.7358706
v -1.0477588 0.3533104 -0.7358706
v 1.0477588 0.3533104 -0.7358706
v 0 0.72681 0.07424396
v -1.0477588 0.3533104 -0.7358706
v 0 0.72681 0.07424396
v -1.1149793 0.3533104 1.064384
v 1.0477588 0.3533104 -0.7358706
v 1.1149793 0.3533104 1.064384
v 0 0.72681 0.07424396
v -1.0477588 0 -0.7358706
v -1.1149793 0 1.064384
v 1.0477588 0 -0.7358706
v 1.0477588 0 -0.7358706
v -1.1149793 0 1.064384
v 1.1149793 0 1.064384
v -1.1149793 0.3533104 1.064384
v 1.1149793 0.3533104 1.064384
v 0 0.72681 1.8744986
v -1.1149793 0.3533104 1.064384
v 0 0.72681 1.8744986
v -1.0477588 0.3533104 2.8646388
v 1.1149793 0.3533104 1.064384
v 1.0477588 0.3533104 2.8646388
v 0 0.72681 1.8744986
v -1.1149793 0 1.064384
v -1.0477588 0 2.8646388
v 1.1149793 0 1.064384
v 1.1149793 0 1.064384
v -1.0477588 0 2.8646388
v 1.0477588 0 2.8646388
v -1.0477588 0.3533104 2.8646388
v 1.0477588 0.3533104 2.8646388
v 0 0.72681 3.6747532
v -1.0477588 0.3533104 2.8646388
v 0 0.72681 3.6747532
v -0.8001009 0.3533104 4.664893
v 1.0477588 0.3533104 2.8646388
v 0.8001009 0.3533104 4.664893
v 0 0.72681 3.6747532
v -1.0477588 0 2.8646388
v -0.8001009 0 4.664893
v 1.0477588 0 2.8646388
v 1.0477588 0 2.8646388
v -0.8001009 0 4.664893
v 0.8001009 0 4.664893
v -0.8001009 0.3533104 4.664893
v 0.8001009 0.3533104 4.664893
v 0 0.72681 5.475008
v -0.8001009 0.3533104 4.664893
v 0 0.72681 5.475008
v -0 0.3533104 6.465148
v 0.8001009 0.3533104 4.664893
v 0 0.3533104 6.465148
v 0 0.72681 5.475008
v -0.8001009 0 4.664893
v -0 0 6.465148
v 0.8001009 0 4.664893
v 0.8001009 0 4.664893
v -0 0 6.465148
v 0 0 6.465148
v 0 0.7873775 -3.4362526
v -0.089198336 0.62586415 -3.57005
v 0.089198336 0.62586415 -3.57005
v 0 0.7873775 -1.635998
v -0.089198336 0.62586415 -1.7697955
v 0.089198336 0.62586415 -1.7697955
v 0 0.7873775 0.16425657
v -0.089198336 0.62586415 0.030459061
v 0.089198336 0.62586415 0.030459061
v 0 0.7873775 1.9645109
v -0.089198336 0.62586415 1.8307134
v 0.089198336 0.62586415 1.8307134
v 0 0.7873775 3.7647657
v -0.089198336 0.62586415 3.6309683
v 0.089198336 0.62586415 3.6309683
v -0.46829128 0.28264832 -1.1826491
v 0.46829128 0.28264832 -1.1826491
v 0 0.4239725 -2.2076116
v -0.67283237 0.112162024 -4.2506804
v -0.98425764 0 -4.935816
v -0.3614071 0 -4.935816
v 0 0.112162024 -4.2506804
v -0.31142527 0 -4.935816
v 0.31142527 0 -4.935816
v 0.67283237 0.112162024 -4.2506804
v 0.3614071 0 -4.935816
v 0.98425764 0 -4.935816
vn 0 -0.90812975 0.41868895
vn 0 -0.90812975 0.41868895
vn 0 -0.90812975 0.41868895
vn 0.45648083 -0.8874563 0.06361181
vn 0.45648083 -0.8874563 0.06361181
vn 0.45648083 -0.8874563 0.06361181
vn -0.45648083 -0.8874563 0.06361181
vn -0.45648083 -0.8874563 0.06361181
vn -0.45648083 -0.8874563 0.06361181
vn 0 1 -0
vn 0 1 -0
vn 0 1 -0
vn 0 1 -0
vn 0 1 -0
vn 0 1 -0
vn 0 -0.9081297 0.41868895
vn 0 -0.9081297 0.41868895
vn 0 -0.9081297 0.41868895
vn 0.36672425 -0.9295772 0.037410747
vn 0.36672425 -0.9295772 0.037410747
vn 0.36672425 -0.9295772 0.037410747
vn -0.36672425 -0.9295772 0.037410747
vn -0.36672425 -0.9295772 0.037410747
vn -0.36672425 -0.9295772 0.037410747
vn 0 1 -0
vn 0 1 -0
vn 0 1 -0
vn 0 1 -0
vn 0 1 -0
vn 0 1 -0
vn 0 -0.90812963 0.418689
vn 0 -0.90812963 0.418689
vn 0 -0.90812963 0.418689
vn 0.32735452 -0.94482243 0.012223226
vn 0.32735452 -0.94482243 0.012223226
vn 0.32735452 -0.94482243 0.012223226
vn -0.32735452 -0.94482243 0.012223226
vn -0.32735452 -0.94482243 0.012223226
vn -0.32735452 -0.94482243 0.012223226
vn 0 1 -0
vn 0 1 -0
vn 0 1 -0
vn 0 1 -0
vn 0 1 -0
vn 0 1 -0
vn 0 -0.90812975 0.41868898
vn 0 -0.90812975 0.41868898
vn 0 -0.90812975 0.41868898
vn 0.3255418 -0.9454494 -0.012155538
vn 0.3255418 -0.9454494 -0.012155538
vn 0.3255418 -0.9454494 -0.012155538
vn -0.3255418 -0.9454494 -0.012155538
vn -0.3255418 -0.9454494 -0.012155538
vn -0.3255418 -0.9454494 -0.012155538
vn 0 1 0
vn 0 1 0
vn 0 1 0
vn 0 1 0
vn 0 1 0
vn 0 1 0
vn 0 -0.9081297 0.4186891
vn 0 -0.9081297 0.4186891
vn 0 -0.9081297 0.4186891
vn 0.37003312 -0.92762285 -0.05090482
vn 0.37003312 -0.92762285 -0.05090482
vn 0.37003312 -0.92762285 -0.05090482
vn -0.37003312 -0.92762285 -0.05090482
vn -0.37003312 -0.92762285 -0.05090482
vn -0.37003312 -0.92762285 -0.05090482
vn 0 1 0
vn 0 1 0
vn 0 1 0
vn 0 0.99999994 0
vn 0 0.99999994 0
vn 0 0.99999994 0
vn 0 -0.9081297 0.41868886
vn 0 -0.9081297 0.41868886
vn 0 -0.9081297 0.41868886
vn 0.62188995 -0.73270786 -0.2763913
vn 0.62188995 -0.73270786 -0.2763913
vn 0.62188995 -0.73270786 -0.2763913
vn -0.62188995 -0.73270786 -0.2763913
vn -0.62188995 -0.73270786 -0.2763913
vn -0.62188995 -0.73270786 -0.2763913
vn 0 1 0
vn 0 1 0
vn 0 1 0
vn 0 1 0
vn 0 1 0
vn 0 1 0
vn 0 -0.637939 0.770087
vn 0 -0.637939 0.770087
vn 0 -0.637939 0.770087
vn 0 -0.6379393 0.7700867
vn 0 -0.6379393 0.7700867
vn 0 -0.6379393 0.7700867
vn 0 -0.63793916 0.7700867
vn 0 -0.63793916 0.7700867
vn 0 -0.63793916 0.7700867
vn 0 -0.6379393 0.7700867
vn 0 -0.6379393 0.7700867
vn 0 -0.6379393 0.7700867
vn 0 -0.637939 0.770087
vn 0 -0.637939 0.770087
vn 0 -0.637939 0.770087
vn -0 0.9906276 0.13658999
vn -0 0.9906276 0.13658999
vn -0 0.9906276 0.13658999
vn 0 -0.98686343 0.16155727
vn 0 -0.98686343 0.16155727
vn 0 -0.98686343 0.16155727
vn 0 -0.98686343 0.16155727
vn 0 -0.98686343 0.16155727
vn 0 -0.98686343 0.16155727
vn 0 -0.98686343 0.16155727
vn 0 -0.98686343 0.16155727
vn 0 -0.98686343 0.16155727
f 1//1 2//2 3//3
f 4//4 5//5 6//6
f 7//7 8//8 9//9
f 10//10 11//11 12//12
f 13//13 14//14 15//15
f 16//16 17//17 18//18
f 19//19 20//20 21//21
f 22//22 23//23 24//24
f 25//25 26//26 27//27
f 28//28 29//29 30//30
f 31//31 32//32 33//33
f 34//34 35//35 36//36
f 37//37 38//38 39//39
f 40//40 41//41 42//42
f 43//43 44//44 45//45
f 46//46 47//47 48//48
f 49//49 50//50 51//51
f 52//52 53//53 54//54
f 55//55 56//56 57//57
f 58//58 59//59 60//60
f 61//61 62//62 63//63
f 64//64 65//65 66//66
f 67//67 68//68 69//69
f 70//70 71//71 72//72
f 73//73 74//74 75//75
f 76//76 77//77 78//78
f 79//79 80//80 81//81
f 82//82 83//83 84//84
f 85//85 86//86 87//87
f 88//88 89//89 90//90
f 91//91 92//92 93//93
f 94//94 95//95 96//96
f 97//97 98//98 99//99
f 100//100 101//101 102//102
f 103//103 104//104 105//105
f 106//106 107//107 108//108
f 109//109 110//110 111//111
f 112//112 113//113 114//114
f 115//115 116//116 117//117
