# Exported from SharpOpenGl procedural mesh
o vesper_cruiser_spear_59
# vertices 120
v -0.9016224 0.40579283 -5.9786887
v 0.9016224 0.40579283 -5.9786887
v 0 0.83477384 -4.861761
v -0.9016224 0.40579283 -5.9786887
v 0 0.83477384 -4.861761
v -1.2704679 0.40579283 -3.4966269
v 0.9016224 0.40579283 -5.9786887
v 1.2704679 0.40579283 -3.4966269
v 0 0.83477384 -4.861761
v -0.9016224 0 -5.9786887
v -1.2704679 0 -3.4966269
v 0.9016224 0 -5.9786887
v 0.9016224 0 -5.9786887
v -1.2704679 0 -3.4966269
v 1.2704679 0 -3.4966269
v -1.2704679 0.40579283 -3.4966269
v 1.2704679 0.40579283 -3.4966269
v 0 0.83477384 -2.379699
v -1.2704679 0.40579283 -3.4966269
v 0 0.83477384 -2.379699
v -1.5404817 0.40579283 -1.014565
v 1.2704679 0.40579283 -3.4966269
v 1.5404817 0.40579283 -1.014565
v 0 0.83477384 -2.379699
v -1.2704679 0 -3.4966269
v -1.5404817 0 -1.014565
v 1.2704679 0 -3.4966269
v 1.2704679 0 -3.4966269
v -1.5404817 0 -1.014565
v 1.5404817 0 -1.014565
v -1.5404817 0.40579283 -1.014565
v 1.5404817 0.40579283 -1.014565
v 0 0.83477384 0.10236263
v -1.5404817 0.40579283 -1.014565
v 0 0.83477384 0.10236263
v -1.6393135 0.40579283 1.4674964
v 1.5404817 0.40579283 -1.014565
v 1.6393135 0.40579283 1.4674964
v 0 0.83477384 0.10236263
v -1.5404817 0 -1.014565
v -1.6393135 0 1.4674964
v 1.5404817 0 -1.014565
v 1.5404817 0 -1.014565
v -1.6393135 0 1.4674964
v 1.6393135 0 1.4674964
v -1.6393135 0.40579283 1.4674964
v 1.6393135 0.40579283 1.4674964
v 0 0.83477384 2.5844245
v -1.6393135 0.40579283 1.4674964
v 0 0.83477384 2.5844245
v -1.5404817 0.40579283 3.9495587
v 1.6393135 0.40579283 1.4674964
v 1.5404817 0.40579283 3.9495587
v 0 0.83477384 2.5844245
v -1.6393135 0 1.4674964
v -1.5404817 0 3.9495587
v 1.6393135 0 1.4674964
v 1.6393135 0 1.4674964
v -1.5404817 0 3.9495587
v 1.5404817 0 3.9495587
v -1.5404817 0.40579283 3.9495587
v 1.5404817 0.40579283 3.9495587
v 0 0.83477384 5.066486
v -1.5404817 0.40579283 3.9495587
v 0 0.83477384 5.066486
v -1.1763593 0.40579283 6.431619
v 1.5404817 0.40579283 3.9495587
v 1.1763593 0.40579283 6.431619
v 0 0.83477384 5.066486
v -1.5404817 0 3.9495587
v -1.1763593 0 6.431619
v 1.5404817 0 3.9495587
v 1.5404817 0 3.9495587
v -1.1763593 0 6.431619
v 1.1763593 0 6.431619
v -1.1763593 0.40579283 6.431619
v 1.1763593 0.40579283 6.431619
v 0 0.83477384 7.548547
v -1.1763593 0.40579283 6.431619
v 0 0.83477384 7.548547
v -0 0.40579283 8.913681
v 1.1763593 0.40579283 6.431619
v 0 0.40579283 8.913681
v 0 0.83477384 7.548547
v -1.1763593 0 6.431619
v -0 0 8.913681
v 1.1763593 0 6.431619
v 1.1763593 0 6.431619
v -0 0 8.913681
v 0 0 8.913681
v 0 0.9043383 -4.7376575
v -0.13114507 0.718833 -4.9343753
v 0.13114507 0.718833 -4.9343753
v 0 0.9043383 -2.2555962
v -0.13114507 0.718833 -2.4523137
v 0.13114507 0.718833 -2.4523137
v 0 0.9043383 0.22646523
v -0.13114507 0.718833 0.02974762
v 0.13114507 0.718833 0.02974762
v 0 0.9043383 2.708527
v -0.13114507 0.718833 2.5118096
v 0.13114507 0.718833 2.5118096
v 0 0.9043383 5.1905885
v -0.13114507 0.718833 4.9938707
v 0.13114507 0.718833 4.9938707
v -0.6885116 0.32463425 -1.6305516
v 0.6885116 0.32463425 -1.6305516
v 0 0.48695138 -3.0436962
v -1.1870891 0.12882312 -5.860533
v -1.6449664 0 -6.867863
v -0.72921187 0 -6.867863
v -0.39569637 0.12882312 -5.860533
v -0.85357356 0 -6.867863
v 0.062180847 0 -6.867863
v 0.39569637 0.12882312 -5.860533
v -0.062180847 0 -6.867863
v 0.85357356 0 -6.867863
v 1.1870891 0.12882312 -5.860533
v 0.72921187 0 -6.867863
v 1.6449664 0 -6.867863
vn 0 -0.9335153 0.35853744
vn 0 -0.9335153 0.35853744
vn 0 -0.9335153 0.35853744
vn 0.3722727 -0.9264732 0.055321384
vn 0.3722727 -0.9264732 0.055321384
vn 0.3722727 -0.9264732 0.055321384
vn -0.3722727 -0.9264732 0.055321384
vn -0.3722727 -0.9264732 0.055321384
vn -0.3722727 -0.9264732 0.055321384
vn 0 1 -0
vn 0 1 -0
vn 0 1 -0
vn 0 1 -0
vn 0 1 -0
vn 0 1 -0
vn 0 -0.93351537 0.35853735
vn 0 -0.93351537 0.35853735
vn 0 -0.93351537 0.35853735
vn 0.29436204 -0.95515734 0.0320225
vn 0.29436204 -0.95515734 0.0320225
vn 0.29436204 -0.95515734 0.0320225
vn -0.29436204 -0.95515734 0.0320225
vn -0.29436204 -0.95515734 0.0320225
vn -0.29436204 -0.95515734 0.0320225
vn 0 1 -0
vn 0 1 -0
vn 0 1 -0
vn 0 1 -0
vn 0 1 -0
vn 0 1 -0
vn 0 -0.93351537 0.35853744
vn 0 -0.93351537 0.35853744
vn 0 -0.93351537 0.35853744
vn 0.26124367 -0.9652169 0.010402311
vn 0.26124367 -0.9652169 0.010402311
vn 0.26124367 -0.9652169 0.010402311
vn -0.26124367 -0.9652169 0.010402311
vn -0.26124367 -0.9652169 0.010402311
vn -0.26124367 -0.9652169 0.010402311
vn 0 0.99999994 -0
vn 0 0.99999994 -0
vn 0 0.99999994 -0
vn 0 1 -0
vn 0 1 -0
vn 0 1 -0
vn 0 -0.9335153 0.35853726
vn 0 -0.9335153 0.35853726
vn 0 -0.9335153 0.35853726
vn 0.25973448 -0.9656248 -0.010342214
vn 0.25973448 -0.9656248 -0.010342214
vn 0.25973448 -0.9656248 -0.010342214
vn -0.25973448 -0.9656248 -0.010342214
vn -0.25973448 -0.9656248 -0.010342214
vn -0.25973448 -0.9656248 -0.010342214
vn 0 1 0
vn 0 1 0
vn 0 1 0
vn 0 1 0
vn 0 1 0
vn 0 1 0
vn 0 -0.93351525 0.35853755
vn 0 -0.93351525 0.35853755
vn 0 -0.93351525 0.35853755
vn 0.2972244 -0.9538115 -0.043603316
vn 0.2972244 -0.9538115 -0.043603316
vn 0.2972244 -0.9538115 -0.043603316
vn -0.2972244 -0.9538115 -0.043603316
vn -0.2972244 -0.9538115 -0.043603316
vn -0.2972244 -0.9538115 -0.043603316
vn 0 1 0
vn 0 1 0
vn 0 1 0
vn 0 0.99999994 0
vn 0 0.99999994 0
vn 0 0.99999994 0
vn 0 -0.93351537 0.35853744
vn 0 -0.93351537 0.35853744
vn 0 -0.93351537 0.35853744
vn 0.53457206 -0.80625224 -0.25335744
vn 0.53457206 -0.80625224 -0.25335744
vn 0.53457206 -0.80625224 -0.25335744
vn -0.53457206 -0.80625224 -0.25335744
vn -0.53457206 -0.80625224 -0.25335744
vn -0.53457206 -0.80625224 -0.25335744
vn 0 1 0
vn 0 1 0
vn 0 1 0
vn 0 1 0
vn 0 1 0
vn 0 1 0
vn 0 -0.72753674 0.6860688
vn 0 -0.72753674 0.6860688
vn 0 -0.72753674 0.6860688
vn 0 -0.7275363 0.68606925
vn 0 -0.7275363 0.68606925
vn 0 -0.7275363 0.68606925
vn 0 -0.72753644 0.686069
vn 0 -0.72753644 0.686069
vn 0 -0.72753644 0.686069
vn 0 -0.7275363 0.68606925
vn 0 -0.7275363 0.68606925
vn 0 -0.7275363 0.68606925
vn 0 -0.72753674 0.6860688
vn 0 -0.72753674 0.6860688
vn 0 -0.72753674 0.6860688
vn -0 0.99346787 0.11411207
vn -0 0.99346787 0.11411207
vn -0 0.99346787 0.11411207
vn 0 -0.99192166 0.12685262
vn 0 -0.99192166 0.12685262
vn 0 -0.99192166 0.12685262
vn 0 -0.99192154 0.1268526
vn 0 -0.99192154 0.1268526
vn 0 -0.99192154 0.1268526
vn 0 -0.99192154 0.1268526
vn 0 -0.99192154 0.1268526
vn 0 -0.99192154 0.1268526
vn 0 -0.99192166 0.12685262
vn 0 -0.99192166 0.12685262
vn 0 -0.99192166 0.12685262
f 1//1 2//2 3//3
f 4//4 5//5 6//6
f 7//7 8//8 9//9
f 10//10 11//11 12//12
f 13//13 14//14 15//15
f 16//16 17//17 18//18
f 19//19 20//20 21//21
f 22//22 23//23 24//24
f 25//25 26//26 27//27
f 28//28 29//29 30//30
f 31//31 32//32 33//33
f 34//34 35//35 36//36
f 37//37 38//38 39//39
f 40//40 41//41 42//42
f 43//43 44//44 45//45
f 46//46 47//47 48//48
f 49//49 50//50 51//51
f 52//52 53//53 54//54
f 55//55 56//56 57//57
f 58//58 59//59 60//60
f 61//61 62//62 63//63
f 64//64 65//65 66//66
f 67//67 68//68 69//69
f 70//70 71//71 72//72
f 73//73 74//74 75//75
f 76//76 77//77 78//78
f 79//79 80//80 81//81
f 82//82 83//83 84//84
f 85//85 86//86 87//87
f 88//88 89//89 90//90
f 91//91 92//92 93//93
f 94//94 95//95 96//96
f 97//97 98//98 99//99
f 100//100 101//101 102//102
f 103//103 104//104 105//105
f 106//106 107//107 108//108
f 109//109 110//110 111//111
f 112//112 113//113 114//114
f 115//115 116//116 117//117
f 118//118 119//119 120//120
