# Exported from SharpOpenGl procedural mesh
o vesper_corvette_veteran_54
# vertices 120
v -0.36574572 0.13801266 -2.7991817
v 0.36574572 0.13801266 -2.7991817
v 0 0.2839118 -2.2762437
v -0.36574572 0.13801266 -2.7991817
v 0 0.2839118 -2.2762437
v -0.51536894 0.13801266 -1.6370971
v 0.36574572 0.13801266 -2.7991817
v 0.51536894 0.13801266 -1.6370971
v 0 0.2839118 -2.2762437
v -0.36574572 0 -2.7991817
v -0.51536894 0 -1.6370971
v 0.36574572 0 -2.7991817
v 0.36574572 0 -2.7991817
v -0.51536894 0 -1.6370971
v 0.51536894 0 -1.6370971
v -0.51536894 0.13801266 -1.6370971
v 0.51536894 0.13801266 -1.6370971
v 0 0.2839118 -1.1141591
v -0.51536894 0.13801266 -1.6370971
v 0 0.2839118 -1.1141591
v -0.6249008 0.13801266 -0.47501254
v 0.51536894 0.13801266 -1.6370971
v 0.6249008 0.13801266 -0.47501254
v 0 0.2839118 -1.1141591
v -0.51536894 0 -1.6370971
v -0.6249008 0 -0.47501254
v 0.51536894 0 -1.6370971
v 0.51536894 0 -1.6370971
v -0.6249008 0 -0.47501254
v 0.6249008 0 -0.47501254
v -0.6249008 0.13801266 -0.47501254
v 0.6249008 0.13801266 -0.47501254
v 0 0.2839118 0.047925532
v -0.6249008 0.13801266 -0.47501254
v 0 0.2839118 0.047925532
v -0.6649922 0.13801266 0.68707204
v 0.6249008 0.13801266 -0.47501254
v 0.6649922 0.13801266 0.68707204
v 0 0.2839118 0.047925532
v -0.6249008 0 -0.47501254
v -0.6649922 0 0.68707204
v 0.6249008 0 -0.47501254
v 0.6249008 0 -0.47501254
v -0.6649922 0 0.68707204
v 0.6649922 0 0.68707204
v -0.6649922 0.13801266 0.68707204
v 0.6649922 0.13801266 0.68707204
v 0 0.2839118 1.21001
v -0.6649922 0.13801266 0.68707204
v 0 0.2839118 1.21001
v -0.6249008 0.13801266 1.8491566
v 0.6649922 0.13801266 0.68707204
v 0.6249008 0.13801266 1.8491566
v 0 0.2839118 1.21001
v -0.6649922 0 0.68707204
v -0.6249008 0 1.8491566
v 0.6649922 0 0.68707204
v 0.6649922 0 0.68707204
v -0.6249008 0 1.8491566
v 0.6249008 0 1.8491566
v -0.6249008 0.13801266 1.8491566
v 0.6249008 0.13801266 1.8491566
v 0 0.2839118 2.3720946
v -0.6249008 0.13801266 1.8491566
v 0 0.2839118 2.3720946
v -0.47719353 0.13801266 3.0112412
v 0.6249008 0.13801266 1.8491566
v 0.47719353 0.13801266 3.0112412
v 0 0.2839118 2.3720946
v -0.6249008 0 1.8491566
v -0.47719353 0 3.0112412
v 0.6249008 0 1.8491566
v 0.6249008 0 1.8491566
v -0.47719353 0 3.0112412
v 0.47719353 0 3.0112412
v -0.47719353 0.13801266 3.0112412
v 0.47719353 0.13801266 3.0112412
v 0 0.2839118 3.5341792
v -0.47719353 0.13801266 3.0112412
v 0 0.2839118 3.5341792
v -0 0.13801266 4.1733255
v 0.47719353 0.13801266 3.0112412
v 0 0.13801266 4.1733255
v 0 0.2839118 3.5341792
v -0.47719353 0 3.0112412
v -0 0 4.1733255
v 0.47719353 0 3.0112412
v 0.47719353 0 3.0112412
v -0 0 4.1733255
v 0 0 4.1733255
v 0 0.30757108 -2.2181394
v -0.053199377 0.2444796 -2.2979386
v 0.053199377 0.2444796 -2.2979386
v 0 0.30757108 -1.0560548
v -0.053199377 0.2444796 -1.1358539
v 0.053199377 0.2444796 -1.1358539
v 0 0.30757108 0.10602975
v -0.053199377 0.2444796 0.026230685
v 0.053199377 0.2444796 0.026230685
v 0 0.30757108 1.2681143
v -0.053199377 0.2444796 1.1883153
v 0.053199377 0.2444796 1.1883153
v 0 0.30757108 2.430199
v -0.053199377 0.2444796 2.3503997
v 0.053199377 0.2444796 2.3503997
v -0.27929673 0.11041014 -0.76341325
v 0.27929673 0.11041014 -0.76341325
v 0 0.1656152 -1.425038
v -0.4815461 0.04381354 -2.743862
v -0.61913073 0 -3.0465481
v -0.3439615 0 -3.0465481
v -0.16051537 0.04381354 -2.743862
v -0.29809996 0 -3.0465481
v -0.022930771 0 -3.0465481
v 0.16051537 0.04381354 -2.743862
v 0.022930771 0 -3.0465481
v 0.29809996 0 -3.0465481
v 0.4815461 0.04381354 -2.743862
v 0.3439615 0 -3.0465481
v 0.61913073 0 -3.0465481
vn 0 -0.9632139 0.26873565
vn 0 -0.9632139 0.26873565
vn 0 -0.9632139 0.26873565
vn 0.31899044 -0.9468676 0.041071348
vn 0.31899044 -0.9468676 0.041071348
vn 0.31899044 -0.9468676 0.041071348
vn -0.31899044 -0.9468676 0.041071348
vn -0.31899044 -0.9468676 0.041071348
vn -0.31899044 -0.9468676 0.041071348
vn 0 1 -0
vn 0 1 -0
vn 0 1 -0
vn 0 1 -0
vn 0 1 -0
vn 0 1 -0
vn 0 -0.963214 0.26873565
vn 0 -0.963214 0.26873565
vn 0 -0.963214 0.26873565
vn 0.25009924 -0.9679332 0.023573019
vn 0.25009924 -0.9679332 0.023573019
vn 0.25009924 -0.9679332 0.023573019
vn -0.25009924 -0.9679332 0.023573019
vn -0.25009924 -0.9679332 0.023573019
vn -0.25009924 -0.9679332 0.023573019
vn 0 1 -0
vn 0 1 -0
vn 0 1 -0
vn 0 1 -0
vn 0 1 -0
vn 0 1 -0
vn 0 -0.9632139 0.2687356
vn 0 -0.9632139 0.2687356
vn 0 -0.9632139 0.2687356
vn 0.22129151 -0.9751778 0.007634458
vn 0.22129151 -0.9751778 0.007634458
vn 0.22129151 -0.9751778 0.007634458
vn -0.22129151 -0.9751778 0.007634458
vn -0.22129151 -0.9751778 0.007634458
vn -0.22129151 -0.9751778 0.007634458
vn 0 1 -0
vn 0 1 -0
vn 0 1 -0
vn 0 1 -0
vn 0 1 -0
vn 0 1 -0
vn 0 -0.96321404 0.26873568
vn 0 -0.96321404 0.26873568
vn 0 -0.96321404 0.26873568
vn 0.21998681 -0.9754733 -0.0075894464
vn 0.21998681 -0.9754733 -0.0075894464
vn 0.21998681 -0.9754733 -0.0075894464
vn -0.21998681 -0.9754733 -0.0075894464
vn -0.21998681 -0.9754733 -0.0075894464
vn -0.21998681 -0.9754733 -0.0075894464
vn 0 1 0
vn 0 1 0
vn 0 1 0
vn 0 1 0
vn 0 1 0
vn 0 1 0
vn 0 -0.9632139 0.26873562
vn 0 -0.9632139 0.26873562
vn 0 -0.9632139 0.26873562
vn 0.25265014 -0.9670246 -0.032113213
vn 0.25265014 -0.9670246 -0.032113213
vn 0.25265014 -0.9670246 -0.032113213
vn -0.25265014 -0.9670246 -0.032113213
vn -0.25265014 -0.9670246 -0.032113213
vn -0.25265014 -0.9670246 -0.032113213
vn 0 1 0
vn 0 1 0
vn 0 1 0
vn 0 1 0
vn 0 1 0
vn 0 1 0
vn 0 -0.963214 0.26873565
vn 0 -0.963214 0.26873565
vn 0 -0.963214 0.26873565
vn 0.47648093 -0.85713655 -0.19566017
vn 0.47648093 -0.85713655 -0.19566017
vn 0.47648093 -0.85713655 -0.19566017
vn -0.47648093 -0.85713655 -0.19566017
vn -0.47648093 -0.85713655 -0.19566017
vn -0.47648093 -0.85713655 -0.19566017
vn 0 1 0
vn 0 1 0
vn 0 1 0
vn 0 1 0
vn 0 1 0
vn 0 1 0
vn 0 -0.78444207 0.6202021
vn 0 -0.78444207 0.6202021
vn 0 -0.78444207 0.6202021
vn 0 -0.78444165 0.62020266
vn 0 -0.78444165 0.62020266
vn 0 -0.78444165 0.62020266
vn 0 -0.78444165 0.62020266
vn 0 -0.78444165 0.62020266
vn 0 -0.78444165 0.62020266
vn 0 -0.78444165 0.62020266
vn 0 -0.78444165 0.62020266
vn 0 -0.78444165 0.62020266
vn 0 -0.78444207 0.6202021
vn 0 -0.78444207 0.6202021
vn 0 -0.78444207 0.6202021
vn -0 0.9965371 0.08314969
vn -0 0.9965371 0.08314969
vn -0 0.9965371 0.08314969
vn 0 -0.98968565 0.14325605
vn 0 -0.98968565 0.14325605
vn 0 -0.98968565 0.14325605
vn 0 -0.98968565 0.14325605
vn 0 -0.98968565 0.14325605
vn 0 -0.98968565 0.14325605
vn 0 -0.98968565 0.14325605
vn 0 -0.98968565 0.14325605
vn 0 -0.98968565 0.14325605
vn 0 -0.98968565 0.14325605
vn 0 -0.98968565 0.14325605
vn 0 -0.98968565 0.14325605
f 1//1 2//2 3//3
f 4//4 5//5 6//6
f 7//7 8//8 9//9
f 10//10 11//11 12//12
f 13//13 14//14 15//15
f 16//16 17//17 18//18
f 19//19 20//20 21//21
f 22//22 23//23 24//24
f 25//25 26//26 27//27
f 28//28 29//29 30//30
f 31//31 32//32 33//33
f 34//34 35//35 36//36
f 37//37 38//38 39//39
f 40//40 41//41 42//42
f 43//43 44//44 45//45
f 46//46 47//47 48//48
f 49//49 50//50 51//51
f 52//52 53//53 54//54
f 55//55 56//56 57//57
f 58//58 59//59 60//60
f 61//61 62//62 63//63
f 64//64 65//65 66//66
f 67//67 68//68 69//69
f 70//70 71//71 72//72
f 73//73 74//74 75//75
f 76//76 77//77 78//78
f 79//79 80//80 81//81
f 82//82 83//83 84//84
f 85//85 86//86 87//87
f 88//88 89//89 90//90
f 91//91 92//92 93//93
f 94//94 95//95 96//96
f 97//97 98//98 99//99
f 100//100 101//101 102//102
f 103//103 104//104 105//105
f 106//106 107//107 108//108
f 109//109 110//110 111//111
f 112//112 113//113 114//114
f 115//115 116//116 117//117
f 118//118 119//119 120//120
