# Exported from SharpOpenGl procedural mesh
o vesper_corvette_mk2_21
# vertices 228
v -0.23558865 0.11772657 -1.4035083
v 0.23558865 0.11772657 -1.4035083
v 0 0.24218039 -1.102073
v -0.23558865 0.11772657 -1.4035083
v 0 0.24218039 -1.102073
v -0.35338297 0.11772657 -0.73365206
v 0.23558865 0.11772657 -1.4035083
v 0.35338297 0.11772657 -0.73365206
v 0 0.24218039 -1.102073
v -0.23558865 0 -1.4035083
v -0.35338297 0 -0.73365206
v 0.23558865 0 -1.4035083
v 0.23558865 0 -1.4035083
v -0.35338297 0 -0.73365206
v 0.35338297 0 -0.73365206
v -0.23558865 0 -1.4035083
v -0.23558865 0.11772657 -1.4035083
v -0.35338297 0.11772657 -0.73365206
v -0.23558865 0 -1.4035083
v -0.35338297 0.11772657 -0.73365206
v -0.35338297 0 -0.73365206
v 0.23558865 0 -1.4035083
v 0.35338297 0.11772657 -0.73365206
v 0.23558865 0.11772657 -1.4035083
v 0.23558865 0 -1.4035083
v 0.35338297 0 -0.73365206
v 0.35338297 0.11772657 -0.73365206
v -0.35338297 0.11772657 -0.73365206
v 0.35338297 0.11772657 -0.73365206
v 0 0.24218039 -0.43221676
v -0.35338297 0.11772657 -0.73365206
v 0 0.24218039 -0.43221676
v -0.43961444 0.11772657 -0.063795805
v 0.35338297 0.11772657 -0.73365206
v 0.43961444 0.11772657 -0.063795805
v 0 0.24218039 -0.43221676
v -0.35338297 0 -0.73365206
v -0.43961444 0 -0.063795805
v 0.35338297 0 -0.73365206
v 0.35338297 0 -0.73365206
v -0.43961444 0 -0.063795805
v 0.43961444 0 -0.063795805
v -0.35338297 0 -0.73365206
v -0.35338297 0.11772657 -0.73365206
v -0.43961444 0.11772657 -0.063795805
v -0.35338297 0 -0.73365206
v -0.43961444 0.11772657 -0.063795805
v -0.43961444 0 -0.063795805
v 0.35338297 0 -0.73365206
v 0.43961444 0.11772657 -0.063795805
v 0.35338297 0.11772657 -0.73365206
v 0.35338297 0 -0.73365206
v 0.43961444 0 -0.063795805
v 0.43961444 0.11772657 -0.063795805
v -0.43961444 0.11772657 -0.063795805
v 0.43961444 0.11772657 -0.063795805
v 0 0.24218039 0.23763949
v -0.43961444 0.11772657 -0.063795805
v 0 0.24218039 0.23763949
v -0.4711773 0.11772657 0.6060604
v 0.43961444 0.11772657 -0.063795805
v 0.4711773 0.11772657 0.6060604
v 0 0.24218039 0.23763949
v -0.43961444 0 -0.063795805
v -0.4711773 0 0.6060604
v 0.43961444 0 -0.063795805
v 0.43961444 0 -0.063795805
v -0.4711773 0 0.6060604
v 0.4711773 0 0.6060604
v -0.43961444 0 -0.063795805
v -0.43961444 0.11772657 -0.063795805
v -0.4711773 0.11772657 0.6060604
v -0.43961444 0 -0.063795805
v -0.4711773 0.11772657 0.6060604
v -0.4711773 0 0.6060604
v 0.43961444 0 -0.063795805
v 0.4711773 0.11772657 0.6060604
v 0.43961444 0.11772657 -0.063795805
v 0.43961444 0 -0.063795805
v 0.4711773 0 0.6060604
v 0.4711773 0.11772657 0.6060604
v -0.4711773 0.11772657 0.6060604
v 0.4711773 0.11772657 0.6060604
v 0 0.24218039 0.90749574
v -0.4711773 0.11772657 0.6060604
v 0 0.24218039 0.90749574
v -0.43961442 0.11772657 1.2759167
v 0.4711773 0.11772657 0.6060604
v 0.43961442 0.11772657 1.2759167
v 0 0.24218039 0.90749574
v -0.4711773 0 0.6060604
v -0.43961442 0 1.2759167
v 0.4711773 0 0.6060604
v 0.4711773 0 0.6060604
v -0.43961442 0 1.2759167
v 0.43961442 0 1.2759167
v -0.4711773 0 0.6060604
v -0.4711773 0.11772657 0.6060604
v -0.43961442 0.11772657 1.2759167
v -0.4711773 0 0.6060604
v -0.43961442 0.11772657 1.2759167
v -0.43961442 0 1.2759167
v 0.4711773 0 0.6060604
v 0.43961442 0.11772657 1.2759167
v 0.4711773 0.11772657 0.6060604
v 0.4711773 0 0.6060604
v 0.43961442 0 1.2759167
v 0.43961442 0.11772657 1.2759167
v -0.43961442 0.11772657 1.2759167
v 0.43961442 0.11772657 1.2759167
v 0 0.24218039 1.5773519
v -0.43961442 0.11772657 1.2759167
v 0 0.24218039 1.5773519
v -0.353383 0.11772657 1.9457728
v 0.43961442 0.11772657 1.2759167
v 0.353383 0.11772657 1.9457728
v 0 0.24218039 1.5773519
v -0.43961442 0 1.2759167
v -0.353383 0 1.9457728
v 0.43961442 0 1.2759167
v 0.43961442 0 1.2759167
v -0.353383 0 1.9457728
v 0.353383 0 1.9457728
v -0.43961442 0 1.2759167
v -0.43961442 0.11772657 1.2759167
v -0.353383 0.11772657 1.9457728
v -0.43961442 0 1.2759167
v -0.353383 0.11772657 1.9457728
v -0.353383 0 1.9457728
v 0.43961442 0 1.2759167
v 0.353383 0.11772657 1.9457728
v 0.43961442 0.11772657 1.2759167
v 0.43961442 0 1.2759167
v 0.353383 0 1.9457728
v 0.353383 0.11772657 1.9457728
v -0.353383 0.11772657 1.9457728
v 0.353383 0.11772657 1.9457728
v 0 0.24218039 2.247208
v -0.353383 0.11772657 1.9457728
v 0 0.24218039 2.247208
v -0 0.11772657 2.6156292
v 0.353383 0.11772657 1.9457728
v 0 0.11772657 2.6156292
v 0 0.24218039 2.247208
v -0.353383 0 1.9457728
v -0 0 2.6156292
v 0.353383 0 1.9457728
v 0.353383 0 1.9457728
v -0 0 2.6156292
v 0 0 2.6156292
v -0.353383 0 1.9457728
v -0.353383 0.11772657 1.9457728
v -0 0.11772657 2.6156292
v -0.353383 0 1.9457728
v -0 0.11772657 2.6156292
v -0 0 2.6156292
v 0.353383 0 1.9457728
v 0 0.11772657 2.6156292
v 0.353383 0.11772657 1.9457728
v 0.353383 0 1.9457728
v 0 0 2.6156292
v 0 0.11772657 2.6156292
v -0.1717834 0 2.6156292
v 0.1717834 0 2.6156292
v 0 0.20585334 2.7432208
v -0.1717834 0 -1.4035083
v 0 0.070635945 -1.499202
v 0.1717834 0 -1.4035083
v 0 0.26236206 -1.0685802
v -0.04908097 0.20854422 -1.1372935
v 0.04908097 0.20854422 -1.1372935
v 0 0.26236206 -0.39872396
v -0.04908097 0.20854422 -0.46743733
v 0.04908097 0.20854422 -0.46743733
v 0 0.26236206 0.27113223
v -0.04908097 0.20854422 0.20241886
v 0.04908097 0.20854422 0.20241886
v 0 0.26236206 0.9409884
v -0.04908097 0.20854422 0.87227505
v 0.04908097 0.20854422 0.87227505
v 0 0.26236206 1.6108447
v -0.04908097 0.20854422 1.5421314
v 0.04908097 0.20854422 1.5421314
v -0.20614007 0.09418126 -0.68006355
v 0.20614007 0.09418126 -0.68006355
v 0 0.16145359 -1.0819774
v -0.29617828 0.03636342 -0.40597346
v -0.3977251 0 -0.46182424
v -0.19463144 0 -0.46182424
v 0 0.03636342 -0.40597346
v -0.10154684 0 -0.46182424
v 0.10154684 0 -0.46182424
v 0.29617828 0.03636342 -0.40597346
v 0.19463144 0 -0.46182424
v 0.3977251 0 -0.46182424
v -0.16044126 0.022727137 -0.39437425
v 0.16044126 0.022727137 -0.39437425
v 0 0.099999405 -0.30737993
v -0.17905818 0.022727137 0.09279394
v 0.17905818 0.022727137 0.09279394
v 0 0.099999405 0.17978826
v -0.1861692 0.022727137 0.5799621
v 0.1861692 0.022727137 0.5799621
v 0 0.099999405 0.66695637
v -0.17905818 0.022727137 1.0671303
v 0.17905818 0.022727137 1.0671303
v 0 0.099999405 1.1541246
v -0.16044126 0.022727137 1.5542984
v 0.16044126 0.022727137 1.5542984
v 0 0.099999405 1.6412927
v 0 0.24999852 -0.038664103
v -0.059235655 0.19090796 -0.16915558
v 0.059235655 0.19090796 -0.16915558
v 0 0.24999852 0.38664147
v -0.059235655 0.19090796 0.25615
v 0.059235655 0.19090796 0.25615
v 0 0.24999852 0.811947
v -0.059235655 0.19090796 0.6814555
v 0.059235655 0.19090796 0.6814555
v 0 0.24999852 1.2372526
v -0.059235655 0.19090796 1.1067611
v 0.059235655 0.19090796 1.1067611
v 0 0.24999852 1.6625581
v -0.059235655 0.19090796 1.5320666
v 0.059235655 0.19090796 1.5320666
v -0.11847131 0 -1.2324195
v 0.11847131 0 -1.2324195
v 0 0.022727137 -1.362911
vn 0 -0.9243178 0.38162372
vn 0 -0.9243178 0.38162372
vn 0 -0.9243178 0.38162372
vn 0.3950309 -0.9160376 0.06946624
vn 0.3950309 -0.9160376 0.06946624
vn 0.3950309 -0.9160376 0.06946624
vn -0.3950309 -0.9160376 0.06946624
vn -0.3950309 -0.9160376 0.06946624
vn -0.3950309 -0.9160376 0.06946624
vn 0 1 -0
vn 0 1 -0
vn 0 1 -0
vn 0 1 -0
vn 0 1 -0
vn 0 1 -0
vn 0.984888 -0 0.1731927
vn 0.984888 -0 0.1731927
vn 0.984888 -0 0.1731927
vn 0.984888 0 0.1731927
vn 0.984888 0 0.1731927
vn 0.984888 0 0.1731927
vn -0.984888 0 0.1731927
vn -0.984888 0 0.1731927
vn -0.984888 0 0.1731927
vn -0.984888 0 0.1731927
vn -0.984888 0 0.1731927
vn -0.984888 0 0.1731927
vn 0 -0.9243178 0.38162377
vn 0 -0.9243178 0.38162377
vn 0 -0.9243178 0.38162377
vn 0.30223966 -0.9524376 0.038907707
vn 0.30223966 -0.9524376 0.038907707
vn 0.30223966 -0.9524376 0.038907707
vn -0.30223966 -0.9524376 0.038907707
vn -0.30223966 -0.9524376 0.038907707
vn -0.30223966 -0.9524376 0.038907707
vn 0 1 -0
vn 0 1 -0
vn 0 1 -0
vn 0 1 -0
vn 0 1 -0
vn 0 1 -0
vn 0.9918156 -0 0.12767772
vn 0.9918156 -0 0.12767772
vn 0.9918156 -0 0.12767772
vn 0.9918156 0 0.12767772
vn 0.9918156 0 0.12767772
vn 0.9918156 0 0.12767772
vn -0.9918156 0 0.12767772
vn -0.9918156 0 0.12767772
vn -0.9918156 0 0.12767772
vn -0.9918156 0 0.12767772
vn -0.9918156 0 0.12767772
vn -0.9918156 0 0.12767772
vn 0 -0.9243178 0.38162377
vn 0 -0.9243178 0.38162377
vn 0 -0.9243178 0.38162377
vn 0.2644522 -0.9643182 0.012460688
vn 0.2644522 -0.9643182 0.012460688
vn 0.2644522 -0.9643182 0.012460688
vn -0.2644522 -0.9643182 0.012460688
vn -0.2644522 -0.9643182 0.012460688
vn -0.2644522 -0.9643182 0.012460688
vn 0 1 -0
vn 0 1 -0
vn 0 1 -0
vn 0 1 -0
vn 0 1 -0
vn 0 1 -0
vn 0.9988918 -0 0.047066648
vn 0.9988918 -0 0.047066648
vn 0.9988918 -0 0.047066648
vn 0.9988918 0 0.047066648
vn 0.9988918 0 0.047066648
vn 0.9988918 0 0.047066648
vn -0.9988918 0 0.047066648
vn -0.9988918 0 0.047066648
vn -0.9988918 0 0.047066648
vn -0.9988918 0 0.047066648
vn -0.9988918 0 0.047066648
vn -0.9988918 0 0.047066648
vn 0 -0.9243178 0.38162372
vn 0 -0.9243178 0.38162372
vn 0 -0.9243178 0.38162372
vn 0.26275244 -0.96478385 -0.012380607
vn 0.26275244 -0.96478385 -0.012380607
vn 0.26275244 -0.96478385 -0.012380607
vn -0.26275244 -0.96478385 -0.012380607
vn -0.26275244 -0.96478385 -0.012380607
vn -0.26275244 -0.96478385 -0.012380607
vn 0 1 0
vn 0 1 0
vn 0 1 0
vn 0 1 0
vn 0 1 0
vn 0 1 0
vn 0.9988918 0 -0.047066685
vn 0.9988918 0 -0.047066685
vn 0.9988918 0 -0.047066685
vn 0.9988918 0 -0.047066685
vn 0.9988918 0 -0.047066685
vn 0.9988918 0 -0.047066685
vn -0.9988918 0 -0.047066685
vn -0.9988918 0 -0.047066685
vn -0.9988918 0 -0.047066685
vn -0.9988918 0 -0.047066685
vn -0.9988918 0 -0.047066685
vn -0.9988918 0 -0.047066685
vn 0 -0.92431766 0.38162383
vn 0 -0.92431766 0.38162383
vn 0 -0.92431766 0.38162383
vn 0.29632342 -0.95432556 -0.038146082
vn 0.29632342 -0.95432556 -0.038146082
vn 0.29632342 -0.95432556 -0.038146082
vn -0.29632342 -0.95432556 -0.038146082
vn -0.29632342 -0.95432556 -0.038146082
vn -0.29632342 -0.95432556 -0.038146082
vn 0 1 0
vn 0 1 0
vn 0 1 0
vn 0 1 0
vn 0 1 0
vn 0 1 0
vn 0.99181575 0 -0.12767768
vn 0.99181575 0 -0.12767768
vn 0.99181575 0 -0.12767768
vn 0.99181575 0 -0.12767768
vn 0.99181575 0 -0.12767768
vn 0.99181575 0 -0.12767768
vn -0.99181575 0 -0.12767768
vn -0.99181575 0 -0.12767768
vn -0.99181575 0 -0.12767768
vn -0.99181575 0 -0.12767768
vn -0.99181575 0 -0.12767768
vn -0.99181575 0 -0.12767768
vn 0 -0.9243178 0.38162374
vn 0 -0.9243178 0.38162374
vn 0 -0.9243178 0.38162374
vn 0.51866794 -0.8100085 -0.27362344
vn 0.51866794 -0.8100085 -0.27362344
vn 0.51866794 -0.8100085 -0.27362344
vn -0.51866794 -0.8100085 -0.27362344
vn -0.51866794 -0.8100085 -0.27362344
vn -0.51866794 -0.8100085 -0.27362344
vn 0 0.99999994 0
vn 0 0.99999994 0
vn 0 0.99999994 0
vn 0 1 0
vn 0 1 0
vn 0 1 0
vn 0.88446784 0 -0.4666013
vn 0.88446784 0 -0.4666013
vn 0.88446784 0 -0.4666013
vn 0.88446784 0 -0.4666013
vn 0.88446784 0 -0.4666013
vn 0.88446784 0 -0.4666013
vn -0.88446784 0 -0.4666013
vn -0.88446784 0 -0.4666013
vn -0.88446784 0 -0.4666013
vn -0.88446784 0 -0.4666013
vn -0.88446784 0 -0.4666013
vn -0.88446784 0 -0.4666013
vn 0 -0.526828 0.849972
vn 0 -0.526828 0.849972
vn 0 -0.526828 0.849972
vn 0 -0.80455446 -0.5938788
vn 0 -0.80455446 -0.5938788
vn 0 -0.80455446 -0.5938788
vn 0 -0.78727025 0.61660814
vn 0 -0.78727025 0.61660814
vn 0 -0.78727025 0.61660814
vn 0 -0.7872705 0.6166078
vn 0 -0.7872705 0.6166078
vn 0 -0.7872705 0.6166078
vn 0 -0.7872705 0.6166078
vn 0 -0.7872705 0.6166078
vn 0 -0.7872705 0.6166078
vn 0 -0.7872705 0.6166078
vn 0 -0.7872705 0.6166078
vn 0 -0.7872705 0.6166078
vn 0 -0.78727025 0.61660814
vn 0 -0.78727025 0.61660814
vn 0 -0.78727025 0.61660814
vn -0 0.98627955 0.16508345
vn -0 0.98627955 0.16508345
vn -0 0.98627955 0.16508345
vn 0 -0.83802915 0.54562545
vn 0 -0.83802915 0.54562545
vn 0 -0.83802915 0.54562545
vn 0 -0.8380292 0.5456255
vn 0 -0.8380292 0.5456255
vn 0 -0.8380292 0.5456255
vn 0 -0.83802915 0.54562545
vn 0 -0.83802915 0.54562545
vn 0 -0.83802915 0.54562545
vn 0 -0.7476483 0.6640948
vn 0 -0.7476483 0.6640948
vn 0 -0.7476483 0.6640948
vn 0 -0.74764836 0.66409487
vn 0 -0.74764836 0.66409487
vn 0 -0.74764836 0.66409487
vn 0 -0.74764824 0.664095
vn 0 -0.74764824 0.664095
vn 0 -0.74764824 0.664095
vn 0 -0.74764824 0.664095
vn 0 -0.74764824 0.664095
vn 0 -0.74764824 0.664095
vn 0 -0.74764824 0.664095
vn 0 -0.74764824 0.664095
vn 0 -0.74764824 0.664095
vn 0 -0.91095394 0.41250807
vn 0 -0.91095394 0.41250807
vn 0 -0.91095394 0.41250807
vn 0 -0.9109539 0.4125081
vn 0 -0.9109539 0.4125081
vn 0 -0.9109539 0.4125081
vn 0 -0.91095394 0.412508
vn 0 -0.91095394 0.412508
vn 0 -0.91095394 0.412508
vn 0 -0.91095394 0.412508
vn 0 -0.91095394 0.412508
vn 0 -0.91095394 0.412508
vn 0 -0.91095394 0.412508
vn 0 -0.91095394 0.412508
vn 0 -0.91095394 0.412508
vn -0 0.98516977 0.17158274
vn -0 0.98516977 0.17158274
vn -0 0.98516977 0.17158274
f 1//1 2//2 3//3
f 4//4 5//5 6//6
f 7//7 8//8 9//9
f 10//10 11//11 12//12
f 13//13 14//14 15//15
f 16//16 17//17 18//18
f 19//19 20//20 21//21
f 22//22 23//23 24//24
f 25//25 26//26 27//27
f 28//28 29//29 30//30
f 31//31 32//32 33//33
f 34//34 35//35 36//36
f 37//37 38//38 39//39
f 40//40 41//41 42//42
f 43//43 44//44 45//45
f 46//46 47//47 48//48
f 49//49 50//50 51//51
f 52//52 53//53 54//54
f 55//55 56//56 57//57
f 58//58 59//59 60//60
f 61//61 62//62 63//63
f 64//64 65//65 66//66
f 67//67 68//68 69//69
f 70//70 71//71 72//72
f 73//73 74//74 75//75
f 76//76 77//77 78//78
f 79//79 80//80 81//81
f 82//82 83//83 84//84
f 85//85 86//86 87//87
f 88//88 89//89 90//90
f 91//91 92//92 93//93
f 94//94 95//95 96//96
f 97//97 98//98 99//99
f 100//100 101//101 102//102
f 103//103 104//104 105//105
f 106//106 107//107 108//108
f 109//109 110//110 111//111
f 112//112 113//113 114//114
f 115//115 116//116 117//117
f 118//118 119//119 120//120
f 121//121 122//122 123//123
f 124//124 125//125 126//126
f 127//127 128//128 129//129
f 130//130 131//131 132//132
f 133//133 134//134 135//135
f 136//136 137//137 138//138
f 139//139 140//140 141//141
f 142//142 143//143 144//144
f 145//145 146//146 147//147
f 148//148 149//149 150//150
f 151//151 152//152 153//153
f 154//154 155//155 156//156
f 157//157 158//158 159//159
f 160//160 161//161 162//162
f 163//163 164//164 165//165
f 166//166 167//167 168//168
f 169//169 170//170 171//171
f 172//172 173//173 174//174
f 175//175 176//176 177//177
f 178//178 179//179 180//180
f 181//181 182//182 183//183
f 184//184 185//185 186//186
f 187//187 188//188 189//189
f 190//190 191//191 192//192
f 193//193 194//194 195//195
f 196//196 197//197 198//198
f 199//199 200//200 201//201
f 202//202 203//203 204//204
f 205//205 206//206 207//207
f 208//208 209//209 210//210
f 211//211 212//212 213//213
f 214//214 215//215 216//216
f 217//217 218//218 219//219
f 220//220 221//221 222//222
f 223//223 224//224 225//225
f 226//226 227//227 228//228
