# Exported from SharpOpenGl procedural mesh
o vesper_destroyer_mk2_25
# vertices 228
v -0.43731943 0.28685066 -4.1738815
v 0.43731943 0.28685066 -4.1738815
v 0 0.59009284 -3.2774458
v -0.43731943 0.28685066 -4.1738815
v 0 0.59009284 -3.2774458
v -0.6559791 0.28685066 -2.1818018
v 0.43731943 0.28685066 -4.1738815
v 0.6559791 0.28685066 -2.1818018
v 0 0.59009284 -3.2774458
v -0.43731943 0 -4.1738815
v -0.6559791 0 -2.1818018
v 0.43731943 0 -4.1738815
v 0.43731943 0 -4.1738815
v -0.6559791 0 -2.1818018
v 0.6559791 0 -2.1818018
v -0.43731943 0 -4.1738815
v -0.43731943 0.28685066 -4.1738815
v -0.6559791 0.28685066 -2.1818018
v -0.43731943 0 -4.1738815
v -0.6559791 0.28685066 -2.1818018
v -0.6559791 0 -2.1818018
v 0.43731943 0 -4.1738815
v 0.6559791 0.28685066 -2.1818018
v 0.43731943 0.28685066 -4.1738815
v 0.43731943 0 -4.1738815
v 0.6559791 0 -2.1818018
v 0.6559791 0.28685066 -2.1818018
v -0.6559791 0.28685066 -2.1818018
v 0.6559791 0.28685066 -2.1818018
v 0 0.59009284 -1.2853659
v -0.6559791 0.28685066 -2.1818018
v 0 0.59009284 -1.2853659
v -0.8160492 0.28685066 -0.18972206
v 0.6559791 0.28685066 -2.1818018
v 0.8160492 0.28685066 -0.18972206
v 0 0.59009284 -1.2853659
v -0.6559791 0 -2.1818018
v -0.8160492 0 -0.18972206
v 0.6559791 0 -2.1818018
v 0.6559791 0 -2.1818018
v -0.8160492 0 -0.18972206
v 0.8160492 0 -0.18972206
v -0.6559791 0 -2.1818018
v -0.6559791 0.28685066 -2.1818018
v -0.8160492 0.28685066 -0.18972206
v -0.6559791 0 -2.1818018
v -0.8160492 0.28685066 -0.18972206
v -0.8160492 0 -0.18972206
v 0.6559791 0 -2.1818018
v 0.8160492 0.28685066 -0.18972206
v 0.6559791 0.28685066 -2.1818018
v 0.6559791 0 -2.1818018
v 0.8160492 0 -0.18972206
v 0.8160492 0.28685066 -0.18972206
v -0.8160492 0.28685066 -0.18972206
v 0.8160492 0.28685066 -0.18972206
v 0 0.59009284 0.7067138
v -0.8160492 0.28685066 -0.18972206
v 0 0.59009284 0.7067138
v -0.87463886 0.28685066 1.8023577
v 0.8160492 0.28685066 -0.18972206
v 0.87463886 0.28685066 1.8023577
v 0 0.59009284 0.7067138
v -0.8160492 0 -0.18972206
v -0.87463886 0 1.8023577
v 0.8160492 0 -0.18972206
v 0.8160492 0 -0.18972206
v -0.87463886 0 1.8023577
v 0.87463886 0 1.8023577
v -0.8160492 0 -0.18972206
v -0.8160492 0.28685066 -0.18972206
v -0.87463886 0.28685066 1.8023577
v -0.8160492 0 -0.18972206
v -0.87463886 0.28685066 1.8023577
v -0.87463886 0 1.8023577
v 0.8160492 0 -0.18972206
v 0.87463886 0.28685066 1.8023577
v 0.8160492 0.28685066 -0.18972206
v 0.8160492 0 -0.18972206
v 0.87463886 0 1.8023577
v 0.87463886 0.28685066 1.8023577
v -0.87463886 0.28685066 1.8023577
v 0.87463886 0.28685066 1.8023577
v 0 0.59009284 2.6987934
v -0.87463886 0.28685066 1.8023577
v 0 0.59009284 2.6987934
v -0.81604916 0.28685066 3.7944374
v 0.87463886 0.28685066 1.8023577
v 0.81604916 0.28685066 3.7944374
v 0 0.59009284 2.6987934
v -0.87463886 0 1.8023577
v -0.81604916 0 3.7944374
v 0.87463886 0 1.8023577
v 0.87463886 0 1.8023577
v -0.81604916 0 3.7944374
v 0.81604916 0 3.7944374
v -0.87463886 0 1.8023577
v -0.87463886 0.28685066 1.8023577
v -0.81604916 0.28685066 3.7944374
v -0.87463886 0 1.8023577
v -0.81604916 0.28685066 3.7944374
v -0.81604916 0 3.7944374
v 0.87463886 0 1.8023577
v 0.81604916 0.28685066 3.7944374
v 0.87463886 0.28685066 1.8023577
v 0.87463886 0 1.8023577
v 0.81604916 0 3.7944374
v 0.81604916 0.28685066 3.7944374
v -0.81604916 0.28685066 3.7944374
v 0.81604916 0.28685066 3.7944374
v 0 0.59009284 4.690873
v -0.81604916 0.28685066 3.7944374
v 0 0.59009284 4.690873
v -0.65597916 0.28685066 5.786517
v 0.81604916 0.28685066 3.7944374
v 0.65597916 0.28685066 5.786517
v 0 0.59009284 4.690873
v -0.81604916 0 3.7944374
v -0.65597916 0 5.786517
v 0.81604916 0 3.7944374
v 0.81604916 0 3.7944374
v -0.65597916 0 5.786517
v 0.65597916 0 5.786517
v -0.81604916 0 3.7944374
v -0.81604916 0.28685066 3.7944374
v -0.65597916 0.28685066 5.786517
v -0.81604916 0 3.7944374
v -0.65597916 0.28685066 5.786517
v -0.65597916 0 5.786517
v 0.81604916 0 3.7944374
v 0.65597916 0.28685066 5.786517
v 0.81604916 0.28685066 3.7944374
v 0.81604916 0 3.7944374
v 0.65597916 0 5.786517
v 0.65597916 0.28685066 5.786517
v -0.65597916 0.28685066 5.786517
v 0.65597916 0.28685066 5.786517
v 0 0.59009284 6.682953
v -0.65597916 0.28685066 5.786517
v 0 0.59009284 6.682953
v -0 0.28685066 7.778597
v 0.65597916 0.28685066 5.786517
v 0 0.28685066 7.778597
v 0 0.59009284 6.682953
v -0.65597916 0 5.786517
v -0 0 7.778597
v 0.65597916 0 5.786517
v 0.65597916 0 5.786517
v -0 0 7.778597
v 0 0 7.778597
v -0.65597916 0 5.786517
v -0.65597916 0.28685066 5.786517
v -0 0.28685066 7.778597
v -0.65597916 0 5.786517
v -0 0.28685066 7.778597
v -0 0 7.778597
v 0.65597916 0 5.786517
v 0 0.28685066 7.778597
v 0.65597916 0.28685066 5.786517
v 0.65597916 0 5.786517
v 0 0 7.778597
v 0 0.28685066 7.778597
v -0.31887874 0 7.7785974
v 0.31887874 0 7.7785974
v 0 0.5015789 8.158041
v -0.31887874 0 -4.1738815
v 0 0.17211041 -4.458464
v 0.31887874 0 -4.1738815
v 0 0.6392672 -3.1778417
v -0.09110822 0.5081355 -3.3053932
v 0.09110822 0.5081355 -3.3053932
v 0 0.6392672 -1.1857619
v -0.09110822 0.5081355 -1.3133135
v 0.09110822 0.5081355 -1.3133135
v 0 0.6392672 0.8063178
v -0.09110822 0.5081355 0.6787663
v 0.09110822 0.5081355 0.6787663
v 0 0.6392672 2.7983975
v -0.09110822 0.5081355 2.670846
v 0.09110822 0.5081355 2.670846
v 0 0.6392672 4.7904778
v -0.09110822 0.5081355 4.662926
v 0.09110822 0.5081355 4.662926
v -0.3826545 0.22948053 -2.0224354
v 0.3826545 0.22948053 -2.0224354
v 0 0.3933952 -3.2176833
v -0.5497909 0.08860252 -1.207321
v -0.7854156 0 -1.3369147
v -0.31416625 0 -1.3369147
v 0 0.08860252 -1.207321
v -0.23562469 0 -1.3369147
v 0.23562469 0 -1.3369147
v 0.5497909 0.08860252 -1.207321
v 0.31416625 0 -1.3369147
v 0.7854156 0 -1.3369147
v -0.2978245 0.055376578 -1.1728262
v 0.2978245 0.055376578 -1.1728262
v 0 0.24365693 -0.9141145
v -0.3323828 0.055376578 0.27595913
v 0.3323828 0.055376578 0.27595913
v 0 0.24365693 0.5346708
v -0.34558287 0.055376578 1.7247444
v 0.34558287 0.055376578 1.7247444
v 0 0.24365693 1.9834561
v -0.3323828 0.055376578 3.1735296
v 0.3323828 0.055376578 3.1735296
v 0 0.24365693 3.4322412
v -0.2978245 0.055376578 4.622315
v 0.2978245 0.055376578 4.622315
v 0 0.24365693 4.8810267
v 0 0.60914236 -0.11498284
v -0.109958194 0.46516323 -0.5030503
v 0.109958194 0.46516323 -0.5030503
v 0 0.60914236 1.1498299
v -0.109958194 0.46516323 0.7617624
v 0.109958194 0.46516323 0.7617624
v 0 0.60914236 2.4146423
v -0.109958194 0.46516323 2.0265749
v 0.109958194 0.46516323 2.0265749
v 0 0.60914236 3.6794553
v -0.109958194 0.46516323 3.2913878
v 0.109958194 0.46516323 3.2913878
v 0 0.60914236 4.9442673
v -0.109958194 0.46516323 4.5561996
v 0.109958194 0.46516323 4.5561996
v -0.21991639 0 -3.6650817
v 0.21991639 0 -3.6650817
v 0 0.055376578 -4.053149
vn 0 -0.94726944 0.32043797
vn 0 -0.94726944 0.32043797
vn 0 -0.94726944 0.32043797
vn 0.49188778 -0.8689829 0.053991828
vn 0.49188778 -0.8689829 0.053991828
vn 0.49188778 -0.8689829 0.053991828
vn -0.49188778 -0.8689829 0.053991828
vn -0.49188778 -0.8689829 0.053991828
vn -0.49188778 -0.8689829 0.053991828
vn 0 0.99999994 -0
vn 0 0.99999994 -0
vn 0 0.99999994 -0
vn 0 1 -0
vn 0 1 -0
vn 0 1 -0
vn 0.9940297 -0 0.109109186
vn 0.9940297 -0 0.109109186
vn 0.9940297 -0 0.109109186
vn 0.9940297 0 0.109109186
vn 0.9940297 0 0.109109186
vn 0.9940297 0 0.109109186
vn -0.9940297 0 0.109109186
vn -0.9940297 0 0.109109186
vn -0.9940297 0 0.109109186
vn -0.9940297 0 0.109109186
vn -0.9940297 0 0.109109186
vn -0.9940297 0 0.109109186
vn 0 -0.9472695 0.32043794
vn 0 -0.9472695 0.32043794
vn 0 -0.9472695 0.32043794
vn 0.3843287 -0.92267966 0.030882066
vn 0.3843287 -0.92267966 0.030882066
vn 0.3843287 -0.92267966 0.030882066
vn -0.3843287 -0.92267966 0.030882066
vn -0.3843287 -0.92267966 0.030882066
vn -0.3843287 -0.92267966 0.030882066
vn 0 1 -0
vn 0 1 -0
vn 0 1 -0
vn 0 1 -0
vn 0 1 -0
vn 0 1 -0
vn 0.99678725 -0 0.08009511
vn 0.99678725 -0 0.08009511
vn 0.99678725 -0 0.08009511
vn 0.99678725 0 0.08009511
vn 0.99678725 0 0.08009511
vn 0.99678725 0 0.08009511
vn -0.99678725 0 0.08009511
vn -0.99678725 0 0.08009511
vn -0.99678725 0 0.08009511
vn -0.99678725 0 0.08009511
vn -0.99678725 0 0.08009511
vn -0.99678725 0 0.08009511
vn 0 -0.9472695 0.32043794
vn 0 -0.9472695 0.32043794
vn 0 -0.9472695 0.32043794
vn 0.33867592 -0.9408504 0.009960896
vn 0.33867592 -0.9408504 0.009960896
vn 0.33867592 -0.9408504 0.009960896
vn -0.33867592 -0.9408504 0.009960896
vn -0.33867592 -0.9408504 0.009960896
vn -0.33867592 -0.9408504 0.009960896
vn 0 1 -0
vn 0 1 -0
vn 0 1 -0
vn 0 0.99999994 -0
vn 0 0.99999994 -0
vn 0 0.99999994 -0
vn 0.99956775 -0 0.02939858
vn 0.99956775 -0 0.02939858
vn 0.99956775 -0 0.02939858
vn 0.99956775 0 0.02939858
vn 0.99956775 0 0.02939858
vn 0.99956775 0 0.02939858
vn -0.99956775 0 0.02939858
vn -0.99956775 0 0.02939858
vn -0.99956775 0 0.02939858
vn -0.99956775 0 0.02939858
vn -0.99956775 0 0.02939858
vn -0.99956775 0 0.02939858
vn 0 -0.94726944 0.32043797
vn 0 -0.94726944 0.32043797
vn 0 -0.94726944 0.32043797
vn 0.33660278 -0.94159466 -0.009899933
vn 0.33660278 -0.94159466 -0.009899933
vn 0.33660278 -0.94159466 -0.009899933
vn -0.33660278 -0.94159466 -0.009899933
vn -0.33660278 -0.94159466 -0.009899933
vn -0.33660278 -0.94159466 -0.009899933
vn 0 0.99999994 0
vn 0 0.99999994 0
vn 0 0.99999994 0
vn 0 1 0
vn 0 1 0
vn 0 1 0
vn 0.99956775 0 -0.029398607
vn 0.99956775 0 -0.029398607
vn 0.99956775 0 -0.029398607
vn 0.99956775 0 -0.029398607
vn 0.99956775 0 -0.029398607
vn 0.99956775 0 -0.029398607
vn -0.99956775 0 -0.029398607
vn -0.99956775 0 -0.029398607
vn -0.99956775 0 -0.029398607
vn -0.99956775 0 -0.029398607
vn -0.99956775 0 -0.029398607
vn -0.99956775 0 -0.029398607
vn 0 -0.94726944 0.32043797
vn 0 -0.94726944 0.32043797
vn 0 -0.94726944 0.32043797
vn 0.37725565 -0.9256129 -0.030313704
vn 0.37725565 -0.9256129 -0.030313704
vn 0.37725565 -0.9256129 -0.030313704
vn -0.37725565 -0.9256129 -0.030313704
vn -0.37725565 -0.9256129 -0.030313704
vn -0.37725565 -0.9256129 -0.030313704
vn 0 1 0
vn 0 1 0
vn 0 1 0
vn 0 1 0
vn 0 1 0
vn 0 1 0
vn 0.99678725 0 -0.08009505
vn 0.99678725 0 -0.08009505
vn 0.99678725 0 -0.08009505
vn 0.99678725 0 -0.08009505
vn 0.99678725 0 -0.08009505
vn 0.99678725 0 -0.08009505
vn -0.99678725 0 -0.08009505
vn -0.99678725 0 -0.08009505
vn -0.99678725 0 -0.08009505
vn -0.99678725 0 -0.08009505
vn -0.99678725 0 -0.08009505
vn -0.99678725 0 -0.08009505
vn 0 -0.94726956 0.32043803
vn 0 -0.94726956 0.32043803
vn 0 -0.94726956 0.32043803
vn 0.62944293 -0.74889266 -0.20727155
vn 0.62944293 -0.74889266 -0.20727155
vn 0.62944293 -0.74889266 -0.20727155
vn -0.62944293 -0.74889266 -0.20727155
vn -0.62944293 -0.74889266 -0.20727155
vn -0.62944293 -0.74889266 -0.20727155
vn 0 0.99999994 0
vn 0 0.99999994 0
vn 0 0.99999994 0
vn 0 1 0
vn 0 1 0
vn 0 1 0
vn 0.9498281 0 -0.31277233
vn 0.9498281 0 -0.31277233
vn 0.9498281 0 -0.31277233
vn 0.9498281 0 -0.31277233
vn 0.9498281 0 -0.31277233
vn 0.9498281 0 -0.31277233
vn -0.9498281 0 -0.31277233
vn -0.9498281 0 -0.31277233
vn -0.9498281 0 -0.31277233
vn -0.9498281 0 -0.31277233
vn -0.9498281 0 -0.31277233
vn -0.9498281 0 -0.31277233
vn 0 -0.60331166 0.7975055
vn 0 -0.60331166 0.7975055
vn 0 -0.60331166 0.7975055
vn 0 -0.85568243 -0.51750124
vn 0 -0.85568243 -0.51750124
vn 0 -0.85568243 -0.51750124
vn 0 -0.69725364 0.7168244
vn 0 -0.69725364 0.7168244
vn 0 -0.69725364 0.7168244
vn 0 -0.69725364 0.7168244
vn 0 -0.69725364 0.7168244
vn 0 -0.69725364 0.7168244
vn 0 -0.6972535 0.7168246
vn 0 -0.6972535 0.7168246
vn 0 -0.6972535 0.7168246
vn 0 -0.69725364 0.7168244
vn 0 -0.69725364 0.7168244
vn 0 -0.69725364 0.7168244
vn 0 -0.69725364 0.7168244
vn 0 -0.69725364 0.7168244
vn 0 -0.69725364 0.7168244
vn -0 0.9907271 0.13586695
vn -0 0.9907271 0.13586695
vn -0 0.9907271 0.13586695
vn 0 -0.8255055 0.5643941
vn 0 -0.8255055 0.5643941
vn 0 -0.8255055 0.5643941
vn 0 -0.82550555 0.5643941
vn 0 -0.82550555 0.5643941
vn 0 -0.82550555 0.5643941
vn 0 -0.8255055 0.5643941
vn 0 -0.8255055 0.5643941
vn 0 -0.8255055 0.5643941
vn 0 -0.80854815 0.5884301
vn 0 -0.80854815 0.5884301
vn 0 -0.80854815 0.5884301
vn 0 -0.8085481 0.58843005
vn 0 -0.8085481 0.58843005
vn 0 -0.8085481 0.58843005
vn 0 -0.8085482 0.58843005
vn 0 -0.8085482 0.58843005
vn 0 -0.8085482 0.58843005
vn 0 -0.80854803 0.5884302
vn 0 -0.80854803 0.5884302
vn 0 -0.80854803 0.5884302
vn 0 -0.8085483 0.58842987
vn 0 -0.8085483 0.58842987
vn 0 -0.8085483 0.58842987
vn 0 -0.93755156 0.34784636
vn 0 -0.93755156 0.34784636
vn 0 -0.93755156 0.34784636
vn 0 -0.93755156 0.34784636
vn 0 -0.93755156 0.34784636
vn 0 -0.93755156 0.34784636
vn 0 -0.93755156 0.34784636
vn 0 -0.93755156 0.34784636
vn 0 -0.93755156 0.34784636
vn 0 -0.93755156 0.34784636
vn 0 -0.93755156 0.34784636
vn 0 -0.93755156 0.34784636
vn 0 -0.9375516 0.34784615
vn 0 -0.9375516 0.34784615
vn 0 -0.9375516 0.34784615
vn -0 0.98997146 0.14126727
vn -0 0.98997146 0.14126727
vn -0 0.98997146 0.14126727
f 1//1 2//2 3//3
f 4//4 5//5 6//6
f 7//7 8//8 9//9
f 10//10 11//11 12//12
f 13//13 14//14 15//15
f 16//16 17//17 18//18
f 19//19 20//20 21//21
f 22//22 23//23 24//24
f 25//25 26//26 27//27
f 28//28 29//29 30//30
f 31//31 32//32 33//33
f 34//34 35//35 36//36
f 37//37 38//38 39//39
f 40//40 41//41 42//42
f 43//43 44//44 45//45
f 46//46 47//47 48//48
f 49//49 50//50 51//51
f 52//52 53//53 54//54
f 55//55 56//56 57//57
f 58//58 59//59 60//60
f 61//61 62//62 63//63
f 64//64 65//65 66//66
f 67//67 68//68 69//69
f 70//70 71//71 72//72
f 73//73 74//74 75//75
f 76//76 77//77 78//78
f 79//79 80//80 81//81
f 82//82 83//83 84//84
f 85//85 86//86 87//87
f 88//88 89//89 90//90
f 91//91 92//92 93//93
f 94//94 95//95 96//96
f 97//97 98//98 99//99
f 100//100 101//101 102//102
f 103//103 104//104 105//105
f 106//106 107//107 108//108
f 109//109 110//110 111//111
f 112//112 113//113 114//114
f 115//115 116//116 117//117
f 118//118 119//119 120//120
f 121//121 122//122 123//123
f 124//124 125//125 126//126
f 127//127 128//128 129//129
f 130//130 131//131 132//132
f 133//133 134//134 135//135
f 136//136 137//137 138//138
f 139//139 140//140 141//141
f 142//142 143//143 144//144
f 145//145 146//146 147//147
f 148//148 149//149 150//150
f 151//151 152//152 153//153
f 154//154 155//155 156//156
f 157//157 158//158 159//159
f 160//160 161//161 162//162
f 163//163 164//164 165//165
f 166//166 167//167 168//168
f 169//169 170//170 171//171
f 172//172 173//173 174//174
f 175//175 176//176 177//177
f 178//178 179//179 180//180
f 181//181 182//182 183//183
f 184//184 185//185 186//186
f 187//187 188//188 189//189
f 190//190 191//191 192//192
f 193//193 194//194 195//195
f 196//196 197//197 198//198
f 199//199 200//200 201//201
f 202//202 203//203 204//204
f 205//205 206//206 207//207
f 208//208 209//209 210//210
f 211//211 212//212 213//213
f 214//214 215//215 216//216
f 217//217 218//218 219//219
f 220//220 221//221 222//222
f 223//223 224//224 225//225
f 226//226 227//227 228//228
