# Exported from SharpOpenGl procedural mesh
o vesper_gunship_ace_56
# vertices 117
v -0.84405196 0.31864074 -3.6577904
v 0.84405196 0.31864074 -3.6577904
v 0 0.65548956 -2.9744487
v -0.84405196 0.31864074 -3.6577904
v 0 0.65548956 -2.9744487
v -1.1893458 0.31864074 -2.1392531
v 0.84405196 0.31864074 -3.6577904
v 1.1893458 0.31864074 -2.1392531
v 0 0.65548956 -2.9744487
v -0.84405196 0 -3.6577904
v -1.1893458 0 -2.1392531
v 0.84405196 0 -3.6577904
v 0.84405196 0 -3.6577904
v -1.1893458 0 -2.1392531
v 1.1893458 0 -2.1392531
v -1.1893458 0.31864074 -2.1392531
v 1.1893458 0.31864074 -2.1392531
v 0 0.65548956 -1.4559114
v -1.1893458 0.31864074 -2.1392531
v 0 0.65548956 -1.4559114
v -1.4421186 0.31864074 -0.62071586
v 1.1893458 0.31864074 -2.1392531
v 1.4421186 0.31864074 -0.62071586
v 0 0.65548956 -1.4559114
v -1.1893458 0 -2.1392531
v -1.4421186 0 -0.62071586
v 1.1893458 0 -2.1392531
v 1.1893458 0 -2.1392531
v -1.4421186 0 -0.62071586
v 1.4421186 0 -0.62071586
v -1.4421186 0.31864074 -0.62071586
v 1.4421186 0.31864074 -0.62071586
v 0 0.65548956 0.062625766
v -1.4421186 0.31864074 -0.62071586
v 0 0.65548956 0.062625766
v -1.5346398 0.31864074 0.8978212
v 1.4421186 0.31864074 -0.62071586
v 1.5346398 0.31864074 0.8978212
v 0 0.65548956 0.062625766
v -1.4421186 0 -0.62071586
v -1.5346398 0 0.8978212
v 1.4421186 0 -0.62071586
v 1.4421186 0 -0.62071586
v -1.5346398 0 0.8978212
v 1.5346398 0 0.8978212
v -1.5346398 0.31864074 0.8978212
v 1.5346398 0.31864074 0.8978212
v 0 0.65548956 1.581163
v -1.5346398 0.31864074 0.8978212
v 0 0.65548956 1.581163
v -1.4421186 0.31864074 2.4163587
v 1.5346398 0.31864074 0.8978212
v 1.4421186 0.31864074 2.4163587
v 0 0.65548956 1.581163
v -1.5346398 0 0.8978212
v -1.4421186 0 2.4163587
v 1.5346398 0 0.8978212
v 1.5346398 0 0.8978212
v -1.4421186 0 2.4163587
v 1.4421186 0 2.4163587
v -1.4421186 0.31864074 2.4163587
v 1.4421186 0.31864074 2.4163587
v 0 0.65548956 3.0997002
v -1.4421186 0.31864074 2.4163587
v 0 0.65548956 3.0997002
v -1.1012464 0.31864074 3.9348953
v 1.4421186 0.31864074 2.4163587
v 1.1012464 0.31864074 3.9348953
v 0 0.65548956 3.0997002
v -1.4421186 0 2.4163587
v -1.1012464 0 3.9348953
v 1.4421186 0 2.4163587
v 1.4421186 0 2.4163587
v -1.1012464 0 3.9348953
v 1.1012464 0 3.9348953
v -1.1012464 0.31864074 3.9348953
v 1.1012464 0.31864074 3.9348953
v 0 0.65548956 4.6182375
v -1.1012464 0.31864074 3.9348953
v 0 0.65548956 4.6182375
v -0 0.31864074 5.453433
v 1.1012464 0.31864074 3.9348953
v 0 0.31864074 5.453433
v 0 0.65548956 4.6182375
v -1.1012464 0 3.9348953
v -0 0 5.453433
v 1.1012464 0 3.9348953
v 1.1012464 0 3.9348953
v -0 0 5.453433
v 0 0 5.453433
v 0 0.71011364 -2.898522
v -0.12277118 0.5644493 -3.0826788
v 0.12277118 0.5644493 -3.0826788
v 0 0.71011364 -1.3799846
v -0.12277118 0.5644493 -1.5641414
v 0.12277118 0.5644493 -1.5641414
v 0 0.71011364 0.13855243
v -0.12277118 0.5644493 -0.04560435
v 0.12277118 0.5644493 -0.04560435
v 0 0.71011364 1.6570895
v -0.12277118 0.5644493 1.4729327
v 0.12277118 0.5644493 1.4729327
v 0 0.71011364 3.175627
v -0.12277118 0.5644493 2.9914703
v 0.12277118 0.5644493 2.9914703
v -0.6445487 0.25491259 -0.9975792
v 0.6445487 0.25491259 -0.9975792
v 0 0.3823689 -1.8621478
v -0.92607576 0.10115579 -3.585502
v -1.2912142 0 -4.3888063
v -0.56093735 0 -4.3888063
v 0 0.10115579 -3.585502
v -0.3651384 0 -4.3888063
v 0.3651384 0 -4.3888063
v 0.92607576 0.10115579 -3.585502
v 0.56093735 0 -4.3888063
v 1.2912142 0 -4.3888063
vn 0 -0.8969446 0.44214296
vn 0 -0.8969446 0.44214296
vn 0 -0.8969446 0.44214296
vn 0.31854796 -0.94513524 0.07243329
vn 0.31854796 -0.94513524 0.07243329
vn 0.31854796 -0.94513524 0.07243329
vn -0.31854796 -0.94513524 0.07243329
vn -0.31854796 -0.94513524 0.07243329
vn -0.31854796 -0.94513524 0.07243329
vn 0 1 -0
vn 0 1 -0
vn 0 1 -0
vn 0 1 -0
vn 0 1 -0
vn 0 1 -0
vn 0 -0.8969445 0.44214293
vn 0 -0.8969445 0.44214293
vn 0 -0.8969445 0.44214293
vn 0.2500558 -0.9673363 0.04162381
vn 0.2500558 -0.9673363 0.04162381
vn 0.2500558 -0.9673363 0.04162381
vn -0.2500558 -0.9673363 0.04162381
vn -0.2500558 -0.9673363 0.04162381
vn -0.2500558 -0.9673363 0.04162381
vn 0 1 -0
vn 0 1 -0
vn 0 1 -0
vn 0 1 -0
vn 0 1 -0
vn 0 1 -0
vn 0 -0.8969446 0.44214302
vn 0 -0.8969446 0.44214302
vn 0 -0.8969446 0.44214302
vn 0.22137108 -0.9750964 0.013487663
vn 0.22137108 -0.9750964 0.013487663
vn 0.22137108 -0.9750964 0.013487663
vn -0.22137108 -0.9750964 0.013487663
vn -0.22137108 -0.9750964 0.013487663
vn -0.22137108 -0.9750964 0.013487663
vn 0 1 -0
vn 0 1 -0
vn 0 1 -0
vn 0 1 -0
vn 0 1 -0
vn 0 1 -0
vn 0 -0.89694464 0.44214287
vn 0 -0.89694464 0.44214287
vn 0 -0.89694464 0.44214287
vn 0.22006613 -0.9753927 -0.013408151
vn 0.22006613 -0.9753927 -0.013408151
vn 0.22006613 -0.9753927 -0.013408151
vn -0.22006613 -0.9753927 -0.013408151
vn -0.22006613 -0.9753927 -0.013408151
vn -0.22006613 -0.9753927 -0.013408151
vn 0 1 0
vn 0 1 0
vn 0 1 0
vn 0 1 0
vn 0 1 0
vn 0 1 0
vn 0 -0.8969445 0.44214308
vn 0 -0.8969445 0.44214308
vn 0 -0.8969445 0.44214308
vn 0.25247893 -0.9659412 -0.056675002
vn 0.25247893 -0.9659412 -0.056675002
vn 0.25247893 -0.9659412 -0.056675002
vn -0.25247893 -0.9659412 -0.056675002
vn -0.25247893 -0.9659412 -0.056675002
vn -0.25247893 -0.9659412 -0.056675002
vn 0 1 0
vn 0 1 0
vn 0 1 0
vn 0 0.99999994 0
vn 0 0.99999994 0
vn 0 0.99999994 0
vn 0 -0.89694476 0.4421427
vn 0 -0.89694476 0.4421427
vn 0 -0.89694476 0.4421427
vn 0.4583948 -0.8242362 -0.33242875
vn 0.4583948 -0.8242362 -0.33242875
vn 0.4583948 -0.8242362 -0.33242875
vn -0.4583948 -0.8242362 -0.33242875
vn -0.4583948 -0.8242362 -0.33242875
vn -0.4583948 -0.8242362 -0.33242875
vn 0 1 0
vn 0 1 0
vn 0 1 0
vn 0 1 0
vn 0 1 0
vn 0 1 0
vn 0 -0.7843081 0.62037164
vn 0 -0.7843081 0.62037164
vn 0 -0.7843081 0.62037164
vn 0 -0.78430784 0.6203719
vn 0 -0.78430784 0.6203719
vn 0 -0.78430784 0.6203719
vn 0 -0.78430784 0.6203719
vn 0 -0.78430784 0.6203719
vn 0 -0.78430784 0.6203719
vn 0 -0.78430784 0.6203719
vn 0 -0.78430784 0.6203719
vn 0 -0.78430784 0.6203719
vn 0 -0.78430766 0.6203721
vn 0 -0.78430766 0.6203721
vn 0 -0.78430766 0.6203721
vn -0 0.9893074 0.14584553
vn -0 0.9893074 0.14584553
vn -0 0.9893074 0.14584553
vn 0 -0.99216455 0.12493792
vn 0 -0.99216455 0.12493792
vn 0 -0.99216455 0.12493792
vn 0 -0.99216455 0.124937914
vn 0 -0.99216455 0.124937914
vn 0 -0.99216455 0.124937914
vn 0 -0.99216455 0.12493792
vn 0 -0.99216455 0.12493792
vn 0 -0.99216455 0.12493792
f 1//1 2//2 3//3
f 4//4 5//5 6//6
f 7//7 8//8 9//9
f 10//10 11//11 12//12
f 13//13 14//14 15//15
f 16//16 17//17 18//18
f 19//19 20//20 21//21
f 22//22 23//23 24//24
f 25//25 26//26 27//27
f 28//28 29//29 30//30
f 31//31 32//32 33//33
f 34//34 35//35 36//36
f 37//37 38//38 39//39
f 40//40 41//41 42//42
f 43//43 44//44 45//45
f 46//46 47//47 48//48
f 49//49 50//50 51//51
f 52//52 53//53 54//54
f 55//55 56//56 57//57
f 58//58 59//59 60//60
f 61//61 62//62 63//63
f 64//64 65//65 66//66
f 67//67 68//68 69//69
f 70//70 71//71 72//72
f 73//73 74//74 75//75
f 76//76 77//77 78//78
f 79//79 80//80 81//81
f 82//82 83//83 84//84
f 85//85 86//86 87//87
f 88//88 89//89 90//90
f 91//91 92//92 93//93
f 94//94 95//95 96//96
f 97//97 98//98 99//99
f 100//100 101//101 102//102
f 103//103 104//104 105//105
f 106//106 107//107 108//108
f 109//109 110//110 111//111
f 112//112 113//113 114//114
f 115//115 116//116 117//117
