# Exported from SharpOpenGl procedural mesh
o vesper_drone_mk2_20
# vertices 219
v -0.11000922 0.059011336 -0.4849702
v 0.11000922 0.059011336 -0.4849702
v 0 0.12139475 -0.38081184
v -0.11000922 0.059011336 -0.4849702
v 0 0.12139475 -0.38081184
v -0.16501382 0.059011336 -0.25350714
v 0.11000922 0.059011336 -0.4849702
v 0.16501382 0.059011336 -0.25350714
v 0 0.12139475 -0.38081184
v -0.11000922 0 -0.4849702
v -0.16501382 0 -0.25350714
v 0.11000922 0 -0.4849702
v 0.11000922 0 -0.4849702
v -0.16501382 0 -0.25350714
v 0.16501382 0 -0.25350714
v -0.11000922 0 -0.4849702
v -0.11000922 0.059011336 -0.4849702
v -0.16501382 0.059011336 -0.25350714
v -0.11000922 0 -0.4849702
v -0.16501382 0.059011336 -0.25350714
v -0.16501382 0 -0.25350714
v 0.11000922 0 -0.4849702
v 0.16501382 0.059011336 -0.25350714
v 0.11000922 0.059011336 -0.4849702
v 0.11000922 0 -0.4849702
v 0.16501382 0 -0.25350714
v 0.16501382 0.059011336 -0.25350714
v -0.16501382 0.059011336 -0.25350714
v 0.16501382 0.059011336 -0.25350714
v 0 0.12139475 -0.14934877
v -0.16501382 0.059011336 -0.25350714
v 0 0.12139475 -0.14934877
v -0.20528 0.059011336 -0.022044092
v 0.16501382 0.059011336 -0.25350714
v 0.20528 0.059011336 -0.022044092
v 0 0.12139475 -0.14934877
v -0.16501382 0 -0.25350714
v -0.20528 0 -0.022044092
v 0.16501382 0 -0.25350714
v 0.16501382 0 -0.25350714
v -0.20528 0 -0.022044092
v 0.20528 0 -0.022044092
v -0.16501382 0 -0.25350714
v -0.16501382 0.059011336 -0.25350714
v -0.20528 0.059011336 -0.022044092
v -0.16501382 0 -0.25350714
v -0.20528 0.059011336 -0.022044092
v -0.20528 0 -0.022044092
v 0.16501382 0 -0.25350714
v 0.20528 0.059011336 -0.022044092
v 0.16501382 0.059011336 -0.25350714
v 0.16501382 0 -0.25350714
v 0.20528 0 -0.022044092
v 0.20528 0.059011336 -0.022044092
v -0.20528 0.059011336 -0.022044092
v 0.20528 0.059011336 -0.022044092
v 0 0.12139475 0.08211427
v -0.20528 0.059011336 -0.022044092
v 0 0.12139475 0.08211427
v -0.22001845 0.059011336 0.20941895
v 0.20528 0.059011336 -0.022044092
v 0.22001845 0.059011336 0.20941895
v 0 0.12139475 0.08211427
v -0.20528 0 -0.022044092
v -0.22001845 0 0.20941895
v 0.20528 0 -0.022044092
v 0.20528 0 -0.022044092
v -0.22001845 0 0.20941895
v 0.22001845 0 0.20941895
v -0.20528 0 -0.022044092
v -0.20528 0.059011336 -0.022044092
v -0.22001845 0.059011336 0.20941895
v -0.20528 0 -0.022044092
v -0.22001845 0.059011336 0.20941895
v -0.22001845 0 0.20941895
v 0.20528 0 -0.022044092
v 0.22001845 0.059011336 0.20941895
v 0.20528 0.059011336 -0.022044092
v 0.20528 0 -0.022044092
v 0.22001845 0 0.20941895
v 0.22001845 0.059011336 0.20941895
v -0.22001845 0.059011336 0.20941895
v 0.22001845 0.059011336 0.20941895
v 0 0.12139475 0.31357732
v -0.22001845 0.059011336 0.20941895
v 0 0.12139475 0.31357732
v -0.20527999 0.059011336 0.44088203
v 0.22001845 0.059011336 0.20941895
v 0.20527999 0.059011336 0.44088203
v 0 0.12139475 0.31357732
v -0.22001845 0 0.20941895
v -0.20527999 0 0.44088203
v 0.22001845 0 0.20941895
v 0.22001845 0 0.20941895
v -0.20527999 0 0.44088203
v 0.20527999 0 0.44088203
v -0.22001845 0 0.20941895
v -0.22001845 0.059011336 0.20941895
v -0.20527999 0.059011336 0.44088203
v -0.22001845 0 0.20941895
v -0.20527999 0.059011336 0.44088203
v -0.20527999 0 0.44088203
v 0.22001845 0 0.20941895
v 0.20527999 0.059011336 0.44088203
v 0.22001845 0.059011336 0.20941895
v 0.22001845 0 0.20941895
v 0.20527999 0 0.44088203
v 0.20527999 0.059011336 0.44088203
v -0.20527999 0.059011336 0.44088203
v 0.20527999 0.059011336 0.44088203
v 0 0.12139475 0.54504037
v -0.20527999 0.059011336 0.44088203
v 0 0.12139475 0.54504037
v -0.16501383 0.059011336 0.67234504
v 0.20527999 0.059011336 0.44088203
v 0.16501383 0.059011336 0.67234504
v 0 0.12139475 0.54504037
v -0.20527999 0 0.44088203
v -0.16501383 0 0.67234504
v 0.20527999 0 0.44088203
v 0.20527999 0 0.44088203
v -0.16501383 0 0.67234504
v 0.16501383 0 0.67234504
v -0.20527999 0 0.44088203
v -0.20527999 0.059011336 0.44088203
v -0.16501383 0.059011336 0.67234504
v -0.20527999 0 0.44088203
v -0.16501383 0.059011336 0.67234504
v -0.16501383 0 0.67234504
v 0.20527999 0 0.44088203
v 0.16501383 0.059011336 0.67234504
v 0.20527999 0.059011336 0.44088203
v 0.20527999 0 0.44088203
v 0.16501383 0 0.67234504
v 0.16501383 0.059011336 0.67234504
v -0.16501383 0.059011336 0.67234504
v 0.16501383 0.059011336 0.67234504
v 0 0.12139475 0.77650344
v -0.16501383 0.059011336 0.67234504
v 0 0.12139475 0.77650344
v -0 0.059011336 0.9038081
v 0.16501383 0.059011336 0.67234504
v 0 0.059011336 0.9038081
v 0 0.12139475 0.77650344
v -0.16501383 0 0.67234504
v -0 0 0.9038081
v 0.16501383 0 0.67234504
v 0.16501383 0 0.67234504
v -0 0 0.9038081
v 0 0 0.9038081
v -0.16501383 0 0.67234504
v -0.16501383 0.059011336 0.67234504
v -0 0.059011336 0.9038081
v -0.16501383 0 0.67234504
v -0 0.059011336 0.9038081
v -0 0 0.9038081
v 0.16501383 0 0.67234504
v 0 0.059011336 0.9038081
v 0.16501383 0.059011336 0.67234504
v 0.16501383 0 0.67234504
v 0 0 0.9038081
v 0 0.059011336 0.9038081
v -0.08021506 0 0.9038081
v 0.08021506 0 0.9038081
v 0 0.10318554 0.9478963
v -0.08021506 0 -0.4849702
v 0 0.0354068 -0.51803637
v 0.08021506 0 -0.4849702
v 0 0.13151097 -0.36923867
v -0.022918588 0.10453437 -0.4013247
v 0.022918588 0.10453437 -0.4013247
v 0 0.13151097 -0.13777563
v -0.022918588 0.10453437 -0.16986164
v 0.022918588 0.10453437 -0.16986164
v 0 0.13151097 0.093687415
v -0.022918588 0.10453437 0.061601393
v 0.022918588 0.10453437 0.061601393
v 0 0.13151097 0.32515043
v -0.022918588 0.10453437 0.29306442
v 0.022918588 0.10453437 0.29306442
v 0 0.13151097 0.55661356
v -0.022918588 0.10453437 0.52452755
v 0.022918588 0.10453437 0.52452755
v -0.11064146 0.01822744 -0.14028063
v -0.13435034 0 -0.15332052
v -0.08693257 0 -0.15332052
v 0.11064146 0.01822744 -0.14028063
v 0.08693257 0 -0.15332052
v 0.13435034 0 -0.15332052
v -0.07491879 0.01139215 -0.13627261
v 0.07491879 0.01139215 -0.13627261
v 0 0.05012546 -0.106212474
v -0.083612055 0.01139215 0.03206417
v 0.083612055 0.01139215 0.03206417
v 0 0.05012546 0.062124304
v -0.08693258 0.01139215 0.20040092
v 0.08693258 0.01139215 0.20040092
v 0 0.05012546 0.23046106
v -0.083612055 0.01139215 0.3687377
v 0.083612055 0.01139215 0.3687377
v 0 0.05012546 0.39879784
v -0.07491879 0.01139215 0.53707445
v 0.07491879 0.01139215 0.53707445
v 0 0.05012546 0.56713456
v 0 0.12531365 -0.013360038
v -0.027660364 0.09569406 -0.058450244
v 0.027660364 0.09569406 -0.058450244
v 0 0.12531365 0.13360064
v -0.027660364 0.09569406 0.08851043
v 0.027660364 0.09569406 0.08851043
v 0 0.12531365 0.28056127
v -0.027660364 0.09569406 0.23547107
v 0.027660364 0.09569406 0.23547107
v 0 0.12531365 0.427522
v -0.027660364 0.09569406 0.3824318
v 0.027660364 0.09569406 0.3824318
v 0 0.12531365 0.5744826
v -0.027660364 0.09569406 0.5293924
v 0.027660364 0.09569406 0.5293924
vn 0 -0.8578982 0.51381963
vn 0 -0.8578982 0.51381963
vn 0 -0.8578982 0.51381963
vn 0.41801214 -0.90299404 0.09933589
vn 0.41801214 -0.90299404 0.09933589
vn 0.41801214 -0.90299404 0.09933589
vn -0.41801214 -0.90299404 0.09933589
vn -0.41801214 -0.90299404 0.09933589
vn -0.41801214 -0.90299404 0.09933589
vn 0 0.99999994 -0
vn 0 0.99999994 -0
vn 0 0.99999994 -0
vn 0 1 -0
vn 0 1 -0
vn 0 1 -0
vn 0.9729062 -0 0.23120022
vn 0.9729062 -0 0.23120022
vn 0.9729062 -0 0.23120022
vn 0.9729062 0 0.23120022
vn 0.9729062 0 0.23120022
vn 0.9729062 0 0.23120022
vn -0.9729062 0 0.23120022
vn -0.9729062 0 0.23120022
vn -0.9729062 0 0.23120022
vn -0.9729062 0 0.23120022
vn -0.9729062 0 0.23120022
vn -0.9729062 0 0.23120022
vn 0 -0.85789824 0.5138197
vn 0 -0.85789824 0.5138197
vn 0 -0.85789824 0.5138197
vn 0.32194322 -0.9451009 0.05600646
vn 0.32194322 -0.9451009 0.05600646
vn 0.32194322 -0.9451009 0.05600646
vn -0.32194322 -0.9451009 0.05600646
vn -0.32194322 -0.9451009 0.05600646
vn -0.32194322 -0.9451009 0.05600646
vn 0 1 -0
vn 0 1 -0
vn 0 1 -0
vn 0 1 -0
vn 0 1 -0
vn 0 1 -0
vn 0.9852033 -0 0.1713897
vn 0.9852033 -0 0.1713897
vn 0.9852033 -0 0.1713897
vn 0.9852033 0 0.1713897
vn 0.9852033 0 0.1713897
vn 0.9852033 0 0.1713897
vn -0.9852033 0 0.1713897
vn -0.9852033 0 0.1713897
vn -0.9852033 0 0.1713897
vn -0.9852033 0 0.1713897
vn -0.9852033 0 0.1713897
vn -0.9852033 0 0.1713897
vn 0 -0.85789824 0.51381975
vn 0 -0.85789824 0.51381975
vn 0 -0.85789824 0.51381975
vn 0.2823551 -0.9591415 0.017979
vn 0.2823551 -0.9591415 0.017979
vn 0.2823551 -0.9591415 0.017979
vn -0.2823551 -0.9591415 0.017979
vn -0.2823551 -0.9591415 0.017979
vn -0.2823551 -0.9591415 0.017979
vn 0 1 -0
vn 0 1 -0
vn 0 1 -0
vn 0 1 -0
vn 0 1 -0
vn 0 1 -0
vn 0.99797887 -0 0.06354644
vn 0.99797887 -0 0.06354644
vn 0.99797887 -0 0.06354644
vn 0.99797887 0 0.06354644
vn 0.99797887 0 0.06354644
vn 0.99797887 0 0.06354644
vn -0.99797887 0 0.06354644
vn -0.99797887 0 0.06354644
vn -0.99797887 0 0.06354644
vn -0.99797887 0 0.06354644
vn -0.99797887 0 0.06354644
vn -0.99797887 0 0.06354644
vn 0 -0.8578982 0.51381963
vn 0 -0.8578982 0.51381963
vn 0 -0.8578982 0.51381963
vn 0.28055954 -0.9596704 -0.017864684
vn 0.28055954 -0.9596704 -0.017864684
vn 0.28055954 -0.9596704 -0.017864684
vn -0.28055954 -0.9596704 -0.017864684
vn -0.28055954 -0.9596704 -0.017864684
vn -0.28055954 -0.9596704 -0.017864684
vn 0 0.99999994 0
vn 0 0.99999994 0
vn 0 0.99999994 0
vn 0 1 0
vn 0 1 0
vn 0 1 0
vn 0.9979789 0 -0.06354649
vn 0.9979789 0 -0.06354649
vn 0.9979789 0 -0.06354649
vn 0.9979789 0 -0.06354649
vn 0.9979789 0 -0.06354649
vn 0.9979789 0 -0.06354649
vn -0.9979789 0 -0.06354649
vn -0.9979789 0 -0.06354649
vn -0.9979789 0 -0.06354649
vn -0.9979789 0 -0.06354649
vn -0.9979789 0 -0.06354649
vn -0.9979789 0 -0.06354649
vn 0 -0.8578981 0.51381975
vn 0 -0.8578981 0.51381975
vn 0 -0.8578981 0.51381975
vn 0.31573522 -0.9472562 -0.054926462
vn 0.31573522 -0.9472562 -0.054926462
vn 0.31573522 -0.9472562 -0.054926462
vn -0.31573522 -0.9472562 -0.054926462
vn -0.31573522 -0.9472562 -0.054926462
vn -0.31573522 -0.9472562 -0.054926462
vn 0 0.99999994 0
vn 0 0.99999994 0
vn 0 0.99999994 0
vn 0 1 0
vn 0 1 0
vn 0 1 0
vn 0.9852034 0 -0.1713896
vn 0.9852034 0 -0.1713896
vn 0.9852034 0 -0.1713896
vn 0.9852034 0 -0.1713896
vn 0.9852034 0 -0.1713896
vn 0.9852034 0 -0.1713896
vn -0.9852034 0 -0.1713896
vn -0.9852034 0 -0.1713896
vn -0.9852034 0 -0.1713896
vn -0.9852034 0 -0.1713896
vn -0.9852034 0 -0.1713896
vn -0.9852034 0 -0.1713896
vn 0 -0.85789824 0.5138196
vn 0 -0.85789824 0.5138196
vn 0 -0.85789824 0.5138196
vn 0.52524054 -0.76413846 -0.37445265
vn 0.52524054 -0.76413846 -0.37445265
vn 0.52524054 -0.76413846 -0.37445265
vn -0.52524054 -0.76413846 -0.37445265
vn -0.52524054 -0.76413846 -0.37445265
vn -0.52524054 -0.76413846 -0.37445265
vn 0 1 0
vn 0 1 0
vn 0 1 0
vn 0 1 0
vn 0 1 0
vn 0 1 0
vn 0.8142604 0 -0.5804997
vn 0.8142604 0 -0.5804997
vn 0.8142604 0 -0.5804997
vn 0.8142604 0 -0.5804997
vn 0.8142604 0 -0.5804997
vn 0.8142604 0 -0.5804997
vn -0.8142604 0 -0.5804997
vn -0.8142604 0 -0.5804997
vn -0.8142604 0 -0.5804997
vn -0.8142604 0 -0.5804997
vn -0.8142604 0 -0.5804997
vn -0.8142604 0 -0.5804997
vn 0 -0.39290872 0.9195774
vn 0 -0.39290872 0.9195774
vn 0 -0.39290872 0.9195774
vn 0 -0.6825366 -0.73085123
vn 0 -0.6825366 -0.73085123
vn 0 -0.6825366 -0.73085123
vn 0 -0.76541877 0.6435326
vn 0 -0.76541877 0.6435326
vn 0 -0.76541877 0.6435326
vn 0 -0.76541877 0.6435326
vn 0 -0.76541877 0.6435326
vn 0 -0.76541877 0.6435326
vn 0 -0.7654188 0.6435325
vn 0 -0.7654188 0.6435325
vn 0 -0.7654188 0.6435325
vn 0 -0.76541877 0.6435326
vn 0 -0.76541877 0.6435326
vn 0 -0.76541877 0.6435326
vn 0 -0.76541877 0.6435326
vn 0 -0.76541877 0.6435326
vn 0 -0.76541877 0.6435326
vn 0 -0.5818374 0.8133051
vn 0 -0.5818374 0.8133051
vn 0 -0.5818374 0.8133051
vn 0 -0.5818374 0.8133051
vn 0 -0.5818374 0.8133051
vn 0 -0.5818374 0.8133051
vn 0 -0.6131044 0.79000187
vn 0 -0.6131044 0.79000187
vn 0 -0.6131044 0.79000187
vn 0 -0.61310434 0.79000187
vn 0 -0.61310434 0.79000187
vn 0 -0.61310434 0.79000187
vn 0 -0.61310446 0.7900018
vn 0 -0.61310446 0.7900018
vn 0 -0.61310446 0.7900018
vn 0 -0.61310446 0.7900018
vn 0 -0.61310446 0.7900018
vn 0 -0.61310446 0.7900018
vn 0 -0.6131041 0.79000217
vn 0 -0.6131041 0.79000217
vn 0 -0.6131041 0.79000217
vn 0 -0.83579993 0.54903406
vn 0 -0.83579993 0.54903406
vn 0 -0.83579993 0.54903406
vn 0 -0.83579993 0.54903406
vn 0 -0.83579993 0.54903406
vn 0 -0.83579993 0.54903406
vn 0 -0.83579993 0.54903406
vn 0 -0.83579993 0.54903406
vn 0 -0.83579993 0.54903406
vn 0 -0.83579993 0.54903406
vn 0 -0.83579993 0.54903406
vn 0 -0.83579993 0.54903406
vn 0 -0.83579993 0.54903406
vn 0 -0.83579993 0.54903406
vn 0 -0.83579993 0.54903406
f 1//1 2//2 3//3
f 4//4 5//5 6//6
f 7//7 8//8 9//9
f 10//10 11//11 12//12
f 13//13 14//14 15//15
f 16//16 17//17 18//18
f 19//19 20//20 21//21
f 22//22 23//23 24//24
f 25//25 26//26 27//27
f 28//28 29//29 30//30
f 31//31 32//32 33//33
f 34//34 35//35 36//36
f 37//37 38//38 39//39
f 40//40 41//41 42//42
f 43//43 44//44 45//45
f 46//46 47//47 48//48
f 49//49 50//50 51//51
f 52//52 53//53 54//54
f 55//55 56//56 57//57
f 58//58 59//59 60//60
f 61//61 62//62 63//63
f 64//64 65//65 66//66
f 67//67 68//68 69//69
f 70//70 71//71 72//72
f 73//73 74//74 75//75
f 76//76 77//77 78//78
f 79//79 80//80 81//81
f 82//82 83//83 84//84
f 85//85 86//86 87//87
f 88//88 89//89 90//90
f 91//91 92//92 93//93
f 94//94 95//95 96//96
f 97//97 98//98 99//99
f 100//100 101//101 102//102
f 103//103 104//104 105//105
f 106//106 107//107 108//108
f 109//109 110//110 111//111
f 112//112 113//113 114//114
f 115//115 116//116 117//117
f 118//118 119//119 120//120
f 121//121 122//122 123//123
f 124//124 125//125 126//126
f 127//127 128//128 129//129
f 130//130 131//131 132//132
f 133//133 134//134 135//135
f 136//136 137//137 138//138
f 139//139 140//140 141//141
f 142//142 143//143 144//144
f 145//145 146//146 147//147
f 148//148 149//149 150//150
f 151//151 152//152 153//153
f 154//154 155//155 156//156
f 157//157 158//158 159//159
f 160//160 161//161 162//162
f 163//163 164//164 165//165
f 166//166 167//167 168//168
f 169//169 170//170 171//171
f 172//172 173//173 174//174
f 175//175 176//176 177//177
f 178//178 179//179 180//180
f 181//181 182//182 183//183
f 184//184 185//185 186//186
f 187//187 188//188 189//189
f 190//190 191//191 192//192
f 193//193 194//194 195//195
f 196//196 197//197 198//198
f 199//199 200//200 201//201
f 202//202 203//203 204//204
f 205//205 206//206 207//207
f 208//208 209//209 210//210
f 211//211 212//212 213//213
f 214//214 215//215 216//216
f 217//217 218//218 219//219
