# Exported from SharpOpenGl procedural mesh
o vesper_fighter_mk3_35
# vertices 117
v -0.23578846 0.10246028 -2.2382305
v 0.23578846 0.10246028 -2.2382305
v 0 0.21077543 -1.8200883
v -0.23578846 0.10246028 -2.2382305
v 0 0.21077543 -1.8200883
v -0.33224738 0.10246028 -1.3090256
v 0.23578846 0.10246028 -2.2382305
v 0.33224738 0.10246028 -1.3090256
v 0 0.21077543 -1.8200883
v -0.23578846 0 -2.2382305
v -0.33224738 0 -1.3090256
v 0.23578846 0 -2.2382305
v 0.23578846 0 -2.2382305
v -0.33224738 0 -1.3090256
v 0.33224738 0 -1.3090256
v -0.33224738 0.10246028 -1.3090256
v 0.33224738 0.10246028 -1.3090256
v 0 0.21077543 -0.89088345
v -0.33224738 0.10246028 -1.3090256
v 0 0.21077543 -0.89088345
v -0.4028602 0.10246028 -0.37982082
v 0.33224738 0.10246028 -1.3090256
v 0.4028602 0.10246028 -0.37982082
v 0 0.21077543 -0.89088345
v -0.33224738 0 -1.3090256
v -0.4028602 0 -0.37982082
v 0.33224738 0 -1.3090256
v 0.33224738 0 -1.3090256
v -0.4028602 0 -0.37982082
v 0.4028602 0 -0.37982082
v -0.4028602 0.10246028 -0.37982082
v 0.4028602 0.10246028 -0.37982082
v 0 0.21077543 0.038321286
v -0.4028602 0.10246028 -0.37982082
v 0 0.21077543 0.038321286
v -0.4287063 0.10246028 0.5493839
v 0.4028602 0.10246028 -0.37982082
v 0.4287063 0.10246028 0.5493839
v 0 0.21077543 0.038321286
v -0.4028602 0 -0.37982082
v -0.4287063 0 0.5493839
v 0.4028602 0 -0.37982082
v 0.4028602 0 -0.37982082
v -0.4287063 0 0.5493839
v 0.4287063 0 0.5493839
v -0.4287063 0.10246028 0.5493839
v 0.4287063 0.10246028 0.5493839
v 0 0.21077543 0.9675261
v -0.4287063 0.10246028 0.5493839
v 0 0.21077543 0.9675261
v -0.4028602 0.10246028 1.4785888
v 0.4287063 0.10246028 0.5493839
v 0.4028602 0.10246028 1.4785888
v 0 0.21077543 0.9675261
v -0.4287063 0 0.5493839
v -0.4028602 0 1.4785888
v 0.4287063 0 0.5493839
v 0.4287063 0 0.5493839
v -0.4028602 0 1.4785888
v 0.4028602 0 1.4785888
v -0.4028602 0.10246028 1.4785888
v 0.4028602 0.10246028 1.4785888
v 0 0.21077543 1.8967308
v -0.4028602 0.10246028 1.4785888
v 0 0.21077543 1.8967308
v -0.30763647 0.10246028 2.4077933
v 0.4028602 0.10246028 1.4785888
v 0.30763647 0.10246028 2.4077933
v 0 0.21077543 1.8967308
v -0.4028602 0 1.4785888
v -0.30763647 0 2.4077933
v 0.4028602 0 1.4785888
v 0.4028602 0 1.4785888
v -0.30763647 0 2.4077933
v 0.30763647 0 2.4077933
v -0.30763647 0.10246028 2.4077933
v 0.30763647 0.10246028 2.4077933
v 0 0.21077543 2.8259354
v -0.30763647 0.10246028 2.4077933
v 0 0.21077543 2.8259354
v -0 0.10246028 3.3369982
v 0.30763647 0.10246028 2.4077933
v 0 0.10246028 3.3369982
v 0 0.21077543 2.8259354
v -0.30763647 0 2.4077933
v -0 0 3.3369982
v 0.30763647 0 2.4077933
v 0.30763647 0 2.4077933
v -0 0 3.3369982
v 0 0 3.3369982
v 0 0.22834004 -1.773628
v -0.0342965 0.18150106 -1.8250728
v 0.0342965 0.18150106 -1.8250728
v 0 0.22834004 -0.8444233
v -0.0342965 0.18150106 -0.89586806
v 0.0342965 0.18150106 -0.89586806
v 0 0.22834004 0.08478141
v -0.0342965 0.18150106 0.033336654
v 0.0342965 0.18150106 0.033336654
v 0 0.22834004 1.0139861
v -0.0342965 0.18150106 0.96254134
v 0.0342965 0.18150106 0.96254134
v 0 0.22834004 1.9431908
v -0.0342965 0.18150106 1.891746
v 0.0342965 0.18150106 1.891746
v -0.18005663 0.081968226 -0.61042655
v 0.18005663 0.081968226 -0.61042655
v 0 0.12295233 -1.1394628
v -0.25870207 0.03252707 -2.1939967
v -0.33409524 0 -2.3598616
v -0.1833089 0 -2.3598616
v 0 0.03252707 -2.1939967
v -0.07539318 0 -2.3598616
v 0.07539318 0 -2.3598616
v 0.25870207 0.03252707 -2.1939967
v 0.1833089 0 -2.3598616
v 0.33409524 0 -2.3598616
vn 0 -0.9680487 0.2507624
vn 0 -0.9680487 0.2507624
vn 0 -0.9680487 0.2507624
vn 0.36143535 -0.93164194 0.037519887
vn 0.36143535 -0.93164194 0.037519887
vn 0.36143535 -0.93164194 0.037519887
vn -0.36143535 -0.93164194 0.037519887
vn -0.36143535 -0.93164194 0.037519887
vn -0.36143535 -0.93164194 0.037519887
vn 0 1 -0
vn 0 1 -0
vn 0 1 -0
vn 0 1 -0
vn 0 1 -0
vn 0 1 -0
vn 0 -0.9680487 0.25076237
vn 0 -0.9680487 0.25076237
vn 0 -0.9680487 0.25076237
vn 0.28512597 -0.95824504 0.021667503
vn 0.28512597 -0.95824504 0.021667503
vn 0.28512597 -0.95824504 0.021667503
vn -0.28512597 -0.95824504 0.021667503
vn -0.28512597 -0.95824504 0.021667503
vn -0.28512597 -0.95824504 0.021667503
vn 0 1 -0
vn 0 1 -0
vn 0 1 -0
vn 0 1 -0
vn 0 1 -0
vn 0 1 -0
vn 0 -0.9680487 0.25076246
vn 0 -0.9680487 0.25076246
vn 0 -0.9680487 0.25076246
vn 0.2528245 -0.9674866 0.007032386
vn 0.2528245 -0.9674866 0.007032386
vn 0.2528245 -0.9674866 0.007032386
vn -0.2528245 -0.9674866 0.007032386
vn -0.2528245 -0.9674866 0.007032386
vn -0.2528245 -0.9674866 0.007032386
vn 0 1 -0
vn 0 1 -0
vn 0 1 -0
vn 0 1 -0
vn 0 1 -0
vn 0 1 -0
vn 0 -0.96804863 0.2507624
vn 0 -0.96804863 0.2507624
vn 0 -0.96804863 0.2507624
vn 0.2513571 -0.9678692 -0.006991568
vn 0.2513571 -0.9678692 -0.006991568
vn 0.2513571 -0.9678692 -0.006991568
vn -0.2513571 -0.9678692 -0.006991568
vn -0.2513571 -0.9678692 -0.006991568
vn -0.2513571 -0.9678692 -0.006991568
vn 0 1 0
vn 0 1 0
vn 0 1 0
vn 0 1 0
vn 0 1 0
vn 0 1 0
vn 0 -0.9680487 0.25076255
vn 0 -0.9680487 0.25076255
vn 0 -0.9680487 0.25076255
vn 0.2879844 -0.95718026 -0.029512284
vn 0.2879844 -0.95718026 -0.029512284
vn 0.2879844 -0.95718026 -0.029512284
vn -0.2879844 -0.95718026 -0.029512284
vn -0.2879844 -0.95718026 -0.029512284
vn -0.2879844 -0.95718026 -0.029512284
vn 0 1 0
vn 0 1 0
vn 0 1 0
vn 0 1 0
vn 0 1 0
vn 0 1 0
vn 0 -0.9680487 0.2507625
vn 0 -0.9680487 0.2507625
vn 0 -0.9680487 0.2507625
vn 0.53076017 -0.8291053 -0.17572139
vn 0.53076017 -0.8291053 -0.17572139
vn 0.53076017 -0.8291053 -0.17572139
vn -0.53076017 -0.8291053 -0.17572139
vn -0.53076017 -0.8291053 -0.17572139
vn -0.53076017 -0.8291053 -0.17572139
vn 0 1 0
vn 0 1 0
vn 0 1 0
vn 0 1 0
vn 0 1 0
vn 0 1 0
vn 0 -0.73943186 0.6732314
vn 0 -0.73943186 0.6732314
vn 0 -0.73943186 0.6732314
vn 0 -0.73943186 0.6732314
vn 0 -0.73943186 0.6732314
vn 0 -0.73943186 0.6732314
vn 0 -0.7394317 0.6732315
vn 0 -0.7394317 0.6732315
vn 0 -0.7394317 0.6732315
vn 0 -0.73943186 0.6732314
vn 0 -0.73943186 0.6732314
vn 0 -0.73943186 0.6732314
vn 0 -0.73943186 0.6732314
vn 0 -0.73943186 0.6732314
vn 0 -0.73943186 0.6732314
vn -0 0.9970126 0.07723793
vn -0 0.9970126 0.07723793
vn -0 0.9970126 0.07723793
vn 0 -0.9813087 0.19244029
vn 0 -0.9813087 0.19244029
vn 0 -0.9813087 0.19244029
vn 0 -0.9813087 0.19244029
vn 0 -0.9813087 0.19244029
vn 0 -0.9813087 0.19244029
vn 0 -0.9813087 0.19244029
vn 0 -0.9813087 0.19244029
vn 0 -0.9813087 0.19244029
f 1//1 2//2 3//3
f 4//4 5//5 6//6
f 7//7 8//8 9//9
f 10//10 11//11 12//12
f 13//13 14//14 15//15
f 16//16 17//17 18//18
f 19//19 20//20 21//21
f 22//22 23//23 24//24
f 25//25 26//26 27//27
f 28//28 29//29 30//30
f 31//31 32//32 33//33
f 34//34 35//35 36//36
f 37//37 38//38 39//39
f 40//40 41//41 42//42
f 43//43 44//44 45//45
f 46//46 47//47 48//48
f 49//49 50//50 51//51
f 52//52 53//53 54//54
f 55//55 56//56 57//57
f 58//58 59//59 60//60
f 61//61 62//62 63//63
f 64//64 65//65 66//66
f 67//67 68//68 69//69
f 70//70 71//71 72//72
f 73//73 74//74 75//75
f 76//76 77//77 78//78
f 79//79 80//80 81//81
f 82//82 83//83 84//84
f 85//85 86//86 87//87
f 88//88 89//89 90//90
f 91//91 92//92 93//93
f 94//94 95//95 96//96
f 97//97 98//98 99//99
f 100//100 101//101 102//102
f 103//103 104//104 105//105
f 106//106 107//107 108//108
f 109//109 110//110 111//111
f 112//112 113//113 114//114
f 115//115 116//116 117//117
