# Exported from SharpOpenGl procedural mesh
o vesper_gunship_mk3_40
# vertices 228
v -0.59721047 0.2891975 -2.140707
v 0.59721047 0.2891975 -2.140707
v 0 0.59492064 -1.6809416
v -0.59721047 0.2891975 -2.140707
v 0 0.59492064 -1.6809416
v -0.89581573 0.2891975 -1.1190059
v 0.59721047 0.2891975 -2.140707
v 0.89581573 0.2891975 -1.1190059
v 0 0.59492064 -1.6809416
v -0.59721047 0 -2.140707
v -0.89581573 0 -1.1190059
v 0.59721047 0 -2.140707
v 0.59721047 0 -2.140707
v -0.89581573 0 -1.1190059
v 0.89581573 0 -1.1190059
v -0.59721047 0 -2.140707
v -0.59721047 0.2891975 -2.140707
v -0.89581573 0.2891975 -1.1190059
v -0.59721047 0 -2.140707
v -0.89581573 0.2891975 -1.1190059
v -0.89581573 0 -1.1190059
v 0.59721047 0 -2.140707
v 0.89581573 0.2891975 -1.1190059
v 0.59721047 0.2891975 -2.140707
v 0.59721047 0 -2.140707
v 0.89581573 0 -1.1190059
v 0.89581573 0.2891975 -1.1190059
v -0.89581573 0.2891975 -1.1190059
v 0.89581573 0.2891975 -1.1190059
v 0 0.59492064 -0.6592404
v -0.89581573 0.2891975 -1.1190059
v 0 0.59492064 -0.6592404
v -1.11441 0.2891975 -0.09730482
v 0.89581573 0.2891975 -1.1190059
v 1.11441 0.2891975 -0.09730482
v 0 0.59492064 -0.6592404
v -0.89581573 0 -1.1190059
v -1.11441 0 -0.09730482
v 0.89581573 0 -1.1190059
v 0.89581573 0 -1.1190059
v -1.11441 0 -0.09730482
v 1.11441 0 -0.09730482
v -0.89581573 0 -1.1190059
v -0.89581573 0.2891975 -1.1190059
v -1.11441 0.2891975 -0.09730482
v -0.89581573 0 -1.1190059
v -1.11441 0.2891975 -0.09730482
v -1.11441 0 -0.09730482
v 0.89581573 0 -1.1190059
v 1.11441 0.2891975 -0.09730482
v 0.89581573 0.2891975 -1.1190059
v 0.89581573 0 -1.1190059
v 1.11441 0 -0.09730482
v 1.11441 0.2891975 -0.09730482
v -1.11441 0.2891975 -0.09730482
v 1.11441 0.2891975 -0.09730482
v 0 0.59492064 0.36246067
v -1.11441 0.2891975 -0.09730482
v 0 0.59492064 0.36246067
v -1.1944209 0.2891975 0.9243963
v 1.11441 0.2891975 -0.09730482
v 1.1944209 0.2891975 0.9243963
v 0 0.59492064 0.36246067
v -1.11441 0 -0.09730482
v -1.1944209 0 0.9243963
v 1.11441 0 -0.09730482
v 1.11441 0 -0.09730482
v -1.1944209 0 0.9243963
v 1.1944209 0 0.9243963
v -1.11441 0 -0.09730482
v -1.11441 0.2891975 -0.09730482
v -1.1944209 0.2891975 0.9243963
v -1.11441 0 -0.09730482
v -1.1944209 0.2891975 0.9243963
v -1.1944209 0 0.9243963
v 1.11441 0 -0.09730482
v 1.1944209 0.2891975 0.9243963
v 1.11441 0.2891975 -0.09730482
v 1.11441 0 -0.09730482
v 1.1944209 0 0.9243963
v 1.1944209 0.2891975 0.9243963
v -1.1944209 0.2891975 0.9243963
v 1.1944209 0.2891975 0.9243963
v 0 0.59492064 1.3841617
v -1.1944209 0.2891975 0.9243963
v 0 0.59492064 1.3841617
v -1.1144099 0.2891975 1.9460974
v 1.1944209 0.2891975 0.9243963
v 1.1144099 0.2891975 1.9460974
v 0 0.59492064 1.3841617
v -1.1944209 0 0.9243963
v -1.1144099 0 1.9460974
v 1.1944209 0 0.9243963
v 1.1944209 0 0.9243963
v -1.1144099 0 1.9460974
v 1.1144099 0 1.9460974
v -1.1944209 0 0.9243963
v -1.1944209 0.2891975 0.9243963
v -1.1144099 0.2891975 1.9460974
v -1.1944209 0 0.9243963
v -1.1144099 0.2891975 1.9460974
v -1.1144099 0 1.9460974
v 1.1944209 0 0.9243963
v 1.1144099 0.2891975 1.9460974
v 1.1944209 0.2891975 0.9243963
v 1.1944209 0 0.9243963
v 1.1144099 0 1.9460974
v 1.1144099 0.2891975 1.9460974
v -1.1144099 0.2891975 1.9460974
v 1.1144099 0.2891975 1.9460974
v 0 0.59492064 2.4058628
v -1.1144099 0.2891975 1.9460974
v 0 0.59492064 2.4058628
v -0.8958158 0.2891975 2.9677982
v 1.1144099 0.2891975 1.9460974
v 0.8958158 0.2891975 2.9677982
v 0 0.59492064 2.4058628
v -1.1144099 0 1.9460974
v -0.8958158 0 2.9677982
v 1.1144099 0 1.9460974
v 1.1144099 0 1.9460974
v -0.8958158 0 2.9677982
v 0.8958158 0 2.9677982
v -1.1144099 0 1.9460974
v -1.1144099 0.2891975 1.9460974
v -0.8958158 0.2891975 2.9677982
v -1.1144099 0 1.9460974
v -0.8958158 0.2891975 2.9677982
v -0.8958158 0 2.9677982
v 1.1144099 0 1.9460974
v 0.8958158 0.2891975 2.9677982
v 1.1144099 0.2891975 1.9460974
v 1.1144099 0 1.9460974
v 0.8958158 0 2.9677982
v 0.8958158 0.2891975 2.9677982
v -0.8958158 0.2891975 2.9677982
v 0.8958158 0.2891975 2.9677982
v 0 0.59492064 3.427564
v -0.8958158 0.2891975 2.9677982
v 0 0.59492064 3.427564
v -0 0.2891975 3.9894996
v 0.8958158 0.2891975 2.9677982
v 0 0.2891975 3.9894996
v 0 0.59492064 3.427564
v -0.8958158 0 2.9677982
v -0 0 3.9894996
v 0.8958158 0 2.9677982
v 0.8958158 0 2.9677982
v -0 0 3.9894996
v 0 0 3.9894996
v -0.8958158 0 2.9677982
v -0.8958158 0.2891975 2.9677982
v -0 0.2891975 3.9894996
v -0.8958158 0 2.9677982
v -0 0.2891975 3.9894996
v -0 0 3.9894996
v 0.8958158 0 2.9677982
v 0 0.2891975 3.9894996
v 0.8958158 0.2891975 2.9677982
v 0.8958158 0 2.9677982
v 0 0 3.9894996
v 0 0.2891975 3.9894996
v -0.435466 0 3.9894996
v 0.435466 0 3.9894996
v 0 0.5056825 4.184109
v -0.435466 0 -2.140707
v 0 0.17351851 -2.2866642
v 0.435466 0 -2.140707
v 0 0.64449733 -1.6298565
v -0.124418855 0.51229274 -1.8040428
v 0.124418855 0.51229274 -1.8040428
v 0 0.64449733 -0.60815537
v -0.124418855 0.51229274 -0.7823418
v 0.124418855 0.51229274 -0.7823418
v 0 0.64449733 0.4135456
v -0.124418855 0.51229274 0.23935921
v 0.124418855 0.51229274 0.23935921
v 0 0.64449733 1.4352467
v -0.124418855 0.51229274 1.2610604
v 0.124418855 0.51229274 1.2610604
v 0 0.64449733 2.4569478
v -0.124418855 0.51229274 2.2827613
v 0.124418855 0.51229274 2.2827613
v -0.52255917 0.23135802 -1.0372698
v 0.52255917 0.23135802 -1.0372698
v 0 0.39661375 -1.6502905
v -0.7508035 0.08932742 -0.61921275
v -1.0468346 0 -0.78202987
v -0.45477238 0 -0.78202987
v 0 0.08932742 -0.61921275
v -0.2960311 0 -0.78202987
v 0.2960311 0 -0.78202987
v 0.7508035 0.08932742 -0.61921275
v 0.45477238 0 -0.78202987
v 1.0468346 0 -0.78202987
v -0.406714 0.05582964 -0.60152096
v 0.406714 0.05582964 -0.60152096
v 0 0.24565041 -0.4688325
v -0.45390737 0.05582964 0.14153439
v 0.45390737 0.05582964 0.14153439
v 0 0.24565041 0.27422285
v -0.4719336 0.05582964 0.88458973
v 0.4719336 0.05582964 0.88458973
v 0 0.24565041 1.0172782
v -0.45390737 0.05582964 1.627645
v 0.45390737 0.05582964 1.627645
v 0 0.24565041 1.7603334
v -0.406714 0.05582964 2.3707004
v 0.406714 0.05582964 2.3707004
v 0 0.24565041 2.503389
v 0 0.614126 -0.058972597
v -0.1501607 0.46896896 -0.25800526
v 0.1501607 0.46896896 -0.25800526
v 0 0.614126 0.5897265
v -0.1501607 0.46896896 0.39069384
v 0.1501607 0.46896896 0.39069384
v 0 0.614126 1.2384255
v -0.1501607 0.46896896 1.0393928
v 0.1501607 0.46896896 1.0393928
v 0 0.614126 1.8871248
v -0.1501607 0.46896896 1.6880921
v 0.1501607 0.46896896 1.6880921
v 0 0.614126 2.5358238
v -0.1501607 0.46896896 2.336791
v 0.1501607 0.46896896 2.336791
v -0.3003214 0 -1.879753
v 0.3003214 0 -1.879753
v 0 0.05582964 -2.0787857
vn 0 -0.83270764 0.5537128
vn 0 -0.83270764 0.5537128
vn 0 -0.83270764 0.5537128
vn 0.38315386 -0.91687137 0.11198163
vn 0.38315386 -0.91687137 0.11198163
vn 0.38315386 -0.91687137 0.11198163
vn -0.38315386 -0.91687137 0.11198163
vn -0.38315386 -0.91687137 0.11198163
vn -0.38315386 -0.91687137 0.11198163
vn 0 1 -0
vn 0 1 -0
vn 0 1 -0
vn 0 1 -0
vn 0 1 -0
vn 0 1 -0
vn 0.9598461 -0 0.28052735
vn 0.9598461 -0 0.28052735
vn 0.9598461 -0 0.28052735
vn 0.9598461 0 0.28052735
vn 0.9598461 0 0.28052735
vn 0.9598461 0 0.28052735
vn -0.9598461 0 0.28052735
vn -0.9598461 0 0.28052735
vn -0.9598461 0 0.28052735
vn -0.9598461 0 0.28052735
vn -0.9598461 0 0.28052735
vn -0.9598461 0 0.28052735
vn 0 -0.83270776 0.5537128
vn 0 -0.83270776 0.5537128
vn 0 -0.83270776 0.5537128
vn 0.29334882 -0.9539431 0.06276237
vn 0.29334882 -0.9539431 0.06276237
vn 0.29334882 -0.9539431 0.06276237
vn -0.29334882 -0.9539431 0.06276237
vn -0.29334882 -0.9539431 0.06276237
vn -0.29334882 -0.9539431 0.06276237
vn 0 1 -0
vn 0 1 -0
vn 0 1 -0
vn 0 1 -0
vn 0 1 -0
vn 0 1 -0
vn 0.9778694 -0 0.20921648
vn 0.9778694 -0 0.20921648
vn 0.9778694 -0 0.20921648
vn 0.9778694 0 0.20921648
vn 0.9778694 0 0.20921648
vn 0.9778694 0 0.20921648
vn -0.9778694 0 0.20921648
vn -0.9778694 0 0.20921648
vn -0.9778694 0 0.20921648
vn -0.9778694 0 0.20921648
vn -0.9778694 0 0.20921648
vn -0.9778694 0 0.20921648
vn 0 -0.83270776 0.5537127
vn 0 -0.83270776 0.5537127
vn 0 -0.83270776 0.5537127
vn 0.2567838 -0.9662596 0.020109111
vn 0.2567838 -0.9662596 0.020109111
vn 0.2567838 -0.9662596 0.020109111
vn -0.2567838 -0.9662596 0.020109111
vn -0.2567838 -0.9662596 0.020109111
vn -0.2567838 -0.9662596 0.020109111
vn 0 0.99999994 -0
vn 0 0.99999994 -0
vn 0 0.99999994 -0
vn 0 1 -0
vn 0 1 -0
vn 0 1 -0
vn 0.99694765 -0 0.078072414
vn 0.99694765 -0 0.078072414
vn 0.99694765 -0 0.078072414
vn 0.99694765 0 0.078072414
vn 0.99694765 0 0.078072414
vn 0.99694765 0 0.078072414
vn -0.99694765 0 0.078072414
vn -0.99694765 0 0.078072414
vn -0.99694765 0 0.078072414
vn -0.99694765 0 0.078072414
vn -0.99694765 0 0.078072414
vn -0.99694765 0 0.078072414
vn 0 -0.83270764 0.5537128
vn 0 -0.83270764 0.5537128
vn 0 -0.83270764 0.5537128
vn 0.25512674 -0.96670115 -0.019979376
vn 0.25512674 -0.96670115 -0.019979376
vn 0.25512674 -0.96670115 -0.019979376
vn -0.25512674 -0.96670115 -0.019979376
vn -0.25512674 -0.96670115 -0.019979376
vn -0.25512674 -0.96670115 -0.019979376
vn 0 1 0
vn 0 1 0
vn 0 1 0
vn 0 1 0
vn 0 1 0
vn 0 1 0
vn 0.99694765 0 -0.07807253
vn 0.99694765 0 -0.07807253
vn 0.99694765 0 -0.07807253
vn 0.99694765 0 -0.07807253
vn 0.99694765 0 -0.07807253
vn 0.99694765 0 -0.07807253
vn -0.99694765 0 -0.07807253
vn -0.99694765 0 -0.07807253
vn -0.99694765 0 -0.07807253
vn -0.99694765 0 -0.07807253
vn -0.99694765 0 -0.07807253
vn -0.99694765 0 -0.07807253
vn 0 -0.8327077 0.5537128
vn 0 -0.8327077 0.5537128
vn 0 -0.8327077 0.5537128
vn 0.28758895 -0.9557754 -0.061530013
vn 0.28758895 -0.9557754 -0.061530013
vn 0.28758895 -0.9557754 -0.061530013
vn -0.28758895 -0.9557754 -0.061530013
vn -0.28758895 -0.9557754 -0.061530013
vn -0.28758895 -0.9557754 -0.061530013
vn 0 1 0
vn 0 1 0
vn 0 1 0
vn 0 1 0
vn 0 1 0
vn 0 1 0
vn 0.97786945 0 -0.20921636
vn 0.97786945 0 -0.20921636
vn 0.97786945 0 -0.20921636
vn 0.97786945 0 -0.20921636
vn 0.97786945 0 -0.20921636
vn 0.97786945 0 -0.20921636
vn -0.97786945 0 -0.20921636
vn -0.97786945 0 -0.20921636
vn -0.97786945 0 -0.20921636
vn -0.97786945 0 -0.20921636
vn -0.97786945 0 -0.20921636
vn -0.97786945 0 -0.20921636
vn 0 -0.8327078 0.55371255
vn 0 -0.8327078 0.55371255
vn 0 -0.8327078 0.55371255
vn 0.47858602 -0.7712818 -0.4196186
vn 0.47858602 -0.7712818 -0.4196186
vn 0.47858602 -0.7712818 -0.4196186
vn -0.47858602 -0.7712818 -0.4196186
vn -0.47858602 -0.7712818 -0.4196186
vn -0.47858602 -0.7712818 -0.4196186
vn 0 0.99999994 0
vn 0 0.99999994 0
vn 0 0.99999994 0
vn 0 1 0
vn 0 1 0
vn 0 1 0
vn 0.75191 0 -0.6592658
vn 0.75191 0 -0.6592658
vn 0.75191 0 -0.6592658
vn 0.75191 0 -0.6592658
vn 0.75191 0 -0.6592658
vn 0.75191 0 -0.6592658
vn -0.75191 0 -0.6592658
vn -0.75191 0 -0.6592658
vn -0.75191 0 -0.6592658
vn -0.75191 0 -0.6592658
vn -0.75191 0 -0.6592658
vn -0.75191 0 -0.6592658
vn 0 -0.35916615 0.93327355
vn 0 -0.35916615 0.93327355
vn 0 -0.35916615 0.93327355
vn 0 -0.6437135 -0.7652666
vn 0 -0.6437135 -0.7652666
vn 0 -0.6437135 -0.7652666
vn 0 -0.796552 0.60457
vn 0 -0.796552 0.60457
vn 0 -0.796552 0.60457
vn 0 -0.7965521 0.60456985
vn 0 -0.7965521 0.60456985
vn 0 -0.7965521 0.60456985
vn 0 -0.7965521 0.6045699
vn 0 -0.7965521 0.6045699
vn 0 -0.7965521 0.6045699
vn 0 -0.796552 0.60457
vn 0 -0.796552 0.60457
vn 0 -0.796552 0.60457
vn 0 -0.79655224 0.6045697
vn 0 -0.79655224 0.6045697
vn 0 -0.79655224 0.6045697
vn -0 0.965532 0.26028436
vn -0 0.965532 0.26028436
vn -0 0.965532 0.26028436
vn 0 -0.8767202 0.48100072
vn 0 -0.8767202 0.48100072
vn 0 -0.8767202 0.48100072
vn 0 -0.8767202 0.4810007
vn 0 -0.8767202 0.4810007
vn 0 -0.8767202 0.4810007
vn 0 -0.8767202 0.48100072
vn 0 -0.8767202 0.48100072
vn 0 -0.8767202 0.48100072
vn 0 -0.572923 0.81960917
vn 0 -0.572923 0.81960917
vn 0 -0.572923 0.81960917
vn 0 -0.57292295 0.81960917
vn 0 -0.57292295 0.81960917
vn 0 -0.57292295 0.81960917
vn 0 -0.57292295 0.8196092
vn 0 -0.57292295 0.8196092
vn 0 -0.57292295 0.8196092
vn 0 -0.5729228 0.81960934
vn 0 -0.5729228 0.81960934
vn 0 -0.5729228 0.81960934
vn 0 -0.57292324 0.8196091
vn 0 -0.57292324 0.8196091
vn 0 -0.57292324 0.8196091
vn 0 -0.8079513 0.5892492
vn 0 -0.8079513 0.5892492
vn 0 -0.8079513 0.5892492
vn 0 -0.8079513 0.5892492
vn 0 -0.8079513 0.5892492
vn 0 -0.8079513 0.5892492
vn 0 -0.8079513 0.5892492
vn 0 -0.8079513 0.5892492
vn 0 -0.8079513 0.5892492
vn 0 -0.8079513 0.5892492
vn 0 -0.8079513 0.5892492
vn 0 -0.8079513 0.5892492
vn 0 -0.80795145 0.589249
vn 0 -0.80795145 0.589249
vn 0 -0.80795145 0.589249
vn -0 0.9628377 0.2700807
vn -0 0.9628377 0.2700807
vn -0 0.9628377 0.2700807
f 1//1 2//2 3//3
f 4//4 5//5 6//6
f 7//7 8//8 9//9
f 10//10 11//11 12//12
f 13//13 14//14 15//15
f 16//16 17//17 18//18
f 19//19 20//20 21//21
f 22//22 23//23 24//24
f 25//25 26//26 27//27
f 28//28 29//29 30//30
f 31//31 32//32 33//33
f 34//34 35//35 36//36
f 37//37 38//38 39//39
f 40//40 41//41 42//42
f 43//43 44//44 45//45
f 46//46 47//47 48//48
f 49//49 50//50 51//51
f 52//52 53//53 54//54
f 55//55 56//56 57//57
f 58//58 59//59 60//60
f 61//61 62//62 63//63
f 64//64 65//65 66//66
f 67//67 68//68 69//69
f 70//70 71//71 72//72
f 73//73 74//74 75//75
f 76//76 77//77 78//78
f 79//79 80//80 81//81
f 82//82 83//83 84//84
f 85//85 86//86 87//87
f 88//88 89//89 90//90
f 91//91 92//92 93//93
f 94//94 95//95 96//96
f 97//97 98//98 99//99
f 100//100 101//101 102//102
f 103//103 104//104 105//105
f 106//106 107//107 108//108
f 109//109 110//110 111//111
f 112//112 113//113 114//114
f 115//115 116//116 117//117
f 118//118 119//119 120//120
f 121//121 122//122 123//123
f 124//124 125//125 126//126
f 127//127 128//128 129//129
f 130//130 131//131 132//132
f 133//133 134//134 135//135
f 136//136 137//137 138//138
f 139//139 140//140 141//141
f 142//142 143//143 144//144
f 145//145 146//146 147//147
f 148//148 149//149 150//150
f 151//151 152//152 153//153
f 154//154 155//155 156//156
f 157//157 158//158 159//159
f 160//160 161//161 162//162
f 163//163 164//164 165//165
f 166//166 167//167 168//168
f 169//169 170//170 171//171
f 172//172 173//173 174//174
f 175//175 176//176 177//177
f 178//178 179//179 180//180
f 181//181 182//182 183//183
f 184//184 185//185 186//186
f 187//187 188//188 189//189
f 190//190 191//191 192//192
f 193//193 194//194 195//195
f 196//196 197//197 198//198
f 199//199 200//200 201//201
f 202//202 203//203 204//204
f 205//205 206//206 207//207
f 208//208 209//209 210//210
f 211//211 212//212 213//213
f 214//214 215//215 216//216
f 217//217 218//218 219//219
f 220//220 221//221 222//222
f 223//223 224//224 225//225
f 226//226 227//227 228//228
