# Exported from SharpOpenGl procedural mesh
o vesper_carrier_mk2_27
# vertices 294
v -0.8256314 0.4764953 -3.4418464
v 0.8256314 0.4764953 -3.4418464
v 0 0.98021895 -2.8874352
v -0.8256314 0.4764953 -3.4418464
v 0 0.98021895 -2.8874352
v -1.1415869 0.4764953 -2.2098217
v 0.8256314 0.4764953 -3.4418464
v 1.1415869 0.4764953 -2.2098217
v 0 0.98021895 -2.8874352
v -0.8256314 0 -3.4418464
v -1.1415869 0 -2.2098217
v 0.8256314 0 -3.4418464
v 0.8256314 0 -3.4418464
v -1.1415869 0 -2.2098217
v 1.1415869 0 -2.2098217
v -0.8256314 0 -3.4418464
v -0.8256314 0.4764953 -3.4418464
v -1.1415869 0.4764953 -2.2098217
v -0.8256314 0 -3.4418464
v -1.1415869 0.4764953 -2.2098217
v -1.1415869 0 -2.2098217
v 0.8256314 0 -3.4418464
v 1.1415869 0.4764953 -2.2098217
v 0.8256314 0.4764953 -3.4418464
v 0.8256314 0 -3.4418464
v 1.1415869 0 -2.2098217
v 1.1415869 0.4764953 -2.2098217
v -1.1415869 0.4764953 -2.2098217
v 1.1415869 0.4764953 -2.2098217
v 0 0.98021895 -1.6554108
v -1.1415869 0.4764953 -2.2098217
v 0 0.98021895 -1.6554108
v -1.409441 0.4764953 -0.97779727
v 1.1415869 0.4764953 -2.2098217
v 1.409441 0.4764953 -0.97779727
v 0 0.98021895 -1.6554108
v -1.1415869 0 -2.2098217
v -1.409441 0 -0.97779727
v 1.1415869 0 -2.2098217
v 1.1415869 0 -2.2098217
v -1.409441 0 -0.97779727
v 1.409441 0 -0.97779727
v -1.1415869 0 -2.2098217
v -1.1415869 0.4764953 -2.2098217
v -1.409441 0.4764953 -0.97779727
v -1.1415869 0 -2.2098217
v -1.409441 0.4764953 -0.97779727
v -1.409441 0 -0.97779727
v 1.1415869 0 -2.2098217
v 1.409441 0.4764953 -0.97779727
v 1.1415869 0.4764953 -2.2098217
v 1.1415869 0 -2.2098217
v 1.409441 0 -0.97779727
v 1.409441 0.4764953 -0.97779727
v -1.409441 0.4764953 -0.97779727
v 1.409441 0.4764953 -0.97779727
v 0 0.98021895 -0.42338628
v -1.409441 0.4764953 -0.97779727
v 0 0.98021895 -0.42338628
v -1.5884154 0.4764953 0.25422716
v 1.409441 0.4764953 -0.97779727
v 1.5884154 0.4764953 0.25422716
v 0 0.98021895 -0.42338628
v -1.409441 0 -0.97779727
v -1.5884154 0 0.25422716
v 1.409441 0 -0.97779727
v 1.409441 0 -0.97779727
v -1.5884154 0 0.25422716
v 1.5884154 0 0.25422716
v -1.409441 0 -0.97779727
v -1.409441 0.4764953 -0.97779727
v -1.5884154 0.4764953 0.25422716
v -1.409441 0 -0.97779727
v -1.5884154 0.4764953 0.25422716
v -1.5884154 0 0.25422716
v 1.409441 0 -0.97779727
v 1.5884154 0.4764953 0.25422716
v 1.409441 0.4764953 -0.97779727
v 1.409441 0 -0.97779727
v 1.5884154 0 0.25422716
v 1.5884154 0.4764953 0.25422716
v -1.5884154 0.4764953 0.25422716
v 1.5884154 0.4764953 0.25422716
v 0 0.98021895 0.8086383
v -1.5884154 0.4764953 0.25422716
v 0 0.98021895 0.8086383
v -1.6512628 0.4764953 1.4862518
v 1.5884154 0.4764953 0.25422716
v 1.6512628 0.4764953 1.4862518
v 0 0.98021895 0.8086383
v -1.5884154 0 0.25422716
v -1.6512628 0 1.4862518
v 1.5884154 0 0.25422716
v 1.5884154 0 0.25422716
v -1.6512628 0 1.4862518
v 1.6512628 0 1.4862518
v -1.5884154 0 0.25422716
v -1.5884154 0.4764953 0.25422716
v -1.6512628 0.4764953 1.4862518
v -1.5884154 0 0.25422716
v -1.6512628 0.4764953 1.4862518
v -1.6512628 0 1.4862518
v 1.5884154 0 0.25422716
v 1.6512628 0.4764953 1.4862518
v 1.5884154 0.4764953 0.25422716
v 1.5884154 0 0.25422716
v 1.6512628 0 1.4862518
v 1.6512628 0.4764953 1.4862518
v -1.6512628 0.4764953 1.4862518
v 1.6512628 0.4764953 1.4862518
v 0 0.98021895 2.040663
v -1.6512628 0.4764953 1.4862518
v 0 0.98021895 2.040663
v -1.5884154 0.4764953 2.7182765
v 1.6512628 0.4764953 1.4862518
v 1.5884154 0.4764953 2.7182765
v 0 0.98021895 2.040663
v -1.6512628 0 1.4862518
v -1.5884154 0 2.7182765
v 1.6512628 0 1.4862518
v 1.6512628 0 1.4862518
v -1.5884154 0 2.7182765
v 1.5884154 0 2.7182765
v -1.6512628 0 1.4862518
v -1.6512628 0.4764953 1.4862518
v -1.5884154 0.4764953 2.7182765
v -1.6512628 0 1.4862518
v -1.5884154 0.4764953 2.7182765
v -1.5884154 0 2.7182765
v 1.6512628 0 1.4862518
v 1.5884154 0.4764953 2.7182765
v 1.6512628 0.4764953 1.4862518
v 1.6512628 0 1.4862518
v 1.5884154 0 2.7182765
v 1.5884154 0.4764953 2.7182765
v -1.5884154 0.4764953 2.7182765
v 1.5884154 0.4764953 2.7182765
v 0 0.98021895 3.2726874
v -1.5884154 0.4764953 2.7182765
v 0 0.98021895 3.2726874
v -1.409441 0.4764953 3.9503007
v 1.5884154 0.4764953 2.7182765
v 1.409441 0.4764953 3.9503007
v 0 0.98021895 3.2726874
v -1.5884154 0 2.7182765
v -1.409441 0 3.9503007
v 1.5884154 0 2.7182765
v 1.5884154 0 2.7182765
v -1.409441 0 3.9503007
v 1.409441 0 3.9503007
v -1.5884154 0 2.7182765
v -1.5884154 0.4764953 2.7182765
v -1.409441 0.4764953 3.9503007
v -1.5884154 0 2.7182765
v -1.409441 0.4764953 3.9503007
v -1.409441 0 3.9503007
v 1.5884154 0 2.7182765
v 1.409441 0.4764953 3.9503007
v 1.5884154 0.4764953 2.7182765
v 1.5884154 0 2.7182765
v 1.409441 0 3.9503007
v 1.409441 0.4764953 3.9503007
v -1.409441 0.4764953 3.9503007
v 1.409441 0.4764953 3.9503007
v 0 0.98021895 4.504712
v -1.409441 0.4764953 3.9503007
v 0 0.98021895 4.504712
v -0.8918646 0.4764953 5.182326
v 1.409441 0.4764953 3.9503007
v 0.8918646 0.4764953 5.182326
v 0 0.98021895 4.504712
v -1.409441 0 3.9503007
v -0.8918646 0 5.182326
v 1.409441 0 3.9503007
v 1.409441 0 3.9503007
v -0.8918646 0 5.182326
v 0.8918646 0 5.182326
v -1.409441 0 3.9503007
v -1.409441 0.4764953 3.9503007
v -0.8918646 0.4764953 5.182326
v -1.409441 0 3.9503007
v -0.8918646 0.4764953 5.182326
v -0.8918646 0 5.182326
v 1.409441 0 3.9503007
v 0.8918646 0.4764953 5.182326
v 1.409441 0.4764953 3.9503007
v 1.409441 0 3.9503007
v 0.8918646 0 5.182326
v 0.8918646 0.4764953 5.182326
v -0.8918646 0.4764953 5.182326
v 0.8918646 0.4764953 5.182326
v 0 0.98021895 5.736737
v -0.8918646 0.4764953 5.182326
v 0 0.98021895 5.736737
v -0 0.4764953 6.41435
v 0.8918646 0.4764953 5.182326
v 0 0.4764953 6.41435
v 0 0.98021895 5.736737
v -0.8918646 0 5.182326
v -0 0 6.41435
v 0.8918646 0 5.182326
v 0.8918646 0 5.182326
v -0 0 6.41435
v 0 0 6.41435
v -0.8918646 0 5.182326
v -0.8918646 0.4764953 5.182326
v -0 0.4764953 6.41435
v -0.8918646 0 5.182326
v -0 0.4764953 6.41435
v -0 0 6.41435
v 0.8918646 0 5.182326
v 0 0.4764953 6.41435
v 0.8918646 0.4764953 5.182326
v 0.8918646 0 5.182326
v 0 0 6.41435
v 0 0.4764953 6.41435
v -0.6020229 0 6.41435
v 0.6020229 0 6.41435
v 0 0.83318615 6.7272453
v -0.6020229 0 -3.4418464
v 0 0.2858972 -3.6765177
v 0.6020229 0 -3.4418464
v 0 1.0619038 -2.825834
v -0.17200655 0.8440774 -3.0666432
v 0.17200655 0.8440774 -3.0666432
v 0 1.0619038 -1.5938096
v -0.17200655 0.8440774 -1.8346188
v 0.17200655 0.8440774 -1.8346188
v 0 1.0619038 -0.36178493
v -0.17200655 0.8440774 -0.60259414
v 0.17200655 0.8440774 -0.60259414
v 0 1.0619038 0.87023973
v -0.17200655 0.8440774 0.62943053
v 0.17200655 0.8440774 0.62943053
v 0 1.0619038 2.102264
v -0.17200655 0.8440774 1.8614547
v 0.17200655 0.8440774 1.8614547
v 0 1.0619038 3.3342886
v -0.17200655 0.8440774 3.0934794
v 0.17200655 0.8440774 3.0934794
v 0 1.0619038 4.5663133
v -0.17200655 0.8440774 4.3255043
v 0.17200655 0.8440774 4.3255043
v -0.7224275 0.38119623 -1.6677309
v 0.7224275 0.38119623 -1.6677309
v 0 0.6534793 -2.6533506
v -1.0379705 0.14718 -0.99557537
v -1.5361965 0 -1.2695997
v -0.5397446 0 -1.2695997
v 0 0.14718 -0.99557537
v -0.4982259 0 -1.2695997
v 0.4982259 0 -1.2695997
v 1.0379705 0.14718 -0.99557537
v 0.5397446 0 -1.2695997
v 1.5361965 0 -1.2695997
v -0.5509872 0.09198751 -1.1378005
v 0.5509872 0.09198751 -1.1378005
v 0 0.40474504 -0.92446285
v -0.6033087 0.09198751 -0.28445017
v 0.6033087 0.09198751 -0.28445017
v 0 0.40474504 -0.07111259
v -0.6395163 0.09198751 0.5689002
v 0.6395163 0.09198751 0.5689002
v 0 0.40474504 0.7822378
v -0.65243864 0.09198751 1.4222504
v 0.65243864 0.09198751 1.4222504
v 0 0.40474504 1.6355879
v -0.6395163 0.09198751 2.2756004
v 0.6395163 0.09198751 2.2756004
v 0 0.40474504 2.488938
v -0.6033087 0.09198751 3.128951
v 0.6033087 0.09198751 3.128951
v 0 0.40474504 3.3422887
v -0.5509872 0.09198751 3.9823012
v 0.5509872 0.09198751 3.9823012
v 0 0.40474504 4.1956387
v 0 1.0118626 -0.094816566
v -0.20759413 0.77269506 -0.41482297
v 0.20759413 0.77269506 -0.41482297
v 0 1.0118626 0.9481673
v -0.20759413 0.77269506 0.62816095
v 0.20759413 0.77269506 0.62816095
v 0 1.0118626 1.9911511
v -0.20759413 0.77269506 1.6711447
v 0.20759413 0.77269506 1.6711447
v 0 1.0118626 3.034135
v -0.20759413 0.77269506 2.7141287
v 0.20759413 0.77269506 2.7141287
v 0 1.0118626 4.077119
v -0.20759413 0.77269506 3.7571125
v 0.20759413 0.77269506 3.7571125
v -0.41518825 0 -3.0222824
v 0.41518825 0 -3.0222824
v 0 0.09198751 -3.3422887
vn 0 -0.7401304 0.67246336
vn 0 -0.7401304 0.67246336
vn 0 -0.7401304 0.67246336
vn 0.45848334 -0.88089055 0.11757909
vn 0.45848334 -0.88089055 0.11757909
vn 0.45848334 -0.88089055 0.11757909
vn -0.45848334 -0.88089055 0.11757909
vn -0.45848334 -0.88089055 0.11757909
vn -0.45848334 -0.88089055 0.11757909
vn 0 1 -0
vn 0 1 -0
vn 0 1 -0
vn 0 1 -0
vn 0 1 -0
vn 0 1 -0
vn 0.96865404 -0 0.24841353
vn 0.96865404 -0 0.24841353
vn 0.96865404 -0 0.24841353
vn 0.96865404 0 0.24841353
vn 0.96865404 0 0.24841353
vn 0.96865404 0 0.24841353
vn -0.96865404 0 0.24841353
vn -0.96865404 0 0.24841353
vn -0.96865404 0 0.24841353
vn -0.96865404 0 0.24841353
vn -0.96865404 0 0.24841353
vn -0.96865404 0 0.24841353
vn 0 -0.74013025 0.6724634
vn 0 -0.74013025 0.6724634
vn 0 -0.74013025 0.6724634
vn 0.36947912 -0.9257605 0.08032835
vn 0.36947912 -0.9257605 0.08032835
vn 0.36947912 -0.9257605 0.08032835
vn -0.36947912 -0.9257605 0.08032835
vn -0.36947912 -0.9257605 0.08032835
vn -0.36947912 -0.9257605 0.08032835
vn 0 1 -0
vn 0 1 -0
vn 0 1 -0
vn 0 1 -0
vn 0 1 -0
vn 0 1 -0
vn 0.9771726 -0 0.21244684
vn 0.9771726 -0 0.21244684
vn 0.9771726 -0 0.21244684
vn 0.9771726 0 0.21244684
vn 0.9771726 0 0.21244684
vn 0.9771726 0 0.21244684
vn -0.9771726 0 0.21244684
vn -0.9771726 0 0.21244684
vn -0.9771726 0 0.21244684
vn -0.9771726 0 0.21244684
vn -0.9771726 0 0.21244684
vn -0.9771726 0 0.21244684
vn 0 -0.74013036 0.67246354
vn 0 -0.74013036 0.67246354
vn 0 -0.74013036 0.67246354
vn 0.3199209 -0.9463038 0.046474442
vn 0.3199209 -0.9463038 0.046474442
vn 0.3199209 -0.9463038 0.046474442
vn -0.3199209 -0.9463038 0.046474442
vn -0.3199209 -0.9463038 0.046474442
vn -0.3199209 -0.9463038 0.046474442
vn 0 1 -0
vn 0 1 -0
vn 0 1 -0
vn 0 1 -0
vn 0 1 -0
vn 0 1 -0
vn 0.98961264 -0 0.1437596
vn 0.98961264 -0 0.1437596
vn 0.98961264 -0 0.1437596
vn 0.98961264 0 0.1437596
vn 0.98961264 0 0.1437596
vn 0.98961264 0 0.1437596
vn -0.98961264 0 0.1437596
vn -0.98961264 0 0.1437596
vn -0.98961264 0 0.1437596
vn -0.98961264 0 0.1437596
vn -0.98961264 0 0.1437596
vn -0.98961264 0 0.1437596
vn 0 -0.7401304 0.67246336
vn 0 -0.7401304 0.67246336
vn 0 -0.7401304 0.67246336
vn 0.29743677 -0.9546209 0.015172684
vn 0.29743677 -0.9546209 0.015172684
vn 0.29743677 -0.9546209 0.015172684
vn -0.29743677 -0.9546209 0.015172684
vn -0.29743677 -0.9546209 0.015172684
vn -0.29743677 -0.9546209 0.015172684
vn 0 0.99999994 -0
vn 0 0.99999994 -0
vn 0 0.99999994 -0
vn 0 1 -0
vn 0 1 -0
vn 0 1 -0
vn 0.99870145 -0 0.050945215
vn 0.99870145 -0 0.050945215
vn 0.99870145 -0 0.050945215
vn 0.99870145 0 0.050945215
vn 0.99870145 0 0.050945215
vn 0.99870145 0 0.050945215
vn -0.99870145 0 0.050945215
vn -0.99870145 0 0.050945215
vn -0.99870145 0 0.050945215
vn -0.99870145 0 0.050945215
vn -0.99870145 0 0.050945215
vn -0.99870145 0 0.050945215
vn 0 -0.7401304 0.67246336
vn 0 -0.7401304 0.67246336
vn 0 -0.7401304 0.67246336
vn 0.29638666 -0.9549483 -0.015119116
vn 0.29638666 -0.9549483 -0.015119116
vn 0.29638666 -0.9549483 -0.015119116
vn -0.29638666 -0.9549483 -0.015119116
vn -0.29638666 -0.9549483 -0.015119116
vn -0.29638666 -0.9549483 -0.015119116
vn 0 1 0
vn 0 1 0
vn 0 1 0
vn 0 1 0
vn 0 1 0
vn 0 1 0
vn 0.99870145 0 -0.050945215
vn 0.99870145 0 -0.050945215
vn 0.99870145 0 -0.050945215
vn 0.99870145 0 -0.050945215
vn 0.99870145 0 -0.050945215
vn 0.99870145 0 -0.050945215
vn -0.99870145 0 -0.050945215
vn -0.99870145 0 -0.050945215
vn -0.99870145 0 -0.050945215
vn -0.99870145 0 -0.050945215
vn -0.99870145 0 -0.050945215
vn -0.99870145 0 -0.050945215
vn 0 -0.7401303 0.6724635
vn 0 -0.7401303 0.6724635
vn 0 -0.7401303 0.6724635
vn 0.3165142 -0.9474728 -0.045979563
vn 0.3165142 -0.9474728 -0.045979563
vn 0.3165142 -0.9474728 -0.045979563
vn -0.3165142 -0.9474728 -0.045979563
vn -0.3165142 -0.9474728 -0.045979563
vn -0.3165142 -0.9474728 -0.045979563
vn 0 1 0
vn 0 1 0
vn 0 1 0
vn 0 0.99999994 0
vn 0 0.99999994 0
vn 0 0.99999994 0
vn 0.98961264 0 -0.14375962
vn 0.98961264 0 -0.14375962
vn 0.98961264 0 -0.14375962
vn 0.98961264 0 -0.14375962
vn 0.98961264 0 -0.14375962
vn 0.98961264 0 -0.14375962
vn -0.98961264 0 -0.14375962
vn -0.98961264 0 -0.14375962
vn -0.98961264 0 -0.14375962
vn -0.98961264 0 -0.14375962
vn -0.98961264 0 -0.14375962
vn -0.98961264 0 -0.14375962
vn 0 -0.74013054 0.6724632
vn 0 -0.74013054 0.6724632
vn 0 -0.74013054 0.6724632
vn 0.38831407 -0.9069731 -0.16313156
vn 0.38831407 -0.9069731 -0.16313156
vn 0.38831407 -0.9069731 -0.16313156
vn -0.38831407 -0.9069731 -0.16313156
vn -0.38831407 -0.9069731 -0.16313156
vn -0.38831407 -0.9069731 -0.16313156
vn 0 1 0
vn 0 1 0
vn 0 1 0
vn 0 1 0
vn 0 1 0
vn 0 1 0
vn 0.9219485 0 -0.3873125
vn 0.9219485 0 -0.3873125
vn 0.9219485 0 -0.3873125
vn 0.9219485 0 -0.3873125
vn 0.9219485 0 -0.3873125
vn 0.9219485 0 -0.3873125
vn -0.9219485 0 -0.3873125
vn -0.9219485 0 -0.3873125
vn -0.9219485 0 -0.3873125
vn -0.9219485 0 -0.3873125
vn -0.9219485 0 -0.3873125
vn -0.9219485 0 -0.3873125
vn 0 -0.7401303 0.67246354
vn 0 -0.7401303 0.67246354
vn 0 -0.7401303 0.67246354
vn 0.6359864 -0.6193228 -0.46039173
vn 0.6359864 -0.6193228 -0.46039173
vn 0.6359864 -0.6193228 -0.46039173
vn -0.6359864 -0.6193228 -0.46039173
vn -0.6359864 -0.6193228 -0.46039173
vn -0.6359864 -0.6193228 -0.46039173
vn 0 1 0
vn 0 1 0
vn 0 1 0
vn 0 1 0
vn 0 1 0
vn 0 1 0
vn 0.810033 0 -0.5863844
vn 0.810033 0 -0.5863844
vn 0.810033 0 -0.5863844
vn 0.810033 0 -0.5863844
vn 0.810033 0 -0.5863844
vn 0.810033 0 -0.5863844
vn -0.810033 0 -0.5863844
vn -0.810033 0 -0.5863844
vn -0.810033 0 -0.5863844
vn -0.810033 0 -0.5863844
vn -0.810033 0 -0.5863844
vn -0.810033 0 -0.5863844
vn 0 -0.35156718 0.93616265
vn 0 -0.35156718 0.93616265
vn 0 -0.35156718 0.93616265
vn 0 -0.63446045 -0.7729553
vn 0 -0.63446045 -0.7729553
vn 0 -0.63446045 -0.7729553
vn 0 -0.74161017 0.67083114
vn 0 -0.74161017 0.67083114
vn 0 -0.74161017 0.67083114
vn 0 -0.74161017 0.67083114
vn 0 -0.74161017 0.67083114
vn 0 -0.74161017 0.67083114
vn 0 -0.74161017 0.67083114
vn 0 -0.74161017 0.67083114
vn 0 -0.74161017 0.67083114
vn 0 -0.74161017 0.67083114
vn 0 -0.74161017 0.67083114
vn 0 -0.74161017 0.67083114
vn 0 -0.74161017 0.67083114
vn 0 -0.74161017 0.67083114
vn 0 -0.74161017 0.67083114
vn 0 -0.74161017 0.67083114
vn 0 -0.74161017 0.67083114
vn 0 -0.74161017 0.67083114
vn 0 -0.7416098 0.6708315
vn 0 -0.7416098 0.6708315
vn 0 -0.7416098 0.6708315
vn -0 0.9638952 0.26628155
vn -0 0.9638952 0.26628155
vn -0 0.9638952 0.26628155
vn 0 -0.8809692 0.47317356
vn 0 -0.8809692 0.47317356
vn 0 -0.8809692 0.47317356
vn 0 -0.88096917 0.47317353
vn 0 -0.88096917 0.47317353
vn 0 -0.88096917 0.47317353
vn 0 -0.8809692 0.47317356
vn 0 -0.8809692 0.47317356
vn 0 -0.8809692 0.47317356
vn 0 -0.56350595 0.8261119
vn 0 -0.56350595 0.8261119
vn 0 -0.56350595 0.8261119
vn 0 -0.563506 0.826112
vn 0 -0.563506 0.826112
vn 0 -0.563506 0.826112
vn 0 -0.563506 0.826112
vn 0 -0.563506 0.826112
vn 0 -0.563506 0.826112
vn 0 -0.56350595 0.8261121
vn 0 -0.56350595 0.8261121
vn 0 -0.56350595 0.8261121
vn 0 -0.5635061 0.8261119
vn 0 -0.5635061 0.8261119
vn 0 -0.5635061 0.8261119
vn 0 -0.5635061 0.82611185
vn 0 -0.5635061 0.82611185
vn 0 -0.5635061 0.82611185
vn 0 -0.56350565 0.82611215
vn 0 -0.56350565 0.82611215
vn 0 -0.56350565 0.82611215
vn 0 -0.80100477 0.5986579
vn 0 -0.80100477 0.5986579
vn 0 -0.80100477 0.5986579
vn 0 -0.80100477 0.59865797
vn 0 -0.80100477 0.59865797
vn 0 -0.80100477 0.59865797
vn 0 -0.80100477 0.59865797
vn 0 -0.80100477 0.59865797
vn 0 -0.80100477 0.59865797
vn 0 -0.80100477 0.59865797
vn 0 -0.80100477 0.59865797
vn 0 -0.80100477 0.59865797
vn 0 -0.80100477 0.59865797
vn 0 -0.80100477 0.59865797
vn 0 -0.80100477 0.59865797
vn -0 0.9610807 0.2762677
vn -0 0.9610807 0.2762677
vn -0 0.9610807 0.2762677
f 1//1 2//2 3//3
f 4//4 5//5 6//6
f 7//7 8//8 9//9
f 10//10 11//11 12//12
f 13//13 14//14 15//15
f 16//16 17//17 18//18
f 19//19 20//20 21//21
f 22//22 23//23 24//24
f 25//25 26//26 27//27
f 28//28 29//29 30//30
f 31//31 32//32 33//33
f 34//34 35//35 36//36
f 37//37 38//38 39//39
f 40//40 41//41 42//42
f 43//43 44//44 45//45
f 46//46 47//47 48//48
f 49//49 50//50 51//51
f 52//52 53//53 54//54
f 55//55 56//56 57//57
f 58//58 59//59 60//60
f 61//61 62//62 63//63
f 64//64 65//65 66//66
f 67//67 68//68 69//69
f 70//70 71//71 72//72
f 73//73 74//74 75//75
f 76//76 77//77 78//78
f 79//79 80//80 81//81
f 82//82 83//83 84//84
f 85//85 86//86 87//87
f 88//88 89//89 90//90
f 91//91 92//92 93//93
f 94//94 95//95 96//96
f 97//97 98//98 99//99
f 100//100 101//101 102//102
f 103//103 104//104 105//105
f 106//106 107//107 108//108
f 109//109 110//110 111//111
f 112//112 113//113 114//114
f 115//115 116//116 117//117
f 118//118 119//119 120//120
f 121//121 122//122 123//123
f 124//124 125//125 126//126
f 127//127 128//128 129//129
f 130//130 131//131 132//132
f 133//133 134//134 135//135
f 136//136 137//137 138//138
f 139//139 140//140 141//141
f 142//142 143//143 144//144
f 145//145 146//146 147//147
f 148//148 149//149 150//150
f 151//151 152//152 153//153
f 154//154 155//155 156//156
f 157//157 158//158 159//159
f 160//160 161//161 162//162
f 163//163 164//164 165//165
f 166//166 167//167 168//168
f 169//169 170//170 171//171
f 172//172 173//173 174//174
f 175//175 176//176 177//177
f 178//178 179//179 180//180
f 181//181 182//182 183//183
f 184//184 185//185 186//186
f 187//187 188//188 189//189
f 190//190 191//191 192//192
f 193//193 194//194 195//195
f 196//196 197//197 198//198
f 199//199 200//200 201//201
f 202//202 203//203 204//204
f 205//205 206//206 207//207
f 208//208 209//209 210//210
f 211//211 212//212 213//213
f 214//214 215//215 216//216
f 217//217 218//218 219//219
f 220//220 221//221 222//222
f 223//223 224//224 225//225
f 226//226 227//227 228//228
f 229//229 230//230 231//231
f 232//232 233//233 234//234
f 235//235 236//236 237//237
f 238//238 239//239 240//240
f 241//241 242//242 243//243
f 244//244 245//245 246//246
f 247//247 248//248 249//249
f 250//250 251//251 252//252
f 253//253 254//254 255//255
f 256//256 257//257 258//258
f 259//259 260//260 261//261
f 262//262 263//263 264//264
f 265//265 266//266 267//267
f 268//268 269//269 270//270
f 271//271 272//272 273//273
f 274//274 275//275 276//276
f 277//277 278//278 279//279
f 280//280 281//281 282//282
f 283//283 284//284 285//285
f 286//286 287//287 288//288
f 289//289 290//290 291//291
f 292//292 293//293 294//294
