# Exported from SharpOpenGl procedural mesh
o vesper_freighter_mk1_14
# vertices 228
v -0.8079997 0.3975036 -3.724606
v 0.8079997 0.3975036 -3.724606
v 0 0.8177218 -2.9246624
v -0.8079997 0.3975036 -3.724606
v 0 0.8177218 -2.9246624
v -1.2119995 0.3975036 -1.9469533
v 0.8079997 0.3975036 -3.724606
v 1.2119995 0.3975036 -1.9469533
v 0 0.8177218 -2.9246624
v -0.8079997 0 -3.724606
v -1.2119995 0 -1.9469533
v 0.8079997 0 -3.724606
v 0.8079997 0 -3.724606
v -1.2119995 0 -1.9469533
v 1.2119995 0 -1.9469533
v -0.8079997 0 -3.724606
v -0.8079997 0.3975036 -3.724606
v -1.2119995 0.3975036 -1.9469533
v -0.8079997 0 -3.724606
v -1.2119995 0.3975036 -1.9469533
v -1.2119995 0 -1.9469533
v 0.8079997 0 -3.724606
v 1.2119995 0.3975036 -1.9469533
v 0.8079997 0.3975036 -3.724606
v 0.8079997 0 -3.724606
v 1.2119995 0 -1.9469533
v 1.2119995 0.3975036 -1.9469533
v -1.2119995 0.3975036 -1.9469533
v 1.2119995 0.3975036 -1.9469533
v 0 0.8177218 -1.1470096
v -1.2119995 0.3975036 -1.9469533
v 0 0.8177218 -1.1470096
v -1.507748 0.3975036 -0.16930056
v 1.2119995 0.3975036 -1.9469533
v 1.507748 0.3975036 -0.16930056
v 0 0.8177218 -1.1470096
v -1.2119995 0 -1.9469533
v -1.507748 0 -0.16930056
v 1.2119995 0 -1.9469533
v 1.2119995 0 -1.9469533
v -1.507748 0 -0.16930056
v 1.507748 0 -0.16930056
v -1.2119995 0 -1.9469533
v -1.2119995 0.3975036 -1.9469533
v -1.507748 0.3975036 -0.16930056
v -1.2119995 0 -1.9469533
v -1.507748 0.3975036 -0.16930056
v -1.507748 0 -0.16930056
v 1.2119995 0 -1.9469533
v 1.507748 0.3975036 -0.16930056
v 1.2119995 0.3975036 -1.9469533
v 1.2119995 0 -1.9469533
v 1.507748 0 -0.16930056
v 1.507748 0.3975036 -0.16930056
v -1.507748 0.3975036 -0.16930056
v 1.507748 0.3975036 -0.16930056
v 0 0.8177218 0.6306431
v -1.507748 0.3975036 -0.16930056
v 0 0.8177218 0.6306431
v -1.6159993 0.3975036 1.6083522
v 1.507748 0.3975036 -0.16930056
v 1.6159993 0.3975036 1.6083522
v 0 0.8177218 0.6306431
v -1.507748 0 -0.16930056
v -1.6159993 0 1.6083522
v 1.507748 0 -0.16930056
v 1.507748 0 -0.16930056
v -1.6159993 0 1.6083522
v 1.6159993 0 1.6083522
v -1.507748 0 -0.16930056
v -1.507748 0.3975036 -0.16930056
v -1.6159993 0.3975036 1.6083522
v -1.507748 0 -0.16930056
v -1.6159993 0.3975036 1.6083522
v -1.6159993 0 1.6083522
v 1.507748 0 -0.16930056
v 1.6159993 0.3975036 1.6083522
v 1.507748 0.3975036 -0.16930056
v 1.507748 0 -0.16930056
v 1.6159993 0 1.6083522
v 1.6159993 0.3975036 1.6083522
v -1.6159993 0.3975036 1.6083522
v 1.6159993 0.3975036 1.6083522
v 0 0.8177218 2.4082959
v -1.6159993 0.3975036 1.6083522
v 0 0.8177218 2.4082959
v -1.5077479 0.3975036 3.386005
v 1.6159993 0.3975036 1.6083522
v 1.5077479 0.3975036 3.386005
v 0 0.8177218 2.4082959
v -1.6159993 0 1.6083522
v -1.5077479 0 3.386005
v 1.6159993 0 1.6083522
v 1.6159993 0 1.6083522
v -1.5077479 0 3.386005
v 1.5077479 0 3.386005
v -1.6159993 0 1.6083522
v -1.6159993 0.3975036 1.6083522
v -1.5077479 0.3975036 3.386005
v -1.6159993 0 1.6083522
v -1.5077479 0.3975036 3.386005
v -1.5077479 0 3.386005
v 1.6159993 0 1.6083522
v 1.5077479 0.3975036 3.386005
v 1.6159993 0.3975036 1.6083522
v 1.6159993 0 1.6083522
v 1.5077479 0 3.386005
v 1.5077479 0.3975036 3.386005
v -1.5077479 0.3975036 3.386005
v 1.5077479 0.3975036 3.386005
v 0 0.8177218 4.1859484
v -1.5077479 0.3975036 3.386005
v 0 0.8177218 4.1859484
v -1.2119995 0.3975036 5.1636577
v 1.5077479 0.3975036 3.386005
v 1.2119995 0.3975036 5.1636577
v 0 0.8177218 4.1859484
v -1.5077479 0 3.386005
v -1.2119995 0 5.1636577
v 1.5077479 0 3.386005
v 1.5077479 0 3.386005
v -1.2119995 0 5.1636577
v 1.2119995 0 5.1636577
v -1.5077479 0 3.386005
v -1.5077479 0.3975036 3.386005
v -1.2119995 0.3975036 5.1636577
v -1.5077479 0 3.386005
v -1.2119995 0.3975036 5.1636577
v -1.2119995 0 5.1636577
v 1.5077479 0 3.386005
v 1.2119995 0.3975036 5.1636577
v 1.5077479 0.3975036 3.386005
v 1.5077479 0 3.386005
v 1.2119995 0 5.1636577
v 1.2119995 0.3975036 5.1636577
v -1.2119995 0.3975036 5.1636577
v 1.2119995 0.3975036 5.1636577
v 0 0.8177218 5.963601
v -1.2119995 0.3975036 5.1636577
v 0 0.8177218 5.963601
v -0 0.3975036 6.9413104
v 1.2119995 0.3975036 5.1636577
v 0 0.3975036 6.9413104
v 0 0.8177218 5.963601
v -1.2119995 0 5.1636577
v -0 0 6.9413104
v 1.2119995 0 5.1636577
v 1.2119995 0 5.1636577
v -0 0 6.9413104
v 0 0 6.9413104
v -1.2119995 0 5.1636577
v -1.2119995 0.3975036 5.1636577
v -0 0.3975036 6.9413104
v -1.2119995 0 5.1636577
v -0 0.3975036 6.9413104
v -0 0 6.9413104
v 1.2119995 0 5.1636577
v 0 0.3975036 6.9413104
v 1.2119995 0.3975036 5.1636577
v 1.2119995 0 5.1636577
v 0 0 6.9413104
v 0 0.3975036 6.9413104
v -0.5891664 0 6.941311
v 0.5891664 0 6.941311
v 0 0.69506353 7.2799115
v -0.5891664 0 -3.724606
v 0 0.23850217 -3.9785564
v 0.5891664 0 -3.724606
v 0 0.8858652 -2.8357797
v -0.16833328 0.7041493 -3.0714462
v 0.16833328 0.7041493 -3.0714462
v 0 0.8858652 -1.0581269
v -0.16833328 0.7041493 -1.2937934
v 0.16833328 0.7041493 -1.2937934
v 0 0.8858652 0.7195258
v -0.16833328 0.7041493 0.48385924
v 0.16833328 0.7041493 0.48385924
v 0 0.8858652 2.4971786
v -0.16833328 0.7041493 2.261512
v 0.16833328 0.7041493 2.261512
v 0 0.8858652 4.2748313
v -0.16833328 0.7041493 4.0391645
v 0.16833328 0.7041493 4.0391645
v -0.7069997 0.3180029 -1.804741
v 0.7069997 0.3180029 -1.804741
v 0 0.54514784 -2.8713326
v -0.81264335 0.122781046 -1.0773654
v -1.2654018 0 -1.3263825
v -0.35988492 0 -1.3263825
v 0.81264335 0.122781046 -1.0773654
v 0.35988492 0 -1.3263825
v 1.2654018 0 -1.3263825
v 0 0.58321 -0.38477334
v -0.20316084 0.21486683 -0.5589112
v 0.20316084 0.21486683 -0.5589112
v -0.5502662 0.07673816 -1.0465834
v 0.5502662 0.07673816 -1.0465834
v 0 0.33764789 -0.8157194
v -0.6141168 0.07673816 0.24625504
v 0.6141168 0.07673816 0.24625504
v 0 0.33764789 0.47711903
v -0.6385055 0.07673816 1.5390935
v 0.6385055 0.07673816 1.5390935
v 0 0.33764789 1.7699575
v -0.6141168 0.07673816 2.831932
v 0.6141168 0.07673816 2.831932
v 0 0.33764789 3.062796
v -0.5502662 0.07673816 4.12477
v 0.5502662 0.07673816 4.12477
v 0 0.33764789 4.355634
v 0 0.8441197 -0.10260618
v -0.20316084 0.6446005 -0.44890222
v 0.20316084 0.6446005 -0.44890222
v 0 0.8441197 1.0260624
v -0.20316084 0.6446005 0.6797663
v 0.20316084 0.6446005 0.6797663
v 0 0.8441197 2.1547308
v -0.20316084 0.6446005 1.8084347
v 0.20316084 0.6446005 1.8084347
v 0 0.8441197 3.2833996
v -0.20316084 0.6446005 2.9371035
v 0.20316084 0.6446005 2.9371035
v 0 0.8441197 4.412068
v -0.20316084 0.6446005 4.065772
v 0.20316084 0.6446005 4.065772
v -0.40632167 0 -3.2705734
v 0.40632167 0 -3.2705734
v 0 0.07673816 -3.6168694
vn 0 -0.885285 0.4650488
vn 0 -0.885285 0.4650488
vn 0 -0.885285 0.4650488
vn 0.38925663 -0.9168714 0.08846476
vn 0.38925663 -0.9168714 0.08846476
vn 0.38925663 -0.9168714 0.08846476
vn -0.38925663 -0.9168714 0.08846476
vn -0.38925663 -0.9168714 0.08846476
vn -0.38925663 -0.9168714 0.08846476
vn 0 0.99999994 -0
vn 0 0.99999994 -0
vn 0 0.99999994 -0
vn 0 1 -0
vn 0 1 -0
vn 0 1 -0
vn 0.97513425 -0 0.22161478
vn 0.97513425 -0 0.22161478
vn 0.97513425 -0 0.22161478
vn 0.97513425 0 0.22161478
vn 0.97513425 0 0.22161478
vn 0.97513425 0 0.22161478
vn -0.97513425 0 0.22161478
vn -0.97513425 0 0.22161478
vn -0.97513425 0 0.22161478
vn -0.97513425 0 0.22161478
vn -0.97513425 0 0.22161478
vn -0.97513425 0 0.22161478
vn 0 -0.8852851 0.46504885
vn 0 -0.8852851 0.46504885
vn 0 -0.8852851 0.46504885
vn 0.2978303 -0.95333207 0.04955009
vn 0.2978303 -0.95333207 0.04955009
vn 0.2978303 -0.95333207 0.04955009
vn -0.2978303 -0.95333207 0.04955009
vn -0.2978303 -0.95333207 0.04955009
vn -0.2978303 -0.95333207 0.04955009
vn 0 1 -0
vn 0 1 -0
vn 0 1 -0
vn 0 1 -0
vn 0 1 -0
vn 0 1 -0
vn 0.98644125 -0 0.16411446
vn 0.98644125 -0 0.16411446
vn 0.98644125 -0 0.16411446
vn 0.98644125 0 0.16411446
vn 0.98644125 0 0.16411446
vn 0.98644125 0 0.16411446
vn -0.98644125 0 0.16411446
vn -0.98644125 0 0.16411446
vn -0.98644125 0 0.16411446
vn -0.98644125 0 0.16411446
vn -0.98644125 0 0.16411446
vn -0.98644125 0 0.16411446
vn 0 -0.8852851 0.46504885
vn 0 -0.8852851 0.46504885
vn 0 -0.8852851 0.46504885
vn 0.2606178 -0.9653115 0.015870491
vn 0.2606178 -0.9653115 0.015870491
vn 0.2606178 -0.9653115 0.015870491
vn -0.2606178 -0.9653115 0.015870491
vn -0.2606178 -0.9653115 0.015870491
vn -0.2606178 -0.9653115 0.015870491
vn 0 1 -0
vn 0 1 -0
vn 0 1 -0
vn 0 0.99999994 -0
vn 0 0.99999994 -0
vn 0 0.99999994 -0
vn 0.998151 -0 0.060783062
vn 0.998151 -0 0.060783062
vn 0.998151 -0 0.060783062
vn 0.998151 0 0.060783062
vn 0.998151 0 0.060783062
vn 0.998151 0 0.060783062
vn -0.998151 0 0.060783062
vn -0.998151 0 0.060783062
vn -0.998151 0 0.060783062
vn -0.998151 0 0.060783062
vn -0.998151 0 0.060783062
vn -0.998151 0 0.060783062
vn 0 -0.885285 0.4650488
vn 0 -0.885285 0.4650488
vn 0 -0.885285 0.4650488
vn 0.2589393 -0.96576494 -0.015768295
vn 0.2589393 -0.96576494 -0.015768295
vn 0.2589393 -0.96576494 -0.015768295
vn -0.2589393 -0.96576494 -0.015768295
vn -0.2589393 -0.96576494 -0.015768295
vn -0.2589393 -0.96576494 -0.015768295
vn 0 0.99999994 0
vn 0 0.99999994 0
vn 0 0.99999994 0
vn 0 1 0
vn 0 1 0
vn 0 1 0
vn 0.998151 0 -0.060783133
vn 0.998151 0 -0.060783133
vn 0.998151 0 -0.060783133
vn 0.998151 0 -0.060783133
vn 0.998151 0 -0.060783133
vn 0.998151 0 -0.060783133
vn -0.998151 0 -0.060783133
vn -0.998151 0 -0.060783133
vn -0.998151 0 -0.060783133
vn -0.998151 0 -0.060783133
vn -0.998151 0 -0.060783133
vn -0.998151 0 -0.060783133
vn 0 -0.885285 0.46504894
vn 0 -0.885285 0.46504894
vn 0 -0.885285 0.46504894
vn 0.29198974 -0.95518696 -0.048578374
vn 0.29198974 -0.95518696 -0.048578374
vn 0.29198974 -0.95518696 -0.048578374
vn -0.29198974 -0.95518696 -0.048578374
vn -0.29198974 -0.95518696 -0.048578374
vn -0.29198974 -0.95518696 -0.048578374
vn 0 1 0
vn 0 1 0
vn 0 1 0
vn 0 1 0
vn 0 1 0
vn 0 1 0
vn 0.98644125 0 -0.16411439
vn 0.98644125 0 -0.16411439
vn 0.98644125 0 -0.16411439
vn 0.98644125 0 -0.16411439
vn 0.98644125 0 -0.16411439
vn 0.98644125 0 -0.16411439
vn -0.98644125 0 -0.16411439
vn -0.98644125 0 -0.16411439
vn -0.98644125 0 -0.16411439
vn -0.98644125 0 -0.16411439
vn -0.98644125 0 -0.16411439
vn -0.98644125 0 -0.16411439
vn 0 -0.885285 0.46504894
vn 0 -0.885285 0.46504894
vn 0 -0.885285 0.46504894
vn 0.5011757 -0.7950244 -0.34170043
vn 0.5011757 -0.7950244 -0.34170043
vn 0.5011757 -0.7950244 -0.34170043
vn -0.5011757 -0.7950244 -0.34170043
vn -0.5011757 -0.7950244 -0.34170043
vn -0.5011757 -0.7950244 -0.34170043
vn 0 1 0
vn 0 1 0
vn 0 1 0
vn 0 1 0
vn 0 1 0
vn 0 1 0
vn 0.82623523 0 -0.5633253
vn 0.82623523 0 -0.5633253
vn 0.82623523 0 -0.5633253
vn 0.82623523 0 -0.5633253
vn 0.82623523 0 -0.5633253
vn 0.82623523 0 -0.5633253
vn -0.82623523 0 -0.5633253
vn -0.82623523 0 -0.5633253
vn -0.82623523 0 -0.5633253
vn -0.82623523 0 -0.5633253
vn -0.82623523 0 -0.5633253
vn -0.82623523 0 -0.5633253
vn 0 -0.43794844 0.89900005
vn 0 -0.43794844 0.89900005
vn 0 -0.43794844 0.89900005
vn 0 -0.7289301 -0.68458825
vn 0 -0.7289301 -0.68458825
vn 0 -0.7289301 -0.68458825
vn 0 -0.7919187 0.6106265
vn 0 -0.7919187 0.6106265
vn 0 -0.7919187 0.6106265
vn 0 -0.7919187 0.6106265
vn 0 -0.7919187 0.6106265
vn 0 -0.7919187 0.6106265
vn 0 -0.7919188 0.6106264
vn 0 -0.7919188 0.6106264
vn 0 -0.7919188 0.6106264
vn 0 -0.7919187 0.6106265
vn 0 -0.7919187 0.6106265
vn 0 -0.7919187 0.6106265
vn 0 -0.791919 0.61062616
vn 0 -0.791919 0.61062616
vn 0 -0.791919 0.61062616
vn -0 0.9780666 0.20829234
vn -0 0.9780666 0.20829234
vn -0 0.9780666 0.20829234
vn 0 -0.89690214 0.44222897
vn 0 -0.89690214 0.44222897
vn 0 -0.89690214 0.44222897
vn 0 -0.89690214 0.44222897
vn 0 -0.89690214 0.44222897
vn 0 -0.89690214 0.44222897
vn 0 -0.4274037 0.9040609
vn 0 -0.4274037 0.9040609
vn 0 -0.4274037 0.9040609
vn 0 -0.66266924 0.7489123
vn 0 -0.66266924 0.7489123
vn 0 -0.66266924 0.7489123
vn 0 -0.6626693 0.7489122
vn 0 -0.6626693 0.7489122
vn 0 -0.6626693 0.7489122
vn 0 -0.66266936 0.7489121
vn 0 -0.66266936 0.7489121
vn 0 -0.66266936 0.7489121
vn 0 -0.66266936 0.7489121
vn 0 -0.66266936 0.7489121
vn 0 -0.66266936 0.7489121
vn 0 -0.66266936 0.7489121
vn 0 -0.66266936 0.7489121
vn 0 -0.66266936 0.7489121
vn 0 -0.86647457 0.49922124
vn 0 -0.86647457 0.49922124
vn 0 -0.86647457 0.49922124
vn 0 -0.86647457 0.49922118
vn 0 -0.86647457 0.49922118
vn 0 -0.86647457 0.49922118
vn 0 -0.86647457 0.49922118
vn 0 -0.86647457 0.49922118
vn 0 -0.86647457 0.49922118
vn 0 -0.86647457 0.49922118
vn 0 -0.86647457 0.49922118
vn 0 -0.86647457 0.49922118
vn 0 -0.8664745 0.49922144
vn 0 -0.8664745 0.49922144
vn 0 -0.8664745 0.49922144
vn -0 0.97631615 0.2163487
vn -0 0.97631615 0.2163487
vn -0 0.97631615 0.2163487
f 1//1 2//2 3//3
f 4//4 5//5 6//6
f 7//7 8//8 9//9
f 10//10 11//11 12//12
f 13//13 14//14 15//15
f 16//16 17//17 18//18
f 19//19 20//20 21//21
f 22//22 23//23 24//24
f 25//25 26//26 27//27
f 28//28 29//29 30//30
f 31//31 32//32 33//33
f 34//34 35//35 36//36
f 37//37 38//38 39//39
f 40//40 41//41 42//42
f 43//43 44//44 45//45
f 46//46 47//47 48//48
f 49//49 50//50 51//51
f 52//52 53//53 54//54
f 55//55 56//56 57//57
f 58//58 59//59 60//60
f 61//61 62//62 63//63
f 64//64 65//65 66//66
f 67//67 68//68 69//69
f 70//70 71//71 72//72
f 73//73 74//74 75//75
f 76//76 77//77 78//78
f 79//79 80//80 81//81
f 82//82 83//83 84//84
f 85//85 86//86 87//87
f 88//88 89//89 90//90
f 91//91 92//92 93//93
f 94//94 95//95 96//96
f 97//97 98//98 99//99
f 100//100 101//101 102//102
f 103//103 104//104 105//105
f 106//106 107//107 108//108
f 109//109 110//110 111//111
f 112//112 113//113 114//114
f 115//115 116//116 117//117
f 118//118 119//119 120//120
f 121//121 122//122 123//123
f 124//124 125//125 126//126
f 127//127 128//128 129//129
f 130//130 131//131 132//132
f 133//133 134//134 135//135
f 136//136 137//137 138//138
f 139//139 140//140 141//141
f 142//142 143//143 144//144
f 145//145 146//146 147//147
f 148//148 149//149 150//150
f 151//151 152//152 153//153
f 154//154 155//155 156//156
f 157//157 158//158 159//159
f 160//160 161//161 162//162
f 163//163 164//164 165//165
f 166//166 167//167 168//168
f 169//169 170//170 171//171
f 172//172 173//173 174//174
f 175//175 176//176 177//177
f 178//178 179//179 180//180
f 181//181 182//182 183//183
f 184//184 185//185 186//186
f 187//187 188//188 189//189
f 190//190 191//191 192//192
f 193//193 194//194 195//195
f 196//196 197//197 198//198
f 199//199 200//200 201//201
f 202//202 203//203 204//204
f 205//205 206//206 207//207
f 208//208 209//209 210//210
f 211//211 212//212 213//213
f 214//214 215//215 216//216
f 217//217 218//218 219//219
f 220//220 221//221 222//222
f 223//223 224//224 225//225
f 226//226 227//227 228//228
