# Exported from SharpOpenGl procedural mesh
o vesper_bomber_mk2_24
# vertices 117
v -0.54720396 0.2122608 -2.397461
v 0.54720396 0.2122608 -2.397461
v 0 0.4366508 -1.9495716
v -0.54720396 0.2122608 -2.397461
v 0 0.4366508 -1.9495716
v -0.77106005 0.2122608 -1.4021513
v 0.54720396 0.2122608 -2.397461
v 0.77106005 0.2122608 -1.4021513
v 0 0.4366508 -1.9495716
v -0.54720396 0 -2.397461
v -0.77106005 0 -1.4021513
v 0.54720396 0 -2.397461
v 0.54720396 0 -2.397461
v -0.77106005 0 -1.4021513
v 0.77106005 0 -1.4021513
v -0.77106005 0.2122608 -1.4021513
v 0.77106005 0.2122608 -1.4021513
v 0 0.4366508 -0.95426214
v -0.77106005 0.2122608 -1.4021513
v 0 0.4366508 -0.95426214
v -0.9349342 0.2122608 -0.40684187
v 0.77106005 0.2122608 -1.4021513
v 0.9349342 0.2122608 -0.40684187
v 0 0.4366508 -0.95426214
v -0.77106005 0 -1.4021513
v -0.9349342 0 -0.40684187
v 0.77106005 0 -1.4021513
v 0.77106005 0 -1.4021513
v -0.9349342 0 -0.40684187
v 0.9349342 0 -0.40684187
v -0.9349342 0.2122608 -0.40684187
v 0.9349342 0.2122608 -0.40684187
v 0 0.4366508 0.041047364
v -0.9349342 0.2122608 -0.40684187
v 0 0.4366508 0.041047364
v -0.99491626 0.2122608 0.5884676
v 0.9349342 0.2122608 -0.40684187
v 0.99491626 0.2122608 0.5884676
v 0 0.4366508 0.041047364
v -0.9349342 0 -0.40684187
v -0.99491626 0 0.5884676
v 0.9349342 0 -0.40684187
v 0.9349342 0 -0.40684187
v -0.99491626 0 0.5884676
v 0.99491626 0 0.5884676
v -0.99491626 0.2122608 0.5884676
v 0.99491626 0.2122608 0.5884676
v 0 0.4366508 1.0363569
v -0.99491626 0.2122608 0.5884676
v 0 0.4366508 1.0363569
v -0.9349342 0.2122608 1.5837772
v 0.99491626 0.2122608 0.5884676
v 0.9349342 0.2122608 1.5837772
v 0 0.4366508 1.0363569
v -0.99491626 0 0.5884676
v -0.9349342 0 1.5837772
v 0.99491626 0 0.5884676
v 0.99491626 0 0.5884676
v -0.9349342 0 1.5837772
v 0.9349342 0 1.5837772
v -0.9349342 0.2122608 1.5837772
v 0.9349342 0.2122608 1.5837772
v 0 0.4366508 2.0316663
v -0.9349342 0.2122608 1.5837772
v 0 0.4366508 2.0316663
v -0.71394455 0.2122608 2.5790863
v 0.9349342 0.2122608 1.5837772
v 0.71394455 0.2122608 2.5790863
v 0 0.4366508 2.0316663
v -0.9349342 0 1.5837772
v -0.71394455 0 2.5790863
v 0.9349342 0 1.5837772
v 0.9349342 0 1.5837772
v -0.71394455 0 2.5790863
v 0.71394455 0 2.5790863
v -0.71394455 0.2122608 2.5790863
v 0.71394455 0.2122608 2.5790863
v 0 0.4366508 3.0269756
v -0.71394455 0.2122608 2.5790863
v 0 0.4366508 3.0269756
v -0 0.2122608 3.5743961
v 0.71394455 0.2122608 2.5790863
v 0 0.2122608 3.5743961
v 0 0.4366508 3.0269756
v -0.71394455 0 2.5790863
v -0 0 3.5743961
v 0.71394455 0 2.5790863
v 0.71394455 0 2.5790863
v -0 0 3.5743961
v 0 0 3.5743961
v 0 0.47303835 -1.8998061
v -0.0795933 0.37600484 -2.019196
v 0.0795933 0.37600484 -2.019196
v 0 0.47303835 -0.90449667
v -0.0795933 0.37600484 -1.0238867
v 0.0795933 0.37600484 -1.0238867
v 0 0.47303835 0.09081268
v -0.0795933 0.37600484 -0.028577268
v 0.0795933 0.37600484 -0.028577268
v 0 0.47303835 1.0861223
v -0.0795933 0.37600484 0.9667323
v 0.0795933 0.37600484 0.9667323
v 0 0.47303835 2.0814319
v -0.0795933 0.37600484 1.9620419
v 0.0795933 0.37600484 1.9620419
v -0.41786483 0.16980864 -0.653853
v 0.41786483 0.16980864 -0.653853
v 0 0.25471297 -1.2205255
v -0.60038054 0.06738438 -2.3500805
v -0.8473942 0 -2.8935106
v -0.35336685 0 -2.8935106
v 0 0.06738438 -2.3500805
v -0.2470137 0 -2.8935106
v 0.2470137 0 -2.8935106
v 0.60038054 0.06738438 -2.3500805
v 0.35336685 0 -2.8935106
v 0.8473942 0 -2.8935106
vn 0 -0.8940713 0.44792464
vn 0 -0.8940713 0.44792464
vn 0 -0.8940713 0.44792464
vn 0.32636243 -0.94239044 0.07340251
vn 0.32636243 -0.94239044 0.07340251
vn 0.32636243 -0.94239044 0.07340251
vn -0.32636243 -0.94239044 0.07340251
vn -0.32636243 -0.94239044 0.07340251
vn -0.32636243 -0.94239044 0.07340251
vn 0 1 -0
vn 0 1 -0
vn 0 1 -0
vn 0 0.99999994 -0
vn 0 0.99999994 -0
vn 0 0.99999994 -0
vn 0 -0.8940713 0.4479248
vn 0 -0.8940713 0.4479248
vn 0 -0.8940713 0.4479248
vn 0.25648198 -0.96562606 0.04222884
vn 0.25648198 -0.96562606 0.04222884
vn 0.25648198 -0.96562606 0.04222884
vn -0.25648198 -0.96562606 0.04222884
vn -0.25648198 -0.96562606 0.04222884
vn -0.25648198 -0.96562606 0.04222884
vn 0 1 -0
vn 0 1 -0
vn 0 1 -0
vn 0 1 -0
vn 0 1 -0
vn 0 1 -0
vn 0 -0.89407134 0.44792473
vn 0 -0.89407134 0.44792473
vn 0 -0.89407134 0.44792473
vn 0.22715129 -0.9737633 0.013689213
vn 0.22715129 -0.9737633 0.013689213
vn 0.22715129 -0.9737633 0.013689213
vn -0.22715129 -0.9737633 0.013689213
vn -0.22715129 -0.9737633 0.013689213
vn -0.22715129 -0.9737633 0.013689213
vn 0 1 -0
vn 0 1 -0
vn 0 1 -0
vn 0 1 -0
vn 0 1 -0
vn 0 1 -0
vn 0 -0.8940713 0.44792464
vn 0 -0.8940713 0.44792464
vn 0 -0.8940713 0.44792464
vn 0.22581588 -0.9740749 -0.013608732
vn 0.22581588 -0.9740749 -0.013608732
vn 0.22581588 -0.9740749 -0.013608732
vn -0.22581588 -0.9740749 -0.013608732
vn -0.22581588 -0.9740749 -0.013608732
vn -0.22581588 -0.9740749 -0.013608732
vn 0 1 0
vn 0 1 0
vn 0 1 0
vn 0 0.99999994 0
vn 0 0.99999994 0
vn 0 0.99999994 0
vn 0 -0.8940712 0.44792485
vn 0 -0.8940712 0.44792485
vn 0 -0.8940712 0.44792485
vn 0.25895232 -0.96417737 -0.057495482
vn 0.25895232 -0.96417737 -0.057495482
vn 0.25895232 -0.96417737 -0.057495482
vn -0.25895232 -0.96417737 -0.057495482
vn -0.25895232 -0.96417737 -0.057495482
vn -0.25895232 -0.96417737 -0.057495482
vn 0 0.99999994 0
vn 0 0.99999994 0
vn 0 0.99999994 0
vn 0 1 0
vn 0 1 0
vn 0 1 0
vn 0 -0.89407134 0.44792464
vn 0 -0.89407134 0.44792464
vn 0 -0.89407134 0.44792464
vn 0.46743113 -0.8179774 -0.3352925
vn 0.46743113 -0.8179774 -0.3352925
vn 0.46743113 -0.8179774 -0.3352925
vn -0.46743113 -0.8179774 -0.3352925
vn -0.46743113 -0.8179774 -0.3352925
vn -0.46743113 -0.8179774 -0.3352925
vn 0 1 0
vn 0 1 0
vn 0 1 0
vn 0 1 0
vn 0 1 0
vn 0 1 0
vn 0 -0.77602106 0.63070697
vn 0 -0.77602106 0.63070697
vn 0 -0.77602106 0.63070697
vn 0 -0.77602136 0.6307066
vn 0 -0.77602136 0.6307066
vn 0 -0.77602136 0.6307066
vn 0 -0.7760213 0.63070685
vn 0 -0.7760213 0.63070685
vn 0 -0.7760213 0.63070685
vn 0 -0.7760213 0.63070685
vn 0 -0.7760213 0.63070685
vn 0 -0.7760213 0.63070685
vn 0 -0.77602136 0.6307066
vn 0 -0.77602136 0.6307066
vn 0 -0.77602136 0.6307066
vn -0 0.98896104 0.14817566
vn -0 0.98896104 0.14817566
vn -0 0.98896104 0.14817566
vn 0 -0.99239975 0.12305582
vn 0 -0.99239975 0.12305582
vn 0 -0.99239975 0.12305582
vn 0 -0.99239975 0.12305583
vn 0 -0.99239975 0.12305583
vn 0 -0.99239975 0.12305583
vn 0 -0.99239975 0.12305582
vn 0 -0.99239975 0.12305582
vn 0 -0.99239975 0.12305582
f 1//1 2//2 3//3
f 4//4 5//5 6//6
f 7//7 8//8 9//9
f 10//10 11//11 12//12
f 13//13 14//14 15//15
f 16//16 17//17 18//18
f 19//19 20//20 21//21
f 22//22 23//23 24//24
f 25//25 26//26 27//27
f 28//28 29//29 30//30
f 31//31 32//32 33//33
f 34//34 35//35 36//36
f 37//37 38//38 39//39
f 40//40 41//41 42//42
f 43//43 44//44 45//45
f 46//46 47//47 48//48
f 49//49 50//50 51//51
f 52//52 53//53 54//54
f 55//55 56//56 57//57
f 58//58 59//59 60//60
f 61//61 62//62 63//63
f 64//64 65//65 66//66
f 67//67 68//68 69//69
f 70//70 71//71 72//72
f 73//73 74//74 75//75
f 76//76 77//77 78//78
f 79//79 80//80 81//81
f 82//82 83//83 84//84
f 85//85 86//86 87//87
f 88//88 89//89 90//90
f 91//91 92//92 93//93
f 94//94 95//95 96//96
f 97//97 98//98 99//99
f 100//100 101//101 102//102
f 103//103 104//104 105//105
f 106//106 107//107 108//108
f 109//109 110//110 111//111
f 112//112 113//113 114//114
f 115//115 116//116 117//117
