# Exported from SharpOpenGl procedural mesh
o vesper_destroyer_mk1_08
# vertices 117
v -0.4574686 0.2640776 -4.4660516
v 0.4574686 0.2640776 -4.4660516
v 0 0.5432454 -3.631712
v -0.4574686 0.2640776 -4.4660516
v 0 0.5432454 -3.631712
v -0.6446148 0.2640776 -2.6119635
v 0.4574686 0.2640776 -4.4660516
v 0.6446148 0.2640776 -2.6119635
v 0 0.5432454 -3.631712
v -0.4574686 0 -4.4660516
v -0.6446148 0 -2.6119635
v 0.4574686 0 -4.4660516
v 0.4574686 0 -4.4660516
v -0.6446148 0 -2.6119635
v 0.6446148 0 -2.6119635
v -0.6446148 0.2640776 -2.6119635
v 0.6446148 0.2640776 -2.6119635
v 0 0.5432454 -1.7776239
v -0.6446148 0.2640776 -2.6119635
v 0 0.5432454 -1.7776239
v -0.7816154 0.2640776 -0.75787544
v 0.6446148 0.2640776 -2.6119635
v 0.7816154 0.2640776 -0.75787544
v 0 0.5432454 -1.7776239
v -0.6446148 0 -2.6119635
v -0.7816154 0 -0.75787544
v 0.6446148 0 -2.6119635
v 0.6446148 0 -2.6119635
v -0.7816154 0 -0.75787544
v 0.7816154 0 -0.75787544
v -0.7816154 0.2640776 -0.75787544
v 0.7816154 0.2640776 -0.75787544
v 0 0.5432454 0.07646406
v -0.7816154 0.2640776 -0.75787544
v 0 0.5432454 0.07646406
v -0.83176106 0.2640776 1.0962124
v 0.7816154 0.2640776 -0.75787544
v 0.83176106 0.2640776 1.0962124
v 0 0.5432454 0.07646406
v -0.7816154 0 -0.75787544
v -0.83176106 0 1.0962124
v 0.7816154 0 -0.75787544
v 0.7816154 0 -0.75787544
v -0.83176106 0 1.0962124
v 0.83176106 0 1.0962124
v -0.83176106 0.2640776 1.0962124
v 0.83176106 0.2640776 1.0962124
v 0 0.5432454 1.9305521
v -0.83176106 0.2640776 1.0962124
v 0 0.5432454 1.9305521
v -0.7816154 0.2640776 2.9503007
v 0.83176106 0.2640776 1.0962124
v 0.7816154 0.2640776 2.9503007
v 0 0.5432454 1.9305521
v -0.83176106 0 1.0962124
v -0.7816154 0 2.9503007
v 0.83176106 0 1.0962124
v 0.83176106 0 1.0962124
v -0.7816154 0 2.9503007
v 0.7816154 0 2.9503007
v -0.7816154 0.2640776 2.9503007
v 0.7816154 0.2640776 2.9503007
v 0 0.5432454 3.7846403
v -0.7816154 0.2640776 2.9503007
v 0 0.5432454 3.7846403
v -0.59686565 0.2640776 4.8043885
v 0.7816154 0.2640776 2.9503007
v 0.59686565 0.2640776 4.8043885
v 0 0.5432454 3.7846403
v -0.7816154 0 2.9503007
v -0.59686565 0 4.8043885
v 0.7816154 0 2.9503007
v 0.7816154 0 2.9503007
v -0.59686565 0 4.8043885
v 0.59686565 0 4.8043885
v -0.59686565 0.2640776 4.8043885
v 0.59686565 0.2640776 4.8043885
v 0 0.5432454 5.638728
v -0.59686565 0.2640776 4.8043885
v 0 0.5432454 5.638728
v -0 0.2640776 6.6584764
v 0.59686565 0.2640776 4.8043885
v 0 0.2640776 6.6584764
v 0 0.5432454 5.638728
v -0.59686565 0 4.8043885
v -0 0 6.6584764
v 0.59686565 0 4.8043885
v 0.59686565 0 4.8043885
v -0 0 6.6584764
v 0 0 6.6584764
v 0 0.58851576 -3.5390077
v -0.06654088 0.4677946 -3.638819
v 0.06654088 0.4677946 -3.638819
v 0 0.58851576 -1.6849196
v -0.06654088 0.4677946 -1.7847309
v 0.06654088 0.4677946 -1.7847309
v 0 0.58851576 0.16916847
v -0.06654088 0.4677946 0.06935715
v 0.06654088 0.4677946 0.06935715
v 0 0.58851576 2.0232563
v -0.06654088 0.4677946 1.923445
v 0.06654088 0.4677946 1.923445
v 0 0.58851576 3.8773446
v -0.06654088 0.4677946 3.7775333
v 0.06654088 0.4677946 3.7775333
v -0.34933963 0.21126208 -1.218014
v 0.34933963 0.21126208 -1.218014
v 0 0.3168931 -2.273626
v -0.50192475 0.08383415 -4.37779
v -0.71703535 0 -4.851033
v -0.28681415 0 -4.851033
v 0 0.08383415 -4.37779
v -0.21511061 0 -4.851033
v 0.21511061 0 -4.851033
v 0.50192475 0.08383415 -4.37779
v 0.28681415 0 -4.851033
v 0.71703535 0 -4.851033
vn 0 -0.9483231 0.31730634
vn 0 -0.9483231 0.31730634
vn 0 -0.9483231 0.31730634
vn 0.45762092 -0.8879468 0.046190917
vn 0.45762092 -0.8879468 0.046190917
vn 0.45762092 -0.8879468 0.046190917
vn -0.45762092 -0.8879468 0.046190917
vn -0.45762092 -0.8879468 0.046190917
vn -0.45762092 -0.8879468 0.046190917
vn 0 0.99999994 -0
vn 0 0.99999994 -0
vn 0 0.99999994 -0
vn 0 1 -0
vn 0 1 -0
vn 0 1 -0
vn 0 -0.9483232 0.31730634
vn 0 -0.9483232 0.31730634
vn 0 -0.9483232 0.31730634
vn 0.3674626 -0.9296418 0.027152207
vn 0.3674626 -0.9296418 0.027152207
vn 0.3674626 -0.9296418 0.027152207
vn -0.3674626 -0.9296418 0.027152207
vn -0.3674626 -0.9296418 0.027152207
vn -0.3674626 -0.9296418 0.027152207
vn 0 1 -0
vn 0 1 -0
vn 0 1 -0
vn 0 1 -0
vn 0 1 -0
vn 0 1 -0
vn 0 -0.948323 0.31730637
vn 0 -0.948323 0.31730637
vn 0 -0.948323 0.31730637
vn 0.3279341 -0.944659 0.00886931
vn 0.3279341 -0.944659 0.00886931
vn 0.3279341 -0.944659 0.00886931
vn -0.3279341 -0.944659 0.00886931
vn -0.3279341 -0.944659 0.00886931
vn -0.3279341 -0.944659 0.00886931
vn 0 1 -0
vn 0 1 -0
vn 0 1 -0
vn 0 1 -0
vn 0 1 -0
vn 0 1 -0
vn 0 -0.9483231 0.31730628
vn 0 -0.9483231 0.31730628
vn 0 -0.9483231 0.31730628
vn 0.3261188 -0.9452877 -0.008820211
vn 0.3261188 -0.9452877 -0.008820211
vn 0.3261188 -0.9452877 -0.008820211
vn -0.3261188 -0.9452877 -0.008820211
vn -0.3261188 -0.9452877 -0.008820211
vn -0.3261188 -0.9452877 -0.008820211
vn 0 1 0
vn 0 1 0
vn 0 1 0
vn 0 1 0
vn 0 1 0
vn 0 1 0
vn 0 -0.9483231 0.3173063
vn 0 -0.9483231 0.3173063
vn 0 -0.9483231 0.3173063
vn 0.37088105 -0.9279447 -0.036956273
vn 0.37088105 -0.9279447 -0.036956273
vn 0.37088105 -0.9279447 -0.036956273
vn -0.37088105 -0.9279447 -0.036956273
vn -0.37088105 -0.9279447 -0.036956273
vn -0.37088105 -0.9279447 -0.036956273
vn 0 1 0
vn 0 1 0
vn 0 1 0
vn 0 1 0
vn 0 1 0
vn 0 1 0
vn 0 -0.94832313 0.31730634
vn 0 -0.94832313 0.31730634
vn 0 -0.94832313 0.31730634
vn 0.6341835 -0.74574244 -0.20415558
vn 0.6341835 -0.74574244 -0.20415558
vn 0.6341835 -0.74574244 -0.20415558
vn -0.6341835 -0.74574244 -0.20415558
vn -0.6341835 -0.74574244 -0.20415558
vn -0.6341835 -0.74574244 -0.20415558
vn 0 1 0
vn 0 1 0
vn 0 1 0
vn 0 1 0
vn 0 1 0
vn 0 1 0
vn 0 -0.63720447 0.77069485
vn 0 -0.63720447 0.77069485
vn 0 -0.63720447 0.77069485
vn 0 -0.63720447 0.77069485
vn 0 -0.63720447 0.77069485
vn 0 -0.63720447 0.77069485
vn 0 -0.63720447 0.77069473
vn 0 -0.63720447 0.77069473
vn 0 -0.63720447 0.77069473
vn 0 -0.63720447 0.77069485
vn 0 -0.63720447 0.77069485
vn 0 -0.63720447 0.77069485
vn 0 -0.63720447 0.77069485
vn 0 -0.63720447 0.77069485
vn 0 -0.63720447 0.77069485
vn -0 0.99503064 0.099568866
vn -0 0.99503064 0.099568866
vn -0 0.99503064 0.099568866
vn 0 -0.9846692 0.1744323
vn 0 -0.9846692 0.1744323
vn 0 -0.9846692 0.1744323
vn 0 -0.98466915 0.1744323
vn 0 -0.98466915 0.1744323
vn 0 -0.98466915 0.1744323
vn 0 -0.9846692 0.1744323
vn 0 -0.9846692 0.1744323
vn 0 -0.9846692 0.1744323
f 1//1 2//2 3//3
f 4//4 5//5 6//6
f 7//7 8//8 9//9
f 10//10 11//11 12//12
f 13//13 14//14 15//15
f 16//16 17//17 18//18
f 19//19 20//20 21//21
f 22//22 23//23 24//24
f 25//25 26//26 27//27
f 28//28 29//29 30//30
f 31//31 32//32 33//33
f 34//34 35//35 36//36
f 37//37 38//38 39//39
f 40//40 41//41 42//42
f 43//43 44//44 45//45
f 46//46 47//47 48//48
f 49//49 50//50 51//51
f 52//52 53//53 54//54
f 55//55 56//56 57//57
f 58//58 59//59 60//60
f 61//61 62//62 63//63
f 64//64 65//65 66//66
f 67//67 68//68 69//69
f 70//70 71//71 72//72
f 73//73 74//74 75//75
f 76//76 77//77 78//78
f 79//79 80//80 81//81
f 82//82 83//83 84//84
f 85//85 86//86 87//87
f 88//88 89//89 90//90
f 91//91 92//92 93//93
f 94//94 95//95 96//96
f 97//97 98//98 99//99
f 100//100 101//101 102//102
f 103//103 104//104 105//105
f 106//106 107//107 108//108
f 109//109 110//110 111//111
f 112//112 113//113 114//114
f 115//115 116//116 117//117
