# Exported from SharpOpenGl procedural mesh
o vesper_bomber_mk3_41
# vertices 225
v -0.55043614 0.21668611 -2.0035918
v 0.55043614 0.21668611 -2.0035918
v 0 0.44575432 -1.5732749
v -0.55043614 0.21668611 -2.0035918
v 0 0.44575432 -1.5732749
v -0.8256542 0.21668611 -1.047332
v 0.55043614 0.21668611 -2.0035918
v 0.8256542 0.21668611 -1.047332
v 0 0.44575432 -1.5732749
v -0.55043614 0 -2.0035918
v -0.8256542 0 -1.047332
v 0.55043614 0 -2.0035918
v 0.55043614 0 -2.0035918
v -0.8256542 0 -1.047332
v 0.8256542 0 -1.047332
v -0.55043614 0 -2.0035918
v -0.55043614 0.21668611 -2.0035918
v -0.8256542 0.21668611 -1.047332
v -0.55043614 0 -2.0035918
v -0.8256542 0.21668611 -1.047332
v -0.8256542 0 -1.047332
v 0.55043614 0 -2.0035918
v 0.8256542 0.21668611 -1.047332
v 0.55043614 0.21668611 -2.0035918
v 0.55043614 0 -2.0035918
v 0.8256542 0 -1.047332
v 0.8256542 0.21668611 -1.047332
v -0.8256542 0.21668611 -1.047332
v 0.8256542 0.21668611 -1.047332
v 0 0.44575432 -0.6170152
v -0.8256542 0.21668611 -1.047332
v 0 0.44575432 -0.6170152
v -1.0271279 0.21668611 -0.09107232
v 0.8256542 0.21668611 -1.047332
v 1.0271279 0.21668611 -0.09107232
v 0 0.44575432 -0.6170152
v -0.8256542 0 -1.047332
v -1.0271279 0 -0.09107232
v 0.8256542 0 -1.047332
v 0.8256542 0 -1.047332
v -1.0271279 0 -0.09107232
v 1.0271279 0 -0.09107232
v -0.8256542 0 -1.047332
v -0.8256542 0.21668611 -1.047332
v -1.0271279 0.21668611 -0.09107232
v -0.8256542 0 -1.047332
v -1.0271279 0.21668611 -0.09107232
v -1.0271279 0 -0.09107232
v 0.8256542 0 -1.047332
v 1.0271279 0.21668611 -0.09107232
v 0.8256542 0.21668611 -1.047332
v 0.8256542 0 -1.047332
v 1.0271279 0 -0.09107232
v 1.0271279 0.21668611 -0.09107232
v -1.0271279 0.21668611 -0.09107232
v 1.0271279 0.21668611 -0.09107232
v 0 0.44575432 0.33924454
v -1.0271279 0.21668611 -0.09107232
v 0 0.44575432 0.33924454
v -1.1008723 0.21668611 0.8651874
v 1.0271279 0.21668611 -0.09107232
v 1.1008723 0.21668611 0.8651874
v 0 0.44575432 0.33924454
v -1.0271279 0 -0.09107232
v -1.1008723 0 0.8651874
v 1.0271279 0 -0.09107232
v 1.0271279 0 -0.09107232
v -1.1008723 0 0.8651874
v 1.1008723 0 0.8651874
v -1.0271279 0 -0.09107232
v -1.0271279 0.21668611 -0.09107232
v -1.1008723 0.21668611 0.8651874
v -1.0271279 0 -0.09107232
v -1.1008723 0.21668611 0.8651874
v -1.1008723 0 0.8651874
v 1.0271279 0 -0.09107232
v 1.1008723 0.21668611 0.8651874
v 1.0271279 0.21668611 -0.09107232
v 1.0271279 0 -0.09107232
v 1.1008723 0 0.8651874
v 1.1008723 0.21668611 0.8651874
v -1.1008723 0.21668611 0.8651874
v 1.1008723 0.21668611 0.8651874
v 0 0.44575432 1.2955043
v -1.1008723 0.21668611 0.8651874
v 0 0.44575432 1.2955043
v -1.0271279 0.21668611 1.8214471
v 1.1008723 0.21668611 0.8651874
v 1.0271279 0.21668611 1.8214471
v 0 0.44575432 1.2955043
v -1.1008723 0 0.8651874
v -1.0271279 0 1.8214471
v 1.1008723 0 0.8651874
v 1.1008723 0 0.8651874
v -1.0271279 0 1.8214471
v 1.0271279 0 1.8214471
v -1.1008723 0 0.8651874
v -1.1008723 0.21668611 0.8651874
v -1.0271279 0.21668611 1.8214471
v -1.1008723 0 0.8651874
v -1.0271279 0.21668611 1.8214471
v -1.0271279 0 1.8214471
v 1.1008723 0 0.8651874
v 1.0271279 0.21668611 1.8214471
v 1.1008723 0.21668611 0.8651874
v 1.1008723 0 0.8651874
v 1.0271279 0 1.8214471
v 1.0271279 0.21668611 1.8214471
v -1.0271279 0.21668611 1.8214471
v 1.0271279 0.21668611 1.8214471
v 0 0.44575432 2.251764
v -1.0271279 0.21668611 1.8214471
v 0 0.44575432 2.251764
v -0.82565427 0.21668611 2.7777069
v 1.0271279 0.21668611 1.8214471
v 0.82565427 0.21668611 2.7777069
v 0 0.44575432 2.251764
v -1.0271279 0 1.8214471
v -0.82565427 0 2.7777069
v 1.0271279 0 1.8214471
v 1.0271279 0 1.8214471
v -0.82565427 0 2.7777069
v 0.82565427 0 2.7777069
v -1.0271279 0 1.8214471
v -1.0271279 0.21668611 1.8214471
v -0.82565427 0.21668611 2.7777069
v -1.0271279 0 1.8214471
v -0.82565427 0.21668611 2.7777069
v -0.82565427 0 2.7777069
v 1.0271279 0 1.8214471
v 0.82565427 0.21668611 2.7777069
v 1.0271279 0.21668611 1.8214471
v 1.0271279 0 1.8214471
v 0.82565427 0 2.7777069
v 0.82565427 0.21668611 2.7777069
v -0.82565427 0.21668611 2.7777069
v 0.82565427 0.21668611 2.7777069
v 0 0.44575432 3.2080238
v -0.82565427 0.21668611 2.7777069
v 0 0.44575432 3.2080238
v -0 0.21668611 3.7339666
v 0.82565427 0.21668611 2.7777069
v 0 0.21668611 3.7339666
v 0 0.44575432 3.2080238
v -0.82565427 0 2.7777069
v -0 0 3.7339666
v 0.82565427 0 2.7777069
v 0.82565427 0 2.7777069
v -0 0 3.7339666
v 0 0 3.7339666
v -0.82565427 0 2.7777069
v -0.82565427 0.21668611 2.7777069
v -0 0.21668611 3.7339666
v -0.82565427 0 2.7777069
v -0 0.21668611 3.7339666
v -0 0 3.7339666
v 0.82565427 0 2.7777069
v 0 0.21668611 3.7339666
v 0.82565427 0.21668611 2.7777069
v 0.82565427 0 2.7777069
v 0 0 3.7339666
v 0 0.21668611 3.7339666
v -0.40135968 0 3.7339666
v 0.40135968 0 3.7339666
v 0 0.37889117 3.9161112
v -0.40135968 0 -2.0035918
v 0 0.13001168 -2.1402004
v 0.40135968 0 -2.0035918
v 0 0.48290047 -1.5254619
v -0.1146742 0.383844 -1.6860058
v 0.1146742 0.383844 -1.6860058
v 0 0.48290047 -0.5692022
v -0.1146742 0.383844 -0.72974604
v 0.1146742 0.383844 -0.72974604
v 0 0.48290047 0.38705754
v -0.1146742 0.383844 0.22651367
v 0.1146742 0.383844 0.22651367
v 0 0.48290047 1.3433173
v -0.1146742 0.383844 1.1827734
v 0.1146742 0.383844 1.1827734
v 0 0.48290047 2.299577
v -0.1146742 0.383844 2.139033
v 0.1146742 0.383844 2.139033
v -0.4816316 0.17334889 -0.9708313
v 0.4816316 0.17334889 -0.9708313
v 0 0.29716954 -1.5445871
v -0.5535996 0.06693007 -0.5795514
v -0.838308 0 -0.73614097
v -0.26889125 0 -0.73614097
v 0.5535996 0.06693007 -0.5795514
v 0.26889125 0 -0.73614097
v 0.838308 0 -0.73614097
v -0.37485957 0.041831296 -0.5629927
v 0.37485957 0.041831296 -0.5629927
v 0 0.1840577 -0.4388031
v -0.4183567 0.041831296 0.13246894
v 0.4183567 0.041831296 0.13246894
v 0 0.1840577 0.25665852
v -0.4349711 0.041831296 0.82793057
v 0.4349711 0.041831296 0.82793057
v 0 0.1840577 0.9521201
v -0.4183567 0.041831296 1.5233921
v 0.4183567 0.041831296 1.5233921
v 0 0.1840577 1.6475817
v -0.37485957 0.041831296 2.218854
v 0.37485957 0.041831296 2.218854
v 0 0.1840577 2.3430436
v 0 0.46014428 -0.055195272
v -0.1383999 0.35138288 -0.24147965
v 0.1383999 0.35138288 -0.24147965
v 0 0.46014428 0.55195385
v -0.1383999 0.35138288 0.3656695
v 0.1383999 0.35138288 0.3656695
v 0 0.46014428 1.1591029
v -0.1383999 0.35138288 0.97281855
v 0.1383999 0.35138288 0.97281855
v 0 0.46014428 1.766252
v -0.1383999 0.35138288 1.5799676
v 0.1383999 0.35138288 1.5799676
v 0 0.46014428 2.373401
v -0.1383999 0.35138288 2.1871166
v 0.1383999 0.35138288 2.1871166
v -0.2767998 0 -1.7593524
v 0.2767998 0 -1.7593524
v 0 0.041831296 -1.9456367
vn 0 -0.8827225 0.4698947
vn 0 -0.8827225 0.4698947
vn 0 -0.8827225 0.4698947
vn 0.32029587 -0.94282174 0.09218334
vn 0.32029587 -0.94282174 0.09218334
vn 0.32029587 -0.94282174 0.09218334
vn -0.32029587 -0.94282174 0.09218334
vn -0.32029587 -0.94282174 0.09218334
vn -0.32029587 -0.94282174 0.09218334
vn 0 1 -0
vn 0 1 -0
vn 0 1 -0
vn 0 1 -0
vn 0 1 -0
vn 0 1 -0
vn 0.960991 -0 0.27657977
vn 0.960991 -0 0.27657977
vn 0.960991 -0 0.27657977
vn 0.960991 0 0.27657977
vn 0.960991 0 0.27657977
vn 0.960991 0 0.27657977
vn -0.960991 0 0.27657977
vn -0.960991 0 0.27657977
vn -0.960991 0 0.27657977
vn -0.960991 0 0.27657977
vn -0.960991 0 0.27657977
vn -0.960991 0 0.27657977
vn 0 -0.88272244 0.46989477
vn 0 -0.88272244 0.46989477
vn 0 -0.88272244 0.46989477
vn 0.24220854 -0.9688813 0.05103074
vn 0.24220854 -0.9688813 0.05103074
vn 0.24220854 -0.9688813 0.05103074
vn -0.24220854 -0.9688813 0.05103074
vn -0.24220854 -0.9688813 0.05103074
vn -0.24220854 -0.9688813 0.05103074
vn 0 0.99999994 -0
vn 0 0.99999994 -0
vn 0 0.99999994 -0
vn 0 1 -0
vn 0 1 -0
vn 0 1 -0
vn 0.97851765 -0 0.20616317
vn 0.97851765 -0 0.20616317
vn 0.97851765 -0 0.20616317
vn 0.97851765 0 0.20616317
vn 0.97851765 0 0.20616317
vn 0.97851765 0 0.20616317
vn -0.97851765 0 0.20616317
vn -0.97851765 0 0.20616317
vn -0.97851765 0 0.20616317
vn -0.97851765 0 0.20616317
vn -0.97851765 0 0.20616317
vn -0.97851765 0 0.20616317
vn 0 -0.88272244 0.46989477
vn 0 -0.88272244 0.46989477
vn 0 -0.88272244 0.46989477
vn 0.21113867 -0.9773205 0.016282499
vn 0.21113867 -0.9773205 0.016282499
vn 0.21113867 -0.9773205 0.016282499
vn -0.21113867 -0.9773205 0.016282499
vn -0.21113867 -0.9773205 0.016282499
vn -0.21113867 -0.9773205 0.016282499
vn 0 1 -0
vn 0 1 -0
vn 0 1 -0
vn 0 1 -0
vn 0 1 -0
vn 0 1 -0
vn 0.99703956 -0 0.07688926
vn 0.99703956 -0 0.07688926
vn 0.99703956 -0 0.07688926
vn 0.99703956 0 0.07688926
vn 0.99703956 0 0.07688926
vn 0.99703956 0 0.07688926
vn -0.99703956 0 0.07688926
vn -0.99703956 0 0.07688926
vn -0.99703956 0 0.07688926
vn -0.99703956 0 0.07688926
vn -0.99703956 0 0.07688926
vn -0.99703956 0 0.07688926
vn 0 -0.8827225 0.4698947
vn 0 -0.8827225 0.4698947
vn 0 -0.8827225 0.4698947
vn 0.2097451 -0.9776222 -0.016175028
vn 0.2097451 -0.9776222 -0.016175028
vn 0.2097451 -0.9776222 -0.016175028
vn -0.2097451 -0.9776222 -0.016175028
vn -0.2097451 -0.9776222 -0.016175028
vn -0.2097451 -0.9776222 -0.016175028
vn 0 1 0
vn 0 1 0
vn 0 1 0
vn 0 1 0
vn 0 1 0
vn 0 1 0
vn 0.99703956 0 -0.07688926
vn 0.99703956 0 -0.07688926
vn 0.99703956 0 -0.07688926
vn 0.99703956 0 -0.07688926
vn 0.99703956 0 -0.07688926
vn 0.99703956 0 -0.07688926
vn -0.99703956 0 -0.07688926
vn -0.99703956 0 -0.07688926
vn -0.99703956 0 -0.07688926
vn -0.99703956 0 -0.07688926
vn -0.99703956 0 -0.07688926
vn -0.99703956 0 -0.07688926
vn 0 -0.88272244 0.4698947
vn 0 -0.88272244 0.4698947
vn 0 -0.88272244 0.4698947
vn 0.23730725 -0.97014713 -0.049998075
vn 0.23730725 -0.97014713 -0.049998075
vn 0.23730725 -0.97014713 -0.049998075
vn -0.23730725 -0.97014713 -0.049998075
vn -0.23730725 -0.97014713 -0.049998075
vn -0.23730725 -0.97014713 -0.049998075
vn 0 1 0
vn 0 1 0
vn 0 1 0
vn 0 1 0
vn 0 1 0
vn 0 1 0
vn 0.97851765 0 -0.20616311
vn 0.97851765 0 -0.20616311
vn 0.97851765 0 -0.20616311
vn 0.97851765 0 -0.20616311
vn 0.97851765 0 -0.20616311
vn 0.97851765 0 -0.20616311
vn -0.97851765 0 -0.20616311
vn -0.97851765 0 -0.20616311
vn -0.97851765 0 -0.20616311
vn -0.97851765 0 -0.20616311
vn -0.97851765 0 -0.20616311
vn -0.97851765 0 -0.20616311
vn 0 -0.88272256 0.46989477
vn 0 -0.88272256 0.46989477
vn 0 -0.88272256 0.46989477
vn 0.4197573 -0.8321361 -0.3624271
vn 0.4197573 -0.8321361 -0.3624271
vn 0.4197573 -0.8321361 -0.3624271
vn -0.4197573 -0.8321361 -0.3624271
vn -0.4197573 -0.8321361 -0.3624271
vn -0.4197573 -0.8321361 -0.3624271
vn 0 1 0
vn 0 1 0
vn 0 1 0
vn 0 1 0
vn 0 1 0
vn 0 1 0
vn 0.7569038 0 -0.6535263
vn 0.7569038 0 -0.6535263
vn 0.7569038 0 -0.6535263
vn 0.7569038 0 -0.6535263
vn 0.7569038 0 -0.6535263
vn 0.7569038 0 -0.6535263
vn -0.7569038 0 -0.6535263
vn -0.7569038 0 -0.6535263
vn -0.7569038 0 -0.6535263
vn -0.7569038 0 -0.6535263
vn -0.7569038 0 -0.6535263
vn -0.7569038 0 -0.6535263
vn 0 -0.43326625 0.901266
vn 0 -0.43326625 0.901266
vn 0 -0.43326625 0.901266
vn 0 -0.7243809 -0.6894001
vn 0 -0.7243809 -0.6894001
vn 0 -0.7243809 -0.6894001
vn 0 -0.85104203 0.5250976
vn 0 -0.85104203 0.5250976
vn 0 -0.85104203 0.5250976
vn 0 -0.8510419 0.5250977
vn 0 -0.8510419 0.5250977
vn 0 -0.8510419 0.5250977
vn 0 -0.851042 0.5250977
vn 0 -0.851042 0.5250977
vn 0 -0.851042 0.5250977
vn 0 -0.85104203 0.5250976
vn 0 -0.85104203 0.5250976
vn 0 -0.85104203 0.5250976
vn 0 -0.85104203 0.5250976
vn 0 -0.85104203 0.5250976
vn 0 -0.85104203 0.5250976
vn -0 0.97749674 0.21095084
vn -0 0.97749674 0.21095084
vn -0 0.97749674 0.21095084
vn 0 -0.9195267 0.39302742
vn 0 -0.9195267 0.39302742
vn 0 -0.9195267 0.39302742
vn 0 -0.9195267 0.39302742
vn 0 -0.9195267 0.39302742
vn 0 -0.9195267 0.39302742
vn 0 -0.65772885 0.75325483
vn 0 -0.65772885 0.75325483
vn 0 -0.65772885 0.75325483
vn 0 -0.65772885 0.75325483
vn 0 -0.65772885 0.75325483
vn 0 -0.65772885 0.75325483
vn 0 -0.65772873 0.7532549
vn 0 -0.65772873 0.7532549
vn 0 -0.65772873 0.7532549
vn 0 -0.65772885 0.7532547
vn 0 -0.65772885 0.7532547
vn 0 -0.65772885 0.7532547
vn 0 -0.6577289 0.7532547
vn 0 -0.6577289 0.7532547
vn 0 -0.6577289 0.7532547
vn 0 -0.86358607 0.50420135
vn 0 -0.86358607 0.50420135
vn 0 -0.86358607 0.50420135
vn 0 -0.8635861 0.5042014
vn 0 -0.8635861 0.5042014
vn 0 -0.8635861 0.5042014
vn 0 -0.8635861 0.5042014
vn 0 -0.8635861 0.5042014
vn 0 -0.8635861 0.5042014
vn 0 -0.8635862 0.5042013
vn 0 -0.8635862 0.5042013
vn 0 -0.8635862 0.5042013
vn 0 -0.863586 0.50420153
vn 0 -0.863586 0.50420153
vn 0 -0.863586 0.50420153
vn -0 0.97570246 0.21910004
vn -0 0.97570246 0.21910004
vn -0 0.97570246 0.21910004
f 1//1 2//2 3//3
f 4//4 5//5 6//6
f 7//7 8//8 9//9
f 10//10 11//11 12//12
f 13//13 14//14 15//15
f 16//16 17//17 18//18
f 19//19 20//20 21//21
f 22//22 23//23 24//24
f 25//25 26//26 27//27
f 28//28 29//29 30//30
f 31//31 32//32 33//33
f 34//34 35//35 36//36
f 37//37 38//38 39//39
f 40//40 41//41 42//42
f 43//43 44//44 45//45
f 46//46 47//47 48//48
f 49//49 50//50 51//51
f 52//52 53//53 54//54
f 55//55 56//56 57//57
f 58//58 59//59 60//60
f 61//61 62//62 63//63
f 64//64 65//65 66//66
f 67//67 68//68 69//69
f 70//70 71//71 72//72
f 73//73 74//74 75//75
f 76//76 77//77 78//78
f 79//79 80//80 81//81
f 82//82 83//83 84//84
f 85//85 86//86 87//87
f 88//88 89//89 90//90
f 91//91 92//92 93//93
f 94//94 95//95 96//96
f 97//97 98//98 99//99
f 100//100 101//101 102//102
f 103//103 104//104 105//105
f 106//106 107//107 108//108
f 109//109 110//110 111//111
f 112//112 113//113 114//114
f 115//115 116//116 117//117
f 118//118 119//119 120//120
f 121//121 122//122 123//123
f 124//124 125//125 126//126
f 127//127 128//128 129//129
f 130//130 131//131 132//132
f 133//133 134//134 135//135
f 136//136 137//137 138//138
f 139//139 140//140 141//141
f 142//142 143//143 144//144
f 145//145 146//146 147//147
f 148//148 149//149 150//150
f 151//151 152//152 153//153
f 154//154 155//155 156//156
f 157//157 158//158 159//159
f 160//160 161//161 162//162
f 163//163 164//164 165//165
f 166//166 167//167 168//168
f 169//169 170//170 171//171
f 172//172 173//173 174//174
f 175//175 176//176 177//177
f 178//178 179//179 180//180
f 181//181 182//182 183//183
f 184//184 185//185 186//186
f 187//187 188//188 189//189
f 190//190 191//191 192//192
f 193//193 194//194 195//195
f 196//196 197//197 198//198
f 199//199 200//200 201//201
f 202//202 203//203 204//204
f 205//205 206//206 207//207
f 208//208 209//209 210//210
f 211//211 212//212 213//213
f 214//214 215//215 216//216
f 217//217 218//218 219//219
f 220//220 221//221 222//222
f 223//223 224//224 225//225
