# Exported from SharpOpenGl procedural mesh
o vesper_support_mk3_49
# vertices 117
v -0.66877574 0.30389893 -3.2754583
v 0.66877574 0.30389893 -3.2754583
v 0 0.62516356 -2.6635432
v -0.66877574 0.30389893 -3.2754583
v 0 0.62516356 -2.6635432
v -0.94236577 0.30389893 -1.9156468
v 0.66877574 0.30389893 -3.2754583
v 0.94236577 0.30389893 -1.9156468
v 0 0.62516356 -2.6635432
v -0.66877574 0 -3.2754583
v -0.94236577 0 -1.9156468
v 0.66877574 0 -3.2754583
v 0.66877574 0 -3.2754583
v -0.94236577 0 -1.9156468
v 0.94236577 0 -1.9156468
v -0.94236577 0.30389893 -1.9156468
v 0.94236577 0.30389893 -1.9156468
v 0 0.62516356 -1.3037317
v -0.94236577 0.30389893 -1.9156468
v 0 0.62516356 -1.3037317
v -1.1426476 0.30389893 -0.55583525
v 0.94236577 0.30389893 -1.9156468
v 1.1426476 0.30389893 -0.55583525
v 0 0.62516356 -1.3037317
v -0.94236577 0 -1.9156468
v -1.1426476 0 -0.55583525
v 0.94236577 0 -1.9156468
v 0.94236577 0 -1.9156468
v -1.1426476 0 -0.55583525
v 1.1426476 0 -0.55583525
v -1.1426476 0.30389893 -0.55583525
v 1.1426476 0.30389893 -0.55583525
v 0 0.62516356 0.056079805
v -1.1426476 0.30389893 -0.55583525
v 0 0.62516356 0.056079805
v -1.2159559 0.30389893 0.80397606
v 1.1426476 0.30389893 -0.55583525
v 1.2159559 0.30389893 0.80397606
v 0 0.62516356 0.056079805
v -1.1426476 0 -0.55583525
v -1.2159559 0 0.80397606
v 1.1426476 0 -0.55583525
v 1.1426476 0 -0.55583525
v -1.2159559 0 0.80397606
v 1.2159559 0 0.80397606
v -1.2159559 0.30389893 0.80397606
v 1.2159559 0.30389893 0.80397606
v 0 0.62516356 1.4158914
v -1.2159559 0.30389893 0.80397606
v 0 0.62516356 1.4158914
v -1.1426476 0.30389893 2.1637878
v 1.2159559 0.30389893 0.80397606
v 1.1426476 0.30389893 2.1637878
v 0 0.62516356 1.4158914
v -1.2159559 0 0.80397606
v -1.1426476 0 2.1637878
v 1.2159559 0 0.80397606
v 1.2159559 0 0.80397606
v -1.1426476 0 2.1637878
v 1.1426476 0 2.1637878
v -1.1426476 0.30389893 2.1637878
v 1.1426476 0.30389893 2.1637878
v 0 0.62516356 2.7757027
v -1.1426476 0.30389893 2.1637878
v 0 0.62516356 2.7757027
v -0.872561 0.30389893 3.5235987
v 1.1426476 0.30389893 2.1637878
v 0.872561 0.30389893 3.5235987
v 0 0.62516356 2.7757027
v -1.1426476 0 2.1637878
v -0.872561 0 3.5235987
v 1.1426476 0 2.1637878
v 1.1426476 0 2.1637878
v -0.872561 0 3.5235987
v 0.872561 0 3.5235987
v -0.872561 0.30389893 3.5235987
v 0.872561 0.30389893 3.5235987
v 0 0.62516356 4.135514
v -0.872561 0.30389893 3.5235987
v 0 0.62516356 4.135514
v -0 0.30389893 4.8834105
v 0.872561 0.30389893 3.5235987
v 0 0.30389893 4.8834105
v 0 0.62516356 4.135514
v -0.872561 0 3.5235987
v -0 0 4.8834105
v 0.872561 0 3.5235987
v 0.872561 0 3.5235987
v -0 0 4.8834105
v 0 0 4.8834105
v 0 0.67726046 -2.5955524
v -0.097276464 0.53833526 -2.7414672
v 0.097276464 0.53833526 -2.7414672
v 0 0.67726046 -1.2357411
v -0.097276464 0.53833526 -1.3816558
v 0.097276464 0.53833526 -1.3816558
v 0 0.67726046 0.12407017
v -0.097276464 0.53833526 -0.021844536
v 0.097276464 0.53833526 -0.021844536
v 0 0.67726046 1.4838815
v -0.097276464 0.53833526 1.3379668
v 0.097276464 0.53833526 1.3379668
v 0 0.67726046 2.8436933
v -0.097276464 0.53833526 2.6977785
v 0.097276464 0.53833526 2.6977785
v -0.5107014 0.24311915 -0.8933068
v 0.5107014 0.24311915 -0.8933068
v 0 0.3646787 -1.667506
v -0.73376644 0.09647585 -3.210726
v -0.9853435 0 -3.7641957
v -0.48218936 0 -3.7641957
v 0 0.09647585 -3.210726
v -0.25157708 0 -3.7641957
v 0.25157708 0 -3.7641957
v 0.73376644 0.09647585 -3.210726
v 0.48218936 0 -3.7641957
v 0.9853435 0 -3.7641957
vn 0 -0.88539237 0.4648443
vn 0 -0.88539237 0.4648443
vn 0 -0.88539237 0.4648443
vn 0.3748631 -0.9240071 0.07542133
vn 0.3748631 -0.9240071 0.07542133
vn 0.3748631 -0.9240071 0.07542133
vn -0.3748631 -0.9240071 0.07542133
vn -0.3748631 -0.9240071 0.07542133
vn -0.3748631 -0.9240071 0.07542133
vn 0 0.99999994 -0
vn 0 0.99999994 -0
vn 0 0.99999994 -0
vn 0 1 -0
vn 0 1 -0
vn 0 1 -0
vn 0 -0.8853924 0.4648443
vn 0 -0.8853924 0.4648443
vn 0 -0.8853924 0.4648443
vn 0.29682016 -0.9539321 0.043717597
vn 0.29682016 -0.9539321 0.043717597
vn 0.29682016 -0.9539321 0.043717597
vn -0.29682016 -0.9539321 0.043717597
vn -0.29682016 -0.9539321 0.043717597
vn -0.29682016 -0.9539321 0.043717597
vn 0 1 -0
vn 0 1 -0
vn 0 1 -0
vn 0 1 -0
vn 0 1 -0
vn 0 1 -0
vn 0 -0.88539237 0.46484435
vn 0 -0.88539237 0.46484435
vn 0 -0.88539237 0.46484435
vn 0.26357687 -0.96453375 0.014209584
vn 0.26357687 -0.96453375 0.014209584
vn 0.26357687 -0.96453375 0.014209584
vn -0.26357687 -0.96453375 0.014209584
vn -0.26357687 -0.96453375 0.014209584
vn -0.26357687 -0.96453375 0.014209584
vn 0 1 -0
vn 0 1 -0
vn 0 1 -0
vn 0 1 -0
vn 0 1 -0
vn 0 1 -0
vn 0 -0.8853925 0.46484417
vn 0 -0.8853925 0.46484417
vn 0 -0.8853925 0.46484417
vn 0.26205635 -0.9649492 -0.014127607
vn 0.26205635 -0.9649492 -0.014127607
vn 0.26205635 -0.9649492 -0.014127607
vn -0.26205635 -0.9649492 -0.014127607
vn -0.26205635 -0.9649492 -0.014127607
vn -0.26205635 -0.9649492 -0.014127607
vn 0 1 0
vn 0 1 0
vn 0 1 0
vn 0 0.99999994 0
vn 0 0.99999994 0
vn 0 0.99999994 0
vn 0 -0.8853924 0.4648445
vn 0 -0.8853924 0.4648445
vn 0 -0.8853924 0.4648445
vn 0.2995879 -0.95221126 -0.059504375
vn 0.2995879 -0.95221126 -0.059504375
vn 0.2995879 -0.95221126 -0.059504375
vn -0.2995879 -0.95221126 -0.059504375
vn -0.2995879 -0.95221126 -0.059504375
vn -0.2995879 -0.95221126 -0.059504375
vn 0 1 0
vn 0 1 0
vn 0 1 0
vn 0 1 0
vn 0 1 0
vn 0 1 0
vn 0 -0.88539237 0.46484432
vn 0 -0.88539237 0.46484432
vn 0 -0.88539237 0.46484432
vn 0.5239106 -0.7826234 -0.33618176
vn 0.5239106 -0.7826234 -0.33618176
vn 0.5239106 -0.7826234 -0.33618176
vn -0.5239106 -0.7826234 -0.33618176
vn -0.5239106 -0.7826234 -0.33618176
vn -0.5239106 -0.7826234 -0.33618176
vn 0 1 0
vn 0 1 0
vn 0 1 0
vn 0 1 0
vn 0 1 0
vn 0 1 0
vn 0 -0.7242402 0.6895477
vn 0 -0.7242402 0.6895477
vn 0 -0.7242402 0.6895477
vn 0 -0.72424 0.6895481
vn 0 -0.72424 0.6895481
vn 0 -0.72424 0.6895481
vn 0 -0.72424 0.6895479
vn 0 -0.72424 0.6895479
vn 0 -0.72424 0.6895479
vn 0 -0.72424 0.6895481
vn 0 -0.72424 0.6895481
vn 0 -0.72424 0.6895481
vn 0 -0.7242402 0.6895477
vn 0 -0.7242402 0.6895477
vn 0 -0.7242402 0.6895477
vn -0 0.9878968 0.15511292
vn -0 0.9878968 0.15511292
vn -0 0.9878968 0.15511292
vn 0 -0.9851454 0.17172168
vn 0 -0.9851454 0.17172168
vn 0 -0.9851454 0.17172168
vn 0 -0.9851454 0.17172168
vn 0 -0.9851454 0.17172168
vn 0 -0.9851454 0.17172168
vn 0 -0.9851454 0.17172168
vn 0 -0.9851454 0.17172168
vn 0 -0.9851454 0.17172168
f 1//1 2//2 3//3
f 4//4 5//5 6//6
f 7//7 8//8 9//9
f 10//10 11//11 12//12
f 13//13 14//14 15//15
f 16//16 17//17 18//18
f 19//19 20//20 21//21
f 22//22 23//23 24//24
f 25//25 26//26 27//27
f 28//28 29//29 30//30
f 31//31 32//32 33//33
f 34//34 35//35 36//36
f 37//37 38//38 39//39
f 40//40 41//41 42//42
f 43//43 44//44 45//45
f 46//46 47//47 48//48
f 49//49 50//50 51//51
f 52//52 53//53 54//54
f 55//55 56//56 57//57
f 58//58 59//59 60//60
f 61//61 62//62 63//63
f 64//64 65//65 66//66
f 67//67 68//68 69//69
f 70//70 71//71 72//72
f 73//73 74//74 75//75
f 76//76 77//77 78//78
f 79//79 80//80 81//81
f 82//82 83//83 84//84
f 85//85 86//86 87//87
f 88//88 89//89 90//90
f 91//91 92//92 93//93
f 94//94 95//95 96//96
f 97//97 98//98 99//99
f 100//100 101//101 102//102
f 103//103 104//104 105//105
f 106//106 107//107 108//108
f 109//109 110//110 111//111
f 112//112 113//113 114//114
f 115//115 116//116 117//117
