# Exported from SharpOpenGl procedural mesh
o vesper_miner_mk1_12
# vertices 225
v -0.25164583 0.13145748 -1.218958
v 0.25164583 0.13145748 -1.218958
v 0 0.27042684 -0.95715904
v -0.25164583 0.13145748 -1.218958
v 0 0.27042684 -0.95715904
v -0.37746876 0.13145748 -0.6371826
v 0.25164583 0.13145748 -1.218958
v 0.37746876 0.13145748 -0.6371826
v 0 0.27042684 -0.95715904
v -0.25164583 0 -1.218958
v -0.37746876 0 -0.6371826
v 0.25164583 0 -1.218958
v 0.25164583 0 -1.218958
v -0.37746876 0 -0.6371826
v 0.37746876 0 -0.6371826
v -0.25164583 0 -1.218958
v -0.25164583 0.13145748 -1.218958
v -0.37746876 0.13145748 -0.6371826
v -0.25164583 0 -1.218958
v -0.37746876 0.13145748 -0.6371826
v -0.37746876 0 -0.6371826
v 0.25164583 0 -1.218958
v 0.37746876 0.13145748 -0.6371826
v 0.25164583 0.13145748 -1.218958
v 0.25164583 0 -1.218958
v 0.37746876 0 -0.6371826
v 0.37746876 0.13145748 -0.6371826
v -0.37746876 0.13145748 -0.6371826
v 0.37746876 0.13145748 -0.6371826
v 0 0.27042684 -0.37538365
v -0.37746876 0.13145748 -0.6371826
v 0 0.27042684 -0.37538365
v -0.46957758 0.13145748 -0.055407166
v 0.37746876 0.13145748 -0.6371826
v 0.46957758 0.13145748 -0.055407166
v 0 0.27042684 -0.37538365
v -0.37746876 0 -0.6371826
v -0.46957758 0 -0.055407166
v 0.37746876 0 -0.6371826
v 0.37746876 0 -0.6371826
v -0.46957758 0 -0.055407166
v 0.46957758 0 -0.055407166
v -0.37746876 0 -0.6371826
v -0.37746876 0.13145748 -0.6371826
v -0.46957758 0.13145748 -0.055407166
v -0.37746876 0 -0.6371826
v -0.46957758 0.13145748 -0.055407166
v -0.46957758 0 -0.055407166
v 0.37746876 0 -0.6371826
v 0.46957758 0.13145748 -0.055407166
v 0.37746876 0.13145748 -0.6371826
v 0.37746876 0 -0.6371826
v 0.46957758 0 -0.055407166
v 0.46957758 0.13145748 -0.055407166
v -0.46957758 0.13145748 -0.055407166
v 0.46957758 0.13145748 -0.055407166
v 0 0.27042684 0.20639178
v -0.46957758 0.13145748 -0.055407166
v 0 0.27042684 0.20639178
v -0.50329167 0.13145748 0.52636826
v 0.46957758 0.13145748 -0.055407166
v 0.50329167 0.13145748 0.52636826
v 0 0.27042684 0.20639178
v -0.46957758 0 -0.055407166
v -0.50329167 0 0.52636826
v 0.46957758 0 -0.055407166
v 0.46957758 0 -0.055407166
v -0.50329167 0 0.52636826
v 0.50329167 0 0.52636826
v -0.46957758 0 -0.055407166
v -0.46957758 0.13145748 -0.055407166
v -0.50329167 0.13145748 0.52636826
v -0.46957758 0 -0.055407166
v -0.50329167 0.13145748 0.52636826
v -0.50329167 0 0.52636826
v 0.46957758 0 -0.055407166
v 0.50329167 0.13145748 0.52636826
v 0.46957758 0.13145748 -0.055407166
v 0.46957758 0 -0.055407166
v 0.50329167 0 0.52636826
v 0.50329167 0.13145748 0.52636826
v -0.50329167 0.13145748 0.52636826
v 0.50329167 0.13145748 0.52636826
v 0 0.27042684 0.78816724
v -0.50329167 0.13145748 0.52636826
v 0 0.27042684 0.78816724
v -0.46957755 0.13145748 1.1081437
v 0.50329167 0.13145748 0.52636826
v 0.46957755 0.13145748 1.1081437
v 0 0.27042684 0.78816724
v -0.50329167 0 0.52636826
v -0.46957755 0 1.1081437
v 0.50329167 0 0.52636826
v 0.50329167 0 0.52636826
v -0.46957755 0 1.1081437
v 0.46957755 0 1.1081437
v -0.50329167 0 0.52636826
v -0.50329167 0.13145748 0.52636826
v -0.46957755 0.13145748 1.1081437
v -0.50329167 0 0.52636826
v -0.46957755 0.13145748 1.1081437
v -0.46957755 0 1.1081437
v 0.50329167 0 0.52636826
v 0.46957755 0.13145748 1.1081437
v 0.50329167 0.13145748 0.52636826
v 0.50329167 0 0.52636826
v 0.46957755 0 1.1081437
v 0.46957755 0.13145748 1.1081437
v -0.46957755 0.13145748 1.1081437
v 0.46957755 0.13145748 1.1081437
v 0 0.27042684 1.3699427
v -0.46957755 0.13145748 1.1081437
v 0 0.27042684 1.3699427
v -0.3774688 0.13145748 1.6899191
v 0.46957755 0.13145748 1.1081437
v 0.3774688 0.13145748 1.6899191
v 0 0.27042684 1.3699427
v -0.46957755 0 1.1081437
v -0.3774688 0 1.6899191
v 0.46957755 0 1.1081437
v 0.46957755 0 1.1081437
v -0.3774688 0 1.6899191
v 0.3774688 0 1.6899191
v -0.46957755 0 1.1081437
v -0.46957755 0.13145748 1.1081437
v -0.3774688 0.13145748 1.6899191
v -0.46957755 0 1.1081437
v -0.3774688 0.13145748 1.6899191
v -0.3774688 0 1.6899191
v 0.46957755 0 1.1081437
v 0.3774688 0.13145748 1.6899191
v 0.46957755 0.13145748 1.1081437
v 0.46957755 0 1.1081437
v 0.3774688 0 1.6899191
v 0.3774688 0.13145748 1.6899191
v -0.3774688 0.13145748 1.6899191
v 0.3774688 0.13145748 1.6899191
v 0 0.27042684 1.9517181
v -0.3774688 0.13145748 1.6899191
v 0 0.27042684 1.9517181
v -0 0.13145748 2.2716947
v 0.3774688 0.13145748 1.6899191
v 0 0.13145748 2.2716947
v 0 0.27042684 1.9517181
v -0.3774688 0 1.6899191
v -0 0 2.2716947
v 0.3774688 0 1.6899191
v -0.3774688 0 1.6899191
v -0.3774688 0.13145748 1.6899191
v -0 0.13145748 2.2716947
v -0.3774688 0 1.6899191
v -0 0.13145748 2.2716947
v -0 0 2.2716947
v 0.3774688 0 1.6899191
v 0 0.13145748 2.2716947
v 0.3774688 0.13145748 1.6899191
v 0.3774688 0 1.6899191
v 0 0 2.2716947
v 0 0.13145748 2.2716947
v -0.18349177 0 2.2716947
v 0.18349177 0 2.2716947
v 0 0.22986282 2.382509
v -0.18349177 0 -1.218958
v 0 0.07887449 -1.3020688
v 0.18349177 0 -1.218958
v 0 0.29296237 -0.9280703
v -0.05242622 0.23286754 -1.001467
v 0.05242622 0.23286754 -1.001467
v 0 0.29296237 -0.34629488
v -0.05242622 0.23286754 -0.4196916
v 0.05242622 0.23286754 -0.4196916
v 0 0.29296237 0.23548055
v -0.05242622 0.23286754 0.16208383
v 0.05242622 0.23286754 0.16208383
v 0 0.29296237 0.81725585
v -0.05242622 0.23286754 0.7438592
v 0.05242622 0.23286754 0.7438592
v 0 0.29296237 1.3990315
v -0.05242622 0.23286754 1.3256348
v 0.05242622 0.23286754 1.3256348
v -0.22019011 0.10516598 -0.59064054
v 0.22019011 0.10516598 -0.59064054
v 0 0.18028454 -0.93970585
v -0.25309208 0.040604625 -0.302221
v -0.3507133 0 -0.35298404
v -0.15547085 0 -0.35298404
v 0.25309208 0.040604625 -0.302221
v 0.15547085 0 -0.35298404
v 0.3507133 0 -0.35298404
v 0 0.19287196 0.20148067
v -0.06327302 0.071058095 0.14724666
v 0.06327302 0.071058095 0.14724666
v -0.17137656 0.02537789 -0.34251714
v 0.17137656 0.02537789 -0.34251714
v 0 0.111662716 -0.26696187
v -0.19126238 0.02537789 0.080592334
v 0.19126238 0.02537789 0.080592334
v 0 0.111662716 0.15614758
v -0.19885807 0.02537789 0.50370175
v 0.19885807 0.02537789 0.50370175
v 0 0.111662716 0.579257
v -0.19126238 0.02537789 0.92681116
v 0.19126238 0.02537789 0.92681116
v 0 0.111662716 1.0023664
v -0.17137656 0.02537789 1.3499205
v 0.17137656 0.02537789 1.3499205
v 0 0.111662716 1.4254757
v 0 0.2791568 -0.033580095
v -0.06327302 0.21317427 -0.14691298
v 0.06327302 0.21317427 -0.14691298
v 0 0.2791568 0.33580115
v -0.06327302 0.21317427 0.22246827
v 0.06327302 0.21317427 0.22246827
v 0 0.2791568 0.7051823
v -0.06327302 0.21317427 0.59184945
v 0.06327302 0.21317427 0.59184945
v 0 0.2791568 1.0745636
v -0.06327302 0.21317427 0.96123075
v 0.06327302 0.21317427 0.96123075
v 0 0.2791568 1.4439447
v -0.06327302 0.21317427 1.3306118
v 0.06327302 0.21317427 1.3306118
v -0.12654604 0 -1.0703661
v 0.12654604 0 -1.0703661
v 0 0.02537789 -1.183699
vn 0 -0.8832713 0.46886227
vn 0 -0.8832713 0.46886227
vn 0 -0.8832713 0.46886227
vn 0.40936452 -0.9080651 0.08853493
vn 0.40936452 -0.9080651 0.08853493
vn 0.40936452 -0.9080651 0.08853493
vn -0.40936452 -0.9080651 0.08853493
vn -0.40936452 -0.9080651 0.08853493
vn -0.40936452 -0.9080651 0.08853493
vn 0 1 -0
vn 0 1 -0
vn 0 1 -0
vn 0 0.99999994 -0
vn 0 0.99999994 -0
vn 0 0.99999994 -0
vn 0.9774025 -0 0.21138681
vn 0.9774025 -0 0.21138681
vn 0.9774025 -0 0.21138681
vn 0.9774025 0 0.21138681
vn 0.9774025 0 0.21138681
vn 0.9774025 0 0.21138681
vn -0.9774025 0 0.21138681
vn -0.9774025 0 0.21138681
vn -0.9774025 0 0.21138681
vn -0.9774025 0 0.21138681
vn -0.9774025 0 0.21138681
vn -0.9774025 0 0.21138681
vn 0 -0.8832713 0.4688623
vn 0 -0.8832713 0.4688623
vn 0 -0.8832713 0.4688623
vn 0.314471 -0.9479605 0.049788196
vn 0.314471 -0.9479605 0.049788196
vn 0.314471 -0.9479605 0.049788196
vn -0.314471 -0.9479605 0.049788196
vn -0.314471 -0.9479605 0.049788196
vn -0.314471 -0.9479605 0.049788196
vn 0 0.99999994 -0
vn 0 0.99999994 -0
vn 0 0.99999994 -0
vn 0 1 -0
vn 0 1 -0
vn 0 1 -0
vn 0.98769766 -0 0.15637593
vn 0.98769766 -0 0.15637593
vn 0.98769766 -0 0.15637593
vn 0.98769766 0 0.15637593
vn 0.98769766 0 0.15637593
vn 0.98769766 0 0.15637593
vn -0.98769766 0 0.15637593
vn -0.98769766 0 0.15637593
vn -0.98769766 0 0.15637593
vn -0.98769766 0 0.15637593
vn -0.98769766 0 0.15637593
vn -0.98769766 0 0.15637593
vn 0 -0.8832713 0.46886227
vn 0 -0.8832713 0.46886227
vn 0 -0.8832713 0.46886227
vn 0.27554694 -0.96115494 0.01596804
vn 0.27554694 -0.96115494 0.01596804
vn 0.27554694 -0.96115494 0.01596804
vn -0.27554694 -0.96115494 0.01596804
vn -0.27554694 -0.96115494 0.01596804
vn -0.27554694 -0.96115494 0.01596804
vn 0 1 -0
vn 0 1 -0
vn 0 1 -0
vn 0 1 -0
vn 0 1 -0
vn 0 1 -0
vn 0.99832505 -0 0.05785328
vn 0.99832505 -0 0.05785328
vn 0.99832505 -0 0.05785328
vn 0.99832505 0 0.05785328
vn 0.99832505 0 0.05785328
vn 0.99832505 0 0.05785328
vn -0.99832505 0 0.05785328
vn -0.99832505 0 0.05785328
vn -0.99832505 0 0.05785328
vn -0.99832505 0 0.05785328
vn -0.99832505 0 0.05785328
vn -0.99832505 0 0.05785328
vn 0 -0.8832713 0.46886227
vn 0 -0.8832713 0.46886227
vn 0 -0.8832713 0.46886227
vn 0.27378738 -0.9616593 -0.015866086
vn 0.27378738 -0.9616593 -0.015866086
vn 0.27378738 -0.9616593 -0.015866086
vn -0.27378738 -0.9616593 -0.015866086
vn -0.27378738 -0.9616593 -0.015866086
vn -0.27378738 -0.9616593 -0.015866086
vn 0 1 0
vn 0 1 0
vn 0 1 0
vn 0 1 0
vn 0 1 0
vn 0 1 0
vn 0.99832505 0 -0.057853337
vn 0.99832505 0 -0.057853337
vn 0.99832505 0 -0.057853337
vn 0.99832505 0 -0.057853337
vn 0.99832505 0 -0.057853337
vn 0.99832505 0 -0.057853337
vn -0.99832505 0 -0.057853337
vn -0.99832505 0 -0.057853337
vn -0.99832505 0 -0.057853337
vn -0.99832505 0 -0.057853337
vn -0.99832505 0 -0.057853337
vn -0.99832505 0 -0.057853337
vn 0 -0.8832713 0.4688622
vn 0 -0.8832713 0.4688622
vn 0 -0.8832713 0.4688622
vn 0.3083714 -0.9500124 -0.048822455
vn 0.3083714 -0.9500124 -0.048822455
vn 0.3083714 -0.9500124 -0.048822455
vn -0.3083714 -0.9500124 -0.048822455
vn -0.3083714 -0.9500124 -0.048822455
vn -0.3083714 -0.9500124 -0.048822455
vn 0 1 0
vn 0 1 0
vn 0 1 0
vn 0 1 0
vn 0 1 0
vn 0 1 0
vn 0.98769766 0 -0.15637581
vn 0.98769766 0 -0.15637581
vn 0.98769766 0 -0.15637581
vn 0.98769766 0 -0.15637581
vn 0.98769766 0 -0.15637581
vn 0.98769766 0 -0.15637581
vn -0.98769766 0 -0.15637581
vn -0.98769766 0 -0.15637581
vn -0.98769766 0 -0.15637581
vn -0.98769766 0 -0.15637581
vn -0.98769766 0 -0.15637581
vn -0.98769766 0 -0.15637581
vn 0 -0.8832713 0.4688622
vn 0 -0.8832713 0.4688622
vn 0 -0.8832713 0.4688622
vn 0.52322763 -0.7816554 -0.3394816
vn 0.52322763 -0.7816554 -0.3394816
vn 0.52322763 -0.7816554 -0.3394816
vn -0.52322763 -0.7816554 -0.3394816
vn -0.52322763 -0.7816554 -0.3394816
vn -0.52322763 -0.7816554 -0.3394816
vn 0 1 0
vn 0 1 0
vn 0 1 0
vn 0.8388949 0 -0.54429346
vn 0.8388949 0 -0.54429346
vn 0.8388949 0 -0.54429346
vn 0.8388949 0 -0.54429346
vn 0.8388949 0 -0.54429346
vn 0.8388949 0 -0.54429346
vn -0.8388949 0 -0.54429346
vn -0.8388949 0 -0.54429346
vn -0.8388949 0 -0.54429346
vn -0.8388949 0 -0.54429346
vn -0.8388949 0 -0.54429346
vn -0.8388949 0 -0.54429346
vn 0 -0.4342598 0.90078765
vn 0 -0.4342598 0.90078765
vn 0 -0.4342598 0.90078765
vn 0 -0.7253514 -0.6883789
vn 0 -0.7253514 -0.6883789
vn 0 -0.7253514 -0.6883789
vn 0 -0.7737351 0.6335093
vn 0 -0.7737351 0.6335093
vn 0 -0.7737351 0.6335093
vn 0 -0.7737352 0.63350916
vn 0 -0.7737352 0.63350916
vn 0 -0.7737352 0.63350916
vn 0 -0.7737352 0.63350916
vn 0 -0.7737352 0.63350916
vn 0 -0.7737352 0.63350916
vn 0 -0.7737351 0.6335093
vn 0 -0.7737351 0.6335093
vn 0 -0.7737351 0.6335093
vn 0 -0.7737351 0.6335093
vn 0 -0.7737351 0.6335093
vn 0 -0.7737351 0.6335093
vn -0 0.97761905 0.21038282
vn -0 0.97761905 0.21038282
vn -0 0.97761905 0.21038282
vn 0 -0.7809124 0.6246406
vn 0 -0.7809124 0.6246406
vn 0 -0.7809124 0.6246406
vn 0 -0.7809124 0.6246406
vn 0 -0.7809124 0.6246406
vn 0 -0.7809124 0.6246406
vn 0 -0.40673026 0.91354823
vn 0 -0.40673026 0.91354823
vn 0 -0.40673026 0.91354823
vn 0 -0.65878135 0.7523345
vn 0 -0.65878135 0.7523345
vn 0 -0.65878135 0.7523345
vn 0 -0.6587812 0.75233454
vn 0 -0.6587812 0.75233454
vn 0 -0.6587812 0.75233454
vn 0 -0.6587813 0.7523345
vn 0 -0.6587813 0.7523345
vn 0 -0.6587813 0.7523345
vn 0 -0.6587813 0.7523345
vn 0 -0.6587813 0.7523345
vn 0 -0.6587813 0.7523345
vn 0 -0.65878105 0.7523348
vn 0 -0.65878105 0.7523348
vn 0 -0.65878105 0.7523348
vn 0 -0.86420447 0.5031408
vn 0 -0.86420447 0.5031408
vn 0 -0.86420447 0.5031408
vn 0 -0.86420447 0.5031408
vn 0 -0.86420447 0.5031408
vn 0 -0.86420447 0.5031408
vn 0 -0.86420447 0.5031409
vn 0 -0.86420447 0.5031409
vn 0 -0.86420447 0.5031409
vn 0 -0.86420447 0.5031409
vn 0 -0.86420447 0.5031409
vn 0 -0.86420447 0.5031409
vn 0 -0.86420447 0.5031409
vn 0 -0.86420447 0.5031409
vn 0 -0.86420447 0.5031409
vn -0 0.97583425 0.21851219
vn -0 0.97583425 0.21851219
vn -0 0.97583425 0.21851219
f 1//1 2//2 3//3
f 4//4 5//5 6//6
f 7//7 8//8 9//9
f 10//10 11//11 12//12
f 13//13 14//14 15//15
f 16//16 17//17 18//18
f 19//19 20//20 21//21
f 22//22 23//23 24//24
f 25//25 26//26 27//27
f 28//28 29//29 30//30
f 31//31 32//32 33//33
f 34//34 35//35 36//36
f 37//37 38//38 39//39
f 40//40 41//41 42//42
f 43//43 44//44 45//45
f 46//46 47//47 48//48
f 49//49 50//50 51//51
f 52//52 53//53 54//54
f 55//55 56//56 57//57
f 58//58 59//59 60//60
f 61//61 62//62 63//63
f 64//64 65//65 66//66
f 67//67 68//68 69//69
f 70//70 71//71 72//72
f 73//73 74//74 75//75
f 76//76 77//77 78//78
f 79//79 80//80 81//81
f 82//82 83//83 84//84
f 85//85 86//86 87//87
f 88//88 89//89 90//90
f 91//91 92//92 93//93
f 94//94 95//95 96//96
f 97//97 98//98 99//99
f 100//100 101//101 102//102
f 103//103 104//104 105//105
f 106//106 107//107 108//108
f 109//109 110//110 111//111
f 112//112 113//113 114//114
f 115//115 116//116 117//117
f 118//118 119//119 120//120
f 121//121 122//122 123//123
f 124//124 125//125 126//126
f 127//127 128//128 129//129
f 130//130 131//131 132//132
f 133//133 134//134 135//135
f 136//136 137//137 138//138
f 139//139 140//140 141//141
f 142//142 143//143 144//144
f 145//145 146//146 147//147
f 148//148 149//149 150//150
f 151//151 152//152 153//153
f 154//154 155//155 156//156
f 157//157 158//158 159//159
f 160//160 161//161 162//162
f 163//163 164//164 165//165
f 166//166 167//167 168//168
f 169//169 170//170 171//171
f 172//172 173//173 174//174
f 175//175 176//176 177//177
f 178//178 179//179 180//180
f 181//181 182//182 183//183
f 184//184 185//185 186//186
f 187//187 188//188 189//189
f 190//190 191//191 192//192
f 193//193 194//194 195//195
f 196//196 197//197 198//198
f 199//199 200//200 201//201
f 202//202 203//203 204//204
f 205//205 206//206 207//207
f 208//208 209//209 210//210
f 211//211 212//212 213//213
f 214//214 215//215 216//216
f 217//217 218//218 219//219
f 220//220 221//221 222//222
f 223//223 224//224 225//225
