# Exported from SharpOpenGl procedural mesh
o vesper_dreadnought_eclipse_61
# vertices 153
v -1.195328 0.576903 -6.8481464
v 1.195328 0.576903 -6.8481464
v 0 1.186772 -5.888628
v -1.195328 0.576903 -6.8481464
v 0 1.186772 -5.888628
v -1.5695907 0.576903 -4.715883
v 1.195328 0.576903 -6.8481464
v 1.5695907 0.576903 -4.715883
v 0 1.186772 -5.888628
v -1.195328 0 -6.8481464
v -1.5695907 0 -4.715883
v 1.195328 0 -6.8481464
v 1.195328 0 -6.8481464
v -1.5695907 0 -4.715883
v 1.5695907 0 -4.715883
v -1.5695907 0.576903 -4.715883
v 1.5695907 0.576903 -4.715883
v 0 1.186772 -3.756364
v -1.5695907 0.576903 -4.715883
v 0 1.186772 -3.756364
v -1.8868753 0.576903 -2.583619
v 1.5695907 0.576903 -4.715883
v 1.8868753 0.576903 -2.583619
v 0 1.186772 -3.756364
v -1.5695907 0 -4.715883
v -1.8868753 0 -2.583619
v 1.5695907 0 -4.715883
v 1.5695907 0 -4.715883
v -1.8868753 0 -2.583619
v 1.8868753 0 -2.583619
v -1.8868753 0.576903 -2.583619
v 1.8868753 0.576903 -2.583619
v 0 1.186772 -1.6241004
v -1.8868753 0.576903 -2.583619
v 0 1.186772 -1.6241004
v -2.0988781 0.576903 -0.45135546
v 1.8868753 0.576903 -2.583619
v 2.0988781 0.576903 -0.45135546
v 0 1.186772 -1.6241004
v -1.8868753 0 -2.583619
v -2.0988781 0 -0.45135546
v 1.8868753 0 -2.583619
v 1.8868753 0 -2.583619
v -2.0988781 0 -0.45135546
v 2.0988781 0 -0.45135546
v -2.0988781 0.576903 -0.45135546
v 2.0988781 0.576903 -0.45135546
v 0 1.186772 0.50816315
v -2.0988781 0.576903 -0.45135546
v 0 1.186772 0.50816315
v -2.1733236 0.576903 1.6809082
v 2.0988781 0.576903 -0.45135546
v 2.1733236 0.576903 1.6809082
v 0 1.186772 0.50816315
v -2.0988781 0 -0.45135546
v -2.1733236 0 1.6809082
v 2.0988781 0 -0.45135546
v 2.0988781 0 -0.45135546
v -2.1733236 0 1.6809082
v 2.1733236 0 1.6809082
v -2.1733236 0.576903 1.6809082
v 2.1733236 0.576903 1.6809082
v 0 1.186772 2.6404266
v -2.1733236 0.576903 1.6809082
v 0 1.186772 2.6404266
v -2.0988781 0.576903 3.8131714
v 2.1733236 0.576903 1.6809082
v 2.0988781 0.576903 3.8131714
v 0 1.186772 2.6404266
v -2.1733236 0 1.6809082
v -2.0988781 0 3.8131714
v 2.1733236 0 1.6809082
v 2.1733236 0 1.6809082
v -2.0988781 0 3.8131714
v 2.0988781 0 3.8131714
v -2.0988781 0.576903 3.8131714
v 2.0988781 0.576903 3.8131714
v 0 1.186772 4.7726903
v -2.0988781 0.576903 3.8131714
v 0 1.186772 4.7726903
v -1.8868753 0.576903 5.9454355
v 2.0988781 0.576903 3.8131714
v 1.8868753 0.576903 5.9454355
v 0 1.186772 4.7726903
v -2.0988781 0 3.8131714
v -1.8868753 0 5.9454355
v 2.0988781 0 3.8131714
v 2.0988781 0 3.8131714
v -1.8868753 0 5.9454355
v 1.8868753 0 5.9454355
v -1.8868753 0.576903 5.9454355
v 1.8868753 0.576903 5.9454355
v 0 1.186772 6.9049544
v -1.8868753 0.576903 5.9454355
v 0 1.186772 6.9049544
v -1.0899934 0.576903 8.0777
v 1.8868753 0.576903 5.9454355
v 1.0899934 0.576903 8.0777
v 0 1.186772 6.9049544
v -1.8868753 0 5.9454355
v -1.0899934 0 8.0777
v 1.8868753 0 5.9454355
v 1.8868753 0 5.9454355
v -1.0899934 0 8.0777
v 1.0899934 0 8.0777
v -1.0899934 0.576903 8.0777
v 1.0899934 0.576903 8.0777
v 0 1.186772 9.037218
v -1.0899934 0.576903 8.0777
v 0 1.186772 9.037218
v -0 0.576903 10.209963
v 1.0899934 0.576903 8.0777
v 0 0.576903 10.209963
v 0 1.186772 9.037218
v -1.0899934 0 8.0777
v -0 0 10.209963
v 1.0899934 0 8.0777
v 1.0899934 0 8.0777
v -0 0 10.209963
v 0 0 10.209963
v 0 1.2856696 -5.782015
v -0.17386588 1.0219425 -6.042814
v 0.17386588 1.0219425 -6.042814
v 0 1.2856696 -3.649751
v -0.17386588 1.0219425 -3.9105499
v 0.17386588 1.0219425 -3.9105499
v 0 1.2856696 -1.5174875
v -0.17386588 1.0219425 -1.7782863
v 0.17386588 1.0219425 -1.7782863
v 0 1.2856696 0.6147766
v -0.17386588 1.0219425 0.35397777
v 0.17386588 1.0219425 0.35397777
v 0 1.2856696 2.7470398
v -0.17386588 1.0219425 2.4862409
v 0.17386588 1.0219425 2.4862409
v 0 1.2856696 4.879304
v -0.17386588 1.0219425 4.618505
v 0.17386588 1.0219425 4.618505
v 0 1.2856696 7.011567
v -0.17386588 1.0219425 6.750768
v 0.17386588 1.0219425 6.750768
v -0.9127959 0.4615224 -1.8676763
v 0.9127959 0.4615224 -1.8676763
v 0 0.6922836 -3.4863288
v -1.3114884 0.18314381 -6.712807
v -1.9859681 0 -8.196663
v -0.63700867 0 -8.196663
v 0 0.18314381 -6.712807
v -0.6744797 0 -8.196663
v 0.6744797 0 -8.196663
v 1.3114884 0.18314381 -6.712807
v 0.63700867 0 -8.196663
v 1.9859681 0 -8.196663
vn 0 -0.8439536 0.5364161
vn 0 -0.8439536 0.5364161
vn 0 -0.8439536 0.5364161
vn 0.40719488 -0.9105406 0.07147233
vn 0.40719488 -0.9105406 0.07147233
vn 0.40719488 -0.9105406 0.07147233
vn -0.40719488 -0.9105406 0.07147233
vn -0.40719488 -0.9105406 0.07147233
vn -0.40719488 -0.9105406 0.07147233
vn 0 1 -0
vn 0 1 -0
vn 0 1 -0
vn 0 0.99999994 -0
vn 0 0.99999994 -0
vn 0 0.99999994 -0
vn 0 -0.84395367 0.53641605
vn 0 -0.84395367 0.53641605
vn 0 -0.84395367 0.53641605
vn 0.33509377 -0.94086444 0.049862538
vn 0.33509377 -0.94086444 0.049862538
vn 0.33509377 -0.94086444 0.049862538
vn -0.33509377 -0.94086444 0.049862538
vn -0.33509377 -0.94086444 0.049862538
vn -0.33509377 -0.94086444 0.049862538
vn 0 0.99999994 -0
vn 0 0.99999994 -0
vn 0 0.99999994 -0
vn 0 1 -0
vn 0 1 -0
vn 0 1 -0
vn 0 -0.8439538 0.53641605
vn 0 -0.8439538 0.53641605
vn 0 -0.8439538 0.53641605
vn 0.29393288 -0.95537925 0.029224627
vn 0.29393288 -0.95537925 0.029224627
vn 0.29393288 -0.95537925 0.029224627
vn -0.29393288 -0.95537925 0.029224627
vn -0.29393288 -0.95537925 0.029224627
vn -0.29393288 -0.95537925 0.029224627
vn 0 1 -0
vn 0 1 -0
vn 0 1 -0
vn 0 1 -0
vn 0 1 -0
vn 0 1 -0
vn 0 -0.8439537 0.53641605
vn 0 -0.8439537 0.53641605
vn 0 -0.8439537 0.53641605
vn 0.27496606 -0.961406 0.009600117
vn 0.27496606 -0.961406 0.009600117
vn 0.27496606 -0.961406 0.009600117
vn -0.27496606 -0.961406 0.009600117
vn -0.27496606 -0.961406 0.009600117
vn -0.27496606 -0.961406 0.009600117
vn 0 1 -0
vn 0 1 -0
vn 0 1 -0
vn 0 1 -0
vn 0 1 -0
vn 0 1 -0
vn 0 -0.84395367 0.5364162
vn 0 -0.84395367 0.5364162
vn 0 -0.84395367 0.5364162
vn 0.2740815 -0.9616589 -0.009569236
vn 0.2740815 -0.9616589 -0.009569236
vn 0.2740815 -0.9616589 -0.009569236
vn -0.2740815 -0.9616589 -0.009569236
vn -0.2740815 -0.9616589 -0.009569236
vn -0.2740815 -0.9616589 -0.009569236
vn 0 1 0
vn 0 1 0
vn 0 1 0
vn 0 1 0
vn 0 1 0
vn 0 1 0
vn 0 -0.8439537 0.53641593
vn 0 -0.8439537 0.53641593
vn 0 -0.8439537 0.53641593
vn 0.29108995 -0.9562579 -0.028941961
vn 0.29108995 -0.9562579 -0.028941961
vn 0.29108995 -0.9562579 -0.028941961
vn -0.29108995 -0.9562579 -0.028941961
vn -0.29108995 -0.9562579 -0.028941961
vn -0.29108995 -0.9562579 -0.028941961
vn 0 1 0
vn 0 1 0
vn 0 1 0
vn 0 1 0
vn 0 1 0
vn 0 1 0
vn 0 -0.8439538 0.53641593
vn 0 -0.8439538 0.53641593
vn 0 -0.8439538 0.53641593
vn 0.36712962 -0.9199947 -0.13720576
vn 0.36712962 -0.9199947 -0.13720576
vn 0.36712962 -0.9199947 -0.13720576
vn -0.36712962 -0.9199947 -0.13720576
vn -0.36712962 -0.9199947 -0.13720576
vn -0.36712962 -0.9199947 -0.13720576
vn 0 1 0
vn 0 1 0
vn 0 1 0
vn 0 1 0
vn 0 1 0
vn 0 1 0
vn 0 -0.8439536 0.53641605
vn 0 -0.8439536 0.53641605
vn 0 -0.8439536 0.53641605
vn 0.6700118 -0.65861624 -0.34250388
vn 0.6700118 -0.65861624 -0.34250388
vn 0.6700118 -0.65861624 -0.34250388
vn -0.6700118 -0.65861624 -0.34250388
vn -0.6700118 -0.65861624 -0.34250388
vn -0.6700118 -0.65861624 -0.34250388
vn 0 1 0
vn 0 1 0
vn 0 1 0
vn 0 1 0
vn 0 1 0
vn 0 1 0
vn 0 -0.7031484 0.7110431
vn 0 -0.7031484 0.7110431
vn 0 -0.7031484 0.7110431
vn 0 -0.7031484 0.7110431
vn 0 -0.7031484 0.7110431
vn 0 -0.7031484 0.7110431
vn 0 -0.70314825 0.71104324
vn 0 -0.70314825 0.71104324
vn 0 -0.70314825 0.71104324
vn 0 -0.7031483 0.71104324
vn 0 -0.7031483 0.71104324
vn 0 -0.7031483 0.71104324
vn 0 -0.7031484 0.7110431
vn 0 -0.7031484 0.7110431
vn 0 -0.7031484 0.7110431
vn 0 -0.7031484 0.7110431
vn 0 -0.7031484 0.7110431
vn 0 -0.7031484 0.7110431
vn 0 -0.7031484 0.7110431
vn 0 -0.7031484 0.7110431
vn 0 -0.7031484 0.7110431
vn -0 0.9899902 0.1411367
vn -0 0.9899902 0.1411367
vn -0 0.9899902 0.1411367
vn 0 -0.99246913 0.12249477
vn 0 -0.99246913 0.12249477
vn 0 -0.99246913 0.12249477
vn 0 -0.99246913 0.12249477
vn 0 -0.99246913 0.12249477
vn 0 -0.99246913 0.12249477
vn 0 -0.99246913 0.12249477
vn 0 -0.99246913 0.12249477
vn 0 -0.99246913 0.12249477
f 1//1 2//2 3//3
f 4//4 5//5 6//6
f 7//7 8//8 9//9
f 10//10 11//11 12//12
f 13//13 14//14 15//15
f 16//16 17//17 18//18
f 19//19 20//20 21//21
f 22//22 23//23 24//24
f 25//25 26//26 27//27
f 28//28 29//29 30//30
f 31//31 32//32 33//33
f 34//34 35//35 36//36
f 37//37 38//38 39//39
f 40//40 41//41 42//42
f 43//43 44//44 45//45
f 46//46 47//47 48//48
f 49//49 50//50 51//51
f 52//52 53//53 54//54
f 55//55 56//56 57//57
f 58//58 59//59 60//60
f 61//61 62//62 63//63
f 64//64 65//65 66//66
f 67//67 68//68 69//69
f 70//70 71//71 72//72
f 73//73 74//74 75//75
f 76//76 77//77 78//78
f 79//79 80//80 81//81
f 82//82 83//83 84//84
f 85//85 86//86 87//87
f 88//88 89//89 90//90
f 91//91 92//92 93//93
f 94//94 95//95 96//96
f 97//97 98//98 99//99
f 100//100 101//101 102//102
f 103//103 104//104 105//105
f 106//106 107//107 108//108
f 109//109 110//110 111//111
f 112//112 113//113 114//114
f 115//115 116//116 117//117
f 118//118 119//119 120//120
f 121//121 122//122 123//123
f 124//124 125//125 126//126
f 127//127 128//128 129//129
f 130//130 131//131 132//132
f 133//133 134//134 135//135
f 136//136 137//137 138//138
f 139//139 140//140 141//141
f 142//142 143//143 144//144
f 145//145 146//146 147//147
f 148//148 149//149 150//150
f 151//151 152//152 153//153
