# Exported from SharpOpenGl procedural mesh
o vesper_carrier_storm_60
# vertices 156
v -0.90420884 0.40505746 -4.0216155
v 0.90420884 0.40505746 -4.0216155
v 0 0.8332611 -3.4581323
v -0.90420884 0.40505746 -4.0216155
v 0 0.8332611 -3.4581323
v -1.1873208 0.40505746 -2.7694306
v 0.90420884 0.40505746 -4.0216155
v 1.1873208 0.40505746 -2.7694306
v 0 0.8332611 -3.4581323
v -0.90420884 0 -4.0216155
v -1.1873208 0 -2.7694306
v 0.90420884 0 -4.0216155
v 0.90420884 0 -4.0216155
v -1.1873208 0 -2.7694306
v 1.1873208 0 -2.7694306
v -1.1873208 0.40505746 -2.7694306
v 1.1873208 0.40505746 -2.7694306
v 0 0.8332611 -2.2059474
v -1.1873208 0.40505746 -2.7694306
v 0 0.8332611 -2.2059474
v -1.4273314 0.40505746 -1.5172458
v 1.1873208 0.40505746 -2.7694306
v 1.4273314 0.40505746 -1.5172458
v 0 0.8332611 -2.2059474
v -1.1873208 0 -2.7694306
v -1.4273314 0 -1.5172458
v 1.1873208 0 -2.7694306
v 1.1873208 0 -2.7694306
v -1.4273314 0 -1.5172458
v 1.4273314 0 -1.5172458
v -1.4273314 0.40505746 -1.5172458
v 1.4273314 0.40505746 -1.5172458
v 0 0.8332611 -0.9537626
v -1.4273314 0.40505746 -1.5172458
v 0 0.8332611 -0.9537626
v -1.5877016 0.40505746 -0.2650609
v 1.4273314 0.40505746 -1.5172458
v 1.5877016 0.40505746 -0.2650609
v 0 0.8332611 -0.9537626
v -1.4273314 0 -1.5172458
v -1.5877016 0 -0.2650609
v 1.4273314 0 -1.5172458
v 1.4273314 0 -1.5172458
v -1.5877016 0 -0.2650609
v 1.5877016 0 -0.2650609
v -1.5877016 0.40505746 -0.2650609
v 1.5877016 0.40505746 -0.2650609
v 0 0.8332611 0.29842228
v -1.5877016 0.40505746 -0.2650609
v 0 0.8332611 0.29842228
v -1.644016 0.40505746 0.98712397
v 1.5877016 0.40505746 -0.2650609
v 1.644016 0.40505746 0.98712397
v 0 0.8332611 0.29842228
v -1.5877016 0 -0.2650609
v -1.644016 0 0.98712397
v 1.5877016 0 -0.2650609
v 1.5877016 0 -0.2650609
v -1.644016 0 0.98712397
v 1.644016 0 0.98712397
v -1.644016 0.40505746 0.98712397
v 1.644016 0.40505746 0.98712397
v 0 0.8332611 1.5506072
v -1.644016 0.40505746 0.98712397
v 0 0.8332611 1.5506072
v -1.5877016 0.40505746 2.2393088
v 1.644016 0.40505746 0.98712397
v 1.5877016 0.40505746 2.2393088
v 0 0.8332611 1.5506072
v -1.644016 0 0.98712397
v -1.5877016 0 2.2393088
v 1.644016 0 0.98712397
v 1.644016 0 0.98712397
v -1.5877016 0 2.2393088
v 1.5877016 0 2.2393088
v -1.5877016 0.40505746 2.2393088
v 1.5877016 0.40505746 2.2393088
v 0 0.8332611 2.802792
v -1.5877016 0.40505746 2.2393088
v 0 0.8332611 2.802792
v -1.4273314 0.40505746 3.4914937
v 1.5877016 0.40505746 2.2393088
v 1.4273314 0.40505746 3.4914937
v 0 0.8332611 2.802792
v -1.5877016 0 2.2393088
v -1.4273314 0 3.4914937
v 1.5877016 0 2.2393088
v 1.5877016 0 2.2393088
v -1.4273314 0 3.4914937
v 1.4273314 0 3.4914937
v -1.4273314 0.40505746 3.4914937
v 1.4273314 0.40505746 3.4914937
v 0 0.8332611 4.054977
v -1.4273314 0.40505746 3.4914937
v 0 0.8332611 4.054977
v -0.8245282 0.40505746 4.7436786
v 1.4273314 0.40505746 3.4914937
v 0.8245282 0.40505746 4.7436786
v 0 0.8332611 4.054977
v -1.4273314 0 3.4914937
v -0.8245282 0 4.7436786
v 1.4273314 0 3.4914937
v 1.4273314 0 3.4914937
v -0.8245282 0 4.7436786
v 0.8245282 0 4.7436786
v -0.8245282 0.40505746 4.7436786
v 0.8245282 0.40505746 4.7436786
v 0 0.8332611 5.307162
v -0.8245282 0.40505746 4.7436786
v 0 0.8332611 5.307162
v -0 0.40505746 5.9958634
v 0.8245282 0.40505746 4.7436786
v 0 0.40505746 5.9958634
v 0 0.8332611 5.307162
v -0.8245282 0 4.7436786
v -0 0 5.9958634
v 0.8245282 0 4.7436786
v 0.8245282 0 4.7436786
v -0 0 5.9958634
v 0 0 5.9958634
v 0 0.9026995 -3.395523
v -0.13152128 0.71753037 -3.592805
v 0.13152128 0.71753037 -3.592805
v 0 0.9026995 -2.1433382
v -0.13152128 0.71753037 -2.34062
v 0.13152128 0.71753037 -2.34062
v 0 0.9026995 -0.89115334
v -0.13152128 0.71753037 -1.0884353
v 0.13152128 0.71753037 -1.0884353
v 0 0.9026995 0.36103153
v -0.13152128 0.71753037 0.16374962
v 0.13152128 0.71753037 0.16374962
v 0 0.9026995 1.6132164
v -0.13152128 0.71753037 1.4159344
v 0.13152128 0.71753037 1.4159344
v 0 0.9026995 2.8654013
v -0.13152128 0.71753037 2.6681194
v 0.13152128 0.71753037 2.6681194
v 0 0.9026995 4.1175866
v -0.13152128 0.71753037 3.9203048
v 0.13152128 0.71753037 3.9203048
v -0.6904867 0.32404596 -1.0968043
v 0.6904867 0.32404596 -1.0968043
v 0 0.48606893 -2.0473678
v -1.1904944 0.12858966 -3.942137
v -1.6666923 0 -4.989772
v -0.71429664 0 -4.989772
v -0.39683148 0.12858966 -3.942137
v -0.87302923 0 -4.989772
v 0.0793663 0 -4.989772
v 0.39683148 0.12858966 -3.942137
v -0.0793663 0 -4.989772
v 0.87302923 0 -4.989772
v 1.1904944 0.12858966 -3.942137
v 0.71429664 0 -4.989772
v 1.6666923 0 -4.989772
vn 0 -0.7961919 0.6050441
vn 0 -0.7961919 0.6050441
vn 0 -0.7961919 0.6050441
vn 0.38193685 -0.92014533 0.08635378
vn 0.38193685 -0.92014533 0.08635378
vn 0.38193685 -0.92014533 0.08635378
vn -0.38193685 -0.92014533 0.08635378
vn -0.38193685 -0.92014533 0.08635378
vn -0.38193685 -0.92014533 0.08635378
vn 0 1 -0
vn 0 1 -0
vn 0 1 -0
vn 0 0.99999994 -0
vn 0 0.99999994 -0
vn 0 0.99999994 -0
vn 0 -0.79619193 0.6050442
vn 0 -0.79619193 0.6050442
vn 0 -0.79619193 0.6050442
vn 0.31330416 -0.9477522 0.060052097
vn 0.31330416 -0.9477522 0.060052097
vn 0.31330416 -0.9477522 0.060052097
vn -0.31330416 -0.9477522 0.060052097
vn -0.31330416 -0.9477522 0.060052097
vn -0.31330416 -0.9477522 0.060052097
vn 0 0.99999994 -0
vn 0 0.99999994 -0
vn 0 0.99999994 -0
vn 0 1 -0
vn 0 1 -0
vn 0 1 -0
vn 0 -0.79619193 0.6050443
vn 0 -0.79619193 0.6050443
vn 0 -0.79619193 0.6050443
vn 0.27441847 -0.96096796 0.035145387
vn 0.27441847 -0.96096796 0.035145387
vn 0.27441847 -0.96096796 0.035145387
vn -0.27441847 -0.96096796 0.035145387
vn -0.27441847 -0.96096796 0.035145387
vn -0.27441847 -0.96096796 0.035145387
vn 0 1 -0
vn 0 1 -0
vn 0 1 -0
vn 0 0.99999994 -0
vn 0 0.99999994 -0
vn 0 0.99999994 -0
vn 0 -0.7961919 0.6050442
vn 0 -0.7961919 0.6050442
vn 0 -0.7961919 0.6050442
vn 0.2565595 -0.9664596 0.011538241
vn 0.2565595 -0.9664596 0.011538241
vn 0.2565595 -0.9664596 0.011538241
vn -0.2565595 -0.9664596 0.011538241
vn -0.2565595 -0.9664596 0.011538241
vn -0.2565595 -0.9664596 0.011538241
vn 0 0.99999994 -0
vn 0 0.99999994 -0
vn 0 0.99999994 -0
vn 0 1 -0
vn 0 1 -0
vn 0 1 -0
vn 0 -0.79619193 0.6050442
vn 0 -0.79619193 0.6050442
vn 0 -0.79619193 0.6050442
vn 0.2557255 -0.96668106 -0.011500734
vn 0.2557255 -0.96668106 -0.011500734
vn 0.2557255 -0.96668106 -0.011500734
vn -0.2557255 -0.96668106 -0.011500734
vn -0.2557255 -0.96668106 -0.011500734
vn -0.2557255 -0.96668106 -0.011500734
vn 0 1 0
vn 0 1 0
vn 0 1 0
vn 0 1 0
vn 0 1 0
vn 0 1 0
vn 0 -0.7961919 0.6050442
vn 0 -0.7961919 0.6050442
vn 0 -0.7961919 0.6050442
vn 0.2717336 -0.961743 -0.03480153
vn 0.2717336 -0.961743 -0.03480153
vn 0.2717336 -0.961743 -0.03480153
vn -0.2717336 -0.961743 -0.03480153
vn -0.2717336 -0.961743 -0.03480153
vn -0.2717336 -0.961743 -0.03480153
vn 0 0.99999994 0
vn 0 0.99999994 0
vn 0 0.99999994 0
vn 0 1 0
vn 0 1 0
vn 0 1 0
vn 0 -0.796192 0.6050442
vn 0 -0.796192 0.6050442
vn 0 -0.796192 0.6050442
vn 0.34257948 -0.9249007 -0.16491815
vn 0.34257948 -0.9249007 -0.16491815
vn 0.34257948 -0.9249007 -0.16491815
vn -0.34257948 -0.9249007 -0.16491815
vn -0.34257948 -0.9249007 -0.16491815
vn -0.34257948 -0.9249007 -0.16491815
vn 0 1 0
vn 0 1 0
vn 0 1 0
vn 0 1 0
vn 0 1 0
vn 0 1 0
vn 0 -0.7961919 0.6050442
vn 0 -0.7961919 0.6050442
vn 0 -0.7961919 0.6050442
vn 0.6255893 -0.66253245 -0.4119328
vn 0.6255893 -0.66253245 -0.4119328
vn 0.6255893 -0.66253245 -0.4119328
vn -0.6255893 -0.66253245 -0.4119328
vn -0.6255893 -0.66253245 -0.4119328
vn -0.6255893 -0.66253245 -0.4119328
vn 0 1 0
vn 0 1 0
vn 0 1 0
vn 0 1 0
vn 0 1 0
vn 0 1 0
vn 0 -0.7291362 0.6843686
vn 0 -0.7291362 0.6843686
vn 0 -0.7291362 0.6843686
vn 0 -0.7291362 0.6843686
vn 0 -0.7291362 0.6843686
vn 0 -0.7291362 0.6843686
vn 0 -0.72913635 0.6843684
vn 0 -0.72913635 0.6843684
vn 0 -0.72913635 0.6843684
vn 0 -0.7291363 0.68436843
vn 0 -0.7291363 0.68436843
vn 0 -0.7291363 0.68436843
vn 0 -0.72913635 0.6843684
vn 0 -0.72913635 0.6843684
vn 0 -0.72913635 0.6843684
vn 0 -0.7291362 0.6843686
vn 0 -0.7291362 0.6843686
vn 0 -0.7291362 0.6843686
vn 0 -0.7291362 0.6843686
vn 0 -0.7291362 0.6843686
vn 0 -0.7291362 0.6843686
vn -0 0.9857825 0.16802603
vn -0 0.9857825 0.16802603
vn -0 0.9857825 0.16802603
vn 0 -0.9925512 0.12182854
vn 0 -0.9925512 0.12182854
vn 0 -0.9925512 0.12182854
vn 0 -0.9925512 0.12182855
vn 0 -0.9925512 0.12182855
vn 0 -0.9925512 0.12182855
vn 0 -0.9925512 0.12182855
vn 0 -0.9925512 0.12182855
vn 0 -0.9925512 0.12182855
vn 0 -0.9925512 0.12182854
vn 0 -0.9925512 0.12182854
vn 0 -0.9925512 0.12182854
f 1//1 2//2 3//3
f 4//4 5//5 6//6
f 7//7 8//8 9//9
f 10//10 11//11 12//12
f 13//13 14//14 15//15
f 16//16 17//17 18//18
f 19//19 20//20 21//21
f 22//22 23//23 24//24
f 25//25 26//26 27//27
f 28//28 29//29 30//30
f 31//31 32//32 33//33
f 34//34 35//35 36//36
f 37//37 38//38 39//39
f 40//40 41//41 42//42
f 43//43 44//44 45//45
f 46//46 47//47 48//48
f 49//49 50//50 51//51
f 52//52 53//53 54//54
f 55//55 56//56 57//57
f 58//58 59//59 60//60
f 61//61 62//62 63//63
f 64//64 65//65 66//66
f 67//67 68//68 69//69
f 70//70 71//71 72//72
f 73//73 74//74 75//75
f 76//76 77//77 78//78
f 79//79 80//80 81//81
f 82//82 83//83 84//84
f 85//85 86//86 87//87
f 88//88 89//89 90//90
f 91//91 92//92 93//93
f 94//94 95//95 96//96
f 97//97 98//98 99//99
f 100//100 101//101 102//102
f 103//103 104//104 105//105
f 106//106 107//107 108//108
f 109//109 110//110 111//111
f 112//112 113//113 114//114
f 115//115 116//116 117//117
f 118//118 119//119 120//120
f 121//121 122//122 123//123
f 124//124 125//125 126//126
f 127//127 128//128 129//129
f 130//130 131//131 132//132
f 133//133 134//134 135//135
f 136//136 137//137 138//138
f 139//139 140//140 141//141
f 142//142 143//143 144//144
f 145//145 146//146 147//147
f 148//148 149//149 150//150
f 151//151 152//152 153//153
f 154//154 155//155 156//156
