# Exported from SharpOpenGl procedural mesh
o vesper_dreadnought_mk3_45
# vertices 153
v -1.3343431 0.7792385 -8.137856
v 1.3343431 0.7792385 -8.137856
v 0 1.603005 -6.997631
v -1.3343431 0.7792385 -8.137856
v 0 1.603005 -6.997631
v -1.752132 0.7792385 -5.6040235
v 1.3343431 0.7792385 -8.137856
v 1.752132 0.7792385 -5.6040235
v 0 1.603005 -6.997631
v -1.3343431 0 -8.137856
v -1.752132 0 -5.6040235
v 1.3343431 0 -8.137856
v 1.3343431 0 -8.137856
v -1.752132 0 -5.6040235
v 1.752132 0 -5.6040235
v -1.752132 0.7792385 -5.6040235
v 1.752132 0.7792385 -5.6040235
v 0 1.603005 -4.463799
v -1.752132 0.7792385 -5.6040235
v 0 1.603005 -4.463799
v -2.1063163 0.7792385 -3.0701914
v 1.752132 0.7792385 -5.6040235
v 2.1063163 0.7792385 -3.0701914
v 0 1.603005 -4.463799
v -1.752132 0 -5.6040235
v -2.1063163 0 -3.0701914
v 1.752132 0 -5.6040235
v 1.752132 0 -5.6040235
v -2.1063163 0 -3.0701914
v 2.1063163 0 -3.0701914
v -2.1063163 0.7792385 -3.0701914
v 2.1063163 0.7792385 -3.0701914
v 0 1.603005 -1.9299669
v -2.1063163 0.7792385 -3.0701914
v 0 1.603005 -1.9299669
v -2.342975 0.7792385 -0.5363593
v 2.1063163 0.7792385 -3.0701914
v 2.342975 0.7792385 -0.5363593
v 0 1.603005 -1.9299669
v -2.1063163 0 -3.0701914
v -2.342975 0 -0.5363593
v 2.1063163 0 -3.0701914
v 2.1063163 0 -3.0701914
v -2.342975 0 -0.5363593
v 2.342975 0 -0.5363593
v -2.342975 0.7792385 -0.5363593
v 2.342975 0.7792385 -0.5363593
v 0 1.603005 0.60386515
v -2.342975 0.7792385 -0.5363593
v 0 1.603005 0.60386515
v -2.4260783 0.7792385 1.9974728
v 2.342975 0.7792385 -0.5363593
v 2.4260783 0.7792385 1.9974728
v 0 1.603005 0.60386515
v -2.342975 0 -0.5363593
v -2.4260783 0 1.9974728
v 2.342975 0 -0.5363593
v 2.342975 0 -0.5363593
v -2.4260783 0 1.9974728
v 2.4260783 0 1.9974728
v -2.4260783 0.7792385 1.9974728
v 2.4260783 0.7792385 1.9974728
v 0 1.603005 3.1376972
v -2.4260783 0.7792385 1.9974728
v 0 1.603005 3.1376972
v -2.342975 0.7792385 4.5313053
v 2.4260783 0.7792385 1.9974728
v 2.342975 0.7792385 4.5313053
v 0 1.603005 3.1376972
v -2.4260783 0 1.9974728
v -2.342975 0 4.5313053
v 2.4260783 0 1.9974728
v 2.4260783 0 1.9974728
v -2.342975 0 4.5313053
v 2.342975 0 4.5313053
v -2.342975 0.7792385 4.5313053
v 2.342975 0.7792385 4.5313053
v 0 1.603005 5.67153
v -2.342975 0.7792385 4.5313053
v 0 1.603005 5.67153
v -2.1063163 0.7792385 7.065137
v 2.342975 0.7792385 4.5313053
v 2.1063163 0.7792385 7.065137
v 0 1.603005 5.67153
v -2.342975 0 4.5313053
v -2.1063163 0 7.065137
v 2.342975 0 4.5313053
v 2.342975 0 4.5313053
v -2.1063163 0 7.065137
v 2.1063163 0 7.065137
v -2.1063163 0.7792385 7.065137
v 2.1063163 0.7792385 7.065137
v 0 1.603005 8.205361
v -2.1063163 0.7792385 7.065137
v 0 1.603005 8.205361
v -1.2167583 0.7792385 9.5989685
v 2.1063163 0.7792385 7.065137
v 1.2167583 0.7792385 9.5989685
v 0 1.603005 8.205361
v -2.1063163 0 7.065137
v -1.2167583 0 9.5989685
v 2.1063163 0 7.065137
v 2.1063163 0 7.065137
v -1.2167583 0 9.5989685
v 1.2167583 0 9.5989685
v -1.2167583 0.7792385 9.5989685
v 1.2167583 0.7792385 9.5989685
v 0 1.603005 10.739193
v -1.2167583 0.7792385 9.5989685
v 0 1.603005 10.739193
v -0 0.7792385 12.132801
v 1.2167583 0.7792385 9.5989685
v 0 0.7792385 12.132801
v 0 1.603005 10.739193
v -1.2167583 0 9.5989685
v -0 0 12.132801
v 1.2167583 0 9.5989685
v 1.2167583 0 9.5989685
v -0 0 12.132801
v 0 0 12.132801
v 0 1.7365887 -6.8709393
v -0.19408627 1.3803655 -7.162069
v 0.19408627 1.3803655 -7.162069
v 0 1.7365887 -4.3371077
v -0.19408627 1.3803655 -4.6282372
v 0.19408627 1.3803655 -4.6282372
v 0 1.7365887 -1.8032751
v -0.19408627 1.3803655 -2.0944045
v 0.19408627 1.3803655 -2.0944045
v 0 1.7365887 0.7305565
v -0.19408627 1.3803655 0.4394271
v 0.19408627 1.3803655 0.4394271
v 0 1.7365887 3.264389
v -0.19408627 1.3803655 2.9732597
v 0.19408627 1.3803655 2.9732597
v 0 1.7365887 5.7982206
v -0.19408627 1.3803655 5.507091
v 0.19408627 1.3803655 5.507091
v 0 1.7365887 8.332052
v -0.19408627 1.3803655 8.040923
v 0.19408627 1.3803655 8.040923
v -1.0189528 0.62339085 -2.2194152
v 1.0189528 0.62339085 -2.2194152
v 0 0.93508625 -4.142908
v -1.4640127 0.24737729 -7.9770284
v -2.2169337 0 -9.633454
v -0.7110919 0 -9.633454
v 0 0.24737729 -7.9770284
v -0.75292087 0 -9.633454
v 0.75292087 0 -9.633454
v 1.4640127 0.24737729 -7.9770284
v 0.7110919 0 -9.633454
v 2.2169337 0 -9.633454
vn 0 -0.81058776 0.5856172
vn 0 -0.81058776 0.5856172
vn 0 -0.81058776 0.5856172
vn 0.47445 -0.8767995 0.07822933
vn 0.47445 -0.8767995 0.07822933
vn 0.47445 -0.8767995 0.07822933
vn -0.47445 -0.8767995 0.07822933
vn -0.47445 -0.8767995 0.07822933
vn -0.47445 -0.8767995 0.07822933
vn 0 1 -0
vn 0 1 -0
vn 0 1 -0
vn 0 1 -0
vn 0 1 -0
vn 0 1 -0
vn 0 -0.8105878 0.58561724
vn 0 -0.8105878 0.58561724
vn 0 -0.8105878 0.58561724
vn 0.39515936 -0.9169504 0.05523619
vn 0.39515936 -0.9169504 0.05523619
vn 0.39515936 -0.9169504 0.05523619
vn -0.39515936 -0.9169504 0.05523619
vn -0.39515936 -0.9169504 0.05523619
vn -0.39515936 -0.9169504 0.05523619
vn 0 1 -0
vn 0 1 -0
vn 0 1 -0
vn 0 1 -0
vn 0 1 -0
vn 0 1 -0
vn 0 -0.81058776 0.58561724
vn 0 -0.81058776 0.58561724
vn 0 -0.81058776 0.58561724
vn 0.34869534 -0.9366702 0.032567963
vn 0.34869534 -0.9366702 0.032567963
vn 0.34869534 -0.9366702 0.032567963
vn -0.34869534 -0.9366702 0.032567963
vn -0.34869534 -0.9366702 0.032567963
vn -0.34869534 -0.9366702 0.032567963
vn 0 1 -0
vn 0 1 -0
vn 0 1 -0
vn 0 1 -0
vn 0 1 -0
vn 0 1 -0
vn 0 -0.81058776 0.5856172
vn 0 -0.81058776 0.5856172
vn 0 -0.81058776 0.5856172
vn 0.32701793 -0.9449573 0.010725379
vn 0.32701793 -0.9449573 0.010725379
vn 0.32701793 -0.9449573 0.010725379
vn -0.32701793 -0.9449573 0.010725379
vn -0.32701793 -0.9449573 0.010725379
vn -0.32701793 -0.9449573 0.010725379
vn 0 1 -0
vn 0 1 -0
vn 0 1 -0
vn 0 1 -0
vn 0 1 -0
vn 0 1 -0
vn 0 -0.81058776 0.58561724
vn 0 -0.81058776 0.58561724
vn 0 -0.81058776 0.58561724
vn 0.32600144 -0.94530874 -0.010692038
vn 0.32600144 -0.94530874 -0.010692038
vn 0.32600144 -0.94530874 -0.010692038
vn -0.32600144 -0.94530874 -0.010692038
vn -0.32600144 -0.94530874 -0.010692038
vn -0.32600144 -0.94530874 -0.010692038
vn 0 1 0
vn 0 1 0
vn 0 1 0
vn 0 1 0
vn 0 1 0
vn 0 1 0
vn 0 -0.81058776 0.5856172
vn 0 -0.81058776 0.5856172
vn 0 -0.81058776 0.5856172
vn 0.34545183 -0.93788165 -0.032265022
vn 0.34545183 -0.93788165 -0.032265022
vn 0.34545183 -0.93788165 -0.032265022
vn -0.34545183 -0.93788165 -0.032265022
vn -0.34545183 -0.93788165 -0.032265022
vn -0.34545183 -0.93788165 -0.032265022
vn 0 1 0
vn 0 1 0
vn 0 1 0
vn 0 1 0
vn 0 1 0
vn 0 1 0
vn 0 -0.81058776 0.58561724
vn 0 -0.81058776 0.58561724
vn 0 -0.81058776 0.58561724
vn 0.4298436 -0.89020324 -0.15090618
vn 0.4298436 -0.89020324 -0.15090618
vn 0.4298436 -0.89020324 -0.15090618
vn -0.4298436 -0.89020324 -0.15090618
vn -0.4298436 -0.89020324 -0.15090618
vn -0.4298436 -0.89020324 -0.15090618
vn 0 1 0
vn 0 1 0
vn 0 1 0
vn 0 1 0
vn 0 1 0
vn 0 1 0
vn 0 -0.81058776 0.5856172
vn 0 -0.81058776 0.5856172
vn 0 -0.81058776 0.5856172
vn 0.7272834 -0.5908356 -0.3492449
vn 0.7272834 -0.5908356 -0.3492449
vn 0.7272834 -0.5908356 -0.3492449
vn -0.7272834 -0.5908356 -0.3492449
vn -0.7272834 -0.5908356 -0.3492449
vn -0.7272834 -0.5908356 -0.3492449
vn 0 1 0
vn 0 1 0
vn 0 1 0
vn 0 1 0
vn 0 1 0
vn 0 1 0
vn 0 -0.6328136 0.7743043
vn 0 -0.6328136 0.7743043
vn 0 -0.6328136 0.7743043
vn 0 -0.6328136 0.7743043
vn 0 -0.6328136 0.7743043
vn 0 -0.6328136 0.7743043
vn 0 -0.6328132 0.7743045
vn 0 -0.6328132 0.7743045
vn 0 -0.6328132 0.7743045
vn 0 -0.6328133 0.77430445
vn 0 -0.6328133 0.77430445
vn 0 -0.6328133 0.77430445
vn 0 -0.6328132 0.7743045
vn 0 -0.6328132 0.7743045
vn 0 -0.6328132 0.7743045
vn 0 -0.6328136 0.7743043
vn 0 -0.6328136 0.7743043
vn 0 -0.6328136 0.7743043
vn 0 -0.6328129 0.77430475
vn 0 -0.6328129 0.77430475
vn 0 -0.6328129 0.77430475
vn -0 0.98712355 0.15995997
vn -0 0.98712355 0.15995997
vn -0 0.98712355 0.15995997
vn 0 -0.9890314 0.14770591
vn 0 -0.9890314 0.14770591
vn 0 -0.9890314 0.14770591
vn 0 -0.9890313 0.1477059
vn 0 -0.9890313 0.1477059
vn 0 -0.9890313 0.1477059
vn 0 -0.9890314 0.14770591
vn 0 -0.9890314 0.14770591
vn 0 -0.9890314 0.14770591
f 1//1 2//2 3//3
f 4//4 5//5 6//6
f 7//7 8//8 9//9
f 10//10 11//11 12//12
f 13//13 14//14 15//15
f 16//16 17//17 18//18
f 19//19 20//20 21//21
f 22//22 23//23 24//24
f 25//25 26//26 27//27
f 28//28 29//29 30//30
f 31//31 32//32 33//33
f 34//34 35//35 36//36
f 37//37 38//38 39//39
f 40//40 41//41 42//42
f 43//43 44//44 45//45
f 46//46 47//47 48//48
f 49//49 50//50 51//51
f 52//52 53//53 54//54
f 55//55 56//56 57//57
f 58//58 59//59 60//60
f 61//61 62//62 63//63
f 64//64 65//65 66//66
f 67//67 68//68 69//69
f 70//70 71//71 72//72
f 73//73 74//74 75//75
f 76//76 77//77 78//78
f 79//79 80//80 81//81
f 82//82 83//83 84//84
f 85//85 86//86 87//87
f 88//88 89//89 90//90
f 91//91 92//92 93//93
f 94//94 95//95 96//96
f 97//97 98//98 99//99
f 100//100 101//101 102//102
f 103//103 104//104 105//105
f 106//106 107//107 108//108
f 109//109 110//110 111//111
f 112//112 113//113 114//114
f 115//115 116//116 117//117
f 118//118 119//119 120//120
f 121//121 122//122 123//123
f 124//124 125//125 126//126
f 127//127 128//128 129//129
f 130//130 131//131 132//132
f 133//133 134//134 135//135
f 136//136 137//137 138//138
f 139//139 140//140 141//141
f 142//142 143//143 144//144
f 145//145 146//146 147//147
f 148//148 149//149 150//150
f 151//151 152//152 153//153
