# Exported from SharpOpenGl procedural mesh
o vesper_fighter_mk2_18
# vertices 117
v -0.23927113 0.09301092 -2.033062
v 0.23927113 0.09301092 -2.033062
v 0 0.19133677 -1.653249
v -0.23927113 0.09301092 -2.033062
v 0 0.19133677 -1.653249
v -0.33715478 0.09301092 -1.1890332
v 0.23927113 0.09301092 -2.033062
v 0.33715478 0.09301092 -1.1890332
v 0 0.19133677 -1.653249
v -0.23927113 0 -2.033062
v -0.33715478 0 -1.1890332
v 0.23927113 0 -2.033062
v 0.23927113 0 -2.033062
v -0.33715478 0 -1.1890332
v 0.33715478 0 -1.1890332
v -0.33715478 0.09301092 -1.1890332
v 0.33715478 0.09301092 -1.1890332
v 0 0.19133677 -0.8092202
v -0.33715478 0.09301092 -1.1890332
v 0 0.19133677 -0.8092202
v -0.4088106 0.09301092 -0.34500432
v 0.33715478 0.09301092 -1.1890332
v 0.4088106 0.09301092 -0.34500432
v 0 0.19133677 -0.8092202
v -0.33715478 0 -1.1890332
v -0.4088106 0 -0.34500432
v 0.33715478 0 -1.1890332
v 0.33715478 0 -1.1890332
v -0.4088106 0 -0.34500432
v 0.4088106 0 -0.34500432
v -0.4088106 0.09301092 -0.34500432
v 0.4088106 0.09301092 -0.34500432
v 0 0.19133677 0.034808576
v -0.4088106 0.09301092 -0.34500432
v 0 0.19133677 0.034808576
v -0.43503842 0.09301092 0.4990244
v 0.4088106 0.09301092 -0.34500432
v 0.43503842 0.09301092 0.4990244
v 0 0.19133677 0.034808576
v -0.4088106 0 -0.34500432
v -0.43503842 0 0.4990244
v 0.4088106 0 -0.34500432
v 0.4088106 0 -0.34500432
v -0.43503842 0 0.4990244
v 0.43503842 0 0.4990244
v -0.43503842 0.09301092 0.4990244
v 0.43503842 0.09301092 0.4990244
v 0 0.19133677 0.8788374
v -0.43503842 0.09301092 0.4990244
v 0 0.19133677 0.8788374
v -0.4088106 0.09301092 1.3430533
v 0.43503842 0.09301092 0.4990244
v 0.4088106 0.09301092 1.3430533
v 0 0.19133677 0.8788374
v -0.43503842 0 0.4990244
v -0.4088106 0 1.3430533
v 0.43503842 0 0.4990244
v 0.43503842 0 0.4990244
v -0.4088106 0 1.3430533
v 0.4088106 0 1.3430533
v -0.4088106 0.09301092 1.3430533
v 0.4088106 0.09301092 1.3430533
v 0 0.19133677 1.7228662
v -0.4088106 0.09301092 1.3430533
v 0 0.19133677 1.7228662
v -0.31218037 0.09301092 2.1870818
v 0.4088106 0.09301092 1.3430533
v 0.31218037 0.09301092 2.1870818
v 0 0.19133677 1.7228662
v -0.4088106 0 1.3430533
v -0.31218037 0 2.1870818
v 0.4088106 0 1.3430533
v 0.4088106 0 1.3430533
v -0.31218037 0 2.1870818
v 0.31218037 0 2.1870818
v -0.31218037 0.09301092 2.1870818
v 0.31218037 0.09301092 2.1870818
v 0 0.19133677 2.5668948
v -0.31218037 0.09301092 2.1870818
v 0 0.19133677 2.5668948
v -0 0.09301092 3.0311108
v 0.31218037 0.09301092 2.1870818
v 0 0.09301092 3.0311108
v 0 0.19133677 2.5668948
v -0.31218037 0 2.1870818
v -0 0 3.0311108
v 0.31218037 0 2.1870818
v 0.31218037 0 2.1870818
v -0 0 3.0311108
v 0 0 3.0311108
v 0 0.20728147 -1.6110475
v -0.034803074 0.1647622 -1.6632521
v 0.034803074 0.1647622 -1.6632521
v 0 0.20728147 -0.7670188
v -0.034803074 0.1647622 -0.8192234
v 0.034803074 0.1647622 -0.8192234
v 0 0.20728147 0.07700992
v -0.034803074 0.1647622 0.024805307
v 0.034803074 0.1647622 0.024805307
v 0 0.20728147 0.9210386
v -0.034803074 0.1647622 0.868834
v 0.034803074 0.1647622 0.868834
v 0 0.20728147 1.7650676
v -0.034803074 0.1647622 1.712863
v 0.034803074 0.1647622 1.712863
v -0.18271613 0.07440874 -0.5544715
v 0.18271613 0.07440874 -0.5544715
v 0 0.1116131 -1.0350134
v -0.2625232 0.029527275 -1.992883
v -0.33902997 0 -2.161198
v -0.18601644 0 -2.161198
v 0 0.029527275 -1.992883
v -0.07650676 0 -2.161198
v 0.07650676 0 -2.161198
v 0.2625232 0.029527275 -1.992883
v 0.18601644 0 -2.161198
v 0.33902997 0 -2.161198
vn 0 -0.96808606 0.2506178
vn 0 -0.96808606 0.2506178
vn 0 -0.96808606 0.2506178
vn 0.32762992 -0.9440418 0.03799587
vn 0.32762992 -0.9440418 0.03799587
vn 0.32762992 -0.9440418 0.03799587
vn -0.32762992 -0.9440418 0.03799587
vn -0.32762992 -0.9440418 0.03799587
vn -0.32762992 -0.9440418 0.03799587
vn 0 0.99999994 -0
vn 0 0.99999994 -0
vn 0 0.99999994 -0
vn 0 1 -0
vn 0 1 -0
vn 0 1 -0
vn 0 -0.96808606 0.2506178
vn 0 -0.96808606 0.2506178
vn 0 -0.96808606 0.2506178
vn 0.25715977 -0.96612227 0.021832183
vn 0.25715977 -0.96612227 0.021832183
vn 0.25715977 -0.96612227 0.021832183
vn -0.25715977 -0.96612227 0.021832183
vn -0.25715977 -0.96612227 0.021832183
vn -0.25715977 -0.96612227 0.021832183
vn 0 1 -0
vn 0 1 -0
vn 0 1 -0
vn 0 0.99999994 -0
vn 0 0.99999994 -0
vn 0 0.99999994 -0
vn 0 -0.9680861 0.25061783
vn 0 -0.9680861 0.25061783
vn 0 -0.9680861 0.25061783
vn 0.22762524 -0.9737231 0.007073357
vn 0.22762524 -0.9737231 0.007073357
vn 0.22762524 -0.9737231 0.007073357
vn -0.22762524 -0.9737231 0.007073357
vn -0.22762524 -0.9737231 0.007073357
vn -0.22762524 -0.9737231 0.007073357
vn 0 1 -0
vn 0 1 -0
vn 0 1 -0
vn 0 1 -0
vn 0 1 -0
vn 0 1 -0
vn 0 -0.96808606 0.25061777
vn 0 -0.96808606 0.25061777
vn 0 -0.96808606 0.25061777
vn 0.22628716 -0.9740353 -0.007031775
vn 0.22628716 -0.9740353 -0.007031775
vn 0.22628716 -0.9740353 -0.007031775
vn -0.22628716 -0.9740353 -0.007031775
vn -0.22628716 -0.9740353 -0.007031775
vn -0.22628716 -0.9740353 -0.007031775
vn 0 1 0
vn 0 1 0
vn 0 1 0
vn 0 1 0
vn 0 1 0
vn 0 1 0
vn 0 -0.96808606 0.25061786
vn 0 -0.96808606 0.25061786
vn 0 -0.96808606 0.25061786
vn 0.25978106 -0.9652094 -0.029741531
vn 0.25978106 -0.9652094 -0.029741531
vn 0.25978106 -0.9652094 -0.029741531
vn -0.25978106 -0.9652094 -0.029741531
vn -0.25978106 -0.9652094 -0.029741531
vn -0.25978106 -0.9652094 -0.029741531
vn 0 1 0
vn 0 1 0
vn 0 1 0
vn 0 1 0
vn 0 1 0
vn 0 1 0
vn 0 -0.968086 0.25061777
vn 0 -0.968086 0.25061777
vn 0 -0.968086 0.25061777
vn 0.48875883 -0.8534838 -0.18077686
vn 0.48875883 -0.8534838 -0.18077686
vn 0.48875883 -0.8534838 -0.18077686
vn -0.48875883 -0.8534838 -0.18077686
vn -0.48875883 -0.8534838 -0.18077686
vn -0.48875883 -0.8534838 -0.18077686
vn 0 1 0
vn 0 1 0
vn 0 1 0
vn 0 1 0
vn 0 1 0
vn 0 1 0
vn 0 -0.7753646 0.6315139
vn 0 -0.7753646 0.6315139
vn 0 -0.7753646 0.6315139
vn 0 -0.7753646 0.6315139
vn 0 -0.7753646 0.6315139
vn 0 -0.7753646 0.6315139
vn 0 -0.7753646 0.6315139
vn 0 -0.7753646 0.6315139
vn 0 -0.7753646 0.6315139
vn 0 -0.7753646 0.6315139
vn 0 -0.7753646 0.6315139
vn 0 -0.7753646 0.6315139
vn 0 -0.7753646 0.6315139
vn 0 -0.7753646 0.6315139
vn 0 -0.7753646 0.6315139
vn -0 0.9970163 0.07719067
vn -0 0.9970163 0.07719067
vn -0 0.9970163 0.07719067
vn 0 -0.9849587 0.17279007
vn 0 -0.9849587 0.17279007
vn 0 -0.9849587 0.17279007
vn 0 -0.9849587 0.17279007
vn 0 -0.9849587 0.17279007
vn 0 -0.9849587 0.17279007
vn 0 -0.9849587 0.17279007
vn 0 -0.9849587 0.17279007
vn 0 -0.9849587 0.17279007
f 1//1 2//2 3//3
f 4//4 5//5 6//6
f 7//7 8//8 9//9
f 10//10 11//11 12//12
f 13//13 14//14 15//15
f 16//16 17//17 18//18
f 19//19 20//20 21//21
f 22//22 23//23 24//24
f 25//25 26//26 27//27
f 28//28 29//29 30//30
f 31//31 32//32 33//33
f 34//34 35//35 36//36
f 37//37 38//38 39//39
f 40//40 41//41 42//42
f 43//43 44//44 45//45
f 46//46 47//47 48//48
f 49//49 50//50 51//51
f 52//52 53//53 54//54
f 55//55 56//56 57//57
f 58//58 59//59 60//60
f 61//61 62//62 63//63
f 64//64 65//65 66//66
f 67//67 68//68 69//69
f 70//70 71//71 72//72
f 73//73 74//74 75//75
f 76//76 77//77 78//78
f 79//79 80//80 81//81
f 82//82 83//83 84//84
f 85//85 86//86 87//87
f 88//88 89//89 90//90
f 91//91 92//92 93//93
f 94//94 95//95 96//96
f 97//97 98//98 99//99
f 100//100 101//101 102//102
f 103//103 104//104 105//105
f 106//106 107//107 108//108
f 109//109 110//110 111//111
f 112//112 113//113 114//114
f 115//115 116//116 117//117
