# Exported from SharpOpenGl procedural mesh
o vesper_interceptor_mk2_19
# vertices 114
v -0.17563063 0.084350325 -2.0321205
v 0.17563063 0.084350325 -2.0321205
v 0 0.17352068 -1.6524835
v -0.17563063 0.084350325 -2.0321205
v 0 0.17352068 -1.6524835
v -0.2474795 0.084350325 -1.1884825
v 0.17563063 0.084350325 -2.0321205
v 0.2474795 0.084350325 -1.1884825
v 0 0.17352068 -1.6524835
v -0.17563063 0 -2.0321205
v -0.2474795 0 -1.1884825
v 0.17563063 0 -2.0321205
v 0.17563063 0 -2.0321205
v -0.2474795 0 -1.1884825
v 0.2474795 0 -1.1884825
v -0.2474795 0.084350325 -1.1884825
v 0.2474795 0.084350325 -1.1884825
v 0 0.17352068 -0.8088455
v -0.2474795 0.084350325 -1.1884825
v 0 0.17352068 -0.8088455
v -0.30007654 0.084350325 -0.3448447
v 0.2474795 0.084350325 -1.1884825
v 0.30007654 0.084350325 -0.3448447
v 0 0.17352068 -0.8088455
v -0.2474795 0 -1.1884825
v -0.30007654 0 -0.3448447
v 0.2474795 0 -1.1884825
v 0.2474795 0 -1.1884825
v -0.30007654 0 -0.3448447
v 0.30007654 0 -0.3448447
v -0.30007654 0.084350325 -0.3448447
v 0.30007654 0.084350325 -0.3448447
v 0 0.17352068 0.034792304
v -0.30007654 0.084350325 -0.3448447
v 0 0.17352068 0.034792304
v -0.3193284 0.084350325 0.49879313
v 0.30007654 0.084350325 -0.3448447
v 0.3193284 0.084350325 0.49879313
v 0 0.17352068 0.034792304
v -0.30007654 0 -0.3448447
v -0.3193284 0 0.49879313
v 0.30007654 0 -0.3448447
v 0.30007654 0 -0.3448447
v -0.3193284 0 0.49879313
v 0.3193284 0 0.49879313
v -0.3193284 0.084350325 0.49879313
v 0.3193284 0.084350325 0.49879313
v 0 0.17352068 0.8784302
v -0.3193284 0.084350325 0.49879313
v 0 0.17352068 0.8784302
v -0.30007654 0.084350325 1.3424311
v 0.3193284 0.084350325 0.49879313
v 0.30007654 0.084350325 1.3424311
v 0 0.17352068 0.8784302
v -0.3193284 0 0.49879313
v -0.30007654 0 1.3424311
v 0.3193284 0 0.49879313
v 0.3193284 0 0.49879313
v -0.30007654 0 1.3424311
v 0.30007654 0 1.3424311
v -0.30007654 0.084350325 1.3424311
v 0.30007654 0.084350325 1.3424311
v 0 0.17352068 1.7220681
v -0.30007654 0.084350325 1.3424311
v 0 0.17352068 1.7220681
v -0.2291477 0.084350325 2.1860688
v 0.30007654 0.084350325 1.3424311
v 0.2291477 0.084350325 2.1860688
v 0 0.17352068 1.7220681
v -0.30007654 0 1.3424311
v -0.2291477 0 2.1860688
v 0.30007654 0 1.3424311
v 0.30007654 0 1.3424311
v -0.2291477 0 2.1860688
v 0.2291477 0 2.1860688
v -0.2291477 0.084350325 2.1860688
v 0.2291477 0.084350325 2.1860688
v 0 0.17352068 2.5657058
v -0.2291477 0.084350325 2.1860688
v 0 0.17352068 2.5657058
v -0 0.084350325 3.0297067
v 0.2291477 0.084350325 2.1860688
v 0 0.084350325 3.0297067
v 0 0.17352068 2.5657058
v -0.2291477 0 2.1860688
v -0 0 3.0297067
v 0.2291477 0 2.1860688
v 0.2291477 0 2.1860688
v -0 0 3.0297067
v 0 0 3.0297067
v 0 0.18798073 -1.6103015
v -0.025546271 0.14942057 -1.6486208
v 0.025546271 0.14942057 -1.6486208
v 0 0.18798073 -0.7666637
v -0.025546271 0.14942057 -0.8049831
v 0.025546271 0.14942057 -0.8049831
v 0 0.18798073 0.07697415
v -0.025546271 0.14942057 0.03865475
v 0.025546271 0.14942057 0.03865475
v 0 0.18798073 0.92061186
v -0.025546271 0.14942057 0.88229245
v 0.025546271 0.14942057 0.88229245
v 0 0.18798073 1.76425
v -0.025546271 0.14942057 1.7259307
v 0.025546271 0.14942057 1.7259307
v -0.13411792 0.06748026 -0.55421466
v 0.13411792 0.06748026 -0.55421466
v 0 0.10122039 -1.034534
v -0.15415853 0.02677788 -1.9919599
v -0.21361968 0 -2.1227744
v -0.094697386 0 -2.1227744
v 0.15415853 0.02677788 -1.9919599
v 0.094697386 0 -2.1227744
v 0.21361968 0 -2.1227744
vn 0 -0.97350633 0.22866029
vn 0 -0.97350633 0.22866029
vn 0 -0.97350633 0.22866029
vn 0.39386004 -0.91855824 0.0335433
vn 0.39386004 -0.91855824 0.0335433
vn 0.39386004 -0.91855824 0.0335433
vn -0.39386004 -0.91855824 0.0335433
vn -0.39386004 -0.91855824 0.0335433
vn -0.39386004 -0.91855824 0.0335433
vn 0 1 -0
vn 0 1 -0
vn 0 1 -0
vn 0 1 -0
vn 0 1 -0
vn 0 1 -0
vn 0 -0.97350633 0.2286603
vn 0 -0.97350633 0.2286603
vn 0 -0.97350633 0.2286603
vn 0.31234327 -0.9497697 0.019473206
vn 0.31234327 -0.9497697 0.019473206
vn 0.31234327 -0.9497697 0.019473206
vn -0.31234327 -0.9497697 0.019473206
vn -0.31234327 -0.9497697 0.019473206
vn -0.31234327 -0.9497697 0.019473206
vn 0 0.99999994 -0
vn 0 0.99999994 -0
vn 0 0.99999994 -0
vn 0 1 -0
vn 0 1 -0
vn 0 1 -0
vn 0 -0.97350633 0.2286603
vn 0 -0.97350633 0.2286603
vn 0 -0.97350633 0.2286603
vn 0.2774733 -0.96071243 0.006331953
vn 0.2774733 -0.96071243 0.006331953
vn 0.2774733 -0.96071243 0.006331953
vn -0.2774733 -0.96071243 0.006331953
vn -0.2774733 -0.96071243 0.006331953
vn -0.2774733 -0.96071243 0.006331953
vn 0 1 -0
vn 0 1 -0
vn 0 1 -0
vn 0 1 -0
vn 0 1 -0
vn 0 1 -0
vn 0 -0.9735063 0.22866024
vn 0 -0.9735063 0.22866024
vn 0 -0.9735063 0.22866024
vn 0.27588513 -0.96117 -0.0062957103
vn 0.27588513 -0.96117 -0.0062957103
vn 0.27588513 -0.96117 -0.0062957103
vn -0.27588513 -0.96117 -0.0062957103
vn -0.27588513 -0.96117 -0.0062957103
vn -0.27588513 -0.96117 -0.0062957103
vn 0 1 0
vn 0 1 0
vn 0 1 0
vn 0 1 0
vn 0 1 0
vn 0 1 0
vn 0 -0.97350633 0.2286603
vn 0 -0.97350633 0.2286603
vn 0 -0.97350633 0.2286603
vn 0.31542936 -0.9485785 -0.026519725
vn 0.31542936 -0.9485785 -0.026519725
vn 0.31542936 -0.9485785 -0.026519725
vn -0.31542936 -0.9485785 -0.026519725
vn -0.31542936 -0.9485785 -0.026519725
vn -0.31542936 -0.9485785 -0.026519725
vn 0 1 0
vn 0 1 0
vn 0 1 0
vn 0 1 0
vn 0 1 0
vn 0 1 0
vn 0 -0.97350633 0.2286603
vn 0 -0.97350633 0.2286603
vn 0 -0.97350633 0.2286603
vn 0.5705992 -0.8064713 -0.15498532
vn 0.5705992 -0.8064713 -0.15498532
vn 0.5705992 -0.8064713 -0.15498532
vn -0.5705992 -0.8064713 -0.15498532
vn -0.5705992 -0.8064713 -0.15498532
vn -0.5705992 -0.8064713 -0.15498532
vn 0 0.99999994 0
vn 0 0.99999994 0
vn 0 0.99999994 0
vn 0 1 0
vn 0 1 0
vn 0 1 0
vn 0 -0.7048886 0.70931816
vn 0 -0.7048886 0.70931816
vn 0 -0.7048886 0.70931816
vn 0 -0.70488906 0.70931756
vn 0 -0.70488906 0.70931756
vn 0 -0.70488906 0.70931756
vn 0 -0.704889 0.7093176
vn 0 -0.704889 0.7093176
vn 0 -0.704889 0.7093176
vn 0 -0.70488906 0.70931756
vn 0 -0.70488906 0.70931756
vn 0 -0.70488906 0.70931756
vn 0 -0.7048886 0.70931816
vn 0 -0.7048886 0.70931816
vn 0 -0.7048886 0.70931816
vn -0 0.99754184 0.07007254
vn -0 0.99754184 0.07007254
vn -0 0.99754184 0.07007254
vn 0 -0.97968495 0.20054273
vn 0 -0.97968495 0.20054273
vn 0 -0.97968495 0.20054273
vn 0 -0.97968495 0.20054273
vn 0 -0.97968495 0.20054273
vn 0 -0.97968495 0.20054273
f 1//1 2//2 3//3
f 4//4 5//5 6//6
f 7//7 8//8 9//9
f 10//10 11//11 12//12
f 13//13 14//14 15//15
f 16//16 17//17 18//18
f 19//19 20//20 21//21
f 22//22 23//23 24//24
f 25//25 26//26 27//27
f 28//28 29//29 30//30
f 31//31 32//32 33//33
f 34//34 35//35 36//36
f 37//37 38//38 39//39
f 40//40 41//41 42//42
f 43//43 44//44 45//45
f 46//46 47//47 48//48
f 49//49 50//50 51//51
f 52//52 53//53 54//54
f 55//55 56//56 57//57
f 58//58 59//59 60//60
f 61//61 62//62 63//63
f 64//64 65//65 66//66
f 67//67 68//68 69//69
f 70//70 71//71 72//72
f 73//73 74//74 75//75
f 76//76 77//77 78//78
f 79//79 80//80 81//81
f 82//82 83//83 84//84
f 85//85 86//86 87//87
f 88//88 89//89 90//90
f 91//91 92//92 93//93
f 94//94 95//95 96//96
f 97//97 98//98 99//99
f 100//100 101//101 102//102
f 103//103 104//104 105//105
f 106//106 107//107 108//108
f 109//109 110//110 111//111
f 112//112 113//113 114//114
