# Exported from SharpOpenGl procedural mesh
o vesper_corvette_mk3_38
# vertices 225
v -0.27328444 0.1452157 -1.8129143
v 0.27328444 0.1452157 -1.8129143
v 0 0.29872945 -1.4235497
v -0.27328444 0.1452157 -1.8129143
v 0 0.29872945 -1.4235497
v -0.40992665 0.1452157 -0.9476597
v 0.27328444 0.1452157 -1.8129143
v 0.40992665 0.1452157 -0.9476597
v 0 0.29872945 -1.4235497
v -0.27328444 0 -1.8129143
v -0.40992665 0 -0.9476597
v 0.27328444 0 -1.8129143
v 0.27328444 0 -1.8129143
v -0.40992665 0 -0.9476597
v 0.40992665 0 -0.9476597
v -0.27328444 0 -1.8129143
v -0.27328444 0.1452157 -1.8129143
v -0.40992665 0.1452157 -0.9476597
v -0.27328444 0 -1.8129143
v -0.40992665 0.1452157 -0.9476597
v -0.40992665 0 -0.9476597
v 0.27328444 0 -1.8129143
v 0.40992665 0.1452157 -0.9476597
v 0.27328444 0.1452157 -1.8129143
v 0.27328444 0 -1.8129143
v 0.40992665 0 -0.9476597
v 0.40992665 0.1452157 -0.9476597
v -0.40992665 0.1452157 -0.9476597
v 0.40992665 0.1452157 -0.9476597
v 0 0.29872945 -0.55829513
v -0.40992665 0.1452157 -0.9476597
v 0 0.29872945 -0.55829513
v -0.50995576 0.1452157 -0.08240509
v 0.40992665 0.1452157 -0.9476597
v 0.50995576 0.1452157 -0.08240509
v 0 0.29872945 -0.55829513
v -0.40992665 0 -0.9476597
v -0.50995576 0 -0.08240509
v 0.40992665 0 -0.9476597
v 0.40992665 0 -0.9476597
v -0.50995576 0 -0.08240509
v 0.50995576 0 -0.08240509
v -0.40992665 0 -0.9476597
v -0.40992665 0.1452157 -0.9476597
v -0.50995576 0.1452157 -0.08240509
v -0.40992665 0 -0.9476597
v -0.50995576 0.1452157 -0.08240509
v -0.50995576 0 -0.08240509
v 0.40992665 0 -0.9476597
v 0.50995576 0.1452157 -0.08240509
v 0.40992665 0.1452157 -0.9476597
v 0.40992665 0 -0.9476597
v 0.50995576 0 -0.08240509
v 0.50995576 0.1452157 -0.08240509
v -0.50995576 0.1452157 -0.08240509
v 0.50995576 0.1452157 -0.08240509
v 0 0.29872945 0.30695942
v -0.50995576 0.1452157 -0.08240509
v 0 0.29872945 0.30695942
v -0.5465689 0.1452157 0.78284943
v 0.50995576 0.1452157 -0.08240509
v 0.5465689 0.1452157 0.78284943
v 0 0.29872945 0.30695942
v -0.50995576 0 -0.08240509
v -0.5465689 0 0.78284943
v 0.50995576 0 -0.08240509
v 0.50995576 0 -0.08240509
v -0.5465689 0 0.78284943
v 0.5465689 0 0.78284943
v -0.50995576 0 -0.08240509
v -0.50995576 0.1452157 -0.08240509
v -0.5465689 0.1452157 0.78284943
v -0.50995576 0 -0.08240509
v -0.5465689 0.1452157 0.78284943
v -0.5465689 0 0.78284943
v 0.50995576 0 -0.08240509
v 0.5465689 0.1452157 0.78284943
v 0.50995576 0.1452157 -0.08240509
v 0.50995576 0 -0.08240509
v 0.5465689 0 0.78284943
v 0.5465689 0.1452157 0.78284943
v -0.5465689 0.1452157 0.78284943
v 0.5465689 0.1452157 0.78284943
v 0 0.29872945 1.172214
v -0.5465689 0.1452157 0.78284943
v 0 0.29872945 1.172214
v -0.5099557 0.1452157 1.6481041
v 0.5465689 0.1452157 0.78284943
v 0.5099557 0.1452157 1.6481041
v 0 0.29872945 1.172214
v -0.5465689 0 0.78284943
v -0.5099557 0 1.6481041
v 0.5465689 0 0.78284943
v 0.5465689 0 0.78284943
v -0.5099557 0 1.6481041
v 0.5099557 0 1.6481041
v -0.5465689 0 0.78284943
v -0.5465689 0.1452157 0.78284943
v -0.5099557 0.1452157 1.6481041
v -0.5465689 0 0.78284943
v -0.5099557 0.1452157 1.6481041
v -0.5099557 0 1.6481041
v 0.5465689 0 0.78284943
v 0.5099557 0.1452157 1.6481041
v 0.5465689 0.1452157 0.78284943
v 0.5465689 0 0.78284943
v 0.5099557 0 1.6481041
v 0.5099557 0.1452157 1.6481041
v -0.5099557 0.1452157 1.6481041
v 0.5099557 0.1452157 1.6481041
v 0 0.29872945 2.0374684
v -0.5099557 0.1452157 1.6481041
v 0 0.29872945 2.0374684
v -0.4099267 0.1452157 2.513358
v 0.5099557 0.1452157 1.6481041
v 0.4099267 0.1452157 2.513358
v 0 0.29872945 2.0374684
v -0.5099557 0 1.6481041
v -0.4099267 0 2.513358
v 0.5099557 0 1.6481041
v 0.5099557 0 1.6481041
v -0.4099267 0 2.513358
v 0.4099267 0 2.513358
v -0.5099557 0 1.6481041
v -0.5099557 0.1452157 1.6481041
v -0.4099267 0.1452157 2.513358
v -0.5099557 0 1.6481041
v -0.4099267 0.1452157 2.513358
v -0.4099267 0 2.513358
v 0.5099557 0 1.6481041
v 0.4099267 0.1452157 2.513358
v 0.5099557 0.1452157 1.6481041
v 0.5099557 0 1.6481041
v 0.4099267 0 2.513358
v 0.4099267 0.1452157 2.513358
v -0.4099267 0.1452157 2.513358
v 0.4099267 0.1452157 2.513358
v 0 0.29872945 2.9027228
v -0.4099267 0.1452157 2.513358
v 0 0.29872945 2.9027228
v -0 0.1452157 3.378613
v 0.4099267 0.1452157 2.513358
v 0 0.1452157 3.378613
v 0 0.29872945 2.9027228
v -0.4099267 0 2.513358
v -0 0 3.378613
v 0.4099267 0 2.513358
v 0.4099267 0 2.513358
v -0 0 3.378613
v 0 0 3.378613
v -0.4099267 0 2.513358
v -0.4099267 0.1452157 2.513358
v -0 0.1452157 3.378613
v -0.4099267 0 2.513358
v -0 0.1452157 3.378613
v -0 0 3.378613
v 0.4099267 0 2.513358
v 0 0.1452157 3.378613
v 0.4099267 0.1452157 2.513358
v 0.4099267 0 2.513358
v 0 0 3.378613
v 0 0.1452157 3.378613
v -0.1992699 0 3.378613
v 0.1992699 0 3.378613
v 0 0.25392005 3.5434234
v -0.1992699 0 -1.8129143
v 0 0.08712943 -1.936522
v 0.1992699 0 -1.8129143
v 0 0.32362354 -1.3802869
v -0.056934264 0.25723925 -1.4599949
v 0.056934264 0.25723925 -1.4599949
v 0 0.32362354 -0.5150324
v -0.056934264 0.25723925 -0.5947404
v 0.056934264 0.25723925 -0.5947404
v 0 0.32362354 0.350222
v -0.056934264 0.25723925 0.270514
v 0.056934264 0.25723925 0.270514
v 0 0.32362354 1.2154766
v -0.056934264 0.25723925 1.1357687
v 0.056934264 0.25723925 1.1357687
v 0 0.32362354 2.0807314
v -0.056934264 0.25723925 2.0010235
v 0.056934264 0.25723925 2.0010235
v -0.2391239 0.11617256 -0.8784393
v 0.2391239 0.11617256 -0.8784393
v 0 0.19915296 -1.3975921
v -0.27485508 0.04485427 -0.5243967
v -0.3926501 0 -0.589184
v -0.15706006 0 -0.589184
v 0.27485508 0.04485427 -0.5243967
v 0.15706006 0 -0.589184
v 0.3926501 0 -0.589184
v -0.18611296 0.028033918 -0.50941396
v 0.18611296 0.028033918 -0.50941396
v 0 0.12334924 -0.39704323
v -0.20770872 0.028033918 0.1198622
v 0.20770872 0.028033918 0.1198622
v 0 0.12334924 0.23223293
v -0.21595755 0.028033918 0.74913824
v 0.21595755 0.028033918 0.74913824
v 0 0.12334924 0.86150897
v -0.20770872 0.028033918 1.3784143
v 0.20770872 0.028033918 1.3784143
v 0 0.12334924 1.490785
v -0.18611296 0.028033918 2.0076904
v 0.18611296 0.028033918 2.0076904
v 0 0.12334924 2.1200612
v 0 0.3083731 -0.049942493
v -0.06871377 0.2354849 -0.21849859
v 0.06871377 0.2354849 -0.21849859
v 0 0.3083731 0.49942553
v -0.06871377 0.2354849 0.33086944
v 0.06871377 0.2354849 0.33086944
v 0 0.3083731 1.0487934
v -0.06871377 0.2354849 0.88023734
v 0.06871377 0.2354849 0.88023734
v 0 0.3083731 1.5981616
v -0.06871377 0.2354849 1.4296055
v 0.06871377 0.2354849 1.4296055
v 0 0.3083731 2.1475291
v -0.06871377 0.2354849 1.978973
v 0.06871377 0.2354849 1.978973
v -0.13742754 0 -1.5919186
v 0.13742754 0 -1.5919186
v 0 0.028033918 -1.7604747
vn 0 -0.9303043 0.36678857
vn 0 -0.9303043 0.36678857
vn 0 -0.9303043 0.36678857
vn 0.4159249 -0.9070238 0.06568344
vn 0.4159249 -0.9070238 0.06568344
vn 0.4159249 -0.9070238 0.06568344
vn -0.4159249 -0.9070238 0.06568344
vn -0.4159249 -0.9070238 0.06568344
vn -0.4159249 -0.9070238 0.06568344
vn 0 0.99999994 -0
vn 0 0.99999994 -0
vn 0 0.99999994 -0
vn 0 1 -0
vn 0 1 -0
vn 0 1 -0
vn 0.9877589 -0 0.15598826
vn 0.9877589 -0 0.15598826
vn 0.9877589 -0 0.15598826
vn 0.9877589 0 0.15598826
vn 0.9877589 0 0.15598826
vn 0.9877589 0 0.15598826
vn -0.9877589 0 0.15598826
vn -0.9877589 0 0.15598826
vn -0.9877589 0 0.15598826
vn -0.9877589 0 0.15598826
vn -0.9877589 0 0.15598826
vn -0.9877589 0 0.15598826
vn 0 -0.93030435 0.3667887
vn 0 -0.93030435 0.3667887
vn 0 -0.93030435 0.3667887
vn 0.31950736 -0.9468637 0.036937147
vn 0.31950736 -0.9468637 0.036937147
vn 0.31950736 -0.9468637 0.036937147
vn -0.31950736 -0.9468637 0.036937147
vn -0.31950736 -0.9468637 0.036937147
vn -0.31950736 -0.9468637 0.036937147
vn 0 1 -0
vn 0 1 -0
vn 0 1 -0
vn 0 1 -0
vn 0 1 -0
vn 0 1 -0
vn 0.9933838 -0 0.11484169
vn 0.9933838 -0 0.11484169
vn 0.9933838 -0 0.11484169
vn 0.9933838 0 0.11484169
vn 0.9933838 0 0.11484169
vn 0.9933838 0 0.11484169
vn -0.9933838 0 0.11484169
vn -0.9933838 0 0.11484169
vn -0.9933838 0 0.11484169
vn -0.9933838 0 0.11484169
vn -0.9933838 0 0.11484169
vn -0.9933838 0 0.11484169
vn 0 -0.9303043 0.3667887
vn 0 -0.9303043 0.3667887
vn 0 -0.9303043 0.3667887
vn 0.2799319 -0.95994675 0.011845274
vn 0.2799319 -0.95994675 0.011845274
vn 0.2799319 -0.95994675 0.011845274
vn -0.2799319 -0.95994675 0.011845274
vn -0.2799319 -0.95994675 0.011845274
vn -0.2799319 -0.95994675 0.011845274
vn 0 1 -0
vn 0 1 -0
vn 0 1 -0
vn 0 1 -0
vn 0 1 -0
vn 0 1 -0
vn 0.9991059 -0 0.04227701
vn 0.9991059 -0 0.04227701
vn 0.9991059 -0 0.04227701
vn 0.9991059 0 0.04227701
vn 0.9991059 0 0.04227701
vn 0.9991059 0 0.04227701
vn -0.9991059 0 0.04227701
vn -0.9991059 0 0.04227701
vn -0.9991059 0 0.04227701
vn -0.9991059 0 0.04227701
vn -0.9991059 0 0.04227701
vn -0.9991059 0 0.04227701
vn 0 -0.9303043 0.36678857
vn 0 -0.9303043 0.36678857
vn 0 -0.9303043 0.36678857
vn 0.2781488 -0.9604659 -0.01176984
vn 0.2781488 -0.9604659 -0.01176984
vn 0.2781488 -0.9604659 -0.01176984
vn -0.2781488 -0.9604659 -0.01176984
vn -0.2781488 -0.9604659 -0.01176984
vn -0.2781488 -0.9604659 -0.01176984
vn 0 1 0
vn 0 1 0
vn 0 1 0
vn 0 1 0
vn 0 1 0
vn 0 1 0
vn 0.9991059 0 -0.04227707
vn 0.9991059 0 -0.04227707
vn 0.9991059 0 -0.04227707
vn 0.9991059 0 -0.04227707
vn 0.9991059 0 -0.04227707
vn 0.9991059 0 -0.04227707
vn -0.9991059 0 -0.04227707
vn -0.9991059 0 -0.04227707
vn -0.9991059 0 -0.04227707
vn -0.9991059 0 -0.04227707
vn -0.9991059 0 -0.04227707
vn -0.9991059 0 -0.04227707
vn 0 -0.9303042 0.36678877
vn 0 -0.9303042 0.36678877
vn 0 -0.9303042 0.36678877
vn 0.31332394 -0.94895524 -0.036222287
vn 0.31332394 -0.94895524 -0.036222287
vn 0.31332394 -0.94895524 -0.036222287
vn -0.31332394 -0.94895524 -0.036222287
vn -0.31332394 -0.94895524 -0.036222287
vn -0.31332394 -0.94895524 -0.036222287
vn 0 1 0
vn 0 1 0
vn 0 1 0
vn 0 1 0
vn 0 1 0
vn 0 1 0
vn 0.9933838 0 -0.11484163
vn 0.9933838 0 -0.11484163
vn 0.9933838 0 -0.11484163
vn 0.9933838 0 -0.11484163
vn 0.9933838 0 -0.11484163
vn 0.9933838 0 -0.11484163
vn -0.9933838 0 -0.11484163
vn -0.9933838 0 -0.11484163
vn -0.9933838 0 -0.11484163
vn -0.9933838 0 -0.11484163
vn -0.9933838 0 -0.11484163
vn -0.9933838 0 -0.11484163
vn 0 -0.93030435 0.3667885
vn 0 -0.93030435 0.3667885
vn 0 -0.93030435 0.3667885
vn 0.54381424 -0.7986789 -0.25763968
vn 0.54381424 -0.7986789 -0.25763968
vn 0.54381424 -0.7986789 -0.25763968
vn -0.54381424 -0.7986789 -0.25763968
vn -0.54381424 -0.7986789 -0.25763968
vn -0.54381424 -0.7986789 -0.25763968
vn 0 1 0
vn 0 1 0
vn 0 1 0
vn 0 1 0
vn 0 1 0
vn 0 1 0
vn 0.9037099 0 -0.4281453
vn 0.9037099 0 -0.4281453
vn 0.9037099 0 -0.4281453
vn 0.9037099 0 -0.4281453
vn 0.9037099 0 -0.4281453
vn 0.9037099 0 -0.4281453
vn -0.9037099 0 -0.4281453
vn -0.9037099 0 -0.4281453
vn -0.9037099 0 -0.4281453
vn -0.9037099 0 -0.4281453
vn -0.9037099 0 -0.4281453
vn -0.9037099 0 -0.4281453
vn 0 -0.54443645 0.83880216
vn 0 -0.54443645 0.83880216
vn 0 -0.54443645 0.83880216
vn 0 -0.8173512 -0.57613975
vn 0 -0.8173512 -0.57613975
vn 0 -0.8173512 -0.57613975
vn 0 -0.7684063 0.6399623
vn 0 -0.7684063 0.6399623
vn 0 -0.7684063 0.6399623
vn 0 -0.7684063 0.6399623
vn 0 -0.7684063 0.6399623
vn 0 -0.7684063 0.6399623
vn 0 -0.7684063 0.6399623
vn 0 -0.7684063 0.6399623
vn 0 -0.7684063 0.6399623
vn 0 -0.7684063 0.6399623
vn 0 -0.7684063 0.6399623
vn 0 -0.7684063 0.6399623
vn 0 -0.76840585 0.63996285
vn 0 -0.76840585 0.63996285
vn 0 -0.76840585 0.63996285
vn -0 0.98746556 0.15783465
vn -0 0.98746556 0.15783465
vn -0 0.98746556 0.15783465
vn 0 -0.822183 0.5692232
vn 0 -0.822183 0.5692232
vn 0 -0.822183 0.5692232
vn 0 -0.822183 0.5692232
vn 0 -0.822183 0.5692232
vn 0 -0.822183 0.5692232
vn 0 -0.762608 0.6468609
vn 0 -0.762608 0.6468609
vn 0 -0.762608 0.6468609
vn 0 -0.76260805 0.6468609
vn 0 -0.76260805 0.6468609
vn 0 -0.76260805 0.6468609
vn 0 -0.762608 0.64686084
vn 0 -0.762608 0.64686084
vn 0 -0.762608 0.64686084
vn 0 -0.76260805 0.6468609
vn 0 -0.76260805 0.6468609
vn 0 -0.76260805 0.6468609
vn 0 -0.762608 0.6468609
vn 0 -0.762608 0.6468609
vn 0 -0.762608 0.6468609
vn 0 -0.91785884 0.39690688
vn 0 -0.91785884 0.39690688
vn 0 -0.91785884 0.39690688
vn 0 -0.91785884 0.39690688
vn 0 -0.91785884 0.39690688
vn 0 -0.91785884 0.39690688
vn 0 -0.91785884 0.39690688
vn 0 -0.91785884 0.39690688
vn 0 -0.91785884 0.39690688
vn 0 -0.91785884 0.39690688
vn 0 -0.91785884 0.39690688
vn 0 -0.91785884 0.39690688
vn 0 -0.91785884 0.39690688
vn 0 -0.91785884 0.39690688
vn 0 -0.91785884 0.39690688
vn -0 0.98644966 0.16406436
vn -0 0.98644966 0.16406436
vn -0 0.98644966 0.16406436
f 1//1 2//2 3//3
f 4//4 5//5 6//6
f 7//7 8//8 9//9
f 10//10 11//11 12//12
f 13//13 14//14 15//15
f 16//16 17//17 18//18
f 19//19 20//20 21//21
f 22//22 23//23 24//24
f 25//25 26//26 27//27
f 28//28 29//29 30//30
f 31//31 32//32 33//33
f 34//34 35//35 36//36
f 37//37 38//38 39//39
f 40//40 41//41 42//42
f 43//43 44//44 45//45
f 46//46 47//47 48//48
f 49//49 50//50 51//51
f 52//52 53//53 54//54
f 55//55 56//56 57//57
f 58//58 59//59 60//60
f 61//61 62//62 63//63
f 64//64 65//65 66//66
f 67//67 68//68 69//69
f 70//70 71//71 72//72
f 73//73 74//74 75//75
f 76//76 77//77 78//78
f 79//79 80//80 81//81
f 82//82 83//83 84//84
f 85//85 86//86 87//87
f 88//88 89//89 90//90
f 91//91 92//92 93//93
f 94//94 95//95 96//96
f 97//97 98//98 99//99
f 100//100 101//101 102//102
f 103//103 104//104 105//105
f 106//106 107//107 108//108
f 109//109 110//110 111//111
f 112//112 113//113 114//114
f 115//115 116//116 117//117
f 118//118 119//119 120//120
f 121//121 122//122 123//123
f 124//124 125//125 126//126
f 127//127 128//128 129//129
f 130//130 131//131 132//132
f 133//133 134//134 135//135
f 136//136 137//137 138//138
f 139//139 140//140 141//141
f 142//142 143//143 144//144
f 145//145 146//146 147//147
f 148//148 149//149 150//150
f 151//151 152//152 153//153
f 154//154 155//155 156//156
f 157//157 158//158 159//159
f 160//160 161//161 162//162
f 163//163 164//164 165//165
f 166//166 167//167 168//168
f 169//169 170//170 171//171
f 172//172 173//173 174//174
f 175//175 176//176 177//177
f 178//178 179//179 180//180
f 181//181 182//182 183//183
f 184//184 185//185 186//186
f 187//187 188//188 189//189
f 190//190 191//191 192//192
f 193//193 194//194 195//195
f 196//196 197//197 198//198
f 199//199 200//200 201//201
f 202//202 203//203 204//204
f 205//205 206//206 207//207
f 208//208 209//209 210//210
f 211//211 212//212 213//213
f 214//214 215//215 216//216
f 217//217 218//218 219//219
f 220//220 221//221 222//222
f 223//223 224//224 225//225
