# Exported from SharpOpenGl procedural mesh
o vesper_cruiser_mk3_43
# vertices 114
v -0.68372065 0.4010421 -5.3743706
v 0.68372065 0.4010421 -5.3743706
v 0 0.82500094 -4.3703403
v -0.68372065 0.4010421 -5.3743706
v 0 0.82500094 -4.3703403
v -0.9634245 0.4010421 -3.1431925
v 0.68372065 0.4010421 -5.3743706
v 0.9634245 0.4010421 -3.1431925
v 0 0.82500094 -4.3703403
v -0.68372065 0 -5.3743706
v -0.9634245 0 -3.1431925
v 0.68372065 0 -5.3743706
v 0.68372065 0 -5.3743706
v -0.9634245 0 -3.1431925
v 0.9634245 0 -3.1431925
v -0.9634245 0.4010421 -3.1431925
v 0.9634245 0.4010421 -3.1431925
v 0 0.82500094 -2.1391625
v -0.9634245 0.4010421 -3.1431925
v 0 0.82500094 -2.1391625
v -1.168182 0.4010421 -0.9120145
v 0.9634245 0.4010421 -3.1431925
v 1.168182 0.4010421 -0.9120145
v 0 0.82500094 -2.1391625
v -0.9634245 0 -3.1431925
v -1.168182 0 -0.9120145
v 0.9634245 0 -3.1431925
v 0.9634245 0 -3.1431925
v -1.168182 0 -0.9120145
v 1.168182 0 -0.9120145
v -1.168182 0.4010421 -0.9120145
v 1.168182 0.4010421 -0.9120145
v 0 0.82500094 0.092015505
v -1.168182 0.4010421 -0.9120145
v 0 0.82500094 0.092015505
v -1.2431284 0.4010421 1.3191633
v 1.168182 0.4010421 -0.9120145
v 1.2431284 0.4010421 1.3191633
v 0 0.82500094 0.092015505
v -1.168182 0 -0.9120145
v -1.2431284 0 1.3191633
v 1.168182 0 -0.9120145
v 1.168182 0 -0.9120145
v -1.2431284 0 1.3191633
v 1.2431284 0 1.3191633
v -1.2431284 0.4010421 1.3191633
v 1.2431284 0.4010421 1.3191633
v 0 0.82500094 2.3231936
v -1.2431284 0.4010421 1.3191633
v 0 0.82500094 2.3231936
v -1.168182 0.4010421 3.5503416
v 1.2431284 0.4010421 1.3191633
v 1.168182 0.4010421 3.5503416
v 0 0.82500094 2.3231936
v -1.2431284 0 1.3191633
v -1.168182 0 3.5503416
v 1.2431284 0 1.3191633
v 1.2431284 0 1.3191633
v -1.168182 0 3.5503416
v 1.168182 0 3.5503416
v -1.168182 0.4010421 3.5503416
v 1.168182 0.4010421 3.5503416
v 0 0.82500094 4.5543714
v -1.168182 0.4010421 3.5503416
v 0 0.82500094 4.5543714
v -0.8920598 0.4010421 5.781519
v 1.168182 0.4010421 3.5503416
v 0.8920598 0.4010421 5.781519
v 0 0.82500094 4.5543714
v -1.168182 0 3.5503416
v -0.8920598 0 5.781519
v 1.168182 0 3.5503416
v 1.168182 0 3.5503416
v -0.8920598 0 5.781519
v 0.8920598 0 5.781519
v -0.8920598 0.4010421 5.781519
v 0.8920598 0.4010421 5.781519
v 0 0.82500094 6.785549
v -0.8920598 0.4010421 5.781519
v 0 0.82500094 6.785549
v -0 0.4010421 8.012697
v 0.8920598 0.4010421 5.781519
v 0 0.4010421 8.012697
v 0 0.82500094 6.785549
v -0.8920598 0 5.781519
v -0 0 8.012697
v 0.8920598 0 5.781519
v 0.8920598 0 5.781519
v -0 0 8.012697
v 0 0 8.012697
v 0 0.8937509 -4.2587814
v -0.09945027 0.71041745 -4.407957
v 0.09945027 0.71041745 -4.407957
v 0 0.8937509 -2.0276036
v -0.09945027 0.71041745 -2.176779
v 0.09945027 0.71041745 -2.176779
v 0 0.8937509 0.20357418
v -0.09945027 0.71041745 0.054398775
v 0.09945027 0.71041745 0.054398775
v 0 0.8937509 2.434752
v -0.09945027 0.71041745 2.2855766
v 0.09945027 0.71041745 2.2855766
v 0 0.8937509 4.66593
v -0.09945027 0.71041745 4.516754
v 0.09945027 0.71041745 4.516754
v -0.5221139 0.32083368 -1.4657375
v 0.5221139 0.32083368 -1.4657375
v 0 0.4812505 -2.7360432
v -0.600131 0.12731494 -5.2681575
v -0.9473496 0 -6.0320387
v -0.25291234 0 -6.0320387
v 0.600131 0.12731494 -5.2681575
v 0.25291234 0 -6.0320387
v 0.9473496 0 -6.0320387
vn 0 -0.9212381 0.38899928
vn 0 -0.9212381 0.38899928
vn 0 -0.9212381 0.38899928
vn 0.4631294 -0.884387 0.0580586
vn 0.4631294 -0.884387 0.0580586
vn 0.4631294 -0.884387 0.0580586
vn -0.4631294 -0.884387 0.0580586
vn -0.4631294 -0.884387 0.0580586
vn -0.4631294 -0.884387 0.0580586
vn 0 1 -0
vn 0 1 -0
vn 0 1 -0
vn 0 0.99999994 -0
vn 0 0.99999994 -0
vn 0 0.99999994 -0
vn 0 -0.9212381 0.38899937
vn 0 -0.9212381 0.38899937
vn 0 -0.9212381 0.38899937
vn 0.3724856 -0.9274082 0.034183387
vn 0.3724856 -0.9274082 0.034183387
vn 0.3724856 -0.9274082 0.034183387
vn -0.3724856 -0.9274082 0.034183387
vn -0.3724856 -0.9274082 0.034183387
vn -0.3724856 -0.9274082 0.034183387
vn 0 0.99999994 -0
vn 0 0.99999994 -0
vn 0 0.99999994 -0
vn 0 1 -0
vn 0 1 -0
vn 0 1 -0
vn 0 -0.92123795 0.3889993
vn 0 -0.92123795 0.3889993
vn 0 -0.92123795 0.3889993
vn 0.33262917 -0.94299155 0.011173183
vn 0.33262917 -0.94299155 0.011173183
vn 0.33262917 -0.94299155 0.011173183
vn -0.33262917 -0.94299155 0.011173183
vn -0.33262917 -0.94299155 0.011173183
vn -0.33262917 -0.94299155 0.011173183
vn 0 1 -0
vn 0 1 -0
vn 0 1 -0
vn 0 0.99999994 -0
vn 0 0.99999994 -0
vn 0 0.99999994 -0
vn 0 -0.921238 0.38899925
vn 0 -0.921238 0.38899925
vn 0 -0.921238 0.38899925
vn 0.33079427 -0.9436375 -0.011111547
vn 0.33079427 -0.9436375 -0.011111547
vn 0.33079427 -0.9436375 -0.011111547
vn -0.33079427 -0.9436375 -0.011111547
vn -0.33079427 -0.9436375 -0.011111547
vn -0.33079427 -0.9436375 -0.011111547
vn 0 1 0
vn 0 1 0
vn 0 1 0
vn 0 1 0
vn 0 1 0
vn 0 1 0
vn 0 -0.92123795 0.38899943
vn 0 -0.92123795 0.38899943
vn 0 -0.92123795 0.38899943
vn 0.37586573 -0.92550594 -0.046515748
vn 0.37586573 -0.92550594 -0.046515748
vn 0.37586573 -0.92550594 -0.046515748
vn -0.37586573 -0.92550594 -0.046515748
vn -0.37586573 -0.92550594 -0.046515748
vn -0.37586573 -0.92550594 -0.046515748
vn 0 0.99999994 0
vn 0 0.99999994 0
vn 0 0.99999994 0
vn 0 1 0
vn 0 1 0
vn 0 1 0
vn 0 -0.92123806 0.38899925
vn 0 -0.92123806 0.38899925
vn 0 -0.92123806 0.38899925
vn 0.63256747 -0.7320484 -0.25291032
vn 0.63256747 -0.7320484 -0.25291032
vn 0.63256747 -0.7320484 -0.25291032
vn -0.63256747 -0.7320484 -0.25291032
vn -0.63256747 -0.7320484 -0.25291032
vn -0.63256747 -0.7320484 -0.25291032
vn 0 1 0
vn 0 1 0
vn 0 1 0
vn 0 1 0
vn 0 1 0
vn 0 1 0
vn 0 -0.631146 0.77566403
vn 0 -0.631146 0.77566403
vn 0 -0.631146 0.77566403
vn 0 -0.63114536 0.7756645
vn 0 -0.63114536 0.7756645
vn 0 -0.63114536 0.7756645
vn 0 -0.63114536 0.7756645
vn 0 -0.63114536 0.7756645
vn 0 -0.63114536 0.7756645
vn 0 -0.63114536 0.7756645
vn 0 -0.63114536 0.7756645
vn 0 -0.63114536 0.7756645
vn 0 -0.631146 0.77566403
vn 0 -0.631146 0.77566403
vn 0 -0.631146 0.77566403
vn -0 0.99212056 0.12528701
vn -0 0.99212056 0.12528701
vn -0 0.99212056 0.12528701
vn 0 -0.9863936 0.16440076
vn 0 -0.9863936 0.16440076
vn 0 -0.9863936 0.16440076
vn 0 -0.9863936 0.16440076
vn 0 -0.9863936 0.16440076
vn 0 -0.9863936 0.16440076
f 1//1 2//2 3//3
f 4//4 5//5 6//6
f 7//7 8//8 9//9
f 10//10 11//11 12//12
f 13//13 14//14 15//15
f 16//16 17//17 18//18
f 19//19 20//20 21//21
f 22//22 23//23 24//24
f 25//25 26//26 27//27
f 28//28 29//29 30//30
f 31//31 32//32 33//33
f 34//34 35//35 36//36
f 37//37 38//38 39//39
f 40//40 41//41 42//42
f 43//43 44//44 45//45
f 46//46 47//47 48//48
f 49//49 50//50 51//51
f 52//52 53//53 54//54
f 55//55 56//56 57//57
f 58//58 59//59 60//60
f 61//61 62//62 63//63
f 64//64 65//65 66//66
f 67//67 68//68 69//69
f 70//70 71//71 72//72
f 73//73 74//74 75//75
f 76//76 77//77 78//78
f 79//79 80//80 81//81
f 82//82 83//83 84//84
f 85//85 86//86 87//87
f 88//88 89//89 90//90
f 91//91 92//92 93//93
f 94//94 95//95 96//96
f 97//97 98//98 99//99
f 100//100 101//101 102//102
f 103//103 104//104 105//105
f 106//106 107//107 108//108
f 109//109 110//110 111//111
f 112//112 113//113 114//114
