# Exported from SharpOpenGl procedural mesh
o vesper_scout_mk1_00
# vertices 114
v -0.11679619 0.06593988 -1.5290354
v 0.11679619 0.06593988 -1.5290354
v 0 0.13564777 -1.2433839
v -0.11679619 0.06593988 -1.5290354
v 0 0.13564777 -1.2433839
v -0.16457644 0.06593988 -0.8942541
v 0.11679619 0.06593988 -1.5290354
v 0.16457644 0.06593988 -0.8942541
v 0 0.13564777 -1.2433839
v -0.11679619 0 -1.5290354
v -0.16457644 0 -0.8942541
v 0.11679619 0 -1.5290354
v 0.11679619 0 -1.5290354
v -0.16457644 0 -0.8942541
v 0.16457644 0 -0.8942541
v -0.16457644 0.06593988 -0.8942541
v 0.16457644 0.06593988 -0.8942541
v 0 0.13564777 -0.6086025
v -0.16457644 0.06593988 -0.8942541
v 0 0.13564777 -0.6086025
v -0.19955403 0.06593988 -0.25947273
v 0.16457644 0.06593988 -0.8942541
v 0.19955403 0.06593988 -0.25947273
v 0 0.13564777 -0.6086025
v -0.16457644 0 -0.8942541
v -0.19955403 0 -0.25947273
v 0.16457644 0 -0.8942541
v 0.16457644 0 -0.8942541
v -0.19955403 0 -0.25947273
v 0.19955403 0 -0.25947273
v -0.19955403 0.06593988 -0.25947273
v 0.19955403 0.06593988 -0.25947273
v 0 0.13564777 0.026178867
v -0.19955403 0.06593988 -0.25947273
v 0 0.13564777 0.026178867
v -0.2123567 0.06593988 0.37530863
v 0.19955403 0.06593988 -0.25947273
v 0.2123567 0.06593988 0.37530863
v 0 0.13564777 0.026178867
v -0.19955403 0 -0.25947273
v -0.2123567 0 0.37530863
v 0.19955403 0 -0.25947273
v 0.19955403 0 -0.25947273
v -0.2123567 0 0.37530863
v 0.2123567 0 0.37530863
v -0.2123567 0.06593988 0.37530863
v 0.2123567 0.06593988 0.37530863
v 0 0.13564777 0.6609602
v -0.2123567 0.06593988 0.37530863
v 0 0.13564777 0.6609602
v -0.19955403 0.06593988 1.01009
v 0.2123567 0.06593988 0.37530863
v 0.19955403 0.06593988 1.01009
v 0 0.13564777 0.6609602
v -0.2123567 0 0.37530863
v -0.19955403 0 1.01009
v 0.2123567 0 0.37530863
v 0.2123567 0 0.37530863
v -0.19955403 0 1.01009
v 0.19955403 0 1.01009
v -0.19955403 0.06593988 1.01009
v 0.19955403 0.06593988 1.01009
v 0 0.13564777 1.2957416
v -0.19955403 0.06593988 1.01009
v 0 0.13564777 1.2957416
v -0.1523856 0.06593988 1.6448714
v 0.19955403 0.06593988 1.01009
v 0.1523856 0.06593988 1.6448714
v 0 0.13564777 1.2957416
v -0.19955403 0 1.01009
v -0.1523856 0 1.6448714
v 0.19955403 0 1.01009
v 0.19955403 0 1.01009
v -0.1523856 0 1.6448714
v 0.1523856 0 1.6448714
v -0.1523856 0.06593988 1.6448714
v 0.1523856 0.06593988 1.6448714
v 0 0.13564777 1.9305229
v -0.1523856 0.06593988 1.6448714
v 0 0.13564777 1.9305229
v -0 0.06593988 2.2796526
v 0.1523856 0.06593988 1.6448714
v 0 0.06593988 2.2796526
v 0 0.13564777 1.9305229
v -0.1523856 0 1.6448714
v -0 0 2.2796526
v 0.1523856 0 1.6448714
v 0.1523856 0 1.6448714
v -0 0 2.2796526
v 0 0 2.2796526
v 0 0.14695174 -1.2116448
v -0.016988536 0.116807796 -1.2371275
v 0.016988536 0.116807796 -1.2371275
v 0 0.14695174 -0.5768634
v -0.016988536 0.116807796 -0.6023462
v 0.016988536 0.116807796 -0.6023462
v 0 0.14695174 0.057917953
v -0.016988536 0.116807796 0.03243515
v 0.016988536 0.116807796 0.03243515
v 0 0.14695174 0.6926993
v -0.016988536 0.116807796 0.66721654
v 0.016988536 0.116807796 0.66721654
v 0 0.14695174 1.3274807
v -0.016988536 0.116807796 1.3019979
v 0.016988536 0.116807796 1.3019979
v -0.08918981 0.05275191 -0.41700968
v 0.08918981 0.05275191 -0.41700968
v 0 0.07912786 -0.778418
v -0.10251703 0.020933297 -1.4988173
v -0.13327214 0 -1.5664786
v -0.07176192 0 -1.5664786
v 0.10251703 0.020933297 -1.4988173
v 0.07176192 0 -1.5664786
v 0.13327214 0 -1.5664786
vn 0 -0.9714915 0.23707423
vn 0 -0.9714915 0.23707423
vn 0 -0.9714915 0.23707423
vn 0.44984198 -0.89246607 0.03385979
vn 0.44984198 -0.89246607 0.03385979
vn 0.44984198 -0.89246607 0.03385979
vn -0.44984198 -0.89246607 0.03385979
vn -0.44984198 -0.89246607 0.03385979
vn -0.44984198 -0.89246607 0.03385979
vn 0 1 -0
vn 0 1 -0
vn 0 1 -0
vn 0 1 -0
vn 0 1 -0
vn 0 1 -0
vn 0 -0.97149163 0.23707427
vn 0 -0.97149163 0.23707427
vn 0 -0.97149163 0.23707427
vn 0.36050913 -0.9325442 0.019864695
vn 0.36050913 -0.9325442 0.019864695
vn 0.36050913 -0.9325442 0.019864695
vn -0.36050913 -0.9325442 0.019864695
vn -0.36050913 -0.9325442 0.019864695
vn -0.36050913 -0.9325442 0.019864695
vn 0 1 -0
vn 0 1 -0
vn 0 1 -0
vn 0 1 -0
vn 0 1 -0
vn 0 1 -0
vn 0 -0.97149146 0.23707421
vn 0 -0.97149146 0.23707421
vn 0 -0.97149146 0.23707421
vn 0.3214855 -0.94689226 0.0064839246
vn 0.3214855 -0.94689226 0.0064839246
vn 0.3214855 -0.94689226 0.0064839246
vn -0.3214855 -0.94689226 0.0064839246
vn -0.3214855 -0.94689226 0.0064839246
vn -0.3214855 -0.94689226 0.0064839246
vn 0 1 -0
vn 0 1 -0
vn 0 1 -0
vn 0 1 -0
vn 0 1 -0
vn 0 1 -0
vn 0 -0.9714915 0.23707424
vn 0 -0.9714915 0.23707424
vn 0 -0.9714915 0.23707424
vn 0.3196975 -0.9474977 -0.0064478638
vn 0.3196975 -0.9474977 -0.0064478638
vn 0.3196975 -0.9474977 -0.0064478638
vn -0.3196975 -0.9474977 -0.0064478638
vn -0.3196975 -0.9474977 -0.0064478638
vn -0.3196975 -0.9474977 -0.0064478638
vn 0 1 0
vn 0 1 0
vn 0 1 0
vn 0 1 0
vn 0 1 0
vn 0 1 0
vn 0 -0.9714915 0.23707423
vn 0 -0.9714915 0.23707423
vn 0 -0.9714915 0.23707423
vn 0.3639368 -0.93103105 -0.027042892
vn 0.3639368 -0.93103105 -0.027042892
vn 0.3639368 -0.93103105 -0.027042892
vn -0.3639368 -0.93103105 -0.027042892
vn -0.3639368 -0.93103105 -0.027042892
vn -0.3639368 -0.93103105 -0.027042892
vn 0 1 0
vn 0 1 0
vn 0 1 0
vn 0 1 0
vn 0 1 0
vn 0 1 0
vn 0 -0.9714916 0.23707426
vn 0 -0.9714916 0.23707426
vn 0 -0.9714916 0.23707426
vn 0.63204694 -0.7599308 -0.15172921
vn 0.63204694 -0.7599308 -0.15172921
vn 0.63204694 -0.7599308 -0.15172921
vn -0.63204694 -0.7599308 -0.15172921
vn -0.63204694 -0.7599308 -0.15172921
vn -0.63204694 -0.7599308 -0.15172921
vn 0 0.99999994 0
vn 0 0.99999994 0
vn 0 0.99999994 0
vn 0 1 0
vn 0 1 0
vn 0 1 0
vn 0 -0.6455932 0.7636815
vn 0 -0.6455932 0.7636815
vn 0 -0.6455932 0.7636815
vn 0 -0.6455932 0.7636815
vn 0 -0.6455932 0.7636815
vn 0 -0.6455932 0.7636815
vn 0 -0.64559364 0.7636811
vn 0 -0.64559364 0.7636811
vn 0 -0.64559364 0.7636811
vn 0 -0.6455932 0.7636815
vn 0 -0.6455932 0.7636815
vn 0 -0.6455932 0.7636815
vn 0 -0.6455932 0.7636815
vn 0 -0.6455932 0.7636815
vn 0 -0.6455932 0.7636815
vn -0 0.9973475 0.07278745
vn -0 0.9973475 0.07278745
vn -0 0.9973475 0.07278745
vn 0 -0.9553237 0.29556152
vn 0 -0.9553237 0.29556152
vn 0 -0.9553237 0.29556152
vn 0 -0.9553237 0.29556152
vn 0 -0.9553237 0.29556152
vn 0 -0.9553237 0.29556152
f 1//1 2//2 3//3
f 4//4 5//5 6//6
f 7//7 8//8 9//9
f 10//10 11//11 12//12
f 13//13 14//14 15//15
f 16//16 17//17 18//18
f 19//19 20//20 21//21
f 22//22 23//23 24//24
f 25//25 26//26 27//27
f 28//28 29//29 30//30
f 31//31 32//32 33//33
f 34//34 35//35 36//36
f 37//37 38//38 39//39
f 40//40 41//41 42//42
f 43//43 44//44 45//45
f 46//46 47//47 48//48
f 49//49 50//50 51//51
f 52//52 53//53 54//54
f 55//55 56//56 57//57
f 58//58 59//59 60//60
f 61//61 62//62 63//63
f 64//64 65//65 66//66
f 67//67 68//68 69//69
f 70//70 71//71 72//72
f 73//73 74//74 75//75
f 76//76 77//77 78//78
f 79//79 80//80 81//81
f 82//82 83//83 84//84
f 85//85 86//86 87//87
f 88//88 89//89 90//90
f 91//91 92//92 93//93
f 94//94 95//95 96//96
f 97//97 98//98 99//99
f 100//100 101//101 102//102
f 103//103 104//104 105//105
f 106//106 107//107 108//108
f 109//109 110//110 111//111
f 112//112 113//113 114//114
