# Exported from SharpOpenGl procedural mesh
o vesper_drone_elite_53
# vertices 225
v -0.13543199 0.061251923 -0.64955854
v 0.13543199 0.061251923 -0.64955854
v 0 0.12600397 -0.5100511
v -0.13543199 0.061251923 -0.64955854
v 0 0.12600397 -0.5100511
v -0.20314799 0.061251923 -0.33954194
v 0.13543199 0.061251923 -0.64955854
v 0.20314799 0.061251923 -0.33954194
v 0 0.12600397 -0.5100511
v -0.13543199 0 -0.64955854
v -0.20314799 0 -0.33954194
v 0.13543199 0 -0.64955854
v 0.13543199 0 -0.64955854
v -0.20314799 0 -0.33954194
v 0.20314799 0 -0.33954194
v -0.13543199 0 -0.64955854
v -0.13543199 0.061251923 -0.64955854
v -0.20314799 0.061251923 -0.33954194
v -0.13543199 0 -0.64955854
v -0.20314799 0.061251923 -0.33954194
v -0.20314799 0 -0.33954194
v 0.13543199 0 -0.64955854
v 0.20314799 0.061251923 -0.33954194
v 0.13543199 0.061251923 -0.64955854
v 0.13543199 0 -0.64955854
v 0.20314799 0 -0.33954194
v 0.20314799 0.061251923 -0.33954194
v -0.20314799 0.061251923 -0.33954194
v 0.20314799 0.061251923 -0.33954194
v 0 0.12600397 -0.20003447
v -0.20314799 0.061251923 -0.33954194
v 0 0.12600397 -0.20003447
v -0.25271955 0.061251923 -0.02952534
v 0.20314799 0.061251923 -0.33954194
v 0.25271955 0.061251923 -0.02952534
v 0 0.12600397 -0.20003447
v -0.20314799 0 -0.33954194
v -0.25271955 0 -0.02952534
v 0.20314799 0 -0.33954194
v 0.20314799 0 -0.33954194
v -0.25271955 0 -0.02952534
v 0.25271955 0 -0.02952534
v -0.20314799 0 -0.33954194
v -0.20314799 0.061251923 -0.33954194
v -0.25271955 0.061251923 -0.02952534
v -0.20314799 0 -0.33954194
v -0.25271955 0.061251923 -0.02952534
v -0.25271955 0 -0.02952534
v 0.20314799 0 -0.33954194
v 0.25271955 0.061251923 -0.02952534
v 0.20314799 0.061251923 -0.33954194
v 0.20314799 0 -0.33954194
v 0.25271955 0 -0.02952534
v 0.25271955 0.061251923 -0.02952534
v -0.25271955 0.061251923 -0.02952534
v 0.25271955 0.061251923 -0.02952534
v 0 0.12600397 0.10998212
v -0.25271955 0.061251923 -0.02952534
v 0 0.12600397 0.10998212
v -0.27086398 0.061251923 0.28049123
v 0.25271955 0.061251923 -0.02952534
v 0.27086398 0.061251923 0.28049123
v 0 0.12600397 0.10998212
v -0.25271955 0 -0.02952534
v -0.27086398 0 0.28049123
v 0.25271955 0 -0.02952534
v 0.25271955 0 -0.02952534
v -0.27086398 0 0.28049123
v 0.27086398 0 0.28049123
v -0.25271955 0 -0.02952534
v -0.25271955 0.061251923 -0.02952534
v -0.27086398 0.061251923 0.28049123
v -0.25271955 0 -0.02952534
v -0.27086398 0.061251923 0.28049123
v -0.27086398 0 0.28049123
v 0.25271955 0 -0.02952534
v 0.27086398 0.061251923 0.28049123
v 0.25271955 0.061251923 -0.02952534
v 0.25271955 0 -0.02952534
v 0.27086398 0 0.28049123
v 0.27086398 0.061251923 0.28049123
v -0.27086398 0.061251923 0.28049123
v 0.27086398 0.061251923 0.28049123
v 0 0.12600397 0.4199987
v -0.27086398 0.061251923 0.28049123
v 0 0.12600397 0.4199987
v -0.25271955 0.061251923 0.59050786
v 0.27086398 0.061251923 0.28049123
v 0.25271955 0.061251923 0.59050786
v 0 0.12600397 0.4199987
v -0.27086398 0 0.28049123
v -0.25271955 0 0.59050786
v 0.27086398 0 0.28049123
v 0.27086398 0 0.28049123
v -0.25271955 0 0.59050786
v 0.25271955 0 0.59050786
v -0.27086398 0 0.28049123
v -0.27086398 0.061251923 0.28049123
v -0.25271955 0.061251923 0.59050786
v -0.27086398 0 0.28049123
v -0.25271955 0.061251923 0.59050786
v -0.25271955 0 0.59050786
v 0.27086398 0 0.28049123
v 0.25271955 0.061251923 0.59050786
v 0.27086398 0.061251923 0.28049123
v 0.27086398 0 0.28049123
v 0.25271955 0 0.59050786
v 0.25271955 0.061251923 0.59050786
v -0.25271955 0.061251923 0.59050786
v 0.25271955 0.061251923 0.59050786
v 0 0.12600397 0.7300153
v -0.25271955 0.061251923 0.59050786
v 0 0.12600397 0.7300153
v -0.203148 0.061251923 0.9005244
v 0.25271955 0.061251923 0.59050786
v 0.203148 0.061251923 0.9005244
v 0 0.12600397 0.7300153
v -0.25271955 0 0.59050786
v -0.203148 0 0.9005244
v 0.25271955 0 0.59050786
v 0.25271955 0 0.59050786
v -0.203148 0 0.9005244
v 0.203148 0 0.9005244
v -0.25271955 0 0.59050786
v -0.25271955 0.061251923 0.59050786
v -0.203148 0.061251923 0.9005244
v -0.25271955 0 0.59050786
v -0.203148 0.061251923 0.9005244
v -0.203148 0 0.9005244
v 0.25271955 0 0.59050786
v 0.203148 0.061251923 0.9005244
v 0.25271955 0.061251923 0.59050786
v 0.25271955 0 0.59050786
v 0.203148 0 0.9005244
v 0.203148 0.061251923 0.9005244
v -0.203148 0.061251923 0.9005244
v 0.203148 0.061251923 0.9005244
v 0 0.12600397 1.0400319
v -0.203148 0.061251923 0.9005244
v 0 0.12600397 1.0400319
v -0 0.061251923 1.210541
v 0.203148 0.061251923 0.9005244
v 0 0.061251923 1.210541
v 0 0.12600397 1.0400319
v -0.203148 0 0.9005244
v -0 0 1.210541
v 0.203148 0 0.9005244
v 0.203148 0 0.9005244
v -0 0 1.210541
v 0 0 1.210541
v -0.203148 0 0.9005244
v -0.203148 0.061251923 0.9005244
v -0 0.061251923 1.210541
v -0.203148 0 0.9005244
v -0 0.061251923 1.210541
v -0 0 1.210541
v 0.203148 0 0.9005244
v 0 0.061251923 1.210541
v 0.203148 0.061251923 0.9005244
v 0.203148 0 0.9005244
v 0 0 1.210541
v 0 0.061251923 1.210541
v -0.0987525 0 1.210541
v 0.0987525 0 1.210541
v 0 0.10710338 1.2695918
v -0.0987525 0 -0.64955854
v 0 0.036751155 -0.69384664
v 0.0987525 0 -0.64955854
v 0 0.13650428 -0.49455023
v -0.028215 0.10850341 -0.53405124
v 0.028215 0.10850341 -0.53405124
v 0 0.13650428 -0.18453366
v -0.028215 0.10850341 -0.22403465
v 0.028215 0.10850341 -0.22403465
v 0 0.13650428 0.12548292
v -0.028215 0.10850341 0.08598192
v 0.028215 0.10850341 0.08598192
v 0 0.13650428 0.43549955
v -0.028215 0.10850341 0.39599854
v 0.028215 0.10850341 0.39599854
v 0 0.13650428 0.74551606
v -0.028215 0.10850341 0.70601505
v 0.028215 0.10850341 0.70601505
v -0.20431551 0.018919513 -0.18788885
v -0.23350345 0 -0.20394221
v -0.17512758 0 -0.20394221
v -0.06810517 0.018919513 -0.18788885
v -0.0972931 0 -0.20394221
v -0.038917236 0 -0.20394221
v 0.06810517 0.018919513 -0.18788885
v 0.038917236 0 -0.20394221
v 0.0972931 0 -0.20394221
v 0.20431551 0.018919513 -0.18788885
v 0.17512758 0 -0.20394221
v 0.23350345 0 -0.20394221
v -0.09223228 0.011824696 -0.1825206
v 0.09223228 0.011824696 -0.1825206
v 0 0.05202866 -0.1422587
v -0.102934524 0.011824696 0.04294601
v 0.102934524 0.011824696 0.04294601
v 0 0.05202866 0.083207905
v -0.10702241 0.011824696 0.26841262
v 0.10702241 0.011824696 0.26841262
v 0 0.05202866 0.3086745
v -0.102934524 0.011824696 0.49387923
v 0.102934524 0.011824696 0.49387923
v 0 0.05202866 0.5341411
v -0.09223228 0.011824696 0.7193458
v 0.09223228 0.011824696 0.7193458
v 0 0.05202866 0.7596077
v 0 0.13007165 -0.017894164
v -0.034052584 0.099327445 -0.078287005
v 0.034052584 0.099327445 -0.078287005
v 0 0.13007165 0.17894177
v -0.034052584 0.099327445 0.11854893
v 0.034052584 0.099327445 0.11854893
v 0 0.13007165 0.37577772
v -0.034052584 0.099327445 0.31538486
v 0.034052584 0.099327445 0.31538486
v 0 0.13007165 0.57261366
v -0.034052584 0.099327445 0.5122208
v 0.034052584 0.099327445 0.5122208
v 0 0.13007165 0.7694496
v -0.034052584 0.099327445 0.70905674
v 0.034052584 0.099327445 0.70905674
vn 0 -0.90705687 0.42100817
vn 0 -0.90705687 0.42100817
vn 0 -0.90705687 0.42100817
vn 0.36244488 -0.9286367 0.07916776
vn 0.36244488 -0.9286367 0.07916776
vn 0.36244488 -0.9286367 0.07916776
vn -0.36244488 -0.9286367 0.07916776
vn -0.36244488 -0.9286367 0.07916776
vn -0.36244488 -0.9286367 0.07916776
vn 0 1 -0
vn 0 1 -0
vn 0 1 -0
vn 0 1 -0
vn 0 1 -0
vn 0 1 -0
vn 0.9769658 -0 0.21339571
vn 0.9769658 -0 0.21339571
vn 0.9769658 -0 0.21339571
vn 0.9769658 0 0.21339571
vn 0.9769658 0 0.21339571
vn 0.9769658 0 0.21339571
vn -0.9769658 0 0.21339571
vn -0.9769658 0 0.21339571
vn -0.9769658 0 0.21339571
vn -0.9769658 0 0.21339571
vn -0.9769658 0 0.21339571
vn -0.9769658 0 0.21339571
vn 0 -0.9070568 0.42100814
vn 0 -0.9070568 0.42100814
vn 0 -0.9070568 0.42100814
vn 0.27577773 -0.9602094 0.044096775
vn 0.27577773 -0.9602094 0.044096775
vn 0.27577773 -0.9602094 0.044096775
vn -0.27577773 -0.9602094 0.044096775
vn -0.27577773 -0.9602094 0.044096775
vn -0.27577773 -0.9602094 0.044096775
vn 0 1 -0
vn 0 1 -0
vn 0 1 -0
vn 0 1 -0
vn 0 1 -0
vn 0 1 -0
vn 0.9874561 -0 0.15789391
vn 0.9874561 -0 0.15789391
vn 0.9874561 -0 0.15789391
vn 0.9874561 0 0.15789391
vn 0.9874561 0 0.15789391
vn 0.9874561 0 0.15789391
vn -0.9874561 0 0.15789391
vn -0.9874561 0 0.15789391
vn -0.9874561 0 0.15789391
vn -0.9874561 0 0.15789391
vn -0.9874561 0 0.15789391
vn -0.9874561 0 0.15789391
vn 0 -0.9070568 0.42100817
vn 0 -0.9070568 0.42100817
vn 0 -0.9070568 0.42100817
vn 0.24086884 -0.9704552 0.0140974
vn 0.24086884 -0.9704552 0.0140974
vn 0.24086884 -0.9704552 0.0140974
vn -0.24086884 -0.9704552 0.0140974
vn -0.24086884 -0.9704552 0.0140974
vn -0.24086884 -0.9704552 0.0140974
vn 0 1 -0
vn 0 1 -0
vn 0 1 -0
vn 0 0.99999994 -0
vn 0 0.99999994 -0
vn 0 0.99999994 -0
vn 0.9982917 -0 0.058427297
vn 0.9982917 -0 0.058427297
vn 0.9982917 -0 0.058427297
vn 0.9982917 0 0.058427297
vn 0.9982917 0 0.058427297
vn 0.9982917 0 0.058427297
vn -0.9982917 0 0.058427297
vn -0.9982917 0 0.058427297
vn -0.9982917 0 0.058427297
vn -0.9982917 0 0.058427297
vn -0.9982917 0 0.058427297
vn -0.9982917 0 0.058427297
vn 0 -0.90705687 0.42100817
vn 0 -0.90705687 0.42100817
vn 0 -0.90705687 0.42100817
vn 0.23930107 -0.9708444 -0.0140056405
vn 0.23930107 -0.9708444 -0.0140056405
vn 0.23930107 -0.9708444 -0.0140056405
vn -0.23930107 -0.9708444 -0.0140056405
vn -0.23930107 -0.9708444 -0.0140056405
vn -0.23930107 -0.9708444 -0.0140056405
vn 0 1 0
vn 0 1 0
vn 0 1 0
vn 0 1 0
vn 0 1 0
vn 0 1 0
vn 0.9982916 0 -0.05842729
vn 0.9982916 0 -0.05842729
vn 0.9982916 0 -0.05842729
vn 0.9982916 0 -0.05842729
vn 0.9982916 0 -0.05842729
vn 0.9982916 0 -0.05842729
vn -0.9982916 0 -0.05842729
vn -0.9982916 0 -0.05842729
vn -0.9982916 0 -0.05842729
vn -0.9982916 0 -0.05842729
vn -0.9982916 0 -0.05842729
vn -0.9982916 0 -0.05842729
vn 0 -0.9070568 0.4210083
vn 0 -0.9070568 0.4210083
vn 0 -0.9070568 0.4210083
vn 0.27029362 -0.96180737 -0.043219864
vn 0.27029362 -0.96180737 -0.043219864
vn 0.27029362 -0.96180737 -0.043219864
vn -0.27029362 -0.96180737 -0.043219864
vn -0.27029362 -0.96180737 -0.043219864
vn -0.27029362 -0.96180737 -0.043219864
vn 0 1 0
vn 0 1 0
vn 0 1 0
vn 0 1 0
vn 0 1 0
vn 0 1 0
vn 0.9874561 0 -0.15789391
vn 0.9874561 0 -0.15789391
vn 0.9874561 0 -0.15789391
vn 0.9874561 0 -0.15789391
vn 0.9874561 0 -0.15789391
vn 0.9874561 0 -0.15789391
vn -0.9874561 0 -0.15789391
vn -0.9874561 0 -0.15789391
vn -0.9874561 0 -0.15789391
vn -0.9874561 0 -0.15789391
vn -0.9874561 0 -0.15789391
vn -0.9874561 0 -0.15789391
vn 0 -0.9070569 0.42100802
vn 0 -0.9070569 0.42100802
vn 0 -0.9070569 0.42100802
vn 0.47636142 -0.8219744 -0.31215063
vn 0.47636142 -0.8219744 -0.31215063
vn 0.47636142 -0.8219744 -0.31215063
vn -0.47636142 -0.8219744 -0.31215063
vn -0.47636142 -0.8219744 -0.31215063
vn -0.47636142 -0.8219744 -0.31215063
vn 0 1 0
vn 0 1 0
vn 0 1 0
vn 0 1 0
vn 0 1 0
vn 0 1 0
vn 0.83641946 0 -0.5480898
vn 0.83641946 0 -0.5480898
vn 0.83641946 0 -0.5480898
vn 0.83641946 0 -0.5480898
vn 0.83641946 0 -0.5480898
vn 0.83641946 0 -0.5480898
vn -0.83641946 0 -0.5480898
vn -0.83641946 0 -0.5480898
vn -0.83641946 0 -0.5480898
vn -0.83641946 0 -0.5480898
vn -0.83641946 0 -0.5480898
vn -0.83641946 0 -0.5480898
vn 0 -0.4828221 0.8757185
vn 0 -0.4828221 0.8757185
vn 0 -0.4828221 0.8757185
vn 0 -0.76954925 -0.6385875
vn 0 -0.76954925 -0.6385875
vn 0 -0.76954925 -0.6385875
vn 0 -0.81582 0.5783059
vn 0 -0.81582 0.5783059
vn 0 -0.81582 0.5783059
vn 0 -0.8158198 0.5783061
vn 0 -0.8158198 0.5783061
vn 0 -0.8158198 0.5783061
vn 0 -0.8158198 0.5783061
vn 0 -0.8158198 0.5783061
vn 0 -0.8158198 0.5783061
vn 0 -0.81582 0.5783059
vn 0 -0.81582 0.5783059
vn 0 -0.81582 0.5783059
vn 0 -0.81582 0.5783059
vn 0 -0.81582 0.5783059
vn 0 -0.81582 0.5783059
vn 0 -0.6469879 0.7625003
vn 0 -0.6469879 0.7625003
vn 0 -0.6469879 0.7625003
vn 0 -0.6469879 0.7625003
vn 0 -0.6469879 0.7625003
vn 0 -0.6469879 0.7625003
vn 0 -0.6469879 0.7625003
vn 0 -0.6469879 0.7625003
vn 0 -0.6469879 0.7625003
vn 0 -0.6469879 0.7625003
vn 0 -0.6469879 0.7625003
vn 0 -0.6469879 0.7625003
vn 0 -0.70761573 0.70659757
vn 0 -0.70761573 0.70659757
vn 0 -0.70761573 0.70659757
vn 0 -0.7076157 0.7065975
vn 0 -0.7076157 0.7065975
vn 0 -0.7076157 0.7065975
vn 0 -0.7076156 0.70659745
vn 0 -0.7076156 0.70659745
vn 0 -0.7076156 0.70659745
vn 0 -0.7076157 0.7065975
vn 0 -0.7076157 0.7065975
vn 0 -0.7076157 0.7065975
vn 0 -0.7076154 0.70659775
vn 0 -0.7076154 0.70659775
vn 0 -0.7076154 0.70659775
vn 0 -0.8911705 0.45366856
vn 0 -0.8911705 0.45366856
vn 0 -0.8911705 0.45366856
vn 0 -0.8911705 0.45366856
vn 0 -0.8911705 0.45366856
vn 0 -0.8911705 0.45366856
vn 0 -0.8911705 0.45366848
vn 0 -0.8911705 0.45366848
vn 0 -0.8911705 0.45366848
vn 0 -0.8911705 0.45366848
vn 0 -0.8911705 0.45366848
vn 0 -0.8911705 0.45366848
vn 0 -0.8911705 0.45366848
vn 0 -0.8911705 0.45366848
vn 0 -0.8911705 0.45366848
f 1//1 2//2 3//3
f 4//4 5//5 6//6
f 7//7 8//8 9//9
f 10//10 11//11 12//12
f 13//13 14//14 15//15
f 16//16 17//17 18//18
f 19//19 20//20 21//21
f 22//22 23//23 24//24
f 25//25 26//26 27//27
f 28//28 29//29 30//30
f 31//31 32//32 33//33
f 34//34 35//35 36//36
f 37//37 38//38 39//39
f 40//40 41//41 42//42
f 43//43 44//44 45//45
f 46//46 47//47 48//48
f 49//49 50//50 51//51
f 52//52 53//53 54//54
f 55//55 56//56 57//57
f 58//58 59//59 60//60
f 61//61 62//62 63//63
f 64//64 65//65 66//66
f 67//67 68//68 69//69
f 70//70 71//71 72//72
f 73//73 74//74 75//75
f 76//76 77//77 78//78
f 79//79 80//80 81//81
f 82//82 83//83 84//84
f 85//85 86//86 87//87
f 88//88 89//89 90//90
f 91//91 92//92 93//93
f 94//94 95//95 96//96
f 97//97 98//98 99//99
f 100//100 101//101 102//102
f 103//103 104//104 105//105
f 106//106 107//107 108//108
f 109//109 110//110 111//111
f 112//112 113//113 114//114
f 115//115 116//116 117//117
f 118//118 119//119 120//120
f 121//121 122//122 123//123
f 124//124 125//125 126//126
f 127//127 128//128 129//129
f 130//130 131//131 132//132
f 133//133 134//134 135//135
f 136//136 137//137 138//138
f 139//139 140//140 141//141
f 142//142 143//143 144//144
f 145//145 146//146 147//147
f 148//148 149//149 150//150
f 151//151 152//152 153//153
f 154//154 155//155 156//156
f 157//157 158//158 159//159
f 160//160 161//161 162//162
f 163//163 164//164 165//165
f 166//166 167//167 168//168
f 169//169 170//170 171//171
f 172//172 173//173 174//174
f 175//175 176//176 177//177
f 178//178 179//179 180//180
f 181//181 182//182 183//183
f 184//184 185//185 186//186
f 187//187 188//188 189//189
f 190//190 191//191 192//192
f 193//193 194//194 195//195
f 196//196 197//197 198//198
f 199//199 200//200 201//201
f 202//202 203//203 204//204
f 205//205 206//206 207//207
f 208//208 209//209 210//210
f 211//211 212//212 213//213
f 214//214 215//215 216//216
f 217//217 218//218 219//219
f 220//220 221//221 222//222
f 223//223 224//224 225//225
