# Exported from SharpOpenGl procedural mesh
o vesper_carrier_mk2_27
# vertices 153
v -0.87010014 0.40314528 -4.029597
v 0.87010014 0.40314528 -4.029597
v 0 0.82932746 -3.4649954
v -0.87010014 0.40314528 -4.029597
v 0 0.82932746 -3.4649954
v -1.1425325 0.40314528 -2.774927
v 0.87010014 0.40314528 -4.029597
v 1.1425325 0.40314528 -2.774927
v 0 0.82932746 -3.4649954
v -0.87010014 0 -4.029597
v -1.1425325 0 -2.774927
v 0.87010014 0 -4.029597
v 0.87010014 0 -4.029597
v -1.1425325 0 -2.774927
v 1.1425325 0 -2.774927
v -1.1425325 0.40314528 -2.774927
v 1.1425325 0.40314528 -2.774927
v 0 0.82932746 -2.2103255
v -1.1425325 0.40314528 -2.774927
v 0 0.82932746 -2.2103255
v -1.3734895 0.40314528 -1.520257
v 1.1425325 0.40314528 -2.774927
v 1.3734895 0.40314528 -1.520257
v 0 0.82932746 -2.2103255
v -1.1425325 0 -2.774927
v -1.3734895 0 -1.520257
v 1.1425325 0 -2.774927
v 1.1425325 0 -2.774927
v -1.3734895 0 -1.520257
v 1.3734895 0 -1.520257
v -1.3734895 0.40314528 -1.520257
v 1.3734895 0.40314528 -1.520257
v 0 0.82932746 -0.9556556
v -1.3734895 0.40314528 -1.520257
v 0 0.82932746 -0.9556556
v -1.5278101 0.40314528 -0.2655871
v 1.3734895 0.40314528 -1.520257
v 1.5278101 0.40314528 -0.2655871
v 0 0.82932746 -0.9556556
v -1.3734895 0 -1.520257
v -1.5278101 0 -0.2655871
v 1.3734895 0 -1.520257
v 1.3734895 0 -1.520257
v -1.5278101 0 -0.2655871
v 1.5278101 0 -0.2655871
v -1.5278101 0.40314528 -0.2655871
v 1.5278101 0.40314528 -0.2655871
v 0 0.82932746 0.29901433
v -1.5278101 0.40314528 -0.2655871
v 0 0.82932746 0.29901433
v -1.5820003 0.40314528 0.9890828
v 1.5278101 0.40314528 -0.2655871
v 1.5820003 0.40314528 0.9890828
v 0 0.82932746 0.29901433
v -1.5278101 0 -0.2655871
v -1.5820003 0 0.9890828
v 1.5278101 0 -0.2655871
v 1.5278101 0 -0.2655871
v -1.5820003 0 0.9890828
v 1.5820003 0 0.9890828
v -1.5820003 0.40314528 0.9890828
v 1.5820003 0.40314528 0.9890828
v 0 0.82932746 1.5536844
v -1.5820003 0.40314528 0.9890828
v 0 0.82932746 1.5536844
v -1.5278101 0.40314528 2.243753
v 1.5820003 0.40314528 0.9890828
v 1.5278101 0.40314528 2.243753
v 0 0.82932746 1.5536844
v -1.5820003 0 0.9890828
v -1.5278101 0 2.243753
v 1.5820003 0 0.9890828
v 1.5820003 0 0.9890828
v -1.5278101 0 2.243753
v 1.5278101 0 2.243753
v -1.5278101 0.40314528 2.243753
v 1.5278101 0.40314528 2.243753
v 0 0.82932746 2.8083544
v -1.5278101 0.40314528 2.243753
v 0 0.82932746 2.8083544
v -1.3734895 0.40314528 3.4984226
v 1.5278101 0.40314528 2.243753
v 1.3734895 0.40314528 3.4984226
v 0 0.82932746 2.8083544
v -1.5278101 0 2.243753
v -1.3734895 0 3.4984226
v 1.5278101 0 2.243753
v 1.5278101 0 2.243753
v -1.3734895 0 3.4984226
v 1.3734895 0 3.4984226
v -1.3734895 0.40314528 3.4984226
v 1.3734895 0.40314528 3.4984226
v 0 0.82932746 4.063024
v -1.3734895 0.40314528 3.4984226
v 0 0.82932746 4.063024
v -0.7934253 0.40314528 4.7530923
v 1.3734895 0.40314528 3.4984226
v 0.7934253 0.40314528 4.7530923
v 0 0.82932746 4.063024
v -1.3734895 0 3.4984226
v -0.7934253 0 4.7530923
v 1.3734895 0 3.4984226
v 1.3734895 0 3.4984226
v -0.7934253 0 4.7530923
v 0.7934253 0 4.7530923
v -0.7934253 0.40314528 4.7530923
v 0.7934253 0.40314528 4.7530923
v 0 0.82932746 5.3176937
v -0.7934253 0.40314528 4.7530923
v 0 0.82932746 5.3176937
v -0 0.40314528 6.0077624
v 0.7934253 0.40314528 4.7530923
v 0 0.40314528 6.0077624
v 0 0.82932746 5.3176937
v -0.7934253 0 4.7530923
v -0 0 6.0077624
v 0.7934253 0 4.7530923
v 0.7934253 0 4.7530923
v -0 0 6.0077624
v 0 0 6.0077624
v 0 0.89843804 -3.4022617
v -0.12656002 0.7141431 -3.5921018
v 0.12656002 0.7141431 -3.5921018
v 0 0.89843804 -2.147592
v -0.12656002 0.7141431 -2.3374321
v 0.12656002 0.7141431 -2.3374321
v 0 0.89843804 -0.8929219
v -0.12656002 0.7141431 -1.082762
v 0.12656002 0.7141431 -1.082762
v 0 0.89843804 0.36174774
v -0.12656002 0.7141431 0.17190771
v 0.12656002 0.7141431 0.17190771
v 0 0.89843804 1.6164179
v -0.12656002 0.7141431 1.4265778
v 0.12656002 0.7141431 1.4265778
v 0 0.89843804 2.8710876
v -0.12656002 0.7141431 2.6812475
v 0.12656002 0.7141431 2.6812475
v 0 0.89843804 4.1257577
v -0.12656002 0.7141431 3.9359176
v 0.12656002 0.7141431 3.9359176
v -0.6644401 0.32251623 -1.098981
v 0.6644401 0.32251623 -1.098981
v 0 0.48377433 -2.0514312
v -0.95465535 0.12798262 -3.9499605
v -1.41289 0 -4.9580765
v -0.49642077 0 -4.9580765
v 0 0.12798262 -3.9499605
v -0.45823458 0 -4.9580765
v 0.45823458 0 -4.9580765
v 0.95465535 0.12798262 -3.9499605
v 0.49642077 0 -4.9580765
v 1.41289 0 -4.9580765
vn 0 -0.79814297 0.602468
vn 0 -0.79814297 0.602468
vn 0 -0.79814297 0.602468
vn 0.39305976 -0.9155435 0.08534689
vn 0.39305976 -0.9155435 0.08534689
vn 0.39305976 -0.9155435 0.08534689
vn -0.39305976 -0.9155435 0.08534689
vn -0.39305976 -0.9155435 0.08534689
vn -0.39305976 -0.9155435 0.08534689
vn 0 1 -0
vn 0 1 -0
vn 0 1 -0
vn 0 1 -0
vn 0 1 -0
vn 0 1 -0
vn 0 -0.798143 0.6024681
vn 0 -0.798143 0.6024681
vn 0 -0.798143 0.6024681
vn 0.32295278 -0.9445461 0.059448473
vn 0.32295278 -0.9445461 0.059448473
vn 0.32295278 -0.9445461 0.059448473
vn -0.32295278 -0.9445461 0.059448473
vn -0.32295278 -0.9445461 0.059448473
vn -0.32295278 -0.9445461 0.059448473
vn 0 1 -0
vn 0 1 -0
vn 0 1 -0
vn 0 1 -0
vn 0 1 -0
vn 0 1 -0
vn 0 -0.79814297 0.6024681
vn 0 -0.79814297 0.6024681
vn 0 -0.79814297 0.6024681
vn 0.28308934 -0.95846134 0.03481913
vn 0.28308934 -0.95846134 0.03481913
vn 0.28308934 -0.95846134 0.03481913
vn -0.28308934 -0.95846134 0.03481913
vn -0.28308934 -0.95846134 0.03481913
vn -0.28308934 -0.95846134 0.03481913
vn 0 1 -0
vn 0 1 -0
vn 0 1 -0
vn 0 1 -0
vn 0 1 -0
vn 0 1 -0
vn 0 -0.79814297 0.6024681
vn 0 -0.79814297 0.6024681
vn 0 -0.79814297 0.6024681
vn 0.26475123 -0.96424884 0.011434808
vn 0.26475123 -0.96424884 0.011434808
vn 0.26475123 -0.96424884 0.011434808
vn -0.26475123 -0.96424884 0.011434808
vn -0.26475123 -0.96424884 0.011434808
vn -0.26475123 -0.96424884 0.011434808
vn 0 1 -0
vn 0 1 -0
vn 0 1 -0
vn 0 1 -0
vn 0 1 -0
vn 0 1 -0
vn 0 -0.7981431 0.602468
vn 0 -0.7981431 0.602468
vn 0 -0.7981431 0.602468
vn 0.2638945 -0.9644841 -0.011397805
vn 0.2638945 -0.9644841 -0.011397805
vn 0.2638945 -0.9644841 -0.011397805
vn -0.2638945 -0.9644841 -0.011397805
vn -0.2638945 -0.9644841 -0.011397805
vn -0.2638945 -0.9644841 -0.011397805
vn 0 1 0
vn 0 1 0
vn 0 1 0
vn 0 0.99999994 0
vn 0 0.99999994 0
vn 0 0.99999994 0
vn 0 -0.79814297 0.6024681
vn 0 -0.79814297 0.6024681
vn 0 -0.79814297 0.6024681
vn 0.28033388 -0.95928305 -0.034480225
vn 0.28033388 -0.95928305 -0.034480225
vn 0.28033388 -0.95928305 -0.034480225
vn -0.28033388 -0.95928305 -0.034480225
vn -0.28033388 -0.95928305 -0.034480225
vn -0.28033388 -0.95928305 -0.034480225
vn 0 1 0
vn 0 1 0
vn 0 1 0
vn 0 1 0
vn 0 1 0
vn 0 1 0
vn 0 -0.79814297 0.6024681
vn 0 -0.79814297 0.6024681
vn 0 -0.79814297 0.6024681
vn 0.35295 -0.9213031 -0.16317734
vn 0.35295 -0.9213031 -0.16317734
vn 0.35295 -0.9213031 -0.16317734
vn -0.35295 -0.9213031 -0.16317734
vn -0.35295 -0.9213031 -0.16317734
vn -0.35295 -0.9213031 -0.16317734
vn 0 1 0
vn 0 1 0
vn 0 1 0
vn 0 1 0
vn 0 1 0
vn 0 1 0
vn 0 -0.798143 0.6024681
vn 0 -0.798143 0.6024681
vn 0 -0.798143 0.6024681
vn 0.6390918 -0.65439016 -0.40414736
vn 0.6390918 -0.65439016 -0.40414736
vn 0.6390918 -0.65439016 -0.40414736
vn -0.6390918 -0.65439016 -0.40414736
vn -0.6390918 -0.65439016 -0.40414736
vn -0.6390918 -0.65439016 -0.40414736
vn 0 1 0
vn 0 1 0
vn 0 1 0
vn 0 1 0
vn 0 1 0
vn 0 1 0
vn 0 -0.71750814 0.6965501
vn 0 -0.71750814 0.6965501
vn 0 -0.71750814 0.6965501
vn 0 -0.71750814 0.6965501
vn 0 -0.71750814 0.6965501
vn 0 -0.71750814 0.6965501
vn 0 -0.71750814 0.6965501
vn 0 -0.71750814 0.6965501
vn 0 -0.71750814 0.6965501
vn 0 -0.7175081 0.69655013
vn 0 -0.7175081 0.69655013
vn 0 -0.7175081 0.69655013
vn 0 -0.71750814 0.6965501
vn 0 -0.71750814 0.6965501
vn 0 -0.71750814 0.6965501
vn 0 -0.71750814 0.6965501
vn 0 -0.71750814 0.6965501
vn 0 -0.71750814 0.6965501
vn 0 -0.71750814 0.6965501
vn 0 -0.71750814 0.6965501
vn 0 -0.71750814 0.6965501
vn -0 0.98596823 0.166933
vn -0 0.98596823 0.166933
vn -0 0.98596823 0.166933
vn 0 -0.99203765 0.12594143
vn 0 -0.99203765 0.12594143
vn 0 -0.99203765 0.12594143
vn 0 -0.9920377 0.12594144
vn 0 -0.9920377 0.12594144
vn 0 -0.9920377 0.12594144
vn 0 -0.99203765 0.12594143
vn 0 -0.99203765 0.12594143
vn 0 -0.99203765 0.12594143
f 1//1 2//2 3//3
f 4//4 5//5 6//6
f 7//7 8//8 9//9
f 10//10 11//11 12//12
f 13//13 14//14 15//15
f 16//16 17//17 18//18
f 19//19 20//20 21//21
f 22//22 23//23 24//24
f 25//25 26//26 27//27
f 28//28 29//29 30//30
f 31//31 32//32 33//33
f 34//34 35//35 36//36
f 37//37 38//38 39//39
f 40//40 41//41 42//42
f 43//43 44//44 45//45
f 46//46 47//47 48//48
f 49//49 50//50 51//51
f 52//52 53//53 54//54
f 55//55 56//56 57//57
f 58//58 59//59 60//60
f 61//61 62//62 63//63
f 64//64 65//65 66//66
f 67//67 68//68 69//69
f 70//70 71//71 72//72
f 73//73 74//74 75//75
f 76//76 77//77 78//78
f 79//79 80//80 81//81
f 82//82 83//83 84//84
f 85//85 86//86 87//87
f 88//88 89//89 90//90
f 91//91 92//92 93//93
f 94//94 95//95 96//96
f 97//97 98//98 99//99
f 100//100 101//101 102//102
f 103//103 104//104 105//105
f 106//106 107//107 108//108
f 109//109 110//110 111//111
f 112//112 113//113 114//114
f 115//115 116//116 117//117
f 118//118 119//119 120//120
f 121//121 122//122 123//123
f 124//124 125//125 126//126
f 127//127 128//128 129//129
f 130//130 131//131 132//132
f 133//133 134//134 135//135
f 136//136 137//137 138//138
f 139//139 140//140 141//141
f 142//142 143//143 144//144
f 145//145 146//146 147//147
f 148//148 149//149 150//150
f 151//151 152//152 153//153
