# Exported from SharpOpenGl procedural mesh
o vesper_transport_mk3_47
# vertices 231
v -0.65724844 0.3146162 -3.164839
v 0.65724844 0.3146162 -3.164839
v 0 0.6472105 -2.485118
v -0.65724844 0.3146162 -3.164839
v 0 0.6472105 -2.485118
v -0.9858726 0.3146162 -1.6543477
v 0.65724844 0.3146162 -3.164839
v 0.9858726 0.3146162 -1.6543477
v 0 0.6472105 -2.485118
v -0.65724844 0 -3.164839
v -0.9858726 0 -1.6543477
v 0.65724844 0 -3.164839
v 0.65724844 0 -3.164839
v -0.9858726 0 -1.6543477
v 0.9858726 0 -1.6543477
v -0.65724844 0 -3.164839
v -0.65724844 0.3146162 -3.164839
v -0.9858726 0.3146162 -1.6543477
v -0.65724844 0 -3.164839
v -0.9858726 0.3146162 -1.6543477
v -0.9858726 0 -1.6543477
v 0.65724844 0 -3.164839
v 0.9858726 0.3146162 -1.6543477
v 0.65724844 0.3146162 -3.164839
v 0.65724844 0 -3.164839
v 0.9858726 0 -1.6543477
v 0.9858726 0.3146162 -1.6543477
v -0.9858726 0.3146162 -1.6543477
v 0.9858726 0.3146162 -1.6543477
v 0 0.6472105 -0.97462654
v -0.9858726 0.3146162 -1.6543477
v 0 0.6472105 -0.97462654
v -1.2264423 0.3146162 -0.14385629
v 0.9858726 0.3146162 -1.6543477
v 1.2264423 0.3146162 -0.14385629
v 0 0.6472105 -0.97462654
v -0.9858726 0 -1.6543477
v -1.2264423 0 -0.14385629
v 0.9858726 0 -1.6543477
v 0.9858726 0 -1.6543477
v -1.2264423 0 -0.14385629
v 1.2264423 0 -0.14385629
v -0.9858726 0 -1.6543477
v -0.9858726 0.3146162 -1.6543477
v -1.2264423 0.3146162 -0.14385629
v -0.9858726 0 -1.6543477
v -1.2264423 0.3146162 -0.14385629
v -1.2264423 0 -0.14385629
v 0.9858726 0 -1.6543477
v 1.2264423 0.3146162 -0.14385629
v 0.9858726 0.3146162 -1.6543477
v 0.9858726 0 -1.6543477
v 1.2264423 0 -0.14385629
v 1.2264423 0.3146162 -0.14385629
v -1.2264423 0.3146162 -0.14385629
v 1.2264423 0.3146162 -0.14385629
v 0 0.6472105 0.53586483
v -1.2264423 0.3146162 -0.14385629
v 0 0.6472105 0.53586483
v -1.3144969 0.3146162 1.3666351
v 1.2264423 0.3146162 -0.14385629
v 1.3144969 0.3146162 1.3666351
v 0 0.6472105 0.53586483
v -1.2264423 0 -0.14385629
v -1.3144969 0 1.3666351
v 1.2264423 0 -0.14385629
v 1.2264423 0 -0.14385629
v -1.3144969 0 1.3666351
v 1.3144969 0 1.3666351
v -1.2264423 0 -0.14385629
v -1.2264423 0.3146162 -0.14385629
v -1.3144969 0.3146162 1.3666351
v -1.2264423 0 -0.14385629
v -1.3144969 0.3146162 1.3666351
v -1.3144969 0 1.3666351
v 1.2264423 0 -0.14385629
v 1.3144969 0.3146162 1.3666351
v 1.2264423 0.3146162 -0.14385629
v 1.2264423 0 -0.14385629
v 1.3144969 0 1.3666351
v 1.3144969 0.3146162 1.3666351
v -1.3144969 0.3146162 1.3666351
v 1.3144969 0.3146162 1.3666351
v 0 0.6472105 2.0463562
v -1.3144969 0.3146162 1.3666351
v 0 0.6472105 2.0463562
v -1.2264422 0.3146162 2.8771265
v 1.3144969 0.3146162 1.3666351
v 1.2264422 0.3146162 2.8771265
v 0 0.6472105 2.0463562
v -1.3144969 0 1.3666351
v -1.2264422 0 2.8771265
v 1.3144969 0 1.3666351
v 1.3144969 0 1.3666351
v -1.2264422 0 2.8771265
v 1.2264422 0 2.8771265
v -1.3144969 0 1.3666351
v -1.3144969 0.3146162 1.3666351
v -1.2264422 0.3146162 2.8771265
v -1.3144969 0 1.3666351
v -1.2264422 0.3146162 2.8771265
v -1.2264422 0 2.8771265
v 1.3144969 0 1.3666351
v 1.2264422 0.3146162 2.8771265
v 1.3144969 0.3146162 1.3666351
v 1.3144969 0 1.3666351
v 1.2264422 0 2.8771265
v 1.2264422 0.3146162 2.8771265
v -1.2264422 0.3146162 2.8771265
v 1.2264422 0.3146162 2.8771265
v 0 0.6472105 3.5568476
v -1.2264422 0.3146162 2.8771265
v 0 0.6472105 3.5568476
v -0.9858727 0.3146162 4.387618
v 1.2264422 0.3146162 2.8771265
v 0.9858727 0.3146162 4.387618
v 0 0.6472105 3.5568476
v -1.2264422 0 2.8771265
v -0.9858727 0 4.387618
v 1.2264422 0 2.8771265
v 1.2264422 0 2.8771265
v -0.9858727 0 4.387618
v 0.9858727 0 4.387618
v -1.2264422 0 2.8771265
v -1.2264422 0.3146162 2.8771265
v -0.9858727 0.3146162 4.387618
v -1.2264422 0 2.8771265
v -0.9858727 0.3146162 4.387618
v -0.9858727 0 4.387618
v 1.2264422 0 2.8771265
v 0.9858727 0.3146162 4.387618
v 1.2264422 0.3146162 2.8771265
v 1.2264422 0 2.8771265
v 0.9858727 0 4.387618
v 0.9858727 0.3146162 4.387618
v -0.9858727 0.3146162 4.387618
v 0.9858727 0.3146162 4.387618
v 0 0.6472105 5.067339
v -0.9858727 0.3146162 4.387618
v 0 0.6472105 5.067339
v -0 0.3146162 5.8981094
v 0.9858727 0.3146162 4.387618
v 0 0.3146162 5.8981094
v 0 0.6472105 5.067339
v -0.9858727 0 4.387618
v -0 0 5.8981094
v 0.9858727 0 4.387618
v 0.9858727 0 4.387618
v -0 0 5.8981094
v 0 0 5.8981094
v -0.9858727 0 4.387618
v -0.9858727 0.3146162 4.387618
v -0 0.3146162 5.8981094
v -0.9858727 0 4.387618
v -0 0.3146162 5.8981094
v -0 0 5.8981094
v 0.9858727 0 4.387618
v 0 0.3146162 5.8981094
v 0.9858727 0.3146162 4.387618
v 0.9858727 0 4.387618
v 0 0 5.8981094
v 0 0.3146162 5.8981094
v -0.47924364 0 5.8981094
v 0.47924364 0 5.8981094
v 0 0.55012894 6.185822
v -0.47924364 0 -3.164839
v 0 0.18876973 -3.3806236
v 0.47924364 0 -3.164839
v 0 0.70114464 -2.4095933
v -0.13692676 0.5573201 -2.6012907
v 0.13692676 0.5573201 -2.6012907
v 0 0.70114464 -0.899102
v -0.13692676 0.5573201 -1.0907995
v 0.13692676 0.5573201 -1.0907995
v 0 0.70114464 0.6113894
v -0.13692676 0.5573201 0.41969192
v 0.13692676 0.5573201 0.41969192
v 0 0.70114464 2.1218808
v -0.13692676 0.5573201 1.9301833
v 0.13692676 0.5573201 1.9301833
v 0 0.70114464 3.6323721
v -0.13692676 0.5573201 3.4406748
v 0.13692676 0.5573201 3.4406748
v -0.5750924 0.25169295 -1.5335083
v 0.5750924 0.25169295 -1.5335083
v 0 0.43147364 -2.4398031
v -0.66102576 0.09717874 -0.9154493
v -0.9726522 0 -1.0868438
v -0.34939936 0 -1.0868438
v 0.66102576 0.09717874 -0.9154493
v 0.34939936 0 -1.0868438
v 0.9726522 0 -1.0868438
v -0.25968868 0.46159902 -0.3269462
v -0.42494512 0.17006281 -0.46859455
v -0.094432235 0.17006281 -0.46859455
v 0.25968868 0.46159902 -0.49220264
v 0.094432235 0.17006281 -0.633851
v 0.42494512 0.17006281 -0.633851
v -0.44760117 0.060736716 -0.8892936
v 0.44760117 0.060736716 -0.8892936
v 0 0.26724154 -0.6931259
v -0.49953893 0.060736716 0.20924568
v 0.49953893 0.060736716 0.20924568
v 0 0.26724154 0.4054134
v -0.51937735 0.060736716 1.3077849
v 0.51937735 0.060736716 1.3077849
v 0 0.26724154 1.5039526
v -0.49953893 0.060736716 2.406324
v 0.49953893 0.060736716 2.406324
v 0 0.26724154 2.6024916
v -0.44760117 0.060736716 3.5048633
v 0.44760117 0.060736716 3.5048633
v 0 0.26724154 3.701031
v 0 0.6681039 -0.08718556
v -0.16525644 0.5101884 -0.38143715
v 0.16525644 0.5101884 -0.38143715
v 0 0.6681039 0.8718567
v -0.16525644 0.5101884 0.5776051
v 0.16525644 0.5101884 0.5776051
v 0 0.6681039 1.8308989
v -0.16525644 0.5101884 1.5366473
v 0.16525644 0.5101884 1.5366473
v 0 0.6681039 2.7899413
v -0.16525644 0.5101884 2.4956896
v 0.16525644 0.5101884 2.4956896
v 0 0.6681039 3.748983
v -0.16525644 0.5101884 3.4547312
v 0.16525644 0.5101884 3.4547312
v -0.33051288 0 -2.7790427
v 0.33051288 0 -2.7790427
v 0 0.060736716 -3.0732942
vn 0 -0.89823514 0.43951535
vn 0 -0.89823514 0.43951535
vn 0 -0.89823514 0.43951535
vn 0.38048986 -0.9210727 0.082779795
vn 0.38048986 -0.9210727 0.082779795
vn 0.38048986 -0.9210727 0.082779795
vn -0.38048986 -0.9210727 0.082779795
vn -0.38048986 -0.9210727 0.082779795
vn -0.38048986 -0.9210727 0.082779795
vn 0 0.99999994 -0
vn 0 0.99999994 -0
vn 0 0.99999994 -0
vn 0 1 -0
vn 0 1 -0
vn 0 1 -0
vn 0.9771419 -0 0.21258809
vn 0.9771419 -0 0.21258809
vn 0.9771419 -0 0.21258809
vn 0.9771419 0 0.21258809
vn 0.9771419 0 0.21258809
vn 0.9771419 0 0.21258809
vn -0.9771419 0 0.21258809
vn -0.9771419 0 0.21258809
vn -0.9771419 0 0.21258809
vn -0.9771419 0 0.21258809
vn -0.9771419 0 0.21258809
vn -0.9771419 0 0.21258809
vn 0 -0.89823514 0.43951532
vn 0 -0.89823514 0.43951532
vn 0 -0.89823514 0.43951532
vn 0.29052874 -0.9557468 0.04627131
vn 0.29052874 -0.9557468 0.04627131
vn 0.29052874 -0.9557468 0.04627131
vn -0.29052874 -0.9557468 0.04627131
vn -0.29052874 -0.9557468 0.04627131
vn -0.29052874 -0.9557468 0.04627131
vn 0 1 -0
vn 0 1 -0
vn 0 1 -0
vn 0 1 -0
vn 0 1 -0
vn 0 1 -0
vn 0.98755354 -0 0.15728356
vn 0.98755354 -0 0.15728356
vn 0.98755354 -0 0.15728356
vn 0.98755354 0 0.15728356
vn 0.98755354 0 0.15728356
vn 0.98755354 0 0.15728356
vn -0.98755354 0 0.15728356
vn -0.98755354 0 0.15728356
vn -0.98755354 0 0.15728356
vn -0.98755354 0 0.15728356
vn -0.98755354 0 0.15728356
vn -0.98755354 0 0.15728356
vn 0 -0.8982351 0.43951532
vn 0 -0.8982351 0.43951532
vn 0 -0.8982351 0.43951532
vn 0.25405017 -0.9670776 0.014809928
vn 0.25405017 -0.9670776 0.014809928
vn 0.25405017 -0.9670776 0.014809928
vn -0.25405017 -0.9670776 0.014809928
vn -0.25405017 -0.9670776 0.014809928
vn -0.25405017 -0.9670776 0.014809928
vn 0 1 -0
vn 0 1 -0
vn 0 1 -0
vn 0 0.99999994 -0
vn 0 0.99999994 -0
vn 0 0.99999994 -0
vn 0.99830514 -0 0.05819649
vn 0.99830514 -0 0.05819649
vn 0.99830514 -0 0.05819649
vn 0.99830514 0 0.05819649
vn 0.99830514 0 0.05819649
vn 0.99830514 0 0.05819649
vn -0.99830514 0 0.05819649
vn -0.99830514 0 0.05819649
vn -0.99830514 0 0.05819649
vn -0.99830514 0 0.05819649
vn -0.99830514 0 0.05819649
vn -0.99830514 0 0.05819649
vn 0 -0.89823514 0.43951535
vn 0 -0.89823514 0.43951535
vn 0 -0.89823514 0.43951535
vn 0.25240803 -0.9675091 -0.014714219
vn 0.25240803 -0.9675091 -0.014714219
vn 0.25240803 -0.9675091 -0.014714219
vn -0.25240803 -0.9675091 -0.014714219
vn -0.25240803 -0.9675091 -0.014714219
vn -0.25240803 -0.9675091 -0.014714219
vn 0 0.99999994 0
vn 0 0.99999994 0
vn 0 0.99999994 0
vn 0 0.99999994 0
vn 0 0.99999994 0
vn 0 0.99999994 0
vn 0.99830514 0 -0.058196567
vn 0.99830514 0 -0.058196567
vn 0.99830514 0 -0.058196567
vn 0.99830514 0 -0.058196567
vn 0.99830514 0 -0.058196567
vn 0.99830514 0 -0.058196567
vn -0.99830514 0 -0.058196567
vn -0.99830514 0 -0.058196567
vn -0.99830514 0 -0.058196567
vn -0.99830514 0 -0.058196567
vn -0.99830514 0 -0.058196567
vn -0.99830514 0 -0.058196567
vn 0 -0.89823514 0.43951535
vn 0 -0.89823514 0.43951535
vn 0 -0.89823514 0.43951535
vn 0.2848033 -0.95751214 -0.045359403
vn 0.2848033 -0.95751214 -0.045359403
vn 0.2848033 -0.95751214 -0.045359403
vn -0.2848033 -0.95751214 -0.045359403
vn -0.2848033 -0.95751214 -0.045359403
vn -0.2848033 -0.95751214 -0.045359403
vn 0 1 0
vn 0 1 0
vn 0 1 0
vn 0 1 0
vn 0 1 0
vn 0 1 0
vn 0.98755354 0 -0.15728343
vn 0.98755354 0 -0.15728343
vn 0.98755354 0 -0.15728343
vn 0.98755354 0 -0.15728343
vn 0.98755354 0 -0.15728343
vn 0.98755354 0 -0.15728343
vn -0.98755354 0 -0.15728343
vn -0.98755354 0 -0.15728343
vn -0.98755354 0 -0.15728343
vn -0.98755354 0 -0.15728343
vn -0.98755354 0 -0.15728343
vn -0.98755354 0 -0.15728343
vn 0 -0.89823496 0.4395154
vn 0 -0.89823496 0.4395154
vn 0 -0.89823496 0.4395154
vn 0.49483797 -0.8067368 -0.32297254
vn 0.49483797 -0.8067368 -0.32297254
vn 0.49483797 -0.8067368 -0.32297254
vn -0.49483797 -0.8067368 -0.32297254
vn -0.49483797 -0.8067368 -0.32297254
vn -0.49483797 -0.8067368 -0.32297254
vn 0 1 0
vn 0 1 0
vn 0 1 0
vn 0 1 0
vn 0 1 0
vn 0 1 0
vn 0.83741534 0 -0.5465671
vn 0.83741534 0 -0.5465671
vn 0.83741534 0 -0.5465671
vn 0.83741534 0 -0.5465671
vn 0.83741534 0 -0.5465671
vn 0.83741534 0 -0.5465671
vn -0.83741534 0 -0.5465671
vn -0.83741534 0 -0.5465671
vn -0.83741534 0 -0.5465671
vn -0.83741534 0 -0.5465671
vn -0.83741534 0 -0.5465671
vn -0.83741534 0 -0.5465671
vn 0 -0.46343783 0.8861294
vn 0 -0.46343783 0.8861294
vn 0 -0.46343783 0.8861294
vn 0 -0.7526489 -0.6584222
vn 0 -0.7526489 -0.6584222
vn 0 -0.7526489 -0.6584222
vn 0 -0.79989684 0.60013753
vn 0 -0.79989684 0.60013753
vn 0 -0.79989684 0.60013753
vn 0 -0.7998971 0.60013735
vn 0 -0.7998971 0.60013735
vn 0 -0.7998971 0.60013735
vn 0 -0.7998971 0.60013735
vn 0 -0.7998971 0.60013735
vn 0 -0.7998971 0.60013735
vn 0 -0.7998971 0.60013735
vn 0 -0.7998971 0.60013735
vn 0 -0.7998971 0.60013735
vn 0 -0.79989684 0.60013753
vn 0 -0.79989684 0.60013753
vn 0 -0.79989684 0.60013753
vn -0 0.9808871 0.1945775
vn -0 0.9808871 0.1945775
vn -0 0.9808871 0.1945775
vn 0 -0.869902 0.49322453
vn 0 -0.869902 0.49322453
vn 0 -0.869902 0.49322453
vn 0 -0.869902 0.49322453
vn 0 -0.869902 0.49322453
vn 0 -0.869902 0.49322453
vn 0 -0.43701646 0.8994536
vn 0 -0.43701646 0.8994536
vn 0 -0.43701646 0.8994536
vn 0 -0.43701646 0.8994536
vn 0 -0.43701646 0.8994536
vn 0 -0.43701646 0.8994536
vn 0 -0.68872756 0.72502023
vn 0 -0.68872756 0.72502023
vn 0 -0.68872756 0.72502023
vn 0 -0.68872756 0.7250203
vn 0 -0.68872756 0.7250203
vn 0 -0.68872756 0.7250203
vn 0 -0.68872756 0.72502023
vn 0 -0.68872756 0.72502023
vn 0 -0.68872756 0.72502023
vn 0 -0.68872756 0.7250203
vn 0 -0.68872756 0.7250203
vn 0 -0.68872756 0.7250203
vn 0 -0.68872756 0.72502023
vn 0 -0.68872756 0.72502023
vn 0 -0.68872756 0.72502023
vn 0 -0.88112986 0.47287437
vn 0 -0.88112986 0.47287437
vn 0 -0.88112986 0.47287437
vn 0 -0.88112986 0.4728744
vn 0 -0.88112986 0.4728744
vn 0 -0.88112986 0.4728744
vn 0 -0.88112986 0.4728744
vn 0 -0.88112986 0.4728744
vn 0 -0.88112986 0.4728744
vn 0 -0.8811299 0.47287425
vn 0 -0.8811299 0.47287425
vn 0 -0.8811299 0.47287425
vn 0 -0.8811299 0.47287425
vn 0 -0.8811299 0.47287425
vn 0 -0.8811299 0.47287425
vn -0 0.9793547 0.20214953
vn -0 0.9793547 0.20214953
vn -0 0.9793547 0.20214953
f 1//1 2//2 3//3
f 4//4 5//5 6//6
f 7//7 8//8 9//9
f 10//10 11//11 12//12
f 13//13 14//14 15//15
f 16//16 17//17 18//18
f 19//19 20//20 21//21
f 22//22 23//23 24//24
f 25//25 26//26 27//27
f 28//28 29//29 30//30
f 31//31 32//32 33//33
f 34//34 35//35 36//36
f 37//37 38//38 39//39
f 40//40 41//41 42//42
f 43//43 44//44 45//45
f 46//46 47//47 48//48
f 49//49 50//50 51//51
f 52//52 53//53 54//54
f 55//55 56//56 57//57
f 58//58 59//59 60//60
f 61//61 62//62 63//63
f 64//64 65//65 66//66
f 67//67 68//68 69//69
f 70//70 71//71 72//72
f 73//73 74//74 75//75
f 76//76 77//77 78//78
f 79//79 80//80 81//81
f 82//82 83//83 84//84
f 85//85 86//86 87//87
f 88//88 89//89 90//90
f 91//91 92//92 93//93
f 94//94 95//95 96//96
f 97//97 98//98 99//99
f 100//100 101//101 102//102
f 103//103 104//104 105//105
f 106//106 107//107 108//108
f 109//109 110//110 111//111
f 112//112 113//113 114//114
f 115//115 116//116 117//117
f 118//118 119//119 120//120
f 121//121 122//122 123//123
f 124//124 125//125 126//126
f 127//127 128//128 129//129
f 130//130 131//131 132//132
f 133//133 134//134 135//135
f 136//136 137//137 138//138
f 139//139 140//140 141//141
f 142//142 143//143 144//144
f 145//145 146//146 147//147
f 148//148 149//149 150//150
f 151//151 152//152 153//153
f 154//154 155//155 156//156
f 157//157 158//158 159//159
f 160//160 161//161 162//162
f 163//163 164//164 165//165
f 166//166 167//167 168//168
f 169//169 170//170 171//171
f 172//172 173//173 174//174
f 175//175 176//176 177//177
f 178//178 179//179 180//180
f 181//181 182//182 183//183
f 184//184 185//185 186//186
f 187//187 188//188 189//189
f 190//190 191//191 192//192
f 193//193 194//194 195//195
f 196//196 197//197 198//198
f 199//199 200//200 201//201
f 202//202 203//203 204//204
f 205//205 206//206 207//207
f 208//208 209//209 210//210
f 211//211 212//212 213//213
f 214//214 215//215 216//216
f 217//217 218//218 219//219
f 220//220 221//221 222//222
f 223//223 224//224 225//225
f 226//226 227//227 228//228
f 229//229 230//230 231//231
