# Exported from SharpOpenGl procedural mesh
o vesper_transport_mk3_47
# vertices 120
v -0.7965451 0.30611306 -4.2622995
v 0.7965451 0.30611306 -4.2622995
v 0 0.6297183 -3.4660244
v -0.7965451 0.30611306 -4.2622995
v 0 0.6297183 -3.4660244
v -1.1224043 0.30611306 -2.4927993
v 0.7965451 0.30611306 -4.2622995
v 1.1224043 0.30611306 -2.4927993
v 0 0.6297183 -3.4660244
v -0.7965451 0 -4.2622995
v -1.1224043 0 -2.4927993
v 0.7965451 0 -4.2622995
v 0.7965451 0 -4.2622995
v -1.1224043 0 -2.4927993
v 1.1224043 0 -2.4927993
v -1.1224043 0.30611306 -2.4927993
v 1.1224043 0.30611306 -2.4927993
v 0 0.6297183 -1.6965244
v -1.1224043 0.30611306 -2.4927993
v 0 0.6297183 -1.6965244
v -1.36095 0.30611306 -0.72329926
v 1.1224043 0.30611306 -2.4927993
v 1.36095 0.30611306 -0.72329926
v 0 0.6297183 -1.6965244
v -1.1224043 0 -2.4927993
v -1.36095 0 -0.72329926
v 1.1224043 0 -2.4927993
v 1.1224043 0 -2.4927993
v -1.36095 0 -0.72329926
v 1.36095 0 -0.72329926
v -1.36095 0.30611306 -0.72329926
v 1.36095 0.30611306 -0.72329926
v 0 0.6297183 0.072975695
v -1.36095 0.30611306 -0.72329926
v 0 0.6297183 0.072975695
v -1.4482638 0.30611306 1.0462008
v 1.36095 0.30611306 -0.72329926
v 1.4482638 0.30611306 1.0462008
v 0 0.6297183 0.072975695
v -1.36095 0 -0.72329926
v -1.4482638 0 1.0462008
v 1.36095 0 -0.72329926
v 1.36095 0 -0.72329926
v -1.4482638 0 1.0462008
v 1.4482638 0 1.0462008
v -1.4482638 0.30611306 1.0462008
v 1.4482638 0.30611306 1.0462008
v 0 0.6297183 1.8424759
v -1.4482638 0.30611306 1.0462008
v 0 0.6297183 1.8424759
v -1.36095 0.30611306 2.815701
v 1.4482638 0.30611306 1.0462008
v 1.36095 0.30611306 2.815701
v 0 0.6297183 1.8424759
v -1.4482638 0 1.0462008
v -1.36095 0 2.815701
v 1.4482638 0 1.0462008
v 1.4482638 0 1.0462008
v -1.36095 0 2.815701
v 1.36095 0 2.815701
v -1.36095 0.30611306 2.815701
v 1.36095 0.30611306 2.815701
v 0 0.6297183 3.6119757
v -1.36095 0.30611306 2.815701
v 0 0.6297183 3.6119757
v -1.0392635 0.30611306 4.5852003
v 1.36095 0.30611306 2.815701
v 1.0392635 0.30611306 4.5852003
v 0 0.6297183 3.6119757
v -1.36095 0 2.815701
v -1.0392635 0 4.5852003
v 1.36095 0 2.815701
v 1.36095 0 2.815701
v -1.0392635 0 4.5852003
v 1.0392635 0 4.5852003
v -1.0392635 0.30611306 4.5852003
v 1.0392635 0.30611306 4.5852003
v 0 0.6297183 5.3814754
v -1.0392635 0.30611306 4.5852003
v 0 0.6297183 5.3814754
v -0 0.30611306 6.354701
v 1.0392635 0.30611306 4.5852003
v 0 0.30611306 6.354701
v 0 0.6297183 5.3814754
v -1.0392635 0 4.5852003
v -0 0 6.354701
v 1.0392635 0 4.5852003
v 1.0392635 0 4.5852003
v -0 0 6.354701
v 0 0 6.354701
v 0 0.6821948 -3.3775494
v -0.115861095 0.5422574 -3.551341
v 0.115861095 0.5422574 -3.551341
v 0 0.6821948 -1.6080494
v -0.115861095 0.5422574 -1.781841
v 0.115861095 0.5422574 -1.781841
v 0 0.6821948 0.16145039
v -0.115861095 0.5422574 -0.012341261
v 0.115861095 0.5422574 -0.012341261
v 0 0.6821948 1.9309506
v -0.115861095 0.5422574 1.757159
v 0.115861095 0.5422574 1.757159
v 0 0.6821948 3.700451
v -0.115861095 0.5422574 3.5266593
v 0.115861095 0.5422574 3.5266593
v -0.60827076 0.24489045 -1.1624454
v 0.60827076 0.24489045 -1.1624454
v 0 0.36733568 -2.169898
v -0.6991619 0.09717874 -4.178065
v -1.0287668 0 -4.9031954
v -0.369557 0 -4.9031954
v 0.6991619 0.09717874 -4.178065
v 0.369557 0 -4.9031954
v 1.0287668 0 -4.9031954
v -0.27467072 0.46159902 -0.3369407
v -0.4494612 0.17006281 -0.4867611
v -0.09988025 0.17006281 -0.4867611
v 0.27467072 0.46159902 -0.51173115
v 0.09988025 0.17006281 -0.66155154
v 0.4494612 0.17006281 -0.66155154
vn 0 -0.9264185 0.3764953
vn 0 -0.9264185 0.3764953
vn 0 -0.9264185 0.3764953
vn 0.32395148 -0.9441909 0.059656724
vn 0.32395148 -0.9441909 0.059656724
vn 0.32395148 -0.9441909 0.059656724
vn -0.32395148 -0.9441909 0.059656724
vn -0.32395148 -0.9441909 0.059656724
vn -0.32395148 -0.9441909 0.059656724
vn 0 0.99999994 -0
vn 0 0.99999994 -0
vn 0 0.99999994 -0
vn 0 0.99999994 -0
vn 0 0.99999994 -0
vn 0 0.99999994 -0
vn 0 -0.9264185 0.37649545
vn 0 -0.9264185 0.37649545
vn 0 -0.9264185 0.37649545
vn 0.25433403 -0.96650845 0.034286674
vn 0.25433403 -0.96650845 0.034286674
vn 0.25433403 -0.96650845 0.034286674
vn -0.25433403 -0.96650845 0.034286674
vn -0.25433403 -0.96650845 0.034286674
vn -0.25433403 -0.96650845 0.034286674
vn 0 0.99999994 -0
vn 0 0.99999994 -0
vn 0 0.99999994 -0
vn 0 0.99999994 -0
vn 0 0.99999994 -0
vn 0 0.99999994 -0
vn 0 -0.9264184 0.37649542
vn 0 -0.9264184 0.37649542
vn 0 -0.9264184 0.37649542
vn 0.22515787 -0.9742589 0.0111101335
vn 0.22515787 -0.9742589 0.0111101335
vn 0.22515787 -0.9742589 0.0111101335
vn -0.22515787 -0.9742589 0.0111101335
vn -0.22515787 -0.9742589 0.0111101335
vn -0.22515787 -0.9742589 0.0111101335
vn 0 1 -0
vn 0 1 -0
vn 0 1 -0
vn 0 1 -0
vn 0 1 -0
vn 0 1 -0
vn 0 -0.92641854 0.37649536
vn 0 -0.92641854 0.37649536
vn 0 -0.92641854 0.37649536
vn 0.22383282 -0.9745649 -0.01104475
vn 0.22383282 -0.9745649 -0.01104475
vn 0.22383282 -0.9745649 -0.01104475
vn -0.22383282 -0.9745649 -0.01104475
vn -0.22383282 -0.9745649 -0.01104475
vn -0.22383282 -0.9745649 -0.01104475
vn 0 1 0
vn 0 1 0
vn 0 1 0
vn 0 0.99999994 0
vn 0 0.99999994 0
vn 0 0.99999994 0
vn 0 -0.9264184 0.3764955
vn 0 -0.9264184 0.3764955
vn 0 -0.9264184 0.3764955
vn 0.25685367 -0.96532166 -0.046694767
vn 0.25685367 -0.96532166 -0.046694767
vn 0.25685367 -0.96532166 -0.046694767
vn -0.25685367 -0.96532166 -0.046694767
vn -0.25685367 -0.96532166 -0.046694767
vn -0.25685367 -0.96532166 -0.046694767
vn 0 1 0
vn 0 1 0
vn 0 1 0
vn 0 1 0
vn 0 1 0
vn 0 1 0
vn 0 -0.9264186 0.37649536
vn 0 -0.9264186 0.37649536
vn 0 -0.9264186 0.37649536
vn 0.47325483 -0.8359261 -0.27795208
vn 0.47325483 -0.8359261 -0.27795208
vn 0.47325483 -0.8359261 -0.27795208
vn -0.47325483 -0.8359261 -0.27795208
vn -0.47325483 -0.8359261 -0.27795208
vn -0.47325483 -0.8359261 -0.27795208
vn 0 1 0
vn 0 1 0
vn 0 1 0
vn 0 1 0
vn 0 1 0
vn 0 1 0
vn 0 -0.7788884 0.6271625
vn 0 -0.7788884 0.6271625
vn 0 -0.7788884 0.6271625
vn 0 -0.7788884 0.6271625
vn 0 -0.7788884 0.6271625
vn 0 -0.7788884 0.6271625
vn 0 -0.7788884 0.6271625
vn 0 -0.7788884 0.6271625
vn 0 -0.7788884 0.6271625
vn 0 -0.7788884 0.6271625
vn 0 -0.7788884 0.6271625
vn 0 -0.7788884 0.6271625
vn 0 -0.7788884 0.6271625
vn 0 -0.7788884 0.6271625
vn 0 -0.7788884 0.6271625
vn -0 0.9926949 0.12065157
vn -0 0.9926949 0.12065157
vn -0 0.9926949 0.12065157
vn 0 -0.99113905 0.13282801
vn 0 -0.99113905 0.13282801
vn 0 -0.99113905 0.13282801
vn 0 -0.99113905 0.13282801
vn 0 -0.99113905 0.13282801
vn 0 -0.99113905 0.13282801
vn 0 -0.45707652 0.88942736
vn 0 -0.45707652 0.88942736
vn 0 -0.45707652 0.88942736
vn 0 -0.45707652 0.88942736
vn 0 -0.45707652 0.88942736
vn 0 -0.45707652 0.88942736
f 1//1 2//2 3//3
f 4//4 5//5 6//6
f 7//7 8//8 9//9
f 10//10 11//11 12//12
f 13//13 14//14 15//15
f 16//16 17//17 18//18
f 19//19 20//20 21//21
f 22//22 23//23 24//24
f 25//25 26//26 27//27
f 28//28 29//29 30//30
f 31//31 32//32 33//33
f 34//34 35//35 36//36
f 37//37 38//38 39//39
f 40//40 41//41 42//42
f 43//43 44//44 45//45
f 46//46 47//47 48//48
f 49//49 50//50 51//51
f 52//52 53//53 54//54
f 55//55 56//56 57//57
f 58//58 59//59 60//60
f 61//61 62//62 63//63
f 64//64 65//65 66//66
f 67//67 68//68 69//69
f 70//70 71//71 72//72
f 73//73 74//74 75//75
f 76//76 77//77 78//78
f 79//79 80//80 81//81
f 82//82 83//83 84//84
f 85//85 86//86 87//87
f 88//88 89//89 90//90
f 91//91 92//92 93//93
f 94//94 95//95 96//96
f 97//97 98//98 99//99
f 100//100 101//101 102//102
f 103//103 104//104 105//105
f 106//106 107//107 108//108
f 109//109 110//110 111//111
f 112//112 113//113 114//114
f 115//115 116//116 117//117
f 118//118 119//119 120//120
