# Exported from SharpOpenGl procedural mesh
o vesper_destroyer_mk3_42
# vertices 117
v -0.55421764 0.29652244 -5.205173
v 0.55421764 0.29652244 -5.205173
v 0 0.60998905 -4.232752
v -0.55421764 0.29652244 -5.205173
v 0 0.60998905 -4.232752
v -0.780943 0.29652244 -3.0442376
v 0.55421764 0.29652244 -5.205173
v 0.780943 0.29652244 -3.0442376
v 0 0.60998905 -4.232752
v -0.55421764 0 -5.205173
v -0.780943 0 -3.0442376
v 0.55421764 0 -5.205173
v 0.55421764 0 -5.205173
v -0.780943 0 -3.0442376
v 0.780943 0 -3.0442376
v -0.780943 0.29652244 -3.0442376
v 0.780943 0.29652244 -3.0442376
v 0 0.60998905 -2.0718167
v -0.780943 0.29652244 -3.0442376
v 0 0.60998905 -2.0718167
v -0.94691753 0.29652244 -0.8833022
v 0.780943 0.29652244 -3.0442376
v 0.94691753 0.29652244 -0.8833022
v 0 0.60998905 -2.0718167
v -0.780943 0 -3.0442376
v -0.94691753 0 -0.8833022
v 0.780943 0 -3.0442376
v 0.780943 0 -3.0442376
v -0.94691753 0 -0.8833022
v 0.94691753 0 -0.8833022
v -0.94691753 0.29652244 -0.8833022
v 0.94691753 0.29652244 -0.8833022
v 0 0.60998905 0.08911872
v -0.94691753 0.29652244 -0.8833022
v 0 0.60998905 0.08911872
v -1.0076684 0.29652244 1.2776332
v 0.94691753 0.29652244 -0.8833022
v 1.0076684 0.29652244 1.2776332
v 0 0.60998905 0.08911872
v -0.94691753 0 -0.8833022
v -1.0076684 0 1.2776332
v 0.94691753 0 -0.8833022
v 0.94691753 0 -0.8833022
v -1.0076684 0 1.2776332
v 1.0076684 0 1.2776332
v -1.0076684 0.29652244 1.2776332
v 1.0076684 0.29652244 1.2776332
v 0 0.60998905 2.2500541
v -1.0076684 0.29652244 1.2776332
v 0 0.60998905 2.2500541
v -0.94691753 0.29652244 3.4385686
v 1.0076684 0.29652244 1.2776332
v 0.94691753 0.29652244 3.4385686
v 0 0.60998905 2.2500541
v -1.0076684 0 1.2776332
v -0.94691753 0 3.4385686
v 1.0076684 0 1.2776332
v 1.0076684 0 1.2776332
v -0.94691753 0 3.4385686
v 0.94691753 0 3.4385686
v -0.94691753 0.29652244 3.4385686
v 0.94691753 0.29652244 3.4385686
v 0 0.60998905 4.4109898
v -0.94691753 0.29652244 3.4385686
v 0 0.60998905 4.4109898
v -0.7230954 0.29652244 5.599504
v 0.94691753 0.29652244 3.4385686
v 0.7230954 0.29652244 5.599504
v 0 0.60998905 4.4109898
v -0.94691753 0 3.4385686
v -0.7230954 0 5.599504
v 0.94691753 0 3.4385686
v 0.94691753 0 3.4385686
v -0.7230954 0 5.599504
v 0.7230954 0 5.599504
v -0.7230954 0.29652244 5.599504
v 0.7230954 0.29652244 5.599504
v 0 0.60998905 6.571925
v -0.7230954 0.29652244 5.599504
v 0 0.60998905 6.571925
v -0 0.29652244 7.7604394
v 0.7230954 0.29652244 5.599504
v 0 0.29652244 7.7604394
v 0 0.60998905 6.571925
v -0.7230954 0 5.599504
v -0 0 7.7604394
v 0.7230954 0 5.599504
v 0.7230954 0 5.599504
v -0 0 7.7604394
v 0 0 7.7604394
v 0 0.6608214 -4.1247053
v -0.08061347 0.5252683 -4.2456255
v 0.08061347 0.5252683 -4.2456255
v 0 0.6608214 -1.9637699
v -0.08061347 0.5252683 -2.08469
v 0.08061347 0.5252683 -2.08469
v 0 0.6608214 0.19716549
v -0.08061347 0.5252683 0.076245286
v 0.08061347 0.5252683 0.076245286
v 0 0.6608214 2.3581004
v -0.08061347 0.5252683 2.2371802
v 0.08061347 0.5252683 2.2371802
v 0 0.6608214 4.519036
v -0.08061347 0.5252683 4.3981156
v 0.08061347 0.5252683 4.3981156
v -0.4232207 0.23721795 -1.4195927
v 0.4232207 0.23721795 -1.4195927
v 0 0.3558269 -2.6499064
v -0.6080758 0.0941341 -5.102304
v -0.8686797 0 -5.6756325
v -0.3474719 0 -5.6756325
v 0 0.0941341 -5.102304
v -0.2606039 0 -5.6756325
v 0.2606039 0 -5.6756325
v 0.6080758 0.0941341 -5.102304
v 0.3474719 0 -5.6756325
v 0.8686797 0 -5.6756325
vn 0 -0.95177084 0.3068098
vn 0 -0.95177084 0.3068098
vn 0 -0.95177084 0.3068098
vn 0.43057978 -0.9014211 0.045176428
vn 0.43057978 -0.9014211 0.045176428
vn 0.43057978 -0.9014211 0.045176428
vn -0.43057978 -0.9014211 0.045176428
vn -0.43057978 -0.9014211 0.045176428
vn -0.43057978 -0.9014211 0.045176428
vn 0 1 -0
vn 0 1 -0
vn 0 1 -0
vn 0 1 -0
vn 0 1 -0
vn 0 1 -0
vn 0 -0.9517708 0.30680987
vn 0 -0.9517708 0.30680987
vn 0 -0.9517708 0.30680987
vn 0.34387833 -0.9386427 0.026412198
vn 0.34387833 -0.9386427 0.026412198
vn 0.34387833 -0.9386427 0.026412198
vn -0.34387833 -0.9386427 0.026412198
vn -0.34387833 -0.9386427 0.026412198
vn -0.34387833 -0.9386427 0.026412198
vn 0 1 -0
vn 0 1 -0
vn 0 1 -0
vn 0 1 -0
vn 0 1 -0
vn 0 1 -0
vn 0 -0.9517709 0.3068099
vn 0 -0.9517709 0.3068099
vn 0 -0.9517709 0.3068099
vn 0.30627507 -0.95190406 0.008610376
vn 0.30627507 -0.95190406 0.008610376
vn 0.30627507 -0.95190406 0.008610376
vn -0.30627507 -0.95190406 0.008610376
vn -0.30627507 -0.95190406 0.008610376
vn -0.30627507 -0.95190406 0.008610376
vn 0 1 -0
vn 0 1 -0
vn 0 1 -0
vn 0 1 -0
vn 0 1 -0
vn 0 1 -0
vn 0 -0.9517709 0.3068099
vn 0 -0.9517709 0.3068099
vn 0 -0.9517709 0.3068099
vn 0.30455378 -0.95245665 -0.008561986
vn 0.30455378 -0.95245665 -0.008561986
vn 0.30455378 -0.95245665 -0.008561986
vn -0.30455378 -0.95245665 -0.008561986
vn -0.30455378 -0.95245665 -0.008561986
vn -0.30455378 -0.95245665 -0.008561986
vn 0 1 0
vn 0 1 0
vn 0 1 0
vn 0 1 0
vn 0 1 0
vn 0 1 0
vn 0 -0.9517709 0.30680984
vn 0 -0.9517709 0.30680984
vn 0 -0.9517709 0.30680984
vn 0.34714827 -0.9371207 -0.0359564
vn 0.34714827 -0.9371207 -0.0359564
vn 0.34714827 -0.9371207 -0.0359564
vn -0.34714827 -0.9371207 -0.0359564
vn -0.34714827 -0.9371207 -0.0359564
vn -0.34714827 -0.9371207 -0.0359564
vn 0 1 0
vn 0 1 0
vn 0 1 0
vn 0 1 0
vn 0 1 0
vn 0 1 0
vn 0 -0.95177084 0.3068098
vn 0 -0.95177084 0.3068098
vn 0 -0.95177084 0.3068098
vn 0.6061574 -0.769046 -0.20283331
vn 0.6061574 -0.769046 -0.20283331
vn 0.6061574 -0.769046 -0.20283331
vn -0.6061574 -0.769046 -0.20283331
vn -0.6061574 -0.769046 -0.20283331
vn -0.6061574 -0.769046 -0.20283331
vn 0 1 0
vn 0 1 0
vn 0 1 0
vn 0 1 0
vn 0 1 0
vn 0 1 0
vn 0 -0.66568077 0.7462366
vn 0 -0.66568077 0.7462366
vn 0 -0.66568077 0.7462366
vn 0 -0.66568077 0.7462366
vn 0 -0.66568077 0.7462366
vn 0 -0.66568077 0.7462366
vn 0 -0.6656808 0.74623656
vn 0 -0.6656808 0.74623656
vn 0 -0.6656808 0.74623656
vn 0 -0.66568077 0.7462366
vn 0 -0.66568077 0.7462366
vn 0 -0.66568077 0.7462366
vn 0 -0.66568077 0.7462366
vn 0 -0.66568077 0.7462366
vn 0 -0.66568077 0.7462366
vn -0 0.9953851 0.095960565
vn -0 0.9953851 0.095960565
vn -0 0.9953851 0.095960565
vn 0 -0.98678756 0.16201943
vn 0 -0.98678756 0.16201943
vn 0 -0.98678756 0.16201943
vn 0 -0.98678756 0.16201943
vn 0 -0.98678756 0.16201943
vn 0 -0.98678756 0.16201943
vn 0 -0.98678756 0.16201943
vn 0 -0.98678756 0.16201943
vn 0 -0.98678756 0.16201943
f 1//1 2//2 3//3
f 4//4 5//5 6//6
f 7//7 8//8 9//9
f 10//10 11//11 12//12
f 13//13 14//14 15//15
f 16//16 17//17 18//18
f 19//19 20//20 21//21
f 22//22 23//23 24//24
f 25//25 26//26 27//27
f 28//28 29//29 30//30
f 31//31 32//32 33//33
f 34//34 35//35 36//36
f 37//37 38//38 39//39
f 40//40 41//41 42//42
f 43//43 44//44 45//45
f 46//46 47//47 48//48
f 49//49 50//50 51//51
f 52//52 53//53 54//54
f 55//55 56//56 57//57
f 58//58 59//59 60//60
f 61//61 62//62 63//63
f 64//64 65//65 66//66
f 67//67 68//68 69//69
f 70//70 71//71 72//72
f 73//73 74//74 75//75
f 76//76 77//77 78//78
f 79//79 80//80 81//81
f 82//82 83//83 84//84
f 85//85 86//86 87//87
f 88//88 89//89 90//90
f 91//91 92//92 93//93
f 94//94 95//95 96//96
f 97//97 98//98 99//99
f 100//100 101//101 102//102
f 103//103 104//104 105//105
f 106//106 107//107 108//108
f 109//109 110//110 111//111
f 112//112 113//113 114//114
f 115//115 116//116 117//117
