# Exported from SharpOpenGl procedural mesh
o vesper_interceptor_mk1_02
# vertices 114
v -0.15670337 0.08117581 -1.9362417
v 0.15670337 0.08117581 -1.9362417
v 0 0.16699025 -1.5745167
v -0.15670337 0.08117581 -1.9362417
v 0 0.16699025 -1.5745167
v -0.22080928 0.08117581 -1.1324081
v 0.15670337 0.08117581 -1.9362417
v 0.22080928 0.08117581 -1.1324081
v 0 0.16699025 -1.5745167
v -0.15670337 0 -1.9362417
v -0.22080928 0 -1.1324081
v 0.15670337 0 -1.9362417
v 0.15670337 0 -1.9362417
v -0.22080928 0 -1.1324081
v 0.22080928 0 -1.1324081
v -0.22080928 0.08117581 -1.1324081
v 0.22080928 0.08117581 -1.1324081
v 0 0.16699025 -0.770683
v -0.22080928 0.08117581 -1.1324081
v 0 0.16699025 -0.770683
v -0.26773807 0.08117581 -0.32857442
v 0.22080928 0.08117581 -1.1324081
v 0.26773807 0.08117581 -0.32857442
v 0 0.16699025 -0.770683
v -0.22080928 0 -1.1324081
v -0.26773807 0 -0.32857442
v 0.22080928 0 -1.1324081
v 0.22080928 0 -1.1324081
v -0.26773807 0 -0.32857442
v 0.26773807 0 -0.32857442
v -0.26773807 0.08117581 -0.32857442
v 0.26773807 0.08117581 -0.32857442
v 0 0.16699025 0.033150703
v -0.26773807 0.08117581 -0.32857442
v 0 0.16699025 0.033150703
v -0.2849152 0.08117581 0.47525918
v 0.26773807 0.08117581 -0.32857442
v 0.2849152 0.08117581 0.47525918
v 0 0.16699025 0.033150703
v -0.26773807 0 -0.32857442
v -0.2849152 0 0.47525918
v 0.26773807 0 -0.32857442
v 0.26773807 0 -0.32857442
v -0.2849152 0 0.47525918
v 0.2849152 0 0.47525918
v -0.2849152 0.08117581 0.47525918
v 0.2849152 0.08117581 0.47525918
v 0 0.16699025 0.83698434
v -0.2849152 0.08117581 0.47525918
v 0 0.16699025 0.83698434
v -0.26773807 0.08117581 1.2790929
v 0.2849152 0.08117581 0.47525918
v 0.26773807 0.08117581 1.2790929
v 0 0.16699025 0.83698434
v -0.2849152 0 0.47525918
v -0.26773807 0 1.2790929
v 0.2849152 0 0.47525918
v 0.2849152 0 0.47525918
v -0.26773807 0 1.2790929
v 0.26773807 0 1.2790929
v -0.26773807 0.08117581 1.2790929
v 0.26773807 0.08117581 1.2790929
v 0 0.16699025 1.6408179
v -0.26773807 0.08117581 1.2790929
v 0 0.16699025 1.6408179
v -0.20445307 0.08117581 2.0829263
v 0.26773807 0.08117581 1.2790929
v 0.20445307 0.08117581 2.0829263
v 0 0.16699025 1.6408179
v -0.26773807 0 1.2790929
v -0.20445307 0 2.0829263
v 0.26773807 0 1.2790929
v 0.26773807 0 1.2790929
v -0.20445307 0 2.0829263
v 0.20445307 0 2.0829263
v -0.20445307 0.08117581 2.0829263
v 0.20445307 0.08117581 2.0829263
v 0 0.16699025 2.4446516
v -0.20445307 0.08117581 2.0829263
v 0 0.16699025 2.4446516
v -0 0.08117581 2.8867602
v 0.20445307 0.08117581 2.0829263
v 0 0.08117581 2.8867602
v 0 0.16699025 2.4446516
v -0.20445307 0 2.0829263
v -0 0 2.8867602
v 0.20445307 0 2.0829263
v 0.20445307 0 2.0829263
v -0 0 2.8867602
v 0 0 2.8867602
v 0 0.18090609 -1.5343249
v -0.022793217 0.14379716 -1.5685147
v 0.022793217 0.14379716 -1.5685147
v 0 0.18090609 -0.7304913
v -0.022793217 0.14379716 -0.7646811
v 0.022793217 0.14379716 -0.7646811
v 0 0.18090609 0.073342204
v -0.022793217 0.14379716 0.03915238
v 0.022793217 0.14379716 0.03915238
v 0 0.18090609 0.8771759
v -0.022793217 0.14379716 0.8429861
v 0.022793217 0.14379716 0.8429861
v 0 0.18090609 1.6810097
v -0.022793217 0.14379716 1.6468198
v 0.022793217 0.14379716 1.6468198
v -0.119664386 0.064940654 -0.5280659
v 0.119664386 0.064940654 -0.5280659
v 0 0.09741098 -0.985723
v -0.13754527 0.025770098 -1.897976
v -0.19059846 0 -2.014693
v -0.084492095 0 -2.014693
v 0.13754527 0.025770098 -1.897976
v 0.084492095 0 -2.014693
v 0.19059846 0 -2.014693
vn 0 -0.9729941 0.23082983
vn 0 -0.9729941 0.23082983
vn 0 -0.9729941 0.23082983
vn 0.41953075 -0.90712434 0.033457674
vn 0.41953075 -0.90712434 0.033457674
vn 0.41953075 -0.90712434 0.033457674
vn -0.41953075 -0.90712434 0.033457674
vn -0.41953075 -0.90712434 0.033457674
vn -0.41953075 -0.90712434 0.033457674
vn 0 1 -0
vn 0 1 -0
vn 0 1 -0
vn 0 1 -0
vn 0 1 -0
vn 0 1 -0
vn 0 -0.97299415 0.23082979
vn 0 -0.97299415 0.23082979
vn 0 -0.97299415 0.23082979
vn 0.33423993 -0.942286 0.019513337
vn 0.33423993 -0.942286 0.019513337
vn 0.33423993 -0.942286 0.019513337
vn -0.33423993 -0.942286 0.019513337
vn -0.33423993 -0.942286 0.019513337
vn -0.33423993 -0.942286 0.019513337
vn 0 1 -0
vn 0 1 -0
vn 0 1 -0
vn 0 0.99999994 -0
vn 0 0.99999994 -0
vn 0 0.99999994 -0
vn 0 -0.97299415 0.23082983
vn 0 -0.97299415 0.23082983
vn 0 -0.97299415 0.23082983
vn 0.29741874 -0.95472604 0.006355546
vn 0.29741874 -0.95472604 0.006355546
vn 0.29741874 -0.95472604 0.006355546
vn -0.29741874 -0.95472604 0.006355546
vn -0.29741874 -0.95472604 0.006355546
vn -0.29741874 -0.95472604 0.006355546
vn 0 1 -0
vn 0 1 -0
vn 0 1 -0
vn 0 1 -0
vn 0 1 -0
vn 0 1 -0
vn 0 -0.97299415 0.2308298
vn 0 -0.97299415 0.2308298
vn 0 -0.97299415 0.2308298
vn 0.29573733 -0.9552484 -0.0063196155
vn 0.29573733 -0.9552484 -0.0063196155
vn 0.29573733 -0.9552484 -0.0063196155
vn -0.29573733 -0.9552484 -0.0063196155
vn -0.29573733 -0.9552484 -0.0063196155
vn -0.29573733 -0.9552484 -0.0063196155
vn 0 1 0
vn 0 1 0
vn 0 1 0
vn 0 1 0
vn 0 1 0
vn 0 1 0
vn 0 -0.97299415 0.23082992
vn 0 -0.97299415 0.23082992
vn 0 -0.97299415 0.23082992
vn 0.3374887 -0.94095457 -0.026570152
vn 0.3374887 -0.94095457 -0.026570152
vn 0.3374887 -0.94095457 -0.026570152
vn -0.3374887 -0.94095457 -0.026570152
vn -0.3374887 -0.94095457 -0.026570152
vn -0.3374887 -0.94095457 -0.026570152
vn 0 0.99999994 0
vn 0 0.99999994 0
vn 0 0.99999994 0
vn 0 1 0
vn 0 1 0
vn 0 1 0
vn 0 -0.9729942 0.2308297
vn 0 -0.9729942 0.2308297
vn 0 -0.9729942 0.2308297
vn 0.5995685 -0.7856601 -0.15249868
vn 0.5995685 -0.7856601 -0.15249868
vn 0.5995685 -0.7856601 -0.15249868
vn -0.5995685 -0.7856601 -0.15249868
vn -0.5995685 -0.7856601 -0.15249868
vn -0.5995685 -0.7856601 -0.15249868
vn 0 0.99999994 0
vn 0 0.99999994 0
vn 0 0.99999994 0
vn 0 1 0
vn 0 1 0
vn 0 1 0
vn 0 -0.6775889 0.735441
vn 0 -0.6775889 0.735441
vn 0 -0.6775889 0.735441
vn 0 -0.6775889 0.735441
vn 0 -0.6775889 0.735441
vn 0 -0.6775889 0.735441
vn 0 -0.6775888 0.7354409
vn 0 -0.6775888 0.7354409
vn 0 -0.6775888 0.7354409
vn 0 -0.6775889 0.735441
vn 0 -0.6775889 0.735441
vn 0 -0.6775889 0.735441
vn 0 -0.6775889 0.735441
vn 0 -0.6775889 0.735441
vn 0 -0.6775889 0.735441
vn -0 0.9974926 0.07077113
vn -0 0.9974926 0.07077113
vn -0 0.9974926 0.07077113
vn 0 -0.9764821 0.21559878
vn 0 -0.9764821 0.21559878
vn 0 -0.9764821 0.21559878
vn 0 -0.9764821 0.21559878
vn 0 -0.9764821 0.21559878
vn 0 -0.9764821 0.21559878
f 1//1 2//2 3//3
f 4//4 5//5 6//6
f 7//7 8//8 9//9
f 10//10 11//11 12//12
f 13//13 14//14 15//15
f 16//16 17//17 18//18
f 19//19 20//20 21//21
f 22//22 23//23 24//24
f 25//25 26//26 27//27
f 28//28 29//29 30//30
f 31//31 32//32 33//33
f 34//34 35//35 36//36
f 37//37 38//38 39//39
f 40//40 41//41 42//42
f 43//43 44//44 45//45
f 46//46 47//47 48//48
f 49//49 50//50 51//51
f 52//52 53//53 54//54
f 55//55 56//56 57//57
f 58//58 59//59 60//60
f 61//61 62//62 63//63
f 64//64 65//65 66//66
f 67//67 68//68 69//69
f 70//70 71//71 72//72
f 73//73 74//74 75//75
f 76//76 77//77 78//78
f 79//79 80//80 81//81
f 82//82 83//83 84//84
f 85//85 86//86 87//87
f 88//88 89//89 90//90
f 91//91 92//92 93//93
f 94//94 95//95 96//96
f 97//97 98//98 99//99
f 100//100 101//101 102//102
f 103//103 104//104 105//105
f 106//106 107//107 108//108
f 109//109 110//110 111//111
f 112//112 113//113 114//114
