# Exported from SharpOpenGl procedural mesh
o vesper_carrier_mk2_27
# vertices 153
v -1.0006152 0.46361703 -4.634036
v 1.0006152 0.46361703 -4.634036
v 0 0.95372653 -3.9847445
v -1.0006152 0.46361703 -4.634036
v 0 0.95372653 -3.9847445
v -1.3139124 0.46361703 -3.1911657
v 1.0006152 0.46361703 -4.634036
v 1.3139124 0.46361703 -3.1911657
v 0 0.95372653 -3.9847445
v -1.0006152 0 -4.634036
v -1.3139124 0 -3.1911657
v 1.0006152 0 -4.634036
v 1.0006152 0 -4.634036
v -1.3139124 0 -3.1911657
v 1.3139124 0 -3.1911657
v -1.3139124 0.46361703 -3.1911657
v 1.3139124 0.46361703 -3.1911657
v 0 0.95372653 -2.541874
v -1.3139124 0.46361703 -3.1911657
v 0 0.95372653 -2.541874
v -1.579513 0.46361703 -1.7482953
v 1.3139124 0.46361703 -3.1911657
v 1.579513 0.46361703 -1.7482953
v 0 0.95372653 -2.541874
v -1.3139124 0 -3.1911657
v -1.579513 0 -1.7482953
v 1.3139124 0 -3.1911657
v 1.3139124 0 -3.1911657
v -1.579513 0 -1.7482953
v 1.579513 0 -1.7482953
v -1.579513 0.46361703 -1.7482953
v 1.579513 0.46361703 -1.7482953
v 0 0.95372653 -1.0990036
v -1.579513 0.46361703 -1.7482953
v 0 0.95372653 -1.0990036
v -1.7569816 0.46361703 -0.3054247
v 1.579513 0.46361703 -1.7482953
v 1.7569816 0.46361703 -0.3054247
v 0 0.95372653 -1.0990036
v -1.579513 0 -1.7482953
v -1.7569816 0 -0.3054247
v 1.579513 0 -1.7482953
v 1.579513 0 -1.7482953
v -1.7569816 0 -0.3054247
v 1.7569816 0 -0.3054247
v -1.7569816 0.46361703 -0.3054247
v 1.7569816 0.46361703 -0.3054247
v 0 0.95372653 0.34386688
v -1.7569816 0.46361703 -0.3054247
v 0 0.95372653 0.34386688
v -1.8193003 0.46361703 1.1374454
v 1.7569816 0.46361703 -0.3054247
v 1.8193003 0.46361703 1.1374454
v 0 0.95372653 0.34386688
v -1.7569816 0 -0.3054247
v -1.8193003 0 1.1374454
v 1.7569816 0 -0.3054247
v 1.7569816 0 -0.3054247
v -1.8193003 0 1.1374454
v 1.8193003 0 1.1374454
v -1.8193003 0.46361703 1.1374454
v 1.8193003 0.46361703 1.1374454
v 0 0.95372653 1.786737
v -1.8193003 0.46361703 1.1374454
v 0 0.95372653 1.786737
v -1.7569816 0.46361703 2.5803156
v 1.8193003 0.46361703 1.1374454
v 1.7569816 0.46361703 2.5803156
v 0 0.95372653 1.786737
v -1.8193003 0 1.1374454
v -1.7569816 0 2.5803156
v 1.8193003 0 1.1374454
v 1.8193003 0 1.1374454
v -1.7569816 0 2.5803156
v 1.7569816 0 2.5803156
v -1.7569816 0.46361703 2.5803156
v 1.7569816 0.46361703 2.5803156
v 0 0.95372653 3.2296076
v -1.7569816 0.46361703 2.5803156
v 0 0.95372653 3.2296076
v -1.579513 0.46361703 4.0231867
v 1.7569816 0.46361703 2.5803156
v 1.579513 0.46361703 4.0231867
v 0 0.95372653 3.2296076
v -1.7569816 0 2.5803156
v -1.579513 0 4.0231867
v 1.7569816 0 2.5803156
v 1.7569816 0 2.5803156
v -1.579513 0 4.0231867
v 1.579513 0 4.0231867
v -1.579513 0.46361703 4.0231867
v 1.579513 0.46361703 4.0231867
v 0 0.95372653 4.672478
v -1.579513 0.46361703 4.0231867
v 0 0.95372653 4.672478
v -0.91243905 0.46361703 5.466057
v 1.579513 0.46361703 4.0231867
v 0.91243905 0.46361703 5.466057
v 0 0.95372653 4.672478
v -1.579513 0 4.0231867
v -0.91243905 0 5.466057
v 1.579513 0 4.0231867
v 1.579513 0 4.0231867
v -0.91243905 0 5.466057
v 0.91243905 0 5.466057
v -0.91243905 0.46361703 5.466057
v 0.91243905 0.46361703 5.466057
v 0 0.95372653 6.1153483
v -0.91243905 0.46361703 5.466057
v 0 0.95372653 6.1153483
v -0 0.46361703 6.908927
v 0.91243905 0.46361703 5.466057
v 0 0.46361703 6.908927
v 0 0.95372653 6.1153483
v -0.91243905 0 5.466057
v -0 0 6.908927
v 0.91243905 0 5.466057
v 0.91243905 0 5.466057
v -0 0 6.908927
v 0 0 6.908927
v 0 1.0332037 -3.912601
v -0.14554402 0.8212645 -4.130917
v 0.14554402 0.8212645 -4.130917
v 0 1.0332037 -2.4697304
v -0.14554402 0.8212645 -2.6880465
v 0.14554402 0.8212645 -2.6880465
v 0 1.0332037 -1.0268602
v -0.14554402 0.8212645 -1.2451763
v 0.14554402 0.8212645 -1.2451763
v 0 1.0332037 0.41601038
v -0.14554402 0.8212645 0.19769435
v 0.14554402 0.8212645 0.19769435
v 0 1.0332037 1.8588805
v -0.14554402 0.8212645 1.6405644
v 0.14554402 0.8212645 1.6405644
v 0 1.0332037 3.3017511
v -0.14554402 0.8212645 3.083435
v 0.14554402 0.8212645 3.083435
v 0 1.0332037 4.7446213
v -0.14554402 0.8212645 4.526305
v 0.14554402 0.8212645 4.526305
v -0.7641061 0.37089363 -1.263828
v 0.7641061 0.37089363 -1.263828
v 0 0.55634046 -2.3591456
v -1.0978537 0.14718 -4.5424542
v -1.6248233 0 -5.701788
v -0.5708839 0 -5.701788
v 0 0.14718 -4.5424542
v -0.52696973 0 -5.701788
v 0.52696973 0 -5.701788
v 1.0978537 0.14718 -4.5424542
v 0.5708839 0 -5.701788
v 1.6248233 0 -5.701788
vn 0 -0.79814297 0.60246813
vn 0 -0.79814297 0.60246813
vn 0 -0.79814297 0.60246813
vn 0.39305973 -0.91554356 0.085346885
vn 0.39305973 -0.91554356 0.085346885
vn 0.39305973 -0.91554356 0.085346885
vn -0.39305973 -0.91554356 0.085346885
vn -0.39305973 -0.91554356 0.085346885
vn -0.39305973 -0.91554356 0.085346885
vn 0 1 -0
vn 0 1 -0
vn 0 1 -0
vn 0 1 -0
vn 0 1 -0
vn 0 1 -0
vn 0 -0.7981431 0.602468
vn 0 -0.7981431 0.602468
vn 0 -0.7981431 0.602468
vn 0.32295275 -0.94454616 0.05944847
vn 0.32295275 -0.94454616 0.05944847
vn 0.32295275 -0.94454616 0.05944847
vn -0.32295275 -0.94454616 0.05944847
vn -0.32295275 -0.94454616 0.05944847
vn -0.32295275 -0.94454616 0.05944847
vn 0 1 -0
vn 0 1 -0
vn 0 1 -0
vn 0 1 -0
vn 0 1 -0
vn 0 1 -0
vn 0 -0.798143 0.60246795
vn 0 -0.798143 0.60246795
vn 0 -0.798143 0.60246795
vn 0.2830893 -0.95846134 0.034819115
vn 0.2830893 -0.95846134 0.034819115
vn 0.2830893 -0.95846134 0.034819115
vn -0.2830893 -0.95846134 0.034819115
vn -0.2830893 -0.95846134 0.034819115
vn -0.2830893 -0.95846134 0.034819115
vn 0 1 -0
vn 0 1 -0
vn 0 1 -0
vn 0 1 -0
vn 0 1 -0
vn 0 1 -0
vn 0 -0.79814297 0.60246813
vn 0 -0.79814297 0.60246813
vn 0 -0.79814297 0.60246813
vn 0.26475123 -0.96424896 0.011434811
vn 0.26475123 -0.96424896 0.011434811
vn 0.26475123 -0.96424896 0.011434811
vn -0.26475123 -0.96424896 0.011434811
vn -0.26475123 -0.96424896 0.011434811
vn -0.26475123 -0.96424896 0.011434811
vn 0 1 -0
vn 0 1 -0
vn 0 1 -0
vn 0 1 -0
vn 0 1 -0
vn 0 1 -0
vn 0 -0.7981429 0.6024681
vn 0 -0.7981429 0.6024681
vn 0 -0.7981429 0.6024681
vn 0.2638945 -0.96448416 -0.011397809
vn 0.2638945 -0.96448416 -0.011397809
vn 0.2638945 -0.96448416 -0.011397809
vn -0.2638945 -0.96448416 -0.011397809
vn -0.2638945 -0.96448416 -0.011397809
vn -0.2638945 -0.96448416 -0.011397809
vn 0 1 0
vn 0 1 0
vn 0 1 0
vn 0 1 0
vn 0 1 0
vn 0 1 0
vn 0 -0.79814315 0.60246783
vn 0 -0.79814315 0.60246783
vn 0 -0.79814315 0.60246783
vn 0.28033385 -0.9592831 -0.034480195
vn 0.28033385 -0.9592831 -0.034480195
vn 0.28033385 -0.9592831 -0.034480195
vn -0.28033385 -0.9592831 -0.034480195
vn -0.28033385 -0.9592831 -0.034480195
vn -0.28033385 -0.9592831 -0.034480195
vn 0 1 0
vn 0 1 0
vn 0 1 0
vn 0 1 0
vn 0 1 0
vn 0 1 0
vn 0 -0.79814297 0.6024682
vn 0 -0.79814297 0.6024682
vn 0 -0.79814297 0.6024682
vn 0.35295 -0.9213031 -0.16317736
vn 0.35295 -0.9213031 -0.16317736
vn 0.35295 -0.9213031 -0.16317736
vn -0.35295 -0.9213031 -0.16317736
vn -0.35295 -0.9213031 -0.16317736
vn -0.35295 -0.9213031 -0.16317736
vn 0 1 0
vn 0 1 0
vn 0 1 0
vn 0 1 0
vn 0 1 0
vn 0 1 0
vn 0 -0.7981429 0.60246813
vn 0 -0.7981429 0.60246813
vn 0 -0.7981429 0.60246813
vn 0.6390918 -0.6543901 -0.4041475
vn 0.6390918 -0.6543901 -0.4041475
vn 0.6390918 -0.6543901 -0.4041475
vn -0.6390918 -0.6543901 -0.4041475
vn -0.6390918 -0.6543901 -0.4041475
vn -0.6390918 -0.6543901 -0.4041475
vn 0 1 0
vn 0 1 0
vn 0 1 0
vn 0 1 0
vn 0 1 0
vn 0 1 0
vn 0 -0.7175081 0.6965502
vn 0 -0.7175081 0.6965502
vn 0 -0.7175081 0.6965502
vn 0 -0.7175081 0.6965502
vn 0 -0.7175081 0.6965502
vn 0 -0.7175081 0.6965502
vn 0 -0.7175081 0.6965502
vn 0 -0.7175081 0.6965502
vn 0 -0.7175081 0.6965502
vn 0 -0.7175081 0.69655025
vn 0 -0.7175081 0.69655025
vn 0 -0.7175081 0.69655025
vn 0 -0.7175081 0.6965502
vn 0 -0.7175081 0.6965502
vn 0 -0.7175081 0.6965502
vn 0 -0.7175081 0.6965502
vn 0 -0.7175081 0.6965502
vn 0 -0.7175081 0.6965502
vn 0 -0.7175081 0.6965502
vn 0 -0.7175081 0.6965502
vn 0 -0.7175081 0.6965502
vn -0 0.98596823 0.16693303
vn -0 0.98596823 0.16693303
vn -0 0.98596823 0.16693303
vn 0 -0.99203765 0.1259414
vn 0 -0.99203765 0.1259414
vn 0 -0.99203765 0.1259414
vn 0 -0.99203765 0.1259414
vn 0 -0.99203765 0.1259414
vn 0 -0.99203765 0.1259414
vn 0 -0.99203765 0.1259414
vn 0 -0.99203765 0.1259414
vn 0 -0.99203765 0.1259414
f 1//1 2//2 3//3
f 4//4 5//5 6//6
f 7//7 8//8 9//9
f 10//10 11//11 12//12
f 13//13 14//14 15//15
f 16//16 17//17 18//18
f 19//19 20//20 21//21
f 22//22 23//23 24//24
f 25//25 26//26 27//27
f 28//28 29//29 30//30
f 31//31 32//32 33//33
f 34//34 35//35 36//36
f 37//37 38//38 39//39
f 40//40 41//41 42//42
f 43//43 44//44 45//45
f 46//46 47//47 48//48
f 49//49 50//50 51//51
f 52//52 53//53 54//54
f 55//55 56//56 57//57
f 58//58 59//59 60//60
f 61//61 62//62 63//63
f 64//64 65//65 66//66
f 67//67 68//68 69//69
f 70//70 71//71 72//72
f 73//73 74//74 75//75
f 76//76 77//77 78//78
f 79//79 80//80 81//81
f 82//82 83//83 84//84
f 85//85 86//86 87//87
f 88//88 89//89 90//90
f 91//91 92//92 93//93
f 94//94 95//95 96//96
f 97//97 98//98 99//99
f 100//100 101//101 102//102
f 103//103 104//104 105//105
f 106//106 107//107 108//108
f 109//109 110//110 111//111
f 112//112 113//113 114//114
f 115//115 116//116 117//117
f 118//118 119//119 120//120
f 121//121 122//122 123//123
f 124//124 125//125 126//126
f 127//127 128//128 129//129
f 130//130 131//131 132//132
f 133//133 134//134 135//135
f 136//136 137//137 138//138
f 139//139 140//140 141//141
f 142//142 143//143 144//144
f 145//145 146//146 147//147
f 148//148 149//149 150//150
f 151//151 152//152 153//153
