# Exported from SharpOpenGl procedural mesh
o vesper_transport_mk2_30
# vertices 120
v -0.77801925 0.2707698 -3.4590075
v 0.77801925 0.2707698 -3.4590075
v 0 0.5570122 -2.812802
v -0.77801925 0.2707698 -3.4590075
v 0 0.5570122 -2.812802
v -1.0962998 0.2707698 -2.0229955
v 0.77801925 0.2707698 -3.4590075
v 1.0962998 0.2707698 -2.0229955
v 0 0.5570122 -2.812802
v -0.77801925 0 -3.4590075
v -1.0962998 0 -2.0229955
v 0.77801925 0 -3.4590075
v 0.77801925 0 -3.4590075
v -1.0962998 0 -2.0229955
v 1.0962998 0 -2.0229955
v -1.0962998 0.2707698 -2.0229955
v 1.0962998 0.2707698 -2.0229955
v 0 0.5570122 -1.37679
v -1.0962998 0.2707698 -2.0229955
v 0 0.5570122 -1.37679
v -1.3292974 0.2707698 -0.5869832
v 1.0962998 0.2707698 -2.0229955
v 1.3292974 0.2707698 -0.5869832
v 0 0.5570122 -1.37679
v -1.0962998 0 -2.0229955
v -1.3292974 0 -0.5869832
v 1.0962998 0 -2.0229955
v 1.0962998 0 -2.0229955
v -1.3292974 0 -0.5869832
v 1.3292974 0 -0.5869832
v -1.3292974 0.2707698 -0.5869832
v 1.3292974 0.2707698 -0.5869832
v 0 0.5570122 0.05922222
v -1.3292974 0.2707698 -0.5869832
v 0 0.5570122 0.05922222
v -1.4145805 0.2707698 0.8490288
v 1.3292974 0.2707698 -0.5869832
v 1.4145805 0.2707698 0.8490288
v 0 0.5570122 0.05922222
v -1.3292974 0 -0.5869832
v -1.4145805 0 0.8490288
v 1.3292974 0 -0.5869832
v 1.3292974 0 -0.5869832
v -1.4145805 0 0.8490288
v 1.4145805 0 0.8490288
v -1.4145805 0.2707698 0.8490288
v 1.4145805 0.2707698 0.8490288
v 0 0.5570122 1.4952343
v -1.4145805 0.2707698 0.8490288
v 0 0.5570122 1.4952343
v -1.3292974 0.2707698 2.285041
v 1.4145805 0.2707698 0.8490288
v 1.3292974 0.2707698 2.285041
v 0 0.5570122 1.4952343
v -1.4145805 0 0.8490288
v -1.3292974 0 2.285041
v 1.4145805 0 0.8490288
v 1.4145805 0 0.8490288
v -1.3292974 0 2.285041
v 1.3292974 0 2.285041
v -1.3292974 0.2707698 2.285041
v 1.3292974 0.2707698 2.285041
v 0 0.5570122 2.9312463
v -1.3292974 0.2707698 2.285041
v 0 0.5570122 2.9312463
v -1.0150925 0.2707698 3.721053
v 1.3292974 0.2707698 2.285041
v 1.0150925 0.2707698 3.721053
v 0 0.5570122 2.9312463
v -1.3292974 0 2.285041
v -1.0150925 0 3.721053
v 1.3292974 0 2.285041
v 1.3292974 0 2.285041
v -1.0150925 0 3.721053
v 1.0150925 0 3.721053
v -1.0150925 0.2707698 3.721053
v 1.0150925 0.2707698 3.721053
v 0 0.5570122 4.3672585
v -1.0150925 0.2707698 3.721053
v 0 0.5570122 4.3672585
v -0 0.2707698 5.1570654
v 1.0150925 0.2707698 3.721053
v 0 0.2707698 5.1570654
v 0 0.5570122 4.3672585
v -1.0150925 0 3.721053
v -0 0 5.1570654
v 1.0150925 0 3.721053
v 1.0150925 0 3.721053
v -0 0 5.1570654
v 0 0 5.1570654
v 0 0.6034298 -2.7410014
v -0.11316644 0.47964936 -2.910751
v 0.11316644 0.47964936 -2.910751
v 0 0.6034298 -1.3049893
v -0.11316644 0.47964936 -1.474739
v 0.11316644 0.47964936 -1.474739
v 0 0.6034298 0.13102269
v -0.11316644 0.47964936 -0.038726956
v 0.11316644 0.47964936 -0.038726956
v 0 0.6034298 1.5670345
v -0.11316644 0.47964936 1.3972849
v 0.11316644 0.47964936 1.3972849
v 0 0.6034298 3.0030468
v -0.11316644 0.47964936 2.833297
v 0.11316644 0.47964936 2.833297
v -0.5941238 0.21661584 -0.9433657
v 0.5941238 0.21661584 -0.9433657
v 0 0.32492375 -1.7609493
v -0.8536262 0.08595866 -3.390648
v -1.1755652 0 -4.0989137
v -0.53168714 0 -4.0989137
v 0 0.08595866 -3.390648
v -0.32193902 0 -4.0989137
v 0.32193902 0 -4.0989137
v 0.8536262 0.08595866 -3.390648
v 0.53168714 0 -4.0989137
v 1.1755652 0 -4.0989137
v 0 0.40830365 -0.27343935
v -0.17072524 0.15042765 -0.41977525
v 0.17072524 0.15042765 -0.41977525
vn 0 -0.91431487 0.40500388
vn 0 -0.91431487 0.40500388
vn 0 -0.91431487 0.40500388
vn 0.29607978 -0.95290625 0.06562371
vn 0.29607978 -0.95290625 0.06562371
vn 0.29607978 -0.95290625 0.06562371
vn -0.29607978 -0.95290625 0.06562371
vn -0.29607978 -0.95290625 0.06562371
vn -0.29607978 -0.95290625 0.06562371
vn 0 1 -0
vn 0 1 -0
vn 0 1 -0
vn 0 1 -0
vn 0 1 -0
vn 0 1 -0
vn 0 -0.914315 0.40500385
vn 0 -0.914315 0.40500385
vn 0 -0.914315 0.40500385
vn 0.23165186 -0.9720724 0.037586268
vn 0.23165186 -0.9720724 0.037586268
vn 0.23165186 -0.9720724 0.037586268
vn -0.23165186 -0.9720724 0.037586268
vn -0.23165186 -0.9720724 0.037586268
vn -0.23165186 -0.9720724 0.037586268
vn 0 1 -0
vn 0 1 -0
vn 0 1 -0
vn 0 1 -0
vn 0 1 -0
vn 0 1 -0
vn 0 -0.9143149 0.40500385
vn 0 -0.9143149 0.40500385
vn 0 -0.9143149 0.40500385
vn 0.20483762 -0.97872037 0.012165063
vn 0.20483762 -0.97872037 0.012165063
vn 0.20483762 -0.97872037 0.012165063
vn -0.20483762 -0.97872037 0.012165063
vn -0.20483762 -0.97872037 0.012165063
vn -0.20483762 -0.97872037 0.012165063
vn 0 1 -0
vn 0 1 -0
vn 0 1 -0
vn 0 1 -0
vn 0 1 -0
vn 0 1 -0
vn 0 -0.914315 0.40500388
vn 0 -0.914315 0.40500388
vn 0 -0.914315 0.40500388
vn 0.20362121 -0.978975 -0.0120928185
vn 0.20362121 -0.978975 -0.0120928185
vn 0.20362121 -0.978975 -0.0120928185
vn -0.20362121 -0.978975 -0.0120928185
vn -0.20362121 -0.978975 -0.0120928185
vn -0.20362121 -0.978975 -0.0120928185
vn 0 1 0
vn 0 1 0
vn 0 1 0
vn 0 0.99999994 0
vn 0 0.99999994 0
vn 0 0.99999994 0
vn 0 -0.9143149 0.405004
vn 0 -0.9143149 0.405004
vn 0 -0.9143149 0.405004
vn 0.23395187 -0.97089964 -0.05118957
vn 0.23395187 -0.97089964 -0.05118957
vn 0.23395187 -0.97089964 -0.05118957
vn -0.23395187 -0.97089964 -0.05118957
vn -0.23395187 -0.97089964 -0.05118957
vn -0.23395187 -0.97089964 -0.05118957
vn 0 1 0
vn 0 1 0
vn 0 1 0
vn 0 0.99999994 0
vn 0 0.99999994 0
vn 0 0.99999994 0
vn 0 -0.914315 0.40500373
vn 0 -0.914315 0.40500373
vn 0 -0.914315 0.40500373
vn 0.4342113 -0.8469064 -0.3069365
vn 0.4342113 -0.8469064 -0.3069365
vn 0.4342113 -0.8469064 -0.3069365
vn -0.4342113 -0.8469064 -0.3069365
vn -0.4342113 -0.8469064 -0.3069365
vn -0.4342113 -0.8469064 -0.3069365
vn 0 1 0
vn 0 1 0
vn 0 1 0
vn 0 1 0
vn 0 1 0
vn 0 1 0
vn 0 -0.80799717 0.5891864
vn 0 -0.80799717 0.5891864
vn 0 -0.80799717 0.5891864
vn 0 -0.8079969 0.5891866
vn 0 -0.8079969 0.5891866
vn 0 -0.8079969 0.5891866
vn 0 -0.807997 0.5891866
vn 0 -0.807997 0.5891866
vn 0 -0.807997 0.5891866
vn 0 -0.8079969 0.5891866
vn 0 -0.8079969 0.5891866
vn 0 -0.8079969 0.5891866
vn 0 -0.80799717 0.5891864
vn 0 -0.80799717 0.5891864
vn 0 -0.80799717 0.5891864
vn -0 0.99133927 0.13132589
vn -0 0.99133927 0.13132589
vn -0 0.99133927 0.13132589
vn 0 -0.99271566 0.12048091
vn 0 -0.99271566 0.12048091
vn 0 -0.99271566 0.12048091
vn 0 -0.99271566 0.12048092
vn 0 -0.99271566 0.12048092
vn 0 -0.99271566 0.12048092
vn 0 -0.99271566 0.12048091
vn 0 -0.99271566 0.12048091
vn 0 -0.99271566 0.12048091
vn 0 -0.4935388 0.86972374
vn 0 -0.4935388 0.86972374
vn 0 -0.4935388 0.86972374
f 1//1 2//2 3//3
f 4//4 5//5 6//6
f 7//7 8//8 9//9
f 10//10 11//11 12//12
f 13//13 14//14 15//15
f 16//16 17//17 18//18
f 19//19 20//20 21//21
f 22//22 23//23 24//24
f 25//25 26//26 27//27
f 28//28 29//29 30//30
f 31//31 32//32 33//33
f 34//34 35//35 36//36
f 37//37 38//38 39//39
f 40//40 41//41 42//42
f 43//43 44//44 45//45
f 46//46 47//47 48//48
f 49//49 50//50 51//51
f 52//52 53//53 54//54
f 55//55 56//56 57//57
f 58//58 59//59 60//60
f 61//61 62//62 63//63
f 64//64 65//65 66//66
f 67//67 68//68 69//69
f 70//70 71//71 72//72
f 73//73 74//74 75//75
f 76//76 77//77 78//78
f 79//79 80//80 81//81
f 82//82 83//83 84//84
f 85//85 86//86 87//87
f 88//88 89//89 90//90
f 91//91 92//92 93//93
f 94//94 95//95 96//96
f 97//97 98//98 99//99
f 100//100 101//101 102//102
f 103//103 104//104 105//105
f 106//106 107//107 108//108
f 109//109 110//110 111//111
f 112//112 113//113 114//114
f 115//115 116//116 117//117
f 118//118 119//119 120//120
