# Exported from SharpOpenGl procedural mesh
o vesper_destroyer_mk1_08
# vertices 117
v -0.40028504 0.23106791 -3.9077954
v 0.40028504 0.23106791 -3.9077954
v 0 0.47533974 -3.1777482
v -0.40028504 0.23106791 -3.9077954
v 0 0.47533974 -3.1777482
v -0.564038 0.23106791 -2.285468
v 0.40028504 0.23106791 -3.9077954
v 0.564038 0.23106791 -2.285468
v 0 0.47533974 -3.1777482
v -0.40028504 0 -3.9077954
v -0.564038 0 -2.285468
v 0.40028504 0 -3.9077954
v 0.40028504 0 -3.9077954
v -0.564038 0 -2.285468
v 0.564038 0 -2.285468
v -0.564038 0.23106791 -2.285468
v 0.564038 0.23106791 -2.285468
v 0 0.47533974 -1.5554209
v -0.564038 0.23106791 -2.285468
v 0 0.47533974 -1.5554209
v -0.68391347 0.23106791 -0.663141
v 0.564038 0.23106791 -2.285468
v 0.68391347 0.23106791 -0.663141
v 0 0.47533974 -1.5554209
v -0.564038 0 -2.285468
v -0.68391347 0 -0.663141
v 0.564038 0 -2.285468
v 0.564038 0 -2.285468
v -0.68391347 0 -0.663141
v 0.68391347 0 -0.663141
v -0.68391347 0.23106791 -0.663141
v 0.68391347 0.23106791 -0.663141
v 0 0.47533974 0.066906154
v -0.68391347 0.23106791 -0.663141
v 0 0.47533974 0.066906154
v -0.72779095 0.23106791 0.9591861
v 0.68391347 0.23106791 -0.663141
v 0.72779095 0.23106791 0.9591861
v 0 0.47533974 0.066906154
v -0.68391347 0 -0.663141
v -0.72779095 0 0.9591861
v 0.68391347 0 -0.663141
v 0.68391347 0 -0.663141
v -0.72779095 0 0.9591861
v 0.72779095 0 0.9591861
v -0.72779095 0.23106791 0.9591861
v 0.72779095 0.23106791 0.9591861
v 0 0.47533974 1.6892333
v -0.72779095 0.23106791 0.9591861
v 0 0.47533974 1.6892333
v -0.68391347 0.23106791 2.5815134
v 0.72779095 0.23106791 0.9591861
v 0.68391347 0.23106791 2.5815134
v 0 0.47533974 1.6892333
v -0.72779095 0 0.9591861
v -0.68391347 0 2.5815134
v 0.72779095 0 0.9591861
v 0.72779095 0 0.9591861
v -0.68391347 0 2.5815134
v 0.68391347 0 2.5815134
v -0.68391347 0.23106791 2.5815134
v 0.68391347 0.23106791 2.5815134
v 0 0.47533974 3.3115602
v -0.68391347 0.23106791 2.5815134
v 0 0.47533974 3.3115602
v -0.52225745 0.23106791 4.20384
v 0.68391347 0.23106791 2.5815134
v 0.52225745 0.23106791 4.20384
v 0 0.47533974 3.3115602
v -0.68391347 0 2.5815134
v -0.52225745 0 4.20384
v 0.68391347 0 2.5815134
v 0.68391347 0 2.5815134
v -0.52225745 0 4.20384
v 0.52225745 0 4.20384
v -0.52225745 0.23106791 4.20384
v 0.52225745 0.23106791 4.20384
v 0 0.47533974 4.9338875
v -0.52225745 0.23106791 4.20384
v 0 0.47533974 4.9338875
v -0 0.23106791 5.8261676
v 0.52225745 0.23106791 4.20384
v 0 0.23106791 5.8261676
v 0 0.47533974 4.9338875
v -0.52225745 0 4.20384
v -0 0 5.8261676
v 0.52225745 0 4.20384
v 0.52225745 0 4.20384
v -0 0 5.8261676
v 0 0 5.8261676
v 0 0.51495135 -3.0966318
v -0.058223274 0.4093203 -3.1839666
v 0.058223274 0.4093203 -3.1839666
v 0 0.51495135 -1.4743047
v -0.058223274 0.4093203 -1.5616395
v 0.058223274 0.4093203 -1.5616395
v 0 0.51495135 0.14802217
v -0.058223274 0.4093203 0.060687266
v 0.058223274 0.4093203 0.060687266
v 0 0.51495135 1.7703495
v -0.058223274 0.4093203 1.6830146
v 0.058223274 0.4093203 1.6830146
v 0 0.51495135 3.3926768
v -0.058223274 0.4093203 3.305342
v 0.058223274 0.4093203 3.305342
v -0.3056722 0.18485433 -1.0657624
v 0.3056722 0.18485433 -1.0657624
v 0 0.2772815 -1.9894232
v -0.4391842 0.073354885 -3.8305664
v -0.627406 0 -4.244654
v -0.25096238 0 -4.244654
v 0 0.073354885 -3.8305664
v -0.1882218 0 -4.244654
v 0.1882218 0 -4.244654
v 0.4391842 0.073354885 -3.8305664
v 0.25096238 0 -4.244654
v 0.627406 0 -4.244654
vn 0 -0.9483231 0.31730637
vn 0 -0.9483231 0.31730637
vn 0 -0.9483231 0.31730637
vn 0.45762095 -0.88794667 0.04619091
vn 0.45762095 -0.88794667 0.04619091
vn 0.45762095 -0.88794667 0.04619091
vn -0.45762095 -0.88794667 0.04619091
vn -0.45762095 -0.88794667 0.04619091
vn -0.45762095 -0.88794667 0.04619091
vn 0 1 -0
vn 0 1 -0
vn 0 1 -0
vn 0 1 -0
vn 0 1 -0
vn 0 1 -0
vn 0 -0.94832313 0.31730637
vn 0 -0.94832313 0.31730637
vn 0 -0.94832313 0.31730637
vn 0.36746272 -0.9296419 0.027152214
vn 0.36746272 -0.9296419 0.027152214
vn 0.36746272 -0.9296419 0.027152214
vn -0.36746272 -0.9296419 0.027152214
vn -0.36746272 -0.9296419 0.027152214
vn -0.36746272 -0.9296419 0.027152214
vn 0 1 -0
vn 0 1 -0
vn 0 1 -0
vn 0 0.99999994 -0
vn 0 0.99999994 -0
vn 0 0.99999994 -0
vn 0 -0.9483231 0.31730637
vn 0 -0.9483231 0.31730637
vn 0 -0.9483231 0.31730637
vn 0.32793412 -0.944659 0.008869311
vn 0.32793412 -0.944659 0.008869311
vn 0.32793412 -0.944659 0.008869311
vn -0.32793412 -0.944659 0.008869311
vn -0.32793412 -0.944659 0.008869311
vn -0.32793412 -0.944659 0.008869311
vn 0 0.99999994 -0
vn 0 0.99999994 -0
vn 0 0.99999994 -0
vn 0 1 -0
vn 0 1 -0
vn 0 1 -0
vn 0 -0.9483231 0.31730634
vn 0 -0.9483231 0.31730634
vn 0 -0.9483231 0.31730634
vn 0.32611877 -0.9452876 -0.0088202115
vn 0.32611877 -0.9452876 -0.0088202115
vn 0.32611877 -0.9452876 -0.0088202115
vn -0.32611877 -0.9452876 -0.0088202115
vn -0.32611877 -0.9452876 -0.0088202115
vn -0.32611877 -0.9452876 -0.0088202115
vn 0 1 0
vn 0 1 0
vn 0 1 0
vn 0 1 0
vn 0 1 0
vn 0 1 0
vn 0 -0.9483231 0.31730655
vn 0 -0.9483231 0.31730655
vn 0 -0.9483231 0.31730655
vn 0.37088114 -0.9279448 -0.036956295
vn 0.37088114 -0.9279448 -0.036956295
vn 0.37088114 -0.9279448 -0.036956295
vn -0.37088114 -0.9279448 -0.036956295
vn -0.37088114 -0.9279448 -0.036956295
vn -0.37088114 -0.9279448 -0.036956295
vn 0 1 0
vn 0 1 0
vn 0 1 0
vn 0 1 0
vn 0 1 0
vn 0 1 0
vn 0 -0.94832313 0.31730613
vn 0 -0.94832313 0.31730613
vn 0 -0.94832313 0.31730613
vn 0.6341836 -0.7457423 -0.20415545
vn 0.6341836 -0.7457423 -0.20415545
vn 0.6341836 -0.7457423 -0.20415545
vn -0.6341836 -0.7457423 -0.20415545
vn -0.6341836 -0.7457423 -0.20415545
vn -0.6341836 -0.7457423 -0.20415545
vn 0 1 0
vn 0 1 0
vn 0 1 0
vn 0 1 0
vn 0 1 0
vn 0 1 0
vn 0 -0.6372042 0.770695
vn 0 -0.6372042 0.770695
vn 0 -0.6372042 0.770695
vn 0 -0.6372042 0.770695
vn 0 -0.6372042 0.770695
vn 0 -0.6372042 0.770695
vn 0 -0.6372044 0.7706949
vn 0 -0.6372044 0.7706949
vn 0 -0.6372044 0.7706949
vn 0 -0.6372042 0.770695
vn 0 -0.6372042 0.770695
vn 0 -0.6372042 0.770695
vn 0 -0.6372042 0.770695
vn 0 -0.6372042 0.770695
vn 0 -0.6372042 0.770695
vn -0 0.99503064 0.09956887
vn -0 0.99503064 0.09956887
vn -0 0.99503064 0.09956887
vn 0 -0.9846691 0.17443231
vn 0 -0.9846691 0.17443231
vn 0 -0.9846691 0.17443231
vn 0 -0.98466927 0.17443234
vn 0 -0.98466927 0.17443234
vn 0 -0.98466927 0.17443234
vn 0 -0.9846691 0.17443231
vn 0 -0.9846691 0.17443231
vn 0 -0.9846691 0.17443231
f 1//1 2//2 3//3
f 4//4 5//5 6//6
f 7//7 8//8 9//9
f 10//10 11//11 12//12
f 13//13 14//14 15//15
f 16//16 17//17 18//18
f 19//19 20//20 21//21
f 22//22 23//23 24//24
f 25//25 26//26 27//27
f 28//28 29//29 30//30
f 31//31 32//32 33//33
f 34//34 35//35 36//36
f 37//37 38//38 39//39
f 40//40 41//41 42//42
f 43//43 44//44 45//45
f 46//46 47//47 48//48
f 49//49 50//50 51//51
f 52//52 53//53 54//54
f 55//55 56//56 57//57
f 58//58 59//59 60//60
f 61//61 62//62 63//63
f 64//64 65//65 66//66
f 67//67 68//68 69//69
f 70//70 71//71 72//72
f 73//73 74//74 75//75
f 76//76 77//77 78//78
f 79//79 80//80 81//81
f 82//82 83//83 84//84
f 85//85 86//86 87//87
f 88//88 89//89 90//90
f 91//91 92//92 93//93
f 94//94 95//95 96//96
f 97//97 98//98 99//99
f 100//100 101//101 102//102
f 103//103 104//104 105//105
f 106//106 107//107 108//108
f 109//109 110//110 111//111
f 112//112 113//113 114//114
f 115//115 116//116 117//117
