# Exported from SharpOpenGl procedural mesh
o vesper_support_mk2_32
# vertices 225
v -0.51849157 0.28212947 -2.2765017
v 0.51849157 0.28212947 -2.2765017
v 0 0.5803807 -1.7875712
v -0.51849157 0.28212947 -2.2765017
v 0 0.5803807 -1.7875712
v -0.7777373 0.28212947 -1.1899896
v 0.51849157 0.28212947 -2.2765017
v 0.7777373 0.28212947 -1.1899896
v 0 0.5803807 -1.7875712
v -0.51849157 0 -2.2765017
v -0.7777373 0 -1.1899896
v 0.51849157 0 -2.2765017
v 0.51849157 0 -2.2765017
v -0.7777373 0 -1.1899896
v 0.7777373 0 -1.1899896
v -0.51849157 0 -2.2765017
v -0.51849157 0.28212947 -2.2765017
v -0.7777373 0.28212947 -1.1899896
v -0.51849157 0 -2.2765017
v -0.7777373 0.28212947 -1.1899896
v -0.7777373 0 -1.1899896
v 0.51849157 0 -2.2765017
v 0.7777373 0.28212947 -1.1899896
v 0.51849157 0.28212947 -2.2765017
v 0.51849157 0 -2.2765017
v 0.7777373 0 -1.1899896
v 0.7777373 0.28212947 -1.1899896
v -0.7777373 0.28212947 -1.1899896
v 0.7777373 0.28212947 -1.1899896
v 0 0.5803807 -0.7010591
v -0.7777373 0.28212947 -1.1899896
v 0 0.5803807 -0.7010591
v -0.9675185 0.28212947 -0.10347748
v 0.7777373 0.28212947 -1.1899896
v 0.9675185 0.28212947 -0.10347748
v 0 0.5803807 -0.7010591
v -0.7777373 0 -1.1899896
v -0.9675185 0 -0.10347748
v 0.7777373 0 -1.1899896
v 0.7777373 0 -1.1899896
v -0.9675185 0 -0.10347748
v 0.9675185 0 -0.10347748
v -0.7777373 0 -1.1899896
v -0.7777373 0.28212947 -1.1899896
v -0.9675185 0.28212947 -0.10347748
v -0.7777373 0 -1.1899896
v -0.9675185 0.28212947 -0.10347748
v -0.9675185 0 -0.10347748
v 0.7777373 0 -1.1899896
v 0.9675185 0.28212947 -0.10347748
v 0.7777373 0.28212947 -1.1899896
v 0.7777373 0 -1.1899896
v 0.9675185 0 -0.10347748
v 0.9675185 0.28212947 -0.10347748
v -0.9675185 0.28212947 -0.10347748
v 0.9675185 0.28212947 -0.10347748
v 0 0.5803807 0.38545296
v -0.9675185 0.28212947 -0.10347748
v 0 0.5803807 0.38545296
v -1.0369831 0.28212947 0.9830346
v 0.9675185 0.28212947 -0.10347748
v 1.0369831 0.28212947 0.9830346
v 0 0.5803807 0.38545296
v -0.9675185 0 -0.10347748
v -1.0369831 0 0.9830346
v 0.9675185 0 -0.10347748
v 0.9675185 0 -0.10347748
v -1.0369831 0 0.9830346
v 1.0369831 0 0.9830346
v -0.9675185 0 -0.10347748
v -0.9675185 0.28212947 -0.10347748
v -1.0369831 0.28212947 0.9830346
v -0.9675185 0 -0.10347748
v -1.0369831 0.28212947 0.9830346
v -1.0369831 0 0.9830346
v 0.9675185 0 -0.10347748
v 1.0369831 0.28212947 0.9830346
v 0.9675185 0.28212947 -0.10347748
v 0.9675185 0 -0.10347748
v 1.0369831 0 0.9830346
v 1.0369831 0.28212947 0.9830346
v -1.0369831 0.28212947 0.9830346
v 1.0369831 0.28212947 0.9830346
v 0 0.5803807 1.4719651
v -1.0369831 0.28212947 0.9830346
v 0 0.5803807 1.4719651
v -0.96751845 0.28212947 2.0695467
v 1.0369831 0.28212947 0.9830346
v 0.96751845 0.28212947 2.0695467
v 0 0.5803807 1.4719651
v -1.0369831 0 0.9830346
v -0.96751845 0 2.0695467
v 1.0369831 0 0.9830346
v 1.0369831 0 0.9830346
v -0.96751845 0 2.0695467
v 0.96751845 0 2.0695467
v -1.0369831 0 0.9830346
v -1.0369831 0.28212947 0.9830346
v -0.96751845 0.28212947 2.0695467
v -1.0369831 0 0.9830346
v -0.96751845 0.28212947 2.0695467
v -0.96751845 0 2.0695467
v 1.0369831 0 0.9830346
v 0.96751845 0.28212947 2.0695467
v 1.0369831 0.28212947 0.9830346
v 1.0369831 0 0.9830346
v 0.96751845 0 2.0695467
v 0.96751845 0.28212947 2.0695467
v -0.96751845 0.28212947 2.0695467
v 0.96751845 0.28212947 2.0695467
v 0 0.5803807 2.5584772
v -0.96751845 0.28212947 2.0695467
v 0 0.5803807 2.5584772
v -0.7777374 0.28212947 3.1560588
v 0.96751845 0.28212947 2.0695467
v 0.7777374 0.28212947 3.1560588
v 0 0.5803807 2.5584772
v -0.96751845 0 2.0695467
v -0.7777374 0 3.1560588
v 0.96751845 0 2.0695467
v 0.96751845 0 2.0695467
v -0.7777374 0 3.1560588
v 0.7777374 0 3.1560588
v -0.96751845 0 2.0695467
v -0.96751845 0.28212947 2.0695467
v -0.7777374 0.28212947 3.1560588
v -0.96751845 0 2.0695467
v -0.7777374 0.28212947 3.1560588
v -0.7777374 0 3.1560588
v 0.96751845 0 2.0695467
v 0.7777374 0.28212947 3.1560588
v 0.96751845 0.28212947 2.0695467
v 0.96751845 0 2.0695467
v 0.7777374 0 3.1560588
v 0.7777374 0.28212947 3.1560588
v -0.7777374 0.28212947 3.1560588
v 0.7777374 0.28212947 3.1560588
v 0 0.5803807 3.6449893
v -0.7777374 0.28212947 3.1560588
v 0 0.5803807 3.6449893
v -0 0.28212947 4.242571
v 0.7777374 0.28212947 3.1560588
v 0 0.28212947 4.242571
v 0 0.5803807 3.6449893
v -0.7777374 0 3.1560588
v -0 0 4.242571
v 0.7777374 0 3.1560588
v -0.7777374 0 3.1560588
v -0.7777374 0.28212947 3.1560588
v -0 0.28212947 4.242571
v -0.7777374 0 3.1560588
v -0 0.28212947 4.242571
v -0 0 4.242571
v 0.7777374 0 3.1560588
v 0 0.28212947 4.242571
v 0.7777374 0.28212947 3.1560588
v 0.7777374 0 3.1560588
v 0 0 4.242571
v 0 0.28212947 4.242571
v -0.37806678 0 4.242571
v 0.37806678 0 4.242571
v 0 0.4933236 4.4495254
v -0.37806678 0 -2.2765017
v 0 0.16927768 -2.4317176
v 0.37806678 0 -2.2765017
v 0 0.6287457 -1.7332456
v -0.10801908 0.49977222 -1.8844724
v 0.10801908 0.49977222 -1.8844724
v 0 0.6287457 -0.6467335
v -0.10801908 0.49977222 -0.7979602
v 0.10801908 0.49977222 -0.7979602
v 0 0.6287457 0.43977857
v -0.10801908 0.49977222 0.28855187
v 0.10801908 0.49977222 0.28855187
v 0 0.6287457 1.5262904
v -0.10801908 0.49977222 1.3750637
v 0.10801908 0.49977222 1.3750637
v 0 0.6287457 2.6128025
v -0.10801908 0.49977222 2.4615757
v 0.10801908 0.49977222 2.4615757
v -0.4536801 0.22570358 -1.1030686
v 0.4536801 0.22570358 -1.1030686
v 0 0.38692042 -1.7549758
v -0.6518393 0.08714424 -0.56442183
v -0.8753271 0 -0.68063545
v -0.42835155 0 -0.68063545
v 0 0.08714424 -0.56442183
v -0.22348776 0 -0.68063545
v 0.22348776 0 -0.68063545
v 0.6518393 0.08714424 -0.56442183
v 0.42835155 0 -0.68063545
v 0.8753271 0 -0.68063545
v -0.35310462 0.054465152 -0.6396781
v 0.35310462 0.054465152 -0.6396781
v 0 0.23964666 -0.49857265
v -0.3940774 0.054465152 0.15051246
v 0.3940774 0.054465152 0.15051246
v 0 0.23964666 0.29161793
v -0.40972757 0.054465152 0.94070303
v 0.40972757 0.054465152 0.94070303
v 0 0.23964666 1.0818084
v -0.3940774 0.054465152 1.7308935
v 0.3940774 0.054465152 1.7308935
v 0 0.23964666 1.8719989
v -0.35310462 0.054465152 2.5210843
v 0.35310462 0.054465152 2.5210843
v 0 0.23964666 2.6621897
v 0 0.5991167 -0.062713444
v -0.13036786 0.45750725 -0.27437165
v 0.13036786 0.45750725 -0.27437165
v 0 0.5991167 0.6271356
v -0.13036786 0.45750725 0.41547737
v 0.13036786 0.45750725 0.41547737
v 0 0.5991167 1.3169844
v -0.13036786 0.45750725 1.1053262
v 0.13036786 0.45750725 1.1053262
v 0 0.5991167 2.0068336
v -0.13036786 0.45750725 1.7951753
v 0.13036786 0.45750725 1.7951753
v 0 0.5991167 2.6966822
v -0.13036786 0.45750725 2.485024
v 0.13036786 0.45750725 2.485024
v -0.26073572 0 -1.9989941
v 0.26073572 0 -1.9989941
v 0 0.054465152 -2.2106524
vn 0 -0.85370076 0.52076375
vn 0 -0.85370076 0.52076375
vn 0 -0.85370076 0.52076375
vn 0.42287642 -0.90055245 0.10089986
vn 0.42287642 -0.90055245 0.10089986
vn 0.42287642 -0.90055245 0.10089986
vn -0.42287642 -0.90055245 0.10089986
vn -0.42287642 -0.90055245 0.10089986
vn -0.42287642 -0.90055245 0.10089986
vn 0 1 -0
vn 0 1 -0
vn 0 1 -0
vn 0 1 -0
vn 0 1 -0
vn 0 1 -0
vn 0.9726947 -0 0.23208852
vn 0.9726947 -0 0.23208852
vn 0.9726947 -0 0.23208852
vn 0.9726947 0 0.23208852
vn 0.9726947 0 0.23208852
vn 0.9726947 0 0.23208852
vn -0.9726947 0 0.23208852
vn -0.9726947 0 0.23208852
vn -0.9726947 0 0.23208852
vn -0.9726947 0 0.23208852
vn -0.9726947 0 0.23208852
vn -0.9726947 0 0.23208852
vn 0 -0.8537008 0.5207639
vn 0 -0.8537008 0.5207639
vn 0 -0.8537008 0.5207639
vn 0.32606444 -0.94363034 0.056953713
vn 0.32606444 -0.94363034 0.056953713
vn 0.32606444 -0.94363034 0.056953713
vn -0.32606444 -0.94363034 0.056953713
vn -0.32606444 -0.94363034 0.056953713
vn -0.32606444 -0.94363034 0.056953713
vn 0 1 -0
vn 0 1 -0
vn 0 1 -0
vn 0 1 -0
vn 0 1 -0
vn 0 1 -0
vn 0.9850855 -0 0.172065
vn 0.9850855 -0 0.172065
vn 0.9850855 -0 0.172065
vn 0.9850855 0 0.172065
vn 0.9850855 0 0.172065
vn 0.9850855 0 0.172065
vn -0.9850855 0 0.172065
vn -0.9850855 0 0.172065
vn -0.9850855 0 0.172065
vn -0.9850855 0 0.172065
vn -0.9850855 0 0.172065
vn -0.9850855 0 0.172065
vn 0 -0.85370076 0.5207639
vn 0 -0.85370076 0.5207639
vn 0 -0.85370076 0.5207639
vn 0.28608337 -0.9580301 0.018290337
vn 0.28608337 -0.9580301 0.018290337
vn 0.28608337 -0.9580301 0.018290337
vn -0.28608337 -0.9580301 0.018290337
vn -0.28608337 -0.9580301 0.018290337
vn -0.28608337 -0.9580301 0.018290337
vn 0 1 -0
vn 0 1 -0
vn 0 1 -0
vn 0 1 -0
vn 0 1 -0
vn 0 1 -0
vn 0.9979625 -0 0.06380333
vn 0.9979625 -0 0.06380333
vn 0.9979625 -0 0.06380333
vn 0.9979625 0 0.06380333
vn 0.9979625 0 0.06380333
vn 0.9979625 0 0.06380333
vn -0.9979625 0 0.06380333
vn -0.9979625 0 0.06380333
vn -0.9979625 0 0.06380333
vn -0.9979625 0 0.06380333
vn -0.9979625 0 0.06380333
vn -0.9979625 0 0.06380333
vn 0 -0.85370076 0.52076375
vn 0 -0.85370076 0.52076375
vn 0 -0.85370076 0.52076375
vn 0.28426826 -0.95857245 -0.018174307
vn 0.28426826 -0.95857245 -0.018174307
vn 0.28426826 -0.95857245 -0.018174307
vn -0.28426826 -0.95857245 -0.018174307
vn -0.28426826 -0.95857245 -0.018174307
vn -0.28426826 -0.95857245 -0.018174307
vn 0 1 0
vn 0 1 0
vn 0 1 0
vn 0 1 0
vn 0 1 0
vn 0 1 0
vn 0.9979625 0 -0.06380338
vn 0.9979625 0 -0.06380338
vn 0.9979625 0 -0.06380338
vn 0.9979625 0 -0.06380338
vn 0.9979625 0 -0.06380338
vn 0.9979625 0 -0.06380338
vn -0.9979625 0 -0.06380338
vn -0.9979625 0 -0.06380338
vn -0.9979625 0 -0.06380338
vn -0.9979625 0 -0.06380338
vn -0.9979625 0 -0.06380338
vn -0.9979625 0 -0.06380338
vn 0 -0.8537008 0.5207638
vn 0 -0.8537008 0.5207638
vn 0 -0.8537008 0.5207638
vn 0.319796 -0.94583845 -0.055858765
vn 0.319796 -0.94583845 -0.055858765
vn 0.319796 -0.94583845 -0.055858765
vn -0.319796 -0.94583845 -0.055858765
vn -0.319796 -0.94583845 -0.055858765
vn -0.319796 -0.94583845 -0.055858765
vn 0 1 0
vn 0 1 0
vn 0 1 0
vn 0 1 0
vn 0 1 0
vn 0 1 0
vn 0.98508567 0 -0.17206493
vn 0.98508567 0 -0.17206493
vn 0.98508567 0 -0.17206493
vn 0.98508567 0 -0.17206493
vn 0.98508567 0 -0.17206493
vn 0.98508567 0 -0.17206493
vn -0.98508567 0 -0.17206493
vn -0.98508567 0 -0.17206493
vn -0.98508567 0 -0.17206493
vn -0.98508567 0 -0.17206493
vn -0.98508567 0 -0.17206493
vn -0.98508567 0 -0.17206493
vn 0 -0.8537007 0.5207638
vn 0 -0.8537007 0.5207638
vn 0 -0.8537007 0.5207638
vn 0.52930427 -0.7591347 -0.37888184
vn 0.52930427 -0.7591347 -0.37888184
vn 0.52930427 -0.7591347 -0.37888184
vn -0.52930427 -0.7591347 -0.37888184
vn -0.52930427 -0.7591347 -0.37888184
vn -0.52930427 -0.7591347 -0.37888184
vn 0 1 0
vn 0 1 0
vn 0 1 0
vn 0.8131464 0 -0.5820592
vn 0.8131464 0 -0.5820592
vn 0.8131464 0 -0.5820592
vn 0.8131464 0 -0.5820592
vn 0.8131464 0 -0.5820592
vn 0.8131464 0 -0.5820592
vn -0.8131464 0 -0.5820592
vn -0.8131464 0 -0.5820592
vn -0.8131464 0 -0.5820592
vn -0.8131464 0 -0.5820592
vn -0.8131464 0 -0.5820592
vn -0.8131464 0 -0.5820592
vn 0 -0.3868488 0.9221431
vn 0 -0.3868488 0.9221431
vn 0 -0.3868488 0.9221431
vn 0 -0.67583054 -0.73705703
vn 0 -0.67583054 -0.73705703
vn 0 -0.67583054 -0.73705703
vn 0 -0.7608689 0.64890563
vn 0 -0.7608689 0.64890563
vn 0 -0.7608689 0.64890563
vn 0 -0.7608688 0.64890575
vn 0 -0.7608688 0.64890575
vn 0 -0.7608688 0.64890575
vn 0 -0.7608688 0.64890575
vn 0 -0.7608688 0.64890575
vn 0 -0.7608688 0.64890575
vn 0 -0.7608689 0.64890563
vn 0 -0.7608689 0.64890563
vn 0 -0.7608689 0.64890563
vn 0 -0.7608689 0.64890563
vn 0 -0.7608689 0.64890563
vn 0 -0.7608689 0.64890563
vn -0 0.970756 0.24006826
vn -0 0.970756 0.24006826
vn -0 0.970756 0.24006826
vn 0 -0.80005276 0.5999296
vn 0 -0.80005276 0.5999296
vn 0 -0.80005276 0.5999296
vn 0 -0.8000528 0.5999297
vn 0 -0.8000528 0.5999297
vn 0 -0.8000528 0.5999297
vn 0 -0.80005276 0.5999296
vn 0 -0.80005276 0.5999296
vn 0 -0.80005276 0.5999296
vn 0 -0.60608345 0.79540104
vn 0 -0.60608345 0.79540104
vn 0 -0.60608345 0.79540104
vn 0 -0.60608345 0.79540104
vn 0 -0.60608345 0.79540104
vn 0 -0.60608345 0.79540104
vn 0 -0.6060833 0.79540116
vn 0 -0.6060833 0.79540116
vn 0 -0.6060833 0.79540116
vn 0 -0.6060833 0.79540116
vn 0 -0.6060833 0.79540116
vn 0 -0.6060833 0.79540116
vn 0 -0.6060833 0.79540116
vn 0 -0.6060833 0.79540116
vn 0 -0.6060833 0.79540116
vn 0 -0.83113575 0.55606943
vn 0 -0.83113575 0.55606943
vn 0 -0.83113575 0.55606943
vn 0 -0.83113575 0.55606943
vn 0 -0.83113575 0.55606943
vn 0 -0.83113575 0.55606943
vn 0 -0.83113587 0.55606943
vn 0 -0.83113587 0.55606943
vn 0 -0.83113587 0.55606943
vn 0 -0.83113587 0.55606943
vn 0 -0.83113587 0.55606943
vn 0 -0.83113587 0.55606943
vn 0 -0.83113587 0.55606943
vn 0 -0.83113587 0.55606943
vn 0 -0.83113587 0.55606943
vn -0 0.9684502 0.24920733
vn -0 0.9684502 0.24920733
vn -0 0.9684502 0.24920733
f 1//1 2//2 3//3
f 4//4 5//5 6//6
f 7//7 8//8 9//9
f 10//10 11//11 12//12
f 13//13 14//14 15//15
f 16//16 17//17 18//18
f 19//19 20//20 21//21
f 22//22 23//23 24//24
f 25//25 26//26 27//27
f 28//28 29//29 30//30
f 31//31 32//32 33//33
f 34//34 35//35 36//36
f 37//37 38//38 39//39
f 40//40 41//41 42//42
f 43//43 44//44 45//45
f 46//46 47//47 48//48
f 49//49 50//50 51//51
f 52//52 53//53 54//54
f 55//55 56//56 57//57
f 58//58 59//59 60//60
f 61//61 62//62 63//63
f 64//64 65//65 66//66
f 67//67 68//68 69//69
f 70//70 71//71 72//72
f 73//73 74//74 75//75
f 76//76 77//77 78//78
f 79//79 80//80 81//81
f 82//82 83//83 84//84
f 85//85 86//86 87//87
f 88//88 89//89 90//90
f 91//91 92//92 93//93
f 94//94 95//95 96//96
f 97//97 98//98 99//99
f 100//100 101//101 102//102
f 103//103 104//104 105//105
f 106//106 107//107 108//108
f 109//109 110//110 111//111
f 112//112 113//113 114//114
f 115//115 116//116 117//117
f 118//118 119//119 120//120
f 121//121 122//122 123//123
f 124//124 125//125 126//126
f 127//127 128//128 129//129
f 130//130 131//131 132//132
f 133//133 134//134 135//135
f 136//136 137//137 138//138
f 139//139 140//140 141//141
f 142//142 143//143 144//144
f 145//145 146//146 147//147
f 148//148 149//149 150//150
f 151//151 152//152 153//153
f 154//154 155//155 156//156
f 157//157 158//158 159//159
f 160//160 161//161 162//162
f 163//163 164//164 165//165
f 166//166 167//167 168//168
f 169//169 170//170 171//171
f 172//172 173//173 174//174
f 175//175 176//176 177//177
f 178//178 179//179 180//180
f 181//181 182//182 183//183
f 184//184 185//185 186//186
f 187//187 188//188 189//189
f 190//190 191//191 192//192
f 193//193 194//194 195//195
f 196//196 197//197 198//198
f 199//199 200//200 201//201
f 202//202 203//203 204//204
f 205//205 206//206 207//207
f 208//208 209//209 210//210
f 211//211 212//212 213//213
f 214//214 215//215 216//216
f 217//217 218//218 219//219
f 220//220 221//221 222//222
f 223//223 224//224 225//225
