# Exported from SharpOpenGl procedural mesh
o vesper_support_mk2_32
# vertices 117
v -0.6283803 0.27450436 -3.0655334
v 0.6283803 0.27450436 -3.0655334
v 0 0.5646947 -2.492836
v -0.6283803 0.27450436 -3.0655334
v 0 0.5646947 -2.492836
v -0.8854449 0.27450436 -1.7928724
v 0.6283803 0.27450436 -3.0655334
v 0.8854449 0.27450436 -1.7928724
v 0 0.5646947 -2.492836
v -0.6283803 0 -3.0655334
v -0.8854449 0 -1.7928724
v 0.6283803 0 -3.0655334
v 0.6283803 0 -3.0655334
v -0.8854449 0 -1.7928724
v 0.8854449 0 -1.7928724
v -0.8854449 0.27450436 -1.7928724
v 0.8854449 0.27450436 -1.7928724
v 0 0.5646947 -1.220175
v -0.8854449 0.27450436 -1.7928724
v 0 0.5646947 -1.220175
v -1.0736294 0.27450436 -0.52021146
v 0.8854449 0.27450436 -1.7928724
v 1.0736294 0.27450436 -0.52021146
v 0 0.5646947 -1.220175
v -0.8854449 0 -1.7928724
v -1.0736294 0 -0.52021146
v 0.8854449 0 -1.7928724
v 0.8854449 0 -1.7928724
v -1.0736294 0 -0.52021146
v 1.0736294 0 -0.52021146
v -1.0736294 0.27450436 -0.52021146
v 1.0736294 0.27450436 -0.52021146
v 0 0.5646947 0.052485883
v -1.0736294 0.27450436 -0.52021146
v 0 0.5646947 0.052485883
v -1.1425096 0.27450436 0.7524493
v 1.0736294 0.27450436 -0.52021146
v 1.1425096 0.27450436 0.7524493
v 0 0.5646947 0.052485883
v -1.0736294 0 -0.52021146
v -1.1425096 0 0.7524493
v 1.0736294 0 -0.52021146
v 1.0736294 0 -0.52021146
v -1.1425096 0 0.7524493
v 1.1425096 0 0.7524493
v -1.1425096 0.27450436 0.7524493
v 1.1425096 0.27450436 0.7524493
v 0 0.5646947 1.3251468
v -1.1425096 0.27450436 0.7524493
v 0 0.5646947 1.3251468
v -1.0736294 0.27450436 2.0251105
v 1.1425096 0.27450436 0.7524493
v 1.0736294 0.27450436 2.0251105
v 0 0.5646947 1.3251468
v -1.1425096 0 0.7524493
v -1.0736294 0 2.0251105
v 1.1425096 0 0.7524493
v 1.1425096 0 0.7524493
v -1.0736294 0 2.0251105
v 1.0736294 0 2.0251105
v -1.0736294 0.27450436 2.0251105
v 1.0736294 0.27450436 2.0251105
v 0 0.5646947 2.5978076
v -1.0736294 0.27450436 2.0251105
v 0 0.5646947 2.5978076
v -0.81985646 0.27450436 3.2977707
v 1.0736294 0.27450436 2.0251105
v 0.81985646 0.27450436 3.2977707
v 0 0.5646947 2.5978076
v -1.0736294 0 2.0251105
v -0.81985646 0 3.2977707
v 1.0736294 0 2.0251105
v 1.0736294 0 2.0251105
v -0.81985646 0 3.2977707
v 0.81985646 0 3.2977707
v -0.81985646 0.27450436 3.2977707
v 0.81985646 0.27450436 3.2977707
v 0 0.5646947 3.8704681
v -0.81985646 0.27450436 3.2977707
v 0 0.5646947 3.8704681
v -0 0.27450436 4.5704317
v 0.81985646 0.27450436 3.2977707
v 0 0.27450436 4.5704317
v 0 0.5646947 3.8704681
v -0.81985646 0 3.2977707
v -0 0 4.5704317
v 0.81985646 0 3.2977707
v 0.81985646 0 3.2977707
v -0 0 4.5704317
v 0 0 4.5704317
v 0 0.61175257 -2.429203
v -0.091400765 0.48626488 -2.5663042
v 0.091400765 0.48626488 -2.5663042
v 0 0.61175257 -1.1565421
v -0.091400765 0.48626488 -1.2936432
v 0.091400765 0.48626488 -1.2936432
v 0 0.61175257 0.11611867
v -0.091400765 0.48626488 -0.020982474
v 0.091400765 0.48626488 -0.020982474
v 0 0.61175257 1.3887794
v -0.091400765 0.48626488 1.2516782
v 0.091400765 0.48626488 1.2516782
v 0 0.61175257 2.6614406
v -0.091400765 0.48626488 2.5243394
v 0.091400765 0.48626488 2.5243394
v -0.47985402 0.2196035 -0.8360546
v 0.47985402 0.2196035 -0.8360546
v 0 0.32940522 -1.5606352
v -0.68944544 0.08714424 -3.0049498
v -0.9258267 0 -3.5249887
v -0.45306414 0 -3.5249887
v 0 0.08714424 -3.0049498
v -0.23638129 0 -3.5249887
v 0.23638129 0 -3.5249887
v 0.68944544 0.08714424 -3.0049498
v 0.45306414 0 -3.5249887
v 0.9258267 0 -3.5249887
vn 0 -0.89202094 0.4519941
vn 0 -0.89202094 0.4519941
vn 0 -0.89202094 0.4519941
vn 0.36237842 -0.9291524 0.07319676
vn 0.36237842 -0.9291524 0.07319676
vn 0.36237842 -0.9291524 0.07319676
vn -0.36237842 -0.9291524 0.07319676
vn -0.36237842 -0.9291524 0.07319676
vn -0.36237842 -0.9291524 0.07319676
vn 0 1 -0
vn 0 1 -0
vn 0 1 -0
vn 0 1 -0
vn 0 1 -0
vn 0 1 -0
vn 0 -0.8920209 0.45199406
vn 0 -0.8920209 0.45199406
vn 0 -0.8920209 0.45199406
vn 0.2863225 -0.9571974 0.042337634
vn 0.2863225 -0.9571974 0.042337634
vn 0.2863225 -0.9571974 0.042337634
vn -0.2863225 -0.9571974 0.042337634
vn -0.2863225 -0.9571974 0.042337634
vn -0.2863225 -0.9571974 0.042337634
vn 0 1 -0
vn 0 1 -0
vn 0 1 -0
vn 0 1 -0
vn 0 1 -0
vn 0 1 -0
vn 0 -0.8920209 0.45199415
vn 0 -0.8920209 0.45199415
vn 0 -0.8920209 0.45199415
vn 0.25405934 -0.96709085 0.013750451
vn 0.25405934 -0.96709085 0.013750451
vn 0.25405934 -0.96709085 0.013750451
vn -0.25405934 -0.96709085 0.013750451
vn -0.25405934 -0.96709085 0.013750451
vn -0.25405934 -0.96709085 0.013750451
vn 0 1 -0
vn 0 1 -0
vn 0 1 -0
vn 0 1 -0
vn 0 1 -0
vn 0 1 -0
vn 0 -0.892021 0.45199403
vn 0 -0.892021 0.45199403
vn 0 -0.892021 0.45199403
vn 0.25258598 -0.96747786 -0.013670703
vn 0.25258598 -0.96747786 -0.013670703
vn 0.25258598 -0.96747786 -0.013670703
vn -0.25258598 -0.96747786 -0.013670703
vn -0.25258598 -0.96747786 -0.013670703
vn -0.25258598 -0.96747786 -0.013670703
vn 0 1 0
vn 0 1 0
vn 0 1 0
vn 0 1 0
vn 0 1 0
vn 0 1 0
vn 0 -0.8920209 0.45199424
vn 0 -0.8920209 0.45199424
vn 0 -0.8920209 0.45199424
vn 0.2890268 -0.9555846 -0.057632957
vn 0.2890268 -0.9555846 -0.057632957
vn 0.2890268 -0.9555846 -0.057632957
vn -0.2890268 -0.9555846 -0.057632957
vn -0.2890268 -0.9555846 -0.057632957
vn -0.2890268 -0.9555846 -0.057632957
vn 0 1 0
vn 0 1 0
vn 0 1 0
vn 0 1 0
vn 0 1 0
vn 0 1 0
vn 0 -0.892021 0.45199415
vn 0 -0.892021 0.45199415
vn 0 -0.892021 0.45199415
vn 0.5110064 -0.7940429 -0.32919362
vn 0.5110064 -0.7940429 -0.32919362
vn 0.5110064 -0.7940429 -0.32919362
vn -0.5110064 -0.7940429 -0.32919362
vn -0.5110064 -0.7940429 -0.32919362
vn -0.5110064 -0.7940429 -0.32919362
vn 0 1 0
vn 0 1 0
vn 0 1 0
vn 0 1 0
vn 0 1 0
vn 0 1 0
vn 0 -0.73765886 0.6751737
vn 0 -0.73765886 0.6751737
vn 0 -0.73765886 0.6751737
vn 0 -0.73765886 0.6751737
vn 0 -0.73765886 0.6751737
vn 0 -0.73765886 0.6751737
vn 0 -0.7376588 0.67517376
vn 0 -0.7376588 0.67517376
vn 0 -0.7376588 0.67517376
vn 0 -0.73765886 0.6751737
vn 0 -0.73765886 0.6751737
vn 0 -0.73765886 0.6751737
vn 0 -0.73765886 0.6751737
vn 0 -0.73765886 0.6751737
vn 0 -0.73765886 0.6751737
vn -0 0.9887122 0.14982778
vn -0 0.9887122 0.14982778
vn -0 0.9887122 0.14982778
vn 0 -0.98624873 0.16526821
vn 0 -0.98624873 0.16526821
vn 0 -0.98624873 0.16526821
vn 0 -0.98624873 0.16526821
vn 0 -0.98624873 0.16526821
vn 0 -0.98624873 0.16526821
vn 0 -0.98624873 0.16526821
vn 0 -0.98624873 0.16526821
vn 0 -0.98624873 0.16526821
f 1//1 2//2 3//3
f 4//4 5//5 6//6
f 7//7 8//8 9//9
f 10//10 11//11 12//12
f 13//13 14//14 15//15
f 16//16 17//17 18//18
f 19//19 20//20 21//21
f 22//22 23//23 24//24
f 25//25 26//26 27//27
f 28//28 29//29 30//30
f 31//31 32//32 33//33
f 34//34 35//35 36//36
f 37//37 38//38 39//39
f 40//40 41//41 42//42
f 43//43 44//44 45//45
f 46//46 47//47 48//48
f 49//49 50//50 51//51
f 52//52 53//53 54//54
f 55//55 56//56 57//57
f 58//58 59//59 60//60
f 61//61 62//62 63//63
f 64//64 65//65 66//66
f 67//67 68//68 69//69
f 70//70 71//71 72//72
f 73//73 74//74 75//75
f 76//76 77//77 78//78
f 79//79 80//80 81//81
f 82//82 83//83 84//84
f 85//85 86//86 87//87
f 88//88 89//89 90//90
f 91//91 92//92 93//93
f 94//94 95//95 96//96
f 97//97 98//98 99//99
f 100//100 101//101 102//102
f 103//103 104//104 105//105
f 106//106 107//107 108//108
f 109//109 110//110 111//111
f 112//112 113//113 114//114
f 115//115 116//116 117//117
