# Exported from SharpOpenGl procedural mesh
o vesper_gunship_mk2_23
# vertices 117
v -0.6483719 0.28172293 -3.2266989
v 0.6483719 0.28172293 -3.2266989
v 0 0.57954437 -2.6238928
v -0.6483719 0.28172293 -3.2266989
v 0 0.57954437 -2.6238928
v -0.91361487 0.28172293 -1.88713
v 0.6483719 0.28172293 -3.2266989
v 0.91361487 0.28172293 -1.88713
v 0 0.57954437 -2.6238928
v -0.6483719 0 -3.2266989
v -0.91361487 0 -1.88713
v 0.6483719 0 -3.2266989
v 0.6483719 0 -3.2266989
v -0.91361487 0 -1.88713
v 0.91361487 0 -1.88713
v -0.91361487 0.28172293 -1.88713
v 0.91361487 0.28172293 -1.88713
v 0 0.57954437 -1.284324
v -0.91361487 0.28172293 -1.88713
v 0 0.57954437 -1.284324
v -1.1077863 0.28172293 -0.54756117
v 0.91361487 0.28172293 -1.88713
v 1.1077863 0.28172293 -0.54756117
v 0 0.57954437 -1.284324
v -0.91361487 0 -1.88713
v -1.1077863 0 -0.54756117
v 0.91361487 0 -1.88713
v 0.91361487 0 -1.88713
v -1.1077863 0 -0.54756117
v 1.1077863 0 -0.54756117
v -1.1077863 0.28172293 -0.54756117
v 1.1077863 0.28172293 -0.54756117
v 0 0.57954437 0.055244684
v -1.1077863 0.28172293 -0.54756117
v 0 0.57954437 0.055244684
v -1.1788579 0.28172293 0.79200745
v 1.1077863 0.28172293 -0.54756117
v 1.1788579 0.28172293 0.79200745
v 0 0.57954437 0.055244684
v -1.1077863 0 -0.54756117
v -1.1788579 0 0.79200745
v 1.1077863 0 -0.54756117
v 1.1077863 0 -0.54756117
v -1.1788579 0 0.79200745
v 1.1788579 0 0.79200745
v -1.1788579 0.28172293 0.79200745
v 1.1788579 0.28172293 0.79200745
v 0 0.57954437 1.3948135
v -1.1788579 0.28172293 0.79200745
v 0 0.57954437 1.3948135
v -1.1077863 0.28172293 2.1315765
v 1.1788579 0.28172293 0.79200745
v 1.1077863 0.28172293 2.1315765
v 0 0.57954437 1.3948135
v -1.1788579 0 0.79200745
v -1.1077863 0 2.1315765
v 1.1788579 0 0.79200745
v 1.1788579 0 0.79200745
v -1.1077863 0 2.1315765
v 1.1077863 0 2.1315765
v -1.1077863 0.28172293 2.1315765
v 1.1077863 0.28172293 2.1315765
v 0 0.57954437 2.7343822
v -1.1077863 0.28172293 2.1315765
v 0 0.57954437 2.7343822
v -0.8459398 0.28172293 3.4711447
v 1.1077863 0.28172293 2.1315765
v 0.8459398 0.28172293 3.4711447
v 0 0.57954437 2.7343822
v -1.1077863 0 2.1315765
v -0.8459398 0 3.4711447
v 1.1077863 0 2.1315765
v 1.1077863 0 2.1315765
v -0.8459398 0 3.4711447
v 0.8459398 0 3.4711447
v -0.8459398 0.28172293 3.4711447
v 0.8459398 0.28172293 3.4711447
v 0 0.57954437 4.073951
v -0.8459398 0.28172293 3.4711447
v 0 0.57954437 4.073951
v -0 0.28172293 4.810714
v 0.8459398 0.28172293 3.4711447
v 0 0.28172293 4.810714
v 0 0.57954437 4.073951
v -0.8459398 0 3.4711447
v -0 0 4.810714
v 0.8459398 0 3.4711447
v 0.8459398 0 3.4711447
v -0 0 4.810714
v 0 0 4.810714
v 0 0.6278397 -2.5569143
v -0.09430863 0.49905208 -2.6983774
v 0.09430863 0.49905208 -2.6983774
v 0 0.6278397 -1.2173457
v -0.09430863 0.49905208 -1.3588086
v 0.09430863 0.49905208 -1.3588086
v 0 0.6278397 0.1222229
v -0.09430863 0.49905208 -0.019240052
v 0.09430863 0.49905208 -0.019240052
v 0 0.6278397 1.4617915
v -0.09430863 0.49905208 1.3203286
v 0.09430863 0.49905208 1.3203286
v 0 0.6278397 2.8013606
v -0.09430863 0.49905208 2.6598976
v 0.09430863 0.49905208 2.6598976
v -0.49512032 0.22537836 -0.88000876
v 0.49512032 0.22537836 -0.88000876
v 0 0.33806753 -1.642683
v -0.71137977 0.08943585 -3.16293
v -0.9918666 0 -3.7800012
v -0.4308929 0 -3.7800012
v 0 0.08943585 -3.16293
v -0.28048685 0 -3.7800012
v 0.28048685 0 -3.7800012
v 0.71137977 0.08943585 -3.16293
v 0.4308929 0 -3.7800012
v 0.9918666 0 -3.7800012
vn 0 -0.8965478 0.44294697
vn 0 -0.8965478 0.44294697
vn 0 -0.8965478 0.44294697
vn 0.36074096 -0.92992675 0.07142896
vn 0.36074096 -0.92992675 0.07142896
vn 0.36074096 -0.92992675 0.07142896
vn -0.36074096 -0.92992675 0.07142896
vn -0.36074096 -0.92992675 0.07142896
vn -0.36074096 -0.92992675 0.07142896
vn 0 1 -0
vn 0 1 -0
vn 0 1 -0
vn 0 1 -0
vn 0 1 -0
vn 0 1 -0
vn 0 -0.89654773 0.4429471
vn 0 -0.89654773 0.4429471
vn 0 -0.89654773 0.4429471
vn 0.28492862 -0.9576586 0.0413006
vn 0.28492862 -0.9576586 0.0413006
vn 0.28492862 -0.9576586 0.0413006
vn -0.28492862 -0.9576586 0.0413006
vn -0.28492862 -0.9576586 0.0413006
vn -0.28492862 -0.9576586 0.0413006
vn 0 1 -0
vn 0 1 -0
vn 0 1 -0
vn 0 1 -0
vn 0 1 -0
vn 0 1 -0
vn 0 -0.8965477 0.44294715
vn 0 -0.8965477 0.44294715
vn 0 -0.8965477 0.44294715
vn 0.252789 -0.96742845 0.013411872
vn 0.252789 -0.96742845 0.013411872
vn 0.252789 -0.96742845 0.013411872
vn -0.252789 -0.96742845 0.013411872
vn -0.252789 -0.96742845 0.013411872
vn -0.252789 -0.96742845 0.013411872
vn 0 1 -0
vn 0 1 -0
vn 0 1 -0
vn 0 0.99999994 -0
vn 0 0.99999994 -0
vn 0 0.99999994 -0
vn 0 -0.8965478 0.442947
vn 0 -0.8965478 0.442947
vn 0 -0.8965478 0.442947
vn 0.25132197 -0.9678117 -0.013334035
vn 0.25132197 -0.9678117 -0.013334035
vn 0.25132197 -0.9678117 -0.013334035
vn -0.25132197 -0.9678117 -0.013334035
vn -0.25132197 -0.9678117 -0.013334035
vn -0.25132197 -0.9678117 -0.013334035
vn 0 0.99999994 0
vn 0 0.99999994 0
vn 0 0.99999994 0
vn 0 1 0
vn 0 1 0
vn 0 1 0
vn 0 -0.8965477 0.4429473
vn 0 -0.8965477 0.4429473
vn 0 -0.8965477 0.4429473
vn 0.28763294 -0.95608896 -0.056223843
vn 0.28763294 -0.95608896 -0.056223843
vn 0.28763294 -0.95608896 -0.056223843
vn -0.28763294 -0.95608896 -0.056223843
vn -0.28763294 -0.95608896 -0.056223843
vn -0.28763294 -0.95608896 -0.056223843
vn 0 0.99999994 0
vn 0 0.99999994 0
vn 0 0.99999994 0
vn 0 0.99999994 0
vn 0 0.99999994 0
vn 0 0.99999994 0
vn 0 -0.8965478 0.442947
vn 0 -0.8965478 0.442947
vn 0 -0.8965478 0.442947
vn 0.5103522 -0.7972898 -0.32228813
vn 0.5103522 -0.7972898 -0.32228813
vn 0.5103522 -0.7972898 -0.32228813
vn -0.5103522 -0.7972898 -0.32228813
vn -0.5103522 -0.7972898 -0.32228813
vn -0.5103522 -0.7972898 -0.32228813
vn 0 1 0
vn 0 1 0
vn 0 1 0
vn 0 1 0
vn 0 1 0
vn 0 1 0
vn 0 -0.7394589 0.6732016
vn 0 -0.7394589 0.6732016
vn 0 -0.7394589 0.6732016
vn 0 -0.7394587 0.673202
vn 0 -0.7394587 0.673202
vn 0 -0.7394587 0.673202
vn 0 -0.73945874 0.67320186
vn 0 -0.73945874 0.67320186
vn 0 -0.73945874 0.67320186
vn 0 -0.7394587 0.673202
vn 0 -0.7394587 0.673202
vn 0 -0.7394587 0.673202
vn 0 -0.7394589 0.6732016
vn 0 -0.7394589 0.6732016
vn 0 -0.7394589 0.6732016
vn -0 0.9892598 0.14616837
vn -0 0.9892598 0.14616837
vn -0 0.9892598 0.14616837
vn 0 -0.98965937 0.14343733
vn 0 -0.98965937 0.14343733
vn 0 -0.98965937 0.14343733
vn 0 -0.98965937 0.14343733
vn 0 -0.98965937 0.14343733
vn 0 -0.98965937 0.14343733
vn 0 -0.98965937 0.14343733
vn 0 -0.98965937 0.14343733
vn 0 -0.98965937 0.14343733
f 1//1 2//2 3//3
f 4//4 5//5 6//6
f 7//7 8//8 9//9
f 10//10 11//11 12//12
f 13//13 14//14 15//15
f 16//16 17//17 18//18
f 19//19 20//20 21//21
f 22//22 23//23 24//24
f 25//25 26//26 27//27
f 28//28 29//29 30//30
f 31//31 32//32 33//33
f 34//34 35//35 36//36
f 37//37 38//38 39//39
f 40//40 41//41 42//42
f 43//43 44//44 45//45
f 46//46 47//47 48//48
f 49//49 50//50 51//51
f 52//52 53//53 54//54
f 55//55 56//56 57//57
f 58//58 59//59 60//60
f 61//61 62//62 63//63
f 64//64 65//65 66//66
f 67//67 68//68 69//69
f 70//70 71//71 72//72
f 73//73 74//74 75//75
f 76//76 77//77 78//78
f 79//79 80//80 81//81
f 82//82 83//83 84//84
f 85//85 86//86 87//87
f 88//88 89//89 90//90
f 91//91 92//92 93//93
f 94//94 95//95 96//96
f 97//97 98//98 99//99
f 100//100 101//101 102//102
f 103//103 104//104 105//105
f 106//106 107//107 108//108
f 109//109 110//110 111//111
f 112//112 113//113 114//114
f 115//115 116//116 117//117
