# Exported from SharpOpenGl procedural mesh
o vesper_drone_mk1_03
# vertices 219
v -0.10379316 0.056517016 -0.50921035
v 0.10379316 0.056517016 -0.50921035
v 0 0.11626358 -0.39984584
v -0.10379316 0.056517016 -0.50921035
v 0 0.11626358 -0.39984584
v -0.15568973 0.056517016 -0.26617813
v 0.10379316 0.056517016 -0.50921035
v 0.15568973 0.056517016 -0.26617813
v 0 0.11626358 -0.39984584
v -0.10379316 0 -0.50921035
v -0.15568973 0 -0.26617813
v 0.10379316 0 -0.50921035
v 0.10379316 0 -0.50921035
v -0.15568973 0 -0.26617813
v 0.15568973 0 -0.26617813
v -0.10379316 0 -0.50921035
v -0.10379316 0.056517016 -0.50921035
v -0.15568973 0.056517016 -0.26617813
v -0.10379316 0 -0.50921035
v -0.15568973 0.056517016 -0.26617813
v -0.15568973 0 -0.26617813
v 0.10379316 0 -0.50921035
v 0.15568973 0.056517016 -0.26617813
v 0.10379316 0.056517016 -0.50921035
v 0.10379316 0 -0.50921035
v 0.15568973 0 -0.26617813
v 0.15568973 0.056517016 -0.26617813
v -0.15568973 0.056517016 -0.26617813
v 0.15568973 0.056517016 -0.26617813
v 0 0.11626358 -0.15681364
v -0.15568973 0.056517016 -0.26617813
v 0 0.11626358 -0.15681364
v -0.19368069 0.056517016 -0.023145914
v 0.15568973 0.056517016 -0.26617813
v 0.19368069 0.056517016 -0.023145914
v 0 0.11626358 -0.15681364
v -0.15568973 0 -0.26617813
v -0.19368069 0 -0.023145914
v 0.15568973 0 -0.26617813
v 0.15568973 0 -0.26617813
v -0.19368069 0 -0.023145914
v 0.19368069 0 -0.023145914
v -0.15568973 0 -0.26617813
v -0.15568973 0.056517016 -0.26617813
v -0.19368069 0.056517016 -0.023145914
v -0.15568973 0 -0.26617813
v -0.19368069 0.056517016 -0.023145914
v -0.19368069 0 -0.023145914
v 0.15568973 0 -0.26617813
v 0.19368069 0.056517016 -0.023145914
v 0.15568973 0.056517016 -0.26617813
v 0.15568973 0 -0.26617813
v 0.19368069 0 -0.023145914
v 0.19368069 0.056517016 -0.023145914
v -0.19368069 0.056517016 -0.023145914
v 0.19368069 0.056517016 -0.023145914
v 0 0.11626358 0.08621858
v -0.19368069 0.056517016 -0.023145914
v 0 0.11626358 0.08621858
v -0.20758632 0.056517016 0.2198863
v 0.19368069 0.056517016 -0.023145914
v 0.20758632 0.056517016 0.2198863
v 0 0.11626358 0.08621858
v -0.19368069 0 -0.023145914
v -0.20758632 0 0.2198863
v 0.19368069 0 -0.023145914
v 0.19368069 0 -0.023145914
v -0.20758632 0 0.2198863
v 0.20758632 0 0.2198863
v -0.19368069 0 -0.023145914
v -0.19368069 0.056517016 -0.023145914
v -0.20758632 0.056517016 0.2198863
v -0.19368069 0 -0.023145914
v -0.20758632 0.056517016 0.2198863
v -0.20758632 0 0.2198863
v 0.19368069 0 -0.023145914
v 0.20758632 0.056517016 0.2198863
v 0.19368069 0.056517016 -0.023145914
v 0.19368069 0 -0.023145914
v 0.20758632 0 0.2198863
v 0.20758632 0.056517016 0.2198863
v -0.20758632 0.056517016 0.2198863
v 0.20758632 0.056517016 0.2198863
v 0 0.11626358 0.3292508
v -0.20758632 0.056517016 0.2198863
v 0 0.11626358 0.3292508
v -0.19368067 0.056517016 0.46291852
v 0.20758632 0.056517016 0.2198863
v 0.19368067 0.056517016 0.46291852
v 0 0.11626358 0.3292508
v -0.20758632 0 0.2198863
v -0.19368067 0 0.46291852
v 0.20758632 0 0.2198863
v 0.20758632 0 0.2198863
v -0.19368067 0 0.46291852
v 0.19368067 0 0.46291852
v -0.20758632 0 0.2198863
v -0.20758632 0.056517016 0.2198863
v -0.19368067 0.056517016 0.46291852
v -0.20758632 0 0.2198863
v -0.19368067 0.056517016 0.46291852
v -0.19368067 0 0.46291852
v 0.20758632 0 0.2198863
v 0.19368067 0.056517016 0.46291852
v 0.20758632 0.056517016 0.2198863
v 0.20758632 0 0.2198863
v 0.19368067 0 0.46291852
v 0.19368067 0.056517016 0.46291852
v -0.19368067 0.056517016 0.46291852
v 0.19368067 0.056517016 0.46291852
v 0 0.11626358 0.572283
v -0.19368067 0.056517016 0.46291852
v 0 0.11626358 0.572283
v -0.15568975 0.056517016 0.70595074
v 0.19368067 0.056517016 0.46291852
v 0.15568975 0.056517016 0.70595074
v 0 0.11626358 0.572283
v -0.19368067 0 0.46291852
v -0.15568975 0 0.70595074
v 0.19368067 0 0.46291852
v 0.19368067 0 0.46291852
v -0.15568975 0 0.70595074
v 0.15568975 0 0.70595074
v -0.19368067 0 0.46291852
v -0.19368067 0.056517016 0.46291852
v -0.15568975 0.056517016 0.70595074
v -0.19368067 0 0.46291852
v -0.15568975 0.056517016 0.70595074
v -0.15568975 0 0.70595074
v 0.19368067 0 0.46291852
v 0.15568975 0.056517016 0.70595074
v 0.19368067 0.056517016 0.46291852
v 0.19368067 0 0.46291852
v 0.15568975 0 0.70595074
v 0.15568975 0.056517016 0.70595074
v -0.15568975 0.056517016 0.70595074
v 0.15568975 0.056517016 0.70595074
v 0 0.11626358 0.81531525
v -0.15568975 0.056517016 0.70595074
v 0 0.11626358 0.81531525
v -0 0.056517016 0.94898295
v 0.15568975 0.056517016 0.70595074
v 0 0.056517016 0.94898295
v 0 0.11626358 0.81531525
v -0.15568975 0 0.70595074
v -0 0 0.94898295
v 0.15568975 0 0.70595074
v 0.15568975 0 0.70595074
v -0 0 0.94898295
v 0 0 0.94898295
v -0.15568975 0 0.70595074
v -0.15568975 0.056517016 0.70595074
v -0 0.056517016 0.94898295
v -0.15568975 0 0.70595074
v -0 0.056517016 0.94898295
v -0 0 0.94898295
v 0.15568975 0 0.70595074
v 0 0.056517016 0.94898295
v 0.15568975 0.056517016 0.70595074
v 0.15568975 0 0.70595074
v 0 0 0.94898295
v 0 0.056517016 0.94898295
v -0.07568251 0 0.94898295
v 0.07568251 0 0.94898295
v 0 0.09882405 0.9952748
v -0.07568251 0 -0.50921035
v 0 0.03391021 -0.5439292
v 0.07568251 0 -0.50921035
v 0 0.1259522 -0.38769424
v -0.021623576 0.10011586 -0.41796726
v 0.021623576 0.10011586 -0.41796726
v 0 0.1259522 -0.14466202
v -0.021623576 0.10011586 -0.17493503
v 0.021623576 0.10011586 -0.17493503
v 0 0.1259522 0.098370194
v -0.021623576 0.10011586 0.06809719
v 0.021623576 0.10011586 0.06809719
v 0 0.1259522 0.3414024
v -0.021623576 0.10011586 0.3111294
v 0.021623576 0.10011586 0.3111294
v 0 0.1259522 0.5844346
v -0.021623576 0.10011586 0.5541616
v 0.021623576 0.10011586 0.5541616
v -0.10438968 0.017456992 -0.14729226
v -0.1267589 0 -0.15959533
v -0.08202046 0 -0.15959533
v 0.10438968 0.017456992 -0.14729226
v 0.08202046 0 -0.15959533
v 0.1267589 0 -0.15959533
v -0.07068551 0.010910621 -0.1430839
v 0.07068551 0.010910621 -0.1430839
v 0 0.04800673 -0.111521274
v -0.07888756 0.010910621 0.03366682
v 0.07888756 0.010910621 0.03366682
v 0 0.04800673 0.065229446
v -0.08202046 0.010910621 0.21041751
v 0.08202046 0.010910621 0.21041751
v 0 0.04800673 0.24198014
v -0.07888756 0.010910621 0.38716823
v 0.07888756 0.010910621 0.38716823
v 0 0.04800673 0.41873085
v -0.07068551 0.010910621 0.5639189
v 0.07068551 0.010910621 0.5639189
v 0 0.04800673 0.5954815
v 0 0.12001683 -0.014027819
v -0.02609742 0.09164921 -0.061371762
v 0.02609742 0.09164921 -0.061371762
v 0 0.12001683 0.14027837
v -0.02609742 0.09164921 0.09293443
v 0.02609742 0.09164921 0.09293443
v 0 0.12001683 0.29458454
v -0.02609742 0.09164921 0.2472406
v 0.02609742 0.09164921 0.2472406
v 0 0.12001683 0.44889075
v -0.02609742 0.09164921 0.4015468
v 0.02609742 0.09164921 0.4015468
v 0 0.12001683 0.6031969
v -0.02609742 0.09164921 0.55585295
v 0.02609742 0.09164921 0.55585295
vn 0 -0.877581 0.47942838
vn 0 -0.877581 0.47942838
vn 0 -0.877581 0.47942838
vn 0.42354617 -0.9013483 0.090443134
vn 0.42354617 -0.9013483 0.090443134
vn 0.42354617 -0.9013483 0.090443134
vn -0.42354617 -0.9013483 0.090443134
vn -0.42354617 -0.9013483 0.090443134
vn -0.42354617 -0.9013483 0.090443134
vn 0 1 -0
vn 0 1 -0
vn 0 1 -0
vn 0 1 -0
vn 0 1 -0
vn 0 1 -0
vn 0.977952 -0 0.20882975
vn 0.977952 -0 0.20882975
vn 0.977952 -0 0.20882975
vn 0.977952 0 0.20882975
vn 0.977952 0 0.20882975
vn 0.977952 0 0.20882975
vn -0.977952 0 0.20882975
vn -0.977952 0 0.20882975
vn -0.977952 0 0.20882975
vn -0.977952 0 0.20882975
vn -0.977952 0 0.20882975
vn -0.977952 0 0.20882975
vn 0 -0.877581 0.47942847
vn 0 -0.877581 0.47942847
vn 0 -0.877581 0.47942847
vn 0.32637304 -0.94386315 0.051018853
vn 0.32637304 -0.94386315 0.051018853
vn 0.32637304 -0.94386315 0.051018853
vn -0.32637304 -0.94386315 0.051018853
vn -0.32637304 -0.94386315 0.051018853
vn -0.32637304 -0.94386315 0.051018853
vn 0 1 -0
vn 0 1 -0
vn 0 1 -0
vn 0 1 -0
vn 0 1 -0
vn 0 1 -0
vn 0.98800135 -0 0.15444504
vn 0.98800135 -0 0.15444504
vn 0.98800135 -0 0.15444504
vn 0.98800135 0 0.15444504
vn 0.98800135 0 0.15444504
vn 0.98800135 0 0.15444504
vn -0.98800135 0 0.15444504
vn -0.98800135 0 0.15444504
vn -0.98800135 0 0.15444504
vn -0.98800135 0 0.15444504
vn -0.98800135 0 0.15444504
vn -0.98800135 0 0.15444504
vn 0 -0.87758094 0.47942847
vn 0 -0.87758094 0.47942847
vn 0 -0.87758094 0.47942847
vn 0.28627658 -0.95800704 0.01637995
vn 0.28627658 -0.95800704 0.01637995
vn 0.28627658 -0.95800704 0.01637995
vn -0.28627658 -0.95800704 0.01637995
vn -0.28627658 -0.95800704 0.01637995
vn -0.28627658 -0.95800704 0.01637995
vn 0 1 -0
vn 0 1 -0
vn 0 1 -0
vn 0 1 -0
vn 0 1 -0
vn 0 1 -0
vn 0.9983671 -0 0.0571238
vn 0.9983671 -0 0.0571238
vn 0.9983671 -0 0.0571238
vn 0.9983671 0 0.0571238
vn 0.9983671 0 0.0571238
vn 0.9983671 0 0.0571238
vn -0.9983671 0 0.0571238
vn -0.9983671 0 0.0571238
vn -0.9983671 0 0.0571238
vn -0.9983671 0 0.0571238
vn -0.9983671 0 0.0571238
vn -0.9983671 0 0.0571238
vn 0 -0.877581 0.47942838
vn 0 -0.877581 0.47942838
vn 0 -0.877581 0.47942838
vn 0.2844603 -0.9585497 -0.016276048
vn 0.2844603 -0.9585497 -0.016276048
vn 0.2844603 -0.9585497 -0.016276048
vn -0.2844603 -0.9585497 -0.016276048
vn -0.2844603 -0.9585497 -0.016276048
vn -0.2844603 -0.9585497 -0.016276048
vn 0 1 0
vn 0 1 0
vn 0 1 0
vn 0 1 0
vn 0 1 0
vn 0 1 0
vn 0.9983671 0 -0.05712386
vn 0.9983671 0 -0.05712386
vn 0.9983671 0 -0.05712386
vn 0.9983671 0 -0.05712386
vn 0.9983671 0 -0.05712386
vn 0.9983671 0 -0.05712386
vn -0.9983671 0 -0.05712386
vn -0.9983671 0 -0.05712386
vn -0.9983671 0 -0.05712386
vn -0.9983671 0 -0.05712386
vn -0.9983671 0 -0.05712386
vn -0.9983671 0 -0.05712386
vn 0 -0.87758106 0.47942844
vn 0 -0.87758106 0.47942844
vn 0 -0.87758106 0.47942844
vn 0.32009566 -0.9460629 -0.050037526
vn 0.32009566 -0.9460629 -0.050037526
vn 0.32009566 -0.9460629 -0.050037526
vn -0.32009566 -0.9460629 -0.050037526
vn -0.32009566 -0.9460629 -0.050037526
vn -0.32009566 -0.9460629 -0.050037526
vn 0 1 0
vn 0 1 0
vn 0 1 0
vn 0 1 0
vn 0 1 0
vn 0 1 0
vn 0.98800135 0 -0.15444492
vn 0.98800135 0 -0.15444492
vn 0.98800135 0 -0.15444492
vn 0.98800135 0 -0.15444492
vn 0.98800135 0 -0.15444492
vn 0.98800135 0 -0.15444492
vn -0.98800135 0 -0.15444492
vn -0.98800135 0 -0.15444492
vn -0.98800135 0 -0.15444492
vn -0.98800135 0 -0.15444492
vn -0.98800135 0 -0.15444492
vn -0.98800135 0 -0.15444492
vn 0 -0.87758106 0.47942844
vn 0 -0.87758106 0.47942844
vn 0 -0.87758106 0.47942844
vn 0.537256 -0.77000046 -0.3441735
vn 0.537256 -0.77000046 -0.3441735
vn 0.537256 -0.77000046 -0.3441735
vn -0.537256 -0.77000046 -0.3441735
vn -0.537256 -0.77000046 -0.3441735
vn -0.537256 -0.77000046 -0.3441735
vn 0 1 0
vn 0 1 0
vn 0 1 0
vn 0 1 0
vn 0 1 0
vn 0 1 0
vn 0.8420367 0 -0.5394202
vn 0.8420367 0 -0.5394202
vn 0.8420367 0 -0.5394202
vn 0.8420367 0 -0.5394202
vn 0.8420367 0 -0.5394202
vn 0.8420367 0 -0.5394202
vn -0.8420367 0 -0.5394202
vn -0.8420367 0 -0.5394202
vn -0.8420367 0 -0.5394202
vn -0.8420367 0 -0.5394202
vn -0.8420367 0 -0.5394202
vn -0.8420367 0 -0.5394202
vn 0 -0.42419383 0.90557134
vn 0 -0.42419383 0.90557134
vn 0 -0.42419383 0.90557134
vn 0 -0.715389 -0.6987264
vn 0 -0.715389 -0.6987264
vn 0 -0.715389 -0.6987264
vn 0 -0.7606449 0.6491682
vn 0 -0.7606449 0.6491682
vn 0 -0.7606449 0.6491682
vn 0 -0.7606448 0.6491684
vn 0 -0.7606448 0.6491684
vn 0 -0.7606448 0.6491684
vn 0 -0.7606448 0.6491684
vn 0 -0.7606448 0.6491684
vn 0 -0.7606448 0.6491684
vn 0 -0.7606449 0.6491682
vn 0 -0.7606449 0.6491682
vn 0 -0.7606449 0.6491682
vn 0 -0.7606449 0.6491682
vn 0 -0.7606449 0.6491682
vn 0 -0.7606449 0.6491682
vn 0 -0.5760733 0.8173982
vn 0 -0.5760733 0.8173982
vn 0 -0.5760733 0.8173982
vn 0 -0.5760733 0.8173982
vn 0 -0.5760733 0.8173982
vn 0 -0.5760733 0.8173982
vn 0 -0.6480171 0.76162577
vn 0 -0.6480171 0.76162577
vn 0 -0.6480171 0.76162577
vn 0 -0.6480171 0.76162577
vn 0 -0.6480171 0.76162577
vn 0 -0.6480171 0.76162577
vn 0 -0.6480171 0.76162577
vn 0 -0.6480171 0.76162577
vn 0 -0.6480171 0.76162577
vn 0 -0.6480171 0.76162577
vn 0 -0.6480171 0.76162577
vn 0 -0.6480171 0.76162577
vn 0 -0.6480171 0.76162577
vn 0 -0.6480171 0.76162577
vn 0 -0.6480171 0.76162577
vn 0 -0.85780257 0.51397943
vn 0 -0.85780257 0.51397943
vn 0 -0.85780257 0.51397943
vn 0 -0.85780257 0.5139795
vn 0 -0.85780257 0.5139795
vn 0 -0.85780257 0.5139795
vn 0 -0.85780257 0.5139795
vn 0 -0.85780257 0.5139795
vn 0 -0.85780257 0.5139795
vn 0 -0.85780257 0.5139795
vn 0 -0.85780257 0.5139795
vn 0 -0.85780257 0.5139795
vn 0 -0.8578027 0.5139792
vn 0 -0.8578027 0.5139792
vn 0 -0.8578027 0.5139792
f 1//1 2//2 3//3
f 4//4 5//5 6//6
f 7//7 8//8 9//9
f 10//10 11//11 12//12
f 13//13 14//14 15//15
f 16//16 17//17 18//18
f 19//19 20//20 21//21
f 22//22 23//23 24//24
f 25//25 26//26 27//27
f 28//28 29//29 30//30
f 31//31 32//32 33//33
f 34//34 35//35 36//36
f 37//37 38//38 39//39
f 40//40 41//41 42//42
f 43//43 44//44 45//45
f 46//46 47//47 48//48
f 49//49 50//50 51//51
f 52//52 53//53 54//54
f 55//55 56//56 57//57
f 58//58 59//59 60//60
f 61//61 62//62 63//63
f 64//64 65//65 66//66
f 67//67 68//68 69//69
f 70//70 71//71 72//72
f 73//73 74//74 75//75
f 76//76 77//77 78//78
f 79//79 80//80 81//81
f 82//82 83//83 84//84
f 85//85 86//86 87//87
f 88//88 89//89 90//90
f 91//91 92//92 93//93
f 94//94 95//95 96//96
f 97//97 98//98 99//99
f 100//100 101//101 102//102
f 103//103 104//104 105//105
f 106//106 107//107 108//108
f 109//109 110//110 111//111
f 112//112 113//113 114//114
f 115//115 116//116 117//117
f 118//118 119//119 120//120
f 121//121 122//122 123//123
f 124//124 125//125 126//126
f 127//127 128//128 129//129
f 130//130 131//131 132//132
f 133//133 134//134 135//135
f 136//136 137//137 138//138
f 139//139 140//140 141//141
f 142//142 143//143 144//144
f 145//145 146//146 147//147
f 148//148 149//149 150//150
f 151//151 152//152 153//153
f 154//154 155//155 156//156
f 157//157 158//158 159//159
f 160//160 161//161 162//162
f 163//163 164//164 165//165
f 166//166 167//167 168//168
f 169//169 170//170 171//171
f 172//172 173//173 174//174
f 175//175 176//176 177//177
f 178//178 179//179 180//180
f 181//181 182//182 183//183
f 184//184 185//185 186//186
f 187//187 188//188 189//189
f 190//190 191//191 192//192
f 193//193 194//194 195//195
f 196//196 197//197 198//198
f 199//199 200//200 201//201
f 202//202 203//203 204//204
f 205//205 206//206 207//207
f 208//208 209//209 210//210
f 211//211 212//212 213//213
f 214//214 215//215 216//216
f 217//217 218//218 219//219
