# Exported from SharpOpenGl procedural mesh
o vesper_bomber_mk2_24
# vertices 228
v -0.45151106 0.21815692 -1.7819648
v 0.45151106 0.21815692 -1.7819648
v 0 0.44877997 -1.3992473
v -0.45151106 0.21815692 -1.7819648
v 0 0.44877997 -1.3992473
v -0.6772666 0.21815692 -0.9314815
v 0.45151106 0.21815692 -1.7819648
v 0.6772666 0.21815692 -0.9314815
v 0 0.44877997 -1.3992473
v -0.45151106 0 -1.7819648
v -0.6772666 0 -0.9314815
v 0.45151106 0 -1.7819648
v 0.45151106 0 -1.7819648
v -0.6772666 0 -0.9314815
v 0.6772666 0 -0.9314815
v -0.45151106 0 -1.7819648
v -0.45151106 0.21815692 -1.7819648
v -0.6772666 0.21815692 -0.9314815
v -0.45151106 0 -1.7819648
v -0.6772666 0.21815692 -0.9314815
v -0.6772666 0 -0.9314815
v 0.45151106 0 -1.7819648
v 0.6772666 0.21815692 -0.9314815
v 0.45151106 0.21815692 -1.7819648
v 0.45151106 0 -1.7819648
v 0.6772666 0 -0.9314815
v 0.6772666 0.21815692 -0.9314815
v -0.6772666 0.21815692 -0.9314815
v 0.6772666 0.21815692 -0.9314815
v 0 0.44877997 -0.548764
v -0.6772666 0.21815692 -0.9314815
v 0 0.44877997 -0.548764
v -0.8425312 0.21815692 -0.08099818
v 0.6772666 0.21815692 -0.9314815
v 0.8425312 0.21815692 -0.08099818
v 0 0.44877997 -0.548764
v -0.6772666 0 -0.9314815
v -0.8425312 0 -0.08099818
v 0.6772666 0 -0.9314815
v 0.6772666 0 -0.9314815
v -0.8425312 0 -0.08099818
v 0.8425312 0 -0.08099818
v -0.6772666 0 -0.9314815
v -0.6772666 0.21815692 -0.9314815
v -0.8425312 0.21815692 -0.08099818
v -0.6772666 0 -0.9314815
v -0.8425312 0.21815692 -0.08099818
v -0.8425312 0 -0.08099818
v 0.6772666 0 -0.9314815
v 0.8425312 0.21815692 -0.08099818
v 0.6772666 0.21815692 -0.9314815
v 0.6772666 0 -0.9314815
v 0.8425312 0 -0.08099818
v 0.8425312 0.21815692 -0.08099818
v -0.8425312 0.21815692 -0.08099818
v 0.8425312 0.21815692 -0.08099818
v 0 0.44877997 0.30171925
v -0.8425312 0.21815692 -0.08099818
v 0 0.44877997 0.30171925
v -0.9030221 0.21815692 0.769485
v 0.8425312 0.21815692 -0.08099818
v 0.9030221 0.21815692 0.769485
v 0 0.44877997 0.30171925
v -0.8425312 0 -0.08099818
v -0.9030221 0 0.769485
v 0.8425312 0 -0.08099818
v 0.8425312 0 -0.08099818
v -0.9030221 0 0.769485
v 0.9030221 0 0.769485
v -0.8425312 0 -0.08099818
v -0.8425312 0.21815692 -0.08099818
v -0.9030221 0.21815692 0.769485
v -0.8425312 0 -0.08099818
v -0.9030221 0.21815692 0.769485
v -0.9030221 0 0.769485
v 0.8425312 0 -0.08099818
v 0.9030221 0.21815692 0.769485
v 0.8425312 0.21815692 -0.08099818
v 0.8425312 0 -0.08099818
v 0.9030221 0 0.769485
v 0.9030221 0.21815692 0.769485
v -0.9030221 0.21815692 0.769485
v 0.9030221 0.21815692 0.769485
v 0 0.44877997 1.1522025
v -0.9030221 0.21815692 0.769485
v 0 0.44877997 1.1522025
v -0.84253114 0.21815692 1.6199684
v 0.9030221 0.21815692 0.769485
v 0.84253114 0.21815692 1.6199684
v 0 0.44877997 1.1522025
v -0.9030221 0 0.769485
v -0.84253114 0 1.6199684
v 0.9030221 0 0.769485
v 0.9030221 0 0.769485
v -0.84253114 0 1.6199684
v 0.84253114 0 1.6199684
v -0.9030221 0 0.769485
v -0.9030221 0.21815692 0.769485
v -0.84253114 0.21815692 1.6199684
v -0.9030221 0 0.769485
v -0.84253114 0.21815692 1.6199684
v -0.84253114 0 1.6199684
v 0.9030221 0 0.769485
v 0.84253114 0.21815692 1.6199684
v 0.9030221 0.21815692 0.769485
v 0.9030221 0 0.769485
v 0.84253114 0 1.6199684
v 0.84253114 0.21815692 1.6199684
v -0.84253114 0.21815692 1.6199684
v 0.84253114 0.21815692 1.6199684
v 0 0.44877997 2.0026858
v -0.84253114 0.21815692 1.6199684
v 0 0.44877997 2.0026858
v -0.67726666 0.21815692 2.4704514
v 0.84253114 0.21815692 1.6199684
v 0.67726666 0.21815692 2.4704514
v 0 0.44877997 2.0026858
v -0.84253114 0 1.6199684
v -0.67726666 0 2.4704514
v 0.84253114 0 1.6199684
v 0.84253114 0 1.6199684
v -0.67726666 0 2.4704514
v 0.67726666 0 2.4704514
v -0.84253114 0 1.6199684
v -0.84253114 0.21815692 1.6199684
v -0.67726666 0.21815692 2.4704514
v -0.84253114 0 1.6199684
v -0.67726666 0.21815692 2.4704514
v -0.67726666 0 2.4704514
v 0.84253114 0 1.6199684
v 0.67726666 0.21815692 2.4704514
v 0.84253114 0.21815692 1.6199684
v 0.84253114 0 1.6199684
v 0.67726666 0 2.4704514
v 0.67726666 0.21815692 2.4704514
v -0.67726666 0.21815692 2.4704514
v 0.67726666 0.21815692 2.4704514
v 0 0.44877997 2.853169
v -0.67726666 0.21815692 2.4704514
v 0 0.44877997 2.853169
v -0 0.21815692 3.3209348
v 0.67726666 0.21815692 2.4704514
v 0 0.21815692 3.3209348
v 0 0.44877997 2.853169
v -0.67726666 0 2.4704514
v -0 0 3.3209348
v 0.67726666 0 2.4704514
v 0.67726666 0 2.4704514
v -0 0 3.3209348
v 0 0 3.3209348
v -0.67726666 0 2.4704514
v -0.67726666 0.21815692 2.4704514
v -0 0.21815692 3.3209348
v -0.67726666 0 2.4704514
v -0 0.21815692 3.3209348
v -0 0 3.3209348
v 0.67726666 0 2.4704514
v 0 0.21815692 3.3209348
v 0.67726666 0.21815692 2.4704514
v 0.67726666 0 2.4704514
v 0 0 3.3209348
v 0 0.21815692 3.3209348
v -0.32922682 0 3.3209345
v 0.32922682 0 3.3209345
v 0 0.381463 3.4829314
v -0.32922682 0 -1.7819648
v 0 0.13089415 -1.9034624
v 0.32922682 0 -1.7819648
v 0 0.48617828 -1.3567231
v -0.09406481 0.38644943 -1.4884138
v 0.09406481 0.38644943 -1.4884138
v 0 0.48617828 -0.5062399
v -0.09406481 0.38644943 -0.63793063
v 0.09406481 0.38644943 -0.63793063
v 0 0.48617828 0.3442433
v -0.09406481 0.38644943 0.21255256
v 0.09406481 0.38644943 0.21255256
v 0 0.48617828 1.1947265
v -0.09406481 0.38644943 1.0630357
v 0.09406481 0.38644943 1.0630357
v 0 0.48617828 2.04521
v -0.09406481 0.38644943 1.9135191
v 0.09406481 0.38644943 1.9135191
v -0.3950722 0.17452554 -0.86344284
v 0.3950722 0.17452554 -0.86344284
v 0 0.29918665 -1.3737328
v -0.5676325 0.06738438 -0.5154444
v -0.80117273 0 -0.6438915
v -0.33409226 0 -0.6438915
v 0 0.06738438 -0.5154444
v -0.23354024 0 -0.6438915
v 0.23354024 0 -0.6438915
v 0.5676325 0.06738438 -0.5154444
v 0.33409226 0 -0.6438915
v 0.80117273 0 -0.6438915
v -0.30748934 0.042115238 -0.5007174
v 0.30748934 0.042115238 -0.5007174
v 0 0.18530704 -0.39026505
v -0.3431691 0.042115238 0.11781585
v 0.3431691 0.042115238 0.11781585
v 0 0.18530704 0.2282682
v -0.35679755 0.042115238 0.73634905
v 0.35679755 0.042115238 0.73634905
v 0 0.18530704 0.8468014
v -0.3431691 0.042115238 1.3548822
v 0.3431691 0.042115238 1.3548822
v 0 0.18530704 1.4653347
v -0.30748934 0.042115238 1.9734154
v 0.30748934 0.042115238 1.9734154
v 0 0.18530704 2.0838678
v 0 0.4632676 -0.04908985
v -0.1135265 0.35376796 -0.21476841
v 0.1135265 0.35376796 -0.21476841
v 0 0.4632676 0.49089956
v -0.1135265 0.35376796 0.325221
v 0.1135265 0.35376796 0.325221
v 0 0.4632676 1.0308889
v -0.1135265 0.35376796 0.86521035
v 0.1135265 0.35376796 0.86521035
v 0 0.4632676 1.5708784
v -0.1135265 0.35376796 1.4051998
v 0.1135265 0.35376796 1.4051998
v 0 0.4632676 2.1108675
v -0.1135265 0.35376796 1.945189
v 0.1135265 0.35376796 1.945189
v -0.227053 0 -1.5647418
v 0.227053 0 -1.5647418
v 0 0.042115238 -1.7304204
vn 0 -0.8565114 0.5161282
vn 0 -0.8565114 0.5161282
vn 0 -0.8565114 0.5161282
vn 0.38285643 -0.91820097 0.10162688
vn 0.38285643 -0.91820097 0.10162688
vn 0.38285643 -0.91820097 0.10162688
vn -0.38285643 -0.91820097 0.10162688
vn -0.38285643 -0.91820097 0.10162688
vn -0.38285643 -0.91820097 0.10162688
vn 0 1 -0
vn 0 1 -0
vn 0 1 -0
vn 0 1 -0
vn 0 1 -0
vn 0 1 -0
vn 0.9665285 -0 0.256559
vn 0.9665285 -0 0.256559
vn 0.9665285 -0 0.256559
vn 0.9665285 0 0.256559
vn 0.9665285 0 0.256559
vn 0.9665285 0 0.256559
vn -0.9665285 0 0.256559
vn -0.9665285 0 0.256559
vn -0.9665285 0 0.256559
vn -0.9665285 0 0.256559
vn -0.9665285 0 0.256559
vn -0.9665285 0 0.256559
vn 0 -0.8565113 0.5161281
vn 0 -0.8565113 0.5161281
vn 0 -0.8565113 0.5161281
vn 0.2928558 -0.9544617 0.056907292
vn 0.2928558 -0.9544617 0.056907292
vn 0.2928558 -0.9544617 0.056907292
vn -0.2928558 -0.9544617 0.056907292
vn -0.2928558 -0.9544617 0.056907292
vn -0.2928558 -0.9544617 0.056907292
vn 0 1 -0
vn 0 1 -0
vn 0 1 -0
vn 0 1 -0
vn 0 1 -0
vn 0 1 -0
vn 0.9816386 -0 0.1907505
vn 0.9816386 -0 0.1907505
vn 0.9816386 -0 0.1907505
vn 0.9816386 0 0.1907505
vn 0.9816386 0 0.1907505
vn 0.9816386 0 0.1907505
vn -0.9816386 0 0.1907505
vn -0.9816386 0 0.1907505
vn -0.9816386 0 0.1907505
vn -0.9816386 0 0.1907505
vn -0.9816386 0 0.1907505
vn -0.9816386 0 0.1907505
vn 0 -0.85651135 0.5161282
vn 0 -0.85651135 0.5161282
vn 0 -0.85651135 0.5161282
vn 0.25625974 -0.96643615 0.018226562
vn 0.25625974 -0.96643615 0.018226562
vn 0.25625974 -0.96643615 0.018226562
vn -0.25625974 -0.96643615 0.018226562
vn -0.25625974 -0.96643615 0.018226562
vn -0.25625974 -0.96643615 0.018226562
vn 0 1 -0
vn 0 1 -0
vn 0 1 -0
vn 0 1 -0
vn 0 1 -0
vn 0 1 -0
vn 0.9974802 -0 0.07094612
vn 0.9974802 -0 0.07094612
vn 0.9974802 -0 0.07094612
vn 0.9974802 0 0.07094612
vn 0.9974802 0 0.07094612
vn 0.9974802 0 0.07094612
vn -0.9974802 0 0.07094612
vn -0.9974802 0 0.07094612
vn -0.9974802 0 0.07094612
vn -0.9974802 0 0.07094612
vn -0.9974802 0 0.07094612
vn -0.9974802 0 0.07094612
vn 0 -0.8565114 0.5161282
vn 0 -0.8565114 0.5161282
vn 0 -0.8565114 0.5161282
vn 0.25460547 -0.96687543 -0.018108914
vn 0.25460547 -0.96687543 -0.018108914
vn 0.25460547 -0.96687543 -0.018108914
vn -0.25460547 -0.96687543 -0.018108914
vn -0.25460547 -0.96687543 -0.018108914
vn -0.25460547 -0.96687543 -0.018108914
vn 0 1 0
vn 0 1 0
vn 0 1 0
vn 0 1 0
vn 0 1 0
vn 0 1 0
vn 0.99748015 0 -0.070946164
vn 0.99748015 0 -0.070946164
vn 0.99748015 0 -0.070946164
vn 0.99748015 0 -0.070946164
vn 0.99748015 0 -0.070946164
vn 0.99748015 0 -0.070946164
vn -0.99748015 0 -0.070946164
vn -0.99748015 0 -0.070946164
vn -0.99748015 0 -0.070946164
vn -0.99748015 0 -0.070946164
vn -0.99748015 0 -0.070946164
vn -0.99748015 0 -0.070946164
vn 0 -0.85651135 0.5161283
vn 0 -0.85651135 0.5161283
vn 0 -0.85651135 0.5161283
vn 0.28709957 -0.95627475 -0.05578873
vn 0.28709957 -0.95627475 -0.05578873
vn 0.28709957 -0.95627475 -0.05578873
vn -0.28709957 -0.95627475 -0.05578873
vn -0.28709957 -0.95627475 -0.05578873
vn -0.28709957 -0.95627475 -0.05578873
vn 0 1 0
vn 0 1 0
vn 0 1 0
vn 0 1 0
vn 0 1 0
vn 0 1 0
vn 0.98163855 0 -0.19075043
vn 0.98163855 0 -0.19075043
vn 0.98163855 0 -0.19075043
vn 0.98163855 0 -0.19075043
vn 0.98163855 0 -0.19075043
vn 0.98163855 0 -0.19075043
vn -0.98163855 0 -0.19075043
vn -0.98163855 0 -0.19075043
vn -0.98163855 0 -0.19075043
vn -0.98163855 0 -0.19075043
vn -0.98163855 0 -0.19075043
vn -0.98163855 0 -0.19075043
vn 0 -0.8565115 0.516128
vn 0 -0.8565115 0.516128
vn 0 -0.8565115 0.516128
vn 0.48547497 -0.7841271 -0.38659897
vn 0.48547497 -0.7841271 -0.38659897
vn 0.48547497 -0.7841271 -0.38659897
vn -0.48547497 -0.7841271 -0.38659897
vn -0.48547497 -0.7841271 -0.38659897
vn -0.48547497 -0.7841271 -0.38659897
vn 0 1 0
vn 0 1 0
vn 0 1 0
vn 0 1 0
vn 0 1 0
vn 0 1 0
vn 0.78226674 0 -0.6229436
vn 0.78226674 0 -0.6229436
vn 0.78226674 0 -0.6229436
vn 0.78226674 0 -0.6229436
vn 0.78226674 0 -0.6229436
vn 0.78226674 0 -0.6229436
vn -0.78226674 0 -0.6229436
vn -0.78226674 0 -0.6229436
vn -0.78226674 0 -0.6229436
vn -0.78226674 0 -0.6229436
vn -0.78226674 0 -0.6229436
vn -0.78226674 0 -0.6229436
vn 0 -0.39088526 0.92043936
vn 0 -0.39088526 0.92043936
vn 0 -0.39088526 0.92043936
vn 0 -0.6803099 -0.7329245
vn 0 -0.6803099 -0.7329245
vn 0 -0.6803099 -0.7329245
vn 0 -0.7971996 0.60371596
vn 0 -0.7971996 0.60371596
vn 0 -0.7971996 0.60371596
vn 0 -0.7971996 0.60371596
vn 0 -0.7971996 0.60371596
vn 0 -0.7971996 0.60371596
vn 0 -0.7971995 0.60371596
vn 0 -0.7971995 0.60371596
vn 0 -0.7971995 0.60371596
vn 0 -0.7971996 0.60371596
vn 0 -0.7971996 0.60371596
vn 0 -0.7971996 0.60371596
vn 0 -0.7971996 0.60371596
vn 0 -0.7971996 0.60371596
vn 0 -0.7971996 0.60371596
vn -0 0.97143257 0.23731576
vn -0 0.97143257 0.23731576
vn -0 0.97143257 0.23731576
vn 0 -0.8855408 0.46456173
vn 0 -0.8855408 0.46456173
vn 0 -0.8855408 0.46456173
vn 0 -0.8855408 0.46456173
vn 0 -0.8855408 0.46456173
vn 0 -0.8855408 0.46456173
vn 0 -0.8855408 0.46456173
vn 0 -0.8855408 0.46456173
vn 0 -0.8855408 0.46456173
vn 0 -0.6107691 0.79180866
vn 0 -0.6107691 0.79180866
vn 0 -0.6107691 0.79180866
vn 0 -0.61076915 0.7918087
vn 0 -0.61076915 0.7918087
vn 0 -0.61076915 0.7918087
vn 0 -0.6107692 0.7918088
vn 0 -0.6107692 0.7918088
vn 0 -0.6107692 0.7918088
vn 0 -0.61076933 0.79180855
vn 0 -0.61076933 0.79180855
vn 0 -0.61076933 0.79180855
vn 0 -0.61076933 0.7918085
vn 0 -0.61076933 0.7918085
vn 0 -0.61076933 0.7918085
vn 0 -0.83425784 0.5513745
vn 0 -0.83425784 0.5513745
vn 0 -0.83425784 0.5513745
vn 0 -0.83425784 0.5513745
vn 0 -0.83425784 0.5513745
vn 0 -0.83425784 0.5513745
vn 0 -0.83425784 0.5513745
vn 0 -0.83425784 0.5513745
vn 0 -0.83425784 0.5513745
vn 0 -0.8342579 0.5513743
vn 0 -0.8342579 0.5513743
vn 0 -0.8342579 0.5513743
vn 0 -0.8342578 0.5513746
vn 0 -0.8342578 0.5513746
vn 0 -0.8342578 0.5513746
vn -0 0.96917754 0.24636352
vn -0 0.96917754 0.24636352
vn -0 0.96917754 0.24636352
f 1//1 2//2 3//3
f 4//4 5//5 6//6
f 7//7 8//8 9//9
f 10//10 11//11 12//12
f 13//13 14//14 15//15
f 16//16 17//17 18//18
f 19//19 20//20 21//21
f 22//22 23//23 24//24
f 25//25 26//26 27//27
f 28//28 29//29 30//30
f 31//31 32//32 33//33
f 34//34 35//35 36//36
f 37//37 38//38 39//39
f 40//40 41//41 42//42
f 43//43 44//44 45//45
f 46//46 47//47 48//48
f 49//49 50//50 51//51
f 52//52 53//53 54//54
f 55//55 56//56 57//57
f 58//58 59//59 60//60
f 61//61 62//62 63//63
f 64//64 65//65 66//66
f 67//67 68//68 69//69
f 70//70 71//71 72//72
f 73//73 74//74 75//75
f 76//76 77//77 78//78
f 79//79 80//80 81//81
f 82//82 83//83 84//84
f 85//85 86//86 87//87
f 88//88 89//89 90//90
f 91//91 92//92 93//93
f 94//94 95//95 96//96
f 97//97 98//98 99//99
f 100//100 101//101 102//102
f 103//103 104//104 105//105
f 106//106 107//107 108//108
f 109//109 110//110 111//111
f 112//112 113//113 114//114
f 115//115 116//116 117//117
f 118//118 119//119 120//120
f 121//121 122//122 123//123
f 124//124 125//125 126//126
f 127//127 128//128 129//129
f 130//130 131//131 132//132
f 133//133 134//134 135//135
f 136//136 137//137 138//138
f 139//139 140//140 141//141
f 142//142 143//143 144//144
f 145//145 146//146 147//147
f 148//148 149//149 150//150
f 151//151 152//152 153//153
f 154//154 155//155 156//156
f 157//157 158//158 159//159
f 160//160 161//161 162//162
f 163//163 164//164 165//165
f 166//166 167//167 168//168
f 169//169 170//170 171//171
f 172//172 173//173 174//174
f 175//175 176//176 177//177
f 178//178 179//179 180//180
f 181//181 182//182 183//183
f 184//184 185//185 186//186
f 187//187 188//188 189//189
f 190//190 191//191 192//192
f 193//193 194//194 195//195
f 196//196 197//197 198//198
f 199//199 200//200 201//201
f 202//202 203//203 204//204
f 205//205 206//206 207//207
f 208//208 209//209 210//210
f 211//211 212//212 213//213
f 214//214 215//215 216//216
f 217//217 218//218 219//219
f 220//220 221//221 222//222
f 223//223 224//224 225//225
f 226//226 227//227 228//228
