# Exported from SharpOpenGl procedural mesh
o vesper_corvette_mk1_04
# vertices 228
v -0.24210916 0.12127143 -1.5089065
v 0.24210916 0.12127143 -1.5089065
v 0 0.24947268 -1.1848345
v -0.24210916 0.12127143 -1.5089065
v 0 0.24947268 -1.1848345
v -0.36316374 0.12127143 -0.78874654
v 0.24210916 0.12127143 -1.5089065
v 0.36316374 0.12127143 -0.78874654
v 0 0.24947268 -1.1848345
v -0.24210916 0 -1.5089065
v -0.36316374 0 -0.78874654
v 0.24210916 0 -1.5089065
v 0.24210916 0 -1.5089065
v -0.36316374 0 -0.78874654
v 0.36316374 0 -0.78874654
v -0.24210916 0 -1.5089065
v -0.24210916 0.12127143 -1.5089065
v -0.36316374 0.12127143 -0.78874654
v -0.24210916 0 -1.5089065
v -0.36316374 0.12127143 -0.78874654
v -0.36316374 0 -0.78874654
v 0.24210916 0 -1.5089065
v 0.36316374 0.12127143 -0.78874654
v 0.24210916 0.12127143 -1.5089065
v 0.24210916 0 -1.5089065
v 0.36316374 0 -0.78874654
v 0.36316374 0.12127143 -0.78874654
v -0.36316374 0.12127143 -0.78874654
v 0.36316374 0.12127143 -0.78874654
v 0 0.24947268 -0.46467456
v -0.36316374 0.12127143 -0.78874654
v 0 0.24947268 -0.46467456
v -0.4517819 0.12127143 -0.06858659
v 0.36316374 0.12127143 -0.78874654
v 0.4517819 0.12127143 -0.06858659
v 0 0.24947268 -0.46467456
v -0.36316374 0 -0.78874654
v -0.4517819 0 -0.06858659
v 0.36316374 0 -0.78874654
v 0.36316374 0 -0.78874654
v -0.4517819 0 -0.06858659
v 0.4517819 0 -0.06858659
v -0.36316374 0 -0.78874654
v -0.36316374 0.12127143 -0.78874654
v -0.4517819 0.12127143 -0.06858659
v -0.36316374 0 -0.78874654
v -0.4517819 0.12127143 -0.06858659
v -0.4517819 0 -0.06858659
v 0.36316374 0 -0.78874654
v 0.4517819 0.12127143 -0.06858659
v 0.36316374 0.12127143 -0.78874654
v 0.36316374 0 -0.78874654
v 0.4517819 0 -0.06858659
v 0.4517819 0.12127143 -0.06858659
v -0.4517819 0.12127143 -0.06858659
v 0.4517819 0.12127143 -0.06858659
v 0 0.24947268 0.25548536
v -0.4517819 0.12127143 -0.06858659
v 0 0.24947268 0.25548536
v -0.48421833 0.12127143 0.6515733
v 0.4517819 0.12127143 -0.06858659
v 0.48421833 0.12127143 0.6515733
v 0 0.24947268 0.25548536
v -0.4517819 0 -0.06858659
v -0.48421833 0 0.6515733
v 0.4517819 0 -0.06858659
v 0.4517819 0 -0.06858659
v -0.48421833 0 0.6515733
v 0.48421833 0 0.6515733
v -0.4517819 0 -0.06858659
v -0.4517819 0.12127143 -0.06858659
v -0.48421833 0.12127143 0.6515733
v -0.4517819 0 -0.06858659
v -0.48421833 0.12127143 0.6515733
v -0.48421833 0 0.6515733
v 0.4517819 0 -0.06858659
v 0.48421833 0.12127143 0.6515733
v 0.4517819 0.12127143 -0.06858659
v 0.4517819 0 -0.06858659
v 0.48421833 0 0.6515733
v 0.48421833 0.12127143 0.6515733
v -0.48421833 0.12127143 0.6515733
v 0.48421833 0.12127143 0.6515733
v 0 0.24947268 0.9756453
v -0.48421833 0.12127143 0.6515733
v 0 0.24947268 0.9756453
v -0.45178187 0.12127143 1.3717333
v 0.48421833 0.12127143 0.6515733
v 0.45178187 0.12127143 1.3717333
v 0 0.24947268 0.9756453
v -0.48421833 0 0.6515733
v -0.45178187 0 1.3717333
v 0.48421833 0 0.6515733
v 0.48421833 0 0.6515733
v -0.45178187 0 1.3717333
v 0.45178187 0 1.3717333
v -0.48421833 0 0.6515733
v -0.48421833 0.12127143 0.6515733
v -0.45178187 0.12127143 1.3717333
v -0.48421833 0 0.6515733
v -0.45178187 0.12127143 1.3717333
v -0.45178187 0 1.3717333
v 0.48421833 0 0.6515733
v 0.45178187 0.12127143 1.3717333
v 0.48421833 0.12127143 0.6515733
v 0.48421833 0 0.6515733
v 0.45178187 0 1.3717333
v 0.45178187 0.12127143 1.3717333
v -0.45178187 0.12127143 1.3717333
v 0.45178187 0.12127143 1.3717333
v 0 0.24947268 1.6958053
v -0.45178187 0.12127143 1.3717333
v 0 0.24947268 1.6958053
v -0.36316377 0.12127143 2.0918932
v 0.45178187 0.12127143 1.3717333
v 0.36316377 0.12127143 2.0918932
v 0 0.24947268 1.6958053
v -0.45178187 0 1.3717333
v -0.36316377 0 2.0918932
v 0.45178187 0 1.3717333
v 0.45178187 0 1.3717333
v -0.36316377 0 2.0918932
v 0.36316377 0 2.0918932
v -0.45178187 0 1.3717333
v -0.45178187 0.12127143 1.3717333
v -0.36316377 0.12127143 2.0918932
v -0.45178187 0 1.3717333
v -0.36316377 0.12127143 2.0918932
v -0.36316377 0 2.0918932
v 0.45178187 0 1.3717333
v 0.36316377 0.12127143 2.0918932
v 0.45178187 0.12127143 1.3717333
v 0.45178187 0 1.3717333
v 0.36316377 0 2.0918932
v 0.36316377 0.12127143 2.0918932
v -0.36316377 0.12127143 2.0918932
v 0.36316377 0.12127143 2.0918932
v 0 0.24947268 2.415965
v -0.36316377 0.12127143 2.0918932
v 0 0.24947268 2.415965
v -0 0.12127143 2.8120532
v 0.36316377 0.12127143 2.0918932
v 0 0.12127143 2.8120532
v 0 0.24947268 2.415965
v -0.36316377 0 2.0918932
v -0 0 2.8120532
v 0.36316377 0 2.0918932
v 0.36316377 0 2.0918932
v -0 0 2.8120532
v 0 0 2.8120532
v -0.36316377 0 2.0918932
v -0.36316377 0.12127143 2.0918932
v -0 0.12127143 2.8120532
v -0.36316377 0 2.0918932
v -0 0.12127143 2.8120532
v -0 0 2.8120532
v 0.36316377 0 2.0918932
v 0 0.12127143 2.8120532
v 0.36316377 0.12127143 2.0918932
v 0.36316377 0 2.0918932
v 0 0 2.8120532
v 0 0.12127143 2.8120532
v -0.17653793 0 2.812053
v 0.17653793 0 2.812053
v 0 0.21205178 2.9492264
v -0.17653793 0 -1.5089065
v 0 0.07276286 -1.6117865
v 0.17653793 0 -1.5089065
v 0 0.27026203 -1.1488265
v -0.050439414 0.2148237 -1.2194417
v 0.050439414 0.2148237 -1.2194417
v 0 0.27026203 -0.4286666
v -0.050439414 0.2148237 -0.49928176
v 0.050439414 0.2148237 -0.49928176
v 0 0.27026203 0.2914933
v -0.050439414 0.2148237 0.22087812
v 0.050439414 0.2148237 0.22087812
v 0 0.27026203 1.0116531
v -0.050439414 0.2148237 0.9410379
v 0.050439414 0.2148237 0.9410379
v 0 0.27026203 1.7318133
v -0.050439414 0.2148237 1.6611981
v 0.050439414 0.2148237 1.6611981
v -0.21184552 0.09701715 -0.73113376
v 0.21184552 0.09701715 -0.73113376
v 0 0.16631511 -1.1632297
v -0.30437577 0.037458356 -0.43646055
v -0.4087332 0 -0.49385715
v -0.20001836 0 -0.49385715
v 0 0.037458356 -0.43646055
v -0.10435741 0 -0.49385715
v 0.10435741 0 -0.49385715
v 0.30437577 0.037458356 -0.43646055
v 0.20001836 0 -0.49385715
v 0.4087332 0 -0.49385715
v -0.16488187 0.023411473 -0.42399025
v 0.16488187 0.023411473 -0.42399025
v 0 0.10301048 -0.330463
v -0.18401407 0.023411473 0.0997625
v 0.18401407 0.023411473 0.0997625
v 0 0.10301048 0.19328976
v -0.19132191 0.023411473 0.6235151
v 0.19132191 0.023411473 0.6235151
v 0 0.10301048 0.7170424
v -0.18401407 0.023411473 1.1472678
v 0.18401407 0.023411473 1.1472678
v 0 0.10301048 1.2407951
v -0.16488187 0.023411473 1.6710205
v 0.16488187 0.023411473 1.6710205
v 0 0.10301048 1.7645478
v 0 0.25752622 -0.041567653
v -0.060875155 0.19665638 -0.18185855
v 0.060875155 0.19665638 -0.18185855
v 0 0.25752622 0.41567674
v -0.060875155 0.19665638 0.27538586
v 0.060875155 0.19665638 0.27538586
v 0 0.25752622 0.8729211
v -0.060875155 0.19665638 0.7326302
v 0.060875155 0.19665638 0.7326302
v 0 0.25752622 1.3301655
v -0.060875155 0.19665638 1.1898746
v 0.060875155 0.19665638 1.1898746
v 0 0.25752622 1.7874099
v -0.060875155 0.19665638 1.647119
v 0.060875155 0.19665638 1.647119
v -0.12175031 0 -1.3249695
v 0.12175031 0 -1.3249695
v 0 0.023411473 -1.4652605
vn 0 -0.9298824 0.36785674
vn 0 -0.9298824 0.36785674
vn 0 -0.9298824 0.36785674
vn 0.39589813 -0.9158799 0.0665481
vn 0.39589813 -0.9158799 0.0665481
vn 0.39589813 -0.9158799 0.0665481
vn -0.39589813 -0.9158799 0.0665481
vn -0.39589813 -0.9158799 0.0665481
vn -0.39589813 -0.9158799 0.0665481
vn 0 1 -0
vn 0 1 -0
vn 0 1 -0
vn 0 1 -0
vn 0 1 -0
vn 0 1 -0
vn 0.9861647 -0 0.16576838
vn 0.9861647 -0 0.16576838
vn 0.9861647 -0 0.16576838
vn 0.9861647 0 0.16576838
vn 0.9861647 0 0.16576838
vn 0.9861647 0 0.16576838
vn -0.9861647 0 0.16576838
vn -0.9861647 0 0.16576838
vn -0.9861647 0 0.16576838
vn -0.9861647 0 0.16576838
vn -0.9861647 0 0.16576838
vn -0.9861647 0 0.16576838
vn 0 -0.92988247 0.36785683
vn 0 -0.92988247 0.36785683
vn 0 -0.92988247 0.36785683
vn 0.30290854 -0.95229053 0.037273936
vn 0.30290854 -0.95229053 0.037273936
vn 0.30290854 -0.95229053 0.037273936
vn -0.30290854 -0.95229053 0.037273936
vn -0.30290854 -0.95229053 0.037273936
vn -0.30290854 -0.95229053 0.037273936
vn 0 1 -0
vn 0 1 -0
vn 0 1 -0
vn 0 1 -0
vn 0 1 -0
vn 0 1 -0
vn 0.99251384 -0 0.122132234
vn 0.99251384 -0 0.122132234
vn 0.99251384 -0 0.122132234
vn 0.99251384 0 0.122132234
vn 0.99251384 0 0.122132234
vn 0.99251384 0 0.122132234
vn -0.99251384 0 0.122132234
vn -0.99251384 0 0.122132234
vn -0.99251384 0 0.122132234
vn -0.99251384 0 0.122132234
vn -0.99251384 0 0.122132234
vn -0.99251384 0 0.122132234
vn 0 -0.92988247 0.36785686
vn 0 -0.92988247 0.36785686
vn 0 -0.92988247 0.36785686
vn 0.26503614 -0.96416456 0.011937385
vn 0.26503614 -0.96416456 0.011937385
vn 0.26503614 -0.96416456 0.011937385
vn -0.26503614 -0.96416456 0.011937385
vn -0.26503614 -0.96416456 0.011937385
vn -0.26503614 -0.96416456 0.011937385
vn 0 1 -0
vn 0 1 -0
vn 0 1 -0
vn 0 1 -0
vn 0 1 -0
vn 0 1 -0
vn 0.9989872 -0 0.044994976
vn 0.9989872 -0 0.044994976
vn 0.9989872 -0 0.044994976
vn 0.9989872 0 0.044994976
vn 0.9989872 0 0.044994976
vn 0.9989872 0 0.044994976
vn -0.9989872 0 0.044994976
vn -0.9989872 0 0.044994976
vn -0.9989872 0 0.044994976
vn -0.9989872 0 0.044994976
vn -0.9989872 0 0.044994976
vn -0.9989872 0 0.044994976
vn 0 -0.9298824 0.36785674
vn 0 -0.9298824 0.36785674
vn 0 -0.9298824 0.36785674
vn 0.26333317 -0.964632 -0.011860691
vn 0.26333317 -0.964632 -0.011860691
vn 0.26333317 -0.964632 -0.011860691
vn -0.26333317 -0.964632 -0.011860691
vn -0.26333317 -0.964632 -0.011860691
vn -0.26333317 -0.964632 -0.011860691
vn 0 1 0
vn 0 1 0
vn 0 1 0
vn 0 1 0
vn 0 1 0
vn 0 1 0
vn 0.9989872 0 -0.044995014
vn 0.9989872 0 -0.044995014
vn 0.9989872 0 -0.044995014
vn 0.9989872 0 -0.044995014
vn 0.9989872 0 -0.044995014
vn 0.9989872 0 -0.044995014
vn -0.9989872 0 -0.044995014
vn -0.9989872 0 -0.044995014
vn -0.9989872 0 -0.044995014
vn -0.9989872 0 -0.044995014
vn -0.9989872 0 -0.044995014
vn -0.9989872 0 -0.044995014
vn 0 -0.9298824 0.36785677
vn 0 -0.9298824 0.36785677
vn 0 -0.9298824 0.36785677
vn 0.29698095 -0.9541838 -0.036544506
vn 0.29698095 -0.9541838 -0.036544506
vn 0.29698095 -0.9541838 -0.036544506
vn -0.29698095 -0.9541838 -0.036544506
vn -0.29698095 -0.9541838 -0.036544506
vn -0.29698095 -0.9541838 -0.036544506
vn 0 0.99999994 0
vn 0 0.99999994 0
vn 0 0.99999994 0
vn 0 1 0
vn 0 1 0
vn 0 1 0
vn 0.99251384 0 -0.122132175
vn 0.99251384 0 -0.122132175
vn 0.99251384 0 -0.122132175
vn 0.99251384 0 -0.122132175
vn 0.99251384 0 -0.122132175
vn 0.99251384 0 -0.122132175
vn -0.99251384 0 -0.122132175
vn -0.99251384 0 -0.122132175
vn -0.99251384 0 -0.122132175
vn -0.99251384 0 -0.122132175
vn -0.99251384 0 -0.122132175
vn -0.99251384 0 -0.122132175
vn 0 -0.92988235 0.3678569
vn 0 -0.92988235 0.3678569
vn 0 -0.92988235 0.3678569
vn 0.5211637 -0.81198364 -0.2628135
vn 0.5211637 -0.81198364 -0.2628135
vn 0.5211637 -0.81198364 -0.2628135
vn -0.5211637 -0.81198364 -0.2628135
vn -0.5211637 -0.81198364 -0.2628135
vn -0.5211637 -0.81198364 -0.2628135
vn 0 1 0
vn 0 1 0
vn 0 1 0
vn 0 1 0
vn 0 1 0
vn 0 1 0
vn 0.8928926 0 -0.45026973
vn 0.8928926 0 -0.45026973
vn 0.8928926 0 -0.45026973
vn 0.8928926 0 -0.45026973
vn 0.8928926 0 -0.45026973
vn 0.8928926 0 -0.45026973
vn -0.8928926 0 -0.45026973
vn -0.8928926 0 -0.45026973
vn -0.8928926 0 -0.45026973
vn -0.8928926 0 -0.45026973
vn -0.8928926 0 -0.45026973
vn -0.8928926 0 -0.45026973
vn 0 -0.54314923 0.83963615
vn 0 -0.54314923 0.83963615
vn 0 -0.54314923 0.83963615
vn 0 -0.8164378 -0.5774334
vn 0 -0.8164378 -0.5774334
vn 0 -0.8164378 -0.5774334
vn 0 -0.78656185 0.6175116
vn 0 -0.78656185 0.6175116
vn 0 -0.78656185 0.6175116
vn 0 -0.78656185 0.6175116
vn 0 -0.78656185 0.6175116
vn 0 -0.78656185 0.6175116
vn 0 -0.78656185 0.6175116
vn 0 -0.78656185 0.6175116
vn 0 -0.78656185 0.6175116
vn 0 -0.78656185 0.6175116
vn 0 -0.78656185 0.6175116
vn 0 -0.78656185 0.6175116
vn 0 -0.78656185 0.6175116
vn 0 -0.78656185 0.6175116
vn 0 -0.78656185 0.6175116
vn -0 0.9873826 0.1583528
vn -0 0.9873826 0.1583528
vn -0 0.9873826 0.1583528
vn 0 -0.83743834 0.5465318
vn 0 -0.83743834 0.5465318
vn 0 -0.83743834 0.5465318
vn 0 -0.8374383 0.5465318
vn 0 -0.8374383 0.5465318
vn 0 -0.8374383 0.5465318
vn 0 -0.83743834 0.5465318
vn 0 -0.83743834 0.5465318
vn 0 -0.83743834 0.5465318
vn 0 -0.76153404 0.648125
vn 0 -0.76153404 0.648125
vn 0 -0.76153404 0.648125
vn 0 -0.761534 0.648125
vn 0 -0.761534 0.648125
vn 0 -0.761534 0.648125
vn 0 -0.76153404 0.648125
vn 0 -0.76153404 0.648125
vn 0 -0.76153404 0.648125
vn 0 -0.76153415 0.6481247
vn 0 -0.76153415 0.6481247
vn 0 -0.76153415 0.6481247
vn 0 -0.7615342 0.64812475
vn 0 -0.7615342 0.64812475
vn 0 -0.7615342 0.64812475
vn 0 -0.9173716 0.39803195
vn 0 -0.9173716 0.39803195
vn 0 -0.9173716 0.39803195
vn 0 -0.9173715 0.39803198
vn 0 -0.9173715 0.39803198
vn 0 -0.9173715 0.39803198
vn 0 -0.9173716 0.39803195
vn 0 -0.9173716 0.39803195
vn 0 -0.9173716 0.39803195
vn 0 -0.9173715 0.39803204
vn 0 -0.9173715 0.39803204
vn 0 -0.9173715 0.39803204
vn 0 -0.9173715 0.39803204
vn 0 -0.9173715 0.39803204
vn 0 -0.9173715 0.39803204
vn -0 0.98636013 0.16460179
vn -0 0.98636013 0.16460179
vn -0 0.98636013 0.16460179
f 1//1 2//2 3//3
f 4//4 5//5 6//6
f 7//7 8//8 9//9
f 10//10 11//11 12//12
f 13//13 14//14 15//15
f 16//16 17//17 18//18
f 19//19 20//20 21//21
f 22//22 23//23 24//24
f 25//25 26//26 27//27
f 28//28 29//29 30//30
f 31//31 32//32 33//33
f 34//34 35//35 36//36
f 37//37 38//38 39//39
f 40//40 41//41 42//42
f 43//43 44//44 45//45
f 46//46 47//47 48//48
f 49//49 50//50 51//51
f 52//52 53//53 54//54
f 55//55 56//56 57//57
f 58//58 59//59 60//60
f 61//61 62//62 63//63
f 64//64 65//65 66//66
f 67//67 68//68 69//69
f 70//70 71//71 72//72
f 73//73 74//74 75//75
f 76//76 77//77 78//78
f 79//79 80//80 81//81
f 82//82 83//83 84//84
f 85//85 86//86 87//87
f 88//88 89//89 90//90
f 91//91 92//92 93//93
f 94//94 95//95 96//96
f 97//97 98//98 99//99
f 100//100 101//101 102//102
f 103//103 104//104 105//105
f 106//106 107//107 108//108
f 109//109 110//110 111//111
f 112//112 113//113 114//114
f 115//115 116//116 117//117
f 118//118 119//119 120//120
f 121//121 122//122 123//123
f 124//124 125//125 126//126
f 127//127 128//128 129//129
f 130//130 131//131 132//132
f 133//133 134//134 135//135
f 136//136 137//137 138//138
f 139//139 140//140 141//141
f 142//142 143//143 144//144
f 145//145 146//146 147//147
f 148//148 149//149 150//150
f 151//151 152//152 153//153
f 154//154 155//155 156//156
f 157//157 158//158 159//159
f 160//160 161//161 162//162
f 163//163 164//164 165//165
f 166//166 167//167 168//168
f 169//169 170//170 171//171
f 172//172 173//173 174//174
f 175//175 176//176 177//177
f 178//178 179//179 180//180
f 181//181 182//182 183//183
f 184//184 185//185 186//186
f 187//187 188//188 189//189
f 190//190 191//191 192//192
f 193//193 194//194 195//195
f 196//196 197//197 198//198
f 199//199 200//200 201//201
f 202//202 203//203 204//204
f 205//205 206//206 207//207
f 208//208 209//209 210//210
f 211//211 212//212 213//213
f 214//214 215//215 216//216
f 217//217 218//218 219//219
f 220//220 221//221 222//222
f 223//223 224//224 225//225
f 226//226 227//227 228//228
