# Exported from SharpOpenGl procedural mesh
o vesper_freighter_mk3_48
# vertices 123
v -1.0638746 0.32937527 -4.672264
v 1.0638746 0.32937527 -4.672264
v 0 0.677572 -3.7994
v -1.0638746 0.32937527 -4.672264
v 0 0.677572 -3.7994
v -1.4990959 0.32937527 -2.7325664
v 1.0638746 0.32937527 -4.672264
v 1.4990959 0.32937527 -2.7325664
v 0 0.677572 -3.7994
v -1.0638746 0 -4.672264
v -1.4990959 0 -2.7325664
v 1.0638746 0 -4.672264
v 1.0638746 0 -4.672264
v -1.4990959 0 -2.7325664
v 1.4990959 0 -2.7325664
v -1.4990959 0.32937527 -2.7325664
v 1.4990959 0.32937527 -2.7325664
v 0 0.677572 -1.8597026
v -1.4990959 0.32937527 -2.7325664
v 0 0.677572 -1.8597026
v -1.8177001 0.32937527 -0.79286885
v 1.4990959 0.32937527 -2.7325664
v 1.8177001 0.32937527 -0.79286885
v 0 0.677572 -1.8597026
v -1.4990959 0 -2.7325664
v -1.8177001 0 -0.79286885
v 1.4990959 0 -2.7325664
v 1.4990959 0 -2.7325664
v -1.8177001 0 -0.79286885
v 1.8177001 0 -0.79286885
v -1.8177001 0.32937527 -0.79286885
v 1.8177001 0.32937527 -0.79286885
v 0 0.677572 0.07999498
v -1.8177001 0.32937527 -0.79286885
v 0 0.677572 0.07999498
v -1.9343174 0.32937527 1.1468287
v 1.8177001 0.32937527 -0.79286885
v 1.9343174 0.32937527 1.1468287
v 0 0.677572 0.07999498
v -1.8177001 0 -0.79286885
v -1.9343174 0 1.1468287
v 1.8177001 0 -0.79286885
v 1.8177001 0 -0.79286885
v -1.9343174 0 1.1468287
v 1.9343174 0 1.1468287
v -1.9343174 0.32937527 1.1468287
v 1.9343174 0.32937527 1.1468287
v 0 0.677572 2.0196927
v -1.9343174 0.32937527 1.1468287
v 0 0.677572 2.0196927
v -1.8177001 0.32937527 3.0865264
v 1.9343174 0.32937527 1.1468287
v 1.8177001 0.32937527 3.0865264
v 0 0.677572 2.0196927
v -1.9343174 0 1.1468287
v -1.8177001 0 3.0865264
v 1.9343174 0 1.1468287
v 1.9343174 0 1.1468287
v -1.8177001 0 3.0865264
v 1.8177001 0 3.0865264
v -1.8177001 0.32937527 3.0865264
v 1.8177001 0.32937527 3.0865264
v 0 0.677572 3.95939
v -1.8177001 0.32937527 3.0865264
v 0 0.677572 3.95939
v -1.388052 0.32937527 5.026223
v 1.8177001 0.32937527 3.0865264
v 1.388052 0.32937527 5.026223
v 0 0.677572 3.95939
v -1.8177001 0 3.0865264
v -1.388052 0 5.026223
v 1.8177001 0 3.0865264
v 1.8177001 0 3.0865264
v -1.388052 0 5.026223
v 1.388052 0 5.026223
v -1.388052 0.32937527 5.026223
v 1.388052 0.32937527 5.026223
v 0 0.677572 5.8990874
v -1.388052 0.32937527 5.026223
v 0 0.677572 5.8990874
v -0 0.32937527 6.9659214
v 1.388052 0.32937527 5.026223
v 0 0.32937527 6.9659214
v 0 0.677572 5.8990874
v -1.388052 0 5.026223
v -0 0 6.9659214
v 1.388052 0 5.026223
v 1.388052 0 5.026223
v -0 0 6.9659214
v 0 0 6.9659214
v 0 0.73403627 -3.7024152
v -0.15474539 0.58346474 -3.9345334
v 0.15474539 0.58346474 -3.9345334
v 0 0.73403627 -1.7627177
v -0.15474539 0.58346474 -1.9948359
v 0.15474539 0.58346474 -1.9948359
v 0 0.73403627 0.17697954
v -0.15474539 0.58346474 -0.05513853
v 0.15474539 0.58346474 -0.05513853
v 0 0.73403627 2.1166773
v -0.15474539 0.58346474 1.8845592
v 0.15474539 0.58346474 1.8845592
v 0 0.73403627 4.0563755
v -0.15474539 0.58346474 3.8242574
v 0.15474539 0.58346474 3.8242574
v -0.8124133 0.2635002 -1.2742538
v 0.8124133 0.2635002 -1.2742538
v 0 0.3952503 -2.3786073
v -0.93380845 0.104563564 -4.579927
v -1.4540731 0 -5.7245092
v -0.41354382 0 -5.7245092
v 0.93380845 0.104563564 -4.579927
v 0.41354382 0 -5.7245092
v 1.4540731 0 -5.7245092
v -0.7337066 0.49667695 -0.36934894
v -0.9671587 0.18298624 -0.56945074
v -0.5002545 0.18298624 -0.56945074
v 0 0.49667695 -0.6028011
v -0.23345211 0.18298624 -0.8029029
v 0.23345211 0.18298624 -0.8029029
v 0.7337066 0.49667695 -0.83625317
v 0.5002545 0.18298624 -1.036355
v 0.9671587 0.18298624 -1.036355
vn 0 -0.9288244 0.37052009
vn 0 -0.9288244 0.37052009
vn 0 -0.9288244 0.37052009
vn 0.26594245 -0.9621403 0.059671063
vn 0.26594245 -0.9621403 0.059671063
vn 0.26594245 -0.9621403 0.059671063
vn -0.26594245 -0.9621403 0.059671063
vn -0.26594245 -0.9621403 0.059671063
vn -0.26594245 -0.9621403 0.059671063
vn 0 1 -0
vn 0 1 -0
vn 0 1 -0
vn 0 1 -0
vn 0 1 -0
vn 0 1 -0
vn 0 -0.9288244 0.3705202
vn 0 -0.9288244 0.3705202
vn 0 -0.9288244 0.3705202
vn 0.20726687 -0.9776919 0.034044534
vn 0.20726687 -0.9776919 0.034044534
vn 0.20726687 -0.9776919 0.034044534
vn -0.20726687 -0.9776919 0.034044534
vn -0.20726687 -0.9776919 0.034044534
vn -0.20726687 -0.9776919 0.034044534
vn 0 1 -0
vn 0 1 -0
vn 0 1 -0
vn 0 1 -0
vn 0 1 -0
vn 0 1 -0
vn 0 -0.9288245 0.37052017
vn 0 -0.9288245 0.37052017
vn 0 -0.9288245 0.37052017
vn 0.18302725 -0.98304623 0.011003842
vn 0.18302725 -0.98304623 0.011003842
vn 0.18302725 -0.98304623 0.011003842
vn -0.18302725 -0.98304623 0.011003842
vn -0.18302725 -0.98304623 0.011003842
vn -0.18302725 -0.98304623 0.011003842
vn 0 1 -0
vn 0 1 -0
vn 0 1 -0
vn 0 0.99999994 -0
vn 0 0.99999994 -0
vn 0 0.99999994 -0
vn 0 -0.9288244 0.37052009
vn 0 -0.9288244 0.37052009
vn 0 -0.9288244 0.37052009
vn 0.18193081 -0.98325044 -0.010937922
vn 0.18193081 -0.98325044 -0.010937922
vn 0.18193081 -0.98325044 -0.010937922
vn -0.18193081 -0.98325044 -0.010937922
vn -0.18193081 -0.98325044 -0.010937922
vn -0.18193081 -0.98325044 -0.010937922
vn 0 1 0
vn 0 1 0
vn 0 1 0
vn 0 1 0
vn 0 1 0
vn 0 1 0
vn 0 -0.9288244 0.3705203
vn 0 -0.9288244 0.3705203
vn 0 -0.9288244 0.3705203
vn 0.20937257 -0.97673553 -0.046376597
vn 0.20937257 -0.97673553 -0.046376597
vn 0.20937257 -0.97673553 -0.046376597
vn -0.20937257 -0.97673553 -0.046376597
vn -0.20937257 -0.97673553 -0.046376597
vn -0.20937257 -0.97673553 -0.046376597
vn 0 1 0
vn 0 1 0
vn 0 1 0
vn 0 1 0
vn 0 1 0
vn 0 1 0
vn 0 -0.9288245 0.37052
vn 0 -0.9288245 0.37052
vn 0 -0.9288245 0.37052
vn 0.3978028 -0.8721908 -0.28466848
vn 0.3978028 -0.8721908 -0.28466848
vn 0.3978028 -0.8721908 -0.28466848
vn -0.3978028 -0.8721908 -0.28466848
vn -0.3978028 -0.8721908 -0.28466848
vn -0.3978028 -0.8721908 -0.28466848
vn 0 1 0
vn 0 1 0
vn 0 1 0
vn 0 1 0
vn 0 1 0
vn 0 1 0
vn 0 -0.8389474 0.5442126
vn 0 -0.8389474 0.5442126
vn 0 -0.8389474 0.5442126
vn 0 -0.8389474 0.5442126
vn 0 -0.8389474 0.5442126
vn 0 -0.8389474 0.5442126
vn 0 -0.8389473 0.5442126
vn 0 -0.8389473 0.5442126
vn 0 -0.8389473 0.5442126
vn 0 -0.8389474 0.5442126
vn 0 -0.8389474 0.5442126
vn 0 -0.8389474 0.5442126
vn 0 -0.8389474 0.5442126
vn 0 -0.8389474 0.5442126
vn 0 -0.8389474 0.5442126
vn -0 0.9929588 0.11846062
vn -0 0.9929588 0.11846062
vn -0 0.9929588 0.11846062
vn 0 -0.99585307 0.09097637
vn 0 -0.99585307 0.09097637
vn 0 -0.99585307 0.09097637
vn 0 -0.99585307 0.09097637
vn 0 -0.99585307 0.09097637
vn 0 -0.99585307 0.09097637
vn 0 -0.53779423 0.84307617
vn 0 -0.53779423 0.84307617
vn 0 -0.53779423 0.84307617
vn 0 -0.53779423 0.8430762
vn 0 -0.53779423 0.8430762
vn 0 -0.53779423 0.8430762
vn 0 -0.53779435 0.8430761
vn 0 -0.53779435 0.8430761
vn 0 -0.53779435 0.8430761
f 1//1 2//2 3//3
f 4//4 5//5 6//6
f 7//7 8//8 9//9
f 10//10 11//11 12//12
f 13//13 14//14 15//15
f 16//16 17//17 18//18
f 19//19 20//20 21//21
f 22//22 23//23 24//24
f 25//25 26//26 27//27
f 28//28 29//29 30//30
f 31//31 32//32 33//33
f 34//34 35//35 36//36
f 37//37 38//38 39//39
f 40//40 41//41 42//42
f 43//43 44//44 45//45
f 46//46 47//47 48//48
f 49//49 50//50 51//51
f 52//52 53//53 54//54
f 55//55 56//56 57//57
f 58//58 59//59 60//60
f 61//61 62//62 63//63
f 64//64 65//65 66//66
f 67//67 68//68 69//69
f 70//70 71//71 72//72
f 73//73 74//74 75//75
f 76//76 77//77 78//78
f 79//79 80//80 81//81
f 82//82 83//83 84//84
f 85//85 86//86 87//87
f 88//88 89//89 90//90
f 91//91 92//92 93//93
f 94//94 95//95 96//96
f 97//97 98//98 99//99
f 100//100 101//101 102//102
f 103//103 104//104 105//105
f 106//106 107//107 108//108
f 109//109 110//110 111//111
f 112//112 113//113 114//114
f 115//115 116//116 117//117
f 118//118 119//119 120//120
f 121//121 122//122 123//123
