# Exported from SharpOpenGl procedural mesh
o vesper_bomber_mk1_07
# vertices 228
v -0.38845402 0.1789172 -1.5015118
v 0.38845402 0.1789172 -1.5015118
v 0 0.36805826 -1.179028
v -0.38845402 0.1789172 -1.5015118
v 0 0.36805826 -1.179028
v -0.582681 0.1789172 -0.7848812
v 0.38845402 0.1789172 -1.5015118
v 0.582681 0.1789172 -0.7848812
v 0 0.36805826 -1.179028
v -0.38845402 0 -1.5015118
v -0.582681 0 -0.7848812
v 0.38845402 0 -1.5015118
v 0.38845402 0 -1.5015118
v -0.582681 0 -0.7848812
v 0.582681 0 -0.7848812
v -0.38845402 0 -1.5015118
v -0.38845402 0.1789172 -1.5015118
v -0.582681 0.1789172 -0.7848812
v -0.38845402 0 -1.5015118
v -0.582681 0.1789172 -0.7848812
v -0.582681 0 -0.7848812
v 0.38845402 0 -1.5015118
v 0.582681 0.1789172 -0.7848812
v 0.38845402 0.1789172 -1.5015118
v 0.38845402 0 -1.5015118
v 0.582681 0 -0.7848812
v 0.582681 0.1789172 -0.7848812
v -0.582681 0.1789172 -0.7848812
v 0.582681 0.1789172 -0.7848812
v 0 0.36805826 -0.4623974
v -0.582681 0.1789172 -0.7848812
v 0 0.36805826 -0.4623974
v -0.7248651 0.1789172 -0.06825054
v 0.582681 0.1789172 -0.7848812
v 0.7248651 0.1789172 -0.06825054
v 0 0.36805826 -0.4623974
v -0.582681 0 -0.7848812
v -0.7248651 0 -0.06825054
v 0.582681 0 -0.7848812
v 0.582681 0 -0.7848812
v -0.7248651 0 -0.06825054
v 0.7248651 0 -0.06825054
v -0.582681 0 -0.7848812
v -0.582681 0.1789172 -0.7848812
v -0.7248651 0.1789172 -0.06825054
v -0.582681 0 -0.7848812
v -0.7248651 0.1789172 -0.06825054
v -0.7248651 0 -0.06825054
v 0.582681 0 -0.7848812
v 0.7248651 0.1789172 -0.06825054
v 0.582681 0.1789172 -0.7848812
v 0.582681 0 -0.7848812
v 0.7248651 0 -0.06825054
v 0.7248651 0.1789172 -0.06825054
v -0.7248651 0.1789172 -0.06825054
v 0.7248651 0.1789172 -0.06825054
v 0 0.36805826 0.2542332
v -0.7248651 0.1789172 -0.06825054
v 0 0.36805826 0.2542332
v -0.77690804 0.1789172 0.64838004
v 0.7248651 0.1789172 -0.06825054
v 0.77690804 0.1789172 0.64838004
v 0 0.36805826 0.2542332
v -0.7248651 0 -0.06825054
v -0.77690804 0 0.64838004
v 0.7248651 0 -0.06825054
v 0.7248651 0 -0.06825054
v -0.77690804 0 0.64838004
v 0.77690804 0 0.64838004
v -0.7248651 0 -0.06825054
v -0.7248651 0.1789172 -0.06825054
v -0.77690804 0.1789172 0.64838004
v -0.7248651 0 -0.06825054
v -0.77690804 0.1789172 0.64838004
v -0.77690804 0 0.64838004
v 0.7248651 0 -0.06825054
v 0.77690804 0.1789172 0.64838004
v 0.7248651 0.1789172 -0.06825054
v 0.7248651 0 -0.06825054
v 0.77690804 0 0.64838004
v 0.77690804 0.1789172 0.64838004
v -0.77690804 0.1789172 0.64838004
v 0.77690804 0.1789172 0.64838004
v 0 0.36805826 0.9708638
v -0.77690804 0.1789172 0.64838004
v 0 0.36805826 0.9708638
v -0.724865 0.1789172 1.3650107
v 0.77690804 0.1789172 0.64838004
v 0.724865 0.1789172 1.3650107
v 0 0.36805826 0.9708638
v -0.77690804 0 0.64838004
v -0.724865 0 1.3650107
v 0.77690804 0 0.64838004
v 0.77690804 0 0.64838004
v -0.724865 0 1.3650107
v 0.724865 0 1.3650107
v -0.77690804 0 0.64838004
v -0.77690804 0.1789172 0.64838004
v -0.724865 0.1789172 1.3650107
v -0.77690804 0 0.64838004
v -0.724865 0.1789172 1.3650107
v -0.724865 0 1.3650107
v 0.77690804 0 0.64838004
v 0.724865 0.1789172 1.3650107
v 0.77690804 0.1789172 0.64838004
v 0.77690804 0 0.64838004
v 0.724865 0 1.3650107
v 0.724865 0.1789172 1.3650107
v -0.724865 0.1789172 1.3650107
v 0.724865 0.1789172 1.3650107
v 0 0.36805826 1.6874944
v -0.724865 0.1789172 1.3650107
v 0 0.36805826 1.6874944
v -0.58268106 0.1789172 2.0816412
v 0.724865 0.1789172 1.3650107
v 0.58268106 0.1789172 2.0816412
v 0 0.36805826 1.6874944
v -0.724865 0 1.3650107
v -0.58268106 0 2.0816412
v 0.724865 0 1.3650107
v 0.724865 0 1.3650107
v -0.58268106 0 2.0816412
v 0.58268106 0 2.0816412
v -0.724865 0 1.3650107
v -0.724865 0.1789172 1.3650107
v -0.58268106 0.1789172 2.0816412
v -0.724865 0 1.3650107
v -0.58268106 0.1789172 2.0816412
v -0.58268106 0 2.0816412
v 0.724865 0 1.3650107
v 0.58268106 0.1789172 2.0816412
v 0.724865 0.1789172 1.3650107
v 0.724865 0 1.3650107
v 0.58268106 0 2.0816412
v 0.58268106 0.1789172 2.0816412
v -0.58268106 0.1789172 2.0816412
v 0.58268106 0.1789172 2.0816412
v 0 0.36805826 2.404125
v -0.58268106 0.1789172 2.0816412
v 0 0.36805826 2.404125
v -0 0.1789172 2.798272
v 0.58268106 0.1789172 2.0816412
v 0 0.1789172 2.798272
v 0 0.36805826 2.404125
v -0.58268106 0 2.0816412
v -0 0 2.798272
v 0.58268106 0 2.0816412
v 0.58268106 0 2.0816412
v -0 0 2.798272
v 0 0 2.798272
v -0.58268106 0 2.0816412
v -0.58268106 0.1789172 2.0816412
v -0 0.1789172 2.798272
v -0.58268106 0 2.0816412
v -0 0.1789172 2.798272
v -0 0 2.798272
v 0.58268106 0 2.0816412
v 0 0.1789172 2.798272
v 0.58268106 0.1789172 2.0816412
v 0.58268106 0 2.0816412
v 0 0 2.798272
v 0 0.1789172 2.798272
v -0.2832477 0 2.798272
v 0.2832477 0 2.798272
v 0 0.31284952 2.934773
v -0.2832477 0 -1.5015118
v 0 0.10735033 -1.6038876
v 0.2832477 0 -1.5015118
v 0 0.39872977 -1.1431965
v -0.08092792 0.31693906 -1.2564956
v 0.08092792 0.31693906 -1.2564956
v 0 0.39872977 -0.4265659
v -0.08092792 0.31693906 -0.53986496
v 0.08092792 0.31693906 -0.53986496
v 0 0.39872977 0.2900647
v -0.08092792 0.31693906 0.1767656
v 0.08092792 0.31693906 0.1767656
v 0 0.39872977 1.0066953
v -0.08092792 0.31693906 0.8933962
v 0.08092792 0.31693906 0.8933962
v 0 0.39872977 1.723326
v -0.08092792 0.31693906 1.6100268
v 0.08092792 0.31693906 1.6100268
v -0.33989725 0.14313377 -0.7275507
v 0.33989725 0.14313377 -0.7275507
v 0 0.24537216 -1.1575291
v -0.48835814 0.055264 -0.43432158
v -0.68928266 0 -0.5448301
v -0.28743362 0 -0.5448301
v 0 0.055264 -0.43432158
v -0.2009245 0 -0.5448301
v 0.2009245 0 -0.5448301
v 0.48835814 0.055264 -0.43432158
v 0.28743362 0 -0.5448301
v 0.68928266 0 -0.5448301
v -0.26454604 0.03454 -0.4219124
v 0.26454604 0.03454 -0.4219124
v 0 0.151976 -0.32884347
v -0.29524285 0.03454 0.09927356
v 0.29524285 0.03454 0.09927356
v 0 0.151976 0.19234248
v -0.30696797 0.03454 0.62045944
v 0.30696797 0.03454 0.62045944
v 0 0.151976 0.71352834
v -0.29524285 0.03454 1.1416453
v 0.29524285 0.03454 1.1416453
v 0 0.151976 1.2347143
v -0.26454604 0.03454 1.6628313
v 0.26454604 0.03454 1.6628313
v 0 0.151976 1.7559003
v 0 0.37994 -0.041363925
v -0.09767163 0.290136 -0.1809673
v 0.09767163 0.290136 -0.1809673
v 0 0.37994 0.41363966
v -0.09767163 0.290136 0.2740363
v 0.09767163 0.290136 0.2740363
v 0 0.37994 0.8686432
v -0.09767163 0.290136 0.72903985
v 0.09767163 0.290136 0.72903985
v 0 0.37994 1.3236468
v -0.09767163 0.290136 1.1840434
v 0.09767163 0.290136 1.1840434
v 0 0.37994 1.7786503
v -0.09767163 0.290136 1.6390469
v 0.09767163 0.290136 1.6390469
v -0.19534326 0 -1.3184762
v 0.19534326 0 -1.3184762
v 0 0.03454 -1.4580796
vn 0 -0.8625826 0.5059163
vn 0 -0.8625826 0.5059163
vn 0 -0.8625826 0.5059163
vn 0.36753023 -0.9246617 0.099610984
vn 0.36753023 -0.9246617 0.099610984
vn 0.36753023 -0.9246617 0.099610984
vn -0.36753023 -0.9246617 0.099610984
vn -0.36753023 -0.9246617 0.099610984
vn -0.36753023 -0.9246617 0.099610984
vn 0 1 -0
vn 0 1 -0
vn 0 1 -0
vn 0 1 -0
vn 0 1 -0
vn 0 1 -0
vn 0.9651789 -0 0.2615905
vn 0.9651789 -0 0.2615905
vn 0.9651789 -0 0.2615905
vn 0.9651789 0 0.2615905
vn 0.9651789 0 0.2615905
vn 0.9651789 0 0.2615905
vn -0.9651789 0 0.2615905
vn -0.9651789 0 0.2615905
vn -0.9651789 0 0.2615905
vn -0.9651789 0 0.2615905
vn -0.9651789 0 0.2615905
vn -0.9651789 0 0.2615905
vn 0 -0.86258256 0.50591624
vn 0 -0.86258256 0.50591624
vn 0 -0.86258256 0.50591624
vn 0.28029153 -0.9583027 0.05561162
vn 0.28029153 -0.9583027 0.05561162
vn 0.28029153 -0.9583027 0.05561162
vn -0.28029153 -0.9583027 0.05561162
vn -0.28029153 -0.9583027 0.05561162
vn -0.28029153 -0.9583027 0.05561162
vn 0 1 -0
vn 0 1 -0
vn 0 1 -0
vn 0 1 -0
vn 0 1 -0
vn 0 1 -0
vn 0.98088014 -0 0.19461286
vn 0.98088014 -0 0.19461286
vn 0.98088014 -0 0.19461286
vn 0.98088014 0 0.19461286
vn 0.98088014 0 0.19461286
vn 0.98088014 0 0.19461286
vn -0.98088014 0 0.19461286
vn -0.98088014 0 0.19461286
vn -0.98088014 0 0.19461286
vn -0.98088014 0 0.19461286
vn -0.98088014 0 0.19461286
vn -0.98088014 0 0.19461286
vn 0 -0.8625825 0.5059163
vn 0 -0.8625825 0.5059163
vn 0 -0.8625825 0.5059163
vn 0.24502017 -0.9693547 0.017793791
vn 0.24502017 -0.9693547 0.017793791
vn 0.24502017 -0.9693547 0.017793791
vn -0.24502017 -0.9693547 0.017793791
vn -0.24502017 -0.9693547 0.017793791
vn -0.24502017 -0.9693547 0.017793791
vn 0 1 -0
vn 0 1 -0
vn 0 1 -0
vn 0 1 -0
vn 0 1 -0
vn 0 1 -0
vn 0.9973734 -0 0.072431
vn 0.9973734 -0 0.072431
vn 0.9973734 -0 0.072431
vn 0.9973734 0 0.072431
vn 0.9973734 0 0.072431
vn 0.9973734 0 0.072431
vn -0.9973734 0 0.072431
vn -0.9973734 0 0.072431
vn -0.9973734 0 0.072431
vn -0.9973734 0 0.072431
vn -0.9973734 0 0.072431
vn -0.9973734 0 0.072431
vn 0 -0.8625826 0.5059163
vn 0 -0.8625826 0.5059163
vn 0 -0.8625826 0.5059163
vn 0.24342902 -0.9697576 -0.017678255
vn 0.24342902 -0.9697576 -0.017678255
vn 0.24342902 -0.9697576 -0.017678255
vn -0.24342902 -0.9697576 -0.017678255
vn -0.24342902 -0.9697576 -0.017678255
vn -0.24342902 -0.9697576 -0.017678255
vn 0 1 0
vn 0 1 0
vn 0 1 0
vn 0 1 0
vn 0 1 0
vn 0 1 0
vn 0.9973734 0 -0.072431065
vn 0.9973734 0 -0.072431065
vn 0.9973734 0 -0.072431065
vn 0.9973734 0 -0.072431065
vn 0.9973734 0 -0.072431065
vn 0.9973734 0 -0.072431065
vn -0.9973734 0 -0.072431065
vn -0.9973734 0 -0.072431065
vn -0.9973734 0 -0.072431065
vn -0.9973734 0 -0.072431065
vn -0.9973734 0 -0.072431065
vn -0.9973734 0 -0.072431065
vn 0 -0.86258245 0.50591636
vn 0 -0.86258245 0.50591636
vn 0 -0.86258245 0.50591636
vn 0.27473912 -0.95997244 -0.054509956
vn 0.27473912 -0.95997244 -0.054509956
vn 0.27473912 -0.95997244 -0.054509956
vn -0.27473912 -0.95997244 -0.054509956
vn -0.27473912 -0.95997244 -0.054509956
vn -0.27473912 -0.95997244 -0.054509956
vn 0 1 0
vn 0 1 0
vn 0 1 0
vn 0 1 0
vn 0 1 0
vn 0 1 0
vn 0.98088014 0 -0.19461276
vn 0.98088014 0 -0.19461276
vn 0.98088014 0 -0.19461276
vn 0.98088014 0 -0.19461276
vn 0.98088014 0 -0.19461276
vn 0.98088014 0 -0.19461276
vn -0.98088014 0 -0.19461276
vn -0.98088014 0 -0.19461276
vn -0.98088014 0 -0.19461276
vn -0.98088014 0 -0.19461276
vn -0.98088014 0 -0.19461276
vn -0.98088014 0 -0.19461276
vn 0 -0.8625826 0.50591624
vn 0 -0.8625826 0.50591624
vn 0 -0.8625826 0.50591624
vn 0.46973786 -0.79590887 -0.3819364
vn 0.46973786 -0.79590887 -0.3819364
vn 0.46973786 -0.79590887 -0.3819364
vn -0.46973786 -0.79590887 -0.3819364
vn -0.46973786 -0.79590887 -0.3819364
vn -0.46973786 -0.79590887 -0.3819364
vn 0 1 0
vn 0 1 0
vn 0 1 0
vn 0 1 0
vn 0 1 0
vn 0 1 0
vn 0.7758922 0 -0.6308656
vn 0.7758922 0 -0.6308656
vn 0.7758922 0 -0.6308656
vn 0.7758922 0 -0.6308656
vn 0.7758922 0 -0.6308656
vn 0.7758922 0 -0.6308656
vn -0.7758922 0 -0.6308656
vn -0.7758922 0 -0.6308656
vn -0.7758922 0 -0.6308656
vn -0.7758922 0 -0.6308656
vn -0.7758922 0 -0.6308656
vn -0.7758922 0 -0.6308656
vn 0 -0.39990738 0.91655564
vn 0 -0.39990738 0.91655564
vn 0 -0.39990738 0.91655564
vn 0 -0.6901405 -0.7236754
vn 0 -0.6901405 -0.7236754
vn 0 -0.6901405 -0.7236754
vn 0 -0.810803 0.5853192
vn 0 -0.810803 0.5853192
vn 0 -0.810803 0.5853192
vn 0 -0.8108029 0.5853194
vn 0 -0.8108029 0.5853194
vn 0 -0.8108029 0.5853194
vn 0 -0.8108028 0.5853193
vn 0 -0.8108028 0.5853193
vn 0 -0.8108028 0.5853193
vn 0 -0.8108029 0.5853194
vn 0 -0.8108029 0.5853194
vn 0 -0.8108029 0.5853194
vn 0 -0.810803 0.5853192
vn 0 -0.810803 0.5853192
vn 0 -0.810803 0.5853192
vn -0 0.9728762 0.23132624
vn -0 0.9728762 0.23132624
vn -0 0.9728762 0.23132624
vn 0 -0.8943957 0.44727677
vn 0 -0.8943957 0.44727677
vn 0 -0.8943957 0.44727677
vn 0 -0.8943957 0.44727674
vn 0 -0.8943957 0.44727674
vn 0 -0.8943957 0.44727674
vn 0 -0.8943957 0.44727677
vn 0 -0.8943957 0.44727677
vn 0 -0.8943957 0.44727677
vn 0 -0.621108 0.78372496
vn 0 -0.621108 0.78372496
vn 0 -0.621108 0.78372496
vn 0 -0.62110794 0.783725
vn 0 -0.62110794 0.783725
vn 0 -0.62110794 0.783725
vn 0 -0.6211079 0.7837251
vn 0 -0.6211079 0.7837251
vn 0 -0.6211079 0.7837251
vn 0 -0.6211081 0.78372484
vn 0 -0.6211081 0.78372484
vn 0 -0.6211081 0.78372484
vn 0 -0.6211081 0.78372484
vn 0 -0.6211081 0.78372484
vn 0 -0.6211081 0.78372484
vn 0 -0.8410169 0.54100895
vn 0 -0.8410169 0.54100895
vn 0 -0.8410169 0.54100895
vn 0 -0.8410169 0.54100895
vn 0 -0.8410169 0.54100895
vn 0 -0.8410169 0.54100895
vn 0 -0.8410169 0.54100895
vn 0 -0.8410169 0.54100895
vn 0 -0.8410169 0.54100895
vn 0 -0.8410169 0.54100895
vn 0 -0.8410169 0.54100895
vn 0 -0.8410169 0.54100895
vn 0 -0.8410169 0.54100895
vn 0 -0.8410169 0.54100895
vn 0 -0.8410169 0.54100895
vn -0 0.97072995 0.24017338
vn -0 0.97072995 0.24017338
vn -0 0.97072995 0.24017338
f 1//1 2//2 3//3
f 4//4 5//5 6//6
f 7//7 8//8 9//9
f 10//10 11//11 12//12
f 13//13 14//14 15//15
f 16//16 17//17 18//18
f 19//19 20//20 21//21
f 22//22 23//23 24//24
f 25//25 26//26 27//27
f 28//28 29//29 30//30
f 31//31 32//32 33//33
f 34//34 35//35 36//36
f 37//37 38//38 39//39
f 40//40 41//41 42//42
f 43//43 44//44 45//45
f 46//46 47//47 48//48
f 49//49 50//50 51//51
f 52//52 53//53 54//54
f 55//55 56//56 57//57
f 58//58 59//59 60//60
f 61//61 62//62 63//63
f 64//64 65//65 66//66
f 67//67 68//68 69//69
f 70//70 71//71 72//72
f 73//73 74//74 75//75
f 76//76 77//77 78//78
f 79//79 80//80 81//81
f 82//82 83//83 84//84
f 85//85 86//86 87//87
f 88//88 89//89 90//90
f 91//91 92//92 93//93
f 94//94 95//95 96//96
f 97//97 98//98 99//99
f 100//100 101//101 102//102
f 103//103 104//104 105//105
f 106//106 107//107 108//108
f 109//109 110//110 111//111
f 112//112 113//113 114//114
f 115//115 116//116 117//117
f 118//118 119//119 120//120
f 121//121 122//122 123//123
f 124//124 125//125 126//126
f 127//127 128//128 129//129
f 130//130 131//131 132//132
f 133//133 134//134 135//135
f 136//136 137//137 138//138
f 139//139 140//140 141//141
f 142//142 143//143 144//144
f 145//145 146//146 147//147
f 148//148 149//149 150//150
f 151//151 152//152 153//153
f 154//154 155//155 156//156
f 157//157 158//158 159//159
f 160//160 161//161 162//162
f 163//163 164//164 165//165
f 166//166 167//167 168//168
f 169//169 170//170 171//171
f 172//172 173//173 174//174
f 175//175 176//176 177//177
f 178//178 179//179 180//180
f 181//181 182//182 183//183
f 184//184 185//185 186//186
f 187//187 188//188 189//189
f 190//190 191//191 192//192
f 193//193 194//194 195//195
f 196//196 197//197 198//198
f 199//199 200//200 201//201
f 202//202 203//203 204//204
f 205//205 206//206 207//207
f 208//208 209//209 210//210
f 211//211 212//212 213//213
f 214//214 215//215 216//216
f 217//217 218//218 219//219
f 220//220 221//221 222//222
f 223//223 224//224 225//225
f 226//226 227//227 228//228
