# Exported from SharpOpenGl procedural mesh
o vesper_frigate_prototype_55
# vertices 225
v -0.3868324 0.20954579 -2.673096
v 0.3868324 0.20954579 -2.673096
v 0 0.43106565 -2.0989878
v -0.3868324 0.20954579 -2.673096
v 0 0.43106565 -2.0989878
v -0.58024853 0.20954579 -1.3973001
v 0.3868324 0.20954579 -2.673096
v 0.58024853 0.20954579 -1.3973001
v 0 0.43106565 -2.0989878
v -0.3868324 0 -2.673096
v -0.58024853 0 -1.3973001
v 0.3868324 0 -2.673096
v 0.3868324 0 -2.673096
v -0.58024853 0 -1.3973001
v 0.58024853 0 -1.3973001
v -0.3868324 0 -2.673096
v -0.3868324 0.20954579 -2.673096
v -0.58024853 0.20954579 -1.3973001
v -0.3868324 0 -2.673096
v -0.58024853 0.20954579 -1.3973001
v -0.58024853 0 -1.3973001
v 0.3868324 0 -2.673096
v 0.58024853 0.20954579 -1.3973001
v 0.3868324 0.20954579 -2.673096
v 0.3868324 0 -2.673096
v 0.58024853 0 -1.3973001
v 0.58024853 0.20954579 -1.3973001
v -0.58024853 0.20954579 -1.3973001
v 0.58024853 0.20954579 -1.3973001
v 0 0.43106565 -0.823192
v -0.58024853 0.20954579 -1.3973001
v 0 0.43106565 -0.823192
v -0.7218391 0.20954579 -0.12150431
v 0.58024853 0.20954579 -1.3973001
v 0.7218391 0.20954579 -0.12150431
v 0 0.43106565 -0.823192
v -0.58024853 0 -1.3973001
v -0.7218391 0 -0.12150431
v 0.58024853 0 -1.3973001
v 0.58024853 0 -1.3973001
v -0.7218391 0 -0.12150431
v 0.7218391 0 -0.12150431
v -0.58024853 0 -1.3973001
v -0.58024853 0.20954579 -1.3973001
v -0.7218391 0.20954579 -0.12150431
v -0.58024853 0 -1.3973001
v -0.7218391 0.20954579 -0.12150431
v -0.7218391 0 -0.12150431
v 0.58024853 0 -1.3973001
v 0.7218391 0.20954579 -0.12150431
v 0.58024853 0.20954579 -1.3973001
v 0.58024853 0 -1.3973001
v 0.7218391 0 -0.12150431
v 0.7218391 0.20954579 -0.12150431
v -0.7218391 0.20954579 -0.12150431
v 0.7218391 0.20954579 -0.12150431
v 0 0.43106565 0.45260376
v -0.7218391 0.20954579 -0.12150431
v 0 0.43106565 0.45260376
v -0.7736648 0.20954579 1.1542914
v 0.7218391 0.20954579 -0.12150431
v 0.7736648 0.20954579 1.1542914
v 0 0.43106565 0.45260376
v -0.7218391 0 -0.12150431
v -0.7736648 0 1.1542914
v 0.7218391 0 -0.12150431
v 0.7218391 0 -0.12150431
v -0.7736648 0 1.1542914
v 0.7736648 0 1.1542914
v -0.7218391 0 -0.12150431
v -0.7218391 0.20954579 -0.12150431
v -0.7736648 0.20954579 1.1542914
v -0.7218391 0 -0.12150431
v -0.7736648 0.20954579 1.1542914
v -0.7736648 0 1.1542914
v 0.7218391 0 -0.12150431
v 0.7736648 0.20954579 1.1542914
v 0.7218391 0.20954579 -0.12150431
v 0.7218391 0 -0.12150431
v 0.7736648 0 1.1542914
v 0.7736648 0.20954579 1.1542914
v -0.7736648 0.20954579 1.1542914
v 0.7736648 0.20954579 1.1542914
v 0 0.43106565 1.7283995
v -0.7736648 0.20954579 1.1542914
v 0 0.43106565 1.7283995
v -0.7218391 0.20954579 2.4300873
v 0.7736648 0.20954579 1.1542914
v 0.7218391 0.20954579 2.4300873
v 0 0.43106565 1.7283995
v -0.7736648 0 1.1542914
v -0.7218391 0 2.4300873
v 0.7736648 0 1.1542914
v 0.7736648 0 1.1542914
v -0.7218391 0 2.4300873
v 0.7218391 0 2.4300873
v -0.7736648 0 1.1542914
v -0.7736648 0.20954579 1.1542914
v -0.7218391 0.20954579 2.4300873
v -0.7736648 0 1.1542914
v -0.7218391 0.20954579 2.4300873
v -0.7218391 0 2.4300873
v 0.7736648 0 1.1542914
v 0.7218391 0.20954579 2.4300873
v 0.7736648 0.20954579 1.1542914
v 0.7736648 0 1.1542914
v 0.7218391 0 2.4300873
v 0.7218391 0.20954579 2.4300873
v -0.7218391 0.20954579 2.4300873
v 0.7218391 0.20954579 2.4300873
v 0 0.43106565 3.0041952
v -0.7218391 0.20954579 2.4300873
v 0 0.43106565 3.0041952
v -0.5802486 0.20954579 3.7058828
v 0.7218391 0.20954579 2.4300873
v 0.5802486 0.20954579 3.7058828
v 0 0.43106565 3.0041952
v -0.7218391 0 2.4300873
v -0.5802486 0 3.7058828
v 0.7218391 0 2.4300873
v 0.7218391 0 2.4300873
v -0.5802486 0 3.7058828
v 0.5802486 0 3.7058828
v -0.7218391 0 2.4300873
v -0.7218391 0.20954579 2.4300873
v -0.5802486 0.20954579 3.7058828
v -0.7218391 0 2.4300873
v -0.5802486 0.20954579 3.7058828
v -0.5802486 0 3.7058828
v 0.7218391 0 2.4300873
v 0.5802486 0.20954579 3.7058828
v 0.7218391 0.20954579 2.4300873
v 0.7218391 0 2.4300873
v 0.5802486 0 3.7058828
v 0.5802486 0.20954579 3.7058828
v -0.5802486 0.20954579 3.7058828
v 0.5802486 0.20954579 3.7058828
v 0 0.43106565 4.279991
v -0.5802486 0.20954579 3.7058828
v 0 0.43106565 4.279991
v -0 0.20954579 4.981679
v 0.5802486 0.20954579 3.7058828
v 0 0.20954579 4.981679
v 0 0.43106565 4.279991
v -0.5802486 0 3.7058828
v -0 0 4.981679
v 0.5802486 0 3.7058828
v 0.5802486 0 3.7058828
v -0 0 4.981679
v 0 0 4.981679
v -0.5802486 0 3.7058828
v -0.5802486 0.20954579 3.7058828
v -0 0.20954579 4.981679
v -0.5802486 0 3.7058828
v -0 0.20954579 4.981679
v -0 0 4.981679
v 0.5802486 0 3.7058828
v 0 0.20954579 4.981679
v 0.5802486 0.20954579 3.7058828
v 0.5802486 0 3.7058828
v 0 0 4.981679
v 0 0.20954579 4.981679
v -0.28206527 0 4.981679
v 0.28206527 0 4.981679
v 0 0.3664058 5.2246876
v -0.28206527 0 -2.673096
v 0 0.12572747 -2.8553524
v 0.28206527 0 -2.673096
v 0 0.46698773 -2.035198
v -0.080590084 0.3711954 -2.148024
v 0.080590084 0.3711954 -2.148024
v 0 0.46698773 -0.7594023
v -0.080590084 0.3711954 -0.8722284
v 0.080590084 0.3711954 -0.8722284
v 0 0.46698773 0.5163934
v -0.080590084 0.3711954 0.4035673
v 0.080590084 0.3711954 0.4035673
v 0 0.46698773 1.7921894
v -0.080590084 0.3711954 1.6793633
v 0.080590084 0.3711954 1.6793633
v 0 0.46698773 3.0679853
v -0.080590084 0.3711954 2.9551592
v 0.080590084 0.3711954 2.9551592
v -0.33847833 0.16763663 -1.2952365
v 0.33847833 0.16763663 -1.2952365
v 0 0.2873771 -2.060714
v -0.38905558 0.064724565 -0.7732096
v -0.5724675 0 -0.87408614
v -0.20564367 0 -0.87408614
v 0.38905558 0.064724565 -0.7732096
v 0.20564367 0 -0.87408614
v 0.5724675 0 -0.87408614
v -0.26344168 0.040452857 -0.7511178
v 0.26344168 0.040452857 -0.7511178
v 0 0.17799257 -0.5854301
v -0.29401034 0.040452857 0.17673373
v 0.29401034 0.040452857 0.17673373
v 0 0.17799257 0.34242147
v -0.3056865 0.040452857 1.1045852
v 0.3056865 0.040452857 1.1045852
v 0 0.17799257 1.270273
v -0.29401034 0.040452857 2.0324366
v 0.29401034 0.040452857 2.0324366
v 0 0.17799257 2.1981244
v -0.26344168 0.040452857 2.960288
v 0.26344168 0.040452857 2.960288
v 0 0.17799257 3.1259758
v 0 0.44498143 -0.073638916
v -0.097263895 0.33980396 -0.32217056
v 0.097263895 0.33980396 -0.32217056
v 0 0.44498143 0.73639023
v -0.097263895 0.33980396 0.4878586
v 0.097263895 0.33980396 0.4878586
v 0 0.44498143 1.5464193
v -0.097263895 0.33980396 1.2978876
v 0.097263895 0.33980396 1.2978876
v 0 0.44498143 2.3564487
v -0.097263895 0.33980396 2.107917
v 0.097263895 0.33980396 2.107917
v 0 0.44498143 3.1664777
v -0.097263895 0.33980396 2.917946
v 0.097263895 0.33980396 2.917946
v -0.19452779 0 -2.3472433
v 0.19452779 0 -2.3472433
v 0 0.040452857 -2.5957751
vn 0 -0.932959 0.35998264
vn 0 -0.932959 0.35998264
vn 0 -0.932959 0.35998264
vn 0.42261294 -0.90404284 0.06406994
vn 0.42261294 -0.90404284 0.06406994
vn 0.42261294 -0.90404284 0.06406994
vn -0.42261294 -0.90404284 0.06406994
vn -0.42261294 -0.90404284 0.06406994
vn -0.42261294 -0.90404284 0.06406994
vn 0 1 -0
vn 0 1 -0
vn 0 1 -0
vn 0 1 -0
vn 0 1 -0
vn 0 1 -0
vn 0.9887025 -0 0.14989156
vn 0.9887025 -0 0.14989156
vn 0.9887025 -0 0.14989156
vn 0.9887025 0 0.14989156
vn 0.9887025 0 0.14989156
vn 0.9887025 0 0.14989156
vn -0.9887025 0 0.14989156
vn -0.9887025 0 0.14989156
vn -0.9887025 0 0.14989156
vn -0.9887025 0 0.14989156
vn -0.9887025 0 0.14989156
vn -0.9887025 0 0.14989156
vn 0 -0.93295896 0.35998258
vn 0 -0.93295896 0.35998258
vn 0 -0.93295896 0.35998258
vn 0.32507434 -0.945 0.036077444
vn 0.32507434 -0.945 0.036077444
vn 0.32507434 -0.945 0.036077444
vn -0.32507434 -0.945 0.036077444
vn -0.32507434 -0.945 0.036077444
vn -0.32507434 -0.945 0.036077444
vn 0 1 -0
vn 0 1 -0
vn 0 1 -0
vn 0 1 -0
vn 0 1 -0
vn 0 1 -0
vn 0.9938978 -0 0.11030489
vn 0.9938978 -0 0.11030489
vn 0.9938978 -0 0.11030489
vn 0.9938978 0 0.11030489
vn 0.9938978 0 0.11030489
vn 0.9938978 0 0.11030489
vn -0.9938978 0 0.11030489
vn -0.9938978 0 0.11030489
vn -0.9938978 0 0.11030489
vn -0.9938978 0 0.11030489
vn -0.9938978 0 0.11030489
vn -0.9938978 0 0.11030489
vn 0 -0.9329591 0.3599827
vn 0 -0.9329591 0.3599827
vn 0 -0.9329591 0.3599827
vn 0.2849342 -0.95847726 0.01157467
vn 0.2849342 -0.95847726 0.01157467
vn 0.2849342 -0.95847726 0.01157467
vn -0.2849342 -0.95847726 0.01157467
vn -0.2849342 -0.95847726 0.01157467
vn -0.2849342 -0.95847726 0.01157467
vn 0 0.99999994 -0
vn 0 0.99999994 -0
vn 0 0.99999994 -0
vn 0 0.99999994 -0
vn 0 0.99999994 -0
vn 0 0.99999994 -0
vn 0.99917597 -0 0.04058878
vn 0.99917597 -0 0.04058878
vn 0.99917597 -0 0.04058878
vn 0.99917597 0 0.04058878
vn 0.99917597 0 0.04058878
vn 0.99917597 0 0.04058878
vn -0.99917597 0 0.04058878
vn -0.99917597 0 0.04058878
vn -0.99917597 0 0.04058878
vn -0.99917597 0 0.04058878
vn -0.99917597 0 0.04058878
vn -0.99917597 0 0.04058878
vn 0 -0.932959 0.35998264
vn 0 -0.932959 0.35998264
vn 0 -0.932959 0.35998264
vn 0.2831247 -0.9590141 -0.011501161
vn 0.2831247 -0.9590141 -0.011501161
vn 0.2831247 -0.9590141 -0.011501161
vn -0.2831247 -0.9590141 -0.011501161
vn -0.2831247 -0.9590141 -0.011501161
vn -0.2831247 -0.9590141 -0.011501161
vn 0 1 0
vn 0 1 0
vn 0 1 0
vn 0 1 0
vn 0 1 0
vn 0 1 0
vn 0.99917597 0 -0.040588774
vn 0.99917597 0 -0.040588774
vn 0.99917597 0 -0.040588774
vn 0.99917597 0 -0.040588774
vn 0.99917597 0 -0.040588774
vn 0.99917597 0 -0.040588774
vn -0.99917597 0 -0.040588774
vn -0.99917597 0 -0.040588774
vn -0.99917597 0 -0.040588774
vn -0.99917597 0 -0.040588774
vn -0.99917597 0 -0.040588774
vn -0.99917597 0 -0.040588774
vn 0 -0.932959 0.35998276
vn 0 -0.932959 0.35998276
vn 0 -0.932959 0.35998276
vn 0.31880727 -0.947159 -0.035381906
vn 0.31880727 -0.947159 -0.035381906
vn 0.31880727 -0.947159 -0.035381906
vn -0.31880727 -0.947159 -0.035381906
vn -0.31880727 -0.947159 -0.035381906
vn -0.31880727 -0.947159 -0.035381906
vn 0 1 0
vn 0 1 0
vn 0 1 0
vn 0 0.99999994 0
vn 0 0.99999994 0
vn 0 0.99999994 0
vn 0.9938978 0 -0.110304885
vn 0.9938978 0 -0.110304885
vn 0.9938978 0 -0.110304885
vn 0.9938978 0 -0.110304885
vn 0.9938978 0 -0.110304885
vn 0.9938978 0 -0.110304885
vn -0.9938978 0 -0.110304885
vn -0.9938978 0 -0.110304885
vn -0.9938978 0 -0.110304885
vn -0.9938978 0 -0.110304885
vn -0.9938978 0 -0.110304885
vn -0.9938978 0 -0.110304885
vn 0 -0.9329591 0.3599825
vn 0 -0.9329591 0.3599825
vn 0 -0.9329591 0.3599825
vn 0.55195737 -0.79518765 -0.25103733
vn 0.55195737 -0.79518765 -0.25103733
vn 0.55195737 -0.79518765 -0.25103733
vn -0.55195737 -0.79518765 -0.25103733
vn -0.55195737 -0.79518765 -0.25103733
vn -0.55195737 -0.79518765 -0.25103733
vn 0 1 0
vn 0 1 0
vn 0 1 0
vn 0 1 0
vn 0 1 0
vn 0 1 0
vn 0.9102747 0 -0.4140047
vn 0.9102747 0 -0.4140047
vn 0.9102747 0 -0.4140047
vn 0.9102747 0 -0.4140047
vn 0.9102747 0 -0.4140047
vn 0.9102747 0 -0.4140047
vn -0.9102747 0 -0.4140047
vn -0.9102747 0 -0.4140047
vn -0.9102747 0 -0.4140047
vn -0.9102747 0 -0.4140047
vn -0.9102747 0 -0.4140047
vn -0.9102747 0 -0.4140047
vn 0 -0.55271155 0.83337265
vn 0 -0.55271155 0.83337265
vn 0 -0.55271155 0.83337265
vn 0 -0.82314235 -0.5678351
vn 0 -0.82314235 -0.5678351
vn 0 -0.82314235 -0.5678351
vn 0 -0.7623055 0.6472174
vn 0 -0.7623055 0.6472174
vn 0 -0.7623055 0.6472174
vn 0 -0.7623055 0.6472174
vn 0 -0.7623055 0.6472174
vn 0 -0.7623055 0.6472174
vn 0 -0.7623055 0.6472174
vn 0 -0.7623055 0.6472174
vn 0 -0.7623055 0.6472174
vn 0 -0.7623055 0.6472174
vn 0 -0.7623055 0.6472174
vn 0 -0.7623055 0.6472174
vn 0 -0.7623055 0.6472174
vn 0 -0.7623055 0.6472174
vn 0 -0.7623055 0.6472174
vn -0 0.98798543 0.15454644
vn -0 0.98798543 0.15454644
vn -0 0.98798543 0.15454644
vn 0 -0.8416513 0.5400215
vn 0 -0.8416513 0.5400215
vn 0 -0.8416513 0.5400215
vn 0 -0.8416513 0.5400215
vn 0 -0.8416513 0.5400215
vn 0 -0.8416513 0.5400215
vn 0 -0.76943815 0.6387214
vn 0 -0.76943815 0.6387214
vn 0 -0.76943815 0.6387214
vn 0 -0.7694381 0.63872135
vn 0 -0.7694381 0.63872135
vn 0 -0.7694381 0.63872135
vn 0 -0.76943827 0.6387213
vn 0 -0.76943827 0.6387213
vn 0 -0.76943827 0.6387213
vn 0 -0.7694382 0.63872117
vn 0 -0.7694382 0.63872117
vn 0 -0.7694382 0.63872117
vn 0 -0.7694382 0.63872117
vn 0 -0.7694382 0.63872117
vn 0 -0.7694382 0.63872117
vn 0 -0.9209281 0.3897326
vn 0 -0.9209281 0.3897326
vn 0 -0.9209281 0.3897326
vn 0 -0.9209281 0.3897326
vn 0 -0.9209281 0.3897326
vn 0 -0.9209281 0.3897326
vn 0 -0.9209281 0.3897325
vn 0 -0.9209281 0.3897325
vn 0 -0.9209281 0.3897325
vn 0 -0.92092806 0.38973266
vn 0 -0.92092806 0.38973266
vn 0 -0.92092806 0.38973266
vn 0 -0.92092806 0.38973266
vn 0 -0.92092806 0.38973266
vn 0 -0.92092806 0.38973266
vn -0 0.98701096 0.16065311
vn -0 0.98701096 0.16065311
vn -0 0.98701096 0.16065311
f 1//1 2//2 3//3
f 4//4 5//5 6//6
f 7//7 8//8 9//9
f 10//10 11//11 12//12
f 13//13 14//14 15//15
f 16//16 17//17 18//18
f 19//19 20//20 21//21
f 22//22 23//23 24//24
f 25//25 26//26 27//27
f 28//28 29//29 30//30
f 31//31 32//32 33//33
f 34//34 35//35 36//36
f 37//37 38//38 39//39
f 40//40 41//41 42//42
f 43//43 44//44 45//45
f 46//46 47//47 48//48
f 49//49 50//50 51//51
f 52//52 53//53 54//54
f 55//55 56//56 57//57
f 58//58 59//59 60//60
f 61//61 62//62 63//63
f 64//64 65//65 66//66
f 67//67 68//68 69//69
f 70//70 71//71 72//72
f 73//73 74//74 75//75
f 76//76 77//77 78//78
f 79//79 80//80 81//81
f 82//82 83//83 84//84
f 85//85 86//86 87//87
f 88//88 89//89 90//90
f 91//91 92//92 93//93
f 94//94 95//95 96//96
f 97//97 98//98 99//99
f 100//100 101//101 102//102
f 103//103 104//104 105//105
f 106//106 107//107 108//108
f 109//109 110//110 111//111
f 112//112 113//113 114//114
f 115//115 116//116 117//117
f 118//118 119//119 120//120
f 121//121 122//122 123//123
f 124//124 125//125 126//126
f 127//127 128//128 129//129
f 130//130 131//131 132//132
f 133//133 134//134 135//135
f 136//136 137//137 138//138
f 139//139 140//140 141//141
f 142//142 143//143 144//144
f 145//145 146//146 147//147
f 148//148 149//149 150//150
f 151//151 152//152 153//153
f 154//154 155//155 156//156
f 157//157 158//158 159//159
f 160//160 161//161 162//162
f 163//163 164//164 165//165
f 166//166 167//167 168//168
f 169//169 170//170 171//171
f 172//172 173//173 174//174
f 175//175 176//176 177//177
f 178//178 179//179 180//180
f 181//181 182//182 183//183
f 184//184 185//185 186//186
f 187//187 188//188 189//189
f 190//190 191//191 192//192
f 193//193 194//194 195//195
f 196//196 197//197 198//198
f 199//199 200//200 201//201
f 202//202 203//203 204//204
f 205//205 206//206 207//207
f 208//208 209//209 210//210
f 211//211 212//212 213//213
f 214//214 215//215 216//216
f 217//217 218//218 219//219
f 220//220 221//221 222//222
f 223//223 224//224 225//225
