# Exported from SharpOpenGl procedural mesh
o vesper_corvette_mk1_04
# vertices 117
v -0.2934216 0.11799383 -2.0320907
v 0.2934216 0.11799383 -2.0320907
v 0 0.24273019 -1.6524591
v -0.2934216 0.11799383 -2.0320907
v 0 0.24273019 -1.6524591
v -0.4134577 0.11799383 -1.1884651
v 0.2934216 0.11799383 -2.0320907
v 0.4134577 0.11799383 -1.1884651
v 0 0.24273019 -1.6524591
v -0.2934216 0 -2.0320907
v -0.4134577 0 -1.1884651
v 0.2934216 0 -2.0320907
v 0.2934216 0 -2.0320907
v -0.4134577 0 -1.1884651
v 0.4134577 0 -1.1884651
v -0.4134577 0.11799383 -1.1884651
v 0.4134577 0.11799383 -1.1884651
v 0 0.24273019 -0.8088336
v -0.4134577 0.11799383 -1.1884651
v 0 0.24273019 -0.8088336
v -0.50133026 0.11799383 -0.34483957
v 0.4134577 0.11799383 -1.1884651
v 0.50133026 0.11799383 -0.34483957
v 0 0.24273019 -0.8088336
v -0.4134577 0 -1.1884651
v -0.50133026 0 -0.34483957
v 0.4134577 0 -1.1884651
v 0.4134577 0 -1.1884651
v -0.50133026 0 -0.34483957
v 0.50133026 0 -0.34483957
v -0.50133026 0.11799383 -0.34483957
v 0.50133026 0.11799383 -0.34483957
v 0 0.24273019 0.034791917
v -0.50133026 0.11799383 -0.34483957
v 0 0.24273019 0.034791917
v -0.5334938 0.11799383 0.49878597
v 0.50133026 0.11799383 -0.34483957
v 0.5334938 0.11799383 0.49878597
v 0 0.24273019 0.034791917
v -0.50133026 0 -0.34483957
v -0.5334938 0 0.49878597
v 0.50133026 0 -0.34483957
v 0.50133026 0 -0.34483957
v -0.5334938 0 0.49878597
v 0.5334938 0 0.49878597
v -0.5334938 0.11799383 0.49878597
v 0.5334938 0.11799383 0.49878597
v 0 0.24273019 0.8784175
v -0.5334938 0.11799383 0.49878597
v 0 0.24273019 0.8784175
v -0.50133026 0.11799383 1.3424115
v 0.5334938 0.11799383 0.49878597
v 0.50133026 0.11799383 1.3424115
v 0 0.24273019 0.8784175
v -0.5334938 0 0.49878597
v -0.50133026 0 1.3424115
v 0.5334938 0 0.49878597
v 0.5334938 0 0.49878597
v -0.50133026 0 1.3424115
v 0.50133026 0 1.3424115
v -0.50133026 0.11799383 1.3424115
v 0.50133026 0.11799383 1.3424115
v 0 0.24273019 1.722043
v -0.50133026 0.11799383 1.3424115
v 0 0.24273019 1.722043
v -0.38283125 0.11799383 2.186037
v 0.50133026 0.11799383 1.3424115
v 0.38283125 0.11799383 2.186037
v 0 0.24273019 1.722043
v -0.50133026 0 1.3424115
v -0.38283125 0 2.186037
v 0.50133026 0 1.3424115
v 0.50133026 0 1.3424115
v -0.38283125 0 2.186037
v 0.38283125 0 2.186037
v -0.38283125 0.11799383 2.186037
v 0.38283125 0.11799383 2.186037
v 0 0.24273019 2.5656686
v -0.38283125 0.11799383 2.186037
v 0 0.24273019 2.5656686
v -0 0.11799383 3.0296626
v 0.38283125 0.11799383 2.186037
v 0 0.11799383 3.0296626
v 0 0.24273019 2.5656686
v -0.38283125 0 2.186037
v -0 0 3.0296626
v 0.38283125 0 2.186037
v 0.38283125 0 2.186037
v -0 0 3.0296626
v 0 0 3.0296626
v 0 0.2629577 -1.6102779
v -0.042679504 0.20901765 -1.6742971
v 0.042679504 0.20901765 -1.6742971
v 0 0.2629577 -0.76665235
v -0.042679504 0.20901765 -0.8306716
v 0.042679504 0.20901765 -0.8306716
v 0 0.2629577 0.0769732
v -0.042679504 0.20901765 0.0129539445
v 0.042679504 0.20901765 0.0129539445
v 0 0.2629577 0.92059875
v -0.042679504 0.20901765 0.8565795
v 0.042679504 0.20901765 0.8565795
v 0 0.2629577 1.7642243
v -0.042679504 0.20901765 1.7002051
v 0.042679504 0.20901765 1.7002051
v -0.22406739 0.09439507 -0.55420655
v 0.22406739 0.09439507 -0.55420655
v 0 0.14159259 -1.0345188
v -0.32193592 0.037458356 -1.9919308
v -0.43231395 0 -2.2347624
v -0.2115579 0 -2.2347624
v 0 0.037458356 -1.9919308
v -0.11037803 0 -2.2347624
v 0.11037803 0 -2.2347624
v 0.32193592 0.037458356 -1.9919308
v 0.2115579 0 -2.2347624
v 0.43231395 0 -2.2347624
vn 0 -0.9500316 0.31215394
vn 0 -0.9500316 0.31215394
vn 0 -0.9500316 0.31215394
vn 0.33751106 -0.9400958 0.048023097
vn 0.33751106 -0.9400958 0.048023097
vn 0.33751106 -0.9400958 0.048023097
vn -0.33751106 -0.9400958 0.048023097
vn -0.33751106 -0.9400958 0.048023097
vn -0.33751106 -0.9400958 0.048023097
vn 0 1 -0
vn 0 1 -0
vn 0 1 -0
vn 0 1 -0
vn 0 1 -0
vn 0 1 -0
vn 0 -0.9500316 0.31215394
vn 0 -0.9500316 0.31215394
vn 0 -0.9500316 0.31215394
vn 0.2653741 -0.96374923 0.027641533
vn 0.2653741 -0.96374923 0.027641533
vn 0.2653741 -0.96374923 0.027641533
vn -0.2653741 -0.96374923 0.027641533
vn -0.2653741 -0.96374923 0.027641533
vn -0.2653741 -0.96374923 0.027641533
vn 0 1 -0
vn 0 1 -0
vn 0 1 -0
vn 0 1 -0
vn 0 1 -0
vn 0 1 -0
vn 0 -0.9500315 0.31215397
vn 0 -0.9500315 0.31215397
vn 0 -0.9500315 0.31215397
vn 0.23504412 -0.9719433 0.008961151
vn 0.23504412 -0.9719433 0.008961151
vn 0.23504412 -0.9719433 0.008961151
vn -0.23504412 -0.9719433 0.008961151
vn -0.23504412 -0.9719433 0.008961151
vn -0.23504412 -0.9719433 0.008961151
vn 0 1 -0
vn 0 1 -0
vn 0 1 -0
vn 0 1 -0
vn 0 1 -0
vn 0 1 -0
vn 0 -0.9500315 0.31215394
vn 0 -0.9500315 0.31215394
vn 0 -0.9500315 0.31215394
vn 0.23366746 -0.9722758 -0.008908666
vn 0.23366746 -0.9722758 -0.008908666
vn 0.23366746 -0.9722758 -0.008908666
vn -0.23366746 -0.9722758 -0.008908666
vn -0.23366746 -0.9722758 -0.008908666
vn -0.23366746 -0.9722758 -0.008908666
vn 0 0.99999994 0
vn 0 0.99999994 0
vn 0 0.99999994 0
vn 0 1 0
vn 0 1 0
vn 0 1 0
vn 0 -0.9500315 0.31215394
vn 0 -0.9500315 0.31215394
vn 0 -0.9500315 0.31215394
vn 0.2680332 -0.9626737 -0.037649013
vn 0.2680332 -0.9626737 -0.037649013
vn 0.2680332 -0.9626737 -0.037649013
vn -0.2680332 -0.9626737 -0.037649013
vn -0.2680332 -0.9626737 -0.037649013
vn -0.2680332 -0.9626737 -0.037649013
vn 0 1 0
vn 0 1 0
vn 0 1 0
vn 0 1 0
vn 0 1 0
vn 0 1 0
vn 0 -0.9500315 0.3121539
vn 0 -0.9500315 0.3121539
vn 0 -0.9500315 0.3121539
vn 0.49657723 -0.83823115 -0.2253432
vn 0.49657723 -0.83823115 -0.2253432
vn 0.49657723 -0.83823115 -0.2253432
vn -0.49657723 -0.83823115 -0.2253432
vn -0.49657723 -0.83823115 -0.2253432
vn -0.49657723 -0.83823115 -0.2253432
vn 0 1 0
vn 0 1 0
vn 0 1 0
vn 0 1 0
vn 0 1 0
vn 0 1 0
vn 0 -0.76473975 0.6443394
vn 0 -0.76473975 0.6443394
vn 0 -0.76473975 0.6443394
vn 0 -0.76474 0.64433897
vn 0 -0.76474 0.64433897
vn 0 -0.76474 0.64433897
vn 0 -0.76473993 0.644339
vn 0 -0.76473993 0.644339
vn 0 -0.76473993 0.644339
vn 0 -0.76474 0.64433897
vn 0 -0.76474 0.64433897
vn 0 -0.76474 0.64433897
vn 0 -0.76473975 0.6443394
vn 0 -0.76473975 0.6443394
vn 0 -0.76473975 0.6443394
vn -0 0.9952067 0.09779323
vn -0 0.9952067 0.09779323
vn -0 0.9952067 0.09779323
vn 0 -0.98831064 0.15245336
vn 0 -0.98831064 0.15245336
vn 0 -0.98831064 0.15245336
vn 0 -0.98831064 0.15245336
vn 0 -0.98831064 0.15245336
vn 0 -0.98831064 0.15245336
vn 0 -0.98831064 0.15245336
vn 0 -0.98831064 0.15245336
vn 0 -0.98831064 0.15245336
f 1//1 2//2 3//3
f 4//4 5//5 6//6
f 7//7 8//8 9//9
f 10//10 11//11 12//12
f 13//13 14//14 15//15
f 16//16 17//17 18//18
f 19//19 20//20 21//21
f 22//22 23//23 24//24
f 25//25 26//26 27//27
f 28//28 29//29 30//30
f 31//31 32//32 33//33
f 34//34 35//35 36//36
f 37//37 38//38 39//39
f 40//40 41//41 42//42
f 43//43 44//44 45//45
f 46//46 47//47 48//48
f 49//49 50//50 51//51
f 52//52 53//53 54//54
f 55//55 56//56 57//57
f 58//58 59//59 60//60
f 61//61 62//62 63//63
f 64//64 65//65 66//66
f 67//67 68//68 69//69
f 70//70 71//71 72//72
f 73//73 74//74 75//75
f 76//76 77//77 78//78
f 79//79 80//80 81//81
f 82//82 83//83 84//84
f 85//85 86//86 87//87
f 88//88 89//89 90//90
f 91//91 92//92 93//93
f 94//94 95//95 96//96
f 97//97 98//98 99//99
f 100//100 101//101 102//102
f 103//103 104//104 105//105
f 106//106 107//107 108//108
f 109//109 110//110 111//111
f 112//112 113//113 114//114
f 115//115 116//116 117//117
