# Exported from SharpOpenGl procedural mesh
o vesper_gunship_ace_56
# vertices 228
v -0.69644743 0.32749188 -2.71618
v 0.69644743 0.32749188 -2.71618
v 0 0.6736976 -2.1328187
v -0.69644743 0.32749188 -2.71618
v 0 0.6736976 -2.1328187
v -1.044671 0.32749188 -1.4198213
v 0.69644743 0.32749188 -2.71618
v 1.044671 0.32749188 -1.4198213
v 0 0.6736976 -2.1328187
v -0.69644743 0 -2.71618
v -1.044671 0 -1.4198213
v 0.69644743 0 -2.71618
v 0.69644743 0 -2.71618
v -1.044671 0 -1.4198213
v 1.044671 0 -1.4198213
v -0.69644743 0 -2.71618
v -0.69644743 0.32749188 -2.71618
v -1.044671 0.32749188 -1.4198213
v -0.69644743 0 -2.71618
v -1.044671 0.32749188 -1.4198213
v -1.044671 0 -1.4198213
v 0.69644743 0 -2.71618
v 1.044671 0.32749188 -1.4198213
v 0.69644743 0.32749188 -2.71618
v 0.69644743 0 -2.71618
v 1.044671 0 -1.4198213
v 1.044671 0.32749188 -1.4198213
v -1.044671 0.32749188 -1.4198213
v 1.044671 0.32749188 -1.4198213
v 0 0.6736976 -0.8364598
v -1.044671 0.32749188 -1.4198213
v 0 0.6736976 -0.8364598
v -1.2995887 0.32749188 -0.12346244
v 1.044671 0.32749188 -1.4198213
v 1.2995887 0.32749188 -0.12346244
v 0 0.6736976 -0.8364598
v -1.044671 0 -1.4198213
v -1.2995887 0 -0.12346244
v 1.044671 0 -1.4198213
v 1.044671 0 -1.4198213
v -1.2995887 0 -0.12346244
v 1.2995887 0 -0.12346244
v -1.044671 0 -1.4198213
v -1.044671 0.32749188 -1.4198213
v -1.2995887 0.32749188 -0.12346244
v -1.044671 0 -1.4198213
v -1.2995887 0.32749188 -0.12346244
v -1.2995887 0 -0.12346244
v 1.044671 0 -1.4198213
v 1.2995887 0.32749188 -0.12346244
v 1.044671 0.32749188 -1.4198213
v 1.044671 0 -1.4198213
v 1.2995887 0 -0.12346244
v 1.2995887 0.32749188 -0.12346244
v -1.2995887 0.32749188 -0.12346244
v 1.2995887 0.32749188 -0.12346244
v 0 0.6736976 0.4598989
v -1.2995887 0.32749188 -0.12346244
v 0 0.6736976 0.4598989
v -1.3928949 0.32749188 1.1728961
v 1.2995887 0.32749188 -0.12346244
v 1.3928949 0.32749188 1.1728961
v 0 0.6736976 0.4598989
v -1.2995887 0 -0.12346244
v -1.3928949 0 1.1728961
v 1.2995887 0 -0.12346244
v 1.2995887 0 -0.12346244
v -1.3928949 0 1.1728961
v 1.3928949 0 1.1728961
v -1.2995887 0 -0.12346244
v -1.2995887 0.32749188 -0.12346244
v -1.3928949 0.32749188 1.1728961
v -1.2995887 0 -0.12346244
v -1.3928949 0.32749188 1.1728961
v -1.3928949 0 1.1728961
v 1.2995887 0 -0.12346244
v 1.3928949 0.32749188 1.1728961
v 1.2995887 0.32749188 -0.12346244
v 1.2995887 0 -0.12346244
v 1.3928949 0 1.1728961
v 1.3928949 0.32749188 1.1728961
v -1.3928949 0.32749188 1.1728961
v 1.3928949 0.32749188 1.1728961
v 0 0.6736976 1.7562578
v -1.3928949 0.32749188 1.1728961
v 0 0.6736976 1.7562578
v -1.2995886 0.32749188 2.4692552
v 1.3928949 0.32749188 1.1728961
v 1.2995886 0.32749188 2.4692552
v 0 0.6736976 1.7562578
v -1.3928949 0 1.1728961
v -1.2995886 0 2.4692552
v 1.3928949 0 1.1728961
v 1.3928949 0 1.1728961
v -1.2995886 0 2.4692552
v 1.2995886 0 2.4692552
v -1.3928949 0 1.1728961
v -1.3928949 0.32749188 1.1728961
v -1.2995886 0.32749188 2.4692552
v -1.3928949 0 1.1728961
v -1.2995886 0.32749188 2.4692552
v -1.2995886 0 2.4692552
v 1.3928949 0 1.1728961
v 1.2995886 0.32749188 2.4692552
v 1.3928949 0.32749188 1.1728961
v 1.3928949 0 1.1728961
v 1.2995886 0 2.4692552
v 1.2995886 0.32749188 2.4692552
v -1.2995886 0.32749188 2.4692552
v 1.2995886 0.32749188 2.4692552
v 0 0.6736976 3.0526164
v -1.2995886 0.32749188 2.4692552
v 0 0.6736976 3.0526164
v -1.0446712 0.32749188 3.7656133
v 1.2995886 0.32749188 2.4692552
v 1.0446712 0.32749188 3.7656133
v 0 0.6736976 3.0526164
v -1.2995886 0 2.4692552
v -1.0446712 0 3.7656133
v 1.2995886 0 2.4692552
v 1.2995886 0 2.4692552
v -1.0446712 0 3.7656133
v 1.0446712 0 3.7656133
v -1.2995886 0 2.4692552
v -1.2995886 0.32749188 2.4692552
v -1.0446712 0.32749188 3.7656133
v -1.2995886 0 2.4692552
v -1.0446712 0.32749188 3.7656133
v -1.0446712 0 3.7656133
v 1.2995886 0 2.4692552
v 1.0446712 0.32749188 3.7656133
v 1.2995886 0.32749188 2.4692552
v 1.2995886 0 2.4692552
v 1.0446712 0 3.7656133
v 1.0446712 0.32749188 3.7656133
v -1.0446712 0.32749188 3.7656133
v 1.0446712 0.32749188 3.7656133
v 0 0.6736976 4.348975
v -1.0446712 0.32749188 3.7656133
v 0 0.6736976 4.348975
v -0 0.32749188 5.0619726
v 1.0446712 0.32749188 3.7656133
v 0 0.32749188 5.0619726
v 0 0.6736976 4.348975
v -1.0446712 0 3.7656133
v -0 0 5.0619726
v 1.0446712 0 3.7656133
v 1.0446712 0 3.7656133
v -0 0 5.0619726
v 0 0 5.0619726
v -1.0446712 0 3.7656133
v -1.0446712 0.32749188 3.7656133
v -0 0.32749188 5.0619726
v -1.0446712 0 3.7656133
v -0 0.32749188 5.0619726
v -0 0 5.0619726
v 1.0446712 0 3.7656133
v 0 0.32749188 5.0619726
v 1.0446712 0.32749188 3.7656133
v 1.0446712 0 3.7656133
v 0 0 5.0619726
v 0 0.32749188 5.0619726
v -0.50782627 0 5.061972
v 0.50782627 0 5.061972
v 0 0.572643 5.3088975
v -0.50782627 0 -2.71618
v 0 0.19649513 -2.901374
v 0.50782627 0 -2.71618
v 0 0.729839 -2.0680008
v -0.14509322 0.58012843 -2.2711313
v 0.14509322 0.58012843 -2.2711313
v 0 0.729839 -0.77164197
v -0.14509322 0.58012843 -0.97477245
v 0.14509322 0.58012843 -0.97477245
v 0 0.729839 0.5247166
v -0.14509322 0.58012843 0.32158613
v 0.14509322 0.58012843 0.32158613
v 0 0.729839 1.8210752
v -0.14509322 0.58012843 1.6179447
v 0.14509322 0.58012843 1.6179447
v 0 0.729839 3.1174343
v -0.14509322 0.58012843 2.9143038
v 0.14509322 0.58012843 2.9143038
v -0.6093915 0.2619935 -1.3161126
v 0.6093915 0.2619935 -1.3161126
v 0 0.4491317 -2.0939279
v -0.8755625 0.10115579 -0.78567195
v -1.2207843 0 -0.9755439
v -0.5303407 0 -0.9755439
v 0 0.10115579 -0.78567195
v -0.3452218 0 -0.9755439
v 0.3452218 0 -0.9755439
v 0.8755625 0.10115579 -0.78567195
v 0.5303407 0 -0.9755439
v 1.2207843 0 -0.9755439
v -0.4742966 0.06322237 -0.7632241
v 0.4742966 0.06322237 -0.7632241
v 0 0.27817842 -0.59486586
v -0.529332 0.06322237 0.17958212
v 0.529332 0.06322237 0.17958212
v 0 0.27817842 0.3479404
v -0.5503536 0.06322237 1.1223884
v 0.5503536 0.06322237 1.1223884
v 0 0.27817842 1.2907467
v -0.529332 0.06322237 2.0651946
v 0.529332 0.06322237 2.0651946
v 0 0.27817842 2.233553
v -0.4742966 0.06322237 3.0080009
v 0.4742966 0.06322237 3.0080009
v 0 0.27817842 3.1763592
v 0 0.6954461 -0.07482594
v -0.1751125 0.53106785 -0.32736334
v 0.1751125 0.53106785 -0.32736334
v 0 0.6954461 0.7482589
v -0.1751125 0.53106785 0.4957215
v 0.1751125 0.53106785 0.4957215
v 0 0.6954461 1.5713437
v -0.1751125 0.53106785 1.3188063
v 0.1751125 0.53106785 1.3188063
v 0 0.6954461 2.3944285
v -0.1751125 0.53106785 2.141891
v 0.1751125 0.53106785 2.141891
v 0 0.6954461 3.2175133
v -0.1751125 0.53106785 2.9649758
v 0.1751125 0.53106785 2.9649758
v -0.350225 0 -2.3850756
v 0.350225 0 -2.3850756
v 0 0.06322237 -2.6376128
vn 0 -0.8599615 0.51035875
vn 0 -0.8599615 0.51035875
vn 0 -0.8599615 0.51035875
vn 0.37411398 -0.92192185 0.10049326
vn 0.37411398 -0.92192185 0.10049326
vn 0.37411398 -0.92192185 0.10049326
vn -0.37411398 -0.92192185 0.10049326
vn -0.37411398 -0.92192185 0.10049326
vn -0.37411398 -0.92192185 0.10049326
vn 0 0.99999994 -0
vn 0 0.99999994 -0
vn 0 0.99999994 -0
vn 0 1 -0
vn 0 1 -0
vn 0 1 -0
vn 0.96576446 -0 0.25942045
vn 0.96576446 -0 0.25942045
vn 0.96576446 -0 0.25942045
vn 0.96576446 0 0.25942045
vn 0.96576446 0 0.25942045
vn 0.96576446 0 0.25942045
vn -0.96576446 0 0.25942045
vn -0.96576446 0 0.25942045
vn -0.96576446 0 0.25942045
vn -0.96576446 0 0.25942045
vn -0.96576446 0 0.25942045
vn -0.96576446 0 0.25942045
vn 0 -0.8599616 0.51035875
vn 0 -0.8599616 0.51035875
vn 0 -0.8599616 0.51035875
vn 0.2856755 -0.95667857 0.05617559
vn 0.2856755 -0.95667857 0.05617559
vn 0.2856755 -0.95667857 0.05617559
vn -0.2856755 -0.95667857 0.05617559
vn -0.2856755 -0.95667857 0.05617559
vn -0.2856755 -0.95667857 0.05617559
vn 0 1 -0
vn 0 1 -0
vn 0 1 -0
vn 0 1 -0
vn 0 1 -0
vn 0 1 -0
vn 0.98120934 -0 0.19294623
vn 0.98120934 -0 0.19294623
vn 0.98120934 -0 0.19294623
vn 0.98120934 0 0.19294623
vn 0.98120934 0 0.19294623
vn 0.98120934 0 0.19294623
vn -0.98120934 0 0.19294623
vn -0.98120934 0 0.19294623
vn -0.98120934 0 0.19294623
vn -0.98120934 0 0.19294623
vn -0.98120934 0 0.19294623
vn -0.98120934 0 0.19294623
vn 0 -0.8599616 0.51035887
vn 0 -0.8599616 0.51035887
vn 0 -0.8599616 0.51035887
vn 0.24983248 -0.96812207 0.017981842
vn 0.24983248 -0.96812207 0.017981842
vn 0.24983248 -0.96812207 0.017981842
vn -0.24983248 -0.96812207 0.017981842
vn -0.24983248 -0.96812207 0.017981842
vn -0.24983248 -0.96812207 0.017981842
vn 0 1 -0
vn 0 1 -0
vn 0 1 -0
vn 0 1 -0
vn 0 1 -0
vn 0 1 -0
vn 0.9974198 -0 0.07178988
vn 0.9974198 -0 0.07178988
vn 0.9974198 -0 0.07178988
vn 0.9974198 0 0.07178988
vn 0.9974198 0 0.07178988
vn 0.9974198 0 0.07178988
vn -0.9974198 0 0.07178988
vn -0.9974198 0 0.07178988
vn -0.9974198 0 0.07178988
vn -0.9974198 0 0.07178988
vn -0.9974198 0 0.07178988
vn -0.9974198 0 0.07178988
vn 0 -0.8599616 0.51035863
vn 0 -0.8599616 0.51035863
vn 0 -0.8599616 0.51035863
vn 0.24821416 -0.96854043 -0.017865378
vn 0.24821416 -0.96854043 -0.017865378
vn 0.24821416 -0.96854043 -0.017865378
vn -0.24821416 -0.96854043 -0.017865378
vn -0.24821416 -0.96854043 -0.017865378
vn -0.24821416 -0.96854043 -0.017865378
vn 0 1 0
vn 0 1 0
vn 0 1 0
vn 0 0.99999994 0
vn 0 0.99999994 0
vn 0 0.99999994 0
vn 0.9974198 0 -0.07178995
vn 0.9974198 0 -0.07178995
vn 0.9974198 0 -0.07178995
vn 0.9974198 0 -0.07178995
vn 0.9974198 0 -0.07178995
vn 0.9974198 0 -0.07178995
vn -0.9974198 0 -0.07178995
vn -0.9974198 0 -0.07178995
vn -0.9974198 0 -0.07178995
vn -0.9974198 0 -0.07178995
vn -0.9974198 0 -0.07178995
vn -0.9974198 0 -0.07178995
vn 0 -0.85996145 0.5103589
vn 0 -0.85996145 0.5103589
vn 0 -0.85996145 0.5103589
vn 0.28003505 -0.95840913 -0.055066418
vn 0.28003505 -0.95840913 -0.055066418
vn 0.28003505 -0.95840913 -0.055066418
vn -0.28003505 -0.95840913 -0.055066418
vn -0.28003505 -0.95840913 -0.055066418
vn -0.28003505 -0.95840913 -0.055066418
vn 0 0.99999994 0
vn 0 0.99999994 0
vn 0 0.99999994 0
vn 0 1 0
vn 0 1 0
vn 0 1 0
vn 0.98120934 0 -0.19294617
vn 0.98120934 0 -0.19294617
vn 0.98120934 0 -0.19294617
vn 0.98120934 0 -0.19294617
vn 0.98120934 0 -0.19294617
vn 0.98120934 0 -0.19294617
vn -0.98120934 0 -0.19294617
vn -0.98120934 0 -0.19294617
vn -0.98120934 0 -0.19294617
vn -0.98120934 0 -0.19294617
vn -0.98120934 0 -0.19294617
vn -0.98120934 0 -0.19294617
vn 0 -0.85996175 0.5103585
vn 0 -0.85996175 0.5103585
vn 0 -0.85996175 0.5103585
vn 0.4765297 -0.7908569 -0.38401145
vn 0.4765297 -0.7908569 -0.38401145
vn 0.4765297 -0.7908569 -0.38401145
vn -0.4765297 -0.7908569 -0.38401145
vn -0.4765297 -0.7908569 -0.38401145
vn -0.4765297 -0.7908569 -0.38401145
vn 0 1 0
vn 0 1 0
vn 0 1 0
vn 0 1 0
vn 0 1 0
vn 0 1 0
vn 0.7786419 0 -0.6274686
vn 0.7786419 0 -0.6274686
vn 0.7786419 0 -0.6274686
vn 0.7786419 0 -0.6274686
vn 0.7786419 0 -0.6274686
vn 0.7786419 0 -0.6274686
vn -0.7786419 0 -0.6274686
vn -0.7786419 0 -0.6274686
vn -0.7786419 0 -0.6274686
vn -0.7786419 0 -0.6274686
vn -0.7786419 0 -0.6274686
vn -0.7786419 0 -0.6274686
vn 0 -0.39595982 0.91826785
vn 0 -0.39595982 0.91826785
vn 0 -0.39595982 0.91826785
vn 0 -0.6858701 -0.7277241
vn 0 -0.6858701 -0.7277241
vn 0 -0.6858701 -0.7277241
vn 0 -0.8049886 0.5932902
vn 0 -0.8049886 0.5932902
vn 0 -0.8049886 0.5932902
vn 0 -0.8049886 0.5932902
vn 0 -0.8049886 0.5932902
vn 0 -0.8049886 0.5932902
vn 0 -0.8049886 0.5932902
vn 0 -0.8049886 0.5932902
vn 0 -0.8049886 0.5932902
vn 0 -0.8049886 0.5932902
vn 0 -0.8049886 0.5932902
vn 0 -0.8049886 0.5932902
vn 0 -0.8049886 0.5932902
vn 0 -0.8049886 0.5932902
vn 0 -0.8049886 0.5932902
vn -0 0.97225595 0.2339196
vn -0 0.97225595 0.2339196
vn -0 0.97225595 0.2339196
vn 0 -0.8825637 0.47019276
vn 0 -0.8825637 0.47019276
vn 0 -0.8825637 0.47019276
vn 0 -0.8825638 0.4701928
vn 0 -0.8825638 0.4701928
vn 0 -0.8825638 0.4701928
vn 0 -0.8825637 0.47019276
vn 0 -0.8825637 0.47019276
vn 0 -0.8825637 0.47019276
vn 0 -0.61660767 0.7872707
vn 0 -0.61660767 0.7872707
vn 0 -0.61660767 0.7872707
vn 0 -0.61660755 0.7872706
vn 0 -0.61660755 0.7872706
vn 0 -0.61660755 0.7872706
vn 0 -0.61660767 0.78727055
vn 0 -0.61660767 0.78727055
vn 0 -0.61660767 0.78727055
vn 0 -0.61660767 0.78727055
vn 0 -0.61660767 0.78727055
vn 0 -0.61660767 0.78727055
vn 0 -0.6166077 0.78727055
vn 0 -0.6166077 0.78727055
vn 0 -0.6166077 0.78727055
vn 0 -0.83809626 0.54552233
vn 0 -0.83809626 0.54552233
vn 0 -0.83809626 0.54552233
vn 0 -0.83809626 0.54552233
vn 0 -0.83809626 0.54552233
vn 0 -0.83809626 0.54552233
vn 0 -0.8380962 0.54552233
vn 0 -0.8380962 0.54552233
vn 0 -0.8380962 0.54552233
vn 0 -0.8380964 0.5455222
vn 0 -0.8380964 0.5455222
vn 0 -0.8380964 0.5455222
vn 0 -0.8380964 0.5455222
vn 0 -0.8380964 0.5455222
vn 0 -0.8380964 0.5455222
vn -0 0.9700629 0.24285398
vn -0 0.9700629 0.24285398
vn -0 0.9700629 0.24285398
f 1//1 2//2 3//3
f 4//4 5//5 6//6
f 7//7 8//8 9//9
f 10//10 11//11 12//12
f 13//13 14//14 15//15
f 16//16 17//17 18//18
f 19//19 20//20 21//21
f 22//22 23//23 24//24
f 25//25 26//26 27//27
f 28//28 29//29 30//30
f 31//31 32//32 33//33
f 34//34 35//35 36//36
f 37//37 38//38 39//39
f 40//40 41//41 42//42
f 43//43 44//44 45//45
f 46//46 47//47 48//48
f 49//49 50//50 51//51
f 52//52 53//53 54//54
f 55//55 56//56 57//57
f 58//58 59//59 60//60
f 61//61 62//62 63//63
f 64//64 65//65 66//66
f 67//67 68//68 69//69
f 70//70 71//71 72//72
f 73//73 74//74 75//75
f 76//76 77//77 78//78
f 79//79 80//80 81//81
f 82//82 83//83 84//84
f 85//85 86//86 87//87
f 88//88 89//89 90//90
f 91//91 92//92 93//93
f 94//94 95//95 96//96
f 97//97 98//98 99//99
f 100//100 101//101 102//102
f 103//103 104//104 105//105
f 106//106 107//107 108//108
f 109//109 110//110 111//111
f 112//112 113//113 114//114
f 115//115 116//116 117//117
f 118//118 119//119 120//120
f 121//121 122//122 123//123
f 124//124 125//125 126//126
f 127//127 128//128 129//129
f 130//130 131//131 132//132
f 133//133 134//134 135//135
f 136//136 137//137 138//138
f 139//139 140//140 141//141
f 142//142 143//143 144//144
f 145//145 146//146 147//147
f 148//148 149//149 150//150
f 151//151 152//152 153//153
f 154//154 155//155 156//156
f 157//157 158//158 159//159
f 160//160 161//161 162//162
f 163//163 164//164 165//165
f 166//166 167//167 168//168
f 169//169 170//170 171//171
f 172//172 173//173 174//174
f 175//175 176//176 177//177
f 178//178 179//179 180//180
f 181//181 182//182 183//183
f 184//184 185//185 186//186
f 187//187 188//188 189//189
f 190//190 191//191 192//192
f 193//193 194//194 195//195
f 196//196 197//197 198//198
f 199//199 200//200 201//201
f 202//202 203//203 204//204
f 205//205 206//206 207//207
f 208//208 209//209 210//210
f 211//211 212//212 213//213
f 214//214 215//215 216//216
f 217//217 218//218 219//219
f 220//220 221//221 222//222
f 223//223 224//224 225//225
f 226//226 227//227 228//228
