# Exported from SharpOpenGl procedural mesh
o vesper_destroyer_bulwark_58
# vertices 114
v -0.57765716 0.26780865 -5.3688807
v 0.57765716 0.26780865 -5.3688807
v 0 0.55092067 -4.365876
v -0.57765716 0.26780865 -5.3688807
v 0 0.55092067 -4.365876
v -0.8139714 0.26780865 -3.1399817
v 0.57765716 0.26780865 -5.3688807
v 0.8139714 0.26780865 -3.1399817
v 0 0.55092067 -4.365876
v -0.57765716 0 -5.3688807
v -0.8139714 0 -3.1399817
v 0.57765716 0 -5.3688807
v 0.57765716 0 -5.3688807
v -0.8139714 0 -3.1399817
v 0.8139714 0 -3.1399817
v -0.8139714 0.26780865 -3.1399817
v 0.8139714 0.26780865 -3.1399817
v 0 0.55092067 -2.1369772
v -0.8139714 0.26780865 -3.1399817
v 0 0.55092067 -2.1369772
v -0.9869655 0.26780865 -0.91108274
v 0.8139714 0.26780865 -3.1399817
v 0.9869655 0.26780865 -0.91108274
v 0 0.55092067 -2.1369772
v -0.8139714 0 -3.1399817
v -0.9869655 0 -0.91108274
v 0.8139714 0 -3.1399817
v 0.8139714 0 -3.1399817
v -0.9869655 0 -0.91108274
v 0.9869655 0 -0.91108274
v -0.9869655 0.26780865 -0.91108274
v 0.9869655 0.26780865 -0.91108274
v 0 0.55092067 0.09192181
v -0.9869655 0.26780865 -0.91108274
v 0 0.55092067 0.09192181
v -1.0502857 0.26780865 1.3178163
v 0.9869655 0.26780865 -0.91108274
v 1.0502857 0.26780865 1.3178163
v 0 0.55092067 0.09192181
v -0.9869655 0 -0.91108274
v -1.0502857 0 1.3178163
v 0.9869655 0 -0.91108274
v 0.9869655 0 -0.91108274
v -1.0502857 0 1.3178163
v 1.0502857 0 1.3178163
v -1.0502857 0.26780865 1.3178163
v 1.0502857 0.26780865 1.3178163
v 0 0.55092067 2.3208208
v -1.0502857 0.26780865 1.3178163
v 0 0.55092067 2.3208208
v -0.9869655 0.26780865 3.5467153
v 1.0502857 0.26780865 1.3178163
v 0.9869655 0.26780865 3.5467153
v 0 0.55092067 2.3208208
v -1.0502857 0 1.3178163
v -0.9869655 0 3.5467153
v 1.0502857 0 1.3178163
v 1.0502857 0 1.3178163
v -0.9869655 0 3.5467153
v 0.9869655 0 3.5467153
v -0.9869655 0.26780865 3.5467153
v 0.9869655 0.26780865 3.5467153
v 0 0.55092067 4.54972
v -0.9869655 0.26780865 3.5467153
v 0 0.55092067 4.54972
v -0.7536773 0.26780865 5.7756143
v 0.9869655 0.26780865 3.5467153
v 0.7536773 0.26780865 5.7756143
v 0 0.55092067 4.54972
v -0.9869655 0 3.5467153
v -0.7536773 0 5.7756143
v 0.9869655 0 3.5467153
v 0.9869655 0 3.5467153
v -0.7536773 0 5.7756143
v 0.7536773 0 5.7756143
v -0.7536773 0.26780865 5.7756143
v 0.7536773 0.26780865 5.7756143
v 0 0.55092067 6.778619
v -0.7536773 0.26780865 5.7756143
v 0 0.55092067 6.778619
v -0 0.26780865 8.004513
v 0.7536773 0.26780865 5.7756143
v 0 0.26780865 8.004513
v 0 0.55092067 6.778619
v -0.7536773 0 5.7756143
v -0 0 8.004513
v 0.7536773 0 5.7756143
v 0.7536773 0 5.7756143
v -0 0 8.004513
v 0 0 8.004513
v 0 0.5968307 -4.2544312
v -0.08402286 0.47440392 -4.3804655
v 0.08402286 0.47440392 -4.3804655
v 0 0.5968307 -2.0255322
v -0.08402286 0.47440392 -2.1515665
v 0.08402286 0.47440392 -2.1515665
v 0 0.5968307 0.20336676
v -0.08402286 0.47440392 0.07733248
v 0.08402286 0.47440392 0.07733248
v 0 0.5968307 2.4322653
v -0.08402286 0.47440392 2.306231
v 0.08402286 0.47440392 2.306231
v 0 0.5968307 4.6611648
v -0.08402286 0.47440392 4.5351305
v 0.08402286 0.47440392 4.5351305
v -0.44111997 0.21424693 -1.4642403
v 0.44111997 0.21424693 -1.4642403
v 0 0.3213704 -2.7332485
v -0.5070345 0.08501861 -5.2627764
v -0.77866006 0 -5.8603525
v -0.2354089 0 -5.8603525
v 0.5070345 0.08501861 -5.2627764
v 0.2354089 0 -5.8603525
v 0.77866006 0 -5.8603525
vn 0 -0.96239614 0.27164972
vn 0 -0.96239614 0.27164972
vn 0 -0.96239614 0.27164972
vn 0.38212788 -0.9232209 0.040514287
vn 0.38212788 -0.9232209 0.040514287
vn 0.38212788 -0.9232209 0.040514287
vn -0.38212788 -0.9232209 0.040514287
vn -0.38212788 -0.9232209 0.040514287
vn -0.38212788 -0.9232209 0.040514287
vn 0 1 -0
vn 0 1 -0
vn 0 1 -0
vn 0 0.99999994 -0
vn 0 0.99999994 -0
vn 0 0.99999994 -0
vn 0 -0.9623962 0.27164975
vn 0 -0.9623962 0.27164975
vn 0 -0.9623962 0.27164975
vn 0.30249083 -0.95286304 0.023477564
vn 0.30249083 -0.95286304 0.023477564
vn 0.30249083 -0.95286304 0.023477564
vn -0.30249083 -0.95286304 0.023477564
vn -0.30249083 -0.95286304 0.023477564
vn -0.30249083 -0.95286304 0.023477564
vn 0 0.99999994 -0
vn 0 0.99999994 -0
vn 0 0.99999994 -0
vn 0 1 -0
vn 0 1 -0
vn 0 1 -0
vn 0 -0.96239614 0.27164972
vn 0 -0.96239614 0.27164972
vn 0 -0.96239614 0.27164972
vn 0.26855174 -0.963235 0.007629217
vn 0.26855174 -0.963235 0.007629217
vn 0.26855174 -0.963235 0.007629217
vn -0.26855174 -0.963235 0.007629217
vn -0.26855174 -0.963235 0.007629217
vn -0.26855174 -0.963235 0.007629217
vn 0 1 -0
vn 0 1 -0
vn 0 1 -0
vn 0 1 -0
vn 0 1 -0
vn 0 1 -0
vn 0 -0.96239626 0.27164978
vn 0 -0.96239626 0.27164978
vn 0 -0.96239626 0.27164978
vn 0.2670066 -0.9636648 -0.0075853216
vn 0.2670066 -0.9636648 -0.0075853216
vn 0.2670066 -0.9636648 -0.0075853216
vn -0.2670066 -0.9636648 -0.0075853216
vn -0.2670066 -0.9636648 -0.0075853216
vn -0.2670066 -0.9636648 -0.0075853216
vn 0 1 0
vn 0 1 0
vn 0 1 0
vn 0 1 0
vn 0 1 0
vn 0 1 0
vn 0 -0.96239614 0.27164972
vn 0 -0.96239614 0.27164972
vn 0 -0.96239614 0.27164972
vn 0.30547777 -0.9516623 -0.031972893
vn 0.30547777 -0.9516623 -0.031972893
vn 0.30547777 -0.9516623 -0.031972893
vn -0.30547777 -0.9516623 -0.031972893
vn -0.30547777 -0.9516623 -0.031972893
vn -0.30547777 -0.9516623 -0.031972893
vn 0 1 0
vn 0 1 0
vn 0 1 0
vn 0 0.99999994 0
vn 0 0.99999994 0
vn 0 0.99999994 0
vn 0 -0.96239614 0.27164975
vn 0 -0.96239614 0.27164975
vn 0 -0.96239614 0.27164975
vn 0.554009 -0.81116015 -0.18733202
vn 0.554009 -0.81116015 -0.18733202
vn 0.554009 -0.81116015 -0.18733202
vn -0.554009 -0.81116015 -0.18733202
vn -0.554009 -0.81116015 -0.18733202
vn -0.554009 -0.81116015 -0.18733202
vn 0 0.99999994 0
vn 0 0.99999994 0
vn 0 0.99999994 0
vn 0 1 0
vn 0 1 0
vn 0 1 0
vn 0 -0.7172978 0.69676673
vn 0 -0.7172978 0.69676673
vn 0 -0.7172978 0.69676673
vn 0 -0.7172978 0.69676673
vn 0 -0.7172978 0.69676673
vn 0 -0.7172978 0.69676673
vn 0 -0.7172978 0.6967667
vn 0 -0.7172978 0.6967667
vn 0 -0.7172978 0.6967667
vn 0 -0.7172978 0.69676673
vn 0 -0.7172978 0.69676673
vn 0 -0.7172978 0.69676673
vn 0 -0.7172978 0.69676673
vn 0 -0.7172978 0.69676673
vn 0 -0.7172978 0.69676673
vn -0 0.99645597 0.08411594
vn -0 0.99645597 0.08411594
vn -0 0.99645597 0.08411594
vn 0 -0.99003035 0.14085403
vn 0 -0.99003035 0.14085403
vn 0 -0.99003035 0.14085403
vn 0 -0.99003035 0.14085403
vn 0 -0.99003035 0.14085403
vn 0 -0.99003035 0.14085403
f 1//1 2//2 3//3
f 4//4 5//5 6//6
f 7//7 8//8 9//9
f 10//10 11//11 12//12
f 13//13 14//14 15//15
f 16//16 17//17 18//18
f 19//19 20//20 21//21
f 22//22 23//23 24//24
f 25//25 26//26 27//27
f 28//28 29//29 30//30
f 31//31 32//32 33//33
f 34//34 35//35 36//36
f 37//37 38//38 39//39
f 40//40 41//41 42//42
f 43//43 44//44 45//45
f 46//46 47//47 48//48
f 49//49 50//50 51//51
f 52//52 53//53 54//54
f 55//55 56//56 57//57
f 58//58 59//59 60//60
f 61//61 62//62 63//63
f 64//64 65//65 66//66
f 67//67 68//68 69//69
f 70//70 71//71 72//72
f 73//73 74//74 75//75
f 76//76 77//77 78//78
f 79//79 80//80 81//81
f 82//82 83//83 84//84
f 85//85 86//86 87//87
f 88//88 89//89 90//90
f 91//91 92//92 93//93
f 94//94 95//95 96//96
f 97//97 98//98 99//99
f 100//100 101//101 102//102
f 103//103 104//104 105//105
f 106//106 107//107 108//108
f 109//109 110//110 111//111
f 112//112 113//113 114//114
