# Exported from SharpOpenGl procedural mesh
o vesper_frigate_mk1_05
# vertices 114
v -0.38531786 0.18607993 -3.005994
v 0.38531786 0.18607993 -3.005994
v 0 0.38279304 -2.4444199
v -0.38531786 0.18607993 -3.005994
v 0 0.38279304 -2.4444199
v -0.5429479 0.18607993 -1.7580512
v 0.38531786 0.18607993 -3.005994
v 0.5429479 0.18607993 -1.7580512
v 0 0.38279304 -2.4444199
v -0.38531786 0 -3.005994
v -0.5429479 0 -1.7580512
v 0.38531786 0 -3.005994
v 0.38531786 0 -3.005994
v -0.5429479 0 -1.7580512
v 0.5429479 0 -1.7580512
v -0.5429479 0.18607993 -1.7580512
v 0.5429479 0.18607993 -1.7580512
v 0 0.38279304 -1.1964769
v -0.5429479 0.18607993 -1.7580512
v 0 0.38279304 -1.1964769
v -0.6583411 0.18607993 -0.51010823
v 0.5429479 0.18607993 -1.7580512
v 0.6583411 0.18607993 -0.51010823
v 0 0.38279304 -1.1964769
v -0.5429479 0 -1.7580512
v -0.6583411 0 -0.51010823
v 0.5429479 0 -1.7580512
v 0.5429479 0 -1.7580512
v -0.6583411 0 -0.51010823
v 0.6583411 0 -0.51010823
v -0.6583411 0.18607993 -0.51010823
v 0.6583411 0.18607993 -0.51010823
v 0 0.38279304 0.051466048
v -0.6583411 0.18607993 -0.51010823
v 0 0.38279304 0.051466048
v -0.7005779 0.18607993 0.7378347
v 0.6583411 0.18607993 -0.51010823
v 0.7005779 0.18607993 0.7378347
v 0 0.38279304 0.051466048
v -0.6583411 0 -0.51010823
v -0.7005779 0 0.7378347
v 0.6583411 0 -0.51010823
v 0.6583411 0 -0.51010823
v -0.7005779 0 0.7378347
v 0.7005779 0 0.7378347
v -0.7005779 0.18607993 0.7378347
v 0.7005779 0.18607993 0.7378347
v 0 0.38279304 1.2994089
v -0.7005779 0.18607993 0.7378347
v 0 0.38279304 1.2994089
v -0.6583411 0.18607993 1.9857776
v 0.7005779 0.18607993 0.7378347
v 0.6583411 0.18607993 1.9857776
v 0 0.38279304 1.2994089
v -0.7005779 0 0.7378347
v -0.6583411 0 1.9857776
v 0.7005779 0 0.7378347
v 0.7005779 0 0.7378347
v -0.6583411 0 1.9857776
v 0.6583411 0 1.9857776
v -0.6583411 0.18607993 1.9857776
v 0.6583411 0.18607993 1.9857776
v 0 0.38279304 2.5473518
v -0.6583411 0.18607993 1.9857776
v 0 0.38279304 2.5473518
v -0.50272954 0.18607993 3.2337205
v 0.6583411 0.18607993 1.9857776
v 0.50272954 0.18607993 3.2337205
v 0 0.38279304 2.5473518
v -0.6583411 0 1.9857776
v -0.50272954 0 3.2337205
v 0.6583411 0 1.9857776
v 0.6583411 0 1.9857776
v -0.50272954 0 3.2337205
v 0.50272954 0 3.2337205
v -0.50272954 0.18607993 3.2337205
v 0.50272954 0.18607993 3.2337205
v 0 0.38279304 3.795295
v -0.50272954 0.18607993 3.2337205
v 0 0.38279304 3.795295
v -0 0.18607993 4.4816637
v 0.50272954 0.18607993 3.2337205
v 0 0.18607993 4.4816637
v 0 0.38279304 3.795295
v -0.50272954 0 3.2337205
v -0 0 4.4816637
v 0.50272954 0 3.2337205
v 0.50272954 0 3.2337205
v -0 0 4.4816637
v 0 0 4.4816637
v 0 0.41469243 -2.3820226
v -0.056046233 0.32962734 -2.4660919
v 0.056046233 0.32962734 -2.4660919
v 0 0.41469243 -1.1340797
v -0.056046233 0.32962734 -1.2181491
v 0.056046233 0.32962734 -1.2181491
v 0 0.41469243 0.11386323
v -0.056046233 0.32962734 0.02979388
v 0.056046233 0.32962734 0.02979388
v 0 0.41469243 1.3618062
v -0.056046233 0.32962734 1.2777368
v 0.056046233 0.32962734 1.2777368
v 0 0.41469243 2.609749
v -0.056046233 0.32962734 2.5256798
v 0.056046233 0.32962734 2.5256798
v -0.2942427 0.14886396 -0.8198166
v 0.2942427 0.14886396 -0.8198166
v 0 0.22329593 -1.5303242
v -0.33821005 0.059072994 -2.946587
v -0.49765193 0 -3.2973592
v -0.17876817 0 -3.2973592
v 0.33821005 0.059072994 -2.946587
v 0.17876817 0 -3.2973592
v 0.49765193 0 -3.2973592
vn 0 -0.9437733 0.33059314
vn 0 -0.9437733 0.33059314
vn 0 -0.9437733 0.33059314
vn 0.39542523 -0.9171392 0.049946908
vn 0.39542523 -0.9171392 0.049946908
vn 0.39542523 -0.9171392 0.049946908
vn -0.39542523 -0.9171392 0.049946908
vn -0.39542523 -0.9171392 0.049946908
vn -0.39542523 -0.9171392 0.049946908
vn 0 1 -0
vn 0 1 -0
vn 0 1 -0
vn 0 1 -0
vn 0 1 -0
vn 0 1 -0
vn 0 -0.9437734 0.33059317
vn 0 -0.9437734 0.33059317
vn 0 -0.9437734 0.33059317
vn 0.31382722 -0.94903654 0.029018583
vn 0.31382722 -0.94903654 0.029018583
vn 0.31382722 -0.94903654 0.029018583
vn -0.31382722 -0.94903654 0.029018583
vn -0.31382722 -0.94903654 0.029018583
vn -0.31382722 -0.94903654 0.029018583
vn 0 1 -0
vn 0 1 -0
vn 0 1 -0
vn 0 1 -0
vn 0 1 -0
vn 0 1 -0
vn 0 -0.9437733 0.3305931
vn 0 -0.9437733 0.3305931
vn 0 -0.9437733 0.3305931
vn 0.27888116 -0.9602792 0.009438772
vn 0.27888116 -0.9602792 0.009438772
vn 0.27888116 -0.9602792 0.009438772
vn -0.27888116 -0.9602792 0.009438772
vn -0.27888116 -0.9602792 0.009438772
vn -0.27888116 -0.9602792 0.009438772
vn 0 1 -0
vn 0 1 -0
vn 0 1 -0
vn 0 0.99999994 -0
vn 0 0.99999994 -0
vn 0 0.99999994 -0
vn 0 -0.9437734 0.33059314
vn 0 -0.9437734 0.33059314
vn 0 -0.9437734 0.33059314
vn 0.27728635 -0.9607415 -0.009384796
vn 0.27728635 -0.9607415 -0.009384796
vn 0.27728635 -0.9607415 -0.009384796
vn -0.27728635 -0.9607415 -0.009384796
vn -0.27728635 -0.9607415 -0.009384796
vn -0.27728635 -0.9607415 -0.009384796
vn 0 0.99999994 0
vn 0 0.99999994 0
vn 0 0.99999994 0
vn 0 1 0
vn 0 1 0
vn 0 1 0
vn 0 -0.9437733 0.33059314
vn 0 -0.9437733 0.33059314
vn 0 -0.9437733 0.33059314
vn 0.3168618 -0.94764835 -0.039510913
vn 0.3168618 -0.94764835 -0.039510913
vn 0.3168618 -0.94764835 -0.039510913
vn -0.3168618 -0.94764835 -0.039510913
vn -0.3168618 -0.94764835 -0.039510913
vn -0.3168618 -0.94764835 -0.039510913
vn 0 1 0
vn 0 1 0
vn 0 1 0
vn 0 1 0
vn 0 1 0
vn 0 1 0
vn 0 -0.94377345 0.33059305
vn 0 -0.94377345 0.33059305
vn 0 -0.94377345 0.33059305
vn 0.5645111 -0.7934805 -0.22741133
vn 0.5645111 -0.7934805 -0.22741133
vn 0.5645111 -0.7934805 -0.22741133
vn -0.5645111 -0.7934805 -0.22741133
vn -0.5645111 -0.7934805 -0.22741133
vn -0.5645111 -0.7934805 -0.22741133
vn 0 1 0
vn 0 1 0
vn 0 1 0
vn 0 1 0
vn 0 1 0
vn 0 1 0
vn 0 -0.7029312 0.7112578
vn 0 -0.7029312 0.7112578
vn 0 -0.7029312 0.7112578
vn 0 -0.7029317 0.71125734
vn 0 -0.7029317 0.71125734
vn 0 -0.7029317 0.71125734
vn 0 -0.7029317 0.71125746
vn 0 -0.7029317 0.71125746
vn 0 -0.7029317 0.71125746
vn 0 -0.7029317 0.71125734
vn 0 -0.7029317 0.71125734
vn 0 -0.7029317 0.71125734
vn 0 -0.7029312 0.7112578
vn 0 -0.7029312 0.7112578
vn 0 -0.7029312 0.7112578
vn -0 0.9945575 0.10418872
vn -0 0.9945575 0.10418872
vn -0 0.9945575 0.10418872
vn 0 -0.9861139 0.16606992
vn 0 -0.9861139 0.16606992
vn 0 -0.9861139 0.16606992
vn 0 -0.9861139 0.16606992
vn 0 -0.9861139 0.16606992
vn 0 -0.9861139 0.16606992
f 1//1 2//2 3//3
f 4//4 5//5 6//6
f 7//7 8//8 9//9
f 10//10 11//11 12//12
f 13//13 14//14 15//15
f 16//16 17//17 18//18
f 19//19 20//20 21//21
f 22//22 23//23 24//24
f 25//25 26//26 27//27
f 28//28 29//29 30//30
f 31//31 32//32 33//33
f 34//34 35//35 36//36
f 37//37 38//38 39//39
f 40//40 41//41 42//42
f 43//43 44//44 45//45
f 46//46 47//47 48//48
f 49//49 50//50 51//51
f 52//52 53//53 54//54
f 55//55 56//56 57//57
f 58//58 59//59 60//60
f 61//61 62//62 63//63
f 64//64 65//65 66//66
f 67//67 68//68 69//69
f 70//70 71//71 72//72
f 73//73 74//74 75//75
f 76//76 77//77 78//78
f 79//79 80//80 81//81
f 82//82 83//83 84//84
f 85//85 86//86 87//87
f 88//88 89//89 90//90
f 91//91 92//92 93//93
f 94//94 95//95 96//96
f 97//97 98//98 99//99
f 100//100 101//101 102//102
f 103//103 104//104 105//105
f 106//106 107//107 108//108
f 109//109 110//110 111//111
f 112//112 113//113 114//114
