# Exported from SharpOpenGl procedural mesh
o command_center
# vertices 189
v 7.462 0 0
v 5.2764306 0 5.2764306
v 4.1041 1.4924 0
v 5.2764306 0 5.2764306
v 2.902037 1.4924 2.902037
v 4.1041 1.4924 0
v 0 0 0
v 7.462 0 0
v 5.2764306 0 5.2764306
v 5.2764306 0 5.2764306
v -3.261744E-07 0 7.462
v 2.902037 1.4924 2.902037
v -3.261744E-07 0 7.462
v -1.7939591E-07 1.4924 4.1041
v 2.902037 1.4924 2.902037
v 0 0 0
v 5.2764306 0 5.2764306
v -3.261744E-07 0 7.462
v -3.261744E-07 0 7.462
v -5.2764306 0 5.2764306
v -1.7939591E-07 1.4924 4.1041
v -5.2764306 0 5.2764306
v -2.902037 1.4924 2.902037
v -1.7939591E-07 1.4924 4.1041
v 0 0 0
v -3.261744E-07 0 7.462
v -5.2764306 0 5.2764306
v -5.2764306 0 5.2764306
v -7.462 0 -6.523488E-07
v -2.902037 1.4924 2.902037
v -7.462 0 -6.523488E-07
v -4.1041 1.4924 -3.5879182E-07
v -2.902037 1.4924 2.902037
v 0 0 0
v -5.2764306 0 5.2764306
v -7.462 0 -6.523488E-07
v -7.462 0 -6.523488E-07
v -5.2764297 0 -5.2764316
v -4.1041 1.4924 -3.5879182E-07
v -5.2764297 0 -5.2764316
v -2.9020364 1.4924 -2.9020374
v -4.1041 1.4924 -3.5879182E-07
v 0 0 0
v -7.462 0 -6.523488E-07
v -5.2764297 0 -5.2764316
v -5.2764297 0 -5.2764316
v 8.8983455E-08 0 -7.462
v -2.9020364 1.4924 -2.9020374
v 8.8983455E-08 0 -7.462
v 4.89409E-08 1.4924 -4.1041
v -2.9020364 1.4924 -2.9020374
v 0 0 0
v -5.2764297 0 -5.2764316
v 8.8983455E-08 0 -7.462
v 8.8983455E-08 0 -7.462
v 5.2764325 0 -5.2764287
v 4.89409E-08 1.4924 -4.1041
v 5.2764325 0 -5.2764287
v 2.9020379 1.4924 -2.902036
v 4.89409E-08 1.4924 -4.1041
v 0 0 0
v 8.8983455E-08 0 -7.462
v 5.2764325 0 -5.2764287
v 5.2764325 0 -5.2764287
v 7.462 0 1.3046975E-06
v 2.9020379 1.4924 -2.902036
v 7.462 0 1.3046975E-06
v 4.1041 1.4924 7.1758365E-07
v 2.9020379 1.4924 -2.902036
v 0 0 0
v 5.2764325 0 -5.2764287
v 7.462 0 1.3046975E-06
v 0 1.4924 0
v -1.4924 8.2082 0
v 1.4924 8.2082 0
v -1.4924 8.2082 0
v 0 11.193 1.1193
v 1.4924 8.2082 0
v -5.37264 0.57457393 3.58176
v -5.37264 0.99244595 4.62644
v -7.0888996 0.78350997 4.1041
v 5.37264 0.57457393 3.58176
v 7.0888996 0.78350997 4.1041
v 5.37264 0.99244595 4.62644
v -1.34316 1.436435 4.32796
v 1.34316 1.436435 4.32796
v 0 2.141594 5.37264
v 4.8503 0.38802397 0
v 3.923975 0.38802397 2.8509347
v 4.268264 0 0
v 3.923975 0.38802397 2.8509347
v 1.498825 0.38802397 4.6129093
v 3.453098 0 2.5088227
v 1.498825 0.38802397 4.6129093
v -1.4988253 0.38802397 4.6129093
v 1.3189659 0 4.05936
v -1.4988253 0.38802397 4.6129093
v -3.9239752 0.38802397 2.8509343
v -1.3189663 0 4.05936
v -3.9239752 0.38802397 2.8509343
v -4.8503 0.38802397 -4.2402667E-07
v -3.4530983 0 2.5088222
v -4.8503 0.38802397 -4.2402667E-07
v -3.9239748 0.38802397 -2.8509352
v -4.268264 0 -3.7314345E-07
v -3.9239748 0.38802397 -2.8509352
v -1.4988234 0.38802397 -4.61291
v -3.4530978 0 -2.508823
v -1.4988234 0.38802397 -4.61291
v 1.4988257 0.38802397 -4.6129093
v -1.3189646 0 -4.0593605
v 1.4988257 0.38802397 -4.6129093
v 3.9239748 0.38802397 -2.850935
v 1.3189666 0 -4.05936
v 3.9239748 0.38802397 -2.850935
v 4.8503 0.38802397 8.4805333E-07
v 3.4530978 0 -2.5088227
v 5.37264 0.89544 0
v 5.5965 1.1939199 0
v 5.37264 1.1939199 0.22386
v 2.6863198 0.89544 4.652843
v 2.9101799 1.1939199 4.652843
v 2.6863198 1.1939199 4.876703
v -2.6863203 0.89544 4.6528425
v -2.4624603 1.1939199 4.6528425
v -2.6863203 1.1939199 4.8767023
v -5.37264 0.89544 -4.6969114E-07
v -5.1487803 1.1939199 -4.6969114E-07
v -5.37264 1.1939199 0.22385952
v -2.6863196 0.89544 -4.652843
v -2.4624596 1.1939199 -4.652843
v -2.6863196 1.1939199 -4.428983
v 2.686322 0.89544 -4.6528416
v 2.910182 1.1939199 -4.6528416
v 2.686322 1.1939199 -4.428982
v -4.1041 1.34316 -1.64164
v 4.1041 1.34316 -1.04468
v -4.1041 3.1340399 -1.2685399
v 4.1041 1.34316 -1.04468
v 4.1041 3.1340399 -1.2685399
v -4.1041 3.1340399 -1.2685399
v -4.1041 1.34316 0
v 4.1041 1.34316 0.59695995
v -4.1041 3.1340399 0.3731
v 4.1041 1.34316 0.59695995
v 4.1041 3.1340399 0.3731
v -4.1041 3.1340399 0.3731
v -4.1041 1.34316 1.64164
v 4.1041 1.34316 2.2385998
v -4.1041 3.1340399 2.01474
v 4.1041 1.34316 2.2385998
v 4.1041 3.1340399 2.01474
v -4.1041 3.1340399 2.01474
v -7.0888996 2.08936 0.89544
v -4.1041 2.08936 0.89544
v -4.1041 3.1340399 -0.59695995
v 4.1041 2.08936 0.89544
v 7.0888996 2.08936 0.89544
v 4.1041 3.1340399 -0.59695995
v 2.6116998 4.1041 0
v 3.3579 3.58176 0
v 2.6116998 3.58176 0.7462
v -2.6116998 4.1041 -2.2832207E-07
v -1.8654997 3.58176 -2.2832207E-07
v -2.6116998 3.58176 0.7461998
v 2.663934 4.1041 0
v 1.8836858 4.1041 1.8836858
v 2.4102259 4.484662 0
v 1.8836858 4.1041 1.8836858
v -1.16444255E-07 4.1041 2.663934
v 1.7042872 4.484662 1.7042872
v -1.16444255E-07 4.1041 2.663934
v -1.8836858 4.1041 1.8836858
v -1.05354324E-07 4.484662 2.4102259
v -1.8836858 4.1041 1.8836858
v -2.663934 4.1041 -2.3288851E-07
v -1.7042872 4.484662 1.7042872
v -2.663934 4.1041 -2.3288851E-07
v -1.8836854 4.1041 -1.883686
v -2.4102259 4.484662 -2.1070865E-07
v -1.8836854 4.1041 -1.883686
v 3.1767094E-08 4.1041 -2.663934
v -1.7042868 4.484662 -1.7042873
v 3.1767094E-08 4.1041 -2.663934
v 1.8836864 4.1041 -1.883685
v 2.8741656E-08 4.484662 -2.4102259
v 1.8836864 4.1041 -1.883685
v 2.663934 4.1041 4.6577702E-07
v 1.7042878 4.484662 -1.7042865
vn -0.40051067 -0.9011489 -0.16589698
vn -0.40051067 -0.9011489 -0.16589698
vn -0.40051067 -0.9011489 -0.16589698
vn -0.40051064 -0.9011489 -0.165897
vn -0.40051064 -0.9011489 -0.165897
vn -0.40051064 -0.9011489 -0.165897
vn 0 -1 0
vn 0 -1 0
vn 0 -1 0
vn -0.16589695 -0.901149 -0.40051067
vn -0.16589695 -0.901149 -0.40051067
vn -0.16589695 -0.901149 -0.40051067
vn -0.16589701 -0.9011489 -0.4005107
vn -0.16589701 -0.9011489 -0.4005107
vn -0.16589701 -0.9011489 -0.4005107
vn 0 -1 0
vn 0 -1 0
vn 0 -1 0
vn 0.16589698 -0.9011489 -0.40051067
vn 0.16589698 -0.9011489 -0.40051067
vn 0.16589698 -0.9011489 -0.40051067
vn 0.165897 -0.9011489 -0.40051064
vn 0.165897 -0.9011489 -0.40051064
vn 0.165897 -0.9011489 -0.40051064
vn 0 -1 0
vn 0 -1 0
vn 0 -1 0
vn 0.40051067 -0.901149 -0.16589695
vn 0.40051067 -0.901149 -0.16589695
vn 0.40051067 -0.901149 -0.16589695
vn 0.40051067 -0.90114886 -0.16589698
vn 0.40051067 -0.90114886 -0.16589698
vn 0.40051067 -0.90114886 -0.16589698
vn -0 -1 0
vn -0 -1 0
vn -0 -1 0
vn 0.4005107 -0.9011489 0.16589704
vn 0.4005107 -0.9011489 0.16589704
vn 0.4005107 -0.9011489 0.16589704
vn 0.4005107 -0.901149 0.16589706
vn 0.4005107 -0.901149 0.16589706
vn 0.4005107 -0.901149 0.16589706
vn 0 -1 0
vn 0 -1 0
vn 0 -1 0
vn 0.16589692 -0.90114903 0.40051067
vn 0.16589692 -0.90114903 0.40051067
vn 0.16589692 -0.90114903 0.40051067
vn 0.16589692 -0.901149 0.4005107
vn 0.16589692 -0.901149 0.4005107
vn 0.16589692 -0.901149 0.4005107
vn 0 -1 -0
vn 0 -1 -0
vn 0 -1 -0
vn -0.16589706 -0.901149 0.40051067
vn -0.16589706 -0.901149 0.40051067
vn -0.16589706 -0.901149 0.40051067
vn -0.16589706 -0.901149 0.40051064
vn -0.16589706 -0.901149 0.40051064
vn -0.16589706 -0.901149 0.40051064
vn 0 -1 0
vn 0 -1 0
vn 0 -1 0
vn -0.4005107 -0.90114903 0.16589685
vn -0.4005107 -0.90114903 0.16589685
vn -0.4005107 -0.90114903 0.16589685
vn -0.4005107 -0.901149 0.16589692
vn -0.4005107 -0.901149 0.16589692
vn -0.4005107 -0.901149 0.16589692
vn 0 -1 0
vn 0 -1 0
vn 0 -1 0
vn 0 0 -0.99999994
vn 0 0 -0.99999994
vn 0 0 -0.99999994
vn 0 0.3511235 -0.9363292
vn 0 0.3511235 -0.9363292
vn 0 0.3511235 -0.9363292
vn 3.8582897E-08 -0.9284767 0.37139064
vn 3.8582897E-08 -0.9284767 0.37139064
vn 3.8582897E-08 -0.9284767 0.37139064
vn -3.8582897E-08 -0.9284767 0.37139064
vn -3.8582897E-08 -0.9284767 0.37139064
vn -3.8582897E-08 -0.9284767 0.37139064
vn 0 -0.8288488 0.5594728
vn 0 -0.8288488 0.5594728
vn 0 -0.8288488 0.5594728
vn 0.54590446 -0.8188568 0.17737511
vn 0.54590446 -0.8188568 0.17737511
vn 0.54590446 -0.8188568 0.17737511
vn 0.33738756 -0.81885666 0.46437413
vn 0.33738756 -0.81885666 0.46437413
vn 0.33738756 -0.81885666 0.46437413
vn 0 -0.8188568 0.57399774
vn 0 -0.8188568 0.57399774
vn 0 -0.8188568 0.57399774
vn -0.33738753 -0.81885684 0.46437398
vn -0.33738753 -0.81885684 0.46437398
vn -0.33738753 -0.81885684 0.46437398
vn -0.5459045 -0.81885666 0.1773751
vn -0.5459045 -0.81885666 0.1773751
vn -0.5459045 -0.81885666 0.1773751
vn -0.54590446 -0.8188568 -0.17737515
vn -0.54590446 -0.8188568 -0.17737515
vn -0.54590446 -0.8188568 -0.17737515
vn -0.33738735 -0.81885666 -0.46437413
vn -0.33738735 -0.81885666 -0.46437413
vn -0.33738735 -0.81885666 -0.46437413
vn 9.130605E-08 -0.81885684 -0.57399786
vn 9.130605E-08 -0.81885684 -0.57399786
vn 9.130605E-08 -0.81885684 -0.57399786
vn 0.3373875 -0.81885684 -0.46437395
vn 0.3373875 -0.81885684 -0.46437395
vn 0.3373875 -0.81885684 -0.46437395
vn 0.54590446 -0.8188567 -0.1773751
vn 0.54590446 -0.8188567 -0.1773751
vn 0.54590446 -0.8188567 -0.1773751
vn 0.6246954 -0.4685212 0.62469476
vn 0.6246954 -0.4685212 0.62469476
vn 0.6246954 -0.4685212 0.62469476
vn 0.6246947 -0.4685212 0.6246954
vn 0.6246947 -0.4685212 0.6246954
vn 0.6246947 -0.4685212 0.6246954
vn 0.6246947 -0.4685212 0.6246954
vn 0.6246947 -0.4685212 0.6246954
vn 0.6246947 -0.4685212 0.6246954
vn 0.6246954 -0.4685212 0.62469476
vn 0.6246954 -0.4685212 0.62469476
vn 0.6246954 -0.4685212 0.62469476
vn 0.6246947 -0.4685212 0.6246954
vn 0.6246947 -0.4685212 0.6246954
vn 0.6246947 -0.4685212 0.6246954
vn 0.6246947 -0.4685212 0.6246954
vn 0.6246947 -0.4685212 0.6246954
vn 0.6246947 -0.4685212 0.6246954
vn -0.071018785 -0.2034393 0.97650844
vn -0.071018785 -0.2034393 0.97650844
vn -0.071018785 -0.2034393 0.97650844
vn 0 0.12403469 0.99227786
vn 0 0.12403469 0.99227786
vn 0 0.12403469 0.99227786
vn -0.071018785 -0.20343928 0.97650844
vn -0.071018785 -0.20343928 0.97650844
vn -0.071018785 -0.20343928 0.97650844
vn 0 0.1240347 0.99227786
vn 0 0.1240347 0.99227786
vn 0 0.1240347 0.99227786
vn -0.07101877 -0.2034393 0.97650844
vn -0.07101877 -0.2034393 0.97650844
vn -0.07101877 -0.2034393 0.97650844
vn 0 0.12403462 0.99227786
vn 0 0.12403462 0.99227786
vn 0 0.12403462 0.99227786
vn -0 0.819232 0.5734623
vn -0 0.819232 0.5734623
vn -0 0.819232 0.5734623
vn -0 0.819232 0.5734623
vn -0 0.819232 0.5734623
vn -0 0.819232 0.5734623
vn -0.4974684 -0.71066886 -0.49746847
vn -0.4974684 -0.71066886 -0.49746847
vn -0.4974684 -0.71066886 -0.49746847
vn -0.4974684 -0.71066886 -0.49746847
vn -0.4974684 -0.71066886 -0.49746847
vn -0.4974684 -0.71066886 -0.49746847
vn -0.78664154 -0.5244282 -0.32583758
vn -0.78664154 -0.5244282 -0.32583758
vn -0.78664154 -0.5244282 -0.32583758
vn -0.32583758 -0.524428 -0.7866416
vn -0.32583758 -0.524428 -0.7866416
vn -0.32583758 -0.524428 -0.7866416
vn 0.32583758 -0.5244282 -0.7866415
vn 0.32583758 -0.5244282 -0.7866415
vn 0.32583758 -0.5244282 -0.7866415
vn 0.78664166 -0.524428 -0.32583758
vn 0.78664166 -0.524428 -0.32583758
vn 0.78664166 -0.524428 -0.32583758
vn 0.7866415 -0.5244282 0.32583776
vn 0.7866415 -0.5244282 0.32583776
vn 0.7866415 -0.5244282 0.32583776
vn 0.32583767 -0.52442795 0.7866417
vn 0.32583767 -0.52442795 0.7866417
vn 0.32583767 -0.52442795 0.7866417
vn -0.32583782 -0.5244282 0.78664154
vn -0.32583782 -0.5244282 0.78664154
vn -0.32583782 -0.5244282 0.78664154
vn -0.7866418 -0.5244279 0.32583746
vn -0.7866418 -0.5244279 0.32583746
vn -0.7866418 -0.5244279 0.32583746
f 1//1 2//2 3//3
f 4//4 5//5 6//6
f 7//7 8//8 9//9
f 10//10 11//11 12//12
f 13//13 14//14 15//15
f 16//16 17//17 18//18
f 19//19 20//20 21//21
f 22//22 23//23 24//24
f 25//25 26//26 27//27
f 28//28 29//29 30//30
f 31//31 32//32 33//33
f 34//34 35//35 36//36
f 37//37 38//38 39//39
f 40//40 41//41 42//42
f 43//43 44//44 45//45
f 46//46 47//47 48//48
f 49//49 50//50 51//51
f 52//52 53//53 54//54
f 55//55 56//56 57//57
f 58//58 59//59 60//60
f 61//61 62//62 63//63
f 64//64 65//65 66//66
f 67//67 68//68 69//69
f 70//70 71//71 72//72
f 73//73 74//74 75//75
f 76//76 77//77 78//78
f 79//79 80//80 81//81
f 82//82 83//83 84//84
f 85//85 86//86 87//87
f 88//88 89//89 90//90
f 91//91 92//92 93//93
f 94//94 95//95 96//96
f 97//97 98//98 99//99
f 100//100 101//101 102//102
f 103//103 104//104 105//105
f 106//106 107//107 108//108
f 109//109 110//110 111//111
f 112//112 113//113 114//114
f 115//115 116//116 117//117
f 118//118 119//119 120//120
f 121//121 122//122 123//123
f 124//124 125//125 126//126
f 127//127 128//128 129//129
f 130//130 131//131 132//132
f 133//133 134//134 135//135
f 136//136 137//137 138//138
f 139//139 140//140 141//141
f 142//142 143//143 144//144
f 145//145 146//146 147//147
f 148//148 149//149 150//150
f 151//151 152//152 153//153
f 154//154 155//155 156//156
f 157//157 158//158 159//159
f 160//160 161//161 162//162
f 163//163 164//164 165//165
f 166//166 167//167 168//168
f 169//169 170//170 171//171
f 172//172 173//173 174//174
f 175//175 176//176 177//177
f 178//178 179//179 180//180
f 181//181 182//182 183//183
f 184//184 185//185 186//186
f 187//187 188//188 189//189
