# Exported from SharpOpenGl procedural mesh
o power_reactor
# vertices 135
v 2 0 0
v 1.4142135 0 1.4142135
v 0 2.5 0
v 2 0 0
v 1.4142135 0 1.4142135
v 0 0 0
v 1.4142135 0 1.4142135
v -8.7422784E-08 0 2
v 0 2.5 0
v 1.4142135 0 1.4142135
v -8.7422784E-08 0 2
v 0 0 0
v -8.7422784E-08 0 2
v -1.4142135 0 1.4142135
v 0 2.5 0
v -8.7422784E-08 0 2
v -1.4142135 0 1.4142135
v 0 0 0
v -1.4142135 0 1.4142135
v -2 0 -1.7484557E-07
v 0 2.5 0
v -1.4142135 0 1.4142135
v -2 0 -1.7484557E-07
v 0 0 0
v -2 0 -1.7484557E-07
v -1.4142133 0 -1.4142138
v 0 2.5 0
v -2 0 -1.7484557E-07
v -1.4142133 0 -1.4142138
v 0 0 0
v -1.4142133 0 -1.4142138
v 2.3849763E-08 0 -2
v 0 2.5 0
v -1.4142133 0 -1.4142138
v 2.3849763E-08 0 -2
v 0 0 0
v 2.3849763E-08 0 -2
v 1.414214 0 -1.4142131
v 0 2.5 0
v 2.3849763E-08 0 -2
v 1.414214 0 -1.4142131
v 0 0 0
v 1.414214 0 -1.4142131
v 2 0 3.4969113E-07
v 0 2.5 0
v 1.414214 0 -1.4142131
v 2 0 3.4969113E-07
v 0 0 0
v 0 2.6 0
v -0.39999998 3.1 0
v 0.39999998 3.1 0
v 4.5499997 0.36399996 0
v 3.6810272 0.36399996 2.6744227
v 4.0039997 0 0
v 3.6810272 0.36399996 2.6744227
v 1.4060271 0.36399996 4.3273067
v 3.2393038 0 2.353492
v 1.4060271 0.36399996 4.3273067
v -1.4060274 0.36399996 4.3273067
v 1.2373039 0 3.80803
v -1.4060274 0.36399996 4.3273067
v -3.6810274 0.36399996 2.6744225
v -1.2373041 0 3.80803
v -3.6810274 0.36399996 2.6744225
v -4.5499997 0.36399996 -3.9777362E-07
v -3.239304 0 2.3534918
v -4.5499997 0.36399996 -3.9777362E-07
v -3.681027 0.36399996 -2.6744232
v -4.0039997 0 -3.5004078E-07
v -3.681027 0.36399996 -2.6744232
v -1.4060256 0.36399996 -4.327307
v -3.2393036 0 -2.3534925
v -1.4060256 0.36399996 -4.327307
v 1.4060278 0.36399996 -4.3273067
v -1.2373025 0 -3.8080304
v 1.4060278 0.36399996 -4.3273067
v 3.681027 0.36399996 -2.674423
v 1.2373044 0 -3.80803
v 3.681027 0.36399996 -2.674423
v 4.5499997 0.36399996 7.9554724E-07
v 3.2393036 0 -2.3534923
v 5.04 0.84 0
v 5.25 1.12 0
v 5.04 1.12 0.21
v 2.52 0.84 4.3647685
v 2.73 1.12 4.3647685
v 2.52 1.12 4.5747685
v -2.5200005 0.84 4.364768
v -2.3100004 1.12 4.364768
v -2.5200005 1.12 4.574768
v -5.04 0.84 -4.406108E-07
v -4.83 1.12 -4.406108E-07
v -5.04 1.12 0.20999955
v -2.5199995 0.84 -4.3647685
v -2.3099995 1.12 -4.3647685
v -2.5199995 1.12 -4.1547685
v 2.520002 0.84 -4.3647676
v 2.730002 1.12 -4.3647676
v 2.520002 1.12 -4.1547675
v 3.5 3.6399999 0
v 3.0310888 3.6399999 1.75
v 0 4.06 0
v 3.0310888 3.6399999 1.75
v 1.7499999 3.6399999 3.031089
v 0 4.06 0
v 1.7499999 3.6399999 3.031089
v -1.5298986E-07 3.6399999 3.5
v 0 4.06 0
v -1.5298986E-07 3.6399999 3.5
v -1.7500002 3.6399999 3.0310888
v 0 4.06 0
v -1.7500002 3.6399999 3.0310888
v -3.0310893 3.6399999 1.7499994
v 0 4.06 0
v -3.0310893 3.6399999 1.7499994
v -3.5 3.6399999 -3.059797E-07
v 0 4.06 0
v -3.5 3.6399999 -3.059797E-07
v -3.0310884 3.6399999 -1.7500006
v 0 4.06 0
v -3.0310884 3.6399999 -1.7500006
v -1.7499996 3.6399999 -3.031089
v 0 4.06 0
v -1.7499996 3.6399999 -3.031089
v 4.173708E-08 3.6399999 -3.5
v 0 4.06 0
v 4.173708E-08 3.6399999 -3.5
v 1.7500012 3.6399999 -3.0310884
v 0 4.06 0
v 1.7500012 3.6399999 -3.0310884
v 3.0310895 3.6399999 -1.7499992
v 0 4.06 0
v 3.0310895 3.6399999 -1.7499992
v 3.5 3.6399999 6.119594E-07
v 0 4.06 0
vn -0.74297136 -0.5943771 -0.30774882
vn -0.74297136 -0.5943771 -0.30774882
vn -0.74297136 -0.5943771 -0.30774882
vn 0 -0.99999994 0
vn 0 -0.99999994 0
vn 0 -0.99999994 0
vn -0.30774882 -0.5943771 -0.7429714
vn -0.30774882 -0.5943771 -0.7429714
vn -0.30774882 -0.5943771 -0.7429714
vn -0 -0.99999994 0
vn -0 -0.99999994 0
vn -0 -0.99999994 0
vn 0.30774885 -0.5943771 -0.74297136
vn 0.30774885 -0.5943771 -0.74297136
vn 0.30774885 -0.5943771 -0.74297136
vn 0 -0.99999994 -0
vn 0 -0.99999994 -0
vn 0 -0.99999994 -0
vn 0.7429714 -0.5943771 -0.30774882
vn 0.7429714 -0.5943771 -0.30774882
vn 0.7429714 -0.5943771 -0.30774882
vn 0 -0.99999994 -0
vn 0 -0.99999994 -0
vn 0 -0.99999994 -0
vn 0.74297136 -0.59437704 0.30774894
vn 0.74297136 -0.59437704 0.30774894
vn 0.74297136 -0.59437704 0.30774894
vn 0 -0.99999994 0
vn 0 -0.99999994 0
vn 0 -0.99999994 0
vn 0.3077488 -0.5943771 0.7429714
vn 0.3077488 -0.5943771 0.7429714
vn 0.3077488 -0.5943771 0.7429714
vn 0 -0.99999994 0
vn 0 -0.99999994 0
vn 0 -0.99999994 0
vn -0.30774894 -0.59437704 0.7429713
vn -0.30774894 -0.59437704 0.7429713
vn -0.30774894 -0.59437704 0.7429713
vn 0 -0.99999994 0
vn 0 -0.99999994 0
vn 0 -0.99999994 0
vn -0.7429715 -0.59437716 0.30774868
vn -0.7429715 -0.59437716 0.30774868
vn -0.7429715 -0.59437716 0.30774868
vn 0 -0.99999994 0
vn 0 -0.99999994 0
vn 0 -0.99999994 0
vn 0 0 -1
vn 0 0 -1
vn 0 0 -1
vn 0.5459044 -0.8188568 0.17737508
vn 0.5459044 -0.8188568 0.17737508
vn 0.5459044 -0.8188568 0.17737508
vn 0.33738744 -0.8188568 0.4643741
vn 0.33738744 -0.8188568 0.4643741
vn 0.33738744 -0.8188568 0.4643741
vn 0 -0.8188568 0.5739979
vn 0 -0.8188568 0.5739979
vn 0 -0.8188568 0.5739979
vn -0.33738747 -0.8188567 0.46437404
vn -0.33738747 -0.8188567 0.46437404
vn -0.33738747 -0.8188567 0.46437404
vn -0.5459044 -0.8188567 0.177375
vn -0.5459044 -0.8188567 0.177375
vn -0.5459044 -0.8188567 0.177375
vn -0.5459044 -0.8188568 -0.17737512
vn -0.5459044 -0.8188568 -0.17737512
vn -0.5459044 -0.8188568 -0.17737512
vn -0.33738738 -0.8188568 -0.4643742
vn -0.33738738 -0.8188568 -0.4643742
vn -0.33738738 -0.8188568 -0.4643742
vn 9.7332276E-08 -0.8188568 -0.573998
vn 9.7332276E-08 -0.8188568 -0.573998
vn 9.7332276E-08 -0.8188568 -0.573998
vn 0.33738753 -0.81885684 -0.46437404
vn 0.33738753 -0.81885684 -0.46437404
vn 0.33738753 -0.81885684 -0.46437404
vn 0.54590446 -0.8188568 -0.17737506
vn 0.54590446 -0.8188568 -0.17737506
vn 0.54590446 -0.8188568 -0.17737506
vn 0.624695 -0.46852127 0.6246951
vn 0.624695 -0.46852127 0.6246951
vn 0.624695 -0.46852127 0.6246951
vn 0.624695 -0.4685213 0.624695
vn 0.624695 -0.4685213 0.624695
vn 0.624695 -0.4685213 0.624695
vn 0.624695 -0.4685213 0.624695
vn 0.624695 -0.4685213 0.624695
vn 0.624695 -0.4685213 0.624695
vn 0.624695 -0.46852127 0.6246951
vn 0.624695 -0.46852127 0.6246951
vn 0.624695 -0.46852127 0.6246951
vn 0.624695 -0.4685213 0.624695
vn 0.624695 -0.4685213 0.624695
vn 0.624695 -0.4685213 0.624695
vn 0.624695 -0.4685213 0.624695
vn 0.624695 -0.4685213 0.624695
vn 0.624695 -0.4685213 0.624695
vn -0.11908457 -0.9923712 -0.03190862
vn -0.11908457 -0.9923712 -0.03190862
vn -0.11908457 -0.9923712 -0.03190862
vn -0.087175965 -0.99237126 -0.08717595
vn -0.087175965 -0.99237126 -0.08717595
vn -0.087175965 -0.99237126 -0.08717595
vn -0.0319086 -0.9923712 -0.11908457
vn -0.0319086 -0.9923712 -0.11908457
vn -0.0319086 -0.9923712 -0.11908457
vn 0.031908616 -0.9923712 -0.11908457
vn 0.031908616 -0.9923712 -0.11908457
vn 0.031908616 -0.9923712 -0.11908457
vn 0.087175965 -0.99237126 -0.08717594
vn 0.087175965 -0.99237126 -0.08717594
vn 0.087175965 -0.99237126 -0.08717594
vn 0.11908457 -0.99237126 -0.03190859
vn 0.11908457 -0.99237126 -0.03190859
vn 0.11908457 -0.99237126 -0.03190859
vn 0.119084574 -0.99237126 0.03190865
vn 0.119084574 -0.99237126 0.03190865
vn 0.119084574 -0.99237126 0.03190865
vn 0.08717596 -0.99237126 0.087175965
vn 0.08717596 -0.99237126 0.087175965
vn 0.08717596 -0.99237126 0.087175965
vn 0.031908613 -0.99237126 0.119084574
vn 0.031908613 -0.99237126 0.119084574
vn 0.031908613 -0.99237126 0.119084574
vn -0.03190863 -0.99237126 0.11908457
vn -0.03190863 -0.99237126 0.11908457
vn -0.03190863 -0.99237126 0.11908457
vn -0.08717599 -0.9923713 0.08717593
vn -0.08717599 -0.9923713 0.08717593
vn -0.08717599 -0.9923713 0.08717593
vn -0.11908457 -0.99237126 0.03190858
vn -0.11908457 -0.99237126 0.03190858
vn -0.11908457 -0.99237126 0.03190858
f 1//1 2//2 3//3
f 4//4 5//5 6//6
f 7//7 8//8 9//9
f 10//10 11//11 12//12
f 13//13 14//14 15//15
f 16//16 17//17 18//18
f 19//19 20//20 21//21
f 22//22 23//23 24//24
f 25//25 26//26 27//27
f 28//28 29//29 30//30
f 31//31 32//32 33//33
f 34//34 35//35 36//36
f 37//37 38//38 39//39
f 40//40 41//41 42//42
f 43//43 44//44 45//45
f 46//46 47//47 48//48
f 49//49 50//50 51//51
f 52//52 53//53 54//54
f 55//55 56//56 57//57
f 58//58 59//59 60//60
f 61//61 62//62 63//63
f 64//64 65//65 66//66
f 67//67 68//68 69//69
f 70//70 71//71 72//72
f 73//73 74//74 75//75
f 76//76 77//77 78//78
f 79//79 80//80 81//81
f 82//82 83//83 84//84
f 85//85 86//86 87//87
f 88//88 89//89 90//90
f 91//91 92//92 93//93
f 94//94 95//95 96//96
f 97//97 98//98 99//99
f 100//100 101//101 102//102
f 103//103 104//104 105//105
f 106//106 107//107 108//108
f 109//109 110//110 111//111
f 112//112 113//113 114//114
f 115//115 116//116 117//117
f 118//118 119//119 120//120
f 121//121 122//122 123//123
f 124//124 125//125 126//126
f 127//127 128//128 129//129
f 130//130 131//131 132//132
f 133//133 134//134 135//135
