# Exported from SharpOpenGl procedural mesh
o power_reactor
# vertices 159
v 2.132 0 0
v 1.5075516 0 1.5075516
v 0 2.665 0
v 2.132 0 0
v 1.5075516 0 1.5075516
v 0 0 0
v 1.5075516 0 1.5075516
v -9.3192675E-08 0 2.132
v 0 2.665 0
v 1.5075516 0 1.5075516
v -9.3192675E-08 0 2.132
v 0 0 0
v -9.3192675E-08 0 2.132
v -1.5075516 0 1.5075516
v 0 2.665 0
v -9.3192675E-08 0 2.132
v -1.5075516 0 1.5075516
v 0 0 0
v -1.5075516 0 1.5075516
v -2.132 0 -1.8638535E-07
v 0 2.665 0
v -1.5075516 0 1.5075516
v -2.132 0 -1.8638535E-07
v 0 0 0
v -2.132 0 -1.8638535E-07
v -1.5075514 0 -1.5075519
v 0 2.665 0
v -2.132 0 -1.8638535E-07
v -1.5075514 0 -1.5075519
v 0 0 0
v -1.5075514 0 -1.5075519
v 2.5423844E-08 0 -2.132
v 0 2.665 0
v -1.5075514 0 -1.5075519
v 2.5423844E-08 0 -2.132
v 0 0 0
v 2.5423844E-08 0 -2.132
v 1.5075521 0 -1.5075511
v 0 2.665 0
v 2.5423844E-08 0 -2.132
v 1.5075521 0 -1.5075511
v 0 0 0
v 1.5075521 0 -1.5075511
v 2.132 0 3.727707E-07
v 0 2.665 0
v 1.5075521 0 -1.5075511
v 2.132 0 3.727707E-07
v 0 0 0
v 0 2.7715998 0
v -0.42639998 3.3046 0
v 0.42639998 3.3046 0
v 4.8503 0.38802397 0
v 3.923975 0.38802397 2.8509347
v 4.268264 0 0
v 3.923975 0.38802397 2.8509347
v 1.498825 0.38802397 4.6129093
v 3.453098 0 2.5088227
v 1.498825 0.38802397 4.6129093
v -1.4988253 0.38802397 4.6129093
v 1.3189659 0 4.05936
v -1.4988253 0.38802397 4.6129093
v -3.9239752 0.38802397 2.8509343
v -1.3189663 0 4.05936
v -3.9239752 0.38802397 2.8509343
v -4.8503 0.38802397 -4.2402667E-07
v -3.4530983 0 2.5088222
v -4.8503 0.38802397 -4.2402667E-07
v -3.9239748 0.38802397 -2.8509352
v -4.268264 0 -3.7314345E-07
v -3.9239748 0.38802397 -2.8509352
v -1.4988234 0.38802397 -4.61291
v -3.4530978 0 -2.508823
v -1.4988234 0.38802397 -4.61291
v 1.4988257 0.38802397 -4.6129093
v -1.3189646 0 -4.0593605
v 1.4988257 0.38802397 -4.6129093
v 3.9239748 0.38802397 -2.850935
v 1.3189666 0 -4.05936
v 3.9239748 0.38802397 -2.850935
v 4.8503 0.38802397 8.4805333E-07
v 3.4530978 0 -2.5088227
v 5.37264 0.89544 0
v 5.5965 1.1939199 0
v 5.37264 1.1939199 0.22386
v 2.6863198 0.89544 4.652843
v 2.9101799 1.1939199 4.652843
v 2.6863198 1.1939199 4.876703
v -2.6863203 0.89544 4.6528425
v -2.4624603 1.1939199 4.6528425
v -2.6863203 1.1939199 4.8767023
v -5.37264 0.89544 -4.6969114E-07
v -5.1487803 1.1939199 -4.6969114E-07
v -5.37264 1.1939199 0.22385952
v -2.6863196 0.89544 -4.652843
v -2.4624596 1.1939199 -4.652843
v -2.6863196 1.1939199 -4.428983
v 2.686322 0.89544 -4.6528416
v 2.910182 1.1939199 -4.6528416
v 2.686322 1.1939199 -4.428982
v -4.1041 1.34316 -1.64164
v 4.1041 1.34316 -1.04468
v -4.1041 3.1340399 -1.2685399
v 4.1041 1.34316 -1.04468
v 4.1041 3.1340399 -1.2685399
v -4.1041 3.1340399 -1.2685399
v -4.1041 1.34316 0
v 4.1041 1.34316 0.59695995
v -4.1041 3.1340399 0.3731
v 4.1041 1.34316 0.59695995
v 4.1041 3.1340399 0.3731
v -4.1041 3.1340399 0.3731
v -4.1041 1.34316 1.64164
v 4.1041 1.34316 2.2385998
v -4.1041 3.1340399 2.01474
v 4.1041 1.34316 2.2385998
v 4.1041 3.1340399 2.01474
v -4.1041 3.1340399 2.01474
v -7.0888996 2.08936 0.89544
v -4.1041 2.08936 0.89544
v -4.1041 3.1340399 -0.59695995
v 4.1041 2.08936 0.89544
v 7.0888996 2.08936 0.89544
v 4.1041 3.1340399 -0.59695995
v 3.731 3.8802397 0
v 3.2311406 3.8802397 1.8655
v 0 4.32796 0
v 3.2311406 3.8802397 1.8655
v 1.8654999 3.8802397 3.2311409
v 0 4.32796 0
v 1.8654999 3.8802397 3.2311409
v -1.630872E-07 3.8802397 3.731
v 0 4.32796 0
v -1.630872E-07 3.8802397 3.731
v -1.8655002 3.8802397 3.2311406
v 0 4.32796 0
v -1.8655002 3.8802397 3.2311406
v -3.231141 3.8802397 1.8654993
v 0 4.32796 0
v -3.231141 3.8802397 1.8654993
v -3.731 3.8802397 -3.261744E-07
v 0 4.32796 0
v -3.731 3.8802397 -3.261744E-07
v -3.2311401 3.8802397 -1.8655007
v 0 4.32796 0
v -3.2311401 3.8802397 -1.8655007
v -1.8654996 3.8802397 -3.2311409
v 0 4.32796 0
v -1.8654996 3.8802397 -3.2311409
v 4.4491728E-08 3.8802397 -3.731
v 0 4.32796 0
v 4.4491728E-08 3.8802397 -3.731
v 1.8655013 3.8802397 -3.23114
v 0 4.32796 0
v 1.8655013 3.8802397 -3.23114
v 3.2311413 3.8802397 -1.8654991
v 0 4.32796 0
v 3.2311413 3.8802397 -1.8654991
v 3.731 3.8802397 6.523488E-07
v 0 4.32796 0
vn -0.74297136 -0.5943771 -0.30774888
vn -0.74297136 -0.5943771 -0.30774888
vn -0.74297136 -0.5943771 -0.30774888
vn 0 -1 0
vn 0 -1 0
vn 0 -1 0
vn -0.30774885 -0.59437704 -0.7429714
vn -0.30774885 -0.59437704 -0.7429714
vn -0.30774885 -0.59437704 -0.7429714
vn -0 -1 0
vn -0 -1 0
vn -0 -1 0
vn 0.30774894 -0.59437716 -0.7429714
vn 0.30774894 -0.59437716 -0.7429714
vn 0.30774894 -0.59437716 -0.7429714
vn 0 -1 -0
vn 0 -1 -0
vn 0 -1 -0
vn 0.7429714 -0.5943771 -0.30774885
vn 0.7429714 -0.5943771 -0.30774885
vn 0.7429714 -0.5943771 -0.30774885
vn 0 -0.99999994 -0
vn 0 -0.99999994 -0
vn 0 -0.99999994 -0
vn 0.74297136 -0.59437704 0.30774888
vn 0.74297136 -0.59437704 0.30774888
vn 0.74297136 -0.59437704 0.30774888
vn 0 -0.99999994 0
vn 0 -0.99999994 0
vn 0 -0.99999994 0
vn 0.30774876 -0.59437716 0.7429714
vn 0.30774876 -0.59437716 0.7429714
vn 0.30774876 -0.59437716 0.7429714
vn 0 -1 0
vn 0 -1 0
vn 0 -1 0
vn -0.307749 -0.5943771 0.74297136
vn -0.307749 -0.5943771 0.74297136
vn -0.307749 -0.5943771 0.74297136
vn 0 -0.99999994 0
vn 0 -0.99999994 0
vn 0 -0.99999994 0
vn -0.7429715 -0.59437716 0.30774868
vn -0.7429715 -0.59437716 0.30774868
vn -0.7429715 -0.59437716 0.30774868
vn 0 -1 0
vn 0 -1 0
vn 0 -1 0
vn 0 0 -1
vn 0 0 -1
vn 0 0 -1
vn 0.54590446 -0.8188568 0.17737511
vn 0.54590446 -0.8188568 0.17737511
vn 0.54590446 -0.8188568 0.17737511
vn 0.33738756 -0.81885666 0.46437413
vn 0.33738756 -0.81885666 0.46437413
vn 0.33738756 -0.81885666 0.46437413
vn 0 -0.8188568 0.57399774
vn 0 -0.8188568 0.57399774
vn 0 -0.8188568 0.57399774
vn -0.33738753 -0.81885684 0.46437398
vn -0.33738753 -0.81885684 0.46437398
vn -0.33738753 -0.81885684 0.46437398
vn -0.5459045 -0.81885666 0.1773751
vn -0.5459045 -0.81885666 0.1773751
vn -0.5459045 -0.81885666 0.1773751
vn -0.54590446 -0.8188568 -0.17737515
vn -0.54590446 -0.8188568 -0.17737515
vn -0.54590446 -0.8188568 -0.17737515
vn -0.33738735 -0.81885666 -0.46437413
vn -0.33738735 -0.81885666 -0.46437413
vn -0.33738735 -0.81885666 -0.46437413
vn 9.130605E-08 -0.81885684 -0.57399786
vn 9.130605E-08 -0.81885684 -0.57399786
vn 9.130605E-08 -0.81885684 -0.57399786
vn 0.3373875 -0.81885684 -0.46437395
vn 0.3373875 -0.81885684 -0.46437395
vn 0.3373875 -0.81885684 -0.46437395
vn 0.54590446 -0.8188567 -0.1773751
vn 0.54590446 -0.8188567 -0.1773751
vn 0.54590446 -0.8188567 -0.1773751
vn 0.6246954 -0.4685212 0.62469476
vn 0.6246954 -0.4685212 0.62469476
vn 0.6246954 -0.4685212 0.62469476
vn 0.6246947 -0.4685212 0.6246954
vn 0.6246947 -0.4685212 0.6246954
vn 0.6246947 -0.4685212 0.6246954
vn 0.6246947 -0.4685212 0.6246954
vn 0.6246947 -0.4685212 0.6246954
vn 0.6246947 -0.4685212 0.6246954
vn 0.6246954 -0.4685212 0.62469476
vn 0.6246954 -0.4685212 0.62469476
vn 0.6246954 -0.4685212 0.62469476
vn 0.6246947 -0.4685212 0.6246954
vn 0.6246947 -0.4685212 0.6246954
vn 0.6246947 -0.4685212 0.6246954
vn 0.6246947 -0.4685212 0.6246954
vn 0.6246947 -0.4685212 0.6246954
vn 0.6246947 -0.4685212 0.6246954
vn -0.071018785 -0.2034393 0.97650844
vn -0.071018785 -0.2034393 0.97650844
vn -0.071018785 -0.2034393 0.97650844
vn 0 0.12403469 0.99227786
vn 0 0.12403469 0.99227786
vn 0 0.12403469 0.99227786
vn -0.071018785 -0.20343928 0.97650844
vn -0.071018785 -0.20343928 0.97650844
vn -0.071018785 -0.20343928 0.97650844
vn 0 0.1240347 0.99227786
vn 0 0.1240347 0.99227786
vn 0 0.1240347 0.99227786
vn -0.07101877 -0.2034393 0.97650844
vn -0.07101877 -0.2034393 0.97650844
vn -0.07101877 -0.2034393 0.97650844
vn 0 0.12403462 0.99227786
vn 0 0.12403462 0.99227786
vn 0 0.12403462 0.99227786
vn -0 0.819232 0.5734623
vn -0 0.819232 0.5734623
vn -0 0.819232 0.5734623
vn -0 0.819232 0.5734623
vn -0 0.819232 0.5734623
vn -0 0.819232 0.5734623
vn -0.11908463 -0.9923712 -0.03190864
vn -0.11908463 -0.9923712 -0.03190864
vn -0.11908463 -0.9923712 -0.03190864
vn -0.087176 -0.9923712 -0.087176
vn -0.087176 -0.9923712 -0.087176
vn -0.087176 -0.9923712 -0.087176
vn -0.03190862 -0.9923712 -0.11908463
vn -0.03190862 -0.9923712 -0.11908463
vn -0.03190862 -0.9923712 -0.11908463
vn 0.031908635 -0.9923712 -0.11908462
vn 0.031908635 -0.9923712 -0.11908462
vn 0.031908635 -0.9923712 -0.11908462
vn 0.087176 -0.9923712 -0.08717597
vn 0.087176 -0.9923712 -0.08717597
vn 0.087176 -0.9923712 -0.08717597
vn 0.119084634 -0.99237126 -0.031908616
vn 0.119084634 -0.99237126 -0.031908616
vn 0.119084634 -0.99237126 -0.031908616
vn 0.11908463 -0.9923712 0.03190866
vn 0.11908463 -0.9923712 0.03190866
vn 0.11908463 -0.9923712 0.03190866
vn 0.08717599 -0.99237126 0.08717601
vn 0.08717599 -0.99237126 0.08717601
vn 0.08717599 -0.99237126 0.08717601
vn 0.031908628 -0.9923712 0.11908463
vn 0.031908628 -0.9923712 0.11908463
vn 0.031908628 -0.9923712 0.11908463
vn -0.031908657 -0.99237114 0.11908462
vn -0.031908657 -0.99237114 0.11908462
vn -0.031908657 -0.99237114 0.11908462
vn -0.087176025 -0.99237126 0.08717597
vn -0.087176025 -0.99237126 0.08717597
vn -0.087176025 -0.99237126 0.08717597
vn -0.119084634 -0.99237126 0.031908598
vn -0.119084634 -0.99237126 0.031908598
vn -0.119084634 -0.99237126 0.031908598
f 1//1 2//2 3//3
f 4//4 5//5 6//6
f 7//7 8//8 9//9
f 10//10 11//11 12//12
f 13//13 14//14 15//15
f 16//16 17//17 18//18
f 19//19 20//20 21//21
f 22//22 23//23 24//24
f 25//25 26//26 27//27
f 28//28 29//29 30//30
f 31//31 32//32 33//33
f 34//34 35//35 36//36
f 37//37 38//38 39//39
f 40//40 41//41 42//42
f 43//43 44//44 45//45
f 46//46 47//47 48//48
f 49//49 50//50 51//51
f 52//52 53//53 54//54
f 55//55 56//56 57//57
f 58//58 59//59 60//60
f 61//61 62//62 63//63
f 64//64 65//65 66//66
f 67//67 68//68 69//69
f 70//70 71//71 72//72
f 73//73 74//74 75//75
f 76//76 77//77 78//78
f 79//79 80//80 81//81
f 82//82 83//83 84//84
f 85//85 86//86 87//87
f 88//88 89//89 90//90
f 91//91 92//92 93//93
f 94//94 95//95 96//96
f 97//97 98//98 99//99
f 100//100 101//101 102//102
f 103//103 104//104 105//105
f 106//106 107//107 108//108
f 109//109 110//110 111//111
f 112//112 113//113 114//114
f 115//115 116//116 117//117
f 118//118 119//119 120//120
f 121//121 122//122 123//123
f 124//124 125//125 126//126
f 127//127 128//128 129//129
f 130//130 131//131 132//132
f 133//133 134//134 135//135
f 136//136 137//137 138//138
f 139//139 140//140 141//141
f 142//142 143//143 144//144
f 145//145 146//146 147//147
f 148//148 149//149 150//150
f 151//151 152//152 153//153
f 154//154 155//155 156//156
f 157//157 158//158 159//159
