# Exported from SharpOpenGl procedural mesh
o sensor_array
# vertices 66
v 0 2.4750001 0
v -0.35999998 0 0
v 0.35999998 0 0
v -2.0249999 0.35999998 0
v 2.0249999 0.35999998 0
v 0 2.4750001 0
v -1.5749999 0.53999996 -0.90000004
v 1.5749999 0.53999996 -0.90000004
v 0 2.0249999 0.675
v -1.5749999 0.53999996 0.90000004
v 0 2.0249999 0.675
v 1.5749999 0.53999996 0.90000004
v 4.5499997 0.36399996 0
v 3.6810272 0.36399996 2.6744227
v 4.0039997 0 0
v 3.6810272 0.36399996 2.6744227
v 1.4060271 0.36399996 4.3273067
v 3.2393038 0 2.353492
v 1.4060271 0.36399996 4.3273067
v -1.4060274 0.36399996 4.3273067
v 1.2373039 0 3.80803
v -1.4060274 0.36399996 4.3273067
v -3.6810274 0.36399996 2.6744225
v -1.2373041 0 3.80803
v -3.6810274 0.36399996 2.6744225
v -4.5499997 0.36399996 -3.9777362E-07
v -3.239304 0 2.3534918
v -4.5499997 0.36399996 -3.9777362E-07
v -3.681027 0.36399996 -2.6744232
v -4.0039997 0 -3.5004078E-07
v -3.681027 0.36399996 -2.6744232
v -1.4060256 0.36399996 -4.327307
v -3.2393036 0 -2.3534925
v -1.4060256 0.36399996 -4.327307
v 1.4060278 0.36399996 -4.3273067
v -1.2373025 0 -3.8080304
v 1.4060278 0.36399996 -4.3273067
v 3.681027 0.36399996 -2.674423
v 1.2373044 0 -3.80803
v 3.681027 0.36399996 -2.674423
v 4.5499997 0.36399996 7.9554724E-07
v 3.2393036 0 -2.3534923
v 5.04 0.84 0
v 5.25 1.12 0
v 5.04 1.12 0.21
v 2.52 0.84 4.3647685
v 2.73 1.12 4.3647685
v 2.52 1.12 4.5747685
v -2.5200005 0.84 4.364768
v -2.3100004 1.12 4.364768
v -2.5200005 1.12 4.574768
v -5.04 0.84 -4.406108E-07
v -4.83 1.12 -4.406108E-07
v -5.04 1.12 0.20999955
v -2.5199995 0.84 -4.3647685
v -2.3099995 1.12 -4.3647685
v -2.5199995 1.12 -4.1547685
v 2.520002 0.84 -4.3647676
v 2.730002 1.12 -4.3647676
v 2.520002 1.12 -4.1547675
v -1.225 2.45 0
v -0.17499995 1.96 -0.7
v -1.225 2.9399998 0.7
v 1.225 2.45 0
v 2.275 1.96 -0.7
v 1.225 2.9399998 0.7
vn 0 0 0.99999994
vn 0 0 0.99999994
vn 0 0 0.99999994
vn 0 0 0.99999994
vn 0 0 0.99999994
vn 0 0 0.99999994
vn 0 -0.7275894 0.6860128
vn 0 -0.7275894 0.6860128
vn 0 -0.7275894 0.6860128
vn 0 -0.1498054 -0.98871547
vn 0 -0.1498054 -0.98871547
vn 0 -0.1498054 -0.98871547
vn 0.5459044 -0.8188568 0.17737508
vn 0.5459044 -0.8188568 0.17737508
vn 0.5459044 -0.8188568 0.17737508
vn 0.33738744 -0.8188568 0.4643741
vn 0.33738744 -0.8188568 0.4643741
vn 0.33738744 -0.8188568 0.4643741
vn 0 -0.8188568 0.5739979
vn 0 -0.8188568 0.5739979
vn 0 -0.8188568 0.5739979
vn -0.33738747 -0.8188567 0.46437404
vn -0.33738747 -0.8188567 0.46437404
vn -0.33738747 -0.8188567 0.46437404
vn -0.5459044 -0.8188567 0.177375
vn -0.5459044 -0.8188567 0.177375
vn -0.5459044 -0.8188567 0.177375
vn -0.5459044 -0.8188568 -0.17737512
vn -0.5459044 -0.8188568 -0.17737512
vn -0.5459044 -0.8188568 -0.17737512
vn -0.33738738 -0.8188568 -0.4643742
vn -0.33738738 -0.8188568 -0.4643742
vn -0.33738738 -0.8188568 -0.4643742
vn 9.7332276E-08 -0.8188568 -0.573998
vn 9.7332276E-08 -0.8188568 -0.573998
vn 9.7332276E-08 -0.8188568 -0.573998
vn 0.33738753 -0.81885684 -0.46437404
vn 0.33738753 -0.81885684 -0.46437404
vn 0.33738753 -0.81885684 -0.46437404
vn 0.54590446 -0.8188568 -0.17737506
vn 0.54590446 -0.8188568 -0.17737506
vn 0.54590446 -0.8188568 -0.17737506
vn 0.624695 -0.46852127 0.6246951
vn 0.624695 -0.46852127 0.6246951
vn 0.624695 -0.46852127 0.6246951
vn 0.624695 -0.4685213 0.624695
vn 0.624695 -0.4685213 0.624695
vn 0.624695 -0.4685213 0.624695
vn 0.624695 -0.4685213 0.624695
vn 0.624695 -0.4685213 0.624695
vn 0.624695 -0.4685213 0.624695
vn 0.624695 -0.46852127 0.6246951
vn 0.624695 -0.46852127 0.6246951
vn 0.624695 -0.46852127 0.6246951
vn 0.624695 -0.4685213 0.624695
vn 0.624695 -0.4685213 0.624695
vn 0.624695 -0.4685213 0.624695
vn 0.624695 -0.4685213 0.624695
vn 0.624695 -0.4685213 0.624695
vn 0.624695 -0.4685213 0.624695
vn -1.6608854E-07 -0.81923205 0.5734622
vn -1.6608854E-07 -0.81923205 0.5734622
vn -1.6608854E-07 -0.81923205 0.5734622
vn -1.6608854E-07 -0.81923205 0.5734622
vn -1.6608854E-07 -0.81923205 0.5734622
vn -1.6608854E-07 -0.81923205 0.5734622
f 1//1 2//2 3//3
f 4//4 5//5 6//6
f 7//7 8//8 9//9
f 10//10 11//11 12//12
f 13//13 14//14 15//15
f 16//16 17//17 18//18
f 19//19 20//20 21//21
f 22//22 23//23 24//24
f 25//25 26//26 27//27
f 28//28 29//29 30//30
f 31//31 32//32 33//33
f 34//34 35//35 36//36
f 37//37 38//38 39//39
f 40//40 41//41 42//42
f 43//43 44//44 45//45
f 46//46 47//47 48//48
f 49//49 50//50 51//51
f 52//52 53//53 54//54
f 55//55 56//56 57//57
f 58//58 59//59 60//60
f 61//61 62//62 63//63
f 64//64 65//65 66//66
