# Exported from SharpOpenGl procedural mesh
o sensor_array
# vertices 90
v 0 2.63835 0
v -0.38375998 0 0
v 0.38375998 0 0
v -2.15865 0.38375998 0
v 2.15865 0.38375998 0
v 0 2.63835 0
v -1.67895 0.57563996 -0.9594
v 1.67895 0.57563996 -0.9594
v 0 2.15865 0.71955
v -1.67895 0.57563996 0.9594
v 0 2.15865 0.71955
v 1.67895 0.57563996 0.9594
v 4.8503 0.38802397 0
v 3.923975 0.38802397 2.8509347
v 4.268264 0 0
v 3.923975 0.38802397 2.8509347
v 1.498825 0.38802397 4.6129093
v 3.453098 0 2.5088227
v 1.498825 0.38802397 4.6129093
v -1.4988253 0.38802397 4.6129093
v 1.3189659 0 4.05936
v -1.4988253 0.38802397 4.6129093
v -3.9239752 0.38802397 2.8509343
v -1.3189663 0 4.05936
v -3.9239752 0.38802397 2.8509343
v -4.8503 0.38802397 -4.2402667E-07
v -3.4530983 0 2.5088222
v -4.8503 0.38802397 -4.2402667E-07
v -3.9239748 0.38802397 -2.8509352
v -4.268264 0 -3.7314345E-07
v -3.9239748 0.38802397 -2.8509352
v -1.4988234 0.38802397 -4.61291
v -3.4530978 0 -2.508823
v -1.4988234 0.38802397 -4.61291
v 1.4988257 0.38802397 -4.6129093
v -1.3189646 0 -4.0593605
v 1.4988257 0.38802397 -4.6129093
v 3.9239748 0.38802397 -2.850935
v 1.3189666 0 -4.05936
v 3.9239748 0.38802397 -2.850935
v 4.8503 0.38802397 8.4805333E-07
v 3.4530978 0 -2.5088227
v 5.37264 0.89544 0
v 5.5965 1.1939199 0
v 5.37264 1.1939199 0.22386
v 2.6863198 0.89544 4.652843
v 2.9101799 1.1939199 4.652843
v 2.6863198 1.1939199 4.876703
v -2.6863203 0.89544 4.6528425
v -2.4624603 1.1939199 4.6528425
v -2.6863203 1.1939199 4.8767023
v -5.37264 0.89544 -4.6969114E-07
v -5.1487803 1.1939199 -4.6969114E-07
v -5.37264 1.1939199 0.22385952
v -2.6863196 0.89544 -4.652843
v -2.4624596 1.1939199 -4.652843
v -2.6863196 1.1939199 -4.428983
v 2.686322 0.89544 -4.6528416
v 2.910182 1.1939199 -4.6528416
v 2.686322 1.1939199 -4.428982
v -4.1041 1.34316 -1.64164
v 4.1041 1.34316 -1.04468
v -4.1041 3.1340399 -1.2685399
v 4.1041 1.34316 -1.04468
v 4.1041 3.1340399 -1.2685399
v -4.1041 3.1340399 -1.2685399
v -4.1041 1.34316 0
v 4.1041 1.34316 0.59695995
v -4.1041 3.1340399 0.3731
v 4.1041 1.34316 0.59695995
v 4.1041 3.1340399 0.3731
v -4.1041 3.1340399 0.3731
v -4.1041 1.34316 1.64164
v 4.1041 1.34316 2.2385998
v -4.1041 3.1340399 2.01474
v 4.1041 1.34316 2.2385998
v 4.1041 3.1340399 2.01474
v -4.1041 3.1340399 2.01474
v -7.0888996 2.08936 0.89544
v -4.1041 2.08936 0.89544
v -4.1041 3.1340399 -0.59695995
v 4.1041 2.08936 0.89544
v 7.0888996 2.08936 0.89544
v 4.1041 3.1340399 -0.59695995
v -1.3058499 2.6116998 0
v -0.1865499 2.08936 -0.7462
v -1.3058499 3.1340399 0.7462
v 1.3058499 2.6116998 0
v 2.42515 2.08936 -0.7462
v 1.3058499 3.1340399 0.7462
vn 0 0 1
vn 0 0 1
vn 0 0 1
vn 0 0 1
vn 0 0 1
vn 0 0 1
vn 0 -0.72758937 0.6860128
vn 0 -0.72758937 0.6860128
vn 0 -0.72758937 0.6860128
vn 0 -0.14980538 -0.98871547
vn 0 -0.14980538 -0.98871547
vn 0 -0.14980538 -0.98871547
vn 0.54590446 -0.8188568 0.17737511
vn 0.54590446 -0.8188568 0.17737511
vn 0.54590446 -0.8188568 0.17737511
vn 0.33738756 -0.81885666 0.46437413
vn 0.33738756 -0.81885666 0.46437413
vn 0.33738756 -0.81885666 0.46437413
vn 0 -0.8188568 0.57399774
vn 0 -0.8188568 0.57399774
vn 0 -0.8188568 0.57399774
vn -0.33738753 -0.81885684 0.46437398
vn -0.33738753 -0.81885684 0.46437398
vn -0.33738753 -0.81885684 0.46437398
vn -0.5459045 -0.81885666 0.1773751
vn -0.5459045 -0.81885666 0.1773751
vn -0.5459045 -0.81885666 0.1773751
vn -0.54590446 -0.8188568 -0.17737515
vn -0.54590446 -0.8188568 -0.17737515
vn -0.54590446 -0.8188568 -0.17737515
vn -0.33738735 -0.81885666 -0.46437413
vn -0.33738735 -0.81885666 -0.46437413
vn -0.33738735 -0.81885666 -0.46437413
vn 9.130605E-08 -0.81885684 -0.57399786
vn 9.130605E-08 -0.81885684 -0.57399786
vn 9.130605E-08 -0.81885684 -0.57399786
vn 0.3373875 -0.81885684 -0.46437395
vn 0.3373875 -0.81885684 -0.46437395
vn 0.3373875 -0.81885684 -0.46437395
vn 0.54590446 -0.8188567 -0.1773751
vn 0.54590446 -0.8188567 -0.1773751
vn 0.54590446 -0.8188567 -0.1773751
vn 0.6246954 -0.4685212 0.62469476
vn 0.6246954 -0.4685212 0.62469476
vn 0.6246954 -0.4685212 0.62469476
vn 0.6246947 -0.4685212 0.6246954
vn 0.6246947 -0.4685212 0.6246954
vn 0.6246947 -0.4685212 0.6246954
vn 0.6246947 -0.4685212 0.6246954
vn 0.6246947 -0.4685212 0.6246954
vn 0.6246947 -0.4685212 0.6246954
vn 0.6246954 -0.4685212 0.62469476
vn 0.6246954 -0.4685212 0.62469476
vn 0.6246954 -0.4685212 0.62469476
vn 0.6246947 -0.4685212 0.6246954
vn 0.6246947 -0.4685212 0.6246954
vn 0.6246947 -0.4685212 0.6246954
vn 0.6246947 -0.4685212 0.6246954
vn 0.6246947 -0.4685212 0.6246954
vn 0.6246947 -0.4685212 0.6246954
vn -0.071018785 -0.2034393 0.97650844
vn -0.071018785 -0.2034393 0.97650844
vn -0.071018785 -0.2034393 0.97650844
vn 0 0.12403469 0.99227786
vn 0 0.12403469 0.99227786
vn 0 0.12403469 0.99227786
vn -0.071018785 -0.20343928 0.97650844
vn -0.071018785 -0.20343928 0.97650844
vn -0.071018785 -0.20343928 0.97650844
vn 0 0.1240347 0.99227786
vn 0 0.1240347 0.99227786
vn 0 0.1240347 0.99227786
vn -0.07101877 -0.2034393 0.97650844
vn -0.07101877 -0.2034393 0.97650844
vn -0.07101877 -0.2034393 0.97650844
vn 0 0.12403462 0.99227786
vn 0 0.12403462 0.99227786
vn 0 0.12403462 0.99227786
vn -0 0.819232 0.5734623
vn -0 0.819232 0.5734623
vn -0 0.819232 0.5734623
vn -0 0.819232 0.5734623
vn -0 0.819232 0.5734623
vn -0 0.819232 0.5734623
vn 1.7539065E-07 -0.8192319 0.57346237
vn 1.7539065E-07 -0.8192319 0.57346237
vn 1.7539065E-07 -0.8192319 0.57346237
vn 1.7539065E-07 -0.8192319 0.57346237
vn 1.7539065E-07 -0.8192319 0.57346237
vn 1.7539065E-07 -0.8192319 0.57346237
f 1//1 2//2 3//3
f 4//4 5//5 6//6
f 7//7 8//8 9//9
f 10//10 11//11 12//12
f 13//13 14//14 15//15
f 16//16 17//17 18//18
f 19//19 20//20 21//21
f 22//22 23//23 24//24
f 25//25 26//26 27//27
f 28//28 29//29 30//30
f 31//31 32//32 33//33
f 34//34 35//35 36//36
f 37//37 38//38 39//39
f 40//40 41//41 42//42
f 43//43 44//44 45//45
f 46//46 47//47 48//48
f 49//49 50//50 51//51
f 52//52 53//53 54//54
f 55//55 56//56 57//57
f 58//58 59//59 60//60
f 61//61 62//62 63//63
f 64//64 65//65 66//66
f 67//67 68//68 69//69
f 70//70 71//71 72//72
f 73//73 74//74 75//75
f 76//76 77//77 78//78
f 79//79 80//80 81//81
f 82//82 83//83 84//84
f 85//85 86//86 87//87
f 88//88 89//89 90//90
