# Exported from SharpOpenGl procedural mesh
o bomber_heavy
# vertices 144
v 1.6064653 0.22764459 0.16549867
v 1.2996578 0.30792826 0.25791246
v 0 0.77399164 0.41374668
v 1.6064653 0.22764459 0.16549867
v 0 0.04552892 0
v 1.2996578 0.30792826 0.25791246
v 1.2996578 0.30792826 0.25791246
v 0.49642506 0.35754633 0.31502736
v 0 0.77399164 0.41374668
v 1.2996578 0.30792826 0.25791246
v 0 0.04552892 0
v 0.49642506 0.35754633 0.31502736
v 0.49642506 0.35754633 0.31502736
v -0.49642515 0.35754633 0.31502736
v 0 0.77399164 0.41374668
v 0.49642506 0.35754633 0.31502736
v 0 0.04552892 0
v -0.49642515 0.35754633 0.31502736
v -0.49642515 0.35754633 0.31502736
v -1.2996578 0.30792826 0.25791246
v 0 0.77399164 0.41374668
v -0.49642515 0.35754633 0.31502736
v 0 0.04552892 0
v -1.2996578 0.30792826 0.25791246
v -1.2996578 0.30792826 0.25791246
v -1.6064653 0.22764458 0.16549866
v 0 0.77399164 0.41374668
v -1.2996578 0.30792826 0.25791246
v 0 0.04552892 0
v -1.6064653 0.22764458 0.16549866
v -1.6064653 0.22764458 0.16549866
v -1.2996577 0.14736089 0.07308486
v 0 0.77399164 0.41374668
v -1.6064653 0.22764458 0.16549866
v 0 0.04552892 0
v -1.2996577 0.14736089 0.07308486
v -1.2996577 0.14736089 0.07308486
v -0.49642453 0.097742856 0.015970007
v 0 0.77399164 0.41374668
v -1.2996577 0.14736089 0.07308486
v 0 0.04552892 0
v -0.49642453 0.097742856 0.015970007
v -0.49642453 0.097742856 0.015970007
v 0.4964253 0.09774287 0.015970007
v 0 0.77399164 0.41374668
v -0.49642453 0.097742856 0.015970007
v 0 0.04552892 0
v 0.4964253 0.09774287 0.015970007
v 0.4964253 0.09774287 0.015970007
v 1.2996577 0.1473609 0.07308487
v 0 0.77399164 0.41374668
v 0.4964253 0.09774287 0.015970007
v 0 0.04552892 0
v 1.2996577 0.1473609 0.07308487
v 1.2996577 0.1473609 0.07308487
v 1.6064653 0.22764462 0.1654987
v 0 0.77399164 0.41374668
v 1.2996577 0.1473609 0.07308487
v 0 0.04552892 0
v 1.6064653 0.22764462 0.1654987
v -1.4534687 0.57366437 -0.24824801
v -0.7649835 0.31870243 -0.24824801
v -1.1092261 0.31870243 0.049874842
v -1.4534687 0.57366437 -0.24824801
v -1.1092261 0.31870243 0.049874842
v -1.7977114 0.31870243 0.049874812
v -1.4534687 0.57366437 -0.24824801
v -1.7977114 0.31870243 0.049874812
v -2.141954 0.31870243 -0.24824804
v -1.4534687 0.57366437 -0.24824801
v -2.141954 0.31870243 -0.24824804
v -1.7977113 0.31870243 -0.54637086
v -1.4534687 0.57366437 -0.24824801
v -1.7977113 0.31870243 -0.54637086
v -1.1092259 0.31870243 -0.54637074
v -1.4534687 0.57366437 -0.24824801
v -1.1092259 0.31870243 -0.54637074
v -0.7649835 0.31870243 -0.24824795
v 0 0.57366437 0.12412402
v 0.6884852 0.31870243 0.12412402
v 0.34424257 0.31870243 0.42224687
v 0 0.57366437 0.12412402
v 0.34424257 0.31870243 0.42224687
v -0.34424263 0.31870243 0.42224684
v 0 0.57366437 0.12412402
v -0.34424263 0.31870243 0.42224684
v -0.6884852 0.31870243 0.12412399
v 0 0.57366437 0.12412402
v -0.6884852 0.31870243 0.12412399
v -0.34424254 0.31870243 -0.17399883
v 0 0.57366437 0.12412402
v -0.34424254 0.31870243 -0.17399883
v 0.34424284 0.31870243 -0.17399874
v 0 0.57366437 0.12412402
v 0.34424284 0.31870243 -0.17399874
v 0.6884852 0.31870243 0.12412408
v 1.4534687 0.57366437 0.49649605
v 2.141954 0.31870243 0.49649605
v 1.7977113 0.31870243 0.7946189
v 1.4534687 0.57366437 0.49649605
v 1.7977113 0.31870243 0.7946189
v 1.109226 0.31870243 0.79461884
v 1.4534687 0.57366437 0.49649605
v 1.109226 0.31870243 0.79461884
v 0.7649835 0.31870243 0.49649602
v 1.4534687 0.57366437 0.49649605
v 0.7649835 0.31870243 0.49649602
v 1.1092261 0.31870243 0.1983732
v 1.4534687 0.57366437 0.49649605
v 1.1092261 0.31870243 0.1983732
v 1.7977115 0.31870243 0.19837329
v 1.4534687 0.57366437 0.49649605
v 1.7977115 0.31870243 0.19837329
v 2.141954 0.31870243 0.4964961
v 0 0.50081813 1.1378034
v -0.84148186 0.18211567 0.7240567
v 0.84148186 0.18211567 0.7240567
v 0 0.50081813 1.1378034
v 0 0.31870243 1.4894881
v -0.4589901 0.22764459 0.86886805
v -1.5299671 0.053960197 -1.4575167
v -2.0545273 0 -2.611549
v -1.0054069 0 -2.611549
v -1.5299671 0.22258583 -1.1952366
v -1.8447032 0.053960197 -1.4575167
v -1.215231 0.053960197 -1.4575167
v -0.509989 0.053960197 -1.4575167
v -1.0345492 0 -2.611549
v 0.01457113 0 -2.611549
v -0.509989 0.22258583 -1.1952366
v -0.82472515 0.053960197 -1.4575167
v -0.19525293 0.053960197 -1.4575167
v 0.509989 0.053960197 -1.4575167
v -0.01457113 0 -2.611549
v 1.0345492 0 -2.611549
v 0.509989 0.22258583 -1.1952366
v 0.19525293 0.053960197 -1.4575167
v 0.82472515 0.053960197 -1.4575167
v 1.5299671 0.053960197 -1.4575167
v 1.0054069 0 -2.611549
v 2.0545273 0 -2.611549
v 1.5299671 0.22258583 -1.1952366
v 1.215231 0.053960197 -1.4575167
v 1.8447032 0.053960197 -1.4575167
vn -0.3492975 -0.82633334 -0.4417742
vn -0.3492975 -0.82633334 -0.4417742
vn -0.3492975 -0.82633334 -0.4417742
vn -0.013035834 0.73301965 -0.6800825
vn -0.013035834 0.73301965 -0.6800825
vn -0.013035834 0.73301965 -0.6800825
vn -0.060035303 0.1619253 -0.9849751
vn -0.060035303 0.1619253 -0.9849751
vn -0.060035303 0.1619253 -0.9849751
vn -0.005562945 0.714851 -0.69925475
vn -0.005562945 0.714851 -0.69925475
vn -0.005562945 0.714851 -0.69925475
vn 0 0.23066008 -0.9730344
vn 0 0.23066008 -0.9730344
vn 0 0.23066008 -0.9730344
vn 0 0.7104928 -0.7037044
vn 0 0.7104928 -0.7037044
vn 0 0.7104928 -0.7037044
vn 0.060035318 0.16192532 -0.9849751
vn 0.060035318 0.16192532 -0.9849751
vn 0.060035318 0.16192532 -0.9849751
vn 0.005562945 0.7148509 -0.69925463
vn 0.005562945 0.7148509 -0.69925463
vn 0.005562945 0.7148509 -0.69925463
vn 0.34929755 -0.82633346 -0.44177404
vn 0.34929755 -0.82633346 -0.44177404
vn 0.34929755 -0.82633346 -0.44177404
vn 0.013035829 0.73301965 -0.68008256
vn 0.013035829 0.73301965 -0.68008256
vn 0.013035829 0.73301965 -0.68008256
vn 0.081861906 -0.60171133 0.7945075
vn 0.081861906 -0.60171133 0.7945075
vn 0.081861906 -0.60171133 0.7945075
vn 0.02902865 0.80030733 -0.5988869
vn 0.02902865 0.80030733 -0.5988869
vn 0.02902865 0.80030733 -0.5988869
vn 0.028351635 -0.52218145 0.852363
vn 0.028351635 -0.52218145 0.852363
vn 0.028351635 -0.52218145 0.852363
vn 0.0937644 0.66478795 0.7411244
vn 0.0937644 0.66478795 0.7411244
vn 0.0937644 0.66478795 0.7411244
vn 7.609361E-09 -0.50700426 0.8619436
vn 7.609361E-09 -0.50700426 0.8619436
vn 7.609361E-09 -0.50700426 0.8619436
vn 4.389712E-09 -0.29248226 0.9562709
vn 4.389712E-09 -0.29248226 0.9562709
vn 4.389712E-09 -0.29248226 0.9562709
vn -0.02835166 -0.5221815 0.85236293
vn -0.02835166 -0.5221815 0.85236293
vn -0.02835166 -0.5221815 0.85236293
vn -0.09376448 0.6647905 0.74112195
vn -0.09376448 0.6647905 0.74112195
vn -0.09376448 0.6647905 0.74112195
vn -0.081861906 -0.60171133 0.79450744
vn -0.081861906 -0.60171133 0.79450744
vn -0.081861906 -0.60171133 0.79450744
vn -0.02902866 0.80030733 -0.59888685
vn -0.02902866 0.80030733 -0.59888685
vn -0.02902866 0.80030733 -0.59888685
vn -0.32232586 -0.870391 -0.37218988
vn -0.32232586 -0.870391 -0.37218988
vn -0.32232586 -0.870391 -0.37218988
vn 2.7586742E-08 -0.75997657 -0.6499505
vn 2.7586742E-08 -0.75997657 -0.6499505
vn 2.7586742E-08 -0.75997657 -0.6499505
vn 0.32232586 -0.8703911 -0.37218982
vn 0.32232586 -0.8703911 -0.37218982
vn 0.32232586 -0.8703911 -0.37218982
vn 0.32232583 -0.8703911 0.37218994
vn 0.32232583 -0.8703911 0.37218994
vn 0.32232583 -0.8703911 0.37218994
vn -1.1034696E-07 -0.7599765 0.6499506
vn -1.1034696E-07 -0.7599765 0.6499506
vn -1.1034696E-07 -0.7599765 0.6499506
vn -0.32232594 -0.8703912 0.3721898
vn -0.32232594 -0.8703912 0.3721898
vn -0.32232594 -0.8703912 0.3721898
vn -0.32232586 -0.870391 -0.37218988
vn -0.32232586 -0.870391 -0.37218988
vn -0.32232586 -0.870391 -0.37218988
vn 2.7586742E-08 -0.7599765 -0.6499505
vn 2.7586742E-08 -0.7599765 -0.6499505
vn 2.7586742E-08 -0.7599765 -0.6499505
vn 0.32232586 -0.870391 -0.37218982
vn 0.32232586 -0.870391 -0.37218982
vn 0.32232586 -0.870391 -0.37218982
vn 0.3223259 -0.8703911 0.37218994
vn 0.3223259 -0.8703911 0.37218994
vn 0.3223259 -0.8703911 0.37218994
vn -8.276021E-08 -0.75997645 0.6499505
vn -8.276021E-08 -0.75997645 0.6499505
vn -8.276021E-08 -0.75997645 0.6499505
vn -0.32232594 -0.87039113 0.3721897
vn -0.32232594 -0.87039113 0.3721897
vn -0.32232594 -0.87039113 0.3721897
vn -0.32232586 -0.87039113 -0.37218994
vn -0.32232586 -0.87039113 -0.37218994
vn -0.32232586 -0.87039113 -0.37218994
vn 5.5173484E-08 -0.7599765 -0.6499505
vn 5.5173484E-08 -0.7599765 -0.6499505
vn 5.5173484E-08 -0.7599765 -0.6499505
vn 0.32232592 -0.8703912 -0.37218982
vn 0.32232592 -0.8703912 -0.37218982
vn 0.32232592 -0.8703912 -0.37218982
vn 0.32232592 -0.8703912 0.37218997
vn 0.32232592 -0.8703912 0.37218997
vn 0.32232592 -0.8703912 0.37218997
vn -8.276021E-08 -0.75997645 0.6499505
vn -8.276021E-08 -0.75997645 0.6499505
vn -8.276021E-08 -0.75997645 0.6499505
vn -0.32232594 -0.8703912 0.37218982
vn -0.32232594 -0.8703912 0.37218982
vn -0.32232594 -0.8703912 0.37218982
vn 0 -0.7922206 0.6102348
vn 0 -0.7922206 0.6102348
vn 0 -0.7922206 0.6102348
vn 0.6237121 -0.69411 -0.35943654
vn 0.6237121 -0.69411 -0.35943654
vn 0.6237121 -0.69411 -0.35943654
vn 0 -0.9989087 0.046706937
vn 0 -0.9989087 0.046706937
vn 0 -0.9989087 0.046706937
vn 0 -0.8411537 0.5407961
vn 0 -0.8411537 0.5407961
vn 0 -0.8411537 0.5407961
vn 0 -0.9989086 0.046706934
vn 0 -0.9989086 0.046706934
vn 0 -0.9989086 0.046706934
vn 0 -0.8411537 0.5407961
vn 0 -0.8411537 0.5407961
vn 0 -0.8411537 0.5407961
vn 0 -0.9989086 0.046706934
vn 0 -0.9989086 0.046706934
vn 0 -0.9989086 0.046706934
vn 0 -0.8411537 0.5407961
vn 0 -0.8411537 0.5407961
vn 0 -0.8411537 0.5407961
vn 0 -0.9989087 0.046706937
vn 0 -0.9989087 0.046706937
vn 0 -0.9989087 0.046706937
vn 0 -0.8411537 0.5407961
vn 0 -0.8411537 0.5407961
vn 0 -0.8411537 0.5407961
f 1//1 2//2 3//3
f 4//4 5//5 6//6
f 7//7 8//8 9//9
f 10//10 11//11 12//12
f 13//13 14//14 15//15
f 16//16 17//17 18//18
f 19//19 20//20 21//21
f 22//22 23//23 24//24
f 25//25 26//26 27//27
f 28//28 29//29 30//30
f 31//31 32//32 33//33
f 34//34 35//35 36//36
f 37//37 38//38 39//39
f 40//40 41//41 42//42
f 43//43 44//44 45//45
f 46//46 47//47 48//48
f 49//49 50//50 51//51
f 52//52 53//53 54//54
f 55//55 56//56 57//57
f 58//58 59//59 60//60
f 61//61 62//62 63//63
f 64//64 65//65 66//66
f 67//67 68//68 69//69
f 70//70 71//71 72//72
f 73//73 74//74 75//75
f 76//76 77//77 78//78
f 79//79 80//80 81//81
f 82//82 83//83 84//84
f 85//85 86//86 87//87
f 88//88 89//89 90//90
f 91//91 92//92 93//93
f 94//94 95//95 96//96
f 97//97 98//98 99//99
f 100//100 101//101 102//102
f 103//103 104//104 105//105
f 106//106 107//107 108//108
f 109//109 110//110 111//111
f 112//112 113//113 114//114
f 115//115 116//116 117//117
f 118//118 119//119 120//120
f 121//121 122//122 123//123
f 124//124 125//125 126//126
f 127//127 128//128 129//129
f 130//130 131//131 132//132
f 133//133 134//134 135//135
f 136//136 137//137 138//138
f 139//139 140//140 141//141
f 142//142 143//143 144//144
