# Exported from SharpOpenGl procedural mesh
o carrier_command
# vertices 168
v 3.2453737 0.5643519 0.40030608
v 2.9239807 0.7112698 0.5653081
v 0 1.9187965 1.0007652
v 3.2453737 0.5643519 0.40030608
v 0 0.11287039 0
v 2.9239807 0.7112698 0.5653081
v 2.9239807 0.7112698 0.5653081
v 2.0234573 0.8290888 0.6976294
v 0 1.9187965 1.0007652
v 2.9239807 0.7112698 0.5653081
v 0 0.11287039 0
v 2.0234573 0.8290888 0.6976294
v 2.0234573 0.8290888 0.6976294
v 0.72216374 0.8944734 0.77106214
v 0 1.9187965 1.0007652
v 2.0234573 0.8290888 0.6976294
v 0 0.11287039 0
v 0.72216374 0.8944734 0.77106214
v 0.72216374 0.8944734 0.77106214
v -0.7221636 0.8944734 0.77106214
v 0 1.9187965 1.0007652
v 0.72216374 0.8944734 0.77106214
v 0 0.11287039 0
v -0.7221636 0.8944734 0.77106214
v -0.7221636 0.8944734 0.77106214
v -2.023458 0.82908875 0.69762933
v 0 1.9187965 1.0007652
v -0.7221636 0.8944734 0.77106214
v 0 0.11287039 0
v -2.023458 0.82908875 0.69762933
v -2.023458 0.82908875 0.69762933
v -2.9239807 0.71126986 0.5653081
v 0 1.9187965 1.0007652
v -2.023458 0.82908875 0.69762933
v 0 0.11287039 0
v -2.9239807 0.71126986 0.5653081
v -2.9239807 0.71126986 0.5653081
v -3.2453737 0.5643519 0.40030605
v 0 1.9187965 1.0007652
v -2.9239807 0.71126986 0.5653081
v 0 0.11287039 0
v -3.2453737 0.5643519 0.40030605
v -3.2453737 0.5643519 0.40030605
v -2.9239807 0.41743404 0.23530409
v 0 1.9187965 1.0007652
v -3.2453737 0.5643519 0.40030605
v 0 0.11287039 0
v -2.9239807 0.41743404 0.23530409
v -2.9239807 0.41743404 0.23530409
v -2.0234568 0.299615 0.10298273
v 0 1.9187965 1.0007652
v -2.9239807 0.41743404 0.23530409
v 0 0.11287039 0
v -2.0234568 0.299615 0.10298273
v -2.0234568 0.299615 0.10298273
v -0.7221623 0.2342304 0.029549956
v 0 1.9187965 1.0007652
v -2.0234568 0.299615 0.10298273
v 0 0.11287039 0
v -0.7221623 0.2342304 0.029549956
v -0.7221623 0.2342304 0.029549956
v 0.7221654 0.23423049 0.029550046
v 0 1.9187965 1.0007652
v -0.7221623 0.2342304 0.029549956
v 0 0.11287039 0
v 0.7221654 0.23423049 0.029550046
v 0.7221654 0.23423049 0.029550046
v 2.023457 0.299615 0.10298273
v 0 1.9187965 1.0007652
v 0.7221654 0.23423049 0.029550046
v 0 0.11287039 0
v 2.023457 0.299615 0.10298273
v 2.023457 0.299615 0.10298273
v 2.9239807 0.41743404 0.23530409
v 0 1.9187965 1.0007652
v 2.023457 0.299615 0.10298273
v 0 0.11287039 0
v 2.9239807 0.41743404 0.23530409
v 2.9239807 0.41743404 0.23530409
v 3.2453737 0.564352 0.40030614
v 0 1.9187965 1.0007652
v 2.9239807 0.41743404 0.23530409
v 0 0.11287039 0
v 3.2453737 0.564352 0.40030614
v -2.9362907 1.4221668 -0.6004591
v -1.5454161 0.79009265 -0.6004591
v -2.2408535 0.79009265 0.001807332
v -2.9362907 1.4221668 -0.6004591
v -2.2408535 0.79009265 0.001807332
v -3.6317282 0.79009265 0.0018072724
v -2.9362907 1.4221668 -0.6004591
v -3.6317282 0.79009265 0.0018072724
v -4.3271656 0.79009265 -0.60045916
v -2.9362907 1.4221668 -0.6004591
v -4.3271656 0.79009265 -0.60045916
v -3.631728 0.79009265 -1.2027255
v -2.9362907 1.4221668 -0.6004591
v -3.631728 0.79009265 -1.2027255
v -2.2408528 0.79009265 -1.2027254
v -2.9362907 1.4221668 -0.6004591
v -2.2408528 0.79009265 -1.2027254
v -1.5454161 0.79009265 -0.600459
v 0 1.4221668 0.30022967
v 1.3908746 0.79009265 0.30022967
v 0.69543725 0.79009265 0.9024961
v 0 1.4221668 0.30022967
v 0.69543725 0.79009265 0.9024961
v -0.6954374 0.79009265 0.90249604
v 0 1.4221668 0.30022967
v -0.6954374 0.79009265 0.90249604
v -1.3908746 0.79009265 0.3002296
v 0 1.4221668 0.30022967
v -1.3908746 0.79009265 0.3002296
v -0.6954372 0.79009265 -0.30203676
v 0 1.4221668 0.30022967
v -0.6954372 0.79009265 -0.30203676
v 0.6954378 0.79009265 -0.30203658
v 0 1.4221668 0.30022967
v 0.6954378 0.79009265 -0.30203658
v 1.3908746 0.79009265 0.3002298
v 2.9362907 1.4221668 1.2009184
v 4.3271656 0.79009265 1.2009184
v 3.631728 0.79009265 1.8031849
v 2.9362907 1.4221668 1.2009184
v 3.631728 0.79009265 1.8031849
v 2.2408533 0.79009265 1.8031847
v 2.9362907 1.4221668 1.2009184
v 2.2408533 0.79009265 1.8031847
v 1.5454161 0.79009265 1.2009183
v 2.9362907 1.4221668 1.2009184
v 1.5454161 0.79009265 1.2009183
v 2.2408535 0.79009265 0.598652
v 2.9362907 1.4221668 1.2009184
v 2.2408535 0.79009265 0.598652
v 3.6317286 0.79009265 0.5986522
v 2.9362907 1.4221668 1.2009184
v 3.6317286 0.79009265 0.5986522
v 4.3271656 0.79009265 1.2009186
v 0 1.2415743 2.7521045
v -1.6999577 0.45148155 1.7513391
v 1.6999577 0.45148155 1.7513391
v 0 1.2415743 2.7521045
v 0 0.79009265 3.602755
v -0.92724967 0.5643519 2.1016068
v -3.0908325 0.1337723 -3.525423
v -4.3271656 0 -6.2453556
v -1.8544995 0 -6.2453556
v -3.0908325 0.55181074 -2.9072566
v -3.8326323 0.1337723 -3.525423
v -2.3490326 0.1337723 -3.525423
v -1.0302775 0.1337723 -3.525423
v -2.2666106 0 -6.2453556
v 0.20605552 0 -6.2453556
v -1.0302775 0.55181074 -2.9072566
v -1.7720773 0.1337723 -3.525423
v -0.28847766 0.1337723 -3.525423
v 1.0302775 0.1337723 -3.525423
v -0.20605552 0 -6.2453556
v 2.2666106 0 -6.2453556
v 1.0302775 0.55181074 -2.9072566
v 0.28847766 0.1337723 -3.525423
v 1.7720773 0.1337723 -3.525423
v 3.0908325 0.1337723 -3.525423
v 1.8544995 0 -6.2453556
v 4.3271656 0 -6.2453556
v 3.0908325 0.55181074 -2.9072566
v 2.3490326 0.1337723 -3.525423
v 3.8326323 0.1337723 -3.525423
vn -0.36501327 -0.9242446 0.11197035
vn -0.36501327 -0.9242446 0.11197035
vn -0.36501327 -0.9242446 0.11197035
vn -0.017234256 0.72983074 -0.6834107
vn -0.017234256 0.72983074 -0.6834107
vn -0.017234256 0.72983074 -0.6834107
vn -0.14448074 0.006971736 -0.9894831
vn -0.14448074 0.006971736 -0.9894831
vn -0.14448074 0.006971736 -0.9894831
vn -0.009995301 0.7120625 -0.7020449
vn -0.009995301 0.7120625 -0.7020449
vn -0.009995301 0.7120625 -0.7020449
vn -0.04593968 0.18763644 -0.9811637
vn -0.04593968 0.18763644 -0.9811637
vn -0.04593968 0.18763644 -0.9811637
vn -0.004654356 0.7044586 -0.7097298
vn -0.004654356 0.7044586 -0.7097298
vn -0.004654356 0.7044586 -0.7097298
vn 0 0.2188143 -0.97576654
vn 0 0.2188143 -0.97576654
vn 0 0.2188143 -0.97576654
vn 0 0.7022901 -0.71189076
vn 0 0.7022901 -0.71189076
vn 0 0.7022901 -0.71189076
vn 0.045939695 0.18763644 -0.9811637
vn 0.045939695 0.18763644 -0.9811637
vn 0.045939695 0.18763644 -0.9811637
vn 0.0046543535 0.7044586 -0.70972985
vn 0.0046543535 0.7044586 -0.70972985
vn 0.0046543535 0.7044586 -0.70972985
vn 0.1444808 0.006971581 -0.98948306
vn 0.1444808 0.006971581 -0.98948306
vn 0.1444808 0.006971581 -0.98948306
vn 0.0099953385 0.71206254 -0.70204496
vn 0.0099953385 0.71206254 -0.70204496
vn 0.0099953385 0.71206254 -0.70204496
vn 0.36501312 -0.92424446 0.11197087
vn 0.36501312 -0.92424446 0.11197087
vn 0.36501312 -0.92424446 0.11197087
vn 0.017234245 0.7298306 -0.6834108
vn 0.017234245 0.7298306 -0.6834108
vn 0.017234245 0.7298306 -0.6834108
vn 0.11510907 -0.61991274 0.7761818
vn 0.11510907 -0.61991274 0.7761818
vn 0.11510907 -0.61991274 0.7761818
vn 0.029863983 0.7746997 -0.63162374
vn 0.029863983 0.7746997 -0.63162374
vn 0.029863983 0.7746997 -0.63162374
vn 0.05391451 -0.53489894 0.84319407
vn 0.05391451 -0.53489894 0.84319407
vn 0.05391451 -0.53489894 0.84319407
vn 0.06654688 0.9259974 -0.37161857
vn 0.06654688 0.9259974 -0.37161857
vn 0.06654688 0.9259974 -0.37161857
vn 0.023166839 -0.506773 0.8617682
vn 0.023166839 -0.506773 0.8617682
vn 0.023166839 -0.506773 0.8617682
vn 0.06238531 0.1302926 0.98951095
vn 0.06238531 0.1302926 0.98951095
vn 0.06238531 0.1302926 0.98951095
vn -2.2709324E-08 -0.49947163 0.8663302
vn -2.2709324E-08 -0.49947163 0.8663302
vn -2.2709324E-08 -0.49947163 0.8663302
vn -4.5500187E-08 -0.23657823 0.9716124
vn -4.5500187E-08 -0.23657823 0.9716124
vn -4.5500187E-08 -0.23657823 0.9716124
vn -0.023166865 -0.50677305 0.8617682
vn -0.023166865 -0.50677305 0.8617682
vn -0.023166865 -0.50677305 0.8617682
vn -0.062385432 0.13029419 0.9895107
vn -0.062385432 0.13029419 0.9895107
vn -0.062385432 0.13029419 0.9895107
vn -0.053914517 -0.53489906 0.8431941
vn -0.053914517 -0.53489906 0.8431941
vn -0.053914517 -0.53489906 0.8431941
vn -0.06654684 0.9259974 -0.37161884
vn -0.06654684 0.9259974 -0.37161884
vn -0.06654684 0.9259974 -0.37161884
vn -0.115109146 -0.61991274 0.77618176
vn -0.115109146 -0.61991274 0.77618176
vn -0.115109146 -0.61991274 0.77618176
vn -0.029863989 0.7746997 -0.63162374
vn -0.029863989 0.7746997 -0.63162374
vn -0.029863989 0.7746997 -0.63162374
vn -0.37331364 -0.82147396 -0.43106547
vn -0.37331364 -0.82147396 -0.43106547
vn -0.37331364 -0.82147396 -0.43106547
vn 2.4542315E-08 -0.68982995 -0.7239715
vn 2.4542315E-08 -0.68982995 -0.7239715
vn 2.4542315E-08 -0.68982995 -0.7239715
vn 0.37331358 -0.82147396 -0.43106544
vn 0.37331358 -0.82147396 -0.43106544
vn 0.37331358 -0.82147396 -0.43106544
vn 0.37331355 -0.8214739 0.4310656
vn 0.37331355 -0.8214739 0.4310656
vn 0.37331355 -0.8214739 0.4310656
vn -4.9084615E-08 -0.68982995 0.7239715
vn -4.9084615E-08 -0.68982995 0.7239715
vn -4.9084615E-08 -0.68982995 0.7239715
vn -0.37331375 -0.8214741 0.43106514
vn -0.37331375 -0.8214741 0.43106514
vn -0.37331375 -0.8214741 0.43106514
vn -0.37331364 -0.82147396 -0.43106544
vn -0.37331364 -0.82147396 -0.43106544
vn -0.37331364 -0.82147396 -0.43106544
vn 2.4542315E-08 -0.68982995 -0.7239715
vn 2.4542315E-08 -0.68982995 -0.7239715
vn 2.4542315E-08 -0.68982995 -0.7239715
vn 0.37331367 -0.821474 -0.4310654
vn 0.37331367 -0.821474 -0.4310654
vn 0.37331367 -0.821474 -0.4310654
vn 0.37331364 -0.821474 0.43106553
vn 0.37331364 -0.821474 0.43106553
vn 0.37331364 -0.821474 0.43106553
vn -7.362692E-08 -0.6898298 0.7239715
vn -7.362692E-08 -0.6898298 0.7239715
vn -7.362692E-08 -0.6898298 0.7239715
vn -0.37331375 -0.821474 0.43106523
vn -0.37331375 -0.821474 0.43106523
vn -0.37331375 -0.821474 0.43106523
vn -0.37331358 -0.82147396 -0.4310656
vn -0.37331358 -0.82147396 -0.4310656
vn -0.37331358 -0.82147396 -0.4310656
vn 4.908463E-08 -0.6898299 -0.7239715
vn 4.908463E-08 -0.6898299 -0.7239715
vn 4.908463E-08 -0.6898299 -0.7239715
vn 0.3733137 -0.82147396 -0.43106538
vn 0.3733137 -0.82147396 -0.43106538
vn 0.3733137 -0.82147396 -0.43106538
vn 0.37331358 -0.821474 0.43106553
vn 0.37331358 -0.821474 0.43106553
vn 0.37331358 -0.821474 0.43106553
vn -7.362692E-08 -0.6898299 0.7239715
vn -7.362692E-08 -0.6898299 0.7239715
vn -7.362692E-08 -0.6898299 0.7239715
vn -0.37331372 -0.82147413 0.43106532
vn -0.37331372 -0.82147413 0.43106532
vn -0.37331372 -0.82147413 0.43106532
vn 0 -0.7848771 0.6196514
vn 0 -0.7848771 0.6196514
vn 0 -0.7848771 0.6196514
vn 0.6977362 -0.63275564 -0.3358342
vn 0.6977362 -0.63275564 -0.3358342
vn 0.6977362 -0.63275564 -0.3358342
vn 0 -0.9987927 0.049122836
vn 0 -0.9987927 0.049122836
vn 0 -0.9987927 0.049122836
vn 0 -0.82836616 0.5601871
vn 0 -0.82836616 0.5601871
vn 0 -0.82836616 0.5601871
vn 0 -0.9987927 0.049122836
vn 0 -0.9987927 0.049122836
vn 0 -0.9987927 0.049122836
vn 0 -0.82836616 0.5601871
vn 0 -0.82836616 0.5601871
vn 0 -0.82836616 0.5601871
vn 0 -0.9987927 0.049122836
vn 0 -0.9987927 0.049122836
vn 0 -0.9987927 0.049122836
vn 0 -0.82836616 0.5601871
vn 0 -0.82836616 0.5601871
vn 0 -0.82836616 0.5601871
vn 0 -0.9987927 0.049122836
vn 0 -0.9987927 0.049122836
vn 0 -0.9987927 0.049122836
vn 0 -0.82836616 0.5601871
vn 0 -0.82836616 0.5601871
vn 0 -0.82836616 0.5601871
f 1//1 2//2 3//3
f 4//4 5//5 6//6
f 7//7 8//8 9//9
f 10//10 11//11 12//12
f 13//13 14//14 15//15
f 16//16 17//17 18//18
f 19//19 20//20 21//21
f 22//22 23//23 24//24
f 25//25 26//26 27//27
f 28//28 29//29 30//30
f 31//31 32//32 33//33
f 34//34 35//35 36//36
f 37//37 38//38 39//39
f 40//40 41//41 42//42
f 43//43 44//44 45//45
f 46//46 47//47 48//48
f 49//49 50//50 51//51
f 52//52 53//53 54//54
f 55//55 56//56 57//57
f 58//58 59//59 60//60
f 61//61 62//62 63//63
f 64//64 65//65 66//66
f 67//67 68//68 69//69
f 70//70 71//71 72//72
f 73//73 74//74 75//75
f 76//76 77//77 78//78
f 79//79 80//80 81//81
f 82//82 83//83 84//84
f 85//85 86//86 87//87
f 88//88 89//89 90//90
f 91//91 92//92 93//93
f 94//94 95//95 96//96
f 97//97 98//98 99//99
f 100//100 101//101 102//102
f 103//103 104//104 105//105
f 106//106 107//107 108//108
f 109//109 110//110 111//111
f 112//112 113//113 114//114
f 115//115 116//116 117//117
f 118//118 119//119 120//120
f 121//121 122//122 123//123
f 124//124 125//125 126//126
f 127//127 128//128 129//129
f 130//130 131//131 132//132
f 133//133 134//134 135//135
f 136//136 137//137 138//138
f 139//139 140//140 141//141
f 142//142 143//143 144//144
f 145//145 146//146 147//147
f 148//148 149//149 150//150
f 151//151 152//152 153//153
f 154//154 155//155 156//156
f 157//157 158//158 159//159
f 160//160 161//161 162//162
f 163//163 164//164 165//165
f 166//166 167//167 168//168
