# Exported from SharpOpenGl procedural mesh
o corvette_fast
# vertices 138
v 1.2820451 0.21579002 0.22231418
v 1.0371963 0.29189295 0.34645352
v 0 0.7336861 0.5557854
v 1.2820451 0.21579002 0.22231418
v 0 0.043158006 0
v 1.0371963 0.29189295 0.34645352
v 1.0371963 0.29189295 0.34645352
v 0.39617372 0.33892712 0.42317587
v 0 0.7336861 0.5557854
v 1.0371963 0.29189295 0.34645352
v 0 0.043158006 0
v 0.39617372 0.33892712 0.42317587
v 0.39617372 0.33892712 0.42317587
v -0.39617378 0.33892712 0.42317587
v 0 0.7336861 0.5557854
v 0.39617372 0.33892712 0.42317587
v 0 0.043158006 0
v -0.39617378 0.33892712 0.42317587
v -0.39617378 0.33892712 0.42317587
v -1.0371964 0.29189295 0.34645352
v 0 0.7336861 0.5557854
v -0.39617378 0.33892712 0.42317587
v 0 0.043158006 0
v -1.0371964 0.29189295 0.34645352
v -1.0371964 0.29189295 0.34645352
v -1.2820451 0.21579 0.22231416
v 0 0.7336861 0.5557854
v -1.0371964 0.29189295 0.34645352
v 0 0.043158006 0
v -1.2820451 0.21579 0.22231416
v -1.2820451 0.21579 0.22231416
v -1.0371963 0.13968709 0.09817481
v 0 0.7336861 0.5557854
v -1.2820451 0.21579 0.22231416
v 0 0.043158006 0
v -1.0371963 0.13968709 0.09817481
v -1.0371963 0.13968709 0.09817481
v -0.3961733 0.0926529 0.021452487
v 0 0.7336861 0.5557854
v -1.0371963 0.13968709 0.09817481
v 0 0.043158006 0
v -0.3961733 0.0926529 0.021452487
v -0.3961733 0.0926529 0.021452487
v 0.3961739 0.09265292 0.021452501
v 0 0.7336861 0.5557854
v -0.3961733 0.0926529 0.021452487
v 0 0.043158006 0
v 0.3961739 0.09265292 0.021452501
v 0.3961739 0.09265292 0.021452501
v 1.0371963 0.13968709 0.09817482
v 0 0.7336861 0.5557854
v 0.3961739 0.09265292 0.021452501
v 0 0.043158006 0
v 1.0371963 0.13968709 0.09817482
v 1.0371963 0.13968709 0.09817482
v 1.2820451 0.21579005 0.22231421
v 0 0.7336861 0.5557854
v 1.0371963 0.13968709 0.09817482
v 0 0.043158006 0
v 1.2820451 0.21579005 0.22231421
v -1.1599456 0.5437908 -0.33347127
v -0.61049765 0.30210602 -0.33347127
v -0.88522166 0.30210602 -0.09555331
v -1.1599456 0.5437908 -0.33347127
v -0.88522166 0.30210602 -0.09555331
v -1.4346696 0.30210602 -0.09555332
v -1.1599456 0.5437908 -0.33347127
v -1.4346696 0.30210602 -0.09555332
v -1.7093935 0.30210602 -0.3334713
v -1.1599456 0.5437908 -0.33347127
v -1.7093935 0.30210602 -0.3334713
v -1.4346695 0.30210602 -0.5713892
v -1.1599456 0.5437908 -0.33347127
v -1.4346695 0.30210602 -0.5713892
v -0.8852214 0.30210602 -0.57138914
v -1.1599456 0.5437908 -0.33347127
v -0.8852214 0.30210602 -0.57138914
v -0.61049765 0.30210602 -0.3334712
v 0 0.5437908 0.16673568
v 0.54944795 0.30210602 0.16673568
v 0.27472395 0.30210602 0.40465364
v 0 0.5437908 0.16673568
v 0.27472395 0.30210602 0.40465364
v -0.274724 0.30210602 0.4046536
v 0 0.5437908 0.16673568
v -0.274724 0.30210602 0.4046536
v -0.54944795 0.30210602 0.16673565
v 0 0.5437908 0.16673568
v -0.54944795 0.30210602 0.16673565
v -0.27472392 0.30210602 -0.07118228
v 0 0.5437908 0.16673568
v -0.27472392 0.30210602 -0.07118228
v 0.2747242 0.30210602 -0.071182206
v 0 0.5437908 0.16673568
v 0.2747242 0.30210602 -0.071182206
v 0.54944795 0.30210602 0.16673572
v 1.1599456 0.5437908 0.6669426
v 1.7093935 0.30210602 0.6669426
v 1.4346695 0.30210602 0.90486056
v 1.1599456 0.5437908 0.6669426
v 1.4346695 0.30210602 0.90486056
v 0.8852216 0.30210602 0.90486056
v 1.1599456 0.5437908 0.6669426
v 0.8852216 0.30210602 0.90486056
v 0.61049765 0.30210602 0.6669426
v 1.1599456 0.5437908 0.6669426
v 0.61049765 0.30210602 0.6669426
v 0.8852217 0.30210602 0.42902464
v 1.1599456 0.5437908 0.6669426
v 0.8852217 0.30210602 0.42902464
v 1.4346697 0.30210602 0.4290247
v 1.1599456 0.5437908 0.6669426
v 1.4346697 0.30210602 0.4290247
v 1.7093935 0.30210602 0.66694266
v 0 0.47473806 1.5284101
v -0.6715475 0.17263202 0.97262454
v 0.6715475 0.17263202 0.97262454
v 0 0.47473806 1.5284101
v 0 0.30210602 2.0008278
v -0.36629862 0.21579002 1.1671494
v -1.0174962 0.051150225 -1.9578806
v -1.3663521 0 -2.7253635
v -0.6686404 0 -2.7253635
v -1.0174962 0.21099469 -1.7834527
v -1.2268097 0.051150225 -1.9578806
v -0.8081827 0.051150225 -1.9578806
v 0 0.051150225 -1.9578806
v -0.34885585 0 -2.7253635
v 0.34885585 0 -2.7253635
v 0 0.21099469 -1.7834527
v -0.20931353 0.051150225 -1.9578806
v 0.20931353 0.051150225 -1.9578806
v 1.0174962 0.051150225 -1.9578806
v 0.6686404 0 -2.7253635
v 1.3663521 0 -2.7253635
v 1.0174962 0.21099469 -1.7834527
v 0.8081827 0.051150225 -1.9578806
v 1.2268097 0.051150225 -1.9578806
vn -0.42519173 -0.8468423 -0.31948403
vn -0.42519173 -0.8468423 -0.31948403
vn -0.42519173 -0.8468423 -0.31948403
vn -0.017669944 0.8365087 -0.54766864
vn -0.017669944 0.8365087 -0.54766864
vn -0.017669944 0.8365087 -0.54766864
vn -0.099423416 0.22576396 -0.96909523
vn -0.099423416 0.22576396 -0.96909523
vn -0.099423416 0.22576396 -0.96909523
vn -0.0076068765 0.822951 -0.56806135
vn -0.0076068765 0.822951 -0.56806135
vn -0.0076068765 0.822951 -0.56806135
vn 0 0.3184383 -0.9479436
vn 0 0.3184383 -0.9479436
vn 0 0.3184383 -0.9479436
vn 0 0.8196448 -0.57287204
vn 0 0.8196448 -0.57287204
vn 0 0.8196448 -0.57287204
vn 0.09942339 0.22576392 -0.96909523
vn 0.09942339 0.22576392 -0.96909523
vn 0.09942339 0.22576392 -0.96909523
vn 0.007606881 0.822951 -0.5680614
vn 0.007606881 0.822951 -0.5680614
vn 0.007606881 0.822951 -0.5680614
vn 0.42519164 -0.84684277 -0.3194831
vn 0.42519164 -0.84684277 -0.3194831
vn 0.42519164 -0.84684277 -0.3194831
vn 0.017669944 0.83650863 -0.54766864
vn 0.017669944 0.83650863 -0.54766864
vn 0.017669944 0.83650863 -0.54766864
vn 0.11741112 -0.7265633 0.67699367
vn 0.11741112 -0.7265633 0.67699367
vn 0.11741112 -0.7265633 0.67699367
vn 0.038070314 0.883638 -0.46662033
vn 0.038070314 0.883638 -0.46662033
vn 0.038070314 0.883638 -0.46662033
vn 0.042240623 -0.65498537 0.75445986
vn 0.042240623 -0.65498537 0.75445986
vn 0.042240623 -0.65498537 0.75445986
vn 0.13054337 0.7792163 0.6130092
vn 0.13054337 0.7792163 0.6130092
vn 0.13054337 0.7792163 0.6130092
vn -2.4045268E-09 -0.6402824 0.7681396
vn -2.4045268E-09 -0.6402824 0.7681396
vn -2.4045268E-09 -0.6402824 0.7681396
vn -9.776351E-09 -0.39768085 0.91752386
vn -9.776351E-09 -0.39768085 0.91752386
vn -9.776351E-09 -0.39768085 0.91752386
vn -0.04224066 -0.6549854 0.75445986
vn -0.04224066 -0.6549854 0.75445986
vn -0.04224066 -0.6549854 0.75445986
vn -0.13054332 0.77921796 0.6130071
vn -0.13054332 0.77921796 0.6130071
vn -0.13054332 0.77921796 0.6130071
vn -0.117411114 -0.7265633 0.6769937
vn -0.117411114 -0.7265633 0.6769937
vn -0.117411114 -0.7265633 0.6769937
vn -0.03807029 0.88363785 -0.46662048
vn -0.03807029 0.88363785 -0.46662048
vn -0.03807029 0.88363785 -0.46662048
vn -0.36510664 -0.8300361 -0.42158887
vn -0.36510664 -0.8300361 -0.42158887
vn -0.36510664 -0.8300361 -0.42158887
vn 1.9991873E-08 -0.70153147 -0.71263844
vn 1.9991873E-08 -0.70153147 -0.71263844
vn 1.9991873E-08 -0.70153147 -0.71263844
vn 0.3651067 -0.83003616 -0.42158872
vn 0.3651067 -0.83003616 -0.42158872
vn 0.3651067 -0.83003616 -0.42158872
vn 0.36510667 -0.83003604 0.421589
vn 0.36510667 -0.83003604 0.421589
vn 0.36510667 -0.83003604 0.421589
vn -7.9967485E-08 -0.7015314 0.71263856
vn -7.9967485E-08 -0.7015314 0.71263856
vn -7.9967485E-08 -0.7015314 0.71263856
vn -0.36510673 -0.8300362 0.42158866
vn -0.36510673 -0.8300362 0.42158866
vn -0.36510673 -0.8300362 0.42158866
vn -0.36510664 -0.8300361 -0.42158887
vn -0.36510664 -0.8300361 -0.42158887
vn -0.36510664 -0.8300361 -0.42158887
vn 3.9983746E-08 -0.70153147 -0.71263844
vn 3.9983746E-08 -0.70153147 -0.71263844
vn 3.9983746E-08 -0.70153147 -0.71263844
vn 0.36510667 -0.83003616 -0.4215888
vn 0.36510667 -0.83003616 -0.4215888
vn 0.36510667 -0.83003616 -0.4215888
vn 0.3651066 -0.83003604 0.42158896
vn 0.3651066 -0.83003604 0.42158896
vn 0.3651066 -0.83003604 0.42158896
vn -9.995936E-08 -0.70153147 0.71263856
vn -9.995936E-08 -0.70153147 0.71263856
vn -9.995936E-08 -0.70153147 0.71263856
vn -0.36510673 -0.8300362 0.42158866
vn -0.36510673 -0.8300362 0.42158866
vn -0.36510673 -0.8300362 0.42158866
vn -0.36510667 -0.83003604 -0.4215889
vn -0.36510667 -0.83003604 -0.4215889
vn -0.36510667 -0.83003604 -0.4215889
vn 0 -0.7015315 -0.7126385
vn 0 -0.7015315 -0.7126385
vn 0 -0.7015315 -0.7126385
vn 0.36510667 -0.83003616 -0.4215888
vn 0.36510667 -0.83003616 -0.4215888
vn 0.36510667 -0.83003616 -0.4215888
vn 0.36510664 -0.8300361 0.42158896
vn 0.36510664 -0.8300361 0.42158896
vn 0.36510664 -0.8300361 0.42158896
vn -7.9967485E-08 -0.7015314 0.7126385
vn -7.9967485E-08 -0.7015314 0.7126385
vn -7.9967485E-08 -0.7015314 0.7126385
vn -0.36510676 -0.83003616 0.42158863
vn -0.36510676 -0.83003616 0.42158863
vn -0.36510676 -0.83003616 0.42158863
vn 0 -0.8785922 0.4775727
vn 0 -0.8785922 0.4775727
vn 0 -0.8785922 0.4775727
vn 0.70798606 -0.6633256 -0.24239407
vn 0.70798606 -0.6633256 -0.24239407
vn 0.70798606 -0.6633256 -0.24239407
vn 0 -0.99778646 0.0664992
vn 0 -0.99778646 0.0664992
vn 0 -0.99778646 0.0664992
vn 0 -0.7372547 0.6756149
vn 0 -0.7372547 0.6756149
vn 0 -0.7372547 0.6756149
vn 0 -0.99778646 0.0664992
vn 0 -0.99778646 0.0664992
vn 0 -0.99778646 0.0664992
vn 0 -0.7372547 0.6756149
vn 0 -0.7372547 0.6756149
vn 0 -0.7372547 0.6756149
vn 0 -0.99778646 0.0664992
vn 0 -0.99778646 0.0664992
vn 0 -0.99778646 0.0664992
vn 0 -0.7372547 0.6756149
vn 0 -0.7372547 0.6756149
vn 0 -0.7372547 0.6756149
f 1//1 2//2 3//3
f 4//4 5//5 6//6
f 7//7 8//8 9//9
f 10//10 11//11 12//12
f 13//13 14//14 15//15
f 16//16 17//17 18//18
f 19//19 20//20 21//21
f 22//22 23//23 24//24
f 25//25 26//26 27//27
f 28//28 29//29 30//30
f 31//31 32//32 33//33
f 34//34 35//35 36//36
f 37//37 38//38 39//39
f 40//40 41//41 42//42
f 43//43 44//44 45//45
f 46//46 47//47 48//48
f 49//49 50//50 51//51
f 52//52 53//53 54//54
f 55//55 56//56 57//57
f 58//58 59//59 60//60
f 61//61 62//62 63//63
f 64//64 65//65 66//66
f 67//67 68//68 69//69
f 70//70 71//71 72//72
f 73//73 74//74 75//75
f 76//76 77//77 78//78
f 79//79 80//80 81//81
f 82//82 83//83 84//84
f 85//85 86//86 87//87
f 88//88 89//89 90//90
f 91//91 92//92 93//93
f 94//94 95//95 96//96
f 97//97 98//98 99//99
f 100//100 101//101 102//102
f 103//103 104//104 105//105
f 106//106 107//107 108//108
f 109//109 110//110 111//111
f 112//112 113//113 114//114
f 115//115 116//116 117//117
f 118//118 119//119 120//120
f 121//121 122//122 123//123
f 124//124 125//125 126//126
f 127//127 128//128 129//129
f 130//130 131//131 132//132
f 133//133 134//134 135//135
f 136//136 137//137 138//138
