# Exported from SharpOpenGl procedural mesh
o cruiser_heavy
# vertices 144
v 2.375612 0.5344949 0.40397102
v 1.9219105 0.7229958 0.6295468
v 0 1.8172827 1.0099275
v 2.375612 0.5344949 0.40397102
v 0 0.10689898 0
v 1.9219105 0.7229958 0.6295468
v 1.9219105 0.7229958 0.6295468
v 0.73410445 0.8394958 0.76896036
v 0 1.8172827 1.0099275
v 1.9219105 0.7229958 0.6295468
v 0 0.10689898 0
v 0.73410445 0.8394958 0.76896036
v 0.73410445 0.8394958 0.76896036
v -0.7341046 0.8394958 0.76896036
v 0 1.8172827 1.0099275
v 0.73410445 0.8394958 0.76896036
v 0 0.10689898 0
v -0.7341046 0.8394958 0.76896036
v -0.7341046 0.8394958 0.76896036
v -1.9219106 0.72299576 0.6295468
v 0 1.8172827 1.0099275
v -0.7341046 0.8394958 0.76896036
v 0 0.10689898 0
v -1.9219106 0.72299576 0.6295468
v -1.9219106 0.72299576 0.6295468
v -2.375612 0.5344949 0.403971
v 0 1.8172827 1.0099275
v -1.9219106 0.72299576 0.6295468
v 0 0.10689898 0
v -2.375612 0.5344949 0.403971
v -2.375612 0.5344949 0.403971
v -1.9219104 0.3459939 0.17839518
v 0 1.8172827 1.0099275
v -2.375612 0.5344949 0.403971
v 0 0.10689898 0
v -1.9219104 0.3459939 0.17839518
v -1.9219104 0.3459939 0.17839518
v -0.7341037 0.22949395 0.038981676
v 0 1.8172827 1.0099275
v -1.9219104 0.3459939 0.17839518
v 0 0.10689898 0
v -0.7341037 0.22949395 0.038981676
v -0.7341037 0.22949395 0.038981676
v 0.7341048 0.22949398 0.038981706
v 0 1.8172827 1.0099275
v -0.7341037 0.22949395 0.038981676
v 0 0.10689898 0
v 0.7341048 0.22949398 0.038981706
v 0.7341048 0.22949398 0.038981706
v 1.9219104 0.34599394 0.17839518
v 0 1.8172827 1.0099275
v 0.7341048 0.22949398 0.038981706
v 0 0.10689898 0
v 1.9219104 0.34599394 0.17839518
v 1.9219104 0.34599394 0.17839518
v 2.375612 0.53449494 0.40397108
v 0 1.8172827 1.0099275
v 1.9219104 0.34599394 0.17839518
v 0 0.10689898 0
v 2.375612 0.53449494 0.40397108
v -2.1493633 1.346927 -0.6059565
v -1.1312438 0.7482928 -0.6059565
v -1.6403036 0.7482928 -0.1650978
v -2.1493633 1.346927 -0.6059565
v -1.6403036 0.7482928 -0.1650978
v -2.658423 0.7482928 -0.16509783
v -2.1493633 1.346927 -0.6059565
v -2.658423 0.7482928 -0.16509783
v -3.1674829 0.7482928 -0.60595655
v -2.1493633 1.346927 -0.6059565
v -3.1674829 0.7482928 -0.60595655
v -2.658423 0.7482928 -1.0468152
v -2.1493633 1.346927 -0.6059565
v -2.658423 0.7482928 -1.0468152
v -1.6403031 0.7482928 -1.046815
v -2.1493633 1.346927 -0.6059565
v -1.6403031 0.7482928 -1.046815
v -1.1312438 0.7482928 -0.60595644
v 0 1.346927 0.30297834
v 1.0181195 0.7482928 0.30297834
v 0.50905967 0.7482928 0.743837
v 0 1.346927 0.30297834
v 0.50905967 0.7482928 0.743837
v -0.5090598 0.7482928 0.743837
v 0 1.346927 0.30297834
v -0.5090598 0.7482928 0.743837
v -1.0181195 0.7482928 0.3029783
v 0 1.346927 0.30297834
v -1.0181195 0.7482928 0.3029783
v -0.5090596 0.7482928 -0.13788036
v 0 1.346927 0.30297834
v -0.5090596 0.7482928 -0.13788036
v 0.5090601 0.7482928 -0.1378802
v 0 1.346927 0.30297834
v 0.5090601 0.7482928 -0.1378802
v 1.0181195 0.7482928 0.30297843
v 2.1493633 1.346927 1.2119131
v 3.1674829 0.7482928 1.2119131
v 2.658423 0.7482928 1.6527718
v 2.1493633 1.346927 1.2119131
v 2.658423 0.7482928 1.6527718
v 1.6403035 0.7482928 1.6527717
v 2.1493633 1.346927 1.2119131
v 1.6403035 0.7482928 1.6527717
v 1.1312438 0.7482928 1.2119131
v 2.1493633 1.346927 1.2119131
v 1.1312438 0.7482928 1.2119131
v 1.6403036 0.7482928 0.7710544
v 2.1493633 1.346927 1.2119131
v 1.6403036 0.7482928 0.7710544
v 2.6584234 0.7482928 0.77105457
v 2.1493633 1.346927 1.2119131
v 2.6584234 0.7482928 0.77105457
v 3.1674829 0.7482928 1.2119132
v 0 1.1758888 2.7773008
v -1.2443682 0.4275959 1.7673732
v 1.2443682 0.4275959 1.7673732
v 0 1.1758888 2.7773008
v 0 0.7482928 3.6357393
v -0.6787463 0.5344949 2.1208477
v -2.2624876 0.12669508 -3.5576994
v -3.1351614 0 -5.477582
v -1.3898138 0 -5.477582
v -2.2624876 0.5226172 -3.1213624
v -2.786092 0.12669508 -3.5576994
v -1.7388833 0.12669508 -3.5576994
v -0.7541626 0.12669508 -3.5576994
v -1.6268365 0 -5.477582
v 0.11851126 0 -5.477582
v -0.7541626 0.5226172 -3.1213624
v -1.277767 0.12669508 -3.5576994
v -0.23055828 0.12669508 -3.5576994
v 0.7541626 0.12669508 -3.5576994
v -0.11851126 0 -5.477582
v 1.6268365 0 -5.477582
v 0.7541626 0.5226172 -3.1213624
v 0.23055828 0.12669508 -3.5576994
v 1.277767 0.12669508 -3.5576994
v 2.2624876 0.12669508 -3.5576994
v 1.3898138 0 -5.477582
v 3.1351614 0 -5.477582
v 2.2624876 0.5226172 -3.1213624
v 1.7388833 0.12669508 -3.5576994
v 2.786092 0.12669508 -3.5576994
vn -0.5125103 -0.76362526 -0.3926955
vn -0.5125103 -0.76362526 -0.3926955
vn -0.5125103 -0.76362526 -0.3926955
vn -0.021062134 0.7459286 -0.66569275
vn -0.021062134 0.7459286 -0.66569275
vn -0.021062134 0.7459286 -0.66569275
vn -0.098686084 0.1676417 -0.98089623
vn -0.098686084 0.1676417 -0.98089623
vn -0.098686084 0.1676417 -0.98089623
vn -0.00899832 0.7282655 -0.685236
vn -0.00899832 0.7282655 -0.685236
vn -0.00899832 0.7282655 -0.685236
vn 0 0.23928228 -0.97095007
vn 0 0.23928228 -0.97095007
vn 0 0.23928228 -0.97095007
vn 0 0.7240187 -0.68978035
vn 0 0.7240187 -0.68978035
vn 0 0.7240187 -0.68978035
vn 0.09868609 0.16764168 -0.9808961
vn 0.09868609 0.16764168 -0.9808961
vn 0.09868609 0.16764168 -0.9808961
vn 0.008998293 0.7282656 -0.685236
vn 0.008998293 0.7282656 -0.685236
vn 0.008998293 0.7282656 -0.685236
vn 0.51251024 -0.7636253 -0.39269522
vn 0.51251024 -0.7636253 -0.39269522
vn 0.51251024 -0.7636253 -0.39269522
vn 0.021062182 0.7459287 -0.6656926
vn 0.021062182 0.7459287 -0.6656926
vn 0.021062182 0.7459287 -0.6656926
vn 0.13244894 -0.61315864 0.7787772
vn 0.13244894 -0.61315864 0.7787772
vn 0.13244894 -0.61315864 0.7787772
vn 0.046690013 0.8107218 -0.58356667
vn 0.046690013 0.8107218 -0.58356667
vn 0.046690013 0.8107218 -0.58356667
vn 0.04625984 -0.53661805 0.84255636
vn 0.04625984 -0.53661805 0.84255636
vn 0.04625984 -0.53661805 0.84255636
vn 0.15097895 0.6741855 0.7229656
vn 0.15097895 0.6741855 0.7229656
vn 0.15097895 0.6741855 0.7229656
vn -6.727597E-09 -0.5216967 0.85313106
vn -6.727597E-09 -0.5216967 0.85313106
vn -6.727597E-09 -0.5216967 0.85313106
vn -1.3193209E-08 -0.3030215 0.9529837
vn -1.3193209E-08 -0.3030215 0.9529837
vn -1.3193209E-08 -0.3030215 0.9529837
vn -0.04625986 -0.5366181 0.84255636
vn -0.04625986 -0.5366181 0.84255636
vn -0.04625986 -0.5366181 0.84255636
vn -0.15097898 0.6741878 0.72296345
vn -0.15097898 0.6741878 0.72296345
vn -0.15097898 0.6741878 0.72296345
vn -0.13244896 -0.61315864 0.778777
vn -0.13244896 -0.61315864 0.778777
vn -0.13244896 -0.61315864 0.778777
vn -0.04669004 0.810722 -0.5835666
vn -0.04669004 0.810722 -0.5835666
vn -0.04669004 0.810722 -0.5835666
vn -0.43744346 -0.74397635 -0.5051162
vn -0.43744346 -0.74397635 -0.5051162
vn -0.43744346 -0.74397635 -0.5051162
vn 0 -0.59298956 -0.8052101
vn 0 -0.59298956 -0.8052101
vn 0 -0.59298956 -0.8052101
vn 0.43744346 -0.7439764 -0.5051163
vn 0.43744346 -0.7439764 -0.5051163
vn 0.43744346 -0.7439764 -0.5051163
vn 0.4374434 -0.74397635 0.5051163
vn 0.4374434 -0.74397635 0.5051163
vn 0.4374434 -0.74397635 0.5051163
vn -1.1811912E-07 -0.5929895 0.80521023
vn -1.1811912E-07 -0.5929895 0.80521023
vn -1.1811912E-07 -0.5929895 0.80521023
vn -0.43744355 -0.7439765 0.5051159
vn -0.43744355 -0.7439765 0.5051159
vn -0.43744355 -0.7439765 0.5051159
vn -0.43744352 -0.7439764 -0.5051163
vn -0.43744352 -0.7439764 -0.5051163
vn -0.43744352 -0.7439764 -0.5051163
vn 0 -0.5929896 -0.8052102
vn 0 -0.5929896 -0.8052102
vn 0 -0.5929896 -0.8052102
vn 0.4374435 -0.74397635 -0.5051161
vn 0.4374435 -0.74397635 -0.5051161
vn 0.4374435 -0.74397635 -0.5051161
vn 0.4374434 -0.7439763 0.5051163
vn 0.4374434 -0.7439763 0.5051163
vn 0.4374434 -0.7439763 0.5051163
vn -1.18119125E-07 -0.5929895 0.8052102
vn -1.18119125E-07 -0.5929895 0.8052102
vn -1.18119125E-07 -0.5929895 0.8052102
vn -0.43744352 -0.7439764 0.505116
vn -0.43744352 -0.7439764 0.505116
vn -0.43744352 -0.7439764 0.505116
vn -0.4374434 -0.74397635 -0.5051162
vn -0.4374434 -0.74397635 -0.5051162
vn -0.4374434 -0.74397635 -0.5051162
vn 7.8746105E-08 -0.5929896 -0.8052102
vn 7.8746105E-08 -0.5929896 -0.8052102
vn 7.8746105E-08 -0.5929896 -0.8052102
vn 0.4374435 -0.74397635 -0.5051162
vn 0.4374435 -0.74397635 -0.5051162
vn 0.4374435 -0.74397635 -0.5051162
vn 0.43744346 -0.74397635 0.50511616
vn 0.43744346 -0.74397635 0.50511616
vn 0.43744346 -0.74397635 0.50511616
vn -1.5749214E-07 -0.5929895 0.8052101
vn -1.5749214E-07 -0.5929895 0.8052101
vn -1.5749214E-07 -0.5929895 0.8052101
vn -0.43744352 -0.7439765 0.505116
vn -0.43744352 -0.7439765 0.505116
vn -0.43744352 -0.7439765 0.505116
vn 0 -0.80348176 0.59532946
vn 0 -0.80348176 0.59532946
vn 0 -0.80348176 0.59532946
vn 0.78733677 -0.5518519 -0.27488244
vn 0.78733677 -0.5518519 -0.27488244
vn 0.78733677 -0.5518519 -0.27488244
vn 0 -0.9978297 0.06584784
vn 0 -0.9978297 0.06584784
vn 0 -0.9978297 0.06584784
vn 0 -0.74057156 0.6719775
vn 0 -0.74057156 0.6719775
vn 0 -0.74057156 0.6719775
vn 0 -0.9978297 0.06584783
vn 0 -0.9978297 0.06584783
vn 0 -0.9978297 0.06584783
vn 0 -0.7405715 0.67197746
vn 0 -0.7405715 0.67197746
vn 0 -0.7405715 0.67197746
vn 0 -0.9978297 0.06584783
vn 0 -0.9978297 0.06584783
vn 0 -0.9978297 0.06584783
vn 0 -0.7405715 0.67197746
vn 0 -0.7405715 0.67197746
vn 0 -0.7405715 0.67197746
vn 0 -0.9978297 0.06584784
vn 0 -0.9978297 0.06584784
vn 0 -0.9978297 0.06584784
vn 0 -0.74057156 0.6719775
vn 0 -0.74057156 0.6719775
vn 0 -0.74057156 0.6719775
f 1//1 2//2 3//3
f 4//4 5//5 6//6
f 7//7 8//8 9//9
f 10//10 11//11 12//12
f 13//13 14//14 15//15
f 16//16 17//17 18//18
f 19//19 20//20 21//21
f 22//22 23//23 24//24
f 25//25 26//26 27//27
f 28//28 29//29 30//30
f 31//31 32//32 33//33
f 34//34 35//35 36//36
f 37//37 38//38 39//39
f 40//40 41//41 42//42
f 43//43 44//44 45//45
f 46//46 47//47 48//48
f 49//49 50//50 51//51
f 52//52 53//53 54//54
f 55//55 56//56 57//57
f 58//58 59//59 60//60
f 61//61 62//62 63//63
f 64//64 65//65 66//66
f 67//67 68//68 69//69
f 70//70 71//71 72//72
f 73//73 74//74 75//75
f 76//76 77//77 78//78
f 79//79 80//80 81//81
f 82//82 83//83 84//84
f 85//85 86//86 87//87
f 88//88 89//89 90//90
f 91//91 92//92 93//93
f 94//94 95//95 96//96
f 97//97 98//98 99//99
f 100//100 101//101 102//102
f 103//103 104//104 105//105
f 106//106 107//107 108//108
f 109//109 110//110 111//111
f 112//112 113//113 114//114
f 115//115 116//116 117//117
f 118//118 119//119 120//120
f 121//121 122//122 123//123
f 124//124 125//125 126//126
f 127//127 128//128 129//129
f 130//130 131//131 132//132
f 133//133 134//134 135//135
f 136//136 137//137 138//138
f 139//139 140//140 141//141
f 142//142 143//143 144//144
