# Exported from SharpOpenGl procedural mesh
o fighter_basic
# vertices 138
v 0.6937371 0.114812635 0.13914458
v 0.5612451 0.15530375 0.21684235
v 0 0.39036298 0.34786147
v 0.6937371 0.114812635 0.13914458
v 0 0.022962527 0
v 0.5612451 0.15530375 0.21684235
v 0.5612451 0.15530375 0.21684235
v 0.21437654 0.18032862 0.26486224
v 0 0.39036298 0.34786147
v 0.5612451 0.15530375 0.21684235
v 0 0.022962527 0
v 0.21437654 0.18032862 0.26486224
v 0.21437654 0.18032862 0.26486224
v -0.21437658 0.18032862 0.26486224
v 0 0.39036298 0.34786147
v 0.21437654 0.18032862 0.26486224
v 0 0.022962527 0
v -0.21437658 0.18032862 0.26486224
v -0.21437658 0.18032862 0.26486224
v -0.56124514 0.15530375 0.21684235
v 0 0.39036298 0.34786147
v -0.21437658 0.18032862 0.26486224
v 0 0.022962527 0
v -0.56124514 0.15530375 0.21684235
v -0.56124514 0.15530375 0.21684235
v -0.6937371 0.11481263 0.13914457
v 0 0.39036298 0.34786147
v -0.56124514 0.15530375 0.21684235
v 0 0.022962527 0
v -0.6937371 0.11481263 0.13914457
v -0.6937371 0.11481263 0.13914457
v -0.5612451 0.07432152 0.061446793
v 0 0.39036298 0.34786147
v -0.6937371 0.11481263 0.13914457
v 0 0.022962527 0
v -0.5612451 0.07432152 0.061446793
v -0.5612451 0.07432152 0.061446793
v -0.2143763 0.04929664 0.01342693
v 0 0.39036298 0.34786147
v -0.5612451 0.07432152 0.061446793
v 0 0.022962527 0
v -0.2143763 0.04929664 0.01342693
v -0.2143763 0.04929664 0.01342693
v 0.21437664 0.049296647 0.013426945
v 0 0.39036298 0.34786147
v -0.2143763 0.04929664 0.01342693
v 0 0.022962527 0
v 0.21437664 0.049296647 0.013426945
v 0.21437664 0.049296647 0.013426945
v 0.5612451 0.07432152 0.0614468
v 0 0.39036298 0.34786147
v 0.21437664 0.049296647 0.013426945
v 0 0.022962527 0
v 0.5612451 0.07432152 0.0614468
v 0.5612451 0.07432152 0.0614468
v 0.6937371 0.11481265 0.13914461
v 0 0.39036298 0.34786147
v 0.5612451 0.07432152 0.0614468
v 0 0.022962527 0
v 0.6937371 0.11481265 0.13914461
v -0.62766695 0.28932786 -0.20871687
v -0.33035102 0.1607377 -0.20871687
v -0.479009 0.1607377 -0.07997529
v -0.62766695 0.28932786 -0.20871687
v -0.479009 0.1607377 -0.07997529
v -0.7763249 0.1607377 -0.07997529
v -0.62766695 0.28932786 -0.20871687
v -0.7763249 0.1607377 -0.07997529
v -0.9249829 0.1607377 -0.20871688
v -0.62766695 0.28932786 -0.20871687
v -0.9249829 0.1607377 -0.20871688
v -0.77632487 0.1607377 -0.33745843
v -0.62766695 0.28932786 -0.20871687
v -0.77632487 0.1607377 -0.33745843
v -0.47900888 0.1607377 -0.33745843
v -0.62766695 0.28932786 -0.20871687
v -0.47900888 0.1607377 -0.33745843
v -0.33035102 0.1607377 -0.20871684
v 0 0.28932786 0.104358464
v 0.29731593 0.1607377 0.104358464
v 0.14865795 0.1607377 0.23310004
v 0 0.28932786 0.104358464
v 0.14865795 0.1607377 0.23310004
v -0.14865798 0.1607377 0.23310004
v 0 0.28932786 0.104358464
v -0.14865798 0.1607377 0.23310004
v -0.29731593 0.1607377 0.10435845
v 0 0.28932786 0.104358464
v -0.29731593 0.1607377 0.10435845
v -0.14865793 0.1607377 -0.024383113
v 0 0.28932786 0.104358464
v -0.14865793 0.1607377 -0.024383113
v 0.14865807 0.1607377 -0.024383083
v 0 0.28932786 0.104358464
v 0.14865807 0.1607377 -0.024383083
v 0.29731593 0.1607377 0.10435849
v 0.62766695 0.28932786 0.4174338
v 0.9249829 0.1607377 0.4174338
v 0.77632487 0.1607377 0.54617536
v 0.62766695 0.28932786 0.4174338
v 0.77632487 0.1607377 0.54617536
v 0.47900897 0.1607377 0.54617536
v 0.62766695 0.28932786 0.4174338
v 0.47900897 0.1607377 0.54617536
v 0.33035102 0.1607377 0.4174338
v 0.62766695 0.28932786 0.4174338
v 0.33035102 0.1607377 0.4174338
v 0.47900903 0.1607377 0.28869224
v 0.62766695 0.28932786 0.4174338
v 0.47900903 0.1607377 0.28869224
v 0.776325 0.1607377 0.28869224
v 0.62766695 0.28932786 0.4174338
v 0.776325 0.1607377 0.28869224
v 0.9249829 0.1607377 0.41743383
v 0 0.2525878 0.956619
v -0.36338612 0.09185011 0.60875756
v 0.36338612 0.09185011 0.60875756
v 0 0.2525878 0.956619
v 0 0.1607377 1.2523013
v -0.19821061 0.114812635 0.73050904
v -0.5505851 0.027214846 -1.2254211
v -0.71104133 0 -1.5784248
v -0.39012885 0 -1.5784248
v -0.5505851 0.11226124 -1.145193
v -0.6468588 0.027214846 -1.2254211
v -0.45431134 0.027214846 -1.2254211
v 0 0.027214846 -1.2254211
v -0.16045623 0 -1.5784248
v 0.16045623 0 -1.5784248
v 0 0.11226124 -1.145193
v -0.09627374 0.027214846 -1.2254211
v 0.09627374 0.027214846 -1.2254211
v 0.5505851 0.027214846 -1.2254211
v 0.39012885 0 -1.5784248
v 0.71104133 0 -1.5784248
v 0.5505851 0.11226124 -1.145193
v 0.45431134 0.027214846 -1.2254211
v 0.6468588 0.027214846 -1.2254211
vn -0.4254354 -0.86175656 -0.27636975
vn -0.4254354 -0.86175656 -0.27636975
vn -0.4254354 -0.86175656 -0.27636975
vn -0.018145354 0.87364316 -0.48622882
vn -0.018145354 0.87364316 -0.48622882
vn -0.018145354 0.87364316 -0.48622882
vn -0.113704845 0.26259005 -0.9581846
vn -0.113704845 0.26259005 -0.9581846
vn -0.113704845 0.26259005 -0.9581846
vn -0.007838533 0.8624531 -0.5060762
vn -0.007838533 0.8624531 -0.5060762
vn -0.007838533 0.8624531 -0.5060762
vn 0 0.36751485 -0.93001765
vn 0 0.36751485 -0.93001765
vn 0 0.36751485 -0.93001765
vn 0 0.8597063 -0.5107886
vn 0 0.8597063 -0.5107886
vn 0 0.8597063 -0.5107886
vn 0.11370482 0.26259005 -0.9581846
vn 0.11370482 0.26259005 -0.9581846
vn 0.11370482 0.26259005 -0.9581846
vn 0.007838533 0.86245316 -0.5060762
vn 0.007838533 0.86245316 -0.5060762
vn 0.007838533 0.86245316 -0.5060762
vn 0.4254354 -0.86175686 -0.27636898
vn 0.4254354 -0.86175686 -0.27636898
vn 0.4254354 -0.86175686 -0.27636898
vn 0.01814536 0.87364304 -0.48622882
vn 0.01814536 0.87364304 -0.48622882
vn 0.01814536 0.87364304 -0.48622882
vn 0.12359848 -0.77787656 0.61614233
vn 0.12359848 -0.77787656 0.61614233
vn 0.12359848 -0.77787656 0.61614233
vn 0.038618125 0.9116165 -0.40922368
vn 0.038618125 0.9116165 -0.40922368
vn 0.038618125 0.9116165 -0.40922368
vn 0.045261104 -0.7137725 0.69891363
vn 0.045261104 -0.7137725 0.69891363
vn 0.045261104 -0.7137725 0.69891363
vn 0.13566265 0.82356274 0.5507632
vn 0.13566265 0.82356274 0.5507632
vn 0.13566265 0.82356274 0.5507632
vn -1.2648922E-08 -0.700131 0.71401453
vn -1.2648922E-08 -0.700131 0.71401453
vn -1.2648922E-08 -0.700131 0.71401453
vn -2.3068969E-08 -0.45423317 0.8908829
vn -2.3068969E-08 -0.45423317 0.8908829
vn -2.3068969E-08 -0.45423317 0.8908829
vn -0.04526114 -0.7137725 0.69891363
vn -0.04526114 -0.7137725 0.69891363
vn -0.04526114 -0.7137725 0.69891363
vn -0.13566253 0.82356435 0.55076075
vn -0.13566253 0.82356435 0.55076075
vn -0.13566253 0.82356435 0.55076075
vn -0.1235985 -0.7778766 0.61614233
vn -0.1235985 -0.7778766 0.61614233
vn -0.1235985 -0.7778766 0.61614233
vn -0.0386181 0.91161644 -0.40922374
vn -0.0386181 0.91161644 -0.40922374
vn -0.0386181 0.91161644 -0.40922374
vn -0.36086196 -0.8343562 -0.41668752
vn -0.36086196 -0.8343562 -0.41668752
vn -0.36086196 -0.8343562 -0.41668752
vn 0 -0.7075227 -0.7066906
vn 0 -0.7075227 -0.7066906
vn 0 -0.7075227 -0.7066906
vn 0.36086193 -0.8343562 -0.41668743
vn 0.36086193 -0.8343562 -0.41668743
vn 0.36086193 -0.8343562 -0.41668743
vn 0.36086187 -0.8343561 0.41668767
vn 0.36086187 -0.8343561 0.41668767
vn 0.36086187 -0.8343561 0.41668767
vn 0 -0.70752263 0.7066906
vn 0 -0.70752263 0.7066906
vn 0 -0.70752263 0.7066906
vn -0.36086202 -0.83435625 0.41668722
vn -0.36086202 -0.83435625 0.41668722
vn -0.36086202 -0.83435625 0.41668722
vn -0.36086196 -0.8343562 -0.41668752
vn -0.36086196 -0.8343562 -0.41668752
vn -0.36086196 -0.8343562 -0.41668752
vn 0 -0.7075227 -0.7066906
vn 0 -0.7075227 -0.7066906
vn 0 -0.7075227 -0.7066906
vn 0.36086196 -0.8343562 -0.4166874
vn 0.36086196 -0.8343562 -0.4166874
vn 0.36086196 -0.8343562 -0.4166874
vn 0.3608619 -0.8343561 0.41668755
vn 0.3608619 -0.8343561 0.41668755
vn 0.3608619 -0.8343561 0.41668755
vn -6.885943E-08 -0.70752263 0.70669067
vn -6.885943E-08 -0.70752263 0.70669067
vn -6.885943E-08 -0.70752263 0.70669067
vn -0.36086205 -0.83435625 0.41668728
vn -0.36086205 -0.83435625 0.41668728
vn -0.36086205 -0.83435625 0.41668728
vn -0.36086187 -0.8343561 -0.41668764
vn -0.36086187 -0.8343561 -0.41668764
vn -0.36086187 -0.8343561 -0.41668764
vn 0 -0.70752275 -0.70669067
vn 0 -0.70752275 -0.70669067
vn 0 -0.70752275 -0.70669067
vn 0.36086193 -0.8343562 -0.41668746
vn 0.36086193 -0.8343562 -0.41668746
vn 0.36086193 -0.8343562 -0.41668746
vn 0.3608619 -0.8343561 0.41668758
vn 0.3608619 -0.8343561 0.41668758
vn 0.3608619 -0.8343561 0.41668758
vn 0 -0.70752263 0.7066906
vn 0 -0.70752263 0.7066906
vn 0 -0.70752263 0.7066906
vn -0.36086196 -0.8343562 0.4166873
vn -0.36086196 -0.8343562 0.4166873
vn -0.36086196 -0.8343562 0.4166873
vn 0 -0.9077744 0.41945884
vn 0 -0.9077744 0.41945884
vn 0 -0.9077744 0.41945884
vn 0.7078887 -0.6745287 -0.20953412
vn 0.7078887 -0.6745287 -0.20953412
vn 0.7078887 -0.6745287 -0.20953412
vn 0 -0.99704134 0.07686696
vn 0 -0.99704134 0.07686696
vn 0 -0.99704134 0.07686696
vn 0 -0.68620074 0.7274123
vn 0 -0.68620074 0.7274123
vn 0 -0.68620074 0.7274123
vn 0 -0.9970414 0.07686696
vn 0 -0.9970414 0.07686696
vn 0 -0.9970414 0.07686696
vn 0 -0.68620074 0.7274122
vn 0 -0.68620074 0.7274122
vn 0 -0.68620074 0.7274122
vn 0 -0.99704134 0.07686696
vn 0 -0.99704134 0.07686696
vn 0 -0.99704134 0.07686696
vn 0 -0.68620074 0.7274123
vn 0 -0.68620074 0.7274123
vn 0 -0.68620074 0.7274123
f 1//1 2//2 3//3
f 4//4 5//5 6//6
f 7//7 8//8 9//9
f 10//10 11//11 12//12
f 13//13 14//14 15//15
f 16//16 17//17 18//18
f 19//19 20//20 21//21
f 22//22 23//23 24//24
f 25//25 26//26 27//27
f 28//28 29//29 30//30
f 31//31 32//32 33//33
f 34//34 35//35 36//36
f 37//37 38//38 39//39
f 40//40 41//41 42//42
f 43//43 44//44 45//45
f 46//46 47//47 48//48
f 49//49 50//50 51//51
f 52//52 53//53 54//54
f 55//55 56//56 57//57
f 58//58 59//59 60//60
f 61//61 62//62 63//63
f 64//64 65//65 66//66
f 67//67 68//68 69//69
f 70//70 71//71 72//72
f 73//73 74//74 75//75
f 76//76 77//77 78//78
f 79//79 80//80 81//81
f 82//82 83//83 84//84
f 85//85 86//86 87//87
f 88//88 89//89 90//90
f 91//91 92//92 93//93
f 94//94 95//95 96//96
f 97//97 98//98 99//99
f 100//100 101//101 102//102
f 103//103 104//104 105//105
f 106//106 107//107 108//108
f 109//109 110//110 111//111
f 112//112 113//113 114//114
f 115//115 116//116 117//117
f 118//118 119//119 120//120
f 121//121 122//122 123//123
f 124//124 125//125 126//126
f 127//127 128//128 129//129
f 130//130 131//131 132//132
f 133//133 134//134 135//135
f 136//136 137//137 138//138
