# Exported from SharpOpenGl procedural mesh
o freighter_bulk
# vertices 153
v 3.4475756 0.4976867 0.37003875
v 2.7891471 0.67320645 0.5766669
v 0 1.6921349 0.92509687
v 3.4475756 0.4976867 0.37003875
v 0 0.09953734 0
v 2.7891471 0.67320645 0.5766669
v 2.7891471 0.67320645 0.5766669
v 1.0653594 0.7816837 0.70437014
v 0 1.6921349 0.92509687
v 2.7891471 0.67320645 0.5766669
v 0 0.09953734 0
v 1.0653594 0.7816837 0.70437014
v 1.0653594 0.7816837 0.70437014
v -1.0653596 0.7816836 0.70437014
v 0 1.6921349 0.92509687
v 1.0653594 0.7816837 0.70437014
v 0 0.09953734 0
v -1.0653596 0.7816836 0.70437014
v -1.0653596 0.7816836 0.70437014
v -2.7891474 0.67320645 0.5766669
v 0 1.6921349 0.92509687
v -1.0653596 0.7816836 0.70437014
v 0 0.09953734 0
v -2.7891474 0.67320645 0.5766669
v -2.7891474 0.67320645 0.5766669
v -3.4475756 0.49768668 0.37003872
v 0 1.6921349 0.92509687
v -2.7891474 0.67320645 0.5766669
v 0 0.09953734 0
v -3.4475756 0.49768668 0.37003872
v -3.4475756 0.49768668 0.37003872
v -2.7891471 0.32216692 0.16341054
v 0 1.6921349 0.92509687
v -3.4475756 0.49768668 0.37003872
v 0 0.09953734 0
v -2.7891471 0.32216692 0.16341054
v -2.7891471 0.32216692 0.16341054
v -1.0653583 0.21368977 0.035707325
v 0 1.6921349 0.92509687
v -2.7891471 0.32216692 0.16341054
v 0 0.09953734 0
v -1.0653583 0.21368977 0.035707325
v -1.0653583 0.21368977 0.035707325
v 1.0653598 0.2136898 0.035707384
v 0 1.6921349 0.92509687
v -1.0653583 0.21368977 0.035707325
v 0 0.09953734 0
v 1.0653598 0.2136898 0.035707384
v 1.0653598 0.2136898 0.035707384
v 2.7891471 0.32216692 0.16341056
v 0 1.6921349 0.92509687
v 1.0653598 0.2136898 0.035707384
v 0 0.09953734 0
v 2.7891471 0.32216692 0.16341056
v 2.7891471 0.32216692 0.16341056
v 3.4475756 0.49768677 0.3700388
v 0 1.6921349 0.92509687
v 2.7891471 0.32216692 0.16341056
v 0 0.09953734 0
v 3.4475756 0.49768677 0.3700388
v -3.119235 1.2541704 -0.5550581
v -1.6417027 0.69676137 -0.5550581
v -2.3804688 0.69676137 0.084732175
v -3.119235 1.2541704 -0.5550581
v -2.3804688 0.69676137 0.084732175
v -3.8580012 0.69676137 0.084732175
v -3.119235 1.2541704 -0.5550581
v -3.8580012 0.69676137 0.084732175
v -4.5967674 0.69676137 -0.5550582
v -3.119235 1.2541704 -0.5550581
v -4.5967674 0.69676137 -0.5550582
v -3.8580012 0.69676137 -1.1948484
v -3.119235 1.2541704 -0.5550581
v -3.8580012 0.69676137 -1.1948484
v -2.3804684 0.69676137 -1.1948483
v -3.119235 1.2541704 -0.5550581
v -2.3804684 0.69676137 -1.1948483
v -1.6417027 0.69676137 -0.555058
v 0 1.2541704 0.27752912
v 1.4775324 0.69676137 0.27752912
v 0.73876613 0.69676137 0.9173194
v 0 1.2541704 0.27752912
v 0.73876613 0.69676137 0.9173194
v -0.73876625 0.69676137 0.9173194
v 0 1.2541704 0.27752912
v -0.73876625 0.69676137 0.9173194
v -1.4775324 0.69676137 0.27752906
v 0 1.2541704 0.27752912
v -1.4775324 0.69676137 0.27752906
v -0.7387661 0.69676137 -0.36226118
v 0 1.2541704 0.27752912
v -0.7387661 0.69676137 -0.36226118
v 0.73876673 0.69676137 -0.362261
v 0 1.2541704 0.27752912
v 0.73876673 0.69676137 -0.362261
v 1.4775324 0.69676137 0.27752924
v 3.119235 1.2541704 1.1101164
v 4.5967674 0.69676137 1.1101164
v 3.8580012 0.69676137 1.7499067
v 3.119235 1.2541704 1.1101164
v 3.8580012 0.69676137 1.7499067
v 2.3804688 0.69676137 1.7499067
v 3.119235 1.2541704 1.1101164
v 2.3804688 0.69676137 1.7499067
v 1.6417027 0.69676137 1.1101162
v 3.119235 1.2541704 1.1101164
v 1.6417027 0.69676137 1.1101162
v 2.3804688 0.69676137 0.47032607
v 3.119235 1.2541704 1.1101164
v 2.3804688 0.69676137 0.47032607
v 3.8580017 0.69676137 0.47032624
v 3.119235 1.2541704 1.1101164
v 3.8580017 0.69676137 0.47032624
v 4.5967674 0.69676137 1.1101165
v 0 1.0949107 2.5440166
v -1.8058729 0.39814937 1.6189195
v 1.8058729 0.39814937 1.6189195
v 0 1.0949107 2.5440166
v 0 0.69676137 3.330349
v -0.9850216 0.4976867 1.9427034
v -3.2834053 0.117970176 -3.258864
v -4.502956 0 -5.941875
v -2.0638547 0 -5.941875
v -3.2834053 0.48662698 -2.6490886
v -4.015136 0.117970176 -3.258864
v -2.5516748 0.117970176 -3.258864
v -1.0944685 0.117970176 -3.258864
v -2.314019 0 -5.941875
v 0.12508202 0 -5.941875
v -1.0944685 0.48662698 -2.6490886
v -1.8261988 0.117970176 -3.258864
v -0.36273813 0.117970176 -3.258864
v 1.0944685 0.117970176 -3.258864
v -0.12508202 0 -5.941875
v 2.314019 0 -5.941875
v 1.0944685 0.48662698 -2.6490886
v 0.36273813 0.117970176 -3.258864
v 1.8261988 0.117970176 -3.258864
v 3.2834053 0.117970176 -3.258864
v 2.0638547 0 -5.941875
v 4.502956 0 -5.941875
v 3.2834053 0.48662698 -2.6490886
v 2.5516748 0.117970176 -3.258864
v 4.015136 0.117970176 -3.258864
v -1.719879 0.56035835 -0.26281163
v -2.2671132 0.20644781 -0.7318696
v -1.1726449 0.20644781 -0.7318696
v 0 0.56035835 -0.81004584
v -0.54723424 0.20644781 -1.2791038
v 0.54723424 0.20644781 -1.2791038
v 1.719879 0.56035835 -1.3572801
v 1.1726449 0.20644781 -1.826338
v 2.2671132 0.20644781 -1.826338
vn -0.35654432 -0.8279745 -0.43282133
vn -0.35654432 -0.8279745 -0.43282133
vn -0.35654432 -0.8279745 -0.43282133
vn -0.013416849 0.7405786 -0.67183584
vn -0.013416849 0.7405786 -0.67183584
vn -0.013416849 0.7405786 -0.67183584
vn -0.062501244 0.16547816 -0.98423094
vn -0.062501244 0.16547816 -0.98423094
vn -0.062501244 0.16547816 -0.98423094
vn -0.0057289335 0.722653 -0.69118726
vn -0.0057289335 0.722653 -0.69118726
vn -0.0057289335 0.722653 -0.69118726
vn -6.5909833E-09 0.2356114 -0.9718473
vn -6.5909833E-09 0.2356114 -0.9718473
vn -6.5909833E-09 0.2356114 -0.9718473
vn -2.009505E-08 0.7183484 -0.69568354
vn -2.009505E-08 0.7183484 -0.69568354
vn -2.009505E-08 0.7183484 -0.69568354
vn 0.06250125 0.16547814 -0.98423094
vn 0.06250125 0.16547814 -0.98423094
vn 0.06250125 0.16547814 -0.98423094
vn 0.0057289577 0.722653 -0.69118726
vn 0.0057289577 0.722653 -0.69118726
vn 0.0057289577 0.722653 -0.69118726
vn 0.3565444 -0.827975 -0.43282044
vn 0.3565444 -0.827975 -0.43282044
vn 0.3565444 -0.827975 -0.43282044
vn 0.01341685 0.7405786 -0.67183584
vn 0.01341685 0.7405786 -0.67183584
vn 0.01341685 0.7405786 -0.67183584
vn 0.08456439 -0.6101513 0.78775907
vn 0.08456439 -0.6101513 0.78775907
vn 0.08456439 -0.6101513 0.78775907
vn 0.029807419 0.8066739 -0.5902446
vn 0.029807419 0.8066739 -0.5902446
vn 0.029807419 0.8066739 -0.5902446
vn 0.029354207 -0.53071004 0.84704494
vn 0.029354207 -0.53071004 0.84704494
vn 0.029354207 -0.53071004 0.84704494
vn 0.09667708 0.67284137 0.73344266
vn 0.09667708 0.67284137 0.73344266
vn 0.09667708 0.67284137 0.73344266
vn -1.6760769E-08 -0.51548517 0.85689855
vn -1.6760769E-08 -0.51548517 0.85689855
vn -1.6760769E-08 -0.51548517 0.85689855
vn -2.2522617E-08 -0.29853943 0.9543974
vn -2.2522617E-08 -0.29853943 0.9543974
vn -2.2522617E-08 -0.29853943 0.9543974
vn -0.029354215 -0.53071004 0.84704494
vn -0.029354215 -0.53071004 0.84704494
vn -0.029354215 -0.53071004 0.84704494
vn -0.09667715 0.672843 0.7334412
vn -0.09667715 0.672843 0.7334412
vn -0.09667715 0.672843 0.7334412
vn -0.08456438 -0.61015123 0.78775895
vn -0.08456438 -0.61015123 0.78775895
vn -0.08456438 -0.61015123 0.78775895
vn -0.029807406 0.8066739 -0.59024477
vn -0.029807406 0.8066739 -0.59024477
vn -0.029807406 0.8066739 -0.59024477
vn -0.32686684 -0.8664307 -0.3774333
vn -0.32686684 -0.8664307 -0.3774333
vn -0.32686684 -0.8664307 -0.3774333
vn 0 -0.753981 -0.65689623
vn 0 -0.753981 -0.65689623
vn 0 -0.753981 -0.65689623
vn 0.3268668 -0.86643064 -0.37743324
vn 0.3268668 -0.86643064 -0.37743324
vn 0.3268668 -0.86643064 -0.37743324
vn 0.3268668 -0.86643064 0.3774333
vn 0.3268668 -0.86643064 0.3774333
vn 0.3268668 -0.86643064 0.3774333
vn -4.754072E-08 -0.753981 0.6568963
vn -4.754072E-08 -0.753981 0.6568963
vn -4.754072E-08 -0.753981 0.6568963
vn -0.3268669 -0.86643076 0.37743312
vn -0.3268669 -0.86643076 0.37743312
vn -0.3268669 -0.86643076 0.37743312
vn -0.32686684 -0.8664307 -0.37743333
vn -0.32686684 -0.8664307 -0.37743333
vn -0.32686684 -0.8664307 -0.37743333
vn 0 -0.753981 -0.65689623
vn 0 -0.753981 -0.65689623
vn 0 -0.753981 -0.65689623
vn 0.3268668 -0.86643064 -0.3774332
vn 0.3268668 -0.86643064 -0.3774332
vn 0.3268668 -0.86643064 -0.3774332
vn 0.3268668 -0.86643064 0.37743333
vn 0.3268668 -0.86643064 0.37743333
vn 0.3268668 -0.86643064 0.37743333
vn -7.131108E-08 -0.75398093 0.6568963
vn -7.131108E-08 -0.75398093 0.6568963
vn -7.131108E-08 -0.75398093 0.6568963
vn -0.3268669 -0.86643076 0.37743315
vn -0.3268669 -0.86643076 0.37743315
vn -0.3268669 -0.86643076 0.37743315
vn -0.32686684 -0.8664307 -0.3774333
vn -0.32686684 -0.8664307 -0.3774333
vn -0.32686684 -0.8664307 -0.3774333
vn 0 -0.753981 -0.65689623
vn 0 -0.753981 -0.65689623
vn 0 -0.753981 -0.65689623
vn 0.32686684 -0.86643064 -0.37743324
vn 0.32686684 -0.86643064 -0.37743324
vn 0.32686684 -0.86643064 -0.37743324
vn 0.3268668 -0.86643076 0.37743333
vn 0.3268668 -0.86643076 0.37743333
vn 0.3268668 -0.86643076 0.37743333
vn -7.131108E-08 -0.753981 0.6568963
vn -7.131108E-08 -0.753981 0.6568963
vn -7.131108E-08 -0.753981 0.6568963
vn -0.3268669 -0.86643076 0.37743318
vn -0.3268669 -0.86643076 0.37743318
vn -0.3268669 -0.86643076 0.37743318
vn 0 -0.79878044 0.60162264
vn 0 -0.79878044 0.60162264
vn 0 -0.79878044 0.60162264
vn 0.63254094 -0.69099754 -0.34987777
vn 0.63254094 -0.69099754 -0.34987777
vn 0.63254094 -0.69099754 -0.34987777
vn 0 -0.99903476 0.043926883
vn 0 -0.99903476 0.043926883
vn 0 -0.99903476 0.043926883
vn 0 -0.8557596 0.51737356
vn 0 -0.8557596 0.51737356
vn 0 -0.8557596 0.51737356
vn 0 -0.99903476 0.04392688
vn 0 -0.99903476 0.04392688
vn 0 -0.99903476 0.04392688
vn 0 -0.8557597 0.5173736
vn 0 -0.8557597 0.5173736
vn 0 -0.8557597 0.5173736
vn 0 -0.99903476 0.04392688
vn 0 -0.99903476 0.04392688
vn 0 -0.99903476 0.04392688
vn 0 -0.8557597 0.5173736
vn 0 -0.8557597 0.5173736
vn 0 -0.8557597 0.5173736
vn 0 -0.99903476 0.043926883
vn 0 -0.99903476 0.043926883
vn 0 -0.99903476 0.043926883
vn 0 -0.8557596 0.51737356
vn 0 -0.8557596 0.51737356
vn 0 -0.8557596 0.51737356
vn 0 -0.7982673 0.60230345
vn 0 -0.7982673 0.60230345
vn 0 -0.7982673 0.60230345
vn 0 -0.7982673 0.60230345
vn 0 -0.7982673 0.60230345
vn 0 -0.7982673 0.60230345
vn 0 -0.79826725 0.60230345
vn 0 -0.79826725 0.60230345
vn 0 -0.79826725 0.60230345
f 1//1 2//2 3//3
f 4//4 5//5 6//6
f 7//7 8//8 9//9
f 10//10 11//11 12//12
f 13//13 14//14 15//15
f 16//16 17//17 18//18
f 19//19 20//20 21//21
f 22//22 23//23 24//24
f 25//25 26//26 27//27
f 28//28 29//29 30//30
f 31//31 32//32 33//33
f 34//34 35//35 36//36
f 37//37 38//38 39//39
f 40//40 41//41 42//42
f 43//43 44//44 45//45
f 46//46 47//47 48//48
f 49//49 50//50 51//51
f 52//52 53//53 54//54
f 55//55 56//56 57//57
f 58//58 59//59 60//60
f 61//61 62//62 63//63
f 64//64 65//65 66//66
f 67//67 68//68 69//69
f 70//70 71//71 72//72
f 73//73 74//74 75//75
f 76//76 77//77 78//78
f 79//79 80//80 81//81
f 82//82 83//83 84//84
f 85//85 86//86 87//87
f 88//88 89//89 90//90
f 91//91 92//92 93//93
f 94//94 95//95 96//96
f 97//97 98//98 99//99
f 100//100 101//101 102//102
f 103//103 104//104 105//105
f 106//106 107//107 108//108
f 109//109 110//110 111//111
f 112//112 113//113 114//114
f 115//115 116//116 117//117
f 118//118 119//119 120//120
f 121//121 122//122 123//123
f 124//124 125//125 126//126
f 127//127 128//128 129//129
f 130//130 131//131 132//132
f 133//133 134//134 135//135
f 136//136 137//137 138//138
f 139//139 140//140 141//141
f 142//142 143//143 144//144
f 145//145 146//146 147//147
f 148//148 149//149 150//150
f 151//151 152//152 153//153
