# Exported from SharpOpenGl procedural mesh
o gunship_heavy
# vertices 138
v 2.351979 0.38515154 0.25425705
v 1.902791 0.52098334 0.39623317
v 0 1.3095152 0.63564265
v 2.351979 0.38515154 0.25425705
v 0 0.07703031 0
v 1.902791 0.52098334 0.39623317
v 1.902791 0.52098334 0.39623317
v 0.72680146 0.60493207 0.48397923
v 0 1.3095152 0.63564265
v 1.902791 0.52098334 0.39623317
v 0 0.07703031 0
v 0.72680146 0.60493207 0.48397923
v 0.72680146 0.60493207 0.48397923
v -0.7268016 0.60493207 0.48397923
v 0 1.3095152 0.63564265
v 0.72680146 0.60493207 0.48397923
v 0 0.07703031 0
v -0.7268016 0.60493207 0.48397923
v -0.7268016 0.60493207 0.48397923
v -1.9027911 0.52098334 0.39623314
v 0 1.3095152 0.63564265
v -0.7268016 0.60493207 0.48397923
v 0 0.07703031 0
v -1.9027911 0.52098334 0.39623314
v -1.9027911 0.52098334 0.39623314
v -2.351979 0.3851515 0.25425702
v 0 1.3095152 0.63564265
v -1.9027911 0.52098334 0.39623314
v 0 0.07703031 0
v -2.351979 0.3851515 0.25425702
v -2.351979 0.3851515 0.25425702
v -1.9027909 0.24931967 0.112280905
v 0 1.3095152 0.63564265
v -2.351979 0.3851515 0.25425702
v 0 0.07703031 0
v -1.9027909 0.24931967 0.112280905
v -1.9027909 0.24931967 0.112280905
v -0.7268007 0.16537099 0.024534836
v 0 1.3095152 0.63564265
v -1.9027909 0.24931967 0.112280905
v 0 0.07703031 0
v -0.7268007 0.16537099 0.024534836
v -0.7268007 0.16537099 0.024534836
v 0.7268018 0.16537102 0.024534881
v 0 1.3095152 0.63564265
v -0.7268007 0.16537099 0.024534836
v 0 0.07703031 0
v 0.7268018 0.16537102 0.024534881
v 0.7268018 0.16537102 0.024534881
v 1.9027909 0.24931969 0.11228092
v 0 1.3095152 0.63564265
v 0.7268018 0.16537102 0.024534881
v 0 0.07703031 0
v 1.9027909 0.24931969 0.11228092
v 1.9027909 0.24931969 0.11228092
v 2.351979 0.38515157 0.25425708
v 0 1.3095152 0.63564265
v 1.9027909 0.24931969 0.11228092
v 0 0.07703031 0
v 2.351979 0.38515157 0.25425708
v -2.1279812 0.9705819 -0.38138556
v -1.1199901 0.53921217 -0.38138556
v -1.6239858 0.53921217 0.055087388
v -2.1279812 0.9705819 -0.38138556
v -1.6239858 0.53921217 0.055087388
v -2.6319768 0.53921217 0.055087358
v -2.1279812 0.9705819 -0.38138556
v -2.6319768 0.53921217 0.055087358
v -3.1359723 0.53921217 -0.3813856
v -2.1279812 0.9705819 -0.38138556
v -3.1359723 0.53921217 -0.3813856
v -2.6319766 0.53921217 -0.8178585
v -2.1279812 0.9705819 -0.38138556
v -2.6319766 0.53921217 -0.8178585
v -1.6239853 0.53921217 -0.8178584
v -2.1279812 0.9705819 -0.38138556
v -1.6239853 0.53921217 -0.8178584
v -1.1199901 0.53921217 -0.38138548
v 0 0.9705819 0.19069284
v 1.0079911 0.53921217 0.19069284
v 0.5039955 0.53921217 0.6271658
v 0 0.9705819 0.19069284
v 0.5039955 0.53921217 0.6271658
v -0.5039956 0.53921217 0.6271658
v 0 0.9705819 0.19069284
v -0.5039956 0.53921217 0.6271658
v -1.0079911 0.53921217 0.1906928
v 0 0.9705819 0.19069284
v -1.0079911 0.53921217 0.1906928
v -0.5039954 0.53921217 -0.24578011
v 0 0.9705819 0.19069284
v -0.5039954 0.53921217 -0.24578011
v 0.5039959 0.53921217 -0.24577999
v 0 0.9705819 0.19069284
v 0.5039959 0.53921217 -0.24577999
v 1.0079911 0.53921217 0.19069293
v 2.1279812 0.9705819 0.76277125
v 3.1359723 0.53921217 0.76277125
v 2.6319766 0.53921217 1.1992443
v 2.1279812 0.9705819 0.76277125
v 2.6319766 0.53921217 1.1992443
v 1.6239855 0.53921217 1.1992441
v 2.1279812 0.9705819 0.76277125
v 1.6239855 0.53921217 1.1992441
v 1.1199901 0.53921217 0.7627712
v 2.1279812 0.9705819 0.76277125
v 1.1199901 0.53921217 0.7627712
v 1.6239858 0.53921217 0.3262983
v 2.1279812 0.9705819 0.76277125
v 1.6239858 0.53921217 0.3262983
v 2.631977 0.53921217 0.32629842
v 2.1279812 0.9705819 0.76277125
v 2.631977 0.53921217 0.32629842
v 3.1359723 0.53921217 0.7627713
v 0 0.8473334 1.7480173
v -1.231989 0.30812123 1.1123745
v 1.231989 0.30812123 1.1123745
v 0 0.8473334 1.7480173
v 0 0.53921217 2.2883136
v -0.67199403 0.38515154 1.3348495
v -1.8666502 0.091295175 -2.2391956
v -2.6026437 0 -3.8583813
v -1.1306567 0 -3.8583813
v -1.8666502 0.3765926 -1.8711989
v -2.3082464 0.091295175 -2.2391956
v -1.4250541 0.091295175 -2.2391956
v 0 0.091295175 -2.2391956
v -0.73599344 0 -3.8583813
v 0.73599344 0 -3.8583813
v 0 0.3765926 -1.8711989
v -0.4415961 0.091295175 -2.2391956
v 0.4415961 0.091295175 -2.2391956
v 1.8666502 0.091295175 -2.2391956
v 1.1306567 0 -3.8583813
v 2.6026437 0 -3.8583813
v 1.8666502 0.3765926 -1.8711989
v 1.4250541 0.091295175 -2.2391956
v 2.3082464 0.091295175 -2.2391956
vn -0.38797346 -0.79423577 -0.46761742
vn -0.38797346 -0.79423577 -0.46761742
vn -0.38797346 -0.79423577 -0.46761742
vn -0.014373243 0.69938934 -0.71459633
vn -0.014373243 0.69938934 -0.71459633
vn -0.014373243 0.69938934 -0.71459633
vn -0.06313128 0.14734702 -0.98706806
vn -0.06313128 0.14734702 -0.98706806
vn -0.06313128 0.14734702 -0.98706806
vn -0.0061181113 0.6803281 -0.73288214
vn -0.0061181113 0.6803281 -0.73288214
vn -0.0061181113 0.6803281 -0.73288214
vn 0 0.21043281 -0.9776083
vn 0 0.21043281 -0.9776083
vn 0 0.21043281 -0.9776083
vn 0 0.6757772 -0.73710597
vn 0 0.6757772 -0.73710597
vn 0 0.6757772 -0.73710597
vn 0.06313131 0.14734694 -0.98706806
vn 0.06313131 0.14734694 -0.98706806
vn 0.06313131 0.14734694 -0.98706806
vn 0.0061181313 0.68032813 -0.73288214
vn 0.0061181313 0.68032813 -0.73288214
vn 0.0061181313 0.68032813 -0.73288214
vn 0.38797343 -0.7942362 -0.46761683
vn 0.38797343 -0.7942362 -0.46761683
vn 0.38797343 -0.7942362 -0.46761683
vn 0.014373228 0.69938934 -0.7145964
vn 0.014373228 0.69938934 -0.7145964
vn 0.014373228 0.69938934 -0.7145964
vn 0.08873479 -0.56440145 0.8207176
vn 0.08873479 -0.56440145 0.8207176
vn 0.08873479 -0.56440145 0.8207176
vn 0.032330338 0.77130795 -0.6356405
vn 0.032330338 0.77130795 -0.6356405
vn 0.032330338 0.77130795 -0.6356405
vn 0.030487536 -0.4859072 0.87347853
vn 0.030487536 -0.4859072 0.87347853
vn 0.030487536 -0.4859072 0.87347853
vn 0.10239365 0.62821174 0.7712752
vn 0.10239365 0.62821174 0.7712752
vn 0.10239365 0.62821174 0.7712752
vn -1.7467446E-08 -0.47112682 0.88206553
vn -1.7467446E-08 -0.47112682 0.88206553
vn -1.7467446E-08 -0.47112682 0.88206553
vn -2.414553E-08 -0.2676011 0.9635297
vn -2.414553E-08 -0.2676011 0.9635297
vn -2.414553E-08 -0.2676011 0.9635297
vn -0.03048754 -0.4859072 0.8734785
vn -0.03048754 -0.4859072 0.8734785
vn -0.03048754 -0.4859072 0.8734785
vn -0.102393724 0.62821364 0.7712737
vn -0.102393724 0.62821364 0.7712737
vn -0.102393724 0.62821364 0.7712737
vn -0.08873479 -0.5644014 0.82071745
vn -0.08873479 -0.5644014 0.82071745
vn -0.08873479 -0.5644014 0.82071745
vn -0.032330327 0.77130795 -0.6356405
vn -0.032330327 0.77130795 -0.6356405
vn -0.032330327 0.77130795 -0.6356405
vn -0.35820436 -0.8370239 -0.41361886
vn -0.35820436 -0.8370239 -0.41361886
vn -0.35820436 -0.8370239 -0.41361886
vn 2.4089617E-08 -0.7112525 -0.7029366
vn 2.4089617E-08 -0.7112525 -0.7029366
vn 2.4089617E-08 -0.7112525 -0.7029366
vn 0.3582044 -0.837024 -0.41361868
vn 0.3582044 -0.837024 -0.41361868
vn 0.3582044 -0.837024 -0.41361868
vn 0.35820436 -0.8370239 0.4136189
vn 0.35820436 -0.8370239 0.4136189
vn 0.35820436 -0.8370239 0.4136189
vn -9.635845E-08 -0.71125245 0.7029366
vn -9.635845E-08 -0.71125245 0.7029366
vn -9.635845E-08 -0.71125245 0.7029366
vn -0.35820445 -0.8370241 0.4136186
vn -0.35820445 -0.8370241 0.4136186
vn -0.35820445 -0.8370241 0.4136186
vn -0.3582044 -0.837024 -0.41361883
vn -0.3582044 -0.837024 -0.41361883
vn -0.3582044 -0.837024 -0.41361883
vn 0 -0.7112525 -0.7029366
vn 0 -0.7112525 -0.7029366
vn 0 -0.7112525 -0.7029366
vn 0.3582044 -0.837024 -0.4136187
vn 0.3582044 -0.837024 -0.4136187
vn 0.3582044 -0.837024 -0.4136187
vn 0.35820436 -0.8370239 0.4136189
vn 0.35820436 -0.8370239 0.4136189
vn 0.35820436 -0.8370239 0.4136189
vn -9.635845E-08 -0.71125245 0.7029366
vn -9.635845E-08 -0.71125245 0.7029366
vn -9.635845E-08 -0.71125245 0.7029366
vn -0.35820445 -0.8370241 0.4136186
vn -0.35820445 -0.8370241 0.4136186
vn -0.35820445 -0.8370241 0.4136186
vn -0.35820433 -0.8370239 -0.4136188
vn -0.35820433 -0.8370239 -0.4136188
vn -0.35820433 -0.8370239 -0.4136188
vn 7.2268854E-08 -0.7112525 -0.7029366
vn 7.2268854E-08 -0.7112525 -0.7029366
vn 7.2268854E-08 -0.7112525 -0.7029366
vn 0.3582044 -0.8370239 -0.41361868
vn 0.3582044 -0.8370239 -0.41361868
vn 0.3582044 -0.8370239 -0.41361868
vn 0.35820433 -0.8370239 0.4136189
vn 0.35820433 -0.8370239 0.4136189
vn 0.35820433 -0.8370239 0.4136189
vn -9.635845E-08 -0.71125245 0.7029366
vn -9.635845E-08 -0.71125245 0.7029366
vn -9.635845E-08 -0.71125245 0.7029366
vn -0.35820442 -0.83702403 0.4136186
vn -0.35820442 -0.83702403 0.4136186
vn -0.35820442 -0.83702403 0.4136186
vn 0 -0.7625808 0.6468929
vn 0 -0.7625808 0.6468929
vn 0 -0.7625808 0.6468929
vn 0.6697995 -0.6450254 -0.36784628
vn 0.6697995 -0.6450254 -0.36784628
vn 0.6697995 -0.6450254 -0.36784628
vn 0 -0.9984142 0.05629398
vn 0 -0.9984142 0.05629398
vn 0 -0.9984142 0.05629398
vn 0 -0.7903111 0.6127058
vn 0 -0.7903111 0.6127058
vn 0 -0.7903111 0.6127058
vn 0 -0.9984142 0.05629398
vn 0 -0.9984142 0.05629398
vn 0 -0.9984142 0.05629398
vn 0 -0.79031104 0.6127058
vn 0 -0.79031104 0.6127058
vn 0 -0.79031104 0.6127058
vn 0 -0.9984142 0.05629398
vn 0 -0.9984142 0.05629398
vn 0 -0.9984142 0.05629398
vn 0 -0.7903111 0.6127058
vn 0 -0.7903111 0.6127058
vn 0 -0.7903111 0.6127058
f 1//1 2//2 3//3
f 4//4 5//5 6//6
f 7//7 8//8 9//9
f 10//10 11//11 12//12
f 13//13 14//14 15//15
f 16//16 17//17 18//18
f 19//19 20//20 21//21
f 22//22 23//23 24//24
f 25//25 26//26 27//27
f 28//28 29//29 30//30
f 31//31 32//32 33//33
f 34//34 35//35 36//36
f 37//37 38//38 39//39
f 40//40 41//41 42//42
f 43//43 44//44 45//45
f 46//46 47//47 48//48
f 49//49 50//50 51//51
f 52//52 53//53 54//54
f 55//55 56//56 57//57
f 58//58 59//59 60//60
f 61//61 62//62 63//63
f 64//64 65//65 66//66
f 67//67 68//68 69//69
f 70//70 71//71 72//72
f 73//73 74//74 75//75
f 76//76 77//77 78//78
f 79//79 80//80 81//81
f 82//82 83//83 84//84
f 85//85 86//86 87//87
f 88//88 89//89 90//90
f 91//91 92//92 93//93
f 94//94 95//95 96//96
f 97//97 98//98 99//99
f 100//100 101//101 102//102
f 103//103 104//104 105//105
f 106//106 107//107 108//108
f 109//109 110//110 111//111
f 112//112 113//113 114//114
f 115//115 116//116 117//117
f 118//118 119//119 120//120
f 121//121 122//122 123//123
f 124//124 125//125 126//126
f 127//127 128//128 129//129
f 130//130 131//131 132//132
f 133//133 134//134 135//135
f 136//136 137//137 138//138
