# Exported from SharpOpenGl procedural mesh
o hero_default
# vertices 138
v 1.3641338 0.33319783 0.32394177
v 1.1036074 0.45070708 0.5048295
v 0 1.1328727 0.8098544
v 1.3641338 0.33319783 0.32394177
v 0 0.066639565 0
v 1.1036074 0.45070708 0.5048295
v 1.1036074 0.45070708 0.5048295
v 0.4215405 0.5233318 0.61662436
v 0 1.1328727 0.8098544
v 1.1036074 0.45070708 0.5048295
v 0 0.066639565 0
v 0.4215405 0.5233318 0.61662436
v 0.4215405 0.5233318 0.61662436
v -0.4215406 0.5233318 0.61662436
v 0 1.1328727 0.8098544
v 0.4215405 0.5233318 0.61662436
v 0 0.066639565 0
v -0.4215406 0.5233318 0.61662436
v -0.4215406 0.5233318 0.61662436
v -1.1036075 0.45070708 0.5048295
v 0 1.1328727 0.8098544
v -0.4215406 0.5233318 0.61662436
v 0 0.066639565 0
v -1.1036075 0.45070708 0.5048295
v -1.1036075 0.45070708 0.5048295
v -1.3641338 0.3331978 0.32394174
v 0 1.1328727 0.8098544
v -1.1036075 0.45070708 0.5048295
v 0 0.066639565 0
v -1.3641338 0.3331978 0.32394174
v -1.3641338 0.3331978 0.32394174
v -1.1036074 0.21568854 0.14305395
v 0 1.1328727 0.8098544
v -1.3641338 0.3331978 0.32394174
v 0 0.066639565 0
v -1.1036074 0.21568854 0.14305395
v -1.1036074 0.21568854 0.14305395
v -0.42154005 0.14306383 0.03125915
v 0 1.1328727 0.8098544
v -1.1036074 0.21568854 0.14305395
v 0 0.066639565 0
v -0.42154005 0.14306383 0.03125915
v -0.42154005 0.14306383 0.03125915
v 0.4215407 0.14306384 0.03125921
v 0 1.1328727 0.8098544
v -0.42154005 0.14306383 0.03125915
v 0 0.066639565 0
v 0.4215407 0.14306384 0.03125921
v 0.4215407 0.14306384 0.03125921
v 1.1036074 0.21568856 0.14305396
v 0 1.1328727 0.8098544
v 0.4215407 0.14306384 0.03125921
v 0 0.066639565 0
v 1.1036074 0.21568856 0.14305396
v 1.1036074 0.21568856 0.14305396
v 1.3641338 0.33319786 0.32394183
v 0 1.1328727 0.8098544
v 1.1036074 0.21568856 0.14305396
v 0 0.066639565 0
v 1.3641338 0.33319786 0.32394183
v -1.2342163 0.8396585 -0.48591265
v -0.6495875 0.46647695 -0.48591265
v -0.9419019 0.46647695 -0.23276094
v -1.2342163 0.8396585 -0.48591265
v -0.9419019 0.46647695 -0.23276094
v -1.5265307 0.46647695 -0.23276094
v -1.2342163 0.8396585 -0.48591265
v -1.5265307 0.46647695 -0.23276094
v -1.8188452 0.46647695 -0.48591268
v -1.2342163 0.8396585 -0.48591265
v -1.8188452 0.46647695 -0.48591268
v -1.5265307 0.46647695 -0.73906434
v -1.2342163 0.8396585 -0.48591265
v -1.5265307 0.46647695 -0.73906434
v -0.9419017 0.46647695 -0.73906434
v -1.2342163 0.8396585 -0.48591265
v -0.9419017 0.46647695 -0.73906434
v -0.6495875 0.46647695 -0.4859126
v 0 0.8396585 0.24295637
v 0.5846288 0.46647695 0.24295637
v 0.29231438 0.46647695 0.49610808
v 0 0.8396585 0.24295637
v 0.29231438 0.46647695 0.49610808
v -0.29231444 0.46647695 0.49610808
v 0 0.8396585 0.24295637
v -0.29231444 0.46647695 0.49610808
v -0.5846288 0.46647695 0.24295634
v 0 0.8396585 0.24295637
v -0.5846288 0.46647695 0.24295634
v -0.29231435 0.46647695 -0.010195345
v 0 0.8396585 0.24295637
v -0.29231435 0.46647695 -0.010195345
v 0.29231462 0.46647695 -0.010195285
v 0 0.8396585 0.24295637
v 0.29231462 0.46647695 -0.010195285
v 0.5846288 0.46647695 0.24295641
v 1.2342163 0.8396585 0.97182536
v 1.8188452 0.46647695 0.97182536
v 1.5265307 0.46647695 1.224977
v 1.2342163 0.8396585 0.97182536
v 1.5265307 0.46647695 1.224977
v 0.9419019 0.46647695 1.224977
v 1.2342163 0.8396585 0.97182536
v 0.9419019 0.46647695 1.224977
v 0.6495875 0.46647695 0.97182536
v 1.2342163 0.8396585 0.97182536
v 0.6495875 0.46647695 0.97182536
v 0.941902 0.46647695 0.71867365
v 1.2342163 0.8396585 0.97182536
v 0.941902 0.46647695 0.71867365
v 1.526531 0.46647695 0.7186737
v 1.2342163 0.8396585 0.97182536
v 1.526531 0.46647695 0.7186737
v 1.8188452 0.46647695 0.9718254
v 0 0.73303527 2.2270997
v -0.71454626 0.26655826 1.4172451
v 0.71454626 0.26655826 1.4172451
v 0 0.73303527 2.2270997
v 0 0.46647695 2.915476
v -0.3897525 0.33319783 1.7006942
v -1.0826459 0.07898022 -2.8528965
v -1.5280774 0 -3.8328457
v -0.6372144 0 -3.8328457
v -1.0826459 0.32579345 -2.6301808
v -1.3499048 0.07898022 -2.8528965
v -0.815387 0.07898022 -2.8528965
v 0 0.07898022 -2.8528965
v -0.44543147 0 -3.8328457
v 0.44543147 0 -3.8328457
v 0 0.32579345 -2.6301808
v -0.26725888 0.07898022 -2.8528965
v 0.26725888 0.07898022 -2.8528965
v 1.0826459 0.07898022 -2.8528965
v 0.6372144 0 -3.8328457
v 1.5280774 0 -3.8328457
v 1.0826459 0.32579345 -2.6301808
v 0.815387 0.07898022 -2.8528965
v 1.3499048 0.07898022 -2.8528965
vn -0.56035805 -0.7690702 -0.30745706
vn -0.56035805 -0.7690702 -0.30745706
vn -0.56035805 -0.7690702 -0.30745706
vn -0.025177907 0.82136726 -0.56984377
vn -0.025177907 0.82136726 -0.56984377
vn -0.025177907 0.82136726 -0.56984377
vn -0.13594651 0.21272424 -0.9676089
vn -0.13594651 0.21272424 -0.9676089
vn -0.13594651 0.21272424 -0.9676089
vn -0.010825871 0.807077 -0.5903469
vn -0.010825871 0.807077 -0.5903469
vn -0.010825871 0.807077 -0.5903469
vn 0 0.3021884 -0.9532482
vn 0 0.3021884 -0.9532482
vn 0 0.3021884 -0.9532482
vn 0 0.8035987 -0.5951716
vn 0 0.8035987 -0.5951716
vn 0 0.8035987 -0.5951716
vn 0.13594653 0.21272424 -0.9676089
vn 0.13594653 0.21272424 -0.9676089
vn 0.13594653 0.21272424 -0.9676089
vn 0.010825877 0.807077 -0.5903469
vn 0.010825877 0.807077 -0.5903469
vn 0.010825877 0.807077 -0.5903469
vn 0.560358 -0.7690706 -0.30745614
vn 0.560358 -0.7690706 -0.30745614
vn 0.560358 -0.7690706 -0.30745614
vn 0.025177907 0.82136726 -0.56984377
vn 0.025177907 0.82136726 -0.56984377
vn 0.025177907 0.82136726 -0.56984377
vn 0.16459447 -0.70187926 0.6930182
vn 0.16459447 -0.70187926 0.6930182
vn 0.16459447 -0.70187926 0.6930182
vn 0.054479178 0.8713671 -0.48759755
vn 0.054479178 0.8713671 -0.48759755
vn 0.054479178 0.8713671 -0.48759755
vn 0.059205804 -0.6326279 0.7721895
vn 0.059205804 -0.6326279 0.7721895
vn 0.059205804 -0.6326279 0.7721895
vn 0.1835655 0.7550522 0.6294441
vn 0.1835655 0.7550522 0.6294441
vn 0.1835655 0.7550522 0.6294441
vn -4.4639897E-08 -0.6182575 0.7859756
vn -4.4639897E-08 -0.6182575 0.7859756
vn -4.4639897E-08 -0.6182575 0.7859756
vn -5.8745243E-08 -0.3785779 0.9255694
vn -5.8745243E-08 -0.3785779 0.9255694
vn -5.8745243E-08 -0.3785779 0.9255694
vn -0.05920582 -0.6326279 0.7721895
vn -0.05920582 -0.6326279 0.7721895
vn -0.05920582 -0.6326279 0.7721895
vn -0.18356547 0.75505406 0.62944186
vn -0.18356547 0.75505406 0.62944186
vn -0.18356547 0.75505406 0.62944186
vn -0.1645945 -0.7018792 0.6930181
vn -0.1645945 -0.7018792 0.6930181
vn -0.1645945 -0.7018792 0.6930181
vn -0.054479174 0.87136716 -0.48759755
vn -0.054479174 0.87136716 -0.48759755
vn -0.054479174 0.87136716 -0.48759755
vn -0.4570266 -0.71598107 -0.5277288
vn -0.4570266 -0.71598107 -0.5277288
vn -0.4570266 -0.71598107 -0.5277288
vn 0 -0.56138206 -0.8275568
vn 0 -0.56138206 -0.8275568
vn 0 -0.56138206 -0.8275568
vn 0.45702663 -0.7159811 -0.5277288
vn 0.45702663 -0.7159811 -0.5277288
vn 0.45702663 -0.7159811 -0.5277288
vn 0.45702657 -0.71598107 0.5277289
vn 0.45702657 -0.71598107 0.5277289
vn 0.45702657 -0.71598107 0.5277289
vn 0 -0.561382 0.8275568
vn 0 -0.561382 0.8275568
vn 0 -0.561382 0.8275568
vn -0.45702672 -0.7159812 0.5277285
vn -0.45702672 -0.7159812 0.5277285
vn -0.45702672 -0.7159812 0.5277285
vn -0.4570266 -0.71598107 -0.52772886
vn -0.4570266 -0.71598107 -0.52772886
vn -0.4570266 -0.71598107 -0.52772886
vn 0 -0.56138206 -0.82755685
vn 0 -0.56138206 -0.82755685
vn 0 -0.56138206 -0.82755685
vn 0.45702663 -0.7159811 -0.52772874
vn 0.45702663 -0.7159811 -0.52772874
vn 0.45702663 -0.7159811 -0.52772874
vn 0.4570266 -0.71598107 0.527729
vn 0.4570266 -0.71598107 0.527729
vn 0.4570266 -0.71598107 0.527729
vn -8.478298E-08 -0.561382 0.8275568
vn -8.478298E-08 -0.561382 0.8275568
vn -8.478298E-08 -0.561382 0.8275568
vn -0.45702675 -0.7159812 0.5277286
vn -0.45702675 -0.7159812 0.5277286
vn -0.45702675 -0.7159812 0.5277286
vn -0.45702657 -0.715981 -0.5277289
vn -0.45702657 -0.715981 -0.5277289
vn -0.45702657 -0.715981 -0.5277289
vn 0 -0.56138194 -0.8275568
vn 0 -0.56138194 -0.8275568
vn 0 -0.56138194 -0.8275568
vn 0.45702657 -0.715981 -0.5277289
vn 0.45702657 -0.715981 -0.5277289
vn 0.45702657 -0.715981 -0.5277289
vn 0.4570266 -0.71598107 0.5277289
vn 0.4570266 -0.71598107 0.5277289
vn 0.4570266 -0.71598107 0.5277289
vn -8.478298E-08 -0.56138206 0.82755685
vn -8.478298E-08 -0.56138206 0.82755685
vn -8.478298E-08 -0.56138206 0.82755685
vn -0.45702678 -0.7159812 0.52772856
vn -0.45702678 -0.7159812 0.52772856
vn -0.45702678 -0.7159812 0.52772856
vn 0 -0.8665312 0.49912286
vn 0 -0.8665312 0.49912286
vn 0 -0.8665312 0.49912286
vn 0.8221773 -0.53082377 -0.2055496
vn 0.8221773 -0.53082377 -0.2055496
vn 0.8221773 -0.53082377 -0.2055496
vn 0 -0.9967679 0.08033575
vn 0 -0.9967679 0.08033575
vn 0 -0.9967679 0.08033575
vn 0 -0.6699342 0.7424204
vn 0 -0.6699342 0.7424204
vn 0 -0.6699342 0.7424204
vn 0 -0.9967679 0.08033575
vn 0 -0.9967679 0.08033575
vn 0 -0.9967679 0.08033575
vn 0 -0.6699342 0.7424204
vn 0 -0.6699342 0.7424204
vn 0 -0.6699342 0.7424204
vn 0 -0.9967679 0.08033575
vn 0 -0.9967679 0.08033575
vn 0 -0.9967679 0.08033575
vn 0 -0.6699342 0.7424204
vn 0 -0.6699342 0.7424204
vn 0 -0.6699342 0.7424204
f 1//1 2//2 3//3
f 4//4 5//5 6//6
f 7//7 8//8 9//9
f 10//10 11//11 12//12
f 13//13 14//14 15//15
f 16//16 17//17 18//18
f 19//19 20//20 21//21
f 22//22 23//23 24//24
f 25//25 26//26 27//27
f 28//28 29//29 30//30
f 31//31 32//32 33//33
f 34//34 35//35 36//36
f 37//37 38//38 39//39
f 40//40 41//41 42//42
f 43//43 44//44 45//45
f 46//46 47//47 48//48
f 49//49 50//50 51//51
f 52//52 53//53 54//54
f 55//55 56//56 57//57
f 58//58 59//59 60//60
f 61//61 62//62 63//63
f 64//64 65//65 66//66
f 67//67 68//68 69//69
f 70//70 71//71 72//72
f 73//73 74//74 75//75
f 76//76 77//77 78//78
f 79//79 80//80 81//81
f 82//82 83//83 84//84
f 85//85 86//86 87//87
f 88//88 89//89 90//90
f 91//91 92//92 93//93
f 94//94 95//95 96//96
f 97//97 98//98 99//99
f 100//100 101//101 102//102
f 103//103 104//104 105//105
f 106//106 107//107 108//108
f 109//109 110//110 111//111
f 112//112 113//113 114//114
f 115//115 116//116 117//117
f 118//118 119//119 120//120
f 121//121 122//122 123//123
f 124//124 125//125 126//126
f 127//127 128//128 129//129
f 130//130 131//131 132//132
f 133//133 134//134 135//135
f 136//136 137//137 138//138
