# Exported from SharpOpenGl procedural mesh
o interceptor_mk2
# vertices 138
v 0.5258283 0.10726773 0.153569
v 0.42540404 0.14509797 0.2393213
v 0 0.3647103 0.38392252
v 0.5258283 0.10726773 0.153569
v 0 0.021453546 0
v 0.42540404 0.14509797 0.2393213
v 0.42540404 0.14509797 0.2393213
v 0.16248988 0.16847834 0.29231918
v 0 0.3647103 0.38392252
v 0.42540404 0.14509797 0.2393213
v 0 0.021453546 0
v 0.16248988 0.16847834 0.29231918
v 0.16248988 0.16847834 0.29231918
v -0.1624899 0.16847834 0.29231915
v 0 0.3647103 0.38392252
v 0.16248988 0.16847834 0.29231918
v 0 0.021453546 0
v -0.1624899 0.16847834 0.29231915
v -0.1624899 0.16847834 0.29231915
v -0.42540407 0.14509796 0.23932129
v 0 0.3647103 0.38392252
v -0.1624899 0.16847834 0.29231915
v 0 0.021453546 0
v -0.42540407 0.14509796 0.23932129
v -0.42540407 0.14509796 0.23932129
v -0.5258283 0.10726772 0.15356898
v 0 0.3647103 0.38392252
v -0.42540407 0.14509796 0.23932129
v 0 0.021453546 0
v -0.5258283 0.10726772 0.15356898
v -0.5258283 0.10726772 0.15356898
v -0.425404 0.06943749 0.06781667
v 0 0.3647103 0.38392252
v -0.5258283 0.10726772 0.15356898
v 0 0.021453546 0
v -0.425404 0.06943749 0.06781667
v -0.425404 0.06943749 0.06781667
v -0.1624897 0.046057116 0.014818817
v 0 0.3647103 0.38392252
v -0.425404 0.06943749 0.06781667
v 0 0.021453546 0
v -0.1624897 0.046057116 0.014818817
v -0.1624897 0.046057116 0.014818817
v 0.16248995 0.046057124 0.014818847
v 0 0.3647103 0.38392252
v -0.1624897 0.046057116 0.014818817
v 0 0.021453546 0
v 0.16248995 0.046057124 0.014818847
v 0.16248995 0.046057124 0.014818847
v 0.425404 0.06943749 0.067816675
v 0 0.3647103 0.38392252
v 0.16248995 0.046057124 0.014818847
v 0 0.021453546 0
v 0.425404 0.06943749 0.067816675
v 0.425404 0.06943749 0.067816675
v 0.5258283 0.107267745 0.15356903
v 0 0.3647103 0.38392252
v 0.425404 0.06943749 0.067816675
v 0 0.021453546 0
v 0.5258283 0.107267745 0.15356903
v -0.47574943 0.2703147 -0.2303535
v -0.25039443 0.15017483 -0.2303535
v -0.36307195 0.15017483 -0.13277192
v -0.47574943 0.2703147 -0.2303535
v -0.36307195 0.15017483 -0.13277192
v -0.58842695 0.15017483 -0.13277194
v -0.47574943 0.2703147 -0.2303535
v -0.58842695 0.15017483 -0.13277194
v -0.7011044 0.15017483 -0.23035352
v -0.47574943 0.2703147 -0.2303535
v -0.7011044 0.15017483 -0.23035352
v -0.5884269 0.15017483 -0.3279351
v -0.47574943 0.2703147 -0.2303535
v -0.5884269 0.15017483 -0.3279351
v -0.36307186 0.15017483 -0.32793507
v -0.47574943 0.2703147 -0.2303535
v -0.36307186 0.15017483 -0.32793507
v -0.25039443 0.15017483 -0.23035349
v 0 0.2703147 0.11517677
v 0.225355 0.15017483 0.11517677
v 0.11267749 0.15017483 0.21275835
v 0 0.2703147 0.11517677
v 0.11267749 0.15017483 0.21275835
v -0.112677515 0.15017483 0.21275833
v 0 0.2703147 0.11517677
v -0.112677515 0.15017483 0.21275833
v -0.225355 0.15017483 0.11517676
v 0 0.2703147 0.11517677
v -0.225355 0.15017483 0.11517676
v -0.11267748 0.15017483 0.017595187
v 0 0.2703147 0.11517677
v -0.11267748 0.15017483 0.017595187
v 0.11267758 0.15017483 0.01759521
v 0 0.2703147 0.11517677
v 0.11267758 0.15017483 0.01759521
v 0.225355 0.15017483 0.11517679
v 0.47574943 0.2703147 0.46070704
v 0.7011044 0.15017483 0.46070704
v 0.58842695 0.15017483 0.55828863
v 0.47574943 0.2703147 0.46070704
v 0.58842695 0.15017483 0.55828863
v 0.36307192 0.15017483 0.55828863
v 0.47574943 0.2703147 0.46070704
v 0.36307192 0.15017483 0.55828863
v 0.25039443 0.15017483 0.46070704
v 0.47574943 0.2703147 0.46070704
v 0.25039443 0.15017483 0.46070704
v 0.36307195 0.15017483 0.36312544
v 0.47574943 0.2703147 0.46070704
v 0.36307195 0.15017483 0.36312544
v 0.588427 0.15017483 0.36312547
v 0.47574943 0.2703147 0.46070704
v 0.588427 0.15017483 0.36312547
v 0.7011044 0.15017483 0.46070707
v 0 0.235989 1.055787
v -0.27543387 0.085814185 0.6718644
v 0.27543387 0.085814185 0.6718644
v 0 0.235989 1.055787
v 0 0.15017483 1.3821211
v -0.15023667 0.10726773 0.8062372
v -0.4173241 0.025426423 -1.3524543
v -0.54609835 0 -1.6357577
v -0.2885498 0 -1.6357577
v -0.4173241 0.104884 -1.2880671
v -0.49458867 0.025426423 -1.3524543
v -0.34005952 0.025426423 -1.3524543
v 0 0.025426423 -1.3524543
v -0.12877429 0 -1.6357577
v 0.12877429 0 -1.6357577
v 0 0.104884 -1.2880671
v -0.07726458 0.025426423 -1.3524543
v 0.07726458 0.025426423 -1.3524543
v 0.4173241 0.025426423 -1.3524543
v 0.2885498 0 -1.6357577
v 0.54609835 0 -1.6357577
v 0.4173241 0.104884 -1.2880671
v 0.34005952 0.025426423 -1.3524543
v 0.49458867 0.025426423 -1.3524543
vn -0.50640076 -0.83217573 -0.22592415
vn -0.50640076 -0.83217573 -0.22592415
vn -0.50640076 -0.83217573 -0.22592415
vn -0.023153407 0.9043843 -0.42609045
vn -0.023153407 0.9043843 -0.42609045
vn -0.023153407 0.9043843 -0.42609045
vn -0.16221285 0.30391645 -0.93878746
vn -0.16221285 0.30391645 -0.93878746
vn -0.16221285 0.30391645 -0.93878746
vn -0.010032737 0.89554954 -0.4448486
vn -0.010032737 0.89554954 -0.4448486
vn -0.010032737 0.89554954 -0.4448486
vn 8.309706E-08 0.42299333 -0.9061329
vn 8.309706E-08 0.42299333 -0.9061329
vn 8.309706E-08 0.42299333 -0.9061329
vn 4.1205674E-08 0.8933671 -0.44932777
vn 4.1205674E-08 0.8933671 -0.44932777
vn 4.1205674E-08 0.8933671 -0.44932777
vn 0.16221274 0.30391663 -0.93878734
vn 0.16221274 0.30391663 -0.93878734
vn 0.16221274 0.30391663 -0.93878734
vn 0.010032679 0.89554954 -0.4448487
vn 0.010032679 0.89554954 -0.4448487
vn 0.010032679 0.89554954 -0.4448487
vn 0.5064008 -0.83217573 -0.22592403
vn 0.5064008 -0.83217573 -0.22592403
vn 0.5064008 -0.83217573 -0.22592403
vn 0.023153424 0.90438426 -0.4260904
vn 0.023153424 0.90438426 -0.4260904
vn 0.023153424 0.90438426 -0.4260904
vn 0.16056006 -0.81979394 0.5496893
vn 0.16056006 -0.81979394 0.5496893
vn 0.16056006 -0.81979394 0.5496893
vn 0.048753157 0.93367004 -0.3548004
vn 0.048753157 0.93367004 -0.3548004
vn 0.048753157 0.93367004 -0.3548004
vn 0.060067885 -0.7685044 0.63701874
vn 0.060067885 -0.7685044 0.63701874
vn 0.060067885 -0.7685044 0.63701874
vn 0.17400008 0.8569508 0.48513824
vn 0.17400008 0.8569508 0.48513824
vn 0.17400008 0.8569508 0.48513824
vn -4.257371E-08 -0.7569429 0.65348107
vn -4.257371E-08 -0.7569429 0.65348107
vn -4.257371E-08 -0.7569429 0.65348107
vn -6.672785E-08 -0.51594627 0.8566209
vn -6.672785E-08 -0.51594627 0.8566209
vn -6.672785E-08 -0.51594627 0.8566209
vn -0.06006789 -0.7685044 0.6370187
vn -0.06006789 -0.7685044 0.6370187
vn -0.06006789 -0.7685044 0.6370187
vn -0.17399994 0.8569517 0.48513672
vn -0.17399994 0.8569517 0.48513672
vn -0.17399994 0.8569517 0.48513672
vn -0.16056007 -0.819794 0.5496893
vn -0.16056007 -0.819794 0.5496893
vn -0.16056007 -0.819794 0.5496893
vn -0.048753142 0.9336699 -0.35480046
vn -0.048753142 0.9336699 -0.35480046
vn -0.048753142 0.9336699 -0.35480046
vn -0.41338363 -0.7754134 -0.47733432
vn -0.41338363 -0.7754134 -0.47733432
vn -0.41338363 -0.7754134 -0.47733432
vn 5.3402065E-08 -0.6304679 -0.77621543
vn 5.3402065E-08 -0.6304679 -0.77621543
vn 5.3402065E-08 -0.6304679 -0.77621543
vn 0.41338372 -0.77541345 -0.47733417
vn 0.41338372 -0.77541345 -0.47733417
vn 0.41338372 -0.77541345 -0.47733417
vn 0.41338366 -0.7754134 0.47733435
vn 0.41338366 -0.7754134 0.47733435
vn 0.41338366 -0.7754134 0.47733435
vn -1.068041E-07 -0.63046783 0.7762154
vn -1.068041E-07 -0.63046783 0.7762154
vn -1.068041E-07 -0.63046783 0.7762154
vn -0.41338372 -0.7754135 0.47733402
vn -0.41338372 -0.7754135 0.47733402
vn -0.41338372 -0.7754135 0.47733402
vn -0.41338363 -0.7754134 -0.4773343
vn -0.41338363 -0.7754134 -0.4773343
vn -0.41338363 -0.7754134 -0.4773343
vn 5.3402058E-08 -0.6304678 -0.7762154
vn 5.3402058E-08 -0.6304678 -0.7762154
vn 5.3402058E-08 -0.6304678 -0.7762154
vn 0.41338366 -0.77541345 -0.4773343
vn 0.41338366 -0.77541345 -0.4773343
vn 0.41338366 -0.77541345 -0.4773343
vn 0.41338357 -0.7754134 0.47733435
vn 0.41338357 -0.7754134 0.47733435
vn 0.41338357 -0.7754134 0.47733435
vn -8.010308E-08 -0.63046783 0.77621543
vn -8.010308E-08 -0.63046783 0.77621543
vn -8.010308E-08 -0.63046783 0.77621543
vn -0.41338375 -0.7754135 0.47733405
vn -0.41338375 -0.7754135 0.47733405
vn -0.41338375 -0.7754135 0.47733405
vn -0.41338372 -0.77541345 -0.4773341
vn -0.41338372 -0.77541345 -0.4773341
vn -0.41338372 -0.77541345 -0.4773341
vn 0 -0.63046795 -0.7762153
vn 0 -0.63046795 -0.7762153
vn 0 -0.63046795 -0.7762153
vn 0.41338363 -0.77541345 -0.47733414
vn 0.41338363 -0.77541345 -0.47733414
vn 0.41338363 -0.77541345 -0.47733414
vn 0.41338363 -0.77541345 0.47733426
vn 0.41338363 -0.77541345 0.47733426
vn 0.41338363 -0.77541345 0.47733426
vn -1.06804094E-07 -0.6304679 0.7762154
vn -1.06804094E-07 -0.6304679 0.7762154
vn -1.06804094E-07 -0.6304679 0.7762154
vn -0.41338378 -0.7754135 0.4773339
vn -0.41338378 -0.7754135 0.4773339
vn -0.41338378 -0.7754135 0.4773339
vn 0 -0.9312886 0.36428204
vn 0 -0.9312886 0.36428204
vn 0 -0.9312886 0.36428204
vn 0.78112525 -0.6038453 -0.15878968
vn 0.78112525 -0.6038453 -0.15878968
vn 0.78112525 -0.6038453 -0.15878968
vn 0 -0.9959966 0.0893905
vn 0 -0.9959966 0.0893905
vn 0 -0.9959966 0.0893905
vn 0 -0.62957865 0.7769368
vn 0 -0.62957865 0.7769368
vn 0 -0.62957865 0.7769368
vn 0 -0.99599665 0.08939051
vn 0 -0.99599665 0.08939051
vn 0 -0.99599665 0.08939051
vn 0 -0.62957865 0.7769368
vn 0 -0.62957865 0.7769368
vn 0 -0.62957865 0.7769368
vn 0 -0.9959966 0.0893905
vn 0 -0.9959966 0.0893905
vn 0 -0.9959966 0.0893905
vn 0 -0.62957865 0.7769368
vn 0 -0.62957865 0.7769368
vn 0 -0.62957865 0.7769368
f 1//1 2//2 3//3
f 4//4 5//5 6//6
f 7//7 8//8 9//9
f 10//10 11//11 12//12
f 13//13 14//14 15//15
f 16//16 17//17 18//18
f 19//19 20//20 21//21
f 22//22 23//23 24//24
f 25//25 26//26 27//27
f 28//28 29//29 30//30
f 31//31 32//32 33//33
f 34//34 35//35 36//36
f 37//37 38//38 39//39
f 40//40 41//41 42//42
f 43//43 44//44 45//45
f 46//46 47//47 48//48
f 49//49 50//50 51//51
f 52//52 53//53 54//54
f 55//55 56//56 57//57
f 58//58 59//59 60//60
f 61//61 62//62 63//63
f 64//64 65//65 66//66
f 67//67 68//68 69//69
f 70//70 71//71 72//72
f 73//73 74//74 75//75
f 76//76 77//77 78//78
f 79//79 80//80 81//81
f 82//82 83//83 84//84
f 85//85 86//86 87//87
f 88//88 89//89 90//90
f 91//91 92//92 93//93
f 94//94 95//95 96//96
f 97//97 98//98 99//99
f 100//100 101//101 102//102
f 103//103 104//104 105//105
f 106//106 107//107 108//108
f 109//109 110//110 111//111
f 112//112 113//113 114//114
f 115//115 116//116 117//117
f 118//118 119//119 120//120
f 121//121 122//122 123//123
f 124//124 125//125 126//126
f 127//127 128//128 129//129
f 130//130 131//131 132//132
f 133//133 134//134 135//135
f 136//136 137//137 138//138
