# Exported from SharpOpenGl procedural mesh
o transport_cargo
# vertices 165
v 1.8822302 0.33416978 0.23880582
v 1.5227562 0.4520218 0.37215403
v 0 1.1361773 0.59701455
v 1.8822302 0.33416978 0.23880582
v 0 0.06683396 0
v 1.5227562 0.4520218 0.37215403
v 1.5227562 0.4520218 0.37215403
v 0.5816411 0.5248584 0.45456776
v 0 1.1361773 0.59701455
v 1.5227562 0.4520218 0.37215403
v 0 0.06683396 0
v 0.5816411 0.5248584 0.45456776
v 0.5816411 0.5248584 0.45456776
v -0.5816412 0.52485836 0.45456773
v 0 1.1361773 0.59701455
v 0.5816411 0.5248584 0.45456776
v 0 0.06683396 0
v -0.5816412 0.52485836 0.45456773
v -0.5816412 0.52485836 0.45456773
v -1.5227563 0.4520218 0.37215403
v 0 1.1361773 0.59701455
v -0.5816412 0.52485836 0.45456773
v 0 0.06683396 0
v -1.5227563 0.4520218 0.37215403
v -1.5227563 0.4520218 0.37215403
v -1.8822302 0.33416975 0.2388058
v 0 1.1361773 0.59701455
v -1.5227563 0.4520218 0.37215403
v 0 0.06683396 0
v -1.8822302 0.33416975 0.2388058
v -1.8822302 0.33416975 0.2388058
v -1.5227561 0.21631771 0.105457574
v 0 1.1361773 0.59701455
v -1.8822302 0.33416975 0.2388058
v 0 0.06683396 0
v -1.5227561 0.21631771 0.105457574
v -1.5227561 0.21631771 0.105457574
v -0.5816404 0.14348114 0.02304387
v 0 1.1361773 0.59701455
v -1.5227561 0.21631771 0.105457574
v 0 0.06683396 0
v -0.5816404 0.14348114 0.02304387
v -0.5816404 0.14348114 0.02304387
v 0.5816414 0.14348118 0.023043886
v 0 1.1361773 0.59701455
v -0.5816404 0.14348114 0.02304387
v 0 0.06683396 0
v 0.5816414 0.14348118 0.023043886
v 0.5816414 0.14348118 0.023043886
v 1.5227561 0.21631771 0.10545759
v 0 1.1361773 0.59701455
v 0.5816414 0.14348118 0.023043886
v 0 0.06683396 0
v 1.5227561 0.21631771 0.10545759
v 1.5227561 0.21631771 0.10545759
v 1.8822302 0.3341698 0.23880586
v 0 1.1361773 0.59701455
v 1.5227561 0.21631771 0.10545759
v 0 0.06683396 0
v 1.8822302 0.3341698 0.23880586
v -2.5544553 0.84210783 -0.35820875
v -1.7477851 0.4678377 -0.35820875
v -2.1511202 0.4678377 -0.008910328
v -2.5544553 0.84210783 -0.35820875
v -2.1511202 0.4678377 -0.008910328
v -2.9577904 0.4678377 -0.008910328
v -2.5544553 0.84210783 -0.35820875
v -2.9577904 0.4678377 -0.008910328
v -3.3611255 0.4678377 -0.35820878
v -2.5544553 0.84210783 -0.35820875
v -3.3611255 0.4678377 -0.35820878
v -2.9577904 0.4678377 -0.70750713
v -2.5544553 0.84210783 -0.35820875
v -2.9577904 0.4678377 -0.70750713
v -2.15112 0.4678377 -0.7075071
v -2.5544553 0.84210783 -0.35820875
v -2.15112 0.4678377 -0.7075071
v -1.7477851 0.4678377 -0.3582087
v -0.85148513 0.84210783 0.17910442
v -0.044815004 0.4678377 0.17910442
v -0.4481501 0.4678377 0.5284028
v -0.85148513 0.84210783 0.17910442
v -0.4481501 0.4678377 0.5284028
v -1.2548202 0.4678377 0.5284028
v -0.85148513 0.84210783 0.17910442
v -1.2548202 0.4678377 0.5284028
v -1.6581552 0.4678377 0.17910439
v -0.85148513 0.84210783 0.17910442
v -1.6581552 0.4678377 0.17910439
v -1.2548201 0.4678377 -0.170194
v -0.85148513 0.84210783 0.17910442
v -1.2548201 0.4678377 -0.170194
v -0.44814977 0.4678377 -0.17019391
v -0.85148513 0.84210783 0.17910442
v -0.44814977 0.4678377 -0.17019391
v -0.044815004 0.4678377 0.17910449
v 0.85148513 0.84210783 0.71641755
v 1.6581552 0.4678377 0.71641755
v 1.2548201 0.4678377 1.065716
v 0.85148513 0.84210783 0.71641755
v 1.2548201 0.4678377 1.065716
v 0.44815 0.4678377 1.065716
v 0.85148513 0.84210783 0.71641755
v 0.44815 0.4678377 1.065716
v 0.044815004 0.4678377 0.7164175
v 0.85148513 0.84210783 0.71641755
v 0.044815004 0.4678377 0.7164175
v 0.44815013 0.4678377 0.36711913
v 0.85148513 0.84210783 0.71641755
v 0.44815013 0.4678377 0.36711913
v 1.2548205 0.4678377 0.36711922
v 0.85148513 0.84210783 0.71641755
v 1.2548205 0.4678377 0.36711922
v 1.6581552 0.4678377 0.7164176
v 2.5544553 0.84210783 1.2537305
v 3.3611255 0.4678377 1.2537305
v 2.9577904 0.4678377 1.603029
v 2.5544553 0.84210783 1.2537305
v 2.9577904 0.4678377 1.603029
v 2.1511202 0.4678377 1.603029
v 2.5544553 0.84210783 1.2537305
v 2.1511202 0.4678377 1.603029
v 1.7477851 0.4678377 1.2537305
v 2.5544553 0.84210783 1.2537305
v 1.7477851 0.4678377 1.2537305
v 2.1511202 0.4678377 0.9044321
v 2.5544553 0.84210783 1.2537305
v 2.1511202 0.4678377 0.9044321
v 2.9577906 0.4678377 0.9044322
v 2.5544553 0.84210783 1.2537305
v 2.9577906 0.4678377 0.9044322
v 3.3611255 0.4678377 1.2537307
v 0 0.7351735 1.6417902
v -0.98593014 0.26733583 1.0447755
v 0.98593014 0.26733583 1.0447755
v 0 0.7351735 1.6417902
v 0 0.4678377 2.1492527
v -0.53778005 0.33416978 1.2537305
v -1.4938335 0.07921061 -2.1031196
v -2.0572221 0 -3.3425746
v -0.9304449 0 -3.3425746
v -1.4938335 0.32674378 -1.8214253
v -1.8318667 0.07921061 -2.1031196
v -1.1558003 0.07921061 -2.1031196
v 0 0.07921061 -2.1031196
v -0.56338865 0 -3.3425746
v 0.56338865 0 -3.3425746
v 0 0.32674378 -1.8214253
v -0.3380332 0.07921061 -2.1031196
v 0.3380332 0.07921061 -2.1031196
v 1.4938335 0.07921061 -2.1031196
v 0.9304449 0 -3.3425746
v 2.0572221 0 -3.3425746
v 1.4938335 0.32674378 -1.8214253
v 1.1558003 0.07921061 -2.1031196
v 1.8318667 0.07921061 -2.1031196
v -0.9389811 0.3762504 -0.16960642
v -1.2377479 0.13861857 -0.42569217
v -0.6402144 0.13861857 -0.42569217
v 0 0.3762504 -0.46837315
v -0.29876673 0.13861857 -0.72445893
v 0.29876673 0.13861857 -0.72445893
v 0.9389811 0.3762504 -0.7671399
v 0.6402144 0.13861857 -1.0232257
v 1.2377479 0.13861857 -1.0232257
vn -0.42182407 -0.79649425 -0.43319893
vn -0.42182407 -0.79649425 -0.43319893
vn -0.42182407 -0.79649425 -0.43319893
vn -0.016201112 0.7271315 -0.68630695
vn -0.016201112 0.7271315 -0.68630695
vn -0.016201112 0.7271315 -0.68630695
vn -0.07389984 0.15909025 -0.9844943
vn -0.07389984 0.15909025 -0.9844943
vn -0.07389984 0.15909025 -0.9844943
vn -0.006910804 0.7088141 -0.7053615
vn -0.006910804 0.7088141 -0.7053615
vn -0.006910804 0.7088141 -0.7053615
vn 1.3322928E-08 0.22693606 -0.9739096
vn 1.3322928E-08 0.22693606 -0.9739096
vn 1.3322928E-08 0.22693606 -0.9739096
vn -1.7909509E-08 0.7044234 -0.70978
vn -1.7909509E-08 0.7044234 -0.70978
vn -1.7909509E-08 0.7044234 -0.70978
vn 0.07389981 0.15909028 -0.9844944
vn 0.07389981 0.15909028 -0.9844944
vn 0.07389981 0.15909028 -0.9844944
vn 0.0069108135 0.70881414 -0.7053614
vn 0.0069108135 0.70881414 -0.7053614
vn 0.0069108135 0.70881414 -0.7053614
vn 0.42182416 -0.7964948 -0.43319798
vn 0.42182416 -0.7964948 -0.43319798
vn 0.42182416 -0.7964948 -0.43319798
vn 0.0162011 0.7271315 -0.68630695
vn 0.0162011 0.7271315 -0.68630695
vn 0.0162011 0.7271315 -0.68630695
vn 0.10126101 -0.5940735 0.79801184
vn 0.10126101 -0.5940735 0.79801184
vn 0.10126101 -0.5940735 0.79801184
vn 0.036134962 0.79514974 -0.6053356
vn 0.036134962 0.79514974 -0.6053356
vn 0.036134962 0.79514974 -0.6053356
vn 0.03507071 -0.51556057 0.85613513
vn 0.03507071 -0.51556057 0.85613513
vn 0.03507071 -0.51556057 0.85613513
vn 0.116078846 0.65688574 0.7450012
vn 0.116078846 0.65688574 0.7450012
vn 0.116078846 0.65688574 0.7450012
vn 8.1460465E-09 -0.50054747 0.865709
vn 8.1460465E-09 -0.50054747 0.865709
vn 8.1460465E-09 -0.50054747 0.865709
vn -1.2028449E-09 -0.28791773 0.9576551
vn -1.2028449E-09 -0.28791773 0.9576551
vn -1.2028449E-09 -0.28791773 0.9576551
vn -0.035070766 -0.5155607 0.8561351
vn -0.035070766 -0.5155607 0.8561351
vn -0.035070766 -0.5155607 0.8561351
vn -0.11607893 0.6568878 0.74499935
vn -0.11607893 0.6568878 0.74499935
vn -0.11607893 0.6568878 0.74499935
vn -0.10126103 -0.5940734 0.7980119
vn -0.10126103 -0.5940734 0.7980119
vn -0.10126103 -0.5940734 0.7980119
vn -0.036134947 0.79514956 -0.6053357
vn -0.036134947 0.79514956 -0.6053357
vn -0.036134947 0.79514956 -0.6053357
vn -0.37854034 -0.8158738 -0.43710077
vn -0.37854034 -0.8158738 -0.43710077
vn -0.37854034 -0.8158738 -0.43710077
vn 0 -0.68229693 -0.7310751
vn 0 -0.68229693 -0.7310751
vn 0 -0.68229693 -0.7310751
vn 0.37854037 -0.8158738 -0.43710077
vn 0.37854037 -0.8158738 -0.43710077
vn 0.37854037 -0.8158738 -0.43710077
vn 0.3785403 -0.81587386 0.43710083
vn 0.3785403 -0.81587386 0.43710083
vn 0.3785403 -0.81587386 0.43710083
vn -3.608285E-08 -0.68229693 0.73107517
vn -3.608285E-08 -0.68229693 0.73107517
vn -3.608285E-08 -0.68229693 0.73107517
vn -0.3785404 -0.8158739 0.43710062
vn -0.3785404 -0.8158739 0.43710062
vn -0.3785404 -0.8158739 0.43710062
vn -0.37854037 -0.81587386 -0.43710083
vn -0.37854037 -0.81587386 -0.43710083
vn -0.37854037 -0.81587386 -0.43710083
vn 0 -0.68229693 -0.73107517
vn 0 -0.68229693 -0.73107517
vn 0 -0.68229693 -0.73107517
vn 0.37854043 -0.8158738 -0.4371007
vn 0.37854043 -0.8158738 -0.4371007
vn 0.37854043 -0.8158738 -0.4371007
vn 0.37854037 -0.81587386 0.4371008
vn 0.37854037 -0.81587386 0.4371008
vn 0.37854037 -0.81587386 0.4371008
vn -7.216571E-08 -0.68229693 0.73107517
vn -7.216571E-08 -0.68229693 0.73107517
vn -7.216571E-08 -0.68229693 0.73107517
vn -0.37854046 -0.81587386 0.43710056
vn -0.37854046 -0.81587386 0.43710056
vn -0.37854046 -0.81587386 0.43710056
vn -0.3785404 -0.81587386 -0.43710077
vn -0.3785404 -0.81587386 -0.43710077
vn -0.3785404 -0.81587386 -0.43710077
vn 0 -0.682297 -0.7310751
vn 0 -0.682297 -0.7310751
vn 0 -0.682297 -0.7310751
vn 0.3785404 -0.8158739 -0.43710065
vn 0.3785404 -0.8158739 -0.43710065
vn 0.3785404 -0.8158739 -0.43710065
vn 0.37854037 -0.81587374 0.4371009
vn 0.37854037 -0.81587374 0.4371009
vn 0.37854037 -0.81587374 0.4371009
vn -7.216571E-08 -0.68229693 0.73107517
vn -7.216571E-08 -0.68229693 0.73107517
vn -7.216571E-08 -0.68229693 0.73107517
vn -0.3785405 -0.8158739 0.43710056
vn -0.3785405 -0.8158739 0.43710056
vn -0.3785405 -0.8158739 0.43710056
vn -0.37854034 -0.8158739 -0.43710074
vn -0.37854034 -0.8158739 -0.43710074
vn -0.37854034 -0.8158739 -0.43710074
vn 0 -0.682297 -0.73107505
vn 0 -0.682297 -0.73107505
vn 0 -0.682297 -0.73107505
vn 0.37854034 -0.8158739 -0.43710074
vn 0.37854034 -0.8158739 -0.43710074
vn 0.37854034 -0.8158739 -0.43710074
vn 0.37854034 -0.8158738 0.43710077
vn 0.37854034 -0.8158738 0.43710077
vn 0.37854034 -0.8158738 0.43710077
vn -7.21657E-08 -0.68229693 0.73107517
vn -7.21657E-08 -0.68229693 0.73107517
vn -7.21657E-08 -0.68229693 0.73107517
vn -0.37854043 -0.8158739 0.4371006
vn -0.37854043 -0.8158739 0.4371006
vn -0.37854043 -0.8158739 0.4371006
vn 0 -0.78711534 0.616806
vn 0 -0.78711534 0.616806
vn 0 -0.78711534 0.616806
vn 0.70570445 -0.6268426 -0.33022636
vn 0.70570445 -0.6268426 -0.33022636
vn 0.70570445 -0.6268426 -0.33022636
vn 0 -0.99796414 0.0637775
vn 0 -0.99796414 0.0637775
vn 0 -0.99796414 0.0637775
vn 0 -0.7511866 0.66009
vn 0 -0.7511866 0.66009
vn 0 -0.7511866 0.66009
vn 0 -0.99796414 0.06377751
vn 0 -0.99796414 0.06377751
vn 0 -0.99796414 0.06377751
vn 0 -0.7511866 0.66009
vn 0 -0.7511866 0.66009
vn 0 -0.7511866 0.66009
vn 0 -0.99796414 0.0637775
vn 0 -0.99796414 0.0637775
vn 0 -0.99796414 0.0637775
vn 0 -0.7511866 0.66009
vn 0 -0.7511866 0.66009
vn 0 -0.7511866 0.66009
vn 0 -0.73302484 0.6802019
vn 0 -0.73302484 0.6802019
vn 0 -0.73302484 0.6802019
vn 0 -0.7330249 0.6802018
vn 0 -0.7330249 0.6802018
vn 0 -0.7330249 0.6802018
vn 0 -0.73302484 0.6802019
vn 0 -0.73302484 0.6802019
vn 0 -0.73302484 0.6802019
f 1//1 2//2 3//3
f 4//4 5//5 6//6
f 7//7 8//8 9//9
f 10//10 11//11 12//12
f 13//13 14//14 15//15
f 16//16 17//17 18//18
f 19//19 20//20 21//21
f 22//22 23//23 24//24
f 25//25 26//26 27//27
f 28//28 29//29 30//30
f 31//31 32//32 33//33
f 34//34 35//35 36//36
f 37//37 38//38 39//39
f 40//40 41//41 42//42
f 43//43 44//44 45//45
f 46//46 47//47 48//48
f 49//49 50//50 51//51
f 52//52 53//53 54//54
f 55//55 56//56 57//57
f 58//58 59//59 60//60
f 61//61 62//62 63//63
f 64//64 65//65 66//66
f 67//67 68//68 69//69
f 70//70 71//71 72//72
f 73//73 74//74 75//75
f 76//76 77//77 78//78
f 79//79 80//80 81//81
f 82//82 83//83 84//84
f 85//85 86//86 87//87
f 88//88 89//89 90//90
f 91//91 92//92 93//93
f 94//94 95//95 96//96
f 97//97 98//98 99//99
f 100//100 101//101 102//102
f 103//103 104//104 105//105
f 106//106 107//107 108//108
f 109//109 110//110 111//111
f 112//112 113//113 114//114
f 115//115 116//116 117//117
f 118//118 119//119 120//120
f 121//121 122//122 123//123
f 124//124 125//125 126//126
f 127//127 128//128 129//129
f 130//130 131//131 132//132
f 133//133 134//134 135//135
f 136//136 137//137 138//138
f 139//139 140//140 141//141
f 142//142 143//143 144//144
f 145//145 146//146 147//147
f 148//148 149//149 150//150
f 151//151 152//152 153//153
f 154//154 155//155 156//156
f 157//157 158//158 159//159
f 160//160 161//161 162//162
f 163//163 164//164 165//165
