# Exported from SharpOpenGl procedural mesh
o freighter_bulk
# vertices 234
v -5.50358 0 -2.5037563
v 5.50358 0 -2.5037563
v 5.50358 0.80865914 -2.5037563
v -5.50358 0 -2.5037563
v 5.50358 0.80865914 -2.5037563
v -5.50358 0.80865914 -2.5037563
v -5.50358 0 2.2533805
v 5.50358 0.80865914 2.2533805
v 5.50358 0 2.2533805
v -5.50358 0 2.2533805
v -5.50358 0.80865914 2.2533805
v 5.50358 0.80865914 2.2533805
v -5.50358 0 -2.5037563
v -5.50358 0 2.2533805
v 5.50358 0 2.2533805
v -5.50358 0 -2.5037563
v 5.50358 0 2.2533805
v 5.50358 0 -2.5037563
v -5.50358 0.80865914 -2.5037563
v 5.50358 0.80865914 2.2533805
v -5.50358 0.80865914 2.2533805
v -5.50358 0.80865914 -2.5037563
v 5.50358 0.80865914 -2.5037563
v 5.50358 0.80865914 2.2533805
v -5.50358 0 -2.5037563
v -5.50358 0.80865914 -2.5037563
v -5.50358 0.80865914 2.2533805
v -5.50358 0 -2.5037563
v -5.50358 0.80865914 2.2533805
v -5.50358 0 2.2533805
v 5.50358 0 -2.5037563
v 5.50358 0 2.2533805
v 5.50358 0.80865914 2.2533805
v 5.50358 0 -2.5037563
v 5.50358 0.80865914 2.2533805
v 5.50358 0.80865914 -2.5037563
v -3.852506 0.80865914 0.10015025
v 3.852506 0.80865914 0.10015025
v 3.852506 1.3967749 0.10015025
v -3.852506 0.80865914 0.10015025
v 3.852506 1.3967749 0.10015025
v -3.852506 1.3967749 0.10015025
v -3.852506 0.80865914 1.9028548
v 3.852506 1.3967749 1.9028548
v 3.852506 0.80865914 1.9028548
v -3.852506 0.80865914 1.9028548
v -3.852506 1.3967749 1.9028548
v 3.852506 1.3967749 1.9028548
v -3.852506 0.80865914 0.10015025
v -3.852506 0.80865914 1.9028548
v 3.852506 0.80865914 1.9028548
v -3.852506 0.80865914 0.10015025
v 3.852506 0.80865914 1.9028548
v 3.852506 0.80865914 0.10015025
v -3.852506 1.3967749 0.10015025
v 3.852506 1.3967749 1.9028548
v -3.852506 1.3967749 1.9028548
v -3.852506 1.3967749 0.10015025
v 3.852506 1.3967749 0.10015025
v 3.852506 1.3967749 1.9028548
v -3.852506 0.80865914 0.10015025
v -3.852506 1.3967749 0.10015025
v -3.852506 1.3967749 1.9028548
v -3.852506 0.80865914 0.10015025
v -3.852506 1.3967749 1.9028548
v -3.852506 0.80865914 1.9028548
v 3.852506 0.80865914 0.10015025
v 3.852506 0.80865914 1.9028548
v 3.852506 1.3967749 1.9028548
v 3.852506 0.80865914 0.10015025
v 3.852506 1.3967749 1.9028548
v 3.852506 1.3967749 0.10015025
v -2.4215753 1.3967749 0.6009015
v 2.4215753 1.3967749 0.6009015
v 2.4215753 1.8378617 0.6009015
v -2.4215753 1.3967749 0.6009015
v 2.4215753 1.8378617 0.6009015
v -2.4215753 1.8378617 0.6009015
v -2.4215753 1.3967749 1.4021035
v 2.4215753 1.8378617 1.4021035
v 2.4215753 1.3967749 1.4021035
v -2.4215753 1.3967749 1.4021035
v -2.4215753 1.8378617 1.4021035
v 2.4215753 1.8378617 1.4021035
v -2.4215753 1.3967749 0.6009015
v -2.4215753 1.3967749 1.4021035
v 2.4215753 1.3967749 1.4021035
v -2.4215753 1.3967749 0.6009015
v 2.4215753 1.3967749 1.4021035
v 2.4215753 1.3967749 0.6009015
v -2.4215753 1.8378617 0.6009015
v 2.4215753 1.8378617 1.4021035
v -2.4215753 1.8378617 1.4021035
v -2.4215753 1.8378617 0.6009015
v 2.4215753 1.8378617 0.6009015
v 2.4215753 1.8378617 1.4021035
v -2.4215753 1.3967749 0.6009015
v -2.4215753 1.8378617 0.6009015
v -2.4215753 1.8378617 1.4021035
v -2.4215753 1.3967749 0.6009015
v -2.4215753 1.8378617 1.4021035
v -2.4215753 1.3967749 1.4021035
v 2.4215753 1.3967749 0.6009015
v 2.4215753 1.3967749 1.4021035
v 2.4215753 1.8378617 1.4021035
v 2.4215753 1.3967749 0.6009015
v 2.4215753 1.8378617 1.4021035
v 2.4215753 1.8378617 0.6009015
v -6.8244395 0.29405788 -0.400601
v -4.1827207 0.29405788 -0.400601
v -4.1827207 0.7351447 -0.400601
v -6.8244395 0.29405788 -0.400601
v -4.1827207 0.7351447 -0.400601
v -6.8244395 0.7351447 -0.400601
v -6.8244395 0.29405788 0.6009015
v -4.1827207 0.7351447 0.6009015
v -4.1827207 0.29405788 0.6009015
v -6.8244395 0.29405788 0.6009015
v -6.8244395 0.7351447 0.6009015
v -4.1827207 0.7351447 0.6009015
v -6.8244395 0.29405788 -0.400601
v -6.8244395 0.29405788 0.6009015
v -4.1827207 0.29405788 0.6009015
v -6.8244395 0.29405788 -0.400601
v -4.1827207 0.29405788 0.6009015
v -4.1827207 0.29405788 -0.400601
v -6.8244395 0.7351447 -0.400601
v -4.1827207 0.7351447 0.6009015
v -6.8244395 0.7351447 0.6009015
v -6.8244395 0.7351447 -0.400601
v -4.1827207 0.7351447 -0.400601
v -4.1827207 0.7351447 0.6009015
v -6.8244395 0.29405788 -0.400601
v -6.8244395 0.7351447 -0.400601
v -6.8244395 0.7351447 0.6009015
v -6.8244395 0.29405788 -0.400601
v -6.8244395 0.7351447 0.6009015
v -6.8244395 0.29405788 0.6009015
v -4.1827207 0.29405788 -0.400601
v -4.1827207 0.29405788 0.6009015
v -4.1827207 0.7351447 0.6009015
v -4.1827207 0.29405788 -0.400601
v -4.1827207 0.7351447 0.6009015
v -4.1827207 0.7351447 -0.400601
v 4.1827207 0.29405788 -0.400601
v 6.8244395 0.29405788 -0.400601
v 6.8244395 0.7351447 -0.400601
v 4.1827207 0.29405788 -0.400601
v 6.8244395 0.7351447 -0.400601
v 4.1827207 0.7351447 -0.400601
v 4.1827207 0.29405788 0.6009015
v 6.8244395 0.7351447 0.6009015
v 6.8244395 0.29405788 0.6009015
v 4.1827207 0.29405788 0.6009015
v 4.1827207 0.7351447 0.6009015
v 6.8244395 0.7351447 0.6009015
v 4.1827207 0.29405788 -0.400601
v 4.1827207 0.29405788 0.6009015
v 6.8244395 0.29405788 0.6009015
v 4.1827207 0.29405788 -0.400601
v 6.8244395 0.29405788 0.6009015
v 6.8244395 0.29405788 -0.400601
v 4.1827207 0.7351447 -0.400601
v 6.8244395 0.7351447 0.6009015
v 4.1827207 0.7351447 0.6009015
v 4.1827207 0.7351447 -0.400601
v 6.8244395 0.7351447 -0.400601
v 6.8244395 0.7351447 0.6009015
v 4.1827207 0.29405788 -0.400601
v 4.1827207 0.7351447 -0.400601
v 4.1827207 0.7351447 0.6009015
v 4.1827207 0.29405788 -0.400601
v 4.1827207 0.7351447 0.6009015
v 4.1827207 0.29405788 0.6009015
v 6.8244395 0.29405788 -0.400601
v 6.8244395 0.29405788 0.6009015
v 6.8244395 0.7351447 0.6009015
v 6.8244395 0.29405788 -0.400601
v 6.8244395 0.7351447 0.6009015
v 6.8244395 0.7351447 -0.400601
v -1.651074 0.5146013 2.1031551
v 1.651074 0.5146013 2.1031551
v 1.651074 0.95568806 2.1031551
v -1.651074 0.5146013 2.1031551
v 1.651074 0.95568806 2.1031551
v -1.651074 0.95568806 2.1031551
v -1.651074 0.5146013 2.9043572
v 1.651074 0.95568806 2.9043572
v 1.651074 0.5146013 2.9043572
v -1.651074 0.5146013 2.9043572
v -1.651074 0.95568806 2.9043572
v 1.651074 0.95568806 2.9043572
v -1.651074 0.5146013 2.1031551
v -1.651074 0.5146013 2.9043572
v 1.651074 0.5146013 2.9043572
v -1.651074 0.5146013 2.1031551
v 1.651074 0.5146013 2.9043572
v 1.651074 0.5146013 2.1031551
v -1.651074 0.95568806 2.1031551
v 1.651074 0.95568806 2.9043572
v -1.651074 0.95568806 2.9043572
v -1.651074 0.95568806 2.1031551
v 1.651074 0.95568806 2.1031551
v 1.651074 0.95568806 2.9043572
v -1.651074 0.5146013 2.1031551
v -1.651074 0.95568806 2.1031551
v -1.651074 0.95568806 2.9043572
v -1.651074 0.5146013 2.1031551
v -1.651074 0.95568806 2.9043572
v -1.651074 0.5146013 2.9043572
v 1.651074 0.5146013 2.1031551
v 1.651074 0.5146013 2.9043572
v 1.651074 0.95568806 2.9043572
v 1.651074 0.5146013 2.1031551
v 1.651074 0.95568806 2.9043572
v 1.651074 0.95568806 2.1031551
v -3.2104216 0.12381384 -3.4496198
v -4.641352 0 -6.5976677
v -1.7794908 0 -6.5976677
v 0 0.12381384 -3.4496198
v -1.4309307 0 -6.5976677
v 1.4309307 0 -6.5976677
v 3.2104216 0.12381384 -3.4496198
v 1.7794908 0 -6.5976677
v 4.641352 0 -6.5976677
v -2.0179794 0.58811575 -0.27819514
v -2.6600637 0.21667422 -0.82855314
v -1.375895 0.21667422 -0.82855314
v 0 0.58811575 -0.92027944
v -0.6420843 0.21667422 -1.4706374
v 0.6420843 0.21667422 -1.4706374
v 2.0179794 0.58811575 -1.5623637
v 1.375895 0.21667422 -2.1127217
v 2.6600637 0.21667422 -2.1127217
vn 0 0 1
vn 0 0 1
vn 0 0 1
vn 0 0 1
vn 0 0 1
vn 0 0 1
vn 0 0 -1
vn 0 0 -1
vn 0 0 -1
vn 0 0 -1
vn 0 0 -1
vn 0 0 -1
vn 0 0.99999994 0
vn 0 0.99999994 0
vn 0 0.99999994 0
vn 0 0.99999994 0
vn 0 0.99999994 0
vn 0 0.99999994 0
vn 0 -0.99999994 0
vn 0 -0.99999994 0
vn 0 -0.99999994 0
vn 0 -0.99999994 0
vn 0 -0.99999994 0
vn 0 -0.99999994 0
vn 0.99999994 0 0
vn 0.99999994 0 0
vn 0.99999994 0 0
vn 0.99999994 0 0
vn 0.99999994 0 0
vn 0.99999994 0 0
vn -0.99999994 0 0
vn -0.99999994 0 0
vn -0.99999994 0 0
vn -0.99999994 0 0
vn -0.99999994 0 0
vn -0.99999994 0 0
vn 0 0 1
vn 0 0 1
vn 0 0 1
vn 0 0 1
vn 0 0 1
vn 0 0 1
vn 0 0 -1
vn 0 0 -1
vn 0 0 -1
vn 0 0 -1
vn 0 0 -1
vn 0 0 -1
vn 0 1 0
vn 0 1 0
vn 0 1 0
vn 0 1 0
vn 0 1 0
vn 0 1 0
vn 0 -1 0
vn 0 -1 0
vn 0 -1 0
vn 0 -1 0
vn 0 -1 0
vn 0 -1 0
vn 1 0 0
vn 1 0 0
vn 1 0 0
vn 1 0 0
vn 1 0 0
vn 1 0 0
vn -1 0 0
vn -1 0 0
vn -1 0 0
vn -1 0 0
vn -1 0 0
vn -1 0 0
vn 0 0 1
vn 0 0 1
vn 0 0 1
vn 0 0 1
vn 0 0 1
vn 0 0 1
vn 0 0 -1
vn 0 0 -1
vn 0 0 -1
vn 0 0 -1
vn 0 0 -1
vn 0 0 -1
vn 0 1 0
vn 0 1 0
vn 0 1 0
vn 0 1 0
vn 0 1 0
vn 0 1 0
vn 0 -1 0
vn 0 -1 0
vn 0 -1 0
vn 0 -1 0
vn 0 -1 0
vn 0 -1 0
vn 1 0 0
vn 1 0 0
vn 1 0 0
vn 1 0 0
vn 1 0 0
vn 1 0 0
vn -1 0 0
vn -1 0 0
vn -1 0 0
vn -1 0 0
vn -1 0 0
vn -1 0 0
vn 0 0 1
vn 0 0 1
vn 0 0 1
vn 0 0 1
vn 0 0 1
vn 0 0 1
vn 0 0 -1
vn 0 0 -1
vn 0 0 -1
vn 0 0 -1
vn 0 0 -1
vn 0 0 -1
vn 0 0.99999994 0
vn 0 0.99999994 0
vn 0 0.99999994 0
vn 0 0.99999994 0
vn 0 0.99999994 0
vn 0 0.99999994 0
vn 0 -0.99999994 0
vn 0 -0.99999994 0
vn 0 -0.99999994 0
vn 0 -0.99999994 0
vn 0 -0.99999994 0
vn 0 -0.99999994 0
vn 1 0 0
vn 1 0 0
vn 1 0 0
vn 1 0 0
vn 1 0 0
vn 1 0 0
vn -1 0 0
vn -1 0 0
vn -1 0 0
vn -1 0 0
vn -1 0 0
vn -1 0 0
vn 0 0 1
vn 0 0 1
vn 0 0 1
vn 0 0 1
vn 0 0 1
vn 0 0 1
vn 0 0 -1
vn 0 0 -1
vn 0 0 -1
vn 0 0 -1
vn 0 0 -1
vn 0 0 -1
vn 0 0.99999994 0
vn 0 0.99999994 0
vn 0 0.99999994 0
vn 0 0.99999994 0
vn 0 0.99999994 0
vn 0 0.99999994 0
vn 0 -0.99999994 0
vn 0 -0.99999994 0
vn 0 -0.99999994 0
vn 0 -0.99999994 0
vn 0 -0.99999994 0
vn 0 -0.99999994 0
vn 1 0 0
vn 1 0 0
vn 1 0 0
vn 1 0 0
vn 1 0 0
vn 1 0 0
vn -1 0 0
vn -1 0 0
vn -1 0 0
vn -1 0 0
vn -1 0 0
vn -1 0 0
vn 0 0 1
vn 0 0 1
vn 0 0 1
vn 0 0 1
vn 0 0 1
vn 0 0 1
vn 0 0 -1
vn 0 0 -1
vn 0 0 -1
vn 0 0 -1
vn 0 0 -1
vn 0 0 -1
vn 0 1 0
vn 0 1 0
vn 0 1 0
vn 0 1 0
vn 0 1 0
vn 0 1 0
vn 0 -1 0
vn 0 -1 0
vn 0 -1 0
vn 0 -1 0
vn 0 -1 0
vn 0 -1 0
vn 1 0 0
vn 1 0 0
vn 1 0 0
vn 1 0 0
vn 1 0 0
vn 1 0 0
vn -1 0 0
vn -1 0 0
vn -1 0 0
vn -1 0 0
vn -1 0 0
vn -1 0 0
vn 0 -0.99922746 0.03929997
vn 0 -0.99922746 0.03929997
vn 0 -0.99922746 0.03929997
vn 0 -0.99922746 0.03929997
vn 0 -0.99922746 0.03929997
vn 0 -0.99922746 0.03929997
vn 0 -0.99922746 0.03929997
vn 0 -0.99922746 0.03929997
vn 0 -0.99922746 0.03929997
vn 0 -0.82888365 0.559421
vn 0 -0.82888365 0.559421
vn 0 -0.82888365 0.559421
vn 0 -0.82888365 0.559421
vn 0 -0.82888365 0.559421
vn 0 -0.82888365 0.559421
vn 0 -0.8288836 0.55942106
vn 0 -0.8288836 0.55942106
vn 0 -0.8288836 0.55942106
f 1//1 2//2 3//3
f 4//4 5//5 6//6
f 7//7 8//8 9//9
f 10//10 11//11 12//12
f 13//13 14//14 15//15
f 16//16 17//17 18//18
f 19//19 20//20 21//21
f 22//22 23//23 24//24
f 25//25 26//26 27//27
f 28//28 29//29 30//30
f 31//31 32//32 33//33
f 34//34 35//35 36//36
f 37//37 38//38 39//39
f 40//40 41//41 42//42
f 43//43 44//44 45//45
f 46//46 47//47 48//48
f 49//49 50//50 51//51
f 52//52 53//53 54//54
f 55//55 56//56 57//57
f 58//58 59//59 60//60
f 61//61 62//62 63//63
f 64//64 65//65 66//66
f 67//67 68//68 69//69
f 70//70 71//71 72//72
f 73//73 74//74 75//75
f 76//76 77//77 78//78
f 79//79 80//80 81//81
f 82//82 83//83 84//84
f 85//85 86//86 87//87
f 88//88 89//89 90//90
f 91//91 92//92 93//93
f 94//94 95//95 96//96
f 97//97 98//98 99//99
f 100//100 101//101 102//102
f 103//103 104//104 105//105
f 106//106 107//107 108//108
f 109//109 110//110 111//111
f 112//112 113//113 114//114
f 115//115 116//116 117//117
f 118//118 119//119 120//120
f 121//121 122//122 123//123
f 124//124 125//125 126//126
f 127//127 128//128 129//129
f 130//130 131//131 132//132
f 133//133 134//134 135//135
f 136//136 137//137 138//138
f 139//139 140//140 141//141
f 142//142 143//143 144//144
f 145//145 146//146 147//147
f 148//148 149//149 150//150
f 151//151 152//152 153//153
f 154//154 155//155 156//156
f 157//157 158//158 159//159
f 160//160 161//161 162//162
f 163//163 164//164 165//165
f 166//166 167//167 168//168
f 169//169 170//170 171//171
f 172//172 173//173 174//174
f 175//175 176//176 177//177
f 178//178 179//179 180//180
f 181//181 182//182 183//183
f 184//184 185//185 186//186
f 187//187 188//188 189//189
f 190//190 191//191 192//192
f 193//193 194//194 195//195
f 196//196 197//197 198//198
f 199//199 200//200 201//201
f 202//202 203//203 204//204
f 205//205 206//206 207//207
f 208//208 209//209 210//210
f 211//211 212//212 213//213
f 214//214 215//215 216//216
f 217//217 218//218 219//219
f 220//220 221//221 222//222
f 223//223 224//224 225//225
f 226//226 227//227 228//228
f 229//229 230//230 231//231
f 232//232 233//233 234//234
